<?xml version="1.0" encoding="UTF-8" standalone="no"?>
<svg
   xmlns:svg="http://www.w3.org/2000/svg"
   xmlns="http://www.w3.org/2000/svg"
   width="480.0"
   height="480.0"

>
    <g transform="scale(0.13694027125580632, -0.13694027125580632)   translate(1307.9158203571192,-114.50245838500226)" stroke-width="1.0"  fill="none">
       <!-- hidden lines -->
       <g  stroke="rgb(0,0,0)" fill="none" stroke-dasharray="1.0,1.0" >
			<path d="M-1197.5032845210246,-640.4520291735067 L-1138.159074997867,-672.0321739558744 " />
			<path d="M-1135.89633329807,-670.5270205664607 L-1135.8994818265587,-670.6682191541627 L-1135.9089186498827,-670.8056738037587 L-1135.9246175060018,-670.9390019882638 L-1135.946534706062,-671.0678326643659 L-1135.9746092559792,-671.1918073050144 L-1136.0087630261817,-671.3105808971768 L-1136.0489009690384,-671.4238229019862 L-1136.0949113833722,-671.5312181746092 L-1136.146666225314,-671.6324678412718 L-1136.174653411,-671.6806993290853 L-1136.2040214646424,-671.7272901310058 L-1136.23474995036,-671.7722078266313 L-1136.2668174856092,-671.8154211597978 L-1136.3002017560627,-671.8569000603288 L-1136.3348795311383,-671.8966156649603 L-1136.3708266801632,-671.9345403374248 L-1136.408018189165,-671.9706476876822 L-1136.4464281782787,-672.0049125902838 L-1136.4860299197546,-672.0373112018556 L-1136.5267958565578,-672.0678209776897 L-1136.5686976215422,-672.096420687433 L-1136.611706057192,-672.1230904298592 L-1136.6557912359094,-672.1478116467177 " />
			<path d="M-1136.6557912359094,-672.1478116467177 L-1136.7341206912672,-672.1857572405785 L-1136.8153886603689,-672.2177991001147 L-1136.8994275539494,-672.2438711492114 L-1136.986064068597,-672.2639196225834 L-1137.075119544134,-672.2779031766493 L-1137.166410332048,-672.2857929747889 L-1137.2597481742077,-672.2875727468105 L-1137.3549405910856,-672.2832388225016 L-1137.4517912786848,-672.272800139199 L-1137.5501005133544,-672.2562782233573 L-1137.6496655636556,-672.2337071461578 L-1137.7502811084298,-672.2051334532481 L-1137.8517396602092,-672.1706160687556 L-1137.9538319930925,-672.130226173776 L-1138.0563475742074,-672.0840470595845 L-1138.159074997867,-672.0321739558744 " />
			<path d="M-1234.1318247263475,-589.4717593598928 L-1234.0534952709897,-589.433813766032 L-1233.972227301888,-589.4017719064958 L-1233.8881884083075,-589.3756998573991 L-1233.80155189366,-589.355651384027 L-1233.712496418123,-589.3416678299612 L-1233.621205630209,-589.3337780318216 L-1233.5278677880492,-589.3319982598 L-1233.4326753711714,-589.3363321841089 L-1233.3358246835721,-589.3467708674115 L-1233.2375154489025,-589.3632927832532 L-1233.1379503986013,-589.3858638604527 L-1233.0373348538271,-589.4144375533624 L-1232.9358763020477,-589.4489549378549 L-1232.8337839691644,-589.4893448328345 L-1232.7312683880496,-589.535523947026 L-1232.62854096439,-589.5873970507361 " />
			<path d="M-1232.62854096439,-589.5873970507361 L-1138.159074997867,-639.8595202571554 " />
			<path d="M-1138.159074997867,-639.8595202571554 L-1138.0480475250542,-639.921867199931 L-1137.9372875271486,-639.9905908268921 L-1137.827061834686,-640.0655255768021 L-1137.7176359910143,-640.1464909252848 L-1137.6092736125759,-640.2332918197241 L-1137.5022357538312,-640.3257191491624 L-1137.396780278358,-640.4235502480674 L-1137.293161237633,-640.5265494327527 L-1137.1916282590018,-640.634468569161 L-1137.0924259443027,-640.74704767064 L-1136.995793280601,-640.8640155242733 L-1136.9019630644477,-640.9850903442565 L-1136.811161341052,-641.1099804507434 L-1136.7236068597188,-641.2383849725281 L-1136.6395105468625,-641.3699945718712 L-1136.5590749978671,-641.5044921897197 L-1136.482493989015,-641.6415538095321 L-1136.4099520106643,-641.7808492378607 L-1136.3416238227949,-641.9220428998179 L-1136.2776740339962,-642.0647946475052 L-1136.2182567049106,-642.2087605794586 L-1136.1635149770884,-642.3535938691381 L-1136.1135807281466,-642.4989456004631 L-1136.0685742540647,-642.6444656083814 L-1136.0286039793812,-642.7898033224479 L-1135.993766195988,-642.9346086113794 L-1135.9641448311575,-643.0785326265514 L-1135.9398112453516,-643.2212286424051 L-1135.9208240603102,-643.3623528917395 L-1135.9072290178249,-643.5015653938771 L-1135.899058869544,-643.6385307737065 L-1135.89633329807,-643.7729190696311 " />
			<path d="M-1135.8963332980702,-670.5270205664607 L-1135.8963332980702,-643.7729190696313 " />
			<path d="M-1135.3764763451595,-2585.656628153589 L-1135.379968971079,-2585.796619555723 L-1135.3896769289781,-2585.93288810765 L-1135.4055735353152,-2586.0650592581437 L-1135.4276150962717,-2586.1927697182005 L-1135.4557410278494,-2586.315668459584 L-1135.4898740223937,-2586.4334176796706 L-1135.529920261083,-2586.5456937299437 L-1135.5757696718015,-2586.65218800558 L-1135.6272962316866,-2586.7526077936905 L-1135.6551447832499,-2586.800452826525 L-1135.6843583135183,-2586.846677077878 L-1135.714916744778,-2586.8912487790017 L-1135.7467990749992,-2586.9341372969025 L-1135.77998339227,-2586.9753131553975 L-1135.8144468898556,-2587.0147480553696 L-1135.8501658818743,-2587.0524148942186 L-1135.887115819574,-2587.088287784487 L-1135.9252713082058,-2587.1223420716533 L-1135.964606124476,-2587.1545543510747 L-1136.0050932345691,-2587.184902484074 L-1136.0467048127277,-2587.213365613154 L-1136.089412260376,-2587.239924176332 L-1136.1331862257755,-2587.2645599205853 " />
			<path d="M-1197.5363151055965,-2523.5800704004596 L-1197.4574772622398,-2523.5417412305796 L-1197.3756496649785,-2523.509396418882 L-1197.291003490066,-2523.483103627914 L-1197.203715809976,-2523.462917859919 L-1197.1139692229829,-2523.4488813417775 L-1197.021951471181,-2523.4410234366705 L-1196.927855047745,-2523.439360582656 L-1196.8318767942512,-2523.4438962582803 L-1196.7342174889013,-2523.454620975303 L-1196.635081426512,-2523.4715122985435 L-1196.5346759911477,-2523.494534892816 L-1196.4332112222917,-2523.523640596844 L-1196.330899375461,-2523.558768524014 L-1196.2279544781868,-2523.5998451897417 L-1196.1245918822867,-2523.6467846651963 L-1196.0210278133675,-2523.6994887570568 " />
			<path d="M-11.682938691204438,-1890.8927743880752 L46.77575294819293,-1922.2407456188132 " />
			<path d="M-1196.0210278133675,-2523.6994887570568 L-1137.5623361739702,-2555.047459987795 " />
			<path d="M-1137.5623361739704,-2555.047459987795 L-1137.451219214755,-2555.1103060249134 L-1137.3403874207559,-2555.179512334221 L-1137.2301077954728,-2555.254912191657 L-1137.1206460121823,-2555.33632395236 L-1137.0122657739078,-2555.4235514882685 L-1136.9052281781367,-2555.516384660608 L-1136.7997910878123,-2555.6145998261345 L-1136.6962085101204,-2555.7179603759123 L-1136.5947299845636,-2555.826217305323 L-1136.4955999817985,-2555.9391098139427 L-1136.3990573146841,-2556.0563659338286 L-1136.3053345629621,-2556.177703184718 L-1136.2146575129502,-2556.302829254546 L-1136.1272446136043,-2556.4314427036497 L-1136.0433064502556,-2556.5632336909657 L-1135.9630452372917,-2556.6978847204623 L-1135.8866543310044,-2556.835071406015 L-1135.814317763778,-2556.9744632528814 L-1135.7462098007393,-2557.1157244538945 L-1135.6824945199367,-2557.258514698447 L-1135.623325417062,-2557.4024899923334 L-1135.5688450356672,-2557.54730348646 L-1135.5191846237626,-2557.692606312435 L-1135.4744638176303,-2557.838048423024 L-1135.4347903536095,-2557.9832794354425 L-1135.40025980855,-2558.1279494754617 L-1135.3709553695592,-2558.271710020283 L-1135.3469476335974,-2558.4142147381626 L-1135.3282944374037,-2558.555120322753 L-1135.315040718161,-2558.694087320159 L-1135.3072184052403,-2558.8307809467115 L-1135.3048463432785,-2558.9648718954913 " />
			<path d="M-1135.3764763451595,-2585.6566281535884 L-1135.3048463432783,-2558.964871895491 " />
			<path d="M47.234434517644175,-1925.4770418995492 L47.34273640877963,-1925.4165080089067 L47.445326249337,-1925.353219113162 L47.54195689145259,-1925.2873276807784 L47.6323955434909,-1925.218992449957 L47.716424330859994,-1925.1483780462231 L47.79384082089037,-1925.0756545858264 L47.86445851051286,-1925.0009972659195 L47.928107275560855,-1924.92458594249 L47.98463378061414,-1924.8466046970732 L48.033901848397356,-1924.7672413932833 L48.07579278784289,-1924.686687224233 L48.11020568002802,-1924.605136251934 L48.13705762129734,-1924.5227849397832 L48.156283922984954,-1924.4398316792663 L48.16783826725506,-1924.3564763120148 L48.17169281868568,-1924.2729196483706 " />
			<path d="M48.17169281868568,-1924.2729196483706 L48.167838289829405,-1924.189362967398 L48.15628396508847,-1924.1060075807172 L48.13705767984862,-1924.0230542987947 L48.11020575192402,-1923.9407029633915 L48.075792869973554,-1923.8591519661263 L48.03390193766015,-1923.7785977705323 L47.984633873928566,-1923.6992344387604 L47.92810736988275,-1923.6212531640654 L47.86445860284855,-1923.5448418102048 L47.793840908310486,-1923.4701844588585 L47.71642441051313,-1923.3974609661602 L47.63239561261677,-1923.3268465294077 L47.54195694739492,-1923.2585112649972 L47.4453262895559,-1923.1926197985981 L47.342736430863496,-1923.1293308685551 L47.23443451932113,-1923.0687969434741 " />
			<path d="M-11.172585585044256,-1891.9873794369562 L-11.30352987977993,-1891.921514779763 L-11.441232953042807,-1891.8596765653142 L-11.585258222739235,-1891.8020608491986 L-11.735149062504298,-1891.748850299743 L-11.890430249417458,-1891.7002136188692 L-12.050609470677843,-1891.656305007231 L-12.215178884462324,-1891.6172636753276 L-12.383616730017723,-1891.5832134021432 L-12.55538898188245,-1891.5542621427082 L-12.729951042992887,-1891.5305016858347 L-12.906749471306643,-1891.5120073631017 L-13.085223734468423,-1891.498837810021 L-13.264807986955493,-1891.491034780135 L-13.444932864068287,-1891.4886230126376 L-13.625027287078467,-1891.4916101539416 L-13.804520273811177,-1891.499986733435 " />
			<path d="M-38.979630512240014,-23.235817475773004 L-38.97577598338374,-23.31937415674563 L-38.964221658642806,-23.402729543426442 L-38.94499537340295,-23.485682825348853 L-38.91814344547836,-23.56803416075205 L-38.88373056352789,-23.64958515801739 L-38.841839631214484,-23.730139353611285 L-38.7925715674829,-23.809502685383148 L-38.73604506343709,-23.8874839600782 L-38.67239629640289,-23.963895313938856 L-38.60177860186482,-24.038552665285078 L-38.524362104067464,-24.11127615798333 L-38.440333306171105,-24.181890594735847 L-38.34989464094926,-24.25022585914636 L-38.25326398311024,-24.316117325545473 L-38.15067412441783,-24.37940625558839 L-38.042372212875456,-24.439940180669566 " />
			<path d="M-38.04264327841277,-1903.8780861278851 L-38.15094516954822,-1903.9386200185277 L-38.253535010105594,-1904.0019089142725 L-38.35016565222118,-1904.067800346656 L-38.440604304259494,-1904.1361355774773 L-38.52463309162859,-1904.2067499812113 L-38.60204958165895,-1904.279473441608 L-38.672667271281455,-1904.3541307615149 L-38.73631603632945,-1904.4305420849444 L-38.79284254138273,-1904.5085233303612 L-38.84211060916595,-1904.5878866341511 L-38.884001548611494,-1904.6684408032013 L-38.91841444079661,-1904.7499917755003 L-38.94526638206593,-1904.8323430876512 L-38.96449268375355,-1904.915296348168 L-38.97604702802365,-1904.9986517154196 L-38.97990157945427,-1905.0822083790638 " />
			<path d="M-38.97990157945427,-1905.0822083790638 L-38.976047050598,-1905.1657650600364 L-38.96449272585706,-1905.2491204467171 L-38.94526644061721,-1905.3320737286397 L-38.918414512692614,-1905.414425064043 L-38.88400163074215,-1905.495976061308 L-38.84211069842874,-1905.576530256902 L-38.79284263469716,-1905.655893588674 L-38.736316130651346,-1905.733874863369 L-38.672667363617144,-1905.8102862172295 L-38.60204966907908,-1905.8849435685759 L-38.52463317128172,-1905.9576670612742 L-38.44060437338536,-1906.0282814980267 L-38.350165708163516,-1906.0966167624372 L-38.253535050324494,-1906.1625082288363 L-38.15094519163209,-1906.2257971588792 L-38.04264328008971,-1906.2863310839602 " />
			<path d="M-38.04237221287545,-24.439940180669566 L20.36464789148992,-55.52135768718769 " />
			<path d="M-38.042643280089706,-1906.2863310839607 L20.36437682427566,-1937.3677485904786 " />
			<path d="M20.364647891489913,-55.52135768718768 L20.478400935736275,-55.57899077029891 L20.59733108188505,-55.633584174310506 L20.72115181679712,-55.6850063789304 L20.849564845476667,-55.733133503563614 L20.982260809689947,-55.777849605751456 L21.118920033236375,-55.819046960487086 L21.259213292076495,-55.856626319734495 L21.402802607461524,-55.890497151525686 L21.549342060153762,-55.92057785806014 L21.698478623776328,-55.94679597228106 L21.84985301528464,-55.969088332454845 L22.00310056051072,-55.98740123433326 L22.15785207269522,-56.001690560531664 L22.31373474189066,-56.01192188681164 L22.47037303309323,-56.01807056501203 L22.62738959093954,-56.02012178242848 L22.784406148788708,-56.01807059749858 L22.941044439999843,-56.01192195170647 L23.09692710920953,-56.00169065767844 L23.25167862141393,-55.987401363497945 L23.40492616666552,-55.96908849332627 L23.556300558204875,-55.94679616447167 L23.70543712186395,-55.92057808110694 L23.851976574598083,-55.89049740489133 L23.99556589003028,-55.8566266028086 L24.135859148922737,-55.81904727258771 L24.27251837252654,-55.777849946126715 L24.405214336802093,-55.73313387139352 L24.533627365548664,-55.685006773328816 L24.65744810053235,-55.63358459432729 L24.776378246757158,-55.5789912149222 L24.890131291083772,-55.52135815534635 " />
			<path d="M20.36437682427566,-1937.3677485904782 L20.478129868522018,-1937.4253816735895 L20.597060014670795,-1937.479975077601 L20.720880749582868,-1937.531397282221 L20.849293778262414,-1937.5795244068543 L20.981989742475694,-1937.624240509042 L21.11864896602212,-1937.6654378637777 L21.258942224862242,-1937.703017223025 L21.40253154024727,-1937.7368880548163 L21.54907099293951,-1937.7669687613507 L21.698207556562075,-1937.7931868755716 L21.849581948070387,-1937.8154792357454 L22.002829493296467,-1937.8337921376237 L22.157581005480967,-1937.8480814638222 L22.313463674676406,-1937.8583127901022 L22.47010196587898,-1937.8644614683026 L22.627118523725287,-1937.866512685719 L22.784135081574455,-1937.864461500789 L22.94077337278559,-1937.8583128549972 L23.096656041995278,-1937.848081560969 L23.251407554199677,-1937.8337922667886 L23.404655099451265,-1937.8154793966169 L23.55602949099062,-1937.7931870677623 L23.705166054649702,-1937.7669689843974 L23.85170550738383,-1937.736888308182 L23.995294822816028,-1937.7030175060993 L24.135588081708484,-1937.6654381758783 L24.272247305312288,-1937.6242408494172 L24.40494326958784,-1937.5795247746842 L24.53335629833441,-1937.5313976766195 L24.6571770333181,-1937.479975497618 L24.776107179542905,-1937.4253821182128 L24.88986022386952,-1937.367749058637 " />
			<path d="M47.23470558485843,-43.630650996258545 L24.890131291083794,-55.52135815534634 " />
			<path d="M47.23443451764416,-1925.4770418995492 L24.88986022386953,-1937.3677490586372 " />
			<path d="M-298.5404830169603,-2044.9108020662125 L-240.1334628909515,-2075.9922195576064 " />
			<path d="M-240.13346289095148,-196.55421824006885 L-240.02516098961254,-196.49368432046882 L-239.92257113998767,-196.43039539530247 L-239.82594049001037,-196.364503933134 L-239.73550183138028,-196.29616867226716 L-239.65147303874755,-196.2255542383309 L-239.5740565448337,-196.15283074768155 L-239.50343885275342,-196.07817339757804 L-239.43979008671232,-196.0017620441159 L-239.38326358216275,-195.92378076893849 L-239.33399551640537,-195.84441743576807 L-239.2921045805259,-195.76386323782563 L-239.2576916934581,-195.68231223722975 L-239.23083975886112,-195.5999608974839 L-239.2116134653974,-195.5170076101786 L-239.20005913089187,-195.4336522170489 L-239.19620459074844,-195.35009552853785 " />
			<path d="M-240.13346289095148,-2078.4004649806684 L-240.02516098961254,-2078.3399310610685 L-239.92257113998767,-2078.276642135902 L-239.82594049001037,-2078.2107506737334 L-239.73550183138028,-2078.1424154128667 L-239.65147303874755,-2078.0718009789302 L-239.5740565448337,-2077.9990774882813 L-239.50343885275342,-2077.9244201381775 L-239.43979008671232,-2077.8480087847156 L-239.38326358216275,-2077.770027509538 L-239.33399551640537,-2077.6906641763676 L-239.2921045805259,-2077.610109978425 L-239.2576916934581,-2077.528558977829 L-239.23083975886112,-2077.4462076380833 L-239.2116134653974,-2077.3632543507783 L-239.20005913089187,-2077.2798989576486 L-239.19620459074844,-2077.1963422691374 " />
			<path d="M-239.19620459074844,-2077.1963422691374 L-239.20005913089187,-2077.112785580626 L-239.2116134653974,-2077.0294301874965 L-239.23083975886112,-2076.9464769001916 L-239.2576916934581,-2076.8641255604457 L-239.2921045805259,-2076.7825745598498 L-239.33399551640537,-2076.702020361907 L-239.38326358216275,-2076.6226570287367 L-239.43979008671232,-2076.544675753559 L-239.50343885275342,-2076.4682644000973 L-239.5740565448337,-2076.3936070499935 L-239.65147303874755,-2076.3208835593446 L-239.73550183138028,-2076.250269125408 L-239.82594049001037,-2076.1819338645414 L-239.92257113998767,-2076.116042402373 L-240.02516098961254,-2076.0527534772064 L-240.13346289095145,-2075.9922195576064 " />
			<path d="M-298.5404830169603,-2044.9108020662125 L-298.6514653979655,-2044.8545068856442 L-298.767387609085,-2044.8011052676627 L-298.88798352574605,-2044.7507198072615 L-299.0129762938713,-2044.703466175191 L-299.14207896545753,-2044.65945285241 L-299.27499515732677,-2044.6187808810453 L-299.4114197315385,-2044.5815436324267 L-299.55103949589954,-2044.5478265927331 L-299.69353392296506,-2044.5177071667404 L-299.8385758858785,-2044.491254500122 L-299.9858324093624,-2044.4685293207108 L-300.13496543413527,-2044.4495837990835 L-300.285632593,-2044.4344614287934 L-300.43748799682203,-2044.4231969265206 L-300.5901830285928,-2044.415816152373 L-300.7433671437557,-2044.412336050518 " />
			<path d="M-326.3477990022522,-176.15938981351246 L-326.34394446210877,-176.2429465020235 L-326.3323901276032,-176.32630189515322 L-326.3131638341395,-176.4092551824585 L-326.28631189954257,-176.49160652220436 L-326.2518990124748,-176.57315752280024 L-326.2100080765953,-176.65371172074268 L-326.16074001083786,-176.7330750539131 L-326.1042135062883,-176.81105632909052 L-326.04056474024725,-176.88746768255265 L-325.96994704816694,-176.96212503265616 L-325.8925305542531,-177.0348485233055 L-325.80850176162033,-177.10546295724177 L-325.7180631029903,-177.1737982181086 L-325.62143245301297,-177.23968968027708 L-325.51884260338807,-177.30297860544343 L-325.41054070204916,-177.36351252504346 " />
			<path d="M-326.34377981593354,-2058.0909580406105 L-326.3330403008147,-2058.168997597275 L-326.31557530469365,-2058.2466922250974 L-326.2914217040544,-2058.3238778756763 L-326.2606304980417,-2058.400391575291 L-326.223266700779,-2058.476071769012 L-326.1794092040943,-2058.5507586618164 L-326.129150610944,-2058.6242945559884 L-326.072597039886,-2058.6965241840885 L-326.0098679010158,-2058.7672950367946 L-325.94109564383797,-2058.8364576849176 L-325.86642547760533,-2058.903866094913 L-325.78601506471693,-2058.9693779372246 L-325.7000341878213,-2059.0328548868056 L-325.6086643913291,-2059.0941629151857 L-325.51209859809074,-2059.1531725734662 L-325.41054070204916,-2059.2097592656432 " />
			<path d="M-325.41054070204916,-177.36351252504346 L-267.0035205760404,-208.44493001643752 " />
			<path d="M-325.41054070204916,-2059.2097592656432 L-267.0035205760404,-2090.291176757037 " />
			<path d="M-267.00352057604033,-208.44493001643752 L-266.8897675317538,-208.50256309895678 L-266.77083738556706,-208.55715650125143 L-266.64701665061915,-208.60857870303352 L-266.5186036219061,-208.65670582371487 L-266.3859076576617,-208.70142192084637 L-266.24924843408655,-208.74261926943333 L-266.1089551752203,-208.78019862145456 L-265.9653658598117,-208.81406944495944 L-265.81882640709847,-208.84415014216748 L-265.66968984345766,-208.8703682460443 L-265.5183154519338,-208.89266059488125 L-265.365067906695,-208.91097348445737 L-265.2103163945005,-208.92526279741767 L-265.054433725298,-208.93549410955566 L-264.8977954340911,-208.94164277274422 L-264.7407788762434,-208.94369397431512 L-264.58376231839566,-208.94164277274422 L-264.42712402718877,-208.93549410955566 L-264.27124135798624,-208.92526279741767 L-264.11648984579176,-208.91097348445737 L-263.96324230055296,-208.89266059488125 L-263.8118679090291,-208.8703682460443 L-263.6627313453883,-208.84415014216748 L-263.51619189267507,-208.81406944495944 L-263.3726025772665,-208.78019862145456 L-263.2323093184002,-208.74261926943333 L-263.0956500948251,-208.70142192084637 L-262.96295413058067,-208.65670582371487 L-262.8345411018676,-208.60857870303352 L-262.7107203669197,-208.55715650125143 L-262.59179022073295,-208.50256309895678 L-262.47803717644643,-208.44493001643752 " />
			<path d="M-267.00352057604033,-2090.291176757037 L-266.8897675317538,-2090.3488098395565 L-266.77083738556706,-2090.4034032418513 L-266.64701665061915,-2090.454825443633 L-266.5186036219061,-2090.5029525643145 L-266.3859076576617,-2090.547668661446 L-266.24924843408655,-2090.588866010033 L-266.1089551752203,-2090.6264453620543 L-265.9653658598117,-2090.660316185559 L-265.81882640709847,-2090.6903968827673 L-265.66968984345766,-2090.716614986644 L-265.5183154519338,-2090.7389073354807 L-265.365067906695,-2090.757220225057 L-265.2103163945005,-2090.771509538017 L-265.054433725298,-2090.7817408501555 L-264.8977954340911,-2090.787889513344 L-264.7407788762434,-2090.789940714915 L-264.58376231839566,-2090.787889513344 L-264.42712402718877,-2090.7817408501555 L-264.27124135798624,-2090.771509538017 L-264.11648984579176,-2090.757220225057 L-263.96324230055296,-2090.7389073354807 L-263.8118679090291,-2090.716614986644 L-263.6627313453883,-2090.6903968827673 L-263.51619189267507,-2090.660316185559 L-263.3726025772665,-2090.6264453620543 L-263.2323093184002,-2090.588866010033 L-263.0956500948251,-2090.547668661446 L-262.96295413058067,-2090.5029525643145 L-262.8345411018676,-2090.454825443633 L-262.7107203669197,-2090.4034032418513 L-262.59179022073295,-2090.3488098395565 L-262.47803717644643,-2090.291176757037 " />
			<path d="M-240.13346289095148,-196.55421824006885 L-262.4780371764464,-208.44493001643752 " />
			<path d="M-240.13346289095148,-2078.400464980669 L-262.4780371764464,-2090.291176757037 " />
			<path d="M-585.9086788911732,-2197.8343864306503 L-527.5016587651644,-2228.9158039220442 " />
			<path d="M-527.5016587651645,-349.47780260450645 L-527.3933568638256,-349.41726868490645 L-527.2907670142007,-349.35397975974007 L-527.1941363642234,-349.2880882975716 L-527.1036977055933,-349.2197530367048 L-527.0196689129606,-349.14913860276846 L-526.9422524190467,-349.07641511211915 L-526.8716347269665,-349.00175776201564 L-526.8079859609253,-348.9253464085535 L-526.7514594563758,-348.84736513337606 L-526.7021913906184,-348.76800180020564 L-526.660300454739,-348.6874476022632 L-526.6258875676712,-348.6058966016673 L-526.5990356330742,-348.52354526192147 L-526.5798093396104,-348.4405919746162 L-526.5682550051049,-348.3572365814865 L-526.5644004649614,-348.27367989297545 " />
			<path d="M-527.5016587651645,-2231.3240493451062 L-527.3933568638256,-2231.2635154255063 L-527.2907670142007,-2231.20022650034 L-527.1941363642234,-2231.1343350381712 L-527.1036977055933,-2231.0659997773046 L-527.0196689129606,-2230.995385343368 L-526.9422524190467,-2230.922661852719 L-526.8716347269665,-2230.8480045026154 L-526.8079859609253,-2230.7715931491534 L-526.7514594563758,-2230.693611873976 L-526.7021913906184,-2230.6142485408054 L-526.660300454739,-2230.533694342863 L-526.6258875676712,-2230.452143342267 L-526.5990356330742,-2230.369792002521 L-526.5798093396104,-2230.286838715216 L-526.5682550051049,-2230.2034833220864 L-526.5644004649614,-2230.1199266335752 " />
			<path d="M-526.5644004649614,-2230.1199266335752 L-526.5682550051049,-2230.036369945064 L-526.5798093396104,-2229.9530145519343 L-526.5990356330742,-2229.8700612646294 L-526.6258875676712,-2229.7877099248835 L-526.660300454739,-2229.7061589242876 L-526.7021913906184,-2229.625604726345 L-526.7514594563758,-2229.5462413931746 L-526.8079859609253,-2229.468260117997 L-526.8716347269665,-2229.391848764535 L-526.9422524190467,-2229.3171914144314 L-527.0196689129606,-2229.2444679237824 L-527.1036977055933,-2229.173853489846 L-527.1941363642234,-2229.1055182289792 L-527.2907670142007,-2229.0396267668107 L-527.3933568638256,-2228.976337841644 L-527.5016587651645,-2228.9158039220442 " />
			<path d="M-585.9086788911733,-2197.8343864306503 L-586.0400909360397,-2197.768299470741 L-586.1783073780906,-2197.706267731052 L-586.3228869530817,-2197.6484892516155 L-586.4733680820871,-2197.5951484936772 L-586.6292703451172,-2197.546415750792 L-586.7900960148886,-2197.5024466051514 L-586.9553316458475,-2197.4633814308777 L-587.124449713376,-2197.429344945873 " />
			<path d="M-613.7159948764651,-329.08297417795 L-613.7121403363216,-329.1665308664611 L-613.7005860018161,-329.24988625959077 L-613.6813597083523,-329.332839546896 L-613.6545077737553,-329.4151908866419 L-613.6200948866875,-329.49674188723776 L-613.5782039508081,-329.5772960851802 L-613.5289358850507,-329.6566594183506 L-613.4724093805012,-329.73464069352804 L-613.40876061446,-329.8110520469902 L-613.3381429223798,-329.8857093970937 L-613.2607264284659,-329.958432887743 L-613.1766976358332,-330.02904732167934 L-613.0862589772031,-330.0973825825462 L-612.9896283272258,-330.1632740447146 L-612.8870384776009,-330.226562969881 L-612.778736576262,-330.287096889481 " />
			<path d="M-613.5114629798106,-2211.528257511895 L-613.4473139154875,-2211.612237380905 L-613.3748576358022,-2211.694281614533 L-613.2942994783218,-2211.7741577034167 L-613.2058677409404,-2211.8516392826123 L-613.1098130348939,-2211.926506773098 L-613.0064075745403,-2211.998548004053 L-612.8959444059167,-2212.067558814139 L-612.778736576262,-2212.1333436300806 " />
			<path d="M-612.778736576262,-330.28709688948106 L-554.3717164502532,-361.3685143808751 " />
			<path d="M-612.778736576262,-2212.1333436300806 L-554.3717164502532,-2243.2147611214746 " />
			<path d="M-554.3717164502532,-361.36851438087507 L-554.2579634059667,-361.42614746339433 L-554.1390332597799,-361.480740865689 L-554.015212524832,-361.53216306747106 L-553.886799496119,-361.58029018815245 L-553.7541035318745,-361.6250062852839 L-553.6174443082995,-361.66620363387085 L-553.4771510494331,-361.7037829858921 L-553.3335617340246,-361.737653809397 L-553.1870222813113,-361.76773450660505 L-553.0378857176705,-361.7939526104818 L-552.8865113261467,-361.8162449593188 L-552.7332637809078,-361.8345578488949 L-552.5785122687134,-361.84884716185525 L-552.4226295995109,-361.85907847399324 L-552.265991308304,-361.86522713718176 L-552.1089747504562,-361.86727833875267 L-551.9519581926085,-361.86522713718176 L-551.7953199014016,-361.85907847399324 L-551.639437232199,-361.84884716185525 L-551.4846857200047,-361.8345578488949 L-551.3314381747658,-361.8162449593188 L-551.180063783242,-361.7939526104818 L-551.0309272196012,-361.76773450660505 L-550.8843877668879,-361.737653809397 L-550.7407984514793,-361.7037829858921 L-550.600505192613,-361.66620363387085 L-550.463845969038,-361.6250062852839 L-550.3311500047935,-361.58029018815245 L-550.2027369760805,-361.53216306747106 L-550.0789162411326,-361.480740865689 L-549.9599860949457,-361.42614746339433 L-549.8462330506593,-361.36851438087507 " />
			<path d="M-554.3717164502532,-2243.2147611214746 L-554.2579634059667,-2243.272394203994 L-554.1390332597799,-2243.3269876062886 L-554.015212524832,-2243.3784098080705 L-553.886799496119,-2243.426536928752 L-553.7541035318745,-2243.4712530258835 L-553.6174443082995,-2243.5124503744705 L-553.4771510494331,-2243.5500297264916 L-553.3335617340246,-2243.5839005499965 L-553.1870222813113,-2243.6139812472047 L-553.0378857176705,-2243.6401993510813 L-552.8865113261467,-2243.662491699918 L-552.7332637809078,-2243.6808045894945 L-552.5785122687134,-2243.6950939024546 L-552.4226295995109,-2243.705325214593 L-552.265991308304,-2243.7114738777814 L-552.1089747504562,-2243.713525079352 L-551.9519581926085,-2243.7114738777814 L-551.7953199014016,-2243.705325214593 L-551.639437232199,-2243.6950939024546 L-551.4846857200047,-2243.6808045894945 L-551.3314381747658,-2243.662491699918 L-551.180063783242,-2243.6401993510813 L-551.0309272196012,-2243.6139812472047 L-550.8843877668879,-2243.5839005499965 L-550.7407984514793,-2243.5500297264916 L-550.600505192613,-2243.5124503744705 L-550.463845969038,-2243.4712530258835 L-550.3311500047935,-2243.426536928752 L-550.2027369760805,-2243.3784098080705 L-550.0789162411326,-2243.3269876062886 L-549.9599860949457,-2243.272394203994 L-549.8462330506593,-2243.2147611214746 " />
			<path d="M-527.5016587651643,-349.47780260450645 L-549.8462330506592,-361.3685143808751 " />
			<path d="M-527.5016587651643,-2231.3240493451062 L-549.8462330506592,-2243.2147611214746 " />
			<path d="M-873.276874765386,-2350.7579707950877 L-814.8698546393772,-2381.8393882864816 " />
			<path d="M-814.8698546393772,-502.401386968944 L-814.7615527380383,-502.340853049344 L-814.6589628884134,-502.2775641241776 L-814.562332238436,-502.21167266200916 L-814.471893579806,-502.14333740114233 L-814.3878647871733,-502.072722967206 L-814.3104482932594,-501.9999994765567 L-814.2398306011792,-501.9253421264532 L-814.176181835138,-501.848930772991 L-814.1196553305884,-501.7709494978136 L-814.0703872648311,-501.6915861646432 L-814.0284963289516,-501.61103196670075 L-813.9940834418838,-501.52948096610487 L-813.9672315072869,-501.447129626359 L-813.9480052138231,-501.36417633905376 L-813.9364508793176,-501.28082094592406 L-813.9325963391741,-501.197264257413 " />
			<path d="M-814.8698546393772,-2384.2476337095436 L-814.7615527380383,-2384.1870997899437 L-814.6589628884134,-2384.123810864777 L-814.562332238436,-2384.0579194026086 L-814.471893579806,-2383.989584141742 L-814.3878647871733,-2383.9189697078054 L-814.3104482932594,-2383.8462462171565 L-814.2398306011792,-2383.7715888670527 L-814.176181835138,-2383.695177513591 L-814.1196553305884,-2383.6171962384133 L-814.0703872648311,-2383.537832905243 L-814.0284963289516,-2383.4572787073002 L-813.9940834418838,-2383.3757277067043 L-813.9672315072869,-2383.2933763669585 L-813.9480052138231,-2383.2104230796535 L-813.9364508793176,-2383.127067686524 L-813.9325963391741,-2383.0435109980126 " />
			<path d="M-813.9325963391741,-2383.0435109980126 L-813.9364508793176,-2382.9599543095014 L-813.9480052138231,-2382.8765989163717 L-813.9672315072869,-2382.7936456290668 L-813.9940834418838,-2382.711294289321 L-814.0284963289516,-2382.629743288725 L-814.0703872648311,-2382.5491890907824 L-814.1196553305884,-2382.469825757612 L-814.176181835138,-2382.3918444824344 L-814.2398306011792,-2382.3154331289725 L-814.3104482932594,-2382.2407757788687 L-814.3878647871733,-2382.1680522882198 L-814.471893579806,-2382.0974378542833 L-814.562332238436,-2382.0291025934166 L-814.6589628884134,-2381.963211131248 L-814.7615527380383,-2381.8999222060816 L-814.8698546393772,-2381.8393882864816 " />
			<path d="M-873.276874765386,-2350.7579707950877 L-873.3813747567833,-2350.7048181574846 L-873.4902790673742,-2350.654231238972 L-873.6033654563673,-2350.6063132721642 L-873.7204031486127,-2350.561162043153 " />
			<path d="M-901.0841907506779,-482.0065585423876 L-901.0803362105344,-482.0901152308987 L-901.0687818760289,-482.17347062402837 L-901.0495555825651,-482.2564239113336 L-901.0227036479681,-482.3387752510795 L-900.9882907609003,-482.42032625167536 L-900.9463998250209,-482.5008804496178 L-900.8971317592635,-482.5802437827882 L-900.840605254714,-482.65822505796564 L-900.7769564886728,-482.7346364114278 L-900.7063387965926,-482.8092937615313 L-900.6289223026787,-482.8820172521806 L-900.544893510046,-482.95263168611694 L-900.4544548514159,-483.0209669469838 L-900.3578242014386,-483.0868584091522 L-900.2552343518137,-483.1501473343186 L-900.1469324504748,-483.2106812539186 " />
			<path d="M-900.4717043811876,-2364.854718244346 L-900.3961459642308,-2364.9077665588075 L-900.316749346291,-2364.959202920403 L-900.2336358432958,-2365.008948735736 L-900.1469324504748,-2365.056927994518 " />
			<path d="M-900.1469324504748,-483.2106812539186 L-841.739912324466,-514.2920987453126 " />
			<path d="M-900.1469324504748,-2365.0569279945184 L-841.739912324466,-2396.1383454859124 " />
			<path d="M-841.739912324466,-514.2920987453126 L-841.6261592801795,-514.3497318278319 L-841.5072291339927,-514.4043252301266 L-841.3834083990448,-514.4557474319085 L-841.2549953703318,-514.50387455259 L-841.1222994060873,-514.5485906497214 L-840.9856401825123,-514.5897879983085 L-840.8453469236459,-514.6273673503297 L-840.7017576082374,-514.6612381738346 L-840.5552181555241,-514.6913188710425 L-840.4060815918833,-514.7175369749194 L-840.2547072003595,-514.7398293237563 L-840.1014596551206,-514.7581422133325 L-839.9467081429262,-514.7724315262927 L-839.7908254737237,-514.7826628384307 L-839.6341871825168,-514.7888115016193 L-839.477170624669,-514.7908627031902 L-839.3201540668213,-514.7888115016193 L-839.1635157756144,-514.7826628384307 L-839.0076331064118,-514.7724315262927 L-838.8528815942175,-514.7581422133325 L-838.6996340489786,-514.7398293237563 L-838.5482596574548,-514.7175369749194 L-838.399123093814,-514.6913188710425 L-838.2525836411007,-514.6612381738346 L-838.1089943256922,-514.6273673503297 L-837.9687010668258,-514.5897879983085 L-837.8320418432507,-514.5485906497214 L-837.6993458790063,-514.50387455259 L-837.5709328502933,-514.4557474319085 L-837.4471121153454,-514.4043252301266 L-837.3281819691585,-514.3497318278319 L-837.2144289248721,-514.2920987453126 " />
			<path d="M-841.739912324466,-2396.1383454859124 L-841.6261592801795,-2396.1959785684317 L-841.5072291339927,-2396.2505719707265 L-841.3834083990448,-2396.3019941725083 L-841.2549953703318,-2396.3501212931897 L-841.1222994060873,-2396.3948373903213 L-840.9856401825123,-2396.4360347389083 L-840.8453469236459,-2396.4736140909295 L-840.7017576082374,-2396.5074849144344 L-840.5552181555241,-2396.5375656116425 L-840.4060815918833,-2396.563783715519 L-840.2547072003595,-2396.586076064356 L-840.1014596551206,-2396.6043889539324 L-839.9467081429262,-2396.6186782668924 L-839.7908254737237,-2396.6289095790307 L-839.6341871825168,-2396.635058242219 L-839.477170624669,-2396.63710944379 L-839.3201540668213,-2396.635058242219 L-839.1635157756144,-2396.6289095790307 L-839.0076331064118,-2396.6186782668924 L-838.8528815942175,-2396.6043889539324 L-838.6996340489786,-2396.586076064356 L-838.5482596574548,-2396.563783715519 L-838.399123093814,-2396.5375656116425 L-838.2525836411007,-2396.5074849144344 L-838.1089943256922,-2396.4736140909295 L-837.9687010668258,-2396.4360347389083 L-837.8320418432507,-2396.3948373903213 L-837.6993458790063,-2396.3501212931897 L-837.5709328502933,-2396.3019941725083 L-837.4471121153454,-2396.2505719707265 L-837.3281819691585,-2396.1959785684317 L-837.2144289248721,-2396.1383454859124 " />
			<path d="M-814.8698546393772,-502.401386968944 L-837.2144289248721,-514.2920987453126 " />
			<path d="M-814.8698546393772,-2384.2476337095436 L-837.2144289248721,-2396.138345485912 " />
			<path d="M-1169.5019900978066,-2508.6009784834873 L-1111.2887093200104,-2539.579297174429 " />
			<path d="M-1111.288948497829,-660.1414235482806 L-1111.180646587416,-660.0808896031174 L-1111.0780567297222,-660.0176006519754 L-1110.9814260727428,-659.9517091635076 L-1110.8909874082347,-659.8833738761086 L-1110.8069586108995,-659.8127594154995 L-1110.7295421135052,-659.7400358981301 L-1110.6589244192066,-659.6653785213541 L-1110.5952756522443,-659.5889671413619 L-1110.538749148099,-659.5109858398927 L-1110.4894810840938,-659.4316224807642 L-1110.4475901513306,-659.351068257293 L-1110.413177268753,-659.2695172316927 L-1110.386325340024,-659.1871658675606 L-1110.3670990538028,-659.10421255658 L-1110.3555447279048,-659.0208571405777 L-1110.3516901977177,-658.9373004300863 " />
			<path d="M-1111.288709319827,-2541.9875430097864 L-1111.1804074094139,-2541.927009064623 L-1111.07781755172,-2541.863720113481 L-1110.9811868947406,-2541.797828625013 L-1110.8907482302325,-2541.7294933376143 L-1110.8067194328974,-2541.658878877005 L-1110.729302935503,-2541.586155359636 L-1110.6586852412045,-2541.5114979828595 L-1110.595036474242,-2541.4350866028676 L-1110.5385099700968,-2541.3571053013984 L-1110.4892419060916,-2541.27774194227 L-1110.4473509733284,-2541.197187718799 L-1110.412938090751,-2541.115636693198 L-1110.386086162022,-2541.033285329066 L-1110.3668598758006,-2540.9503320180856 L-1110.3553055499026,-2540.8669766020835 L-1110.3514510197156,-2540.783419891592 " />
			<path d="M-1110.3514510197156,-2540.783419891592 L-1110.3553055698155,-2540.699863196451 L-1110.3668599129285,-2540.616507797653 L-1110.3860862136346,-2540.5335545056196 L-1110.4129381540995,-2540.4512031620625 L-1110.4473510456578,-2540.3696521585475 L-1110.4892419846535,-2540.289097958552 L-1110.5385100521632,-2540.2097346241653 L-1110.595036557117,-2540.1317533485785 L-1110.6586853222368,-2540.055341995483 L-1110.7293030120989,-2539.9806846464894 L-1110.8067195025321,-2539.907961157659 L-1110.8907482904624,-2539.837346726217 L-1110.9811869432144,-2539.769011468484 L-1111.07781758619,-2539.7031200100537 L-1111.1804074277456,-2539.6398310891923 L-1111.2887093200104,-2539.5792971744286 " />
			<path d="M-1197.503284610683,-639.7465996016452 L-1197.499430060583,-639.830156296786 L-1197.4878757174702,-639.9135116955841 L-1197.468649416764,-639.9964649876177 L-1197.4417974762991,-640.0788163311747 L-1197.4073845847408,-640.1603673346893 L-1197.3654936457451,-640.2409215346851 L-1197.3162255782354,-640.3202848690718 L-1197.2596990732816,-640.3982661446584 L-1197.1960503081618,-640.474677497754 L-1197.1254326182998,-640.5493348467478 L-1197.0480161278665,-640.6220583355779 L-1196.9639873399362,-640.69267276702 L-1196.8735486871842,-640.7610080247529 L-1196.7769180442087,-640.8268994831835 L-1196.674328202653,-640.8901884040446 L-1196.5660263103882,-640.9507223188084 " />
			<path d="M-1196.5660263103882,-640.9507223188085 L-1138.159006182012,-672.0321398089428 " />
			<path d="M-1196.3176182524603,-2522.9289053669872 L-1138.1587670040099,-2553.878259270449 " />
			<path d="M-1138.1590061820123,-672.0321398089428 L-1138.0452531377214,-672.089772890963 L-1137.9263229915305,-672.1443662917665 L-1137.8025022565787,-672.1957884910687 L-1137.674089227862,-672.2439156082876 L-1137.541393263614,-672.2886317009824 L-1137.404734040036,-672.3298290441691 L-1137.2644407811667,-672.3674083898394 L-1137.1208514657555,-672.4012792060582 L-1136.97431201304,-672.4313598950624 L-1136.8251754493972,-672.4575779898375 L-1136.6738010578717,-672.4798703286966 L-1136.5205535126315,-672.498183207443 L-1136.365802000436,-672.5124725087477 L-1136.2099193312326,-672.5227038084322 L-1136.0532810400252,-672.5288524583995 L-1135.8962644821775,-672.530903646013 L-1135.7392479243297,-672.5288524297825 L-1135.5826096331234,-672.5227037512674 L-1135.4267269639215,-672.5124724231727 L-1135.2719754517282,-672.498183093664 L-1135.118727906491,-672.4798701869877 L-1134.9673535149686,-672.45757782054 L-1134.8182169513298,-672.4313596985843 L-1134.671677498619,-672.4012789828727 L-1134.528088183213,-672.3674081404841 L-1134.3877949243495,-672.3298287692448 L-1134.2511357007775,-672.2886314011515 L-1134.1184397365364,-672.2439152842724 L-1133.9900267078272,-672.1957881436497 L-1133.866205972883,-672.1443659217806 L-1133.7472758267006,-672.0897724993018 L-1133.6335227824184,-672.0321393965497 " />
			<path d="M-1138.15876700401,-2553.878259270449 L-1138.0450139597192,-2553.9358923524687 L-1137.9260838135283,-2553.9904857532724 L-1137.8022630785765,-2554.0419079525745 L-1137.6738500498598,-2554.0900350697934 L-1137.5411540856119,-2554.134751162488 L-1137.4044948620337,-2554.175948505675 L-1137.2642016031646,-2554.213527851345 L-1137.1206122877534,-2554.247398667564 L-1136.9740728350378,-2554.277479356568 L-1136.824936271395,-2554.3036974513434 L-1136.6735618798696,-2554.3259897902026 L-1136.5203143346293,-2554.344302668949 L-1136.3655628224337,-2554.3585919702537 L-1136.2096801532305,-2554.368823269938 L-1136.053041862023,-2554.3749719199054 L-1135.8960253041753,-2554.377023107519 L-1135.7390087463275,-2554.3749718912886 L-1135.5823704551212,-2554.3688232127733 L-1135.4264877859193,-2554.3585918846784 L-1135.271736273726,-2554.3443025551696 L-1135.1184887284887,-2554.3259896484938 L-1134.9671143369665,-2554.303697282046 L-1134.8179777733276,-2554.27747916009 L-1134.6714383206167,-2554.2473984443786 L-1134.5278490052108,-2554.21352760199 L-1134.3875557463473,-2554.1759482307507 L-1134.2508965227753,-2554.1347508626573 L-1134.1182005585342,-2554.090034745778 L-1133.989787529825,-2554.0419076051558 L-1133.865966794881,-2553.9904853832863 L-1133.7470366486984,-2553.9358919608076 L-1133.6332836044162,-2553.8782588580557 " />
			<path d="M-1111.288948497829,-660.1414235482804 L-1133.6335227824184,-672.0321393965495 " />
			<path d="M-1111.2887093198271,-2541.9875430097864 L-1133.6332836044164,-2553.8782588580552 " />
			<path d="M-1136.6557912359096,-672.147811646718 L-1110.5985758597392,-658.2814101760961 " />
			<path d="M-901.084190750678,-546.7878934724828 L-814.1794833251033,-500.5413722900244 " />
			<path d="M-613.7159948764652,-393.86430910804523 L-526.8112874508905,-347.61778792558687 " />
			<path d="M-326.34779900225226,-240.94072474360755 L-239.44309157667752,-194.69420356114918 " />
			<path d="M-38.979639843553194,-88.01715991740718 L47.925075255155676,-41.77063465167444 " />
			<path d="M-38.719996048076325,-1904.4099582887418 L-14.880309210306647,-1891.6721142238123 " />
			<path d="M48.17169281868567,-1924.2729196483708 L48.17169292049884,-1923.5660958926296 " />
			<path d="M-38.97990157945427,-1905.082208379064 L-38.97990150262459,-1904.5488290370947 " />
			<path d="M-239.1962045907485,-2077.196342269138 L-239.1962045907485,-2011.5269141666622 " />
			<path d="M-526.5644004649614,-2230.1199266335752 L-526.5644004649614,-2165.0713500971906 " />
			<path d="M-813.9325963391741,-2383.0435109980126 L-813.9325963391741,-2318.615786027719 " />
			<path d="M-1110.3514510197158,-2540.783419891592 L-1110.351459126926,-2476.996106951737 " />

       </g>

       <!-- solid lines -->
       <g  stroke="rgb(0,0,0)" fill="none">
			<path d="M-47.234732983261374,9.049734753850206 L47.234732983261374,-41.222388452569234 " />
			<path d="M-1232.62854096439,-621.7600507494551 L-1197.5032845210246,-640.4520291735067 " />
			<path d="M49.49747468305833,-39.717235063155485 L49.49432615456975,-39.8584336508575 L49.484889331245675,-39.99588830045355 L49.469190475126595,-40.12921648495861 L49.44727327506638,-40.2580471610607 L49.41919872514914,-40.382021801709236 L49.38504495494682,-40.50079539387161 L49.3449070120899,-40.614037398681056 L49.29889659775626,-40.72143267130396 L49.24714175581438,-40.82268233796659 L49.2191545701284,-40.87091382578013 L49.18978651648591,-40.9175046277006 L49.159058030768314,-40.96242232332607 L49.12699049551931,-41.00563565649253 L49.09360622506572,-41.04711455702364 L49.05892844999003,-41.086830161655165 L49.02298130096522,-41.12475483411961 L48.985789791963406,-41.160862184377 L48.94737980284971,-41.195127086978566 L48.9077780613737,-41.2275256985503 L48.867012124570714,-41.25803547438456 L48.82511035958624,-41.28663518412783 L48.78210192393649,-41.31330492655396 L48.73801674521902,-41.33802614341255 " />
			<path d="M48.738016745219014,-41.338026143412556 L48.65968728986114,-41.37597173727329 L48.57841932075964,-41.40801359680949 L48.49438042717899,-41.43408564590617 L48.40774391253153,-41.4541341192782 L48.31868843699451,-41.468117673344054 L48.22739764908046,-41.47600747148376 L48.13405980692067,-41.477787243505254 L48.038867390042874,-41.47345331919642 L47.94201670244363,-41.46301463589378 L47.84370746777391,-41.44649272005203 L47.744142417472794,-41.42392164285265 L47.643526872698544,-41.39534794994293 L47.54206832091919,-41.36083056545043 L47.439975988035826,-41.320440670470745 L47.337460406920904,-41.274261556279214 L47.23473298326138,-41.22238845256925 " />
			<path d="M-47.234732983261374,9.049734753850204 L-47.345760456074075,9.112081696625722 L-47.45652045397992,9.180805323586885 L-47.56674614644251,9.25574007349686 L-47.676171990114085,9.336705421979605 L-47.784534368552656,9.423506316418901 L-47.89157222729715,9.515933645857181 L-47.99702770277043,9.613764744762154 L-48.10064674349529,9.716763929447561 L-48.20217972212665,9.824683065855833 L-48.301382036825764,9.937262167334765 L-48.39801470052742,10.054230020968129 L-48.49184491668073,10.175304840951348 L-48.58264664007645,10.30019494743818 L-48.67020112140959,10.428599469223016 L-48.75429743426578,10.560209068565968 L-48.834732983261375,10.694706686414582 L-48.91131399211352,10.831768306226857 L-48.983855970464184,10.971063734555491 L-49.0521841583336,11.112257396512796 L-49.11613394713235,11.255009144200018 L-49.17555127621787,11.398975076153402 L-49.23029300404005,11.543808365832938 L-49.28022725298176,11.689160097157895 L-49.325233727063576,11.834680105076204 L-49.36520400174734,11.980017819142743 L-49.40004178514034,12.124823108074244 L-49.42966314997096,12.268747123246225 L-49.45399673577681,12.411443139099884 L-49.4729839208183,12.552567388434333 L-49.486578963303586,12.691779890571903 L-49.49474911158454,12.828745270401367 L-49.49747468305833,12.963133566325945 " />
			<path d="M-1232.62854096439,-621.7600507494551 L-1232.7395684372027,-621.6977038066796 L-1232.8503284351084,-621.6289801797184 L-1232.960554127571,-621.5540454298084 L-1233.0699799712427,-621.4730800813257 L-1233.178342349681,-621.3862791868864 L-1233.2853802084257,-621.2938518574481 L-1233.390835683899,-621.1960207585431 L-1233.494454724624,-621.0930215738578 L-1233.595987703255,-620.9851024374495 L-1233.6951900179542,-620.8725233359705 L-1233.791822681656,-620.7555554823372 L-1233.8856528978092,-620.634480662354 L-1233.976454621205,-620.5095905558671 L-1234.0640091025382,-620.3811860340824 L-1234.1481054153944,-620.2495764347393 L-1234.2285409643898,-620.1150788168908 L-1234.305121973242,-619.9780171970784 L-1234.3776639515927,-619.8387217687498 L-1234.445992139462,-619.6975281067926 L-1234.5099419282608,-619.5547763591053 L-1234.5693592573464,-619.4108104271519 L-1234.6241009851685,-619.2659771374724 L-1234.6740352341103,-619.1206254061474 L-1234.7190417081922,-618.9751053982291 L-1234.7590119828758,-618.8297676841626 L-1234.793849766269,-618.6849623952311 L-1234.8234711310995,-618.5410383800591 L-1234.8478047169053,-618.3983423642054 L-1234.8667919019467,-618.257218114871 L-1234.880386944432,-618.1180056127334 L-1234.888557092713,-617.981040232904 L-1234.891282664187,-617.8466519369794 " />
			<path d="M-49.49747468305833,12.963133566325972 L-49.49747468305833,39.717235063155485 " />
			<path d="M-1234.8912826641867,-617.8466519369791 L-1234.8912826641867,-591.0925504401497 " />
			<path d="M-49.49747468305833,39.717235063155485 L-49.49432615456975,39.8584336508575 L-49.484889331245675,39.99588830045355 L-49.469190475126595,40.12921648495862 L-49.44727327506638,40.2580471610607 L-49.41919872514914,40.38202180170924 L-49.38504495494682,40.50079539387161 L-49.3449070120899,40.614037398681056 L-49.29889659775626,40.72143267130396 L-49.24714175581438,40.82268233796659 L-49.2191545701284,40.87091382578013 L-49.18978651648591,40.9175046277006 L-49.159058030768314,40.96242232332607 L-49.12699049551931,41.00563565649253 L-49.09360622506572,41.04711455702364 L-49.05892844999003,41.086830161655165 L-49.02298130096522,41.12475483411961 L-48.985789791963406,41.160862184377 L-48.94737980284971,41.195127086978566 L-48.9077780613737,41.2275256985503 L-48.867012124570714,41.25803547438456 L-48.82511035958624,41.28663518412783 L-48.78210192393648,41.31330492655396 L-48.73801674521903,41.33802614341255 " />
			<path d="M-48.738016745219014,41.338026143412556 L-48.65968728986114,41.37597173727329 L-48.57841932075964,41.40801359680949 L-48.49438042717899,41.43408564590617 L-48.40774391253153,41.4541341192782 L-48.31868843699451,41.468117673344054 L-48.22739764908046,41.47600747148376 L-48.13405980692067,41.477787243505254 L-48.038867390042874,41.47345331919642 L-47.94201670244363,41.46301463589378 L-47.84370746777391,41.44649272005203 L-47.744142417472794,41.423921642852655 L-47.643526872698544,41.39534794994293 L-47.54206832091919,41.36083056545043 L-47.439975988035826,41.320440670470745 L-47.337460406920904,41.274261556279214 L-47.234732983261374,41.22238845256924 " />
			<path d="M-1234.891282664187,-591.0925504401498 L-1234.8881341356982,-590.9513518524478 L-1234.8786973123742,-590.8138972028518 L-1234.8629984562551,-590.6805690183467 L-1234.841081256195,-590.5517383422446 L-1234.8130067062777,-590.4277637015961 L-1234.7788529360753,-590.3089901094337 L-1234.7387149932185,-590.1957481046243 L-1234.6927045788848,-590.0883528320013 L-1234.640949736943,-589.9871031653387 L-1234.612962551257,-589.9388716775252 L-1234.5835944976145,-589.8922808756047 L-1234.5528660118969,-589.8473631799792 L-1234.5207984766478,-589.8041498468127 L-1234.4874142061942,-589.7626709462817 L-1234.4527364311186,-589.7229553416502 L-1234.4167892820938,-589.6850306691857 L-1234.379597773092,-589.6489233189283 L-1234.3411877839783,-589.6146584163267 L-1234.3015860425023,-589.5822598047549 L-1234.2608201056992,-589.5517500289208 L-1234.2189183407147,-589.5231503191775 L-1234.175909905065,-589.4964805767513 L-1234.1318247263475,-589.4717593598928 " />
			<path d="M-47.234732983261374,41.222388452569234 L47.234732983261374,-9.049734753850206 " />
			<path d="M47.234732983261374,-9.049734753850206 L47.34576045607408,-9.112081696625722 L47.45652045397992,-9.180805323586885 L47.56674614644251,-9.25574007349686 L47.676171990114085,-9.336705421979605 L47.784534368552656,-9.423506316418901 L47.89157222729715,-9.515933645857181 L47.99702770277043,-9.613764744762154 L48.10064674349529,-9.716763929447563 L48.20217972212666,-9.824683065855835 L48.30138203682577,-9.937262167334769 L48.39801470052742,-10.05423002096813 L48.49184491668073,-10.175304840951348 L48.58264664007645,-10.300194947438179 L48.67020112140959,-10.428599469223014 L48.75429743426578,-10.560209068565968 L48.834732983261375,-10.694706686414582 L48.91131399211352,-10.83176830622686 L48.983855970464184,-10.971063734555493 L49.0521841583336,-11.112257396512797 L49.11613394713235,-11.255009144200018 L49.17555127621787,-11.398975076153398 L49.23029300404005,-11.543808365832936 L49.28022725298176,-11.689160097157894 L49.325233727063576,-11.834680105076204 L49.36520400174734,-11.980017819142743 L49.40004178514034,-12.124823108074244 L49.42966314997096,-12.268747123246225 L49.45399673577681,-12.411443139099886 L49.4729839208183,-12.552567388434335 L49.486578963303586,-12.691779890571905 L49.49474911158454,-12.82874527040137 L49.49747468305833,-12.963133566325958 " />
			<path d="M49.49747468305833,-39.717235063155485 L49.49747468305833,-12.963133566325972 " />
			<path d="M-11.76907603523864,-1922.990455964268 L46.689615604158725,-1954.338427195006 " />
			<path d="M-1196.1071651574016,-2555.7971703332496 L-1137.6484735180043,-2587.1451415639876 " />
			<path d="M48.96161277700371,-1952.849913784607 L48.95812015108409,-1952.989905186741 L48.9484121931851,-1953.126173738668 L48.93251558684806,-1953.258344889162 L48.91047402589164,-1953.3860553492186 L48.882348094313905,-1953.5089540906022 L48.84821509976959,-1953.626703310689 L48.80816886108031,-1953.7389793609618 L48.76231945036174,-1953.8454736365984 L48.71079289047658,-1953.945893424709 L48.68294433891333,-1953.9937384575435 L48.65373080864492,-1954.0399627088966 L48.623172377385174,-1954.08453441002 L48.59129004716401,-1954.127422927921 L48.55810572989332,-1954.168598786416 L48.523642232307495,-1954.208033686388 L48.48792324028888,-1954.2457005252368 L48.45097330258911,-1954.2815734155054 L48.41281781395739,-1954.3156277026717 L48.37348299768728,-1954.3478399820933 L48.33299588759417,-1954.3781881150926 L48.291384309435564,-1954.4066512441723 L48.24867686178715,-1954.4332098073503 L48.20490289638781,-1954.4578455516037 " />
			<path d="M48.2049028963878,-1954.4578455516037 L48.126065053031034,-1954.4961747214836 L48.04423745576979,-1954.5285195331812 L47.95959128085731,-1954.5548123241495 L47.87230360076741,-1954.5749980921444 L47.78255701377418,-1954.589034610286 L47.690539261972205,-1954.5968925153927 L47.596442838536305,-1954.5985553694072 L47.50046458504253,-1954.5940196937827 L47.40280527969256,-1954.5832949767603 L47.303669217303124,-1954.5664036535195 L47.20326378193887,-1954.5433810592476 L47.10179901308292,-1954.5142753552193 L46.99948716625236,-1954.4791474280494 L46.896542268978116,-1954.4380707623218 L46.79317967307789,-1954.391131286867 L46.68961560415873,-1954.3384271950065 " />
			<path d="M-1136.1331862257755,-2587.2645599205853 L-1136.2120240691322,-2587.302889090465 L-1136.2938516663935,-2587.335233902163 L-1136.378497841306,-2587.361526693131 L-1136.465785521396,-2587.381712461126 L-1136.5555321083891,-2587.3957489792674 L-1136.647549860191,-2587.4036068843743 L-1136.741646283627,-2587.405269738389 L-1136.8376245371207,-2587.4007340627645 L-1136.9352838424707,-2587.390009345742 L-1137.03441990486,-2587.3731180225013 L-1137.1348253402243,-2587.350095428229 L-1137.2362901090803,-2587.320989724201 L-1137.338601955911,-2587.285861797031 L-1137.4415468531852,-2587.244785131303 L-1137.5449094490853,-2587.1978456558486 L-1137.6484735180045,-2587.145141563988 " />
			<path d="M-11.76907603523864,-1922.9904559642682 L-11.880192994454065,-1922.9276099271497 L-11.991024788453075,-1922.8584036178422 L-12.101304413736203,-1922.7830037604062 L-12.210766197026793,-1922.701591999703 L-12.319146435301178,-1922.6143644637946 L-12.426184031072363,-1922.5215312914554 L-12.531621121396753,-1922.4233161259287 L-12.635203699088557,-1922.319955576151 L-12.736682224645353,-1922.21169864674 L-12.835812227410605,-1922.0988061381206 L-12.93235489452489,-1921.9815500182344 L-13.02607764624699,-1921.860212767345 L-13.116754696258862,-1921.7350866975173 L-13.204167595604659,-1921.6064732484133 L-13.288105758953389,-1921.474682261097 L-13.36836697191743,-1921.340031231601 L-13.444757878204701,-1921.2028445460485 L-13.517094445430903,-1921.0634526991817 L-13.585202408469648,-1920.9221914981688 L-13.64891768927243,-1920.779401253616 L-13.70808679214699,-1920.6354259597294 L-13.762567173541905,-1920.4906124656031 L-13.812227585446477,-1920.345309639628 L-13.856948391578687,-1920.1998675290395 L-13.896621855599484,-1920.0546365166206 L-13.931152400659059,-1919.9099664766015 L-13.96045683964984,-1919.76620593178 L-13.984464575611538,-1919.6237012139004 L-14.003117771805389,-1919.4827956293102 L-14.016371491047934,-1919.3438286319042 L-14.024193803968629,-1919.2071350053518 L-14.026565865930497,-1919.073044056572 " />
			<path d="M-1196.1071651574016,-2555.7971703332496 L-1196.218282116617,-2555.734324296131 L-1196.3291139106161,-2555.6651179868236 L-1196.4393935358992,-2555.5897181293876 L-1196.5488553191897,-2555.5083063686843 L-1196.6572355574642,-2555.421078832776 L-1196.7642731532353,-2555.3282456604366 L-1196.8697102435597,-2555.23003049491 L-1196.9732928212516,-2555.126669945132 L-1197.0747713468083,-2555.0184130157213 L-1197.1739013495735,-2554.9055205071018 L-1197.2704440166879,-2554.788264387216 L-1197.3641667684099,-2554.666927136326 L-1197.4548438184218,-2554.5418010664985 L-1197.5422567177677,-2554.4131876173947 L-1197.6261948811164,-2554.2813966300787 L-1197.7064560940803,-2554.146745600582 L-1197.7828470003676,-2554.0095589150296 L-1197.855183567594,-2553.870167068163 L-1197.9232915306327,-2553.72890586715 L-1197.9870068114353,-2553.5861156225974 L-1198.04617591431,-2553.442140328711 L-1198.1006562957048,-2553.2973268345845 L-1198.1503167076094,-2553.1520240086093 L-1198.1950375137417,-2553.0065818980206 L-1198.2347109777625,-2552.861350885602 L-1198.269241522822,-2552.7166808455827 L-1198.2985459618128,-2552.5729203007613 L-1198.3225536977745,-2552.430415582882 L-1198.3412068939683,-2552.2895099982916 L-1198.354460613211,-2552.1505430008856 L-1198.3622829261317,-2552.013849374333 L-1198.3646549880934,-2551.879758425553 " />
			<path d="M-14.026565865930499,-1919.073044056572 L-13.954935864049423,-1892.3812877984744 " />
			<path d="M-1198.3646549880937,-2551.8797584255535 L-1198.2930249862125,-2525.188002167456 " />
			<path d="M-13.954935864049425,-1892.3812877984742 L-13.951443238129807,-1892.2412963963402 L-13.941735280230816,-1892.1050278444131 L-13.925838673893779,-1891.9728566939193 L-13.903797112937358,-1891.8451462338626 L-13.875671181359623,-1891.722247492479 L-13.84153818681531,-1891.6044982723922 L-13.801491948126028,-1891.4922222221194 L-13.755642537407457,-1891.3857279464828 L-13.704115977522303,-1891.2853081583721 L-13.676267425959049,-1891.2374631255377 L-13.647053895690643,-1891.1912388741846 L-13.61649546443089,-1891.1466671730611 L-13.584613134209723,-1891.10377865516 L-13.551428816939039,-1891.0626027966653 L-13.51696531935321,-1891.0231678966932 L-13.481246327334592,-1890.9855010578444 L-13.444296389634827,-1890.9496281675758 L-13.406140901003106,-1890.9155738804095 L-13.366806084733003,-1890.8833616009879 L-13.326318974639893,-1890.8530134679886 L-13.28470739648128,-1890.824550338909 L-13.241999948832873,-1890.797991775731 L-13.198225983433531,-1890.7733560314775 " />
			<path d="M-13.198225983433515,-1890.7733560314775 L-13.119388140076754,-1890.7350268615976 L-13.037560542815507,-1890.7026820499 L-12.952914367903025,-1890.6763892589317 L-12.865626687813126,-1890.6562034909368 L-12.7758801008199,-1890.6421669727952 L-12.683862349017922,-1890.6343090676885 L-12.589765925582025,-1890.632646213674 L-12.493787672088247,-1890.6371818892985 L-12.39612836673828,-1890.647906606321 L-12.296992304348839,-1890.6647979295617 L-12.196586868984593,-1890.6878205238336 L-12.095122100128638,-1890.716926227862 L-11.992810253298076,-1890.7520541550318 L-11.889865356023838,-1890.7931308207594 L-11.786502760123604,-1890.8400702962142 L-11.682938691204443,-1890.8927743880747 " />
			<path d="M-1198.2930249862125,-2525.188002167456 L-1198.289532360293,-2525.048010765322 L-1198.2798244023938,-2524.911742213395 L-1198.2639277960568,-2524.779571062901 L-1198.2418862351003,-2524.6518606028444 L-1198.2137603035226,-2524.528961861461 L-1198.1796273089783,-2524.4112126413743 L-1198.139581070289,-2524.298936591101 L-1198.0937316595705,-2524.192442315465 L-1198.0422050996854,-2524.0920225273544 L-1198.0143565481221,-2524.0441774945198 L-1197.9851430178537,-2523.9979532431666 L-1197.954584586594,-2523.953381542043 L-1197.9227022563728,-2523.9104930241424 L-1197.889517939102,-2523.8693171656473 L-1197.8550544415164,-2523.829882265675 L-1197.8193354494977,-2523.7922154268263 L-1197.7823855117979,-2523.756342536558 L-1197.7442300231662,-2523.7222882493916 L-1197.704895206896,-2523.69007596997 L-1197.6644080968028,-2523.659727836971 L-1197.6227965186442,-2523.6312647078908 L-1197.5800890709959,-2523.604706144713 L-1197.5363151055965,-2523.5800704004596 " />
			<path d="M46.775752948192924,-1922.240745618813 L46.886869907408354,-1922.3035916559315 L46.99770170140736,-1922.372797965239 L47.10798132669049,-1922.448197822675 L47.217443109981076,-1922.5296095833783 L47.32582334825546,-1922.6168371192866 L47.43286094402665,-1922.7096702916258 L47.53829803435104,-1922.8078854571525 L47.64188061204284,-1922.9112460069302 L47.74335913759964,-1923.0195029363413 L47.84248914036489,-1923.1323954449606 L47.939031807479175,-1923.2496515648468 L48.03275455920127,-1923.3709888157362 L48.12343160921315,-1923.4961148855639 L48.21084450855894,-1923.624728334668 L48.294782671907676,-1923.7565193219841 L48.375043884871715,-1923.8911703514802 L48.45143479115899,-1924.0283570370327 L48.52377135838519,-1924.1677488838995 L48.59187932142393,-1924.3090100849124 L48.655594602226714,-1924.4518003294652 L48.71476370510128,-1924.5957756233518 L48.76924408649619,-1924.740589117478 L48.81890449840076,-1924.885891943453 L48.863625304532974,-1925.0313340540417 L48.90329876855377,-1925.1765650664606 L48.93782931361334,-1925.3212351064797 L48.96713375260413,-1925.4649956513013 L48.99114148856582,-1925.6075003691808 L49.009794684759676,-1925.748405953771 L49.02304840400222,-1925.887372951177 L49.03087071692291,-1926.0240665777294 L49.033242778884784,-1926.1581575265093 " />
			<path d="M48.96161277700371,-1952.8499137846068 L49.033242778884784,-1926.1581575265093 " />
			<path d="M-11.17231451783,-10.140988533665249 L47.23470558653537,-41.222406040183365 " />
			<path d="M-11.172585585044263,-1891.987379436956 L47.2344345193211,-1923.068796943474 " />
			<path d="M47.234705584858425,-43.63065099625855 L47.34300747599388,-43.57011710561612 L47.44559731655125,-43.50682820987126 L47.54222795866684,-43.440936777487664 L47.63266661070515,-43.37260154666652 L47.71669539807424,-43.301987142932376 L47.79411188810462,-43.22926368253586 L47.86472957772711,-43.15460636262888 L47.928378342775105,-43.078195039199365 L47.98490484782839,-43.00021379378255 L48.034172915611606,-42.9208504899925 L48.07606385505714,-42.840296320942336 L48.11047674724227,-42.7587453486433 L48.13732868851159,-42.67639403649254 L48.1565549901992,-42.59344077597562 L48.16810933446931,-42.51008540872416 L48.17196388589993,-42.426528745079935 " />
			<path d="M48.17196388589993,-42.42652874507993 L48.168109357043654,-42.3429720641073 L48.15655503230272,-42.25961667742649 L48.13732874706287,-42.176663395504086 L48.11047681913827,-42.09431206010089 L48.076063937187804,-42.012761062835544 L48.0341730048744,-41.932206867241646 L47.984904941142815,-41.85284353546979 L47.928378437097,-41.77486226077474 L47.8647296700628,-41.69845090691408 L47.794111975524736,-41.62379355556786 L47.71669547772738,-41.551070062869606 L47.63266667983102,-41.48045562611709 L47.54222801460917,-41.41212036170658 L47.44559735677015,-41.34622889530746 L47.343007498077746,-41.282939965264546 L47.23470558653538,-41.22240604018337 " />
			<path d="M-11.172314517829996,-10.140988533665254 L-11.286067562076356,-10.083355450554027 L-11.404997708225135,-10.028762046542424 L-11.528818443137204,-9.977339841922527 L-11.65723147181675,-9.92921271728932 L-11.789927436030029,-9.88449661510148 L-11.926586659576458,-9.843299260365846 L-12.066879918416578,-9.80571990111844 L-12.210469233801607,-9.77184906932725 L-12.357008686493842,-9.741768362792795 L-12.506145250116408,-9.715550248571878 L-12.657519641624718,-9.69325788839809 L-12.810767186850802,-9.674944986519673 L-12.965518699035306,-9.66065566032127 L-13.121401368230744,-9.65042433404129 L-13.278039659433317,-9.644275655840902 L-13.435056217279625,-9.642224438424451 L-13.592072775128788,-9.644275623354357 L-13.748711066339924,-9.65042426914646 L-13.90459373554961,-9.660655563174494 L-14.059345247754015,-9.674944857354987 L-14.212592793005602,-9.693257727526664 L-14.36396718454496,-9.715550056381263 L-14.513103748204038,-9.741768139745997 L-14.659643200938167,-9.771848815961604 L-14.803232516370365,-9.80571961804433 L-14.94352577526282,-9.843298948265222 L-15.080184998866624,-9.884496274726219 L-15.212880963142178,-9.929212349459416 L-15.341293991888747,-9.977339447524114 L-15.465114726872432,-10.028761626525643 L-15.58404487309724,-10.083355005930734 L-15.697797917423845,-10.140988065506576 " />
			<path d="M-13.804520273811205,-1891.499986733435 L-13.937217060327571,-1891.5096903189371 L-14.069034513451799,-1891.5223405133652 L-14.199741683094734,-1891.5379151530115 L-14.329109564433677,-1891.5563869504088 L-14.456911499139094,-1891.5777235421394 L-14.582923572490174,-1891.6018875455384 L-14.706925005683466,-1891.628836624188 L-14.828698542647247,-1891.6585235620935 L-14.948030830683892,-1891.6908963464089 L-15.064712794273374,-1891.725898258564 L-15.178540001382947,-1891.7634679736393 L-15.289313021641238,-1891.8035396678092 L-15.396837775749203,-1891.8460431336682 L-15.500925875515762,-1891.8909039032385 L-15.601394953922352,-1891.9380433784397 L-15.698068984638105,-1891.9873789687974 " />
			<path d="M-15.697797917423873,-10.140988065506583 L-38.04237221119851,-22.031695224594387 " />
			<path d="M-15.69806898463813,-1891.9873789687974 L-38.04264327841277,-1903.8780861278854 " />
			<path d="M-38.04237221119851,-22.031695224594387 L-38.150674102333966,-22.09222911523682 L-38.25326394289134,-22.155518010981677 L-38.34989458500692,-22.22140944336527 L-38.44033323704524,-22.289744674186412 L-38.52436202441433,-22.36035907792056 L-38.601778514444696,-22.433082538317073 L-38.6723962040672,-22.507739858224053 L-38.73604496911519,-22.584151181653567 L-38.792571474168476,-22.662132427070386 L-38.84183954195169,-22.741495730860432 L-38.88373048139724,-22.822049899910603 L-38.91814337358235,-22.903600872209633 L-38.944995314851674,-22.985952184360393 L-38.96422161653929,-23.068905444877313 L-38.97577596080939,-23.152260812128777 L-38.979630512240014,-23.23581747577299 " />
			<path d="M-298.5404830169603,-163.0645553256128 L-240.1334628909515,-194.14597281700685 " />
			<path d="M-239.19620459074844,-195.35009552853785 L-239.20005913089187,-195.2665388400268 L-239.2116134653974,-195.1831834468971 L-239.23083975886112,-195.1002301595918 L-239.2576916934581,-195.01787881984595 L-239.2921045805259,-194.93632781925007 L-239.33399551640537,-194.85577362130763 L-239.38326358216275,-194.7764102881372 L-239.43979008671232,-194.6984290129598 L-239.50343885275342,-194.62201765949766 L-239.5740565448337,-194.54736030939415 L-239.65147303874755,-194.4746368187448 L-239.73550183138028,-194.40402238480854 L-239.82594049001037,-194.3356871239417 L-239.92257113998767,-194.26979566177323 L-240.02516098961254,-194.20650673660688 L-240.13346289095145,-194.14597281700685 " />
			<path d="M-298.5404830169603,-163.0645553256128 L-298.6542360612468,-163.00692224309353 L-298.7731662074336,-162.95232884079888 L-298.8969869423815,-162.9009066390168 L-299.02539997109454,-162.85277951833544 L-299.15809593533896,-162.80806342120394 L-299.2947551589141,-162.76686607261698 L-299.43504841778037,-162.72928672059575 L-299.57863773318894,-162.69541589709087 L-299.72517718590217,-162.66533519988283 L-299.874313749543,-162.639117096006 L-300.0256881410668,-162.61682474716906 L-300.17893568630564,-162.59851185759294 L-300.3336871985001,-162.58422254463264 L-300.48956986770264,-162.57399123249465 L-300.64620815890953,-162.5678425693061 L-300.80322471675726,-162.5657913677352 L-300.960241274605,-162.5678425693061 L-301.11687956581187,-162.57399123249465 L-301.2727622350144,-162.58422254463264 L-301.4275137472089,-162.59851185759294 L-301.5807612924477,-162.61682474716906 L-301.73213568397153,-162.639117096006 L-301.88127224761234,-162.66533519988283 L-302.02781170032557,-162.69541589709087 L-302.17140101573415,-162.72928672059575 L-302.3116942746004,-162.76686607261698 L-302.44835349817555,-162.80806342120394 L-302.58104946241997,-162.85277951833544 L-302.709462491133,-162.9009066390168 L-302.83328322608094,-162.95232884079888 L-302.9522133722677,-163.00692224309353 L-303.0659664165542,-163.06455532561276 " />
			<path d="M-300.7433671437557,-2044.412336050518 L-300.90416785333434,-2044.4128855649278 L-301.0647136624231,-2044.4177330498958 L-301.2245991625242,-2044.4268662646064 L-301.38342061254457,-2044.440262145967 L-301.5407769583187,-2044.4578868668464 L-301.6962708453461,-2044.4796959214948 L-301.8495096221865,-2044.5056342379294 L-302.0001063319787,-2044.5356363170006 L-302.1476806895803,-2044.569626397791 L-302.29186004185874,-2044.607518648925 L-302.4322803087115,-2044.6492173853103 L-302.56858690243695,-2044.69461730976 L-302.7004356231351,-2044.7436037788875 L-302.82749352787766,-2044.7960530926043 L-302.94943977145164,-2044.8518328064843 L-303.0659664165542,-2044.9108020662125 " />
			<path d="M-303.0659664165542,-163.0645553256128 L-325.4105407020491,-174.95526710198146 " />
			<path d="M-303.0659664165542,-2044.9108020662122 L-325.4105407020491,-2056.801513842581 " />
			<path d="M-325.41054070204916,-174.95526710198146 L-325.51884260338807,-175.0158010215815 L-325.62143245301297,-175.07908994674784 L-325.7180631029903,-175.14498140891632 L-325.80850176162033,-175.21331666978315 L-325.8925305542531,-175.28393110371942 L-325.96994704816694,-175.35665459436876 L-326.04056474024725,-175.43131194447227 L-326.1042135062883,-175.5077232979344 L-326.16074001083786,-175.58570457311183 L-326.2100080765953,-175.66506790628225 L-326.2518990124748,-175.74562210422468 L-326.28631189954257,-175.82717310482056 L-326.3131638341395,-175.90952444456642 L-326.3323901276032,-175.9924777318717 L-326.34394446210877,-176.07583312500142 L-326.3477990022522,-176.15938981351243 " />
			<path d="M-325.41054070204916,-2056.8015138425812 L-325.51884260338807,-2056.862047762181 L-325.62143245301297,-2056.9253366873477 L-325.7180631029903,-2056.9912281495162 L-325.80850176162033,-2057.059563410383 L-325.8925305542531,-2057.1301778443194 L-325.96994704816694,-2057.2029013349684 L-326.04056474024725,-2057.277558685072 L-326.1042135062883,-2057.353970038534 L-326.16074001083786,-2057.4319513137116 L-326.2100080765953,-2057.511314646882 L-326.2518990124748,-2057.5918688448246 L-326.28631189954257,-2057.6734198454205 L-326.3131638341395,-2057.7557711851664 L-326.3323901276032,-2057.8387244724713 L-326.34394446210877,-2057.922079865601 L-326.3477990022522,-2058.0056365541122 " />
			<path d="M-326.3477990022522,-2058.0056365541122 L-326.34679404787045,-2058.048310699102 L-326.34377981593354,-2058.0909580406105 " />
			<path d="M-585.9086788911732,-315.9881396900504 L-527.5016587651644,-347.06955718144445 " />
			<path d="M-526.5644004649614,-348.27367989297545 L-526.5682550051049,-348.1901232044644 L-526.5798093396104,-348.1067678113347 L-526.5990356330742,-348.02381452402943 L-526.6258875676712,-347.9414631842836 L-526.660300454739,-347.8599121836877 L-526.7021913906184,-347.77935798574526 L-526.7514594563758,-347.69999465257484 L-526.8079859609253,-347.6220133773974 L-526.8716347269665,-347.54560202393526 L-526.9422524190467,-347.47094467383175 L-527.0196689129606,-347.39822118318244 L-527.1036977055933,-347.3276067492461 L-527.1941363642234,-347.2592714883793 L-527.2907670142007,-347.19338002621083 L-527.3933568638256,-347.13009110104446 L-527.5016587651645,-347.06955718144445 " />
			<path d="M-585.9086788911733,-315.9881396900504 L-586.0224319354597,-315.93050660753113 L-586.1413620816465,-315.8759132052365 L-586.2651828165945,-315.8244910034544 L-586.3935958453075,-315.776363882773 L-586.5262918095519,-315.73164778564154 L-586.662951033127,-315.6904504370546 L-586.8032442919933,-315.6528710850334 L-586.9468336074019,-315.61900026152847 L-587.0933730601151,-315.5889195643204 L-587.242509623756,-315.56270146044363 L-587.3938840152798,-315.54040911160666 L-587.5471315605187,-315.52209622203054 L-587.701883072713,-315.5078069090702 L-587.8577657419156,-315.4975755969322 L-588.0144040331224,-315.4914269337437 L-588.1714205909702,-315.4893757321728 L-588.328437148818,-315.4914269337437 L-588.4850754400248,-315.4975755969322 L-588.6409581092274,-315.5078069090702 L-588.7957096214218,-315.52209622203054 L-588.9489571666606,-315.54040911160666 L-589.1003315581845,-315.56270146044363 L-589.2494681218253,-315.5889195643204 L-589.3960075745385,-315.61900026152847 L-589.5395968899471,-315.6528710850334 L-589.6798901488135,-315.6904504370546 L-589.8165493723885,-315.73164778564154 L-589.949245336633,-315.776363882773 L-590.077658365346,-315.8244910034544 L-590.2014791002939,-315.8759132052365 L-590.3204092464807,-315.93050660753113 L-590.4341622907672,-315.9881396900504 " />
			<path d="M-587.124449713376,-2197.429344945873 L-587.2307822253053,-2197.4108543798015 L-587.3382642580475,-2197.394352912935 L-587.446764461619,-2197.379860711131 L-587.5561502417659,-2197.3673954847964 L-587.6662879220029,-2197.356972467242 L-587.777042906974,-2197.3486043960684 L-587.8882798469367,-2197.3423014975983 L-587.999862803169,-2197.338071474381 L-588.1116554140941,-2197.3359194957784 L-588.223521061924,-2197.335848191647 L-588.3353230396145,-2197.3378576491245 L-588.446924717931,-2197.3419454125246 L-588.5581897124171,-2197.3481064863363 L-588.668982050066,-2197.3563333413304 L-588.7791663354883,-2197.3666159237578 L-588.8886079163732,-2197.3789416676395 L-588.9971730480432,-2197.3932955101204 L-589.1047290568982,-2197.409659909879 L-589.2111445025512,-2197.428014868561 L-589.3162893384573,-2197.4483379552235 L-589.4200350708386,-2197.4706043337414 L-589.522254915712,-2197.4947867931623 L-589.6228239538276,-2197.5208557809606 L-589.7216192833278,-2197.5487794391493 L-589.8185201699414,-2197.5785236432157 L-589.913408194529,-2197.6100520438217 L-590.0061673977983,-2197.6433261112265 L-590.096684422014,-2197.6783051823713 L-590.1848486495288,-2197.714946510573 L-590.2705523379644,-2197.753205317763 L-590.3536907518803,-2197.793034849208 L-590.4341622907672,-2197.8343864306503 " />
			<path d="M-590.4341622907671,-315.9881396900504 L-612.778736576262,-327.87885146641906 " />
			<path d="M-590.4341622907671,-2197.8343864306503 L-612.778736576262,-2209.7250982070186 " />
			<path d="M-612.778736576262,-327.878851466419 L-612.8870384776009,-327.939385386019 L-612.9896283272258,-328.0026743111854 L-613.0862589772031,-328.06856577335384 L-613.1766976358332,-328.13690103422067 L-613.2607264284659,-328.207515468157 L-613.3381429223798,-328.2802389588063 L-613.40876061446,-328.3548963089098 L-613.4724093805012,-328.431307662372 L-613.5289358850507,-328.5092889375494 L-613.5782039508081,-328.5886522707198 L-613.6200948866875,-328.66920646866225 L-613.6545077737553,-328.75075746925813 L-613.6813597083523,-328.833108809004 L-613.7005860018161,-328.91606209630925 L-613.7121403363216,-328.99941748943894 L-613.7159948764651,-329.08297417795 " />
			<path d="M-612.778736576262,-2209.7250982070186 L-612.8870384776009,-2209.7856321266186 L-612.9896283272258,-2209.848921051785 L-613.0862589772031,-2209.9148125139536 L-613.1766976358332,-2209.9831477748203 L-613.2607264284659,-2210.053762208757 L-613.3381429223798,-2210.1264856994057 L-613.40876061446,-2210.2011430495095 L-613.4724093805012,-2210.2775544029714 L-613.5289358850507,-2210.355535678149 L-613.5782039508081,-2210.4348990113194 L-613.6200948866875,-2210.515453209262 L-613.6545077737553,-2210.597004209858 L-613.6813597083523,-2210.6793555496038 L-613.7005860018161,-2210.7623088369087 L-613.7121403363216,-2210.8456642300384 L-613.7159948764651,-2210.9292209185496 " />
			<path d="M-613.7159948764651,-2210.9292209185496 L-613.7127649725937,-2211.0057120239326 L-613.7030817811544,-2211.082048717492 L-613.6869648495078,-2211.1580768991143 L-613.6644467127416,-2211.2336430914756 L-613.6355728279913,-2211.3085947498653 L-613.600401482677,-2211.3827805701258 L-613.559003676839,-2211.45605079409 L-613.5114629798106,-2211.528257511895 " />
			<path d="M-873.276874765386,-468.91172405448793 L-814.8698546393772,-499.993141545882 " />
			<path d="M-813.9325963391741,-501.197264257413 L-813.9364508793176,-501.11370756890193 L-813.9480052138231,-501.03035217577224 L-813.9672315072869,-500.947398888467 L-813.9940834418838,-500.8650475487211 L-814.0284963289516,-500.78349654812524 L-814.0703872648311,-500.7029423501828 L-814.1196553305884,-500.6235790170124 L-814.176181835138,-500.54559774183497 L-814.2398306011792,-500.4691863883728 L-814.3104482932594,-500.3945290382693 L-814.3878647871733,-500.32180554762 L-814.471893579806,-500.25119111368366 L-814.562332238436,-500.18285585281683 L-814.6589628884134,-500.1169643906484 L-814.7615527380383,-500.053675465482 L-814.8698546393772,-499.993141545882 " />
			<path d="M-873.276874765386,-468.91172405448793 L-873.3906278096724,-468.8540909719687 L-873.5095579558592,-468.79949756967403 L-873.6333786908071,-468.74807536789194 L-873.7617917195201,-468.69994824721056 L-873.8944876837646,-468.6552321500791 L-874.0311469073397,-468.61403480149215 L-874.171440166206,-468.5764554494709 L-874.3150294816146,-468.542584625966 L-874.4615689343278,-468.51250392875795 L-874.6107054979686,-468.4862858248812 L-874.7620798894925,-468.4639934760442 L-874.9153274347314,-468.4456805864681 L-875.0700789469257,-468.43139127350776 L-875.2259616161283,-468.42115996136977 L-875.3825999073351,-468.41501129818124 L-875.5396164651829,-468.41296009661033 L-875.6966330230307,-468.41501129818124 L-875.8532713142375,-468.42115996136977 L-876.0091539834401,-468.43139127350776 L-876.1639054956345,-468.4456805864681 L-876.3171530408733,-468.4639934760442 L-876.4685274323972,-468.4862858248812 L-876.617663996038,-468.51250392875795 L-876.7642034487512,-468.542584625966 L-876.9077927641598,-468.5764554494709 L-877.0480860230261,-468.61403480149215 L-877.1847452466012,-468.6552321500791 L-877.3174412108457,-468.69994824721056 L-877.4458542395587,-468.74807536789194 L-877.5696749745066,-468.79949756967403 L-877.6886051206934,-468.8540909719687 L-877.8023581649799,-468.91172405448793 " />
			<path d="M-873.7204031486127,-2350.561162043153 L-873.8364429204706,-2350.5204425477605 L-873.9556961540386,-2350.482443086489 L-874.0779378483467,-2350.4472353548003 L-874.2029373639481,-2350.4148857808623 L-874.3304588580783,-2350.385455400215 L-874.4602617296313,-2350.3589997406116 L-874.5921010731134,-2350.335568717254 L-874.7257281407191,-2350.3152065386107 L-874.8608908116548,-2350.297951623011 L-874.9973340678287,-2350.2838365261578 L-875.1348004750052,-2350.272887879701 L-875.2730306685195,-2350.265126340994 L-875.4117638426328,-2350.2605665541146 L-875.5507382426086,-2350.2592171222386 L-875.6896916585772,-2350.261080591406 L-875.8283619202606,-2350.2661534457166 L-875.966487391622,-2350.274426113966 L-876.1038074645073,-2350.2858829877023 L-876.2400630503478,-2350.300502450675 L-876.3749970689947,-2350.3182569196215 L-876.5083549337659,-2350.339112896307 L-876.6398850317862,-2350.3630310307294 L-876.7693391987185,-2350.389966195363 L-876.8964731869875,-2350.4198675703 L-877.0210471266136,-2350.45267873914 L-877.1428259777875,-2350.488337795428 L-877.2615799743317,-2350.52677745946 L-877.3770850572109,-2350.5679252052223 L-877.4891232972764,-2350.6117033972287 L-877.5974833064428,-2350.6580294370006 L-877.7019606365249,-2350.7068159189093 L-877.8023581649799,-2350.7579707950877 " />
			<path d="M-877.8023581649799,-468.91172405448793 L-900.1469324504748,-480.8024358308566 " />
			<path d="M-877.8023581649799,-2350.7579707950877 L-900.1469324504748,-2362.648682571456 " />
			<path d="M-900.1469324504748,-480.8024358308566 L-900.2552343518137,-480.8629697504566 L-900.3578242014386,-480.926258675623 L-900.4544548514159,-480.99215013779144 L-900.544893510046,-481.0604853986583 L-900.6289223026787,-481.1310998325946 L-900.7063387965926,-481.2038233232439 L-900.7769564886728,-481.2784806733474 L-900.840605254714,-481.3548920268096 L-900.8971317592635,-481.432873301987 L-900.9463998250209,-481.5122366351574 L-900.9882907609003,-481.59279083309985 L-901.0227036479681,-481.67434183369573 L-901.0495555825651,-481.7566931734416 L-901.0687818760289,-481.83964646074685 L-901.0803362105344,-481.92300185387654 L-901.0841907506779,-482.0065585423876 " />
			<path d="M-900.1469324504748,-2362.648682571456 L-900.2552343518137,-2362.709216491056 L-900.3578242014386,-2362.7725054162224 L-900.4544548514159,-2362.838396878391 L-900.544893510046,-2362.9067321392577 L-900.6289223026787,-2362.977346573194 L-900.7063387965926,-2363.050070063843 L-900.7769564886728,-2363.124727413947 L-900.840605254714,-2363.201138767409 L-900.8971317592635,-2363.2791200425863 L-900.9463998250209,-2363.358483375757 L-900.9882907609003,-2363.4390375736994 L-901.0227036479681,-2363.5205885742953 L-901.0495555825651,-2363.602939914041 L-901.0687818760289,-2363.685893201346 L-901.0803362105344,-2363.769248594476 L-901.0841907506779,-2363.852805282987 " />
			<path d="M-901.0841907506779,-2363.852805282987 L-901.0817180691873,-2363.9197360698713 L-901.0743038460621,-2363.9865634201824 L-901.0619595394346,-2364.0531840571994 L-901.0447042265166,-2364.1194950236627 L-901.0225645741161,-2364.185393840885 L-900.995574797426,-2364.2507786671254 L-900.963776607147,-2364.315548454978 L-900.927219145027,-2364.3796031075326 L-900.885958907916,-2364.4428436330686 L-900.8400596604545,-2364.505172298038 L-900.7895923365294,-2364.5664927781054 L-900.7346349296521,-2364.626710307011 L-900.6752723724242,-2364.6857318230236 L-900.6115964052809,-2364.7434661127622 L-900.5437054347133,-2364.7998239521585 L-900.4717043811876,-2364.854718244346 " />
			<path d="M-1169.6959686263888,-626.6517602227887 L-1111.2889484980126,-657.733177712923 " />
			<path d="M-1169.6957294483866,-2508.4978796842947 L-1169.5019900978066,-2508.6009784834873 " />
			<path d="M-1110.3516901977177,-658.9373004300862 L-1110.3555447478177,-658.8537437349455 L-1110.3670990909307,-658.7703883361473 L-1110.3863253916368,-658.6874350441137 L-1110.4131773321017,-658.6050837005567 L-1110.44759022366,-658.5235326970421 L-1110.4894811626557,-658.4429784970464 L-1110.5387492301654,-658.3636151626597 L-1110.5952757351192,-658.2856338870731 L-1110.658924500239,-658.2092225339775 L-1110.729542190101,-658.1345651849837 L-1110.8069586805343,-658.0618416961536 L-1110.8909874684646,-657.9912272647115 L-1110.9814261212166,-657.9228920069786 L-1111.078056764192,-657.857000548548 L-1111.1806466057478,-657.7937116276869 L-1111.2889484980126,-657.7331777129231 " />
			<path d="M-1169.6959686263888,-626.6517602227887 L-1169.8097216706797,-626.5941271407685 L-1169.9286518168706,-626.539533739965 L-1170.0524725518223,-626.4881115406628 L-1170.180885580539,-626.4399844234439 L-1170.313581544787,-626.3952683307491 L-1170.4502407683651,-626.3540709875624 L-1170.5905340272343,-626.3164916418921 L-1170.7341233426455,-626.2826208256732 L-1170.880662795361,-626.252540136669 L-1171.0297993590038,-626.2263220418939 L-1171.1811737505293,-626.2040297030348 L-1171.3344212957695,-626.1857168242884 L-1171.4891728079651,-626.1714275229838 L-1171.6450554771684,-626.1611962232993 L-1171.8016937683758,-626.155047573332 L-1171.9587103262236,-626.1529963857184 L-1172.1157268840714,-626.1550476019489 L-1172.2723651752776,-626.1611962804641 L-1172.4282478444795,-626.1714276085588 L-1172.5829993566729,-626.1857169380675 L-1172.7362469019101,-626.2040298447438 L-1172.8876212934324,-626.2263222111915 L-1173.0367578570713,-626.2525403331472 L-1173.1832973097821,-626.2826210488588 L-1173.326886625188,-626.3164918912473 L-1173.4671798840516,-626.3540712624866 L-1173.6038391076236,-626.39526863058 L-1173.7365350718646,-626.4399847474591 L-1173.8649481005739,-626.4881118880818 L-1173.988768835518,-626.5395341099509 L-1174.1076989817004,-626.5941275324296 L-1174.2214520259827,-626.6517606351817 " />
			<path d="M-1169.6957294483866,-2508.4978796842943 L-1169.8094824926775,-2508.4402466022743 L-1169.9284126388684,-2508.3856532014706 L-1170.0522333738202,-2508.3342310021685 L-1170.180646402537,-2508.2861038849496 L-1170.3133423667848,-2508.241387792255 L-1170.450001590363,-2508.200190449068 L-1170.5902948492321,-2508.162611103398 L-1170.7338841646433,-2508.128740287179 L-1170.880423617359,-2508.098659598175 L-1171.0295601810017,-2508.0724415033997 L-1171.1809345725271,-2508.0501491645405 L-1171.3341821177673,-2508.0318362857943 L-1171.488933629963,-2508.0175469844894 L-1171.6448162991662,-2508.0073156848052 L-1171.8014545903736,-2508.0011670348376 L-1171.9584711482214,-2507.999115847224 L-1172.1154877060692,-2508.0011670634544 L-1172.2721259972755,-2508.0073157419697 L-1172.4280086664774,-2508.0175470700647 L-1172.5827601786707,-2508.0318363995734 L-1172.736007723908,-2508.0501493062493 L-1172.8873821154302,-2508.072441672697 L-1173.036518679069,-2508.098659794653 L-1173.18305813178,-2508.1287405103644 L-1173.326647447186,-2508.162611352753 L-1173.4669407060494,-2508.2001907239924 L-1173.6035999296214,-2508.241388092086 L-1173.7362958938625,-2508.286104208965 L-1173.8647089225717,-2508.3342313495873 L-1173.9885296575158,-2508.3856535714567 L-1174.1074598036982,-2508.4402469939355 L-1174.2212128479805,-2508.4978800966874 " />
			<path d="M-1174.2214520259824,-626.6517606351816 L-1196.5660263105717,-638.5424764834507 " />
			<path d="M-1174.2212128479803,-2508.497880096688 L-1196.5657871325695,-2520.3885959449567 " />
			<path d="M-1196.5660263105717,-638.5424764834509 L-1196.6743282209848,-638.6030104286141 L-1196.7769180786786,-638.6662993797561 L-1196.873548735658,-638.7321908682238 L-1196.9639874001662,-638.8005261556228 L-1197.0480161975013,-638.871140616232 L-1197.1254326948956,-638.9438641336013 L-1197.1960503891942,-639.0185215103774 L-1197.2596991561566,-639.0949328903696 L-1197.3162256603018,-639.1729141918388 L-1197.365493724307,-639.2522775509673 L-1197.4073846570702,-639.3328317744384 L-1197.4417975396477,-639.4143828000388 L-1197.4686494683767,-639.4967341641709 L-1197.487875754598,-639.5796874751514 L-1197.499430080496,-639.6630428911537 L-1197.503284610683,-639.7465996016451 " />
			<path d="M-1196.5657871325695,-2520.3885959449567 L-1196.6740890429826,-2520.4491298901203 L-1196.7766789006764,-2520.512418841262 L-1196.8733095576558,-2520.57831032973 L-1196.963748222164,-2520.646645617129 L-1197.047777019499,-2520.717260077738 L-1197.1251935168934,-2520.789983595107 L-1197.195811211192,-2520.8646409718835 L-1197.2594599781544,-2520.9410523518754 L-1197.3159864822996,-2521.0190336533446 L-1197.3652545463049,-2521.098397012473 L-1197.407145479068,-2521.178951235944 L-1197.4415583616455,-2521.260502261545 L-1197.4684102903745,-2521.342853625677 L-1197.4876365765958,-2521.4258069366574 L-1197.4991909024939,-2521.5091623526596 L-1197.503045432681,-2521.592719063151 " />
			<path d="M-1197.503045432681,-2521.592719063151 L-1197.499190882581,-2521.676275758292 L-1197.487636539468,-2521.75963115709 L-1197.4684102387619,-2521.8425844491235 L-1197.441558298297,-2521.9249357926806 L-1197.4071454067387,-2522.0064867961955 L-1197.365254467743,-2522.0870409961913 L-1197.3159864002332,-2522.1664043305777 L-1197.2594598952794,-2522.2443856061645 L-1197.1958111301597,-2522.32079695926 L-1197.1251934402976,-2522.3954543082536 L-1197.0477769498643,-2522.468177797084 L-1196.963748161934,-2522.538792228526 L-1196.873309509182,-2522.607127486259 L-1196.7766788662066,-2522.6730189446894 L-1196.6740890246508,-2522.7363078655508 L-1196.565787132386,-2522.7968417803145 " />
			<path d="M-1196.565787132386,-2522.7968417803145 L-1196.3176182524603,-2522.9289053669872 " />
			<path d="M-47.234732983261374,9.049734753850206 L-1232.6285409643901,-621.7600507494552 " />
			<path d="M47.234732983261374,-41.222388452569234 L47.23470275990988,-41.22240453598872 " />
			<path d="M-38.97963971166529,-87.1015465693244 L-240.13346289095148,-194.14597281700685 " />
			<path d="M-326.34779900225226,-240.02511146570924 L-527.5016587651644,-347.06955718144445 " />
			<path d="M-613.7159948764652,-392.94869583014685 L-814.8698546393772,-499.993141545882 " />
			<path d="M-901.0841907506779,-545.8722801945844 L-1111.2889484980126,-657.733180136523 " />
			<path d="M-49.49747468305833,12.963133566325972 L-1234.891282664187,-617.8466519369795 " />
			<path d="M-49.49747468305833,39.717235063155485 L-1234.891282664187,-591.0925504401499 " />
			<path d="M-11.769076035238642,-1922.990455964268 L-1196.1071651574018,-2555.7971703332496 " />
			<path d="M46.68961560415873,-1954.3384271950063 L-1137.6484735180045,-2587.1451415639876 " />
			<path d="M-14.026565865930497,-1919.073044056572 L-1198.3646549880937,-2551.8797584255535 " />
			<path d="M-13.954935864049423,-1892.3812877984742 L-1198.2930249862127,-2525.188002167456 " />
			<path d="M-11.17231451783,-10.140988533665254 L-11.172585585044263,-1891.9873794369564 " />
			<path d="M47.23470558653536,-41.222406040183365 L47.234434595081005,-1922.542844329682 " />
			<path d="M-15.697797917423866,-10.140988065506587 L-15.69806898463813,-1891.9873789687979 " />
			<path d="M-38.04237221119851,-22.031695224594383 L-38.042643278412775,-1903.8780861278856 " />
			<path d="M-298.5404830169603,-163.0645553256128 L-298.5404830169603,-2043.2353073969462 " />
			<path d="M-240.13346289095148,-194.14597281700685 L-240.13346289095148,-2012.027703046893 " />
			<path d="M-303.0659664165542,-163.0645553256128 L-303.0659664165542,-2044.9108020662125 " />
			<path d="M-325.41054070204916,-174.95526710198146 L-325.41054070204916,-2056.8015138425812 " />
			<path d="M-585.9086788911732,-315.9881396900504 L-585.9086788911732,-2196.779743327475 " />
			<path d="M-527.5016587651644,-347.06955718144445 L-527.5016587651644,-2165.5721389774217 " />
			<path d="M-590.4341622907672,-315.9881396900504 L-590.4341622907672,-2197.8343864306503 " />
			<path d="M-612.778736576262,-327.878851466419 L-612.778736576262,-2209.7250982070186 " />
			<path d="M-873.276874765386,-468.91172405448793 L-873.276874765386,-2350.3241792580034 " />
			<path d="M-814.8698546393772,-499.993141545882 L-814.8698546393772,-2319.11657490795 " />
			<path d="M-877.8023581649799,-468.91172405448793 L-877.8023581649799,-2350.7579707950877 " />
			<path d="M-900.1469324504748,-480.8024358308566 L-900.1469324504748,-2362.6486825714564 " />
			<path d="M-1169.6959686263888,-626.6517602227887 L-1169.6957294483866,-2508.4978796842943 " />
			<path d="M-1111.2889484980128,-657.7331777129231 L-1111.2887172105309,-2477.496895716237 " />
			<path d="M-1174.2214520259827,-626.6517606351819 L-1174.2212128479805,-2508.4978800966874 " />
			<path d="M-1196.5660263105715,-638.5424764834509 L-1196.5657871325693,-2520.3885959449563 " />
			<path d="M-1110.5985758597392,-658.2814101760961 L-901.084190750678,-546.7878934724828 " />
			<path d="M-814.1794833251033,-500.5413722900244 L-613.7159948764652,-393.86430910804523 " />
			<path d="M-526.8112874508905,-347.61778792558687 L-326.34779900225226,-240.94072474360755 " />
			<path d="M-239.44309157667752,-194.69420356114918 L-38.979639843553194,-88.01715991740718 " />
			<path d="M47.925075255155676,-41.77063465167444 L48.73801674521902,-41.338026143412556 " />
			<path d="M-1234.1318247263478,-589.4717593598929 L-48.73801674521902,41.338026143412556 " />
			<path d="M-1136.1331862257757,-2587.2645599205853 L48.20490289638781,-1954.4578455516037 " />
			<path d="M-1197.536315105597,-2523.580070400459 L-38.719996048076325,-1904.4099582887418 " />
			<path d="M-14.880309210306647,-1891.6721142238123 L-13.198225983433515,-1890.7733560314775 " />
			<path d="M48.17169292049884,-1923.5660958926296 L48.171963885899935,-42.426528745079935 " />
			<path d="M-38.97990150262459,-1904.5488290370947 L-38.97963051224001,-23.235817475773004 " />
			<path d="M-239.1962045907485,-2011.5269141666622 L-239.1962045907485,-195.35009552853785 " />
			<path d="M-326.3477990022522,-2058.0056365541122 L-326.3477990022522,-176.15938981351246 " />
			<path d="M-526.5644004649614,-2165.0713500971906 L-526.5644004649614,-348.27367989297545 " />
			<path d="M-613.7159948764651,-2210.9292209185496 L-613.7159948764651,-329.08297417795006 " />
			<path d="M-813.9325963391741,-2318.615786027719 L-813.9325963391741,-501.197264257413 " />
			<path d="M-901.0841907506779,-2363.8528052829874 L-901.0841907506779,-482.00655854238767 " />
			<path d="M-1110.351459126926,-2476.996106951737 L-1110.351690197718,-658.9373004300862 " />
			<path d="M-1197.503045432681,-2521.592719063151 L-1197.503284610683,-639.746599601645 " />

       </g>
    </g>
    
</svg>
