<?xml version="1.0" encoding="UTF-8" standalone="no"?>
<svg
   xmlns:svg="http://www.w3.org/2000/svg"
   xmlns="http://www.w3.org/2000/svg"
   width="480.0"
   height="480.0"

>
    <g transform="scale(0.12938750100534815, -0.12938750100534815)   translate(2842.2646475268803,-280.62372205801506)" stroke-width="1.0"  fill="none">
       <!-- hidden lines -->
       <g  stroke="rgb(0,0,0)" fill="none" stroke-dasharray="1.0,1.0" >
			<path d="M-698.2129439157846,-237.86268481971223 L-698.2129439157846,-368.79041486590796 " />
			<path d="M-697.0577022015706,-371.38970117968654 L-697.123984105152,-371.32820501882816 L-697.1887455146957,-371.2648205808646 L-697.2519327753718,-371.19960037980485 L-697.3134935365324,-371.1325984505878 L-697.3733767950849,-371.0638703043141 L-697.4315329377476,-370.9934728822553 L-697.4879137821542,-370.9214645086779 L-697.5424726167731,-370.84790484252204 L-697.5951642396082,-370.77285482797356 L-697.6459449956478,-370.6963766439721 L-697.6947728130342,-370.61853365269576 L-697.7416072379186,-370.53939034706553 L-697.7864094679787,-370.45901229731277 L-697.8291423845651,-370.3774660966545 L-697.8697705834552,-370.2948193061207 L-697.9082604041846,-370.2111403985803 L-697.9445799579356,-370.12649870201096 L-697.9786991539567,-370.0409643420613 L-698.0105897244927,-369.95460818395134 L-698.0402252482049,-369.8675017737612 L-698.067581172061,-369.7797172791546 L-698.0926348316768,-369.6913274295884 L-698.1153654700948,-369.602405456056 L-698.1357542549803,-369.5130250304155 L-698.153784294224,-369.42326020435263 L-698.169440649938,-369.3331853480289 L-698.1827103508309,-369.24287508846584 L-698.1935824029553,-369.1524042477166 L-698.2020477988154,-369.06184778087584 L-698.2080995248306,-368.9712807139795 L-698.2117325671455,-368.8807780818456 L-698.2129439157848,-368.79041486590796 " />
			<path d="M-698.2129439157848,-237.86268481971223 L-698.2111938866938,-237.75436090062857 L-698.2059458940827,-237.64647620993264 L-698.1972062194297,-237.53915987801489 L-698.184985323511,-237.4325403549801 L-698.1692978338798,-237.32674525690192 L-698.1501625273584,-237.22190121307523 L-698.1276023075634,-237.1181337144499 L-698.1016441774918,-237.01556696342678 L-698.0723192072007,-236.9143237251963 L-698.0396624966179,-236.81452518079718 L-698.0037131335299,-236.71629078207107 L-697.9645141467973,-236.61973810868727 L-697.9221124548513,-236.52498272740812 L-697.8765588095366,-236.4321380537636 L-697.8279077353639,-236.34131521630093 L-697.7762174642487,-236.2526229235717 L-697.7215498658119,-236.1661673340151 L-697.6639703733255,-236.08205192889395 L-697.6035479053941,-236.00037738843474 L-697.5403547834641,-235.92124147132066 L-697.4744666452598,-235.8447388976811 L-697.4059623542508,-235.77096123571854 L-697.3349239052575,-235.69999679210773 L-697.2614363263092,-235.63193050629872 L-697.1855875768716,-235.56684384885057 L-697.1074684425657,-235.50481472391655 L-697.0271724265033,-235.4459173759985 L-696.9447956373707,-235.3902223010814 L-696.8604366743934,-235.3377961622544 L-696.7741965093196,-235.28870170992013 L-696.686178365564,-235.24299770668668 L-696.596487594657,-235.2007388570328 " />
			<path d="M-696.596487594657,-235.2007388570328 L-696.5201578176404,-235.16803291534782 L-696.4427940688781,-235.13780674632608 L-696.3644613079489,-235.1100857298029 L-696.2852253080761,-235.08489314212642 L-696.2051526009008,-235.0622501366134 L-696.1243104206171,-235.04217572578727 L-696.0427666475188,-235.02468676541446 L-695.9605897510012,-235.00979794035067 L-695.8778487320716,-234.99752175221096 L-695.7946130654103,-234.98786850887228 L-695.7109526410358,-234.9808463158186 L-695.6269377056204,-234.97646106933476 L-695.5426388035067,-234.9747164515557 L-695.4581267174741,-234.9756139273747 L-695.3734724093048,-234.97915274321338 L-695.2887469601999,-234.98532992765436 " />
			<path d="M-695.2887469601998,-234.98532992765433 L-666.4123020237997,-237.53938651723382 " />
			<path d="M-666.4123020237997,-237.53938651723382 L-666.2688184799139,-237.55585475543916 L-666.1256806004529,-237.57983820332032 L-665.9832332171059,-237.61127908265064 L-665.8418194980961,-237.6501016495979 L-665.7017801214591,-237.69621237719792 L-665.5634524543193,-237.74950018066906 L-665.4271697401427,-237.8098366850253 L-665.2932602959249,-237.87707653434276 L-665.1620467212462,-237.95105774193496 L-665.0338451211005,-238.03160208059282 L-664.9089643443721,-238.11851551194965 L-664.7877052397903,-238.21158865393662 L-664.6703599311589,-238.3105972852024 L-664.5572111136049,-238.41530288528213 L-664.4485313725404,-238.52545320921413 L-664.3445825269806,-238.64078289522 L-664.2456149987996,-238.76101410398448 L-664.1518672094412,-238.88585718799465 L-664.0635650055412,-239.01501138932613 L-663.9809211148433,-239.14816556419535 L-663.904134633719,-239.28499893253215 L-663.8333905475267,-239.42518185076702 L-663.7688592849669,-239.5683766059713 L-663.7106963075031,-239.7142382294374 L-663.6590417348426,-239.86241532773838 L-663.6140200073753,-240.01255092926564 L-663.5757395863861,-240.16428334420482 L-663.5442926927622,-240.3172470358781 L-663.5197550848247,-240.47107350135423 L-663.5021858758204,-240.62539215920424 L-663.4916273915126,-240.77983124226466 L-663.4881050682148,-240.93401869325714 " />
			<path d="M-663.488105068215,-240.93401869325714 L-663.488105068215,-371.8617487394529 " />
			<path d="M-663.4881050682148,-371.8617487394529 L-663.4898550973058,-371.9700726585366 L-663.4951030899169,-372.07795734923246 L-663.5038427645699,-372.18527368115025 L-663.5160636604886,-372.29189320418504 L-663.5317511501198,-372.39768830226325 L-663.5508864566413,-372.5025323460899 L-663.5734466764362,-372.60629984471524 L-663.5994048065078,-372.70886659573836 L-663.6287297767989,-372.8101098339688 L-663.6613864873817,-372.90990837836796 L-663.6973358504697,-373.00814277709406 L-663.7365348372023,-373.10469545047783 L-663.7789365291483,-373.199450831757 L-663.824490174463,-373.29229550540157 L-663.8731412486358,-373.3831183428642 L-663.9248315197509,-373.47181063559344 L-663.9794991181877,-373.55826622515 L-664.0370786106741,-373.6423816302712 L-664.0975010786055,-373.72405617073036 L-664.1606942005355,-373.8031920878445 L-664.2265823387398,-373.879694661484 L-664.2950866297488,-373.9534723234466 L-664.3661250787421,-374.0244367670574 L-664.4396126576904,-374.0925030528664 L-664.515461407128,-374.1575897103146 L-664.5935805414339,-374.2196188352486 L-664.6738765574963,-374.27851618316663 L-664.7562533466289,-374.33421125808377 L-664.8406123096062,-374.3866373969107 L-664.92685247468,-374.435731849245 L-665.0148706184356,-374.48143585247846 L-665.1045613893426,-374.52369470213233 " />
			<path d="M-2763.0765259514146,-103.07657561017665 L-2762.9994585794902,-103.04350000919204 L-2762.9213339637695,-103.01295634498138 L-2762.8422190970778,-102.98497080911461 L-2762.7621818213916,-102.95956739953505 L-2762.681290769665,-102.93676789998072 L-2762.599615306976,-102.91659186130458 L-2762.5172254710446,-102.89905658470944 L-2762.434191912175,-102.88417710691195 L-2762.35058583267,-102.87196618724843 L-2762.266478925778,-102.86243429673358 L-2762.1819433142123,-102.85558960908145 L-2762.097051488306,-102.8514379936964 L-2762.01187624385,-102.84998301063997 L-2761.92649061967,-102.85122590757817 L-2761.840967834996,-102.85516561871147 L-2761.755381226673,-102.86179876568883 " />
			<path d="M-2761.755381226673,-102.86179876568886 L-2732.8921463534293,-105.55212033164187 " />
			<path d="M-2732.8921463534293,-105.55212033164187 L-2732.748741888766,-105.56926367976077 L-2732.605709778067,-105.59391666278461 L-2732.4633945982164,-105.62601988951795 L-2732.3221391989473,-105.66549602047564 L-2732.182283876889,-105.71224995420056 L-2732.0441655557624,-105.76616905637117 L-2731.9081169747005,-105.82712343114758 L-2731.7744658866523,-105.894966234102 L-2731.643534268794,-105.96953402597978 L-2731.5156375468628,-106.05064716643892 L-2731.391083835263,-106.13811024681937 L-2731.2701731947964,-106.23171256089965 L-2731.153196909786,-106.33122861250654 L-2731.040436786348,-106.43641865875512 L-2730.932164473497,-106.54702928761046 L-2730.8286408087174,-106.66279402837927 L-2730.7301151895863,-106.78343399366123 L-2730.6368249729494,-106.90865855121322 L-2730.54899490311,-107.03816602410767 L-2730.4668365703988,-107.17164441749888 L-2730.390547901436,-107.30877217024585 L-2730.3203126823073,-107.44921892958122 L-2730.2563001158073,-107.59264634696008 L-2730.198664413816,-107.73870889317121 L-2730.147544425787,-107.88705469074722 L-2730.1030633042496,-108.03732636166819 L-2730.065328208121,-108.18916188831662 L-2730.034430044554,-108.34219548560961 L-2730.0104432499306,-108.49605848220709 L-2729.99342561054,-108.65038020867348 L-2729.9834181233655,-108.80478889045273 L-2729.9804448973205,-108.95891254350582 " />
			<path d="M-2047.58033111052,197.22757241494145 L-2047.868341088948,116.32204469138416 " />
			<path d="M-2729.9804448973205,-108.95891254350586 L-2730.2684548757484,-189.86444026706317 " />
			<path d="M-2730.268454875748,-189.86444026706315 L-2730.270572905684,-189.97222080430322 L-2730.276155971269,-190.07955026785888 L-2730.2851974490054,-190.1863013268945 L-2730.2976866124923,-190.29234733676748 L-2730.313608645149,-190.39756248927372 L-2730.332944657794,-190.50182196190087 L-2730.355671711054,-190.60500206591212 L-2730.381762842578,-190.70698039308482 L-2730.4111870990237,-190.80763596093027 L-2730.4439095727803,-190.90684935622173 L-2730.4798914433804,-191.00450287666095 L-2730.5190900235557,-191.10048067051488 L-2730.5614588098774,-191.19466887405693 L-2730.606947537929,-191.2869557466497 L-2730.6555022419343,-191.3772318033092 L-2730.707065318782,-191.46538994459266 L-2730.7615755963634,-191.5513255836567 L-2730.8189684061426,-191.63493677033432 L-2730.8791756598785,-191.716124312084 L-2730.9421259304,-191.79479189166724 L-2731.007744536345,-191.87084618141515 L-2731.0759536307587,-191.9441969539479 L-2731.1466722934465,-192.01475718921665 L-2731.2198166269773,-192.08244317774015 L-2731.2952998562105,-192.14717461991384 L-2731.3730324312482,-192.2088747212737 L-2731.452922133668,-192.2674702836018 L-2731.5348741859298,-192.3228917917653 L-2731.618791363814,-192.37507349618613 L-2731.704574111765,-192.4239534908432 L-2731.792120660999,-192.46947378671504 L-2731.881327150238,-192.51158038057537 " />
			<path d="M-2048.620354250539,114.30153466777307 L-2048.5905497859885,114.47550886222884 L-2048.5645266675388,114.65157137899185 L-2048.5423668551425,114.82916770821305 L-2048.524140141249,115.00773850929274 L-2048.509903930992,115.18672137252686 L-2048.499703061393,115.36555259041937 L-2048.4935696601456,115.54366893308199 L-2048.4915230444303,115.7205094221299 " />
			<path d="M-2048.491523028107,196.66834252477537 L-2048.492683045713,196.80029189249402 L-2048.496161027797,196.93096687790452 L-2048.5019507656984,197.06013420873856 L-2048.5100419239625,197.18756330409218 L-2048.5204200587937,197.31302668604343 L-2048.533066643838,197.43630038573085 L-2048.5479591032545,197.55716434316773 L-2048.565070852019,197.6754028000785 L-2048.584371343378,197.790804685056 L-2048.605826123382,197.90316399035208 L-2048.6293968923887,198.01228013962896 L-2048.655041573433,198.11795834601463 L-2048.6827143873415,198.22000995982344 L-2048.712365934452,198.31825280532095 L-2048.7439432828,198.41251150593183 L-2048.77739006261,198.50261779731053 L-2048.8126465669206,198.58841082771548 L-2048.8496498581726,198.66973744515087 L-2048.888333880558,198.74645247076353 L-2048.9286295779402,198.81841895800636 L-2048.9704650171284,198.88550843710627 L-2049.013765516286,198.9476011443998 L-2049.05845377825,199.00458623612732 L-2049.1044500285166,199.05636198630376 L-2049.1516721576468,199.1028359683132 L-2049.2000358678456,199.1439252199026 L-2049.2494548234426,199.17955639128058 L-2049.2998408050153,199.20966587605645 L-2049.3511038668694,199.2341999247862 L-2049.4031524976062,199.25311474092234 L-2049.4558937834813,199.26637655899674 L-2049.509233574269,199.27396170489627 " />
			<path d="M-2049.509233574269,199.27396170489627 L-2049.5440125716946,199.27583783303996 L-2049.57897621223,199.27533119992157 L-2049.6140983752366,199.27244218403655 L-2049.6493528216474,199.2671729437111 L-2049.684713213568,199.2595274154896 L-2049.720153133955,199.24951131119366 L-2049.755646106351,199.23713211365506 L-2049.791165614663,199.2223990711254 " />
			<path d="M-18.662080851066587,19.57368442192782 L-31.49605139955182,13.827056666485685 " />
			<path d="M-2049.791165614663,199.22239907112544 L-2062.625136163148,193.4757713156833 " />
			<path d="M-31.496051399551813,13.827056666485685 L-31.55982183876278,13.794724930332388 L-31.623438649401574,13.754916201058824 L-31.686748572999203,13.707726381380649 L-31.74959909040442,13.653269155706809 L-31.81183878921574,13.591675716263838 L-31.87331772854718,13.523094447042304 L-31.93388780024896,13.447690566326772 L-31.993403085713048,13.365645728670485 L-32.05172020740383,13.277157587273635 L-32.10869867426719,13.182439317819496 L-32.16420122018571,13.081719104915521 L-32.21809413466484,12.975239592376644 L-32.27024758495313,12.863257298675077 L-32.32053592882073,12.746041998964834 L-32.36883801724254,12.62387607516977 L-32.41503748625677,12.497053835700775 L-32.45902303729598,12.365880806441046 L-32.500688705315035,12.23067299470747 L-32.53993411407019,12.09175612796132 L-32.57666471793427,11.949464869102268 L-32.61079202966534,11.804142010236147 L-32.64223383358024,11.656137646858745 L-32.670914383619376,11.505808334445089 L-32.69676458582556,11.353516229476076 L-32.71972216479749,11.199628216971789 L-32.73973181371656,11.044515026633352 L-32.7567453275859,10.888550339722595 L-32.770721719360374,10.732109888831184 L-32.781627318688024,10.57557055270788 L-32.78943585302484,10.419309448324633 L-32.79412851092767,10.263703022368754 L-32.795693987372594,10.109126144349894 " />
			<path d="M-2062.625136163148,193.4757713156833 L-2062.688906602359,193.44343957953 L-2062.752523412998,193.40363085025643 L-2062.8158333365955,193.35644103057825 L-2062.878683854001,193.3019838049044 L-2062.940923552812,193.24039036546145 L-2063.0024024921436,193.1718090962399 L-2063.0629725638455,193.09640521552438 L-2063.1224878493094,193.0143603778681 L-2063.1808049710003,192.92587223647124 L-2063.2377834378635,192.83115396701712 L-2063.293285983782,192.73043375411314 L-2063.347178898261,192.62395424157427 L-2063.3993323485493,192.5119719478727 L-2063.4496206924173,192.39475664816246 L-2063.497922780839,192.27259072436738 L-2063.544122249853,192.14576848489838 L-2063.5881078008924,192.01459545563867 L-2063.6297734689115,191.8793876439051 L-2063.6690188776665,191.74047077715895 L-2063.705749481531,191.59817951829987 L-2063.739876793262,191.45285665943376 L-2063.7713185971766,191.30485229605637 L-2063.7999991472157,191.1545229836427 L-2063.825849349422,191.00223087867369 L-2063.848806928394,190.8483428661694 L-2063.868816577313,190.69322967583096 L-2063.885830091182,190.5372649889202 L-2063.8998064829566,190.3808245380288 L-2063.910712082284,190.2242852019055 L-2063.918520616621,190.06802409752225 L-2063.923213274524,189.91241767156637 L-2063.924778750969,189.7578407935475 " />
			<path d="M-32.7956939873726,10.10912614434988 L-32.79569400369641,-70.83870695829555 " />
			<path d="M-2063.9247787509694,189.75784079354753 L-2063.924778767293,108.81000769090208 " />
			<path d="M-32.79569400369641,-70.83870695829555 L-32.79243425922063,-71.05921898579203 L-32.78267137779054,-71.27570563153091 L-32.76645433363886,-71.48708091823787 L-32.74386447747129,-71.69228450911044 L-32.71501512838122,-71.89028702686052 L-32.680051005399164,-72.08009521745251 L-32.63914750152845,-72.26075693263375 L-32.61653146605235,-72.34737273552174 L-32.59250980390888,-72.43136590626315 L-32.56711264993972,-72.51263107659132 L-32.540371864521966,-72.59106630047819 L-32.51232099359969,-72.66657318202427 L-32.48299522660106,-72.73905699889485 L-32.452431352293665,-72.80842682114792 L-32.42066771263354,-72.87459562530447 L-32.38774415466567,-72.93748040351824 L-32.353701980536485,-72.99700226770796 L-32.318583895680845,-73.05308654852129 L-32.282433955248685,-73.10566288900655 L-32.245297508838426,-73.15466533287444 L-32.20722114360657,-73.20003240723943 L-32.16825262582469,-73.24170719973651 L-32.1284408409574,-73.27963742991703 L-32.08783573233612,-73.31377551483378 L-32.04648823850594,-73.34407862873316 " />
			<path d="M-2063.9247787672925,108.81000769090204 L-2063.9231078536095,108.65178572727605 L-2063.9180994089884,108.49546696650876 L-2063.909766311861,108.34145335781895 L-2063.8981299894813,108.19014092308782 L-2063.8832203628313,108.04191873855058 L-2063.8650757696805,107.89716793434793 L-2063.84374286601,107.75626071450958 L-2063.8192765060417,107.61955939988977 " />
			<path d="M-182.417092027906,-56.886356935467425 L-182.417092027906,-60.12064206851995 " />
			<path d="M-2213.546021146152,122.76242729422526 L-2213.546021146152,41.81459419680184 " />
			<path d="M-2213.6778366248495,40.37943907064925 L-2213.6473512252087,40.55523883846329 L-2213.620728852152,40.73322241410932 L-2213.5980553287773,40.91281602823224 L-2213.5794037481937,41.09344072116244 L-2213.5648342378895,41.274514209320074 L-2213.5543937658977,41.455452762334815 L-2213.5481159893857,41.63567308482956 L-2213.546021146152,41.814594196801835 " />
			<path d="M-182.41709202790602,-56.88635693546743 L-182.41825204595995,-56.754407569328855 L-182.4217300293349,-56.623732585386804 L-182.42751976936708,-56.49456525590131 L-182.435610930599,-56.367136161768244 L-182.44598906922968,-56.241672780901794 L-182.4586356588986,-56.11839908215599 L-182.47352812375797,-55.99753512551047 L-182.49063987877344,-55.87929666923411 L-182.50994037718203,-55.76389478472776 L-182.53139516502205,-55.65153547973367 L-182.5549659426382,-55.54241933058418 L-182.5806106330514,-55.43674112414629 L-182.60828345707188,-55.33468951010111 L-182.63793501502104,-55.236446664179056 L-182.66951237491662,-55.14218796295188 L-182.70295916696327,-55.052081670762156 L-182.73821568418,-54.96628863934894 L-182.7752189889854,-54.88496202070605 L-182.81390302554928,-54.8082469936853 L-182.85419873771139,-54.736280504832926 L-182.89603419225574,-54.669191023921755 L-182.93933470732097,-54.607098314615506 L-182.98402298571753,-54.55011322067474 L-183.03001925291332,-54.49833746808595 L-183.07724139944196,-54.45186348346711 L-183.1256051274791,-54.41077422907386 L-183.17502410132528,-54.37514305470083 L-183.22541010152662,-54.34503356674246 L-183.27667318235834,-54.32049951464714 L-183.32872183238987,-54.30158469496725 L-183.38146313784497,-54.2883228731765 L-183.43480294846506,-54.28073772339404 " />
			<path d="M-183.43480294846506,-54.28073772339404 L-183.46958196191017,-54.27886159259255 L-183.50454561857816,-54.279368223407786 L-183.5396677978145,-54.282257237345924 L-183.57492226053554,-54.28752647608193 L-183.61028266883125,-54.29517200307205 L-183.6457226056418,-54.30518810649465 L-183.6812155944931,-54.3175673035175 L-183.71673511927705,-54.332300345887965 " />
			<path d="M-2213.546021146152,122.76242729422525 L-2213.5471811642055,122.89437666036382 L-2213.5506591475805,123.02505164430588 L-2213.5564488876125,123.15421897379137 L-2213.5645400488447,123.28164806792444 L-2213.5749181874753,123.40711144879089 L-2213.587564777144,123.53038514753669 L-2213.6024572420038,123.65124910418221 L-2213.619568997019,123.76948756045857 L-2213.6388694954276,123.88488944496493 L-2213.6603242832675,123.99724874995901 L-2213.683895060884,124.1063648991085 L-2213.709539751297,124.2120431055464 L-2213.7372125753177,124.31409471959158 L-2213.7668641332666,124.41233756551362 L-2213.798441493162,124.5065962667408 L-2213.831888285209,124.59670255893053 L-2213.8671448024256,124.68249559034373 L-2213.904148107231,124.76382220898662 L-2213.942832143795,124.84053723600738 L-2213.983127855957,124.91250372485975 L-2214.0249633105013,124.97959320577093 L-2214.0682638255666,125.04168591507718 L-2214.1129521039634,125.09867100901793 L-2214.158948371159,125.15044676160673 L-2214.2061705176875,125.19692074622557 L-2214.2545342457247,125.23801000061883 L-2214.3039532195708,125.27364117499185 L-2214.354339219772,125.30375066295022 L-2214.4056023006037,125.32828471504554 L-2214.4576509506355,125.34719953472543 L-2214.5103922560907,125.36046135651618 L-2214.5637320667106,125.36804650629864 " />
			<path d="M-2214.5637320667106,125.36804650629864 L-2214.5985110801557,125.36992263710013 L-2214.6334747368237,125.3694160062849 L-2214.6685969160603,125.36652699234676 L-2214.703851378781,125.36125775361074 L-2214.739211787077,125.35361222662064 L-2214.7746517238875,125.34359612319803 L-2214.8101447127387,125.33121692617519 L-2214.8456642375227,125.31648388380472 " />
			<path d="M-183.71673511927705,-54.33230034588796 L-196.550710646566,-60.078927672441765 " />
			<path d="M-2214.8456642375227,125.31648388380472 L-2227.679639764812,119.56985655725092 " />
			<path d="M-196.550710646566,-60.078927672441786 L-196.61448111051527,-60.111259406463745 L-196.67809794583124,-60.151068133610615 L-196.7414078939855,-60.19825795117187 L-196.8042584357676,-60.25271517474366 L-196.86649815871735,-60.31430861210452 L-196.92797712189062,-60.38288987926889 L-196.9885472170802,-60.458293757957165 L-197.04806252562142,-60.54033859362098 L-197.10637966992314,-60.628826733064955 L-197.16335815887675,-60.72354500061051 L-197.2188607263116,-60.8242652116548 L-197.27275366168132,-60.93074472238735 L-197.3249071321841,-61.04272701434033 L-197.37519549554145,-61.15994231236392 L-197.42349760268127,-61.28210823453833 L-197.4696970895967,-61.40893047245657 L-197.51368265767715,-61.54010350023919 L-197.55534834183646,-61.67531131057285 L-197.59459376579198,-61.814228175999666 L-197.63132438387996,-61.95651943362313 L-197.66545170882412,-62.10184229134038 L-197.69689352490954,-62.249846653658416 L-197.72557408604726,-62.40017596510475 L-197.75142429825337,-62.55246806920082 L-197.7743818861025,-62.70635608092864 L-197.79439154275462,-62.86146927058896 L-197.81140506319426,-63.017433956921586 L-197.82538146036046,-63.17387440733624 L-197.83628706388822,-63.330413743085316 L-197.84409560122347,-63.48667484719777 L-197.84878826091582,-63.64228127298692 L-197.850353737937,-63.79685815094354 " />
			<path d="M-2227.679639764812,119.5698565572509 L-2227.743410228761,119.53752482322894 L-2227.807027064077,119.49771609608206 L-2227.870337012231,119.45052627852081 L-2227.9331875540133,119.39606905494901 L-2227.9954272769633,119.33447561758815 L-2228.0569062401364,119.26589435042379 L-2228.117476335326,119.19049047173552 L-2228.176991643867,119.10844563607169 L-2228.235308788169,119.01995749662773 L-2228.2922872771223,118.92523922908217 L-2228.3477898445576,118.82451901803789 L-2228.401682779927,118.71803950730532 L-2228.45383625043,118.60605721535235 L-2228.504124613787,118.48884191732877 L-2228.552426720927,118.36667599515435 L-2228.5986262078427,118.2398537572361 L-2228.642611775923,118.1086807294535 L-2228.6842774600823,117.97347291911983 L-2228.7235228840377,117.83455605369302 L-2228.7602535021256,117.69226479606955 L-2228.7943808270697,117.54694193835229 L-2228.8258226431553,117.39893757603426 L-2228.854503204293,117.24860826458793 L-2228.880353416499,117.09631616049187 L-2228.9033110043483,116.94242814876404 L-2228.9233206610006,116.78731495910371 L-2228.94033418144,116.63135027277109 L-2228.954310578606,116.47490982235644 L-2228.965216182134,116.31837048660736 L-2228.9730247194693,116.16210938249492 L-2228.9777173791617,116.00650295670576 L-2228.9792828561826,115.85192607874914 " />
			<path d="M-197.850353737937,-63.79685815094353 L-197.850353737937,-144.74469124836693 " />
			<path d="M-2228.9792828561826,115.85192607874916 L-2228.9792828561826,34.90409298132574 " />
			<path d="M-197.850353737937,-144.74469124836696 L-197.8470939923425,-144.96520326956184 L-197.83733110765039,-145.18168990948396 L-197.82111405810687,-145.39306519095172 L-197.79852419443998,-145.5982687772509 L-197.76967483577405,-145.79627129117654 L-197.73471070117924,-145.9860794787703 L-197.6938071837068,-146.16674119185026 L-197.67119114070124,-146.2533569940441 L-197.64716947055283,-146.33735016433886 L-197.62177230811145,-146.41861533447454 L-197.59503151376302,-146.49705055842932 L-197.56698063346084,-146.57255744030937 L-197.53765485664277,-146.6450412577851 L-197.50709097208662,-146.71441108091906 L-197.47532732175895,-146.78057988623624 L-197.44240375271588,-146.84346466589375 L-197.40836156711526,-146.90298653181316 L-197.37324347040388,-146.95907081464432 L-197.33709351774397,-147.0116471574371 L-197.2999570587466,-147.06064960390322 L-197.26188068058136,-147.1060166811574 L-197.2229121495333,-147.1476914768344 L-197.18310035108072,-147.18562171048464 L-197.14249522856926,-147.21975979915933 L-197.10114772055837,-147.25006291710267 " />
			<path d="M-2228.9792828561826,34.90409298132573 L-2228.9756417597814,34.67114398191724 L-2228.9647388724593,34.442760971890976 L-2228.946635285549,34.220223632663355 L-2228.9214324375225,34.00477889104139 L-2228.9062113872483,33.90009522881231 L-2228.889271545612,33.79763393241109 L-2228.8706366503643,33.69753858056402 L-2228.850332814533,33.59994943660598 L-2228.8283884898256,33.50500325192977 L-2228.804834426762,33.41283307435678 L-2228.779703631586,33.32356806169748 L-2228.7530313200086,33.23733330076289 " />
			<path d="M-347.4717646320271,-130.79234888203285 L-347.4717646320271,-134.0266190376716 " />
			<path d="M-2378.600693750273,48.856435347659804 L-2378.600693750273,-32.09139774976361 " />
			<path d="M-2378.8685220491757,-34.11806936632434 L-2378.8371134372096,-34.00074334131754 L-2378.807478609829,-33.881202789253834 L-2378.779667007066,-33.75964714064585 L-2378.7537250272535,-33.63627918780879 L-2378.729695949615,-33.51130474654029 L-2378.707619862063,-33.38493231275624 L-2378.687533594322,-33.25737271465522 L-2378.6694706564813,-33.128838760992075 L-2378.6534611830925,-32.99954488604727 L-2378.6395318828963,-32.86970679188437 L-2378.627705994261,-32.73954108849242 L-2378.6180032464163,-32.609264932413765 L-2378.6104398265393,-32.479095664459855 L-2378.6050283527466,-32.349250447119786 L-2378.601777853046,-32.2199459022663 L-2378.600693750273,-32.09139774976367 " />
			<path d="M-347.47176463202715,-130.79234888203288 L-347.47292465008104,-130.6603995158943 L-347.476402633456,-130.52972453195227 L-347.4821923734882,-130.40055720246676 L-347.49028353472016,-130.2731281083337 L-347.5006616733508,-130.14766472746726 L-347.5133082630197,-130.02439102872145 L-347.5282007278791,-129.90352707207592 L-347.5453124828946,-129.78528861579954 L-347.5646129813031,-129.66988673129322 L-347.5860677691432,-129.55752742629912 L-347.60963854675936,-129.44841127714963 L-347.63528323717253,-129.34273307071174 L-347.662956061193,-129.24068145666655 L-347.69260761914217,-129.1424386107445 L-347.7241849790378,-129.04817990951733 L-347.7576317710844,-128.9580736173276 L-347.7928882883011,-128.87228058591438 L-347.8298915931065,-128.7909539672715 L-347.8685756296704,-128.71423894025074 L-347.9088713418325,-128.64227245139838 L-347.95070679637683,-128.5751829704872 L-347.9940073114421,-128.51309026118096 L-348.03869558983865,-128.4561051672402 L-348.08469185703444,-128.4043294146514 L-348.1319140035631,-128.35785543003254 L-348.18027773160026,-128.31676617563932 L-348.2296967054464,-128.28113500126628 L-348.2800827056477,-128.25102551330792 L-348.33134578647946,-128.2264914612126 L-348.383394436511,-128.2075766415327 L-348.4361357419661,-128.19431481974195 L-348.4894755525862,-128.1867296699595 " />
			<path d="M-348.4894755525862,-128.1867296699595 L-348.5242545660313,-128.18485353915798 L-348.55921822269926,-128.18536016997322 L-348.5943404019356,-128.18824918391138 L-348.62959486465667,-128.19351842264737 L-348.6649552729524,-128.2011639496375 L-348.7003952097629,-128.2111800530601 L-348.73588819861425,-128.22355925008296 L-348.77140772339817,-128.23829229245342 " />
			<path d="M-2378.600693750273,48.85643534765978 L-2378.6018537683267,48.98838471379836 L-2378.6053317517017,49.11905969774041 L-2378.6111214917337,49.24822702722591 L-2378.619212652966,49.37565612135897 L-2378.6295907915965,49.50111950222542 L-2378.642237381265,49.62439320097123 L-2378.657129846125,49.74525715761675 L-2378.6742416011402,49.86349561389311 L-2378.6935420995487,49.978897498399455 L-2378.7149968873887,50.09125680339355 L-2378.738567665005,50.200372952543034 L-2378.7642123554183,50.30605115898093 L-2378.791885179439,50.40810277302611 L-2378.8215367373878,50.50634561894816 L-2378.853114097283,50.600604320175336 L-2378.88656088933,50.69071061236506 L-2378.921817406547,50.77650364377828 L-2378.958820711352,50.85783026242117 L-2378.997504747916,50.934545289441914 L-2379.037800460078,51.00651177829429 L-2379.0796359146225,51.07360125920546 L-2379.122936429688,51.13569396851171 L-2379.1676247080845,51.19267906245248 L-2379.2136209752803,51.244454815041266 L-2379.2608431218086,51.29092879966011 L-2379.309206849846,51.33201805405336 L-2379.358625823692,51.36764922842639 L-2379.4090118238933,51.39775871638476 L-2379.460274904725,51.42229276848008 L-2379.5123235547567,51.44120758815997 L-2379.565064860212,51.45446940995072 L-2379.6184046708318,51.462054559733176 " />
			<path d="M-2379.6184046708318,51.462054559733176 L-2379.653183684277,51.46393069053467 L-2379.688147340945,51.46342405971943 L-2379.7232695201815,51.46053504578129 L-2379.7585239829023,51.455265807045286 L-2379.793884391198,51.44762028005517 L-2379.8293243280086,51.43760417663257 L-2379.86481731686,51.425224979609716 L-2379.900336841644,51.41049193723925 " />
			<path d="M-348.7714077233981,-128.2382922924534 L-361.6053832506871,-133.98491961900723 " />
			<path d="M-2379.900336841644,51.41049193723926 L-2392.734312368933,45.66386461068545 " />
			<path d="M-361.60538325068705,-133.9849196190072 L-361.6691537146363,-134.01725135302914 L-361.7327705499523,-134.05706008017603 L-361.79608049810656,-134.10424989773728 L-361.85893103988866,-134.15870712130908 L-361.9211707628384,-134.22030055866992 L-361.9826497260117,-134.2888818258343 L-362.04321982120126,-134.36428570452256 L-362.1027351297425,-134.44633054018638 L-362.1610522740442,-134.53481867963035 L-362.2180307629978,-134.62953694717592 L-362.27353333043266,-134.7302571582202 L-362.3274262658024,-134.83673666895277 L-362.3795797363052,-134.94871896090575 L-362.42986809966254,-135.06593425892933 L-362.47817020680236,-135.18810018110372 L-362.52436969371774,-135.31492241902197 L-362.5683552617982,-135.4460954468046 L-362.6100209459575,-135.58130325713827 L-362.64926636991305,-135.72022012256508 L-362.685996988001,-135.86251138018852 L-362.7201243129452,-136.0078342379058 L-362.7515661290306,-136.15583860022383 L-362.7802466901683,-136.30616791167017 L-362.80609690237446,-136.45846001576624 L-362.82905449022354,-136.61234802749405 L-362.8490641468757,-136.76746121715436 L-362.8660776673153,-136.923425903487 L-362.8800540644815,-137.07986635390165 L-362.8909596680093,-137.23640568965072 L-362.89876820534454,-137.39266679376317 L-362.9034608650369,-137.54827321955233 L-362.9050263420581,-137.70285009750896 " />
			<path d="M-2392.734312368933,45.66386461068547 L-2392.7980828328823,45.63153287666351 L-2392.861699668198,45.591724149516644 L-2392.9250096163523,45.54453433195539 L-2392.9878601581345,45.490077108383595 L-2393.0500998810844,45.42848367102274 L-2393.1115788442576,45.35990240385837 L-2393.172148939447,45.28449852517009 L-2393.231664247988,45.20245368950628 L-2393.28998139229,45.113965550062304 L-2393.3469598812435,45.01924728251675 L-2393.4024624486788,44.91852707147246 L-2393.456355384048,44.812047560739906 L-2393.508508854551,44.70006526878693 L-2393.5587972179082,44.58284997076334 L-2393.6070993250482,44.46068404858893 L-2393.653298811964,44.33386181067069 L-2393.697284380044,44.20268878288807 L-2393.7389500642034,44.06748097255441 L-2393.778195488159,43.92856410712759 L-2393.8149261062467,43.78627284950413 L-2393.849053431191,43.640949991786876 L-2393.8804952472765,43.49294562946884 L-2393.909175808414,43.34261631802251 L-2393.93502602062,43.19032421392644 L-2393.9579836084695,43.036436202198615 L-2393.9779932651218,42.881323012538296 L-2393.995006785561,42.72535832620567 L-2394.008983182727,42.568917875791016 L-2394.0198887862553,42.41237854004194 L-2394.0276973235905,42.25611743592949 L-2394.032389983283,42.10051101014034 L-2394.033955460304,41.945934132183716 " />
			<path d="M-362.90502634205814,-137.70285009750896 L-362.90502634205814,-218.65068319493238 " />
			<path d="M-2394.033955460304,41.9459341321837 L-2394.033955460304,-39.00189896523971 " />
			<path d="M-362.9050263420581,-218.65068319493238 L-362.9017665964636,-218.87119521612723 L-362.89200371177145,-219.0876818560494 L-362.87578666222794,-219.2990571375171 L-362.85319679856104,-219.5042607238163 L-362.8243474398951,-219.70226323774193 L-362.7893833053003,-219.8920714253357 L-362.7484797878279,-220.07273313841566 L-362.72586374482233,-220.1593489406095 L-362.7018420746739,-220.24334211090422 L-362.6764449122325,-220.3246072810399 L-362.6497041178841,-220.4030425049947 L-362.62165323758194,-220.47854938687473 L-362.59232746076384,-220.55103320435046 L-362.5617635762077,-220.62040302748443 L-362.52999992588,-220.6865718328016 L-362.49707635683694,-220.74945661245914 L-362.46303417123636,-220.80897847837855 L-362.427916074525,-220.86506276120969 L-362.39176612186503,-220.91763910400246 L-362.3546296628677,-220.96664155046858 L-362.3165532847025,-221.0120086277228 L-362.27758475365437,-221.0536834233998 L-362.2377729552018,-221.09161365705003 L-362.19716783269035,-221.12575174572473 L-362.1558203246795,-221.15605486366806 " />
			<path d="M-2394.033955460304,-39.00189896523972 L-2394.032852910221,-39.130552523288955 L-2394.0295471306663,-39.25800042476603 L-2394.0240437305447,-39.38402642923503 L-2394.0163520474566,-39.508416708788005 L-2394.006485131856,-39.63096021084611 L-2393.9944597249064,-39.75144901625183 L-2393.980296230076,-39.86967869204469 L-2393.96401867852,-39.985448638322005 L-2393.9456546883066,-40.098562428596104 L-2393.925235417558,-40.20882814307047 L-2393.902795511583,-40.31605869426945 L-2393.8783730440973,-40.420072144468946 L-2393.8520094526207,-40.52069201438957 L-2393.8237494681725,-40.61774758262844 L-2393.793641039376,-40.711074175321635 L-2393.7617352511024,-40.80051344554579 " />
			<path d="M-512.5264372361481,-204.6983408285983 L-512.5264372361481,-207.932610984237 " />
			<path d="M-2543.6553663543937,-25.049556598905646 L-2543.6553663543937,-105.99738969632907 " />
			<path d="M-2543.974833586289,-108.19971172343185 L-2543.937617857038,-108.07512379603664 L-2543.9024413342677,-107.94753777106813 L-2543.8693745239607,-107.81720937528078 L-2543.838483703502,-107.6843998320937 L-2543.8098307888354,-107.549375338008 L-2543.7834732103647,-107.41240652905655 L-2543.7594637978423,-107.27376793835522 L-2543.737850674477,-107.13373744584304 L-2543.7186771604847,-106.99259572131429 L-2543.701981686252,-106.8506256618585 L-2543.687797715316,-106.70811182483646 L-2543.676153677284,-106.56533985752823 L-2543.667072910858,-106.42259592459672 L-2543.6605736170513,-106.28016613451422 L-2543.656668822708,-106.1383359661015 L-2543.655366354394,-105.99738969632907 " />
			<path d="M-512.5264372361481,-204.69834082859833 L-512.5275972542021,-204.56639146245976 L-512.531075237577,-204.43571647851772 L-512.5368649776093,-204.3065491490322 L-512.5449561388411,-204.17912005489916 L-512.5553342774718,-204.0536566740327 L-512.5679808671408,-203.9303829752869 L-512.5828733320001,-203.80951901864137 L-512.5999850870156,-203.691280562365 L-512.6192855854242,-203.57587867785867 L-512.6407403732642,-203.46351937286457 L-512.6643111508804,-203.35440322371508 L-512.6899558412936,-203.2487250172772 L-512.717628665314,-203.146673403232 L-512.7472802232631,-203.04843055730996 L-512.7788575831588,-202.95417185608278 L-512.8123043752054,-202.86406556389306 L-512.8475608924222,-202.77827253247983 L-512.8845641972275,-202.69694591383694 L-512.9232482337915,-202.6202308868162 L-512.9635439459536,-202.54826439796383 L-513.0053794004979,-202.48117491705264 L-513.0486799155632,-202.4190822077464 L-513.0933681939597,-202.36209711380565 L-513.1393644611555,-202.31032136121684 L-513.1865866076841,-202.263847376598 L-513.2349503357212,-202.22275812220477 L-513.2843693095674,-202.18712694783173 L-513.3347553097688,-202.15701745987337 L-513.3860183906005,-202.13248340777804 L-513.4380670406321,-202.11356858809816 L-513.4908083460871,-202.1003067663074 L-513.5441481567073,-202.09272161652495 " />
			<path d="M-513.5441481567073,-202.09272161652495 L-513.5789271701523,-202.09084548572343 L-513.6138908268204,-202.09135211653867 L-513.6490130060566,-202.09424113047683 L-513.6842674687776,-202.09951036921282 L-513.7196278770734,-202.10715589620295 L-513.7550678138839,-202.11717199962555 L-513.7905608027353,-202.1295511966484 L-513.8260803275192,-202.14428423901887 " />
			<path d="M-2543.655366354394,-25.04955659890567 L-2543.656526372448,-24.91760723276709 L-2543.660004355823,-24.78693224882504 L-2543.665794095855,-24.657764919339538 L-2543.673885257087,-24.530335825206482 L-2543.6842633957176,-24.404872444340032 L-2543.6969099853864,-24.281598745594223 L-2543.711802450246,-24.160734788948698 L-2543.7289142052614,-24.042496332672343 L-2543.74821470367,-23.927094448165995 L-2543.76966949151,-23.814735143171898 L-2543.7932402691263,-23.705618994022412 L-2543.8188849595394,-23.599940787584522 L-2543.84655778356,-23.49788917353934 L-2543.876209341509,-23.399646327617287 L-2543.9077867014043,-23.305387626390115 L-2543.9412334934514,-23.215281334200387 L-2543.976490010668,-23.129488302787173 L-2544.013493315473,-23.048161684144283 L-2544.0521773520372,-22.971446657123536 L-2544.092473064199,-22.899480168271165 L-2544.1343085187436,-22.832390687359986 L-2544.177609033809,-22.77029797805374 L-2544.2222973122057,-22.713312884112977 L-2544.2682935794014,-22.66153713152418 L-2544.31551572593,-22.61506314690534 L-2544.363879453967,-22.57397389251209 L-2544.413298427813,-22.53834271813906 L-2544.4636844280144,-22.508233230180693 L-2544.514947508846,-22.483699178085374 L-2544.566996158878,-22.464784358405485 L-2544.619737464333,-22.451522536614732 L-2544.673077274953,-22.443937386832275 " />
			<path d="M-2544.673077274953,-22.443937386832275 L-2544.707856288398,-22.44206125603078 L-2544.742819945066,-22.442567886846017 L-2544.7779421243026,-22.445456900784155 L-2544.8131965870234,-22.450726139520167 L-2544.848556995319,-22.458371666510278 L-2544.88399693213,-22.468387769932882 L-2544.919489920981,-22.48076696695573 L-2544.955009445765,-22.4955000093262 " />
			<path d="M-513.8260803275192,-202.14428423901882 L-526.6600558548081,-207.89091156557265 " />
			<path d="M-2544.955009445765,-22.49550000932616 L-2557.788984973054,-28.242127335879974 " />
			<path d="M-526.6600558548081,-207.89091156557265 L-526.7238263187573,-207.9232432995946 L-526.7874431540733,-207.96305202674148 L-526.8507531022276,-208.01024184430273 L-526.9136036440098,-208.06469906787453 L-526.9758433669595,-208.12629250523537 L-527.0373223301327,-208.19487377239975 L-527.0978924253222,-208.270277651088 L-527.1574077338636,-208.35232248675183 L-527.2157248781652,-208.4408106261958 L-527.2727033671189,-208.53552889374137 L-527.3282059345537,-208.63624910478566 L-527.3820988699234,-208.74272861551822 L-527.4342523404263,-208.8547109074712 L-527.4845407037835,-208.97192620549478 L-527.5328428109234,-209.09409212766917 L-527.5790422978388,-209.22091436558742 L-527.6230278659193,-209.35208739337006 L-527.6646935500786,-209.48729520370372 L-527.7039389740341,-209.62621206913053 L-527.740669592122,-209.76850332675397 L-527.7747969170662,-209.91382618447125 L-527.8062387331516,-210.06183054678928 L-527.8349192942893,-210.21215985823562 L-527.8607695064954,-210.36445196233169 L-527.8837270943446,-210.5183399740595 L-527.9037367509967,-210.6734531637198 L-527.9207502714364,-210.82941785005244 L-527.9347266686026,-210.9858583004671 L-527.9456322721303,-211.14239763621617 L-527.9534408094656,-211.29865874032862 L-527.9581334691579,-211.45426516611778 L-527.9596989461792,-211.6088420440744 " />
			<path d="M-2557.7889849730536,-28.242127335879978 L-2557.852755437003,-28.274459069901937 L-2557.9163722723188,-28.31426779704881 L-2557.979682220473,-28.361457614610064 L-2558.042532762255,-28.415914838181855 L-2558.104772485205,-28.47750827554271 L-2558.1662514483783,-28.54608954270708 L-2558.226821543568,-28.621493421395353 L-2558.286336852109,-28.703538257059172 L-2558.3446539964107,-28.792026396503147 L-2558.401632485364,-28.886744664048702 L-2558.4571350527995,-28.98746487509299 L-2558.5110279881687,-29.093944385825548 L-2558.563181458672,-29.20592667777852 L-2558.613469822029,-29.32314197580211 L-2558.661771929169,-29.445307897976516 L-2558.7079714160845,-29.572130135894763 L-2558.7519569841647,-29.703303163677383 L-2558.793622668324,-29.838510974011044 L-2558.8328680922796,-29.977427839437855 L-2558.8695987103674,-30.119719097061317 L-2558.9037260353116,-30.265041954778578 L-2558.935167851397,-30.413046317096608 L-2558.963848412535,-30.563375628542943 L-2558.989698624741,-30.715667732639012 L-2559.01265621259,-30.86955574436683 L-2559.0326658692425,-31.024668934027158 L-2559.049679389682,-31.18063362035978 L-2559.063655786848,-31.337074070774438 L-2559.074561390376,-31.49361340652351 L-2559.082369927711,-31.649874510635957 L-2559.0870625874036,-31.805480936425113 L-2559.0886280644245,-31.96005781438173 " />
			<path d="M-527.9596989461792,-211.60884204407438 L-527.9596989461792,-292.5566751414978 " />
			<path d="M-2559.088628064425,-31.96005781438172 L-2559.088628064425,-112.90789091180514 " />
			<path d="M-527.9596989461792,-292.5566751414978 L-527.9564392005846,-292.7771871626927 L-527.9466763158925,-292.99367380261486 L-527.930459266349,-293.2050490840826 L-527.9078694026821,-293.41025267038174 L-527.8790200440162,-293.60825518430744 L-527.8440559094213,-293.7980633719012 L-527.8031523919489,-293.97872508498114 L-527.7805363489433,-294.065340887175 L-527.7565146787949,-294.14933405746973 L-527.7311175163536,-294.2305992276054 L-527.7043767220051,-294.3090344515602 L-527.6763258417029,-294.3845413334402 L-527.6470000648849,-294.45702515091597 L-527.6164361803287,-294.52639497404994 L-527.5846725300011,-294.5925637793671 L-527.551748960958,-294.65544855902465 L-527.5177067753574,-294.71497042494406 L-527.482588678646,-294.7710547077752 L-527.446438725986,-294.823631050568 L-527.4093022669887,-294.8726334970341 L-527.3712258888235,-294.91800057428827 L-527.3322573577753,-294.9596753699653 L-527.2924455593228,-294.9976056036155 L-527.2518404368113,-295.0317436922902 L-527.2104929288005,-295.06204681023354 " />
			<path d="M-2559.0886280644245,-112.90789091180517 L-2559.0873044557493,-113.04879526719807 L-2559.0833363257566,-113.1882272814204 L-2559.076731757051,-113.32590294815559 L-2559.067504202349,-113.46154183855657 L-2559.0556724570743,-113.5948676724458 L-2559.0412606210753,-113.72560888106487 L-2559.0242980495354,-113.8534991602275 L-2559.004819293183,-113.9782780127494 L-2558.982864027911,-114.09969127904971 L-2558.9584769739668,-114.21749165484371 L-2558.9317078048584,-114.331439194872 L-2558.9026110461778,-114.44130180164032 L-2558.8712459645385,-114.54685569817423 L-2558.8376764468558,-114.64788588382615 L-2558.8019708702172,-114.74418657220586 L-2558.764201962607,-114.8355616103427 " />
			<path d="M-682.7796400531853,-280.93206312705945 L-682.7796400531778,-281.3788046289114 " />
			<path d="M-2713.908431795569,-101.28321738503811 L-2713.9084317942093,-182.23105048185275 " />
			<path d="M-2714.288728422505,-184.61794751489884 L-2714.2447823248813,-184.48680751942788 L-2714.2031545691398,-184.35163916779385 L-2714.1639453401353,-184.21276776750847 L-2714.1272490020924,-184.07052753815148 L-2714.0931538715017,-183.92526080700978 L-2714.0617420045687,-183.77731718520366 L-2714.033088999732,-183.6270527262834 L-2714.0072638157203,-183.47482906932092 L-2713.984328605591,-183.32101256855876 L-2713.964338567148,-183.1659734117111 L-2713.947341810097,-183.01008472903905 L-2713.933379240262,-182.85372169534395 L-2713.922484461137,-182.69726062704012 L-2713.914683693012,-182.54107807648026 L-2713.9099957098715,-182.38554992571284 L-2713.9084317942097,-182.23105048185278 " />
			<path d="M-682.7796400531852,-280.9320631270595 L-682.780800071614,-280.80011376228225 L-682.7842780561081,-280.66943877960193 L-682.7900677980022,-280.54027145127145 L-682.7981589618355,-280.41284235817966 L-682.8085371038027,-280.28737897823413 L-682.8211836975378,-280.16410528028246 L-682.8360761671862,-280.04324132429815 L-682.8531879277054,-279.92500286854437 L-682.8724884323235,-279.80960098441653 L-682.8939432270685,-279.6972416796518 L-682.9175140122732,-279.58812553057794 L-682.9431587109462,-279.48244732405755 L-682.9708315438838,-279.380395709768 L-683.0004831113927,-279.2821528634362 L-683.0320604814746,-279.18789416163094 L-683.0655072843169,-279.0977878686922 L-683.1007638129212,-279.011994836357 L-683.1377671296865,-278.9306682166176 L-683.176451178763,-278.8539531883246 L-683.2167469039696,-278.7819866980236 L-683.2585823720683,-278.7148972154874 L-683.3018829011754,-278.6528045043799 L-683.3465711940778,-278.59581940846266 L-683.3925674762191,-278.5440436537235 L-683.4397896381082,-278.4975696667822 L-683.488153381895,-278.4564804098969 L-683.5375723718538,-278.4208492328651 L-683.5879583885037,-278.3907397420846 L-683.6392214860927,-278.3662056870076 L-683.691270153162,-278.34729086419105 L-683.7440114759072,-278.33402903911343 L-683.7973513040406,-278.32644388589927 " />
			<path d="M-683.7973513040406,-278.32644388589927 L-683.8321303315813,-278.32456775275114 L-683.8670940024444,-278.325074381527 L-683.9022161959613,-278.3279633937343 L-683.9374706730341,-278.3332326310492 L-683.9728310957387,-278.3408781569284 L-684.0082710470009,-278.3508942595504 L-684.0437640503325,-278.3632734560825 L-684.0792835896109,-278.3780064982713 " />
			<path d="M-2713.9084317955694,-101.28321738503813 L-2713.909591813998,-101.15126802026083 L-2713.9130697984924,-101.02059303758054 L-2713.918859540386,-100.89142570925004 L-2713.9269507042195,-100.76399661615828 L-2713.937328846187,-100.63853323621275 L-2713.949975439922,-100.51525953826105 L-2713.9648679095703,-100.39439558227676 L-2713.9819796700895,-100.27615712652297 L-2714.0012801747075,-100.16075524239514 L-2714.0227349694524,-100.04839593763042 L-2714.046305754657,-99.93927978855653 L-2714.0719504533304,-99.83360158203618 L-2714.099623286268,-99.7315499677466 L-2714.1292748537767,-99.6333071214148 L-2714.1608522238585,-99.53904841960954 L-2714.194299026701,-99.44894212667081 L-2714.229555555305,-99.36314909433564 L-2714.2665588720706,-99.28182247459621 L-2714.305242921147,-99.20510744630322 L-2714.345538646354,-99.13314095600225 L-2714.3873741144525,-99.06605147346599 L-2714.4306746435595,-99.00395876235854 L-2714.475362936462,-98.94697366644128 L-2714.5213592186033,-98.89519791170211 L-2714.5685813804926,-98.84872392476086 L-2714.616945124279,-98.80763466787556 L-2714.6663641142377,-98.77200349084372 L-2714.7167501308877,-98.74189400006318 L-2714.768013228477,-98.71735994498624 L-2714.820061895546,-98.69844512216964 L-2714.872803218291,-98.68518329709201 L-2714.926143046425,-98.67759814387786 " />
			<path d="M-2714.926143046425,-98.67759814387786 L-2714.9609220739653,-98.67572201072974 L-2714.9958857448287,-98.67622863950555 L-2715.0310079383453,-98.67911765171291 L-2715.0662624154184,-98.6843868890278 L-2715.1016228381227,-98.692032414907 L-2715.137062789385,-98.70204851752898 L-2715.1725557927166,-98.7144277140611 L-2715.208075331995,-98.7291607562499 " />
			<path d="M-684.079283589611,-278.3780064982713 L-696.913263511295,-284.12463343740575 " />
			<path d="M-2715.208075331995,-98.72916075624993 L-2728.042055253679,-104.4757876953844 " />
			<path d="M-696.9132635112949,-284.12463343740575 L-696.9770339970793,-284.15696516950266 L-697.0406508541778,-284.196773894729 L-697.1039608240092,-284.243963710379 L-697.1668113873111,-284.2984209320533 L-697.2290511315714,-284.3600143675351 L-697.2905301157946,-284.42859563284327 L-697.3511002317227,-284.50399950970274 L-697.4106155606412,-284.5860443435696 L-697.4689327249099,-284.67453248125264 L-697.525911233372,-284.7692507470777 L-697.5814138198098,-284.8699709564459 L-697.6353067736312,-284.976450465551 L-697.68746026199,-285.088432755929 L-697.7377486425647,-285.2056480524338 L-697.7860507662416,-285.3278139731493 L-697.8322502689741,-285.4546362096722 L-697.8762358521135,-285.5858092361261 L-697.9179015505373,-285.72101704520117 L-697.9571469879286,-285.85993390944236 L-697.9938776185911,-286.0022251659561 L-698.0280049552184,-286.1475480226422 L-698.0594467820673,-286.2955523840101 L-698.0881273530231,-286.4458816945896 L-698.113977574078,-286.5981737979043 L-698.1369351697855,-286.752061808938 L-698.1569448332865,-286.9071749979932 L-698.1739583595491,-287.0631396838111 L-698.1879347614984,-287.2195801338027 L-698.1988403687577,-287.37611946922146 L-698.2066489087641,-287.53238057309704 L-698.2113415700607,-287.6879869987434 L-698.2129070476153,-287.8425638766516 " />
			<path d="M-2728.0420552536793,-104.47578769538437 L-2728.105825739464,-104.50811942748126 L-2728.169442596562,-104.54792815270764 L-2728.2327525663936,-104.59511796835763 L-2728.2956031296953,-104.64957519003195 L-2728.3578428739556,-104.71116862551372 L-2728.419321858179,-104.77974989082192 L-2728.479891974107,-104.85515376768139 L-2728.5394073030257,-104.9371986015482 L-2728.597724467294,-105.02568673923129 L-2728.654702975756,-105.12040500505631 L-2728.710205562194,-105.22112521442457 L-2728.7640985160156,-105.32760472352965 L-2728.8162520043743,-105.4395870139076 L-2728.866540384949,-105.55680231041242 L-2728.914842508626,-105.67896823112797 L-2728.9610420113586,-105.8057904676508 L-2729.0050275944977,-105.93696349410479 L-2729.0466932929216,-106.07217130317981 L-2729.085938730313,-106.21108816742101 L-2729.1226693609756,-106.35337942393474 L-2729.1567966976027,-106.49870228062082 L-2729.1882385244517,-106.6467066419887 L-2729.2169190954073,-106.79703595256822 L-2729.2427693164623,-106.94932805588289 L-2729.26572691217,-107.10321606691662 L-2729.285736575671,-107.2583292559718 L-2729.3027501019337,-107.41429394178972 L-2729.316726503883,-107.57073439178134 L-2729.327632111142,-107.72727372720007 L-2729.3354406511485,-107.88353483107565 L-2729.340133312445,-108.039141256722 L-2729.3416987899996,-108.1937181346302 " />
			<path d="M-698.2129070476153,-287.8425638766516 L-698.2129070462556,-368.7903969734662 " />
			<path d="M-2729.3416987899996,-108.19371813463013 L-2729.34169878864,-189.14155123144477 " />
			<path d="M-698.2129070462557,-368.7903969734662 L-698.2096472997065,-369.01090898921547 L-698.1998844121616,-369.2273956241201 L-698.1836673578792,-369.43877090107856 L-698.1610774876069,-369.6439744834531 L-698.1322281204964,-369.84197699411055 L-698.0972639756529,-370.03178517915933 L-698.0563604461702,-370.2124468904785 L-698.0337443965143,-370.29906269210335 L-698.0097227192942,-370.3830558620452 L-697.9843255493676,-370.4643210320498 L-697.9575847471277,-370.5427562561007 L-697.9295338585363,-370.61826313830886 L-697.9002080730398,-370.6907469563492 L-697.8696441794251,-370.76011678028806 L-697.837880519668,-370.82628558665385 L-697.8049569408347,-370.88917036760665 L-697.770914745093,-370.9486922350703 L-697.7357966379003,-371.0047765196966 L-697.6996466744299,-371.05735286453665 L-697.6625102043039,-371.10635531330297 L-697.6244338147037,-371.15172239311056 L-697.5854652719261,-371.19339719159376 L-697.5456534614617,-371.23132742830217 L-697.5050483266687,-371.2654655202856 L-697.4637008061194,-371.29576864178625 " />
			<path d="M-2729.34169878864,-189.1415512314448 L-2729.34011036584,-189.29583879297078 L-2729.335348980182,-189.44832672914677 L-2729.327426270386,-189.59864229882123 L-2729.316361602705,-189.74641807097018 L-2729.3021820235867,-189.89129282284478 L-2729.284922193561,-190.03291242294318 L-2729.2646243025156,-190.17093069664904 L-2729.2413379665672,-190.30501027241957 L-2729.215120106781,-190.43482340645602 L-2729.186034810031,-190.56005278383978 L-2729.1541531723483,-190.68039229417613 L-2729.119553125133,-190.79554777984984 L-2729.0823192446583,-190.90523775506333 L-2729.0425425453345,-191.00919409389994 L-2729.0003202572316,-191.10716268573023 L-2728.9557555884107,-191.19890405635934 " />
			<path d="M-696.596487594657,-235.2007388570328 L-109.49431144684159,27.684086017098736 " />
			<path d="M-2049.5092335742684,199.27396170489624 L-2048.152538285801,199.1539651145406 " />
			<path d="M-2214.563732066711,125.3680465062987 L-183.43480294846506,-54.280737723394026 " />
			<path d="M-2379.618404670832,51.46205455973322 L-348.48947555258616,-128.1867296699595 " />
			<path d="M-2544.6730772749534,-22.443937386832204 L-513.5441481567073,-202.09272161652493 " />
			<path d="M-2714.926143046425,-98.67759814387779 L-683.7973513040406,-278.3264438858992 " />

       </g>

       <!-- solid lines -->
       <g  stroke="rgb(0,0,0)" fill="none">
			<path d="M-17.36241942378489,66.99953195987034 L-17.36241942378489,-63.9281980863254 " />
			<path d="M-14.438222468200063,-67.32283026234876 L-14.581706012085926,-67.30636202414341 L-14.724843891546895,-67.28237857626226 L-14.86729127489395,-67.25093769693194 L-15.008704993903688,-67.21211512998465 L-15.14874437054064,-67.16600440238464 L-15.287072037680485,-67.11271659891351 L-15.42335475185701,-67.05238009455728 L-15.55726419607481,-66.9851402452398 L-15.68847777075368,-66.9111590376476 L-15.816679370899266,-66.83061469898973 L-15.941560147627685,-66.7437012676329 L-16.062819252209533,-66.65062812564595 L-16.180164560840833,-66.55161949438018 L-16.293313378394853,-66.44691389430044 L-16.40199311945944,-66.33676357036843 L-16.505941965019147,-66.22143388436255 L-16.604909493200182,-66.10120267559807 L-16.69865728255862,-65.97635959158792 L-16.786959486458564,-65.84720539025645 L-16.86960337715646,-65.71405121538722 L-16.946389858280863,-65.5772178470504 L-17.01713394447304,-65.43703492881556 L-17.081665207032913,-65.29384017361126 L-17.1398281844967,-65.14797855014517 L-17.19148275715721,-64.99980145184419 L-17.236504484624508,-64.84966585031692 L-17.27478490561368,-64.69793343537775 L-17.306231799237597,-64.54496974370447 L-17.330769407175097,-64.39114327822836 L-17.348338616179415,-64.23682462037834 L-17.358897100487184,-64.0823855373179 L-17.362419423784885,-63.92819808632544 " />
			<path d="M-695.2887469601999,-372.1850470419313 L-695.4074526081258,-372.1719628350933 L-695.5259625609589,-372.1537302798678 L-695.6440814462239,-372.1303794339786 L-695.7616145361499,-372.1019487930326 L-695.8783680686929,-372.0684852270568 L-695.9941495669675,-372.03004390322957 L-696.1087681565591,-371.98668819493355 L-696.2220348801943,-371.9384895772797 L-696.3337630092517,-371.8855275092755 L-696.4437683515973,-371.8278893028307 L-696.5518695552391,-371.76566997881724 L-696.6578884072999,-371.69897211042024 L-696.7616501278133,-371.62790565403844 L-696.8629836578629,-371.55258776801287 L-696.9617219415844,-371.4731426194827 L-697.0577022015705,-371.38970117968654 " />
			<path d="M-17.36241942378489,66.99953195987032 L-17.360669394693932,67.10785587895401 L-17.355421402082857,67.21574056964991 L-17.346681727429882,67.3230569015677 L-17.334460831511155,67.42967642460248 L-17.318773341879954,67.53547152268065 L-17.29963803535852,67.64031556650733 L-17.277077815563523,67.74408306513267 L-17.25111968549206,67.84664981615579 L-17.22179471520094,67.94789305438626 L-17.18913800461803,68.04769159878539 L-17.153188641530093,68.1459259975115 L-17.11398965479748,68.24247867089528 L-17.07158796285157,68.33723405217444 L-17.02603431753675,68.43007872581899 L-16.977383243363995,68.52090156328163 L-16.925692972248868,68.60959385601086 L-16.87102537381202,68.69604944556745 L-16.813445881325592,68.78016485068862 L-16.753023413394196,68.86183939114781 L-16.68983029146419,68.94097530826191 L-16.623942153259982,69.01747788190146 L-16.555437862251,69.09125554386401 L-16.484399413257663,69.16221998747486 L-16.41091183430935,69.23028627328385 L-16.335063084871805,69.295372930732 L-16.256943950565866,69.35740205566601 L-16.176647934503443,69.41629940358405 L-16.09427114537088,69.47199447850119 L-16.009912182393595,69.52442061732816 L-15.92367201731975,69.57351506966242 L-15.835653873564176,69.6192190728959 L-15.745963102657209,69.66147792254976 " />
			<path d="M-15.745963102657184,69.66147792254976 L-15.66963332564056,69.69418386423476 L-15.592269576878321,69.72441003325649 L-15.513936815949045,69.75213104977968 L-15.434700816076237,69.77732363745613 L-15.354628108900911,69.7999666429692 L-15.273785928617336,69.82004105379528 L-15.192242155518887,69.83753001416812 L-15.11006525900138,69.8524188392319 L-15.027324240071776,69.86469502737162 L-14.944088573410484,69.87434827071027 L-14.860428149035963,69.88137046376396 L-14.776413213620561,69.8857557102478 L-14.692114311506897,69.88750032802687 L-14.607602225474288,69.88660285220786 L-14.522947917304977,69.88306403636919 L-14.438222468200067,69.87688685192822 " />
			<path d="M-14.43822246820007,69.87688685192822 L14.438222468200067,67.32283026234876 " />
			<path d="M14.438222468200063,67.32283026234876 L14.581706012085927,67.30636202414341 L14.724843891546895,67.28237857626226 L14.86729127489395,67.25093769693194 L15.008704993903688,67.21211512998465 L15.14874437054064,67.16600440238464 L15.287072037680487,67.11271659891351 L15.423354751857012,67.05238009455728 L15.55726419607481,66.9851402452398 L15.68847777075368,66.9111590376476 L15.816679370899267,66.83061469898973 L15.941560147627687,66.7437012676329 L16.062819252209536,66.65062812564595 L16.180164560840833,66.55161949438019 L16.293313378394853,66.44691389430044 L16.40199311945944,66.33676357036843 L16.50594196501915,66.22143388436255 L16.604909493200182,66.10120267559807 L16.698657282558624,65.97635959158792 L16.786959486458567,65.84720539025645 L16.869603377156462,65.7140512153872 L16.946389858280863,65.5772178470504 L17.01713394447304,65.43703492881556 L17.081665207032913,65.29384017361126 L17.1398281844967,65.14797855014517 L17.19148275715721,64.99980145184419 L17.236504484624508,64.84966585031692 L17.27478490561368,64.69793343537775 L17.306231799237597,64.54496974370447 L17.330769407175097,64.39114327822836 L17.348338616179415,64.23682462037834 L17.358897100487184,64.0823855373179 L17.362419423784885,63.928198086325416 " />
			<path d="M17.36241942378489,63.9281980863254 L17.36241942378489,-66.99953195987034 " />
			<path d="M17.36241942378489,-66.99953195987032 L17.360669394693932,-67.107855878954 L17.355421402082857,-67.21574056964991 L17.346681727429882,-67.3230569015677 L17.33446083151116,-67.42967642460248 L17.318773341879954,-67.53547152268065 L17.29963803535852,-67.64031556650733 L17.277077815563523,-67.74408306513267 L17.25111968549206,-67.84664981615579 L17.221794715200943,-67.94789305438624 L17.18913800461803,-68.04769159878539 L17.153188641530093,-68.1459259975115 L17.11398965479748,-68.24247867089528 L17.07158796285157,-68.33723405217444 L17.02603431753675,-68.43007872581899 L16.977383243363995,-68.52090156328163 L16.925692972248868,-68.60959385601086 L16.87102537381202,-68.69604944556745 L16.813445881325592,-68.78016485068862 L16.753023413394196,-68.86183939114781 L16.68983029146419,-68.94097530826191 L16.623942153259982,-69.01747788190146 L16.555437862250997,-69.09125554386401 L16.484399413257663,-69.16221998747486 L16.41091183430935,-69.23028627328385 L16.335063084871805,-69.295372930732 L16.256943950565866,-69.35740205566601 L16.176647934503443,-69.41629940358405 L16.09427114537088,-69.47199447850119 L16.00991218239359,-69.52442061732816 L15.92367201731975,-69.57351506966242 L15.835653873564176,-69.6192190728959 L15.745963102657196,-69.66147792254976 " />
			<path d="M15.745963102657186,-69.66147792254976 L15.66963332564056,-69.69418386423476 L15.592269576878321,-69.72441003325649 L15.513936815949045,-69.75213104977968 L15.434700816076237,-69.77732363745613 L15.354628108900911,-69.7999666429692 L15.273785928617336,-69.82004105379528 L15.192242155518887,-69.83753001416812 L15.11006525900138,-69.8524188392319 L15.027324240071776,-69.86469502737162 L14.944088573410484,-69.87434827071027 L14.860428149035963,-69.88137046376396 L14.776413213620561,-69.8857557102478 L14.692114311506899,-69.88750032802687 L14.607602225474288,-69.88660285220786 L14.522947917304977,-69.88306403636919 L14.438222468200077,-69.87688685192822 " />
			<path d="M-665.1045613893426,-374.52369470213233 L-665.1808911663592,-374.5564006438173 L-665.2582549151215,-374.58662681283903 L-665.3365876760507,-374.61434782936226 L-665.4158236759235,-374.6395404170387 L-665.4958963830989,-374.6621834225518 L-665.5767385633825,-374.68225783337783 L-665.6582823364809,-374.6997467937507 L-665.7404592329984,-374.71463561881444 L-665.823200251928,-374.7269118069542 L-665.9064359185893,-374.7365650502928 L-665.9900963429639,-374.74358724334655 L-666.0741112783792,-374.7479724898304 L-666.1584101804929,-374.74971710760946 L-666.2429222665255,-374.7488196317904 L-666.3275765746948,-374.74528081595173 L-666.4123020237997,-374.7391036315108 " />
			<path d="M-14.438222468200067,-67.32283026234876 L14.43822246820007,-69.87688685192822 " />
			<path d="M-695.2887469601998,-372.18504704193134 L-666.4123020237997,-374.7391036315108 " />
			<path d="M-2082.289284439104,200.46276923475835 L-2082.577294417532,119.55724151120104 " />
			<path d="M-2764.689398225905,-105.72371572368895 L-2764.9774082043327,-186.62924344724627 " />
			<path d="M-2079.6655929614235,116.15044929933714 L-2079.808997426087,116.16759264745603 L-2079.9520295367856,116.19224563047987 L-2080.0943447166364,116.2243488572132 L-2080.2356001159055,116.26382498817091 L-2080.375455437964,116.31057892189583 L-2080.5135737590904,116.36449802406644 L-2080.6496223401523,116.42545239884285 L-2080.7832734282006,116.49329520179727 L-2080.9142050460587,116.56786299367505 L-2081.04210176799,116.64897613413419 L-2081.1666554795897,116.73643921451463 L-2081.2875661200565,116.8300415285949 L-2081.404542405067,116.9295575802018 L-2081.517302528505,117.03474762645038 L-2081.625574841356,117.14535825530572 L-2081.7290985061354,117.26112299607452 L-2081.8276241252665,117.3817629613565 L-2081.9209143419034,117.50698751890847 L-2082.008744411743,117.63649499180293 L-2082.090902744454,117.76997338519413 L-2082.1671914134167,117.90710113794111 L-2082.2374266325455,118.04754789727649 L-2082.3014391990455,118.19097531465535 L-2082.359074901037,118.33703786086647 L-2082.4101948890657,118.48538365844249 L-2082.454676010603,118.63565532936346 L-2082.4924111067317,118.78749085601189 L-2082.523309270299,118.94052445330487 L-2082.547296064922,119.09438744990236 L-2082.564313704313,119.24870917636875 L-2082.5743211914873,119.403117858148 L-2082.5772944175324,119.55724151120106 " />
			<path d="M-2762.065706748224,-190.03603565911018 L-2762.2091112128874,-190.01889231099128 L-2762.352143323586,-189.99423932796745 L-2762.494458503437,-189.9621361012341 L-2762.635713902706,-189.9226599702764 L-2762.7755692247642,-189.8759060365515 L-2762.9136875458908,-189.8219869343809 L-2763.0497361269527,-189.76103255960447 L-2763.183387215001,-189.69318975665004 L-2763.314318832859,-189.61862196477227 L-2763.4422155547904,-189.53750882431314 L-2763.56676926639,-189.4500457439327 L-2763.687679906857,-189.35644342985242 L-2763.8046561918673,-189.25692737824554 L-2763.917416315305,-189.15173733199694 L-2764.0256886281563,-189.0411267031416 L-2764.129212292936,-188.9253619623728 L-2764.227737912067,-188.8047219970908 L-2764.321028128704,-188.67949743953884 L-2764.4088581985434,-188.5499899666444 L-2764.4910165312544,-188.4165115732532 L-2764.567305200217,-188.2793838205062 L-2764.637540419346,-188.13893706117085 L-2764.701552985846,-187.995509643792 L-2764.759188687837,-187.84944709758085 L-2764.810308675866,-187.70110130000484 L-2764.8547897974036,-187.55082962908386 L-2764.892524893532,-187.39899410243544 L-2764.923423057099,-187.24596050514245 L-2764.9474098517226,-187.09209750854495 L-2764.9644274911134,-186.93777578207857 L-2764.9744349782877,-186.78336710029933 L-2764.9774082043327,-186.62924344724627 " />
			<path d="M-2082.2892844391044,200.46276923475838 L-2082.2871664091685,200.57054977199846 L-2082.2815833435834,200.67787923555412 L-2082.272541865847,200.78463029458973 L-2082.26005270236,200.89067630446272 L-2082.2441306697033,200.99589145696896 L-2082.2247946570583,201.1001509295961 L-2082.2020676037982,201.20333103360736 L-2082.175976472274,201.30530936078006 L-2082.1465522158287,201.4059649286255 L-2082.113829742072,201.50517832391697 L-2082.077847871472,201.6028318443562 L-2082.0386492912967,201.69880963821012 L-2081.996280504975,201.79299784175217 L-2081.9507917769233,201.88528471434495 L-2081.902237072918,201.97556077100444 L-2081.8506739960703,202.0637189122879 L-2081.796163718489,202.14965455135194 L-2081.7387709087097,202.23326573802956 L-2081.678563654974,202.31445327977923 L-2081.6156133844524,202.39312085936248 L-2081.5499947785074,202.46917514911038 L-2081.4817856840937,202.54252592164315 L-2081.411067021406,202.6130861569119 L-2081.337922687875,202.68077214543538 L-2081.262439458642,202.74550358760908 L-2081.184706883604,202.80720368896894 L-2081.1048171811844,202.86579925129703 L-2081.0228651289226,202.92122075946054 L-2080.9389479510382,202.97340246388137 L-2080.8531652030874,203.02228245853843 L-2080.7656186538534,203.06780275441028 L-2080.6764121646142,203.1099093482706 " />
			<path d="M-2080.6764121646142,203.1099093482706 L-2080.59934479269,203.1429849492552 L-2080.521220176969,203.1735286134659 L-2080.4421053102774,203.20151414933264 L-2080.362068034591,203.22691755891222 L-2080.2811769828645,203.24971705846656 L-2080.1995015201755,203.2698930971427 L-2080.1171116842443,203.28742837373784 L-2080.0340781253744,203.30230785153532 L-2079.9504720458694,203.31451877119883 L-2079.8663651389775,203.3240506617137 L-2079.781829527412,203.33089534936582 L-2079.6969377015057,203.33504696475086 L-2079.6117624570497,203.33650194780728 L-2079.5263768328696,203.3352590508691 L-2079.4408540481954,203.3313193397358 L-2079.3552674398725,203.32468619275843 " />
			<path d="M-2764.689398225905,-105.72371572368888 L-2764.687280195969,-105.61593518644881 L-2764.681697130384,-105.50860572289314 L-2764.6726556526473,-105.40185466385752 L-2764.6601664891605,-105.29580865398455 L-2764.6442444565037,-105.19059350147832 L-2764.6249084438587,-105.08633402885116 L-2764.6021813905986,-104.98315392483993 L-2764.5760902590746,-104.88117559766721 L-2764.546666002629,-104.78052002982176 L-2764.5139435288725,-104.6813066345303 L-2764.4779616582723,-104.58365311409108 L-2764.438763078097,-104.48767532023714 L-2764.3963942917753,-104.3934871166951 L-2764.3509055637237,-104.30120024410232 L-2764.3023508597184,-104.21092418744283 L-2764.2507877828707,-104.12276604615936 L-2764.1962775052893,-104.03683040709532 L-2764.13888469551,-103.95321922041771 L-2764.0786774417743,-103.87203167866805 L-2764.015727171253,-103.79336409908477 L-2763.950108565308,-103.71730980933688 L-2763.881899470894,-103.64395903680413 L-2763.8111808082062,-103.57339880153536 L-2763.7380364746755,-103.50571281301187 L-2763.6625532454423,-103.44098137083819 L-2763.5848206704045,-103.37928126947833 L-2763.504930967985,-103.32068570715023 L-2763.422978915723,-103.26526419898671 L-2763.3390617378386,-103.21308249456591 L-2763.253278989888,-103.16420249990884 L-2763.1657324406538,-103.11868220403697 L-2763.0765259514146,-103.07657561017666 " />
			<path d="M-2079.3552674398725,203.32468619275846 L-2050.492032566629,200.63436462680545 " />
			<path d="M-2050.4920325666285,200.6343646268054 L-2050.348628101965,200.6172212786865 L-2050.2055959912664,200.59256829566266 L-2050.0632808114156,200.56046506892932 L-2049.9220254121465,200.52098893797162 L-2049.782170090088,200.4742350042467 L-2049.6440517689616,200.4203159020761 L-2049.5080031878997,200.35936152729968 L-2049.3743520998514,200.29151872434525 L-2049.2434204819933,200.21695093246748 L-2049.115523760062,200.13583779200835 L-2048.9909700484623,200.0483747116279 L-2048.8700594079955,199.95477239754763 L-2048.753083122985,199.85525634594075 L-2048.640322999547,199.75006629969215 L-2048.532050686696,199.6394556708368 L-2048.4285270219166,199.523690930068 L-2048.3300014027855,199.40305096478602 L-2048.2367111861486,199.27782640723404 L-2048.148881116309,199.1483189343396 L-2048.066722783598,199.0148405409484 L-2047.9904341146353,198.87771278820142 L-2047.9201988955065,198.73726602886606 L-2047.8561863290067,198.5938386114872 L-2047.7985506270152,198.44777606527606 L-2047.747430638986,198.29943026770005 L-2047.7029495174488,198.14915859677907 L-2047.6652144213206,197.99732307013065 L-2047.6343162577534,197.84428947283766 L-2047.6103294631298,197.69042647624016 L-2047.5933118237388,197.53610474977378 L-2047.5833043365644,197.38169606799454 L-2047.5803311105199,197.22757241494145 " />
			<path d="M-2047.8683410889482,116.32204469138416 L-2047.870459118884,116.21426415414409 L-2047.8760421844688,116.10693469058842 L-2047.8850836622055,116.0001836315528 L-2047.8975728256924,115.89413762167983 L-2047.9134948583492,115.7889224691736 L-2047.9328308709944,115.68466299654644 L-2047.9555579242544,115.5814828925352 L-2047.9816490557782,115.47950456536249 L-2048.0110733122237,115.37884899751704 L-2048.0437957859804,115.27963560222558 L-2048.0797776565805,115.18198208178636 L-2048.1189762367558,115.08600428793243 L-2048.1613450230775,114.9918160843904 L-2048.206833751129,114.8995292117976 L-2048.2553884551344,114.80925315513811 L-2048.306951531982,114.72109501385464 L-2048.3614618095635,114.6351593747906 L-2048.4188546193427,114.55154818811299 L-2048.4790618730785,114.47036064636333 L-2048.5420121436,114.39169306678005 L-2048.607630749545,114.31563877703216 L-2048.675839843959,114.24228800449941 L-2048.7465585066466,114.17172776923064 L-2048.8197028401773,114.10404178070715 L-2048.8951860694106,114.03931033853347 L-2048.9729186444483,113.97761023717361 L-2049.052808346868,113.9190146748455 L-2049.13476039913,113.863593166682 L-2049.218677577014,113.81141146226119 L-2049.304460324965,113.76253146760412 L-2049.392006874199,113.71701117173225 L-2049.481213363438,113.67490457787194 " />
			<path d="M-2049.481213363438,113.67490457787193 L-2049.5582807353626,113.64182897688733 L-2049.6364053510833,113.61128531267666 L-2049.715520217775,113.5832997768099 L-2049.7955574934613,113.55789636723034 L-2049.876448545188,113.535096867676 L-2049.958124007877,113.51492082899986 L-2050.040513843808,113.49738555240472 L-2050.123547402678,113.48250607460723 L-2050.207153482183,113.47029515494371 L-2050.291260389075,113.46076326442886 L-2050.3757960006405,113.45391857677673 L-2050.4606878265467,113.44976696139167 L-2050.5458630710027,113.44831197833525 L-2050.631248695183,113.44955487527345 L-2050.716771479857,113.45349458640675 L-2050.80235808818,113.46012773338411 " />
			<path d="M-2731.881327150238,-192.51158038057537 L-2731.9583945221625,-192.54465598155997 L-2732.0365191378833,-192.57519964577065 L-2732.115634004575,-192.6031851816374 L-2732.195671280261,-192.62858859121698 L-2732.276562331988,-192.65138809077132 L-2732.358237794677,-192.67156412944746 L-2732.440627630608,-192.6890994060426 L-2732.523661189478,-192.70397888384008 L-2732.607267268983,-192.7161898035036 L-2732.691374175875,-192.72572169401846 L-2732.7759097874405,-192.73256638167058 L-2732.8608016133467,-192.73671799705562 L-2732.9459768578026,-192.73817298011204 L-2733.031362481983,-192.73693008317386 L-2733.116885266657,-192.73299037204058 L-2733.20247187498,-192.7263572250632 " />
			<path d="M-2079.665592961423,116.15044929933708 L-2050.8023580881795,113.46012773338407 " />
			<path d="M-2762.065706748224,-190.03603565911018 L-2733.2024718749803,-192.7263572250632 " />
			<path d="M-17.362438264510605,17.019627875577765 L-17.36243828083442,-63.928205227067664 " />
			<path d="M-2048.4915230281067,196.66834252477537 L-2048.4915230444303,115.72050942212995 " />
			<path d="M-18.662080868655202,-67.64613574920348 L-18.598310429444236,-67.61380401305018 L-18.53469361880544,-67.57399528377661 L-18.471383695207813,-67.52680546409844 L-18.408533177802596,-67.4723482384246 L-18.346293478991274,-67.41075479898163 L-18.284814539659838,-67.34217352976009 L-18.224244467958055,-67.26676964904456 L-18.164729182493968,-67.18472481138828 L-18.106412060803184,-67.09623666999143 L-18.04943359393983,-67.0015184005373 L-17.993931048021306,-66.90079818763331 L-17.940038133542178,-66.79431867509443 L-17.887884683253887,-66.68233638139287 L-17.83759633938628,-66.56512108168262 L-17.789294250964478,-66.44295515788757 L-17.743094781950244,-66.31613291841856 L-17.699109230911038,-66.18495988915883 L-17.657443562891984,-66.04975207742527 L-17.618198154136827,-65.91083521067911 L-17.581467550272748,-65.76854395182006 L-17.547340238541675,-65.62322109295394 L-17.51589843462677,-65.47521672957653 L-17.487217884587643,-65.32488741716288 L-17.461367682381454,-65.17259531219386 L-17.438410103409527,-65.01870729968958 L-17.418400454490456,-64.86359410935114 L-17.40138694062112,-64.70762942244039 L-17.387410548846642,-64.55118897154898 L-17.376504949518996,-64.39464963542568 L-17.368696415182175,-64.23838853104243 L-17.364003757279345,-64.08278210508655 L-17.362438280834425,-63.92820522706771 " />
			<path d="M-2049.7911656322512,112.00257889999412 L-2049.7456154334477,112.02490146075131 L-2049.700121204784,112.0510499674967 L-2049.6547388476256,112.08099229006129 L-2049.6095241258763,112.11469163659721 L-2049.5645325974556,112.15210659878585 L-2049.5198195460343,112.1931912027187 L-2049.4754399131,112.23789496538808 L-2049.431448230453,112.28616295671858 L-2049.387898553194,112.33793586706274 L-2049.344844393308,112.39315008007816 L-2049.302338653909,112.4517377508967 L-2049.2604335642345,112.51362688948917 L-2049.219180615471,112.57874144912378 L-2049.1786304974808,112.647001419809 L-2049.138833036518,112.71832292660645 L-2049.099837134004,112.79261833269287 L-2049.0616907064386,112.8697963470445 L-2049.0244406265247,112.94976213661155 L-2048.9528114372474,113.11766070243284 L-2048.8853015175846,113.29548905729312 L-2048.8222425788376,113.48237343811748 L-2048.763944462326,113.67739558487155 L-2048.7106936169776,113.87959725245004 L-2048.662751691855,114.08798491903272 L-2048.620354250539,114.30153466777304 " />
			<path d="M-17.362438264510608,17.019627875577765 L-17.363598282116236,17.15157724329641 L-17.367076264200495,17.28225222870693 L-17.37286600210173,17.41141955954097 L-17.380957160366002,17.53884865489457 L-17.391335295197234,17.664312036845814 L-17.403981880241307,17.78758573653324 L-17.41887433965809,17.908449693970127 L-17.43598608842231,18.0266881508809 L-17.455286579781372,18.142090035858395 L-17.476741359785382,18.254449341154487 L-17.500312128792043,18.363565490431366 L-17.525956809836618,18.469243696817035 L-17.55362962374492,18.571295310625853 L-17.58328117085525,18.669538156123355 L-17.61485851920337,18.763796856734242 L-17.648305299013117,18.853903148112938 L-17.68356180332396,18.93969617851787 L-17.720565094575907,19.02102279595327 L-17.75924911696141,19.09773782156593 L-17.799544814343808,19.169704308808754 L-17.841380253531725,19.236793787908663 L-17.88468075268941,19.298886495202208 L-17.929369014653773,19.355871586929716 L-17.975365264920114,19.40764733710616 L-18.022587394050266,19.454121319115593 L-18.070951104248863,19.495210570705005 L-18.120370059846163,19.53084174208297 L-18.17075604141872,19.560951226858833 L-18.222019103272814,19.585485275588578 L-18.2740677340095,19.604400091724752 L-18.32680901988466,19.617661909799146 L-18.38014881067242,19.625247055698654 " />
			<path d="M-18.38014881067243,19.625247055698658 L-18.414927808097957,19.62712318384235 L-18.449891448633423,19.626616550723952 L-18.48501361164026,19.623727534838952 L-18.520268058050913,19.61845829451351 L-18.555628449971554,19.61081276629199 L-18.591068370358563,19.600796661996046 L-18.626561342754187,19.58841746445745 L-18.662080851066584,19.573684421927815 " />
			<path d="M-32.04648823850593,-73.34407862873316 L-32.01410613206274,-73.36481741353931 L-31.98133699727305,-73.38323423808403 L-31.948205315303948,-73.39931534352496 L-31.914735838174288,-73.41304871598894 L-31.880953570262964,-73.42442409554727 L-31.84688374962861,-73.43343298388075 L-31.81255182915478,-73.44006865062858 L-31.77798345753459,-73.44432613841644 " />
			<path d="M-31.777983457534585,-73.44432613841644 L-31.74320446010906,-73.44620226656014 L-31.708240819573593,-73.44569563344173 L-31.673118656566757,-73.44280661755673 L-31.637864210156103,-73.4375373772313 L-31.602503818235462,-73.42989184900976 L-31.567063897848456,-73.41987574471382 L-31.53157092545283,-73.40749654717523 L-31.496051417140436,-73.3927635046456 " />
			<path d="M-2063.8192765060417,107.61955939988975 L-2063.786865260039,107.4658970757118 L-2063.7503904888267,107.31897172930788 L-2063.709979774777,107.17929727985192 L-2063.665774467502,107.04736228414808 L-2063.6179291894387,106.92362822774442 L-2063.5666112950034,106.80852791073708 L-2063.5120002852204,106.70246393391139 L-2063.4542871798526,106.60580729051449 L-2063.3936738492525,106.51889606858597 L-2063.362345477904,106.47919135221497 L-2063.330372308254,106.44203426838499 L-2063.297782305557,106.40745731644813 L-2063.264603974579,106.37549073905046 L-2063.2308663346657,106.34616249568036 L-2063.196598894361,106.31949823821382 L-2063.161831625597,106.29552128847816 L-2063.1265949374806,106.27425261785353 L-2063.0909196496937,106.25571082893046 L-2063.0548369655394,106.23991213923905 L-2063.018378444649,106.22687036706446 L-2062.981575975378,106.21659691936067 L-2062.9444617469153,106.20910078177344 L-2062.907068221131,106.20438851078114 " />
			<path d="M-2062.907068221131,106.20438851078114 L-2062.872289223705,106.20251238263745 L-2062.83732558317,106.20301901575586 L-2062.802203420163,106.20590803164086 L-2062.7669489737523,106.21117727196629 L-2062.7315885818316,106.21882280018782 L-2062.6961486614446,106.22883890448377 L-2062.660655689049,106.24121810202236 L-2062.6251361807367,106.25595114455199 " />
			<path d="M-18.6620808686552,-67.64613574920347 L-31.496051417140432,-73.39276350464561 " />
			<path d="M-2049.7911656322512,112.00257889999413 L-2062.6251361807363,106.25595114455199 " />
			<path d="M-182.417092027906,-60.12064206851995 L-182.417092027906,-137.83419003289083 " />
			<path d="M-183.71673511927705,-141.5521205113926 L-183.65296465532776,-141.51978877737065 L-183.5893478200118,-141.47998005022376 L-183.52603787185754,-141.4327902326625 L-183.46318733007544,-141.3783330090907 L-183.4009476071257,-141.31673957172987 L-183.33946864395242,-141.2481583045655 L-183.27889854876284,-141.17275442587723 L-183.21938324022162,-141.0907095902134 L-183.1610660959199,-141.00222145076944 L-183.1040876069663,-140.90750318322387 L-183.04858503953145,-140.80678297217958 L-182.99469210416171,-140.70030346144702 L-182.94253863365893,-140.58832116949407 L-182.8922502703016,-140.47110587147046 L-182.84394816316177,-140.34893994929607 L-182.79774867624633,-140.22211771137782 L-182.75376310816588,-140.09094468359518 L-182.71209742400657,-139.95573687326151 L-182.67285200005105,-139.8168200078347 L-182.63612138196308,-139.67452875021127 L-182.6019940570189,-139.529205892494 L-182.5705522409335,-139.38120153017596 L-182.54187167979578,-139.23087221872962 L-182.51602146758967,-139.07858011463355 L-182.49306387974053,-138.92469210290574 L-182.4730542230884,-138.76957891324543 L-182.45604070264878,-138.6136142269128 L-182.44206430548257,-138.45717377649814 L-182.4311587019548,-138.30063444074906 L-182.42335016461956,-138.14437333663662 L-182.4186575049272,-137.98876691084746 L-182.41709202790602,-137.83419003289086 " />
			<path d="M-2214.8456642375227,38.0966637183001 L-2214.800327560535,38.11887263388418 L-2214.75504607007,38.14487183489712 L-2214.7098748854746,38.17462967355179 L-2214.6648689918247,38.208109926821855 L-2214.620083172993,38.2452718405346 L-2214.5755719449658,38.28607017897937 L-2214.531389489479,38.33045527997118 L-2214.4875895880687,38.37837311530251 L-2214.444225556602,38.42976535650967 L-2214.4013501803793,38.48456944587372 L-2214.359015649881,38.542718672569464 L-2214.317273497237,38.604142253869895 L-2214.2761745334988,38.66876542130714 L-2214.2357687867916,38.73650951168515 L-2214.1961054414137,38.80729206283325 L-2214.157232777968,38.88102691398403 L-2214.1191981145935,38.95762431065345 L-2214.0820477493635,39.0369910138953 L-2214.0105796684816,39.20364264708052 L-2213.9431764103683,39.38017062701068 L-2213.8801660643076,39.56571569346386 L-2213.821855336828,39.75937469502443 L-2213.7685280587907,39.96020498522511 L-2213.7204438038275,40.167229010933575 L-2213.6778366248495,40.37943907064922 " />
			<path d="M-197.10114772055837,-147.25006291710267 L-197.0687655995602,-147.2708017072802 L-197.0359964499795,-147.289218536874 L-197.00286475299808,-147.30529964703584 L-196.96939526064978,-147.31903302388721 L-196.93561297732862,-147.3304084074946 L-196.90154314110862,-147.33941729953446 L-196.8672112048888,-147.34605296964224 L-196.83264281737797,-147.35031046044034 " />
			<path d="M-196.83264281737797,-147.35031046044037 L-196.79786380393287,-147.35218659124186 L-196.76290014726487,-147.35167996042662 L-196.72777796802853,-147.34879094648846 L-196.6925235053075,-147.34352170775247 L-196.6571630970118,-147.33587618076234 L-196.62172316020124,-147.32586007733974 L-196.58623017134994,-147.3134808803169 L-196.550710646566,-147.29874783794642 " />
			<path d="M-2228.7530313200086,33.23733330076288 L-2228.717363809337,33.13338868695449 L-2228.679397374687,33.03465600148513 L-2228.639216125074,32.941353972001366 L-2228.596909076107,32.85368929533547 L-2228.5525699527893,32.77185617959922 L-2228.5062969818837,32.69603591394453 L-2228.458192674306,32.626396466944215 L-2228.408363598028,32.56309211448249 L-2228.35692014199,32.506263097979556 L-2228.303976271553,32.45603531370753 L-2228.249649276023,32.41252003388589 L-2228.194059508815,32.37581366017431 L-2228.1373301208273,32.345997510109115 L-2228.0795867876204,32.32313763695627 L-2228.0209574309997,32.307284683380175 L-2227.961571935624,32.29847376925234 " />
			<path d="M-2227.961571935624,32.29847376925234 L-2227.9267929221787,32.29659763845085 L-2227.8918292655108,32.297104269266086 L-2227.856707086274,32.29999328320422 L-2227.8214526235533,32.30526252194023 L-2227.7860922152577,32.312908048930346 L-2227.750652278447,32.32292415235295 L-2227.7151592895957,32.33530334937579 L-2227.679639764812,32.35003639174626 " />
			<path d="M-183.71673511927705,-141.55212051139262 L-196.550710646566,-147.29874783794645 " />
			<path d="M-2214.8456642375227,38.096663718300064 L-2227.679639764812,32.35003639174626 " />
			<path d="M-347.4717646320271,-134.0266190376716 L-347.4717646320271,-211.74018197945628 " />
			<path d="M-348.77140772339817,-215.45811245795807 L-348.7076372594489,-215.42578072393613 L-348.6440204241329,-215.38597199678924 L-348.58071047597866,-215.338782179228 L-348.51785993419657,-215.2843249556562 L-348.4556202112468,-215.22273151829535 L-348.39414124807354,-215.15415025113097 L-348.33357115288396,-215.0787463724427 L-348.27405584434274,-214.9967015367789 L-348.215738700041,-214.90821339733492 L-348.15876021108744,-214.81349512978935 L-348.10325764365257,-214.71277491874505 L-348.04936470828284,-214.6062954080125 L-347.99721123778005,-214.49431311605954 L-347.9469228744227,-214.37709781803594 L-347.89862076728286,-214.25493189586155 L-347.8524212803675,-214.1281096579433 L-347.808435712287,-213.99693663016066 L-347.7667700281277,-213.861728819827 L-347.7275246041722,-213.72281195440019 L-347.6907939860842,-213.58052069677674 L-347.65666666114004,-213.43519783905947 L-347.6252248450546,-213.28719347674144 L-347.5965442839169,-213.1368641652951 L-347.57069407171076,-212.98457206119903 L-347.5477364838617,-212.83068404947122 L-347.5277268272095,-212.6755708598109 L-347.5107133067699,-212.51960617347828 L-347.4967369096037,-212.36316572306362 L-347.4858313060759,-212.20662638731454 L-347.4780227687407,-212.0503652832021 L-347.47333010904833,-211.89475885741294 L-347.47176463202715,-211.74018197945634 " />
			<path d="M-2379.900336841644,-35.80932822826541 L-2379.863089623433,-35.7913619909688 L-2379.8258730053,-35.770834169677215 L-2379.7887175621836,-35.74776162881596 L-2379.751653818764,-35.72216332339914 L-2379.7147122243887,-35.694060283457354 L-2379.6779231280525,-35.663475596760684 L-2379.604923174233,-35.59496380740031 L-2379.5328937975514,-35.51685304976602 L-2379.462071649435,-35.429399955570915 L-2379.392689414981,-35.3328918506336 L-2379.3249750484706,-35.22764581087358 L-2379.259151024432,-35.114007620563086 L-2379.1954336067006,-34.99235063625806 L-2379.134032137889,-34.8630745601409 L-2379.0751483515946,-34.72660412680492 L-2379.0189757096064,-34.58338770779531 L-2378.9656987662906,-34.433895838491175 L-2378.9154925622393,-34.27861967216867 L-2378.8685220491757,-34.11806936632436 " />
			<path d="M-362.1558203246795,-221.15605486366806 L-362.1234382036813,-221.1767936538456 L-362.0906690541006,-221.19521048343938 L-362.0575373571192,-221.21129159360123 L-362.02406786477087,-221.2250249704526 L-361.9902855814497,-221.23640035406 L-361.9562157452297,-221.24540924609988 L-361.9218838090099,-221.25204491620767 L-361.887315421499,-221.25630240700576 " />
			<path d="M-361.887315421499,-221.25630240700576 L-361.85253640805394,-221.25817853780728 L-361.81757275138597,-221.25767190699204 L-361.7824505721496,-221.25478289305389 L-361.74719610942856,-221.2495136543179 L-361.7118357011328,-221.24186812732776 L-361.6763957643223,-221.23185202390516 L-361.640902775471,-221.2194728268823 L-361.60538325068705,-221.20473978451184 " />
			<path d="M-2393.7617352511024,-40.8005134455458 L-2393.726308255124,-40.89019704009813 L-2393.6890204580095,-40.97524692981913 L-2393.649941804782,-41.055503576817934 L-2393.60914559978,-41.130816434442096 L-2393.5667083691524,-41.20104422967528 L-2393.5227097173083,-41.26605522813937 L-2393.4772321775963,-41.32572748120384 L-2393.430361057484,-41.37994905473889 L-2393.382184278539,-41.428618239083164 L-2393.332792211505,-41.47164373983234 L-2393.28227750678,-41.508944849090554 L-2393.2307349206235,-41.54045159686353 L-2393.178261137412,-41.56610488230935 L-2393.1249545882742,-41.58585658460072 L-2393.070915266455,-41.59966965319079 L-2393.016244539745,-41.60751817731311 " />
			<path d="M-2393.016244539745,-41.60751817731311 L-2392.9814655263,-41.6093943081146 L-2392.946501869632,-41.608887677299364 L-2392.9113796903953,-41.60599866336123 L-2392.8761252276745,-41.60072942462522 L-2392.840764819379,-41.593083897635104 L-2392.805324882568,-41.5830677942125 L-2392.769831893717,-41.57068859718966 L-2392.734312368933,-41.55595555481919 " />
			<path d="M-348.7714077233981,-215.45811245795807 L-361.6053832506871,-221.2047397845119 " />
			<path d="M-2379.900336841644,-35.809328228265414 L-2392.734312368933,-41.55595555481922 " />
			<path d="M-512.5264372361481,-207.932610984237 L-512.5264372361481,-285.64617392602173 " />
			<path d="M-513.8260803275192,-289.36410440452346 L-513.76230986357,-289.3317726705015 L-513.698693028254,-289.29196394335463 L-513.6353830800997,-289.24477412579336 L-513.5725325383175,-289.1903169022216 L-513.5102928153678,-289.12872346486074 L-513.4488138521946,-289.06014219769634 L-513.3882437570051,-288.9847383190081 L-513.3287284484637,-288.90269348334425 L-513.270411304162,-288.8142053439003 L-513.2134328152084,-288.71948707635477 L-513.1579302477736,-288.6187668653105 L-513.1040373124039,-288.5122873545779 L-513.0518838419011,-288.4003050626249 L-513.0015954785438,-288.28308976460136 L-512.9532933714039,-288.16092384242694 L-512.9070938844885,-288.0341016045087 L-512.863108316408,-287.9029285767261 L-512.8214426322487,-287.7677207663924 L-512.7821972082932,-287.6288039009656 L-512.7454665902053,-287.4865126433421 L-512.7113392652611,-287.34118978562486 L-512.6798974491757,-287.19318542330683 L-512.651216888038,-287.0428561118605 L-512.6253666758319,-286.89056400776445 L-512.6024090879827,-286.73667599603664 L-512.5823994313306,-286.58156280637627 L-512.5653859108909,-286.4255981200437 L-512.5514095137247,-286.269157669629 L-512.540503910197,-286.11261833387994 L-512.5326953728617,-285.9563572297675 L-512.5280027131694,-285.8007508039783 L-512.5264372361481,-285.64617392602173 " />
			<path d="M-2544.955009445765,-109.71532017483081 L-2544.885640070407,-109.67978851936255 L-2544.8164684670473,-109.63541745116895 L-2544.7476918438347,-109.58233347210688 L-2544.6795062828314,-109.52068792453063 L-2544.6121061809827,-109.45065655981502 L-2544.5456836958892,-109.37243903728842 L-2544.4804281979686,-109.28625835500438 L-2544.4165257305594,-109.19236021397441 L-2544.354158479512,-109.09101231767468 L-2544.2935042537765,-108.98250360882386 L-2544.234735978471,-108.8671434456077 L-2544.17802120187,-108.74526071969935 L-2544.123521617727,-108.61720291858956 L-2544.0713926042854,-108.48333513490034 L-2544.0217827812926,-108.34403902550642 L-2543.974833586289,-108.19971172343188 " />
			<path d="M-527.2104929288005,-295.06204681023354 L-527.1781108078023,-295.08278560041106 L-527.1453416582216,-295.10120243000483 L-527.1122099612402,-295.1172835401667 L-527.0787404688919,-295.1310169170181 L-527.0449581855707,-295.1423923006255 L-527.0108883493507,-295.15140119266533 L-526.9765564131309,-295.15803686277314 L-526.94198802562,-295.1622943535712 " />
			<path d="M-526.94198802562,-295.1622943535712 L-526.907209012175,-295.16417048437273 L-526.872245355507,-295.16366385355747 L-526.8371231762707,-295.16077483961936 L-526.8018687135497,-295.1555056008833 L-526.7665083052539,-295.14786007389324 L-526.7310683684434,-295.1378439704706 L-526.695575379592,-295.1254647734478 L-526.6600558548081,-295.1107317310773 " />
			<path d="M-2558.764201962607,-114.83556161034271 L-2558.729630817805,-114.91110091294986 L-2558.693601691357,-114.98263329114292 L-2558.6561704276646,-115.05004787121196 L-2558.617395044414,-115.11324016194914 L-2558.57733564265,-115.17211221660799 L-2558.536054313617,-115.22657278471874 L-2558.4936150425247,-115.27653745352481 L-2558.4500836093666,-115.32192877882066 L-2558.4055274869656,-115.36267640498889 L-2558.360015736392,-115.39871717404986 L-2558.3136188999206,-115.42999522355534 L-2558.266408891689,-115.45646207317408 L-2558.218458886237,-115.47807669983541 L-2558.169843205083,-115.49480560131408 L-2558.120637201529,-115.50662284815805 L-2558.0709171438657,-115.51351012387856 " />
			<path d="M-2558.0709171438657,-115.51351012387856 L-2558.0361381304206,-115.51538625468005 L-2558.0011744737526,-115.51487962386481 L-2557.966052294516,-115.51199060992668 L-2557.930797831795,-115.50672137119066 L-2557.8954374234995,-115.49907584420056 L-2557.859997486689,-115.48905974077795 L-2557.8245044978376,-115.47668054375511 L-2557.7889849730536,-115.46194750138464 " />
			<path d="M-513.8260803275192,-289.36410440452346 L-526.6600558548081,-295.1107317310773 " />
			<path d="M-2544.955009445765,-109.71532017483081 L-2557.788984973054,-115.46194750138461 " />
			<path d="M-682.7796400531778,-281.3788046289114 L-682.7796400518256,-361.8798962238741 " />
			<path d="M-684.079283588146,-365.59782666312 L-684.0155131023616,-365.56549493102307 L-683.9518962452631,-365.5256862057967 L-683.8885862754317,-365.47849639014674 L-683.8257357121298,-365.4240391684724 L-683.7634959678695,-365.36244573299064 L-683.7020169836463,-365.29386446768245 L-683.6414468677182,-365.218460590823 L-683.5819315387997,-365.1364157569561 L-683.523614374531,-365.0479276192731 L-683.4666358660689,-364.953209353448 L-683.4111332796311,-364.8524891440798 L-683.3572403258097,-364.7460096349747 L-683.3050868374509,-364.63402734459675 L-683.2547984568762,-364.51681204809194 L-683.2064963331993,-364.3946461273764 L-683.1602968304668,-364.26782389085355 L-683.1163112473274,-364.1366508643996 L-683.0746455489036,-364.00144305532456 L-683.0354001115123,-363.86252619108336 L-682.9986694808498,-363.72023493456965 L-682.9645421442225,-363.57491207788354 L-682.9331003173736,-363.42690771651564 L-682.9044197464178,-363.2765784059361 L-682.8785695253629,-363.12428630262144 L-682.8556119296554,-362.97039829158774 L-682.8356022661544,-362.8152851025325 L-682.8185887398918,-362.65932041671465 L-682.8046123379426,-362.502879966723 L-682.7937067306832,-362.3463406313043 L-682.7858981906768,-362.1900795274287 L-682.7812055293803,-362.03447310178234 L-682.7796400518256,-361.8798962238742 " />
			<path d="M-2715.20807533053,-185.94898092109858 L-2715.1442730437816,-185.91663117892273 L-2715.0806246157604,-185.87679702345687 L-2715.017283534164,-185.82957451446262 L-2714.9544025455275,-185.77507752865952 L-2714.892133286873,-185.7134374851125 L-2714.8306259200435,-185.64480302831558 L-2714.7700287695834,-185.5693396697369 L-2714.7104879650583,-185.48722938868912 L-2714.6521470886632,-185.39867019348753 L-2714.5951468289754,-185.3038756439548 L-2714.5396246416863,-185.20307433642273 L-2714.485714418126,-185.09650935247433 L-2714.433546162387,-184.9844376727541 L-2714.383245677819,-184.8671295572614 L-2714.334934263656,-184.7448678936204 L-2714.288728422505,-184.61794751489887 " />
			<path d="M-697.4637008061194,-371.29576864178625 L-697.4313186723124,-371.3165074366596 L-697.3985495097155,-371.33492427067034 L-697.3654177995236,-371.3510053849651 L-697.3319482937835,-371.3647387656607 L-697.2981659969026,-371.37611415281947 L-697.2640961469684,-371.38512304811405 L-697.2297641968935,-371.39175872117653 L-697.1951957954003,-371.39601621462646 " />
			<path d="M-697.1951957954003,-371.39601621462646 L-697.1604167678596,-371.3978923477746 L-697.1254530969965,-371.39738571899875 L-697.0903309034796,-371.3944967067914 L-697.0550764264068,-371.3892274694765 L-697.0197160037022,-371.3815819435973 L-696.98427605244,-371.37156584097534 L-696.9487830491084,-371.35918664444324 L-696.91326350983,-371.3444536022544 " />
			<path d="M-2728.9557555884107,-191.19890405635937 L-2728.9227947828836,-191.2600610645503 L-2728.888751352011,-191.3178986213234 L-2728.853667142763,-191.37234563141985 L-2728.817585281459,-191.42333516731892 L-2728.780550120755,-191.4708045515071 L-2728.742607185125,-191.51469543352232 L-2728.703803114901,-191.5549538616801 L-2728.66418560894,-191.591530349392 L-2728.623803365995,-191.62437993599562 L-2728.5827060248507,-191.65346224202142 L-2728.540944103306,-191.67874151882808 L-2728.498568936079,-191.7001866925454 L-2728.4556326117017,-191.71777140227127 L-2728.412187908495,-191.73147403247486 L-2728.3682882296903,-191.7412777395671 L-2728.3239875377844,-191.74717047260506 " />
			<path d="M-2728.3239875377844,-191.74717047260506 L-2728.289208510244,-191.74904660575316 L-2728.2542448393806,-191.74853997697736 L-2728.219122645864,-191.74565096477 L-2728.183868168791,-191.74038172745512 L-2728.1485077460866,-191.7327362015759 L-2728.1130677948245,-191.7227200989539 L-2728.0775747914927,-191.7103409024218 L-2728.042055252214,-191.69560786023303 " />
			<path d="M-684.079283588146,-365.59782666312 L-696.91326350983,-371.3444536022544 " />
			<path d="M-2715.2080753305304,-185.9489809210986 L-2728.042055252214,-191.69560786023305 " />
			<path d="M-17.36241942378489,66.99953195987034 L-105.87980495353405,27.364391197855156 " />
			<path d="M-17.362419423784885,-63.9281980863254 L-17.362438280834535,-63.92820652988497 " />
			<path d="M-37.487113512925035,-72.93936666345752 L-182.417092027906,-137.83419003289086 " />
			<path d="M-202.5417692763204,-146.84535106930616 L-347.4717646320271,-211.7401819794563 " />
			<path d="M-367.5964418804414,-220.75134301587158 L-512.526437236148,-285.6461739260217 " />
			<path d="M-532.6511144845624,-294.657334962437 L-682.7796427532984,-361.87989598493476 " />
			<path d="M-14.438222468200063,-67.32283026234876 L-695.2887469601998,-372.18504704193134 " />
			<path d="M14.438222468200065,-69.87688685192822 L-666.4123020237997,-374.73910363151083 " />
			<path d="M-2082.2892844391044,200.46276923475835 L-2764.689398225905,-105.72371572368905 " />
			<path d="M-2082.5772944175324,119.55724151120106 L-2764.9774082043327,-186.62924344724635 " />
			<path d="M-2079.6655929614235,116.15044929933711 L-2762.065706748224,-190.0360356591103 " />
			<path d="M-2050.8023580881795,113.46012773338411 L-2733.20247187498,-192.72635722506328 " />
			<path d="M-17.36243826451061,17.01962787557777 L-2048.491523028107,196.66834252477537 " />
			<path d="M-17.362438280834425,-63.92820522706767 L-2047.9355630445607,115.67133603373122 " />
			<path d="M-18.662080868655202,-67.64613574920348 L-2049.7911656322517,112.00257889999413 " />
			<path d="M-18.662080851066587,19.57368442192782 L-2048.10149506846,199.07295158200074 " />
			<path d="M-31.496051417140436,-73.3927635046456 L-2062.6251361807367,106.25595114455201 " />
			<path d="M-182.417092027906,-137.83419003289086 L-2210.280532413442,41.525769064956705 " />
			<path d="M-183.71673511927705,-141.55212051139264 L-2214.845664237523,38.09666371830008 " />
			<path d="M-196.550710646566,-147.29874783794645 L-2227.679639764812,32.35003639174627 " />
			<path d="M-347.4717646320271,-211.74018197945628 L-2375.0513293230583,-32.405331048135736 " />
			<path d="M-348.77140772339817,-215.45811245795807 L-2379.9003368416443,-35.80932822826534 " />
			<path d="M-361.60538325068705,-221.20473978451184 L-2392.734312368933,-41.55595555481912 " />
			<path d="M-512.5264372361481,-285.6461739260217 L-2539.8221262326747,-106.33643116122812 " />
			<path d="M-513.8260803275192,-289.3641044045235 L-2544.955009445765,-109.7153201748308 " />
			<path d="M-526.6600558548081,-295.1107317310773 L-2557.788984973054,-115.46194750138457 " />
			<path d="M-2558.677151596975,-115.01308051538697 L-2559.0803579324015,-114.97741780751252 " />
			<path d="M-682.7796400518256,-361.8798962238741 L-2709.7823782954374,-182.59599078083215 " />
			<path d="M-684.079283588146,-365.59782666312 L-2715.20807533053,-185.94898092109858 " />
			<path d="M-696.9132635098299,-371.3444536022544 L-2728.0420552522137,-191.69560786023303 " />
			<path d="M-109.49431144684159,27.684086017098736 L-15.745963102657186,69.66147792254978 " />
			<path d="M-665.1045613893425,-374.5236947021324 L15.745963102657186,-69.66147792254978 " />
			<path d="M-2763.076525951415,-103.07657561017683 L-2080.6764121646147,203.10990934827063 " />
			<path d="M-2731.881327150238,-192.51158038057557 L-2049.4812133634377,113.6749045778719 " />
			<path d="M-2048.152538285801,199.1539651145406 L-18.380148810672434,19.62524705569866 " />
			<path d="M-2062.907068221131,106.20438851078119 L-31.777983457534585,-73.44432613841643 " />
			<path d="M-2227.961571935624,32.298473769252354 L-196.83264281737797,-147.35031046044037 " />
			<path d="M-2393.016244539745,-41.60751817731304 L-361.88731542149907,-221.25630240700576 " />
			<path d="M-2558.0709171438657,-115.51351012387849 L-526.94198802562,-295.1622943535712 " />
			<path d="M-2728.3239875377844,-191.74717047260518 L-697.1951957954003,-371.39601621462657 " />

       </g>
    </g>
    
</svg>
