<?xml version="1.0" encoding="UTF-8" standalone="no"?>
<svg
   xmlns:svg="http://www.w3.org/2000/svg"
   xmlns="http://www.w3.org/2000/svg"
   width="480.0"
   height="480.0"

>
    <g transform="scale(0.1410960289369806, -0.1410960289369806)   translate(1370.3361673843,-455.8361807881606)" stroke-width="1.0"  fill="none">
       <!-- hidden lines -->
       <g  stroke="rgb(0,0,0)" fill="none" stroke-dasharray="1.0,1.0" >
			<path d="M-1297.3364862751262,317.32950977938657 L-1208.5774774074487,348.80786412062486 " />
			<path d="M-1206.4515131231929,352.5986705981792 L-1206.4540739402796,352.4487520275131 L-1206.4617502223068,352.2973782378801 L-1206.474523476439,352.1449139019981 L-1206.4923629307877,351.9917263198066 L-1206.5152256085453,351.8381845336088 L-1206.5430564315184,351.68465843901623 L-1206.5757883528165,351.5315178938381 L-1206.6133425183748,351.37913182706126 L-1206.6556284569185,351.22786735006804 L-1206.7025442979184,351.0780888722327 L-1206.7539770170038,350.9301572230274 L-1206.8098027082494,350.7844287827523 L-1206.8698868826757,350.6412546239844 L-1206.934084792243,350.50097966581274 L-1207.002241778565,350.36394184289816 L-1207.074193645491,350.2304712913592 L-1207.1497670546719,350.10088955344514 L-1207.2287799431451,349.9755088029126 L-1207.3110419619418,349.8546310929717 L-1207.3963549346533,349.73854762861333 L-1207.484513334856,349.6275380650708 L-1207.5753047812418,349.521869834106 L-1207.6685105492643,349.4217974997428 L-1207.7639060980641,349.32756214499994 L-1207.8612616114087,349.2393907911011 L-1207.960342551339,349.15749585056057 L-1208.0609102231922,349.0820746154634 L-1208.1627223506384,349.01330878217107 L-1208.2655336593446,348.95136401359906 L-1208.369096467863,348.89638954012065 L-1208.473161284317,348.8485178000576 L-1208.5774774074487,348.80786412062486 " />
			<path d="M-1206.9994420624341,384.4280745197383 L-1206.9357416174323,384.34510132033324 L-1206.8754988978435,384.25683819578416 L-1206.8188407832695,384.163471040588 L-1206.7658866036309,384.06519649904476 L-1206.716747887844,383.9622215510971 L-1206.6715281289232,383.8547630764018 L-1206.630322566012,383.7430473975504 L-1206.593217983794,383.62730980340257 L-1206.5602925297142,383.50779405353455 L-1206.531615549388,383.38475186484754 L-1206.5072474405515,383.2584423814165 L-1206.4872395258526,383.1291316286966 L-1206.471633944761,382.99709195323635 L-1206.4604635648152,382.86260144907743 L-1206.4537519123994,382.72594337205004 L-1206.4515131231929,382.5874055431962 " />
			<path d="M-1206.451513123193,352.59867059817924 L-1206.451513123193,382.5874055431962 " />
			<path d="M-1263.0241481248804,-1816.561385828467 L-1208.0930148170141,-1797.4453630757791 " />
			<path d="M-1205.9583848874004,-1793.6641325173146 L-1205.9612695161118,-1793.8142225977704 L-1205.9692739329928,-1793.9657352016372 L-1205.9823788547023,-1794.1183053217817 L-1206.000552710336,-1794.2715654034207 L-1206.0237517174837,-1794.4251462295936 L-1206.0519199877053,-1794.578677810638 L-1206.0849896611705,-1794.7317902755276 L-1206.1228810701396,-1794.884114762923 L-1206.165502930889,-1795.0352843097924 L-1206.2127525636233,-1795.1849347354562 L-1206.2645161398386,-1795.3327055189313 L-1206.320668956546,-1795.4782406674572 L-1206.3810757366912,-1795.6211895741137 L-1206.4455909550502,-1795.7612078624636 L-1206.5140591888112,-1795.8979582161862 L-1206.5863154920016,-1796.0311111917017 L-1206.6621857928583,-1796.1603460118292 L-1206.7414873131809,-1796.2853513385671 L-1206.8240290086612,-1796.4058260231343 L-1206.9096120291251,-1796.5214798314632 L-1206.9980301975797,-1796.6320341433998 L-1207.089070506913,-1796.7372226239231 L-1207.1825136330453,-1796.8367918647698 L-1207.2781344633015,-1796.9305019949177 L-1207.3757026387261,-1797.0181272584553 L-1207.474983109038,-1797.0994565584476 L-1207.575736698889,-1797.1742939654873 L-1207.6777206840554,-1797.2424591897059 L-1207.780689376185,-1797.3037880151076 L-1207.8843947146788,-1797.35813269518 L-1207.9885868642934,-1797.4053623088296 L-1208.093014817014,-1797.4453630757794 " />
			<path d="M-1263.9289864675238,-1781.1382261654924 L-1263.871878221414,-1781.0775539919864 L-1263.8139445592142,-1781.0190525574744 L-1263.7552375189284,-1780.9627744099528 L-1263.6958098332354,-1780.9087701003855 L-1263.6357148821228,-1780.8570881372978 L-1263.5750066449386,-1780.8077749432023 L-1263.5137396519053,-1780.7608748129035 L-1263.4519689351391,-1780.716429873708 L-1263.3897499792185,-1780.6744800475858 L-1263.3271386713454,-1780.635063015311 L-1263.264191251146,-1780.5982141826153 L-1263.200964260154,-1780.5639666483848 L-1263.137514491023,-1780.5323511749305 L-1263.0738989365138,-1780.503396160356 L-1263.0101747383012,-1780.4771276130493 L-1262.9463991356477,-1780.4535691283215 " />
			<path d="M-10.981446811416475,-2130.294638597934 L43.949686496449964,-2111.178615845246 " />
			<path d="M-1262.9463991356474,-1780.4535691283215 L-1208.0152658277811,-1761.3375463756336 " />
			<path d="M-1208.0152658277811,-1761.3375463756336 L-1207.905314337208,-1761.3033420702527 L-1207.7956740941386,-1761.2773528152327 L-1207.7410622829802,-1761.2674613928602 L-1207.6866380222734,-1761.2596480455595 L-1207.632437669149,-1761.2539179928942 L-1207.5784974311612,-1761.2502750627214 L-1207.5248533420981,-1761.2487216886336 L-1207.4715412379114,-1761.249258908334 L-1207.4185967327767,-1761.2518863629427 L-1207.3660551953014,-1761.256602297237 L-1207.3139517248976,-1761.263403560823 L-1207.262321128335,-1761.2722856102414 L-1207.2111978964888,-1761.2832425120016 L-1207.1606161812979,-1761.2962669465458 " />
			<path d="M-1207.1606161812979,-1761.2962669465458 L-1207.0908178326365,-1761.3179433941855 L-1207.022236930704,-1761.3436216935097 L-1206.9549631575817,-1761.3732682654418 L-1206.8890844860414,-1761.4068443416627 L-1206.8246870645041,-1761.4443060153073 L-1206.7618551043854,-1761.4856042983808 L-1206.7006707699734,-1761.530685185819 L-1206.6412140709838,-1761.5794897261105 L-1206.5835627579331,-1761.6319540983857 L-1206.5277922204652,-1761.6880096958755 L-1206.4739753887657,-1761.747583215626 L-1206.4221826381922,-1761.8105967543563 L-1206.372481697246,-1761.8769679103311 L-1206.324937559004,-1761.946609891116 L-1206.279612396129,-1762.0194316270743 L-1206.2365654795676,-1762.0953378904574 L-1206.1958531010423,-1762.1742294199325 L-1206.1575284994394,-1762.2560030503855 L-1206.1216417911903,-1762.3405518478273 L-1206.0882399047343,-1762.42776524923 L-1206.0573665191519,-1762.5175292071085 L-1206.0290620070452,-1762.609726338658 L-1206.0033633817447,-1762.704236079254 L-1205.9803042489066,-1762.8009348401126 L-1205.9599147625672,-1762.8996961699047 L-1205.9422215857126,-1763.0003909201153 L-1205.9272478554094,-1763.1028874139279 L-1205.9150131525507,-1763.207051618417 L-1205.90553347625,-1763.3127473198194 L-1205.898821222919,-1763.4198363016603 L-1205.8948851700577,-1763.528178525495 L-1205.8937304647754,-1763.6376323140355 " />
			<path d="M-1205.9583848874006,-1793.6641325173146 L-1205.8937304647754,-1763.6376323140353 " />
			<path d="M44.11372991267898,-0.8678481661279729 L44.23689888950034,-0.9042403065712611 L44.35380868007045,-0.9426294249484578 L44.46413393232292,-0.9829086869308924 L44.56756761851766,-1.024965998047653 L44.66382188967833,-1.0686843156369437 L44.75262887665672,-1.1139419745679213 L44.833741435594455,-1.1606130258265561 L44.90693383570771,-1.2085675870232442 L44.97200238748083,-1.2576722038467454 L45.0287660095204,-1.307790221458534 L45.077066732492696,-1.358782164794002 L45.11677013874157,-1.410506126712164 L45.147765736363816,-1.462818162913663 L45.15997019746983,-1.4891492677253066 L45.16996726670062,-1.5155726925280522 L45.177749987553554,-1.5420700504707454 L45.183312944389634,-1.5686229032555463 L45.18665226620198,-1.5952127739682955 L45.18776562930948,-1.6218211599357488 " />
			<path d="M45.18776562930948,-1.6218211599357533 L45.18637661378879,-1.651540760777989 L45.182210781149166,-1.6812345607011026 L45.175271747884,-1.710876781561908 L45.16556553799133,-1.7404416899946642 L45.15310057774429,-1.7699036197510363 L45.13788768837596,-1.7992369939817905 L45.11994007668512,-1.8284163474408837 L45.09927332357098,-1.857416348592655 " />
			<path d="M44.113443405129644,-2110.233627496265 L44.250220918444306,-2110.274284004778 L44.379189124396824,-2110.317402351533 " />
			<path d="M45.078076986581884,-2111.2491211296697 L45.05269986333515,-2111.277286040673 L45.0247405922546,-2111.305206919646 L44.96117197373173,-2111.3602227244824 L44.887585287207216,-2111.4139832015417 L44.80422843872458,-2111.466307237258 L44.711382249006775,-2111.5170185572915 L44.609359507399766,-2111.5659463203747 L44.498503918117144,-2111.612925693863 L44.37918894233567,-2111.6577984090377 " />
			<path d="M-10.496977614589321,-21.75393576230406 L-10.604174656900819,-21.790124159020753 L-10.716875290594842,-21.824610808183735 L-10.834808009973411,-21.857312628434503 L-10.957688704785856,-21.88815083822373 L-11.085221344675299,-21.917051145602926 L-11.2170986923417,-21.943943927200248 L-11.353003043703447,-21.968764395949293 L-11.49260699327429,-21.991452757166837 L-11.635574222911849,-22.011954352603432 L-11.781560312037483,-22.03021979211995 L-11.930213567375612,-22.046205072672734 L-12.08117587021364,-22.05987168432078 L-12.234083539141297,-22.071186702999576 L-12.388568206191003,-22.08012286983805 L-12.544257704268578,-22.086658656827566 L-12.700776963736365,-22.09077831868481 L-12.857748915988838,-22.092471930783514 L-13.014795401843896,-22.0917354130638 L-13.171538082561472,-22.08857053986136 L-13.327599351294678,-22.082984935632954 L-13.482603242777783,-22.074992056588407 L-13.63617633905947,-22.06461115827343 L-13.787948669099377,-22.05186724918132 L-13.937554600060755,-22.036791030505324 L-14.084633718151984,-22.019418822176743 L-14.228831696894977,-21.999792475367073 L-14.369801150728687,-21.97795927166484 L-14.507202471891366,-21.953971809170127 L-14.640704648565396,-21.927887875781135 L-14.769986062313759,-21.899770309978084 L-14.894735262887021,-21.869686849439802 L-15.014651718534243,-21.837709967857727 " />
			<path d="M-10.497264122138649,-2131.119715092441 L-10.604461164450147,-2131.1559034891575 L-10.717161798144168,-2131.1903901383207 L-10.835094517522737,-2131.2230919585713 L-10.957975212335183,-2131.2539301683605 L-11.085507852224627,-2131.28283047574 L-11.217385199891028,-2131.3097232573373 L-11.353289551252775,-2131.3345437260864 L-11.492893500823616,-2131.3572320873036 L-11.635860730461179,-2131.37773368274 L-11.78184681958681,-2131.395999122257 L-11.93050007492494,-2131.4119844028096 L-12.081462377762968,-2131.425651014458 L-12.234370046690625,-2131.4369660331363 L-12.388854713740331,-2131.445902199975 L-12.544544211817906,-2131.4524379869645 L-12.701063471285693,-2131.4565576488217 L-12.858035423538166,-2131.4582512609204 L-13.015081909393224,-2131.4575147432006 L-13.1718245901108,-2131.454349869998 L-13.327885858844006,-2131.44876426577 L-13.48288975032711,-2131.4407713867254 L-13.636462846608797,-2131.4303904884105 L-13.788235176648705,-2131.4176465793184 L-13.937841107610083,-2131.402570360642 L-14.084920225701312,-2131.3851981523135 L-14.229118204444305,-2131.365571805504 L-14.370087658278015,-2131.3437386018018 L-14.507488979440694,-2131.319751139307 L-14.640991156114724,-2131.293667205918 L-14.770272569863087,-2131.265549640115 L-14.89502177043635,-2131.2354661795766 L-15.01493822608357,-2131.2034892979946 " />
			<path d="M-15.014651718534266,-21.837709967857723 L-38.63278619671712,-15.219501225962366 " />
			<path d="M-38.63278619671712,-15.219501225962365 L-38.75595517353848,-15.183109085519076 L-38.872864964108594,-15.14471996714188 L-38.983190216361066,-15.104440705159444 L-39.0866239025558,-15.062383394042683 L-39.182878173716475,-15.018665076453393 L-39.271685160694865,-14.973407417522417 L-39.35279771963259,-14.926736366263782 L-39.425990119745855,-14.878781805067092 L-39.49105867151897,-14.82967718824359 L-39.547822293558546,-14.779559170631803 L-39.59612301653084,-14.728567227296335 L-39.635826422779715,-14.676843265378173 L-39.66682202040196,-14.624531229176673 L-39.679026481507975,-14.59820012436503 L-39.68902355073876,-14.571776699562285 L-39.6968062715917,-14.545279341619592 L-39.70236922842778,-14.51872648883479 L-39.705708550240125,-14.492136618122041 L-39.706821913347625,-14.465528232154593 " />
			<path d="M-39.706821913347625,-14.465528232154583 L-39.703522417866765,-14.419730015503884 L-39.693630748021576,-14.374026243951985 L-39.67716730222358,-14.328511166938506 L-39.654166031074396,-14.283278644780813 L-39.624674367353485,-14.238421955117076 L-39.58875312820316,-14.194033600550918 L-39.546476389712666,-14.150205117894323 L-39.497931334159894,-14.107026889402174 L-39.443218070225726,-14.064587956387717 L-39.382449426551894,-14.02297583560326 L-39.31575071906786,-13.98227633876482 L-39.243259492566764,-13.942573395592843 L-39.165125237063165,-13.903948880733955 L-39.08150907951764,-13.866482444920628 L-38.992583451563796,-13.83025135071698 L-38.898531733923136,-13.79533031318939 " />
			<path d="M-38.63307270426645,-2124.585280556099 L-38.756241681087815,-2124.5488884156557 L-38.87315147165793,-2124.5104992972783 L-38.9834767239104,-2124.4702200352963 L-39.08691041010513,-2124.4281627241794 L-39.18316468126581,-2124.38444440659 L-39.2719716682442,-2124.339186747659 L-39.353084227181924,-2124.2925156964006 L-39.42627662729519,-2124.2445611352036 L-39.491345179068304,-2124.19545651838 L-39.54810880110788,-2124.1453385007685 L-39.59640952408017,-2124.094346557433 L-39.63611293032905,-2124.042622595515 L-39.66710852795129,-2123.9903105593135 L-39.67931298905731,-2123.963979454502 L-39.68931005828809,-2123.937556029699 L-39.69709277914103,-2123.911058671756 L-39.70265573597711,-2123.8845058189713 L-39.70599505778946,-2123.857915948259 L-39.70710842089696,-2123.8313075622914 " />
			<path d="M-39.70710842089696,-2123.8313075622914 L-39.7038089254161,-2123.7855093456405 L-39.69391725557091,-2123.7398055740887 L-39.67745380977291,-2123.694290497075 L-39.65445253862373,-2123.6490579749175 L-39.62496087490282,-2123.6042012852536 L-39.58903963575249,-2123.5598129306877 L-39.546762897262,-2123.515984448031 L-39.49821784170923,-2123.472806219539 L-39.44350457777506,-2123.4303672865244 L-39.38273593410123,-2123.38875516574 L-39.31603722661719,-2123.3480556689015 L-39.2435460001161,-2123.3083527257295 L-39.1654117446125,-2123.2697282108707 L-39.08179558706697,-2123.2322617750574 L-38.99286995911313,-2123.1960306808537 L-38.89881824147247,-2123.161109643326 " />
			<path d="M-38.898531733923136,-13.795330313189394 L15.97792133055118,5.66658637021372 " />
			<path d="M-38.89881824147247,-2123.161109643326 L15.977634823001852,-2103.6991929599235 " />
			<path d="M15.977921330551172,5.666586370213722 L16.08511837286267,5.702774766930413 L16.197819006556692,5.737261416093396 L16.31575172593526,5.769963236344164 L16.438632420747705,5.800801446133391 L16.566165060637147,5.8297017535125875 L16.69804240830355,5.856594535109908 L16.833946759665295,5.881415003858955 L16.97355070923614,5.904103365076498 L17.116517938873702,5.924604960513095 L17.262504027999334,5.942870400029613 L17.411157283337463,5.958855680582394 L17.562119586175495,5.97252229223044 L17.71502725510315,5.983837310909237 L17.869511922152856,5.99277347774771 L18.02520142023043,5.99930926473723 L18.181720679698216,6.00342892659447 L18.338692631950686,6.005122538693176 L18.495739117805748,6.004386020973461 L18.652481798523322,6.001221147771023 L18.80854306725653,5.995635543542616 L18.963546958739634,5.987642664498068 L19.11712005502132,5.977261766183091 L19.26889238506123,5.964517857090984 L19.418498316022607,5.949441638414984 L19.565577434113838,5.932069430086404 L19.709775412856832,5.912443083276734 L19.85074486669054,5.890609879574501 L19.988146187853218,5.866622417079787 L20.121648364527246,5.840538483690796 L20.25092977827561,5.812420917887746 L20.375678978848875,5.7823374573494615 L20.495595434496106,5.7503605757673855 " />
			<path d="M15.977634823001846,-2103.6991929599235 L16.084831865313344,-2103.663004563207 L16.197532499007366,-2103.6285179140436 L16.315465218385935,-2103.595816093793 L16.43834591319838,-2103.564977884004 L16.56587855308782,-2103.5360775766244 L16.697755900754224,-2103.509184795027 L16.83366025211597,-2103.484364326278 L16.973264201686813,-2103.4616759650607 L17.116231431324376,-2103.441174369624 L17.262217520450008,-2103.4229089301075 L17.410870775788137,-2103.4069236495548 L17.56183307862617,-2103.3932570379066 L17.714740747553822,-2103.381942019228 L17.86922541460353,-2103.3730058523893 L18.024914912681105,-2103.3664700654 L18.18143417214889,-2103.3623504035427 L18.33840612440136,-2103.360656791444 L18.49545261025642,-2103.3613933091638 L18.652195290973996,-2103.364558182366 L18.808256559707203,-2103.3701437865943 L18.96326045119031,-2103.378136665639 L19.116833547471995,-2103.388517563954 L19.268605877511902,-2103.401261473046 L19.41821180847328,-2103.416337691722 L19.56529092656451,-2103.433709900051 L19.709488905307506,-2103.4533362468605 L19.850458359141214,-2103.4751694505626 L19.98785968030389,-2103.4991569130575 L20.12136185697792,-2103.525240846446 L20.250643270726282,-2103.5533584122495 L20.37539247129955,-2103.5834418727877 L20.49530892694678,-2103.61541875437 " />
			<path d="M44.113729912678984,-0.8678481661279691 L20.49559543449613,5.750360575767386 " />
			<path d="M44.113443405129644,-2110.233627496265 L20.49530892694679,-2103.6154187543693 " />
			<path d="M-314.244095766552,63.36118354489512 L-259.3676426792006,82.82310022593016 " />
			<path d="M-314.24409576655205,-2046.0046760212224 L-259.3676426792007,-2026.5427593401876 " />
			<path d="M-259.6333882147326,84.24727061528758 L-259.5102192440984,84.21087850435586 L-259.39330945906033,84.17248941561266 L-259.2829842116362,84.13221018329324 L-259.1795505295212,84.0901529017745 L-259.0832962616508,84.0464346136239 L-258.9944892771368,84.00117698387788 L-258.9133767198053,83.9545059614564 L-258.8401843204126,83.90655142865552 L-258.77511576845154,83.85744683969378 L-258.71835214529756,83.80732884931821 L-258.67005142027125,83.75633693250334 L-258.63034801102077,83.70461299630185 L-258.59935240944634,83.6523009849268 L-258.5871479460083,83.62596989216819 L-258.577150874209,83.59954647916463 L-258.56936815055224,83.57304913275718 L-258.5638051906784,83.54649629123375 L-258.56046586559603,83.5199064314988 L-258.55935249898835,83.493298056216 " />
			<path d="M-258.55935249898835,83.493298056216 L-258.56265198864077,83.44749985218444 L-258.572543653453,83.40179609234056 L-258.58900709502154,83.35628102611105 L-258.6120083627494,83.31104851380219 L-258.64150002385855,83.26619183304291 L-258.67742126120487,83.2218034864295 L-258.719697998694,83.17797501076838 L-258.7682430540398,83.13479678831078 L-258.8229563185498,83.09235786036807 L-258.88372496356783,83.05074574369252 L-258.95042367314664,83.01004625000184 L-259.02291490247245,82.97034330901998 L-259.10104916150715,82.9317187953988 L-259.1846653232637,82.89425235987764 L-259.27359095607926,82.85802126502924 L-259.3676426792006,82.82310022593016 " />
			<path d="M-259.63338821473263,-2025.11858895083 L-259.49661079919144,-2025.159245397805 L-259.3676426792007,-2025.2023636796157 " />
			<path d="M-259.18620376849276,-2026.4722637640366 L-259.2744064589037,-2026.5081552844522 L-259.3676426792007,-2026.5427593401873 " />
			<path d="M-314.244095766552,63.36118354489513 L-314.351292808906,63.32499514755257 L-314.4639934426406,63.29050849650449 L-314.5819261620576,63.257806673113954 L-314.7048068569063,63.22696845893783 L-314.8323394968297,63.198068145935196 L-314.9642168445277,63.17117535749142 L-315.10012119591863,63.146354880689415 L-315.23972514551616,63.12366651023181 L-315.38269237517784,63.10316490439029 L-315.5286784643249,63.084899453329065 L-315.67733171968183,63.06891416011961 L-315.82829402253594,63.05524753473341 L-315.9812016914769,63.043932501268074 L-316.1356863585371,63.0349963186303 L-316.2913758566224,63.02846051486678 L-316.44789511609497,63.02434083530125 L-316.60486706834945,63.02264720460263 L-316.76191355420366,63.0233837028756 L-316.91865623491753,63.026548555831326 L-317.07471750364414,63.03213413906183 L-317.22972139511785,63.040126996407864 L-317.38329449138735,63.05050787237599 L-317.5350668214123,63.06325175852675 L-317.68467275235594,63.07832795372216 L-317.83175187042673,63.095700138087494 L-317.9759498491467,63.115326460508975 L-318.1169193029547,63.13715963945684 L-318.2543206240892,63.161147076890636 L-318.3878228007326,63.18723098497254 L-318.5171042144479,63.21534852528329 L-318.6418534149858,63.24543196020549 L-318.7617698705954,63.277408816109386 " />
			<path d="M-318.76176987059546,63.27740881610941 L-342.37990434099913,69.89561239018212 " />
			<path d="M-342.37990434099913,69.89561239018212 L-342.50307331163333,69.93200450111384 L-342.6199830966714,69.97039358985704 L-342.73030834409553,70.01067282217646 L-342.83374202621053,70.0527301036952 L-342.9299962940809,70.0964483918458 L-343.01880327859493,70.14170602159182 L-343.0999158359264,70.1883770440133 L-343.1731082353191,70.23633157681418 L-343.23817678728017,70.28543616577592 L-343.29494041043415,70.33555415615149 L-343.34324113546046,70.38654607296635 L-343.38294454471094,70.43827000916785 L-343.41394014628537,70.4905820205429 L-343.4261446097234,70.51691311330151 L-343.4361416815227,70.54333652630507 L-343.4439244051795,70.56983387271252 L-343.4494873650533,70.59638671423595 L-343.4528266901357,70.6229765739709 L-343.45394005674336,70.64958494925368 " />
			<path d="M-343.45394005674336,70.6495849492537 L-343.45064056709094,70.69538315328526 L-343.4407489022787,70.74108691312914 L-343.42428546071017,70.78660197935865 L-343.4012841929823,70.83183449166751 L-343.37179253187315,70.87669117242679 L-343.33587129452684,70.9210795190402 L-343.2935945570377,70.96490799470132 L-343.24504950169194,71.00808621715892 L-343.1903362371819,71.05052514510163 L-343.1295675921639,71.09213726177718 L-343.06286888258506,71.13283675546786 L-342.99037765325926,71.17253969644972 L-342.91224339422456,71.2111642100709 L-342.828627232468,71.24863064559206 L-342.73970159965245,71.28486174044046 L-342.6456498765311,71.31978277953954 " />
			<path d="M-343.4539400567434,-2038.7162746168638 L-343.450640567091,-2038.6704764128322 L-343.44074890227876,-2038.6247726529882 L-343.4242854607102,-2038.5792575867588 L-343.40128419298236,-2038.53402507445 L-343.3717925318732,-2038.4891683936908 L-343.3358712945269,-2038.4447800470773 L-343.29359455703775,-2038.400951571416 L-343.245049501692,-2038.3577733489585 L-343.19033623718195,-2038.315334421016 L-343.12956759216394,-2038.2737223043403 L-343.0628688825851,-2038.2330228106496 L-342.9903776532593,-2038.1933198696677 L-342.9122433942246,-2038.1546953560464 L-342.8286272324681,-2038.1172289205253 L-342.7397015996525,-2038.080997825677 L-342.64564987653114,-2038.046076786578 " />
			<path d="M-342.6456498765311,71.31978277953954 L-287.7691967891797,90.78169946057457 " />
			<path d="M-342.64564987653114,-2038.046076786578 L-287.7691967891798,-2018.584160105543 " />
			<path d="M-287.7691967891797,90.78169946057459 L-287.6619997468257,90.81788785791714 L-287.54929911309114,90.85237450896521 L-287.4313663936741,90.88507633235577 L-287.3084856988254,90.91591454653188 L-287.180953058902,90.94481485953452 L-287.049075711204,90.97170764797829 L-286.9131713598131,90.9965281247803 L-286.77356741021555,91.01921649523791 L-286.63060018055387,91.03971810107943 L-286.4846140914068,91.05798355214064 L-286.3359608360499,91.0739688453501 L-286.18499853319577,91.0876354707363 L-286.0320908642548,91.09895050420164 L-285.8776061971946,91.10788668683941 L-285.72191669910933,91.11442249060293 L-285.56539743963674,91.11854217016847 L-285.40842548738226,91.12023580086709 L-285.25137900152805,91.11949930259411 L-285.0946363208142,91.11633444963839 L-284.9385750520876,91.11074886640789 L-284.78357116061386,91.10275600906185 L-284.62999806434436,91.09237513309373 L-284.47822573431944,91.07963124694297 L-284.3286198033758,91.06455505174755 L-284.181540685305,91.04718286738222 L-284.03734270658504,91.02755654496073 L-283.896373252777,91.00572336601287 L-283.7589719316425,90.98173592857907 L-283.62546975499913,90.95565202049717 L-283.4961883412838,90.92753448018642 L-283.3714391407459,90.89745104526422 L-283.25152268513625,90.86547418936033 " />
			<path d="M-287.7691967891798,-2018.5841601055429 L-287.66199974682576,-2018.5479717082003 L-287.5492991130912,-2018.5134850571521 L-287.4313663936742,-2018.4807832337617 L-287.30848569882545,-2018.4499450195856 L-287.18095305890205,-2018.421044706583 L-287.04907571120407,-2018.3941519181392 L-286.91317135981313,-2018.3693314413372 L-286.7735674102156,-2018.3466430708795 L-286.6306001805539,-2018.326141465038 L-286.48461409140685,-2018.3078760139767 L-286.33596083604994,-2018.2918907207672 L-286.1849985331958,-2018.2782240953811 L-286.0320908642549,-2018.2669090619158 L-285.87760619719467,-2018.257972879278 L-285.7219166991094,-2018.2514370755146 L-285.5653974396368,-2018.247317395949 L-285.4084254873823,-2018.2456237652505 L-285.2513790015281,-2018.2463602635232 L-285.09463632081423,-2018.2495251164792 L-284.93857505208763,-2018.2551106997096 L-284.7835711606139,-2018.2631035570555 L-284.6299980643444,-2018.2734844330237 L-284.4782257343195,-2018.2862283191744 L-284.32861980337583,-2018.3013045143698 L-284.18154068530504,-2018.3186766987353 L-284.0373427065851,-2018.3383030211567 L-283.89637325277704,-2018.3601362001045 L-283.7589719316426,-2018.3841236375383 L-283.6254697549992,-2018.4102075456203 L-283.49618834128387,-2018.438325085931 L-283.37143914074596,-2018.4684085208532 L-283.2515226851363,-2018.500385376757 " />
			<path d="M-259.6333882147326,84.24727061528759 L-283.25152268513625,90.86547418936033 " />
			<path d="M-259.63338821473263,-2025.11858895083 L-283.2515226851363,-2018.5003853767573 " />
			<path d="M-617.9912428795913,148.4763079911974 L-563.1147897922399,167.93822467223245 " />
			<path d="M-617.9912428795914,-1960.88955157492 L-563.11478979224,-1941.4276348938852 " />
			<path d="M-563.380535327772,169.3623950615899 L-563.2573663571377,169.3260029506582 L-563.1404565720998,169.287613861915 L-563.0301313246756,169.24733462959557 L-562.9266976425605,169.20527734807683 L-562.8304433746902,169.16155905992622 L-562.7416363901762,169.11630143018021 L-562.6605238328447,169.06963040775872 L-562.5873314334519,169.02167587495782 L-562.522262881491,168.9725712859961 L-562.4654992583369,168.92245329562053 L-562.4171985333106,168.87146137880566 L-562.3774951240601,168.81973744260418 L-562.3464995224857,168.7674254312291 L-562.3342950590477,168.7410943384705 L-562.3242979872484,168.71467092546695 L-562.3165152635917,168.68817357905948 L-562.3109523037177,168.66162073753608 L-562.3076129786355,168.6350308778011 L-562.3064996120277,168.60842250251832 " />
			<path d="M-562.3064996120277,168.60842250251832 L-562.3097991016801,168.56262429848675 L-562.3196907664924,168.5169205386429 L-562.3361542080609,168.47140547241338 L-562.3591554757887,168.4261729601045 L-562.3886471368979,168.38131627934524 L-562.4245683742442,168.3369279327318 L-562.4668451117334,168.2930994570707 L-562.5153901670792,168.24992123461308 L-562.5701034315892,168.20748230667039 L-562.6308720766073,168.16587018999482 L-562.697570786186,168.12517069630417 L-562.7700620155118,168.0854677553223 L-562.8481962745465,168.0468432417011 L-562.9318124363031,168.00937680617994 L-563.0207380691187,167.97314571133154 L-563.11478979224,167.93822467223248 " />
			<path d="M-563.3805353277721,-1940.0034645045275 L-563.2437579122308,-1940.0441209515027 L-563.1147897922399,-1940.0872392333133 " />
			<path d="M-617.9912428795914,148.47630799119744 L-618.0984399219454,148.4401195938549 L-618.21114055568,148.40563294280682 L-618.329073275097,148.37293111941628 L-618.4519539699456,148.34209290524015 L-618.579486609869,148.3131925922375 L-618.7113639575671,148.28629980379375 L-618.8472683089581,148.26147932699175 L-618.9868722585555,148.23879095653413 L-619.1298394882172,148.2182893506926 L-619.2758255773643,148.2000238996314 L-619.4244788327212,148.18403860642192 L-619.5754411355753,148.17037198103571 L-619.7283488045163,148.1590569475704 L-619.8828334715765,148.1501207649326 L-620.0385229696617,148.1435849611691 L-620.1950422291344,148.13946528160358 L-620.3520141813889,148.13777165090494 L-620.509060667243,148.1385081491779 L-620.6658033479569,148.14167300213364 L-620.8218646166836,148.14725858536414 L-620.9768685081573,148.15525144271018 L-621.1304416044268,148.16563231867832 L-621.2822139344516,148.17837620482905 L-621.4318198653954,148.19345240002448 L-621.5788989834662,148.2108245843898 L-621.723096962186,148.23045090681128 L-621.8640664159941,148.25228408575916 L-622.0014677371286,148.27627152319295 L-622.1349699137719,148.30235543127486 L-622.2642513274873,148.3304729715856 L-622.3890005280251,148.3605564065078 L-622.5089169836348,148.39253326241172 " />
			<path d="M-622.5089169836347,148.39253326241166 L-646.1270514540383,155.01073683648437 " />
			<path d="M-646.1270514540383,155.0107368364844 L-646.2502204246726,155.0471289474161 L-646.3671302097107,155.0855180361593 L-646.4774554571349,155.12579726847872 L-646.5808891392498,155.16785454999746 L-646.6771434071202,155.21157283814807 L-646.7659503916342,155.25683046789408 L-646.8470629489657,155.30350149031557 L-646.9202553483584,155.35145602311647 L-646.9853239003194,155.40056061207818 L-647.0420875234735,155.45067860245376 L-647.0903882484997,155.50167051926863 L-647.1300916577502,155.5533944554701 L-647.1610872593246,155.6057064668452 L-647.1732917227627,155.6320375596038 L-647.1832887945619,155.65846097260734 L-647.1910715182187,155.6849583190148 L-647.1966344780926,155.7115111605382 L-647.1999738031749,155.73810102027318 L-647.2010871697827,155.76470939555597 " />
			<path d="M-647.2010871697827,155.76470939555597 L-647.1977876801302,155.81050759958754 L-647.187896015318,155.8562113594314 L-647.1714325737495,155.9017264256609 L-647.1484313060216,155.94695893796978 L-647.1189396449124,155.99181561872905 L-647.0830184075661,156.03620396534248 L-647.040741670077,156.0800324410036 L-646.9921966147311,156.1232106634612 L-646.9374833502211,156.1656495914039 L-646.8767147052031,156.20726170807947 L-646.8100159956243,156.24796120177012 L-646.7375247662985,156.287664142752 L-646.6593905072639,156.32628865637318 L-646.5757743455073,156.36375509189435 L-646.4868487126917,156.39998618674275 L-646.3927969895703,156.4349072258418 " />
			<path d="M-647.2010871697828,-1953.6011501705616 L-647.1977876801303,-1953.55535196653 L-647.1878960153181,-1953.509648206686 L-647.1714325737496,-1953.4641331404566 L-647.1484313060217,-1953.4189006281479 L-647.1189396449125,-1953.3740439473886 L-647.0830184075662,-1953.3296556007751 L-647.0407416700771,-1953.2858271251139 L-646.9921966147313,-1953.2426489026564 L-646.9374833502212,-1953.2002099747137 L-646.8767147052032,-1953.158597858038 L-646.8100159956244,-1953.1178983643474 L-646.7375247662986,-1953.0781954233655 L-646.659390507264,-1953.0395709097443 L-646.5757743455074,-1953.0021044742232 L-646.4868487126918,-1952.965873379375 L-646.3927969895705,-1952.9309523402758 " />
			<path d="M-646.3927969895703,156.4349072258418 L-591.516343902219,175.89682390687688 " />
			<path d="M-646.3927969895705,-1952.9309523402756 L-591.5163439022191,-1933.4690356592407 " />
			<path d="M-591.516343902219,175.89682390687685 L-591.4091468598649,175.9330123042194 L-591.2964462261303,175.96749895526747 L-591.1785135067133,176.000200778658 L-591.0556328118647,176.03103899283414 L-590.9281001719413,176.0599393058368 L-590.7962228242433,176.08683209428054 L-590.6603184728523,176.11165257108254 L-590.5207145232548,176.13434094154016 L-590.3777472935932,176.1548425473817 L-590.231761204446,176.1731079984429 L-590.0831079490891,176.18909329165237 L-589.9321456462351,176.20275991703858 L-589.7792379772941,176.21407495050389 L-589.6247533102338,176.22301113314168 L-589.4690638121486,176.2295469369052 L-589.312544552676,176.2336666164707 L-589.1555726004215,176.23536024716935 L-588.9985261145673,176.23462374889638 L-588.8417834338535,176.23145889594065 L-588.6857221651268,176.22587331271015 L-588.5307182736531,176.2178804553641 L-588.3771451773836,176.20749957939597 L-588.2253728473587,176.19475569324524 L-588.0757669164151,176.1796794980498 L-587.9286877983442,176.1623073136845 L-587.7844898196244,176.142680991263 L-587.6435203658162,176.12084781231513 L-587.5061190446818,176.09686037488135 L-587.3726168680384,176.07077646679943 L-587.2433354543231,176.04265892648868 L-587.1185862537852,176.01257549156648 L-586.9986697981756,175.98059863566257 " />
			<path d="M-591.5163439022191,-1933.4690356592407 L-591.409146859865,-1933.4328472618981 L-591.2964462261305,-1933.39836061085 L-591.1785135067134,-1933.3656587874596 L-591.0556328118648,-1933.3348205732834 L-590.9281001719414,-1933.3059202602808 L-590.7962228242434,-1933.279027471837 L-590.6603184728524,-1933.254206995035 L-590.5207145232549,-1933.2315186245773 L-590.3777472935933,-1933.211017018736 L-590.2317612044461,-1933.1927515676746 L-590.0831079490893,-1933.176766274465 L-589.9321456462352,-1933.163099649079 L-589.7792379772942,-1933.1517846156137 L-589.6247533102339,-1933.1428484329758 L-589.4690638121488,-1933.1363126292124 L-589.3125445526761,-1933.1321929496469 L-589.1555726004216,-1933.1304993189483 L-588.9985261145674,-1933.131235817221 L-588.8417834338536,-1933.134400670177 L-588.6857221651269,-1933.1399862534074 L-588.5307182736532,-1933.1479791107533 L-588.3771451773837,-1933.1583599867215 L-588.2253728473588,-1933.1711038728722 L-588.0757669164152,-1933.1861800680676 L-587.9286877983443,-1933.2035522524332 L-587.7844898196245,-1933.2231785748545 L-587.6435203658164,-1933.2450117538024 L-587.5061190446819,-1933.2689991912362 L-587.3726168680386,-1933.2950830993182 L-587.2433354543232,-1933.3232006396288 L-587.1185862537853,-1933.353284074551 L-586.9986697981757,-1933.385260930455 " />
			<path d="M-563.3805353277719,169.36239506158987 L-586.9986697981756,175.98059863566257 " />
			<path d="M-563.380535327772,-1940.0034645045275 L-586.9986697981757,-1933.385260930455 " />
			<path d="M-921.7383899926305,233.59143243749966 L-866.8619369052791,253.05334911853473 " />
			<path d="M-867.1276824408111,254.4775195078921 L-867.0045134701768,254.4411273969604 L-866.8876036851389,254.4027383082172 L-866.7772784377147,254.3624590758978 L-866.6738447555996,254.32040179437905 L-866.5775904877293,254.27668350622844 L-866.4887835032152,254.23142587648243 L-866.4076709458838,254.18475485406094 L-866.334478546491,254.13680032126004 L-866.2694099945301,254.08769573229833 L-866.212646371376,254.03757774192275 L-866.1643456463497,253.98658582510788 L-866.1246422370992,253.9348618889064 L-866.0936466355248,253.88254987753132 L-866.0814421720868,253.85621878477272 L-866.0714451002875,253.82979537176917 L-866.0636623766308,253.8032980253617 L-866.0580994167568,253.7767451838383 L-866.0547600916746,253.75015532410333 L-866.0536467250668,253.72354694882054 " />
			<path d="M-866.0536467250668,253.72354694882054 L-866.0569462147192,253.67774874478897 L-866.0668378795315,253.6320449849451 L-866.0833013211,253.5865299187156 L-866.1063025888278,253.54129740640673 L-866.135794249937,253.49644072564746 L-866.1717154872833,253.45205237903403 L-866.2139922247725,253.4082239033729 L-866.2625372801183,253.3650456809153 L-866.3172505446283,253.3226067529726 L-866.3780191896464,253.28099463629704 L-866.4447178992251,253.24029514260639 L-866.5172091285509,253.20059220162452 L-866.5953433875856,253.16196768800333 L-866.6789595493422,253.12450125248216 L-866.7678851821578,253.08827015763376 L-866.8619369052791,253.0533491185347 " />
			<path d="M-867.1276824408112,-1854.8883400582254 L-866.9909050252699,-1854.9289965052005 L-866.8619369052791,-1854.9721147870112 " />
			<path d="M-921.7383899926305,233.59143243749966 L-921.8455870349845,233.5552440401571 L-921.9582876687191,233.52075738910904 L-922.0762203881361,233.4880555657185 L-922.1991010829847,233.45721735154237 L-922.3266337229081,233.42831703853972 L-922.4585110706062,233.40142425009597 L-922.5944154219972,233.37660377329397 L-922.7340193715946,233.35391540283635 L-922.8769866012562,233.33341379699482 L-923.0229726904034,233.3151483459336 L-923.1716259457603,233.29916305272414 L-923.3225882486144,233.28549642733793 L-923.4754959175553,233.27418139387262 L-923.6299805846156,233.26524521123483 L-923.7856700827008,233.25870940747131 L-923.9421893421735,233.2545897279058 L-924.099161294428,233.25289609720716 L-924.2562077802821,233.25363259548013 L-924.412950460996,233.25679744843586 L-924.5690117297227,233.26238303166636 L-924.7240156211964,233.2703758890124 L-924.8775887174659,233.28075676498054 L-925.0293610474907,233.29350065113127 L-925.1789669784345,233.3085768463267 L-925.3260460965053,233.32594903069202 L-925.4702440752251,233.3455753531135 L-925.6112135290332,233.36740853206138 L-925.7486148501677,233.39139596949516 L-925.882117026811,233.41747987757708 L-926.0113984405264,233.44559741788783 L-926.1361476410642,233.47568085281003 L-926.2560640966739,233.50765770871394 " />
			<path d="M-926.2560640966739,233.5076577087139 L-949.8741985670775,240.12586128278662 " />
			<path d="M-949.8741985670774,240.12586128278662 L-949.9973675377117,240.16225339371832 L-950.1142773227498,240.20064248246152 L-950.2246025701739,240.24092171478094 L-950.3280362522889,240.28297899629968 L-950.4242905201593,240.3266972844503 L-950.5130975046733,240.3719549141963 L-950.5942100620048,240.4186259366178 L-950.6674024613975,240.4665804694187 L-950.7324710133585,240.5156850583804 L-950.7892346365126,240.56580304875598 L-950.8375353615388,240.61679496557085 L-950.8772387707893,240.66851890177233 L-950.9082343723637,240.7208309131474 L-950.9204388358017,240.747162005906 L-950.930435907601,240.77358541890956 L-950.9382186312578,240.80008276531703 L-950.9437815911317,240.82663560684043 L-950.947120916214,240.8532254665754 L-950.9482342828218,240.8798338418582 " />
			<path d="M-950.9482342828218,240.8798338418582 L-950.9449347931693,240.92563204588976 L-950.935043128357,240.97133580573362 L-950.9185796867886,241.01685087196313 L-950.8955784190607,241.062083384272 L-950.8660867579515,241.10694006503127 L-950.8301655206052,241.1513284116447 L-950.787888783116,241.1951568873058 L-950.7393437277702,241.23833510976343 L-950.6846304632602,241.28077403770612 L-950.6238618182422,241.3223861543817 L-950.5571631086634,241.36308564807234 L-950.4846718793376,241.4027885890542 L-950.406537620303,241.4414131026754 L-950.3229214585464,241.47887953819657 L-950.2339958257307,241.51511063304497 L-950.1399441026094,241.55003167214403 " />
			<path d="M-950.9482342828219,-1868.4860257242592 L-950.9449347931694,-1868.4402275202276 L-950.9350431283572,-1868.3945237603837 L-950.9185796867887,-1868.3490086941542 L-950.8955784190608,-1868.3037761818455 L-950.8660867579516,-1868.2589195010862 L-950.8301655206053,-1868.2145311544728 L-950.7878887831162,-1868.1707026788115 L-950.7393437277703,-1868.127524456354 L-950.6846304632603,-1868.0850855284114 L-950.6238618182423,-1868.0434734117357 L-950.5571631086635,-1868.002773918045 L-950.4846718793377,-1867.9630709770631 L-950.4065376203031,-1867.9244464634419 L-950.3229214585465,-1867.8869800279208 L-950.2339958257309,-1867.8507489330725 L-950.1399441026095,-1867.8158278939734 " />
			<path d="M-950.1399441026095,241.55003167214406 L-895.2634910152582,261.0119483531791 " />
			<path d="M-950.1399441026097,-1867.8158278939734 L-895.2634910152583,-1848.3539112129386 " />
			<path d="M-895.2634910152581,261.0119483531791 L-895.156293972904,261.0481367505216 L-895.0435933391694,261.0826234015697 L-894.9256606197524,261.11532522496026 L-894.8027799249038,261.14616343913633 L-894.6752472849804,261.175063752139 L-894.5433699372824,261.2019565405828 L-894.4074655858914,261.2267770173848 L-894.2678616362939,261.2494653878424 L-894.1248944066323,261.2699669936839 L-893.9789083174851,261.2882324447451 L-893.8302550621282,261.30421773795456 L-893.6792927592742,261.3178843633408 L-893.5263850903332,261.32919939680613 L-893.3719004232729,261.3381355794439 L-893.2162109251877,261.3446713832074 L-893.059691665715,261.34879106277293 L-892.9027197134606,261.35048469347157 L-892.7456732276064,261.3497481951986 L-892.5889305468926,261.34658334224287 L-892.4328692781659,261.34099775901234 L-892.2778653866922,261.33300490166636 L-892.1242922904227,261.3226240256982 L-891.9725199603978,261.30988013954743 L-891.8229140294542,261.29480394435205 L-891.6758349113833,261.2774317599867 L-891.5316369326634,261.2578054375652 L-891.3906674788553,261.2359722586173 L-891.2532661577209,261.21198482118353 L-891.1197639810775,261.18590091310165 L-890.9904825673622,261.1577833727909 L-890.8657333668243,261.1276999378687 L-890.7458169112147,261.0957230819648 " />
			<path d="M-895.2634910152582,-1848.3539112129383 L-895.1562939729041,-1848.3177228155957 L-895.0435933391695,-1848.2832361645476 L-894.9256606197525,-1848.2505343411572 L-894.8027799249039,-1848.219696126981 L-894.6752472849805,-1848.1907958139784 L-894.5433699372825,-1848.1639030255346 L-894.4074655858915,-1848.1390825487326 L-894.267861636294,-1848.116394178275 L-894.1248944066324,-1848.0958925724335 L-893.9789083174852,-1848.0776271213722 L-893.8302550621283,-1848.0616418281627 L-893.6792927592743,-1848.0479752027766 L-893.5263850903333,-1848.0366601693113 L-893.371900423273,-1848.0277239866734 L-893.2162109251879,-1848.02118818291 L-893.0596916657151,-1848.0170685033445 L-892.9027197134607,-1848.015374872646 L-892.7456732276065,-1848.0161113709187 L-892.5889305468927,-1848.0192762238746 L-892.432869278166,-1848.024861807105 L-892.2778653866923,-1848.032854664451 L-892.1242922904228,-1848.0432355404191 L-891.9725199603979,-1848.0559794265698 L-891.8229140294543,-1848.0710556217653 L-891.6758349113834,-1848.0884278061308 L-891.5316369326636,-1848.108054128552 L-891.3906674788554,-1848.1298873075 L-891.253266157721,-1848.1538747449338 L-891.1197639810777,-1848.1799586530158 L-890.9904825673623,-1848.2080761933264 L-890.8657333668244,-1848.2381596282487 L-890.7458169112148,-1848.2701364841525 " />
			<path d="M-867.1276824408111,254.4775195078921 L-890.7458169112148,261.0957230819648 " />
			<path d="M-867.1276824408112,-1854.8883400582251 L-890.7458169112149,-1848.2701364841525 " />
			<path d="M-1235.0523036530572,321.38733058192156 L-1180.1758505632038,340.8492472622555 " />
			<path d="M-1180.4415960985527,342.27341718947326 L-1180.318427133304,342.23702510458725 L-1180.2015173530763,342.1986360419962 L-1180.0911921098443,342.15835683585317 L-1179.9877584312642,342.11629958045205 L-1179.8915041662358,342.0725813182772 L-1179.8026971838392,342.02732371428175 L-1179.7215846278725,341.98065271730286 L-1179.6483922290677,341.932698209554 L-1179.5833236768979,341.88359364517225 L-1179.5265600527225,341.8334756788238 L-1179.4782593258517,341.7824837854039 L-1179.438555913926,341.73075987188736 L-1179.4075603088431,341.67844788241126 L-1179.395355843339,341.65211680028415 L-1179.3853587692668,341.62569339768805 L-1179.3775760431306,341.5991960614551 L-1179.3720130805725,341.5726432298644 L-1179.3686737526025,341.546053379812 L-1179.3675603829054,341.51944501395303 " />
			<path d="M-1179.3675603829054,341.51944501395303 L-1179.3708598674123,341.47364682108287 L-1179.3807515277758,341.4279430715963 L-1179.3972149655992,341.3824280149085 L-1179.4202162302902,341.33719551131577 L-1179.4497078890718,341.2923388384388 L-1179.4856291247982,341.2479504988673 L-1179.527905861371,341.20412202940264 L-1179.5764509164965,341.1609438122927 L-1179.6311641814727,341.11850488884716 L-1179.6919328276304,341.076892775818 L-1179.758631539007,341.0361932849244 L-1179.831122770771,340.99649034589333 L-1179.909257032863,340.95786583338105 L-1179.9928731982736,340.920399398133 L-1180.0817988353142,340.8841683027293 L-1180.175850563204,340.8492472622555 " />
			<path d="M-1180.4413432882666,-1767.0925132183684 L-1180.304565958314,-1767.1331696112275 L-1180.1755979135658,-1767.1762878359402 " />
			<path d="M-1235.0523036530574,321.3873305819216 L-1235.159500695416,321.35114218402373 L-1235.272201329155,321.3166555313084 L-1235.390134048576,321.2839537051427 L-1235.5130147434288,321.2531154870902 L-1235.6405473833559,321.2242151691193 L-1235.7724247310575,321.19732237462733 L-1235.9083290824515,321.1725018907118 L-1236.047933032052,321.14981351209246 L-1236.1909002617163,321.12931189706063 L-1236.3368863508658,321.1110464358027 L-1236.4855396062246,321.09506113141464 L-1236.6365019090806,321.08139449389495 L-1236.789409578023,321.07007944737046 L-1236.9438942450843,321.0611432507793 L-1237.0995837431703,321.05460743220175 L-1237.2561030026436,321.0504877369973 L-1237.4130749548983,321.0487940898725 L-1237.5701214407522,321.0495305709716 L-1237.7268641214657,321.0526954060472 L-1237.8829253901918,321.0582809707343 L-1238.0379292816644,321.0662738089184 L-1238.1915023779325,321.07665466515226 L-1238.3432747079557,321.0893985310438 L-1238.4928806388975,321.104474705504 L-1238.6399597569662,321.121846868708 L-1238.7841577356835,321.1414731695931 L-1238.9251271894889,321.1633063266813 L-1239.0625285106203,321.18729374198494 L-1239.1960306872602,321.21337762771935 L-1239.3253121009718,321.24149514551925 L-1239.450061301506,321.2715785578214 L-1239.5699777571115,321.3035553910505 " />
			<path d="M-1239.5699777571115,321.3035553910505 L-1263.1881122266639,327.9217544017623 " />
			<path d="M-1263.1881122266639,327.92175440176237 L-1263.3112811919125,327.9581464866484 L-1263.4281909721403,327.9965355492394 L-1263.5385162153723,328.03681475538247 L-1263.6419498939524,328.0788720107836 L-1263.7382041589808,328.12259027295846 L-1263.8270111413774,328.1678478769539 L-1263.908123697344,328.2145188739328 L-1263.981316096149,328.2624733816816 L-1264.0463846483187,328.3115779460634 L-1264.103148272494,328.36169591241185 L-1264.151448999365,328.41268780583175 L-1264.1911524112907,328.4644117193483 L-1264.2221480163735,328.5167237088244 L-1264.2343524818775,328.5430547909515 L-1264.2443495559498,328.5694781935476 L-1264.252132282086,328.59597552978056 L-1264.257695244644,328.6225283613712 L-1264.261034572614,328.6491182114236 L-1264.2621479423112,328.67572657728255 " />
			<path d="M-1264.2621479423112,328.6757265772826 L-1264.2588484578043,328.72152477015277 L-1264.2489567974408,328.76722851963933 L-1264.2324933596174,328.81274357632714 L-1264.2094920949264,328.85797607991987 L-1264.1800004361448,328.9028327527968 L-1264.1440792004184,328.94722109236835 L-1264.1018024638456,328.991049561833 L-1264.0532574087201,329.0342277789429 L-1263.9985441437439,329.0766667023885 L-1263.9377754975862,329.1182788154176 L-1263.8710767862096,329.1589783063112 L-1263.7985855544457,329.1986812453423 L-1263.7204512923536,329.2373057578546 L-1263.636835126943,329.27477219310265 L-1263.5479094899024,329.31100328850636 L-1263.4538577620126,329.3459243289801 " />
			<path d="M-1264.2618951320253,-1780.6902038305593 L-1264.2585956475184,-1780.6444056376893 L-1264.2487039871548,-1780.5987018882026 L-1264.2322405493314,-1780.5531868315147 L-1264.2092392846405,-1780.507954327922 L-1264.179747625859,-1780.4630976550452 L-1264.1438263901325,-1780.4187093154735 L-1264.1015496535597,-1780.374880846009 L-1264.0530045984342,-1780.3317026288992 L-1263.998291333458,-1780.2892637054535 L-1263.9375226873003,-1780.2476515924243 L-1263.8708239759237,-1780.2069521015308 L-1263.7983327441598,-1780.1672491624997 L-1263.7201984820676,-1780.1286246499874 L-1263.636582316657,-1780.0911582147394 L-1263.5476566796165,-1780.0549271193356 L-1263.4536049517267,-1780.0200060788618 " />
			<path d="M-1263.4538577620126,329.34592432898006 L-1208.5774046721592,348.807841009314 " />
			<path d="M-1263.4536049517267,-1780.0200060788623 L-1208.5771518618733,-1760.5580893985282 " />
			<path d="M-1208.5774046721592,348.8078410093141 L-1208.4702076298006,348.8440294072119 L-1208.3575069960616,348.8785160599272 L-1208.2395742766405,348.9112178860929 L-1208.1166935817878,348.9420561041454 L-1207.9891609418607,348.97095642211633 L-1207.857283594159,348.9978492166083 L-1207.7213792427651,349.0226697005238 L-1207.5817752931646,349.04535807914317 L-1207.4388080635003,349.065859694175 L-1207.2928219743508,349.08412515543296 L-1207.144168718992,349.100110459821 L-1206.993206416136,349.1137770973407 L-1206.8402987471936,349.1250921438652 L-1206.6858140801323,349.1340283404563 L-1206.5301245820463,349.1405641590339 L-1206.373605322573,349.14468385423834 L-1206.2166333703183,349.14637750136313 L-1206.0595868844644,349.145641020264 L-1205.9028442037509,349.14247618518846 L-1205.7467829350248,349.13689062050133 L-1205.5917790435522,349.1288977823172 L-1205.4382059472841,349.1185169260834 L-1205.2864336172609,349.10577306019184 L-1205.136827686319,349.09069688573163 L-1204.9897485682504,349.0733247225276 L-1204.845550589533,349.05369842164254 L-1204.7045811357277,349.0318652645543 L-1204.5671798145963,349.0078778492507 L-1204.4336776379564,348.9817939635163 L-1204.3043962242448,348.9536764457164 L-1204.1796470237107,348.92359303341425 L-1204.0597305681051,348.8916162001851 " />
			<path d="M-1208.5771518618733,-1760.558089398528 L-1208.4699548195147,-1760.5219010006301 L-1208.3572541857757,-1760.4874143479149 L-1208.2393214663546,-1760.4547125217491 L-1208.1164407715019,-1760.4238743036967 L-1207.9889081315748,-1760.3949739857258 L-1207.8570307838731,-1760.3680811912338 L-1207.7211264324792,-1760.3432607073182 L-1207.5815224828787,-1760.3205723286987 L-1207.4385552532144,-1760.300070713667 L-1207.2925691640648,-1760.281805252409 L-1207.143915908706,-1760.265819948021 L-1206.99295360585,-1760.2521533105014 L-1206.8400459369077,-1760.240838263977 L-1206.6855612698464,-1760.2319020673856 L-1206.5298717717603,-1760.225366248808 L-1206.373352512287,-1760.2212465536038 L-1206.2163805600323,-1760.2195529064788 L-1206.0593340741784,-1760.220289387578 L-1205.902591393465,-1760.2234542226536 L-1205.746530124739,-1760.2290397873408 L-1205.5915262332662,-1760.2370326255248 L-1205.4379531369982,-1760.2474134817587 L-1205.286180806975,-1760.2601573476502 L-1205.1365748760331,-1760.2752335221105 L-1204.9894957579645,-1760.2926056853144 L-1204.8452977792472,-1760.3122319861995 L-1204.7043283254418,-1760.3340651432877 L-1204.5669270043104,-1760.3580525585912 L-1204.4334248276705,-1760.3841364443258 L-1204.3041434139589,-1760.4122539621255 L-1204.1793942134248,-1760.4423373744278 L-1204.0594777578192,-1760.474314207657 " />
			<path d="M-1180.4415960985527,342.27341718947326 L-1204.0597305681051,348.89161620018507 " />
			<path d="M-1180.4413432882666,-1767.0925132183688 L-1204.059477757819,-1760.4743142076568 " />
			<path d="M-1207.160616181298,-1761.2962669465448 L-1180.6804282154876,-1768.6957211089934 " />
			<path d="M-950.9482342828219,-1832.8906143189038 L-866.9796507393647,-1856.3542576215032 " />
			<path d="M-647.2010871697828,-1917.767772099635 L-562.8748492625102,-1941.331356047462 " />
			<path d="M-343.45394005674336,-2002.6449298803664 L-258.8432899433054,-2026.2879881538847 " />
			<path d="M-39.70710348913473,-2087.522000884271 L44.80433614293329,-2111.1373364161577 " />
			<path d="M45.187765608186005,-1.777339353118986 L45.18776562930948,-1.6218211599357524 " />
			<path d="M-39.706824310369164,-32.113214037960574 L-39.706821913347625,-14.465528232154586 " />
			<path d="M-258.55935249898835,25.960036377219545 L-258.55935249898835,83.493298056216 " />
			<path d="M-343.45394005674336,49.74894584838156 L-343.45394005674336,70.6495849492537 " />
			<path d="M-562.3064996120277,111.07516082352186 L-562.3064996120277,168.60842250251832 " />
			<path d="M-647.2010871697827,134.86407029468387 L-647.2010871697827,155.76470939555597 " />
			<path d="M-866.0536467250666,196.19028526982405 L-866.0536467250666,253.72354694882054 " />
			<path d="M-950.9482342828219,219.97919474098612 L-950.9482342828219,240.87983384185824 " />
			<path d="M-1179.3675534874676,283.98617872364633 L-1179.3675603829054,341.5194450139531 " />
			<path d="M-1264.2621454373423,307.7750894255551 L-1264.2621479423112,328.6757265772825 " />

       </g>

       <!-- solid lines -->
       <g  stroke="rgb(0,0,0)" fill="none">
			<path d="M-44.37950443383864,-33.770378561610386 L44.37950443383864,-2.2920242203721006 " />
			<path d="M46.505468718094384,1.4987822571822083 L46.50290790100776,1.3488636865161405 L46.49523161898055,1.1974898968831242 L46.48245836484851,1.0450255610011614 L46.46461891049967,0.8918379788096916 L46.44175623274208,0.7382961926118621 L46.413925409769014,0.5847700980192939 L46.38119348847071,0.43162955284115945 L46.34363932291253,0.27924348606432053 L46.301353384368674,0.12797900907108462 L46.25443754336891,-0.021799468764267638 L46.203004824283546,-0.16973111796958507 L46.147179133037824,-0.3154595582446511 L46.087094958611715,-0.4586337170125385 L46.02289704904416,-0.5989086751842001 L45.95474006272239,-0.735946498098766 L45.88278819579628,-0.8694170496377387 L45.80721478661552,-0.9989987875518209 L45.72820189814226,-1.1243795380843586 L45.64593987934554,-1.2452572480252622 L45.560626906633956,-1.3613407123836456 L45.4724685064313,-1.4723502759261606 L45.38167706004542,-1.5780185068909427 L45.28847129202305,-1.6780908412541553 L45.19307574322322,-1.7723261959970151 L45.09572022987865,-1.8604975498959049 L44.996639289948334,-1.9423924904363825 L44.896071618095014,-2.0178137255335375 L44.794259490648884,-2.0865795588259006 L44.69144818194264,-2.1485243273978942 L44.58788537342417,-2.203498800876309 L44.48382055697022,-2.251370540939339 L44.37950443383865,-2.2920242203720997 " />
			<path d="M-44.37950443383864,-33.770378561610386 L-44.490595064472615,-33.80562793974295 L-44.546045500588335,-33.82010997820562 L-44.601382154265714,-33.832483245920166 L-44.656567218977465,-33.842739289352586 L-44.711562991763316,-33.85087110147661 L-44.76633189898903,-33.85687312656097 L-44.820836522017096,-33.86074126396513 L-44.87503962277147,-33.862472870940884 L-44.92890416917896,-33.8620667644379 L-44.98239336046996,-33.859523221912 L-45.03547065232103,-33.854843981135595 L-45.08809978182232,-33.84803223901041 L-45.14024479225278,-33.83909264938336 L-45.19187005764609,-33.828031319866966 L-45.242940307130674,-33.8148558076666 " />
			<path d="M-45.24294030713068,-33.8148558076666 L-45.31233820914546,-33.79325395456227 L-45.380526088558895,-33.76768320848003 L-45.44741549566278,-33.73817673843832 L-45.51291966505848,-33.70477281866839 L-45.57695362820438,-33.667514778966996 L-45.6394343236326,-33.6264509484913 L-45.70028070469195,-33.581634593068806 L-45.75941384467732,-33.53312384610378 L-45.81675703920926,-33.48098163316966 L-45.87223590573081,-33.42527559038534 L-45.92577847999266,-33.366077976681176 L-45.9773153094013,-33.30346558006851 L-46.02677954310931,-33.23751961803436 L-46.07410701873073,-33.16832563219036 L-46.11923634556905,-33.09597337731272 L-46.162108984250075,-33.020556704917084 L-46.20266932265601,-32.94217344151933 L-46.240864748062606,-32.860925261740135 L-46.2766457153856,-32.77691755641811 L-46.309965811447945,-32.69025929590234 L-46.34078181518457,-32.60106288870179 L-46.36905375370642,-32.50944403567501 L-46.39474495415118,-32.41552157994904 L-46.41782209125339,-32.31941735276243 L-46.43825523057221,-32.22125601543218 L-46.45601786732078,-32.12116489764971 L-46.471086960746824,-32.01927383231549 L-46.48344296401991,-31.9157149871267 L-46.493069849586554,-31.810622693136267 L-46.499955129960334,-31.70413327050575 L-46.50408987391995,-31.59638485167803 L-46.505468718094384,-31.48751720219925 " />
			<path d="M-1297.3364862751262,317.32950977938657 L-1297.4475769057601,317.294260401254 L-1297.5030273418758,317.2797783627913 L-1297.5583639955532,317.26740509507675 L-1297.613549060265,317.2571490516444 L-1297.6685448330509,317.24901723952036 L-1297.7233137402766,317.24301521443596 L-1297.7778183633047,317.2391470770318 L-1297.832021464059,317.2374154700561 L-1297.8858860104665,317.23782157655904 L-1297.9393752017575,317.24036511908497 L-1297.9924524936087,317.24504435986137 L-1298.0450816231098,317.25185610198656 L-1298.0972266335402,317.26079569161357 L-1298.1488518989336,317.27185702112996 L-1298.1999221484182,317.28503253333037 " />
			<path d="M-1298.1999221484182,317.28503253333037 L-1298.269320050433,317.30663438643467 L-1298.3375079298464,317.3322051325169 L-1298.4043973369503,317.3617116025586 L-1298.469901506346,317.3951155223286 L-1298.533935469492,317.43237356202997 L-1298.5964161649201,317.4734373925056 L-1298.6572625459794,317.51825374792816 L-1298.716395685965,317.56676449489316 L-1298.7737388804967,317.6189067078273 L-1298.8292177470182,317.67461275061163 L-1298.88276032128,317.7338103643158 L-1298.9342971506887,317.7964227609284 L-1298.9837613843968,317.8623687229626 L-1299.0310888600181,317.9315627088066 L-1299.0762181868565,318.0039149636842 L-1299.1190908255376,318.07933163607987 L-1299.1596511639436,318.15771489947764 L-1299.19784658935,318.2389630792568 L-1299.2336275566731,318.32297078457884 L-1299.2669476527356,318.4096290450946 L-1299.2977636564722,318.49882545229514 L-1299.326035594994,318.5904443053219 L-1299.3517267954387,318.6843667610479 L-1299.374803932541,318.7804709882345 L-1299.3952370718598,318.87863232556475 L-1299.4129997086084,318.97872344334723 L-1299.4280688020344,319.08061450868144 L-1299.4404248053074,319.1841733538702 L-1299.450051690874,319.2892656478607 L-1299.4569369712478,319.3957550704912 L-1299.4610717152075,319.5035034893189 L-1299.462450559382,319.6123711387977 " />
			<path d="M-46.505468718094384,-31.487517202199225 L-46.505468718094384,-1.49878225718221 " />
			<path d="M-1299.4624505593818,319.61237113879776 L-1299.4624505593818,349.6011060838147 " />
			<path d="M-46.505468718094384,-1.4987822571822091 L-46.50290790100776,-1.3488636865161396 L-46.49523161898055,-1.197489896883123 L-46.48245836484851,-1.0450255610011612 L-46.46461891049967,-0.891837978809692 L-46.44175623274208,-0.7382961926118624 L-46.413925409769014,-0.5847700980192949 L-46.38119348847071,-0.4316295528411611 L-46.34363932291253,-0.27924348606432225 L-46.30135338436868,-0.12797900907108706 L-46.254437543368915,0.02179946876426453 L-46.203004824283546,0.16973111796958196 L-46.147179133037824,0.31545955824465 L-46.087094958611715,0.45863371701253963 L-46.02289704904416,0.5989086751842008 L-45.95474006272239,0.7359464980987662 L-45.88278819579628,0.8694170496377382 L-45.80721478661552,0.99899878755182 L-45.72820189814226,1.1243795380843573 L-45.64593987934554,1.24525724802526 L-45.560626906633956,1.3613407123836456 L-45.4724685064313,1.4723502759261624 L-45.38167706004541,1.5780185068909445 L-45.28847129202305,1.6780908412541566 L-45.19307574322322,1.7723261959970156 L-45.09572022987865,1.8604975498959049 L-44.996639289948334,1.9423924904363825 L-44.896071618095014,2.017813725533537 L-44.794259490648884,2.0865795588259 L-44.69144818194264,2.148524327397894 L-44.58788537342417,2.203498800876308 L-44.48382055697023,2.2513705409393383 L-44.37950443383866,2.2920242203720966 " />
			<path d="M-1299.462450559382,349.6011060838147 L-1299.4598897422952,349.75102465448083 L-1299.452213460268,349.9023984441138 L-1299.439440206136,350.0548627799958 L-1299.421600751787,350.2080503621873 L-1299.3987380740296,350.3615921483851 L-1299.3709072510565,350.5151182429777 L-1299.3381753297583,350.6682587881558 L-1299.3006211642,350.82064485493265 L-1299.2583352256563,350.9719093319259 L-1299.2114193846564,351.1216878097612 L-1299.159986665571,351.26961945896653 L-1299.1041609743254,351.4153478992416 L-1299.0440767998991,351.5585220580095 L-1298.9798788903317,351.6987970161812 L-1298.91172190401,351.83583483909575 L-1298.8397700370838,351.9693053906347 L-1298.764196627903,352.09888712854877 L-1298.6851837394297,352.2242678790813 L-1298.602921720633,352.3451455890222 L-1298.5176087479215,352.4612290533806 L-1298.4294503477188,352.57223861692313 L-1298.338658901333,352.6779068478879 L-1298.2454531333105,352.7779791822511 L-1298.1500575845107,352.87221453699397 L-1298.052702071166,352.96038589089284 L-1297.9536211312359,353.04228083143335 L-1297.8530534593826,353.1177020665305 L-1297.7512413319364,353.18646789982284 L-1297.6484300232303,353.24841266839485 L-1297.5448672147118,353.30338714187326 L-1297.4408023982578,353.3512588819363 L-1297.3364862751262,353.39191256136905 " />
			<path d="M-44.37950443383864,2.2920242203721006 L44.37950443383864,33.770378561610386 " />
			<path d="M-1297.3364862751262,353.39191256136905 L-1208.5774774074487,384.87026690260734 " />
			<path d="M44.37950443383864,33.770378561610386 L44.490595064472615,33.80562793974295 L44.546045500588335,33.82010997820562 L44.601382154265714,33.832483245920166 L44.656567218977465,33.842739289352586 L44.711562991763316,33.85087110147661 L44.76633189898903,33.85687312656097 L44.8208365220171,33.86074126396513 L44.87503962277147,33.862472870940884 L44.92890416917896,33.8620667644379 L44.98239336046996,33.859523221912 L45.03547065232103,33.854843981135595 L45.08809978182232,33.84803223901041 L45.14024479225278,33.83909264938336 L45.19187005764609,33.828031319866966 L45.24294030713067,33.8148558076666 " />
			<path d="M45.24294030713068,33.8148558076666 L45.31233820914546,33.79325395456227 L45.380526088558895,33.76768320848003 L45.44741549566278,33.73817673843832 L45.51291966505848,33.70477281866839 L45.57695362820438,33.667514778966996 L45.6394343236326,33.6264509484913 L45.70028070469195,33.581634593068806 L45.75941384467732,33.53312384610378 L45.81675703920926,33.48098163316966 L45.87223590573081,33.42527559038534 L45.92577847999266,33.36607797668117 L45.9773153094013,33.30346558006851 L46.02677954310931,33.23751961803436 L46.07410701873073,33.16832563219035 L46.11923634556905,33.09597337731272 L46.162108984250075,33.020556704917084 L46.20266932265601,32.94217344151933 L46.240864748062606,32.860925261740135 L46.2766457153856,32.77691755641811 L46.309965811447945,32.69025929590234 L46.34078181518457,32.60106288870179 L46.36905375370642,32.50944403567501 L46.39474495415118,32.41552157994904 L46.41782209125339,32.31941735276243 L46.43825523057221,32.22125601543218 L46.45601786732078,32.12116489764971 L46.471086960746824,32.01927383231549 L46.48344296401991,31.9157149871267 L46.493069849586554,31.810622693136267 L46.499955129960334,31.70413327050575 L46.50408987391995,31.59638485167803 L46.505468718094384,31.48751720219923 " />
			<path d="M-1208.5774774074487,384.87026690260734 L-1208.4663867768147,384.9055162807399 L-1208.410936340699,384.9199983192026 L-1208.3555996870216,384.93237158691716 L-1208.3004146223097,384.94262763034953 L-1208.245418849524,384.95075944247355 L-1208.1906499422983,384.95676146755795 L-1208.13614531927,384.9606296049621 L-1208.081942218516,384.96236121193783 L-1208.0280776721083,384.96195510543487 L-1207.9745884808174,384.95941156290894 L-1207.9215111889662,384.95473232213254 L-1207.868882059465,384.94792058000735 L-1207.8167370490346,384.93898099038034 L-1207.7651117836413,384.92791966086395 L-1207.7140415341566,384.91474414866354 " />
			<path d="M-1207.7140415341566,384.91474414866354 L-1207.6635611922602,384.89946345541426 L-1207.6137052466008,384.8820880210308 L-1207.5645077592342,384.86262971657493 L-1207.5160023423507,384.84110183614507 L-1207.4682221353119,384.8175190877935 L-1207.421199782009,384.7918975834779 L-1207.37496740856,384.76425482805337 L-1207.329556601362,384.7346097073128 L-1207.2849983855092,384.7029824750843 L-1207.241323203598,384.66939473939317 L-1207.1985608949278,384.63386944769957 L-1207.1567406751137,384.59643087122 L-1207.1158911161267,384.55710458834545 L-1207.076040126774,384.5159174671659 L-1206.9994420624341,384.4280745197383 " />
			<path d="M46.505468718094384,1.49878225718221 L46.505468718094384,31.487517202199225 " />
			<path d="M-11.059195800649377,-2166.4024552980795 L43.87193750721706,-2147.2864325453916 " />
			<path d="M46.00656743683049,-2143.505201986927 L46.003682808119116,-2143.655292067383 L45.99567839123799,-2143.8068046712497 L45.98257346952847,-2143.9593747913946 L45.96439961389483,-2144.1126348730336 L45.94120060674711,-2144.2662156992064 L45.91303233652554,-2144.4197472802507 L45.879962663060326,-2144.5728597451402 L45.84207125409141,-2144.7251842325354 L45.79944939334189,-2144.876353779405 L45.752199760607546,-2145.0260042050686 L45.70043618439222,-2145.1737749885438 L45.644283367684956,-2145.31931013707 L45.58387658753962,-2145.462259043726 L45.51936136918059,-2145.602277332076 L45.45089313541975,-2145.739027685799 L45.37863683222934,-2145.8721806613144 L45.302766531372654,-2146.0014154814417 L45.22346501104992,-2146.12642080818 L45.140923315569566,-2146.2468954927467 L45.05534029510582,-2146.362549301076 L44.96692212665116,-2146.4731036130124 L44.87588181731792,-2146.5782920935358 L44.782438691185455,-2146.6778613343827 L44.68681786092928,-2146.7715714645306 L44.589249685504875,-2146.859196728068 L44.4899692151928,-2146.9405260280605 L44.38921562534198,-2147.0153634351 L44.28723164017535,-2147.0835286593183 L44.1842629480459,-2147.14485748472 L44.08055760955197,-2147.199202164793 L43.9763654599375,-2147.246431778442 L43.87193750721708,-2147.286432545392 " />
			<path d="M-11.059195800649377,-2166.40245529808 L-11.16914729122266,-2166.4366596034606 L-11.278787534292155,-2166.462648858481 L-11.333399345450372,-2166.4725402808535 L-11.387823606157164,-2166.480353628154 L-11.442023959281432,-2166.4860836808193 L-11.495964197269434,-2166.489726610992 L-11.549608286332585,-2166.49127998508 L-11.602920390519174,-2166.4907427653798 L-11.655864895653902,-2166.488115310771 L-11.70840643312929,-2166.4833993764764 L-11.76050990353303,-2166.4765981128903 L-11.812140500095499,-2166.467716063472 L-11.863263731941787,-2166.456759161712 L-11.913845447132688,-2166.443734727168 " />
			<path d="M-11.913845447132697,-2166.443734727168 L-11.98364379579405,-2166.422058279528 L-12.052224697726755,-2166.396379980204 L-12.119498470849024,-2166.366733408272 L-12.185377142389237,-2166.3331573320506 L-12.24977456392644,-2166.295695658406 L-12.31260652404517,-2166.2543973753327 L-12.373790858457308,-2166.2093164878943 L-12.433247557446908,-2166.160511947603 L-12.49089887049755,-2166.108047575328 L-12.546669407965377,-2166.051991977838 L-12.60048623966485,-2165.9924184580877 L-12.652278990238308,-2165.9294049193572 L-12.701979931184638,-2165.863033763382 L-12.749524069426686,-2165.7933917825976 L-12.794849232301589,-2165.7205700466393 L-12.837896148862928,-2165.6446637832564 L-12.87860852738833,-2165.565772253781 L-12.916933128991197,-2165.483998623328 L-12.952819837240298,-2165.399449825886 L-12.986221723696177,-2165.3122364244837 L-13.017095109278674,-2165.2224724666053 L-13.045399621385316,-2165.1302753350556 L-13.071098246685887,-2165.0357655944595 L-13.094157379524134,-2164.939066833601 L-13.114546865863305,-2164.840305503809 L-13.132240042718085,-2164.7396107535983 L-13.14721377302131,-2164.6371142597854 L-13.159448475879937,-2164.5329500552966 L-13.168928152180634,-2164.427254353894 L-13.175640405511553,-2164.3201653720535 L-13.179576458372905,-2164.2118231482186 L-13.18073116365515,-2164.102369359678 " />
			<path d="M-1263.0241481248806,-1816.561385828467 L-1263.1340996154538,-1816.595590133848 L-1263.2437398585232,-1816.621579388868 L-1263.2983516696816,-1816.6314708112404 L-1263.3527759303884,-1816.6392841585412 L-1263.4069762835127,-1816.6450142112064 L-1263.4609165215006,-1816.6486571413793 L-1263.5145606105636,-1816.650210515467 L-1263.5678727147504,-1816.6496732957667 L-1263.620817219885,-1816.647045841158 L-1263.6733587573603,-1816.6423299068638 L-1263.7254622277642,-1816.6355286432777 L-1263.7770928243267,-1816.6266465938593 L-1263.828216056173,-1816.615689692099 L-1263.878797771364,-1816.602665257555 " />
			<path d="M-1263.878797771364,-1816.602665257555 L-1263.9485961200253,-1816.5809888099152 L-1264.0171770219579,-1816.555310510591 L-1264.08445079508,-1816.525663938659 L-1264.1503294666204,-1816.492087862438 L-1264.2147268881577,-1816.4546261887933 L-1264.2775588482764,-1816.4133279057198 L-1264.3387431826884,-1816.3682470182816 L-1264.398199881678,-1816.3194424779902 L-1264.4558511947287,-1816.266978105715 L-1264.5116217321965,-1816.2109225082252 L-1264.5654385638961,-1816.1513489884746 L-1264.6172313144696,-1816.0883354497444 L-1264.6669322554158,-1816.0219642937695 L-1264.7144763936578,-1815.9523223129847 L-1264.7598015565327,-1815.8795005770264 L-1264.8028484730942,-1815.8035943136433 L-1264.8435608516195,-1815.7247027841681 L-1264.8818854532224,-1815.6429291537152 L-1264.9177721614715,-1815.5583803562733 L-1264.9511740479275,-1815.4711669548706 L-1264.98204743351,-1815.3814029969922 L-1265.0103519456165,-1815.2892058654427 L-1265.036050570917,-1815.1946961248466 L-1265.0591097037552,-1815.097997363988 L-1265.0794991900946,-1814.999236034196 L-1265.0971923669492,-1814.8985412839854 L-1265.1121660972524,-1814.7960447901728 L-1265.124400800111,-1814.6918805856837 L-1265.1338804764118,-1814.5861848842812 L-1265.1405927297428,-1814.4790959024403 L-1265.144528782604,-1814.3707536786058 L-1265.1456834878863,-1814.2612998900652 " />
			<path d="M-13.180731163655148,-2164.1023693596785 L-13.116076741029895,-2134.075869156399 " />
			<path d="M-1265.1456834878861,-1814.2612998900656 L-1265.081029065261,-1784.2347996867863 " />
			<path d="M-13.116076741029897,-2134.0758691563988 L-13.113192112318522,-2133.925779075943 L-13.105187695437394,-2133.7742664720763 L-13.09208277372788,-2133.6216963519314 L-13.073908918094233,-2133.4684362702924 L-13.05070991094652,-2133.3148554441195 L-13.022541640724949,-2133.1613238630753 L-12.989471967259735,-2133.0082113981857 L-12.951580558290818,-2132.85588691079 L-12.908958697541298,-2132.704717363921 L-12.861709064806956,-2132.5550669382574 L-12.809945488591625,-2132.407296154782 L-12.753792671884366,-2132.261761006256 L-12.693385891739029,-2132.1188120996 L-12.628870673379993,-2131.97879381125 L-12.560402439619153,-2131.842043457527 L-12.488146136428746,-2131.7088904820116 L-12.412275835572064,-2131.5796556618843 L-12.332974315249324,-2131.454650335146 L-12.250432619768976,-2131.3341756505793 L-12.16484959930523,-2131.21852184225 L-12.07643143085057,-2131.1079675303135 L-11.985391121517324,-2131.00277904979 L-11.89194799538486,-2130.9032098089433 L-11.796327165128686,-2130.8094996787954 L-11.698758989704283,-2130.721874415258 L-11.59947851939221,-2130.640545115266 L-11.498724929541396,-2130.565707708226 L-11.396740944374756,-2130.4975424840077 L-11.293772252245303,-2130.436213658606 L-11.19006691375137,-2130.381868978533 L-11.085874764136904,-2130.334639364884 L-10.981446811416497,-2130.294638597934 " />
			<path d="M-1265.0810290652612,-1784.2347996867863 L-1265.0795685659198,-1784.1306980677025 L-1265.075635224583,-1784.0258563587745 L-1265.0692336149507,-1783.9203964702256 L-1265.0603711808317,-1783.8144410310997 L-1265.0490582274888,-1783.708113246669 L-1265.0353079096546,-1783.6015367551688 L-1265.019136216236,-1783.4948354840328 L-1265.0005619517217,-1783.3881335057881 L-1264.979606714317,-1783.281554893784 L-1264.9562948708287,-1783.1752235779195 L-1264.9306535283317,-1783.0692632005366 L-1264.9027125026485,-1782.9637969726496 L-1264.8725042836795,-1782.8589475306737 L-1264.8400639976235,-1782.7548367938246 L-1264.8054293661328,-1782.6515858223488 L-1264.7686406624514,-1782.5493146767562 L-1264.729740664583,-1782.4481422782117 L-1264.6887746055509,-1782.3481862702547 L-1264.6457901207993,-1782.2495628820018 L-1264.6008371928037,-1782.1523867929966 L-1264.5539680929508,-1782.0567709998584 L-1264.5052373207566,-1781.9628266848906 L-1264.454701540495,-1781.8706630867973 L-1264.4024195153086,-1781.7803873736602 L-1264.3484520388777,-1781.6921045183233 L-1264.2928618647304,-1781.6059171763295 L-1264.2357136332714,-1781.521925566554 L-1264.1770737966197,-1781.4402273546682 L-1264.1170105413357,-1781.3609175395745 L-1264.0555937091356,-1781.2840883429403 L-1263.9928947156786,-1781.2098291019643 L-1263.9289864675238,-1781.1382261654924 " />
			<path d="M43.94968649644997,-2111.178615845246 L44.05963798702325,-2111.1444115398654 L44.16927823009274,-2111.118422284845 L44.22389004125096,-2111.1085308624724 L44.27831430195776,-2111.100717515172 L44.33251465508202,-2111.0949874625067 L44.386454893070024,-2111.091344532334 L44.44009898213318,-2111.089791158246 L44.49341108631977,-2111.090328377946 L44.54635559145449,-2111.092955832555 L44.598897128929885,-2111.0976717668495 L44.65100059933362,-2111.1044730304357 L44.70263119589609,-2111.113355079854 L44.75375442774238,-2111.124311981614 L44.80433614293327,-2111.137336416158 " />
			<path d="M44.80433614293329,-2111.137336416158 L44.874134491594646,-2111.159012863798 L44.94271539352735,-2111.184691163122 L45.00998916664962,-2111.214337735054 L45.07586783818983,-2111.2479138112753 L45.14026525972703,-2111.2853754849198 L45.203097219845766,-2111.3266737679933 L45.2642815542579,-2111.3717546554317 L45.3237382532475,-2111.420559195723 L45.38138956629814,-2111.473023567998 L45.43716010376597,-2111.529079165488 L45.49097693546544,-2111.5886526852382 L45.5427696860389,-2111.6516662239687 L45.59247062698523,-2111.718037379944 L45.64001476522728,-2111.7876793607284 L45.68533992810218,-2111.8605010966867 L45.72838684466352,-2111.9364073600696 L45.769099223188924,-2112.015298889545 L45.80742382479179,-2112.097072519998 L45.84331053304089,-2112.1816213174397 L45.87671241949677,-2112.2688347188423 L45.907585805079265,-2112.3585986767207 L45.93589031718591,-2112.4507958082704 L45.96158894248648,-2112.5453055488665 L45.98464807532473,-2112.642004309725 L46.0050375616639,-2112.740765639517 L46.022730738518675,-2112.8414603897277 L46.0377044688219,-2112.9439568835405 L46.04993917168053,-2113.0481210880293 L46.05941884798123,-2113.153816789432 L46.066131101312145,-2113.2609057712725 L46.0700671541735,-2113.3692479951073 L46.07122185945574,-2113.478701783648 " />
			<path d="M46.00656743683048,-2143.505201986927 L46.07122185945573,-2113.478701783648 " />
			<path d="M-10.49697761458933,-21.75393576230406 L44.37947544988499,-2.2920190789009443 " />
			<path d="M-10.49726412213866,-2131.119715092441 L44.37918894233566,-2111.657798409038 " />
			<path d="M45.09927332357098,-1.8574163485926594 L45.07488204965618,-1.8873968064773192 L45.04758473042695,-1.9171272653268707 L45.01740706211105,-1.9465797384868209 L44.9843774523419,-1.9757265009834493 L44.909889433030216,-2.0329934588176184 L44.82440108254162,-2.088712557442694 L44.728234221657964,-2.142674042385927 L44.62175087039928,-2.19467477570894 L44.50535188519991,-2.2445190007202247 L44.379475449885,-2.2920190789009425 " />
			<path d="M44.37918912439683,-2110.317402351533 L44.473240832551085,-2110.35232341461 L44.56216645066265,-2110.388554532971 L44.645782598030316,-2110.4260209914987 L44.72391684304145,-2110.464645527583 L44.79640805875712,-2110.5043484904472 L44.86310675518502,-2110.5450480054046 L44.92387538755481,-2110.586660142697 L44.978588639960314,-2110.6290990905745 L45.0271336837836,-2110.672277332254 L45.069410410367965,-2110.716105826395 L45.10533163746007,-2110.7604941907193 L45.134823288995534,-2110.805350888395 L45.157824547857174,-2110.850583416801 L45.174287981290874,-2110.896098498287 L45.1841796387205,-2110.941802272526 L45.18747912176015,-2110.9876004900725 " />
			<path d="M45.18747912176015,-2110.9876004900725 L45.1857600333653,-2111.020662358169 L45.180604624197834,-2111.0536887032194 L45.17201843337082,-2111.0866440408136 L45.16001068612331,-2111.1194929628323 L45.14459428390842,-2111.1522001754915 L45.12578579053172,-2111.1847305372658 L45.10360541435461,-2111.2170490966405 L45.078076986581884,-2111.2491211296697 " />
			<path d="M-15.014938226083599,-2131.203489297995 L-38.63307270426645,-2124.5852805560994 " />
			<path d="M-259.3676426792007,-2025.2023636796157 L-259.2735909560794,-2025.2372847187148 L-259.18466532326374,-2025.273515813563 L-259.1010491615072,-2025.3109822490842 L-259.0229149024725,-2025.3496067627054 L-258.9504236731467,-2025.3893097036873 L-258.8837249635679,-2025.430009197378 L-258.8229563185499,-2025.4716213140537 L-258.7682430540399,-2025.5140602419963 L-258.7196979986941,-2025.5572384644538 L-258.6774212612049,-2025.601066940115 L-258.6415000238586,-2025.6454552867285 L-258.61200836274946,-2025.6903119674878 L-258.5890070950216,-2025.7355444797965 L-258.57254365345307,-2025.781059546026 L-258.5626519886408,-2025.82676330587 L-258.5593524989884,-2025.8725615099015 " />
			<path d="M-258.5593524989884,-2025.8725615099015 L-258.5618852057924,-2025.9126891434676 L-258.5694793170772,-2025.952753257327 L-258.58212281180687,-2025.9926904323213 L-258.59979567606575,-2026.0324374502286 L-258.6224699347391,-2026.0719313938346 L-258.6501096957962,-2026.1111097465273 L-258.68267120710516,-2026.1499104912562 L-258.72010292569024,-2026.1882722087023 L-258.7623455993213,-2026.2261341745018 L-258.80933236030637,-2026.2634364553678 L-258.8609888313398,-2026.3001200039628 L-258.91723324323675,-2026.3361267523658 L-258.9779765643692,-2026.3713997039915 L-259.04312264159813,-2026.4058830238118 L-259.11256835247775,-2026.4395221267405 L-259.18620376849276,-2026.4722637640366 " />
			<path d="M-314.24409576655205,-2046.0046760212224 L-314.35129280890607,-2046.040864418565 L-314.46399344264063,-2046.0753510696131 L-314.58192616205764,-2046.1080528930036 L-314.7048068569064,-2046.1388911071797 L-314.8323394968298,-2046.1677914201823 L-314.96421684452775,-2046.194684208626 L-315.1001211959187,-2046.219504685428 L-315.2397251455162,-2046.2421930558858 L-315.3826923751779,-2046.2626946617272 L-315.52867846432497,-2046.2809601127885 L-315.6773317196819,-2046.296945405998 L-315.828294022536,-2046.3106120313842 L-315.98120169147694,-2046.3219270648494 L-316.13568635853716,-2046.3308632474873 L-316.29137585662244,-2046.3373990512507 L-316.447895116095,-2046.3415187308162 L-316.6048670683495,-2046.3432123615148 L-316.7619135542037,-2046.342475863242 L-316.9186562349176,-2046.339311010286 L-317.0747175036442,-2046.3337254270557 L-317.2297213951179,-2046.3257325697098 L-317.3832944913874,-2046.3153516937416 L-317.53506682141233,-2046.302607807591 L-317.684672752356,-2046.2875316123955 L-317.8317518704268,-2046.27015942803 L-317.97594984914673,-2046.2505331056086 L-318.1169193029548,-2046.2286999266607 L-318.25432062408925,-2046.204712489227 L-318.38782280073264,-2046.178628581145 L-318.51710421444795,-2046.1505110408343 L-318.64185341498586,-2046.120427605912 L-318.76176987059546,-2046.0884507500082 " />
			<path d="M-318.7617698705955,-2046.088450750008 L-342.3799043409992,-2039.4702471759354 " />
			<path d="M-342.3799043409992,-2039.4702471759354 L-342.5030733116334,-2039.4338550650036 L-342.61998309667143,-2039.3954659762603 L-342.7303083440956,-2039.355186743941 L-342.8337420262106,-2039.3131294624222 L-342.929996294081,-2039.2694111742717 L-343.018803278595,-2039.2241535445257 L-343.0999158359265,-2039.1774825221041 L-343.17310823531915,-2039.1295279893034 L-343.2381767872802,-2039.0804234003415 L-343.2949404104342,-2039.0303054099659 L-343.3432411354605,-2038.979313493151 L-343.382944544711,-2038.9275895569497 L-343.4139401462854,-2038.8752775455746 L-343.42614460972345,-2038.8489464528159 L-343.43614168152277,-2038.8225230398125 L-343.44392440517953,-2038.796025693405 L-343.44948736505336,-2038.7694728518816 L-343.45282669013574,-2038.7428829921466 L-343.4539400567434,-2038.7162746168638 " />
			<path d="M-563.1147897922399,-1940.0872392333133 L-563.0207380691186,-1940.1221602724124 L-562.931812436303,-1940.158391367261 L-562.8481962745465,-1940.195857802782 L-562.7700620155118,-1940.2344823164033 L-562.697570786186,-1940.274185257385 L-562.6308720766073,-1940.3148847510756 L-562.5701034315892,-1940.3564968677513 L-562.5153901670792,-1940.398935795694 L-562.4668451117335,-1940.4421140181516 L-562.4245683742444,-1940.4859424938127 L-562.388647136898,-1940.5303308404261 L-562.3591554757888,-1940.5751875211854 L-562.336154208061,-1940.6204200334942 L-562.3196907664925,-1940.6659350997238 L-562.3097991016803,-1940.7116388595675 L-562.3064996120278,-1940.7574370635991 " />
			<path d="M-562.3064996120278,-1940.7574370635991 L-562.3097991016803,-1940.8032352676307 L-562.3196907664925,-1940.8489390274747 L-562.336154208061,-1940.894454093704 L-562.3591554757888,-1940.9396866060129 L-562.388647136898,-1940.9845432867721 L-562.4245683742444,-1941.0289316333856 L-562.4668451117335,-1941.0727601090468 L-562.5153901670793,-1941.1159383315044 L-562.5701034315894,-1941.158377259447 L-562.6308720766074,-1941.1999893761226 L-562.6975707861861,-1941.2406888698133 L-562.7700620155119,-1941.2803918107952 L-562.8481962745466,-1941.3190163244165 L-562.9318124363032,-1941.3564827599375 L-563.0207380691188,-1941.3927138547858 L-563.1147897922401,-1941.427634893885 " />
			<path d="M-617.9912428795915,-1960.88955157492 L-618.0984399219456,-1960.9257399722626 L-618.2111405556801,-1960.9602266233107 L-618.3290732750971,-1960.9929284467012 L-618.4519539699457,-1961.0237666608773 L-618.5794866098692,-1961.05266697388 L-618.7113639575672,-1961.0795597623237 L-618.8472683089582,-1961.1043802391257 L-618.9868722585556,-1961.1270686095834 L-619.1298394882173,-1961.1475702154248 L-619.2758255773645,-1961.1658356664861 L-619.4244788327213,-1961.1818209596956 L-619.5754411355754,-1961.1954875850818 L-619.7283488045164,-1961.206802618547 L-619.8828334715766,-1961.215738801185 L-620.0385229696618,-1961.2222746049483 L-620.1950422291345,-1961.2263942845138 L-620.352014181389,-1961.2280879152124 L-620.5090606672431,-1961.2273514169397 L-620.665803347957,-1961.2241865639837 L-620.8218646166837,-1961.2186009807533 L-620.9768685081574,-1961.2106081234074 L-621.1304416044269,-1961.2002272474392 L-621.2822139344518,-1961.1874833612885 L-621.4318198653955,-1961.172407166093 L-621.5788989834663,-1961.1550349817276 L-621.7230969621861,-1961.1354086593062 L-621.8640664159942,-1961.1135754803583 L-622.0014677371287,-1961.0895880429246 L-622.134969913772,-1961.0635041348426 L-622.2642513274874,-1961.035386594532 L-622.3890005280252,-1961.0053031596096 L-622.5089169836349,-1960.9733263037058 " />
			<path d="M-622.5089169836348,-1960.9733263037058 L-646.1270514540385,-1954.3551227296332 " />
			<path d="M-646.1270514540385,-1954.3551227296332 L-646.2502204246728,-1954.3187306187015 L-646.3671302097108,-1954.2803415299582 L-646.477455457135,-1954.2400622976388 L-646.58088913925,-1954.19800501612 L-646.6771434071203,-1954.1542867279695 L-646.7659503916343,-1954.1090290982236 L-646.8470629489658,-1954.062358075802 L-646.9202553483585,-1954.0144035430012 L-646.9853239003195,-1953.9652989540393 L-647.0420875234736,-1953.9151809636637 L-647.0903882484998,-1953.8641890468489 L-647.1300916577503,-1953.8124651106475 L-647.1610872593247,-1953.7601530992724 L-647.1732917227628,-1953.7338220065137 L-647.183288794562,-1953.7073985935103 L-647.1910715182188,-1953.6809012471028 L-647.1966344780927,-1953.6543484055794 L-647.199973803175,-1953.6277585458445 L-647.2010871697828,-1953.6011501705616 " />
			<path d="M-921.7383899926306,-1875.7744271286176 L-866.8619369052792,-1856.3125104475828 " />
			<path d="M-866.8619369052791,-1854.9721147870112 L-866.7678851821578,-1855.0070358261103 L-866.6789595493422,-1855.0432669209586 L-866.5953433875857,-1855.0807333564799 L-866.517209128551,-1855.1193578701009 L-866.4447178992252,-1855.1590608110828 L-866.3780191896464,-1855.1997603047735 L-866.3172505446283,-1855.2413724214491 L-866.2625372801183,-1855.2838113493917 L-866.2139922247726,-1855.3269895718493 L-866.1717154872834,-1855.3708180475105 L-866.1357942499371,-1855.415206394124 L-866.1063025888279,-1855.4600630748832 L-866.0833013211001,-1855.505295587192 L-866.0668378795316,-1855.5508106534214 L-866.0569462147193,-1855.5965144132654 L-866.0536467250669,-1855.642312617297 " />
			<path d="M-866.0536467250669,-1855.642312617297 L-866.0569462147193,-1855.6881108213286 L-866.0668378795316,-1855.7338145811725 L-866.0833013211001,-1855.779329647402 L-866.1063025888279,-1855.8245621597107 L-866.1357942499371,-1855.86941884047 L-866.1717154872834,-1855.9138071870834 L-866.2139922247726,-1855.9576356627447 L-866.2625372801184,-1856.0008138852022 L-866.3172505446285,-1856.0432528131448 L-866.3780191896465,-1856.0848649298205 L-866.4447178992252,-1856.1255644235112 L-866.517209128551,-1856.165267364493 L-866.5953433875857,-1856.2038918781143 L-866.6789595493423,-1856.2413583136354 L-866.7678851821579,-1856.2775894084837 L-866.8619369052792,-1856.3125104475828 " />
			<path d="M-921.7383899926306,-1875.7744271286178 L-921.8455870349846,-1875.8106155259604 L-921.9582876687192,-1875.8451021770086 L-922.0762203881362,-1875.877804000399 L-922.1991010829848,-1875.9086422145751 L-922.3266337229082,-1875.9375425275778 L-922.4585110706063,-1875.9644353160215 L-922.5944154219973,-1875.9892557928235 L-922.7340193715947,-1876.0119441632812 L-922.8769866012564,-1876.0324457691227 L-923.0229726904035,-1876.050711220184 L-923.1716259457604,-1876.0666965133935 L-923.3225882486145,-1876.0803631387796 L-923.4754959175555,-1876.0916781722449 L-923.6299805846157,-1876.1006143548827 L-923.7856700827009,-1876.1071501586462 L-923.9421893421736,-1876.1112698382117 L-924.0991612944281,-1876.1129634689103 L-924.2562077802822,-1876.1122269706375 L-924.4129504609961,-1876.1090621176816 L-924.5690117297228,-1876.1034765344511 L-924.7240156211965,-1876.0954836771052 L-924.877588717466,-1876.085102801137 L-925.0293610474909,-1876.0723589149864 L-925.1789669784346,-1876.057282719791 L-925.3260460965054,-1876.0399105354254 L-925.4702440752252,-1876.020284213004 L-925.6112135290333,-1875.9984510340562 L-925.7486148501678,-1875.9744635966224 L-925.8821170268111,-1875.9483796885404 L-926.0113984405265,-1875.9202621482298 L-926.1361476410643,-1875.8901787133075 L-926.256064096674,-1875.8582018574036 " />
			<path d="M-926.256064096674,-1875.8582018574034 L-949.8741985670777,-1869.2399982833308 " />
			<path d="M-949.8741985670775,-1869.2399982833308 L-949.9973675377119,-1869.203606172399 L-950.1142773227499,-1869.1652170836558 L-950.224602570174,-1869.1249378513364 L-950.328036252289,-1869.0828805698177 L-950.4242905201594,-1869.0391622816671 L-950.5130975046734,-1868.9939046519212 L-950.5942100620049,-1868.9472336294996 L-950.6674024613976,-1868.8992790966988 L-950.7324710133586,-1868.850174507737 L-950.7892346365127,-1868.8000565173613 L-950.8375353615389,-1868.7490646005465 L-950.8772387707894,-1868.6973406643451 L-950.9082343723638,-1868.64502865297 L-950.9204388358019,-1868.6186975602113 L-950.9304359076011,-1868.592274147208 L-950.9382186312579,-1868.5657768008004 L-950.9437815911318,-1868.539223959277 L-950.9471209162141,-1868.512634099542 L-950.9482342828219,-1868.4860257242592 " />
			<path d="M-1235.0520508427712,-1787.9785998259201 L-1180.1755977529178,-1768.516683145586 " />
			<path d="M-1180.1755979135658,-1767.1762878359402 L-1180.0815461773054,-1767.2112088538695 L-1179.99262053158,-1767.2474399279577 L-1179.909004357189,-1767.2849063431627 L-1179.8308700858381,-1767.3235308369458 L-1179.7583788445575,-1767.3632337586007 L-1179.6916801234252,-1767.4039332335065 L-1179.630911467293,-1767.445545331969 L-1179.576198192144,-1767.4879842422997 L-1179.5276531266686,-1767.5311624477733 L-1179.48537637959,-1767.5749909071042 L-1179.4494551332236,-1767.6193792380652 L-1179.4199634636898,-1767.6642359038729 L-1179.3969621881565,-1767.709468401952 L-1179.3804987394228,-1767.7549834546937 L-1179.3706070681042,-1767.8006872018093 L-1179.3673075726192,-1767.8464853938885 " />
			<path d="M-1179.3673075726192,-1767.8464853938885 L-1179.370607057126,-1767.8922835867586 L-1179.3804987174897,-1767.9379873362452 L-1179.396962155313,-1767.9835023929331 L-1179.419963420004,-1768.0287348965257 L-1179.4494550787856,-1768.0735915694027 L-1179.485376314512,-1768.1179799089743 L-1179.5276530510848,-1768.1618083784388 L-1179.5761981062103,-1768.2049865955487 L-1179.6309113711866,-1768.2474255189943 L-1179.6916800173442,-1768.2890376320236 L-1179.7583787287208,-1768.329737122917 L-1179.8308699604847,-1768.3694400619481 L-1179.9090042225769,-1768.4080645744605 L-1179.9926203879875,-1768.4455310097085 L-1180.081546025028,-1768.4817621051122 L-1180.1755977529178,-1768.516683145586 " />
			<path d="M-1235.0520508427712,-1787.97859982592 L-1235.1592478851298,-1788.0147882238177 L-1235.2719485188688,-1788.049274876533 L-1235.38988123829,-1788.0819767026987 L-1235.5127619331427,-1788.1128149207511 L-1235.6402945730697,-1788.141715238722 L-1235.7721719207714,-1788.168608033214 L-1235.9080762721653,-1788.1934285171296 L-1236.0476802217659,-1788.216116895749 L-1236.19064745143,-1788.2366185107808 L-1236.3366335405797,-1788.254883972039 L-1236.4852867959385,-1788.2708692764268 L-1236.6362490987945,-1788.2845359139465 L-1236.7891567677368,-1788.295850960471 L-1236.943641434798,-1788.3047871570623 L-1237.0993309328842,-1788.3113229756398 L-1237.2558501923575,-1788.315442670844 L-1237.4128221446122,-1788.317136317969 L-1237.569868630466,-1788.3163998368698 L-1237.7266113111796,-1788.3132350017943 L-1237.8826725799056,-1788.307649437107 L-1238.0376764713783,-1788.299656598923 L-1238.1912495676463,-1788.2892757426891 L-1238.3430218976696,-1788.2765318767977 L-1238.4926278286114,-1788.2614557023373 L-1238.63970694668,-1788.2440835391335 L-1238.7839049253973,-1788.2244572382483 L-1238.9248743792027,-1788.2026240811601 L-1239.062275700334,-1788.1786366658566 L-1239.195777876974,-1788.152552780122 L-1239.3250592906857,-1788.1244352623223 L-1239.4498084912198,-1788.09435185002 L-1239.5697249468253,-1788.0623750167908 " />
			<path d="M-1239.5697249468253,-1788.0623750167915 L-1263.1878594163777,-1781.4441760060795 " />
			<path d="M-1263.187859416378,-1781.4441760060795 L-1263.3110283816266,-1781.4077839211936 L-1263.4279381618544,-1781.3693948586026 L-1263.5382634050864,-1781.3291156524594 L-1263.6416970836665,-1781.2870583970584 L-1263.7379513486949,-1781.2433401348835 L-1263.8267583310915,-1781.198082530888 L-1263.9078708870582,-1781.1514115339091 L-1263.981063285863,-1781.1034570261604 L-1264.0461318380328,-1781.0543524617785 L-1264.1028954622082,-1781.0042344954302 L-1264.151196189079,-1780.9532426020103 L-1264.1908996010047,-1780.9015186884938 L-1264.2218952060875,-1780.8492066990175 L-1264.2340996715916,-1780.8228756168905 L-1264.244096745664,-1780.7964522142945 L-1264.2518794718,-1780.7699548780615 L-1264.2574424343582,-1780.7434020464707 L-1264.2607817623282,-1780.7168121964182 L-1264.2618951320253,-1780.6902038305593 " />
			<path d="M-46.505468718094384,-31.487517202199225 L-1299.462450559382,319.6123711387978 " />
			<path d="M-46.505468718094384,-1.49878225718221 L-1299.462450559382,349.60110608381484 " />
			<path d="M-44.37950443383864,2.2920242203721024 L-1297.3364862751264,353.39191256136917 " />
			<path d="M44.37950443383864,33.770378561610386 L-1208.577477407449,384.87026690260745 " />
			<path d="M-13.18073116365515,-2164.1023693596785 L-1265.1456834878861,-1814.2612998900659 " />
			<path d="M-13.116076741029897,-2134.0758691563988 L-1265.081029065261,-1784.2347996867861 " />
			<path d="M-38.63307243024551,-2122.5678453988867 L-318.7617698705955,-2044.2904759567732 " />
			<path d="M-342.3799043409992,-2037.6907756962637 L-617.9912428795914,-1960.67570809929 " />
			<path d="M-647.2010871697828,-1952.513496252584 L-921.7768176553957,-1875.7878123385426 " />
			<path d="M-950.948234282822,-1867.636338471853 L-1235.5256000718414,-1788.1158616329033 " />
			<path d="M-39.70710352717932,-2087.802098127295 L-314.24409576655205,-2011.0872389807269 " />
			<path d="M-343.4539400567434,-2002.925027134021 L-563.2989469303055,-1941.4929461644867 " />
			<path d="M-647.2010871697828,-1918.0478693532898 L-867.4213864903969,-1856.5109190654916 " />
			<path d="M-950.9482342828219,-1833.1707115725585 L-1181.1221639665403,-1768.8523825529765 " />
			<path d="M-10.496977614589325,-21.75393576230406 L-10.497264122138654,-2131.1197150924413 " />
			<path d="M44.379475449884985,-2.292019078900948 L44.37918901922481,-2111.091714386829 " />
			<path d="M-15.01465192477754,-23.356142933580045 L-15.014938226083595,-2131.203489297995 " />
			<path d="M-38.632788439592076,-31.732307557065504 L-38.633072704266446,-2124.5852805560994 " />
			<path d="M-314.244095766552,41.56384993736872 L-314.24409576655205,-2045.5528658800213 " />
			<path d="M-259.3676426792006,26.186533053587965 L-259.3676426792007,-2026.421563636651 " />
			<path d="M-318.76176987059546,42.829779172353106 L-318.7617698705955,-2046.088450750008 " />
			<path d="M-342.37990434099913,49.44798274642583 L-342.3799043409992,-2039.4702471759351 " />
			<path d="M-617.9912428795913,126.67897438367098 L-617.9912428795914,-1960.8895515749198 " />
			<path d="M-563.1147897922399,111.30165749989025 L-563.11478979224,-1941.4276348938847 " />
			<path d="M-622.5089169836348,127.94490361865539 L-622.5089169836349,-1960.9733263037056 " />
			<path d="M-646.1270514540383,134.56310719272813 L-646.1270514540385,-1954.355122729633 " />
			<path d="M-921.7383899926305,211.79409882997328 L-921.7383899926306,-1875.7744271286176 " />
			<path d="M-866.8619369052791,196.4167819461925 L-866.8619369052792,-1856.3125104475826 " />
			<path d="M-926.2560640966739,213.06002806495758 L-926.256064096674,-1875.8582018574034 " />
			<path d="M-949.8741985670774,219.67823163903032 L-949.8741985670775,-1869.2399982833306 " />
			<path d="M-1235.0523010406175,299.5899934846898 L-1235.052050842771,-1787.9785998259204 " />
			<path d="M-1180.1758437752358,284.21267543015375 L-1180.1755977529174,-1768.5166831455865 " />
			<path d="M-1239.5699753064357,300.8559227650062 L-1239.5697249468253,-1788.0623750167913 " />
			<path d="M-1263.1881097759888,307.47412633884056 L-1263.1878594163777,-1781.4441760060795 " />
			<path d="M-1298.1999221484184,317.2850325333304 L-45.24294030713069,-33.8148558076666 " />
			<path d="M-1207.7140415341569,384.91474414866366 L45.24294030713069,33.8148558076666 " />
			<path d="M-1263.8787977713641,-1816.602665257555 L-11.913845447132697,-2166.443734727168 " />
			<path d="M-1180.6804282154876,-1768.6957211089934 L-950.9482342828219,-1832.8906143189038 " />
			<path d="M-866.9796507393647,-1856.3542576215032 L-647.2010871697828,-1917.767772099635 " />
			<path d="M-562.8748492625102,-1941.331356047462 L-343.45394005674336,-2002.6449298803664 " />
			<path d="M-258.8432899433054,-2026.2879881538847 L-39.70710348913473,-2087.522000884271 " />
			<path d="M45.187479121760155,-2110.9876004900725 L45.187765608186005,-1.777339353118986 " />
			<path d="M-39.70710842089695,-2123.831307562291 L-39.706824310369164,-32.113214037960574 " />
			<path d="M-258.5593524989884,-2025.8725615099013 L-258.55935249898835,25.960036377219545 " />
			<path d="M-343.4539400567434,-2038.7162746168635 L-343.45394005674336,49.74894584838156 " />
			<path d="M-562.3064996120278,-1940.757437063599 L-562.3064996120277,111.07516082352186 " />
			<path d="M-647.2010871697828,-1953.6011501705614 L-647.2010871697827,134.86407029468387 " />
			<path d="M-866.0536467250668,-1855.6423126172967 L-866.0536467250666,196.19028526982405 " />
			<path d="M-950.948234282822,-1868.486025724259 L-950.9482342828219,219.97919474098612 " />
			<path d="M-1179.3673075726192,-1767.8464853938888 L-1179.3675534874676,283.98617872364633 " />
			<path d="M-1264.261895132025,-1780.6902038305593 L-1264.2621454373423,307.7750894255551 " />

       </g>
    </g>
    
</svg>
