<?xml version="1.0" encoding="UTF-8" standalone="no"?>
<svg
   xmlns:svg="http://www.w3.org/2000/svg"
   xmlns="http://www.w3.org/2000/svg"
   width="480.0"
   height="480.0"

>
    <g transform="scale(0.1411123224035775, -0.1411123224035775)   translate(1305.7568160893989,-101.39135315108342)" stroke-width="1.0"  fill="none">
       <!-- hidden lines -->
       <g  stroke="rgb(0,0,0)" fill="none" stroke-dasharray="1.0,1.0" >
			<path d="M-1197.5032845728585,-319.0866475977242 L-1138.159074997867,-334.2970015651869 " />
			<path d="M-1135.89633329807,-331.7838536569334 L-1135.8979561419235,-331.90056353748616 L-1135.9028223456683,-332.0162741153742 L-1135.9109249291982,-332.1308194147815 L-1135.9222522701284,-332.2440351313731 L-1135.9367881204653,-332.35575886797403 L-1135.9545116299148,-332.46583036751286 L-1135.9753973757888,-332.57409174289495 L-1135.9994153994714,-332.6803877034765 L-1136.0265312493927,-332.7845657778144 L-1136.0567060304456,-332.8864765323717 L-1136.0898964597775,-332.9859737858661 L-1136.1260549288747,-333.08291481895304 L-1136.1651295718534,-333.1771605789428 L-1136.2070643398554,-333.26857587925855 L-1136.2517990814456,-333.3570295933486 L-1136.2992696288925,-333.442394842775 L-1136.3494078902122,-333.5245491792085 L-1136.4021419468386,-333.6033747600691 L-1136.4573961567842,-333.67875851755997 L-1136.5150912631411,-333.75059232085243 L-1136.5751445077683,-333.8187731311896 L-1136.6374697499991,-333.8832031496851 L-1136.7019775902031,-333.9437899576069 L-1136.76857549802,-334.0004466489429 L-1136.837167945087,-334.05309195505924 L-1136.9076565420642,-334.1016503612727 L-1136.9799401797645,-334.14605221516894 L-1137.0539151741868,-334.18623382651276 L-1137.1294754152389,-334.2221375586052 L-1137.206512518943,-334.25371191095826 L-1137.2849159829032,-334.2809115931673 L-1137.3645733448088,-334.3036975898757 " />
			<path d="M-1137.3645733448088,-334.3036975898757 L-1137.4603549438543,-334.3249257428923 L-1137.557541568733,-334.3398779535466 L-1137.6559377910787,-334.34852415508703 L-1137.755345750198,-334.3508469612423 L-1137.8555655509406,-334.3468417011822 L-1137.9563956656577,-334.33651642891044 L-1138.057633339448,-334.31989190706884 L-1138.159074997867,-334.2970015651869 " />
			<path d="M-1232.62854096439,-273.35316479003865 L-1138.159074997867,-297.5663782907122 " />
			<path d="M-1138.159074997867,-297.5663782907122 L-1138.0480475250542,-297.59856122277296 L-1137.9372875271486,-297.6381181844844 L-1137.827061834686,-297.68495387966107 L-1137.7176359910143,-297.73895547701085 L-1137.6092736125759,-297.79999288195575 L-1137.5022357538312,-297.86791905004105 L-1137.396780278358,-297.94257034117817 L-1137.293161237633,-298.02376691386814 L-1137.1916282590018,-298.1113131584553 L-1137.0924259443027,-298.2049981683683 L-1136.995793280601,-298.3045962482125 L-1136.9019630644477,-298.40986745748967 L-1136.811161341052,-298.5205581886361 L-1136.7236068597188,-298.63640177798504 L-1136.6395105468625,-298.7571191481831 L-1136.5590749978671,-298.8824194805118 L-1136.482493989015,-299.0120009154956 L-1136.4099520106643,-299.14555128010767 L-1136.3416238227949,-299.2827488398219 L-1136.2776740339962,-299.4232630737 L-1136.2182567049106,-299.56675547064486 L-1136.1635149770884,-299.71288034490385 L-1136.1135807281466,-299.8612856688558 L-1136.0685742540647,-300.0116139210766 L-1136.0286039793812,-300.1635029476394 L-1135.993766195988,-300.31658683457533 L-1135.9641448311575,-300.4704967893922 L-1135.9398112453516,-300.6248620295279 L-1135.9208240603102,-300.7793106755982 L-1135.9072290178249,-300.9334706472866 L-1135.899058869544,-301.0869705597184 L-1135.89633329807,-301.2394406181596 " />
			<path d="M-1135.8963332980702,-331.7838536569334 L-1135.8963332980702,-301.2394406181596 " />
			<path d="M-1135.3764763451595,-2518.0795157094767 L-1135.3799968393844,-2518.2413233874163 L-1135.3897850444193,-2518.4010403558846 L-1135.405813829089,-2518.5582239076534 L-1135.428038764433,-2518.7124383576775 L-1135.456398246856,-2518.863256250739 L-1135.4908136688814,-2519.010259546275 L-1135.5311896370374,-2519.1530407771124 L-1135.5774142362716,-2519.2912041788977 L-1135.6293593401588,-2519.4243667870824 L-1135.6868809660452,-2519.5521594984352 L-1135.749819674143,-2519.6742280941307 L-1135.8180010094698,-2519.7902342215807 L-1135.8912359854055,-2519.899856332288 L-1135.9693216075311,-2520.0027905731235 L-1136.0101162825986,-2520.0516598351232 L-1136.0520414362936,-2520.0987516285504 L-1136.095068011301,-2520.1440333152154 L-1136.139166186937,-2520.1874735114716 " />
			<path d="M-11.682938691204441,-2162.854921802127 L46.77575294819293,-2178.147913667195 " />
			<path d="M-1196.0210278133675,-2468.5897926207576 L-1137.5623361739702,-2483.8827844858256 " />
			<path d="M-1137.5623361739704,-2483.8827844858256 L-1137.451219214755,-2483.915577442237 L-1137.3403874207559,-2483.9557355926468 L-1137.2301077954728,-2484.003162192553 L-1137.1206460121823,-2484.0577429871223 L-1137.0122657739078,-2484.1193464864405 L-1136.9052281781367,-2484.187824282281 L-1136.7997910878123,-2484.263011405636 L-1136.6962085101204,-2484.34472672414 L-1136.5947299845636,-2484.432773378433 L-1136.4955999817985,-2484.526939256413 L-1136.3990573146841,-2484.626997504232 L-1136.3053345629621,-2484.7327070728065 L-1136.2146575129502,-2484.8438132985275 L-1136.1272446136043,-2484.9600485167653 L-1136.0433064502556,-2485.0811327066976 L-1135.9630452372917,-2485.2067741659057 L-1135.8866543310044,-2485.3366702131093 L-1135.814317763778,-2485.4705079173527 L-1135.7462098007393,-2485.6079648518844 L-1135.6824945199367,-2485.748709870909 L-1135.623325417062,-2485.8924039073477 L-1135.5688450356672,-2486.03870078968 L-1135.5191846237626,-2486.187248075904 L-1135.4744638176303,-2486.337687902594 L-1135.4347903536095,-2486.489657847032 L-1135.40025980855,-2486.64279180031 L-1135.3709553695592,-2486.796720849322 L-1135.3469476335974,-2486.9510741655063 L-1135.3282944374037,-2487.105479898204 L-1135.315040718161,-2487.2595660704815 L-1135.3072184052403,-2487.4129614752533 L-1135.3048463432785,-2487.5652965695526 " />
			<path d="M-1135.3764763451595,-2518.079515709477 L-1135.3048463432783,-2487.5652965695526 " />
			<path d="M47.234434517644175,-2180.0833949632984 L47.34273641473165,-2180.0542392553484 L47.44532626058225,-2180.0237566184433 L47.54195690729162,-2179.99202048792 L47.632395563186954,-2179.9591073188894 L47.71642435364244,-2179.9250964020534 L47.79384084595827,-2179.890069672682 L47.864458537038786,-2179.854111513228 L47.92810730269461,-2179.8173085500393 L47.98463380748681,-2179.7797494446713 L48.03390187412526,-2179.741524680291 L48.07579281153174,-2179.7027263436967 L48.11020570077703,-2179.6634479034715 L48.137057638203466,-2179.6237839848104 L48.15628393514711,-2179.58383014156 L48.16783827377836,-2179.543682626021 L48.171692818685685,-2179.5034381570667 " />
			<path d="M48.171692818685685,-2179.5034381570667 L48.16783828330611,-2179.463193683866 L48.15628395292632,-2179.4230461621614 L48.1370576629425,-2179.3830923108576 L48.110205731175014,-2179.343428382289 L48.07579284628471,-2179.3041499303417 L48.03390191193225,-2179.265351580255 L47.9846338470559,-2179.2271268006593 L47.928107342749,-2179.1895676784047 L47.86445857632263,-2179.1527646967143 L47.793840883242574,-2179.116806517201 L47.71642438773068,-2179.0817797662767 L47.632395592920716,-2179.047768826458 L47.54195693155589,-2179.0148556330864 L47.44532627831065,-2178.983119476932 L47.34273642491148,-2178.952636813183 L47.23443451932113,-2178.9234810772505 " />
			<path d="M-11.172585585044255,-2163.953335594864 L-11.286338629290615,-2163.9255770265763 L-11.405268775439392,-2163.8992824975426 L-11.529089510351463,-2163.874515353585 L-11.65750253903101,-2163.851335260924 L-11.790198503244287,-2163.829798062432 L-11.926857726790717,-2163.8099556431075 L-12.067150985630837,-2163.791855805076 L-12.210740301015868,-2163.775542152433 L-12.357279753708106,-2163.7610539861967 L-12.506416317330672,-2163.748426209628 L-12.657790708838982,-2163.737689244148 L-12.811038254065062,-2163.7288689560455 L-13.121672435445001,-2163.7170587387272 L-13.435327284493885,-2163.7131092965233 L-13.748982133554188,-2163.7170586647203 L-14.059616314968276,-2163.728868808744 L-14.21286386021986,-2163.737689060688 L-14.364238251759216,-2163.7484259904513 L-14.513374815418297,-2163.761053731831 L-14.659914268152423,-2163.7755418634915 L-14.803503583584623,-2163.7918554822545 L-14.943796842477079,-2163.8099552871836 L-15.080456066080883,-2163.8297976742633 L-15.213152030356438,-2163.8513348414454 L-15.341565059103011,-2163.8745149038077 L-15.465385794086696,-2163.8992820185495 L-15.584315940311503,-2163.9255765195217 L-15.698068984638107,-2163.953335060969 " />
			<path d="M-38.04264327841277,-2169.6804072372265 L-38.15094517550024,-2169.7095629451765 L-38.25353502135084,-2169.7400455820816 L-38.350165668060214,-2169.771781712605 L-38.44060432395555,-2169.8046948816354 L-38.52463311441103,-2169.8387057984714 L-38.60204960672687,-2169.873732527843 L-38.67266729780738,-2169.909690687297 L-38.73631606346321,-2169.9464936504855 L-38.7928425682554,-2169.9840527558536 L-38.84211063489386,-2170.0222775202337 L-38.884001572300335,-2170.061075856828 L-38.91841446154562,-2170.1003542970534 L-38.94526639897206,-2170.1400182157145 L-38.9644926959157,-2170.1799720589647 L-38.97604703454695,-2170.2201195745038 L-38.97990157945428,-2170.260364043458 " />
			<path d="M-38.97990157945428,-2170.260364043458 L-38.976047044074704,-2170.300608516659 L-38.964492713694916,-2170.3407560383635 L-38.9452664237111,-2170.3807098896673 L-38.91841449194361,-2170.420373818236 L-38.88400160705331,-2170.459652270183 L-38.84211067270084,-2170.49845062027 L-38.7928426078245,-2170.5366753998655 L-38.73631610351759,-2170.57423452212 L-38.67266733709123,-2170.6110375038106 L-38.60204964401117,-2170.646995683324 L-38.52463314849928,-2170.682022434248 L-38.44060435368931,-2170.7160333740667 L-38.35016569232448,-2170.7489465674385 L-38.253535039079246,-2170.7806827235927 L-38.15094518568007,-2170.811165387342 L-38.04264328008971,-2170.8403211232744 " />
			<path d="M-38.04237221287545,-22.388768736375347 L20.36464789148992,-37.35891421876189 " />
			<path d="M-38.042643280089706,-2170.8403211232753 L20.36437682427566,-2185.8104666056615 " />
			<path d="M20.364647891489913,-37.35891421876189 L20.47840093573627,-37.386672787049164 L20.59733108188505,-37.412967316083204 L20.72115181679712,-37.437734460040424 L20.849564845476667,-37.460914552701695 L20.982260809689947,-37.48245175119346 L21.118920033236375,-37.502294170518105 L21.259213292076495,-37.5203940085495 L21.402802607461524,-37.536707661192466 L21.549342060153762,-37.55119582742887 L21.698478623776328,-37.56382360399724 L21.849853015284637,-37.574560569477775 L22.00310056051072,-37.58338085758016 L22.31373474189066,-37.595191074898125 L22.62738959093954,-37.599140517102235 L22.941044439999843,-37.595191148905094 L23.25167862141393,-37.583381004881375 L23.404926166665515,-37.5745607529378 L23.55630055820487,-37.56382382317411 L23.70543712186395,-37.551196081794565 L23.85197657459808,-37.53670795013419 L23.99556589003028,-37.52039433137118 L24.135859148922737,-37.50229452644203 L24.27251837252654,-37.48245213936217 L24.405214336802096,-37.46091497218006 L24.533627365548664,-37.43773490981789 L24.65744810053235,-37.41296779507621 L24.776378246757158,-37.38667329410379 L24.890131291083772,-37.35891475265659 " />
			<path d="M20.36437682427566,-2185.810466605661 L20.478129868522018,-2185.8382251739486 L20.597060014670795,-2185.8645197029823 L20.720880749582868,-2185.8892868469397 L20.849293778262414,-2185.912466939601 L20.98198974247569,-2185.934004138093 L21.11864896602212,-2185.9538465574174 L21.258942224862242,-2185.971946395449 L21.40253154024727,-2185.988260048092 L21.549070992939505,-2186.002748214328 L21.698207556562075,-2186.0153759908967 L21.849581948070384,-2186.026112956377 L22.002829493296467,-2186.0349332444794 L22.313463674676406,-2186.0467434617976 L22.627118523725287,-2186.0506929040016 L22.94077337278559,-2186.0467435358046 L23.251407554199677,-2186.0349333917807 L23.40465509945126,-2186.026113139837 L23.556029490990618,-2186.0153762100736 L23.7051660546497,-2186.002748468694 L23.851705507383826,-2185.9882603370334 L23.995294822816028,-2185.9719467182704 L24.135588081708484,-2185.9538469133413 L24.272247305312288,-2185.9340045262616 L24.404943269587843,-2185.9124673590795 L24.53335629833441,-2185.889287296717 L24.657177033318096,-2185.8645201819754 L24.776107179542905,-2185.838225681003 L24.88986022386952,-2185.810467139556 " />
			<path d="M47.23470558485843,-31.63184257639918 L24.89013129108379,-37.358914752656574 " />
			<path d="M47.23443451764417,-2180.0833949632984 L24.889860223869526,-2185.8104671395554 " />
			<path d="M-298.54048301696037,-2237.6078214856425 L-240.1334628909515,-2252.5779669583644 " />
			<path d="M-240.13346289095148,-2253.737881377558 L-240.02516098961254,-2253.7087256422155 L-239.92257113998767,-2253.6782429778773 L-239.82594049001037,-2253.646506819951 L-239.73550183138028,-2253.6135936236215 L-239.65147303874755,-2253.5795826796616 L-239.5740565448337,-2253.544555923414 L-239.50343885275342,-2253.5085977374024 L-239.43979008671232,-2253.4717947480467 L-239.38326358216275,-2253.434235616972 L-239.33399551640537,-2253.396010827414 L-239.2921045805259,-2253.3572124662396 L-239.2576916934581,-2253.3179340020997 L-239.23083975886112,-2253.2782700602534 L-239.2116134653974,-2253.238316194612 L-239.20005913089187,-2253.198168657537 L-239.19620459074844,-2253.157924167961 " />
			<path d="M-239.19620459074844,-2253.157924167961 L-239.20005913089187,-2253.1176796783852 L-239.2116134653974,-2253.0775321413103 L-239.23083975886112,-2253.0375782756687 L-239.2576916934581,-2252.9979143338223 L-239.2921045805259,-2252.9586358696824 L-239.33399551640537,-2252.919837508508 L-239.38326358216275,-2252.8816127189502 L-239.43979008671232,-2252.8440535878754 L-239.50343885275342,-2252.8072505985197 L-239.5740565448337,-2252.771292412508 L-239.65147303874755,-2252.7362656562605 L-239.73550183138028,-2252.7022547123006 L-239.82594049001037,-2252.669341515971 L-239.92257113998767,-2252.6376053580448 L-240.02516098961254,-2252.6071226937065 L-240.13346289095145,-2252.577966958364 " />
			<path d="M-326.3477990022522,-2243.9148561400093 L-326.34394446210877,-2243.955100629585 L-326.3323901276032,-2243.99524816666 L-326.3131638341395,-2244.0352020323016 L-326.28631189954257,-2244.074865974148 L-326.2518990124748,-2244.114144438288 L-326.2100080765953,-2244.1529427994624 L-326.16074001083786,-2244.19116758902 L-326.1042135062883,-2244.228726720095 L-326.04056474024725,-2244.2655297094507 L-325.96994704816694,-2244.3014878954623 L-325.8925305542531,-2244.33651465171 L-325.80850176162033,-2244.3705255956697 L-325.7180631029903,-2244.403438791999 L-325.62143245301297,-2244.4351749499256 L-325.51884260338807,-2244.465657614264 L-325.41054070204916,-2244.4948133496064 " />
			<path d="M-325.41054070204916,-96.04333039763156 L-267.0035205760404,-111.01347587035335 " />
			<path d="M-325.41054070204916,-2244.4948133496064 L-267.0035205760404,-2259.4649588223283 " />
			<path d="M-267.00352057604033,-111.01347587035336 L-266.8897675317538,-111.04123443797961 L-266.77083738556706,-111.06752896506893 L-266.64701665061915,-111.0922961058024 L-266.5186036219061,-111.11547619396868 L-266.3859076576617,-111.13701338670502 L-266.24924843408655,-111.15685579902768 L-266.1089551752203,-111.1749556288274 L-265.9653658598117,-111.19126927202883 L-265.81882640709847,-111.2057574276366 L-265.66968984345766,-111.21838519241481 L-265.5183154519338,-111.22912214497208 L-265.365067906695,-111.23794241904923 L-265.054433725298,-111.24975260514854 L-264.7407788762434,-111.25370201216448 L-264.42712402718877,-111.24975260514854 L-264.11648984579176,-111.23794241904923 L-263.96324230055296,-111.22912214497208 L-263.8118679090291,-111.21838519241481 L-263.6627313453883,-111.2057574276366 L-263.51619189267507,-111.19126927202883 L-263.3726025772665,-111.1749556288274 L-263.2323093184002,-111.15685579902768 L-263.0956500948251,-111.13701338670502 L-262.96295413058067,-111.11547619396868 L-262.8345411018676,-111.0922961058024 L-262.7107203669197,-111.06752896506893 L-262.59179022073295,-111.04123443797961 L-262.47803717644643,-111.01347587035336 " />
			<path d="M-267.00352057604033,-2259.4649588223283 L-266.8897675317538,-2259.4927173899546 L-266.77083738556706,-2259.519011917044 L-266.64701665061915,-2259.543779057777 L-266.5186036219061,-2259.5669591459437 L-266.3859076576617,-2259.5884963386798 L-266.24924843408655,-2259.6083387510025 L-266.1089551752203,-2259.626438580802 L-265.9653658598117,-2259.6427522240037 L-265.81882640709847,-2259.6572403796113 L-265.66968984345766,-2259.6698681443895 L-265.5183154519338,-2259.680605096947 L-265.365067906695,-2259.6894253710243 L-265.054433725298,-2259.7012355571233 L-264.7407788762434,-2259.7051849641393 L-264.42712402718877,-2259.7012355571233 L-264.11648984579176,-2259.6894253710243 L-263.96324230055296,-2259.680605096947 L-263.8118679090291,-2259.6698681443895 L-263.6627313453883,-2259.6572403796113 L-263.51619189267507,-2259.6427522240037 L-263.3726025772665,-2259.626438580802 L-263.2323093184002,-2259.6083387510025 L-263.0956500948251,-2259.5884963386798 L-262.96295413058067,-2259.5669591459437 L-262.8345411018676,-2259.543779057777 L-262.7107203669197,-2259.519011917044 L-262.59179022073295,-2259.4927173899546 L-262.47803717644643,-2259.4649588223283 " />
			<path d="M-240.13346289095148,-105.28639842558327 L-262.4780371764464,-111.01347587035336 " />
			<path d="M-240.13346289095148,-2253.7378813775586 L-262.4780371764464,-2259.4649588223283 " />
			<path d="M-585.9086788911732,-2311.2623871044575 L-527.5016587651644,-2326.2325325771794 " />
			<path d="M-527.5016587651645,-2327.3924469963736 L-527.3933568638256,-2327.363291261031 L-527.2907670142007,-2327.3328085966928 L-527.1941363642234,-2327.3010724387664 L-527.1036977055933,-2327.268159242437 L-527.0196689129606,-2327.234148298477 L-526.9422524190467,-2327.1991215422295 L-526.8716347269665,-2327.163163356218 L-526.8079859609253,-2327.126360366862 L-526.7514594563758,-2327.0888012357873 L-526.7021913906184,-2327.0505764462296 L-526.660300454739,-2327.011778085055 L-526.6258875676712,-2326.972499620915 L-526.5990356330742,-2326.932835679069 L-526.5798093396104,-2326.8928818134273 L-526.5682550051049,-2326.8527342763523 L-526.5644004649614,-2326.8124897867765 " />
			<path d="M-526.5644004649614,-2326.8124897867765 L-526.5682550051049,-2326.7722452972007 L-526.5798093396104,-2326.7320977601257 L-526.5990356330742,-2326.692143894484 L-526.6258875676712,-2326.652479952638 L-526.660300454739,-2326.613201488498 L-526.7021913906184,-2326.5744031273234 L-526.7514594563758,-2326.5361783377657 L-526.8079859609253,-2326.498619206691 L-526.8716347269665,-2326.461816217335 L-526.9422524190467,-2326.4258580313235 L-527.0196689129606,-2326.390831275076 L-527.1036977055933,-2326.356820331116 L-527.1941363642234,-2326.3239071347866 L-527.2907670142007,-2326.2921709768602 L-527.3933568638256,-2326.261688312522 L-527.5016587651645,-2326.2325325771794 " />
			<path d="M-613.3402967715572,-2317.9550189281554 L-613.2827216672968,-2317.981528734024 L-613.2213605214613,-2318.007474604867 L-613.0876210420906,-2318.057533342472 L-612.9398101296002,-2318.1049212293924 L-612.778736576262,-2318.149378968422 " />
			<path d="M-612.778736576262,-169.69789601644675 L-554.3717164502532,-184.66804148916856 " />
			<path d="M-612.778736576262,-2318.1493789684214 L-554.3717164502532,-2333.1195244411433 " />
			<path d="M-554.3717164502532,-184.66804148916856 L-554.2579634059667,-184.6958000567948 L-554.1390332597799,-184.72209458388411 L-554.015212524832,-184.7468617246176 L-553.886799496119,-184.77004181278386 L-553.7541035318745,-184.7915790055202 L-553.6174443082995,-184.81142141784287 L-553.4771510494331,-184.8295212476426 L-553.3335617340246,-184.84583489084403 L-553.1870222813113,-184.86032304645178 L-553.0378857176705,-184.87295081123 L-552.8865113261467,-184.88368776378726 L-552.7332637809078,-184.89250803786442 L-552.4226295995109,-184.9043182239637 L-552.1089747504562,-184.90826763097968 L-551.7953199014016,-184.9043182239637 L-551.4846857200047,-184.89250803786442 L-551.3314381747658,-184.88368776378726 L-551.180063783242,-184.87295081123 L-551.0309272196012,-184.86032304645178 L-550.8843877668879,-184.84583489084403 L-550.7407984514793,-184.8295212476426 L-550.600505192613,-184.81142141784287 L-550.463845969038,-184.7915790055202 L-550.3311500047935,-184.77004181278386 L-550.2027369760805,-184.7468617246176 L-550.0789162411326,-184.72209458388411 L-549.9599860949457,-184.6958000567948 L-549.8462330506593,-184.66804148916856 " />
			<path d="M-554.3717164502532,-2333.1195244411433 L-554.2579634059667,-2333.1472830087696 L-554.1390332597799,-2333.173577535859 L-554.015212524832,-2333.198344676592 L-553.886799496119,-2333.2215247647587 L-553.7541035318745,-2333.243061957495 L-553.6174443082995,-2333.2629043698175 L-553.4771510494331,-2333.281004199617 L-553.3335617340246,-2333.2973178428188 L-553.1870222813113,-2333.3118059984263 L-553.0378857176705,-2333.3244337632045 L-552.8865113261467,-2333.335170715762 L-552.7332637809078,-2333.3439909898393 L-552.4226295995109,-2333.3558011759383 L-552.1089747504562,-2333.3597505829543 L-551.7953199014016,-2333.3558011759383 L-551.4846857200047,-2333.3439909898393 L-551.3314381747658,-2333.335170715762 L-551.180063783242,-2333.3244337632045 L-551.0309272196012,-2333.3118059984263 L-550.8843877668879,-2333.2973178428188 L-550.7407984514793,-2333.281004199617 L-550.600505192613,-2333.2629043698175 L-550.463845969038,-2333.243061957495 L-550.3311500047935,-2333.2215247647587 L-550.2027369760805,-2333.198344676592 L-550.0789162411326,-2333.173577535859 L-549.9599860949457,-2333.1472830087696 L-549.8462330506593,-2333.1195244411433 " />
			<path d="M-527.5016587651643,-178.94096404439847 L-549.8462330506592,-184.66804148916856 " />
			<path d="M-527.5016587651643,-2327.3924469963736 L-549.8462330506592,-2333.1195244411433 " />
			<path d="M-873.0042499855386,-2384.986828443776 L-814.8698546393772,-2399.8870981959944 " />
			<path d="M-814.8698546393772,-2401.0470126151886 L-814.7615527380383,-2401.017856879846 L-814.6589628884134,-2400.9873742155078 L-814.562332238436,-2400.9556380575814 L-814.471893579806,-2400.922724861252 L-814.3878647871733,-2400.888713917292 L-814.3104482932594,-2400.8536871610445 L-814.2398306011792,-2400.817728975033 L-814.176181835138,-2400.780925985677 L-814.1196553305884,-2400.7433668546023 L-814.0703872648311,-2400.7051420650446 L-814.0284963289516,-2400.66634370387 L-813.9940834418838,-2400.62706523973 L-813.9672315072869,-2400.587401297884 L-813.9480052138231,-2400.5474474322423 L-813.9364508793176,-2400.5072998951673 L-813.9325963391741,-2400.4670554055915 " />
			<path d="M-813.9325963391741,-2400.4670554055915 L-813.9364508793176,-2400.4268109160157 L-813.9480052138231,-2400.3866633789407 L-813.9672315072869,-2400.346709513299 L-813.9940834418838,-2400.307045571453 L-814.0284963289516,-2400.267767107313 L-814.0703872648311,-2400.2289687461384 L-814.1196553305884,-2400.1907439565807 L-814.176181835138,-2400.153184825506 L-814.2398306011792,-2400.11638183615 L-814.3104482932594,-2400.0804236501385 L-814.3878647871733,-2400.045396893891 L-814.471893579806,-2400.011385949931 L-814.562332238436,-2399.9784727536016 L-814.6589628884134,-2399.9467365956752 L-814.7615527380383,-2399.916253931337 L-814.8698546393772,-2399.8870981959944 " />
			<path d="M-900.1469324504748,-243.35246163526196 L-841.739912324466,-258.32260710798374 " />
			<path d="M-899.7781516656403,-2391.8984657935 L-841.739912324466,-2406.774090059959 " />
			<path d="M-841.739912324466,-258.3226071079837 L-841.6261592801795,-258.35036567560996 L-841.5072291339927,-258.37666020269927 L-841.3834083990448,-258.4014273434328 L-841.2549953703318,-258.42460743159904 L-841.1222994060873,-258.4461446243354 L-840.9856401825123,-258.465987036658 L-840.8453469236459,-258.48408686645774 L-840.7017576082374,-258.5004005096592 L-840.5552181555241,-258.51488866526694 L-840.4060815918833,-258.5275164300452 L-840.2547072003595,-258.5382533826024 L-840.1014596551206,-258.5470736566796 L-839.7908254737237,-258.55888384277887 L-839.477170624669,-258.56283324979483 L-839.1635157756144,-258.55888384277887 L-838.8528815942175,-258.5470736566796 L-838.6996340489786,-258.5382533826024 L-838.5482596574548,-258.5275164300452 L-838.399123093814,-258.51488866526694 L-838.2525836411007,-258.5004005096592 L-838.1089943256922,-258.48408686645774 L-837.9687010668258,-258.465987036658 L-837.8320418432507,-258.4461446243354 L-837.6993458790063,-258.42460743159904 L-837.5709328502933,-258.4014273434328 L-837.4471121153454,-258.37666020269927 L-837.3281819691585,-258.35036567560996 L-837.2144289248721,-258.3226071079837 " />
			<path d="M-841.739912324466,-2406.774090059959 L-841.6261592801795,-2406.801848627585 L-841.5072291339927,-2406.8281431546743 L-841.3834083990448,-2406.8529102954076 L-841.2549953703318,-2406.876090383574 L-841.1222994060873,-2406.8976275763102 L-840.9856401825123,-2406.917469988633 L-840.8453469236459,-2406.9355698184327 L-840.7017576082374,-2406.951883461634 L-840.5552181555241,-2406.9663716172417 L-840.4060815918833,-2406.97899938202 L-840.2547072003595,-2406.9897363345776 L-840.1014596551206,-2406.998556608655 L-839.7908254737237,-2407.0103667947537 L-839.477170624669,-2407.01431620177 L-839.1635157756144,-2407.0103667947537 L-838.8528815942175,-2406.998556608655 L-838.6996340489786,-2406.9897363345776 L-838.5482596574548,-2406.97899938202 L-838.399123093814,-2406.9663716172417 L-838.2525836411007,-2406.951883461634 L-838.1089943256922,-2406.9355698184327 L-837.9687010668258,-2406.917469988633 L-837.8320418432507,-2406.8976275763102 L-837.6993458790063,-2406.876090383574 L-837.5709328502933,-2406.8529102954076 L-837.4471121153454,-2406.8281431546743 L-837.3281819691585,-2406.801848627585 L-837.2144289248721,-2406.774090059959 " />
			<path d="M-814.8698546393772,-252.59552966321365 L-837.2144289248721,-258.32260710798374 " />
			<path d="M-814.8698546393772,-2401.0470126151886 L-837.2144289248721,-2406.7740900599583 " />
			<path d="M-1168.362347800582,-2461.233020903609 L-1111.2887093200104,-2475.8614109293135 " />
			<path d="M-1111.288709319827,-2477.021325819214 L-1111.1804074146658,-2476.9921700596915 L-1111.0778175616422,-2476.9616873711357 L-1110.9811869087164,-2476.929951189017 L-1110.8907482476116,-2476.897037968585 L-1110.8067194529997,-2476.863027000676 L-1110.729302957622,-2476.828000220696 L-1110.6586852646099,-2476.7920420112328 L-1110.5950364981838,-2476.7552389987686 L-1110.538509993808,-2476.71767984499 L-1110.4892419287928,-2476.679455033195 L-1110.4473509942304,-2476.6406566503106 L-1110.412938109059,-2476.6013781650454 L-1110.3860861769392,-2476.5617142027186 L-1110.366859886532,-2476.5217603172955 L-1110.3553055556586,-2476.4816127611934 L-1110.3514510197156,-2476.441368253398 " />
			<path d="M-1110.3514510197156,-2476.441368253398 L-1110.3553055640598,-2476.4011237493787 L-1110.3668599021971,-2476.3609761987454 L-1110.3860861987175,-2476.321022320458 L-1110.4129381357916,-2476.281358366901 L-1110.4473510247558,-2476.242079892006 L-1110.4892419619525,-2476.2032815210528 L-1110.5385100284518,-2476.165056722708 L-1110.5950365331753,-2476.127497583853 L-1110.6586852988314,-2476.090694587736 L-1110.72930298998,-2476.0547363959918 L-1110.8067194824298,-2476.0197096350475 L-1110.8907482730835,-2475.9856986874324 L-1110.981186929239,-2475.9527854884927 L-1111.0778175762675,-2475.9210493290007 L-1111.1804074224938,-2475.89056666414 L-1111.2887093200104,-2475.8614109293135 " />
			<path d="M-1197.503284610683,-318.7468839381122 L-1197.4994300663388,-318.7871284421316 L-1197.4878757282015,-318.82727599276456 L-1197.4686494316811,-318.86722987105225 L-1197.441797494607,-318.9068938246092 L-1197.4073846056428,-318.94617229950416 L-1197.365493668446,-318.98497067045747 L-1197.3162256019468,-319.0231954688021 L-1197.2596990972233,-319.06075460765726 L-1197.1960503315672,-319.09755760377436 L-1197.1254326404187,-319.1335157955185 L-1197.0480161479688,-319.16854255646257 L-1196.963987357315,-319.20255350407757 L-1196.8735487011597,-319.23546670301766 L-1196.776918054131,-319.2672028625094 L-1196.6743282079049,-319.2976855273705 L-1196.5660263103882,-319.3268412621965 " />
			<path d="M-1196.5660263103882,-319.3268412621965 L-1138.159006182012,-334.2969867343116 " />
			<path d="M-1195.1362603458313,-2468.1446610581515 L-1138.1587670040099,-2482.748408383195 " />
			<path d="M-1138.1590061820123,-334.29698673431164 L-1138.0452531377214,-334.3247453013698 L-1137.9263229915305,-334.35103982675827 L-1137.8025022565787,-334.37580696466233 L-1137.674089227862,-334.3989870488775 L-1137.541393263614,-334.4205242365504 L-1137.404734040036,-334.4403666427097 L-1137.2644407811667,-334.45846646526087 L-1137.1208514657555,-334.47478010014595 L-1136.97431201304,-334.48926824638977 L-1136.8251754493972,-334.50189600077886 L-1136.6738010578717,-334.5126329419469 L-1136.5205535126315,-334.5214532036622 L-1136.2099193312326,-334.5332633622412 L-1135.8962644821775,-334.5372127382326 L-1135.5826096331234,-334.53326329698666 L-1135.2719754517282,-334.52145307378163 L-1135.118727906491,-334.5126327801839 L-1134.9673535149686,-334.50189580752306 L-1134.8182169513298,-334.4892680221067 L-1134.671677498619,-334.4747798453761 L-1134.528088183213,-334.45846618061785 L-1134.3877949243495,-334.4403663288793 L-1134.2511357007775,-334.4205238942887 L-1134.1184397365364,-334.39898667900894 L-1133.9900267078272,-334.375806568078 L-1133.866205972883,-334.3510394044136 L-1133.7472758267006,-334.3247448542822 L-1133.6335227824184,-334.2969862635583 " />
			<path d="M-1138.15876700401,-2482.748408383195 L-1138.0450139597192,-2482.776166950253 L-1137.9260838135283,-2482.8024614756414 L-1137.8022630785765,-2482.8272286135457 L-1137.6738500498598,-2482.8504086977605 L-1137.5411540856119,-2482.871945885434 L-1137.4044948620337,-2482.891788291593 L-1137.2642016031646,-2482.909888114144 L-1137.1206122877534,-2482.926201749029 L-1136.9740728350378,-2482.940689895273 L-1136.824936271395,-2482.953317649662 L-1136.6735618798696,-2482.96405459083 L-1136.5203143346293,-2482.9728748525454 L-1136.2096801532305,-2482.9846850111244 L-1135.8960253041753,-2482.988634387116 L-1135.5823704551212,-2482.98468494587 L-1135.271736273726,-2482.972874722665 L-1135.1184887284887,-2482.9640544290673 L-1134.9671143369665,-2482.9533174564062 L-1134.8179777733276,-2482.94068967099 L-1134.6714383206167,-2482.926201494259 L-1134.5278490052108,-2482.9098878295013 L-1134.3875557463473,-2482.8917879777628 L-1134.2508965227753,-2482.871945543172 L-1134.1182005585342,-2482.850408327892 L-1133.989787529825,-2482.8272282169614 L-1133.865966794881,-2482.8024610532966 L-1133.7470366486984,-2482.7761665031653 L-1133.6332836044162,-2482.7484079124415 " />
			<path d="M-1111.288948497829,-328.56990417033086 L-1133.6335227824184,-334.29698626355827 " />
			<path d="M-1111.2887093198271,-2477.0213258192143 L-1133.6332836044164,-2482.7484079124415 " />
			<path d="M-1137.3645733448088,-334.3036975898757 L-1110.9161437146543,-327.52477207314405 " />
			<path d="M-901.0841907506779,-273.7433113186131 L-814.4970542716799,-251.55039638543363 " />
			<path d="M-613.7159948764651,-200.08874569979793 L-527.1288583974671,-177.89583076661847 " />
			<path d="M-326.34779900225226,-126.43418008098273 L-239.7606625232542,-104.24126514780323 " />
			<path d="M-38.97963441978516,-52.77962248247031 L47.607500748095475,-30.58670788533977 " />
			<path d="M-326.34234341503515,-2243.866983593832 L-301.1885004992261,-2237.373561668884 " />
			<path d="M-38.04264324844738,-2169.4429045263305 L-12.490045425555182,-2162.8465446978184 " />
			<path d="M48.17169281868567,-2179.5034381570667 L48.17169286050995,-2179.1719431248634 " />
			<path d="M-239.1962045907485,-2253.157924167961 L-239.1962045907485,-2221.3703555274883 " />
			<path d="M-526.5644004649614,-2326.8124897867765 L-526.5644004649614,-2295.553968340369 " />
			<path d="M-813.9325963391741,-2400.4670554055915 L-813.9325963391741,-2369.7375811532493 " />
			<path d="M-1110.3514510197156,-2476.441368253398 L-1110.3514543799458,-2446.2576070678706 " />

       </g>

       <!-- solid lines -->
       <g  stroke="rgb(0,0,0)" fill="none">
			<path d="M-47.234732983261374,-6.258704886900633 L47.234732983261374,-30.471918387574128 " />
			<path d="M-1232.62854096439,-310.0837880645134 L-1197.5032845728585,-319.0866475977242 " />
			<path d="M49.49747468305833,-27.95877047932059 L49.495851839204995,-28.07548035987335 L49.490985635460135,-28.191190937761405 L49.48288305193007,-28.30573623716869 L49.47155571100004,-28.418951953760264 L49.45701986066303,-28.53067569036123 L49.4392963512135,-28.640747189900075 L49.418410605339645,-28.749008565282146 L49.39439258165701,-28.85530452586371 L49.36727673173566,-28.959482600201575 L49.33710195068267,-29.061393354758888 L49.30391152135087,-29.16089060825333 L49.26775305225361,-29.257831641340246 L49.22867840927494,-29.35207740132998 L49.186743641272926,-29.443492701645713 L49.14200889968288,-29.531946415735778 L49.09453835223585,-29.61731166516218 L49.044400090916135,-29.699466001595685 L48.991666034289786,-29.77829158245628 L48.936411824344276,-29.85367533994714 L48.878716717987274,-29.925509143239644 L48.81866347336012,-29.993689953576737 L48.756338231129185,-30.058119972072248 L48.69183039092526,-30.118706779994074 L48.62523248310827,-30.175363471330062 L48.55664003604132,-30.22800877744642 L48.48615143906432,-30.27656718365984 L48.41386780136383,-30.320969037556115 L48.33989280694155,-30.361150648899923 L48.26433256588951,-30.397054380992394 L48.187295462185226,-30.428628733345477 L48.10889199822518,-30.455828415554482 L48.02923463631966,-30.478614412262875 " />
			<path d="M48.02923463631965,-30.47861441226288 L47.933453037274084,-30.499842565279465 L47.83626641239534,-30.51479477593376 L47.737870190049634,-30.523440977474248 L47.638462230930216,-30.525763783629493 L47.53824243018792,-30.521758523569403 L47.437412315470674,-30.511433251297607 L47.336174641680266,-30.494808729456018 L47.23473298326139,-30.47191838757413 " />
			<path d="M-47.234732983261374,-6.258704886900635 L-47.345760456074075,-6.226521954839837 L-47.45652045397992,-6.186964993128352 L-47.56674614644251,-6.140129297951724 L-47.676171990114085,-6.086127700601957 L-47.784534368552656,-6.025090295657047 L-47.89157222729715,-5.957164127571751 L-47.99702770277043,-5.882512836434618 L-48.10064674349529,-5.801316263744676 L-48.20217972212666,-5.713770019157515 L-48.30138203682577,-5.620085009244493 L-48.39801470052742,-5.5204869294003265 L-48.49184491668073,-5.415215720123122 L-48.58264664007645,-5.304524988976695 L-48.67020112140959,-5.188681399627745 L-48.75429743426578,-5.067964029429711 L-48.834732983261375,-4.9426636971009925 L-48.91131399211352,-4.813082262117183 L-48.983855970464184,-4.679531897505152 L-49.0521841583336,-4.542334337790878 L-49.11613394713235,-4.401820103912801 L-49.17555127621787,-4.2583277069679255 L-49.23029300404005,-4.112202832708945 L-49.28022725298176,-3.9637975087569752 L-49.325233727063576,-3.8134692565361865 L-49.36520400174734,-3.6615802299733793 L-49.40004178514034,-3.50849634303745 L-49.42966314997096,-3.354586388220593 L-49.45399673577681,-3.200221148084881 L-49.4729839208183,-3.0457725020146 L-49.486578963303586,-2.891612530326236 L-49.49474911158454,-2.7381126178944064 L-49.49747468305833,-2.5856425594531873 " />
			<path d="M-1232.62854096439,-310.0837880645134 L-1232.7395684372027,-310.0516051324526 L-1232.8503284351084,-310.01204817074114 L-1232.960554127571,-309.9652124755645 L-1233.0699799712427,-309.9112108782147 L-1233.178342349681,-309.8501734732698 L-1233.2853802084257,-309.7822473051845 L-1233.390835683899,-309.7075960140474 L-1233.494454724624,-309.6263994413574 L-1233.595987703255,-309.5388531967703 L-1233.6951900179542,-309.44516818685725 L-1233.791822681656,-309.3455701070131 L-1233.8856528978092,-309.2402988977359 L-1233.976454621205,-309.1296081665895 L-1234.0640091025382,-309.0137645772405 L-1234.1481054153944,-308.89304720704246 L-1234.2285409643898,-308.76774687471374 L-1234.305121973242,-308.63816543972996 L-1234.3776639515927,-308.5046150751179 L-1234.445992139462,-308.36741751540364 L-1234.5099419282608,-308.22690328152555 L-1234.5693592573464,-308.0834108845807 L-1234.6241009851685,-307.9372860103217 L-1234.6740352341103,-307.78888068636974 L-1234.7190417081922,-307.63855243414895 L-1234.7590119828758,-307.48666340758615 L-1234.793849766269,-307.33357952065023 L-1234.8234711310995,-307.17966956583336 L-1234.8478047169053,-307.0253043256977 L-1234.8667919019467,-306.87085567962737 L-1234.880386944432,-306.716695707939 L-1234.888557092713,-306.56319579550717 L-1234.891282664187,-306.41072573706595 " />
			<path d="M-49.49747468305833,-2.5856425594531576 L-49.49747468305833,27.95877047932059 " />
			<path d="M-1234.8912826641867,-306.41072573706595 L-1234.8912826641867,-275.8663126982922 " />
			<path d="M-49.49747468305833,27.95877047932059 L-49.495851839204995,28.075480359873346 L-49.490985635460135,28.1911909377614 L-49.48288305193007,28.30573623716869 L-49.47155571100004,28.418951953760264 L-49.45701986066303,28.530675690361228 L-49.4392963512135,28.640747189900072 L-49.418410605339645,28.749008565282146 L-49.39439258165701,28.855304525863705 L-49.36727673173566,28.95948260020157 L-49.33710195068268,29.061393354758888 L-49.30391152135087,29.160890608253325 L-49.26775305225361,29.257831641340243 L-49.22867840927494,29.35207740132998 L-49.186743641272926,29.443492701645713 L-49.14200889968288,29.531946415735774 L-49.09453835223585,29.617311665162177 L-49.044400090916135,29.699466001595685 L-48.991666034289786,29.77829158245628 L-48.936411824344276,29.85367533994714 L-48.878716717987274,29.925509143239644 L-48.81866347336012,29.993689953576737 L-48.75633823112919,30.058119972072248 L-48.69183039092526,30.118706779994074 L-48.62523248310827,30.175363471330062 L-48.55664003604133,30.22800877744642 L-48.48615143906432,30.27656718365984 L-48.41386780136383,30.320969037556115 L-48.33989280694155,30.361150648899923 L-48.26433256588951,30.397054380992394 L-48.18729546218523,30.428628733345477 L-48.10889199822518,30.455828415554482 L-48.029234636319664,30.47861441226287 " />
			<path d="M-48.02923463631965,30.47861441226288 L-47.933453037274084,30.499842565279465 L-47.83626641239534,30.51479477593376 L-47.737870190049634,30.523440977474248 L-47.638462230930216,30.525763783629493 L-47.53824243018792,30.521758523569403 L-47.43741231547067,30.511433251297607 L-47.336174641680266,30.494808729456018 L-47.234732983261374,30.471918387574128 " />
			<path d="M-1234.891282664187,-275.8663126982922 L-1234.8896598203335,-275.7496028177394 L-1234.8847936165887,-275.6338922398514 L-1234.8766910330587,-275.51934694044405 L-1234.8653636921285,-275.40613122385247 L-1234.8508278417917,-275.29440748725153 L-1234.8331043323421,-275.1843359877127 L-1234.8122185864681,-275.0760746123306 L-1234.7882005627855,-274.96977865174904 L-1234.7610847128642,-274.86560057741116 L-1234.7309099318113,-274.76368982285385 L-1234.6977195024795,-274.66419256935944 L-1234.6615610333822,-274.5672515362725 L-1234.6224863904035,-274.4730057762828 L-1234.5805516224016,-274.381590475967 L-1234.5358168808114,-274.293136761877 L-1234.4883463333645,-274.20777151245056 L-1234.4382080720447,-274.12561717601704 L-1234.3854740154184,-274.0467915951565 L-1234.3302198054728,-273.9714078376656 L-1234.2725246991158,-273.89957403437313 L-1234.2124714544887,-273.831393224036 L-1234.1501462122578,-273.7669632055405 L-1234.0856383720538,-273.70637639761867 L-1234.019040464237,-273.64971970628267 L-1233.95044801717,-273.5970744001663 L-1233.8799594201928,-273.5485159939529 L-1233.8076757824924,-273.50411414005663 L-1233.73370078807,-273.4639325287128 L-1233.658140547018,-273.42802879662037 L-1233.5811034433139,-273.3964544442673 L-1233.5026999793538,-273.3692547620583 L-1233.4230426174481,-273.34646876534987 " />
			<path d="M-1233.4230426174481,-273.34646876534987 L-1233.3272610184026,-273.3252406123333 L-1233.2300743935239,-273.310288401679 L-1233.1316781711782,-273.30164220013853 L-1233.0322702120588,-273.29931939398324 L-1232.9320504113164,-273.30332465404337 L-1232.8312202965992,-273.3136499263151 L-1232.7299826228088,-273.33027444815673 L-1232.62854096439,-273.35316479003865 " />
			<path d="M-47.234732983261374,30.471918387574128 L47.234732983261374,6.258704886900633 " />
			<path d="M47.234732983261374,6.2587048869006345 L47.34576045607408,6.2265219548398365 L47.45652045397992,6.186964993128352 L47.56674614644251,6.140129297951724 L47.676171990114085,6.086127700601956 L47.784534368552656,6.025090295657046 L47.89157222729715,5.957164127571751 L47.99702770277043,5.882512836434617 L48.10064674349529,5.801316263744674 L48.20217972212666,5.713770019157515 L48.30138203682577,5.620085009244493 L48.398014700527426,5.520486929400326 L48.49184491668074,5.41521572012312 L48.58264664007645,5.304524988976695 L48.67020112140959,5.188681399627745 L48.75429743426578,5.06796402942971 L48.834732983261375,4.942663697100992 L48.91131399211352,4.813082262117181 L48.983855970464184,4.67953189750515 L49.0521841583336,4.5423343377908765 L49.11613394713235,4.4018201039128 L49.17555127621787,4.258327706967927 L49.23029300404005,4.112202832708946 L49.28022725298176,3.9637975087569766 L49.325233727063576,3.813469256536187 L49.36520400174734,3.661580229973379 L49.40004178514034,3.5084963430374496 L49.42966314997096,3.3545863882205915 L49.45399673577681,3.200221148084879 L49.4729839208183,3.0457725020145974 L49.486578963303586,2.891612530326233 L49.49474911158454,2.7381126178944033 L49.49747468305833,2.5856425594531656 " />
			<path d="M49.49747468305833,-27.95877047932059 L49.49747468305833,2.5856425594531576 " />
			<path d="M-11.769076035238644,-2199.5492359577324 L46.68961560415873,-2214.8422278228004 " />
			<path d="M-1196.1071651574016,-2505.2841067763625 L-1137.6484735180043,-2520.5770986414304 " />
			<path d="M48.96161277700371,-2212.344644890846 L48.95972946975364,-2212.460713302001 L48.954629127656766,-2212.575774414819 L48.94631900170379,-2212.689664650654 L48.93481090613089,-2212.802222095456 L48.9201212016238,-2212.9132867299604 L48.902270772058316,-2213.022700657185 L48.88128499481043,-2213.1303083269017 L48.85719370467809,-2213.2359567567823 L48.83003115146605,-2213.3394957498845 L48.79983595129406,-2213.440778108185 L48.76665103169752,-2213.5396598418433 L48.730523570598876,-2213.6360003739114 L48.691504929236245,-2213.7296627401834 L48.649650579144826,-2213.8205137839145 L48.605020023294834,-2213.908424345127 L48.55767671149803,-2213.993269444231 L48.50768795020321,-2214.074928459704 L48.45512480680881,-2214.153285299577 L48.40006200862868,-2214.2282285664746 L48.34257783665469,-2214.2996517159886 L48.282754014267205,-2214.3674532081473 L48.220675591051595,-2214.4315366517703 L48.156430821886005,-2214.491810941508 L48.090111041472255,-2214.54819038736 L48.02181053448826,-2214.600594836499 L47.95162640154659,-2214.6489497872217 L47.87965842114964,-2214.693186494865 L47.80600890783783,-2214.733242069539 L47.730782566732266,-2214.769059565533 L47.65408634467897,-2214.800588062277 L47.57602927820593,-2214.8277827367306 L47.49672233850948,-2214.8506049271086 " />
			<path d="M47.496722338509464,-2214.8506049271086 L47.399477685910696,-2214.8722849752553 L47.30077739356487,-2214.8875008987347 L47.2008259453159,-2214.896221173725 L47.09983041710914,-2214.8984277338623 L46.99800004797858,-2214.894116007672 L46.89554580655272,-2214.8832949280386 L46.792679953977036,-2214.8659869137 L46.68961560415873,-2214.8422278228004 " />
			<path d="M-1136.139166186937,-2520.1874735114716 L-1136.2178518764906,-2520.2581510670557 L-1136.2994864504599,-2520.3230875538666 L-1136.3839007811644,-2520.382148438742 L-1136.4709199819204,-2520.435211361389 L-1136.5603637693644,-2520.4821663878834 L-1136.6520468369586,-2520.522916238429 L-1136.745779238902,-2520.557376488898 L-1136.8413667836537,-2520.585475745739 " />
			<path d="M-1136.8413667836537,-2520.585475745739 L-1136.9386114362526,-2520.607155793886 L-1137.0373117285983,-2520.6223717173652 L-1137.1372631768472,-2520.6310919923553 L-1137.238258705054,-2520.6332985524928 L-1137.3400890741846,-2520.6289868263025 L-1137.4425433156105,-2520.618165746669 L-1137.545409168186,-2520.6008577323305 L-1137.6484735180045,-2520.577098641431 " />
			<path d="M-11.76907603523864,-2199.5492359577324 L-11.880192994454065,-2199.516443001321 L-11.991024788453075,-2199.4762848509113 L-12.101304413736203,-2199.428858251005 L-12.210766197026794,-2199.3742774564357 L-12.319146435301176,-2199.3126739571176 L-12.426184031072362,-2199.244196161277 L-12.531621121396752,-2199.169009037922 L-12.635203699088557,-2199.087293719418 L-12.736682224645353,-2198.999247065125 L-12.835812227410605,-2198.9050811871452 L-12.93235489452489,-2198.805022939326 L-13.02607764624699,-2198.6993133707515 L-13.116754696258862,-2198.5882071450305 L-13.204167595604659,-2198.471971926793 L-13.288105758953389,-2198.3508877368604 L-13.368366971917432,-2198.2252462776523 L-13.444757878204703,-2198.0953502304487 L-13.517094445430903,-2197.9615125262053 L-13.585202408469648,-2197.8240555916736 L-13.64891768927243,-2197.683310572649 L-13.70808679214699,-2197.5396165362104 L-13.762567173541907,-2197.393319653878 L-13.812227585446477,-2197.244772367654 L-13.856948391578687,-2197.094332540964 L-13.896621855599484,-2196.942362596526 L-13.931152400659059,-2196.789228643248 L-13.96045683964984,-2196.635299594236 L-13.984464575611538,-2196.4809462780518 L-14.003117771805389,-2196.326540545354 L-14.016371491047934,-2196.1724543730766 L-14.02419380396863,-2196.0190589683048 L-14.026565865930499,-2195.8667238740054 " />
			<path d="M-1196.1071651574016,-2505.284106776363 L-1196.218282116617,-2505.2513138199515 L-1196.3291139106161,-2505.2111556695418 L-1196.4393935358992,-2505.1637290696353 L-1196.5488553191897,-2505.109148275066 L-1196.6572355574642,-2505.047544775748 L-1196.7642731532353,-2504.9790669799077 L-1196.8697102435597,-2504.9038798565525 L-1196.9732928212516,-2504.8221645380486 L-1197.0747713468083,-2504.7341178837555 L-1197.1739013495735,-2504.6399520057757 L-1197.2704440166879,-2504.5398937579566 L-1197.3641667684099,-2504.434184189382 L-1197.4548438184218,-2504.323077963661 L-1197.5422567177677,-2504.2068427454233 L-1197.6261948811164,-2504.085758555491 L-1197.7064560940803,-2503.960117096283 L-1197.7828470003676,-2503.8302210490792 L-1197.855183567594,-2503.696383344836 L-1197.9232915306327,-2503.558926410304 L-1197.9870068114353,-2503.4181813912796 L-1198.04617591431,-2503.274487354841 L-1198.1006562957048,-2503.1281904725083 L-1198.1503167076094,-2502.9796431862846 L-1198.1950375137417,-2502.8292033595944 L-1198.2347109777625,-2502.6772334151565 L-1198.269241522822,-2502.5240994618784 L-1198.2985459618128,-2502.3701704128666 L-1198.3225536977745,-2502.2158170966823 L-1198.3412068939683,-2502.0614113639845 L-1198.354460613211,-2501.907325191707 L-1198.3622829261317,-2501.7539297869353 L-1198.3646549880934,-2501.601594692636 " />
			<path d="M-14.026565865930499,-2195.866723874006 L-13.954935864049423,-2165.3525047340813 " />
			<path d="M-1198.3646549880937,-2501.601594692636 L-1198.2930249862125,-2471.0873755527114 " />
			<path d="M-13.954935864049427,-2165.3525047340813 L-13.953052556799362,-2165.2364363229267 L-13.947952214702486,-2165.1213752101085 L-13.93964208874951,-2165.0074849742737 L-13.928133993176614,-2164.8949275294717 L-13.913444288669517,-2164.783862894967 L-13.895593859104038,-2164.6744489677426 L-13.87460808185615,-2164.566841298026 L-13.850516791723809,-2164.461192868145 L-13.823354238511772,-2164.357653875043 L-13.793159038339773,-2164.2563715167425 L-13.759974118743237,-2164.157489783084 L-13.723846657644593,-2164.061149251016 L-13.684828016281962,-2163.967486884744 L-13.642973666190546,-2163.876635841013 L-13.598343110340553,-2163.7887252798005 L-13.55099979854375,-2163.7038801806966 L-13.501011037248933,-2163.6222211652234 L-13.448447893854532,-2163.5438643253506 L-13.393385095674397,-2163.468921058453 L-13.335900923700407,-2163.397497908939 L-13.276077101312925,-2163.3296964167803 L-13.213998678097317,-2163.265612973157 L-13.149753908931723,-2163.2053386834195 L-13.083434128517972,-2163.1489592375674 L-13.015133621533979,-2163.0965547884284 L-12.944949488592306,-2163.048199837706 L-12.87298150819536,-2163.0039631300624 L-12.799331994883545,-2162.9639075553887 L-12.724105653777988,-2162.9280900593944 L-12.647409431724688,-2162.8965615626507 L-12.569352365251648,-2162.869366888197 L-12.490045425555204,-2162.846544697819 " />
			<path d="M-12.490045425555184,-2162.846544697819 L-12.392800772956416,-2162.8248646496722 L-12.294100480610588,-2162.809648726193 L-12.194149032361619,-2162.8009284512027 L-12.093153504154854,-2162.7987218910653 L-11.991323135024299,-2162.8030336172556 L-11.888868893598438,-2162.813854696889 L-11.786003041022756,-2162.8311627112275 L-11.682938691204441,-2162.854921802127 " />
			<path d="M-1198.2930249862125,-2471.087375552712 L-1198.2911416789625,-2470.971307141557 L-1198.2860413368655,-2470.856246028739 L-1198.2777312109126,-2470.742355792904 L-1198.2662231153397,-2470.629798348102 L-1198.2515334108325,-2470.5187337135976 L-1198.233682981267,-2470.409319786373 L-1198.2126972040192,-2470.3017121166563 L-1198.188605913887,-2470.1960636867757 L-1198.1614433606749,-2470.0925246936736 L-1198.1312481605028,-2469.991242335373 L-1198.0980632409062,-2469.8923606017147 L-1198.0619357798075,-2469.7960200696466 L-1198.022917138445,-2469.7023577033747 L-1197.9810627883535,-2469.6115066596435 L-1197.9364322325036,-2469.523596098431 L-1197.8890889207069,-2469.438750999327 L-1197.839100159412,-2469.357091983854 L-1197.7865370160175,-2469.278735143981 L-1197.7314742178373,-2469.2037918770834 L-1197.6739900458635,-2469.1323687275694 L-1197.6141662234759,-2469.064567235411 L-1197.5520878002603,-2469.0004837917877 L-1197.4878430310948,-2468.94020950205 L-1197.421523250681,-2468.883830056198 L-1197.353222743697,-2468.831425607059 L-1197.2830386107553,-2468.7830706563363 L-1197.2110706303583,-2468.738833948693 L-1197.1374211170466,-2468.698778374019 L-1197.062194775941,-2468.662960878025 L-1196.9854985538877,-2468.6314323812812 L-1196.9074414874146,-2468.6042377068275 L-1196.8281345477183,-2468.5814155164494 " />
			<path d="M-1196.8281345477183,-2468.5814155164494 L-1196.7308898951194,-2468.5597354683027 L-1196.6321896027737,-2468.5445195448233 L-1196.5322381545247,-2468.535799269833 L-1196.431242626318,-2468.5335927096958 L-1196.3294122571874,-2468.537904435886 L-1196.2269580157615,-2468.5487255155194 L-1196.1240921631859,-2468.566033529858 L-1196.0210278133675,-2468.5897926207576 " />
			<path d="M46.775752948192924,-2178.147913667195 L46.886869907408354,-2178.1807066236065 L46.99770170140736,-2178.2208647740163 L47.10798132669049,-2178.2682913739227 L47.217443109981076,-2178.322872168492 L47.32582334825546,-2178.38447566781 L47.43286094402665,-2178.4529534636504 L47.53829803435104,-2178.5281405870055 L47.64188061204284,-2178.6098559055094 L47.74335913759964,-2178.6979025598025 L47.84248914036489,-2178.7920684377823 L47.939031807479175,-2178.8921266856014 L48.03275455920127,-2178.997836254176 L48.12343160921315,-2179.108942479897 L48.21084450855894,-2179.2251776981348 L48.294782671907676,-2179.346261888067 L48.375043884871715,-2179.471903347275 L48.45143479115899,-2179.601799394479 L48.52377135838519,-2179.7356370987222 L48.59187932142393,-2179.873094033254 L48.655594602226714,-2180.0138390522784 L48.71476370510128,-2180.157533088717 L48.769244086496194,-2180.3038299710497 L48.81890449840076,-2180.4523772572734 L48.863625304532974,-2180.6028170839636 L48.90329876855377,-2180.7547870284016 L48.93782931361334,-2180.9079209816796 L48.96713375260413,-2181.0618500306914 L48.99114148856582,-2181.216203346876 L49.009794684759676,-2181.3706090795736 L49.02304840400222,-2181.524695251851 L49.03087071692291,-2181.6780906566228 L49.033242778884784,-2181.830425750922 " />
			<path d="M48.96161277700371,-2212.344644890846 L49.033242778884784,-2181.8304257509217 " />
			<path d="M-11.17231451783,-15.501783207964554 L47.23470558653537,-30.471928690351096 " />
			<path d="M-11.172585585044263,-2163.9533355948643 L47.2344345193211,-2178.9234810772505 " />
			<path d="M47.234705584858425,-31.63184257639919 L47.3430074819459,-31.6026868684491 L47.4455973277965,-31.572204231544124 L47.54222797450587,-31.540468101020554 L47.632666630401204,-31.507554931990352 L47.71669542085668,-31.47354401515411 L47.79411191317253,-31.43851728578283 L47.864729604253036,-31.402559126328672 L47.92837836990886,-31.36575616314028 L47.98490487470106,-31.328197057772307 L48.03417294133951,-31.28997229339202 L48.07606387874599,-31.251173956797405 L48.11047676799128,-31.211895516572046 L48.137328705417715,-31.17223159791113 L48.15655500236136,-31.13227775466108 L48.16810934099261,-31.092130239121996 L48.171963885899935,-31.051885770167456 " />
			<path d="M48.171963885899935,-31.051885770167452 L48.16810935052037,-31.011641296966822 L48.15655502014057,-30.971493775262378 L48.13732873015675,-30.931539923958287 L48.11047679838927,-30.891875995389714 L48.07606391349896,-30.852597543442513 L48.0341729791465,-30.81379919335551 L47.98490491427015,-30.775574413760005 L47.92837840996325,-30.738015291505636 L47.86472964353688,-30.701212309815066 L47.79411195045682,-30.665254130301964 L47.71669545494494,-30.63022737937739 L47.632666660134966,-30.59621643955918 L47.54222799877014,-30.56330324618702 L47.4455973455249,-30.531567090033054 L47.34300749212573,-30.50108442628344 L47.23470558653538,-30.471928690351103 " />
			<path d="M-11.172314517829994,-15.50178320796456 L-11.286067562076354,-15.474024639677284 L-11.404997708225132,-15.447730110643247 L-11.528818443137203,-15.422962966686026 L-11.657231471816749,-15.399782874024755 L-11.789927436030027,-15.378245675532993 L-11.926586659576456,-15.358403256208344 L-12.066879918416577,-15.34030341817695 L-12.210469233801607,-15.323989765533986 L-12.357008686493845,-15.309501599297578 L-12.506145250116411,-15.296873822729204 L-12.657519641624722,-15.286136857248678 L-12.810767186850802,-15.27731656914629 L-13.12140136823074,-15.265506351828328 L-13.435056217279625,-15.261556909624215 L-13.748711066339927,-15.265506277821357 L-14.059345247754015,-15.277316421845075 L-14.2125927930056,-15.28613667378865 L-14.363967184544956,-15.296873603552337 L-14.513103748204037,-15.309501344931887 L-14.659643200938163,-15.32398947659226 L-14.803232516370363,-15.340303095355274 L-14.943525775262819,-15.358402900284425 L-15.080184998866622,-15.378245287364283 L-15.212880963142178,-15.399782454546386 L-15.341293991888751,-15.422962516908557 L-15.465114726872436,-15.447729631650235 L-15.584044873097243,-15.47402413262266 L-15.697797917423847,-15.501782674069862 " />
			<path d="M-15.697797917423872,-15.501782674069865 L-38.04237221119851,-21.22885485032726 " />
			<path d="M-15.698068984638128,-2163.9533350609695 L-38.04264327841277,-2169.6804072372265 " />
			<path d="M-38.04237221119851,-21.228854850327252 L-38.15067410828598,-21.25801055827734 L-38.253263954136585,-21.28849319518232 L-38.34989460084596,-21.32022932570589 L-38.44033325674129,-21.35314249473609 L-38.524362047196774,-21.38715341157233 L-38.601778539512615,-21.422180140943613 L-38.67239623059312,-21.45813830039777 L-38.73604499624895,-21.494941263586163 L-38.792571501041145,-21.532500368954135 L-38.8418395676796,-21.570725133334424 L-38.88373050508608,-21.609523469929037 L-38.918143394331366,-21.648801910154397 L-38.9449953317578,-21.688465828815314 L-38.964221628701445,-21.728419672065364 L-38.975775967332694,-21.768567187604447 L-38.97963051224002,-21.808811656558984 " />
			<path d="M-38.97963051224002,-21.808811656558994 L-38.97577597686045,-21.84905612975962 L-38.96422164648066,-21.889203651464065 L-38.94499535649684,-21.929157502768156 L-38.91814342472935,-21.96882143133673 L-38.88373053983905,-22.00809988328393 L-38.841839605486584,-22.046898233370932 L-38.79257154061024,-22.085123012966438 L-38.73604503630333,-22.122682135220806 L-38.67239626987697,-22.159485116911377 L-38.60177857679691,-22.19544329642448 L-38.52436208128502,-22.23047004734905 L-38.44033328647505,-22.264480987167264 L-38.349894625110224,-22.297394180539424 L-38.25326397186499,-22.32913033669339 L-38.150674118465815,-22.359613000443 L-38.042372212875456,-22.388768736375344 " />
			<path d="M-298.54048301696037,-89.15633853366755 L-240.1334628909515,-104.12648400638933 " />
			<path d="M-240.13346289095148,-105.28639842558327 L-240.02516098961254,-105.25724269024084 L-239.92257113998767,-105.22676002590242 L-239.82594049001037,-105.19502386797637 L-239.73550183138028,-105.1621106716469 L-239.65147303874755,-105.1280997276868 L-239.5740565448337,-105.09307297143908 L-239.50343885275342,-105.05711478542756 L-239.43979008671232,-105.02031179607185 L-239.38326358216275,-104.98275266499691 L-239.33399551640537,-104.94452787543928 L-239.2921045805259,-104.9057295142651 L-239.2576916934581,-104.86645105012478 L-239.23083975886112,-104.82678710827881 L-239.2116134653974,-104.78683324263724 L-239.20005913089187,-104.74668570556196 L-239.19620459074844,-104.7064412159863 " />
			<path d="M-239.19620459074844,-104.7064412159863 L-239.20005913089187,-104.66619672641065 L-239.2116134653974,-104.62604918933536 L-239.23083975886112,-104.5860953236938 L-239.2576916934581,-104.54643138184782 L-239.2921045805259,-104.5071529177075 L-239.33399551640537,-104.46835455653333 L-239.38326358216275,-104.4301297669757 L-239.43979008671232,-104.39257063590075 L-239.50343885275342,-104.35576764654506 L-239.5740565448337,-104.31980946053352 L-239.65147303874755,-104.2847827042858 L-239.73550183138028,-104.2507717603257 L-239.82594049001037,-104.21785856399623 L-239.92257113998767,-104.18612240607018 L-240.02516098961254,-104.15563974173176 L-240.13346289095145,-104.12648400638933 " />
			<path d="M-298.5404830169603,-89.15633853366755 L-298.6542360612468,-89.1285799660413 L-298.7731662074336,-89.10228543895198 L-298.8969869423815,-89.07751829821851 L-299.02539997109454,-89.05433821005224 L-299.15809593533896,-89.03280101731589 L-299.2947551589141,-89.01295860499323 L-299.43504841778037,-88.9948587751935 L-299.57863773318894,-88.97854513199208 L-299.72517718590217,-88.96405697638431 L-299.874313749543,-88.9514292116061 L-300.0256881410668,-88.94069225904883 L-300.17893568630564,-88.93187198497168 L-300.48956986770264,-88.92006179887237 L-300.80322471675726,-88.91611239185643 L-301.11687956581187,-88.92006179887237 L-301.4275137472089,-88.93187198497168 L-301.5807612924477,-88.94069225904883 L-301.73213568397153,-88.9514292116061 L-301.88127224761234,-88.96405697638431 L-302.02781170032557,-88.97854513199208 L-302.17140101573415,-88.9948587751935 L-302.3116942746004,-89.01295860499323 L-302.44835349817555,-89.03280101731589 L-302.58104946241997,-89.05433821005224 L-302.709462491133,-89.07751829821851 L-302.83328322608094,-89.10228543895198 L-302.9522133722677,-89.12857996604129 L-303.0659664165542,-89.15633853366755 " />
			<path d="M-298.5404830169603,-2237.6078214856425 L-298.6542360612468,-2237.580062918016 L-298.7731662074336,-2237.553768390927 L-298.8969869423815,-2237.5290012501937 L-299.02539997109454,-2237.505821162027 L-299.15809593533896,-2237.484283969291 L-299.2947551589141,-2237.4644415569683 L-299.43504841778037,-2237.4463417271686 L-299.57863773318894,-2237.430028083967 L-299.72517718590217,-2237.4155399283595 L-299.874313749543,-2237.4029121635813 L-300.0256881410668,-2237.3921752110236 L-300.17893568630564,-2237.3833549369465 L-300.48956986770264,-2237.3715447508475 L-300.80322471675726,-2237.3675953438315 L-301.11687956581187,-2237.3715447508475 L-301.4275137472089,-2237.3833549369465 L-301.5807612924477,-2237.3921752110236 L-301.73213568397153,-2237.4029121635813 L-301.88127224761234,-2237.4155399283595 L-302.02781170032557,-2237.430028083967 L-302.17140101573415,-2237.4463417271686 L-302.3116942746004,-2237.4644415569683 L-302.44835349817555,-2237.484283969291 L-302.58104946241997,-2237.505821162027 L-302.709462491133,-2237.5290012501937 L-302.83328322608094,-2237.553768390927 L-302.9522133722677,-2237.580062918016 L-303.0659664165542,-2237.6078214856425 " />
			<path d="M-303.0659664165542,-89.15633853366754 L-325.4105407020491,-94.88341597843763 " />
			<path d="M-303.0659664165542,-2237.6078214856425 L-325.4105407020491,-2243.3348989304122 " />
			<path d="M-325.41054070204916,-94.88341597843763 L-325.51884260338807,-94.91257171378005 L-325.62143245301297,-94.94305437811848 L-325.7180631029903,-94.97479053604452 L-325.80850176162033,-95.007703732374 L-325.8925305542531,-95.0417146763341 L-325.96994704816694,-95.07674143258181 L-326.04056474024725,-95.11269961859334 L-326.1042135062883,-95.14950260794905 L-326.16074001083786,-95.18706173902399 L-326.2100080765953,-95.22528652858162 L-326.2518990124748,-95.2640848897558 L-326.28631189954257,-95.30336335389612 L-326.3131638341395,-95.3430272957421 L-326.3323901276032,-95.38298116138365 L-326.34394446210877,-95.42312869845894 L-326.3477990022522,-95.46337318803458 " />
			<path d="M-326.3477990022522,-95.4633731880346 L-326.34394446210877,-95.50361767761025 L-326.3323901276032,-95.54376521468554 L-326.3131638341395,-95.58371908032709 L-326.28631189954257,-95.62338302217307 L-326.2518990124748,-95.6626614863134 L-326.2100080765953,-95.70145984748757 L-326.16074001083786,-95.7396846370452 L-326.1042135062883,-95.77724376812014 L-326.04056474024725,-95.81404675747584 L-325.96994704816694,-95.85000494348738 L-325.8925305542531,-95.8850316997351 L-325.80850176162033,-95.91904264369519 L-325.7180631029903,-95.95195584002467 L-325.62143245301297,-95.98369199795071 L-325.51884260338807,-96.01417466228914 L-325.41054070204916,-96.04333039763156 " />
			<path d="M-325.41054070204916,-2243.3348989304122 L-325.51884260338807,-2243.364054665755 L-325.62143245301297,-2243.394537330093 L-325.7180631029903,-2243.4262734880194 L-325.80850176162033,-2243.459186684349 L-325.8925305542531,-2243.4931976283087 L-325.96994704816694,-2243.5282243845563 L-326.04056474024725,-2243.564182570568 L-326.1042135062883,-2243.6009855599236 L-326.16074001083786,-2243.6385446909985 L-326.2100080765953,-2243.6767694805562 L-326.2518990124748,-2243.7155678417307 L-326.28631189954257,-2243.7548463058706 L-326.3131638341395,-2243.794510247717 L-326.3323901276032,-2243.8344641133585 L-326.34394446210877,-2243.8746116504335 L-326.3477990022522,-2243.9148561400093 " />
			<path d="M-585.9086788911732,-162.81090415248275 L-527.5016587651644,-177.78104962520456 " />
			<path d="M-527.5016587651645,-178.9409640443985 L-527.3933568638256,-178.91180830905606 L-527.2907670142007,-178.88132564471763 L-527.1941363642234,-178.8495894867916 L-527.1036977055933,-178.8166762904621 L-527.0196689129606,-178.782665346502 L-526.9422524190467,-178.7476385902543 L-526.8716347269665,-178.71168040424277 L-526.8079859609253,-178.67487741488708 L-526.7514594563758,-178.63731828381214 L-526.7021913906184,-178.5990934942545 L-526.660300454739,-178.5602951330803 L-526.6258875676712,-178.52101666893998 L-526.5990356330742,-178.48135272709402 L-526.5798093396104,-178.44139886145246 L-526.5682550051049,-178.40125132437717 L-526.5644004649614,-178.36100683480151 " />
			<path d="M-526.5644004649614,-178.36100683480151 L-526.5682550051049,-178.32076234522586 L-526.5798093396104,-178.28061480815057 L-526.5990356330742,-178.240660942509 L-526.6258875676712,-178.20099700066305 L-526.660300454739,-178.16171853652273 L-526.7021913906184,-178.12292017534853 L-526.7514594563758,-178.0846953857909 L-526.8079859609253,-178.04713625471595 L-526.8716347269665,-178.01033326536026 L-526.9422524190467,-177.97437507934873 L-527.0196689129606,-177.93934832310103 L-527.1036977055933,-177.90533737914092 L-527.1941363642234,-177.87242418281144 L-527.2907670142007,-177.8406880248854 L-527.3933568638256,-177.81020536054697 L-527.5016587651645,-177.78104962520456 " />
			<path d="M-585.9086788911733,-162.81090415248275 L-586.0224319354597,-162.7831455848565 L-586.1413620816465,-162.7568510577672 L-586.2651828165945,-162.73208391703372 L-586.3935958453075,-162.70890382886745 L-586.5262918095519,-162.68736663613112 L-586.662951033127,-162.66752422380844 L-586.8032442919933,-162.64942439400872 L-586.9468336074019,-162.63311075080728 L-587.0933730601151,-162.61862259519953 L-587.242509623756,-162.6059948304213 L-587.3938840152798,-162.59525787786404 L-587.5471315605187,-162.5864376037869 L-587.8577657419156,-162.5746274176876 L-588.1714205909702,-162.57067801067163 L-588.4850754400248,-162.5746274176876 L-588.7957096214218,-162.5864376037869 L-588.9489571666606,-162.59525787786404 L-589.1003315581845,-162.6059948304213 L-589.2494681218253,-162.61862259519953 L-589.3960075745385,-162.63311075080728 L-589.5395968899471,-162.64942439400872 L-589.6798901488135,-162.66752422380844 L-589.8165493723885,-162.68736663613112 L-589.949245336633,-162.70890382886745 L-590.077658365346,-162.73208391703372 L-590.2014791002939,-162.7568510577672 L-590.3204092464807,-162.7831455848565 L-590.4341622907672,-162.81090415248275 " />
			<path d="M-585.9086788911733,-2311.2623871044575 L-586.0224319354597,-2311.234628536831 L-586.1413620816465,-2311.208334009742 L-586.2651828165945,-2311.1835668690087 L-586.3935958453075,-2311.160386780842 L-586.5262918095519,-2311.138849588106 L-586.662951033127,-2311.1190071757833 L-586.8032442919933,-2311.1009073459836 L-586.9468336074019,-2311.084593702782 L-587.0933730601151,-2311.0701055471745 L-587.242509623756,-2311.0574777823963 L-587.3938840152798,-2311.0467408298387 L-587.5471315605187,-2311.0379205557615 L-587.8577657419156,-2311.0261103696625 L-588.1714205909702,-2311.0221609626465 L-588.4850754400248,-2311.0261103696625 L-588.7957096214218,-2311.0379205557615 L-588.9489571666606,-2311.0467408298387 L-589.1003315581845,-2311.0574777823963 L-589.2494681218253,-2311.0701055471745 L-589.3960075745385,-2311.084593702782 L-589.5395968899471,-2311.1009073459836 L-589.6798901488135,-2311.1190071757833 L-589.8165493723885,-2311.138849588106 L-589.949245336633,-2311.160386780842 L-590.077658365346,-2311.1835668690087 L-590.2014791002939,-2311.208334009742 L-590.3204092464807,-2311.234628536831 L-590.4341622907672,-2311.2623871044575 " />
			<path d="M-590.4341622907671,-162.81090415248275 L-612.778736576262,-168.53798159725284 " />
			<path d="M-590.4341622907671,-2311.262387104458 L-612.778736576262,-2316.9894645492277 " />
			<path d="M-612.778736576262,-168.5379815972528 L-612.8870384776009,-168.56713733259525 L-612.9896283272258,-168.59761999693367 L-613.0862589772031,-168.62935615485972 L-613.1766976358332,-168.6622693511892 L-613.2607264284659,-168.6962802951493 L-613.3381429223798,-168.731307051397 L-613.40876061446,-168.76726523740854 L-613.4724093805012,-168.80406822676423 L-613.5289358850507,-168.84162735783917 L-613.5782039508081,-168.8798521473968 L-613.6200948866875,-168.918650508571 L-613.6545077737553,-168.95792897271133 L-613.6813597083523,-168.9975929145573 L-613.7005860018161,-169.03754678019885 L-613.7121403363216,-169.07769431727414 L-613.7159948764651,-169.1179388068498 " />
			<path d="M-613.7159948764651,-169.1179388068498 L-613.7121403363216,-169.15818329642545 L-613.7005860018161,-169.19833083350073 L-613.6813597083523,-169.2382846991423 L-613.6545077737553,-169.27794864098826 L-613.6200948866875,-169.31722710512858 L-613.5782039508081,-169.35602546630278 L-613.5289358850507,-169.3942502558604 L-613.4724093805012,-169.43180938693536 L-613.40876061446,-169.46861237629105 L-613.3381429223798,-169.50457056230258 L-613.2607264284659,-169.53959731855028 L-613.1766976358332,-169.5736082625104 L-613.0862589772031,-169.60652145883986 L-612.9896283272258,-169.6382576167659 L-612.8870384776009,-169.66874028110433 L-612.778736576262,-169.69789601644675 " />
			<path d="M-612.778736576262,-2316.9894645492277 L-612.8870384776009,-2317.0186202845703 L-612.9896283272258,-2317.0491029489085 L-613.0862589772031,-2317.080839106835 L-613.1766976358332,-2317.1137523031643 L-613.2607264284659,-2317.147763247124 L-613.3381429223798,-2317.182790003372 L-613.40876061446,-2317.2187481893834 L-613.4724093805012,-2317.255551178739 L-613.5289358850507,-2317.293110309814 L-613.5782039508081,-2317.3313350993717 L-613.6200948866875,-2317.370133460546 L-613.6545077737553,-2317.409411924686 L-613.6813597083523,-2317.4490758665324 L-613.7005860018161,-2317.489029732174 L-613.7121403363216,-2317.529177269249 L-613.7159948764651,-2317.569421758825 " />
			<path d="M-613.7159948764651,-2317.569421758825 L-613.7144977711586,-2317.5945074650135 L-613.7100078560669,-2317.6195696987375 L-613.7025293323624,-2317.644585009494 L-613.6920691976308,-2317.669529990688 L-613.6786372393243,-2317.694381301528 L-613.6622460256029,-2317.719115688872 L-613.6429108935747,-2317.74371000898 L-613.6206499349454,-2317.7681412491734 L-613.5954839790892,-2317.792386549364 L-613.5674365735601,-2317.816423223448 L-613.5028050598722,-2317.8637809459683 L-613.4269972377509,-2317.9100372094526 L-613.3402967715572,-2317.9550189281554 " />
			<path d="M-873.276874765386,-236.46546977129793 L-814.8698546393772,-251.43561524401974 " />
			<path d="M-873.276874765386,-2384.9169527232725 L-873.0042499855386,-2384.986828443776 " />
			<path d="M-814.8698546393772,-252.59552966321368 L-814.7615527380383,-252.56637392787124 L-814.6589628884134,-252.53589126353282 L-814.562332238436,-252.50415510560677 L-814.471893579806,-252.4712419092773 L-814.3878647871733,-252.43723096531718 L-814.3104482932594,-252.40220420906948 L-814.2398306011792,-252.36624602305795 L-814.176181835138,-252.32944303370226 L-814.1196553305884,-252.29188390262732 L-814.0703872648311,-252.2536591130697 L-814.0284963289516,-252.2148607518955 L-813.9940834418838,-252.17558228775516 L-813.9672315072869,-252.1359183459092 L-813.9480052138231,-252.09596448026764 L-813.9364508793176,-252.05581694319235 L-813.9325963391741,-252.0155724536167 " />
			<path d="M-813.9325963391741,-252.0155724536167 L-813.9364508793176,-251.97532796404104 L-813.9480052138231,-251.93518042696576 L-813.9672315072869,-251.8952265613242 L-813.9940834418838,-251.85556261947823 L-814.0284963289516,-251.8162841553379 L-814.0703872648311,-251.7774857941637 L-814.1196553305884,-251.73926100460608 L-814.176181835138,-251.70170187353114 L-814.2398306011792,-251.66489888417544 L-814.3104482932594,-251.62894069816392 L-814.3878647871733,-251.5939139419162 L-814.471893579806,-251.5599029979561 L-814.562332238436,-251.52698980162663 L-814.6589628884134,-251.49525364370058 L-814.7615527380383,-251.46477097936216 L-814.8698546393772,-251.43561524401974 " />
			<path d="M-873.276874765386,-236.46546977129793 L-873.3906278096724,-236.43771120367168 L-873.5095579558592,-236.41141667658238 L-873.6333786908071,-236.3866495358489 L-873.7617917195201,-236.36346944768263 L-873.8944876837646,-236.3419322549463 L-874.0311469073397,-236.32208984262363 L-874.171440166206,-236.3039900128239 L-874.3150294816146,-236.28767636962246 L-874.4615689343278,-236.2731882140147 L-874.6107054979686,-236.2605604492365 L-874.7620798894925,-236.24982349667923 L-874.9153274347314,-236.24100322260207 L-875.2259616161283,-236.22919303650278 L-875.5396164651829,-236.2252436294868 L-875.8532713142375,-236.22919303650278 L-876.1639054956345,-236.24100322260207 L-876.3171530408733,-236.24982349667923 L-876.4685274323972,-236.2605604492365 L-876.617663996038,-236.2731882140147 L-876.7642034487512,-236.28767636962246 L-876.9077927641598,-236.3039900128239 L-877.0480860230261,-236.32208984262363 L-877.1847452466012,-236.3419322549463 L-877.3174412108457,-236.36346944768263 L-877.4458542395587,-236.3866495358489 L-877.5696749745066,-236.41141667658238 L-877.6886051206934,-236.43771120367168 L-877.8023581649799,-236.46546977129793 " />
			<path d="M-873.276874765386,-2384.9169527232725 L-873.3906278096724,-2384.8891941556462 L-873.5095579558592,-2384.862899628557 L-873.6333786908071,-2384.8381324878237 L-873.7617917195201,-2384.814952399657 L-873.8944876837646,-2384.793415206921 L-874.0311469073397,-2384.7735727945983 L-874.171440166206,-2384.7554729647986 L-874.3150294816146,-2384.739159321597 L-874.4615689343278,-2384.7246711659895 L-874.6107054979686,-2384.7120434012113 L-874.7620798894925,-2384.7013064486537 L-874.9153274347314,-2384.6924861745765 L-875.2259616161283,-2384.6806759884776 L-875.5396164651829,-2384.6767265814615 L-875.8532713142375,-2384.6806759884776 L-876.1639054956345,-2384.6924861745765 L-876.3171530408733,-2384.7013064486537 L-876.4685274323972,-2384.7120434012113 L-876.617663996038,-2384.7246711659895 L-876.7642034487512,-2384.739159321597 L-876.9077927641598,-2384.7554729647986 L-877.0480860230261,-2384.7735727945983 L-877.1847452466012,-2384.793415206921 L-877.3174412108457,-2384.814952399657 L-877.4458542395587,-2384.8381324878237 L-877.5696749745066,-2384.862899628557 L-877.6886051206934,-2384.8891941556462 L-877.8023581649799,-2384.9169527232725 " />
			<path d="M-877.8023581649799,-236.46546977129793 L-900.1469324504748,-242.19254721606802 " />
			<path d="M-877.8023581649799,-2384.916952723273 L-900.1469324504748,-2390.6440301680427 " />
			<path d="M-900.1469324504748,-242.192547216068 L-900.2552343518137,-242.22170295141044 L-900.3578242014386,-242.25218561574886 L-900.4544548514159,-242.2839217736749 L-900.544893510046,-242.31683497000438 L-900.6289223026787,-242.3508459139645 L-900.7063387965926,-242.3858726702122 L-900.7769564886728,-242.42183085622372 L-900.840605254714,-242.4586338455794 L-900.8971317592635,-242.49619297665436 L-900.9463998250209,-242.534417766212 L-900.9882907609003,-242.5732161273862 L-901.0227036479681,-242.6124945915265 L-901.0495555825651,-242.65215853337247 L-901.0687818760289,-242.69211239901404 L-901.0803362105344,-242.73225993608932 L-901.0841907506779,-242.77250442566498 " />
			<path d="M-901.0841907506779,-242.77250442566498 L-901.0803362105344,-242.81274891524063 L-901.0687818760289,-242.85289645231592 L-901.0495555825651,-242.89285031795748 L-901.0227036479681,-242.93251425980344 L-900.9882907609003,-242.97179272394376 L-900.9463998250209,-243.01059108511797 L-900.8971317592635,-243.0488158746756 L-900.840605254714,-243.08637500575054 L-900.7769564886728,-243.12317799510623 L-900.7063387965926,-243.15913618111776 L-900.6289223026787,-243.19416293736546 L-900.544893510046,-243.22817388132557 L-900.4544548514159,-243.26108707765505 L-900.3578242014386,-243.2928232355811 L-900.2552343518137,-243.32330589991952 L-900.1469324504748,-243.35246163526193 " />
			<path d="M-900.1469324504748,-2390.6440301680427 L-900.2552343518137,-2390.6731859033853 L-900.3578242014386,-2390.7036685677235 L-900.4544548514159,-2390.73540472565 L-900.544893510046,-2390.7683179219794 L-900.6289223026787,-2390.802328865939 L-900.7063387965926,-2390.837355622187 L-900.7769564886728,-2390.8733138081984 L-900.840605254714,-2390.910116797554 L-900.8971317592635,-2390.947675928629 L-900.9463998250209,-2390.9859007181867 L-900.9882907609003,-2391.024699079361 L-901.0227036479681,-2391.063977543501 L-901.0495555825651,-2391.1036414853475 L-901.0687818760289,-2391.143595350989 L-901.0803362105344,-2391.183742888064 L-901.0841907506779,-2391.22398737764 " />
			<path d="M-901.0841907506779,-2391.22398737764 L-901.0803362105344,-2391.2642318672156 L-901.0687818760289,-2391.3043794042906 L-901.0495555825651,-2391.344333269932 L-901.0227036479681,-2391.3839972117785 L-900.9882907609003,-2391.4232756759184 L-900.9463998250209,-2391.462074037093 L-900.8971317592635,-2391.5002988266506 L-900.840605254714,-2391.5378579577255 L-900.7769564886728,-2391.574660947081 L-900.7063387965926,-2391.6106191330928 L-900.6289223026787,-2391.6456458893404 L-900.544893510046,-2391.6796568333 L-900.4544548514159,-2391.7125700296297 L-900.3578242014386,-2391.744306187556 L-900.2552343518137,-2391.7747888518943 L-900.1469324504748,-2391.803944587237 " />
			<path d="M-900.1469324504748,-2391.803944587237 L-899.7781516656403,-2391.8984657935 " />
			<path d="M-1169.6959686263888,-312.4398438083155 L-1111.2889484980126,-327.4099892804306 " />
			<path d="M-1169.6957294483866,-2460.891265457198 L-1168.362347800582,-2461.233020903609 " />
			<path d="M-1111.288948497829,-328.56990417033086 L-1111.180646592668,-328.5407484108086 L-1111.0780567396444,-328.5102657222524 L-1110.9814260867186,-328.4785295401343 L-1110.8909874256137,-328.4456163197023 L-1110.8069586310019,-328.41160535179307 L-1110.7295421356241,-328.37657857181324 L-1110.658924442612,-328.34062036234985 L-1110.595275676186,-328.3038173498854 L-1110.5387491718102,-328.26625819610683 L-1110.489481106795,-328.2280333843121 L-1110.4475901722326,-328.18923500142745 L-1110.4131772870612,-328.14995651616243 L-1110.3863253549414,-328.1102925538353 L-1110.3670990645342,-328.0703386684124 L-1110.3555447336607,-328.0301911123102 L-1110.3516901977177,-327.98994660451496 " />
			<path d="M-1110.3516901977177,-327.9899466045149 L-1110.355544742062,-327.94970210049553 L-1110.3670990801993,-327.90955454986255 L-1110.3863253767197,-327.86960067157486 L-1110.4131773137938,-327.8299367180179 L-1110.447590202758,-327.79065824312295 L-1110.4894811399547,-327.75185987216963 L-1110.538749206454,-327.713635073825 L-1110.5952757111775,-327.67607593496984 L-1110.6589244768336,-327.63927293885274 L-1110.7295421679821,-327.6033147471086 L-1110.806958660432,-327.56828798616453 L-1110.8909874510857,-327.53427703854953 L-1110.981426107241,-327.50136383960944 L-1111.0780567542697,-327.4696276801177 L-1111.180646600496,-327.4391450152566 L-1111.2889484980126,-327.4099892804306 " />
			<path d="M-1169.6959686263888,-312.4398438083156 L-1169.8097216706797,-312.41208524125744 L-1169.9286518168706,-312.38579071586895 L-1170.0524725518223,-312.3610235779649 L-1170.180885580539,-312.33784349374974 L-1170.313581544787,-312.3163063060768 L-1170.4502407683651,-312.2964638999175 L-1170.5905340272343,-312.27836407736635 L-1170.7341233426455,-312.26205044248127 L-1170.880662795361,-312.24756229623745 L-1171.0297993590038,-312.23493454184836 L-1171.1811737505293,-312.2241976006803 L-1171.3344212957695,-312.215377338965 L-1171.6450554771684,-312.203567180386 L-1171.9587103262236,-312.1996178043946 L-1172.2723651752776,-312.20356724564056 L-1172.5829993566729,-312.2153774688456 L-1172.7362469019101,-312.22419776244334 L-1172.8876212934324,-312.23493473510416 L-1173.0367578570713,-312.2475625205205 L-1173.1832973097821,-312.26205069725114 L-1173.326886625188,-312.27836436200937 L-1173.4671798840516,-312.2964642137479 L-1173.6038391076236,-312.3163066483385 L-1173.7365350718646,-312.3378438636183 L-1173.8649481005739,-312.3610239745492 L-1173.988768835518,-312.3857911382136 L-1174.1076989817004,-312.41208568834503 L-1174.2214520259827,-312.4398442790689 " />
			<path d="M-1169.6957294483866,-2460.8912654571986 L-1169.8094824926775,-2460.863506890141 L-1169.9284126388684,-2460.8372123647523 L-1170.0522333738202,-2460.812445226848 L-1170.180646402537,-2460.789265142633 L-1170.3133423667848,-2460.76772795496 L-1170.450001590363,-2460.7478855488007 L-1170.5902948492321,-2460.7297857262497 L-1170.7338841646433,-2460.7134720913646 L-1170.880423617359,-2460.6989839451207 L-1171.0295601810017,-2460.6863561907317 L-1171.1809345725271,-2460.6756192495636 L-1171.3341821177673,-2460.6667989878483 L-1171.6448162991662,-2460.6549888292693 L-1171.9584711482214,-2460.651039453278 L-1172.2721259972755,-2460.6549888945237 L-1172.5827601786707,-2460.6667991177287 L-1172.736007723908,-2460.6756194113264 L-1172.8873821154302,-2460.6863563839875 L-1173.036518679069,-2460.6989841694035 L-1173.18305813178,-2460.7134723461345 L-1173.326647447186,-2460.7297860108924 L-1173.4669407060494,-2460.747885862631 L-1173.6035999296214,-2460.7677282972218 L-1173.7362958938625,-2460.7892655125015 L-1173.8647089225717,-2460.8124456234323 L-1173.9885296575158,-2460.837212787097 L-1174.1074598036982,-2460.8635073372284 L-1174.2212128479805,-2460.891265927952 " />
			<path d="M-1174.2214520259824,-312.4398442790689 L-1196.5660263105717,-318.1669263722963 " />
			<path d="M-1174.2212128479803,-2460.891265927952 L-1196.5657871325695,-2466.6183480211794 " />
			<path d="M-1196.5660263105717,-318.16692637229625 L-1196.6743282157329,-318.1960821318185 L-1196.7769180687565,-318.2265648203747 L-1196.8735487216823,-318.25830100249283 L-1196.963987382787,-318.2912142229248 L-1197.048016177399,-318.32522519083403 L-1197.1254326727767,-318.36025197081386 L-1197.1960503657888,-318.39621018027725 L-1197.2596991322148,-318.4330131927417 L-1197.3162256365906,-318.47057234652027 L-1197.3654937016058,-318.508797158315 L-1197.4073846361682,-318.54759554119966 L-1197.4417975213396,-318.58687402646467 L-1197.4686494534594,-318.6265379887918 L-1197.4878757438667,-318.6664918742147 L-1197.49943007474,-318.7066394303169 L-1197.503284610683,-318.74688393811215 " />
			<path d="M-1196.5657871325695,-2466.61834802118 L-1196.6740890377307,-2466.647503780702 L-1196.7766788907543,-2466.677986469258 L-1196.87330954368,-2466.7097226513765 L-1196.963748204785,-2466.7426358718085 L-1197.0477769993968,-2466.7766468397176 L-1197.1251934947745,-2466.8116736196976 L-1197.1958111877866,-2466.847631829161 L-1197.2594599542126,-2466.884434841625 L-1197.3159864585884,-2466.9219939954037 L-1197.3652545236037,-2466.9602188071985 L-1197.407145458166,-2466.999017190083 L-1197.4415583433374,-2467.0382956753483 L-1197.4684102754572,-2467.077959637675 L-1197.4876365658645,-2467.117913523098 L-1197.499190896738,-2467.1580610792003 L-1197.503045432681,-2467.1983055869955 " />
			<path d="M-1197.503045432681,-2467.1983055869955 L-1197.4991908883367,-2467.238550091015 L-1197.4876365501993,-2467.2786976416483 L-1197.468410253679,-2467.318651519936 L-1197.4415583166049,-2467.358315473493 L-1197.4071454276407,-2467.3975939483876 L-1197.365254490444,-2467.436392319341 L-1197.3159864239447,-2467.4746171176857 L-1197.2594599192212,-2467.512176256541 L-1197.195811153565,-2467.548979252658 L-1197.1251934624165,-2467.584937444402 L-1197.0477769699667,-2467.619964205346 L-1196.963748179313,-2467.6539751529613 L-1196.8733095231576,-2467.686888351901 L-1196.776678876129,-2467.718624511393 L-1196.6740890299027,-2467.749107176254 L-1196.565787132386,-2467.77826291108 " />
			<path d="M-1196.565787132386,-2467.7782629110798 L-1195.1362603458313,-2468.1446610581515 " />
			<path d="M-47.234732983261374,-6.258704886900633 L-1232.62854096439,-310.0837880645135 " />
			<path d="M47.234732983261374,-30.471918387574128 L47.23469918641293,-30.47192704995301 " />
			<path d="M-38.97963439324777,-52.569289879572146 L-240.13346289095153,-104.12648400638935 " />
			<path d="M-326.34779900225226,-126.2238474848863 L-527.5016587651644,-177.78104962520456 " />
			<path d="M-613.7159948764651,-199.8784131037015 L-814.8698546393772,-251.43561524401977 " />
			<path d="M-901.0841907506779,-273.53297872251665 L-1111.2889484980124,-327.4099920634963 " />
			<path d="M-49.49747468305833,-2.5856425594531576 L-1234.8912826641867,-306.410725737066 " />
			<path d="M-49.49747468305833,27.95877047932059 L-1234.8912826641867,-275.86631269829223 " />
			<path d="M-11.769076035238642,-2199.5492359577324 L-1196.1071651574018,-2505.284106776363 " />
			<path d="M46.68961560415873,-2214.8422278228004 L-1137.6484735180045,-2520.577098641431 " />
			<path d="M-14.026565865930497,-2195.8667238740054 L-1198.3646549880937,-2501.6015946926354 " />
			<path d="M-13.954935864049423,-2165.3525047340813 L-1198.2930249862127,-2471.087375552712 " />
			<path d="M-11.17231451783,-15.501783207964557 L-11.172585585044263,-2163.9533355948643 " />
			<path d="M47.23470558653536,-30.4719286903511 L47.23443459394406,-2178.332026998177 " />
			<path d="M-15.697797917423866,-15.501782674069863 L-15.69806898463813,-2163.9533350609695 " />
			<path d="M-38.04237221119851,-21.228854850327252 L-38.042643278412775,-2169.680407237227 " />
			<path d="M-298.5404830169603,-89.15633853366755 L-298.5404830169603,-2236.689980442964 " />
			<path d="M-240.13346289095148,-104.12648400638935 L-240.13346289095148,-2221.61230716948 " />
			<path d="M-303.0659664165542,-89.15633853366755 L-303.0659664165542,-2237.6078214856425 " />
			<path d="M-325.41054070204916,-94.88341597843763 L-325.41054070204916,-2243.3348989304127 " />
			<path d="M-585.9086788911732,-162.81090415248275 L-585.9086788911732,-2310.8735932558443 " />
			<path d="M-527.5016587651644,-177.78104962520453 L-527.5016587651644,-2295.7959199823604 " />
			<path d="M-590.4341622907672,-162.81090415248278 L-590.4341622907672,-2311.2623871044575 " />
			<path d="M-612.778736576262,-168.53798159725284 L-612.778736576262,-2316.9894645492277 " />
			<path d="M-873.276874765386,-236.46546977129793 L-873.276874765386,-2384.916952723273 " />
			<path d="M-814.8698546393772,-251.43561524401971 L-814.8698546393772,-2369.9795327952406 " />
			<path d="M-877.8023581649799,-236.46546977129796 L-877.8023581649799,-2384.916952723273 " />
			<path d="M-900.1469324504748,-242.19254721606802 L-900.1469324504748,-2390.6440301680427 " />
			<path d="M-1169.6959686263888,-312.4398438083155 L-1169.6957294483866,-2460.891265457198 " />
			<path d="M-1111.2889484980128,-327.4099892804306 L-1111.2887125887414,-2446.4995586862656 " />
			<path d="M-1174.2214520259827,-312.4398442790689 L-1174.2212128479805,-2460.8912659279517 " />
			<path d="M-1196.5660263105715,-318.1669263722963 L-1196.5657871325693,-2466.6183480211794 " />
			<path d="M-1110.9161437146543,-327.52477207314405 L-901.0841907506779,-273.7433113186131 " />
			<path d="M-814.4970542716799,-251.55039638543363 L-613.7159948764651,-200.08874569979793 " />
			<path d="M-527.1288583974671,-177.89583076661847 L-326.34779900225226,-126.43418008098273 " />
			<path d="M-239.7606625232542,-104.24126514780323 L-38.97963441978516,-52.77962248247031 " />
			<path d="M47.607500748095475,-30.58670788533977 L48.02923463631964,-30.478614412262875 " />
			<path d="M-1233.4230426174481,-273.34646876535 L-48.02923463631964,30.478614412262875 " />
			<path d="M-1136.841366783654,-2520.5854757457396 L47.49672233850947,-2214.850604927109 " />
			<path d="M-1196.8281345477185,-2468.581415516449 L-326.34234341503515,-2243.866983593832 " />
			<path d="M-301.1885004992261,-2237.373561668884 L-38.04264324844738,-2169.4429045263305 " />
			<path d="M48.17169286050995,-2179.1719431248634 L48.171963885899935,-31.051885770167452 " />
			<path d="M-38.97990157945428,-2170.2603640434586 L-38.979630512240014,-21.808811656558994 " />
			<path d="M-239.1962045907485,-2221.3703555274883 L-239.1962045907485,-104.7064412159863 " />
			<path d="M-326.3477990022522,-2243.9148561400093 L-326.3477990022522,-95.46337318803461 " />
			<path d="M-526.5644004649614,-2295.553968340369 L-526.5644004649614,-178.36100683480151 " />
			<path d="M-613.7159948764651,-2317.569421758825 L-613.7159948764651,-169.11793880684976 " />
			<path d="M-813.9325963391741,-2369.7375811532493 L-813.9325963391741,-252.01557245361667 " />
			<path d="M-901.0841907506779,-2391.22398737764 L-901.0841907506779,-242.77250442566498 " />
			<path d="M-1110.3514543799458,-2446.2576070678706 L-1110.3516901977177,-327.98994660451496 " />
			<path d="M-1197.503045432681,-2467.1983055869955 L-1197.503284610683,-318.7468839381122 " />

       </g>
    </g>
    
</svg>
