<?xml version="1.0" encoding="UTF-8" standalone="no"?>
<svg
   xmlns:svg="http://www.w3.org/2000/svg"
   xmlns="http://www.w3.org/2000/svg"
   width="480.0"
   height="480.0"

>
    <g transform="scale(0.14344162958396015, -0.14344162958396015)   translate(122.39513713151341,-2552.6165972389567)" stroke-width="1.0"  fill="none">
       <!-- hidden lines -->
       <g  stroke="rgb(0,0,0)" fill="none" stroke-dasharray="1.0,1.0" >
			<path d="M1116.9005575478243,249.84537253623196 L1053.6450014243646,260.0793344428209 " />
			<path d="M1051.2367560013026,257.32413513731314 L1051.2387201330368,257.45080388832616 L1051.2446093244023,257.57663047661777 L1051.2544139691122,257.70140965732975 L1051.268118074101,257.8249378941064 L1051.2856992856107,257.94701369109725 L1051.3071289256545,258.0674379216313 L1051.3323720387948,258.1860141530274 L1051.361387449162,258.30254896700944 L1051.39412782762,258.41685227520514 L1051.4305397689666,258.52873762921286 L1051.4705638790483,258.63802252473107 L1051.5141348716413,258.7445286992544 L1051.561181674945,258.8480824228503 L1051.6116275475122,258.9485147815431 L1051.6653902034277,259.045661952841 L1051.7223819465314,259.1393654729593 L1051.7825098134647,259.2294724953022 L1051.8456757253105,259.3158360397818 L1051.9117766475765,259.39831523256777 L1051.980704758263,259.47677553587727 L1052.0523476237381,259.55108896742894 L1052.1265883821368,259.6211343092043 L1052.203305933983,259.68679730517493 L1052.2823751397236,259.74797084767414 L1052.3636670238523,259.8045551521077 L1052.4470489852913,259.85645791971984 L1052.5323850136865,259.90359448814866 L1052.6195359112637,259.9458879695245 L1052.7083595198837,259.9832693758879 L1052.7987109529276,260.01567773172053 L1052.8904428316318,260.04306017340673 L1052.9834055254873,260.0653720354633 " />
			<path d="M1052.9834055254873,260.0653720354633 L1053.0643428967207,260.0804964376795 L1053.1459828909913,260.0918140554555 L1053.2282267202195,260.09931119396254 L1053.3109748656589,260.1029787813247 L1053.3941271983165,260.10281237959555 L1053.4775831001157,260.09881219012874 L1053.5612415856467,260.0909830533342 L1053.6450014243646,260.0793344428208 " />
			<path d="M1154.1892478372033,206.46774795648352 L1053.6450014243646,222.73455597738504 " />
			<path d="M1053.6450014243646,222.73455597738504 L1053.5268344222454,222.7574620055756 L1053.4089520947844,222.78788900628228 L1053.2916384308337,222.8257636781953 L1053.1751760492857,222.87099477791259 L1053.0598455182178,222.92347333975317 L1052.9459246789816,222.983072938265 L1052.8336879768567,223.0496499927949 L1052.7234057998899,223.1230441133871 L1052.6153438275044,223.2030784871765 L1052.5097623904571,223.28956030434648 L1052.4069158436778,223.38228122262453 L1052.3070519535056,223.48101786919716 L1052.2104113007995,223.58553237883444 L1052.1172267013562,223.6955729669283 L1052.027722645038,223.81087453606358 L1051.942114754956,223.931159314661 L1051.8606092680159,224.05613752615324 L1051.7834025380748,224.18550808708198 L1051.7106805629073,224.31895933243447 L1051.642618536122,224.45616976647167 L1051.579380425102,224.5968088372398 L1051.5211185759968,224.74053773289882 L1051.467973346703,224.8870101979499 L1051.4200727687337,225.03587336739534 L1051.3775322387764,225.18676861682104 L1051.340454240694,225.33933242635422 L1051.3089280986317,225.49319725641476 L1051.283029761827,225.64799243315005 L1051.2628216216415,225.8033450414209 L1051.248352361255,225.9588808231867 L1051.2396568383833,226.11422507912582 L1051.2367560013026,226.26900357131916 " />
			<path d="M1051.2367560013026,257.32413513731314 L1051.2367560013026,226.26900357131916 " />
			<path d="M1050.688788940017,2480.1359305899127 L1050.6902244137295,2480.234229883872 L1050.6940264808193,2480.332037155137 L1050.7001914056389,2480.4292563050694 L1050.7087131309609,2480.5257918128773 L1050.7195832839295,2480.6215488294674 L1050.7327911842863,2480.7164332706398 L1050.7483238548648,2480.810351909524 L1050.7661660343404,2480.9032124681826 L1050.7863001922258,2480.994923708273 L1050.8087065460938,2481.085395520692 L1050.833363081016,2481.1745390141155 L1050.8602455711916,2481.2622666023303 L1050.8893276037509,2481.348492090295 L1050.9205806047062,2481.4331307588272 L1050.9539738670273,2481.516099447843 L1050.9894745808112,2481.597316638065 L1051.0270478655195,2481.676702531117 L1051.0666568042498,2481.7541791279273 L1051.1082624800063,2481.829670305368 L1051.1518240139387,2481.903101891045 L1051.1972986055064,2481.9744017361772 L1051.24464157453,2482.043499786483 L1051.2938064050932,2482.1103281510123 L1051.3447447912442,2482.1748211688505 L1051.397406684459,2482.2369154736325 L1051.4517403428144,2482.2965500558025 L1051.507692381828,2482.3536663225573 L1051.5652078269075,2482.408208155416 L1051.6242301673672,2482.4601219653578 L1051.68470141195,2482.509356745474 L1051.7465621458066,2482.5558641210864 L1051.8097515888714,2482.5995983972734 " />
			<path d="M12.428860098764627,2200.045667126304 L-49.78202275113978,2210.4344641440944 " />
			<path d="M1115.2225219087904,2435.1677650393135 L1053.011639058886,2445.5565620571037 " />
			<path d="M1053.011639058886,2445.5565620571037 L1052.8933903860718,2445.580095923902 L1052.7754459142388,2445.611144142759 L1052.6580897819508,2445.6496319157964 L1052.5416047104095,2445.6954665225985 L1052.426271322355,2445.7485375435817 L1052.3123674660214,2445.808717126009 L1052.2001675457752,2445.8758602919947 L1052.089941861052,2445.949805287771 L1051.9819559551806,2446.0303739733663 L1051.8764699756673,2446.11737225176 L1051.7737380474755,2446.2105905364792 L1051.674007660819,2446.309804256511 L1051.5775190749343,2446.414774397314 L1051.4845047392764,2446.525248076625 L1051.395188733527,2446.640959153673 L1051.3097862277668,2446.76162887034 L1051.228502964113,2446.886966522707 L1051.1515347610668,2447.0166701613934 L1051.0790670417716,2447.1504273189717 L1051.01127438731,2447.2879157627335 L1050.948320116125,2447.4288042709754 L1050.8903558905695,2447.572753430941 L1050.8375213515405,2447.719416456495 L1050.78994378207,2447.868440023563 L1050.7477378006902,2448.0194651213187 L1050.7110050853069,2448.1721279170733 L1050.679834128249,2448.326060632781 L1050.6543000230822,2448.480892431046 L1050.6344642837028,2448.6362503085043 L1050.6203746961437,2448.791759994422 L1050.612065203456,2448.947046852345 L1050.6095558239351,2449.1017367826303 " />
			<path d="M1050.6887889400173,2480.135930589913 L1050.6095558239354,2449.10173678263 " />
			<path d="M-50.57287595160934,2212.0154766182523 L-50.752247233817954,2211.9739481862953 L-50.834187781911496,2211.9521089125637 L-50.91074093789944,2211.929611225771 L-50.98175221104449,2211.90650052815 L-51.047078294597185,2211.882823459041 L-51.106587355001054,2211.8586278007706 L-51.160159297943856,2211.833962382221 L-51.20768601071806,2211.8088769802916 L-51.24907158040141,2211.783422219443 L-51.284232487417334,2211.757649469533 L-51.313097774084476,2211.731610742149 L-51.33560918781531,2211.7053585856434 L-51.35172129867477,2211.6789459790853 L-51.36140159106172,2211.6524262253474 L-51.36463052932817,2211.6258528435333 " />
			<path d="M-51.36463052932817,2211.6258528435333 L-51.36349646273601,2211.6101018518752 L-51.36009506313706,2211.594362024144 L-51.35442874141872,2211.5786445166154 L-51.3465015138288,2211.5629604697447 L-51.323888414611375,2211.531737193337 L-51.292319866128075,2211.5007807025636 L-51.251885354753426,2211.470178748818 L-51.202699498928965,2211.440018078499 L-51.14490172425793,2211.4103841871133 L-51.07865586827986,2211.3813610769234 L-51.004149716045504,2211.35303101883 L-50.9215944678084,2211.3254743191596 L-50.83122414034211,2211.2987690920254 L-50.73329490358026,2211.2729910378976 L-50.62808435445964,2211.248213229017 L-50.51589073002486,2211.2245059022625 L-50.39703206202517,2211.2019362600495 L-50.271845275399826,2211.180568279835 " />
			<path d="M11.890989687232466,2201.1233950488854 L12.137185831698934,2201.0873493695362 L12.401304602635108,2201.055939159988 L12.68080239189487,2201.029466917729 L12.972987482978615,2201.0081875849237 L13.275045973734587,2200.992306093179 L13.584068875774843,2200.981975389943 L13.89708012962363,2200.977294965534 L14.211065265797023,2200.9783098949983 L14.523000435791943,2200.9850104040106 L14.829881533400231,2200.9973319630053 L15.128753125893644,2201.015155908635 L15.416736916456635,2201.0383105865585 L15.691059463758133,2201.0665730045703 L15.949078891707668,2201.099670980135 L16.188310332166314,2201.137285761655 L16.300152891607244,2201.157675357759 L16.406449855585233,2201.179055098222 " />
			<path d="M37.2149431165964,21.98071790226063 L37.06943935240707,22.009474852680526 L36.913912350329824,22.036378508235153 " />
			<path d="M37.21519547304263,2205.5762365127553 L37.39456675525124,2205.6177649447122 L37.47650730334478,2205.6396042184438 L37.55306045933273,2205.6621019052363 L37.62407173247777,2205.6852126028575 L37.68939781603047,2205.7088896719665 L37.74890687643434,2205.733085330237 L37.80247881937714,2205.7577507487863 L37.85000553215134,2205.782836150716 L37.8913911018347,2205.8082909115647 L37.92655200885062,2205.8340636614744 L37.95541729551776,2205.8601023888586 L37.977928709248594,2205.886354545364 L37.994040820108054,2205.9127671519223 L38.00372111249501,2205.93928690566 L38.00695005076145,2205.9658602874742 " />
			<path d="M38.00695005076145,2205.9658602874742 L38.005815984169296,2205.9816112791323 L38.002414584570346,2205.9973511068633 L37.99674826285201,2206.013068614392 L37.988821035262085,2206.028752661263 L37.96620793604466,2206.0599759376705 L37.93463938756136,2206.090932428444 L37.89420487618671,2206.1215343821896 L37.84501902036225,2206.1516950525083 L37.787221245691214,2206.181328943894 L37.720975389713146,2206.210352054084 L37.64646923747879,2206.2386821121777 L37.563913989241684,2206.266238811848 L37.473543661775395,2206.292944038982 L37.375614425013545,2206.31872209311 L37.270403875892924,2206.3434999019905 L37.158210251458144,2206.367207228745 L37.039351583458455,2206.389776870958 L36.914164796833106,2206.4111448511726 " />
			<path d="M36.913912350329824,22.036378508235153 L-25.24892261230247,32.093551739184086 " />
			<path d="M36.91416479683311,2206.4111448511726 L-25.248670165799176,2216.4683180821216 " />
			<path d="M-25.248922612302458,32.09355173918408 L-25.495118756768925,32.129597418533216 L-25.7592375277051,32.16100762808151 L-26.038735316964864,32.18747987034045 L-26.33092040804861,32.208759203145874 L-26.63297889880458,32.22464069489041 L-26.942001800844835,32.234971398126845 L-27.25501305469362,32.239651822535684 L-27.568998190867017,32.23863689307127 L-27.88093336086194,32.23193638405919 L-28.18781445847022,32.21961482506408 L-28.486686050963634,32.20179087943472 L-28.774669841526627,32.178636201511075 L-29.048992388828125,32.15037378349919 L-29.30701181677766,32.11727580793433 L-29.54624325723631,32.07966102641437 L-29.65808581667724,32.05927143031036 L-29.764382780655236,32.03789168984769 " />
			<path d="M-25.24867016579917,2216.468318082121 L-25.494866310265635,2216.5043637614704 L-25.75898508120181,2216.5357739710184 L-26.038482870461575,2216.5622462132774 L-26.33066796154532,2216.583525546083 L-26.63272645230129,2216.5994070378274 L-26.941749354341546,2216.609737741064 L-27.25476060819033,2216.6144181654727 L-27.568745744363728,2216.6134032360083 L-27.88068091435865,2216.606702726996 L-28.187562011966932,2216.5943811680013 L-28.486433604460345,2216.576557222372 L-28.774417395023338,2216.553402544448 L-29.048739942324836,2216.5251401264363 L-29.30675937027437,2216.4920421508714 L-29.54599081073302,2216.4544273693514 L-29.65783337017395,2216.4340377732474 L-29.764130334151947,2216.4126580327847 " />
			<path d="M-50.57312839811263,27.640710275314433 L-29.764382780655254,32.03789168984769 " />
			<path d="M-50.57287595160934,2212.015476618252 L-29.764130334151965,2216.412658032785 " />
			<path d="M279.5069844141344,2257.674494553195 L217.34414943134632,2267.7316677756985 " />
			<path d="M217.0431187534636,2268.566576656155 L216.86374746639677,2268.5250481742755 L216.7818069163413,2268.503208875647 L216.70525375872148,2268.4807111640703 L216.6342424842869,2268.4576004418313 L216.568916399798,2268.4339233483224 L216.50940733882084,2268.409727665922 L216.45583539567585,2268.385062223565 L216.40830868307725,2268.3599767982005 L216.36692311395257,2268.33452201434 L216.33176220788215,2268.308749241891 L216.30289692254954,2268.2827104924886 L216.280385510543,2268.2564583145327 L216.26427340179674,2268.23004568714 L216.2545931119096,2268.203525913227 L216.2513641765256,2268.176952511942 " />
			<path d="M216.2513641765256,2268.176952511942 L216.2524982448822,2268.161201509943 L216.25589964613255,2268.14546167214 L216.26156596938824,2268.1297441548145 L216.2694931984006,2268.1140600984295 L216.29210630011522,2268.0828368038624 L216.32367485062923,2268.051880296129 L216.36410936356674,2268.021278326667 L216.41329522048744,2267.9911176419146 L216.47109299579188,2267.961483737415 L216.53733885194677,2267.9324606154646 L216.6118450039101,2267.9041305469927 L216.69440025143956,2267.8765738383518 L216.78477057777508,2267.8498686036764 L216.88269981299888,2267.8240905434545 L216.98791036019222,2267.7993127299405 L217.10010398233064,2267.775605400023 L217.21896264768705,2267.7530357561227 L217.34414943134632,2267.7316677756985 " />
			<path d="M304.8311901910208,78.53187717447426 L304.6856864677558,78.56063411855584 L304.5301595131381,78.58753776650471 " />
			<path d="M305.62294476795887,2262.516966059845 L305.6218106996023,2262.532717061844 L305.61840929835193,2262.548456899647 L305.61274297509624,2262.5641744169725 L305.6048157460839,2262.5798584733575 L305.58220264436926,2262.6110817679246 L305.55063409385525,2262.642038275658 L305.51019958091774,2262.67264024512 L305.46101372399704,2262.7028009298724 L305.4032159486926,2262.732434834372 L305.33697009253774,2262.7614579563224 L305.2624639405744,2262.7897880247942 L305.1799086930449,2262.817344733435 L305.0895383667094,2262.8440499681105 L304.99160913148563,2262.8698280283324 L304.8863985842923,2262.8946058418464 L304.7742049621539,2262.918313171764 L304.6553462967974,2262.9408828156643 L304.53015951313813,2262.9622507960885 " />
			<path d="M304.5301595131381,78.58753776650472 L242.36732453034995,88.6447109890082 " />
			<path d="M304.53015951313813,2262.9622507960885 L242.36732453035,2273.019424018592 " />
			<path d="M242.36732453034998,88.6447109890082 L242.1211283858113,88.68075666571363 L241.85700961481214,88.71216686742038 L241.57751182549933,88.73863909671546 L241.28532673437294,88.75991841155957 L240.98326824358514,88.7757998805183 L240.67424534152417,88.7861305563639 L240.36123408766602,88.79081094904063 L240.04724895149465,88.78979598380846 L239.73531378151316,88.78309543533743 L239.42843268392957,88.77077383357218 L239.12956109147186,88.7529498422734 L238.84157730095527,88.72979511622086 L238.56725475371042,88.70153264808414 L238.30923532582722,88.6684346208812 L238.07000388544395,88.63081978670726 L237.95816132604386,88.6104301640535 L237.85186436210873,88.58905039697775 " />
			<path d="M242.36732453035,2273.019424018592 L242.12112838581132,2273.0554696952972 L241.85700961481217,2273.086879897004 L241.57751182549936,2273.113352126299 L241.28532673437297,2273.1346314411435 L240.98326824358517,2273.150512910102 L240.6742453415242,2273.1608435859475 L240.36123408766605,2273.1655239786246 L240.04724895149468,2273.1645090133925 L239.73531378151318,2273.1578084649213 L239.4284326839296,2273.145486863156 L239.12956109147188,2273.1276628718574 L238.8415773009553,2273.1045081458046 L238.56725475371044,2273.076245677668 L238.30923532582725,2273.043147650465 L238.07000388544398,2273.005532816291 L237.95816132604392,2272.985143193637 L237.85186436210876,2272.9637634265614 " />
			<path d="M217.04311875346355,84.19186362657152 L237.8518643621087,88.58905039697774 " />
			<path d="M217.04311875346357,2268.5665766561556 L237.85186436210873,2272.9637634265614 " />
			<path d="M547.1232570519002,2314.225656056141 L484.96042206911204,2324.2828292786444 " />
			<path d="M484.65939139122935,2325.117738159101 L484.4800201041625,2325.0762096772214 L484.398079554107,2325.054370378593 L484.32152639648723,2325.031872667016 L484.25051512205266,2325.0087619447772 L484.18518903756376,2324.9850848512683 L484.1256799765866,2324.960889168868 L484.07210803344157,2324.936223726511 L484.024581320843,2324.9111383011464 L483.9831957517183,2324.885683517286 L483.9480348456479,2324.8599107448367 L483.91916956031525,2324.8338719954345 L483.89665814830875,2324.8076198174786 L483.8805460395625,2324.7812071900858 L483.8708657496753,2324.754687416173 L483.86763681429136,2324.728114014888 " />
			<path d="M483.86763681429136,2324.728114014888 L483.86877088264794,2324.712363012889 L483.8721722838983,2324.6966231750857 L483.877838607154,2324.6809056577604 L483.88576583616634,2324.6652216013754 L483.90837893788097,2324.6339983068083 L483.939947488395,2324.603041799075 L483.9803820013325,2324.572439829613 L484.0295678582532,2324.5422791448605 L484.0873656335576,2324.512645240361 L484.1536114897125,2324.4836221184105 L484.22811764167585,2324.4552920499386 L484.3106728892053,2324.4277353412976 L484.4010432155408,2324.4010301066223 L484.4989724507646,2324.3752520464004 L484.60418299795793,2324.3504742328864 L484.71637662009636,2324.3267669029688 L484.8352352854528,2324.3041972590686 L484.9604220691121,2324.2828292786444 " />
			<path d="M572.4474628287866,135.0830386774202 L572.3019591055215,135.11179562150178 L572.1464321509038,135.13869926945068 " />
			<path d="M572.1464321509038,135.1386992694507 L509.9835971681157,145.1958724919542 " />
			<path d="M572.1464321509038,2319.513412299035 L509.9835971681157,2329.5705855215383 " />
			<path d="M509.9835971681157,145.1958724919542 L509.737401023577,145.2319181686596 L509.47328225257786,145.26332837036634 L509.19378446326505,145.28980059966145 L508.90159937213866,145.31107991450554 L508.59954088135083,145.3269613834643 L508.2905179792899,145.33729205930987 L507.97750672543174,145.3419724519866 L507.66352158926037,145.34095748675443 L507.3515864192789,145.3342569382834 L507.0447053216953,145.32193533651815 L506.7458337292376,145.30411134521935 L506.457849938721,145.28095661916683 L506.18352739147616,145.2526941510301 L505.9255079635929,145.2195961238272 L505.68627652320964,145.18198128965324 L505.5744339638096,145.16159166699947 L505.46813699987445,145.1402118999237 " />
			<path d="M509.98359716811575,2329.570585521538 L509.73740102357704,2329.606631198243 L509.4732822525779,2329.63804139995 L509.1937844632651,2329.664513629245 L508.9015993721387,2329.6857929440894 L508.5995408813509,2329.701674413048 L508.29051797929,2329.7120050888934 L507.9775067254318,2329.7166854815705 L507.6635215892604,2329.7156705163384 L507.35158641927893,2329.7089699678672 L507.04470532169535,2329.6966483661017 L506.74583372923763,2329.6788243748033 L506.45784993872104,2329.6556696487505 L506.1835273914762,2329.627407180614 L505.92550796359296,2329.594309153411 L505.6862765232097,2329.556694319237 L505.57443396380967,2329.536304696583 L505.4681369998745,2329.5149249295073 " />
			<path d="M484.65939139122924,140.7430251295175 L505.4681369998744,145.1402118999237 " />
			<path d="M484.6593913912293,2325.1177381591015 L505.46813699987445,2329.5149249295073 " />
			<path d="M814.2187863313525,2370.8610673549733 L752.5766947068777,2380.8339907815903 " />
			<path d="M752.2756640289949,2381.6688996620474 L752.0962927419281,2381.6273711801678 L752.0143521918726,2381.6055318815393 L751.9377990342527,2381.5830341699625 L751.8667877598182,2381.5599234477236 L751.8014616753293,2381.5362463542147 L751.7419526143522,2381.5120506718144 L751.6883806712071,2381.4873852294572 L751.6408539586085,2381.4622998040927 L751.599468389484,2381.4368450202323 L751.5643074834135,2381.411072247783 L751.5354421980809,2381.385033498381 L751.5129307860743,2381.358781320425 L751.4968186773281,2381.332368693032 L751.487138387441,2381.3058489191194 L751.4839094520569,2381.2792755178343 " />
			<path d="M751.4839094520569,2381.2792755178343 L751.4850435204135,2381.2635245158353 L751.4884449216639,2381.247784678032 L751.4941112449196,2381.2320671607067 L751.5020384739319,2381.2163831043217 L751.5246515756465,2381.1851598097546 L751.5562201261605,2381.1542033020214 L751.596654639098,2381.1236013325592 L751.6458404960188,2381.093440647807 L751.7036382713233,2381.0638067433074 L751.7698841274781,2381.034783621357 L751.8443902794414,2381.006453552885 L751.9269455269708,2380.978896844244 L752.0173158533064,2380.9521916095687 L752.1152450885302,2380.9264135493468 L752.2204556357235,2380.9016357358328 L752.3326492578619,2380.877928405915 L752.4515079232184,2380.855358762015 L752.5766947068777,2380.8339907815907 " />
			<path d="M840.0637354665522,191.63420018036618 L839.9182317432872,191.66295712444776 L839.7627047886695,191.68986077239666 " />
			<path d="M839.7627047886695,191.68986077239666 L777.5998698058813,201.74703399490014 " />
			<path d="M839.1157407345054,2376.1692445359213 L777.5998698058813,2386.121747024484 " />
			<path d="M777.5998698058813,201.74703399490014 L777.3536736613427,201.78307967160555 L777.0895548903435,201.81448987331228 L776.8100571010307,201.8409621026074 L776.5178720099043,201.8622414174515 L776.2158135191165,201.87812288641024 L775.9067906170555,201.88845356225582 L775.5937793631973,201.89313395493255 L775.279794227026,201.89211898970038 L774.9678590570445,201.88541844122935 L774.6609779594609,201.8730968394641 L774.3621063670032,201.8552728481653 L774.0741225764866,201.83211812211277 L773.7998000292417,201.80385565397606 L773.5417806013586,201.77075762677313 L773.3025491609753,201.73314279259918 L773.1907066015752,201.71275316994542 L773.0844096376401,201.69137340286966 " />
			<path d="M777.5998698058813,2386.1217470244837 L777.3536736613427,2386.157792701189 L777.0895548903435,2386.189202902896 L776.8100571010307,2386.215675132191 L776.5178720099043,2386.2369544470353 L776.2158135191165,2386.2528359159937 L775.9067906170555,2386.2631665918393 L775.5937793631973,2386.2678469845164 L775.279794227026,2386.2668320192843 L774.9678590570445,2386.260131470813 L774.6609779594609,2386.2478098690476 L774.3621063670032,2386.229985877749 L774.0741225764866,2386.2068311516964 L773.7998000292417,2386.1785686835597 L773.5417806013586,2386.145470656357 L773.3025491609753,2386.107855822183 L773.1907066015752,2386.087466199529 L773.0844096376401,2386.066086432453 " />
			<path d="M752.2756640289948,197.29418663246344 L773.0844096376401,201.69137340286966 " />
			<path d="M752.2756640289948,2381.6688996620474 L773.0844096376401,2386.066086432453 " />
			<path d="M1088.8712114480004,2429.4185805386555 L1028.6215394990718,2439.1662277865266 " />
			<path d="M1028.320508821006,2440.001137145558 L1028.1411375295208,2439.9596086196075 L1028.0591969776733,2439.937769298999 L1027.9826438185557,2439.9152715655405 L1027.9116325429295,2439.8921608215655 L1027.8463064575644,2439.868483706512 L1027.7867973960356,2439.8442880028056 L1027.7332254526705,2439.819622539425 L1027.6856987401898,2439.7945370933653 L1027.6443131715255,2439.7690822891823 L1027.6091522662614,2439.743309496827 L1027.5802869820834,2439.717270727978 L1027.5577755715806,2439.6910185310767 L1027.541663464686,2439.6646058852807 L1027.5319831769966,2439.638086093547 L1027.5287542441533,2439.611512675062 " />
			<path d="M1027.5287542441533,2439.611512675062 L1027.529888314066,2439.5957616639384 L1027.5332897167712,2439.580021817248 L1027.5389560413796,2439.5643042912784 L1027.5468832716415,2439.548620226498 L1027.5694963755443,2439.5173969159077 L1027.601064927829,2439.4864403932093 L1027.6414994421186,2439.4558384098777 L1027.690685299974,2439.4256777123887 L1027.7484830757992,2439.396043796317 L1027.8147289320666,2439.367020663987 L1027.8892350837425,2439.3386905863554 L1027.9717903305946,2439.3111338697963 L1028.0621606558748,2439.284428628463 L1028.16008988968,2439.2586505628597 L1028.2653004351075,2439.2338727452525 L1028.377494055151,2439.2101654125377 L1028.4963527181037,2439.1875957671427 L1028.6215394990718,2439.1662277865266 " />
			<path d="M1116.1088029188918,249.96648994941967 L1115.9632992323386,249.99524688779184 L1115.8077723202853,250.0221505289283 " />
			<path d="M1115.8077723202853,250.0221505289283 L1053.6449373352928,260.07932375096595 " />
			<path d="M1113.7681810063452,2434.7267609507794 L1053.6447145969162,2444.4539897127074 " />
			<path d="M1053.6449373352928,260.07932375096595 L1053.3987411907463,260.1153694253651 L1053.1346224197403,260.1467796201786 L1052.8551246304216,260.17325183805997 L1052.5629395392905,260.19453113707976 L1052.2608810484992,260.21041258595596 L1051.951858146436,260.22074323765423 L1051.6388468925768,260.22542360235144 L1051.3248617564057,260.22440860557697 L1051.0129265864257,260.2177080223046 L1050.7060454888447,260.20538638281414 L1050.407173896391,260.18756235122964 L1050.1191901058794,260.1644075827188 L1049.8448675586408,260.13614507036016 L1049.5868481307648,260.10304699759746 L1049.3476166903897,260.06543211696476 L1049.2357741309943,260.0450424708841 L1049.1294771670637,260.0236626803249 " />
			<path d="M1053.644714596916,2444.4539897127074 L1053.3985184523694,2444.4900353871067 L1053.1343996813634,2444.52144558192 L1052.8549018920448,2444.547917799802 L1052.5627168009137,2444.5691970988214 L1052.2606583101224,2444.585078547698 L1051.9516354080592,2444.595409199396 L1051.6386241542,2444.600089564093 L1051.3246390180288,2444.5990745673184 L1051.012703848049,2444.5923739840464 L1050.7058227504679,2444.580052344556 L1050.4069511580142,2444.5622283129715 L1050.1189673675026,2444.5390735444603 L1049.844644820264,2444.5108110321016 L1049.586625392388,2444.477712959339 L1049.347393952013,2444.4400980787063 L1049.2355513926175,2444.4197084326256 L1049.1292544286869,2444.3983286420666 " />
			<path d="M1028.3207315593827,255.62647118381673 L1049.1294771670637,260.02366268032483 " />
			<path d="M1028.3205088210061,2440.0011371455585 L1049.129254428687,2444.398328642066 " />
			<path d="M1052.9834055254873,260.0653720354634 L1028.3052381877442,254.8505208869966 " />
			<path d="M840.8554900434901,215.23969723823944 L752.2601772981119,196.5182353850978 " />
			<path d="M573.2392174057245,158.6885357352935 L484.64390466034615,139.96707388215182 " />
			<path d="M305.62294476795887,102.13737423234758 L217.02763202258046,83.41591237920586 " />
			<path d="M38.006700377356196,45.58621869843279 L-50.588607373046194,26.864757900801244 " />
			<path d="M572.7579422801986,2319.3801945650703 L548.0803880382986,2314.1187947895273 " />
			<path d="M305.57534525978906,2262.4152926865295 L282.87884451458666,2257.5762651736786 " />
			<path d="M37.21519542948379,2205.199329619795 L13.104145301244545,2200.0587118547887 " />
			<path d="M-51.36463052932816,2211.625852843533 L-51.364630546897224,2211.4738308146807 " />
			<path d="M216.25136417652556,2268.176952511942 L216.25136417652556,2243.37089430672 " />
			<path d="M483.8676368142914,2324.728114014888 L483.8676368142914,2300.4282583787767 " />
			<path d="M751.4839094520569,2381.279275517834 L751.4839094520569,2357.485622450834 " />
			<path d="M1027.5287542441536,2439.6115126750624 L1027.5287566171244,2416.3400082087264 " />

       </g>

       <!-- solid lines -->
       <g  stroke="rgb(0,0,0)" fill="none">
			<path d="M50.27212320641944,10.538985222267145 L-50.27212320641944,26.805793243168672 " />
			<path d="M1154.1892478372033,243.81252642191936 L1116.9005575478243,249.84537253623196 " />
			<path d="M-52.68036862948145,24.050593937660974 L-52.678404497747174,24.17726268867399 L-52.67251530638184,24.303089276965565 L-52.66271066167186,24.427868457677587 L-52.649006556683084,24.55139669445428 L-52.63142534517335,24.673472491445086 L-52.60999570512964,24.79389672197915 L-52.584752591989364,24.91247295337522 L-52.55573718162198,25.029007767357264 L-52.52299680316408,25.143311075552965 L-52.48658486181739,25.255196429560677 L-52.44656075173571,25.364481325078884 L-52.40298975914277,25.47098749960218 L-52.355942955839154,25.574541223198178 L-52.305497083271966,25.674973581890935 L-52.251734427356276,25.772120753188798 L-52.1947426842526,25.865824273307137 L-52.13461481731938,25.95593129565006 L-52.071448905473666,26.042294840129614 L-52.005347983207535,26.124774032915596 L-51.936419872521064,26.20323433622509 L-51.86477700704604,26.27754776777678 L-51.79053624864734,26.347593109552108 L-51.7138186968011,26.413256105522763 L-51.63474949106053,26.474429648021957 L-51.5534576069318,26.531013952455506 L-51.47007564549271,26.582916720067697 L-51.38473961709749,26.630053288496477 L-51.297588719520455,26.67234676987235 L-51.20876511090044,26.709728176235767 L-51.11841367785636,26.742136532068358 L-51.026681799152186,26.769518973754533 L-50.93371910529674,26.791830835811147 " />
			<path d="M-50.93371910529673,26.791830835811147 L-50.85278173406341,26.806955238027363 L-50.77114173979287,26.818272855803283 L-50.688897910564485,26.825769994310367 L-50.60614976512524,26.829437581672497 L-50.522997432467484,26.829271179943362 L-50.43954153066834,26.825270990476568 L-50.35588304513734,26.817441853681995 L-50.27212320641945,26.805793243168676 " />
			<path d="M50.27212320641944,10.538985222267147 L50.39029020853874,10.516079194076605 L50.50817253599973,10.485652193369924 L50.62548619995028,10.4477775214569 L50.74194858149847,10.4025464217396 L50.85727911256625,10.350067859899019 L50.971199951802525,10.29046826138721 L51.08343665392728,10.223891206857296 L51.193718830894326,10.150497086265101 L51.30178080327976,10.070462712475697 L51.40736224032701,9.983980895305727 L51.51020878710638,9.891259977027666 L51.61007267727839,9.792523330455039 L51.70671332998456,9.688008820817746 L51.799897929427814,9.577968232723894 L51.889401985746076,9.462666663588621 L51.97500987582805,9.342381884991198 L52.05651536276816,9.217403673498964 L52.133722092709334,9.088033112570209 L52.20644406787663,8.954581867217728 L52.274506094662186,8.817371433180522 L52.33774420568193,8.676732362412405 L52.39600605478742,8.533003466753389 L52.44915128408103,8.386531001702274 L52.49705186205041,8.237667832256845 L52.53959239200765,8.086772582831166 L52.57667039008995,7.934208773297971 L52.608196532152306,7.780343943237434 L52.634094868957106,7.625548766502138 L52.65430300914257,7.470196158231296 L52.66877226952897,7.314660376465513 L52.67746779240068,7.159316120526388 L52.68036862948145,7.004537628333054 " />
			<path d="M1154.1892478372033,243.81252642191936 L1154.3074148393225,243.7896203937288 L1154.4252971667836,243.75919339302212 L1154.5426108307342,243.7213187211091 L1154.6590732122822,243.67608762139182 L1154.7744037433501,243.62360905955123 L1154.8883245825864,243.5640094610394 L1155.0005612847112,243.4974324065095 L1155.110843461678,243.4240382859173 L1155.2189054340636,243.3440039121279 L1155.3244868711108,243.25752209495792 L1155.4273334178902,243.16480117667987 L1155.5271973080623,243.06606453010724 L1155.6238379607685,242.96155002046996 L1155.7170225602117,242.8515094323761 L1155.80652661653,242.73620786324082 L1155.892134506612,242.6159230846434 L1155.973639993552,242.49094487315116 L1156.0508467234931,242.36157431222242 L1156.1235686986606,242.22812306686993 L1156.191630725446,242.09091263283273 L1156.254868836466,241.9502735620646 L1156.3131306855712,241.80654466640559 L1156.366275914865,241.66007220135447 L1156.4141764928343,241.51120903190906 L1156.4567170227915,241.36031378248336 L1156.493795020874,241.20774997295018 L1156.5253211629363,241.05388514288964 L1156.551219499741,240.89908996615435 L1156.5714276399265,240.7437373578835 L1156.585896900313,240.5882015761177 L1156.5945924231846,240.43285732017858 L1156.5974932602653,240.27807882798527 " />
			<path d="M52.68036862948145,7.004537628333026 L52.68036862948145,-24.050593937660974 " />
			<path d="M1156.5974932602653,240.2780788279852 L1156.5974932602653,209.22294726199124 " />
			<path d="M52.68036862948145,-24.05059393766097 L52.678404497747174,-24.177262688673988 L52.67251530638184,-24.30308927696557 L52.66271066167186,-24.42786845767759 L52.649006556683084,-24.55139669445428 L52.63142534517335,-24.67347249144509 L52.60999570512964,-24.79389672197915 L52.584752591989364,-24.91247295337522 L52.55573718162198,-25.029007767357264 L52.52299680316408,-25.14331107555297 L52.48658486181739,-25.25519642956068 L52.44656075173571,-25.364481325078884 L52.40298975914277,-25.470987499602185 L52.355942955839154,-25.574541223198178 L52.305497083271966,-25.674973581890935 L52.251734427356276,-25.7721207531888 L52.1947426842526,-25.865824273307137 L52.13461481731938,-25.95593129565006 L52.071448905473666,-26.042294840129614 L52.005347983207535,-26.124774032915596 L51.936419872521064,-26.20323433622509 L51.86477700704604,-26.27754776777678 L51.79053624864734,-26.34759310955211 L51.7138186968011,-26.413256105522763 L51.63474949106053,-26.474429648021957 L51.5534576069318,-26.531013952455506 L51.47007564549271,-26.582916720067697 L51.38473961709749,-26.630053288496477 L51.297588719520455,-26.67234676987235 L51.20876511090044,-26.709728176235767 L51.11841367785636,-26.742136532068358 L51.026681799152186,-26.769518973754533 L50.93371910529675,-26.791830835811144 " />
			<path d="M50.93371910529673,-26.791830835811147 L50.85278173406341,-26.806955238027363 L50.77114173979287,-26.818272855803283 L50.688897910564485,-26.825769994310367 L50.60614976512524,-26.829437581672497 L50.522997432467484,-26.829271179943362 L50.43954153066835,-26.825270990476568 L50.35588304513734,-26.817441853681995 L50.27212320641944,-26.805793243168672 " />
			<path d="M1156.5974932602653,209.22294726199124 L1156.595529128531,209.0962785109782 L1156.5896399371657,208.97045192268664 L1156.5798352924558,208.84567274197462 L1156.566131187467,208.72214450519792 L1156.5485499759573,208.60006870820712 L1156.5271203359134,208.47964447767305 L1156.5018772227731,208.36106824627697 L1156.4728618124059,208.24453343229493 L1156.440121433948,208.13023012409923 L1156.4037094926014,208.01834477009152 L1156.3636853825196,207.9090598745733 L1156.3201143899266,207.80255370005003 L1156.273067586623,207.69899997645402 L1156.2226217140558,207.59856761776126 L1156.1688590581402,207.50142044646338 L1156.1118673150365,207.40771692634507 L1156.0517394481033,207.31760990400213 L1155.9885735362575,207.2312463595226 L1155.9224726139914,207.1487671667366 L1155.8535445033049,207.0703068634271 L1155.7819016378298,206.9959934318754 L1155.7076608794312,206.9259480901001 L1155.6309433275849,206.86028509412944 L1155.5518741218443,206.79911155163023 L1155.4705822377157,206.7425272471967 L1155.3872002762766,206.6906244795845 L1155.3018642478814,206.64348791115572 L1155.2147133503042,206.60119442977984 L1155.1258897416842,206.56381302341643 L1155.0355383086403,206.53140466758384 L1154.943806429936,206.50402222589767 L1154.8508437360806,206.48171036384105 " />
			<path d="M1154.8508437360806,206.48171036384105 L1154.7699063648472,206.46658596162484 L1154.6882663705767,206.45526834384893 L1154.6060225413485,206.44777120534184 L1154.523274395909,206.4441036179797 L1154.4401220632515,206.44427001970882 L1154.3566661614523,206.44827020917563 L1154.2730076759212,206.45609934597022 L1154.1892478372033,206.46774795648352 " />
			<path d="M50.27212320641944,-26.805793243168672 L-50.27212320641944,-10.538985222267145 " />
			<path d="M-50.27212320641944,-10.538985222267147 L-50.39029020853874,-10.516079194076603 L-50.50817253599973,-10.485652193369924 L-50.62548619995028,-10.4477775214569 L-50.74194858149847,-10.4025464217396 L-50.85727911256625,-10.350067859899019 L-50.971199951802525,-10.290468261387211 L-51.08343665392728,-10.223891206857296 L-51.193718830894326,-10.150497086265101 L-51.30178080327976,-10.070462712475699 L-51.40736224032701,-9.983980895305727 L-51.51020878710638,-9.891259977027666 L-51.61007267727839,-9.792523330455037 L-51.70671332998456,-9.688008820817746 L-51.799897929427814,-9.577968232723896 L-51.889401985746076,-9.462666663588621 L-51.97500987582805,-9.342381884991196 L-52.05651536276816,-9.217403673498964 L-52.133722092709334,-9.088033112570207 L-52.20644406787663,-8.954581867217726 L-52.274506094662186,-8.817371433180522 L-52.33774420568193,-8.676732362412407 L-52.39600605478742,-8.53300346675339 L-52.44915128408103,-8.386531001702275 L-52.49705186205041,-8.237667832256845 L-52.53959239200765,-8.086772582831168 L-52.57667039008995,-7.934208773297971 L-52.608196532152306,-7.780343943237433 L-52.634094868957106,-7.6255487665021375 L-52.65430300914257,-7.470196158231294 L-52.66877226952897,-7.314660376465511 L-52.67746779240068,-7.159316120526386 L-52.68036862948145,-7.004537628333032 " />
			<path d="M-52.68036862948145,24.050593937660974 L-52.68036862948145,-7.004537628333026 " />
			<path d="M12.52414042823035,2237.3652672743024 L-49.686742421674055,2247.7540642920926 " />
			<path d="M1115.3178022382563,2472.4873651873118 L1053.1069193883518,2482.876162205102 " />
			<path d="M-52.104872870008705,2245.013832676904 L-52.102601471652505,2245.1398632865066 L-52.09643614679428,2245.2650392078904 L-52.08638686593344,2245.3891580078543 L-52.072469880662744,2245.512018962762 L-52.054707697386405,2245.6334233831517 L-52.03312904092298,2245.7531749350546 L-52.00776880805185,2245.871079957503 L-51.978668011078554,2245.986947775717 L-51.94587371151009,2246.100591009463 L-51.909438943947535,2246.2118258760834 L-51.86942263031906,2246.3204724877046 L-51.825889484591954,2246.4263551421536 L-51.778909908117924,2246.5293026071004 L-51.72855987578071,2246.6291483969717 L-51.67492081313032,2246.7257310421924 L-51.61807946470247,2246.8188943503105 L-51.5581277537362,2246.9084876585903 L-51.495162633516614,2246.9943660776635 L-51.42928593058297,2247.0763907258406 L-51.360604180055915,2247.154428953713 L-51.28922845334994,2247.2283545586665 L-51.2152741785499,2247.29804798898 L-51.13886095374185,2247.363396537162 L-51.0601123536003,2247.424294522217 L-50.97915572954454,2247.480643460556 L-50.896122003787205,2247.53235222526 L-50.811145457608276,2247.5793371934515 L-50.72436351419675,2247.621522381527 L-50.63591651641133,2247.658839568038 L-50.545947499819334,2247.6912284040172 L-50.454601961381144,2247.718636510576 L-50.36202762415399,2247.741019563608 " />
			<path d="M-50.36202762415398,2247.741019563608 L-50.27945287678952,2247.756565628091 L-50.196142122222774,2247.7681524908653 L-50.11220023251569,2247.7757655663204 L-50.0277328742068,2247.7793952710736 L-49.94284637529756,2247.7790370360303 L-49.857647591406064,2247.7746913121396 L-49.77224377125655,2247.7663635698236 L-49.686742421674076,2247.754064292093 " />
			<path d="M1051.8097515888714,2482.5995983972734 L1051.882801171725,2482.6457016667673 L1051.9573815815402,2482.6881389883138 L1052.0333989360636,2482.7268569415655 L1052.1107575442074,2482.761806788138 L1052.1893600265066,2482.792944532962 L1052.2691074376994,2482.820230979662 L1052.3498993912815,2482.8436317799014 L1052.4316341858719,2482.863117476617 " />
			<path d="M1052.4316341858719,2482.863117476617 L1052.5142089332362,2482.8786635410997 L1052.597519687803,2482.8902504038742 L1052.6814615775102,2482.8978634793293 L1052.765928935819,2482.9014931840825 L1052.8508154347282,2482.9011349490393 L1052.9360142186197,2482.8967892251485 L1053.0214180387693,2482.8884614828326 L1053.1069193883518,2482.876162205102 " />
			<path d="M12.52414042823035,2237.365267274303 L12.642389101044708,2237.3417334075048 L12.76033357287759,2237.3106851886478 L12.877689705165633,2237.27219741561 L12.994174776706975,2237.226362808808 L13.109508164761387,2237.173291787825 L13.22341202109503,2237.1131122053976 L13.335611941341199,2237.045969039412 L13.445837626064469,2236.9720240436354 L13.55382353193571,2236.8914553580403 L13.65930951144923,2236.8044570796465 L13.762041439640903,2236.7112387949273 L13.86177182629746,2236.6120250748954 L13.958260412182094,2236.5070549340926 L14.051274747840008,2236.3965812547817 L14.140590753589507,2236.2808701777335 L14.225993259349586,2236.160200461067 L14.307276523003491,2236.0348628086995 L14.384244726049504,2235.905159170013 L14.456712445344872,2235.771402012435 L14.524505099806387,2235.633913568673 L14.58745937099152,2235.493025060431 L14.645423596546838,2235.349075900466 L14.698258135575918,2235.2024128749117 L14.745835705046474,2235.0533893078436 L14.788041686426354,2234.902364210088 L14.8247744018096,2234.7497014143332 L14.855945358867453,2234.5957686986258 L14.881479464034108,2234.4409369003606 L14.90131520341369,2234.2855790229023 L14.915404790972632,2234.1300693369844 L14.9237142836604,2233.9747824790616 L14.926223663181286,2233.8200925487763 " />
			<path d="M1115.3178022382563,2472.487365187312 L1115.4360509110704,2472.463831320514 L1115.5539953829034,2472.432783101657 L1115.6713515151914,2472.3942953286196 L1115.7878365867327,2472.3484607218174 L1115.9031699747873,2472.295389700834 L1116.0170738311208,2472.235210118407 L1116.129273751367,2472.168066952421 L1116.2394994360902,2472.094121956645 L1116.3474853419616,2472.0135532710497 L1116.452971321475,2471.926554992656 L1116.5557032496667,2471.8333367079367 L1116.6554336363233,2471.734122987905 L1116.751922222208,2471.629152847102 L1116.8449365578658,2471.518679167791 L1116.9342525636152,2471.402968090743 L1117.0196550693754,2471.282298374076 L1117.1009383330293,2471.156960721709 L1117.1779065360754,2471.0272570830225 L1117.2503742553706,2470.8934999254443 L1117.3181669098321,2470.7560114816824 L1117.3811211810173,2470.6151229734405 L1117.4390854065728,2470.471173813475 L1117.4919199456017,2470.324510787921 L1117.5394975150723,2470.175487220853 L1117.581703496452,2470.0244621230972 L1117.6184362118354,2469.8717993273426 L1117.6496071688932,2469.717866611635 L1117.67514127406,2469.56303481337 L1117.6949770134395,2469.4076769359117 L1117.7090666009985,2469.252167249994 L1117.7173760936862,2469.096880392071 L1117.7198854732071,2468.9421904617857 " />
			<path d="M14.926223663181284,2233.8200925487768 L14.846990547099262,2202.7858987414934 " />
			<path d="M1117.7198854732071,2468.9421904617857 L1117.6406523571252,2437.9079966545023 " />
			<path d="M14.846990547099267,2202.7858987414934 L14.84471914874307,2202.6598681318906 L14.838553823884848,2202.534692210507 L14.828504543024005,2202.410573410543 L14.814587557753306,2202.2877124556353 L14.796825374476969,2202.1663080352455 L14.77524671801354,2202.0465564833426 L14.749886485142408,2201.9286514608943 L14.720785688169112,2201.81278364268 L14.687991388600649,2201.699140408934 L14.651556621038097,2201.587905542314 L14.61154030740962,2201.4792589306926 L14.568007161682518,2201.3733762762436 L14.521027585208484,2201.270428811297 L14.470677552871273,2201.1705830214255 L14.41703849022088,2201.074000376205 L14.360197141793028,2200.9808370680867 L14.300245430826763,2200.891243759807 L14.237280310607174,2200.8053653407337 L14.171403607673534,2200.7233406925566 L14.102721857146475,2200.6453024646844 L14.031346130440504,2200.5713768597307 L13.957391855640461,2200.501683429417 L13.88097863083241,2200.4363348812353 L13.802230030690863,2200.37543689618 L13.721273406635099,2200.319087957841 L13.638239680877767,2200.267379193137 L13.55326313469884,2200.2203942249457 L13.466481191287318,2200.17820903687 L13.37803419350189,2200.1408918503594 L13.288065176909896,2200.10850301438 L13.196719638471707,2200.0810949078214 L13.104145301244564,2200.058711854789 " />
			<path d="M13.104145301244543,2200.058711854789 L13.021570553880082,2200.0431657903064 L12.938259799313334,2200.031578927532 L12.85431790960625,2200.023965852077 L12.76985055129736,2200.0203361473236 L12.684964052388125,2200.020694382367 L12.599765268496629,2200.0250401062576 L12.51436144834711,2200.0333678485736 L12.428860098764632,2200.045667126304 " />
			<path d="M1117.6406523571252,2437.9079966545028 L1117.638380958769,2437.7819660449 L1117.6322156339108,2437.656790123516 L1117.6221663530498,2437.532671323552 L1117.6082493677793,2437.4098103686447 L1117.590487184503,2437.288405948255 L1117.5689085280394,2437.168654396352 L1117.5435482951684,2437.0507493739037 L1117.514447498195,2436.9348815556896 L1117.4816531986266,2436.8212383219434 L1117.445218431064,2436.710003455323 L1117.4052021174355,2436.601356843702 L1117.3616689717085,2436.495474189253 L1117.3146893952344,2436.392526724306 L1117.264339362897,2436.292680934435 L1117.2107003002468,2436.196098289214 L1117.1538589518188,2436.102934981096 L1117.0939072408526,2436.0133416728163 L1117.030942120633,2435.927463253743 L1116.9650654176994,2435.845438605566 L1116.8963836671724,2435.767400377694 L1116.8250079404663,2435.69347477274 L1116.7510536656664,2435.6237813424264 L1116.6746404408584,2435.5584327942447 L1116.5958918407168,2435.4975348091893 L1116.5149352166611,2435.4411858708504 L1116.4319014909038,2435.3894771061464 L1116.3469249447248,2435.342492137955 L1116.2601430013133,2435.3003069498795 L1116.1716960035278,2435.2629897633688 L1116.0817269869358,2435.2306009273893 L1115.9903814484976,2435.2031928208307 L1115.8978071112704,2435.1808097677986 " />
			<path d="M1115.8978071112704,2435.1808097677986 L1115.815232363906,2435.1652637033158 L1115.7319216093392,2435.1536768405413 L1115.647979719632,2435.146063765086 L1115.5635123613233,2435.142434060333 L1115.478625862414,2435.1427922953762 L1115.3934270785226,2435.147138019267 L1115.308023258373,2435.155465761583 L1115.2225219087904,2435.1677650393135 " />
			<path d="M-49.782022751139785,2210.434464144094 L-49.900271423954145,2210.457998010892 L-50.01821589578702,2210.489046229749 L-50.13557202807507,2210.5275340027865 L-50.25205709961641,2210.5733686095887 L-50.36739048767082,2210.626439630572 L-50.48129434400447,2210.686619212999 L-50.59349426425064,2210.753762378985 L-50.703719948973905,2210.8277073747613 L-50.811705854845144,2210.9082760603565 L-50.91719183435867,2210.9952743387503 L-51.01992376255034,2211.0884926234694 L-51.119654149206895,2211.1877063435013 L-51.21614273509153,2211.292676484304 L-51.30915707074944,2211.403150163615 L-51.398473076498945,2211.518861240663 L-51.483875582259024,2211.63953095733 L-51.565158845912926,2211.7648686096973 L-51.64212704895894,2211.8945722483836 L-51.71459476825431,2212.028329405962 L-51.78238742271582,2212.1658178497237 L-51.845341693900956,2212.3067063579656 L-51.90330591945627,2212.450655517931 L-51.95614045848535,2212.597318543485 L-52.00371802795591,2212.746342110553 L-52.04592400933579,2212.897367208309 L-52.08265672471904,2213.0500300040635 L-52.11382768177689,2213.203962719771 L-52.13936178694354,2213.358794518036 L-52.159197526323126,2213.5141523954944 L-52.17328711388207,2213.6696620814123 L-52.18159660656983,2213.824948939335 L-52.18410598609072,2213.9796388696204 " />
			<path d="M-52.1048728700087,2245.0138326769033 L-52.18410598609072,2213.97963886962 " />
			<path d="M11.890737240729184,16.748628705948327 L-50.27209772190311,26.805801936897254 " />
			<path d="M11.890989687232477,2201.1233950488854 L-50.27184527539981,2211.1805682798345 " />
			<path d="M-50.57312839811263,27.640710275314436 L-50.75249968032124,27.599181843357457 L-50.834440228414785,27.5773425696261 L-50.91099338440273,27.55484488283341 L-50.982004657547776,27.53173418521233 L-51.047330741100474,27.50805711610344 L-51.10683980150434,27.48386145783285 L-51.160411744447146,27.459196039283416 L-51.207938457221346,27.43411063735392 L-51.2493240269047,27.408655876505104 L-51.28448493392062,27.382883126595214 L-51.313350220587765,27.35684439921129 L-51.3358616343186,27.330592242705393 L-51.35197374517806,27.30417963614758 L-51.36165403756501,27.277659882409676 L-51.364882975831456,27.25108650059557 " />
			<path d="M-51.364882975831456,27.25108650059557 L-51.3637489092393,27.2353355089376 L-51.36034750964035,27.21959568120632 L-51.35468118792201,27.203878173677637 L-51.34675396033209,27.18819412680705 L-51.324140861114664,27.15697085039939 L-51.292572312631364,27.12601435962593 L-51.25213780125672,27.0954124058804 L-51.202951945432254,27.065251735561528 L-51.14515417076122,27.03561784417575 L-51.07890831478315,27.00659473398578 L-51.00440216254879,26.97826467589202 L-50.921846914311686,26.950707976221842 L-50.8314765868454,26.92400274908773 L-50.73354735008355,26.89822469495967 L-50.62833680096293,26.87344688607941 L-50.516143176528146,26.849739559324846 L-50.39728450852846,26.827169917111764 L-50.272097721903116,26.805801936897257 " />
			<path d="M11.890737240729173,16.74862870594833 L12.136933385195642,16.712583026599194 L12.401052156131815,16.6811728170509 L12.680549945391578,16.654700574791963 L12.972735036475322,16.633421241986536 L13.274793527231294,16.617539750242 L13.58381642927155,16.60720904700556 L13.896827683120337,16.60252862259673 L14.21081281929373,16.603543552061133 L14.52274798928865,16.61024406107322 L14.829629086896938,16.622565620068332 L15.128500679390351,16.640389565697692 L15.416484469953343,16.663544243621335 L15.69080701725484,16.69180666163322 L15.948826445204375,16.72490463719808 L16.18805788566302,16.76251941871804 L16.29990044510395,16.78290901482205 L16.40619740908194,16.804288755284716 " />
			<path d="M16.406197409081962,16.80428875528472 L37.214943026539345,21.201470169817977 " />
			<path d="M16.40644985558525,2201.1790550982223 L37.215195473042634,2205.5762365127557 " />
			<path d="M37.214943026539345,21.201470169817973 L37.39431430874796,21.242998601774953 L37.4762548568415,21.26483787550631 L37.552808012829445,21.287335562299 L37.62381928597449,21.31044625992008 L37.68914536952719,21.33412332902897 L37.74865442993106,21.35831898729956 L37.80222637287386,21.382984405848994 L37.84975308564806,21.40806980777849 L37.89113865533142,21.433524568627305 L37.92629956234734,21.459297318537196 L37.95516484901448,21.48533604592112 L37.97767626274531,21.511588202427017 L37.99378837360477,21.53800080898483 L38.003468665991726,21.564520562722734 L38.00669760425817,21.591093944536837 " />
			<path d="M38.00669760425817,21.59109394453684 L38.003468672133856,21.617667327097283 L37.99378838587664,21.644187083072673 L37.97767628112214,21.670599693354614 L37.955164873459196,21.696851855063763 L37.92629959281061,21.722890589119565 L37.89113869175176,21.74866334715649 L37.849753127951985,21.774118117571103 L37.802226420975984,21.799203530485848 L37.748654483734306,21.823868961417823 L37.689145428922984,21.848064633443244 L37.62381935084297,21.8717417176515 L37.5528080830397,21.894852431686015 L37.476254932251834,21.91735013617308 L37.39431438920619,21.93918942884405 L37.2149431165964,21.98071790226063 " />
			<path d="M279.5069844141344,73.29978152361116 L217.3441494313463,83.35695474611464 " />
			<path d="M217.04311875346357,84.19186362657152 L216.86374746639675,84.15033514469188 L216.78180691634128,84.12849584606333 L216.70525375872145,84.10599813448664 L216.63424248428686,84.08288741224742 L216.56891639979798,84.05921031873866 L216.5094073388208,84.0350146363385 L216.45583539567582,84.01034919398134 L216.40830868307722,83.98526376861692 L216.36692311395254,83.95980898475622 L216.33176220788212,83.93403621230695 L216.3028969225495,83.90799746290466 L216.28038551054297,83.88174528494892 L216.26427340179671,83.85533265755616 L216.25459311190957,83.82881288364338 L216.25136417652558,83.8022394823583 " />
			<path d="M216.25136417652558,83.8022394823583 L216.25249824488216,83.78648848035937 L216.25589964613252,83.77074864255603 L216.26156596938822,83.75503112523077 L216.26949319840057,83.73934706884552 L216.2921063001152,83.70812377427876 L216.3236748506292,83.67716726654545 L216.3641093635667,83.64656529708307 L216.4132952204874,83.61640461233064 L216.47109299579185,83.58677070783129 L216.53733885194674,83.55774758588076 L216.61184500391008,83.52941751740875 L216.69440025143953,83.50186080876806 L216.78477057777505,83.47515557409278 L216.88269981299885,83.44937751387054 L216.9879103601922,83.42459970035677 L217.1001039823306,83.40089237043901 L217.21896264768702,83.37832272653873 L217.3441494313463,83.35695474611464 " />
			<path d="M279.5069844141344,73.29978152361116 L279.75318055867314,73.26373584690573 L280.01729932967226,73.23232564519898 L280.29679711898507,73.2058534159039 L280.58898221011145,73.1845741010598 L280.8910407008993,73.16869263210106 L281.2000636029602,73.15836195625546 L281.5130748568184,73.15368156357873 L281.82705999298975,73.1546965288109 L282.13899516297124,73.16139707728193 L282.4458762605548,73.17371867904718 L282.74474785301254,73.19154267034597 L283.03273164352913,73.2146973963985 L283.30705419077395,73.24295986453522 L283.5650736186572,73.27605789173816 L283.8043050590405,73.3136727259121 L283.9161476184405,73.33406234856587 L284.02244458237567,73.35544211564161 " />
			<path d="M279.5069844141345,2257.674494553195 L279.7531805586732,2257.6384488764897 L280.0172993296723,2257.607038674783 L280.2967971189851,2257.580566445488 L280.5889822101115,2257.5592871306435 L280.89104070089934,2257.543405661685 L281.20006360296026,2257.5330749858394 L281.51307485681843,2257.5283945931624 L281.8270599929898,2257.5294095583945 L282.1389951629713,2257.5361101068656 L282.4458762605549,2257.548431708631 L282.7447478530126,2257.5662556999296 L283.0327316435292,2257.5894104259824 L283.307054190774,2257.617672894119 L283.56507361865727,2257.650770921322 L283.80430505904053,2257.688385755496 L283.91614761844056,2257.7087753781498 L284.0224445823757,2257.7301551452256 " />
			<path d="M284.02244458237567,73.35544211564162 L304.8311901910208,77.75262888604784 " />
			<path d="M284.0224445823757,2257.7301551452256 L304.8311901910209,2262.1273419156314 " />
			<path d="M304.8311901910208,77.75262888604783 L305.01056147808765,77.79415736792747 L305.09250202814314,77.81599666655602 L305.16905518576294,77.83849437813271 L305.2400664601975,77.86160510037193 L305.3053925446864,77.88528219388068 L305.3649016056636,77.90947787628085 L305.4184735488086,77.93414331863801 L305.46600026140715,77.95922874400243 L305.50738583053186,77.98468352786313 L305.5425467366023,78.0104563003124 L305.5714120219349,78.03649504971469 L305.5939234339414,78.06274722767043 L305.6100355426877,78.08915985506319 L305.61971583257485,78.11567962897597 L305.6229447679588,78.14225303026105 " />
			<path d="M305.6229447679588,78.14225303026105 L305.61971583257485,78.16882643154612 L305.6100355426877,78.1953462054589 L305.5939234339414,78.22175883285166 L305.5714120219349,78.2480110108074 L305.5425467366023,78.27404976020969 L305.50738583053186,78.29982253265896 L305.46600026140715,78.32527731651966 L305.41847354880855,78.35036274188408 L305.3649016056636,78.37502818424124 L305.3053925446864,78.3992238666414 L305.2400664601975,78.42290096015017 L305.16905518576294,78.44601168238938 L305.0925020281431,78.46850939396607 L305.01056147808765,78.49034869259462 L304.8311901910208,78.53187717447426 " />
			<path d="M304.8311901910209,2262.127341915632 L305.0105614780877,2262.1688703975115 L305.0925020281432,2262.19070969614 L305.169055185763,2262.2132074077167 L305.24006646019757,2262.2363181299556 L305.30539254468647,2262.2599952234646 L305.36490160566365,2262.2841909058648 L305.41847354880866,2262.308856348222 L305.4660002614072,2262.3339417735865 L305.5073858305319,2262.359396557447 L305.54254673660233,2262.385169329896 L305.571412021935,2262.4112080792984 L305.5939234339415,2262.4374602572543 L305.61003554268774,2262.463872884647 L305.6197158325749,2262.49039265856 L305.62294476795887,2262.516966059845 " />
			<path d="M547.1232570519002,129.85094302655713 L484.96042206911204,139.9081162490606 " />
			<path d="M484.6593913912293,140.7430251295175 L484.48002010416246,140.70149664763787 L484.39807955410697,140.67965734900932 L484.3215263964872,140.65715963743264 L484.2505151220526,140.6340489151934 L484.1851890375637,140.61037182168465 L484.1256799765865,140.58617613928448 L484.0721080334415,140.56151069692731 L484.02458132084297,140.5364252715629 L483.98319575171826,140.51097048770222 L483.94803484564784,140.48519771525295 L483.9191695603152,140.45915896585066 L483.8966581483087,140.43290678789492 L483.88054603956243,140.40649416050215 L483.87086574967526,140.37997438658937 L483.8676368142913,140.3534009853043 " />
			<path d="M483.8676368142913,140.3534009853043 L483.8687708826479,140.33764998330537 L483.87217228389824,140.32191014550202 L483.87783860715393,140.30619262817677 L483.8857658361663,140.29050857179152 L483.9083789378809,140.25928527722473 L483.9399474883949,140.22832876949144 L483.98038200133243,140.19772680002907 L484.02956785825313,140.16756611527663 L484.08736563355757,140.13793221077728 L484.15361148971243,140.10890908882675 L484.2281176416758,140.08057902035472 L484.31067288920525,140.05302231171405 L484.40104321554077,140.02631707703878 L484.49897245076454,140.00053901681653 L484.6041829979579,139.97576120330274 L484.7163766200963,139.952053873385 L484.83523528545277,139.92948422948473 L484.96042206911204,139.9081162490606 " />
			<path d="M547.1232570519002,129.8509430265571 L547.3694531964388,129.8148973498517 L547.633571967438,129.78348714814496 L547.9130697567508,129.75701491884985 L548.2052548478772,129.73573560400575 L548.507313338665,129.719854135047 L548.816336240726,129.70952345920142 L549.1293474945842,129.7048430665247 L549.4433326307555,129.70585803175686 L549.755267800737,129.7125585802279 L550.0621488983206,129.72488018199314 L550.3610204907783,129.74270417329194 L550.6490042812949,129.76585889934447 L550.9233268285398,129.79412136748118 L551.1813462564229,129.8272193946841 L551.4205776968062,129.86483422885806 L551.5324202562063,129.88522385151182 L551.6387172201414,129.90660361858758 " />
			<path d="M547.1232570519002,2314.225656056141 L547.3694531964388,2314.1896103794356 L547.633571967438,2314.1582001777288 L547.9130697567508,2314.1317279484338 L548.2052548478772,2314.1104486335894 L548.507313338665,2314.094567164631 L548.816336240726,2314.0842364887853 L549.1293474945842,2314.0795560961083 L549.4433326307555,2314.0805710613404 L549.755267800737,2314.0872716098115 L550.0621488983206,2314.099593211577 L550.3610204907783,2314.1174172028755 L550.6490042812949,2314.1405719289282 L550.9233268285398,2314.168834397065 L551.1813462564229,2314.201932424268 L551.4205776968062,2314.2395472584417 L551.5324202562063,2314.2599368810957 L551.6387172201414,2314.2813166481715 " />
			<path d="M551.6387172201413,129.90660361858758 L572.4474628287866,134.3037903889938 " />
			<path d="M551.6387172201413,2314.281316648172 L572.4474628287866,2318.6785034185777 " />
			<path d="M572.4474628287866,134.3037903889938 L572.6268341158534,134.34531887087343 L572.7087746659089,134.36715816950198 L572.7853278235287,134.38965588107865 L572.8563390979633,134.4127666033179 L572.9216651824522,134.43644369682664 L572.9811742434293,134.46063937922682 L573.0347461865744,134.48530482158398 L573.082272899173,134.5103902469484 L573.1236584682975,134.53584503080907 L573.158819374368,134.56161780325834 L573.1876846597006,134.58765655266063 L573.2101960717072,134.61390873061637 L573.2263081804534,134.64032135800915 L573.2359884703405,134.66684113192193 L573.2392174057246,134.693414533207 " />
			<path d="M573.2392174057246,134.693414533207 L573.2359884703405,134.71998793449208 L573.2263081804534,134.74650770840486 L573.2101960717072,134.77292033579764 L573.1876846597006,134.79917251375338 L573.158819374368,134.82521126315567 L573.1236584682975,134.85098403560494 L573.082272899173,134.87643881946562 L573.0347461865744,134.90152424483003 L572.9811742434293,134.9261896871872 L572.9216651824522,134.95038536958737 L572.8563390979633,134.97406246309612 L572.7853278235286,134.99717318533536 L572.7087746659089,135.01967089691203 L572.6268341158534,135.04151019554058 L572.4474628287866,135.0830386774202 " />
			<path d="M572.4474628287866,2318.6785034185777 L572.6268341158534,2318.7200319004573 L572.7087746659089,2318.741871199086 L572.7853278235287,2318.7643689106626 L572.8563390979633,2318.7874796329015 L572.9216651824522,2318.8111567264104 L572.9811742434293,2318.8353524088106 L573.0347461865744,2318.860017851168 L573.082272899173,2318.8851032765324 L573.1236584682975,2318.9105580603928 L573.158819374368,2318.936330832842 L573.1876846597006,2318.9623695822443 L573.2101960717072,2318.9886217602 L573.2263081804534,2319.015034387593 L573.2359884703405,2319.0415541615057 L573.2392174057246,2319.068127562791 " />
			<path d="M573.2392174057246,2319.068127562791 L573.2380833373679,2319.0838785647898 L573.2346819361176,2319.099618402593 L573.2290156128619,2319.1153359199184 L573.2210883838496,2319.1310199763034 L573.198475282135,2319.1622432708705 L573.166906731621,2319.1931997786037 L573.1264722186835,2319.223801748066 L573.0772863617627,2319.2539624328183 L573.0194885864582,2319.2835963373177 L572.9532427303034,2319.3126194592683 L572.8787365783401,2319.34094952774 L572.7961813308107,2319.368506236381 L572.7058110044751,2319.3952114710564 L572.6078817692513,2319.4209895312783 L572.502671222058,2319.4457673447923 L572.3904775999196,2319.46947467471 L572.2716189345631,2319.49204431861 L572.1464321509038,2319.5134122990344 " />
			<path d="M814.7395296896658,186.40210452950308 L752.5766947068777,196.45927775200656 " />
			<path d="M814.7395296896658,2370.776817559087 L814.2187863313525,2370.8610673549733 " />
			<path d="M752.2756640289949,197.29418663246344 L752.0962927419281,197.2526581505838 L752.0143521918726,197.23081885195526 L751.9377990342527,197.2083211403786 L751.8667877598182,197.18521041813935 L751.8014616753293,197.1615333246306 L751.7419526143522,197.13733764223042 L751.6883806712071,197.11267219987326 L751.6408539586085,197.08758677450885 L751.599468389484,197.06213199064817 L751.5643074834135,197.0363592181989 L751.5354421980809,197.0103204687966 L751.5129307860743,196.98406829084087 L751.4968186773281,196.9576556634481 L751.487138387441,196.9311358895353 L751.4839094520569,196.90456248825024 " />
			<path d="M751.4839094520569,196.90456248825024 L751.4850435204135,196.8888114862513 L751.4884449216639,196.87307164844796 L751.4941112449196,196.85735413112272 L751.5020384739319,196.84167007473746 L751.5246515756465,196.81044678017068 L751.5562201261605,196.77949027243739 L751.596654639098,196.74888830297502 L751.6458404960188,196.71872761822257 L751.7036382713233,196.68909371372322 L751.7698841274781,196.6600705917727 L751.8443902794414,196.63174052330066 L751.9269455269708,196.60418381466 L752.0173158533064,196.57747857998473 L752.1152450885302,196.55170051976248 L752.2204556357235,196.52692270624868 L752.3326492578619,196.50321537633096 L752.4515079232184,196.48064573243067 L752.5766947068777,196.45927775200656 " />
			<path d="M814.7395296896658,186.40210452950308 L814.9857258342045,186.36605885279766 L815.2498446052036,186.33464865109093 L815.5293423945164,186.30817642179582 L815.8215274856428,186.28689710695173 L816.1235859764306,186.27101563799297 L816.4326088784916,186.2606849621474 L816.7456201323498,186.25600456947066 L817.0596052685212,186.25701953470283 L817.3715404385026,186.26372008317387 L817.6784215360863,186.27604168493912 L817.9772931285439,186.2938656762379 L818.2652769190605,186.31702040229044 L818.5395994663054,186.34528287042716 L818.7976188941885,186.37838089763008 L819.0368503345718,186.41599573180403 L819.1486928939719,186.4363853544578 L819.254989857907,186.45776512153355 " />
			<path d="M814.7395296896658,2370.7768175590872 L814.9857258342045,2370.740771882382 L815.2498446052036,2370.709361680675 L815.5293423945164,2370.68288945138 L815.8215274856428,2370.6616101365357 L816.1235859764306,2370.6457286675773 L816.4326088784916,2370.6353979917317 L816.7456201323498,2370.6307175990546 L817.0596052685212,2370.6317325642867 L817.3715404385026,2370.638433112758 L817.6784215360863,2370.6507547145234 L817.9772931285439,2370.668578705822 L818.2652769190605,2370.6917334318746 L818.5395994663054,2370.7199959000113 L818.7976188941885,2370.753093927214 L819.0368503345718,2370.790708761388 L819.1486928939719,2370.811098384042 L819.254989857907,2370.832478151118 " />
			<path d="M819.2549898579069,186.45776512153353 L840.0637354665522,190.85495189193975 " />
			<path d="M819.2549898579069,2370.8324781511174 L840.0637354665522,2375.229664921523 " />
			<path d="M840.0637354665522,190.85495189193978 L840.243106753619,190.8964803738194 L840.3250473036745,190.91831967244795 L840.4016004612944,190.94081738402463 L840.472611735729,190.96392810626386 L840.5379378202178,190.98760519977262 L840.597446881195,191.0118008821728 L840.65101882434,191.03646632452995 L840.6985455369386,191.06155174989436 L840.7399311060632,191.08700653375504 L840.7750920121337,191.11277930620432 L840.8039572974662,191.1388180556066 L840.8264687094728,191.16507023356235 L840.8425808182191,191.19148286095512 L840.8522611081062,191.2180026348679 L840.8554900434902,191.24457603615298 " />
			<path d="M840.8554900434902,191.24457603615298 L840.8522611081062,191.27114943743805 L840.8425808182191,191.29766921135084 L840.8264687094728,191.3240818387436 L840.8039572974662,191.35033401669935 L840.7750920121337,191.37637276610164 L840.7399311060632,191.4021455385509 L840.6985455369386,191.4276003224116 L840.65101882434,191.452685747776 L840.597446881195,191.47735119013316 L840.5379378202178,191.50154687253334 L840.472611735729,191.5252239660421 L840.4016004612943,191.54833468828133 L840.3250473036745,191.570832399858 L840.243106753619,191.59267169848655 L840.0637354665522,191.63420018036618 " />
			<path d="M840.0637354665522,2375.2296649215236 L840.243106753619,2375.2711934034032 L840.3250473036745,2375.2930327020317 L840.4016004612944,2375.3155304136085 L840.472611735729,2375.3386411358474 L840.5379378202178,2375.3623182293563 L840.597446881195,2375.3865139117565 L840.65101882434,2375.4111793541138 L840.6985455369386,2375.4362647794783 L840.7399311060632,2375.4617195633386 L840.7750920121337,2375.487492335788 L840.8039572974662,2375.51353108519 L840.8264687094728,2375.539783263146 L840.8425808182191,2375.566195890539 L840.8522611081062,2375.5927156644516 L840.8554900434902,2375.6192890657367 " />
			<path d="M840.8554900434902,2375.6192890657367 L840.8543559751336,2375.6350400677356 L840.8509545738832,2375.650779905539 L840.8452882506275,2375.6664974228643 L840.8373610216153,2375.6821814792493 L840.8147479199006,2375.7134047738164 L840.7831793693866,2375.7443612815496 L840.7427448564491,2375.7749632510117 L840.6935589995284,2375.805123935764 L840.6357612242239,2375.8347578402636 L840.569515368069,2375.863780962214 L840.4950092161057,2375.892111030686 L840.4124539685763,2375.919667739327 L840.3220836422407,2375.9463729740023 L840.224154407017,2375.972151034224 L840.1189438598236,2375.996928847738 L840.0067502376852,2376.020636177656 L839.8878915723287,2376.043205821556 L839.7627047886695,2376.0645738019803 " />
			<path d="M839.7627047886695,2376.0645738019807 L839.1157407345054,2376.1692445359213 " />
			<path d="M1090.7845972224409,244.73438860274766 L1028.6217622374484,254.7915618247853 " />
			<path d="M1090.7843744840643,2429.109054564489 L1088.8712114480004,2429.4185805386555 " />
			<path d="M1028.3207315593825,255.62647118381673 L1028.1413602678974,255.58494265786652 L1028.05941971605,255.56310333725764 L1027.9828665569323,255.5406056037995 L1027.911855281306,255.5174948598242 L1027.846529195941,255.49381774477112 L1027.7870201344122,255.46962204106433 L1027.733448191047,255.44495657768377 L1027.6859214785663,255.41987113162423 L1027.644535909902,255.39441632744112 L1027.609375004638,255.36864353508585 L1027.58050972046,255.3426047662368 L1027.5579983099572,255.31635256933563 L1027.5418862030626,255.28993992353972 L1027.5322059153732,255.263420131806 L1027.52897698253,255.23684671332097 " />
			<path d="M1027.52897698253,255.23684671332097 L1027.5301110524426,255.22109570219752 L1027.5335124551477,255.2053558555069 L1027.5391787797562,255.18963832953744 L1027.547106010018,255.17395426475667 L1027.5697191139209,255.14273095416664 L1027.6012876662055,255.111774431468 L1027.6417221804952,255.0811724481368 L1027.6909080383505,255.05101175064752 L1027.7487058141758,255.02137783457565 L1027.8149516704432,254.99235470224602 L1027.889457822119,254.96402462461407 L1027.9720130689711,254.93646790805508 L1028.0623833942514,254.90976266672214 L1028.1603126280565,254.88398460111836 L1028.265523173484,254.8592067835112 L1028.3777167935275,254.83549945079676 L1028.4965754564803,254.8129298054014 L1028.6217622374484,254.7915618247853 " />
			<path d="M1090.7845972224409,244.73438860274763 L1091.0307933669874,244.69834292834855 L1091.2949121379934,244.66693273353502 L1091.574409927312,244.64046051565367 L1091.8665950184431,244.61918121663388 L1092.1686535092344,244.60329976775765 L1092.4776764112976,244.59296911605938 L1092.7906876651568,244.58828875136217 L1093.104672801328,244.58930374813667 L1093.416607971308,244.59600433140903 L1093.723489068889,244.60832597089947 L1094.0223606613426,244.62615000248397 L1094.3103444518542,244.6493047709948 L1094.5846669990929,244.67756728335348 L1094.8426864269688,244.71066535611615 L1095.081917867344,244.74828023674885 L1095.1937604267393,244.76866988282956 L1095.30005739067,244.79004967338872 " />
			<path d="M1090.7843744840643,2429.1090545644893 L1091.0305706286108,2429.07300889009 L1091.2946893996168,2429.0415986952767 L1091.5741871889354,2429.015126477395 L1091.8663722800666,2428.9938471783753 L1092.1684307708579,2428.977965729499 L1092.477453672921,2428.967635077801 L1092.7904649267803,2428.9629547131035 L1093.1044500629514,2428.9639697098783 L1093.4163852329314,2428.9706702931503 L1093.7232663305124,2428.9829919326407 L1094.022137922966,2429.0008159642252 L1094.3101217134777,2429.0239707327364 L1094.5844442607163,2429.052233245095 L1094.8424636885923,2429.0853313178577 L1095.0816951289673,2429.1229461984904 L1095.1935376883628,2429.143335844571 L1095.2998346522934,2429.16471563513 " />
			<path d="M1095.3000573906702,244.79004967338872 L1116.1088029983512,249.18724116989685 " />
			<path d="M1095.2998346522934,2429.1647156351305 L1116.1085802599744,2433.5619071316382 " />
			<path d="M1116.1088029983512,249.18724116989688 L1116.2881742898362,249.2287696958471 L1116.3701148416837,249.25060901645597 L1116.4466680008013,249.27310674991412 L1116.5176792764275,249.2962174938894 L1116.5830053617926,249.3198946089425 L1116.6425144233215,249.34409031264929 L1116.6960863666866,249.36875577602984 L1116.7436130791673,249.39384122208938 L1116.7849986478316,249.4192960262725 L1116.8201595530957,249.44506881862776 L1116.8490248372736,249.4711075874768 L1116.8715362477765,249.49735978437798 L1116.887648354671,249.5237724301739 L1116.8973286423604,249.55029222190763 L1116.9005575752037,249.57686564039264 " />
			<path d="M1116.9005575752037,249.57686564039264 L1116.897328636941,249.60343905821918 L1116.8876483438435,249.6299588479787 L1116.8715362315622,249.65637149048877 L1116.8490248157054,249.68262368279903 L1116.8201595262171,249.70866244576132 L1116.7849986156973,249.734435230946 L1116.7436130418419,249.759890026689 L1116.696086324245,249.78497546305604 L1116.64251437585,249.80964091551124 L1116.5830053093864,249.83383660708188 L1116.5176792191928,249.85751370881252 L1116.4466679388534,249.8806244383059 L1116.3701147751478,249.90312215615197 L1116.2881742188463,249.92496146005004 L1116.1088029188918,249.96648994941967 " />
			<path d="M1116.1085802599744,2433.5619071316387 L1116.2879515514594,2433.603435657589 L1116.369892103307,2433.625274978198 L1116.4464452624245,2433.647772711656 L1116.5174565380507,2433.670883455631 L1116.5827826234158,2433.6945605706846 L1116.6422916849447,2433.718756274391 L1116.6958636283098,2433.7434217377718 L1116.7433903407905,2433.7685071838314 L1116.7847759094548,2433.7939619880144 L1116.8199368147189,2433.81973478037 L1116.8488020988968,2433.845773549219 L1116.8713135093997,2433.87202574612 L1116.8874256162942,2433.898438391916 L1116.8971059039836,2433.92495818365 L1116.900334836827,2433.9515316021348 " />
			<path d="M1116.900334836827,2433.9515316021348 L1116.8992007669142,2433.9672826132582 L1116.895799364209,2433.9830224599486 L1116.8901330396006,2433.9987399859183 L1116.8822058093388,2434.014424050699 L1116.859592705436,2434.045647361289 L1116.8280241531513,2434.0766038839874 L1116.7875896388616,2434.107205867319 L1116.7384037810064,2434.137366564808 L1116.680606005181,2434.16700048088 L1116.6143601489136,2434.1960236132095 L1116.5398539972377,2434.2243536908413 L1116.4572987503857,2434.2519104074004 L1116.3669284251055,2434.2786156487336 L1116.2689991913003,2434.304393714337 L1116.1637886458727,2434.329171531944 L1116.0515950258293,2434.352878864659 L1115.9327363628765,2434.375448510054 L1115.8075495819085,2434.39681649067 " />
			<path d="M1115.8075495819087,2434.3968164906696 L1113.7681810063452,2434.7267609507794 " />
			<path d="M50.27212320641944,10.538985222267144 L1154.1892478372033,243.81252642191936 " />
			<path d="M-50.27212320641944,26.805793243168672 L-50.272088854394916,26.805800502244765 " />
			<path d="M38.00670036281271,45.460376388458386 L217.3441494313463,83.35695474611465 " />
			<path d="M305.62294476795887,102.0115319254464 L484.96042206911204,139.90811624906064 " />
			<path d="M573.2392174057245,158.56269342839235 L752.5766947068777,196.45927775200656 " />
			<path d="M840.8554900434902,215.11385493133832 L1028.621762237448,254.79156465723094 " />
			<path d="M52.68036862948145,7.004537628333026 L1156.5974932602653,240.27807882798524 " />
			<path d="M52.68036862948145,-24.050593937660974 L1156.5974932602653,209.22294726199124 " />
			<path d="M51.544403807282386,-26.53694208166306 L1154.1892478372033,206.46774795648355 " />
			<path d="M12.524140428230352,2237.365267274303 L1115.3178022382565,2472.487365187312 " />
			<path d="M-49.68674242167407,2247.7540642920926 L1053.106919388352,2482.876162205102 " />
			<path d="M14.926223663181283,2233.8200925487763 L1117.7198854732073,2468.9421904617857 " />
			<path d="M14.846990547099265,2202.7858987414934 L1117.6406523571254,2437.9079966545028 " />
			<path d="M37.21519544461528,2205.3302596733147 L282.0667175418333,2257.534044974548 " />
			<path d="M305.6163394997291,2262.554962950002 L547.1232570519002,2314.045658881434 " />
			<path d="M572.4774511140737,2319.4513222482396 L1115.2225219087907,2435.1677650393135 " />
			<path d="M11.89073724072918,16.748628705948327 L11.890989687232473,2201.123395048886 " />
			<path d="M-50.272097721903094,26.805801936897254 L-50.271845344584655,2210.5819240305846 " />
			<path d="M16.406197409081962,16.804288755284716 L16.406449855585254,2201.1790550982223 " />
			<path d="M37.21494302653934,21.201470169817973 L37.21519547304263,2205.5762365127557 " />
			<path d="M279.5069844141344,73.29978152361114 L279.5069844141345,2256.857364759084 " />
			<path d="M217.34414943134632,83.35695474611464 L217.34414943134635,2243.6038825533697 " />
			<path d="M284.02244458237567,73.35544211564161 L284.0224445823757,2257.7301551452256 " />
			<path d="M304.8311901910208,77.75262888604784 L304.8311901910209,2262.1273419156314 " />
			<path d="M547.1232570519002,129.8509430265571 L547.1232570519002,2313.9147288311406 " />
			<path d="M484.96042206911204,139.9081162490606 L484.9604220691121,2300.661246625427 " />
			<path d="M551.6387172201414,129.90660361858758 L551.6387172201414,2314.2813166481715 " />
			<path d="M572.4474628287866,134.3037903889938 L572.4474628287866,2318.6785034185777 " />
			<path d="M814.7395296896658,186.40210452950308 L814.7395296896658,2370.776817559087 " />
			<path d="M752.5766947068777,196.45927775200656 L752.5766947068777,2357.718610697484 " />
			<path d="M819.254989857907,186.45776512153353 L819.254989857907,2370.8324781511174 " />
			<path d="M840.0637354665522,190.85495189193975 L840.0637354665522,2375.2296649215236 " />
			<path d="M1090.7845972224409,244.73438860274766 L1090.7843744840643,2429.1090545644884 " />
			<path d="M1028.6217622374484,254.79156182478528 L1028.6215418028796,2416.5729964406514 " />
			<path d="M1095.30005739067,244.79004967338875 L1095.2998346522934,2429.1647156351296 " />
			<path d="M1116.108802998351,249.18724116989685 L1116.1085802599744,2433.561907131638 " />
			<path d="M1028.3052381877442,254.8505208869966 L840.8554900434901,215.23969723823944 " />
			<path d="M752.2601772981119,196.5182353850978 L573.2392174057245,158.6885357352935 " />
			<path d="M484.64390466034615,139.96707388215182 L305.62294476795887,102.13737423234758 " />
			<path d="M217.02763202258046,83.41591237920586 L38.006700377356196,45.58621869843279 " />
			<path d="M-50.588607373046194,26.864757900801244 L-50.93371910529673,26.791830835811147 " />
			<path d="M1154.8508437360806,206.48171036384107 L50.93371910529673,-26.791830835811147 " />
			<path d="M1052.431634185872,2482.8631174766174 L-50.36202762415398,2247.741019563608 " />
			<path d="M1115.8978071112706,2435.180809767798 L572.7579422801986,2319.3801945650703 " />
			<path d="M548.0803880382986,2314.1187947895273 L305.57534525978906,2262.4152926865295 " />
			<path d="M282.87884451458666,2257.5762651736786 L37.21519542948379,2205.199329619795 " />
			<path d="M-51.364630546897224,2211.4738308146807 L-51.36488297583145,27.25108650059557 " />
			<path d="M38.00695005076145,2205.9658602874733 L38.006697604258164,21.59109394453684 " />
			<path d="M216.25136417652556,2243.37089430672 L216.25136417652553,83.8022394823583 " />
			<path d="M305.6229447679589,2262.516966059845 L305.62294476795887,78.14225303026105 " />
			<path d="M483.8676368142914,2300.4282583787767 L483.86763681429136,140.3534009853043 " />
			<path d="M573.2392174057245,2319.068127562791 L573.2392174057245,134.693414533207 " />
			<path d="M751.4839094520569,2357.485622450834 L751.4839094520569,196.9045624882502 " />
			<path d="M840.8554900434901,2375.6192890657367 L840.8554900434901,191.24457603615298 " />
			<path d="M1027.5287566171244,2416.3400082087264 L1027.5289769825301,255.23684671332092 " />
			<path d="M1116.9003348368271,2433.951531602134 L1116.9005575752037,249.57686564039264 " />

       </g>
    </g>
    
</svg>
