<?xml version="1.0" encoding="UTF-8" standalone="no"?>
<svg
   xmlns:svg="http://www.w3.org/2000/svg"
   xmlns="http://www.w3.org/2000/svg"
   width="480.0"
   height="480.0"

>
    <g transform="scale(0.12804541253446064, -0.12804541253446064)   translate(91.53232106149615,-983.9146279244193)" stroke-width="1.0"  fill="none">
       <!-- hidden lines -->
       <g  stroke="rgb(0,0,0)" fill="none" stroke-dasharray="1.0,1.0" >
			<path d="M1198.828836823673,-631.2996252610075 L1198.828836823673,-559.8226338367646 " />
			<path d="M1196.566095123876,-558.2919311068207 L1196.6677188426474,-558.2412074172955 L1196.7691374761555,-558.1960778038091 L1196.870146353016,-558.1566333417398 L1196.970541628769,-558.1229536333501 L1197.0701206972528,-558.0951066471409 L1197.1686825994816,-558.073148580687 L1197.2660284291965,-558.0571237472243 L1197.3619617342765,-558.0470644862227 L1197.4562889131944,-558.042991098122 L1197.5488196057217,-558.0449118033641 L1197.6393670770915,-558.0528227258035 L1197.7277485948448,-558.066707900529 L1197.8137857976003,-558.0865393060833 L1197.897305055003,-558.1122769210119 L1197.9781378181242,-558.1438688046302 L1198.0561209596085,-558.1812512018438 " />
			<path d="M1198.0561209596085,-558.1812512018438 L1198.1009251095911,-558.2061064700113 L1198.1446413832489,-558.232951371756 L1198.1872387948056,-558.2617668796071 L1198.2286871515253,-558.2925325693421 L1198.268957075115,-558.3252266344643 L1198.3080200225452,-558.359825901658 L1198.3458483062836,-558.3963058472146 L1198.3824151139181,-558.434640614414 L1198.4176945271608,-558.4748030318523 L1198.4516615402213,-558.5167646327002 L1198.484292077527,-558.5604956748804 L1198.515563010791,-558.6059651621484 L1198.5454521754034,-558.6531408660626 L1198.5739383861417,-558.7019893488273 L1198.601001452187,-558.7524759869934 L1198.626622191435,-558.8045649959993 L1198.6734650855476,-558.9134013357079 L1198.7143342844029,-559.0281898530089 L1198.74911393737,-559.1486051605077 L1198.777705455662,-559.2743059207246 L1198.800027791803,-559.4049358136738 L1198.8160176693689,-559.5401245469117 L1198.825629762358,-559.6794889051944 L1198.828836823673,-559.8226338367646 " />
			<path d="M1171.9788034014143,-687.9232244792073 L1171.970050069415,-687.8378738256844 L1171.9637907542606,-687.7509104446218 L1171.9600323895686,-687.6624306677777 L1171.958779138584,-687.5725325066637 " />
			<path d="M1171.9587791385843,-687.5725325066637 L1171.9587791385843,-573.9603743286073 " />
			<path d="M1171.958779138584,-573.9603743286073 L1171.961504710058,-573.8254148888244 L1171.969674858339,-573.6879124471919 L1171.9832699008243,-573.5481982591353 L1172.0022570858657,-573.4066089083711 L1172.0265906716716,-573.2634854960472 L1172.056212036502,-573.119172819 L1172.0910498198953,-572.9740185391088 L1172.1310200945788,-572.8283723457478 L1172.1760265686607,-572.6825851133539 L1172.2259608176025,-572.5370080561394 L1172.2807025454247,-572.3919918819862 L1172.3401198745103,-572.2478859475598 L1172.404069663309,-572.1050374166783 L1172.4723978511784,-571.9637904239647 L1172.544939829529,-571.8244852457964 L1172.6215208383812,-571.687457480549 L1172.7019563873766,-571.5530372401114 L1172.7860527002329,-571.4215483546167 L1172.873607181566,-571.2933075923067 L1172.9644089049618,-571.168623896411 L1173.058239121115,-571.0477976408735 L1173.1548717848168,-570.9311199067271 L1173.254074099516,-570.8188717808532 L1173.3556070781472,-570.7113236788186 L1173.459226118872,-570.6087346934215 L1173.5646815943453,-570.5113519705131 L1173.67171945309,-570.419410113603 L1173.7800818315284,-570.3331306186774 L1173.8895076752,-570.2527213405967 L1173.9997333676627,-570.178375992355 L1174.1104933655683,-570.110273678408 L1174.2215208383811,-570.0485784631951 " />
			<path d="M1196.5660951238763,-558.2919311068206 L1174.2215208383811,-570.0485784631951 " />
			<path d="M2771.0530915296135,197.4360361855936 L2771.043193582392,197.52784391047712 L2771.0361916987404,197.62154082909947 L2771.0320948984586,197.71700624144484 L2771.0309084590285,197.81411716933047 " />
			<path d="M1584.4386271210326,819.6116396733732 L1584.6324817249053,890.0101769323342 " />
			<path d="M2771.0309084590285,197.8141171693305 L2771.2247630629013,268.2126544282915 " />
			<path d="M2771.2247630629013,268.2126544282915 L2771.227854364335,268.34789858328276 L2771.236383814577,268.48566029382425 L2771.250330865434,268.62560767988873 L2771.26966191724,268.76740359596533 L2771.2943303997968,268.9107064432723 L2771.32427688457,269.05517099269866 L2771.359429227854,269.2004492164912 L2771.3997027445757,269.346191126684 L2771.4450004123055,269.4920456182499 L2771.4952131049945,269.63766131494333 L2771.550219855867,269.78268741579654 L2771.609888148843,269.9267745402298 L2771.674074237778,270.0695755697398 L2771.7426234927616,270.2107464841386 L2771.815370772635,270.3499471903283 L2771.8921408228284,270.48684234161504 L2771.9727486975667,270.6211021455889 L2772.0570002054196,270.75240315862226 L2772.1446923771246,270.88042906507417 L2772.23561395456,271.0048714393222 L2772.329545899681,271.1254304887869 L2772.426261922205,271.24181577615843 L2772.525529024762,271.3537469190853 L2772.6271080642073,271.46095426564034 L2772.7307543277375,271.5631795439353 L2772.8362181224256,271.6601764843209 L2772.9432453767527,271.7517114126719 L2773.0515782526886,271.83756381332836 L2773.160955766846,271.91752686033726 L2773.271114419214,271.9914079157145 L2773.381788827949,272.0590289935264 L2773.492712368707,272.1202271886736 " />
			<path d="M2795.814549469561,283.7753801419606 L2773.4927123687066,272.1202271886736 " />
			<path d="M1587.384313616247,892.3517011657004 L1587.2826899270199,892.4024248588142 L1587.1812713229458,892.4475544772074 L1587.0802624753014,892.4869989455127 L1586.9798672284394,892.5206786614744 L1586.8802881884149,892.5485256565921 L1586.7817263141092,892.5704837332867 L1586.6843805116775,892.5865085783116 L1586.588447233139,892.5965678521817 L1586.494120079922,892.6006412544357 L1586.4015894121576,892.5987205646053 L1586.3110419645188,892.5908096588039 L1586.2226604693735,892.5769245019053 L1586.1366232880148,892.5570931153243 L1586.053104050714,892.5313555204675 L1585.9722713063184,892.4997636579668 L1585.8942881821079,892.4623812828589 " />
			<path d="M1585.8942881821079,892.4623812828589 L1585.8494840319845,892.437526022589 L1585.805767758118,892.4106811281888 L1585.7631703462912,892.3818656271275 L1585.7217219892457,892.3510999436269 L1585.6814520652813,892.3184058841838 L1585.6423891174327,892.2838066221143 L1585.6045608332388,892.2473266811286 L1585.567994025117,892.2089919179483 L1585.5327146113607,892.1688295039802 L1585.498747597766,892.1268679060566 L1585.4661170599102,892.0831368662589 L1585.4348461260852,892.037667380836 L1585.4049569609062,891.9904916782344 L1585.3764707496,891.9416431962559 L1585.34940768299,891.8911565583558 L1585.3237869431848,891.8390675491028 L1585.276944047996,891.730231207391 L1585.2360748481397,891.6154426861318 L1585.201295194273,891.4950273727964 L1585.1727036752045,891.369326604949 L1585.1503813384293,891.2386967026683 L1585.1343914603851,891.1035079584982 L1585.1247793670846,890.9641435877903 L1585.1215723056312,890.8209986424158 " />
			<path d="M1585.1215722809757,820.5787511559055 L1585.1232585669434,820.4728249159288 L1585.128314911544,820.3652820700952 L1585.136733778394,820.2562829089293 L1585.1485026193359,820.1459898935656 L1585.1636038931404,820.0345674136029 L1585.182015091652,819.9221815420854 L1585.2037087733365,819.8089997879733 L1585.2286526041826,819.6951908464749 L1585.2568094058945,819.5809243476086 L1585.2881372113056,819.4663706033735 L1585.3225893269298,819.3517003539023 L1585.3601144025577,819.2370845129763 L1585.4006565077918,819.1226939132822 L1585.4441552154117,819.0086990517889 L1585.4905456914373,818.895269835625 L1585.5397587917646,818.7825753288361 L1585.5917211652227,818.6707835003973 L1585.646355362902,818.5600609738597 L1585.7035799535918,818.4505727789999 L1585.7633096451498,818.3424821058478 L1585.82545541163,818.235950061454 L1585.8899246259734,818.1311354297633 L1585.9566211980673,818.0281944349498 L1586.0254457179653,817.9272805085689 L1586.0962956040562,817.828544060869 L1586.1690652559596,817.7321322566097 L1586.2436462119217,817.638188795714 L1586.3199273104751,817.5468536990871 L1586.3977948561228,817.4582630999182 L1586.477132788799,817.3725490407759 L1586.5578228568547,817.2898392768021 L1586.6397447933095,817.2102570852948 " />
			<path d="M40.28508749308952,-20.855746542970753 L40.29384084594096,-20.77039578858059 L40.30010017603319,-20.683432301934157 L40.3038585497143,-20.594952415152697 L40.30511180371849,-20.505054140120393 " />
			<path d="M1610.5856601509295,804.6621299167359 L1610.671423149009,804.6617099966194 L1610.7555777438954,804.6663579914984 L1610.8379803293283,804.6760659697662 L1610.9184902887773,804.6908173651678 L1610.9969702353985,804.7105870050706 L1611.0732862464788,804.7353411534191 L1611.1473080919698,804.7650375683052 L1611.21890945672,804.7996255740516 " />
			<path d="M1611.21890945672,804.7996255740516 L1611.2637136068433,804.8244808343214 L1611.3074298807098,804.8513257287217 L1611.3500272925367,804.880141229783 L1611.3914756495822,804.9109069132836 L1611.4317455735466,804.9436009727267 L1611.4708085213952,804.9782002347962 L1611.508636805589,805.0146801757819 L1611.5452036137108,805.0530149389622 L1611.5804830274672,805.0931773529303 L1611.614450041062,805.1351389508538 L1611.647080578918,805.1788699906516 L1611.6783515127427,805.2243394760746 L1611.7082406779216,805.271515178676 L1611.7367268892278,805.3203636606546 L1611.7637899558379,805.3708502985547 L1611.789410695643,805.4229393078077 L1611.8362535908318,805.5317756495197 L1611.8771227906882,805.6465641707787 L1611.911902444555,805.7669794841141 L1611.9404939636233,805.8926802519615 L1611.9628163003986,806.0233101542422 L1611.9788061784427,806.1584988984123 L1611.9884182717433,806.2978632691202 L1611.9916253331967,806.4410082144947 " />
			<path d="M40.30511180371849,-20.505054140120382 L40.305111828373995,49.73719334638996 " />
			<path d="M1611.9916253331967,806.4410082144948 L1611.9916253578522,876.6832557010052 " />
			<path d="M40.305111828373995,49.737193346389944 L40.30238625741701,49.87215278640258 L40.29421611059149,50.00965522876135 L40.28062107049676,50.14936941803883 L40.26163388877518,50.29095877051553 L40.23730030721062,50.434082185039564 L40.207678947532415,50.578394864769216 L40.17284117019057,50.72354914781872 L40.13287090244213,50.86919534480621 L40.08786443616307,51.01498258128602 L40.037930195872775,51.16055964303603 L39.983188477529815,51.30557582216343 L39.92377115872849,51.4496817619908 L39.85982138099414,51.592530298686896 L39.791493204942654,51.733777297614765 L39.718951239134995,51.87308248238221 L39.64237024352071,52.01011025459744 L39.56193470842594,52.14453050235497 L39.47783841010005,52.27601939550413 L39.39028394389167,52.40426016578425 L39.29948223617876,52.52894386994717 L39.20565203622849,52.64977013402855 L39.10901938921111,52.7664478769751 L39.00981709163729,52.87869601188429 L38.90828413053098,52.98624412316734 L38.804665107688734,53.08883311800408 L38.69920965041252,53.18621585052021 L38.59217181013573,53.27815771718338 L38.483809450391,53.36443722198364 L38.374383625594376,53.44484651003673 L38.264157952142355,53.51919186832472 L38.15339797333692,53.5872941923676 L38.04237051966846,53.648989417701685 " />
			<path d="M1611.991625357852,876.683255701005 L1611.988899786895,876.8182151410177 L1611.9807296400695,876.9557175833764 L1611.9671345999748,877.0954317726539 L1611.9481474182533,877.2370211251306 L1611.9238138366886,877.3801445396547 L1611.8941924770104,877.5244572193843 L1611.8593546996685,877.6696115024338 L1611.81938443192,877.8152576994213 L1611.7743779656412,877.9610449359011 L1611.7244437253507,878.1066219976511 L1611.6697020070078,878.2516381767786 L1611.6102846882065,878.3957441166059 L1611.546334910472,878.538592653302 L1611.4780067344207,878.6798396522298 L1611.405464768613,878.8191448369973 L1611.3288837729988,878.9561726092126 L1611.2484482379039,879.09059285697 L1611.164351939578,879.2220817501193 L1611.0767974733697,879.3503225203993 L1610.9859957656568,879.4750062245623 L1610.8921655657066,879.5958324886436 L1610.795532918689,879.7125102315902 L1610.6963306211153,879.8247583664994 L1610.594797660009,879.9323064777825 L1610.4911786371667,880.0348954726192 L1610.3857231798904,880.1322782051353 L1610.2786853396137,880.2242200717985 L1610.170322979869,880.3104995765988 L1610.0608971550723,880.3909088646518 L1609.9506714816205,880.4652542229398 L1609.8399115028149,880.5333565469828 L1609.7288840491465,880.5950517723168 " />
			<path d="M15.697800086768796,65.40563881108525 L38.042370519668445,53.648989417701706 " />
			<path d="M1587.3843136162466,892.3517011657003 L1609.7288840491462,880.5950517723169 " />
			<path d="M1872.4894672600965,669.3794927684767 L1872.4894672600965,739.6217402647899 " />
			<path d="M1874.7522089598933,741.1524429947337 L1874.650585241122,741.2031666842589 L1874.5491666076139,741.2482962977454 L1874.4481577307533,741.2877407598146 L1874.3477624550003,741.3214204682043 L1874.2481833865165,741.3492674544135 L1874.1496214842878,741.3712255208675 L1874.052275654573,741.3872503543301 L1873.9563423494928,741.3973096153318 L1873.862015170575,741.4013830034324 L1873.7694844780476,741.3994622981903 L1873.6789370066779,741.391551375751 L1873.5905554889246,741.3776662010255 L1873.504518286169,741.3578347954711 L1873.4209990287663,741.3320971805425 L1873.3401662656452,741.3005052969243 L1873.2621831241609,741.2631228997107 " />
			<path d="M1873.2621831241609,741.2631228997107 L1873.2173789741782,741.2382676315432 L1873.1736627005205,741.2114227297984 L1873.1310652889638,741.1826072219474 L1873.089616932244,741.1518415322123 L1873.0493470086544,741.1191474670901 L1873.0102840612242,741.0845481998964 L1872.9724557774857,741.0480682543398 L1872.9358889698512,741.0097334871405 L1872.9006095566085,740.9695710697022 L1872.866642543548,740.9276094688543 L1872.8340120062423,740.8838784266741 L1872.8027410729783,740.838408939406 L1872.772851908366,740.7912332354919 L1872.7443656976277,740.7423847527272 L1872.7173026315825,740.691898114561 L1872.6916818923344,740.6398091055552 L1872.6448389982218,740.5309727658465 L1872.6039697993665,740.4161842485455 L1872.5691901463993,740.2957689410467 L1872.5405986281073,740.1700681808298 L1872.5182762919665,740.0394382878807 L1872.5022864144005,739.9042495546428 L1872.4926743214114,739.7648851963601 L1872.4894672600963,739.6217402647899 " />
			<path d="M1872.4894672600963,669.3794927684766 L1872.4924004200418,669.2394357186307 L1872.5011922954511,669.0966551994846 L1872.5158200927574,668.9515213797584 L1872.536245888349,668.804410529273 L1872.562416726888,668.6557040434426 L1872.5942647586012,668.5057874544806 L1872.6317074151862,668.3550494318794 L1872.674647623874,668.2038807747568 " />
			<path d="M327.6532581390161,-172.05514472798384 L327.6620114710154,-171.9697940744609 L327.66827078616984,-171.88283069339835 L327.6720291508618,-171.79435091655415 L327.67328240184617,-171.70445275544017 " />
			<path d="M1898.7132994108242,653.6776215271107 L1898.7880671449595,653.7346477607188 L1898.8588673586448,653.7980023143945 L1898.925533964273,653.8675365670293 L1898.9879105711157,653.9430874007879 L1899.045850852194,654.0244775837588 L1899.0992188875423,654.1115161857172 L1899.1478894830566,654.2039990260205 L1899.1917484641842,654.3017091525885 L1899.2306929437607,654.4044173508433 L1899.2646315633697,654.5118826814152 L1899.2934847076565,654.6238530453531 L1899.3171846910952,654.7400657755147 L1899.3356759167698,654.8602482527476 L1899.348915006797,654.984118545416 L1899.356870904084,655.1113860707743 L1899.3595249451855,655.2417522766339 " />
			<path d="M327.67328240184617,-171.70445275544017 L327.67328240184617,-101.46220525912686 " />
			<path d="M1899.3595249451853,655.2417522766339 L1899.3595249451853,725.4839997729471 " />
			<path d="M327.67328240184617,-101.46220525912688 L327.6705568303724,-101.32724581934409 L327.66238668209144,-101.18974337771154 L327.64879163960615,-101.05002918965494 L327.62980445456463,-100.90843983889081 L327.6054708687588,-100.76531642656693 L327.57584950392817,-100.62100374951969 L327.54101172053515,-100.47584946962841 L327.5010414458514,-100.33020327626737 L327.4560349717696,-100.18441604387347 L327.4061007228279,-100.03883898665899 L327.35135899500574,-99.8938228125058 L327.2919416659202,-99.74971687807938 L327.22799187712144,-99.60686834719793 L327.15966368925206,-99.46562135448441 L327.0871217109014,-99.32631617631603 L327.01054070204924,-99.18928841106869 L326.9301051530536,-99.05486817063108 L326.84600884019744,-98.92337928513626 L326.7584543588643,-98.79513852282645 L326.6676526354686,-98.6704548269306 L326.57382241931526,-98.54962857139313 L326.4771897556136,-98.43295083724676 L326.3779874409145,-98.32070271137282 L326.27645446228314,-98.21315460933832 L326.17283542155826,-98.11056562394114 L326.067379946085,-98.01318290103285 L325.9603420873405,-97.92124104412265 L325.8519797089019,-97.83496154919699 L325.7425538652304,-97.75455227111635 L325.63232817276776,-97.68020692287465 L325.5215681748619,-97.61210460892767 L325.4105407020492,-97.55040939371477 " />
			<path d="M1899.3595249451855,725.4839997729471 L1899.3567993737115,725.6189592127299 L1899.3486292254306,725.7564616543624 L1899.3350341829453,725.8961758424191 L1899.3160469979039,726.0377651931832 L1899.291713412098,726.1808886055071 L1899.2620920472675,726.3252012825543 L1899.2272542638743,726.4703555624455 L1899.1872839891907,726.6160017558066 L1899.1422775151088,726.7617889882005 L1899.092343266167,726.907366045415 L1899.037601538345,727.0523822195681 L1898.9781842092593,727.1964881539946 L1898.9142344204606,727.339336684876 L1898.8459062325912,727.4805836775896 L1898.7733642542405,727.619888855758 L1898.6967832453884,727.7569166210053 L1898.616347696393,727.8913368614429 L1898.5322513835367,728.0228257469377 L1898.4446969022035,728.1510665092476 L1898.3538951788078,728.2757502051434 L1898.2600649626545,728.3965764606809 L1898.1634322989528,728.5132541948273 L1898.0642299842536,728.6255023207011 L1897.9626970056224,728.7330504227357 L1897.8590779648976,728.8356394081328 L1897.7536224894243,728.9330221310412 L1897.6465846306796,729.0249639879513 L1897.5382222522412,729.111243482877 L1897.4287964085695,729.1916527609576 L1897.318570716107,729.2659981091994 L1897.2078107182012,729.3341004231463 L1897.0967832453885,729.3957956383592 " />
			<path d="M303.06596641655426,-85.79376203734024 L325.41054070204916,-97.55040939371473 " />
			<path d="M1874.7522089598933,741.1524429947337 L1897.0967832453885,729.3957956383592 " />
			<path d="M2159.8576631343094,518.1800786662429 L2159.8576631343094,588.4223261625561 " />
			<path d="M2162.1204048341065,589.9530288925 L2162.018781115335,590.0037525820252 L2161.9173624818272,590.0488821955116 L2161.8163536049665,590.0883266575809 L2161.715958329213,590.1220063659706 L2161.6163792607294,590.1498533521798 L2161.517817358501,590.1718114186338 L2161.420471528786,590.1878362520964 L2161.324538223706,590.197895513098 L2161.230211044788,590.2019689011987 L2161.1376803522608,590.2000481959566 L2161.047132880891,590.1921372735172 L2160.9587513631377,590.1782520987917 L2160.872714160382,590.1584206932374 L2160.7891949029795,590.1326830783088 L2160.7083621398583,590.1010911946905 L2160.630378998374,590.0637087974769 " />
			<path d="M2160.630378998374,590.0637087974769 L2160.5855748483914,590.0388535293094 L2160.5418585747334,590.0120086275647 L2160.499261163177,589.9831931197136 L2160.4578128064572,589.9524274299786 L2160.4175428828676,589.9197333648564 L2160.378479935437,589.8851340976627 L2160.340651651699,589.8486541521061 L2160.3040848440646,589.8103193849067 L2160.2688054308214,589.7701569674684 L2160.2348384177612,589.7281953666205 L2160.2022078804557,589.6844643244403 L2160.1709369471914,589.6389948371723 L2160.141047782579,589.5918191332581 L2160.1125615718406,589.5429706504934 L2160.0854985057954,589.4924840123273 L2160.0598777665473,589.4403950033214 L2160.0130348724347,589.3315586636128 L2159.9721656735796,589.2167701463118 L2159.9373860206124,589.096354838813 L2159.9087945023202,588.9706540785961 L2159.88647216618,588.8400241856469 L2159.8704822886134,588.704835452409 L2159.8608701956246,588.5654710941263 L2159.8576631343094,588.4223261625561 " />
			<path d="M2159.8576631343094,518.1800786662429 L2159.8588472430433,518.0914308938623 L2159.862398329939,518.0016298586171 L2159.8683126783794,517.910769547541 L2159.8765840983237,517.8189450563208 L2159.8872039327866,517.7262524897677 L2159.9001610668993,517.632788861233 L2159.9154419395422,517.5386519910722 L2159.933030557537,517.443940404265 L2159.952908512388,517.348753227298 L2159.975054999547,517.2531900844167 L2159.999446840186,517.1573509933581 L2160.0260585054607,517.0613362606706 L2160.0548621432254,516.9652463767313 L2160.0858276071854,516.8691819105719 L2160.118922488448,516.7732434046216 L2160.154112149443,516.6775312694774 " />
			<path d="M615.021454013229,-323.2545588302175 L615.0302073452283,-323.16920817669455 L615.0364666603828,-323.082244795632 L615.0402250250747,-322.9937650187878 L615.041478276059,-322.90386685767385 " />
			<path d="M2186.457110019265,502.8942468447357 L2186.4892904194867,502.95190081066625 L2186.5195406486832,503.01172968373373 L2186.547831863407,503.0736764173973 L2186.5741370881224,503.13768194574624 L2186.5984312409246,503.2036852398191 L2186.620691157457,503.2716233657945 L2186.6408956129962,503.34143154499816 L2186.6590253426925,503.41304321566923 L2186.675063059936,503.4863900964263 L2186.6889934728406,503.5614022513737 L2186.7008032988256,503.63800815678474 L2186.710481277279,503.71613476929946 L2186.7180181802946,503.795707595571 L2186.7234068214725,503.8766507632947 L2186.7266420627693,503.95888709355205 L2186.727720819398,504.04233817440013 " />
			<path d="M615.041478276059,-322.9038668576738 L615.041478276059,-252.66161936136047 " />
			<path d="M2186.727720819398,504.0423381744002 L2186.727720819398,574.2845856707135 " />
			<path d="M615.041478276059,-252.66161936136055 L615.0387527045852,-252.52665992157776 L615.0305825563042,-252.38915747994523 L615.016987513819,-252.2494432918886 L614.9980003287775,-252.1078539411245 L614.9736667429717,-251.9647305288006 L614.944045378141,-251.82041785175338 L614.9092075947481,-251.6752635718621 L614.8692373200643,-251.52961737850106 L614.8242308459825,-251.38383014610713 L614.7742965970408,-251.23825308889266 L614.7195548692185,-251.0932369147395 L614.6601375401331,-250.94913098031304 L614.5961877513344,-250.80628244943162 L614.5278595634649,-250.66503545671807 L614.4553175851142,-250.5257302785497 L614.3787365762621,-250.38870251330235 L614.2983010272665,-250.25428227286477 L614.2142047144102,-250.12279338736994 L614.1266502330772,-249.99455262506012 L614.0358485096814,-249.86986892916428 L613.9420182935281,-249.7490426736268 L613.8453856298265,-249.63236493948042 L613.7461833151274,-249.5201168136065 L613.6446503364959,-249.412568711572 L613.5410312957712,-249.30997972617482 L613.4355758202978,-249.21259700326652 L613.3285379615534,-249.1206551463563 L613.2201755831148,-249.03437565143068 L613.1107497394432,-248.95396637335003 L613.0005240469807,-248.87962102510832 L612.8897640490748,-248.81151871116134 L612.7787365762621,-248.74982349594845 " />
			<path d="M2186.727720819398,574.2845856707133 L2186.724995247924,574.4195451104962 L2186.7168250996433,574.5570475521287 L2186.703230057158,574.6967617401854 L2186.6842428721166,574.8383510909495 L2186.6599092863107,574.9814745032734 L2186.63028792148,575.1257871803206 L2186.595450138087,575.2709414602118 L2186.5554798634034,575.4165876535728 L2186.5104733893213,575.5623748859667 L2186.4605391403798,575.7079519431812 L2186.4057974125576,575.8529681173344 L2186.346380083472,575.9970740517608 L2186.2824302946733,576.1399225826423 L2186.214102106804,576.2811695753559 L2186.1415601284534,576.4204747535242 L2186.064979119601,576.5575025187716 L2185.9845435706056,576.6919227592092 L2185.9004472577494,576.8234116447039 L2185.812892776416,576.9516524070139 L2185.7220910530204,577.0763361029096 L2185.6282608368674,577.1971623584471 L2185.5316281731657,577.3138400925935 L2185.4324258584666,577.4260882184674 L2185.330892879835,577.533636320502 L2185.2272738391102,577.6362253058991 L2185.121818363637,577.7336080288075 L2185.0147805048923,577.8255498857176 L2184.906418126454,577.9118293806432 L2184.7969922827824,577.9922386587239 L2184.6867665903196,578.0665840069656 L2184.5760065924137,578.1346863209126 L2184.464979119601,578.1963815361255 " />
			<path d="M590.4341622907672,-236.99317613957393 L612.7787365762621,-248.7498234959484 " />
			<path d="M2162.1204048341065,589.9530288925001 L2184.464979119601,578.1963815361256 " />
			<path d="M2447.225859008522,366.98066456400926 L2447.225859008522,437.2229120603226 " />
			<path d="M2449.488600708319,438.7536147902664 L2449.3869769895477,438.80433847979157 L2449.28555835604,438.84946809327806 L2449.184549479179,438.88891255534725 L2449.084154203426,438.92259226373704 L2448.984575134942,438.95043924994616 L2448.8860132327136,438.97239731640013 L2448.7886674029987,438.98842214986286 L2448.6927340979187,438.9984814108645 L2448.598406919001,439.00255479896515 L2448.5058762264734,439.00063409372297 L2448.4153287551035,438.99272317128367 L2448.3269472373504,438.9788379965581 L2448.240910034595,438.9590065910038 L2448.157390777192,438.9332689760751 L2448.076558014071,438.90167709245685 L2447.9985748725867,438.8642946952433 " />
			<path d="M2447.9985748725867,438.86429469524325 L2447.953770722604,438.83943942707583 L2447.910054448946,438.8125945253311 L2447.8674570373896,438.7837790174801 L2447.82600868067,438.75301332774495 L2447.7857387570803,438.7203192626228 L2447.74667580965,438.68571999542905 L2447.7088475259116,438.6492400498725 L2447.6722807182773,438.61090528267306 L2447.637001305034,438.5707428652348 L2447.603034291974,438.5287812643869 L2447.5704037546684,438.4850502222067 L2447.539132821404,438.43958073493866 L2447.5092436567916,438.3924050310245 L2447.4807574460533,438.34355654825976 L2447.453694380008,438.29306991009366 L2447.42807364076,438.2409809010878 L2447.3812307466474,438.13214456137916 L2447.3403615477923,438.01735604407816 L2447.305581894825,437.8969407365794 L2447.276990376533,437.77123997636244 L2447.2546680403925,437.6406100834134 L2447.238678162826,437.50542135017537 L2447.2290660698372,437.3660569918927 L2447.225859008522,437.2229120603225 " />
			<path d="M2447.225859008522,366.98066456400926 L2447.2271780266547,366.8870679485649 L2447.2311335432632,366.79219244487854 L2447.237720946776,366.69614866434665 L2447.2469325572138,366.5990485804111 L2447.2587576351443,366.5010053980137 L2447.2731823942013,366.40213342161564 L2447.290190017159,366.3025479219345 L2447.309760675539,366.2023650015548 " />
			<path d="M902.3896498874418,-474.4539729324512 L902.3984032194411,-474.3686222789283 L902.4046625345956,-474.28165889786567 L902.4084208992875,-474.19317912102144 L902.4096741502718,-474.10328095990747 " />
			<path d="M2474.024736150411,352.2031962682969 L2474.041351664283,352.2776302033835 L2474.0557851285566,352.35379920386134 L2474.0680222805445,352.43162800195887 L2474.078051027884,352.5110396897458 L2474.085861460488,352.5919557951308 L2474.091445860336,352.67429635940505 L2474.094798709103,352.7579800162552 L2474.095916693611,352.8429240721665 " />
			<path d="M902.4096741502718,-474.10328095990747 L902.4096741502718,-403.86103346359414 " />
			<path d="M2474.095916693611,352.8429240721665 L2474.095916693611,423.08517156847984 " />
			<path d="M902.4096741502718,-403.8610334635942 L902.406948578798,-403.7260740238114 L902.398778430517,-403.5885715821788 L902.3851833880318,-403.44885739412223 L902.3661962029903,-403.3072680433581 L902.3418626171845,-403.1641446310342 L902.3122412523538,-403.01983195398697 L902.2774034689609,-402.8746776740957 L902.2374331942771,-402.72903148073465 L902.1924267201953,-402.58324424834075 L902.1424924712536,-402.43766719112625 L902.0877507434313,-402.2926510169731 L902.0283334143459,-402.14854508254666 L901.9643836255472,-402.0056965516652 L901.8960554376777,-401.8644495589517 L901.823513459327,-401.7251443807833 L901.7469324504749,-401.58811661553597 L901.6664969014793,-401.4536963750984 L901.582400588623,-401.32220748960356 L901.49484610729,-401.19396672729374 L901.4040443838942,-401.0692830313979 L901.3102141677409,-400.9484567758604 L901.2135815040393,-400.83177904171407 L901.1143791893402,-400.7195309158401 L901.0128462107087,-400.6119828138056 L900.909227169984,-400.5093938284084 L900.8037716945106,-400.41201110550014 L900.6967338357662,-400.32006924858996 L900.5883714573276,-400.23378975366427 L900.478945613656,-400.1533804755837 L900.3687199211935,-400.0790351273419 L900.2579599232876,-400.01093281339496 L900.1469324504749,-399.94923759818204 " />
			<path d="M2474.095916693611,423.0851715684798 L2474.093191122137,423.22013100826257 L2474.085020973856,423.35763344989516 L2474.071425931371,423.49734763795175 L2474.0524387463292,423.6389369887159 L2474.0281051605234,423.78206040103976 L2473.9984837956927,423.926373078087 L2473.9636460122997,424.07152735797825 L2473.923675737616,424.21717355133933 L2473.878669263534,424.36296078373323 L2473.8287350145924,424.5085378409477 L2473.7739932867703,424.6535540151009 L2473.7145759576847,424.7976599495273 L2473.650626168886,424.94050848040877 L2473.582297981017,425.08175547312226 L2473.509756002666,425.22106065129066 L2473.4331749938137,425.358088416538 L2473.3527394448183,425.4925086569756 L2473.268643131962,425.6239975424704 L2473.1810886506287,425.75223830478024 L2473.090286927233,425.8769220006761 L2472.99645671108,425.9977482562136 L2472.8998240473784,426.1144259903599 L2472.8006217326792,426.2266741162339 L2472.699088754048,426.3342222182684 L2472.595469713323,426.43681120366557 L2472.4900142378497,426.53419392657383 L2472.382976379105,426.626135783484 L2472.2746140006666,426.7124152784097 L2472.165188156995,426.7928245564903 L2472.0549624645323,426.86716990473207 L2471.9442024666264,426.935272218679 L2471.833174993814,426.99696743389194 " />
			<path d="M877.80235816498,-388.1925902418076 L900.1469324504749,-399.9492375981821 " />
			<path d="M2449.488600708319,438.7536147902664 L2471.833174993814,426.9969674338919 " />
			<path d="M2743.6447116699032,211.01922518043943 L2743.644711667536,281.2614726779982 " />
			<path d="M2745.907453711583,282.7921755892772 L2745.8058299666977,282.84289927568756 L2745.704411307172,282.88802888489255 L2745.6034024044843,282.927473341503 L2745.503007103191,282.9611530432511 L2745.4034280095466,282.98900002163475 L2745.3048660826307,283.0109580790835 L2745.2075202287933,283.0269829023701 L2745.111586900245,283.0370421520385 L2745.0172596986017,283.0411155276674 L2744.924728984177,283.03919480883843 L2744.8341814918217,283.03128387172546 L2744.7457999540748,283.0173986812724 L2744.659762732396,282.9975672589743 L2744.5762434572143,282.9718296263278 L2744.49541067753,282.9402377240643 L2744.417427520766,282.90285530732893 " />
			<path d="M2744.417427520766,282.90285530732893 L2744.3726233709185,282.87800003219985 L2744.3289070974547,282.85115512398283 L2744.286309686146,282.82233961015015 L2744.244861329722,282.7915739149247 L2744.2045914064706,282.7588798448035 L2744.165528459416,282.72428057310145 L2744.127700176085,282.6878006235262 L2744.091133368886,282.64946585279597 L2744.0558539561002,282.60930343231246 L2744.021886943515,282.56734182890204 L2743.9892564066963,282.5236107846386 L2743.9579854739286,282.4781412957625 L2743.9280963098163,282.43096559071097 L2743.8996100995782,282.38211710727444 L2743.8725470340296,282.33163046889644 L2743.8469262952704,282.27954146013246 L2743.8000834020986,282.1707051222415 L2743.7592142041135,282.0559166084859 L2743.7244345519234,281.935501306193 L2743.695843034295,281.809800552767 L2743.6735206986887,281.67917066811174 L2743.6575308215147,281.5439819445814 L2743.6479187287664,281.40461759732494 L2743.644711667536,281.26147267799826 " />
			<path d="M2743.6447116699032,211.01922518043938 L2743.646306651476,210.91622922164674 " />
			<path d="M1198.8087458581524,-630.4155356261011 L1198.8174991717035,-630.3301850619298 L1198.8237584736496,-630.2432217743947 L1198.827516830403,-630.1547420949322 L1198.8287700787373,-630.0648440347244 " />
			<path d="M2770.5144659718244,196.83678916259097 L2770.5147734440566,196.88148684137724 " />
			<path d="M1198.828770078737,-630.0648440347244 L1198.8287700763701,-559.8225965371656 " />
			<path d="M2770.5147734440566,196.88148684137707 L2770.514773441689,267.12373433893583 " />
			<path d="M1198.8287700763701,-559.8225965371656 L1198.826044504477,-559.6876370975988 L1198.8178743549483,-559.5501346566184 L1198.8042793103896,-559.4104204696487 L1198.7852921224542,-559.2688311204034 L1198.760958532941,-559.1257077100269 L1198.7313371635983,-558.9813950353505 L1198.6964993748993,-558.8362407582481 L1198.6565290941287,-558.6905945680872 L1198.6115226131938,-558.544807339297 L1198.561588356649,-558.3992302860811 L1198.5068466204925,-558.2542141163116 L1198.447429282361,-558.1101081866436 L1198.3834794838267,-557.9672596608838 L1198.3151512855557,-557.8260126736427 L1198.2426092961623,-557.6867075012844 L1198.1660282756527,-557.549679742171 L1198.0855927144135,-557.4152595081761 L1198.0014963887566,-557.2837706294173 L1197.9139418940968,-557.1555298741207 L1197.8231401568803,-557.0308461854984 L1197.7293099264455,-556.9100199374772 L1197.632677248036,-556.7933422110717 L1197.5334749182384,-556.6810940931446 L1197.4319419241542,-556.5735459992437 L1197.328322867659,-556.4709570221474 L1197.2228673761363,-556.3735743076874 L1197.1158295011014,-556.2816324593522 L1197.0074671061714,-556.1953529731078 L1196.8980412458468,-556.1149437037938 L1196.7878155366095,-556.0405983643828 L1196.677055521848,-555.9724960593096 L1196.5660280321392,-555.910800852992 " />
			<path d="M2770.514773441689,267.1237343389359 L2770.5120478697963,267.2586937785027 L2770.5038777202676,267.396196219483 L2770.490282675709,267.53591040645273 L2770.4712954877737,267.67749975569797 L2770.4469618982603,267.8206231660746 L2770.4173405289175,267.9649358407509 L2770.3825027402186,268.1100901178533 L2770.342532459448,268.2557363080142 L2770.297525978513,268.40152353680446 L2770.2475917219685,268.5471005900204 L2770.192849985812,268.6921167597898 L2770.1334326476804,268.8362226894579 L2770.069482849146,268.9790712152177 L2770.001154650875,269.12031820245875 L2769.9286126614816,269.259623374817 L2769.852031640972,269.3966511339305 L2769.7715960797327,269.5310713679254 L2769.687499754076,269.6625602466841 L2769.599945259416,269.7908010019807 L2769.5091435221993,269.9154846906031 L2769.415313291765,270.0363109386243 L2769.3186806133554,270.1529886650298 L2769.2194782835577,270.2652367829569 L2769.1179452894735,270.3727848768577 L2769.0143262329784,270.47537385395395 L2768.9088707414553,270.5727565684141 L2768.8018328664207,270.6646984167493 L2768.693470471491,270.7509779029936 L2768.584044611166,270.83138717230764 L2768.473818901929,270.9057325117186 L2768.3630588871674,270.97383481679185 L2768.2520313974583,271.03553002310946 " />
			<path d="M1174.2214503462644,-544.1541552868243 L1196.5660280321392,-555.910800852992 " />
			<path d="M2745.9074537115835,282.7921755892771 L2768.252031397458,271.03553002310946 " />
			<path d="M1198.0561209596085,-558.1812512018438 L1172.2050771198242,-544.579667106513 " />
			<path d="M971.5074349533728,-438.98215721175075 L875.7859843627642,-388.61810351998076 " />
			<path d="M684.1392390791601,-287.78274310951724 L588.4177884885513,-237.41868941774712 " />
			<path d="M396.7710432049472,-136.58332900728357 L301.04959261433834,-86.21927531551344 " />
			<path d="M109.40288673596959,14.61606436179811 L13.681425506371491,64.98012365129603 " />
			<path d="M1585.8942881821079,892.4623812828588 L1585.1946718767958,892.094276737928 " />
			<path d="M1611.2189094567198,804.7996255740516 L1610.77200090001,804.5644837260924 " />
			<path d="M1873.262183124161,741.2631228997108 L1802.5607764459987,704.0634208470134 " />
			<path d="M2160.630378998374,590.063708797477 L2090.5125615072384,553.1710634908693 " />
			<path d="M2447.9985748725867,438.8642946952434 L2378.464346568477,402.2787061347252 " />
			<path d="M2744.4174275207665,282.902855307329 L2675.4851810804325,246.6339898018623 " />

       </g>

       <!-- solid lines -->
       <g  stroke="rgb(0,0,0)" fill="none">
			<path d="M13.435028842544401,-49.737208843106835 L13.435028842544401,63.874949334949555 " />
			<path d="M1198.828836823673,-673.434792014821 L1198.828836823673,-631.2996252610075 " />
			<path d="M11.17228714274745,65.40565206489343 L11.273910861518827,65.45637575441859 L11.375329495026833,65.5015053679051 L11.476338371887511,65.54094982997427 L11.57673364764049,65.57462953836409 L11.676312716124357,65.6024765245732 L11.774874618353026,65.62443459102717 L11.872220448067987,65.64045942448989 L11.968153753147957,65.65051868549152 L12.062480932065888,65.65459207359217 L12.155011624593232,65.65267136835001 L12.24555909596298,65.64476044591072 L12.333940613716237,65.63087527118516 L12.419977816471777,65.61104386563083 L12.503497073874398,65.58530625070217 L12.584329836995682,65.55371436708391 L12.662312978479978,65.51633196987032 " />
			<path d="M12.662312978479985,65.51633196987032 L12.707117128462553,65.4914767017029 L12.750833402120403,65.46463179995816 L12.793430813676899,65.43581629210709 L12.834879170396718,65.405050602372 L12.875149093986238,65.37235653724984 L12.914212041416672,65.33775727005609 L12.952040325155144,65.30127732449954 L12.988607132789426,65.26294255730011 L13.023886546032363,65.22278013986185 L13.057853559092585,65.18081853901396 L13.090484096398418,65.13708749683377 L13.121755029662474,65.09161800956574 L13.15164419427482,65.04444230565154 L13.180130405013085,64.99559382288683 L13.207193471058392,64.9451071847207 L13.232814210306477,64.89301817571487 L13.279657104419103,64.78418183600623 L13.320526303274365,64.66939331870519 L13.35530595624147,64.5489780112064 L13.383897474533562,64.4232772509895 L13.406219810674244,64.29264735804041 L13.422209688240319,64.15745862480243 L13.431821781229456,64.01809426651978 L13.435028842544401,63.87494933494957 " />
			<path d="M13.435028842544401,-49.737208843106835 L13.432303271070614,-49.87216828288963 L13.424133122789662,-50.009670724522174 L13.410538080304375,-50.14938491257878 L13.391550895262887,-50.2909742633429 L13.36721730945704,-50.43409767566679 L13.337595944626415,-50.57841035271402 L13.302758161233411,-50.723564632605296 L13.262787886549653,-50.86921082596634 L13.217781412467835,-51.014998058360256 L13.167847163526124,-51.16057511557473 L13.113105435703943,-51.30559128972791 L13.053688106618424,-51.449697224154335 L12.989738317819679,-51.592545755035786 L12.921410129950264,-51.73379274774931 L12.848868151599596,-51.87309792591769 L12.77228714274745,-52.01012569116503 L12.691851593751856,-52.144545931602636 L12.607755280895667,-52.276034817097454 L12.52020079956252,-52.40427557940727 L12.429399076166813,-52.52895927530312 L12.335568860013499,-52.64978553084059 L12.238936196311844,-52.76646326498695 L12.139733881612731,-52.87871139086089 L12.038200902981366,-52.9862594928954 L11.93458186225651,-53.08884847829258 L11.829126386783223,-53.18623120120087 L11.722088528038732,-53.278173058111065 L11.61372614960016,-53.36445255303672 L11.504300305928588,-53.444861831117365 L11.394074613465996,-53.51920717935907 L11.283314615560155,-53.58730949330606 L11.17228714274747,-53.649004708518945 " />
			<path d="M1198.828836823673,-673.434792014821 L1198.826111252199,-673.5697514546039 L1198.8179411039182,-673.7072538962364 L1198.8043460614329,-673.8469680842929 L1198.7853588763915,-673.9885574350571 L1198.7610252905856,-674.1316808473811 L1198.731403925755,-674.2759935244283 L1198.696566142362,-674.4211478043195 L1198.6565958676783,-674.5667939976805 L1198.6115893935964,-674.7125812300744 L1198.5616551446547,-674.8581582872889 L1198.5069134168325,-675.0031744614421 L1198.447496087747,-675.1472803958685 L1198.3835462989482,-675.29012892675 L1198.3152181110788,-675.4313759194636 L1198.242676132728,-675.5706810976319 L1198.166095123876,-675.7077088628793 L1198.0856595748805,-675.8421291033169 L1198.0015632620243,-675.9736179888116 L1197.9140087806911,-676.1018587511215 L1197.8232070572953,-676.2265424470173 L1197.729376841142,-676.3473687025548 L1197.6327441774404,-676.4640464367012 L1197.5335418627412,-676.5762945625751 L1197.43200888411,-676.6838426646096 L1197.3283898433851,-676.7864316500068 L1197.2229343679119,-676.8838143729151 L1197.1158965091672,-676.9757562298253 L1197.0075341307288,-677.0620357247509 L1196.898108287057,-677.1424450028316 L1196.7878825945945,-677.2167903510733 L1196.6771225966888,-677.2848926650203 L1196.566095123876,-677.3465878802332 " />
			<path d="M11.172287142747452,-53.64900470851896 L-11.172287142747452,-65.40565206489343 " />
			<path d="M1196.5660951238763,-677.3465878802331 L1174.2215208383811,-689.1032352366076 " />
			<path d="M-11.17228714274745,-65.40565206489343 L-11.273910861518827,-65.45637575441859 L-11.375329495026834,-65.5015053679051 L-11.476338371887513,-65.54094982997427 L-11.576733647640491,-65.57462953836409 L-11.676312716124357,-65.6024765245732 L-11.774874618353028,-65.62443459102717 L-11.87222044806799,-65.64045942448989 L-11.96815375314796,-65.65051868549152 L-12.06248093206589,-65.65459207359218 L-12.155011624593232,-65.65267136835001 L-12.245559095962983,-65.64476044591072 L-12.33394061371624,-65.63087527118516 L-12.419977816471778,-65.61104386563083 L-12.5034970738744,-65.58530625070217 L-12.584329836995682,-65.55371436708391 L-12.662312978479973,-65.51633196987032 " />
			<path d="M-12.662312978479987,-65.51633196987032 L-12.707117128462553,-65.4914767017029 L-12.750833402120405,-65.46463179995816 L-12.7934308136769,-65.43581629210709 L-12.834879170396718,-65.405050602372 L-12.87514909398624,-65.37235653724984 L-12.914212041416672,-65.33775727005609 L-12.952040325155146,-65.30127732449952 L-12.988607132789426,-65.26294255730011 L-13.023886546032365,-65.22278013986185 L-13.057853559092587,-65.18081853901396 L-13.09048409639842,-65.13708749683377 L-13.121755029662475,-65.09161800956574 L-13.15164419427482,-65.04444230565154 L-13.180130405013085,-64.99559382288683 L-13.207193471058394,-64.9451071847207 L-13.23281421030648,-64.89301817571487 L-13.279657104419103,-64.78418183600623 L-13.320526303274365,-64.66939331870519 L-13.35530595624147,-64.5489780112064 L-13.383897474533562,-64.42327725098949 L-13.406219810674244,-64.29264735804041 L-13.422209688240317,-64.15745862480242 L-13.431821781229456,-64.01809426651978 L-13.435028842544401,-63.874949334949555 " />
			<path d="M1174.2215208383811,-689.1032352366076 L1174.1198971196097,-689.1539589261328 L1174.0184784861017,-689.1990885396192 L1173.9174696092412,-689.2385330016884 L1173.817074333488,-689.2722127100782 L1173.7174952650041,-689.3000596962873 L1173.6189333627756,-689.3220177627413 L1173.5215875330607,-689.338042596204 L1173.4256542279807,-689.3481018572056 L1173.3313270490628,-689.3521752453063 L1173.2387963565354,-689.3502545400642 L1173.1482488851657,-689.3423436176248 L1173.0598673674124,-689.3284584428993 L1172.9738301646569,-689.308627037345 L1172.8903109072542,-689.2828894224164 L1172.809478144133,-689.2512975387981 L1172.7314950026487,-689.2139151415845 " />
			<path d="M1172.7314950026487,-689.2139151415845 L1172.6565188593793,-689.1708176716162 L1172.5847010225264,-689.1220921032344 L1172.5161864265613,-689.067836768759 L1172.4511133397361,-689.0081611600458 L1172.3896130850462,-688.9431857075225 L1172.3318097752094,-688.8730415371502 L1172.2778200621958,-688.7978702058001 L1172.2277529018152,-688.7178234155795 L1172.181709333833,-688.6330627076841 L1172.1397822780655,-688.5437591363944 L1172.1020563468592,-688.4500929238739 L1172.0686076743352,-688.3522530964648 L1172.039503762745,-688.2504371032177 L1172.0148033462447,-688.1448504174222 L1171.9945562723651,-688.0357061219441 L1171.9788034014143,-687.9232244792073 " />
			<path d="M-13.435028842544401,-63.874949334949555 L-13.435028842544401,49.737208843106835 " />
			<path d="M-13.435028842544401,49.737208843106835 L-13.432303271070614,49.87216828288963 L-13.424133122789662,50.009670724522174 L-13.410538080304375,50.14938491257878 L-13.391550895262887,50.2909742633429 L-13.36721730945704,50.43409767566679 L-13.337595944626415,50.57841035271402 L-13.302758161233411,50.7235646326053 L-13.262787886549653,50.86921082596634 L-13.217781412467836,51.01499805836025 L-13.167847163526124,51.16057511557473 L-13.113105435703943,51.30559128972791 L-13.053688106618424,51.449697224154335 L-12.989738317819679,51.592545755035786 L-12.921410129950262,51.73379274774931 L-12.848868151599595,51.87309792591769 L-12.77228714274745,52.01012569116503 L-12.691851593751858,52.14454593160263 L-12.607755280895669,52.276034817097454 L-12.520200799562522,52.40427557940727 L-12.429399076166813,52.52895927530312 L-12.335568860013499,52.64978553084059 L-12.238936196311846,52.76646326498695 L-12.139733881612731,52.87871139086089 L-12.038200902981366,52.9862594928954 L-11.93458186225651,53.08884847829258 L-11.829126386783223,53.18623120120087 L-11.72208852803873,53.27817305811107 L-11.61372614960016,53.36445255303672 L-11.50430030592859,53.444861831117365 L-11.394074613465998,53.51920717935907 L-11.283314615560156,53.58730949330606 L-11.17228714274746,53.64900470851895 " />
			<path d="M11.172287142747452,65.40565206489343 L-11.172287142747452,53.64900470851896 " />
			<path d="M1611.2813426220596,833.627329933655 L1611.4751972259323,904.0258671926159 " />
			<path d="M2797.8736239600557,211.82980742961226 L2798.0674785639285,282.22834468857326 " />
			<path d="M1609.222268131565,905.5729026460034 L1609.3230444419937,905.6228138596798 L1609.4236053822324,905.6672014868103 L1609.523750947243,905.705977245115 L1609.623281958124,905.7390640137255 L1609.7220004582575,905.7663959865705 L1609.8197101070232,905.7879188032565 L1609.9162165702985,905.8035896571851 L1610.01132790697,905.8133773806909 L1610.1048549506825,905.8172625070307 L1610.1966116860713,905.8152373091003 L1610.286415618727,905.8073058148036 L1610.3740881381582,905.7934837990409 L1610.4594548730277,905.7737987523349 L1610.542346037959,905.7482898261544 L1610.622596771222,905.7170077550464 L1610.7000474626248,905.6800147557307 " />
			<path d="M1610.7000474626248,905.6800147557307 L1610.7451537887296,905.6550820872241 L1610.7891620528128,905.628133608651 L1610.832040678857,905.5991886555987 L1610.873758901362,905.568267996129 L1610.91428678742,905.5353938158769 L1610.9535952581912,905.5005897021324 L1610.9916561097696,905.4638806269169 L1611.0284420334178,905.4252929290652 L1611.0639266351623,905.3848542953277 L1611.0980844547298,905.3425937405051 L1611.130890983817,905.29854158663 L1611.1623226836734,905.2527294412109 L1611.1923570019915,905.2051901745538 L1611.2209723890876,905.1559578961776 L1611.2481483133647,905.1050679303406 L1611.2738652760422,905.0525567906951 L1611.3208495687581,904.9428228335317 L1611.3617904461269,904.8270709055306 L1611.39657042858,904.7056331560613 L1611.4250897151942,904.5788580499193 L1611.4472664700706,904.4471093674088 L1611.4630370571626,904.3107651604773 L1611.4723562228774,904.1702166678989 L1611.4751972259323,904.0258671926161 " />
			<path d="M2795.814549469561,283.77538014196074 L2795.9153257799894,283.82529135563726 L2796.0158867202285,283.8696789827677 L2796.116032285239,283.9084547410724 L2796.21556329612,283.94154150968296 L2796.3142817962535,283.96887348252795 L2796.411991445019,283.9903962992139 L2796.5084979082944,284.0060671531425 L2796.603609244966,284.01585487664835 L2796.6971362886784,284.0197400029881 L2796.788893024067,284.01771480505766 L2796.878696956723,284.00978331076095 L2796.966369476154,283.9959612949983 L2797.0517362110236,283.9762762482923 L2797.134627375955,283.9507673221118 L2797.214878109218,283.91948525100383 L2797.2923288006205,283.88249225168806 " />
			<path d="M2797.2923288006205,283.88249225168806 L2797.3374351267257,283.85755958318146 L2797.3814433908087,283.83061110460835 L2797.424322016853,283.8016661515561 L2797.466040239358,283.7707454920864 L2797.506568125416,283.7378713118342 L2797.545876596187,283.7030671980898 L2797.5839374477655,283.66635812287427 L2797.620723371414,283.62777042502256 L2797.656207973158,283.5873317912851 L2797.690365792726,283.54507123646255 L2797.723172321813,283.5010190825874 L2797.7546040216694,283.45520693716827 L2797.7846383399874,283.40766767051116 L2797.8132537270835,283.358435392135 L2797.8404296513604,283.307545426298 L2797.8661466140384,283.2550342866525 L2797.913130906754,283.1453003294891 L2797.954071784123,283.029548401488 L2797.988851766576,282.90811065201865 L2798.01737105319,282.7813355458767 L2798.039547808067,282.6495868633661 L2798.0553183951583,282.5132426564347 L2798.064637560873,282.3726941638563 L2798.0674785639285,282.2283446885735 " />
			<path d="M1611.2813426220596,833.6273299336551 L1611.278251320626,833.4920857786639 L1611.269721870384,833.3543240681223 L1611.2557748195268,833.2143766820578 L1611.2364437677213,833.0725807659812 L1611.2117752851643,832.9292779186742 L1611.1818288003913,832.7848133692479 L1611.1466764571069,832.6395351454553 L1611.1064029403851,832.4937932352625 L1611.0611052726554,832.3479387436967 L1611.0108925799668,832.2023230470032 L1610.955885829094,832.05729694615 L1610.8962175361182,831.9132098217168 L1610.8320314471832,831.7704087922067 L1610.7634821921993,831.6292378778079 L1610.6907349123262,831.4900371716183 L1610.613964862133,831.3531420203315 L1610.5333569873944,831.2188822163577 L1610.4491054795415,831.0875812033242 L1610.3614133078363,830.9595552968724 L1610.2704917304013,830.8351129226244 L1610.1765597852802,830.7145538731596 L1610.0798437627564,830.5981685857881 L1609.9805766601994,830.4862374428612 L1609.878997620754,830.3790300963062 L1609.7753513572236,830.2768048180112 L1609.6698875625355,830.1798078776256 L1609.5628603082082,830.0882729492746 L1609.4545274322725,830.0024205486183 L1609.3451499181147,829.9224575016093 L1609.234991265747,829.8485764462321 L1609.124316857012,829.7809553684202 L1609.013393316254,829.7197571732729 " />
			<path d="M2797.8736239600557,211.82980742961234 L2797.870532658622,211.6945632746211 L2797.86200320838,211.55680156407962 L2797.848056157523,211.4168541780151 L2797.8287251057172,211.27505826193848 L2797.8040566231602,211.13175541463153 L2797.774110138387,210.98729086520515 L2797.738957795103,210.8420126414126 L2797.6986842783813,210.6962707312198 L2797.6533866106515,210.55041623965394 L2797.6031739179625,210.40480054296052 L2797.54816716709,210.2597744421073 L2797.488498874114,210.11568731767403 L2797.424312785179,209.972886288164 L2797.3557635301954,209.83171537376523 L2797.283016250322,209.69251466757555 L2797.2062462001286,209.5556195162888 L2797.1256383253904,209.42135971231494 L2797.0413868175374,209.29005869928156 L2796.9536946458325,209.16203279282968 L2796.862773068397,209.03759041858166 L2796.768841123276,208.91703136911696 L2796.672125100752,208.8006460817454 L2796.572857998195,208.6887149388185 L2796.4712789587497,208.5815075922635 L2796.3676326952195,208.47928231396855 L2796.2621689005314,208.38228537358293 L2796.1551416462044,208.29075044523194 L2796.0468087702684,208.2048980445755 L2795.937431256111,208.12493499756658 L2795.827272603743,208.05105394218936 L2795.716598195008,207.98343286437748 L2795.60567465425,207.92223466923025 " />
			<path d="M1609.0133933162542,829.7197571732729 L1586.6915562154004,818.0646042199858 " />
			<path d="M2795.60567465425,207.92223466923028 L2773.2838375533956,196.2670817159432 " />
			<path d="M1586.6915562154002,818.0646042199858 L1586.5907799049714,818.0146930063094 L1586.4902189647328,817.9703053791789 L1586.3900733997223,817.9315296208741 L1586.2905423888412,817.8984428522637 L1586.1918238887076,817.8711108794187 L1586.094114239942,817.8495880627327 L1585.9976077766667,817.8339172088041 L1585.902496439995,817.8241294852983 L1585.8089693962827,817.8202443589585 L1585.717212660894,817.8222695568888 L1585.6274087282382,817.8302010511856 L1585.539736208807,817.8440230669482 L1585.4543694739375,817.8637081136543 L1585.371478309006,817.8892170398348 L1585.291227575743,817.9204991109427 L1585.2137768843404,817.9574921102585 " />
			<path d="M1585.2137768843404,817.9574921102585 L1585.1686705582356,817.9824247787651 L1585.1246622941524,818.0093732573382 L1585.081783668108,818.0383182103905 L1585.0400654456032,818.0692388698602 L1584.9995375595452,818.1021130501123 L1584.960229088774,818.1369171638568 L1584.9221682371956,818.1736262390723 L1584.8853823135473,818.212213936924 L1584.849897711803,818.2526525706614 L1584.8157398922353,818.2949131254841 L1584.7829333631482,818.3389652793592 L1584.7515016632917,818.3847774247782 L1584.7214673449737,818.4323166914354 L1584.6928519578776,818.4815489698116 L1584.6656760336004,818.5324389356485 L1584.639959070923,818.584950075294 L1584.592974778207,818.6946840324574 L1584.5520339008383,818.8104359604586 L1584.5172539183852,818.9318737099279 L1584.488734631771,819.0586488160699 L1584.4665578768945,819.1903974985804 L1584.4507872898025,819.3267417055118 L1584.4414681240878,819.4672901980903 L1584.4386271210328,819.611639673373 " />
			<path d="M2773.283837553396,196.26708171594322 L2773.1830612429676,196.21717050226673 L2773.0825003027285,196.17278287513622 L2772.982354737718,196.13400711683158 L2772.882823726837,196.100920348221 L2772.7841052267036,196.07358837537603 L2772.686395577938,196.05206555869006 L2772.5898891146626,196.03639470476145 L2772.494777777991,196.0266069812556 L2772.4012507342786,196.0227218549159 L2772.30949399889,196.02474705284627 L2772.219690066234,196.032678547143 L2772.132017546803,196.04650056290563 L2772.0466508119334,196.06618560961164 L2771.963759647002,196.0916945357922 L2771.883508913739,196.12297660690015 L2771.8060582223366,196.15996960621587 " />
			<path d="M2771.8060582223366,196.15996960621587 L2771.731561614,196.2025999585895 L2771.660167254578,196.25078287677422 L2771.592017139875,196.30442253005913 L2771.5272468132366,196.3634122348662 L2771.465985095969,196.42763466693273 L2771.408353831126,196.49696209465688 L2771.3544676411784,196.5712566331421 L2771.3044337000383,196.65037051843572 L2771.258351519906,196.7341464014157 L2771.2163127533463,196.82241766074134 L2771.178401011005,196.91500873424545 L2771.1446916953146,197.0117354681089 L2771.1152518505264,197.11240548312296 L2771.090140029368,197.21681855731117 L2771.0694061765857,197.32476702414962 L2771.0530915296135,197.43603618559357 " />
			<path d="M1584.6324817249053,890.0101769323339 L1584.635573026339,890.1454210873252 L1584.6441024765809,890.2831827978667 L1584.6580495274382,890.4231301839312 L1584.6773805792436,890.5649261000078 L1584.7020490618006,890.7082289473149 L1584.7319955465737,890.8526934967412 L1584.767147889858,890.9979717205338 L1584.8074214065798,891.1437136307266 L1584.8527190743096,891.2895681222924 L1584.902931766998,891.4351838189858 L1584.9579385178708,891.580209919839 L1585.0176068108467,891.7242970442722 L1585.0817928997817,891.8670980737824 L1585.1503421547657,892.0082689881812 L1585.2230894346387,892.1474696943708 L1585.299859484832,892.2843648456576 L1585.3804673595705,892.4186246496314 L1585.4647188674235,892.5499256626648 L1585.5524110391286,892.6779515691167 L1585.6433326165636,892.8023939433647 L1585.7372645616847,892.9229529928294 L1585.8339805842086,893.0393382802009 L1585.9332476867655,893.1512694231278 L1586.034826726211,893.2584767696828 L1586.1384729897413,893.3607020479778 L1586.2439367844295,893.4576989883634 L1586.3509640387567,893.5492339167145 L1586.4592969146925,893.6350863173708 L1586.5686744288503,893.7150493643798 L1586.6788330812178,893.788930419757 L1586.789507489953,893.8565514975688 L1586.900431030711,893.9177496927161 " />
			<path d="M1609.2222681315645,905.5729026460033 L1586.9004310307107,893.9177496927161 " />
			<path d="M13.435058751497394,-6.367311198709782 L13.4350587761529,63.87493628780055 " />
			<path d="M1585.1215722809752,820.5787511559054 L1585.1215723056307,890.8209986424156 " />
			<path d="M15.697800086768797,65.40563881108527 L15.596176397541601,65.45636250419909 L15.494757793467675,65.50149212259215 L15.393748945823116,65.54093659089746 L15.293353698961079,65.57461630685921 L15.193774658936706,65.60246330197691 L15.095212784631068,65.6244213786714 L14.997866982199238,65.64044622369644 L14.90193370366093,65.6505054975665 L14.807606550443792,65.65457889982052 L14.715075882679443,65.65265820999004 L14.624528435040704,65.64474730418873 L14.536146939895318,65.63086214729012 L14.450109758536666,65.61103076070907 L14.366590521235656,65.58529316585226 L14.28575777684024,65.55370130335163 L14.20777465262966,65.51631892824372 " />
			<path d="M14.207774652629652,65.51631892824372 L14.162970502506266,65.49146366797389 L14.119254228639697,65.46461877357355 L14.076656816812925,65.43580327251229 L14.035208459767496,65.40503758901167 L13.994938535803128,65.3723435295686 L13.95587558795458,65.33774426749913 L13.918047303760552,65.30126432651333 L13.881480495638954,65.26292956333309 L13.846201081882462,65.22276714936497 L13.812234068287806,65.18080555144145 L13.779603530431851,65.1370745116437 L13.748332596606993,65.09160502622069 L13.718443431427989,65.04442932361924 L13.689957220121848,64.99558084164072 L13.662894153511875,64.94509420374061 L13.637273413706577,64.89300519448759 L13.590430518517742,64.78416885277568 L13.54956131866151,64.66938033151658 L13.51478166479465,64.54896501818118 L13.486190145726265,64.42326425033377 L13.463867808951136,64.29263434805316 L13.4478779309069,64.15744560388299 L13.438265837606293,64.01808123317507 L13.435058776152896,63.87493628780057 " />
			<path d="M13.435058751497392,-6.367311198709781 L13.437784322454375,-6.502270638722417 L13.445954469279895,-6.63977308108119 L13.459549509374629,-6.7794872703586675 L13.478536691096204,-6.921076622835363 L13.50287027266077,-7.064200037359397 L13.53249163233897,-7.208512717089052 L13.567329409680816,-7.353667000138559 L13.607299677429259,-7.499313197126041 L13.652306143708312,-7.645100433605853 L13.702240383998609,-7.790677495355861 L13.756982102341567,-7.935693674483266 L13.816399421142892,-8.079799614310636 L13.880349198877246,-8.222648151006732 L13.948677374928728,-8.3638951499346 L14.02121934073639,-8.503200334702045 L14.097800336350677,-8.640228106917274 L14.178235871445446,-8.774648354674802 L14.262332169771339,-8.90613724782396 L14.349886635979718,-9.034378018104082 L14.440688343692628,-9.159061722267003 L14.534518543642893,-9.279887986348388 L14.631151190660276,-9.396565729294934 L14.730353488234098,-9.50881386420412 L14.831886449340404,-9.616361975487175 L14.935505472182655,-9.718950970323917 L15.040960929458866,-9.816333702840046 L15.147998769735654,-9.908275569503214 L15.256361129480386,-9.994555074303474 L15.365786954277011,-10.074964362356567 L15.476012627729029,-10.149309720644554 L15.58677260653446,-10.217412044687432 L15.697800060202919,-10.279107270021516 " />
			<path d="M1586.6397447933095,817.2102570852948 L1586.7299291909799,817.1275433922926 L1586.8212629759291,817.0488004158684 L1586.9135857257963,816.9741664633771 L1587.0067352811623,816.9037726249173 L1587.1005480303727,816.8377425430798 L1587.194859196913,816.7761921957764 L1587.2895031288283,816.7192296925313 L1587.3843135896811,816.6669550845937 " />
			<path d="M15.697800060202942,-10.279107270021534 L38.04237049310259,-22.03575666340509 " />
			<path d="M1587.3843135896811,816.6669550845936 L1609.7288840225808,804.9103056912102 " />
			<path d="M38.04237049310259,-22.03575666340509 L38.143994182329784,-22.086480356518912 L38.245412786403705,-22.131609974911978 L38.34642163404826,-22.171054443217283 L38.446816880910305,-22.204734159179047 L38.54639592093468,-22.23258115429673 L38.644957795240316,-22.25453923099123 L38.74230359767215,-22.270564076016274 L38.83823687621045,-22.280623349886323 L38.932564029427596,-22.28469675214034 L39.02509469719194,-22.28277606230986 L39.11564214483068,-22.27486515650856 L39.204023639976064,-22.260979999609944 L39.29006082133472,-22.241148613028898 L39.37358005863573,-22.215411018172098 L39.45441280303114,-22.18381915567145 L39.532395927241716,-22.14643678056355 " />
			<path d="M39.53239592724173,-22.14643678056354 L39.607372054761555,-22.103339333626582 L39.67918987745699,-22.054613789134596 L39.747704460919294,-22.000358479335993 L39.81277753695441,-21.94068289601084 L39.87427778261982,-21.87570746950723 L39.93208108524533,-21.805563325702693 L39.986070792902815,-21.730392021381164 L40.03613794981969,-21.650345258559465 L40.08218151626078,-21.565584578339884 L40.124108572435034,-21.476281034906634 L40.16183450601547,-21.382614850324114 L40.195283182893945,-21.284775050833623 L40.22438710082626,-21.182959085382507 L40.2490875256573,-21.077372427155552 L40.26933460985154,-20.96822815891283 L40.28508749308952,-20.855746542970756 " />
			<path d="M1609.7288840225808,804.91030569121 L1609.8386777683202,804.8557428286539 L1609.9482128602706,804.8077192669908 L1610.0572312539805,804.7663481408645 L1610.1654761222453,804.7317269130089 L1610.2726924601425,804.7039371446439 L1610.3786276857775,804.6830443033324 L1610.48303223532,804.6690976087507 L1610.5856601509295,804.6621299167359 " />
			<path d="M300.8032247167573,-157.56671226359742 L300.8032247167573,-87.32446476728414 " />
			<path d="M303.06596641655426,-85.79376203734027 L302.9643426977829,-85.74303834781512 L302.86292406427486,-85.6979087343286 L302.7619151874142,-85.65846427225944 L302.66151991166123,-85.62478456386961 L302.56194084317735,-85.5969375776605 L302.4633789409487,-85.57497951120654 L302.3660331112337,-85.55895467774381 L302.2700998061538,-85.54889541674218 L302.1757726272358,-85.54482202864153 L302.0832419347085,-85.54674273388369 L301.99269446333875,-85.55465365632298 L301.90431294558545,-85.56853883104854 L301.81827574282994,-85.58837023660287 L301.73475648542734,-85.61410785153153 L301.65392372230605,-85.64569973514979 L301.57594058082174,-85.68308213236338 " />
			<path d="M301.57594058082174,-85.68308213236338 L301.5311364308392,-85.70793740053081 L301.4874201571813,-85.73478230227555 L301.44482274562483,-85.76359781012661 L301.403374388905,-85.7943634998617 L301.3631044653155,-85.82705756498386 L301.32404151788506,-85.86165683217762 L301.28621323414654,-85.89813677773417 L301.2496464265123,-85.9364715449336 L301.21436701326934,-85.97663396237185 L301.18040000020915,-86.01859556321975 L301.1477694629033,-86.06232660539993 L301.1164985296392,-86.10779609266797 L301.0866093650269,-86.15497179658216 L301.05812315428864,-86.20382027934687 L301.0310600882433,-86.254306917513 L301.00543934899525,-86.30639592651883 L300.9585964548826,-86.41523226622748 L300.9177272560273,-86.53002078352851 L300.88294760306025,-86.6504360910273 L300.85435608476814,-86.7761368512442 L300.83203374862745,-86.90676674419329 L300.81604387106137,-87.04195547743129 L300.80643177807224,-87.18131983571392 L300.8032247167573,-87.32446476728414 " />
			<path d="M300.8032247167573,-157.56671226359745 L300.8059502882311,-157.70167170338024 L300.81412043651204,-157.83917414501278 L300.82771547899733,-157.9788883330694 L300.84670266403884,-158.1204776838335 L300.8710362498447,-158.2636010961574 L300.9006576146753,-158.40791377320463 L300.9354953980683,-158.5530680530959 L300.9754656727521,-158.69871424645694 L301.02047214683387,-158.84450147885087 L301.0704063957756,-158.99007853606534 L301.1251481235978,-159.1350947102185 L301.1845654526833,-159.27920064464496 L301.24851524148204,-159.42204917552638 L301.3168434293514,-159.56329616823993 L301.3893854077021,-159.7026013464083 L301.46596641655424,-159.83962911165565 L301.5464019655499,-159.97404935209323 L301.63049827840604,-160.10553823758806 L301.7180527597392,-160.23377899989788 L301.8088544831349,-160.35846269579375 L301.9026846992882,-160.4792889513312 L301.99931736298987,-160.59596668547758 L302.09851967768896,-160.7082148113515 L302.20005265632034,-160.815762913386 L302.3036716970452,-160.9183518987832 L302.4091271725185,-161.01573462169148 L302.516165031263,-161.1076764786017 L302.62452740970156,-161.19395597352732 L302.7339532533731,-161.27436525160797 L302.8441789458357,-161.34871059984968 L302.9549389437416,-161.41681291379666 L303.06596641655426,-161.47850812900955 " />
			<path d="M1872.674647623874,668.2038807747568 L1872.7086076694231,668.0959063088467 L1872.7452686669867,667.9880548103101 L1872.7845821630845,667.8804688224718 L1872.826496198527,667.7732905377409 L1872.8709553770882,667.6666616096803 L1872.9179009387215,667.5607229657886 L1872.9672708372193,667.4556146212415 L1873.0189998222183,667.3514754938387 L1873.0730195254382,667.2484432204018 L1873.129258551041,667.1466539748643 L1873.187642569993,667.0462422882961 L1873.248094418302,666.9473408710983 L1873.3105341990026,666.8500804376051 L1873.3748793877535,666.7545895333234 L1873.4410449419051,666.660994365039 L1873.5089434128995,666.5694186340137 L1873.578485061846,666.479983372494 L1873.6495779781274,666.3928067837475 L1873.7221282008732,666.3080040858372 L1873.7960398431453,666.2256873593434 L1873.8712152186686,666.1459653992296 L1873.9475549709373,666.0689435710531 L1874.024958204533,665.994723671707 L1874.1033226184738,665.9234037948788 L1874.1825446414202,665.8550782014041 L1874.2625195685637,665.7898371946851 L1874.3431417000097,665.7277670013401 L1874.424304480478,665.6689496572411 L1874.5059006401325,665.6134628990899 L1874.587822336356,665.5613800616762 L1874.6699612962818,665.5127699809542 L1874.7522089598933,665.4676969030644 " />
			<path d="M303.06596641655426,-161.47850812900955 L325.41054070204916,-173.235155485384 " />
			<path d="M1874.7522089598933,665.4676969030645 L1897.0967832453885,653.71104954669 " />
			<path d="M325.4105407020492,-173.23515548538404 L325.51216442082057,-173.2858791749092 L325.6135830543286,-173.3310087883957 L325.71459193118926,-173.3704532504649 L325.81498720694225,-173.40413295885472 L325.9145662754261,-173.43197994506383 L326.0131281776548,-173.45393801151778 L326.11047400736976,-173.46996284498053 L326.20640731244976,-173.48002210598213 L326.3007344913677,-173.4840954940828 L326.393265183895,-173.48217478884064 L326.4838126552647,-173.47426386640134 L326.57219417301803,-173.46037869167577 L326.65823137577354,-173.44054728612147 L326.7417506331762,-173.4148096711928 L326.82258339629743,-173.38321778757455 L326.90056653778174,-173.34583539036095 " />
			<path d="M326.90056653778174,-173.34583539036095 L326.975542681051,-173.3027379203927 L327.047360517904,-173.25401235201093 L327.11587511386915,-173.19975701753552 L327.18094820069433,-173.14008140882225 L327.2424484553842,-173.07510595629896 L327.300251765221,-173.00496178592672 L327.3542414782344,-172.92979045457665 L327.4043086386153,-172.84974366435597 L327.4503522065975,-172.76498295646053 L327.49227926236483,-172.67567938517092 L327.5300051935712,-172.58201317265036 L327.5634538660952,-172.48417334524135 L327.5925577776854,-172.38235735199424 L327.6172581941856,-172.27677066619864 L327.63750526806524,-172.16762637072068 L327.6532581390161,-172.05514472798384 " />
			<path d="M1897.0967832453885,653.71104954669 L1897.1984069641599,653.6603258571648 L1897.299825597668,653.6151962436784 L1897.4008344745284,653.5757517816091 L1897.5012297502815,653.5420720732194 L1897.6008088187655,653.5142250870102 L1897.699370720994,653.4922670205563 L1897.7967165507089,653.4762421870936 L1897.892649855789,653.466182926092 L1897.9869770347068,653.4621095379913 L1898.0795077272342,653.4640302432334 L1898.170055198604,653.4719411656728 L1898.2584367163572,653.4858263403983 L1898.3444739191127,653.5056577459526 L1898.4279931765154,653.5313953608812 L1898.5088259396366,653.5629872444995 L1898.586809081121,653.6003696417131 " />
			<path d="M1898.586809081121,653.6003696417131 L1898.651204473089,653.636927089505 L1898.7132994108242,653.6776215271107 " />
			<path d="M588.1714205909702,-308.7661263658311 L588.1714205909702,-238.52387886951777 " />
			<path d="M590.4341622907673,-236.99317613957396 L590.3325385719959,-236.9424524500488 L590.231119938488,-236.8973228365623 L590.1301110616272,-236.8578783744931 L590.0297157858743,-236.82419866610329 L589.9301367173904,-236.79635167989417 L589.8315748151617,-236.77439361344022 L589.7342289854467,-236.75836877997747 L589.6382956803668,-236.74830951897587 L589.5439685014488,-236.7442361308752 L589.4514378089215,-236.74615683611736 L589.3608903375517,-236.75406775855666 L589.2725088197985,-236.76795293328223 L589.1864716170429,-236.78778433883653 L589.1029523596403,-236.8135219537652 L589.022119596519,-236.84511383738345 L588.9441364550347,-236.88249623459706 " />
			<path d="M588.9441364550347,-236.88249623459706 L588.8993323050522,-236.90735150276447 L588.8556160313943,-236.93419640450924 L588.8130186198379,-236.9630119123603 L588.7715702631181,-236.99377760209538 L588.7313003395285,-237.02647166721752 L588.692237392098,-237.06107093441128 L588.6544091083596,-237.09755087996786 L588.6178423007253,-237.13588564716727 L588.5825628874824,-237.17604806460554 L588.5485958744222,-237.21800966545342 L588.5159653371163,-237.2617407076336 L588.4846944038522,-237.30721019490164 L588.4548052392399,-237.35438589881582 L588.4263190285017,-237.40323438158055 L588.3992559624563,-237.4537210197467 L588.3736352232082,-237.5058100287525 L588.3267923290956,-237.61464636846114 L588.2859231302403,-237.7294348857622 L588.2511434772732,-237.84985019326098 L588.2225519589812,-237.9755509534779 L588.2002296228405,-238.10618084642698 L588.1842397452745,-238.24136957966496 L588.1746276522853,-238.38073393794758 L588.1714205909703,-238.5238788695178 " />
			<path d="M588.1714205909703,-308.7661263658311 L588.1741461624441,-308.9010858056139 L588.1823163107251,-309.0385882472465 L588.1959113532104,-309.17830243530307 L588.2148985382519,-309.3198917860672 L588.2392321240577,-309.4630151983911 L588.2688534888883,-309.60732787543833 L588.3036912722813,-309.7524821553296 L588.3436615469651,-309.89812834869065 L588.3886680210469,-310.04391558108455 L588.4386022699886,-310.18949263829904 L588.4933439978108,-310.3345088124522 L588.5527613268963,-310.47861474687863 L588.616711115695,-310.6214632777601 L588.6850393035645,-310.7627102704736 L588.7575812819151,-310.902015448642 L588.8341622907673,-311.03904321388933 L588.9145978397629,-311.1734634543269 L588.9986941526191,-311.30495233982174 L589.0862486339522,-311.43319310213155 L589.177050357348,-311.5578767980274 L589.2708805735012,-311.6787030535649 L589.3675132372028,-311.7953807877112 L589.466715551902,-311.9076289135852 L589.5682485305334,-312.0151770156197 L589.6718675712582,-312.1177660010169 L589.7773230467316,-312.21514872392515 L589.884360905476,-312.30709058083534 L589.9927232839145,-312.393370075761 L590.1021491275861,-312.4737793538416 L590.2123748200487,-312.5481247020834 L590.3231348179546,-312.61622701603034 L590.4341622907673,-312.67792223124326 " />
			<path d="M2160.154112149443,516.6775312694773 L2160.1920201790404,516.5805035617591 L2160.2320167153343,516.4839188459697 L2160.2740584407047,516.3878817266677 L2160.318099822521,516.2924962153462 L2160.3640931624577,516.1978656177841 L2160.41198864815,516.104092422163 L2160.4617344071444,516.0112781880689 L2160.513276563079,515.9195234364993 L2160.5665592940327,515.828927540996 L2160.6215248929793,515.73958862002 L2160.6781138302913,515.6516034306857 L2160.73626481821,515.5650672639697 L2160.795914877221,515.4800738415074 L2160.856999404266,515.3967152140895 L2160.9194522427074,515.3150816619673 L2160.98320575398,515.2352615970767 L2161.0481908908455,515.1573414672845 L2161.1143372721726,515.0814056627628 L2161.181573259162,515.0075364245914 L2161.2498260329357,514.9358137556878 L2161.3190216733983,514.8663153341615 L2161.3890852393,514.7991164291857 L2161.459940849396,514.7342898194786 L2161.5315117646314,514.6719057144808 L2161.6037204712516,514.6120316783172 L2161.6764887647514,514.5547325566214 L2161.749737834574,514.500070406307 L2161.8233883494654,514.4481044283567 L2161.897360543393,514.3988909037064 L2161.971574301934,514.3524831322906 L2162.0459492490445,514.3089313753167 L2162.1204048341065,514.2682828008308 " />
			<path d="M590.4341622907672,-312.6779222312432 L612.7787365762621,-324.4345695876177 " />
			<path d="M2162.1204048341065,514.2682828008308 L2184.464979119601,502.51163544445626 " />
			<path d="M612.7787365762621,-324.4345695876177 L612.8803602950335,-324.4852932771429 L612.9817789285414,-324.5304228906294 L613.0827878054022,-324.56986735269857 L613.1831830811551,-324.60354706108836 L613.282762149639,-324.6313940472975 L613.3813240518676,-324.65335211375145 L613.4786698815826,-324.6693769472142 L613.5746031866626,-324.6794362082158 L613.6689303655805,-324.68350959631647 L613.7614610581079,-324.6815888910743 L613.8520085294776,-324.673677968635 L613.9403900472308,-324.65979279390945 L614.0264272499865,-324.6399613883551 L614.109946507389,-324.61422377342643 L614.1907792705103,-324.58263188980817 L614.2687624119945,-324.5452494925946 " />
			<path d="M614.2687624119947,-324.54524949259456 L614.3437385552638,-324.5021520226264 L614.4155563921169,-324.4534264542446 L614.484070988082,-324.39917111976916 L614.5491440749072,-324.3394955110559 L614.6106443295971,-324.27452005853263 L614.6684476394339,-324.20437588816037 L614.7224373524473,-324.1292045568103 L614.7725045128282,-324.04915776658964 L614.8185480808104,-323.9643970586942 L614.8604751365777,-323.87509348740457 L614.898201067784,-323.78142727488404 L614.931649740308,-323.68358744747496 L614.9607536518982,-323.5817714542279 L614.9854540683984,-323.4761847684323 L615.0057011422781,-323.36704047295433 L615.021454013229,-323.2545588302175 " />
			<path d="M2184.464979119601,502.51163544445626 L2184.5666028383725,502.4609117549311 L2184.6680214718804,502.4157821414446 L2184.769030348741,502.3763376793754 L2184.8694256244944,502.3426579709856 L2184.969004692978,502.3148109847765 L2185.0675665952067,502.2928529183225 L2185.1649124249216,502.2768280848598 L2185.2608457300016,502.2667688238582 L2185.3551729089195,502.2626954357575 L2185.447703601447,502.2646161409997 L2185.538251072817,502.272527063439 L2185.62663259057,502.28641223816453 L2185.7126697933254,502.30624364371886 L2185.796189050728,502.33198125864755 L2185.8770218138493,502.3635731422658 L2185.9550049553336,502.40095553947936 " />
			<path d="M2185.9550049553336,502.4009555394794 L2186.029668974715,502.4438578374242 L2186.101202100875,502.4923408869808 L2186.1694611983676,502.5463076751527 L2186.2343096829713,502.605650216162 L2186.29561779499,502.6702497675252 L2186.353262858896,502.7399770676529 L2186.4071295288027,502.8146925944982 L2186.457110019265,502.8942468447357 " />
			<path d="M875.539616465183,-459.9655404680647 L875.539616465183,-389.7232929717514 " />
			<path d="M877.80235816498,-388.1925902418076 L877.7007344462086,-388.1418665522824 L877.5993158127006,-388.0967369387959 L877.4983069358399,-388.05729247672673 L877.397911660087,-388.02361276833693 L877.2983325916031,-387.9957657821278 L877.1997706893744,-387.97380771567384 L877.1024248596594,-387.9577828822111 L877.0064915545795,-387.9477236212095 L876.9121643756615,-387.9436502331088 L876.8196336831342,-387.945570938351 L876.7290862117644,-387.9534818607903 L876.6407046940112,-387.96736703551585 L876.5546674912556,-387.9871984410702 L876.471148233853,-388.01293605599886 L876.3903154707317,-388.0445279396171 L876.3123323292474,-388.0819103368307 " />
			<path d="M876.3123323292474,-388.08191033683073 L876.2675281792649,-388.10676560499815 L876.223811905607,-388.13361050674285 L876.1812144940506,-388.1624260145939 L876.1397661373308,-388.193191704329 L876.0994962137412,-388.22588576945117 L876.0604332663107,-388.2604850366449 L876.0226049825723,-388.2969649822015 L875.986038174938,-388.3352997494009 L875.950758761695,-388.37546216683916 L875.9167917486349,-388.41742376768707 L875.884161211329,-388.46115480986725 L875.8528902780649,-388.5066242971353 L875.8230011134526,-388.55380000104947 L875.7945149027144,-388.6026484838142 L875.767451836669,-388.6531351219803 L875.7418310974209,-388.70522413098615 L875.6949882033083,-388.8140604706948 L875.654119004453,-388.9288489879958 L875.6193393514859,-389.0492642954946 L875.5907478331939,-389.17496505571154 L875.5684254970532,-389.3055949486606 L875.5524356194871,-389.4407836818986 L875.542823526498,-389.58014804018126 L875.539616465183,-389.72329297175145 " />
			<path d="M875.539616465183,-459.9655404680647 L875.5423420366568,-460.1004999078475 L875.5505121849378,-460.2380023494801 L875.564107227423,-460.3777165375367 L875.5830944124646,-460.51930588830083 L875.6074279982704,-460.6624293006247 L875.637049363101,-460.80674197767195 L875.671887146494,-460.9518962575632 L875.7118574211778,-461.09754245092427 L875.7568638952596,-461.24332968331817 L875.8067981442013,-461.38890674053266 L875.8615398720235,-461.53392291468583 L875.920957201109,-461.67802884911225 L875.9849069899077,-461.8208773799937 L876.0532351777772,-461.9621243727072 L876.1257771561278,-462.1014295508756 L876.20235816498,-462.23845731612295 L876.2827937139756,-462.3728775565605 L876.3668900268318,-462.50436644205536 L876.4544445081649,-462.6326072043652 L876.5452462315607,-462.757290900261 L876.6390764477139,-462.8781171557985 L876.7357091114155,-462.99479488994484 L876.8349114261147,-463.1070430158188 L876.9364444047461,-463.21459111785333 L877.0400634454709,-463.3171801032505 L877.1455189209443,-463.4145628261588 L877.2525567796887,-463.50650468306895 L877.3609191581272,-463.59278417799464 L877.4703450017988,-463.67319345607524 L877.5805706942614,-463.747538804317 L877.6913306921673,-463.81564111826395 L877.80235816498,-463.8773363334769 " />
			<path d="M2447.309760675539,366.20236500155477 L2447.336299520959,366.0827770256621 L2447.3663770559187,365.962707876664 L2447.3999438286696,365.84235496533375 L2447.436944650658,365.7219161689903 L2447.477318687266,365.6015895061596 L2447.52099955783,365.4815728110044 L2447.5679154447803,365.3620634080563 L2447.61798921172,365.2432577877864 L2447.671138530249,365.1253512835467 L2447.727276015321,365.0085377504147 L2447.786309368919,364.89300924646767 L2447.8481415318065,364.77895571701197 L2447.912670843105,364.666564682286 L2447.979791207442,364.55602092915007 L2448.049392269382,364.4475062072707 L2448.1213595948725,364.34119893029805 L2448.1955748593855,364.2372738825287 L2448.271916042461,364.13590193153533 L2448.3502576283263,364.03724974723605 L2448.4304708122622,363.9414795278653 L2448.5124237123764,363.84874873329693 L2448.595981586434,363.7592098261578 L2448.681007053395,363.6730100211575 L2448.7673603192893,363.5902910430462 L2448.8548994070543,363.51118889359935 L2448.943480389968,363.43583362801104 L2449.0329576282847,363.364349141065 L2449.123184008688,363.29685296343393 L2449.214011186163,363.23345606844214 L2449.305289827902,363.1742626896097 L2449.3968698588233,363.11937014927787 L2449.488600708319,363.0688686985971 " />
			<path d="M877.80235816498,-463.8773363334769 L900.1469324504749,-475.6339836898514 " />
			<path d="M2449.488600708319,363.0688686985971 L2471.833174993814,351.3122213422226 " />
			<path d="M900.1469324504749,-475.63398368985133 L900.2485561692463,-475.6847073793765 L900.3499748027542,-475.729836992863 L900.450983679615,-475.7692814549322 L900.5513789553679,-475.802961163322 L900.6509580238518,-475.8308081495311 L900.7495199260804,-475.85276621598507 L900.8468657557954,-475.8687910494478 L900.9427990608754,-475.8788503104494 L901.0371262397933,-475.8829236985501 L901.1296569323207,-475.8810029933079 L901.2202044036904,-475.8730920708686 L901.3085859214436,-475.85920689614306 L901.3946231241993,-475.83937549058874 L901.4781423816019,-475.81363787566005 L901.5589751447231,-475.7820459920418 L901.6369582862073,-475.74466359482824 " />
			<path d="M901.6369582862075,-475.7446635948282 L901.7119344294766,-475.70156612486 L901.7837522663297,-475.6528405564782 L901.8522668622948,-475.5985852220028 L901.91733994912,-475.53890961328955 L901.9788402038099,-475.47393416076625 L902.0366435136466,-475.40378999039405 L902.0906332266601,-475.32861865904397 L902.140700387041,-475.24857186882326 L902.1867439550231,-475.1638111609279 L902.2286710107904,-475.07450758963824 L902.2663969419968,-474.9808413771177 L902.2998456145208,-474.8830015497087 L902.328949526111,-474.7811855564616 L902.3536499426112,-474.675598870666 L902.3738970164909,-474.56645457518806 L902.3896498874418,-474.4539729324512 " />
			<path d="M2471.833174993814,351.31222134222264 L2471.9347987125852,351.26149765269747 L2472.036217346093,351.216368039211 L2472.137226222954,351.1769235771418 L2472.237621498707,351.143243868752 L2472.337200567191,351.1153968825429 L2472.4357624694194,351.0934388160889 L2472.5331082991343,351.0774139826262 L2472.6290416042143,351.06735472162455 L2472.723368783132,351.0632813335239 L2472.8158994756595,351.0652020387661 L2472.9064469470295,351.07311296120537 L2472.9948284647826,351.0869981359309 L2473.080865667538,351.10682954148524 L2473.164384924941,351.1325671564139 L2473.245217688062,351.1641590400322 L2473.3232008295463,351.20154143724574 " />
			<path d="M2473.3232008295463,351.2015414372458 L2473.3860454067208,351.2371534144361 L2473.4467030587366,351.27670347714917 L2473.505088360729,351.32013592657944 L2473.5611190880095,351.3673895963117 L2473.614716331864,351.4183979384626 L2473.665804610682,351.4730891174006 L2473.714311976255,351.5313861109131 L2473.760170115106,351.5932068186775 L2473.803314444694,351.65846417788424 L2473.843684204366,351.7270662858481 L2473.881222540928,351.79891652943604 L2473.915876588711,351.8739137211284 L2473.9475975440237,351.9519522415227 L2473.9763407338814,352.03292218807826 L2474.0020656789225,352.1167095298935 L2474.024736150411,352.2031962682969 " />
			<path d="M1171.9587083045838,-615.9271056956619 L1171.9587083022168,-545.6848581981031 " />
			<path d="M1174.2214503462644,-544.1541552868242 L1174.1198266013791,-544.1034316004137 L1174.018407941853,-544.0583019912087 L1173.9173990391657,-544.0188575345984 L1173.817003737872,-543.9851778328502 L1173.717424644228,-543.9573308544666 L1173.618862717312,-543.9353727970179 L1173.5215168634745,-543.9193479737312 L1173.4255835349265,-543.9092887240629 L1173.331256333283,-543.9052153484339 L1173.2387256188583,-543.907136067263 L1173.1481781265027,-543.9150470043759 L1173.059796588756,-543.9289321948289 L1172.973759367077,-543.948763617127 L1172.8902400918955,-543.9745012497735 L1172.809407312211,-544.0060931520371 L1172.7314241554473,-544.0434755687724 " />
			<path d="M1172.7314241554473,-544.0434755687724 L1172.6866200055995,-544.0683308439015 L1172.642903732136,-544.0951757521185 L1172.600306320827,-544.1239912659512 L1172.558857964403,-544.1547569611766 L1172.5185880411518,-544.1874510312979 L1172.479525094097,-544.222050303 L1172.4416968107664,-544.2585302525752 L1172.4051300035671,-544.2968650233054 L1172.3698505907814,-544.3370274437889 L1172.3358835781958,-544.3789890471993 L1172.3032530413775,-544.4227200914628 L1172.2719821086096,-544.4681895803388 L1172.2420929444975,-544.5153652853904 L1172.2136067342597,-544.5642137688269 L1172.1865436687108,-544.6147004072049 L1172.1609229299515,-544.6667894159689 L1172.1140800367798,-544.7756257538599 L1172.073210838795,-544.8904142676154 L1172.0384311866046,-545.0108295699084 L1172.0098396689762,-545.1365303233343 L1171.9875173333699,-545.2671602079896 L1171.9715274561959,-545.40234893152 L1171.9619153634476,-545.5417132787765 L1171.9587083022168,-545.684858198103 " />
			<path d="M1171.958708304584,-615.9271056956618 L1171.961433876477,-616.0620651352286 L1171.9696040260058,-616.199567576209 L1171.9831990705645,-616.3392817631787 L1172.0021862585,-616.480871112424 L1172.026519848013,-616.6239945228006 L1172.0561412173558,-616.7683071974769 L1172.0909790060548,-616.9134614745793 L1172.1309492868254,-617.0591076647402 L1172.1759557677603,-617.2048948935304 L1172.225890024305,-617.3504719467463 L1172.2806317604616,-617.4954881165158 L1172.340049098593,-617.6395940461838 L1172.4039988971274,-617.7824425719436 L1172.4723270953984,-617.9236895591847 L1172.5448690847918,-618.062994731543 L1172.6214501053014,-618.2000224906565 L1172.7018856665406,-618.3344427246514 L1172.7859819921975,-618.4659316034101 L1172.8735364868573,-618.5941723587067 L1172.9643382240738,-618.718856047329 L1173.0581684545086,-618.8396822953503 L1173.154801132918,-618.9563600217557 L1173.2540034627157,-619.0686081396829 L1173.3555364567999,-619.1761562335837 L1173.4591555132952,-619.27874521068 L1173.5646110048178,-619.37612792514 L1173.6716488798525,-619.4680697734752 L1173.7800112747827,-619.5543492597196 L1173.8894371351073,-619.6347585290337 L1173.9996628443446,-619.7091038684446 L1174.1104228591062,-619.7772061735178 L1174.2214503488149,-619.8389013798354 " />
			<path d="M2743.646306651476,210.91622922164674 L2743.652970125415,210.78259635371055 L2743.6648083371206,210.6467739496661 L2743.6817941142326,210.50907376397785 L2743.7038884691337,210.36981186120042 L2743.7310406884403,210.22930789051267 L2743.7631884494026,210.08788435202376 L2743.800257962958,209.9458658565357 L2743.842164143096,209.80357838046098 L2743.8888108021606,209.66134851760575 L2743.940090871629,209.51950272953604 L2743.9958866478664,209.37836659624733 L2744.056070062293,209.23826406885772 L2744.120502975343,209.0995167260397 L2744.189037493532,208.96244303589776 L2744.2615163089254,208.8273576249853 L2744.337773060204,208.69457055613935 L2744.417632714517,208.5643866167905 L2744.500911969234,208.43710461938113 L2744.5874196726854,208.3130167154986 L2744.676957262911,208.19240772529682 L2744.7693192234224,208.07555448374578 L2744.8642935549274,207.9627252052096 L2744.9616622619333,207.85417886781167 L2745.061201853115,207.7501646189995 L2745.1626838542957,207.65092120367424 L2745.2658753328665,207.55667641619738 L2745.3705394324384,207.46764657753192 L2745.4764359165015,207.38403603871902 L2745.5833217198424,207.3060367118289 L2745.6909515064526,207.2338276294635 L2745.7990782326533,207.16757453382087 L2745.907453714134,207.10742949626578 " />
			<path d="M1174.2214503488149,-619.8389013798355 L1196.5660280346897,-631.5955469460032 " />
			<path d="M2745.907453714134,207.10742949626595 L2768.2520314000085,195.35078393009823 " />
			<path d="M1196.5660280346897,-631.5955469460032 L1196.667651779575,-631.6462706324137 L1196.7690704391011,-631.6914002416187 L1196.8700793417884,-631.730844698229 L1196.970474643082,-631.7645243999772 L1197.070053736726,-631.7923713783608 L1197.1686156636422,-631.8143294358096 L1197.2659615174796,-631.8303542590962 L1197.3618948460276,-631.8404135087645 L1197.4562220476712,-631.8444868843935 L1197.5487527620958,-631.8425661655644 L1197.6393002544514,-631.8346552284515 L1197.7276817921982,-631.8207700379985 L1197.813719013877,-631.8009386157004 L1197.8972382890586,-631.7752009830539 L1197.978071068743,-631.7436090807903 L1198.0560542255068,-631.7062266640551 " />
			<path d="M1198.0560542255068,-631.7062266640551 L1198.1310303827086,-631.6631291737439 L1198.2028482320866,-631.6144035842573 L1198.271362839114,-631.5601482279783 L1198.3364359354875,-631.5004725968296 L1198.3979361981649,-631.4354971213098 L1198.4557395143859,-631.3653529274537 L1198.5097292321432,-631.2901815722095 L1198.559796395595,-631.2101347577644 L1198.605839964948,-631.1253740253972 L1198.6477670203637,-631.0360704294735 L1198.6854929494789,-630.9424041922442 L1198.7189416181604,-630.8445643401413 L1198.7480455241507,-630.7427483223063 L1198.772745933292,-630.6371616121215 L1198.792992998059,-630.528017292547 L1198.8087458581524,-630.4155356261011 " />
			<path d="M2768.2520314000094,195.35078393009834 L2768.3536551448947,195.3000602436879 L2768.4550738044204,195.25493063448292 L2768.556082707108,195.21548617787252 L2768.6564780084013,195.1818064761244 L2768.756057102046,195.15395949774074 L2768.8546190289617,195.13200144029202 L2768.951964882799,195.1159766170054 L2769.0478982113473,195.105917367337 L2769.1422254129907,195.10184399170808 L2769.2347561274155,195.10376471053706 L2769.3253036197707,195.11167564765 L2769.4136851575176,195.12556083810307 L2769.4997223791966,195.1453922604012 L2769.583241654378,195.1711298930477 L2769.6640744340625,195.20272179531125 L2769.7420575908263,195.24010421204653 " />
			<path d="M2769.7420575908263,195.24010421204656 L2769.786004996842,195.26445959904893 L2769.828906801766,195.29072871002737 L2769.8707337624787,195.31889363919055 L2769.911457368504,195.34893518850225 L2769.9510498614472,195.38083288076726 L2769.9894842539106,195.4145649735893 L2770.026734347893,195.45010847419124 L2770.0627747526455,195.48743915508757 L2770.0975809019774,195.52653157059868 L2770.131129071004,195.56735907419534 L2770.163396392316,195.60989383666166 L2770.194360871567,195.65410686506442 L2770.2522977811627,195.7474460487138 L2770.304781860769,195.84712217768364 L2770.3516700360597,195.9528635296721 L2770.3928344874353,196.0643818482646 L2770.428162998465,196.18137312873566 L2770.4575592617925,196.30351844678168 L2770.4809431416793,196.43048482792508 L2770.498250892454,196.56192615522 L2770.5094353322906,196.69748411278502 L2770.5144659718244,196.83678916259097 " />
			<path d="M13.435028842544401,-49.737208843106835 L1198.8288368236729,-673.4347920148209 " />
			<path d="M13.435028842544401,63.874949334949555 L13.435058776152898,63.874933585315006 " />
			<path d="M108.2294462040334,13.998656234325658 L300.80322471675737,-87.32446476728413 " />
			<path d="M395.5976028754017,-137.20073724124433 L588.1714205909702,-238.52387886951774 " />
			<path d="M682.9657987496146,-288.40015134347794 L875.539616465183,-389.7232929717514 " />
			<path d="M970.3339946238274,-439.5995654457115 L1171.958710320542,-545.6848571361562 " />
			<path d="M11.17228714274745,-53.64900470851896 L1196.566095123876,-677.3465878802331 " />
			<path d="M-11.17228714274745,-65.40565206489343 L1174.221520838381,-689.1032352366075 " />
			<path d="M1611.2813426220596,833.627329933655 L2797.8736239600557,211.82980742961217 " />
			<path d="M1611.4751972259323,904.025867192616 L2798.0674785639285,282.2283446885732 " />
			<path d="M1609.0133933162542,829.7197571732729 L2795.60567465425,207.92223466923008 " />
			<path d="M1586.6915562154,818.0646042199857 L2773.2838375533956,196.26708171594282 " />
			<path d="M13.435058751497396,-6.367311198709784 L1585.1215722809757,820.5787511559056 " />
			<path d="M13.435058776152898,63.87493628780055 L1584.6812174797612,890.5893050532953 " />
			<path d="M15.69780006020294,-10.27910727002153 L1587.3843135896814,816.6669550845938 " />
			<path d="M38.04237049310259,-22.03575666340509 L1609.728884022581,804.9103056912103 " />
			<path d="M300.8032247167573,-157.56671226359745 L1870.623038067996,668.397466906323 " />
			<path d="M300.8032247167573,-87.32446476728416 L1803.7365998057398,703.4472664496793 " />
			<path d="M303.06596641655426,-161.47850812900955 L1874.7522089598938,665.4676969030645 " />
			<path d="M325.4105407020492,-173.23515548538404 L1897.0967832453887,653.71104954669 " />
			<path d="M588.1714205909702,-308.7661263658311 L2158.574823129235,517.5051095501788 " />
			<path d="M588.1714205909702,-238.5238788695178 L2091.6883848669786,552.554909093535 " />
			<path d="M590.4341622907673,-312.67792223124326 L2162.120404834107,514.2682828008308 " />
			<path d="M612.7787365762621,-324.4345695876177 L2184.4649791196016,502.5116354444564 " />
			<path d="M875.539616465183,-459.9655404680647 L2446.5266081904747,366.61275219403495 " />
			<path d="M875.539616465183,-389.72329297175145 L2379.640169928218,401.6625517373909 " />
			<path d="M877.80235816498,-463.8773363334769 L2449.4886007083196,363.0688686985972 " />
			<path d="M900.1469324504749,-475.63398368985133 L2471.8331749938143,351.31222134222276 " />
			<path d="M1171.958708304584,-615.9271056956619 L2743.5474322083796,210.968041360259 " />
			<path d="M1171.9587083022168,-545.684858198103 L2676.6610041431486,246.01783556017472 " />
			<path d="M1174.221450348815,-619.8389013798355 L2745.907453714134,207.1074294962657 " />
			<path d="M1196.5660280346897,-631.5955469460032 L2768.2520314000085,195.35078393009803 " />
			<path d="M1172.2050771198242,-544.579667106513 L971.5074349533728,-438.98215721175075 " />
			<path d="M875.7859843627642,-388.61810351998076 L684.1392390791601,-287.78274310951724 " />
			<path d="M588.4177884885513,-237.41868941774712 L396.7710432049472,-136.58332900728357 " />
			<path d="M301.04959261433834,-86.21927531551344 L109.40288673596959,14.61606436179811 " />
			<path d="M13.681425506371491,64.98012365129603 L12.662312978479987,65.51633196987032 " />
			<path d="M1172.7314950026484,-689.2139151415844 L-12.662312978479987,-65.51633196987032 " />
			<path d="M2797.2923288006214,283.8824922516874 L1610.7000474626248,905.6800147557306 " />
			<path d="M2771.8060582223366,196.15996960621544 L1585.2137768843404,817.9574921102584 " />
			<path d="M1585.1946718767958,892.094276737928 L14.207774652629652,65.5163189282437 " />
			<path d="M1610.77200090001,804.5644837260924 L39.53239592724174,-22.14643678056354 " />
			<path d="M1802.5607764459987,704.0634208470134 L301.57594058082174,-85.68308213236337 " />
			<path d="M1898.5868090811211,653.6003696417131 L326.90056653778174,-173.34583539036095 " />
			<path d="M2090.5125615072384,553.1710634908693 L588.9441364550347,-236.88249623459708 " />
			<path d="M2185.955004955334,502.4009555394795 L614.2687624119947,-324.54524949259456 " />
			<path d="M2378.464346568477,402.2787061347252 L876.3123323292474,-388.0819103368307 " />
			<path d="M2473.3232008295467,351.20154143724585 L901.6369582862075,-475.74466359482824 " />
			<path d="M2675.4851810804325,246.6339898018623 L1172.7314241554473,-544.0434755687725 " />
			<path d="M2769.7420575908263,195.2401042120465 L1198.0560542255068,-631.706226664055 " />

       </g>
    </g>
    
</svg>
