<?xml version="1.0" encoding="UTF-8" standalone="no"?>
<svg
   xmlns:svg="http://www.w3.org/2000/svg"
   xmlns="http://www.w3.org/2000/svg"
   width="480.0"
   height="480.0"

>
    <g transform="scale(0.13829168766687805, -0.13829168766687805)   translate(727.2287900435534,-2651.64794386524)" stroke-width="1.0"  fill="none">
       <!-- hidden lines -->
       <g  stroke="rgb(0,0,0)" fill="none" stroke-dasharray="1.0,1.0" >
			<path d="M-558.4102060981759,378.8414675535741 L-651.170126540392,370.91323704911525 " />
			<path d="M-653.1022195541169,370.01377658459165 L-653.0000909531814,370.10819595402467 L-652.8944521451809,370.1981829129966 L-652.7855057647064,370.283564850031 L-652.6734607908788,370.36417798692736 L-652.558532146489,370.4398676929176 L-652.4409402857362,370.51048878127625 L-652.320910771357,370.5759057878154 L-652.198673841954,370.6359932307294 L-652.0744639703564,370.6906358512925 L-651.948519413858,370.73972883494577 L-651.8210817571962,370.7831780123507 L-651.692395449148,370.8209000400235 L-651.5627073336327,370.852822560203 L-651.4322661762197,370.87888433964594 L-651.301322186951,370.89903538708387 L-651.170126540392,370.91323704911525 " />
			<path d="M-524.4145260858751,381.2237995791962 L-524.3387551059415,381.1759808101121 L-524.2646231630754,381.1256280069198 L-524.1922001764102,381.07278866094646 L-524.1215544532406,381.0175126087557 L-524.0527526245969,380.95985198514273 L-523.9858595824008,380.8998611739625 L-523.9209384182611,380.83759675683655 L-523.8580503639674,380.7731174597864 L-523.7972547337383,380.7064840978454 L-523.7386088682774,380.63775951769924 L-523.6821680806918,380.5670085384111 L-523.6279856043219,380.49429789028585 L-523.5761125425336,380.4196961519322 L-523.5265978205184,380.3432736855813 L-523.4794881391496,380.2651025707228 L-523.4348279309344,380.1852565361218 L-523.392659318107,380.10381089028 L-523.3530220728998,380.02084245040663 L-523.3159535800314,379.9364294699669 L-523.2814888014468,379.85065156487553 L-523.2496602433417,379.76358963840505 L-523.220497925504,379.6753258048805 L-523.1940293529998,379.58594331223117 L-523.1702794902315,379.49552646347394 L-523.1492707373919,379.4041605372006 L-523.1310229093374,379.311931707146 L-523.1155532168988,379.2189269609112 L-523.1028762506484,379.125234017919 L-523.0930039671391,379.0309412466801 L-523.0859456776273,378.93613758144585 L-523.0817080392899,378.8409124383283 L-523.0802950489468,378.7453556309655 " />
			<path d="M-523.0802950489467,378.74535563096543 L-523.0802950489467,347.9770805209312 " />
			<path d="M-523.0802950489468,347.9770805209312 L-523.0839041673491,347.82388823002447 L-523.0947228278741,347.6704480469441 L-523.1127249674207,347.51712962253094 L-523.137867217258,347.36430231429847 L-523.170089007504,347.21233429661834 L-523.2093127130436,347.0615916737559 L-523.2554438405347,346.9124375978933 L-523.3083712560503,346.7652313942634 L-523.367967452811,346.6203276955047 L-523.4340888583583,346.4780755873195 L-523.5065761804349,346.33881776749615 L-523.5852547907328,346.2028897203203 L-523.6699351455884,346.0706189083633 L-523.7604132426096,345.9423239835969 L-523.8564711121359,345.81831401973204 L-523.9578773423457,345.6988877676337 L-524.0643876367484,345.58433293560375 L-524.1757454027156,345.4749254962663 L-524.2916823696354,345.37092902172566 L-524.4119192351994,345.272594048598 L-524.5361663382671,345.18015747444684 L-524.6641243566845,345.0938419870757 L-524.7954850283772,345.01385552805397 L-524.9299318939815,344.94039079176747 L-525.0671410592219,344.87362476120063 L-525.2067819752011,344.81371828156915 L-525.3485182347216,344.76081567282966 L-525.4920083827196,344.71504438200026 L-525.6369067388601,344.67651467612967 L-525.7828642303119,344.6453193766542 L-525.9295292326934,344.6215336357826 L-526.0765484171677,344.60521475544806 " />
			<path d="M-526.0765484171677,344.605214755448 L-651.170126540392,333.91341254970695 " />
			<path d="M-651.170126540392,333.913412549707 L-651.280214554981,333.9061070855722 L-651.3901539042422,333.9030190990365 L-651.4997961236089,333.90415276018626 L-651.6089931497653,333.9095065381 L-651.7175975205942,333.91907320291574 L-651.8254625743137,333.9328398355945 L-651.9324426475326,333.9507878453662 L-652.0383932719567,333.9728929948353 L-652.143171369483,333.9991254327114 L-652.2466354454148,334.0294497341213 L-652.3486457795401,334.06382494844695 L-652.4490646148123,334.1022046546269 L-652.5477563433803,334.1445370238439 L-652.6445876897174,334.1907648895155 L-652.739427890598,334.2408258244936 L-652.8321488716846,334.2946522253671 " />
			<path d="M-572.8082647366211,2578.944505377273 L-572.7323168943095,2578.8964778097643 L-572.6580219550717,2578.8458999592394 L-572.5854504835241,2578.7928198640525 L-572.5146714073504,2578.737287939166 L-572.445751951834,2578.679356928266 L-572.3787575760089,2578.619081853668 L-572.3137519104866,2578.5565199640564 L-572.2507966970213,2578.49173068011 L-572.1899517298671,2578.4247755380657 L-572.1312747989869,2578.3557181312713 L-572.0748216351632,2578.2846240497856 L-572.0206458570665,2578.2115608180807 L-571.9687989203281,2578.13659783091 L-571.9193300686683,2578.0598062873946 L-571.872286287125,2577.981259123402 L-571.827712257428,2577.901030942271 L-571.7856503155606,2577.8191979439534 L-571.7461404115494,2577.7358378526415 L-571.70922007152,2577.6510298429453 L-571.6749243620552,2577.564854464695 L-571.6432858568887,2577.477393566433 L-571.6143346059677,2577.3887302176763 L-571.5880981069108,2577.2989486300185 L-571.5646012788917,2577.2081340771447 L-571.543866438971,2577.1163728138413 L-571.5259132808995,2577.023751994071 L-571.5107588564136,2576.9303595881947 L-571.4984175590395,2576.8362842994184 L-571.4889011104221,2576.7416154795433 L-571.4822185491928,2576.646443044101 L-571.4783762223835,2576.550857386953 L-571.4773777793994,2576.454949294434 " />
			<path d="M-571.4773777793994,2576.4549492944334 L-571.6132444962925,2545.68310543012 " />
			<path d="M-571.6132444962926,2545.6831054301206 L-571.617527476525,2545.5299104857 L-571.6290158887546,2545.3764978138825 L-571.6476820563898,2545.223236999232 L-571.6734810109982,2545.070497260476 L-571.7063506006382,2544.918646561022 L-571.7462116395893,2544.7680507225064 L-571.7929680991173,2544.6190725434944 L-571.8465073388159,2544.472070925469 L-571.9067003779669,2544.327400008203 L-571.973402206267,2544.185408316608 L-572.0464521331693,2544.0464379211066 L-572.1256741750016,2543.910823613553 L-572.2108774789259,2543.778892100693 L-572.3018567827203,2543.6509612170976 L-572.398392909273,2543.5273391594696 L-572.5002532945995,2543.408323744174 L-572.6071925481098,2543.294201689772 L-572.7189530437753,2543.1852479262866 L-572.835265540773,2543.0817249328793 L-572.9558498321097,2542.9838821055073 L-573.0804154196659,2542.891955156112 L-573.2086622140301,2542.8061655447673 L-573.340281257442,2542.72671994616 L-573.4749554680974,2542.6538097516964 L-573.6123604040266,2542.587610608421 L-573.7521650447039,2542.5282819958684 L-573.8940325885045,2542.4759668418624 L-574.0376212640891,2542.430791178192 L-574.1825851537614,2542.3928638369875 L-574.3285750268138,2542.3622761885354 L-574.475239180855,2542.339101921161 L-574.6222242890916,2542.3233968637037 " />
			<path d="M15.397104540074785,2183.0320887287294 L-61.91704108258333,2176.7448741173453 " />
			<path d="M-574.6222242890916,2542.3233968637037 L-651.9363699117497,2536.0361822523196 " />
			<path d="M-651.9363699117498,2536.036182252319 L-652.045766770844,2536.0293647998806 L-652.154999259538,2536.0267154200415 L-652.2639215898984,2536.028237648815 L-652.3723883879464,2536.0339294545474 L-652.4802548876836,2536.0437832406296 L-652.5873771243031,2536.0577858556344 L-652.6936121263349,2536.0759186108694 L-652.7988181064627,2536.098157305322 L-652.9028546507618,2536.1244722579568 L-653.0055829061038,2536.1548283473317 L-653.1068657654772,2536.189185058471 L-653.2065680509791,2536.2274965369425 L-653.3045566942307,2536.269711650052 L-653.4007009139784,2536.3157740550932 L-653.4948723906418,2536.365622274543 L-653.5869454375766,2536.419189778114 " />
			<path d="M-63.824920112276246,2177.306144911154 L-63.49943327940317,2177.30633889449 L-63.175716628736325,2177.3140678643426 L-62.85711931259341,2177.329251857271 L-62.54693751897584,2177.3517337806297 " />
			<path d="M14.793852558974626,2183.962084534877 L15.017384325264368,2183.983423729911 L15.233189562277497,2184.008557399551 L15.440030505678294,2184.0373413880743 L15.63672080639362,2184.0696106031273 L15.822132334991696,2184.105179962623 L15.995201652138485,2184.1438454562926 L16.15493610802003,2184.1853853157954 L16.300419535747096,2184.229561286689 L16.43081750608723,2184.2761199949496 L16.490122223592834,2184.3002099179375 L16.545382113385447,2184.3247944002146 L16.596517910408313,2184.349838177678 L16.64345626522355,2184.375305327411 L16.68612984922495,2184.4011593192085 L16.724477451214476,2184.427363067979 L16.758444065203875,2184.4538789869366 L16.787980969315562,2184.4806690415166 L16.813045795669517,2184.507694803934 L16.833602591155962,2184.5349175083024 L16.849621869006704,2184.5622981062415 L16.861080651091072,2184.589797322887 L16.867962500875887,2184.617375713228 L16.870257547002083,2184.6449937186862 " />
			<path d="M16.870257547002083,2184.6449937186862 L16.867040174668933,2184.6776913017547 L16.85739453140614,2184.7103231342785 L16.841340013217568,2184.742823598326 L16.818908903434476,2184.775127340131 L16.790146307798405,2184.8071694015052 L16.75511006375998,2184.838885350464 L16.713870624176106,2184.8702114107864 L16.666510915639396,2184.901084590263 " />
			<path d="M16.6666453701594,20.7033734580554 L5.571144626930596,27.447099684970734 " />
			<path d="M16.6665109156394,2184.9010845902635 L5.5710101724105945,2191.6448108171785 " />
			<path d="M5.5711446269306,27.447099684970734 L5.512403314404297,27.480299967732442 L5.446585278039155,27.512803322285496 L5.373849079249755,27.54453144520182 L5.294369945909921,27.575407900654252 L5.208339350213418,27.60535830455715 L5.115964547400669,27.63431050376417 L5.017468076462727,27.6621947498915 L4.913087224025352,27.68894386734786 L4.803073452704752,27.71449341516634 L4.687691795312103,27.738781842248375 L4.567220216366307,27.76175063564571 L4.441948942453106,27.78334446152322 L4.312179763043825,27.803511298462972 L4.178225303458099,27.822202562788373 L3.89906068113661,27.854981921286644 L3.6071435834085017,27.88136685387668 L3.305285331503014,27.90110325923417 L2.9963929853985007,27.9140010649865 L2.6834413472456826,27.91993605821362 L2.3694443123967384,27.918851081686352 L2.057425843945502,27.910756584321767 L1.7503908503098058,27.895730520554384 L1.4512962463207675,27.873917599592367 " />
			<path d="M5.571010172410593,2191.644810817178 L5.51226885988429,2191.67801109994 L5.446450823519147,2191.710514454493 L5.373714624729747,2191.7422425774093 L5.294235491389912,2191.773119032862 L5.2082048956934095,2191.8030694367644 L5.11583009288066,2191.8320216359716 L5.0173336219427185,2191.8599058820987 L4.9129527695053445,2191.886654999555 L4.802938998184745,2191.9122045473737 L4.687557340792096,2191.9364929744556 L4.567085761846299,2191.959461767853 L4.441814487933097,2191.9810555937306 L4.3120453085238175,2192.00122243067 L4.178090848938091,2192.019913694996 L3.8989262266166023,2192.052693053494 L3.6070091288884942,2192.079077986084 L3.305150876983006,2192.0988143914415 L2.9962585308784924,2192.111712197194 L2.6833068927256747,2192.117647190421 L2.3693098578767304,2192.1165622138938 L2.0572913894254943,2192.108467716529 L1.7502563957897979,2192.0934416527616 L1.4511617918007595,2192.0716287317996 " />
			<path d="M1.4512962463207515,27.873917599592367 L-75.88949383162968,21.263566845345323 " />
			<path d="M1.4511617918007502,2192.0716287318 L-75.88962828614967,2185.4612779775534 " />
			<path d="M-75.88949383162968,21.263566845345327 L-76.04760628963264,21.248945540803295 L-76.20207453489543,21.23242412836903 L-76.35245937582363,21.21404958252235 L-76.49833323095572,21.193874146661717 L-76.63928134468344,21.171955184563288 L-76.774902966505,21.148355017281435 L-76.9048124904583,21.123140745954522 L-77.02864055149448,21.09638406101968 L-77.14603507567453,21.068161038379102 L-77.25666228120296,21.038551923097348 L-77.36020762745233,21.007640901244688 L-77.45637670928039,20.975515860535193 L-77.54489609409713,20.94226814044014 L-77.6255140993014,20.907992272487185 L-77.69800150787722,20.872785711483765 L-77.76215222011461,20.836748558428862 " />
			<path d="M-127.90256565593141,2270.6915005591613 L-205.24335572313447,2264.0811497942345 " />
			<path d="M-206.2842702023571,2264.0349551184595 L-206.01860855861682,2264.039045828716 L-205.75535871626036,2264.0481562829063 L-205.49634332662004,2264.06222340338 L-205.2433557231345,2264.0811497942345 " />
			<path d="M-127.90256565593143,2270.6915005591613 L-127.67903389231243,2270.712839755489 L-127.46322865777591,2270.737973429404 L-127.25638771661374,2270.7667574251636 L-127.05969741785779,2270.7990266503766 L-126.87428589090155,2270.834596022902 L-126.70121657504414,2270.8732615324016 L-126.54148212006835,2270.9148014104494 L-126.39599869283627,2270.9589774025017 L-126.26560072255751,2271.005536134419 L-126.2062960049141,2271.029626070133 L-126.15103611486877,2271.0542105657105 L-126.09990031747677,2271.0792543570315 L-126.05296196217475,2271.1047215211597 L-126.01028837756799,2271.1305755278713 L-125.97194077485393,2271.156779292053 L-125.93797416002056,2271.183295226898 L-125.90843725494548,2271.21008529782 L-125.88337242750909,2271.2371110770114 L-125.86281563082187,2271.264333798563 L-125.84679635165301,2271.2917144140697 L-125.83533756813452,2271.319213648644 L-125.82845571680127,2271.3467920572502 L-125.82616066901427,2271.3744100812846 " />
			<path d="M-125.82616066901427,2271.3744100812846 L-125.8293780395766,2271.4071076884297 L-125.83902368159275,2271.4397395453757 L-125.85507819905978,2271.4722400341375 L-125.87750930864529,2271.504543800893 L-125.90627190460445,2271.536585887399 L-125.94130814948134,2271.5683018616146 L-125.98254759041166,2271.599627947264 L-126.02990730079333,2271.630501152081 " />
			<path d="M-126.02990730079337,107.43287181432372 L-137.12540805498654,114.17660334529013 " />
			<path d="M-126.02990730079334,2271.630501152081 L-137.1254080549865,2278.374232683047 " />
			<path d="M-137.12540805498654,114.17660334529013 L-137.18414936756682,114.20980365440653 L-137.2499674039848,114.24230703524978 L-137.3227036028258,114.27403518432848 L-137.40218273621582,114.30491166575244 L-137.48821333196102,114.33486209537345 L-137.58058813482086,114.3638143199832 L-137.67908460580412,114.39169859113669 L-137.783465458285,114.41844773318235 L-137.89347922964714,114.44399730509403 L-138.00886088707927,114.46828575571512 L-138.1293324660624,114.49125457204066 L-138.25460374001074,114.51284842018028 L-138.3843729194528,114.53301527866243 L-138.51832737906892,114.55170656375861 L-138.7974920014437,114.58448596128542 L-139.0894090992147,114.61087092924349 L-139.39126735115227,114.6306073659679 L-139.70015969727777,114.64350519878396 L-140.01311133544024,114.64944021451096 L-140.32710837028742,114.64835525570305 L-140.63912683872547,114.64026077110665 L-140.94616183233674,114.62523471503332 L-141.24525643629033,114.60342179661713 " />
			<path d="M-137.1254080549865,2278.374232683047 L-137.1841493675668,2278.4074329921636 L-137.24996740398478,2278.4399363730067 L-137.32270360282578,2278.4716645220856 L-137.4021827362158,2278.502541003509 L-137.488213331961,2278.5324914331304 L-137.58058813482083,2278.5614436577403 L-137.6790846058041,2278.5893279288935 L-137.78346545828498,2278.6160770709394 L-137.8934792296471,2278.641626642851 L-138.00886088707924,2278.665915093472 L-138.12933246606238,2278.6888839097974 L-138.2546037400107,2278.710477757937 L-138.38437291945277,2278.7306446164193 L-138.5183273790689,2278.7493359015157 L-138.79749200144366,2278.7821152990423 L-139.08940909921466,2278.8085002670005 L-139.39126735115224,2278.828236703725 L-139.70015969727774,2278.8411345365407 L-140.01311133544021,2278.847069552268 L-140.3271083702874,2278.84598459346 L-140.63912683872545,2278.8378901088636 L-140.9461618323367,2278.82286405279 L-141.2452564362903,2278.801051134374 " />
			<path d="M-141.24525643629033,114.60342179661711 L-218.58604650349338,107.99307103169039 " />
			<path d="M-141.24525643629028,2278.801051134374 L-218.58604650349338,2272.1907003694473 " />
			<path d="M-218.5860465034934,107.99307103169039 L-218.74415895614698,107.97844972689332 L-218.89862719632058,107.96192831280699 L-219.04901203246422,107.94355376391269 L-219.1948858831591,107.92337832361402 L-219.33583399283776,107.90145935569582 L-219.4714556110373,107.87785918122479 L-219.60136513183213,107.85264490135516 L-219.7251931902075,107.82588820654345 L-219.84258771225603,107.79766517271477 L-219.95321491621092,107.76805604496003 L-220.0567602614707,107.73714500937922 L-220.15292934291597,107.70501995371946 L-220.24144872797638,107.67177221748831 L-220.32206673406728,107.63749633225288 L-220.39455414418578,107.60228975286309 L-220.4587048586315,107.5662525803634 " />
			<path d="M-218.58604650349338,2272.1907003694478 L-218.82562610864005,2272.167651319007 L-219.05620328761694,2272.1402445398503 L-219.2762553051835,2272.1086610267694 L-219.4843289344272,2272.073109357771 " />
			<path d="M-270.5991323174537,2357.4210098688054 L-347.9399223846568,2350.8106591038786 " />
			<path d="M-348.71601556304915,2350.7685341897436 L-348.5180363768467,2350.7748955899337 L-348.32218663113593,2350.784062534964 L-348.1292308811678,2350.7959992390533 L-347.9399223846569,2350.8106591038786 " />
			<path d="M-270.5991323174537,2357.4210098688054 L-270.3756005538348,2357.442349065133 L-270.15979531929827,2357.467482739048 L-269.9529543781361,2357.4962667348077 L-269.7562640793801,2357.5285359600207 L-269.57085255242384,2357.564105332546 L-269.39778323656645,2357.6027708420456 L-269.2380487815907,2357.6443107200935 L-269.0925653543586,2357.6884867121457 L-268.96216738407986,2357.735045444063 L-268.9028626664364,2357.759135379777 L-268.8476027763911,2357.7837198753546 L-268.7964669789991,2357.8087636666755 L-268.7495286236971,2357.834230830804 L-268.7068550390903,2357.8600848375154 L-268.6685074363763,2357.8862886016973 L-268.6345408215429,2357.912804536542 L-268.6050039164678,2357.939594607464 L-268.5799390890314,2357.9666203866554 L-268.5593822923442,2357.993843108207 L-268.54336301317534,2358.021223723714 L-268.53190422965685,2358.048722958288 L-268.52502237832357,2358.0763013668943 L-268.5227273305366,2358.1039193909287 " />
			<path d="M-268.5227273305366,2358.1039193909287 L-268.5259447010989,2358.136616998074 L-268.5355903431151,2358.1692488550198 L-268.5516448605821,2358.2017493437816 L-268.5740759701676,2358.234053110537 L-268.60283856612676,2358.266095197043 L-268.63787481100366,2358.2978111712587 L-268.679114251934,2358.329137256908 L-268.72647396231565,2358.360010461725 " />
			<path d="M-268.7264739623157,194.16238112396772 L-279.82197471650886,200.9061126549341 " />
			<path d="M-268.72647396231565,2358.360010461725 L-279.8219747165088,2365.103741992691 " />
			<path d="M-279.82197471650886,200.9061126549341 L-279.88071602908917,200.9393129640505 L-279.94653406550714,200.97181634489374 L-280.0192702643481,201.00354449397244 L-280.0987493977382,201.03442097539642 L-280.18477999348335,201.0643714050174 L-280.27715479634315,201.09332362962715 L-280.3756512673265,201.12120790078066 L-280.48003211980733,201.1479570428263 L-280.59004589116944,201.173506614738 L-280.7054275486016,201.1977950653591 L-280.82589912758476,201.2207638816846 L-280.95117040153303,201.24235772982425 L-281.0809395809751,201.26252458830638 L-281.2148940405912,201.28121587340257 L-281.49405866296604,201.31399527092938 L-281.785975760737,201.34038023888746 L-282.0878340126746,201.36011667561186 L-282.3967263588001,201.3730145084279 L-282.70967799696257,201.3789495241549 L-283.0236750318097,201.377864565347 L-283.3356935002478,201.3697700807506 L-283.64272849385907,201.35474402467727 L-283.94182309781263,201.33293110626107 " />
			<path d="M-279.8219747165088,2365.103741992691 L-279.8807160290891,2365.1369423018077 L-279.9465340655071,2365.169445682651 L-280.01927026434805,2365.2011738317296 L-280.0987493977381,2365.232050313153 L-280.1847799934833,2365.2620007427745 L-280.2771547963431,2365.2909529673843 L-280.3756512673264,2365.3188372385375 L-280.4800321198073,2365.3455863805834 L-280.5900458911694,2365.371135952495 L-280.70542754860156,2365.395424403116 L-280.8258991275847,2365.4183932194414 L-280.951170401533,2365.439987067581 L-281.08093958097504,2365.4601539260634 L-281.21489404059116,2365.4788452111598 L-281.494058662966,2365.5116246086864 L-281.78597576073696,2365.5380095766445 L-282.08783401267453,2365.557746013369 L-282.39672635880004,2365.570643846185 L-282.7096779969625,2365.576578861912 L-283.02367503180966,2365.575493903104 L-283.33569350024777,2365.5673994185076 L-283.642728493859,2365.552373362434 L-283.9418230978126,2365.530560444018 " />
			<path d="M-283.9418230978127,201.33293110626116 L-361.2826131650158,194.7225803413344 " />
			<path d="M-283.94182309781263,2365.530560444018 L-361.28261316501573,2358.9202096790914 " />
			<path d="M-361.2826131650158,194.72258034133438 L-361.44072561766933,194.70795903653732 L-361.59519385784296,194.691437622451 L-361.7455786939866,194.6730630735567 L-361.89145254468144,194.65288763325802 L-362.0324006543601,194.63096866533982 L-362.16802227255965,194.6073684908688 L-362.29793179335445,194.58215421099916 L-362.42175985172986,194.55539751618744 L-362.5391543737784,194.5271744823588 L-362.6497815777333,194.49756535460403 L-362.75332692299304,194.4666543190232 L-362.8494960044383,194.43452926336346 L-362.93801538949873,194.4012815271323 L-363.01863339558963,194.36700564189687 L-363.0911208057081,194.3317990625071 L-363.15527152015386,194.2957618900074 " />
			<path d="M-361.28261316501573,2358.9202096790914 L-361.46196849530685,2358.903450968749 L-361.636542763681,2358.8842478764755 L-361.805695385184,2358.8626708663314 L-361.96880566911864,2358.838799113262 " />
			<path d="M-413.295698978976,2444.1505191784495 L-490.6364890461791,2437.5401684135227 " />
			<path d="M-491.15556094701213,2437.506863072479 L-490.8929414476292,2437.5210192304717 L-490.6364890461792,2437.5401684135227 " />
			<path d="M-413.2956989789761,2444.1505191784495 L-413.0721672153571,2444.171858374777 L-412.8563619808206,2444.196992048692 L-412.64952103965845,2444.225776044452 L-412.45283074090247,2444.2580452696648 L-412.2674192139462,2444.2936146421903 L-412.0943498980888,2444.3322801516897 L-411.93461544311305,2444.3738200297375 L-411.78913201588097,2444.41799602179 L-411.6587340456022,2444.464554753707 L-411.5994293279588,2444.488644689421 L-411.54416943791347,2444.5132291849986 L-411.49303364052145,2444.5382729763196 L-411.4460952852194,2444.563740140448 L-411.4034217006127,2444.5895941471595 L-411.3650740978986,2444.6157979113414 L-411.33110748306524,2444.642313846186 L-411.30157057799016,2444.6691039171083 L-411.2765057505538,2444.6961296962995 L-411.25594895386655,2444.723352417851 L-411.2399296746977,2444.750733033358 L-411.2284708911792,2444.7782322679323 L-411.2215890398459,2444.8058106765384 L-411.21929399205897,2444.8334287005728 " />
			<path d="M-411.21929399205897,2444.8334287005728 L-411.2225113626213,2444.866126307718 L-411.23215700463743,2444.898758164664 L-411.24821152210444,2444.9312586534256 L-411.27064263168995,2444.963562420181 L-411.2994052276491,2444.995604506687 L-411.334441472526,2445.0273204809027 L-411.37568091345634,2445.058646566552 L-411.423040623838,2445.089519771369 " />
			<path d="M-411.42304062383806,280.8918904336117 L-422.5185413780312,287.63562196457815 " />
			<path d="M-411.423040623838,2445.089519771369 L-422.51854137803116,2451.833251302335 " />
			<path d="M-422.5185413780312,287.6356219645781 L-422.5772826906115,287.6688222736945 L-422.6431007270295,287.70132565453775 L-422.71583692587046,287.7330538036165 L-422.79531605926053,287.76393028504043 L-422.8813466550057,287.79388071466144 L-422.9737214578655,287.82283293927117 L-423.07221792884883,287.85071721042465 L-423.1765987813297,287.8774663524703 L-423.2866125526918,287.903015924382 L-423.401994210124,287.9273043750031 L-423.5224657891071,287.9502731913286 L-423.6477370630554,287.97186703946824 L-423.77750624249745,287.9920338979504 L-423.9114607021136,288.0107251830466 L-424.1906253244884,288.04350458057337 L-424.48254242225937,288.0698895485315 L-424.78440067419695,288.08962598525585 L-425.09329302032245,288.1025238180719 L-425.4062446584849,288.1084588337989 L-425.72024169333207,288.107373874991 L-426.0322601617702,288.0992793903946 L-426.3392951553814,288.0842533343213 L-426.638389759335,288.0624404159051 " />
			<path d="M-422.51854137803116,2451.833251302335 L-422.57728269061147,2451.866451611452 L-422.64310072702943,2451.898954992295 L-422.7158369258704,2451.9306831413737 L-422.7953160592605,2451.9615596227973 L-422.88134665500564,2451.9915100524186 L-422.97372145786545,2452.0204622770284 L-423.0722179288488,2452.0483465481816 L-423.17659878132963,2452.0750956902275 L-423.28661255269174,2452.100645262139 L-423.4019942101239,2452.12493371276 L-423.52246578910706,2452.1479025290855 L-423.64773706305533,2452.169496377225 L-423.7775062424974,2452.1896632357075 L-423.9114607021135,2452.208354520804 L-424.19062532448834,2452.2411339183304 L-424.4825424222593,2452.2675188862886 L-424.7844006741969,2452.287255323013 L-425.0932930203224,2452.300153155829 L-425.40624465848487,2452.306088171556 L-425.720241693332,2452.305003212748 L-426.0322601617701,2452.2969087281517 L-426.33929515538136,2452.281882672078 L-426.6383897593349,2452.2600697536623 " />
			<path d="M-426.638389759335,288.06244041590503 L-503.9791798265381,281.45208965097834 " />
			<path d="M-426.6383897593349,2452.2600697536623 L-503.97917982653803,2445.6497189887355 " />
			<path d="M-503.9791798265381,281.45208965097834 L-504.1372922791916,281.4374683461813 L-504.29176051936525,281.4209469320949 L-504.4421453555089,281.40257238320066 L-504.58801920620374,281.38239694290195 L-504.7289673158824,281.3604779749838 L-504.86458893408195,281.33687780051275 L-504.99449845487675,281.3116635206431 L-505.11832651325216,281.2849068258314 L-505.2357210353007,281.2566837920027 L-505.3463482392556,281.227074664248 L-505.44989358451534,281.1961636286672 L-505.5460626659606,281.1640385730074 L-505.634582051021,281.13079083677627 L-505.71520005711193,281.0965149515408 L-505.7876874672304,281.0613083721511 L-505.85183818167616,281.02527119965134 " />
			<path d="M-503.97917982653803,2445.6497189887355 L-504.21676890749427,2445.6268833649597 L-504.44552002399064,2445.5997619802206 " />
			<path d="M-560.4864927977818,2533.611570812164 L-637.8272828638095,2527.001220046523 " />
			<path d="M-638.0889895824959,2526.981734832969 L-637.8272828638095,2527.0012200465226 " />
			<path d="M-560.4864927977818,2533.611570812164 L-560.2629610364431,2533.632910009612 L-560.0471558040146,2533.6580436872828 L-559.8403148647503,2533.686827689414 L-559.6436245676468,2533.719096923581 L-559.4582130420649,2533.754666307597 L-559.2851437272735,2533.7933318310593 L-559.125409273029,2533.8348717254685 L-558.9799258461702,2533.8790477361913 L-558.8495278758874,2533.925606488987 L-558.7902231580954,2533.9496964359323 L-558.7349632678017,2533.9742809432496 L-558.6838274700602,2533.9993247468024 L-558.6368891143067,2534.0247919236376 L-558.5942155291453,2534.0506459435137 L-558.5558679257734,2534.0768497212994 L-558.5219013101787,2534.1033656701693 L-558.4923644042389,2534.130155755518 L-558.4672995758345,2534.1571815495176 L-558.4467427780769,2534.184404286238 L-558.4307234977362,2534.2117849172546 L-558.4192647129455,2534.2392841676574 L-558.4123828602412,2534.2668625923884 L-558.410087810986,2534.294480632823 " />
			<path d="M-558.410087810986,2534.294480632823 L-558.413305179979,2534.327178261191 L-558.4229508208786,2534.3598101396656 L-558.4390053376827,2534.3923106502143 L-558.461436447058,2534.424614438966 L-558.4901990432569,2534.4566565476293 L-558.525235288819,2534.488372544114 L-558.5664747308736,2534.519698652095 L-558.6138344428107,2534.5505718792565 " />
			<path d="M-558.6139532098846,370.3530147269332 L-569.7094539652769,377.09675094008946 " />
			<path d="M-558.6138344428107,2534.550571879257 L-569.709335198203,2541.294308092413 " />
			<path d="M-569.7094539652768,377.09675094008946 L-569.768195277863,377.1299512724711 L-569.8340133142867,377.1624546765234 L-569.9067495131334,377.19418284869914 L-569.986228646529,377.22505935305253 L-570.0722592422794,377.25500980538 L-570.1646340451445,377.2839620524186 L-570.2631305161326,377.3118463456693 L-570.3675113686182,377.3385955094273 L-570.4775251399849,377.36414510261415 L-570.5929067974214,377.388433574022 L-570.7133783764086,377.4114024105957 L-570.8386496503608,377.4329962783963 L-570.9684188298064,377.45316315590463 L-571.1023732894258,377.47185445934656 L-571.3815379118065,377.50463389134836 L-571.6734550095822,377.5310188905524 L-571.9753132615233,377.55075535499276 L-572.2842056076511,377.5636532117279 L-572.5971572458145,377.5695882473468 L-572.9111542806615,377.568503304212 L-573.2231727490982,377.56040883091896 L-573.5302077427068,377.54538278167036 L-573.8293023466565,377.52356986553457 " />
			<path d="M-569.7093351982029,2541.2943080924133 L-569.7680765107891,2541.327508424795 L-569.8338945472128,2541.3600118288473 L-569.9066307460595,2541.3917400010228 L-569.9861098794551,2541.4226165053765 L-570.0721404752055,2541.4525669577038 L-570.1645152780706,2541.481519204742 L-570.2630117490587,2541.509403497993 L-570.3673926015443,2541.536152661751 L-570.477406372911,2541.561702254938 L-570.5927880303475,2541.5859907263457 L-570.7132596093347,2541.6089595629196 L-570.8385308832869,2541.63055343072 L-570.9683000627325,2541.6507203082283 L-571.1022545223519,2541.6694116116705 L-571.3814191447326,2541.702191043672 L-571.6733362425083,2541.7285760428763 L-571.9751944944494,2541.7483125073168 L-572.2840868405772,2541.7612103640517 L-572.5970384787406,2541.7671453996704 L-572.9110355135876,2541.766060456536 L-573.2230539820243,2541.7579659832427 L-573.5300889756329,2541.742939933994 L-573.8291835795826,2541.721127017858 " />
			<path d="M-573.8293023466565,377.52356986553457 L-651.1700924126842,370.91321909989347 " />
			<path d="M-573.8291835795825,2541.721127017858 L-651.1699736456102,2535.1107762522174 " />
			<path d="M-651.1700924126842,370.91321909989347 L-651.3282048607359,370.8985977948791 L-651.4826730965349,370.8820763793397 L-651.6330579285691,370.863701827758 L-651.7789317754567,370.8435263835421 L-651.9198798816656,370.8216074104846 L-652.055501496766,370.7980072296632 L-652.1854110148641,370.77279294224616 L-652.3092390709746,370.74603623870735 L-652.426633591217,370.7178131949921 L-652.5372607938492,370.68820405621483 L-652.6408061382923,370.6572930085019 L-652.7369752194463,370.62516793962965 L-652.825494604758,370.5919201891379 L-652.9061126116566,370.55764428862875 L-652.9786000231505,370.52243769298985 L-653.0427507395475,370.4864005033059 " />
			<path d="M-651.1699736456103,2535.110776252217 L-651.4018102606481,2535.088555275464 " />
			<path d="M-506.0555848134552,370.0654234160303 L-411.21929399205897,312.42489876909593 " />
			<path d="M-363.3590181519329,283.3359141063863 L-268.52272733053667,225.69538945945197 " />
			<path d="M-220.66245149041058,196.60640479674234 L-125.82616066901426,138.96588014980793 " />
			<path d="M-77.96590436734084,109.8769073623694 L16.87039002656949,52.236380544097614 " />
			<path d="M-76.99164429988994,2185.3024214150532 L-63.56761660841004,2177.1278816431395 " />
			<path d="M16.870257547002087,2184.6449937186862 L16.870257614803617,2183.5536513010143 " />
			<path d="M-125.82616066901427,2271.374410081285 L-125.82616066901427,2215.040120522673 " />
			<path d="M-268.5227273305366,2358.103919390929 L-268.5227273305366,2301.934962093249 " />
			<path d="M-411.2192939920589,2444.8334287005728 L-411.2192939920589,2388.8298036638244 " />
			<path d="M-558.410087810986,2534.2944806328233 L-558.4100908750002,2478.4613993989087 " />

       </g>

       <!-- solid lines -->
       <g  stroke="rgb(0,0,0)" fill="none">
			<path d="M62.546789061612174,23.845813352574663 L-62.546789061612174,13.154011146833614 " />
			<path d="M-526.0765484171677,381.6050392548563 L-558.4102060981759,378.8414675535741 " />
			<path d="M-65.54304242983312,9.78214538135041 L-65.5394333114307,9.935337672257164 L-65.52861465090578,10.088777855337536 L-65.51061251135918,10.242096279750719 L-65.48547026152187,10.39492358798319 L-65.45324847127591,10.546891605663328 L-65.41402476573629,10.697634228525715 L-65.36789363824523,10.84678830438838 L-65.31496622272951,10.993994508018217 L-65.25537002596896,11.13889820677694 L-65.18924862042161,11.281150314962176 L-65.11676129834495,11.420408134785491 L-65.03808268804704,11.556336181961392 L-64.95340233319149,11.688606993918336 L-64.86292423617027,11.816901918684763 L-64.76686636664407,11.940911882549607 L-64.66546013643423,12.060338134647923 L-64.5589498420315,12.174892966677906 L-64.44759207606424,12.284300406015372 L-64.3316551091445,12.388296880556004 L-64.21141824358045,12.486631853683615 L-64.08717114051274,12.579068427834816 L-63.95921312209543,12.665383915205984 L-63.82785245040267,12.745370374227702 L-63.69340558479843,12.8188351105142 L-63.55619641955807,12.885601141081013 L-63.416555503578785,12.945507620712492 L-63.27481924405826,12.998410229452016 L-63.131329096060306,13.04418152028141 L-62.98643073991971,13.082711226151977 L-62.84047324846801,13.113906525627469 L-62.69380824608647,13.137692266499062 L-62.5467890616122,13.154011146833614 " />
			<path d="M-654.1663799086128,367.5413712836321 L-654.1652726538314,367.62616436508597 L-654.1619517078511,367.711084051666 L-654.1564195251595,367.79606757983544 L-654.1486801945537,367.88105213887286 L-654.1387394361176,367.96597491729494 L-654.1266045969953,368.05077314927973 L-654.1122846459601,368.135384161057 L-654.0957901667861,368.21974541722943 L-654.0771333504254,368.3037945669922 L-654.0563279859983,368.3874694902165 L-654.0333894506019,368.47070834336125 L-654.0083346979446,368.553449605182 L-653.9811822458161,368.63563212220026 L-653.9519521624004,368.717195153902 L-653.9206660514445,368.79807841763045 L-653.8873470362907,368.8782221331403 L-653.8520197427861,368.9575670667812 L-653.8147102810822,369.0360545752769 L-653.775446226337,369.1136266490677 L-653.7342565983339,369.19022595518555 L-653.6911718400345,369.2657958796277 L-653.6462237950772,369.34028056920033 L-653.5994456842424,369.4136249727989 L-653.5508720808994,369.4857748820961 L-653.500538885453,369.55667697160703 L-653.4484832988101,369.62627883810126 L-653.3947437948848,369.69452903933416 L-653.3393600921623,369.76137713206725 L-653.2823731243436,369.8267737093504 L-653.2238250100916,369.8906704370382 L-653.163759021901,369.9530200895136 L-653.1022195541169,370.01377658459165 " />
			<path d="M62.546789061612174,23.845813352574666 L62.656877076201205,23.853118816709458 L62.76681642546247,23.856206803245165 L62.8764586448292,23.855073142095407 L62.9856556709855,23.849719364181666 L63.0942600418144,23.840152699365895 L63.202125095534,23.826386066687157 L63.309105168752815,23.808438056915453 L63.41505579317692,23.78633290744634 L63.51983389070316,23.7601004695702 L63.62329796663504,23.729776168160395 L63.72530830076036,23.695400953834707 L63.825727136032484,23.65702124765472 L63.92441886460059,23.614688878437768 L64.02125021093755,23.568461012766143 L64.11609041181818,23.518400077788044 L64.2088113929048,23.46457367691458 " />
			<path d="M64.20881139290483,23.464573676914565 L64.28458237283847,23.41675490783045 L64.35871431570453,23.366402104638105 L64.43113730236969,23.313562758664805 L64.50178302553931,23.258286706474035 L64.570584854183,23.20062608286106 L64.63747789637908,23.140635271680868 L64.70239906051877,23.078370854554876 L64.76528711481242,23.01389155750476 L64.82608274504159,22.94725819556374 L64.88472861050246,22.878533615417588 L64.94116939808806,22.80778263612941 L64.99535187445795,22.735071988004172 L65.04722493624635,22.660470249650565 L65.09673965826147,22.58404778329963 L65.1438493396303,22.50587666844112 L65.18850954784547,22.42603063384013 L65.23067816067291,22.344584987998307 L65.27031540588017,22.26161654812495 L65.30738389874851,22.177203567685265 L65.34184867733312,22.091425662593878 L65.3736772354382,22.004363736123416 L65.40283955327588,21.916099902598834 L65.42930812578008,21.826717409949524 L65.45305798854841,21.736300561192248 L65.47406674138794,21.644934634918936 L65.49231456944244,21.552705804864353 L65.50778426188114,21.459701058629484 L65.52046122813154,21.366008115637324 L65.53033351164073,21.27171534439841 L65.53739180115264,21.176911679164164 L65.54162943948995,21.08168653604665 L65.54304242983312,20.98612972868385 " />
			<path d="M-526.0765484171677,381.6050392548563 L-525.9664604025787,381.6123447189911 L-525.8565210533175,381.6154327055268 L-525.7468788339507,381.61429904437705 L-525.6376818077944,381.6089452664633 L-525.5290774369655,381.5993786016476 L-525.4212123832459,381.5856119689688 L-525.314232310027,381.5676639591971 L-525.208281685603,381.545558809728 L-525.1035035880767,381.5193263718519 L-525.0000395121449,381.48900207044204 L-524.8980291780196,381.45462685611636 L-524.7976103427474,381.4162471499364 L-524.6989186141793,381.3739147807194 L-524.6020872678423,381.3276869150478 L-524.5072470669617,381.27762598006973 L-524.4145260858751,381.2237995791962 " />
			<path d="M65.54304242983312,20.986129728683846 L65.54304242983312,-9.78214538135041 " />
			<path d="M65.54304242983312,-9.78214538135041 L65.5394333114307,-9.93533767225716 L65.52861465090578,-10.088777855337534 L65.51061251135918,-10.242096279750717 L65.48547026152187,-10.394923587983188 L65.45324847127591,-10.546891605663326 L65.41402476573629,-10.697634228525715 L65.36789363824523,-10.84678830438838 L65.31496622272951,-10.993994508018217 L65.25537002596896,-11.138898206776942 L65.18924862042161,-11.281150314962177 L65.11676129834495,-11.420408134785493 L65.03808268804704,-11.556336181961392 L64.95340233319149,-11.688606993918334 L64.86292423617027,-11.816901918684763 L64.76686636664407,-11.940911882549605 L64.66546013643423,-12.060338134647921 L64.5589498420315,-12.174892966677904 L64.44759207606424,-12.284300406015372 L64.3316551091445,-12.388296880556004 L64.21141824358045,-12.486631853683614 L64.08717114051275,-12.579068427834812 L63.959213122095434,-12.665383915205982 L63.82785245040268,-12.7453703742277 L63.69340558479843,-12.8188351105142 L63.55619641955808,-12.885601141081011 L63.416555503578785,-12.94550762071249 L63.274819244058264,-12.998410229452016 L63.131329096060306,-13.04418152028141 L62.98643073991971,-13.082711226151977 L62.84047324846801,-13.113906525627469 L62.69380824608647,-13.137692266499062 L62.54678906161219,-13.154011146833614 " />
			<path d="M62.546789061612174,-13.154011146833614 L-62.546789061612174,-23.845813352574663 " />
			<path d="M-62.546789061612174,-23.845813352574666 L-62.656877076201205,-23.853118816709458 L-62.76681642546247,-23.856206803245165 L-62.8764586448292,-23.855073142095407 L-62.9856556709855,-23.849719364181666 L-63.0942600418144,-23.840152699365895 L-63.202125095534,-23.826386066687157 L-63.309105168752815,-23.808438056915453 L-63.41505579317692,-23.78633290744634 L-63.51983389070316,-23.7601004695702 L-63.62329796663505,-23.729776168160395 L-63.72530830076036,-23.695400953834707 L-63.825727136032484,-23.65702124765472 L-63.92441886460059,-23.614688878437768 L-64.02125021093755,-23.568461012766143 L-64.11609041181818,-23.518400077788044 L-64.20881139290482,-23.464573676914572 " />
			<path d="M-64.20881139290483,-23.464573676914565 L-64.28458237283847,-23.41675490783045 L-64.35871431570453,-23.366402104638105 L-64.43113730236969,-23.313562758664805 L-64.50178302553931,-23.258286706474035 L-64.570584854183,-23.20062608286106 L-64.63747789637908,-23.140635271680864 L-64.70239906051877,-23.078370854554876 L-64.76528711481242,-23.01389155750476 L-64.82608274504159,-22.94725819556374 L-64.88472861050246,-22.878533615417588 L-64.94116939808806,-22.80778263612941 L-64.99535187445795,-22.735071988004172 L-65.04722493624635,-22.660470249650565 L-65.09673965826147,-22.584047783299635 L-65.1438493396303,-22.50587666844112 L-65.18850954784547,-22.42603063384013 L-65.23067816067291,-22.344584987998307 L-65.27031540588017,-22.26161654812495 L-65.30738389874851,-22.177203567685265 L-65.34184867733312,-22.091425662593878 L-65.3736772354382,-22.004363736123416 L-65.40283955327588,-21.916099902598834 L-65.42930812578008,-21.826717409949524 L-65.45305798854841,-21.736300561192248 L-65.47406674138794,-21.644934634918936 L-65.49231456944244,-21.552705804864353 L-65.50778426188114,-21.459701058629488 L-65.52046122813154,-21.366008115637324 L-65.53033351164073,-21.27171534439841 L-65.53739180115264,-21.176911679164164 L-65.54162943948995,-21.08168653604665 L-65.54304242983312,-20.986129728683874 " />
			<path d="M-652.8321488716846,334.2946522253671 L-652.9079198516182,334.3424709944512 L-652.9820517944843,334.39282379764353 L-653.0544747811495,334.44566314361685 L-653.125120504319,334.50093919580763 L-653.1939223329628,334.5585998194206 L-653.2608153751588,334.6185906306008 L-653.3257365392985,334.68085504772677 L-653.3886245935922,334.7453343447769 L-653.4494202238213,334.8119677067179 L-653.5080660892822,334.8806922868641 L-653.5645068768679,334.95144326615224 L-653.6186893532378,335.02415391427746 L-653.6705624150261,335.0987556526311 L-653.7200771370412,335.175178118982 L-653.7671868184101,335.25334923384054 L-653.8118470266253,335.3331952684415 L-653.8540156394527,335.4146409142833 L-653.8936528846599,335.4976093541567 L-653.9307213775282,335.5820223345964 L-653.9651861561128,335.6678002396878 L-653.9970147142179,335.75486216615826 L-654.0261770320557,335.8431259996828 L-654.0526456045599,335.93250849233215 L-654.0763954673282,336.0229253410894 L-654.0974042201677,336.1142912673627 L-654.1156520482223,336.2065200974173 L-654.1311217406609,336.29952484365214 L-654.1437987069113,336.3932177866443 L-654.1536709904206,336.48751055788324 L-654.1607292799324,336.58231422311746 L-654.1649669182698,336.677539366235 L-654.1663799086128,336.77309617359776 " />
			<path d="M-65.54304242983312,9.78214538135041 L-65.54304242983312,-20.986129728683846 " />
			<path d="M-654.166379908613,367.54137128363203 L-654.166379908613,336.7730961735978 " />
			<path d="M15.560488566718487,2220.0362047680933 L-61.75365705593963,2213.748990156709 " />
			<path d="M-574.4588402624479,2579.3275129030676 L-651.772985885106,2573.0402982916835 " />
			<path d="M-64.7626368487387,2210.3892815902927 L-64.75835386850626,2210.5424765347134 L-64.74686545627672,2210.695889206531 L-64.72819928864138,2210.8491500211812 L-64.70240033403304,2211.0018897599375 L-64.66953074439309,2211.1537404593914 L-64.62966970544198,2211.304336297907 L-64.58291324591397,2211.453314476919 L-64.52937400621546,2211.6003160949444 L-64.46918096706435,2211.7449870122105 L-64.40247913876425,2211.886978703805 L-64.32942921186192,2212.0259490993067 L-64.2502071700297,2212.1615634068603 L-64.16500386610537,2212.29349491972 L-64.07402456231102,2212.4214258033157 L-63.97748843575836,2212.5450478609437 L-63.87562805043179,2212.664063276239 L-63.768688796921495,2212.7781853306415 L-63.65692830125595,2212.8871390941267 L-63.54061580425828,2212.990662087534 L-63.42003151292152,2213.088504914906 L-63.29546592536543,2213.180431864301 L-63.1672191310011,2213.266221475646 L-63.03560008758924,2213.3456670742535 L-62.9009258769339,2213.418577268717 L-62.763520941004614,2213.4847764119922 L-62.62371630032729,2213.544105024545 L-62.48184875652676,2213.596420178551 L-62.338260080942156,2213.6415958422212 L-62.19329619126986,2213.6795231834258 L-62.047306318217416,2213.710110831878 L-61.900642164176226,2213.7332850992525 L-61.753657055939655,2213.7489901567096 " />
			<path d="M-654.7819656779051,2569.680589725266 L-654.7776826976727,2569.833784669687 L-654.7661942854431,2569.9871973415043 L-654.7475281178079,2570.1404581561546 L-654.7217291631995,2570.293197894911 L-654.6888595735595,2570.445048594365 L-654.6489985346084,2570.5956444328804 L-654.6022420750804,2570.7446226118923 L-654.5487028353818,2570.891624229918 L-654.4885097962308,2571.036295147184 L-654.4218079679307,2571.1782868387786 L-654.3487580410284,2571.31725723428 L-654.2695359991961,2571.4528715418337 L-654.1843326952718,2571.5848030546936 L-654.0933533914774,2571.712733938289 L-653.9968172649249,2571.836355995917 L-653.8949568795982,2571.9553714112126 L-653.7880176260879,2572.069493465615 L-653.6762571304224,2572.1784472291 L-653.5599446334247,2572.2819702225074 L-653.439360342088,2572.3798130498794 L-653.3147947545318,2572.4717399992746 L-653.1865479601676,2572.5575296106194 L-653.0549289167557,2572.636975209227 L-652.9202547061003,2572.7098854036904 L-652.7828497701711,2572.7760845469656 L-652.6430451294938,2572.8354131595183 L-652.5011775856932,2572.8877283135243 L-652.3575889101086,2572.9329039771947 L-652.2126250204363,2572.970831318399 L-652.0666351473839,2573.0014189668514 L-651.9199709933426,2573.024593234226 L-651.7729858851061,2573.040298291683 " />
			<path d="M15.560488566718485,2220.0362047680933 L15.669885425812696,2220.043022220532 L15.779117914506704,2220.045671600371 L15.888040244867002,2220.0441493715975 L15.996507042915148,2220.038457565865 L16.104373542652215,2220.0286037797828 L16.211495779271765,2220.014601164778 L16.31773078130353,2219.996468409543 L16.422936761431323,2219.9742297150906 L16.526973305730504,2219.9479147624556 L16.62970156107245,2219.9175586730807 L16.730984420445882,2219.8832019619413 L16.830686705947734,2219.84489048347 L16.928675349199338,2219.8026753703602 L17.024819568947073,2219.756612965319 L17.11899104561054,2219.7067647458694 L17.211064092545172,2219.6531972422986 " />
			<path d="M17.211064092545197,2219.6531972422986 L17.287011934856853,2219.60516967479 L17.36130687409465,2219.554591824265 L17.433878345642153,2219.501511729078 L17.504657421815914,2219.4459798041917 L17.57357687733231,2219.3880487932915 L17.640571253157486,2219.3277737186936 L17.705576918679693,2219.265211829082 L17.768532132145047,2219.2004225451356 L17.829377099299236,2219.1334674030913 L17.88805403017954,2219.064409996297 L17.94450719400317,2218.9933159148113 L17.99868297209982,2218.9202526831064 L18.0505299088382,2218.8452896959357 L18.099998760498046,2218.7684981524203 L18.147042542041365,2218.689950988428 L18.19161657173837,2218.6097228072967 L18.233678513605728,2218.527889808979 L18.273188417616907,2218.444529717667 L18.3101087576463,2218.359721707971 L18.344404467111183,2218.273546329721 L18.376042972277617,2218.1860854314587 L18.404994223198667,2218.097422082702 L18.431230722255552,2218.007640495044 L18.45472755027462,2217.9168259421704 L18.475462390195332,2217.825064678867 L18.4934155482668,2217.7324438590967 L18.508569972752714,2217.6390514532204 L18.520911270126913,2217.544976164444 L18.530427718744235,2217.450307344569 L18.537110279973607,2217.3551349091267 L18.540952606782845,2217.2595492519786 L18.54195104976703,2217.1636411594595 " />
			<path d="M-574.4588402624479,2579.3275129030676 L-574.3494434033537,2579.334330355506 L-574.2402109146597,2579.3369797353453 L-574.1312885842993,2579.335457506572 L-574.0228217862513,2579.3297657008393 L-573.9149552865141,2579.319911914757 L-573.8078330498946,2579.3059092997523 L-573.7015980478628,2579.2877765445173 L-573.596392067735,2579.265537850065 L-573.4923555234359,2579.23922289743 L-573.3896272680939,2579.208866808055 L-573.2883444087205,2579.1745100969156 L-573.1886421232186,2579.1361986184443 L-573.090653479967,2579.0939835053346 L-572.9945092602193,2579.0479211002935 L-572.9003377835559,2578.9980728808437 L-572.8082647366211,2578.944505377273 " />
			<path d="M18.541951049767025,2217.1636411594595 L18.406084332873842,2186.3917972951463 " />
			<path d="M18.406084332873846,2186.391797295146 L18.40180135264142,2186.238602350725 L18.390312940411878,2186.0851896789077 L18.371646772776536,2185.9319288642573 L18.345847818168203,2185.779189125501 L18.31297822852824,2185.627338426047 L18.273117189577135,2185.4767425875316 L18.226360730049134,2185.3277644085197 L18.17282149035062,2185.180762790494 L18.112628451199512,2185.036091873228 L18.04592662289941,2184.8941001816333 L17.972876695997083,2184.755129786132 L17.893654654164852,2184.6195154785783 L17.808451350240528,2184.4875839657184 L17.717472046446186,2184.359653082123 L17.62093591989352,2184.236031024495 L17.51907553456695,2184.1170156091994 L17.412136281056657,2184.002893554797 L17.30037578539111,2183.893939791312 L17.18406328839344,2183.7904167979045 L17.063478997056674,2183.6925739705325 L16.938913409500586,2183.6006470211373 L16.810666615136256,2183.5148574097925 L16.6790475717244,2183.435411811185 L16.544373361069056,2183.3625016167216 L16.406968425139773,2183.2963024734463 L16.267163784462447,2183.2369738608936 L16.12529624066191,2183.1846587068876 L15.981707565077313,2183.1394830432173 L15.836743675405016,2183.101555702013 L15.690753802352578,2183.0709680535606 L15.544089648311385,2183.047793786186 L15.3971045400748,2183.032088728729 " />
			<path d="M-61.91704108258333,2176.7448741173453 L-62.026437941677536,2176.7380566649067 L-62.13567043037155,2176.7354072850676 L-62.24459276073185,2176.736929513841 L-62.35305955878,2176.7426213195736 L-62.46092605851706,2176.752475105656 L-62.56804829513661,2176.7664777206605 L-62.67428329716837,2176.7846104758955 L-62.77948927729617,2176.806849170348 L-62.88352582159535,2176.833164122983 L-62.98625407693729,2176.863520212358 L-63.08753693631073,2176.8978769234973 L-63.18723922181258,2176.9361884019686 L-63.285227865064186,2176.9784035150783 L-63.38137208481192,2177.0244659201194 L-63.475543561475384,2177.074314139569 L-63.56761660841003,2177.12788164314 " />
			<path d="M-63.56761660841004,2177.12788164314 L-63.6435644507217,2177.1759092106486 L-63.71785938995949,2177.2264870611734 L-63.790430861507,2177.2795671563604 L-63.861209937680755,2177.335099081247 L-63.930129393197156,2177.393030092147 L-63.99712376902233,2177.453305166745 L-64.06212943454454,2177.5158670563565 L-64.12508464800989,2177.580656340303 L-64.18592961516408,2177.647611482347 L-64.24460654604438,2177.7166688891416 L-64.30105970986801,2177.787762970627 L-64.35523548796466,2177.860826202332 L-64.40708242470305,2177.935789189503 L-64.45655127636289,2178.0125807330182 L-64.50359505790621,2178.0911278970107 L-64.54816908760321,2178.171356078142 L-64.59023102947057,2178.2531890764594 L-64.62974093348176,2178.3365491677714 L-64.66666127351115,2178.4213571774676 L-64.70095698297602,2178.5075325557177 L-64.73259548814247,2178.59499345398 L-64.7615467390635,2178.6836568027366 L-64.7877832381204,2178.7734383903944 L-64.81128006613946,2178.864252943268 L-64.83201490606018,2178.9560142065716 L-64.84996806413164,2179.048635026342 L-64.86512248861756,2179.142027432218 L-64.87746378599176,2179.2361027209945 L-64.88698023460908,2179.3307715408696 L-64.89366279583845,2179.425943976312 L-64.89750512264769,2179.52152963346 L-64.89850356563187,2179.617437725979 " />
			<path d="M-653.5869454375766,2536.419189778114 L-653.6628932798882,2536.4672173456224 L-653.737188219126,2536.5177951961473 L-653.8097596906734,2536.5708752913342 L-653.8805387668473,2536.6264072162207 L-653.9494582223637,2536.684338227121 L-654.0164525981888,2536.744613301719 L-654.081458263711,2536.8071751913303 L-654.1444134771764,2536.871964475277 L-654.2052584443306,2536.938919617321 L-654.2639353752108,2537.0079770241155 L-654.3203885390345,2537.079071105601 L-654.3745643171312,2537.152134337306 L-654.4264112538696,2537.2270973244767 L-654.4758801055294,2537.303888867992 L-654.5229238870727,2537.3824360319845 L-654.5674979167698,2537.4626642131157 L-654.6095598586371,2537.5444972114333 L-654.6490697626483,2537.6278573027453 L-654.6859901026777,2537.7126653124415 L-654.7202858121425,2537.7988406906916 L-654.751924317309,2537.8863015889538 L-654.78087556823,2537.9749649377104 L-654.8071120672869,2538.0647465253683 L-654.830608895306,2538.155561078242 L-654.8513437352267,2538.2473223415454 L-654.8692968932982,2538.3399431613157 L-654.884451317784,2538.433335567192 L-654.8967926151582,2538.5274108559684 L-654.9063090637756,2538.6220796758435 L-654.9129916250049,2538.7172521112857 L-654.9168339518142,2538.812837768434 L-654.9178323947983,2538.908745860953 " />
			<path d="M-64.7626368487387,2210.3892815902923 L-64.89850356563188,2179.617437725979 " />
			<path d="M-654.7819656779051,2569.680589725267 L-654.9178323947982,2538.908745860954 " />
			<path d="M14.793987013494633,19.76437340266886 L-62.5468030644558,13.154022648421817 " />
			<path d="M14.793852558974635,2183.9620845348763 L-62.546937518975795,2177.3517337806297 " />
			<path d="M-66.66665144506564,13.580840563043454 L-66.60791013253933,13.547640280281746 L-66.54209209617419,13.515136925728692 L-66.46935589738479,13.483408802812367 L-66.38987676404496,13.452532347359934 L-66.30384616834846,13.422581943457036 L-66.2114713655357,13.393629744250017 L-66.11297489459777,13.365745498122685 L-66.0085940421604,13.338996380666329 L-65.89858027083979,13.313446832847845 L-65.78319861344714,13.289158405765809 L-65.66272703450134,13.266189612368475 L-65.53745576058814,13.244595786490965 L-65.40768658117887,13.224428949551212 L-65.27373212159314,13.205737685225815 L-64.99456749927165,13.17295832672754 L-64.70265040154354,13.146573394137505 L-64.40079214963805,13.126836988780015 L-64.09189980353354,13.113939183027686 L-63.77894816538072,13.108004189800567 L-63.46495113053177,13.109089166327834 L-63.15293266208054,13.11718366369242 L-62.84589766844484,13.132209727459804 L-62.54680306445582,13.154022648421819 " />
			<path d="M-66.66678589958565,2177.7785516952513 L-66.62395133737114,2177.753890793846 L-66.57721102317274,2177.7296011731987 L-66.47226546936918,2177.682263728038 L-66.3525041960953,2177.6367896828096 L-66.21856050761929,2177.593419506792 L-66.07114270560905,2177.552382543886 L-65.9110303435936,2177.5138957998315 L-65.7390701046407,2177.47816279467 L-65.55617132404974,2177.4453724865184 L-65.36330118073614,2177.415698272349 L-65.16147958273554,2177.389297071054 L-64.95177377387334,2177.3663084936543 L-64.73529269012013,2177.346854105024 L-64.51318109547664,2177.331036781051 L-64.28661352839805,2177.3189401646237 L-64.0567880907694,2177.3106282233225 L-63.824920112276274,2177.306144911154 " />
			<path d="M14.793987013494629,19.76437340266886 L15.017518779784371,19.78571259770336 L15.2333240167975,19.810846267343518 L15.440164960198295,19.839630255866624 L15.636855260913624,19.871899470919377 L15.8222667895117,19.907468830415326 L15.995336106658488,19.94613432408466 L16.155070562540033,19.987674183587792 L16.300553990267098,20.031850154481432 L16.43095196060723,20.07840886274174 L16.490256678112836,20.102498785730003 L16.54551656790545,20.127083268006764 L16.596652364928318,20.152127045470156 L16.643590719743553,20.177594195203035 L16.686264303744956,20.203448187001005 L16.724611905734477,20.229651935771514 L16.758578519723876,20.256167854728893 L16.788115423835567,20.28295790930903 L16.81318025018952,20.309983671726325 L16.833737045675967,20.337206376094713 L16.849756323526705,20.36458697403362 L16.861215105611073,20.392086190679162 L16.868096955395888,20.419664581020207 L16.870392001522085,20.447282586478465 " />
			<path d="M16.870392001522085,20.447282586478472 L16.867174629188938,20.479980169547215 L16.857528985926145,20.512612002070746 L16.84147446773757,20.545112466118532 L16.81904335795448,20.57741620792319 L16.79028076231841,20.60945826929752 L16.755244518279984,20.641174218256097 L16.714005078696108,20.672500278578756 L16.666645370159397,20.7033734580554 " />
			<path d="M-77.76215222011463,20.83674855842886 L-77.80951192481524,20.80587537306761 L-77.85075136050673,20.77454930762081 L-77.88578760060435,20.742833354308857 L-77.91455019225909,20.710791289360678 L-77.93698129802831,20.678487544768878 L-77.9530358121786,20.64598707872626 L-77.96268145138677,20.613355245004225 L-77.96589881965713,20.580657661535717 " />
			<path d="M-77.96589881965713,20.580657661535714 L-77.96268144732399,20.547960078466975 L-77.95303580406119,20.515328245943444 L-77.93698128587262,20.482827781895654 L-77.91455017608953,20.450524040090997 L-77.88578758045345,20.418481978716667 L-77.85075133641503,20.38676602975809 L-77.80951189683115,20.35543996943543 L-77.76215218829445,20.32456678995879 " />
			<path d="M-75.88962828614969,2185.461277977553 L-76.11316005243943,2185.4399387825188 L-76.32896528945255,2185.4148051128786 L-76.53580623285335,2185.3860211243555 L-76.73249653356868,2185.3537519093024 L-76.91790806216676,2185.318182549807 L-77.09097737931354,2185.279517056137 L-77.25071183519509,2185.2379771966343 L-77.39619526292215,2185.1938012257406 L-77.52659323326229,2185.14724251748 L-77.58589795076789,2185.1231525944922 L-77.64115784056051,2185.098568112215 L-77.69229363758338,2185.0735243347517 L-77.7392319923986,2185.048057185019 L-77.7819055764,2185.0222031932212 L-77.82025317838954,2184.9959994444507 L-77.85421979237893,2184.969483525493 L-77.88375669649062,2184.942693470913 L-77.90882152284458,2184.9156677084957 L-77.92937831833102,2184.8884450041273 L-77.94539759618176,2184.8610644061882 L-77.95685637826612,2184.8335651895427 L-77.96373822805094,2184.805986799202 L-77.96603327417714,2184.7783687937435 " />
			<path d="M-77.96603327417714,2184.7783687937435 L-77.962815901844,2184.745671210675 L-77.9531702585812,2184.7130393781513 L-77.93711574039263,2184.6805389141036 L-77.91468463060954,2184.648235172299 L-77.88592203497346,2184.6161931109245 L-77.85088579093504,2184.584477161966 L-77.80964635135116,2184.5531511016434 L-77.76228664281446,2184.5222779221667 " />
			<path d="M-66.66665144506565,13.580840563043452 L-77.76215218829445,20.324566789958787 " />
			<path d="M-66.66678589958565,2177.7785516952513 L-77.76228664281444,2184.5222779221663 " />
			<path d="M-127.90256565593144,106.49387122140433 L-205.24335572313453,99.88352045647761 " />
			<path d="M-209.3632041044383,100.3103389078046 L-209.30446279185801,100.27713859868821 L-209.23864475544002,100.24463521784496 L-209.16590855659902,100.21290706876626 L-209.086429423209,100.1820305873423 L-209.0003988274638,100.15208015772129 L-208.90802402460398,100.12312793311153 L-208.8095275536207,100.09524366195805 L-208.70514670113982,100.06849451991239 L-208.5951329297777,100.04294494800071 L-208.47975127234557,100.01865649737962 L-208.35927969336242,99.99568768105408 L-208.2340084194141,99.97409383291446 L-208.10423923997203,99.9539269744323 L-207.9702847803559,99.93523568933612 L-207.69112015798115,99.90245629180932 L-207.39920306021014,99.87607132385125 L-207.09734480827254,99.85633488712683 L-206.78845246214706,99.84343705431078 L-206.4755008239846,99.83750203858378 L-206.1615037891374,99.83858699739169 L-205.84948532069933,99.84668148198809 L-205.5424503270881,99.86170753806142 L-205.24335572313453,99.88352045647761 " />
			<path d="M-209.36320410443827,2264.5079682455616 L-209.31750904368099,2264.4817492101533 L-209.26739932053806,2264.45595257067 L-209.21294990980638,2264.430616924368 L-209.15424227937797,2264.4057801787603 L-209.02440995558175,2264.3577512317643 L-208.8786790855119,2264.3121530682165 L-208.7179215203579,2264.2692584842175 L-208.54309901018905,2264.229324101402 L-208.35525745017748,2264.1925888316705 L-208.15552062341345,2264.159272447873 L-207.9450834777479,2264.129574268992 L-207.7252049768832,2264.103671967697 L-207.49720056848278,2264.0817205073954 L-207.26243431435842,2264.0638512151468 L-207.0223107298184,2264.0501709959863 L-206.77826638099788,2264.040761693351 L-206.5317612904418,2264.035679599444 L-206.28427020235713,2264.0349551184595 " />
			<path d="M-127.90256565593145,106.49387122140435 L-127.67903389231246,106.51521041773165 L-127.46322865777594,106.54034409164696 L-127.25638771661377,106.56912808740647 L-127.05969741785782,106.60139731261933 L-126.87428589090158,106.63696668514527 L-126.70121657504417,106.67563219464462 L-126.54148212006838,106.71717207269232 L-126.3959986928363,106.76134806474442 L-126.26560072255754,106.80790679666181 L-126.20629600491412,106.83199673237571 L-126.1510361148688,106.85658122795324 L-126.0999003174768,106.88162501927428 L-126.05296196217478,106.90709218340267 L-126.01028837756802,106.93294619011424 L-125.97194077485396,106.95914995429592 L-125.93797416002059,106.98566588914088 L-125.90843725494551,107.0124559600631 L-125.88337242750912,107.03948173925446 L-125.8628156308219,107.06670446080577 L-125.84679635165304,107.09408507631274 L-125.83533756813455,107.12158431088723 L-125.8284557168013,107.14916271949333 L-125.8261606690143,107.17678074352753 " />
			<path d="M-125.8261606690143,107.17678074352753 L-125.82937803957662,107.20947835067264 L-125.83902368159278,107.24211020761857 L-125.8550781990598,107.27461069638035 L-125.87750930864532,107.30691446313563 L-125.90627190460448,107.33895654964175 L-125.94130814948137,107.37067252385756 L-125.98254759041168,107.40199860950693 L-126.02990730079335,107.43287181432372 " />
			<path d="M-220.4587048586315,107.5662525803634 L-220.50606456901318,107.5353793755466 L-220.5473040099435,107.50405328989724 L-220.58234025482037,107.47233731568143 L-220.61110285077956,107.4402952291753 L-220.63353396036504,107.40799146242003 L-220.64958847783208,107.37549097365824 L-220.65923411984824,107.34285911671232 L-220.66245149041055,107.31016150956721 " />
			<path d="M-220.66245149041055,107.31016150956721 L-220.65923411984824,107.2774639024221 L-220.64958847783208,107.24483204547617 L-220.63353396036504,107.21233155671439 L-220.61110285077956,107.18002778995911 L-220.58234025482037,107.14798570345299 L-220.54730400994347,107.11626972923717 L-220.50606456901318,107.0849436435878 L-220.4587048586315,107.05407043877102 " />
			<path d="M-219.4843289344272,2272.073109357771 L-219.61863702744614,2272.046710590759 L-219.7463220321695,2272.0186564406727 L-219.86699174252513,2271.989033080574 L-219.98027550110322,2271.957931503621 L-220.08582533769308,2271.925447243563 L-220.1833170381326,2271.8916800812963 L-220.27245114018672,2271.8567337383656 L-220.35295385339637,2271.82071555837 L-220.42457790007208,2271.783736177237 L-220.48710327484923,2271.7459091833853 L-220.5403379204718,2271.70735076882 L-220.5841183177285,2271.6681793722278 L-220.61830998772976,2271.628515315174 L-220.63177606957532,2271.6085365634594 L-220.64280790498245,2271.5884804325137 L-220.6513970207874,2271.5683623267428 L-220.6575368199933,2271.5481976981546 L-220.66122258683686,2271.52800203449 L-220.66245149041052,2271.5077908473245 " />
			<path d="M-220.66245149041052,2271.5077908473245 L-220.6592341198482,2271.4750932401794 L-220.64958847783205,2271.4424613832334 L-220.633533960365,2271.4099608944716 L-220.61110285077953,2271.3776571277162 L-220.58234025482034,2271.3456150412103 L-220.54730400994345,2271.3138990669945 L-220.50606456901315,2271.2825729813453 L-220.45870485863148,2271.2516997765283 " />
			<path d="M-209.36320410443835,100.3103389078046 L-220.4587048586315,107.05407043877102 " />
			<path d="M-209.36320410443832,2264.5079682455616 L-220.45870485863148,2271.251699776528 " />
			<path d="M-270.5991323174538,193.22338053104838 L-347.9399223846569,186.61302976612163 " />
			<path d="M-352.0597707659607,187.03984821744862 L-352.0010294533804,187.00664790833224 L-351.93521141696243,186.974144527489 L-351.86247521812146,186.9424163784103 L-351.7829960847314,186.9115398969863 L-351.6969654889862,186.88158946736533 L-351.6045906861264,186.85263724275558 L-351.5060942151431,186.82475297160207 L-351.40171336266224,186.79800382955642 L-351.29169959130013,186.77245425764474 L-351.17631793386795,186.74816580702364 L-351.0558463548848,186.72519699069812 L-350.93057508093653,186.70360314255848 L-350.80080590149447,186.68343628407635 L-350.66685144187835,186.66474499898015 L-350.38768681950353,186.63196560145335 L-350.09576972173255,186.60558063349526 L-349.793911469795,186.58584419677086 L-349.4850191236695,186.57294636395483 L-349.172067485507,186.56701134822782 L-348.85807045065985,186.56809630703572 L-348.54605198222174,186.57619079163211 L-348.2390169886105,186.59121684770545 L-347.93992238465694,186.61302976612163 " />
			<path d="M-352.05977076596065,2351.2374775552057 L-352.0108543180951,2351.209515852607 L-351.9569171616554,2351.1820380262106 L-351.8980511771259,2351.1550908837485 L-351.83435664111613,2351.128720328948 L-351.7659420555421,2351.1029712833347 L-351.69292396279627,2351.0778876097097 L-351.53358242322304,2351.0298860896264 L-351.35741729599465,2350.985042706562 L-351.16562843999304,2350.94366288834 L-350.95952212715713,2350.906028472479 L-350.74050214547816,2350.8723957866023 L-350.5100602378139,2350.8429939025887 L-350.2697659416433,2350.81802307637 L-350.0212558989628,2350.7976533839887 L-349.7662227091345,2350.7820235632116 L-349.5064034006089,2350.771240068588 L-349.2435676000421,2350.7653763463904 L-348.97950547938683,2350.76447233437 L-348.71601556304915,2350.7685341897436 " />
			<path d="M-270.5991323174538,193.22338053104835 L-270.37560055383483,193.24471972737564 L-270.1597953192983,193.26985340129093 L-269.95295437813616,193.29863739705044 L-269.7562640793802,193.3309066222633 L-269.5708525524239,193.36647599478925 L-269.3977832365665,193.4051415042886 L-269.23804878159075,193.4466813823363 L-269.09256535435867,193.4908573743884 L-268.9621673840799,193.5374161063058 L-268.9028626664365,193.56150604201972 L-268.84760277639117,193.58609053759724 L-268.79646697899915,193.61113432891827 L-268.74952862369713,193.63660149304664 L-268.7068550390904,193.6624554997582 L-268.66850743637633,193.6886592639399 L-268.63454082154294,193.71517519878486 L-268.60500391646787,193.7419652697071 L-268.5799390890315,193.76899104889844 L-268.55938229234425,193.79621377044975 L-268.5433630131754,193.8235943859567 L-268.5319042296569,193.85109362053123 L-268.5250223783236,193.87867202913733 L-268.52272733053667,193.90629005317152 " />
			<path d="M-268.52272733053667,193.90629005317152 L-268.525944701099,193.93898766031663 L-268.53559034311513,193.97161951726255 L-268.55164486058214,194.00412000602435 L-268.57407597016766,194.0364237727796 L-268.6028385661268,194.06846585928574 L-268.6378748110037,194.10018183350155 L-268.67911425193404,194.13150791915092 L-268.7264739623157,194.16238112396772 " />
			<path d="M-363.15527152015386,194.2957618900074 L-363.20263123053553,194.2648886851906 L-363.24387067146586,194.23356259954124 L-363.27890691634275,194.20184662532543 L-363.3076695123019,194.1698045388193 L-363.3301006218874,194.13750077206404 L-363.34615513935444,194.10500028330225 L-363.3558007813706,194.07236842635632 L-363.3590181519329,194.0396708192112 " />
			<path d="M-363.3590181519329,194.0396708192112 L-363.3558007813706,194.0069732120661 L-363.34615513935444,193.97434135512017 L-363.3301006218874,193.94184086635838 L-363.3076695123019,193.9095370996031 L-363.27890691634275,193.877495013097 L-363.24387067146586,193.84577903888118 L-363.20263123053553,193.8144529532318 L-363.15527152015386,193.783579748415 " />
			<path d="M-361.96880566911864,2358.838799113262 L-362.12532667446493,2358.812711056757 L-362.2746276178659,2358.7845101566704 L-362.41616028318595,2358.75429996351 L-362.54940497852556,2358.722191405681 L-362.6738724444714,2358.688302382165 L-362.78910565060124,2358.6527573296153 L-362.8946814736479,2358.6156867654336 L-362.9902122511598,2358.5772268085293 L-363.07534720495363,2358.537518679503 L-363.1497737291321,2358.4967081821023 L-363.2132185379373,2358.454945167846 L-363.26544866922484,2358.4123829857876 L-363.28729666971753,2358.3908509464277 L-363.3062723398749,2358.3691779194332 L-363.3223582565702,2358.3473838045957 L-363.33553964999754,2358.325488612888 L-363.34580441723324,2358.3035124480907 L-363.3531431333485,2358.281475488332 L-363.3575490600632,2358.2593979675607 L-363.35901815193284,2358.237300156968 " />
			<path d="M-363.35901815193284,2358.237300156968 L-363.35580078137053,2358.204602549823 L-363.3461551393544,2358.171970692877 L-363.33010062188737,2358.1394702041152 L-363.30766951230186,2358.10716643736 L-363.2789069163427,2358.075124350854 L-363.2438706714658,2358.043408376638 L-363.2026312305355,2358.012082290989 L-363.1552715201538,2357.981209086172 " />
			<path d="M-352.0597707659607,187.03984821744862 L-363.15527152015386,193.783579748415 " />
			<path d="M-352.05977076596065,2351.2374775552057 L-363.1552715201538,2357.981209086172 " />
			<path d="M-413.2956989789761,279.9528898406923 L-490.6364890461792,273.3425390757656 " />
			<path d="M-494.756337427483,273.7693575270926 L-494.6975961149027,273.7361572179762 L-494.63177807848473,273.70365383713295 L-494.55904187964376,273.6719256880542 L-494.4795627462537,273.64104920663027 L-494.3935321505085,273.61109877700926 L-494.3011573476487,273.58214655239954 L-494.2026608766654,273.55426228124605 L-494.09828002418453,273.5275131392004 L-493.9882662528224,273.5019635672887 L-493.87288459539025,273.4776751166676 L-493.7524130164071,273.4547063003421 L-493.62714174245883,273.43311245220247 L-493.49737256301677,273.4129455937203 L-493.36341810340065,273.3942543086241 L-493.0842534810258,273.36147491109733 L-492.79233638325485,273.3350899431392 L-492.4904781313173,273.31535350641485 L-492.18158578519177,273.3024556735988 L-491.8686341470293,273.2965206578718 L-491.55463711218215,273.2976056166797 L-491.24261864374404,273.3057001012761 L-490.9355836501328,273.3207261573494 L-490.63648904617924,273.3425390757656 " />
			<path d="M-494.75633742748295,2437.96698686485 L-494.70424723883207,2437.9373205076768 L-494.6465058746851,2437.908202647742 L-494.58322416673246,2437.8796891753377 L-494.51452358108037,2437.8518348206617 L-494.4405359851025,2437.82469304877 L-494.3614033943271,2437.7983159569494 L-494.27727769984546,2437.7727541747226 L-494.18832037676407,2437.7480567666653 L-493.9966027878437,2437.701442944752 L-493.7877218909128,2437.658832211167 L-493.56328066256424,2437.620551565696 L-493.325001491206,2437.5868947785184 L-493.0747129592499,2437.5581201357813 L-492.8143358103545,2437.5344484574807 L-492.5458682094126,2437.5160614028623 L-492.2713704083984,2437.5031000763474 L-491.9929489357513,2437.4956639446827 L-491.7127404306287,2437.4938100736167 L-491.4328952460856,2437.4975526899752 L-491.1555609470122,2437.506863072479 " />
			<path d="M-413.29569897897613,279.95288984069236 L-413.0721672153572,279.97422903701965 L-412.8563619808207,279.999362710935 L-412.6495210396585,280.0281467066945 L-412.4528307409025,280.06041593190736 L-412.26741921394625,280.09598530443327 L-412.09434989808886,280.13465081393264 L-411.9346154431131,280.1761906919803 L-411.789132015881,280.22036668403246 L-411.6587340456023,280.2669254159498 L-411.59942932795883,280.2910153516637 L-411.5441694379135,280.31559984724123 L-411.4930336405215,280.34064363856226 L-411.4460952852195,280.3661108026907 L-411.40342170061274,280.3919648094022 L-411.3650740978987,280.41816857358396 L-411.3311074830653,280.4446845084289 L-411.3015705779902,280.4714745793511 L-411.27650575055384,280.49850035854246 L-411.2559489538666,280.52572308009377 L-411.23992967469775,280.5531036956007 L-411.22847089117926,280.58060293017525 L-411.221589039846,280.6081813387813 L-411.219293992059,280.63579936281553 " />
			<path d="M-411.219293992059,280.63579936281553 L-411.22251136262133,280.66849696996064 L-411.2321570046375,280.70112882690654 L-411.2482115221045,280.73362931566834 L-411.27064263169,280.7659330824236 L-411.2994052276492,280.7979751689298 L-411.33444147252607,280.82969114314557 L-411.3756809134564,280.86101722879494 L-411.42304062383806,280.8918904336117 " />
			<path d="M-505.85183818167616,281.02527119965134 L-505.8991978920578,280.99439799483457 L-505.94043733298815,280.9630719091852 L-505.97547357786505,280.9313559349694 L-506.0042361738242,280.89931384846324 L-506.0266672834097,280.867010081708 L-506.04272180087673,280.8345095929462 L-506.0523674428929,280.8018777360003 L-506.0555848134552,280.76918012885517 " />
			<path d="M-506.0555848134552,280.76918012885517 L-506.0523674428929,280.73648252171006 L-506.04272180087673,280.70385066476416 L-506.0266672834097,280.67135017600236 L-506.0042361738242,280.6390464092471 L-505.97547357786505,280.6070043227409 L-505.94043733298815,280.57528834852513 L-505.8991978920578,280.54396226287577 L-505.85183818167616,280.513089058059 " />
			<path d="M-504.44552002399064,2445.5997619802206 L-504.6243495121259,2445.5746146062997 L-504.7955523250215,2445.5468464584496 L-504.95839025919855,2445.516577269185 L-505.1121611794088,2445.4839375551746 L-505.2562020461477,2445.449068054471 L-505.3898917745909,2445.4121191196664 L-505.5126539126291,2445.373250069593 L-505.62395912645127,2445.3326285023613 L-505.7233274829613,2445.2904295727003 L-505.8103305191845,2445.246835236713 L-505.8845930897425,2445.202033467307 L-505.91684444940216,2445.179239982839 L-505.9457949844296,2445.15621744368 L-505.97141347870775,2445.132990674044 L-505.99367230891585,2445.109584718357 L-506.01254747431443,2445.086024814256 L-506.02801862262424,2445.0623363653713 L-506.0400690719713,2445.0385449139394 L-506.0486858288743,2445.0146761132596 L-506.05385960225465,2444.990755700033 L-506.05558481345514,2444.966809466612 " />
			<path d="M-506.05558481345514,2444.966809466612 L-506.05236744289283,2444.934111859467 L-506.0427218008767,2444.901480002521 L-506.02666728340967,2444.8689795137593 L-506.00423617382415,2444.836675747004 L-505.975473577865,2444.804633660498 L-505.9404373329881,2444.772917686282 L-505.89919789205777,2444.741591600633 L-505.8518381816761,2444.710718395816 " />
			<path d="M-494.756337427483,273.7693575270926 L-505.85183818167616,280.51308905805905 " />
			<path d="M-494.75633742748295,2437.96698686485 L-505.8518381816761,2444.710718395816 " />
			<path d="M-560.4866115648557,369.4140136598404 L-637.8274016308834,362.8036628941993 " />
			<path d="M-641.9472500122631,363.2304818196444 L-641.8885086996769,363.1972814872628 L-641.8226906632532,363.1647780832105 L-641.7499544644065,363.13304991103473 L-641.670475331011,363.10217340668135 L-641.5844447352605,363.0722229543539 L-641.4920699323955,363.0432707073153 L-641.3935734614073,363.01538641406455 L-641.2891926089217,362.98863725030657 L-641.179178837555,362.96308765711973 L-641.0637971801185,362.9387991857119 L-640.9433256011313,362.91583034913816 L-640.8180543271791,362.8942364813376 L-640.6882851477335,362.87406960382924 L-640.5543306881141,362.8553783003873 L-640.2751660657334,362.8225988683855 L-639.9832489679577,362.7962138691815 L-639.6813907160166,362.7764774047411 L-639.3724983698888,362.76357954800596 L-639.0595467317254,362.75764451238706 L-638.7455496968784,362.75872945552186 L-638.4335312284417,362.7668239288149 L-638.1264962348331,362.7818499780635 L-637.8274016308834,362.80366289419925 " />
			<path d="M-641.9471312451892,2527.4280389719675 L-641.8917929392684,2527.3966403397553 L-641.830124664623,2527.3658604948223 L-641.7622591548553,2527.3357656871112 L-641.6883424823765,2527.306420692105 L-641.6085337440032,2527.2778886714027 L-641.5230047185213,2527.2502310367745 L-641.4319394969515,2527.223507317978 L-641.3355340863163,2527.19777503463 L-641.2339959877578,2527.173089572399 L-641.1275437499163,2527.1495040637965 L-641.0164064985306,2527.127069273816 L-640.9008234432719,2527.1058334906643 L-640.6573240696658,2527.0671390957086 L-640.3991409144055,2527.0337538399385 L-640.1284956151228,2527.005964999805 L-639.8477170448275,2526.984011695219 L-639.559221272211,2526.9680828319497 L-639.2654907716407,2526.9583154761126 L-638.9690530617426,2526.954793674729 L-638.6724589563804,2526.9575477325125 L-638.3782606151839,2526.966553951099 L-638.0889895824959,2526.981734832969 " />
			<path d="M-560.4866115648557,369.41401365984035 L-560.263079803517,369.43535285728865 L-560.0472745710885,369.46048653495956 L-559.8404336318242,369.4892705370906 L-559.6437433347207,369.52153977125784 L-559.4583318091388,369.55710915527345 L-559.2852624943474,369.5957746787362 L-559.125528040103,369.6373145731454 L-558.9800446132441,369.6814905838682 L-558.8496466429613,369.7280493366637 L-558.7903419251693,369.7521392836092 L-558.7350820348756,369.7767237909264 L-558.6839462371341,369.8017675944791 L-558.6370078813806,369.8272347713143 L-558.5943342962192,369.8530887911904 L-558.5559866928473,369.87929256897615 L-558.5220200772526,369.9058085178461 L-558.4924831713128,369.9325986031947 L-558.4674183429084,369.9596243971942 L-558.4468615451508,369.98684713391475 L-558.43084226481,370.01422776493126 L-558.4193834800194,370.04172701533406 L-558.4125016273151,370.06930544006536 L-558.41020657806,370.09692348049936 " />
			<path d="M-558.41020657806,370.09692348049936 L-558.4134239470529,370.12962110886747 L-558.4230695879525,370.1622529873423 L-558.4391241047566,370.19475349789093 L-558.4615552141319,370.2270572866426 L-558.4903178103308,370.259099395306 L-558.5253540558929,370.2908153917908 L-558.5665934979475,370.32214149977165 L-558.6139532098846,370.35301472693317 " />
			<path d="M-653.0427507395475,370.4864005033059 L-653.0901104548732,370.4555272813424 L-653.1313499003661,370.4242011778878 L-653.1663861494093,370.39248518524846 L-653.195148749125,370.3604430797419 L-653.2175798620458,370.3281392934522 L-653.2336343824171,370.29563878466564 L-653.2432800268982,370.26300690724946 L-653.24649739948,370.23030927923446 " />
			<path d="M-653.24649739948,370.23030927923446 L-653.243280030487,370.19761165086635 L-653.2336343895875,370.1649797723915 L-653.2175798727833,370.1324792618429 L-653.195148763408,370.1001754730912 L-653.1663861672091,370.0681333644278 L-653.131349921647,370.03641736794305 L-653.0901104795925,370.00509125996217 L-653.0427507676553,369.97421803280065 " />
			<path d="M-651.4018102606481,2535.088555275464 L-651.6035820254651,2535.065032429077 L-651.7975429349445,2535.0383135886236 L-651.9827200907404,2535.0085327744887 L-652.1581846533819,2534.975839365765 L-652.3230565012858,2534.9403973509766 L-652.4765086454029,2534.9023845055203 L-652.6177713773546,2534.861991499952 L-652.746136130252,2534.8194209435937 L-652.8609590328318,2534.7748863682536 L-652.961664139084,2534.728611157163 L-653.0065618269406,2534.7048930394 L-653.0477463171674,2534.6808274244963 L-653.0851659487214,2534.656444499903 L-653.1187737831268,2534.6317748510974 L-653.1485276633539,2534.6068494232195 L-653.1743902666999,2534.5816994822526 L-653.1963291516058,2534.5563565758057 L-653.2143167983508,2534.5308524935394 L-653.2283306435719,2534.505219227291 L-653.2383531085678,2534.4794889309433 L-653.2443716213486,2534.4536938800916 L-653.246378632406,2534.427866431558 " />
			<path d="M-653.246378632406,2534.427866431558 L-653.2431612634131,2534.39516880319 L-653.2335156225136,2534.362536924715 L-653.2174611057094,2534.3300364141664 L-653.1950299963341,2534.297732625415 L-653.1662674001352,2534.2656905167514 L-653.1312311545731,2534.2339745202667 L-653.0899917125186,2534.2026484122857 L-653.0426320005814,2534.1717751851243 " />
			<path d="M-641.9472500122629,363.23048181964435 L-653.0427507676552,369.9742180328006 " />
			<path d="M-641.9471312451892,2527.4280389719684 L-653.0426320005813,2534.1717751851243 " />
			<path d="M62.546789061612174,23.845813352574663 L16.870390065642255,51.607460073540864 " />
			<path d="M-77.9659043282681,109.24798689181266 L-125.82616066901434,138.33695970299925 " />
			<path d="M-220.66245149041055,195.97748434993358 L-268.52272733053667,225.06646901264324 " />
			<path d="M-363.3590181519329,282.7069936595776 L-411.219293992059,311.7959783222873 " />
			<path d="M-506.05558481345514,369.4365029692216 L-526.0765484171677,381.6050392548563 " />
			<path d="M-62.546789061612174,13.154011146833614 L-62.54680737857108,13.154022279693327 " />
			<path d="M-77.96589894048927,22.52558794838739 L-205.24335572313453,99.88352045647761 " />
			<path d="M-220.66245149041058,109.25508868114504 L-347.9399223846569,186.61302976612163 " />
			<path d="M-363.3590181519329,195.98459799078904 L-490.6364890461792,273.3425390757656 " />
			<path d="M-506.0555848134552,282.714107300433 L-637.8274016308833,362.8036657305553 " />
			<path d="M-65.54304242983312,9.78214538135041 L-654.1663799086131,367.54137128363203 " />
			<path d="M-65.54304242983312,-20.986129728683846 L-654.1663799086131,336.77309617359776 " />
			<path d="M15.560488566718485,2220.0362047680933 L-574.4588402624479,2579.3275129030676 " />
			<path d="M-61.75365705593964,2213.7489901567096 L-651.772985885106,2573.040298291684 " />
			<path d="M-64.76263684873868,2210.3892815902927 L-654.7819656779051,2569.680589725267 " />
			<path d="M-64.89850356563187,2179.617437725979 L-654.9178323947983,2538.9087458609533 " />
			<path d="M14.793987013494633,19.76437340266886 L14.79385255897463,2183.962084534877 " />
			<path d="M-62.546803064455794,13.15402264842182 L-62.54693748242339,2176.7633813825023 " />
			<path d="M-66.66665144506564,13.580840563043452 L-66.66678589958565,2177.7785516952513 " />
			<path d="M16.6666453701594,20.703373458055395 L16.666511007140187,2183.4282758156337 " />
			<path d="M-77.76215218829444,20.324566789958787 L-77.76228664281444,2184.5222779221667 " />
			<path d="M-127.90256565593145,106.49387122140435 L-127.90256565593143,2216.304543953424 " />
			<path d="M-205.24335572313453,99.88352045647761 L-205.2433557231345,2263.4010919437756 " />
			<path d="M-209.36320410443832,100.3103389078046 L-209.3632041044383,2264.507968245562 " />
			<path d="M-126.02990730079335,107.43287181432372 L-126.02990730079333,2215.1641917018414 " />
			<path d="M-220.4587048586315,107.05407043877102 L-220.45870485863148,2271.2516997765283 " />
			<path d="M-270.5991323174538,193.22338053104835 L-270.5991323174537,2303.199385524 " />
			<path d="M-347.9399223846569,186.6130297661216 L-347.9399223846568,2350.2959335143514 " />
			<path d="M-352.0597707659607,187.0398482174486 L-352.05977076596065,2351.237477555206 " />
			<path d="M-268.7264739623157,194.16238112396775 L-268.72647396231565,2302.0590332724173 " />
			<path d="M-363.15527152015386,193.78357974841498 L-363.1552715201538,2357.9812090861724 " />
			<path d="M-413.29569897897613,279.95288984069236 L-413.2956989789761,2390.0942270945757 " />
			<path d="M-490.6364890461792,273.3425390757656 L-490.6364890461791,2437.190775084927 " />
			<path d="M-494.756337427483,273.76935752709255 L-494.75633742748295,2437.96698686485 " />
			<path d="M-411.42304062383806,280.8918904336117 L-411.423040623838,2388.953874842993 " />
			<path d="M-505.85183818167616,280.513089058059 L-505.8518381816761,2444.7107183958165 " />
			<path d="M-560.4866115648557,369.4140136598404 L-560.4864957549299,2479.7258227645093 " />
			<path d="M-637.8274016308834,362.8036628941992 L-637.8272828736245,2526.8223689593715 " />
			<path d="M-641.9472500122631,363.23048181964435 L-641.9471312451892,2527.428038971968 " />
			<path d="M-558.6139532098847,370.3530147269332 L-558.6138375140698,2478.585470582517 " />
			<path d="M-653.0427507676552,369.9742180328006 L-653.0426320005813,2534.1717751851243 " />
			<path d="M-524.4145260858751,381.22379957919617 L-506.0555848134552,370.0654234160303 " />
			<path d="M-411.21929399205897,312.42489876909593 L-363.3590181519329,283.3359141063863 " />
			<path d="M-268.52272733053667,225.69538945945197 L-220.66245149041058,196.60640479674234 " />
			<path d="M-125.82616066901426,138.96588014980793 L-77.96590436734084,109.8769073623694 " />
			<path d="M16.87039002656949,52.236380544097614 L64.20881139290483,23.46457367691456 " />
			<path d="M-652.8321488716848,334.2946522253671 L-64.20881139290483,-23.46457367691456 " />
			<path d="M-572.8082647366214,2578.944505377273 L17.211064092545197,2219.6531972422986 " />
			<path d="M-653.5869454375766,2536.419189778114 L-76.99164429988994,2185.3024214150532 " />
			<path d="M16.870257614803617,2183.5536513010143 L16.870392001522088,20.447282586478472 " />
			<path d="M-77.96603327417712,2184.7783687937435 L-77.96589881965711,20.580657661535717 " />
			<path d="M-125.82616066901427,2215.040120522673 L-125.8261606690143,107.17678074352752 " />
			<path d="M-220.66245149041055,2271.5077908473245 L-220.66245149041058,107.31016150956722 " />
			<path d="M-268.5227273305366,2301.934962093249 L-268.52272733053667,193.90629005317157 " />
			<path d="M-363.35901815193284,2358.2373001569686 L-363.3590181519329,194.0396708192112 " />
			<path d="M-411.2192939920589,2388.8298036638244 L-411.21929399205897,280.6357993628155 " />
			<path d="M-506.05558481345514,2444.9668094666126 L-506.0555848134552,280.76918012885517 " />
			<path d="M-558.4100908750002,2478.4613993989087 L-558.41020657806,370.09692348049936 " />
			<path d="M-653.2463786324059,2534.4278664315584 L-653.2464973994798,370.23030927923446 " />

       </g>
    </g>
    
</svg>
