<?xml version="1.0" encoding="UTF-8" standalone="no"?>
<svg
   xmlns:svg="http://www.w3.org/2000/svg"
   xmlns="http://www.w3.org/2000/svg"
   width="480.0"
   height="480.0"

>
    <g transform="scale(0.15542178026080333, -0.15542178026080333)   translate(1725.7068631826482,-928.5124011295206)" stroke-width="1.0"  fill="none">
       <!-- hidden lines -->
       <g  stroke="rgb(0,0,0)" fill="none" stroke-dasharray="1.0,1.0" >
			<path d="M33.79970414071684,-1387.0364771795114 L-60.66976182580591,-1437.308600385931 " />
			<path d="M-61.60702012600896,-1438.512723097462 L-61.60316558586551,-1438.429166408951 L-61.59161125135999,-1438.3458110158213 L-61.57238495789626,-1438.2628577285159 L-61.5455330232993,-1438.18050638877 L-61.5111201362315,-1438.098955388174 L-61.469229200352025,-1438.0184011902318 L-61.41996113459463,-1437.9390378570613 L-61.36343463004508,-1437.861056581884 L-61.29978586400398,-1437.7846452284218 L-61.229168171923696,-1437.7099878783183 L-61.15175167800983,-1437.637264387669 L-61.0677228853771,-1437.5666499537326 L-60.977284226747024,-1437.4983146928657 L-60.88065357676972,-1437.4324232306974 L-60.778063727144826,-1437.369134305531 L-60.669761825805914,-1437.308600385931 " />
			<path d="M33.799704140716834,-1387.0364771795114 L33.91345718500333,-1386.9788440969921 L34.03238733119012,-1386.9242506946975 L34.156208066138,-1386.8728284929155 L34.28462109485106,-1386.8247013722341 L34.41731705909548,-1386.7799852751025 L34.5539762826706,-1386.7387879265157 L34.69426954153688,-1386.7012085744943 L34.8378588569455,-1386.6673377509894 L34.98439830965869,-1386.6372570537815 L35.13353487329951,-1386.6110389499047 L35.28490926482334,-1386.5887466010677 L35.438156810062175,-1386.5704337114914 L35.59290832225663,-1386.5561443985312 L35.748790991459195,-1386.5459130863933 L35.90542928266605,-1386.5397644232048 L36.06244584051379,-1386.5377132216338 L36.21946239836153,-1386.5397644232048 L36.37610068956838,-1386.5459130863933 L36.531983358770944,-1386.5561443985312 L36.6867348709654,-1386.5704337114914 L36.839982416204236,-1386.5887466010677 L36.99135680772807,-1386.6110389499047 L37.14049337136889,-1386.6372570537815 L37.287032824082075,-1386.6673377509894 L37.430622139490694,-1386.7012085744943 L37.57091539835698,-1386.7387879265157 L37.707574621932096,-1386.7799852751025 L37.840270586176516,-1386.8247013722341 L37.96868361488957,-1386.8728284929155 L38.092504349837455,-1386.9242506946975 L38.211434496024246,-1386.9788440969921 L38.32518754031073,-1387.0364771795114 " />
			<path d="M38.325187540310736,-1387.0364771795114 L60.66976182580565,-1398.9271889558802 " />
			<path d="M60.66976182580565,-1398.92718895588 L60.77806372714456,-1398.98772287548 L60.880653576769454,-1399.0510118006464 L60.97728422674676,-1399.1169032628147 L61.06772288537684,-1399.1852385236816 L61.15175167800957,-1399.255852957618 L61.22916817192343,-1399.3285764482673 L61.29978586400372,-1399.4032337983708 L61.363434630044814,-1399.479645151833 L61.41996113459436,-1399.5576264270103 L61.46922920035176,-1399.6369897601808 L61.511120136231234,-1399.717543958123 L61.545533023299036,-1399.799094958719 L61.57238495789599,-1399.8814462984649 L61.59161125135972,-1399.9643995857703 L61.60316558586525,-1400.0477549789 L61.6070201260087,-1400.131311667411 " />
			<path d="M-1601.7664588026537,-555.5634698185214 L-1660.4190050459238,-586.4511365024938 " />
			<path d="M-1661.3658154805794,-587.6579708231002 L-1661.361794520604,-587.5740509089566 L-1661.3500080112785,-587.4903472521952 L-1661.3304845913497,-587.407063235157 L-1661.303271698636,-587.3244012205461 L-1661.2684354547623,-587.2425620597312 L-1661.2260605044996,-587.1617446047187 L-1661.1762498100945,-587.0821452249844 L-1661.1191244010936,-587.0039573303359 L-1661.0548230802667,-586.9273709009684 L-1660.9835020863454,-586.8525720258519 L-1660.9053347143952,-586.7797424505744 L-1660.8205108947452,-586.709059135738 L-1660.7292367314974,-586.6406938269818 L-1660.6317340017363,-586.5748126376759 L-1660.5282396166576,-586.511575645301 L-1660.4190050459238,-586.4511365024937 " />
			<path d="M-1601.7664588026537,-555.5634698185212 L-1601.6522505420046,-555.5062144305449 L-1601.5328892977639,-555.4520165897557 L-1601.4086626216235,-555.4010068634992 L-1601.2798697865273,-555.353308138674 L-1601.146821065696,-555.3090353256861 L-1601.0098369851517,-555.2682950816196 L-1600.869247551543,-555.2311855532911 L-1600.7253914571295,-555.1977961408047 L-1600.578615263843,-555.1682072821797 L-1600.429272568389,-555.142490259568 L-1600.277723150402,-555.1207070275299 L-1600.1243321057038,-555.1029100637792 L-1599.969468966757,-555.0891422427603 L-1599.8135068124275,-555.0794367323603 L-1599.6568213692055,-555.0738169140035 L-1599.499790106048,-555.0722963263247 L-1599.3427913250225,-555.0748786325529 L-1599.1862032499434,-555.081557611686 L-1599.0304031151995,-555.0923171734785 L-1598.8757662569615,-555.1071313972034 L-1598.722665208966,-555.1259645940983 L-1598.5714688050473,-555.1487713933423 L-1598.4225412905855,-555.1754968513583 L-1598.276241445008,-555.206076584177 L-1598.1329217174568,-555.2404369225438 L-1597.992927377709,-555.2784950893939 L-1597.856595684391,-555.3201593992698 L-1597.7242550724936,-555.3653294791994 L-1597.596224362142,-555.4138965105042 L-1597.472811990532,-555.4657434909515 L-1597.3543152688762,-555.5207455166242 L-1597.2410196661563,-555.5787700828249 " />
			<path d="M-1597.2410196661563,-555.5787700828253 L-1574.9908125671832,-567.5464493842715 " />
			<path d="M-1574.9908125671836,-567.5464493842712 L-1574.883441352723,-567.607089555584 L-1574.7817538086422,-567.6704429763444 L-1574.685992812927,-567.7363583285977 L-1574.5963870881596,-567.8046781752843 L-1574.5131506552227,-567.8752393362735 L-1574.4364823221147,-567.9478732781154 L-1574.3665652091033,-568.0224065165785 L-1574.3035663113467,-568.0986610310118 L-1574.247636100031,-568.1764546895427 L-1574.1989081629733,-568.2556016840938 L-1574.157498885551,-568.3359129741809 L-1574.1235071727178,-568.4171967384311 L-1574.0970142127728,-568.4992588327427 L-1574.0780832834437,-568.5819032539935 L-1574.06675960075,-568.6649326081889 L-1574.0630702110057,-568.7481485819324 " />
			<path d="M-1574.0630702110057,-568.7481485819324 L-1574.067091170981,-568.832068496076 L-1574.0788776803065,-568.9157721528373 L-1574.0984011002354,-568.9990561698755 L-1574.125613992949,-569.0817181844865 L-1574.1604502368227,-569.1635573453013 L-1574.2028251870854,-569.2443748003138 L-1574.2526358814905,-569.3239741800481 L-1574.3097612904915,-569.4021620746967 L-1574.3740626113183,-569.4787485040641 L-1574.4453836052396,-569.5535473791806 L-1574.5235509771899,-569.6263769544581 L-1574.6083747968398,-569.6970602692945 L-1574.6996489600876,-569.7654255780508 L-1574.7971516898488,-569.8313067673566 L-1574.9006460749274,-569.8945437597315 L-1575.0098806456613,-569.9549829025389 " />
			<path d="M-1572.7556884298283,849.2886336312093 L-1631.4082346730984,818.400966947237 " />
			<path d="M-1575.009880645661,-569.9549829025391 L-1633.6624268889311,-600.8426495865115 " />
			<path d="M-1633.6624268889311,-600.8426495865115 L-1633.7351103280978,-600.8797363147116 L-1633.8099572805638,-600.9155837705653 L-1633.8868934825261,-600.9501563859122 L-1633.9658425972107,-600.9834198575003 " />
			<path d="M-60.91579119373295,-18.13360093897908 L-60.7929605103815,-18.056192593004564 L-60.669764362688284,-17.98661495190447 " />
			<path d="M-1632.9852525856525,817.9474485188745 L-1632.9083155737917,818.0133105850559 L-1632.8306933025965,818.07627754161 L-1632.7524820793376,818.1362712643637 L-1632.673778942009,818.1932173180858 L-1632.59468153893,818.2470450488399 L-1632.515288007593,818.2976876716458 L-1632.435696852901,818.345082353341 L-1632.3560068249521,818.3891702905383 " />
			<path d="M-2.262744233667399,13.094802563801357 L-2.16001682315056,13.146675660866613 L-2.057501254289056,13.192854769502912 L-1.955408932688748,13.233244660053455 L-1.8539503911432595,13.267762041274015 L-1.753334855477351,13.296335732094533 L-1.6537698130854994,13.318906808407315 L-1.5554605850554561,13.335428724579184 L-1.4586099027590977,13.345867409436984 L-1.363417489783742,13.350201336528473 L-1.2700796500660736,13.348421568513764 L-1.1787888630779912,13.340531775595732 L-1.08973338689919,13.326548227951392 L-1.0030968699950347,13.306499762179852 L-0.9190579725002703,13.28042772183605 L-0.837789997789576,13.248385872172877 L-0.7594605350947496,13.210440289267527 " />
			<path d="M-0.7594605350947341,13.21044028926752 L-0.7153753406134209,13.185719072940161 L-0.6723668891393069,13.159049330433852 L-0.6304651082877681,13.130449620003278 L-0.5896991555926832,13.099939842879571 L-0.5500973982170363,13.06754122942197 L-0.5116873932135078,13.03327632434457 L-0.47449586834877877,12.997168971028499 L-0.43854870350490205,12.959244294930386 L-0.4038709126706732,12.919528686098712 L-0.3704866265355409,12.878049780810182 L-0.3384190756981622,12.834836442338899 L-0.307690574501291,12.789918740871737 L-0.27832250550424664,12.743327932583863 L-0.2503353046037704,12.695096437889006 L-0.19858043271277914,12.593846755972272 L-0.15256998916603326,12.486451466196364 L-0.11243201794239965,12.373209442450646 L-0.0782782203240826,12.25443582969303 L-0.050203644039452655,12.130461166922696 L-0.028286418751588993,12.001630467312216 L-0.012587538628666906,11.868302258059037 L-0.0031506926012800918,11.73084758262833 L-2.142779074176815e-06,11.589648968163917 " />
			<path d="M-1573.9489866959314,849.4705878062443 L-1573.8462592854146,849.5224609033096 L-1573.743743716553,849.5686400119458 L-1573.6416513949528,849.6090299024963 L-1573.5401928534072,849.643547283717 L-1573.4395773177412,849.6721209745375 L-1573.3400122753494,849.6946920508502 L-1573.2417030473193,849.7112139670221 L-1573.144852365023,849.7216526518799 L-1573.0496599520477,849.7259865789714 L-1572.95632211233,849.7242068109567 L-1572.865031325342,849.7163170180387 L-1572.7759758491632,849.7023334703944 L-1572.689339332259,849.6822850046228 L-1572.605300434764,849.656212964279 L-1572.5240324600536,849.6241711146158 L-1572.4457029973587,849.5862255317105 " />
			<path d="M-1572.4457029973587,849.5862255317104 L-1572.4016178028774,849.5615043153831 L-1572.3586093514032,849.5348345728768 L-1572.3167075705517,849.5062348624461 L-1572.2759416178567,849.4757250853226 L-1572.236339860481,849.4433264718649 L-1572.1979298554775,849.4090615667875 L-1572.1607383306127,849.3729542134714 L-1572.1247911657688,849.3350295373733 L-1572.0901133749346,849.2953139285416 L-1572.0567290887996,849.2538350232531 L-1572.0246615379622,849.2106216847818 L-1571.9939330367652,849.1657039833146 L-1571.9645649677682,849.1191131750268 L-1571.9365777668677,849.0708816803319 L-1571.8848228949767,848.9696319984153 L-1571.83881245143,848.8622367086393 L-1571.7986744802063,848.7489946848935 L-1571.764520682588,848.630221072136 L-1571.7364461063034,848.5062464093656 L-1571.7145288810154,848.3774157097552 L-1571.6988300008925,848.244087500502 L-1571.6893931548652,848.1066328250713 L-1571.686244605043,847.9654342106069 " />
			<path d="M-2.1427790712639313e-06,11.589648968163917 L1.7180959168431405e-06,-15.16445457442536 " />
			<path d="M-1571.6862446050432,847.9654342106069 L-1571.6862407441681,821.2113306680176 " />
			<path d="M1.7180959179796673e-06,-15.164454574425362 L-0.002723834193792296,-15.298842880516228 L-0.010893963337164081,-15.435808270489735 L-0.024488986777471577,-15.575020782724689 L-0.04347615291246365,-15.716145042085536 L-0.06780971999584251,-15.858841067870452 L-0.09743106633313481,-16.002765092854627 L-0.13226883150649105,-16.147570391455616 L-0.17223908828818058,-16.292908115025643 L-0.21724554482863523,-16.43842813225855 L-0.26717977663194903,-16.58377987268677 L-0.32192148775998564,-16.728613171236308 L-0.38133880063583026,-16.872579111805056 L-0.44528857374842246,-17.015330867832255 L-0.5136167464929964,-17.156524537834063 L-0.5861587103165684,-17.295819973892335 L-0.662739705274362,-17.432881601100775 L-0.7431752410418215,-17.56737922599425 L-0.8272715413679617,-17.698988832013796 L-0.9148260108993309,-17.827393360090873 L-1.0056277232499629,-17.952283472470427 L-1.0994579291415134,-18.07335829793266 L-1.196090583389435,-18.190326156618134 L-1.2952928894656237,-18.302905262710095 L-1.3968258603256456,-18.410824403281204 L-1.5004448941494615,-18.513823591669222 L-1.6059003636086335,-18.61165469380767 L-1.7129382172404268,-18.70408202600249 L-1.821300591480035,-18.790882922714758 L-1.9307264318764907,-18.871848272981424 L-2.0409521219957063,-18.946783024181975 L-2.1517121184955554,-19.015506651937258 L-2.2627395908430294,-19.077853595008527 " />
			<path d="M-1571.686240744168,821.2113306680175 L-1571.6889662964577,821.0769423619266 L-1571.697136425601,820.9399769719531 L-1571.7107314490413,820.8007644597182 L-1571.7297186151764,820.6596402003572 L-1571.7540521822598,820.5169441745724 L-1571.783673528597,820.3730201495882 L-1571.8185112937704,820.2282148509872 L-1571.8584815505521,820.0828771274172 L-1571.9034880070924,819.9373571101843 L-1571.9534222388959,819.792005369756 L-1572.0081639500238,819.6471720712065 L-1572.0675812628997,819.5032061306377 L-1572.1315310360123,819.3604543746105 L-1572.1998592087568,819.2192607046087 L-1572.2724011725804,819.0799652685505 L-1572.3489821675382,818.942903641342 L-1572.4294177033057,818.8084060164485 L-1572.5135140036318,818.676796410429 L-1572.6010684731632,818.5483918823519 L-1572.6918701855138,818.4235017699724 L-1572.7857003914053,818.3024269445101 L-1572.8823330456532,818.1854590858246 L-1572.9815353517295,818.0728799797328 L-1573.0830683225895,817.9649608391616 L-1573.1866873564134,817.8619616507735 L-1573.2921428258726,817.7641305486351 L-1573.3991806795043,817.6717032164403 L-1573.5075430537438,817.584902319728 L-1573.6169688941404,817.5039369694614 L-1573.7271945842597,817.4290022182608 L-1573.8379545807595,817.3602785905056 L-1573.9489820531069,817.2979316474343 " />
			<path d="M-2.262739590843047,-19.077853595008534 L-60.66975971986391,-50.15927111071436 " />
			<path d="M-1573.9489820531069,817.2979316474344 L-1632.356002182128,786.2165141317286 " />
			<path d="M-60.669759719863904,-50.15927111071434 L-60.790498701493284,-50.219662873214894 L-60.91089366555528,-50.27216308698246 L-61.03060157356951,-50.31662216441849 L-61.149281344667905,-50.352913429341136 L-61.2665948274282,-50.380933477920614 L-61.38220776336071,-50.40060247330527 L-61.43927336961195,-50.407286878497814 L-61.49579073930298,-50.41186437309882 L-61.55171960686592,-50.41433169589107 L-61.60702012600881,-50.414687089040584 " />
			<path d="M-2.2627416997969796,-330.9832303320849 L-60.66976182580581,-362.06464782347894 " />
			<path d="M-1573.9489842431362,505.3928793304039 L-1632.356004369145,474.31146183900984 " />
			<path d="M-61.60702012600884,-362.8067597162942 L-61.49579096487172,-362.69120091916665 L-61.38220822982134,-362.58157634675575 L-61.26659554789403,-362.4781983482532 L-61.14928232997783,-362.38136147472136 L-61.03060283223429,-362.29134163984 L-60.91089520371497,-362.2083953337559 L-60.790500522885964,-362.1327588922748 L-60.66976182580582,-362.06464782347894 " />
			<path d="M-2.2627416997969783,-330.9832303320849 L-2.1600142761374457,-330.9313572283749 L-2.0574986950225256,-330.88517811418336 L-1.955406362139159,-330.8447882192037 L-1.8539478103598062,-330.81027083471116 L-1.7533322655855548,-330.78169714180143 L-1.6537672152844431,-330.75912606460207 L-1.5554579806147253,-330.74260414876034 L-1.4586072930154796,-330.7321654654577 L-1.363414876137687,-330.7278315411488 L-1.270077033977893,-330.7296113131703 L-1.1787862460638359,-330.73750111131005 L-1.0897307705268209,-330.75148466537587 L-1.0030942558793616,-330.77153313874794 L-0.9190553622987068,-330.7976051878446 L-0.8377873931972153,-330.82964704738083 L-0.7594579378393524,-330.8675926412415 " />
			<path d="M-0.7594579378393369,-330.8675926412416 L-0.7153727591218679,-330.8923138581001 L-0.6723643234721142,-330.91898360052625 L-0.6304625584876398,-330.9475833102695 L-0.5896966216846549,-330.9780930861038 L-0.5500948802086401,-331.01049169767555 L-0.5116848910949496,-331.0447566002771 L-0.47449338209313363,-331.0808639505345 L-0.43854623306832563,-331.1187886229989 L-0.4038684579926295,-331.15850422763043 L-0.37048418753904433,-331.1999831281616 L-0.3384166522900358,-331.243196461328 L-0.30768816657244047,-331.2881141569535 L-0.2783201129299475,-331.33470495887394 L-0.25033292724396894,-331.3829364466875 L-0.1985780853020911,-331.4841861133501 L-0.15256767096845447,-331.59158138597303 L-0.1124297281115334,-331.7048233907825 L-0.07827595790921293,-331.8235969829449 L-0.05020140799196948,-331.9475716235934 L-0.028284207931753347,-332.0764022996955 L-0.012585351812674617,-332.2097304842006 L-0.003148528488599922,-332.3471851337966 L-2.5757174171303632e-14,-332.4883837214986 " />
			<path d="M-1573.948984243136,505.3928793304039 L-1573.8462568194764,505.44475243411387 L-1573.7437412383615,505.4909315483054 L-1573.6416489054782,505.5313214432851 L-1573.5401903536988,505.5658388277776 L-1573.4395748089246,505.59441252068734 L-1573.3400097586234,505.6169835978867 L-1573.2417005239538,505.63350551372844 L-1573.1448498363545,505.6439441970311 L-1573.0496574194767,505.64827812133996 L-1572.956319577317,505.64649834931845 L-1572.865028789403,505.6386085511787 L-1572.775973313866,505.6246249971129 L-1572.6893367992184,505.60457652374083 L-1572.6052979056378,505.57850447464415 L-1572.5240299365362,505.54646261510794 L-1572.4457004811784,505.50851702124726 " />
			<path d="M-1572.4457004811784,505.5085170212472 L-1572.4016153024609,505.48379580438865 L-1572.3586068668112,505.4571260619625 L-1572.3167051018268,505.42852635221925 L-1572.2759391650236,505.398016576385 L-1572.2363374235476,505.3656179648132 L-1572.197927434434,505.3313530622117 L-1572.1607359254322,505.2952457119543 L-1572.1247887764073,505.25732103948985 L-1572.0901110013317,505.21760543485834 L-1572.0567267308782,505.1761265343272 L-1572.024659195629,505.13291320116076 L-1571.9939307099114,505.0879955055353 L-1571.964562656269,505.04140470361483 L-1571.936575470583,504.9931732158013 L-1571.8848206286411,504.89192354913865 L-1571.8388102143074,504.78452827651574 L-1571.7986722714506,504.67128627170626 L-1571.7645185012482,504.5525126795439 L-1571.736443951331,504.4285380388954 L-1571.7145267512708,504.2997073627933 L-1571.6988278951517,504.1663791782882 L-1571.6893910718277,504.0289245286922 L-1571.686242543339,503.88772594099015 " />
			<path d="M-2.485237292563119e-14,-332.4883837214986 L-2.4885618577575823e-14,-359.24248521832817 " />
			<path d="M-1571.6862425433392,503.88772594099015 L-1571.6862425433392,477.1336244441606 " />
			<path d="M-2.531308496145357e-14,-359.24248521832817 L-0.0027255714738134706,-359.3768735142528 L-0.010895719754765665,-359.51383889408226 L-0.024490762240052533,-359.6530513962198 L-0.04347794728154142,-359.7941756455543 L-0.06781153308738741,-359.9368716614079 L-0.09743289791801324,-360.0807956765799 L-0.1322706813110166,-360.2256009655114 L-0.1722409559947753,-360.37093867957793 L-0.21724743007659253,-360.51645868749625 L-0.2671816790183037,-360.6618104188212 L-0.32192340684048526,-360.80664370850076 L-0.3813407359260037,-360.9506096404541 L-0.4452905247247494,-361.0933613881413 L-0.513618712594166,-361.23455505009866 L-0.5861606909448334,-361.3738504784273 L-0.6627416997969784,-361.51091209823954 L-0.7431772487925712,-361.6454097160882 L-0.8272735616487605,-361.7770193154311 L-0.9148280429819073,-361.90542383721595 L-1.005629766377615,-362.03031394370277 L-1.0994599825309301,-362.151388763686 L-1.1960926462325836,-362.26835661731934 L-1.295294960931697,-362.3809357187983 L-1.3968279395630634,-362.48885485520657 L-1.50044698028792,-362.591854039892 L-1.605902455761207,-362.68968513879696 L-1.712940314505699,-362.78211246823525 L-1.8213026929442702,-362.8689133626745 L-1.9307285366158404,-362.9498787111573 L-2.040954229078433,-363.02481346106725 L-2.151714226984275,-363.0935370880284 L-2.26274169979697,-363.1558840308039 " />
			<path d="M-1571.686242543339,477.1336244441606 L-1571.688968114813,476.999236148236 L-1571.6971382630938,476.8622707684065 L-1571.7107333055792,476.723058266269 L-1571.7297204906206,476.5819340169345 L-1571.7540540764264,476.43923800108087 L-1571.783675441257,476.2953139859089 L-1571.8185132246501,476.1505086969774 L-1571.8584834993337,476.00517098291084 L-1571.9034899734156,475.8596509749925 L-1571.9534242223574,475.7142992436676 L-1572.0081659501795,475.569465953988 L-1572.0675832792651,475.42550002203467 L-1572.1315330680638,475.28274827434745 L-1572.1998612559332,475.1415546123901 L-1572.272403234284,475.0022591840615 L-1572.348984243136,474.86519756424923 L-1572.4294197921315,474.7306999464006 L-1572.5135161049877,474.59909034705765 L-1572.601070586321,474.4706858252728 L-1572.6918723097167,474.345795718786 L-1572.78570252587,474.2247208988028 L-1572.8823351895717,474.10775304516943 L-1572.9815375042708,473.9951739436905 L-1573.083070482902,473.8872548072822 L-1573.186689523627,473.7842556225968 L-1573.2921449991002,473.6864245236918 L-1573.3991828578448,473.5939971942535 L-1573.5075452362832,473.50719629981427 L-1573.616971079955,473.4262309513315 L-1573.7271967724175,473.3512962014215 L-1573.8379567703232,473.28257257446035 L-1573.948984243136,473.22022563168485 " />
			<path d="M-2.2627416997969796,-363.1558840308039 L-60.66976182580581,-394.237301522198 " />
			<path d="M-1573.9489842431362,473.22022563168485 L-1632.356004369145,442.1388081402908 " />
			<path d="M-60.6697618258058,-394.237301522198 L-60.790500522885964,-394.29769315198934 L-60.91089520371497,-394.3501932711654 L-61.03060283223429,-394.39465229310133 L-61.14928232997782,-394.43094354236973 L-61.26659554789403,-394.4589636156722 L-61.38220822982133,-394.4786326764625 L-61.43927371384771,-394.485317129647 L-61.495790964871716,-394.4898946824218 L-61.5517197175996,-394.4923620735435 L-61.607020126008834,-394.4927175451379 " />
			<path d="M-2.262741699797015,-675.0612951520694 L-60.669761825805836,-706.1427126434634 " />
			<path d="M-61.60702012600888,-706.8848245362786 L-61.49579096487176,-706.7692657391511 L-61.38220822982137,-706.6596411667402 L-61.26659554789406,-706.5562631682376 L-61.149282329977865,-706.4594262947057 L-61.03060283223432,-706.3694064598244 L-60.91089520371501,-706.2864601537403 L-60.790500522886,-706.2108237122593 L-60.66976182580586,-706.1427126434634 " />
			<path d="M-2.262741699797012,-675.0612951520694 L-2.1600142761374794,-675.0094220483594 L-2.0574986950225593,-674.9632429341679 L-1.9554063621391928,-674.9228530391882 L-1.85394781035984,-674.8883356546958 L-1.7533322655855885,-674.859761961786 L-1.653767215284477,-674.8371908845866 L-1.555457980614759,-674.8206689687448 L-1.4586072930155134,-674.8102302854422 L-1.3634148761377207,-674.8058963611334 L-1.2700770339779268,-674.8076761331549 L-1.1787862460638696,-674.8155659312946 L-1.0897307705268546,-674.8295494853604 L-1.0030942558793954,-674.8495979587325 L-0.9190553622987405,-674.8756700078292 L-0.837787393197249,-674.9077118673654 L-0.7594579378393862,-674.9456574612261 " />
			<path d="M-0.7594579378393707,-674.9456574612261 L-0.7153727591219017,-674.9703786780847 L-0.6723643234721479,-674.9970484205109 L-0.6304625584876735,-675.0256481302541 L-0.5896966216846886,-675.0561579060883 L-0.5500948802086738,-675.0885565176601 L-0.5116848910949834,-675.1228214202616 L-0.4744933820931674,-675.1589287705191 L-0.4385462330683594,-675.1968534429835 L-0.40386845799266324,-675.236569047615 L-0.3704841875390781,-675.2780479481461 L-0.33841665229006956,-675.3212612813126 L-0.3076881665724742,-675.366178976938 L-0.27832011292998127,-675.4127697788585 L-0.2503329272440027,-675.461001266672 L-0.19857808530212484,-675.5622509333347 L-0.15256767096848822,-675.6696462059576 L-0.11242972811156715,-675.782888210767 L-0.07827595790924669,-675.9016618029294 L-0.05020140799200323,-676.0256364435779 L-0.028284207931787098,-676.15446711968 L-0.012585351812708367,-676.2877953041851 L-0.003148528488633673,-676.4252499537812 L-5.950795411990839e-14,-676.5664485414832 " />
			<path d="M-1573.948984243136,161.3148145104193 L-1573.8483200980365,161.36570077942898 " />
			<path d="M-1572.4457004811784,161.43045220126263 L-1572.4016153024609,161.40573098440404 L-1572.3586068668112,161.3790612419779 L-1572.3167051018268,161.35046153223465 L-1572.2759391650236,161.31995175640037 L-1572.2363374235476,161.28755314482862 L-1572.197927434434,161.2532882422271 L-1572.1607359254322,161.2171808919697 L-1572.1247887764073,161.17925621950525 L-1572.0901110013317,161.1395406148737 L-1572.0567267308782,161.0980617143426 L-1572.024659195629,161.05484838117613 L-1571.9939307099114,161.00993068555067 L-1571.964562656269,160.9633398836302 L-1571.936575470583,160.91510839581665 L-1571.8848206286411,160.81385872915402 L-1571.8388102143074,160.7064634565311 L-1571.7986722714506,160.5932214517217 L-1571.7645185012482,160.47444785955932 L-1571.736443951331,160.35047321891076 L-1571.7145267512708,160.2216425428087 L-1571.6988278951517,160.08831435830362 L-1571.6893910718277,159.95085970870758 L-1571.686242543339,159.80966112100555 " />
			<path d="M-5.682243862843825e-14,-676.566448541483 L-5.686439909317778e-14,-703.3205500383125 " />
			<path d="M-1571.6862425433392,159.8096611210057 L-1571.6862425433392,133.0555596241762 " />
			<path d="M-5.906386491005833e-14,-703.3205500383126 L-0.0027255714738472214,-703.4549383342372 L-0.010895719754799416,-703.5919037140667 L-0.024490762240086283,-703.7311162162042 L-0.04347794728157517,-703.8722404655387 L-0.06781153308742116,-704.0149364813924 L-0.09743289791804699,-704.1588604965643 L-0.13227068131105035,-704.3036657854958 L-0.17224095599480904,-704.4490034995623 L-0.21724743007662628,-704.5945235074806 L-0.26718167901833745,-704.7398752388057 L-0.321923406840519,-704.8847085284851 L-0.38134073592603746,-705.0286744604385 L-0.44529052472478314,-705.1714262081258 L-0.5136187125941998,-705.312619870083 L-0.5861606909448671,-705.4519152984117 L-0.6627416997970121,-705.588976918224 L-0.7431772487926049,-705.7234745360726 L-0.8272735616487943,-705.8550841354156 L-0.9148280429819411,-705.9834886572004 L-1.0056297663776488,-706.1083787636873 L-1.0994599825309639,-706.2294535836704 L-1.1960926462326174,-706.3464214373038 L-1.2952949609317308,-706.4590005387828 L-1.3968279395630971,-706.566919675191 L-1.5004469802879536,-706.6699188598764 L-1.6059024557612407,-706.7677499587813 L-1.7129403145057327,-706.8601772882197 L-1.821302692944304,-706.946978182659 L-1.9307285366158742,-707.0279435311417 L-2.0409542290784666,-707.1028782810516 L-2.151714226984309,-707.1716019080128 L-2.2627416997970036,-707.2339488507884 " />
			<path d="M-1571.686242543339,133.0555596241761 L-1571.688968114813,132.92117132825152 L-1571.6971382630938,132.78420594842206 L-1571.7107333055792,132.64499344628447 L-1571.7297204906206,132.50386919695003 L-1571.7540540764264,132.36117318109638 L-1571.783675441257,132.2172491659244 L-1571.8185132246501,132.07244387699288 L-1571.8584834993337,131.92710616292635 L-1571.9034899734156,131.78158615500803 L-1571.9534242223574,131.63623442368308 L-1572.0081659501795,131.49140113400355 L-1572.0675832792651,131.34743520205018 L-1572.1315330680638,131.20468345436294 L-1572.1998612559332,131.06348979240565 L-1572.272403234284,130.924194364077 L-1572.348984243136,130.78713274426474 L-1572.4294197921315,130.6526351264161 L-1572.5135161049877,130.52102552707316 L-1572.601070586321,130.39262100528833 L-1572.6918723097167,130.2677308988015 L-1572.78570252587,130.14665607881827 L-1572.8823351895717,130.0296882251849 L-1572.9815375042708,129.91710912370598 L-1573.083070482902,129.8091899872977 L-1573.186689523627,129.7061908026123 L-1573.2921449991002,129.60835970370732 L-1573.3991828578448,129.51593237426906 L-1573.5075452362832,129.42913147982975 L-1573.616971079955,129.348166131347 L-1573.7271967724175,129.27323138143703 L-1573.8379567703232,129.20450775447586 L-1573.948984243136,129.14216081170036 " />
			<path d="M-2.262741699797015,-707.2339488507885 L-60.669761825805836,-738.3153663421824 " />
			<path d="M-1573.9489842431362,129.1421608117003 L-1632.356004369145,98.06074332030624 " />
			<path d="M-60.669761825805836,-738.3153663421823 L-60.790500522886,-738.3757579719736 L-60.91089520371501,-738.4282580911497 L-61.03060283223432,-738.4727171130857 L-61.14928232997786,-738.509008362354 L-61.26659554789406,-738.5370284356566 L-61.382208229821366,-738.5566974964468 L-61.43927371384775,-738.5633819496313 L-61.49579096487175,-738.5679595024061 L-61.55171971759964,-738.5704268935278 L-61.60702012600887,-738.5707823651222 " />
			<path d="M-2.2627416997970506,-1019.1393599720539 L-60.66976182580588,-1050.2207774634478 " />
			<path d="M-61.607020126008855,-1050.962889356263 L-61.49579096487174,-1050.8473305591356 L-61.38220822982136,-1050.7377059867247 L-61.26659554789406,-1050.6343279882221 L-61.149282329977865,-1050.5374911146903 L-61.03060283223434,-1050.447471279809 L-60.91089520371502,-1050.3645249737249 L-60.79050052288603,-1050.2888885322438 L-60.66976182580589,-1050.2207774634478 " />
			<path d="M-2.262741699797051,-1019.1393599720537 L-2.1600142761375185,-1019.0874868683437 L-2.0574986950225984,-1019.0413077541522 L-1.955406362139232,-1019.0009178591725 L-1.853947810359879,-1018.9664004746801 L-1.7533322655856276,-1018.9378267817704 L-1.653767215284516,-1018.9152557045709 L-1.5554579806147981,-1018.8987337887291 L-1.4586072930155525,-1018.8882951054266 L-1.3634148761377598,-1018.8839611811177 L-1.270077033977966,-1018.8857409531392 L-1.1787862460639087,-1018.8936307512789 L-1.0897307705268937,-1018.9076143053447 L-1.0030942558794345,-1018.9276627787168 L-0.9190553622987796,-1018.9537348278135 L-0.8377873931972881,-1018.9857766873497 L-0.7594579378394253,-1019.0237222812104 " />
			<path d="M-0.7594579378394097,-1019.0237222812104 L-0.7153727591219408,-1019.048443498069 L-0.672364323472187,-1019.0751132404952 L-0.6304625584877126,-1019.1037129502384 L-0.5896966216847277,-1019.1342227260726 L-0.5500948802087129,-1019.1666213376444 L-0.5116848910950225,-1019.200886240246 L-0.47449338209320646,-1019.2369935905034 L-0.43854623306839846,-1019.2749182629678 L-0.4038684579927023,-1019.3146338675994 L-0.37048418753911716,-1019.3561127681304 L-0.33841665229010864,-1019.3993261012969 L-0.3076881665725133,-1019.4442437969224 L-0.27832011293002035,-1019.4908345988429 L-0.25033292724404177,-1019.5390660866564 L-0.19857808530216392,-1019.640315753319 L-0.1525676709685273,-1019.747711025942 L-0.11242972811160623,-1019.8609530307514 L-0.07827595790928576,-1019.9797266229137 L-0.05020140799204231,-1020.1037012635622 L-0.028284207931826177,-1020.2325319396643 L-0.012585351812747447,-1020.3658601241694 L-0.0031485284886727527,-1020.5033147737655 L-9.85878045867139e-14,-1020.6445133614675 " />
			<path d="M-1572.4457004811786,-182.6476126187217 L-1572.401615302461,-182.67233383558028 L-1572.3586068668114,-182.69900357800643 L-1572.316705101827,-182.72760328774967 L-1572.2759391650238,-182.75811306358395 L-1572.2363374235479,-182.7905116751557 L-1572.1979274344342,-182.82477657775723 L-1572.1607359254324,-182.86088392801463 L-1572.1247887764075,-182.89880860047907 L-1572.090111001332,-182.9385242051106 L-1572.0567267308784,-182.9800031056417 L-1572.0246591956293,-183.0232164388082 L-1571.9939307099116,-183.06813413443365 L-1571.9645626562692,-183.11472493635412 L-1571.9365754705832,-183.16295642416767 L-1571.8848206286414,-183.2642060908303 L-1571.8388102143076,-183.3716013634532 L-1571.7986722714509,-183.48484336826263 L-1571.7645185012484,-183.603616960425 L-1571.7364439513312,-183.72759160107356 L-1571.714526751271,-183.85642227717562 L-1571.698827895152,-183.9897504616807 L-1571.689391071828,-184.12720511127674 L-1571.6862425433392,-184.26840369897877 " />
			<path d="M-9.58979316888463e-14,-1020.6445133614674 L-9.594860696638074e-14,-1047.398614858297 " />
			<path d="M-1571.6862425433392,-184.26840369897863 L-1571.6862425433392,-211.02250519580812 " />
			<path d="M-9.814371537686384e-14,-1047.398614858297 L-0.0027255714738863013,-1047.5330031542214 L-0.010895719754838495,-1047.669968534051 L-0.024490762240125363,-1047.8091810361886 L-0.04347794728161425,-1047.950305285523 L-0.06781153308746024,-1048.0930013013767 L-0.09743289791808607,-1048.2369253165486 L-0.13227068131108943,-1048.3817306054802 L-0.17224095599484812,-1048.5270683195467 L-0.21724743007666536,-1048.672588327465 L-0.26718167901837653,-1048.8179400587899 L-0.3219234068405581,-1048.9627733484695 L-0.38134073592607654,-1049.106739280423 L-0.4452905247248222,-1049.24949102811 L-0.5136187125942389,-1049.3906846900675 L-0.5861606909449062,-1049.529980118396 L-0.6627416997970512,-1049.6670417382084 L-0.743177248792644,-1049.801539356057 L-0.8272735616488334,-1049.9331489554 L-0.9148280429819802,-1050.0615534771848 L-1.0056297663776879,-1050.1864435836715 L-1.099459982531003,-1050.3075184036547 L-1.1960926462326564,-1050.4244862572882 L-1.2952949609317699,-1050.537065358767 L-1.3968279395631362,-1050.6449844951753 L-1.5004469802879927,-1050.7479836798607 L-1.6059024557612798,-1050.8458147787658 L-1.7129403145057718,-1050.938242108204 L-1.821302692944343,-1051.0250430026433 L-1.9307285366159133,-1051.106008351126 L-2.0409542290785057,-1051.180943101036 L-2.151714226984348,-1051.2496667279972 L-2.2627416997970426,-1051.3120136707728 " />
			<path d="M-1571.6862425433392,-211.0225051958082 L-1571.6889681148132,-211.1568934917328 L-1571.697138263094,-211.29385887156226 L-1571.7107333055794,-211.43307137369985 L-1571.7297204906208,-211.57419562303429 L-1571.7540540764267,-211.71689163888794 L-1571.7836754412572,-211.86081565405993 L-1571.8185132246504,-212.00562094299144 L-1571.858483499334,-212.15095865705797 L-1571.9034899734158,-212.2964786649763 L-1571.9534242223576,-212.44183039630124 L-1572.0081659501798,-212.58666368598077 L-1572.0675832792654,-212.73062961793414 L-1572.131533068064,-212.87338136562138 L-1572.1998612559335,-213.01457502757867 L-1572.2724032342842,-213.1538704559073 L-1572.3489842431363,-213.29093207571958 L-1572.4294197921317,-213.42542969356822 L-1572.513516104988,-213.55703929291116 L-1572.6010705863212,-213.685443814696 L-1572.691872309717,-213.81033392118283 L-1572.7857025258702,-213.93140874116605 L-1572.882335189572,-214.0483765947994 L-1572.981537504271,-214.16095569627834 L-1573.0830704829023,-214.2688748326866 L-1573.1866895236271,-214.37187401737202 L-1573.2921449991004,-214.469705116277 L-1573.399182857845,-214.56213244571526 L-1573.5075452362835,-214.64893334015457 L-1573.6169710799552,-214.72989868863732 L-1573.7271967724178,-214.8048334385473 L-1573.8379567703234,-214.87355706550846 L-1573.9489842431362,-214.93590400828396 " />
			<path d="M-2.2627416997970506,-1051.312013670773 L-60.66976182580588,-1082.393431162167 " />
			<path d="M-1573.9489842431362,-214.93590400828424 L-1632.356004369145,-246.0173214996783 " />
			<path d="M-60.66976182580587,-1082.393431162167 L-60.79050052288602,-1082.4538227919581 L-60.91089520371501,-1082.5063229111342 L-61.03060283223431,-1082.55078193307 L-61.14928232997784,-1082.5870731823386 L-61.26659554789403,-1082.615093255641 L-61.382208229821316,-1082.6347623164313 L-61.43927371384769,-1082.6414467696159 L-61.49579096487169,-1082.6460243223905 L-61.55171971759957,-1082.6484917135124 L-61.60702012600879,-1082.6488471851067 " />
			<path d="M-2.262739678195299,-1374.0544479314942 L-60.66975980420413,-1405.1358654200542 " />
			<path d="M-61.60702012600892,-1405.8779794404163 L-61.49579074868871,-1405.7624202876507 L-61.38220778264166,-1405.652795380886 L-61.266594857026824,-1405.5494170716797 L-61.149281384917266,-1405.4525799133125 L-61.03060162471146,-1405.3625598215247 L-60.91089372773904,-1405.2796132883552 L-60.7904987747745,-1405.2039766513267 L-60.669759804204155,-1405.1358654200537 " />
			<path d="M-2.2627396781953095,-1374.0544479314942 L-2.160012242886748,-1374.0025748218654 L-2.0574966509066432,-1373.956395702721 L-1.955404308013772,-1373.916005803787 L-1.853945747150465,-1373.8814884163658 L-1.7533301942854695,-1373.852914721576 L-1.6537651369520232,-1373.830343643563 L-1.5554558963708924,-1373.8138217279866 L-1.4586052040407524,-1373.8033830460354 L-1.3634127836690375,-1373.7990491241665 L-1.2700749393054025,-1373.8008288997137 L-1.1787841505271386,-1373.8087187024564 L-1.089728675511349,-1373.8227022621895 L-1.003092162812419,-1373.8427507422746 L-0.9190532726453573,-1373.8688227991065 L-0.8377853084560025,-1373.9008646673715 L-0.7594558595378789,-1373.9388102709213 " />
			<path d="M-0.7594558595378633,-1373.9388102709213 L-0.7153706947487393,-1373.963531488242 L-0.6723622730800181,-1373.9902012305895 L-0.6304605221135107,-1374.0188009397166 L-0.5896945993498037,-1374.0493107144016 L-0.550092871918898,-1374.0817093242965 L-0.5116828968408262,-1374.1159742246991 L-0.47449140184999283,-1374.1520815722417 L-0.4385442667965711,-1374.1900062414825 L-0.4038665056379078,-1374.2297218423892 L-0.3704822490324602,-1374.2712007387024 L-0.33841472754838176,-1374.3144140671666 L-0.30768625549843787,-1374.3593317576147 L-0.27831821541250346,-1374.4059225538927 L-0.2503310431584427,-1374.4541540356088 L-0.19857622765370397,-1374.5554036887575 L-0.1525658391033078,-1374.6627989461865 L-0.11242792127820422,-1374.7760409342245 L-0.07827417526413472,-1374.894814508148 L-0.05019964860513193,-1375.0187891292078 L-0.028282470792694525,-1375.1476197844947 L-0.01258363583674349,-1375.2809479470889 L-0.0031468325234556005,-1375.4184025738134 L1.6771676465410223e-06,-1375.559601137824 " />
			<path d="M-1572.4456984028589,-537.5624142305293 L-1572.4016132380698,-537.5871354478501 L-1572.3586048164009,-537.6138051901974 L-1572.3167030654345,-537.6424048993243 L-1572.2759371426707,-537.6729146740096 L-1572.2363354152399,-537.7053132839044 L-1572.1979254401617,-537.739578184307 L-1572.160733945171,-537.7756855318496 L-1572.1247868101175,-537.8136102010905 L-1572.0901090489588,-537.8533258019971 L-1572.0567247923534,-537.8948046983103 L-1572.0246572708693,-537.9380180267743 L-1571.9939287988193,-537.9829357172225 L-1571.9645607587333,-538.0295265135004 L-1571.9365735864794,-538.0777579952168 L-1571.8848187709746,-538.1790076483654 L-1571.8388083824243,-538.2864029057944 L-1571.7986704645991,-538.3996448938325 L-1571.7645167185851,-538.518418467756 L-1571.736442191926,-538.6423930888157 L-1571.7145250141136,-538.7712237441027 L-1571.6988261791578,-538.9045519066966 L-1571.6893893758445,-539.0420065334212 L-1571.6862408661532,-539.1832050974319 " />
			<path d="M1.677167649023186e-06,-1375.559601137824 L-1.7241180534763136e-06,-1402.313700825616 " />
			<path d="M-1571.6862408661536,-539.1832050974319 L-1571.6862442674392,-565.9373047852237 " />
			<path d="M-1.7241180505500608e-06,-1402.3137008256156 L-0.0027273124924143133,-1402.448089112551 L-0.010897477633226238,-1402.585054483413 L-0.024492536897041006,-1402.7242669766258 L-0.043479738595306294,-1402.8653912171003 L-0.06781334089604707,-1403.0080872241795 L-0.09743472201994985,-1403.1520112306841 L-0.13227252146536062,-1403.2968165110763 L-0.17224281192198454,-1403.4421542167518 L-0.2172493014591268,-1403.5876742164478 L-0.2671835655013908,-1403.7330259397388 L-0.3219253080329729,-1403.8778592215922 L-0.3813426514013043,-1404.021825145946 L-0.44529245402186657,-1404.1645768862788 L-0.5136206552188047,-1404.3057705411443 L-0.5861626463705927,-1404.445065962661 L-0.6627436674666172,-1404.5821275759572 L-0.743179228119353,-1404.716625187602 L-0.8272755520178645,-1404.8482347810677 L-0.9148300437519119,-1404.9766392973163 L-1.0056317768820404,-1405.1015293986213 L-1.0994620020798476,-1405.2226042137895 L-1.1960946741142735,-1405.3395720629862 L-1.2952969964143664,-1405.4521511604178 L-1.396829981896607,-1405.5600702931772 L-1.5004490287057304,-1405.6630694746216 L-1.6059045094820152,-1405.7609005707009 L-1.7129423727354633,-1405.8533278977359 L-1.8213047548780872,-1405.9401287901999 L-1.9307306014398815,-1406.0210941371402 L-2.0409562959719088,-1406.096028885944 L-2.1517162951214086,-1406.1647525122382 L-2.2627437683489893,-1406.2270994547878 " />
			<path d="M-1571.6862442674394,-565.9373047852234 L-1571.6889698558139,-566.071693072159 L-1571.6971400209547,-566.2086584430208 L-1571.7107350802185,-566.3478709362338 L-1571.7297222819168,-566.488995176708 L-1571.7540558842175,-566.6316911837874 L-1571.7836772653413,-566.7756151902921 L-1571.8185150647869,-566.9204204706841 L-1571.8584853552434,-567.0657581763596 L-1571.9034918447805,-567.2112781760555 L-1571.953426108823,-567.3566298993466 L-1572.0081678513545,-567.5014631811999 L-1572.0675851947228,-567.645429105554 L-1572.1315349973434,-567.7881808458866 L-1572.1998631985402,-567.9293745007521 L-1572.272405189692,-568.0686699222687 L-1572.348986210788,-568.2057315355652 L-1572.4294217714407,-568.3402291472098 L-1572.5135180953394,-568.4718387406756 L-1572.6010725870733,-568.6002432569243 L-1572.6918743202034,-568.7251333582292 L-1572.7857045454014,-568.8462081733974 L-1572.8823372174356,-568.9631760225941 L-1572.9815395397359,-569.0757551200255 L-1573.083072525218,-569.1836742527852 L-1573.1866915720273,-569.2866734342294 L-1573.2921470528036,-569.3845045303088 L-1573.399184916057,-569.4769318573437 L-1573.5075472981996,-569.5637327498077 L-1573.6169731447615,-569.6446980967479 L-1573.7271988392934,-569.7196328455519 L-1573.8379588384428,-569.7883564718462 L-1573.9489863116705,-569.8507034143956 " />
			<path d="M-2.2627437683489937,-1406.2270994547878 L-60.66976389435783,-1437.3085169433477 " />
			<path d="M-1573.9489863116705,-569.8507034143958 L-1632.3560064376793,-600.9321209029555 " />
			<path d="M-60.66976389435782,-1437.3085169433477 L-60.79050231150914,-1437.3689084425694 L-60.91089671381902,-1437.4214084686237 L-61.03060406761149,-1437.4658674358448 L-61.14928329678314,-1437.5021586695473 L-61.26659625461398,-1437.5301787669564 L-61.382208687231795,-1437.549847891827 L-61.43927405134558,-1437.5565323920746 L-61.49579118598479,-1437.5611100019173 L-61.55171982612516,-1437.5635774600862 L-61.607020126008955,-1437.563933008667 " />
			<path d="M-1574.0630702110054,-568.7481485819328 L-1574.0137761756423,-537.7125321288297 " />
			<path d="M-1573.6015897943473,-278.1992189489297 L-1573.4496923916095,-182.56433134274403 " />
			<path d="M-1573.0555502898997,65.58826981071263 L-1572.9031105704998,161.56460099707556 " />
			<path d="M-1572.509510785452,409.3757585703552 L-1572.3568976697045,505.4612604200392 " />
			<path d="M-1571.963471828334,753.1629027301893 L-1571.8108587326242,849.2483919641198 " />
			<path d="M-1572.4457029973587,849.5862255317103 L-1572.3610338866333,849.541168705446 " />
			<path d="M-1.402480224950108,13.552624424687954 L-0.7594605350947354,13.21044028926752 " />
			<path d="M-61.607020126008855,-298.4874356049148 L-0.7594579378393362,-330.8675926412415 " />
			<path d="M-61.60702012600889,-642.5655004248994 L-0.75945793783937,-674.9456574612261 " />
			<path d="M-61.60702012600891,-986.6435652448838 L-0.7594579378394091,-1019.0237222812104 " />
			<path d="M-61.60702012600896,-1341.5586410415503 L-0.7594558595378622,-1373.9388102709215 " />

       </g>

       <!-- solid lines -->
       <g  stroke="rgb(0,0,0)" fill="none">
			<path d="M33.79970414071697,32.28554020292506 L-60.66976182580578,-17.98658300349438 " />
			<path d="M-60.66976182580578,-20.394828426556394 L-60.7780637271447,-20.334294506956354 L-60.88065357676958,-20.27100558179001 L-60.97728422674689,-20.205114119621534 L-61.067722885376966,-20.136778858754706 L-61.151751678009695,-20.06616442481841 L-61.22916817192356,-19.9934409341691 L-61.299785864003844,-19.91878358406557 L-61.36343463004494,-19.84237223060343 L-61.41996113459449,-19.764390955426023 L-61.46922920035189,-19.685027622255596 L-61.51112013623136,-19.604473424313163 L-61.545533023299164,-19.522922423717286 L-61.572384957896126,-19.440571083971424 L-61.59161125135985,-19.357617796666148 L-61.603165585865376,-19.27426240353643 L-61.60702012600883,-19.190705715025402 " />
			<path d="M-61.60702012600883,-19.190705715025388 L-61.603165585865376,-19.107149026514342 L-61.59161125135985,-19.023793633384624 L-61.572384957896126,-18.94084034607935 L-61.545533023299164,-18.85848900633349 L-61.51112013623136,-18.776938005737613 L-61.46922920035189,-18.696383807795183 L-61.41996113459449,-18.617020474624752 L-61.36343463004494,-18.539039199447345 L-61.299785864003844,-18.462627845985207 L-61.22916817192356,-18.387970495881675 L-61.151751678009695,-18.315247005232365 L-61.067722885376966,-18.24463257129607 L-60.97728422674689,-18.17629731042924 L-60.88065357676958,-18.110405848260765 L-60.77806372714469,-18.047116923094418 L-60.66976182580578,-17.986583003494385 " />
			<path d="M-60.669761825805914,-1439.716845808993 L-60.778063727144826,-1439.656311889393 L-60.88065357676972,-1439.5930229642265 L-60.977284226747024,-1439.5271315020582 L-61.0677228853771,-1439.4587962411913 L-61.15175167800983,-1439.388181807255 L-61.229168171923696,-1439.3154583166056 L-61.29978586400398,-1439.240800966502 L-61.36343463004508,-1439.16438961304 L-61.41996113459462,-1439.0864083378626 L-61.469229200352025,-1439.0070450046921 L-61.5111201362315,-1438.9264908067498 L-61.5455330232993,-1438.844939806154 L-61.57238495789626,-1438.762588466408 L-61.59161125135999,-1438.6796351791027 L-61.60316558586551,-1438.596279785973 L-61.60702012600896,-1438.512723097462 " />
			<path d="M33.79970414071697,32.28554020292506 L33.913457185003466,32.34317328544433 L34.03238733119026,32.39776668773897 L34.156208066138134,32.44918888952105 L34.2846210948512,32.49731601020241 L34.417317059095616,32.5420321073339 L34.55397628267073,32.58322945592086 L34.69426954153702,32.62080880794208 L34.83785885694564,32.65467963144699 L34.98439830965882,32.68476032865502 L35.133534873299645,32.71097843253184 L35.284909264823476,32.73327078136877 L35.43815681006231,32.7515836709449 L35.59290832225677,32.76587298390522 L35.74879099145933,32.776104296043194 L35.905429282666184,32.78225295923174 L36.062445840513924,32.78430416080267 L36.219462398361664,32.78225295923174 L36.37610068956852,32.776104296043194 L36.53198335877108,32.76587298390522 L36.68673487096554,32.7515836709449 L36.83998241620437,32.73327078136877 L36.9913568077282,32.71097843253184 L37.140493371369026,32.68476032865502 L37.28703282408221,32.65467963144699 L37.43062213949083,32.62080880794208 L37.570915398357116,32.58322945592086 L37.70757462193223,32.542032107333895 L37.84027058617665,32.49731601020241 L37.96868361488971,32.44918888952105 L38.09250434983759,32.39776668773897 L38.21143449602438,32.34317328544432 L38.325187540310864,32.28554020292507 " />
			<path d="M38.32518754031088,32.28554020292507 L60.66976182580578,20.39482842655639 " />
			<path d="M60.66976182580578,20.394828426556394 L60.77806372714469,20.334294506956358 L60.88065357676958,20.27100558179001 L60.97728422674689,20.205114119621534 L61.067722885376966,20.136778858754706 L61.151751678009695,20.06616442481841 L61.22916817192356,19.9934409341691 L61.299785864003844,19.91878358406557 L61.36343463004494,19.84237223060343 L61.41996113459449,19.76439095542602 L61.46922920035189,19.685027622255593 L61.51112013623136,19.604473424313163 L61.545533023299164,19.522922423717286 L61.57238495789612,19.440571083971424 L61.59161125135985,19.35761779666615 L61.603165585865376,19.27426240353643 L61.60702012600883,19.190705715025395 " />
			<path d="M61.60702012600883,19.190705715025388 L61.603165585865376,19.107149026514346 L61.59161125135985,19.023793633384624 L61.57238495789612,18.94084034607935 L61.545533023299164,18.85848900633349 L61.51112013623136,18.776938005737613 L61.46922920035189,18.696383807795183 L61.41996113459449,18.617020474624756 L61.36343463004494,18.539039199447345 L61.299785864003844,18.462627845985207 L61.22916817192356,18.387970495881675 L61.151751678009695,18.315247005232365 L61.067722885376966,18.24463257129607 L60.97728422674689,18.17629731042924 L60.88065357676958,18.110405848260765 L60.77806372714469,18.047116923094418 L60.669761825805786,17.98658300349439 " />
			<path d="M61.6070201260087,-1400.131311667411 L61.60316558586525,-1400.214868355922 L61.59161125135972,-1400.2982237490517 L61.57238495789599,-1400.381177036357 L61.545533023299036,-1400.4635283761029 L61.511120136231234,-1400.5450793766988 L61.46922920035176,-1400.6256335746411 L61.41996113459436,-1400.7049969078116 L61.363434630044814,-1400.782978182989 L61.29978586400372,-1400.859389536451 L61.22916817192343,-1400.9340468865546 L61.15175167800957,-1401.006770377204 L61.06772288537684,-1401.0773848111403 L60.97728422674676,-1401.1457200720072 L60.880653576769454,-1401.2116115341755 L60.77806372714456,-1401.274900459342 L60.66976182580566,-1401.335434378942 " />
			<path d="M60.66976182580578,17.98658300349438 L-33.79970414071697,-32.28554020292506 " />
			<path d="M60.66976182580565,-1401.335434378942 L-33.7997041407171,-1451.6075575853615 " />
			<path d="M-33.79970414071697,-32.28554020292506 L-33.913457185003466,-32.34317328544433 L-34.03238733119026,-32.39776668773897 L-34.156208066138134,-32.44918888952105 L-34.2846210948512,-32.49731601020241 L-34.417317059095616,-32.542032107333895 L-34.55397628267073,-32.58322945592086 L-34.69426954153702,-32.62080880794208 L-34.83785885694564,-32.65467963144699 L-34.984398309658815,-32.68476032865502 L-35.13353487329964,-32.71097843253184 L-35.284909264823476,-32.73327078136877 L-35.43815681006231,-32.7515836709449 L-35.59290832225677,-32.76587298390522 L-35.74879099145933,-32.776104296043194 L-35.905429282666184,-32.78225295923174 L-36.062445840513924,-32.78430416080267 L-36.219462398361664,-32.78225295923174 L-36.37610068956852,-32.776104296043194 L-36.53198335877108,-32.76587298390522 L-36.68673487096554,-32.7515836709449 L-36.83998241620437,-32.73327078136877 L-36.9913568077282,-32.71097843253184 L-37.14049337136903,-32.68476032865502 L-37.28703282408221,-32.65467963144699 L-37.43062213949083,-32.62080880794208 L-37.570915398357116,-32.58322945592086 L-37.70757462193223,-32.542032107333895 L-37.84027058617665,-32.49731601020241 L-37.96868361488971,-32.44918888952105 L-38.09250434983759,-32.39776668773897 L-38.21143449602438,-32.34317328544433 L-38.32518754031086,-32.28554020292507 " />
			<path d="M-33.7997041407171,-1451.6075575853615 L-33.913457185003594,-1451.6651906678808 L-34.032387331190385,-1451.7197840701754 L-34.15620806613826,-1451.7712062719575 L-34.284621094851325,-1451.8193333926388 L-34.417317059095744,-1451.8640494897704 L-34.55397628267086,-1451.9052468383572 L-34.694269541537146,-1451.9428261903786 L-34.837858856945765,-1451.9766970138835 L-34.98439830965894,-1452.0067777110914 L-35.133534873299766,-1452.0329958149682 L-35.284909264823604,-1452.0552881638052 L-35.43815681006244,-1452.0736010533815 L-35.592908322256896,-1452.0878903663418 L-35.74879099145946,-1452.0981216784796 L-35.90542928266631,-1452.104270341668 L-36.06244584051405,-1452.1063215432391 L-36.21946239836179,-1452.104270341668 L-36.376100689568645,-1452.0981216784796 L-36.53198335877121,-1452.0878903663418 L-36.686734870965665,-1452.0736010533815 L-36.8399824162045,-1452.0552881638052 L-36.99135680772833,-1452.0329958149682 L-37.14049337136916,-1452.0067777110914 L-37.28703282408234,-1451.9766970138835 L-37.43062213949096,-1451.9428261903786 L-37.57091539835724,-1451.9052468383572 L-37.70757462193236,-1451.8640494897704 L-37.84027058617678,-1451.8193333926388 L-37.96868361488984,-1451.7712062719575 L-38.09250434983772,-1451.7197840701754 L-38.21143449602451,-1451.6651906678808 L-38.325187540310985,-1451.6075575853615 " />
			<path d="M-60.66976182580578,-20.39482842655639 L-38.32518754031088,-32.28554020292507 " />
			<path d="M-60.66976182580592,-1439.716845808993 L-38.325187540311006,-1451.6075575853617 " />
			<path d="M-1599.512266586821,863.6801467152268 L-1658.164812830091,832.7924800312544 " />
			<path d="M-1658.1838809085687,830.3839465129869 L-1658.2912521230294,830.4445866842997 L-1658.39293966711,830.50794010506 L-1658.4887006628253,830.5738554573134 L-1658.5783063875926,830.6421753039999 L-1658.6615428205296,830.7127364649891 L-1658.7382111536376,830.785370406831 L-1658.808128266649,830.8599036452941 L-1658.8711271644056,830.9361581597275 L-1658.9270573757212,831.0139518182583 L-1658.975785312779,831.0930988128094 L-1659.0171945902014,831.1734101028966 L-1659.0511863030345,831.2546938671468 L-1659.0776792629795,831.3367559614584 L-1659.0966101923086,831.4194003827091 L-1659.1079338750023,831.5024297369046 L-1659.1116232647466,831.585645710648 " />
			<path d="M-1659.1116232647466,831.585645710648 L-1659.1076023047713,831.6695656247916 L-1659.0958157954458,831.753269281553 L-1659.076292375517,831.8365532985912 L-1659.0490794828033,831.9192153132021 L-1659.0142432389296,832.001054474017 L-1658.9718682886669,832.0818719290295 L-1658.9220575942618,832.1614713087638 L-1658.8649321852608,832.2396592034123 L-1658.800630864434,832.3162456327798 L-1658.7293098705127,832.3910445078963 L-1658.6511424985624,832.4638740831738 L-1658.5663186789125,832.5345573980102 L-1658.4750445156646,832.6029227067664 L-1658.3775417859035,832.6688038960723 L-1658.2740474008249,832.7320408884472 L-1658.164812830091,832.7924800312545 " />
			<path d="M-1660.4380731244014,-588.8596700207613 L-1660.5454443388621,-588.7990298494485 L-1660.6471318829429,-588.7356764286882 L-1660.742892878658,-588.6697610764348 L-1660.8324986034254,-588.6014412297483 L-1660.9157350363623,-588.5308800687591 L-1660.9924033694704,-588.4582461269172 L-1661.0623204824817,-588.383712888454 L-1661.1253193802384,-588.3074583740207 L-1661.181249591554,-588.2296647154899 L-1661.2299775286117,-588.1505177209388 L-1661.2713868060341,-588.0702064308516 L-1661.3053785188672,-587.9889226666014 L-1661.3318714788122,-587.9068605722898 L-1661.3508024081414,-587.8242161510391 L-1661.362126090835,-587.7411867968436 L-1661.3658154805794,-587.6579708231002 " />
			<path d="M-1599.512266586821,863.680146715227 L-1599.3980583261718,863.7374021032033 L-1599.278697081931,863.7915999439925 L-1599.1544704057908,863.842609670249 L-1599.0256775706946,863.8903083950742 L-1598.8926288498633,863.9345812080621 L-1598.755644769319,863.9753214521286 L-1598.6150553357102,864.0124309804571 L-1598.4711992412967,864.0458203929435 L-1598.3244230480102,864.0754092515685 L-1598.1750803525563,864.1011262741802 L-1598.0235309345692,864.1229095062183 L-1597.870139889871,864.140706469969 L-1597.7152767509242,864.1544742909879 L-1597.5593145965947,864.164179801388 L-1597.4026291533728,864.1697996197447 L-1597.2455978902153,864.1713202074235 L-1597.0885991091898,864.1687379011953 L-1596.9320110341107,864.1620589220622 L-1596.7762108993668,864.1512993602697 L-1596.6215740411287,864.1364851365448 L-1596.4684729931332,864.1176519396499 L-1596.3172765892145,864.0948451404059 L-1596.1683490747528,864.0681196823899 L-1596.0220492291753,864.0375399495712 L-1595.878729501624,864.0031796112044 L-1595.7387351618763,863.9651214443543 L-1595.6024034685584,863.9234571344784 L-1595.470062856661,863.8782870545488 L-1595.3420321463093,863.829720023244 L-1595.2186197746992,863.7778730427967 L-1595.1001230530435,863.722871017124 L-1594.9868274503235,863.6648464509233 " />
			<path d="M-1594.986827450324,863.6648464509233 L-1572.736620351351,851.6971671494771 " />
			<path d="M-1572.7366203513507,851.6971671494769 L-1572.62924913689,851.636526978164 L-1572.5275615928092,851.5731735574037 L-1572.431800597094,851.5072582051504 L-1572.3421948723267,851.4389383584638 L-1572.2589584393897,851.3683771974746 L-1572.1822901062817,851.2957432556327 L-1572.1123729932704,851.2212100171696 L-1572.0493740955137,851.1449555027363 L-1571.993443884198,851.0671618442054 L-1571.9447159471404,850.9880148496543 L-1571.903306669718,850.9077035595672 L-1571.8693149568849,850.826419795317 L-1571.8428219969398,850.7443577010054 L-1571.8238910676107,850.6617132797546 L-1571.812567384917,850.5786839255592 L-1571.8088779951727,850.4954679518157 " />
			<path d="M-1571.8088779951727,850.4954679518157 L-1571.812898955148,850.4115480376721 L-1571.8246854644735,850.3278443809107 L-1571.8442088844024,850.2445603638726 L-1571.871421777116,850.1618983492616 L-1571.9062580209898,850.0800591884467 L-1571.9486329712524,849.9992417334342 L-1571.9984436656575,849.9196423536999 L-1572.0555690746585,849.8414544590514 L-1572.1198703954853,849.764868029684 L-1572.1911913894066,849.6900691545675 L-1572.269358761357,849.61723957929 L-1572.3541825810069,849.5465562644536 L-1572.4454567442547,849.4781909556973 L-1572.5429594740158,849.4123097663914 L-1572.6464538590944,849.3490727740166 L-1572.7556884298283,849.2886336312092 " />
			<path d="M-1631.4082346730981,818.4009669472368 L-1631.5224429337472,818.3437115592606 L-1631.641804177988,818.2895137184713 L-1631.7660308541283,818.2385039922149 L-1631.8948236892245,818.1908052673897 L-1632.0278724100558,818.1465324544017 L-1632.1648564906002,818.1057922103353 L-1632.305445924209,818.0686826820067 L-1632.4493020186223,818.0352932695204 L-1632.596078211909,818.0057044108953 L-1632.7454209073628,817.9799873882837 L-1632.89697032535,817.9582041562455 L-1633.050361370048,817.9404071924948 L-1633.205224508995,817.926639371476 L-1633.3611866633244,817.9169338610759 L-1633.5178721065463,817.9113140427191 L-1633.6749033697038,817.9097934550404 L-1633.8319021507293,817.9123757612685 L-1633.9884902258084,817.9190547404016 L-1634.1442903605523,817.9298143021941 L-1634.2989272187904,817.944628525919 L-1634.4520282667859,817.9634617228139 L-1634.6032246707045,817.9862685220579 L-1634.7521521851663,818.0129939800739 L-1634.8984520307438,818.0435737128927 L-1635.041771758295,818.0779340512595 L-1635.1817660980428,818.1159922181096 L-1635.3180977913607,818.1576565279854 L-1635.4504384032582,818.2028266079151 L-1635.5784691136098,818.2513936392198 L-1635.70188148522,818.3032406196671 L-1635.8203782068756,818.3582426453398 L-1635.9336738095956,818.4162672115406 " />
			<path d="M-1633.9658425972107,-600.9834198575003 L-1634.08235358693,-601.0287478226821 L-1634.2026010488144,-601.0712264113754 L-1634.3263398994716,-601.1107690454811 L-1634.4533179395048,-601.1472951308414 L-1634.5832763675353,-601.1807302215032 L-1634.715950307682,-601.2110061714502 L-1634.851069349419,-601.2380612734963 L-1634.9883580987155,-601.2618403850538 L-1635.1275367393332,-601.2822950405232 L-1635.2683216031353,-601.2993835500735 L-1635.4104257482477,-601.3130710846126 L-1635.5535595438914,-601.3233297467751 L-1635.697431260697,-601.3301386277809 L-1635.8417476652942,-601.3334838500512 L-1635.9862146179687,-601.3333585954922 L-1636.1305376721655,-601.3297631193927 L-1636.274422674617,-601.3227047499033 L-1636.4175763648752,-601.3121978730999 L-1636.559706973022,-601.2982639036634 L-1636.7005248143425,-601.2809312412328 L-1636.8397428797493,-601.2602352125222 L-1636.9770774207518,-601.2362179993195 L-1637.1122485277806,-601.2089285525132 L-1637.2449807006878,-601.1784224923229 L-1637.37500341026,-601.1447619949357 L-1637.5020516495997,-601.1080156657827 L-1637.625866474251,-601.0682583997086 L-1637.7461955299707,-601.0255712283254 L-1637.8627935670645,-600.9800411548565 L-1637.9754229402456,-600.9317609768106 L-1638.083854092994,-600.8808290968454 L-1638.1878660254285,-600.8273493222077 " />
			<path d="M-1658.1838809085684,830.3839465129868 L-1635.9336738095953,818.4162672115406 " />
			<path d="M-1660.4380731244014,-588.8596700207617 L-1638.1878660254283,-600.8273493222079 " />
			<path d="M-2.262744233667398,13.094802563801355 L-60.66976436268826,-17.986614951904464 " />
			<path d="M-1573.948986695931,849.4705878062442 L-1632.356006824952,818.3891702905383 " />
			<path d="M-62.93250567162722,-21.900013972487635 L-62.93014501576444,-21.775033297850513 L-62.92306793811811,-21.647800928071906 L-62.911289205438834,-21.5185823411879 L-62.89483339476487,-21.387647159596742 L-62.87373484214065,-21.25526858747535 L-62.84803757097251,-21.121722840722317 L-62.81779520017121,-20.9872885706167 L-62.78307083227288,-20.85224628239528 L-62.743936921771656,-20.71687774996143 L-62.700475123939114,-20.581465427946785 L-62.652776124445516,-20.44629186235261 L-62.600939450138725,-20.31163910100044 L-62.54507326137538,-20.177788105022266 L-62.4852941263378,-20.04501816261812 L-62.421726777807415,-19.913606306304356 L-62.35450385290224,-19.78382673486855 L-62.28376561632155,-19.65595024123714 L-62.209659667675076,-19.530243647449602 L-62.132340633507496,-19.406969247918124 L-62.051969844660775,-19.286384262134455 L-61.96871499964765,-19.16874029796587 L-61.882749814738496,-19.05428282666013 L-61.79425366149184,-18.943250670654894 L-61.70341119248474,-18.835875505260226 L-61.61041195602403,-18.732381375254064 L-61.51545000064232,-18.63298422739925 L-61.41872347020393,-18.537891459857516 L-61.32043419046583,-18.4473014894407 L-61.22078724795592,-18.361403337602052 L-61.119990562047576,-18.280376236031543 L-61.01825445112336,-18.20438925267809 L-60.91579119373297,-18.133600938979093 " />
			<path d="M-1634.6187481338911,814.4757712699552 L-1634.6169126840477,814.5858508027968 L-1634.611409280748,814.6977052431395 L-1634.6022468523706,814.8111531253069 L-1634.5894402634683,814.9260103985225 L-1634.5730102906537,815.0420907255013 L-1634.5529835888906,815.1592057847521 L-1634.5293926482527,815.2771655760984 L-1634.5022757412123,815.395778728923 L-1634.4716768605504,815.5148528126358 L-1634.4376456479845,815.6341946488612 L-1634.400237313634,815.7536106248386 L-1634.3595125464506,815.8729070075276 L-1634.3155374157589,815.9918902579084 L-1634.2683832640719,816.1103673449677 L-1634.2181265913478,816.2281460588601 L-1634.1648489308816,816.3450353227373 L-1634.1086367170305,816.4608455027391 L-1634.0495811449891,816.5753887156437 L-1633.987778022838,816.6884791336785 L-1633.9233276161128,816.7999332859938 L-1633.8563344851384,816.9095703563162 L-1633.786907315397,817.0172124762925 L-1633.715158741204,817.122685014053 L-1633.6412051629766,817.2258168575229 L-1633.565166558393,817.3264406920238 L-1633.4871662877483,817.4243932717152 L-1633.407330893823,817.5195156844336 L-1633.3257898965865,817.6116536095024 L-1633.242675583073,817.7006575680916 L-1633.1581227927675,817.7863831657236 L-1633.0722686988493,817.8686913265287 L-1632.9852525856525,817.9474485188745 " />
			<path d="M-61.60702012600883,-50.414687089040584 L-61.68346378260503,-50.41162599983956 L-61.75848623777261,-50.40441273618577 L-61.831982310852325,-50.39305741099573 L-61.90384896115589,-50.37757594431081 L-61.973985432427874,-50.35799004097749 L-62.04229339410487,-50.3343271602174 L-62.10867707917387,-50.30662047712981 L-62.17304341843656,-50.274908836180515 " />
			<path d="M-62.17304341843657,-50.27490883618051 L-62.21712861291788,-50.25018761985315 L-62.260137064392,-50.22351787734684 L-62.30203884524354,-50.19491816691627 L-62.34280479793862,-50.164408389792555 L-62.38240655531427,-50.132009776334954 L-62.420816560317796,-50.09774487125756 L-62.45800808518253,-50.061637517941485 L-62.4939552500264,-50.02371284184337 L-62.52863304086063,-49.9839972330117 L-62.562017326995765,-49.94251832772317 L-62.59408487783314,-49.89930498925189 L-62.624813379030016,-49.854387287784725 L-62.65418144802706,-49.80779647949685 L-62.68216864892754,-49.759564984802 L-62.73392352081852,-49.65831530288526 L-62.77993396436527,-49.550920013109355 L-62.820071935588906,-49.437677989363635 L-62.85422573320722,-49.31890437660602 L-62.88230030949185,-49.194929713835684 L-62.90421753477972,-49.0660990142252 L-62.91991641490264,-48.93277080497202 L-62.92935326093002,-48.79531612954132 L-62.93250181075223,-48.65411751507692 " />
			<path d="M-1632.3560021821277,786.2165141317284 L-1632.4587295926444,786.1646410346632 L-1632.5612451615061,786.118461926027 L-1632.6633374831063,786.0780720354765 L-1632.7647960246518,786.0435546542558 L-1632.8654115603179,786.0149809634353 L-1632.9649766027096,785.9924098871226 L-1633.0632858307397,785.9758879709507 L-1633.160136513036,785.9654492860928 L-1633.2553289260113,785.9611153590014 L-1633.348666765729,785.962895127016 L-1633.439957552717,785.9707849199341 L-1633.5290130288959,785.9847684675784 L-1633.6156495458001,786.00481693335 L-1633.699688443295,786.0308889736938 L-1633.7809564180054,786.062930823357 L-1633.8592858807003,786.1008764062624 " />
			<path d="M-1633.8592858807003,786.1008764062624 L-1633.9033710751817,786.1255976225897 L-1633.9463795266558,786.152267365096 L-1633.9882813075073,786.1808670755266 L-1634.0290472602023,786.2113768526502 L-1634.068649017578,786.2437754661079 L-1634.1070590225816,786.2780403711853 L-1634.1442505474463,786.3141477245014 L-1634.1801977122902,786.3520724005995 L-1634.2148755031244,786.3917880094311 L-1634.2482597892595,786.4332669147196 L-1634.2803273400968,786.476480253191 L-1634.3110558412939,786.5213979546581 L-1634.3404239102908,786.567988762946 L-1634.3684111111913,786.6162202576409 L-1634.4201659830824,786.7174699395575 L-1634.466176426629,786.8248652293335 L-1634.5063143978527,786.9381072530792 L-1634.540468195471,787.0568808658368 L-1634.5685427717556,787.1808555286071 L-1634.5904599970436,787.3096862282176 L-1634.6061588771665,787.4430144374708 L-1634.6155957231938,787.5804691129015 L-1634.618744273016,787.7216677273659 " />
			<path d="M-62.932505671627226,-21.900013972487642 L-62.93250181075224,-48.65411751507692 " />
			<path d="M-1634.618748133891,814.4757712699552 L-1634.6187442730159,787.7216677273659 " />
			<path d="M-62.932503525602755,-365.9780466359547 L-62.93105843022789,-365.88046551718963 L-62.92672498991774,-365.7814710173587 L-62.91950873975794,-365.6811895817329 L-62.9094188970354,-365.57974929938126 L-62.89646834946511,-365.4772797395629 L-62.880673638728695,-365.37391178622886 L-62.86205493934578,-365.26977747084464 L-62.840636032905216,-365.1650098037468 L-62.81644427768887,-365.05974260424944 L-62.78951057372708,-364.95411032971737 L-62.75986932333013,-364.8482479038243 L-62.727558387146324,-364.74229054421534 L-62.692619035802736,-364.63637358979395 L-62.655095897190435,-364.53063232785433 L-62.6150368994614,-364.42520182127924 L-62.572493209810155,-364.3202167360251 L-62.52751916911806,-364.21581116911324 L-62.48017222254398,-364.11211847734876 L-62.43051284614977,-364.00927110698416 L-62.37860446965448,-363.90740042454644 L-62.32451339541581,-363.8066365490429 L-62.268308713742414,-363.7071081857611 L-62.21006221464508,-363.6089424618737 L-62.14984829613967,-363.5122647640597 L-62.08774386921887,-363.41719857834846 L-62.023828259614014,-363.32386533239145 L-61.958183106472724,-363.2323842403633 L-61.89089225808153,-363.14287215068987 L-61.82204166476677,-363.0554433967986 L-61.75171926911066,-362.9702096510803 L-61.680014893622506,-362.8872797822511 L-61.60702012600886,-362.80675971629427 " />
			<path d="M-1634.618746068942,470.3980630265341 L-1634.616020497468,470.5324513224587 L-1634.6078503491872,470.6694167022882 L-1634.5942553067018,470.8086292044257 L-1634.5752681216604,470.9497534537602 L-1634.5509345358546,471.0924494696138 L-1634.521313171024,471.2363734847858 L-1634.486475387631,471.3811787737173 L-1634.4465051129473,471.52651648778385 L-1634.4014986388654,471.6720364957022 L-1634.3515643899236,471.8173882270271 L-1634.2968226621015,471.9622215167067 L-1634.2374053330159,472.10618744866 L-1634.1734555442172,472.24893919634724 L-1634.1051273563478,472.3901328583046 L-1634.032585377997,472.5294282866332 L-1633.956004369145,472.66648990644546 L-1633.8755688201495,472.8009875242941 L-1633.7914725072933,472.93259712363704 L-1633.70391802596,473.06100164542187 L-1633.6131163025643,473.1858917519087 L-1633.519286086411,473.3069665718919 L-1633.4226534227093,473.42393442552526 L-1633.3234511080102,473.5365135270042 L-1633.221918129379,473.6444326634125 L-1633.118299088654,473.7474318480979 L-1633.0128436131808,473.8452629470029 L-1632.9058057544362,473.9376902764412 L-1632.7974433759978,474.0244911708804 L-1632.688017532326,474.1054565193632 L-1632.5777918398635,474.1803912692732 L-1632.4670318419578,474.24911489623435 L-1632.356004369145,474.31146183900984 " />
			<path d="M-61.60702012600884,-394.4927175451379 L-61.68346409153135,-394.489656551935 L-61.758486847147104,-394.48244335384373 L-61.83198321100231,-394.47108806376315 L-61.9038501412434,-394.45560660180234 L-61.973986880481675,-394.4360206729608 L-62.042295097055046,-394.4123577366978 L-62.10867902288902,-394.3846509684344 L-62.17304558776343,-394.35293921304134 " />
			<path d="M-62.17304558776344,-394.3529392130413 L-62.217130766480906,-394.32821799618273 L-62.26013920213067,-394.3015482537566 L-62.30204096711514,-394.27294854401333 L-62.342806903918124,-394.24243876817906 L-62.382408645394136,-394.2100401566073 L-62.420818634507825,-394.17577525400577 L-62.45801014350965,-394.1396679037484 L-62.49395729253445,-394.10174323128393 L-62.528635067610146,-394.0620276266524 L-62.562019338063735,-394.02054872612126 L-62.59408687331274,-393.97733539295484 L-62.624815359030336,-393.93241769732936 L-62.65418341267283,-393.8858268954089 L-62.68217059835881,-393.83759540759536 L-62.73392544030069,-393.73634574093273 L-62.779935854634324,-393.6289504683098 L-62.82007379749125,-393.51570846350035 L-62.85422756769356,-393.396934871338 L-62.882302117610806,-393.2729602306895 L-62.90421931767102,-393.1441295545874 L-62.9199181737901,-393.0108013700823 L-62.929354997114174,-392.87334672048627 L-62.932503525602755,-392.73214813278423 " />
			<path d="M-1632.356004369145,442.1388081402908 L-1632.4587317928047,442.0869350365808 L-1632.5612473739195,442.0407559223893 L-1632.6633397068028,442.0003660274096 L-1632.7647982585822,441.9658486429171 L-1632.8654138033564,441.93727495000735 L-1632.9649788536576,441.914703872808 L-1633.0632880883272,441.89818195696625 L-1633.1601387759265,441.8877432736636 L-1633.2553311928043,441.88340934935474 L-1633.3486690349641,441.88518912137624 L-1633.439959822878,441.893078919516 L-1633.529015298415,441.9070624735818 L-1633.6156518130626,441.92711094695386 L-1633.6996907066432,441.95318299605054 L-1633.7809586757448,441.98522485558675 L-1633.8592881311026,442.02317044944743 " />
			<path d="M-1633.8592881311026,442.0231704494475 L-1633.9033733098202,442.04789166630604 L-1633.9463817454698,442.07456140873217 L-1633.9882835104543,442.10316111847544 L-1634.0290494472574,442.1336708943097 L-1634.0686511887334,442.16606950588147 L-1634.107061177847,442.200334408483 L-1634.1442526868489,442.2364417587404 L-1634.1801998358737,442.27436643120484 L-1634.2148776109493,442.31408203583635 L-1634.2482618814029,442.3555609363675 L-1634.280329416652,442.39877426953393 L-1634.3110579023696,442.4436919651594 L-1634.340425956012,442.49028276707986 L-1634.368413141698,442.5385142548934 L-1634.4201679836399,442.63976392155604 L-1634.4661783979736,442.74715919417895 L-1634.5063163408304,442.8604011989884 L-1634.5404701110328,442.9791747911508 L-1634.56854466095,443.1031494317993 L-1634.5904618610102,443.2319801079014 L-1634.6061607171293,443.3653082924065 L-1634.6155975404533,443.5027629420025 L-1634.618746068942,443.64396152970454 " />
			<path d="M-62.93250352560276,-365.9780466359547 L-62.93250352560276,-392.73214813278423 " />
			<path d="M-1634.6187460689418,470.3980630265341 L-1634.6187460689418,443.64396152970454 " />
			<path d="M-1573.9489842431362,161.31481451041935 L-1632.356004369145,130.2333970190253 " />
			<path d="M-62.93250352560279,-710.0561114559391 L-62.93105843022793,-709.9585303371741 L-62.92672498991777,-709.8595358373432 L-62.91950873975797,-709.7592544017174 L-62.90941889703544,-709.6578141193656 L-62.896468349465145,-709.5553445595473 L-62.88067363872873,-709.4519766062133 L-62.86205493934582,-709.347842290829 L-62.84063603290525,-709.2430746237312 L-62.81644427768891,-709.1378074242339 L-62.789510573727114,-709.0321751497019 L-62.759869323330165,-708.9263127238088 L-62.72755838714636,-708.8203553641998 L-62.69261903580277,-708.7144384097784 L-62.65509589719047,-708.6086971478387 L-62.61503689946144,-708.5032666412637 L-62.57249320981019,-708.3982815560095 L-62.527519169118094,-708.2938759890977 L-62.48017222254401,-708.1901832973332 L-62.43051284614981,-708.0873359269686 L-62.37860446965452,-707.9854652445308 L-62.32451339541585,-707.8847013690273 L-62.26830871374245,-707.7851730057455 L-62.21006221464511,-707.6870072818581 L-62.14984829613971,-707.5903295840442 L-62.087743869218905,-707.4952633983329 L-62.02382825961405,-707.4019301523758 L-61.95818310647276,-707.3104490603477 L-61.890892258081564,-707.2209369706743 L-61.822041664766815,-707.1335082167831 L-61.751719269110694,-707.0482744710647 L-61.68001489362254,-706.9653446022355 L-61.6070201260089,-706.8848245362786 " />
			<path d="M-1634.618746068942,126.3199982065496 L-1634.616020497468,126.4543865024742 L-1634.6078503491872,126.59135188230366 L-1634.5942553067018,126.73056438444122 L-1634.5752681216604,126.87168863377568 L-1634.5509345358546,127.01438464962933 L-1634.521313171024,127.15830866480132 L-1634.486475387631,127.30311395373282 L-1634.4465051129473,127.44845166779936 L-1634.4014986388654,127.59397167571767 L-1634.3515643899236,127.73932340704262 L-1634.2968226621015,127.88415669672216 L-1634.2374053330159,128.02812262867553 L-1634.1734555442172,128.17087437636278 L-1634.1051273563478,128.31206803832006 L-1634.032585377997,128.4513634666487 L-1633.956004369145,128.58842508646097 L-1633.8755688201495,128.72292270430958 L-1633.7914725072933,128.85453230365255 L-1633.70391802596,128.98293682543738 L-1633.6131163025643,129.10782693192422 L-1633.519286086411,129.22890175190744 L-1633.4226534227093,129.3458696055408 L-1633.3234511080102,129.45844870701973 L-1633.221918129379,129.566367843428 L-1633.118299088654,129.6693670281134 L-1633.0128436131808,129.7671981270184 L-1632.9058057544362,129.85962545645666 L-1632.7974433759978,129.94642635089596 L-1632.688017532326,130.0273916993787 L-1632.5777918398635,130.10232644928868 L-1632.4670318419578,130.17105007624983 L-1632.356004369145,130.23339701902535 " />
			<path d="M-1573.8483200980365,161.36570077942898 L-1573.7520671141822,161.4093255115486 L-1573.656171999869,161.44785474989945 L-1573.5608090311525,161.48121847294038 L-1573.4661515169882,161.50935604673714 L-1573.3723714842652,161.53221633515608 L-1573.279639365172,161.54975779279704 L-1573.1881236874601,161.56194854049622 L-1573.097990768167,161.56876642326233 L-1573.0094044113594,161.57019905054008 L-1572.9225256104407,161.56624381872828 L-1572.8375122555694,161.55690791591158 L-1572.7545188467143,161.54220830879714 L-1572.6736962128725,161.52217171187993 L-1572.5951912379596,161.4968345388929 L-1572.5191465938674,161.46624283663 L-1572.4457004811784,161.43045220126263 " />
			<path d="M-61.60702012600888,-738.5707823651222 L-61.683464091531384,-738.5677213719193 L-61.75848684714714,-738.5605081738281 L-61.831983211002346,-738.5491528837474 L-61.90385014124344,-738.5336714217867 L-61.973986880481704,-738.5140854929451 L-62.04229509705508,-738.4904225566821 L-62.108679022889056,-738.4627157884187 L-62.17304558776347,-738.4310040330256 " />
			<path d="M-62.173045587763475,-738.4310040330256 L-62.21713076648094,-738.406282816167 L-62.2601392021307,-738.3796130737409 L-62.302040967115175,-738.3510133639976 L-62.34280690391816,-738.3205035881634 L-62.38240864539417,-738.2881049765916 L-62.42081863450786,-738.2538400739901 L-62.45801014350968,-738.2177327237326 L-62.49395729253449,-738.1798080512682 L-62.52863506761018,-738.1400924466367 L-62.56201933806377,-738.0986135461056 L-62.594086873312776,-738.0554002129392 L-62.62481535903037,-738.0104825173137 L-62.654183412672865,-737.9638917153932 L-62.682170598358844,-737.9156602275797 L-62.73392544030072,-737.814410560917 L-62.77993585463436,-737.7070152882941 L-62.82007379749128,-737.5937732834847 L-62.8542275676936,-737.4749996913223 L-62.88230211761084,-737.3510250506738 L-62.90421931767106,-737.2221943745717 L-62.91991817379014,-737.0888661900666 L-62.92935499711422,-736.9514115404705 L-62.93250352560279,-736.8102129527686 " />
			<path d="M-1632.356004369145,98.0607433203064 L-1632.4587317928047,98.00887021659642 L-1632.5612473739195,97.9626911024049 L-1632.6633397068028,97.9223012074252 L-1632.7647982585822,97.8877838229327 L-1632.8654138033564,97.85921013002299 L-1632.9649788536576,97.83663905282361 L-1633.0632880883272,97.82011713698186 L-1633.1601387759265,97.80967845367921 L-1633.2553311928043,97.80534452937039 L-1633.3486690349641,97.80712430139188 L-1633.439959822878,97.8150140995316 L-1633.529015298415,97.82899765359744 L-1633.6156518130626,97.84904612696947 L-1633.6996907066432,97.87511817606615 L-1633.7809586757448,97.90716003560236 L-1633.8592881311026,97.94510562946309 " />
			<path d="M-1633.8592881311026,97.94510562946309 L-1633.9033733098202,97.96982684632168 L-1633.9463817454698,97.99649658874782 L-1633.9882835104543,98.02509629849108 L-1634.0290494472574,98.05560607432534 L-1634.0686511887334,98.08800468589708 L-1634.107061177847,98.12226958849864 L-1634.1442526868489,98.15837693875604 L-1634.1801998358737,98.19630161122048 L-1634.2148776109493,98.236017215852 L-1634.2482618814029,98.2774961163831 L-1634.280329416652,98.32070944954958 L-1634.3110579023696,98.36562714517504 L-1634.340425956012,98.41221794709551 L-1634.368413141698,98.46044943490905 L-1634.4201679836399,98.56169910157169 L-1634.4661783979736,98.66909437419459 L-1634.5063163408304,98.78233637900404 L-1634.5404701110328,98.9011099711664 L-1634.56854466095,99.02508461181495 L-1634.5904618610102,99.15391528791703 L-1634.6061607171293,99.28724347242209 L-1634.6155975404533,99.42469812201814 L-1634.618746068942,99.56589670972015 " />
			<path d="M-62.93250352560279,-710.0561114559392 L-62.93250352560279,-736.8102129527687 " />
			<path d="M-1634.6187460689418,126.31999820654953 L-1634.6187460689418,99.56589670972001 " />
			<path d="M-1573.9489842431362,-182.76325030956508 L-1632.356004369145,-213.84466780095914 " />
			<path d="M-62.932503525602826,-1054.1341762759237 L-62.931058430227964,-1054.0365951571587 L-62.92672498991781,-1053.9376006573277 L-62.91950873975801,-1053.8373192217018 L-62.909418897035465,-1053.7358789393502 L-62.89646834946518,-1053.633409379532 L-62.88067363872876,-1053.5300414261978 L-62.86205493934585,-1053.4259071108136 L-62.84063603290528,-1053.3211394437158 L-62.81644427768894,-1053.2158722442184 L-62.78951057372714,-1053.1102399696863 L-62.75986932333019,-1053.0043775437932 L-62.72755838714638,-1052.8984201841843 L-62.6926190358028,-1052.7925032297628 L-62.65509589719049,-1052.6867619678233 L-62.61503689946146,-1052.5813314612483 L-62.572493209810204,-1052.4763463759941 L-62.527519169118115,-1052.3719408090822 L-62.48017222254403,-1052.2682481173176 L-62.43051284614982,-1052.165400746953 L-62.378604469654526,-1052.0635300645154 L-62.324513395415856,-1051.9627661890117 L-62.26830871374246,-1051.86323782573 L-62.21006221464511,-1051.7650721018426 L-62.14984829613971,-1051.6683944040287 L-62.087743869218905,-1051.5733282183173 L-62.02382825961404,-1051.4799949723604 L-61.95818310647275,-1051.388513880332 L-61.89089225808155,-1051.2990017906588 L-61.82204166476679,-1051.2115730367675 L-61.75171926911068,-1051.1263392910491 L-61.68001489362252,-1051.04340942222 L-61.60702012600888,-1050.962889356263 " />
			<path d="M-1634.618746068942,-217.75806661343495 L-1634.616020497468,-217.62367831751035 L-1634.6078503491872,-217.4867129376809 L-1634.5942553067018,-217.3475004355433 L-1634.5752681216604,-217.20637618620887 L-1634.5509345358546,-217.0636801703552 L-1634.521313171024,-216.91975615518322 L-1634.486475387631,-216.77495086625171 L-1634.4465051129473,-216.6296131521852 L-1634.4014986388654,-216.4840931442669 L-1634.3515643899236,-216.3387414129419 L-1634.2968226621015,-216.1939081232624 L-1634.2374053330159,-216.04994219130901 L-1634.1734555442172,-215.90719044362177 L-1634.1051273563478,-215.76599678166448 L-1634.032585377997,-215.62670135333585 L-1633.956004369145,-215.48963973352357 L-1633.8755688201495,-215.35514211567497 L-1633.7914725072933,-215.223532516332 L-1633.70391802596,-215.09512799454717 L-1633.6131163025643,-214.97023788806032 L-1633.519286086411,-214.8491630680771 L-1633.4226534227093,-214.73219521444375 L-1633.3234511080102,-214.61961611296482 L-1633.221918129379,-214.51169697655655 L-1633.118299088654,-214.40869779187113 L-1633.0128436131808,-214.31086669296616 L-1632.9058057544362,-214.2184393635279 L-1632.7974433759978,-214.13163846908859 L-1632.688017532326,-214.05067312060584 L-1632.5777918398635,-213.97573837069586 L-1632.4670318419578,-213.90701474373472 L-1632.356004369145,-213.8446678009592 " />
			<path d="M-1573.9489842431362,-182.76325030956502 L-1573.8462568194766,-182.71137720585503 L-1573.7437412383617,-182.6651980916635 L-1573.6416489054784,-182.62480819668383 L-1573.540190353699,-182.5902908121913 L-1573.4395748089248,-182.5617171192816 L-1573.3400097586236,-182.53914604208222 L-1573.241700523954,-182.52262412624046 L-1573.1448498363548,-182.51218544293783 L-1573.049657419477,-182.507851518629 L-1572.9563195773171,-182.50963129065047 L-1572.8650287894031,-182.5175210887902 L-1572.7759733138662,-182.53150464285605 L-1572.6893367992186,-182.55155311622806 L-1572.605297905638,-182.57762516532475 L-1572.5240299365364,-182.60966702486095 L-1572.4457004811786,-182.6476126187217 " />
			<path d="M-61.6070201260088,-1082.6488471851067 L-61.68346409153132,-1082.6457861919039 L-61.75848684714709,-1082.6385729938127 L-61.83198321100232,-1082.627217703732 L-61.903850141243424,-1082.6117362417713 L-61.973986880481704,-1082.5921503129298 L-62.04229509705509,-1082.5684873766668 L-62.10867902288908,-1082.5407806084033 L-62.173045587763504,-1082.5090688530101 " />
			<path d="M-62.17304558776351,-1082.5090688530101 L-62.21713076648098,-1082.4843476361516 L-62.26013920213074,-1082.4576778937255 L-62.30204096711521,-1082.4290781839823 L-62.342806903918195,-1082.3985684081479 L-62.38240864539421,-1082.3661697965763 L-62.420818634507896,-1082.3319048939745 L-62.45801014350972,-1082.2957975437173 L-62.493957292534525,-1082.2578728712529 L-62.52863506761022,-1082.2181572666213 L-62.562019338063806,-1082.17667836609 L-62.59408687331281,-1082.1334650329236 L-62.62481535903041,-1082.0885473372982 L-62.6541834126729,-1082.0419565353777 L-62.68217059835888,-1081.993725047564 L-62.73392544030076,-1081.8924753809015 L-62.779935854634395,-1081.7850801082786 L-62.82007379749132,-1081.6718381034693 L-62.854227567693634,-1081.553064511307 L-62.88230211761088,-1081.4290898706583 L-62.90421931767109,-1081.3002591945562 L-62.91991817379017,-1081.1669310100513 L-62.929354997114245,-1081.0294763604552 L-62.932503525602826,-1080.888277772753 " />
			<path d="M-1632.356004369145,-246.01732149967813 L-1632.4587317928047,-246.06919460338813 L-1632.5612473739195,-246.11537371757964 L-1632.6633397068028,-246.15576361255933 L-1632.7647982585822,-246.19028099705184 L-1632.8654138033564,-246.21885468996155 L-1632.9649788536576,-246.24142576716093 L-1633.0632880883272,-246.2579476830027 L-1633.1601387759265,-246.26838636630532 L-1633.2553311928043,-246.27272029061416 L-1633.3486690349641,-246.27094051859268 L-1633.439959822878,-246.26305072045295 L-1633.529015298415,-246.2490671663871 L-1633.6156518130626,-246.2290186930151 L-1633.6996907066432,-246.2029466439184 L-1633.7809586757448,-246.1709047843822 L-1633.8592881311026,-246.13295919052146 " />
			<path d="M-1633.8592881311026,-246.13295919052146 L-1633.9033733098202,-246.10823797366288 L-1633.9463817454698,-246.08156823123673 L-1633.9882835104543,-246.05296852149348 L-1634.0290494472574,-246.0224587456592 L-1634.0686511887334,-245.99006013408746 L-1634.107061177847,-245.95579523148592 L-1634.1442526868489,-245.91968788122853 L-1634.1801998358737,-245.88176320876408 L-1634.2148776109493,-245.84204760413255 L-1634.2482618814029,-245.80056870360144 L-1634.280329416652,-245.75735537043496 L-1634.3110579023696,-245.7124376748095 L-1634.340425956012,-245.66584687288903 L-1634.368413141698,-245.61761538507548 L-1634.4201679836399,-245.51636571841286 L-1634.4661783979736,-245.40897044578995 L-1634.5063163408304,-245.29572844098053 L-1634.5404701110328,-245.17695484881816 L-1634.56854466095,-245.0529802081696 L-1634.5904618610102,-244.92414953206753 L-1634.6061607171293,-244.79082134756246 L-1634.6155975404533,-244.65336669796642 L-1634.618746068942,-244.5121681102644 " />
			<path d="M-62.932503525602826,-1054.1341762759234 L-62.932503525602826,-1080.888277772753 " />
			<path d="M-1634.6187460689418,-217.7580666134348 L-1634.6187460689418,-244.5121681102643 " />
			<path d="M-1573.9489822215164,-537.6780518911019 L-1632.3560023475252,-568.7594693796616 " />
			<path d="M-62.93250184843509,-1409.049264049226 L-62.93105674319467,-1408.9516830200896 L-62.92672329791302,-1408.8526886121617 L-62.91950704767278,-1408.7524072703823 L-62.90941720974539,-1408.6509670834837 L-62.896466671817926,-1408.5484976203845 L-62.88067197553173,-1408.445129764691 L-62.8620532953539,-1408.3409955475208 L-62.840634412808534,-1408.23622797886 L-62.816442686100764,-1408.130960877671 L-62.789509015172285,-1408.0253287009657 L-62.75986780223303,-1407.919466372065 L-62.7275569078195,-1407.8135091082615 L-62.69261760243565,-1407.7075922481074 L-62.655094513838414,-1407.6018510785482 L-62.615035570034905,-1407.49642066212 L-62.57249193806428,-1407.3914356644368 L-62.52751795864239,-1407.2870301821813 L-62.480171076752754,-1407.1833375718252 L-62.430511768272396,-1407.080490279293 L-62.37860346272642,-1406.9786196707903 L-62.32451246226985,-1406.8778558650101 L-62.26830785700033,-1406.7783275669335 L-62.21006143670973,-1406.680161903435 L-62.149847599187524,-1406.5834842609042 L-62.087743255192954,-1406.4884181250916 L-62.02382773021739,-1406.3950849233795 L-61.958182663162376,-1406.3036038696846 L-61.89089190206276,-1406.2140918121863 L-61.82204139698816,-1406.1266630840776 L-61.75171909025942,-1406.041429357528 L-61.68001480412047,-1405.9584995010446 L-61.60702012600894,-1405.8779794404163 " />
			<path d="M-1634.6187443917563,-572.672868008834 L-1634.6160188033818,-572.5384797218985 L-1634.607848638241,-572.4015143510367 L-1634.5942535789773,-572.2623018578237 L-1634.575266377279,-572.1211776173494 L-1634.5509327749783,-571.97848161027 L-1634.5213113938544,-571.8345576037653 L-1634.4864735944088,-571.6897523233733 L-1634.4465033039523,-571.5444146176978 L-1634.4014968144152,-571.3988946180019 L-1634.3515625503728,-571.2535428947109 L-1634.2968208078412,-571.1087096128575 L-1634.237403464473,-570.9647436885035 L-1634.1734536618524,-570.8219919481709 L-1634.1051254606555,-570.6807982933053 L-1634.0325834695036,-570.5415028717888 L-1633.9560024484076,-570.4044412584923 L-1633.875566887755,-570.2699436468477 L-1633.7914705638564,-570.1383340533819 L-1633.7039160721224,-570.0099295371332 L-1633.6131143389923,-569.8850394358283 L-1633.5192841137944,-569.7639646206601 L-1633.42265144176,-569.6469967714634 L-1633.3234491194598,-569.5344176740319 L-1633.2219161339776,-569.4264985412723 L-1633.1182970871685,-569.323499359828 L-1633.0128416063922,-569.2256682637486 L-1632.9058037431387,-569.1332409367137 L-1632.7974413609961,-569.0464400442497 L-1632.6880155144343,-568.9654746973096 L-1632.5777898199024,-568.8905399485055 L-1632.467029820753,-568.8218163222112 L-1632.3560023475252,-568.7594693796618 " />
			<path d="M-1573.9489822215162,-537.6780518911021 L-1573.8462547862077,-537.6261787814733 L-1573.7437391942276,-537.5799996623289 L-1573.6416468513346,-537.5396097633947 L-1573.5401882904714,-537.5050923759736 L-1573.4395727376063,-537.4765186811838 L-1573.340007680273,-537.4539476031708 L-1573.2416984396918,-537.4374256875943 L-1573.1448477473616,-537.4269870056432 L-1573.04965532699,-537.4226530837744 L-1572.9563174826264,-537.4244328593215 L-1572.865026693848,-537.4323226620643 L-1572.7759712188322,-537.4463062217974 L-1572.6893347061334,-537.4663547018824 L-1572.6052958159662,-537.4924267587143 L-1572.524027851777,-537.5244686269793 L-1572.4456984028589,-537.5624142305293 " />
			<path d="M-61.60702012600896,-1437.563933008667 L-61.683464393784405,-1437.5608721097813 L-61.7584874434538,-1437.5536589762933 L-61.831984091996745,-1437.5423037210837 L-61.90385129642153,-1437.5268222643274 L-61.973988298232406,-1437.5072363111722 L-62.04229676469396,-1437.4835733213079 L-62.1086809266945,-1437.455866470469 L-62.173047713015265,-1437.4241546039207 " />
			<path d="M-62.17304771301527,-1437.4241546039207 L-62.217132877804396,-1437.3994333865999 L-62.26014129947312,-1437.3727636442525 L-62.30204305043962,-1437.3441639351254 L-62.34280897320333,-1437.3136541604404 L-62.38241070063424,-1437.2812555505454 L-62.42082067571231,-1437.2469906501428 L-62.45801217070314,-1437.2108833026002 L-62.49395930575656,-1437.1729586333595 L-62.52863706691522,-1437.1332430324528 L-62.562021323520675,-1437.0917641361395 L-62.594088845004755,-1437.0485508076754 L-62.6248173170547,-1437.0036331172273 L-62.65418535714063,-1436.9570423209493 L-62.68217252939469,-1436.9088108392332 L-62.73392734489943,-1436.8075611860845 L-62.77993773344983,-1436.7001659286555 L-62.82007565127493,-1436.5869239406175 L-62.854229397289,-1436.4681503666939 L-62.882303923948,-1436.3441757456342 L-62.90422110176044,-1436.2153450903472 L-62.91991993671639,-1436.082016927753 L-62.929356740029675,-1435.9445623010286 L-62.93250524972078,-1435.803363737018 " />
			<path d="M-1632.3560064376793,-600.9321209029556 L-1632.4587338729878,-600.9839940125844 L-1632.561249464968,-601.0301731317288 L-1632.663341807861,-601.070563030663 L-1632.764800368724,-601.1050804180841 L-1632.8654159215891,-601.1336541128738 L-1632.9649809789225,-601.1562251908869 L-1633.0632902195036,-601.1727471064634 L-1633.1601409118339,-601.1831857884144 L-1633.2553333322055,-601.1875197102833 L-1633.348671176569,-601.1857399347361 L-1633.4399619653475,-601.1778501319934 L-1633.5290174403633,-601.1638665722603 L-1633.615653953062,-601.1438180921753 L-1633.6996928432293,-601.1177460353434 L-1633.7809608074185,-601.0857041670783 L-1633.8592902563366,-601.0477585635284 " />
			<path d="M-1633.8592902563366,-601.0477585635284 L-1633.9033754211257,-601.0230373462076 L-1633.9463838427946,-600.9963676038603 L-1633.988285593761,-600.9677678947334 L-1634.0290515165248,-600.9372581200481 L-1634.0686532439556,-600.9048595101533 L-1634.1070632190338,-600.8705946097507 L-1634.1442547140246,-600.8344872622081 L-1634.180201849078,-600.7965625929672 L-1634.2148796102367,-600.7568469920606 L-1634.248263866842,-600.7153680957474 L-1634.2803313883262,-600.6721547672834 L-1634.3110598603762,-600.6272370768352 L-1634.3404279004621,-600.5806462805573 L-1634.368415072716,-600.5324147988409 L-1634.420169888221,-600.4311651456923 L-1634.4661802767712,-600.3237698882633 L-1634.5063181945964,-600.2105279002252 L-1634.5404719406104,-600.0917543263017 L-1634.5685464672695,-599.967779705242 L-1634.5904636450819,-599.838949049955 L-1634.6061624800377,-599.7056208873611 L-1634.615599283351,-599.5681662606365 L-1634.6187477930423,-599.4269676966258 " />
			<path d="M-62.93250184843509,-1409.049264049226 L-62.93250524972078,-1435.803363737018 " />
			<path d="M-1634.6187443917565,-572.672868008834 L-1634.618747793042,-599.4269676966258 " />
			<path d="M-60.66976182580578,-20.394828426556394 L-60.669761825805914,-1439.716845808993 " />
			<path d="M60.66976182580578,17.986583003494378 L60.669761825805644,-1401.3354343789422 " />
			<path d="M-33.79970414071697,-32.28554020292506 L-33.799704140717104,-1451.6075575853615 " />
			<path d="M-38.32518754031088,-32.28554020292506 L-38.32518754031101,-1451.6075575853615 " />
			<path d="M-1658.1838809085687,830.3839465129869 L-1660.4380731244014,-588.8596700207614 " />
			<path d="M-1572.9075674733838,753.6653050005275 L-1573.3024463597612,505.04882284825794 " />
			<path d="M-1573.4536064301924,409.87816103537864 L-1573.9471360458963,99.15099600561814 " />
			<path d="M-1573.9996459346403,66.09067227573644 L-1574.3952791663194,-183.0007470831007 " />
			<path d="M-1574.545685439088,-277.696816483906 L-1574.9594691074785,-538.2157845934645 " />
			<path d="M-1631.4615636813733,784.824924035442 L-1631.9550927302598,474.098115874801 " />
			<path d="M-1632.0076026190038,441.03779214491925 L-1632.501386670888,130.15043362214385 " />
			<path d="M-1632.5536421234515,97.25030338527677 L-1633.0485477834575,-214.34322169937877 " />
			<path d="M-1633.0996816278991,-246.53718537436566 L-1633.6132570533825,-569.8852295679394 " />
			<path d="M-1635.9336738095956,818.4162672115406 L-1638.1878660254283,-600.8273493222077 " />
			<path d="M-2.262744233667396,13.094802563801355 L-1573.9489866959316,849.4705878062445 " />
			<path d="M-60.66976436268826,-17.98661495190446 L-1631.9485514889025,818.172342168339 " />
			<path d="M-62.932505671627226,-21.900013972487635 L-1634.6187481338914,814.4757712699554 " />
			<path d="M-62.93250181075223,-48.65411751507691 L-1634.6187442730163,787.7216677273661 " />
			<path d="M-61.607020126008855,-299.4030488828132 L-1573.9489842431362,505.39287933040384 " />
			<path d="M-61.607020126008855,-361.56588386560134 L-1632.356004369145,474.3114618390098 " />
			<path d="M-62.93250352560276,-365.9780466359547 L-1634.6187460689418,470.39806302653403 " />
			<path d="M-62.93250352560276,-392.73214813278423 L-1634.6187460689418,443.6439615297045 " />
			<path d="M-61.60702012600889,-643.4811137027978 L-1573.848485864209,161.2613340886154 " />
			<path d="M-61.60702012600889,-705.6439486855858 L-1632.356004369145,130.23339701902535 " />
			<path d="M-62.93250352560279,-710.0561114559392 L-1634.618746068942,126.31999820654949 " />
			<path d="M-62.93250352560279,-736.8102129527687 L-1634.618746068942,99.56589670972005 " />
			<path d="M-61.60702012600892,-987.559178522782 L-1573.9489842431362,-182.7632503095649 " />
			<path d="M-61.60702012600892,-1049.7220135055702 L-1632.356004369145,-213.8446678009591 " />
			<path d="M-62.932503525602826,-1054.1341762759237 L-1634.618746068942,-217.75806661343495 " />
			<path d="M-62.932503525602826,-1080.888277772753 L-1634.618746068942,-244.51216811026438 " />
			<path d="M-61.607020126008955,-1342.4742545932652 L-1573.9489822215162,-537.6780518911021 " />
			<path d="M-61.607020126008955,-1404.637100215598 L-1632.3560023475252,-568.7594693796618 " />
			<path d="M-62.93250184843509,-1409.0492640492262 L-1634.618744391756,-572.672868008834 " />
			<path d="M-62.93250524972078,-1435.8033637370177 L-1634.6187477930418,-599.4269676966255 " />
			<path d="M-61.60702012600896,-1438.512723097462 L-61.60702012600883,-19.190705715025384 " />
			<path d="M61.60702012600869,-1400.1313116674112 L61.60702012600883,19.190705715025384 " />
			<path d="M-1661.3658154805796,-587.6579708231008 L-1659.1116232647469,831.585645710648 " />
			<path d="M-1574.0137761756423,-537.7125321288297 L-1573.6015897943473,-278.1992189489297 " />
			<path d="M-1573.4496923916095,-182.56433134274403 L-1573.0555502898997,65.58826981071263 " />
			<path d="M-1572.9031105704998,161.56460099707556 L-1572.509510785452,409.3757585703552 " />
			<path d="M-1572.3568976697045,505.4612604200392 L-1571.963471828334,753.1629027301893 " />
			<path d="M-1571.8108587326242,849.2483919641198 L-1571.8088779951727,850.4954679518157 " />
			<path d="M-1572.3610338866333,849.541168705446 L-1.402480224950108,13.552624424687954 " />
			<path d="M-1633.8592858807006,786.1008764062623 L-62.17304341843658,-50.27490883618052 " />
			<path d="M-1572.4457004811786,505.5085170212472 L-61.607020126008855,-298.4874356049148 " />
			<path d="M-1633.8592881311026,442.02317044944743 L-62.17304558776344,-394.3529392130413 " />
			<path d="M-1572.4457004811786,161.4304522012626 L-61.60702012600889,-642.5655004248994 " />
			<path d="M-1633.8592881311026,97.945105629463 L-62.17304558776348,-738.4310040330257 " />
			<path d="M-1572.4457004811786,-182.64761261872172 L-61.60702012600891,-986.6435652448838 " />
			<path d="M-1633.8592881311026,-246.13295919052143 L-62.17304558776352,-1082.5090688530101 " />
			<path d="M-1572.445698402859,-537.5624142305293 L-61.60702012600896,-1341.5586410415503 " />
			<path d="M-1633.8592902563364,-601.0477585635282 L-62.17304771301527,-1437.4241546039204 " />

       </g>
    </g>
    
</svg>
