<?xml version="1.0" encoding="UTF-8" standalone="no"?>
<svg
   xmlns:svg="http://www.w3.org/2000/svg"
   xmlns="http://www.w3.org/2000/svg"
   width="480.0"
   height="480.0"

>
    <g transform="scale(0.1506198702096814, -0.1506198702096814)   translate(1432.6382027521736,-89.9342051343163)" stroke-width="1.0"  fill="none">
       <!-- hidden lines -->
       <g  stroke="rgb(0,0,0)" fill="none" stroke-dasharray="1.0,1.0" >
			<path d="M-1333.644314984711,-107.6844656658376 L-1282.258824226877,-113.4567714595196 " />
			<path d="M-1280.2942142636293,-110.48969987305966 L-1280.29625910443,-110.63487523838351 L-1280.3023893701354,-110.7792889878673 L-1280.3125922995184,-110.9226404988606 L-1280.3268466533846,-111.06463135994947 L-1280.3451227587861,-111.20496599215231 L-1280.3673825707913,-111.34335226421965 L-1280.3935797516817,-111.47950210075669 L-1280.4236597674117,-111.61313208190307 L-1280.457560001132,-111.74396403332113 L-1280.4952098835358,-111.87172560526484 L-1280.5365310397633,-111.99615083952372 L-1280.5814374525512,-112.1169807230617 L-1280.6298356412933,-112.23396372719836 L-1280.6816248566367,-112.34685633121018 L-1280.7366972902103,-112.45542352926184 L-1280.7949382990448,-112.55943931961217 L-1280.8562266442248,-112.65868717507666 L-1280.920434743267,-112.75296049376689 L-1280.987428935706,-112.84206302916868 L-1281.057069761333,-112.9258092986639 L-1281.1292122505058,-113.0040249696451 L-1281.2037062259292,-113.07654722241952 L-1281.280396615275,-113.14322508914707 L-1281.3591237739931,-113.20391976810633 L-1281.4397238176387,-113.25850491263489 L-1281.5220289630277,-113.3068668941421 L-1281.605867877506,-113.34890503864705 L-1281.6910660356093,-113.38453183634911 L-1281.7774460823687,-113.41367312379512 L-1281.8648282025051,-113.43626823826354 L-1281.953030494748,-113.45227014404466 L-1282.0418693504937,-113.46164553035369 " />
			<path d="M-1282.0418693504937,-113.46164553035369 L-1282.0959626281465,-113.46409417823794 L-1282.1501805380774,-113.46409773902003 L-1282.2044815892184,-113.46165620997503 L-1282.258824226877,-113.45677145951962 " />
			<path d="M-1364.2812901924704,-66.38822674704143 L-1282.258824226877,-75.60208747937467 " />
			<path d="M-1282.258824226877,-75.60208747937467 L-1282.16242538502,-75.61675608695874 L-1282.0662587764166,-75.63906895653068 L-1281.97055607485,-75.66897233443333 L-1281.875547836511,-75.7063941808101 L-1281.7814629445675,-75.75124434315526 L-1281.6885280577649,-75.80341477349938 L-1281.5969670643856,-75.86277978870612 L-1281.507000542883,-75.9291963732541 L-1281.4188452304866,-76.00250452377374 L-1281.3327135010663,-76.0825276345094 L-1281.2488128535022,-76.16907292277813 L-1281.167345411803,-76.2619318934 L-1281.0885074381715,-76.36088084098131 L-1281.0124888601918,-76.46568138884044 L-1280.9394728132763,-76.57608106327814 L-1280.869635199478,-76.69181390180881 L-1280.803144263725,-76.81260109388747 L-1280.740160188506,-76.93815165258864 L-1280.6808347079746,-77.06816311561953 L-1280.6253107424097,-77.202322273978 L-1280.5737220539079,-77.34030592650063 L-1280.5261929241383,-77.48178165848255 L-1280.4828378549375,-77.6264086424936 L-1280.4437612924648,-77.77383845946147 L-1280.4090573755818,-77.92371593804377 L-1280.378809709064,-78.07568001026688 L-1280.3530911621895,-78.2293645813703 L-1280.3319636931901,-78.3843994117611 L-1280.3154781999897,-78.5404110089534 L-1280.303674397585,-78.69702352734458 L-1280.2965807223698,-78.85385967366018 L-1280.2942142636293,-79.01054161588651 " />
			<path d="M-1280.2942142636293,-110.48969987305966 L-1280.2942142636293,-79.01054161588652 " />
			<path d="M-1279.8329342109241,-2363.619749325681 L-1279.8348965702403,-2363.75288051561 L-1279.8403005270156,-2363.8853687170667 L-1279.8491366159521,-2364.0169818704194 L-1279.861389360204,-2364.1474894487264 L-1279.8770372984839,-2364.276662861515 L-1279.8960530226545,-2364.404275855169 L-1279.9184032257358,-2364.530104909225 L-1279.9440487602421,-2364.653929627876 L-1279.9729447067527,-2364.775533126009 L-1280.0050404525894,-2364.8947024090876 L-1280.040279780467,-2365.0112287462234 L-1280.0786009669616,-2365.1249080357793 L-1280.1199368906216,-2365.2355411628614 L-1280.1642151495337,-2365.342934348081 L-1280.2113581881397,-2365.446899486967 L-1280.2612834330773,-2365.5472544794416 L-1280.3139034378137,-2365.6438235487763 L-1280.3691260358096,-2365.7364375494735 L-1280.4268545019563,-2365.8249342635354 L-1280.4869877219924,-2365.909158684593 L-1280.5494203696114,-2365.988963289412 L-1280.614043090946,-2366.0642082962827 L-1280.6807426961066,-2366.1347619098574 L-1280.7494023574382,-2366.2005005519954 L-1280.8199018141515,-2366.2613090782165 L-1280.8921175829644,-2366.317080979383 L-1280.9659231743888,-2366.3677185682527 L-1281.0411893142846,-2366.413133150587 L-1281.1177841702881,-2366.4532451805003 L-1281.1955735827241,-2366.487984399791 L-1281.274421299593,-2366.5172899609993 L-1281.354189215222,-2366.5411105339863 " />
			<path d="M-10.15358909914737,-2230.976730229561 L40.615721513586585,-2237.0159717635793 " />
			<path d="M-1332.506758703333,-2322.6919416596215 L-1281.737448090599,-2328.73118319364 " />
			<path d="M-1281.7374480905992,-2328.7311831936395 L-1281.6409462493684,-2328.746501785322 L-1281.5446906985103,-2328.7694603437635 L-1281.4489133260777,-2328.8000035597865 L-1281.35384486815,-2328.8380578521073 L-1281.2597143529692,-2328.8835315446036 L-1281.1667485491914,-2328.936315087166 L-1281.0751714195808,-2328.996281319618 L-1280.9852035814636,-2329.063285778053 L-1280.8970617752423,-2329.1371670428616 L-1280.8109583422483,-2329.2177471276054 L-1280.7271007131935,-2329.304831907803 L-1280.6456909084513,-2329.398211588591 L-1280.566925051372,-2329.4976612101386 L-1280.4909928958043,-2329.6029411895975 L-1280.4180773689618,-2329.7137978982755 L-1280.3483541307357,-2329.829964272651 L-1280.2819911505135,-2329.951160457754 L-1280.2191483025274,-2330.0770944813585 L-1280.1599769807026,-2330.2074629573713 L-1280.104619733936,-2330.3419518167148 L-1280.0532099226841,-2330.480237063947 L-1280.005871397685,-2330.6219855577947 L-1279.9627182015918,-2330.766855813721 L-1279.9238542942337,-2330.91449882659 L-1279.8893733021675,-2331.064558911451 L-1279.8593582931235,-2331.2166745604172 L-1279.833881575887,-2331.3704793135653 L-1279.8130045261018,-2331.525602641774 L-1279.7967774384094,-2331.681670839358 L-1279.7852394052852,-2331.83830792436 L-1279.7784182228615,-2331.9951365443217 L-1279.7763303239647,-2332.151778885361 " />
			<path d="M-1279.8329342109241,-2363.6197493256805 L-1279.7763303239649,-2332.1517788853616 " />
			<path d="M40.449885211153486,-23.926617233025613 L40.748016921623005,-23.903622688696743 L41.01120229826161,-23.877574867876216 " />
			<path d="M40.44958263551018,-2238.126797851974 L40.72352066077191,-2238.105894750432 L40.96854086999702,-2238.08241076267 L41.18147806441606,-2238.0566492574976 L41.35958149727277,-2238.028943024952 L41.434833133700785,-2238.014471626618 L41.500550408281704,-2237.9996499772774 L41.55652091358682,-2237.9845259825743 L41.60256374510981,-2237.9691485253766 L41.638530085975404,-2237.953567307778 L41.66430368793636,-2237.9378326904543 L41.67980124710408,-2237.9219955298913 L41.68367955485781,-2237.914054483692 L41.684972673198416,-2237.9061070140074 " />
			<path d="M41.684972673198416,-2237.9061070140074 L41.68224195020294,-2237.8945591913084 L41.67405443859318,-2237.8830310765647 L41.66042411201861,-2237.8715423448434 L41.64137423339655,-2237.8601126039953 L41.616937315209285,-2237.848761361192 L41.587155064014965,-2237.837507989632 L41.51176691656242,-2237.8153714850705 L41.41572423211272,-2237.793854147574 L41.29968239620574,-2237.7731028092717 L41.16443326656295,-2237.7532590751916 L41.010899769530674,-2237.7344583569634 " />
			<path d="M-9.70059488264089,-2232.037864814471 L-9.905323362384596,-2232.0170598198692 L-10.132406253702285,-2231.9981082549275 L-10.379656624214434,-2231.9811926335756 L-10.644693317692209,-2231.9664758624954 L-10.924963885893623,-2231.9540996722358 L-11.217769170035425,-2231.9441832522757 L-11.520289295167675,-2231.93682210316 L-11.829610827111024,-2231.9320871167783 L-12.142754830420511,-2231.930023893638 L-12.456705557162344,-2231.930652303706 L-12.768439490215071,-2231.9339662950497 L-13.074954461392291,-2231.939933952121 L-13.37329856396344,-2231.9484978031196 L-13.660598581129282,-2231.9595753734793 L-13.934087656670346,-2231.973059980142 L-14.191131941284816,-2231.9888217589737 " />
			<path d="M-39.1346620175655,-2233.6838479290723 L-39.40860004282723,-2233.7047510306143 L-39.65362025205234,-2233.7282350183764 L-39.86655744647138,-2233.7539965235487 L-40.04466087932809,-2233.7817027560945 L-40.119912515756106,-2233.796174154428 L-40.185629790337025,-2233.810995803769 L-40.241600295642144,-2233.826119798472 L-40.28764312716513,-2233.8414972556698 L-40.323609468030725,-2233.8570784732683 L-40.34938306999168,-2233.872813090592 L-40.3648806291594,-2233.888650251155 L-40.36875893691313,-2233.8965912973545 L-40.37005205525374,-2233.904538767039 " />
			<path d="M-40.37005205525374,-2233.904538767039 L-40.367321332258264,-2233.916086589738 L-40.3591338206485,-2233.9276147044816 L-40.34550349407393,-2233.939103436203 L-40.32645361545187,-2233.950533177051 L-40.302016697264605,-2233.9618844198544 L-40.272234446070286,-2233.9731377914145 L-40.19684629861774,-2233.995274295976 L-40.10080361416804,-2234.016791633472 L-39.98476177826106,-2234.0375429717747 L-39.84951264861827,-2234.0573867058547 L-39.69597915158599,-2234.076187424083 " />
			<path d="M-39.69567657594268,-19.87600680513485 L11.015818076228882,-25.572600347627315 " />
			<path d="M-39.69597915158599,-2234.0761874240834 L11.015515500585575,-2239.7727809665757 " />
			<path d="M11.015818076228882,-25.57260034762731 L11.220546555972588,-25.59340534222903 L11.447629447290279,-25.61235690717084 L11.694879817802427,-25.629272528522385 L11.959916511280202,-25.643989299603025 L12.240187079481618,-25.656365489862246 L12.532992363623418,-25.66628190982234 L12.835512488755665,-25.67364305893823 L13.144834020699015,-25.678378045319903 L13.457978024008504,-25.68044126846011 L13.771928750750336,-25.679812858392133 L14.08366268380306,-25.676498867048448 L14.390177654980281,-25.670531209977312 L14.688521757551431,-25.66196735897857 L14.975821774717275,-25.650889788618816 L15.24931085025834,-25.637405181956233 L15.50635513487282,-25.621643403124416 " />
			<path d="M11.015515500585574,-2239.7727809665757 L11.220243980329279,-2239.7935859611775 L11.447326871646968,-2239.8125375261193 L11.694577242159118,-2239.829453147471 L11.959613935636893,-2239.8441699185514 L12.23988450383831,-2239.856546108811 L12.53268978798011,-2239.866462528771 L12.835209913112356,-2239.873823677887 L13.144531445055707,-2239.8785586642684 L13.457675448365196,-2239.880621887409 L13.771626175107027,-2239.8799934773406 L14.083360108159752,-2239.876679485997 L14.389875079336973,-2239.870711828926 L14.688219181908122,-2239.862147977927 L14.975519199073966,-2239.8510704075675 L15.249008274615031,-2239.837585800905 L15.506052559229511,-2239.821824022073 " />
			<path d="M40.449885211153486,-23.92661723302561 L15.506355134872832,-25.621643403124416 " />
			<path d="M40.44958263551017,-2238.1267978519745 L15.506052559229515,-2239.821824022073 " />
			<path d="M-330.49300283527475,-2253.8372326118533 L-279.7815081589423,-2259.5338261484603 " />
			<path d="M-280.34282529129877,-45.726006122737054 L-280.0446935547496,-45.703011507939976 L-279.7815081589423,-45.67696361717573 " />
			<path d="M-280.34282529129877,-2259.926166192951 L-280.0688872628189,-2259.90526302875 L-279.82386705116403,-2259.881778979076 L-279.6109298552154,-2259.8560174135455 L-279.4328264218188,-2259.8283111229844 L-279.35757478551346,-2259.8138396967597 L-279.2918575113252,-2259.7990180203956 L-279.2358870066868,-2259.7838939996245 L-279.1898441761072,-2259.7685165174003 L-279.1538778364623,-2259.752935275899 L-279.1281042359983,-2259.737200635874 L-279.11260667860114,-2259.721363453886 L-279.108728371834,-2259.7134223974754 L-279.10743525454654,-2259.705474917925 " />
			<path d="M-279.10743525454654,-2259.705474917925 L-279.1101659790245,-2259.693927081869 L-279.1183534919232,-2259.682398954537 L-279.13198381959154,-2259.6709102110167 L-279.1510336991111,-2259.6594804591778 L-279.1754706179992,-2259.648129206211 L-279.205252869698,-2259.63687582533 L-279.28064101757457,-2259.614739304718 L-279.3766837016821,-2259.593221954708 L-279.4927255365061,-2259.57247060751 L-279.6279746643601,-2259.552626868207 L-279.7815081589423,-2259.5338261484603 " />
			<path d="M-361.1624599999709,-2255.7039129797813 L-361.15972927549296,-2255.7154608158376 L-361.15154176259426,-2255.7269889431695 L-361.1379114349259,-2255.7384776866897 L-361.11886155540634,-2255.7499074385287 L-361.0944246365182,-2255.7612586914956 L-361.0646423848195,-2255.7725120723762 L-360.9892542369429,-2255.7946485929883 L-360.89321155283534,-2255.8161659429984 L-360.77716971801135,-2255.8369172901967 L-360.6419205901573,-2255.8567610294995 L-360.48838709557515,-2255.875561749246 " />
			<path d="M-360.48838709557515,-41.67540167903166 L-309.7768924192427,-47.3719952156389 " />
			<path d="M-360.48838709557515,-2255.8755617492457 L-309.7768924192427,-2261.5721552858527 " />
			<path d="M-309.7768924192427,-47.371995215638904 L-309.57216393941076,-47.39280020757128 L-309.3450810480127,-47.41175176457547 L-309.0978306774288,-47.42866737279756 L-308.8327939838886,-47.44338412568335 L-308.5525234156347,-47.45576029285756 L-308.2597181314508,-47.4656766850648 L-307.9571980062874,-47.47303780202726 L-307.64787647432394,-47.4777727521646 L-307.3347324710057,-47.4798359353186 L-307.0207817442665,-47.47920748190765 L-306.70904781122783,-47.47589344428163 L-306.40253284007593,-47.46992573843454 L-306.1041887375411,-47.461361836635945 L-305.81688872042224,-47.45028421394167 L-305.54339964493835,-47.43679955391392 L-305.28635536039076,-47.42103772120023 " />
			<path d="M-309.7768924192427,-2261.572155285853 L-309.57216393941076,-2261.592960277785 L-309.3450810480127,-2261.6119118347897 L-309.0978306774288,-2261.6288274430117 L-308.8327939838886,-2261.6435441958974 L-308.5525234156347,-2261.655920363072 L-308.2597181314508,-2261.6658367552786 L-307.9571980062874,-2261.6731978722414 L-307.64787647432394,-2261.677932822379 L-307.3347324710057,-2261.6799960055328 L-307.0207817442665,-2261.6793675521217 L-306.70904781122783,-2261.676053514496 L-306.40253284007593,-2261.6700858086488 L-306.1041887375411,-2261.66152190685 L-305.81688872042224,-2261.6504442841556 L-305.54339964493835,-2261.636959624128 L-305.28635536039076,-2261.621197791414 " />
			<path d="M-280.34282529129877,-45.72600612273705 L-305.2863553603907,-47.42103772120022 " />
			<path d="M-280.34282529129877,-2259.9261661929513 L-305.2863553603907,-2261.6211977914145 " />
			<path d="M-651.2857439770137,-2275.636626333861 L-600.5742493006812,-2281.333219870468 " />
			<path d="M-601.1355664330379,-67.52539984474444 L-600.8374346964886,-67.50240522994736 L-600.5742493006812,-67.47635733918311 " />
			<path d="M-601.1355664330379,-2281.7255599149585 L-600.861628404558,-2281.7046567507577 L-600.6166081929032,-2281.6811727010836 L-600.4036709969545,-2281.655411135553 L-600.2255675635579,-2281.627704844992 L-600.1503159272526,-2281.6132334187673 L-600.0845986530643,-2281.598411742403 L-600.0286281484259,-2281.583287721632 L-599.9825853178463,-2281.567910239408 L-599.9466189782014,-2281.5523289979064 L-599.9208453777374,-2281.5365943578818 L-599.9053478203402,-2281.520757175894 L-599.901469513573,-2281.512816119483 L-599.9001763962856,-2281.5048686399327 " />
			<path d="M-599.9001763962856,-2281.5048686399327 L-599.9029071207635,-2281.4933208038765 L-599.9110946336623,-2281.4817926765445 L-599.9247249613306,-2281.4703039330243 L-599.9437748408502,-2281.4588741811854 L-599.9682117597383,-2281.4475229282184 L-599.9979940114371,-2281.436269547338 L-600.0733821593136,-2281.4141330267257 L-600.1694248434212,-2281.3926156767156 L-600.2854666782453,-2281.3718643295174 L-600.4207158060992,-2281.3520205902146 L-600.5742493006813,-2281.333219870468 " />
			<path d="M-681.9552011417098,-2277.5033067017885 L-681.9524704172319,-2277.5148545378447 L-681.9442829043331,-2277.5263826651767 L-681.9306525766648,-2277.537871408697 L-681.9116026971452,-2277.549301160536 L-681.8871657782571,-2277.560652413503 L-681.8573835265584,-2277.5719057943834 L-681.7819953786818,-2277.5940423149955 L-681.6859526945742,-2277.6155596650055 L-681.5699108597502,-2277.636311012204 L-681.4346617318962,-2277.6561547515066 L-681.2811282373141,-2277.6749554712533 " />
			<path d="M-681.2811282373141,-63.47479540103905 L-630.5696335609816,-69.17138893764628 " />
			<path d="M-681.2811282373141,-2277.6749554712533 L-630.5696335609816,-2283.3715490078603 " />
			<path d="M-630.5696335609817,-69.17138893764628 L-630.3649050811498,-69.19219392957866 L-630.1378221897517,-69.21114548658285 L-629.8905718191678,-69.22806109480494 L-629.6255351256276,-69.24277784769073 L-629.3452645573736,-69.25515401486494 L-629.0524592731898,-69.26507040707217 L-628.7499391480263,-69.27243152403464 L-628.4406176160629,-69.27716647417198 L-628.1274736127447,-69.27922965732598 L-627.8135228860056,-69.27860120391503 L-627.5017889529669,-69.27528716628902 L-627.1952739818149,-69.26931946044192 L-626.8969298792802,-69.26075555864333 L-626.6096298621612,-69.24967793594905 L-626.3361407866773,-69.23619327592131 L-626.0790965021297,-69.2204314432076 " />
			<path d="M-630.5696335609817,-2283.3715490078607 L-630.3649050811498,-2283.3923539997927 L-630.1378221897517,-2283.4113055567973 L-629.8905718191678,-2283.4282211650193 L-629.6255351256276,-2283.442937917905 L-629.3452645573736,-2283.4553140850794 L-629.0524592731898,-2283.4652304772862 L-628.7499391480263,-2283.472591594249 L-628.4406176160629,-2283.4773265443864 L-628.1274736127447,-2283.4793897275404 L-627.8135228860056,-2283.4787612741293 L-627.5017889529669,-2283.4754472365034 L-627.1952739818149,-2283.4694795306564 L-626.8969298792802,-2283.4609156288575 L-626.6096298621612,-2283.449838006163 L-626.3361407866773,-2283.4363533461355 L-626.0790965021297,-2283.4205915134216 " />
			<path d="M-601.1355664330379,-67.52539984474444 L-626.0790965021297,-69.22043144320762 " />
			<path d="M-601.1355664330379,-2281.7255599149585 L-626.0790965021297,-2283.4205915134216 " />
			<path d="M-970.779384702953,-2297.581952394863 L-921.3669904424202,-2303.132613592475 " />
			<path d="M-921.9283075747767,-89.32479356675182 L-921.6301758382275,-89.30179895195475 L-921.3669904424203,-89.27575106119052 " />
			<path d="M-921.9283075747767,-2303.5249536369656 L-921.6543695462968,-2303.504050472765 L-921.409349334642,-2303.4805664230907 L-921.1964121386933,-2303.4548048575602 L-921.0183087052967,-2303.427098566999 L-920.9430570689914,-2303.4126271407745 L-920.8773397948031,-2303.3978054644103 L-920.8213692901647,-2303.3826814436393 L-920.7753264595851,-2303.367303961415 L-920.7393601199402,-2303.3517227199136 L-920.7135865194762,-2303.335988079889 L-920.698088962079,-2303.320150897901 L-920.6942106553118,-2303.31220984149 L-920.6929175380244,-2303.30426236194 " />
			<path d="M-920.6929175380244,-2303.30426236194 L-920.6956482625023,-2303.2927145258836 L-920.7038357754011,-2303.2811863985517 L-920.7174661030695,-2303.2696976550315 L-920.736515982589,-2303.2582679031925 L-920.7609529014771,-2303.2469166502256 L-920.7907351531759,-2303.235663269345 L-920.8661233010524,-2303.213526748733 L-920.96216598516,-2303.192009398723 L-921.0782078199841,-2303.1712580515245 L-921.213456947838,-2303.1514143122217 L-921.3669904424202,-2303.132613592475 " />
			<path d="M-1002.073869379053,-85.27418912304644 L-951.3623747027206,-90.97078265965366 " />
			<path d="M-1000.5431777538897,-2299.6462969552836 L-951.3623747027206,-2305.1709427298674 " />
			<path d="M-951.3623747027206,-90.97078265965366 L-951.1576462228886,-90.99158765158604 L-950.9305633314905,-91.01053920859023 L-950.6833129609066,-91.02745481681232 L-950.4182762673664,-91.04217156969811 L-950.1380056991125,-91.05454773687232 L-949.8452004149286,-91.06446412907955 L-949.5426802897651,-91.07182524604202 L-949.2333587578017,-91.07656019617936 L-948.9202147544835,-91.07862337933337 L-948.6062640277444,-91.07799492592241 L-948.2945300947057,-91.0746808882964 L-947.9880151235537,-91.0687131824493 L-947.689671021019,-91.0601492806507 L-947.4023710039,-91.04907165795643 L-947.1288819284161,-91.03558699792869 L-946.8718376438685,-91.01982516521498 " />
			<path d="M-951.3623747027206,-2305.170942729868 L-951.1576462228886,-2305.1917477218 L-950.9305633314905,-2305.2106992788044 L-950.6833129609066,-2305.2276148870264 L-950.4182762673664,-2305.242331639912 L-950.1380056991125,-2305.2547078070866 L-949.8452004149286,-2305.2646241992934 L-949.5426802897651,-2305.271985316256 L-949.2333587578017,-2305.2767202663936 L-948.9202147544835,-2305.2787834495475 L-948.6062640277444,-2305.2781549961364 L-948.2945300947057,-2305.2748409585106 L-947.9880151235537,-2305.2688732526635 L-947.689671021019,-2305.2603093508646 L-947.4023710039,-2305.2492317281703 L-947.1288819284161,-2305.2357470681427 L-946.8718376438685,-2305.219985235429 " />
			<path d="M-921.9283075747768,-89.32479356675182 L-946.8718376438686,-91.019825165215 " />
			<path d="M-921.9283075747768,-2303.5249536369656 L-946.8718376438686,-2305.219985235429 " />
			<path d="M-1299.1206605305263,-2320.354907627961 L-1252.2630961560546,-2325.6185761519937 " />
			<path d="M-1252.8246802856495,-111.81077475515428 L-1252.5265485253633,-111.78778007811066 L-1252.2633631120784,-111.76173212554662 " />
			<path d="M-1252.8244132882292,-2326.010916681597 L-1252.5504752567592,-2325.9900134620907 L-1252.3054550428205,-2325.9665293577664 L-1252.092517845397,-2325.940767738954 L-1251.914414411417,-2325.9130613971747 L-1251.839162775174,-2325.8985899463255 L-1251.7734455012917,-2325.8837682461017 L-1251.717474997207,-2325.868644202314 L-1251.6714321674312,-2325.8532666979913 L-1251.635465828841,-2325.837685435382 L-1251.6096922296817,-2325.82195077531 L-1251.5941946738374,-2325.806113574402 L-1251.5903163679382,-2325.7981725089726 L-1251.5890232515792,-2325.790225020709 " />
			<path d="M-1251.5890232515792,-2325.790225020709 L-1251.591753977363,-2325.778677172864 L-1251.599941491392,-2325.767149034421 L-1251.6135718200137,-2325.755660280486 L-1251.6326217003088,-2325.7442305189466 L-1251.6570586197943,-2325.732879257008 L-1251.6868408719126,-2325.7216258679005 L-1251.7622290200989,-2325.699489333119 L-1251.8582717038234,-2325.6779719720603 L-1251.9743135375948,-2325.6572206170054 L-1252.1095626637587,-2325.6373768730873 L-1252.2630961560546,-2325.6185761519932 " />
			<path d="M-1332.9702420918043,-107.76017558731803 L-1282.2587474128295,-113.45676912374569 " />
			<path d="M-1328.88448528747,-2322.4192543874333 L-1282.2584804154092,-2327.656911050189 " />
			<path d="M-1282.2587474128293,-113.4567691237457 L-1282.0540189329877,-113.4775741133414 L-1281.826936041581,-113.49652566335946 L-1281.5796856709892,-113.51344126001322 L-1281.3146489774422,-113.5281579968599 L-1281.0343784091824,-113.5405341436787 L-1280.741573124994,-113.55045051141023 L-1280.439052999827,-113.55781160001241 L-1280.1297314678613,-113.56254651817804 L-1279.8165874645422,-113.5646096660568 L-1279.5026367378034,-113.56398117440679 L-1279.1909028047662,-113.56066709594616 L-1278.884387833617,-113.55469934706214 L-1278.5860437310862,-113.54613540043881 L-1278.2987437139725,-113.53505773156367 L-1278.025254638495,-113.52157302444365 L-1277.7682103539546,-113.50581114417983 " />
			<path d="M-1282.2584804154092,-2327.6569110501887 L-1282.0537519355676,-2327.6777160397846 L-1281.8266690441608,-2327.6966675898025 L-1281.579418673569,-2327.713583186456 L-1281.314381980022,-2327.728299923303 L-1281.0341114117623,-2327.740676070122 L-1280.7413061275738,-2327.7505924378534 L-1280.438786002407,-2327.7579535264554 L-1280.1294644704412,-2327.7626884446213 L-1279.816320467122,-2327.7647515925 L-1279.5023697403833,-2327.7641231008497 L-1279.190635807346,-2327.7608090223894 L-1278.8841208361969,-2327.7548412735055 L-1278.585776733666,-2327.746277326882 L-1278.2984767165524,-2327.735199658007 L-1278.0249876410749,-2327.721714950887 L-1277.7679433565345,-2327.705953070623 " />
			<path d="M-1252.8246802856495,-111.81077475515427 L-1277.7682103539548,-113.50581114417982 " />
			<path d="M-1252.8244132882292,-2326.0109166815973 L-1277.7679433565345,-2327.705953070623 " />
			<path d="M-1282.0418693504937,-113.46164553035369 L-1252.1584152780647,-111.43092258201062 " />
			<path d="M-1002.7479422834485,-94.48229375752159 L-921.2620573815594,-88.94494000867975 " />
			<path d="M-681.95520114171,-72.68290003551422 L-600.4693162398205,-67.14554628667236 " />
			<path d="M-361.1624599999709,-50.88350631350683 L-279.67657509808146,-45.34615256466496 " />
			<path d="M-40.36975076137615,-29.084114759469944 L41.11611841257399,-23.54676207941642 " />
			<path d="M-681.915753992882,-2277.547070962273 L-652.9600400555529,-2275.5387728109818 " />
			<path d="M-359.9270699632186,-2255.214716102257 L-334.9835398941267,-2253.4846933014774 " />
			<path d="M-39.13466191937863,-2232.965332045723 L-10.380733473718417,-2230.9710292471536 " />
			<path d="M41.68497267319841,-2237.906107014008 L41.68497270733951,-2237.656267868311 " />
			<path d="M-279.1074352545466,-2259.7054749179247 L-279.1074352545466,-2249.6092620863496 " />
			<path d="M-599.9001763962855,-2281.5048686399323 L-599.9001763962855,-2271.858669245747 " />
			<path d="M-920.6929175380245,-2303.3042623619394 L-920.6929175380245,-2294.1080764051444 " />
			<path d="M-1251.5890232515792,-2325.7902250207094 L-1251.5890243045194,-2317.058228521131 " />

       </g>

       <!-- solid lines -->
       <g  stroke="rgb(0,0,0)" fill="none">
			<path d="M-41.011232982796685,-14.32041162390584 L41.011232982796685,-23.534272356239093 " />
			<path d="M-1364.2812901924704,-104.24291072718636 L-1333.644314984711,-107.6844656658376 " />
			<path d="M42.97584294604443,-20.56720076977915 L42.97379810524384,-20.71237613510299 L42.967667839538265,-20.85678988458678 L42.957464910155316,-21.000141395580087 L42.94321055628921,-21.14213225666895 L42.92493445088766,-21.282466888871795 L42.902674638882445,-21.420853160939124 L42.876477457992145,-21.557002997476168 L42.846397442262045,-21.69063297862255 L42.812497208541885,-21.82146493004062 L42.774847326137916,-21.94922650198433 L42.73352616991039,-22.073651736243207 L42.688619757122545,-22.19448161978118 L42.64022156838051,-22.311464623917836 L42.58843235303694,-22.42435722792966 L42.53335991946353,-22.532924425981317 L42.47511891062886,-22.636940216331656 L42.41383056544891,-22.736188071796153 L42.34962246640689,-22.830461390486374 L42.28262827396785,-22.919563925888173 L42.21298744834084,-23.003310195383392 L42.14084495916797,-23.08152586636458 L42.06635098374456,-23.15404811913901 L41.98966059439865,-23.22072598586655 L41.91093343568065,-23.281420664825816 L41.83033339203506,-23.336005809354372 L41.74802824664619,-23.38436779086158 L41.6641893321679,-23.426405935366525 L41.578991174064484,-23.4620327330686 L41.49261112730521,-23.491174020514606 L41.40522900716871,-23.513769134983022 L41.317026714925795,-23.52977104076414 L41.22818785917999,-23.539146427073177 " />
			<path d="M41.22818785917998,-23.539146427073177 L41.17409458152725,-23.541595074957424 L41.119876671596444,-23.541598635739515 L41.06557562045532,-23.539157106694514 L41.01123298279669,-23.534272356239093 " />
			<path d="M-41.011232982796685,-14.32041162390584 L-41.10763182465372,-14.30574301632178 L-41.20379843325719,-14.283430146749836 L-41.29950113482376,-14.25352676884719 L-41.394509373162784,-14.21610492247043 L-41.488594265106364,-14.171254760125247 L-41.58152915190896,-14.119084329781142 L-41.673090145288114,-14.059719314574401 L-41.76305666679099,-13.993302730026418 L-41.851211979187134,-13.919994579506778 L-41.937343708607514,-13.839971468771116 L-42.02124435617169,-13.753426180502393 L-42.10271179787087,-13.660567209880519 L-42.18154977150227,-13.561618262299206 L-42.25756834948204,-13.456817714440081 L-42.33058439639738,-13.346418040002384 L-42.40042201019582,-13.230685201471704 L-42.466912945948664,-13.10989800939306 L-42.52989702116778,-12.984347450691878 L-42.58922250169918,-12.854335987660999 L-42.64474646726401,-12.720176829302522 L-42.69633515576586,-12.582193176779889 L-42.74386428553551,-12.440717444797968 L-42.78721935473629,-12.296090460786916 L-42.82629591720903,-12.148660643819039 L-42.860999834092034,-11.998783165236741 L-42.89124750060982,-11.846819093013645 L-42.91696604748438,-11.693134521910215 L-42.938093516483605,-11.538099691519418 L-42.954579009684124,-11.382088094327115 L-42.96638281208887,-11.225475575935942 L-42.97347648730394,-11.06863942962034 L-42.97584294604443,-10.911957487394034 " />
			<path d="M-1364.2812901924704,-104.24291072718637 L-1364.3776890343274,-104.2282421196023 L-1364.4738556429309,-104.20592925003037 L-1364.5695583444974,-104.17602587212771 L-1364.6645665828364,-104.13860402575095 L-1364.75865147478,-104.09375386340578 L-1364.8515863615826,-104.04158343306166 L-1364.9431473549619,-103.98221841785492 L-1365.0331138764645,-103.91580183330694 L-1365.1212691888609,-103.8424936827873 L-1365.207400918281,-103.76247057205164 L-1365.2913015658453,-103.67592528378292 L-1365.3727690075445,-103.58306631316104 L-1365.451606981176,-103.48411736557973 L-1365.5276255591557,-103.3793168177206 L-1365.6006416060711,-103.2689171432829 L-1365.6704792198695,-103.15318430475223 L-1365.7369701556224,-103.03239711267358 L-1365.7999542308414,-102.9068465539724 L-1365.859279711373,-102.77683509094152 L-1365.9148036769377,-102.64267593258305 L-1365.9663923654396,-102.50469228006041 L-1366.0139214952092,-102.3632165480785 L-1366.05727656441,-102.21858956406744 L-1366.0963531268826,-102.07115974709957 L-1366.1310570437656,-101.92128226851727 L-1366.1613047102835,-101.76931819629417 L-1366.187023257158,-101.61563362519074 L-1366.2081507261573,-101.46059879479995 L-1366.2246362193578,-101.30458719760765 L-1366.2364400217625,-101.14797467921647 L-1366.2435336969777,-100.99113853290086 L-1366.2459001557181,-100.83445659067456 " />
			<path d="M-42.97584294604443,-10.911957487394004 L-42.97584294604443,20.56720076977915 " />
			<path d="M-1366.2459001557181,-100.8344565906745 L-1366.2459001557181,-69.35529833350137 " />
			<path d="M-42.97584294604443,20.56720076977915 L-42.97379810524384,20.71237613510299 L-42.967667839538265,20.856789884586778 L-42.957464910155316,21.000141395580087 L-42.94321055628921,21.14213225666895 L-42.92493445088766,21.282466888871795 L-42.902674638882445,21.420853160939124 L-42.876477457992145,21.557002997476168 L-42.846397442262045,21.69063297862255 L-42.812497208541885,21.82146493004062 L-42.77484732613791,21.94922650198433 L-42.733526169910384,22.07365173624321 L-42.688619757122545,22.19448161978118 L-42.64022156838051,22.311464623917832 L-42.58843235303694,22.42435722792966 L-42.53335991946353,22.532924425981317 L-42.47511891062886,22.636940216331656 L-42.413830565448905,22.736188071796153 L-42.34962246640689,22.83046139048637 L-42.28262827396785,22.919563925888173 L-42.21298744834084,23.003310195383392 L-42.14084495916797,23.08152586636458 L-42.06635098374456,23.15404811913901 L-41.98966059439865,23.22072598586655 L-41.91093343568065,23.281420664825816 L-41.83033339203506,23.33600580935437 L-41.74802824664619,23.38436779086158 L-41.6641893321679,23.426405935366525 L-41.578991174064484,23.4620327330686 L-41.49261112730521,23.491174020514606 L-41.40522900716871,23.513769134983022 L-41.317026714925795,23.52977104076414 L-41.22818785918,23.539146427073177 " />
			<path d="M-41.22818785917998,23.539146427073177 L-41.17409458152725,23.541595074957424 L-41.119876671596444,23.541598635739515 L-41.06557562045532,23.539157106694514 L-41.011232982796685,23.534272356239093 " />
			<path d="M-1366.2459001557181,-69.35529833350138 L-1366.2438553149175,-69.21012296817754 L-1366.237725049212,-69.06570921869374 L-1366.227522119829,-68.92235770770044 L-1366.2132677659629,-68.78036684661157 L-1366.1949916605613,-68.64003221440873 L-1366.1727318485562,-68.5016459423414 L-1366.1465346676657,-68.36549610580435 L-1366.1164546519358,-68.23186612465797 L-1366.0825544182155,-68.10103417323991 L-1366.0449045358116,-67.97327260129619 L-1366.0035833795841,-67.84884736703732 L-1365.9586769667962,-67.72801748349934 L-1365.9102787780541,-67.61103447936269 L-1365.8584895627107,-67.49814187535087 L-1365.8034171291372,-67.38957467729921 L-1365.7451761203026,-67.28555888694886 L-1365.6838877751227,-67.18631103148437 L-1365.6196796760805,-67.09203771279415 L-1365.5526854836414,-67.00293517739236 L-1365.4830446580145,-66.91918890789714 L-1365.4109021688416,-66.84097323691594 L-1365.3364081934183,-66.76845098414151 L-1365.2597178040724,-66.70177311741398 L-1365.1809906453543,-66.64107843845471 L-1365.1003906017088,-66.58649329392615 L-1365.0180854563198,-66.53813131241894 L-1364.9342465418415,-66.496093167914 L-1364.8490483837381,-66.46046637021193 L-1364.7626683369788,-66.43132508276592 L-1364.6752862168423,-66.40872996829751 L-1364.5870839245995,-66.39272806251638 L-1364.4982450688537,-66.38335267620735 " />
			<path d="M-1364.4982450688537,-66.38335267620735 L-1364.444151791201,-66.3809040283231 L-1364.38993388127,-66.38090046754101 L-1364.335632830129,-66.38334199658601 L-1364.2812901924704,-66.38822674704143 " />
			<path d="M-41.011232982796685,23.534272356239093 L41.011232982796685,14.32041162390584 " />
			<path d="M41.011232982796685,14.32041162390584 L41.10763182465372,14.30574301632178 L41.20379843325719,14.283430146749838 L41.29950113482376,14.253526768847191 L41.394509373162784,14.21610492247043 L41.488594265106364,14.171254760125247 L41.58152915190896,14.119084329781142 L41.673090145288114,14.059719314574401 L41.76305666679099,13.993302730026418 L41.851211979187134,13.919994579506778 L41.937343708607514,13.839971468771116 L42.02124435617169,13.753426180502393 L42.10271179787087,13.660567209880517 L42.18154977150227,13.561618262299204 L42.25756834948204,13.456817714440081 L42.33058439639738,13.346418040002385 L42.40042201019582,13.230685201471704 L42.466912945948664,13.10989800939306 L42.52989702116778,12.984347450691876 L42.58922250169918,12.854335987660997 L42.64474646726401,12.720176829302522 L42.69633515576586,12.58219317677989 L42.74386428553551,12.44071744479797 L42.78721935473629,12.296090460786917 L42.82629591720903,12.14866064381904 L42.860999834092034,11.998783165236743 L42.89124750060982,11.846819093013647 L42.91696604748438,11.693134521910215 L42.938093516483605,11.538099691519418 L42.954579009684124,11.382088094327115 L42.96638281208887,11.22547557593594 L42.97347648730394,11.068639429620339 L42.97584294604443,10.911957487394012 " />
			<path d="M42.97584294604443,-20.56720076977915 L42.97584294604443,10.911957487394004 " />
			<path d="M-10.221657064478206,-2268.8179605058936 L40.547653548255745,-2274.857202039912 " />
			<path d="M-1332.574826668664,-2360.533171935954 L-1281.80551605593,-2366.5724134699726 " />
			<path d="M42.5202353932617,-2271.9045378956207 L42.51794185293481,-2272.049145314647 L42.51158707652552,-2272.192970126864 L42.501184200968474,-2272.335715009907 L42.48675473164598,-2272.4770848738954 L42.46832849793096,-2272.6167874714656 L42.44594359152205,-2272.754534001914 L42.41964628769842,-2272.8900397082252 L42.389490949657,-2273.0230244657346 L42.35553991613,-2273.1532133612195 L42.3178633725149,-2273.2803372612116 L42.27653920578348,-2273.404133368367 L42.231652843469654,-2273.524345764733 L42.18329707706911,-2273.640725940796 L42.13157187021576,-2273.753033309214 L42.07658415203151,-2273.8610357021716 L42.018447596076705,-2273.964509851329 L41.957282385358006,-2274.0632418493747 L41.89321496387965,-2274.157027592227 L41.82637777525163,-2274.245673200969 L41.75690898889512,-2274.328995422643 L41.6849522144113,-2274.4068220090826 L41.61065620470383,-2274.4789920729954 L41.53417454846889,-2274.545356420553 L41.455665352688406,-2274.605777859818 L41.375290915782784,-2274.6601314843497 L41.29321739209894,-2274.7083049314197 L41.20961444842711,-2274.750198614295 L41.12465491325654,-2274.7857259281077 L41.038514419495215,-2274.8148134288886 L40.95137104139204,-2274.837400985396 L40.86340492641223,-2274.8534419034218 L40.77479792282679,-2274.8629030223196 " />
			<path d="M40.774797922826785,-2274.8629030223196 L40.71817117878121,-2274.8654881643056 L40.66140651592228,-2274.8653992919817 L40.60455144395566,-2274.8626364797306 L40.54765354825575,-2274.8572020399124 " />
			<path d="M-1281.354189215222,-2366.5411105339863 L-1281.4097920898,-2366.554347754611 L-1281.4657213717014,-2366.5649330163405 L-1281.5219302504,-2366.572857459742 L-1281.578371681359,-2366.57811445238 " />
			<path d="M-1281.578371681359,-2366.57811445238 L-1281.6349984254045,-2366.580699594366 L-1281.6917630882635,-2366.580610722042 L-1281.74861816023,-2366.5778479097908 L-1281.80551605593,-2366.5724134699726 " />
			<path d="M-10.221657064478208,-2268.8179605058936 L-10.318158905708906,-2268.802641914211 L-10.41441445656705,-2268.7796833557695 L-10.510191828999634,-2268.7491401397465 L-10.605260286927358,-2268.7110858474257 L-10.699390802108063,-2268.6656121549295 L-10.792356605885818,-2268.612828612367 L-10.88393373549648,-2268.552862379915 L-10.97390157361361,-2268.48585792148 L-11.062043379834929,-2268.4119766566714 L-11.148146812828939,-2268.3313965719276 L-11.232004441883788,-2268.24431179173 L-11.313414246626024,-2268.150932110942 L-11.392180103705364,-2268.0514824893944 L-11.468112259273031,-2267.9462025099356 L-11.541027786115393,-2267.8353458012575 L-11.610751024341635,-2267.719179426882 L-11.677114004563842,-2267.597983241779 L-11.739956852549945,-2267.4720492181746 L-11.799128174374761,-2267.3416807421618 L-11.85448542114122,-2267.2071918828183 L-11.905895232393139,-2267.0689066355862 L-11.953233757392246,-2266.9271581417383 L-11.99638695348545,-2266.782287885812 L-12.035250860843592,-2266.634644872943 L-12.069731852909767,-2266.484584788082 L-12.099746861953912,-2266.332469139116 L-12.125223579190235,-2266.1786643859677 L-12.146100628975416,-2266.023541057759 L-12.16232771666791,-2265.867472860175 L-12.173865749792139,-2265.710835775173 L-12.180686932215695,-2265.5540071552114 L-12.182774831112654,-2265.397364814172 " />
			<path d="M-1332.5748266686637,-2360.533171935954 L-1332.6713285098945,-2360.5178533442718 L-1332.7675840607526,-2360.49489478583 L-1332.8633614331852,-2360.464351569807 L-1332.958429891113,-2360.4262972774864 L-1333.0525604062937,-2360.38082358499 L-1333.1455262100715,-2360.328040042428 L-1333.237103339682,-2360.2680738099757 L-1333.3270711777993,-2360.201069351541 L-1333.4152129840206,-2360.127188086732 L-1333.5013164170146,-2360.0466080019883 L-1333.5851740460694,-2359.9595232217907 L-1333.6665838508115,-2359.8661435410027 L-1333.745349707891,-2359.766693919455 L-1333.8212818634586,-2359.6614139399962 L-1333.894197390301,-2359.550557231318 L-1333.9639206285271,-2359.4343908569426 L-1334.0302836087494,-2359.3131946718395 L-1334.0931264567355,-2359.187260648235 L-1334.1522977785603,-2359.0568921722224 L-1334.2076550253269,-2358.922403312879 L-1334.2590648365788,-2358.784118065647 L-1334.3064033615778,-2358.642369571799 L-1334.3495565576711,-2358.4974993158726 L-1334.3884204650292,-2358.349856303004 L-1334.4229014570953,-2358.1997962181426 L-1334.4529164661394,-2358.0476805691765 L-1334.4783931833758,-2357.8938758160284 L-1334.499270233161,-2357.7387524878195 L-1334.5154973208535,-2357.5826842902356 L-1334.5270353539777,-2357.4260472052338 L-1334.5338565364013,-2357.269218585272 L-1334.5359444352982,-2357.1125762442325 " />
			<path d="M-12.182774831112653,-2265.3973648141714 L-12.126170944153326,-2233.9293943738526 " />
			<path d="M-1334.5359444352982,-2357.112576244232 L-1334.479340548339,-2325.6446058039132 " />
			<path d="M-12.126170944153328,-2233.929394373852 L-12.123877403826437,-2233.784786954826 L-12.11752262741715,-2233.6409621426087 L-12.1071197518601,-2233.498217259566 L-12.092690282537609,-2233.3568473955775 L-12.07426404882259,-2233.217144798007 L-12.051879142413686,-2233.0793982675586 L-12.025581838590053,-2232.9438925612476 L-11.995426500548632,-2232.8109078037382 L-11.961475467021627,-2232.6807189082533 L-11.923798923406528,-2232.5535950082613 L-11.882474756675109,-2232.4297989011056 L-11.837588394361285,-2232.30958650474 L-11.789232627960747,-2232.1932063286768 L-11.737507421107388,-2232.0808989602588 L-11.682519702923138,-2231.972896567301 L-11.62438314696833,-2231.869422418144 L-11.563217936249632,-2231.770690420098 L-11.499150514771282,-2231.6769046772456 L-11.432313326143257,-2231.5882590685037 L-11.362844539786751,-2231.50493684683 L-11.29088776530293,-2231.4271102603902 L-11.216591755595458,-2231.3549401964774 L-11.140110099360518,-2231.2885758489197 L-11.061600903580032,-2231.228154409655 L-10.981226466674414,-2231.173800785123 L-10.89915294299057,-2231.125627338053 L-10.815549999318737,-2231.0837336551776 L-10.730590464148172,-2231.048206341365 L-10.644449970386848,-2231.0191188405843 L-10.557306592283672,-2230.996531284077 L-10.469340477303858,-2230.980490366051 L-10.380733473718434,-2230.971029247153 " />
			<path d="M-10.380733473718417,-2230.971029247153 L-10.32410672967284,-2230.9684441051672 L-10.267342066813912,-2230.968532977491 L-10.21048699484729,-2230.9712957897423 L-10.153589099147371,-2230.9767302295604 " />
			<path d="M-1334.4793405483392,-2325.6446058039132 L-1334.4770470080123,-2325.499998384887 L-1334.4706922316032,-2325.35617357267 L-1334.4602893560461,-2325.213428689627 L-1334.4458598867236,-2325.0720588256386 L-1334.4274336530086,-2324.9323562280683 L-1334.4050487465995,-2324.7946096976198 L-1334.3787514427759,-2324.6591039913087 L-1334.3485961047345,-2324.5261192337994 L-1334.3146450712075,-2324.3959303383144 L-1334.2769685275925,-2324.2688064383224 L-1334.235644360861,-2324.1450103311668 L-1334.1907579985473,-2324.024797934801 L-1334.1424022321467,-2323.908417758738 L-1334.0906770252934,-2323.79611039032 L-1334.0356893071091,-2323.6881079973623 L-1333.9775527511542,-2323.584633848205 L-1333.9163875404356,-2323.4859018501593 L-1333.852320118957,-2323.3921161073067 L-1333.7854829303292,-2323.303470498565 L-1333.7160141439726,-2323.220148276891 L-1333.6440573694888,-2323.1423216904514 L-1333.5697613597813,-2323.0701516265385 L-1333.4932797035465,-2323.003787278981 L-1333.414770507766,-2322.943365839716 L-1333.3343960708603,-2322.8890122151843 L-1333.2523225471764,-2322.8408387681143 L-1333.1687196035048,-2322.7989450852388 L-1333.0837600683342,-2322.7634177714262 L-1332.9976195745728,-2322.7343302706454 L-1332.9104761964695,-2322.711742714138 L-1332.8225100814898,-2322.695701796112 L-1332.7339030779044,-2322.6862406772143 " />
			<path d="M-1332.7339030779044,-2322.6862406772143 L-1332.6772763338588,-2322.6836555352284 L-1332.6205116709998,-2322.6837444075522 L-1332.5636565990333,-2322.6865072198034 L-1332.5067587033334,-2322.6919416596215 " />
			<path d="M40.61572151358658,-2237.0159717635793 L40.71222335481728,-2237.0312903552617 L40.80847890567542,-2237.0542489137033 L40.90425627810801,-2237.0847921297263 L40.99932473603573,-2237.122846422047 L41.09345525121644,-2237.1683201145433 L41.18642105499419,-2237.2211036571057 L41.277998184604854,-2237.281069889558 L41.36796602272198,-2237.3480743479927 L41.4561078289433,-2237.4219556128014 L41.54221126193731,-2237.502535697545 L41.62606889099216,-2237.5896204777428 L41.707478695734395,-2237.683000158531 L41.78624455281374,-2237.7824497800784 L41.862176708381405,-2237.8877297595373 L41.93509223522376,-2237.9985864682153 L42.00481547345001,-2238.114752842591 L42.07117845367222,-2238.235949027694 L42.134021301658315,-2238.3618830512983 L42.193192623483135,-2238.492251527311 L42.24854987024959,-2238.6267403866545 L42.29995968150151,-2238.7650256338866 L42.34729820650062,-2238.9067741277345 L42.390451402593825,-2239.051644383661 L42.42931530995197,-2239.1992873965296 L42.46379630201814,-2239.349347481391 L42.49381131106229,-2239.501463130357 L42.51928802829861,-2239.655267883505 L42.54016507808379,-2239.810391211714 L42.55639216577628,-2239.966459409298 L42.56793019890051,-2240.1230964942997 L42.57475138132407,-2240.2799251142615 L42.57683928022103,-2240.436567455301 " />
			<path d="M42.52023539326171,-2271.90453789562 L42.57683928022103,-2240.436567455301 " />
			<path d="M-9.700292306997586,-17.83768419552236 L41.01120234517397,-23.534277738014826 " />
			<path d="M-9.700594882640898,-2232.037864814471 L41.01089976953066,-2237.7344583569634 " />
			<path d="M41.011202298261615,-23.877574867876216 L41.16473580043222,-23.85877419160918 L41.29998493549839,-23.838930494493372 L41.41602677707681,-23.818179187905756 L41.51206946740729,-23.796661876658277 L41.58745762090983,-23.77452539270102 L41.617239875179756,-23.76327202928051 L41.64167679646936,-23.751920793155843 L41.66072667821523,-23.74049105751415 L41.67435700792973,-23.72900232951792 L41.68254452269017,-23.71747421701207 L41.68527524884172,-23.70592639505917 " />
			<path d="M41.68527524884172,-23.70592639505917 L41.68254452584625,-23.694378572359945 L41.674357014236485,-23.682850457616407 L41.660726687661914,-23.67136172589495 L41.64167680903985,-23.659931985046832 L41.61723989085259,-23.64858074224344 L41.58745763965827,-23.637327370683305 L41.512069492205725,-23.61519086612211 L41.416026807756026,-23.593673528625715 L41.29998497184904,-23.572922190323318 L41.164735842206255,-23.55307845624329 L41.01120234517398,-23.53427773801483 " />
			<path d="M-9.70029230699758,-17.837684195522364 L-9.905020786741286,-17.816879200920646 L-10.132103678058975,-17.797927635978834 L-10.379354048571123,-17.78101201462729 L-10.644390742048898,-17.76629524354665 L-10.924661310250313,-17.75391905328743 L-11.217466594392114,-17.744002633327334 L-11.519986719524365,-17.736641484211447 L-11.829308251467713,-17.731906497829772 L-12.1424522547772,-17.729843274689564 L-12.456402981519034,-17.730471684757543 L-12.76813691457176,-17.733785676101228 L-13.074651885748981,-17.739753333172363 L-13.37299598832013,-17.748317184171107 L-13.660296005485971,-17.75939475453086 L-13.933785081027036,-17.772879361193443 L-14.190829365641505,-17.788641140025256 " />
			<path d="M-14.190829365641536,-17.78864114002526 L-39.13435944192219,-19.483667310124066 " />
			<path d="M-14.191131941284846,-2231.988821758974 L-39.1346620175655,-2233.6838479290727 " />
			<path d="M-39.13435944192219,-19.483667310124062 L-39.40829746718392,-19.504570411666144 L-39.65331767640903,-19.528054399428115 L-39.86625487082807,-19.553815904600516 L-40.04435830368478,-19.581522137146447 L-40.119609940112795,-19.595993535480073 L-40.185327214693714,-19.610815184820872 L-40.24129771999883,-19.625939179523854 L-40.28734055152182,-19.641316636721506 L-40.323306892387414,-19.65689785432006 L-40.34908049434837,-19.672632471643613 L-40.36457805351609,-19.688469632206893 L-40.36845636126982,-19.696410678406313 L-40.36974947961043,-19.704358148090506 " />
			<path d="M-40.36974947961043,-19.704358148090506 L-40.367018756614954,-19.71590597078973 L-40.35883124500519,-19.727434085533268 L-40.34520091843062,-19.738922817254725 L-40.32615103980856,-19.750352558102843 L-40.3017141216213,-19.761703800906236 L-40.271931870426975,-19.77295717246637 L-40.19654372297443,-19.795093677027566 L-40.10050103852473,-19.81661101452396 L-39.98445920261775,-19.837362352826357 L-39.84921007297496,-19.857206086906384 L-39.69567657594268,-19.876006805134846 " />
			<path d="M-330.49300283527475,-39.63707254163924 L-279.7815081589423,-45.33366607824648 " />
			<path d="M-279.7815081589423,-45.67696361717573 L-279.6279746643601,-45.65816289742905 L-279.49272553650616,-45.63831915812651 L-279.37668370168217,-45.617567810928186 L-279.28064101757457,-45.596050460918214 L-279.205252869698,-45.57391394030605 L-279.1754706179992,-45.56266055942557 L-279.1510336991111,-45.5513093064584 L-279.13198381959154,-45.539879554619766 L-279.1183534919232,-45.528390811099115 L-279.1101659790245,-45.51686268376717 L-279.10743525454654,-45.505314847711105 " />
			<path d="M-279.10743525454654,-45.505314847711105 L-279.1101659790245,-45.49376701165504 L-279.1183534919232,-45.482238884323095 L-279.13198381959154,-45.470750140802444 L-279.1510336991111,-45.45932038896381 L-279.1754706179992,-45.447969135996644 L-279.205252869698,-45.43671575511616 L-279.28064101757457,-45.414579234504 L-279.3766837016821,-45.393061884494024 L-279.4927255365061,-45.37231053729571 L-279.6279746643601,-45.35246679799316 L-279.7815081589423,-45.33366607824648 " />
			<path d="M-330.49300283527475,-39.63707254163924 L-330.6977313151067,-39.61626754970687 L-330.9248142065048,-39.597315992702676 L-331.17206457708863,-39.58040038448058 L-331.43710127062883,-39.565683631594794 L-331.71737183888274,-39.553307464420584 L-332.0101771230666,-39.543391072213346 L-332.3126972482301,-39.53602995525089 L-332.6220187801935,-39.53129500511355 L-332.93516278351177,-39.52923182195955 L-333.24911351025094,-39.529860275370496 L-333.5608474432896,-39.533174312996515 L-333.8673624144415,-39.539142018843606 L-334.16570651697634,-39.5477059206422 L-334.4530065340952,-39.558783543336475 L-334.7264956095791,-39.572268203364224 L-334.9835398941267,-39.58803003607792 " />
			<path d="M-330.49300283527475,-2253.8372326118533 L-330.6977313151067,-2253.8164276199213 L-330.9248142065048,-2253.7974760629168 L-331.17206457708863,-2253.7805604546948 L-331.43710127062883,-2253.765843701809 L-331.71737183888274,-2253.7534675346346 L-332.0101771230666,-2253.743551142428 L-332.3126972482301,-2253.736190025465 L-332.6220187801935,-2253.7314550753276 L-332.93516278351177,-2253.7293918921737 L-333.24911351025094,-2253.7300203455848 L-333.5608474432896,-2253.7333343832106 L-333.8673624144415,-2253.7393020890577 L-334.16570651697634,-2253.7478659908566 L-334.4530065340952,-2253.758943613551 L-334.7264956095791,-2253.7724282735785 L-334.9835398941267,-2253.7881901062924 " />
			<path d="M-334.9835398941267,-39.588030036077924 L-359.9270699632186,-41.2830616345411 " />
			<path d="M-334.9835398941267,-2253.788190106292 L-359.9270699632186,-2255.483221704755 " />
			<path d="M-359.9270699632187,-41.28306163454109 L-360.20100799169853,-41.303964798742186 L-360.4460282033534,-41.32744884841635 L-360.6589653993021,-41.35321041394664 L-360.83706883269866,-41.38091670450799 L-360.912320469004,-41.39538813073242 L-360.97803774319226,-41.41020980709681 L-361.0340082478306,-41.42533382786762 L-361.08005107841024,-41.44071131009182 L-361.11601741805515,-41.456292551593506 L-361.14179101851914,-41.47202719161824 L-361.1572885759163,-41.48786437360606 L-361.16116688268346,-41.4958054300168 L-361.1624599999709,-41.50375290956704 " />
			<path d="M-361.1624599999709,-41.50375290956704 L-361.15972927549296,-41.51530074562311 L-361.15154176259426,-41.52682887295505 L-361.1379114349259,-41.5383176164757 L-361.11886155540634,-41.549747368314335 L-361.0944246365182,-41.5610986212815 L-361.0646423848195,-41.572352002161985 L-360.9892542369429,-41.59448852277415 L-360.89321155283534,-41.61600587278412 L-360.77716971801135,-41.636757219982435 L-360.6419205901573,-41.65660095928499 L-360.48838709557515,-41.675401679031665 " />
			<path d="M-359.9270699632187,-2255.4832217047556 L-360.20100799169853,-2255.5041248689563 L-360.4460282033534,-2255.5276089186304 L-360.6589653993021,-2255.553370484161 L-360.83706883269866,-2255.581076774722 L-360.912320469004,-2255.5955482009467 L-360.97803774319226,-2255.610369877311 L-361.0340082478306,-2255.625493898082 L-361.08005107841024,-2255.640871380306 L-361.11601741805515,-2255.6564526218076 L-361.14179101851914,-2255.6721872618323 L-361.1572885759163,-2255.6880244438203 L-361.16116688268346,-2255.695965500231 L-361.1624599999709,-2255.7039129797813 " />
			<path d="M-651.2857439770137,-61.43646626364664 L-600.5742493006812,-67.13305980025387 " />
			<path d="M-600.5742493006812,-67.47635733918311 L-600.4207158060991,-67.45755661943643 L-600.2854666782451,-67.43771288013389 L-600.1694248434212,-67.41696153293556 L-600.0733821593136,-67.3954441829256 L-599.9979940114371,-67.37330766231344 L-599.9682117597383,-67.36205428143295 L-599.9437748408502,-67.35070302846579 L-599.9247249613306,-67.33927327662715 L-599.9110946336623,-67.32778453310651 L-599.9029071207635,-67.31625640577457 L-599.9001763962856,-67.3047085697185 " />
			<path d="M-599.9001763962856,-67.3047085697185 L-599.9029071207635,-67.29316073366243 L-599.9110946336623,-67.28163260633049 L-599.9247249613306,-67.27014386280983 L-599.9437748408502,-67.2587141109712 L-599.9682117597383,-67.24736285800404 L-599.9979940114371,-67.23610947712355 L-600.0733821593136,-67.21397295651138 L-600.1694248434212,-67.19245560650143 L-600.2854666782453,-67.1717042593031 L-600.4207158060992,-67.15186052000055 L-600.5742493006813,-67.13305980025387 " />
			<path d="M-651.2857439770137,-61.436466263646636 L-651.4904724568456,-61.415661271714264 L-651.7175553482438,-61.39670971471007 L-651.9648057188276,-61.37979410648798 L-652.2298424123678,-61.36507735360219 L-652.5101129806218,-61.35270118642798 L-652.8029182648056,-61.34278479422074 L-653.1054383899691,-61.335423677258284 L-653.4147599219325,-61.33068872712094 L-653.7279039252508,-61.32862554396694 L-654.0418546519899,-61.32925399737789 L-654.3535885850285,-61.33256803500391 L-654.6601035561805,-61.338535740851 L-654.9584476587153,-61.347099642649596 L-655.2457476758342,-61.35817726534387 L-655.5192367513181,-61.37166192537162 L-655.7762810358657,-61.38742375808531 " />
			<path d="M-651.2857439770137,-2275.6366263338605 L-651.4904724568456,-2275.6158213419285 L-651.7175553482438,-2275.596869784924 L-651.9648057188276,-2275.579954176702 L-652.2298424123678,-2275.565237423816 L-652.5101129806218,-2275.552861256642 L-652.8029182648056,-2275.542944864435 L-653.1054383899691,-2275.535583747472 L-653.4147599219325,-2275.530848797335 L-653.7279039252508,-2275.528785614181 L-654.0418546519899,-2275.529414067592 L-654.3535885850285,-2275.5327281052178 L-654.6601035561805,-2275.538695811065 L-654.9584476587153,-2275.5472597128637 L-655.2457476758342,-2275.558337335558 L-655.5192367513181,-2275.5718219955857 L-655.7762810358657,-2275.5875838282996 " />
			<path d="M-655.7762810358657,-61.387423758085305 L-680.7198111049576,-63.08245535654848 " />
			<path d="M-655.7762810358657,-2275.5875838282996 L-680.7198111049576,-2277.2826154267627 " />
			<path d="M-680.7198111049576,-63.08245535654848 L-680.9937491334374,-63.10335852074957 L-681.2387693450922,-63.12684257042374 L-681.451706541041,-63.15260413595403 L-681.6298099744375,-63.180310426515376 L-681.7050616107429,-63.19478185273981 L-681.7707788849311,-63.2096035291042 L-681.8267493895695,-63.224727549875006 L-681.8727922201491,-63.24010503209921 L-681.908758559794,-63.255686273600894 L-681.9345321602581,-63.271420913625626 L-681.9500297176552,-63.287258095613446 L-681.9539080244224,-63.29519915202419 L-681.9552011417098,-63.30314663157443 " />
			<path d="M-681.9552011417098,-63.30314663157443 L-681.9524704172319,-63.314694467630495 L-681.9442829043331,-63.32622259496244 L-681.9306525766648,-63.33771133848309 L-681.9116026971452,-63.34914109032172 L-681.8871657782571,-63.36049234328889 L-681.8573835265584,-63.37174572416937 L-681.7819953786818,-63.39388224478154 L-681.6859526945742,-63.41539959479151 L-681.5699108597502,-63.43615094198982 L-681.4346617318962,-63.455994681292374 L-681.2811282373141,-63.47479540103905 " />
			<path d="M-680.7198111049576,-2277.2826154267627 L-680.9937491334374,-2277.3035185909634 L-681.2387693450922,-2277.3270026406376 L-681.451706541041,-2277.352764206168 L-681.6298099744375,-2277.3804704967292 L-681.7050616107429,-2277.394941922954 L-681.7707788849311,-2277.409763599318 L-681.8267493895695,-2277.424887620089 L-681.8727922201491,-2277.4402651023133 L-681.908758559794,-2277.4558463438148 L-681.9345321602581,-2277.4715809838394 L-681.9500297176552,-2277.4874181658274 L-681.9539080244224,-2277.495359222238 L-681.9552011417098,-2277.5033067017885 " />
			<path d="M-972.0784851187526,-83.23585998565402 L-921.3669904424202,-88.93245352226124 " />
			<path d="M-972.0784851187526,-2297.436020055868 L-970.779384702953,-2297.581952394863 " />
			<path d="M-921.3669904424203,-89.27575106119052 L-921.213456947838,-89.25695034144383 L-921.0782078199841,-89.23710660214128 L-920.96216598516,-89.21635525494297 L-920.8661233010525,-89.194837904933 L-920.7907351531759,-89.17270138432083 L-920.7609529014771,-89.16144800344034 L-920.736515982589,-89.15009675047318 L-920.7174661030695,-89.13866699863455 L-920.7038357754011,-89.12717825511389 L-920.6956482625023,-89.11565012778195 L-920.6929175380244,-89.10410229172588 " />
			<path d="M-920.6929175380244,-89.10410229172588 L-920.6956482625023,-89.09255445566981 L-920.7038357754011,-89.08102632833787 L-920.7174661030695,-89.06953758481721 L-920.736515982589,-89.05810783297858 L-920.7609529014771,-89.04675658001142 L-920.7907351531759,-89.03550319913093 L-920.8661233010524,-89.01336667851876 L-920.96216598516,-88.9918493285088 L-921.0782078199841,-88.97109798131048 L-921.213456947838,-88.95125424200793 L-921.3669904424202,-88.93245352226126 " />
			<path d="M-972.0784851187526,-83.23585998565402 L-972.2832135985846,-83.21505499372164 L-972.5102964899827,-83.19610343671745 L-972.7575468605665,-83.17918782849536 L-973.0225835541067,-83.16447107560957 L-973.3028541223607,-83.15209490843536 L-973.5956594065445,-83.14217851622813 L-973.898179531708,-83.13481739926566 L-974.2075010636714,-83.13008244912832 L-974.5206450669897,-83.12801926597432 L-974.8345957937288,-83.12864771938527 L-975.1463297267675,-83.13196175701128 L-975.4528446979194,-83.13792946285838 L-975.7511888004542,-83.14649336465698 L-976.0384888175731,-83.15757098735125 L-976.311977893057,-83.17105564737899 L-976.5690221776047,-83.1868174800927 " />
			<path d="M-972.0784851187526,-2297.4360200558676 L-972.2832135985846,-2297.4152150639356 L-972.5102964899827,-2297.396263506931 L-972.7575468605665,-2297.379347898709 L-973.0225835541067,-2297.3646311458233 L-973.3028541223607,-2297.352254978649 L-973.5956594065445,-2297.342338586442 L-973.898179531708,-2297.3349774694793 L-974.2075010636714,-2297.330242519342 L-974.5206450669897,-2297.328179336188 L-974.8345957937288,-2297.328807789599 L-975.1463297267675,-2297.332121827225 L-975.4528446979194,-2297.338089533072 L-975.7511888004542,-2297.346653434871 L-976.0384888175731,-2297.357731057565 L-976.311977893057,-2297.371215717593 L-976.5690221776047,-2297.3869775503067 " />
			<path d="M-976.5690221776047,-83.18681748009269 L-1001.5125522466965,-84.88184907855586 " />
			<path d="M-976.5690221776047,-2297.3869775503067 L-1001.5125522466965,-2299.08200914877 " />
			<path d="M-1001.5125522466965,-84.88184907855587 L-1001.7864902751763,-84.90275224275696 L-1002.0315104868312,-84.92623629243113 L-1002.2444476827799,-84.95199785796142 L-1002.4225511161765,-84.97970414852276 L-1002.4978027524818,-84.99417557474719 L-1002.5635200266701,-85.00899725111158 L-1002.6194905313084,-85.0241212718824 L-1002.665533361888,-85.0394987541066 L-1002.701499701533,-85.05507999560828 L-1002.727273301997,-85.07081463563301 L-1002.7427708593941,-85.08665181762083 L-1002.7466491661613,-85.09459287403158 L-1002.7479422834488,-85.10254035358182 " />
			<path d="M-1002.7479422834488,-85.10254035358182 L-1002.7452115589708,-85.11408818963788 L-1002.7370240460721,-85.12561631696983 L-1002.7233937184037,-85.13710506049048 L-1002.7043438388841,-85.14853481232912 L-1002.679906919996,-85.15988606529628 L-1002.6501246682973,-85.17113944617677 L-1002.5747365204207,-85.19327596678893 L-1002.4786938363131,-85.21479331679889 L-1002.3626520014891,-85.23554466399722 L-1002.2274028736351,-85.25538840329976 L-1002.073869379053,-85.27418912304644 " />
			<path d="M-1001.5125522466965,-2299.08200914877 L-1001.7864902751763,-2299.1029123129706 L-1002.0315104868312,-2299.1263963626448 L-1002.2444476827799,-2299.1521579281753 L-1002.4225511161765,-2299.1798642187364 L-1002.4978027524818,-2299.194335644961 L-1002.5635200266701,-2299.209157321325 L-1002.6194905313084,-2299.224281342096 L-1002.665533361888,-2299.2396588243205 L-1002.701499701533,-2299.255240065822 L-1002.727273301997,-2299.2709747058466 L-1002.7427708593941,-2299.2868118878346 L-1002.7466491661613,-2299.2947529442454 L-1002.7479422834488,-2299.3027004237956 " />
			<path d="M-1002.7479422834488,-2299.3027004237956 L-1002.7452115589708,-2299.314248259852 L-1002.7370240460721,-2299.325776387184 L-1002.7233937184037,-2299.337265130704 L-1002.7043438388841,-2299.348694882543 L-1002.679906919996,-2299.36004613551 L-1002.6501246682973,-2299.3712995163905 L-1002.5747365204207,-2299.3934360370026 L-1002.4786938363131,-2299.4149533870127 L-1002.3626520014891,-2299.435704734211 L-1002.2274028736351,-2299.4555484735138 L-1002.073869379053,-2299.4743491932604 " />
			<path d="M-1002.073869379053,-2299.4743491932604 L-1000.5431777538897,-2299.6462969552836 " />
			<path d="M-1302.9748578324495,-105.72184068912277 L-1252.2633631534748,-111.41843422555043 " />
			<path d="M-1302.9745908350294,-2319.921982615566 L-1299.1206605305263,-2320.354907627961 " />
			<path d="M-1252.2633631120784,-111.76173212554662 L-1252.1098296243167,-111.74293136742502 L-1251.9745805029384,-111.72308759088905 L-1251.8585386741718,-111.70233620784857 L-1251.7624959956368,-111.68081882362782 L-1251.687107852789,-111.65868227066501 L-1251.6573256033846,-111.6474288743748 L-1251.6328886866368,-111.63607760654286 L-1251.613838809098,-111.62464784040912 L-1251.6002084832471,-111.61315908318686 L-1251.5920209719984,-111.60163094276953 L-1251.5892902489995,-111.59008309426605 " />
			<path d="M-1251.5892902489995,-111.59008309426605 L-1251.5920209747833,-111.57853524642111 L-1251.6002084888123,-111.56700710797836 L-1251.613838817434,-111.55551835404329 L-1251.6328886977292,-111.54408859250378 L-1251.6573256172146,-111.53273733056524 L-1251.687107869333,-111.52148394145756 L-1251.7624960175192,-111.49934740667598 L-1251.8585387012438,-111.47783004561767 L-1251.974580535015,-111.4570786905628 L-1252.109829661179,-111.43723494664462 L-1252.263363153475,-111.41843422555043 " />
			<path d="M-1302.9748578324495,-105.72184068912274 L-1303.1795863122911,-105.70103569952704 L-1303.406669203698,-105.68208414950898 L-1303.6539195742896,-105.66516855285522 L-1303.9189562678366,-105.65045181600854 L-1304.1992268360964,-105.63807566918975 L-1304.4920321202849,-105.62815930145821 L-1304.7945522454518,-105.62079821285603 L-1305.1038737774174,-105.6160632946904 L-1305.4170177807366,-105.61400014681165 L-1305.7309685074754,-105.61462863846165 L-1306.0427024405126,-105.61794271692229 L-1306.3492174116616,-105.6239104658063 L-1306.6475615141926,-105.63247441242963 L-1306.9348615313063,-105.64355208130478 L-1307.2083506067838,-105.65703678842479 L-1307.4653948913242,-105.67279866868861 " />
			<path d="M-1302.9745908350294,-2319.921982615566 L-1303.179319314871,-2319.90117762597 L-1303.4064022062778,-2319.882226075952 L-1303.6536525768695,-2319.8653104792984 L-1303.9186892704165,-2319.8505937424516 L-1304.1989598386763,-2319.8382175956326 L-1304.4917651228648,-2319.828301227901 L-1304.7942852480317,-2319.820940139299 L-1305.1036067799973,-2319.8162052211333 L-1305.4167507833165,-2319.8141420732545 L-1305.7307015100553,-2319.814770564905 L-1306.0424354430925,-2319.818084643365 L-1306.3489504142415,-2319.824052392249 L-1306.6472945167725,-2319.8326163388724 L-1306.9345945338862,-2319.8436940077477 L-1307.2080836093637,-2319.8571787148676 L-1307.465127893904,-2319.8729405951317 " />
			<path d="M-1307.4653948913244,-105.67279866868863 L-1332.4089249596298,-107.36783505771417 " />
			<path d="M-1307.465127893904,-2319.8729405951317 L-1332.4086579622094,-2321.567976984157 " />
			<path d="M-1332.4089249596298,-107.36783505771416 L-1332.6828629910997,-107.38873827722043 L-1332.9278832050384,-107.41222238154471 L-1333.140820402462,-107.4379840003571 L-1333.3189238364419,-107.46569034213657 L-1333.394175472685,-107.48016179298546 L-1333.4598927465672,-107.49498349320963 L-1333.5158632506518,-107.5101075369973 L-1333.5619060804277,-107.52548504131995 L-1333.597872419018,-107.54106630392909 L-1333.6236460181772,-107.55680096400087 L-1333.6391435740215,-107.57263816490939 L-1333.6430218799208,-107.58057923033849 L-1333.6443149962797,-107.5885267186024 " />
			<path d="M-1333.6443149962797,-107.5885267186024 L-1333.641584270496,-107.60007456644733 L-1333.633396756467,-107.61160270489009 L-1333.6197664278452,-107.62309145882516 L-1333.60071654755,-107.63452122036466 L-1333.5762796280646,-107.6458724823032 L-1333.5464973759463,-107.65712587141088 L-1333.47110922776,-107.67926240619246 L-1333.3750665440355,-107.70077976725078 L-1333.2590247102642,-107.72153112230565 L-1333.1237755841003,-107.74137486622382 L-1332.9702420918043,-107.76017558731802 " />
			<path d="M-1332.4086579622094,-2321.5679769841577 L-1332.6825959936793,-2321.588880203664 L-1332.927616207618,-2321.612364307988 L-1333.1405534050416,-2321.6381259268005 L-1333.3186568390215,-2321.66583226858 L-1333.3939084752647,-2321.680303719429 L-1333.4596257491469,-2321.695125419653 L-1333.5155962532315,-2321.7102494634405 L-1333.5616390830073,-2321.725626967763 L-1333.5976054215976,-2321.7412082303726 L-1333.6233790207568,-2321.7569428904444 L-1333.6388765766012,-2321.7727800913526 L-1333.6427548825004,-2321.780721156782 L-1333.6440479988594,-2321.7886686450456 " />
			<path d="M-1333.6440479988594,-2321.7886686450456 L-1333.6413172730756,-2321.8002164928907 L-1333.6331297590466,-2321.8117446313336 L-1333.6194994304249,-2321.8232333852684 L-1333.6004495501297,-2321.834663146808 L-1333.5760126306443,-2321.8460144087467 L-1333.546230378526,-2321.857267797854 L-1333.4708422303397,-2321.8794043326357 L-1333.3747995466151,-2321.9009216936943 L-1333.2587577128438,-2321.921673048749 L-1333.12350858668,-2321.9415167926672 L-1332.969975094384,-2321.9603175137613 " />
			<path d="M-1332.969975094384,-2321.9603175137613 L-1328.88448528747,-2322.4192543874333 " />
			<path d="M-41.011232982796685,-14.32041162390584 L-1364.2812901924704,-104.24291072718636 " />
			<path d="M41.011232982796685,-23.534272356239093 L41.01118404223149,-23.534275681983452 " />
			<path d="M-40.36975075869543,-29.064497571906365 L-279.7815081589423,-45.33366607824648 " />
			<path d="M-361.1624599999709,-50.863889126125414 L-600.5742493006812,-67.13305980025387 " />
			<path d="M-681.95520114171,-72.66328284813281 L-921.3669904424203,-88.93245352226126 " />
			<path d="M-1002.7479422834488,-94.46267657014019 L-1252.2633631534745,-111.41843710231126 " />
			<path d="M-42.97584294604443,-10.911957487394004 L-1366.2459001557181,-100.83445659067452 " />
			<path d="M-42.97584294604443,20.56720076977915 L-1366.2459001557181,-69.35529833350137 " />
			<path d="M-41.442488828387646,23.504966468769524 L-1364.2812901924704,-66.38822674704141 " />
			<path d="M-10.221657064478208,-2268.8179605058936 L-1332.5748266686642,-2360.533171935954 " />
			<path d="M40.54765354825575,-2274.8572020399124 L-1281.8055160559302,-2366.572413469973 " />
			<path d="M-12.182774831112653,-2265.397364814172 L-1334.5359444352987,-2357.1125762442325 " />
			<path d="M-12.126170944153326,-2233.929394373852 L-1334.4793405483392,-2325.644605803913 " />
			<path d="M-39.13466192231052,-2232.986787211722 L-334.9835398941267,-2253.5061484672733 " />
			<path d="M-359.9270699632186,-2255.236171268053 L-651.2857439770137,-2275.444102858035 " />
			<path d="M-681.8745781418127,-2277.565670270819 L-1332.5067587033334,-2322.691941659621 " />
			<path d="M-9.700292306997586,-17.837684195522364 L-9.700594882640898,-2232.0378648144715 " />
			<path d="M41.01120234517397,-23.53427773801483 L41.010899852402524,-2237.1280153071984 " />
			<path d="M-14.19082936564153,-17.78864114002526 L-14.191131941284842,-2231.9888217589746 " />
			<path d="M-39.134359441922186,-19.483667310124062 L-39.134662017565496,-2233.683847929073 " />
			<path d="M-330.49300283527475,-39.63707254163924 L-330.49300283527475,-2253.1732405328416 " />
			<path d="M-279.7815081589423,-45.33366607824648 L-279.7815081589423,-2249.6560141495406 " />
			<path d="M-334.9835398941267,-39.588030036077924 L-334.9835398941267,-2253.7881901062915 " />
			<path d="M-359.9270699632186,-41.2830616345411 L-359.9270699632186,-2255.4832217047547 " />
			<path d="M-651.2857439770137,-61.436466263646636 L-651.2857439770137,-2275.422647692239 " />
			<path d="M-600.5742493006812,-67.13305980025387 L-600.5742493006812,-2271.905421308938 " />
			<path d="M-655.7762810358657,-61.38742375808531 L-655.7762810358657,-2275.587583828299 " />
			<path d="M-680.7198111049576,-63.08245535654848 L-680.7198111049576,-2277.2826154267623 " />
			<path d="M-972.0784851187526,-83.235859985654 L-972.0784851187526,-2297.4360200558676 " />
			<path d="M-921.3669904424203,-88.93245352226124 L-921.3669904424203,-2294.1548284683354 " />
			<path d="M-976.5690221776047,-83.1868174800927 L-976.5690221776047,-2297.3869775503063 " />
			<path d="M-1001.5125522466965,-84.88184907855586 L-1001.5125522466965,-2299.0820091487694 " />
			<path d="M-1302.97485783245,-105.72184068912276 L-1302.9745908350299,-2319.921982615566 " />
			<path d="M-1252.2633631534748,-111.41843422555041 L-1252.263097182659,-2317.1049805825005 " />
			<path d="M-1307.4653948913244,-105.67279866868863 L-1307.4651278939043,-2319.8729405951317 " />
			<path d="M-1332.4089249596298,-107.36783505771416 L-1332.4086579622096,-2321.567976984157 " />
			<path d="M-1252.1584152780647,-111.43092258201062 L-1002.7479422834485,-94.48229375752159 " />
			<path d="M-921.2620573815594,-88.94494000867975 L-681.95520114171,-72.68290003551422 " />
			<path d="M-600.4693162398205,-67.14554628667236 L-361.1624599999709,-50.88350631350683 " />
			<path d="M-279.67657509808146,-45.34615256466496 L-40.36975076137615,-29.084114759469944 " />
			<path d="M41.11611841257399,-23.54676207941642 L41.22818785917998,-23.539146427073177 " />
			<path d="M-1364.4982450688537,-66.38335267620734 L-41.22818785917998,23.539146427073177 " />
			<path d="M-1281.5783716813594,-2366.57811445238 L40.774797922826785,-2274.862903022319 " />
			<path d="M-1332.7339030779046,-2322.6862406772143 L-681.915753992882,-2277.547070962273 " />
			<path d="M-652.9600400555529,-2275.5387728109818 L-359.9270699632186,-2255.214716102257 " />
			<path d="M-334.9835398941267,-2253.4846933014774 L-39.13466191937863,-2232.965332045723 " />
			<path d="M41.68497270733951,-2237.656267868311 L41.68527524884172,-23.705926395059166 " />
			<path d="M-40.370052055253744,-2233.9045387670394 L-40.369749479610434,-19.704358148090506 " />
			<path d="M-279.1074352545466,-2249.6092620863496 L-279.1074352545466,-45.505314847711105 " />
			<path d="M-361.1624599999709,-2255.703912979781 L-361.1624599999709,-41.50375290956704 " />
			<path d="M-599.9001763962855,-2271.858669245747 L-599.9001763962855,-67.30470856971849 " />
			<path d="M-681.95520114171,-2277.503306701788 L-681.95520114171,-63.30314663157443 " />
			<path d="M-920.6929175380245,-2294.1080764051444 L-920.6929175380245,-89.10410229172588 " />
			<path d="M-1002.7479422834487,-2299.3027004237956 L-1002.7479422834487,-85.1025403535818 " />
			<path d="M-1251.5890243045194,-2317.058228521131 L-1251.5892902489993,-111.59008309426603 " />
			<path d="M-1333.6440479988596,-2321.7886686450456 L-1333.6443149962797,-107.58852671860242 " />

       </g>
    </g>
    
</svg>
