<?xml version="1.0" encoding="UTF-8" standalone="no"?>
<svg
   xmlns:svg="http://www.w3.org/2000/svg"
   xmlns="http://www.w3.org/2000/svg"
   width="480.0"
   height="480.0"

>
    <g transform="scale(0.1368415790765664, -0.1368415790765664)   translate(1307.9684867382846,-114.04922852870715)" stroke-width="1.0"  fill="none">
       <!-- hidden lines -->
       <g  stroke="rgb(0,0,0)" fill="none" stroke-dasharray="1.0,1.0" >
			<path d="M-1197.5032845242265,-624.3865089945787 L-1138.159074997867,-655.1458623051226 " />
			<path d="M-1135.89633329807,-653.5820934173619 L-1135.899617620598,-653.7277829014884 L-1135.9094610539305,-653.8696447880634 L-1135.9258350229895,-654.0072672579297 L-1135.948691994824,-654.1402507987805 L-1135.9779656165952,-654.268209364927 L-1136.0135709081965,-654.3907714979729 L-1136.055404508947,-654.5075814051428 L-1136.0786196718625,-654.5637226275098 L-1136.1033449776437,-654.6182999921339 L-1136.1295624789002,-654.6712738828709 L-1136.1572531450993,-654.7226058474926 L-1136.186396876381,-654.7722586255976 L-1136.2169725181457,-654.8201961756582 L-1136.2489578764123,-654.8663837011815 L-1136.2823297339264,-654.9107876759668 L-1136.3170638670133,-654.9533758684422 L-1136.3531350631617,-654.9941173650601 L-1136.390517139325,-655.0329825927362 L-1136.4291829609258,-655.0699433403161 L-1136.469104461553,-655.104972779053 L-1136.5102526633336,-655.1380454820818 L-1136.5525976979684,-655.1691374428758 L-1136.5961088284107,-655.1982260926719 L-1136.6407544711785,-655.2252903168537 L-1136.68650221928,-655.2503104702765 " />
			<path d="M-1136.68650221928,-655.2503104702766 L-1136.7640101727673,-655.2869500754343 L-1136.8442541378356,-655.317945946509 L-1136.9270767394203,-655.3432372941661 L-1137.0123155452145,-655.3627745168252 L-1137.0998033842345,-655.376519297939 L-1137.1893686746748,-655.3844446811399 L-1137.2808357604176,-655.386535123107 L-1137.3740252555292,-655.3827865240497 L-1137.4687543960738,-655.3732062357489 L-1137.5648373985518,-655.3578130471373 L-1137.6620858242593,-655.3366371474519 L-1137.7603089488557,-655.3097200670258 L-1137.8593141364133,-655.2771145958385 L-1137.9589072172168,-655.2388846799845 L-1138.0588928685709,-655.1951052962607 L-1138.159074997867,-655.1458623051226 " />
			<path d="M-1234.1011137429768,-573.5788286431842 L-1234.0236057894897,-573.5421890380265 L-1233.9433618244213,-573.5111931669519 L-1233.8605392228367,-573.4859018192948 L-1233.7753004170424,-573.4663645966357 L-1233.6878125780224,-573.4526198155219 L-1233.5982472875821,-573.444694432321 L-1233.5067802018393,-573.4426039903539 L-1233.4135907067277,-573.4463525894112 L-1233.3188615661832,-573.455932877712 L-1233.222778563705,-573.4713260663236 L-1233.1255301379977,-573.492501966009 L-1233.0273070134012,-573.5194190464351 L-1232.9283018258436,-573.5520245176224 L-1232.82870874504,-573.5902544334764 L-1232.728723093686,-573.6340338172001 L-1232.62854096439,-573.6832768083383 " />
			<path d="M-1232.62854096439,-573.6832768083383 L-1138.159074997867,-622.6487901063455 " />
			<path d="M-1138.159074997867,-622.6487901063455 L-1138.0480475250542,-622.7096343324195 L-1137.9372875271486,-622.7769246778096 L-1137.827061834686,-622.8504990341797 L-1137.7176359910143,-622.9301801544613 L-1137.6092736125759,-623.0157760798561 L-1137.5022357538312,-623.1070806022825 L-1137.396780278358,-623.2038737611488 L-1137.293161237633,-623.3059223732571 L-1137.1916282590018,-623.4129805945624 L-1137.0924259443027,-623.5247905124326 L-1136.995793280601,-623.6410827669819 L-1136.9019630644477,-623.7615771999831 L-1136.811161341052,-623.8859835297933 L-1136.7236068597188,-624.0140020506669 L-1136.6395105468625,-624.1453243547744 L-1136.5590749978671,-624.2796340751826 L-1136.482493989015,-624.4166076480107 L-1136.4099520106643,-624.5559150919245 L-1136.3416238227949,-624.6972208030896 L-1136.2776740339962,-624.840184363671 L-1136.2182567049106,-624.9844613619291 L-1136.1635149770884,-625.1297042219378 L-1136.1135807281466,-625.2755630409258 L-1136.0685742540647,-625.4216864322221 L-1136.0286039793812,-625.5677223717786 L-1135.993766195988,-625.7133190462254 L-1135.9641448311575,-625.8581257004209 L-1135.9398112453516,-626.0017934824518 L-1135.9208240603102,-626.1439762840472 L-1135.9072290178249,-626.2843315743845 L-1135.899058869544,-626.4225212252755 L-1135.89633329807,-626.5582123257471 " />
			<path d="M-1135.8963332980702,-653.5820934173618 L-1135.8963332980702,-626.5582123257471 " />
			<path d="M-1135.3764763451595,-2588.0147958311486 L-1135.3781842599874,-2588.111679990522 L-1135.382787035734,-2588.206926550746 L-1135.3902787845577,-2588.3004136730187 L-1135.40064992306,-2588.392021769199 " />
			<path d="M-1197.5056583425471,-2526.4859609352843 L-1197.4276281426974,-2526.4489385971538 L-1197.3468128305965,-2526.417639492462 L-1197.2633732525323,-2526.392125915651 L-1197.1774754778562,-2526.3724486462575 L-1197.0892904684542,-2526.358646847847 L-1196.9989937384842,-2526.3507479900663 L-1196.9067650050501,-2526.3487677939693 L-1196.8127878305124,-2526.3527102007306 L-1196.7172492571442,-2526.362567363798 L-1196.6203394348627,-2526.378319664513 L-1196.5222512427745,-2526.3999357511543 L-1196.4231799052895,-2526.4273726013394 L-1196.3233226035666,-2526.46057560765 L-1196.2228780830649,-2526.499478686318 L-1196.1220462579827,-2526.5440044087527 L-1196.0210278133675,-2526.594064155644 " />
			<path d="M-11.682938691204438,-1910.182654756321 L46.77575294819293,-1940.7264973870756 " />
			<path d="M-1196.0210278133675,-2526.5940641556435 L-1137.5623361739702,-2557.137906786398 " />
			<path d="M-1137.5623361739704,-2557.1379067863986 L-1137.451219214755,-2557.199257337897 L-1137.3403874207559,-2557.2670379723945 L-1137.2301077954728,-2557.341085400405 L-1137.1206460121823,-2557.4212212351895 L-1137.0122657739078,-2557.507252422503 L-1136.9052281781367,-2557.5989717056787 L-1136.7997910878123,-2557.6961581249307 L-1136.6962085101204,-2557.7985775496622 L-1136.5947299845636,-2557.9059832425082 L-1136.4955999817985,-2558.018116453747 L-1136.3990573146841,-2558.134707044651 L-1136.3053345629621,-2558.2554741382746 L-1136.2146575129502,-2558.3801267961117 L-1136.1272446136043,-2558.5083647189904 L-1136.0433064502556,-2558.6398789705227 L-1135.9630452372917,-2558.7743527213574 L-1135.8866543310044,-2558.91146201245 L-1135.814317763778,-2559.0508765355094 L-1135.7462098007393,-2559.192260428738 L-1135.6824945199367,-2559.335273085953 L-1135.623325417062,-2559.479569977137 L-1135.5688450356672,-2559.62480347844 L-1135.5191846237626,-2559.7706237096368 L-1135.4744638176303,-2559.9166793770178 L-1135.4347903536095,-2560.0626186196873 L-1135.40025980855,-2560.2080898572267 L-1135.3709553695592,-2560.3527426366836 L-1135.3469476335974,-2560.496228476842 L-1135.3282944374037,-2560.6382017077453 L-1135.315040718161,-2560.778320303444 L-1135.3072184052403,-2560.916246705969 L-1135.3048463432785,-2561.0516486385354 " />
			<path d="M-1135.3764763451595,-2588.014795831148 L-1135.3048463432783,-2561.051648638535 " />
			<path d="M47.234434517644175,-1943.899271050068 L47.34273640914732,-1943.8403104809256 L47.44532625003169,-1943.7786665112944 L47.54195689243106,-1943.7144876468687 L47.63239554470764,-1943.6479285001253 L47.7164243322674,-1943.5791494178486 L47.79384082243896,-1943.508316094841 L47.86445851215153,-1943.43559917475 L47.92810727723707,-1943.3611738389725 L47.98463378227422,-1943.2852193846277 L48.03390184998673,-1943.207918792615 L48.0757927893063,-1943.1294582867959 L48.110205681309814,-1943.0500268853662 L48.137057622341736,-1942.9698159454933 L48.15628392373628,-1942.8890187023212 L48.16783826765804,-1942.8078298034488 L48.17169281868568,-1942.7264448400083 " />
			<path d="M48.17169281868568,-1942.7264448400083 L48.16783828942642,-1942.6450598602391 L48.15628396433714,-1942.5638709429518 L48.137057678804226,-1942.4830736793963 L48.11020575064223,-1942.402862717294 L48.07579286851015,-1942.3234312919144 L48.03390193607078,-1942.2449707605545 L47.984633872268475,-1942.1676701415417 L47.92810736820654,-1942.0917156588732 L47.86445860120988,-1942.017290293585 L47.793840906761886,-1941.9445733429338 L47.71642440910571,-1941.8737399884567 L47.63239561140003,-1941.80496087394 L47.54195694641645,-1941.7384016943265 L47.44532628886121,-1941.6742227965397 L47.342736430495805,-1941.6125787931946 L47.23443451932113,-1941.5536181901225 " />
			<path d="M-11.172585585044256,-1911.280029863769 L-11.302940109872363,-1911.216150209522 L-11.439996086181317,-1911.156157149759 L-11.58332278826341,-1911.1002392246214 L-11.73246978340605,-1911.0485721673274 L-11.88696834746626,-1911.0013183518972 L-12.046332937929689,-1910.958626282859 L-12.210062719824684,-1910.9206301285444 L-12.377643139695952,-1910.8874492994369 L-12.54854754269129,-1910.8591880729018 L-12.722238827679378,-1910.8359352654736 L-12.898171135197078,-1910.8177639537314 L-13.07579156292153,-1910.8047312446422 L-13.254541903275841,-1910.7968780960905 L-13.433860397707598,-1910.7942291881602 L-13.613183502127017,-1910.7967928455716 L-13.79194765795648,-1910.8045610115214 " />
			<path d="M-38.979630512240014,-23.21220605116648 L-38.97577598298076,-23.293591030935808 L-38.96422165789148,-23.374779948223036 L-38.94499537235856,-23.455577211778483 L-38.918143444196566,-23.535788173880793 L-38.883730562064486,-23.615219599260428 L-38.84183962962511,-23.693680130620454 L-38.79257156582281,-23.770980749633097 L-38.736045061760876,-23.84693523230155 L-38.67239629476422,-23.921360597589977 L-38.60177860031622,-23.994077548240938 L-38.52436210266006,-24.064910902718257 L-38.440333304954365,-24.133690017234777 L-38.349894639970785,-24.200249196848265 L-38.25326398241555,-24.26442809463511 L-38.15067412405014,-24.326072097980195 L-38.042372212875456,-24.385032701052264 " />
			<path d="M-38.04264327841277,-1922.8616880522184 L-38.150945169915914,-1922.9206486213607 L-38.253535010800285,-1922.9822925909918 L-38.35016565319965,-1923.0464714554175 L-38.440604305476235,-1923.113030602161 L-38.524633093035995,-1923.1818096844377 L-38.60204958320755,-1923.2526430074454 L-38.67266727292012,-1923.3253599275363 L-38.73631603800566,-1923.3997852633138 L-38.792842543042816,-1923.4757397176586 L-38.84211061075532,-1923.5530403096714 L-38.88400155007489,-1923.6315008154904 L-38.91841444207841,-1923.7109322169201 L-38.94526638311033,-1923.791143156793 L-38.964492684504876,-1923.871940399965 L-38.976047028426635,-1923.9531292988374 L-38.97990157945427,-1924.034514262278 " />
			<path d="M-38.97990157945427,-1924.034514262278 L-38.976047050195014,-1924.1158992420471 L-38.964492725105735,-1924.1970881593345 L-38.94526643957282,-1924.27788542289 L-38.91841451141082,-1924.3580963849922 L-38.88400162927874,-1924.4375278103719 L-38.84211069683937,-1924.5159883417318 L-38.79284263303707,-1924.5932889607445 L-38.73631612897513,-1924.669243443413 L-38.672667361978476,-1924.7436688087014 L-38.60204966753048,-1924.8163857593524 L-38.52463316987431,-1924.8872191138296 L-38.44060437216862,-1924.9559982283463 L-38.35016570718504,-1925.0225574079598 L-38.253535049629804,-1925.0867363057466 L-38.1509451912644,-1925.1483803090916 L-38.04264328008971,-1925.2073409121638 " />
			<path d="M-38.04237221287544,-24.385032701052268 L20.364647891489916,-54.65862102740577 " />
			<path d="M-38.042643280089706,-1925.2073409121638 L20.364376824275656,-1955.4809292385173 " />
			<path d="M20.364647891489913,-54.658621027405765 L20.47840093573627,-54.71475618380116 L20.59733108188505,-54.767930664660234 L20.72115181679712,-54.81801636800107 L20.849564845476667,-54.86489263297732 L20.982260809689947,-54.9084465305608 L21.118920033236375,-54.94857313559734 L21.259213292076495,-54.98517577958074 L21.402802607461524,-55.018166283535635 L21.549342060153762,-55.04746517044836 L21.698478623776328,-55.07300185673408 L21.849853015284637,-55.09471482227876 L22.00310056051072,-55.112551758646596 L22.15785207269522,-55.12646969509553 L22.31373474189066,-55.13643510209759 L22.47037303309323,-55.14242397211445 L22.62738959093954,-55.14442187743367 L22.784406148788705,-55.14242400492635 L22.941044439999843,-55.13643516764233 L23.09692710920953,-55.126469793215215 L23.25167862141393,-55.11255188910485 L23.404926166665515,-55.0947149847613 L23.556300558204875,-55.07300205084946 L23.70543712186395,-55.047465395728956 L23.85197657459808,-55.01816653943871 L23.99556589003028,-54.98517606548981 L24.135859148922737,-54.94857345082362 L24.27251837252654,-54.90844687434488 L24.405214336802096,-54.86489300449101 L24.533627365548668,-54.818016766349345 L24.65744810053235,-54.767931088883444 L24.776378246757158,-54.71475663287731 L24.890131291083772,-54.658621500253005 " />
			<path d="M20.36437682427566,-1955.480929238517 L20.478129868522018,-1955.5370643949125 L20.597060014670795,-1955.5902388757715 L20.720880749582868,-1955.6403245791123 L20.849293778262414,-1955.6872008440887 L20.981989742475694,-1955.730754741672 L21.11864896602212,-1955.7708813467086 L21.258942224862242,-1955.807483990692 L21.40253154024727,-1955.840474494647 L21.54907099293951,-1955.8697733815595 L21.698207556562075,-1955.8953100678452 L21.849581948070384,-1955.91702303339 L22.002829493296467,-1955.9348599697578 L22.157581005480967,-1955.9487779062067 L22.313463674676406,-1955.9587433132087 L22.47010196587898,-1955.9647321832258 L22.627118523725287,-1955.9667300885449 L22.78413508157445,-1955.9647322160376 L22.94077337278559,-1955.9587433787535 L23.096656041995278,-1955.9487780043264 L23.251407554199677,-1955.9348601002162 L23.40465509945126,-1955.9170231958726 L23.55602949099062,-1955.8953102619607 L23.7051660546497,-1955.8697736068402 L23.851705507383826,-1955.84047475055 L23.995294822816028,-1955.8074842766011 L24.135588081708484,-1955.770881661935 L24.272247305312288,-1955.7307550854562 L24.404943269587843,-1955.6872012156023 L24.53335629833441,-1955.6403249774605 L24.6571770333181,-1955.5902392999947 L24.776107179542905,-1955.5370648439887 L24.88986022386952,-1955.4809297113643 " />
			<path d="M47.23470558485843,-43.07696283895633 L24.89013129108379,-54.658621500253 " />
			<path d="M47.23443451764417,-1943.8992710500677 L24.889860223869526,-1955.4809297113645 " />
			<path d="M-298.54048301696037,-2060.228858791424 L-240.1334628909515,-2090.502447102917 " />
			<path d="M-240.13346289095148,-192.02593263924058 L-240.02516098961254,-191.96697204127685 L-239.92257113998767,-191.90532804239254 L-239.82594049001037,-191.84114914838028 L-239.73550183138028,-191.7745899718172 L-239.65147303874755,-191.7058108595895 L-239.5740565448337,-191.6349775066029 L-239.50343885275342,-191.56226055660898 L-239.43979008671232,-191.48783519110958 L-239.38326358216275,-191.41188070732903 L-239.33399551640537,-191.33458008627164 L-239.2921045805259,-191.25611955190422 L-239.2576916934581,-191.1766881225264 L-239.23083975886112,-191.09647715540896 L-239.2116134653974,-191.01567988579728 L-239.20005913089187,-190.9344909613909 L-239.19620459074844,-190.85310597342004 " />
			<path d="M-240.13346289095148,-2092.8481004345576 L-240.02516098961254,-2092.7891398365937 L-239.92257113998767,-2092.7274958377097 L-239.82594049001037,-2092.6633169436973 L-239.73550183138028,-2092.596757767134 L-239.65147303874755,-2092.5279786549063 L-239.5740565448337,-2092.45714530192 L-239.50343885275342,-2092.384428351926 L-239.43979008671232,-2092.3100029864268 L-239.38326358216275,-2092.234048502646 L-239.33399551640537,-2092.1567478815887 L-239.2921045805259,-2092.0782873472212 L-239.2576916934581,-2091.9988559178432 L-239.23083975886112,-2091.918644950726 L-239.2116134653974,-2091.8378476811145 L-239.20005913089187,-2091.756658756708 L-239.19620459074844,-2091.675273768737 " />
			<path d="M-239.19620459074844,-2091.675273768737 L-239.20005913089187,-2091.593888780766 L-239.2116134653974,-2091.5126998563596 L-239.23083975886112,-2091.431902586748 L-239.2576916934581,-2091.351691619631 L-239.2921045805259,-2091.272260190253 L-239.33399551640537,-2091.1937996558854 L-239.38326358216275,-2091.116499034828 L-239.43979008671232,-2091.0405445510473 L-239.50343885275342,-2090.966119185548 L-239.5740565448337,-2090.8934022355543 L-239.65147303874755,-2090.822568882568 L-239.73550183138028,-2090.75378977034 L-239.82594049001037,-2090.687230593777 L-239.92257113998767,-2090.6230516997643 L-240.02516098961254,-2090.5614077008804 L-240.13346289095145,-2090.5024471029164 " />
			<path d="M-298.5404830169603,-2060.228858791424 L-298.6509838185958,-2060.1742535787625 L-298.76638371869484,-2060.1224423422004 L-298.88642003501127,-2060.0735430185123 L-299.01081953152715,-2060.0276669161494 L-299.13929904041356,-2059.984918461872 L-299.2715661065996,-2059.9453949630424 L-299.40731965348124,-2059.9091863861295 L-299.5462506682553,-2059.8763751519173 L-299.68804290531864,-2059.8470359478943 L-299.8323736061309,-2059.8212355582436 L-299.97891423390274,-2059.7990327118223 L-300.12733122143686,-2059.7804779484804 L-300.27728673041963,-2059.765613504016 L-300.4284394204349,-2059.754473214036 L-300.5804452259499,-2059.747082436936 L-300.7329581395038,-2059.7434579961796 " />
			<path d="M-326.3477990022522,-172.16118098690532 L-326.34394446210877,-172.2425659748762 L-326.3323901276032,-172.32375489928256 L-326.3131638341395,-172.40455216889424 L-326.28631189954257,-172.48476313601168 L-326.2518990124748,-172.5641945653895 L-326.2100080765953,-172.64265509975692 L-326.16074001083786,-172.7199557208143 L-326.1042135062883,-172.79591020459486 L-326.04056474024725,-172.87033557009426 L-325.96994704816694,-172.94305252008817 L-325.8925305542531,-173.01388587307477 L-325.80850176162033,-173.08266498530247 L-325.7180631029903,-173.14922416186556 L-325.62143245301297,-173.21340305587782 L-325.51884260338807,-173.27504705476213 L-325.41054070204916,-173.33400765272586 " />
			<path d="M-326.3431451172467,-2073.072769613297 L-326.33192238412204,-2073.148365705938 L-326.31404607980875,-2073.223616977817 L-326.28955355878384,-2073.29836618324 L-326.25849600082654,-2073.372457125633 L-326.2209383040731,-2073.4457349839363 L-326.1769589494048,-2073.5180466361157 L-326.1266498364536,-2073.589240979131 L-326.07011609156814,-2073.6591692446796 L-326.0074758481404,-2073.727685310065 L-325.93885999975384,-2073.7946460035378 L-325.8644119266663,-2073.859911403465 L-325.7842871962019,-2073.9233451307146 L-325.6986532376761,-2073.984814633632 L-325.60768899253395,-2074.044191465024 L-325.51158454043264,-2074.1013515505606 L-325.41054070204916,-2074.156175448043 " />
			<path d="M-325.4105407020492,-173.33400765272583 L-267.00352057604033,-203.6075959642183 " />
			<path d="M-325.4105407020492,-2074.1561754480426 L-267.00352057604033,-2104.4297637595355 " />
			<path d="M-267.00352057604033,-203.60759596421832 L-266.8897675317538,-203.6637311200166 L-266.77083738556706,-203.71690559914222 L-266.64701665061915,-203.7669912996175 L-266.5186036219061,-203.81386756060297 L-266.3859076576617,-203.85742145308006 L-266.24924843408655,-203.8975480519069 L-266.1089551752203,-203.93415068859227 L-265.9653658598117,-203.96714118417833 L-265.81882640709847,-203.99644006167162 L-265.66968984345766,-204.02197673751002 L-265.5183154519338,-204.0436896916046 L-265.365067906695,-204.0615266155472 L-265.2103163945005,-204.07544453862565 L-265.054433725298,-204.0854099313442 L-264.8977954340911,-204.09139878619897 L-264.7407788762434,-204.093396675514 L-264.58376231839566,-204.09139878619897 L-264.42712402718877,-204.0854099313442 L-264.27124135798624,-204.07544453862565 L-264.11648984579176,-204.0615266155472 L-263.96324230055296,-204.0436896916046 L-263.8118679090291,-204.02197673751002 L-263.6627313453883,-203.99644006167162 L-263.51619189267507,-203.96714118417833 L-263.3726025772665,-203.93415068859227 L-263.2323093184002,-203.8975480519069 L-263.0956500948251,-203.85742145308006 L-262.96295413058067,-203.813867560603 L-262.8345411018676,-203.7669912996175 L-262.7107203669197,-203.71690559914222 L-262.59179022073295,-203.6637311200166 L-262.47803717644643,-203.60759596421832 " />
			<path d="M-267.00352057604033,-2104.4297637595355 L-266.8897675317538,-2104.4858989153336 L-266.77083738556706,-2104.539073394459 L-266.64701665061915,-2104.5891590949345 L-266.5186036219061,-2104.6360353559203 L-266.3859076576617,-2104.6795892483974 L-266.24924843408655,-2104.719715847224 L-266.1089551752203,-2104.7563184839096 L-265.9653658598117,-2104.789308979495 L-265.81882640709847,-2104.818607856989 L-265.66968984345766,-2104.844144532827 L-265.5183154519338,-2104.865857486922 L-265.365067906695,-2104.8836944108643 L-265.2103163945005,-2104.8976123339426 L-265.054433725298,-2104.907577726661 L-264.8977954340911,-2104.913566581516 L-264.7407788762434,-2104.915564470831 L-264.58376231839566,-2104.913566581516 L-264.42712402718877,-2104.907577726661 L-264.27124135798624,-2104.8976123339426 L-264.11648984579176,-2104.8836944108643 L-263.96324230055296,-2104.865857486922 L-263.8118679090291,-2104.844144532827 L-263.6627313453883,-2104.818607856989 L-263.51619189267507,-2104.789308979495 L-263.3726025772665,-2104.7563184839096 L-263.2323093184002,-2104.719715847224 L-263.0956500948251,-2104.6795892483974 L-262.96295413058067,-2104.6360353559203 L-262.8345411018676,-2104.5891590949345 L-262.7107203669197,-2104.539073394459 L-262.59179022073295,-2104.4858989153336 L-262.47803717644643,-2104.4297637595355 " />
			<path d="M-240.13346289095148,-192.02593263924058 L-262.4780371764464,-203.60759596421832 " />
			<path d="M-240.13346289095148,-2092.8481004345576 L-262.4780371764464,-2104.4297637595355 " />
			<path d="M-585.9086788911732,-2209.1778453506313 L-527.5016587651644,-2239.451433662124 " />
			<path d="M-527.5016587651645,-340.97491919844794 L-527.3933568638256,-340.9159586004842 L-527.2907670142007,-340.85431460159987 L-527.1941363642234,-340.79013570758764 L-527.1036977055933,-340.72357653102455 L-527.0196689129606,-340.6547974187969 L-526.9422524190467,-340.5839640658102 L-526.8716347269665,-340.51124711581633 L-526.8079859609253,-340.43682175031694 L-526.7514594563758,-340.3608672665364 L-526.7021913906184,-340.28356664547897 L-526.660300454739,-340.20510611111155 L-526.6258875676712,-340.12567468173376 L-526.5990356330742,-340.0454637146163 L-526.5798093396104,-339.96466644500464 L-526.5682550051049,-339.88347752059826 L-526.5644004649614,-339.8020925326274 " />
			<path d="M-527.5016587651645,-2241.797086993765 L-527.3933568638256,-2241.738126395801 L-527.2907670142007,-2241.676482396917 L-527.1941363642234,-2241.6123035029045 L-527.1036977055933,-2241.5457443263413 L-527.0196689129606,-2241.4769652141135 L-526.9422524190467,-2241.406131861127 L-526.8716347269665,-2241.3334149111333 L-526.8079859609253,-2241.258989545634 L-526.7514594563758,-2241.1830350618534 L-526.7021913906184,-2241.105734440796 L-526.660300454739,-2241.0272739064285 L-526.6258875676712,-2240.9478424770505 L-526.5990356330742,-2240.8676315099333 L-526.5798093396104,-2240.7868342403217 L-526.5682550051049,-2240.7056453159153 L-526.5644004649614,-2240.6242603279443 " />
			<path d="M-526.5644004649614,-2240.6242603279443 L-526.5682550051049,-2240.5428753399733 L-526.5798093396104,-2240.461686415567 L-526.5990356330742,-2240.3808891459553 L-526.6258875676712,-2240.300678178838 L-526.660300454739,-2240.22124674946 L-526.7021913906184,-2240.1427862150927 L-526.7514594563758,-2240.065485594035 L-526.8079859609253,-2239.9895311102546 L-526.8716347269665,-2239.9151057447552 L-526.9422524190467,-2239.8423887947615 L-527.0196689129606,-2239.771555441775 L-527.1036977055933,-2239.7027763295473 L-527.1941363642234,-2239.636217152984 L-527.2907670142007,-2239.5720382589716 L-527.3933568638256,-2239.5103942600877 L-527.5016587651645,-2239.4514336621237 " />
			<path d="M-585.9086788911733,-2209.1778453506313 L-586.0375519674328,-2209.114652378423 L-586.1729834414697,-2209.0552582850955 L-586.3145570676592,-2208.999845617073 L-586.4618377226086,-2208.9485846839593 L-586.6143727424989,-2208.9016330350933 L-586.7716933143375,-2208.8591349753233 L-586.9333159168441,-2208.821221121492 L-587.098743806543,-2208.788008000985 " />
			<path d="M-613.7159948764651,-321.1101675461127 L-613.7121403363216,-321.19155253408354 L-613.7005860018161,-321.2727414584899 L-613.6813597083523,-321.35353872810157 L-613.6545077737553,-321.43374969521903 L-613.6200948866875,-321.5131811245968 L-613.5782039508081,-321.59164165896425 L-613.5289358850507,-321.66894228002167 L-613.4724093805012,-321.7448967638022 L-613.40876061446,-321.8193221293016 L-613.3381429223798,-321.8920390792955 L-613.2607264284659,-321.96287243228215 L-613.1766976358332,-322.0316515445098 L-613.0862589772031,-322.0982107210729 L-612.9896283272258,-322.16238961508515 L-612.8870384776009,-322.2240336139695 L-612.778736576262,-322.2829942119332 " />
			<path d="M-613.501251105922,-2222.529697882925 L-613.4371557326455,-2222.6094974016833 L-613.3651266716274,-2222.6874577912045 L-613.2853595492323,-2222.7633673160117 L-613.1980710079089,-2222.8370198106472 L-613.103498117803,-2222.9082152396036 L-613.0018977328901,-2222.9767602406073 L-612.8935457933763,-2223.0424686497813 L-612.778736576262,-2223.1051620072503 " />
			<path d="M-612.778736576262,-322.2829942119332 L-554.3717164502532,-352.5565825234256 " />
			<path d="M-612.778736576262,-2223.10516200725 L-554.3717164502532,-2253.3787503187427 " />
			<path d="M-554.3717164502532,-352.5565825234257 L-554.2579634059667,-352.6127176792239 L-554.1390332597799,-352.6658921583496 L-554.015212524832,-352.7159778588249 L-553.886799496119,-352.76285411981036 L-553.7541035318745,-352.8064080122874 L-553.6174443082995,-352.84653461111424 L-553.4771510494331,-352.8831372477996 L-553.3335617340246,-352.9161277433857 L-553.1870222813113,-352.945426620879 L-553.0378857176705,-352.97096329671734 L-552.8865113261467,-352.99267625081194 L-552.7332637809078,-353.0105131747545 L-552.5785122687134,-353.024431097833 L-552.4226295995109,-353.03439649055156 L-552.265991308304,-353.0403853454063 L-552.1089747504562,-353.04238323472134 L-551.9519581926085,-353.0403853454063 L-551.7953199014016,-353.03439649055156 L-551.639437232199,-353.024431097833 L-551.4846857200047,-353.0105131747545 L-551.3314381747658,-352.99267625081194 L-551.180063783242,-352.97096329671734 L-551.0309272196012,-352.945426620879 L-550.8843877668879,-352.9161277433857 L-550.7407984514793,-352.8831372477996 L-550.600505192613,-352.84653461111424 L-550.463845969038,-352.8064080122874 L-550.3311500047935,-352.76285411981036 L-550.2027369760805,-352.7159778588249 L-550.0789162411326,-352.6658921583496 L-549.9599860949457,-352.6127176792239 L-549.8462330506593,-352.5565825234257 " />
			<path d="M-554.3717164502532,-2253.3787503187427 L-554.2579634059667,-2253.434885474541 L-554.1390332597799,-2253.4880599536664 L-554.015212524832,-2253.5381456541418 L-553.886799496119,-2253.5850219151275 L-553.7541035318745,-2253.6285758076046 L-553.6174443082995,-2253.6687024064313 L-553.4771510494331,-2253.705305043117 L-553.3335617340246,-2253.7382955387025 L-553.1870222813113,-2253.767594416196 L-553.0378857176705,-2253.7931310920344 L-552.8865113261467,-2253.814844046129 L-552.7332637809078,-2253.8326809700716 L-552.5785122687134,-2253.84659889315 L-552.4226295995109,-2253.8565642858684 L-552.265991308304,-2253.8625531407233 L-552.1089747504562,-2253.8645510300385 L-551.9519581926085,-2253.8625531407233 L-551.7953199014016,-2253.8565642858684 L-551.639437232199,-2253.84659889315 L-551.4846857200047,-2253.8326809700716 L-551.3314381747658,-2253.814844046129 L-551.180063783242,-2253.7931310920344 L-551.0309272196012,-2253.767594416196 L-550.8843877668879,-2253.7382955387025 L-550.7407984514793,-2253.705305043117 L-550.600505192613,-2253.6687024064313 L-550.463845969038,-2253.6285758076046 L-550.3311500047935,-2253.5850219151275 L-550.2027369760805,-2253.5381456541418 L-550.0789162411326,-2253.4880599536664 L-549.9599860949457,-2253.434885474541 L-549.8462330506593,-2253.3787503187427 " />
			<path d="M-527.5016587651643,-340.9749191984479 L-549.8462330506592,-352.5565825234256 " />
			<path d="M-527.5016587651643,-2241.797086993765 L-549.8462330506592,-2253.3787503187427 " />
			<path d="M-873.276874765386,-2358.1268319098385 L-814.8698546393772,-2388.4004202213314 " />
			<path d="M-814.8698546393772,-489.92390575765523 L-814.7615527380383,-489.8649451596915 L-814.6589628884134,-489.80330116080717 L-814.562332238436,-489.73912226679494 L-814.471893579806,-489.67256309023185 L-814.3878647871733,-489.6037839780042 L-814.3104482932594,-489.5329506250175 L-814.2398306011792,-489.46023367502363 L-814.176181835138,-489.38580830952424 L-814.1196553305884,-489.3098538257437 L-814.0703872648311,-489.23255320468627 L-814.0284963289516,-489.15409267031885 L-813.9940834418838,-489.07466124094105 L-813.9672315072869,-488.9944502738236 L-813.9480052138231,-488.91365300421194 L-813.9364508793176,-488.83246407980556 L-813.9325963391741,-488.7510790918347 " />
			<path d="M-814.8698546393772,-2390.746073552972 L-814.7615527380383,-2390.687112955008 L-814.6589628884134,-2390.625468956124 L-814.562332238436,-2390.5612900621118 L-814.471893579806,-2390.4947308855485 L-814.3878647871733,-2390.425951773321 L-814.3104482932594,-2390.3551184203343 L-814.2398306011792,-2390.2824014703406 L-814.176181835138,-2390.2079761048412 L-814.1196553305884,-2390.1320216210606 L-814.0703872648311,-2390.054721000003 L-814.0284963289516,-2389.9762604656357 L-813.9940834418838,-2389.8968290362577 L-813.9672315072869,-2389.8166180691405 L-813.9480052138231,-2389.735820799529 L-813.9364508793176,-2389.6546318751225 L-813.9325963391741,-2389.5732468871515 " />
			<path d="M-813.9325963391741,-2389.5732468871515 L-813.9364508793176,-2389.4918618991805 L-813.9480052138231,-2389.410672974774 L-813.9672315072869,-2389.3298757051625 L-813.9940834418838,-2389.2496647380453 L-814.0284963289516,-2389.1702333086673 L-814.0703872648311,-2389.0917727743 L-814.1196553305884,-2389.0144721532424 L-814.176181835138,-2388.938517669462 L-814.2398306011792,-2388.8640923039625 L-814.3104482932594,-2388.7913753539688 L-814.3878647871733,-2388.7205420009823 L-814.471893579806,-2388.6517628887545 L-814.562332238436,-2388.5852037121913 L-814.6589628884134,-2388.521024818179 L-814.7615527380383,-2388.459380819295 L-814.8698546393772,-2388.400420221331 " />
			<path d="M-873.276874765386,-2358.1268319098385 L-873.3735834078708,-2358.0787620717797 L-873.4740897017849,-2358.032832800938 L-873.578217431964,-2357.9891246239513 L-873.6857840338707,-2357.9477141732705 " />
			<path d="M-901.0841907506779,-470.0591541053199 L-901.0803362105344,-470.1405390932908 L-901.0687818760289,-470.22172801769716 L-901.0495555825651,-470.3025252873088 L-901.0227036479681,-470.3827362544263 L-900.9882907609003,-470.46216768380407 L-900.9463998250209,-470.5406282181715 L-900.8971317592635,-470.6179288392289 L-900.840605254714,-470.69388332300946 L-900.7769564886728,-470.76830868850885 L-900.7063387965926,-470.84102563850274 L-900.6289223026787,-470.9118589914894 L-900.544893510046,-470.98063810371707 L-900.4544548514159,-471.04719728028016 L-900.3578242014386,-471.1113761742924 L-900.2552343518137,-471.1730201731767 L-900.1469324504748,-471.23198077114046 " />
			<path d="M-900.445724908154,-2371.875437195322 L-900.3756883363848,-2371.922159078374 L-900.3024813124889,-2371.967556487157 L-900.2261969930345,-2372.011571653077 L-900.1469324504748,-2372.0541485664576 " />
			<path d="M-900.1469324504748,-471.2319807711405 L-841.739912324466,-501.5055690826329 " />
			<path d="M-900.1469324504748,-2372.054148566457 L-841.739912324466,-2402.32773687795 " />
			<path d="M-841.739912324466,-501.5055690826329 L-841.6261592801795,-501.56170423843116 L-841.5072291339927,-501.61487871755685 L-841.3834083990448,-501.6649644180321 L-841.2549953703318,-501.7118406790176 L-841.1222994060873,-501.75539457149466 L-840.9856401825123,-501.7955211703215 L-840.8453469236459,-501.83212380700684 L-840.7017576082374,-501.86511430259293 L-840.5552181555241,-501.89441318008625 L-840.4060815918833,-501.9199498559246 L-840.2547072003595,-501.9416628100192 L-840.1014596551206,-501.95949973396176 L-839.9467081429262,-501.9734176570402 L-839.7908254737237,-501.9833830497588 L-839.6341871825168,-501.98937190461356 L-839.477170624669,-501.9913697939286 L-839.3201540668213,-501.98937190461356 L-839.1635157756144,-501.9833830497588 L-839.0076331064118,-501.9734176570402 L-838.8528815942175,-501.95949973396176 L-838.6996340489786,-501.9416628100192 L-838.5482596574548,-501.9199498559246 L-838.399123093814,-501.89441318008625 L-838.2525836411007,-501.86511430259293 L-838.1089943256922,-501.83212380700684 L-837.9687010668258,-501.7955211703215 L-837.8320418432507,-501.75539457149466 L-837.6993458790063,-501.7118406790176 L-837.5709328502933,-501.6649644180321 L-837.4471121153454,-501.61487871755685 L-837.3281819691585,-501.56170423843116 L-837.2144289248721,-501.5055690826329 " />
			<path d="M-841.739912324466,-2402.32773687795 L-841.6261592801795,-2402.383872033748 L-841.5072291339927,-2402.4370465128736 L-841.3834083990448,-2402.487132213349 L-841.2549953703318,-2402.5340084743348 L-841.1222994060873,-2402.577562366812 L-840.9856401825123,-2402.6176889656385 L-840.8453469236459,-2402.654291602324 L-840.7017576082374,-2402.6872820979097 L-840.5552181555241,-2402.7165809754033 L-840.4060815918833,-2402.7421176512416 L-840.2547072003595,-2402.7638306053364 L-840.1014596551206,-2402.781667529279 L-839.9467081429262,-2402.795585452357 L-839.7908254737237,-2402.8055508450757 L-839.6341871825168,-2402.8115396999306 L-839.477170624669,-2402.8135375892457 L-839.3201540668213,-2402.8115396999306 L-839.1635157756144,-2402.8055508450757 L-839.0076331064118,-2402.795585452357 L-838.8528815942175,-2402.781667529279 L-838.6996340489786,-2402.7638306053364 L-838.5482596574548,-2402.7421176512416 L-838.399123093814,-2402.7165809754033 L-838.2525836411007,-2402.6872820979097 L-838.1089943256922,-2402.654291602324 L-837.9687010668258,-2402.6176889656385 L-837.8320418432507,-2402.577562366812 L-837.6993458790063,-2402.5340084743348 L-837.5709328502933,-2402.487132213349 L-837.4471121153454,-2402.4370465128736 L-837.3281819691585,-2402.383872033748 L-837.2144289248721,-2402.32773687795 " />
			<path d="M-814.8698546393772,-489.9239057576552 L-837.2144289248721,-501.5055690826329 " />
			<path d="M-814.8698546393772,-2390.746073552972 L-837.2144289248721,-2402.32773687795 " />
			<path d="M-1169.4600817440278,-2511.889104212282 L-1111.2887093200104,-2542.0405513557434 " />
			<path d="M-1111.288948497829,-643.5641612795367 L-1111.1806465877405,-643.50520065613 L-1111.078056730335,-643.4435566314187 L-1110.9814260736061,-643.3793777112825 L-1110.8909874093083,-643.312818508387 L-1110.8069586121414,-643.2440393697085 L-1110.7295421148717,-643.1732059902439 L-1110.6589244206525,-643.100489013837 L-1110.5952756537233,-643.0260636220822 L-1110.5387491495637,-642.9501091122969 L-1110.489481085496,-642.8728084655784 L-1110.4475901526218,-642.7943479059863 L-1110.4131772698843,-642.7149164519124 L-1110.3863253409456,-642.6347054607185 L-1110.3670990544658,-642.5539081677402 L-1110.3555447282604,-642.4727192207656 L-1110.3516901977177,-642.3913342111118 " />
			<path d="M-1111.288709319827,-2544.3862051038377 L-1111.1804074097383,-2544.327244480431 L-1111.0778175523328,-2544.26560045572 L-1110.981186895604,-2544.2014215355834 L-1110.8907482313061,-2544.134862332688 L-1110.8067194341393,-2544.0660831940095 L-1110.7293029368695,-2543.995249814545 L-1110.6586852426503,-2543.922532838138 L-1110.5950364757211,-2543.8481074463834 L-1110.5385099715616,-2543.772152936598 L-1110.4892419074938,-2543.6948522898797 L-1110.4473509746197,-2543.6163917302874 L-1110.412938091882,-2543.5369602762134 L-1110.3860861629435,-2543.4567492850197 L-1110.3668598764636,-2543.3759519920413 L-1110.3553055502582,-2543.2947630450667 L-1110.3514510197156,-2543.213378035413 " />
			<path d="M-1110.3514510197156,-2543.213378035413 L-1110.35530556946,-2543.1319930402265 L-1110.3668599122657,-2543.050804109559 L-1110.386086212713,-2542.970006834624 L-1110.4129381529685,-2542.8897958631014 L-1110.4473510443665,-2542.810364430215 L-1110.4892419832513,-2542.7319038932123 L-1110.5385100506985,-2542.6546032703677 L-1110.595036555638,-2542.5786487856217 L-1110.6586853207907,-2542.50422341995 L-1110.7293030107323,-2542.4315064705484 L-1110.8067195012902,-2542.360673118888 L-1110.8907482893887,-2542.291894008689 L-1110.981186942351,-2542.225334834824 L-1111.077817585577,-2542.1611559441467 L-1111.1804074274212,-2542.0995119492004 L-1111.2887093200104,-2542.040551355744 " />
			<path d="M-1197.503284610683,-623.6994141440707 L-1197.4994300609387,-623.7807991392572 L-1197.487875718133,-623.8619880699243 L-1197.4686494176856,-623.9427853448593 L-1197.44179747743,-624.0229963163821 L-1197.407384586032,-624.1024277492686 L-1197.3654936471473,-624.1808882862715 L-1197.3162255797001,-624.258188909116 L-1197.2596990747606,-624.3341433938622 L-1197.196050309608,-624.4085687595335 L-1197.1254326196663,-624.481285708935 L-1197.0480161291084,-624.5521190605956 L-1196.96398734101,-624.6208981707949 L-1196.8735486880475,-624.6874573446597 L-1196.7769180448217,-624.751636235337 L-1196.6743282029774,-624.8132802302831 L-1196.5660263103882,-624.8722408237398 " />
			<path d="M-1196.5660263103882,-624.8722408237397 L-1138.159006182012,-655.1458291340052 " />
			<path d="M-1196.2745807404262,-2525.8452230524335 L-1138.1587670040099,-2555.967872958306 " />
			<path d="M-1138.1590061820123,-655.1458291340053 L-1138.0452531377214,-655.2019642892996 L-1137.9263229915305,-655.255138766919 L-1137.8025022565787,-655.3052244648895 L-1137.674089227862,-655.3521007223778 L-1137.541393263614,-655.3956546103735 L-1137.404734040036,-655.4357812037457 L-1137.2644407811667,-655.4723838340163 L-1137.1208514657555,-655.5053743222429 L-1136.97431201304,-655.5346731914498 L-1136.8251754493972,-655.5602098580947 L-1136.6738010578717,-655.5819228021111 L-1136.5205535126315,-655.5997597151148 L-1136.365802000436,-655.6136776264202 L-1136.2099193312326,-655.6236430065597 L-1136.0532810400252,-655.6296318480601 L-1135.8962644821775,-655.6316297232772 L-1135.7392479243297,-655.6296318191548 L-1135.5826096331234,-655.6236429488191 L-1135.4267269639215,-655.613677539983 L-1135.2719754517282,-655.5997596001895 L-1135.118727906491,-655.5819226589743 L-1134.9673535149686,-655.5602096870915 L-1134.8182169513298,-655.5346729929921 L-1134.671677498619,-655.5053740968087 L-1134.528088183213,-655.4723835821488 L-1134.3877949243495,-655.4357809260516 L-1134.2511357007775,-655.3956543075218 L-1134.1184397365364,-655.3521003950981 L-1133.9900267078272,-655.3052241139703 L-1133.866205972883,-655.2551383932056 L-1133.7472758267006,-655.2019638936923 L-1133.6335227824184,-655.1458287174572 " />
			<path d="M-1138.15876700401,-2555.9678729583065 L-1138.0450139597192,-2556.0240081136008 L-1137.9260838135283,-2556.07718259122 L-1137.8022630785765,-2556.127268289191 L-1137.6738500498598,-2556.174144546679 L-1137.5411540856119,-2556.2176984346747 L-1137.4044948620337,-2556.257825028047 L-1137.2642016031646,-2556.2944276583175 L-1137.1206122877534,-2556.3274181465445 L-1136.9740728350378,-2556.356717015751 L-1136.824936271395,-2556.382253682396 L-1136.6735618798696,-2556.4039666264125 L-1136.5203143346293,-2556.421803539416 L-1136.3655628224337,-2556.4357214507213 L-1136.2096801532305,-2556.445686830861 L-1136.053041862023,-2556.4516756723615 L-1135.8960253041753,-2556.4536735475785 L-1135.7390087463275,-2556.4516756434564 L-1135.5823704551212,-2556.4456867731205 L-1135.4264877859193,-2556.4357213642843 L-1135.271736273726,-2556.421803424491 L-1135.1184887284887,-2556.403966483276 L-1134.9671143369665,-2556.3822535113927 L-1134.8179777733276,-2556.3567168172935 L-1134.6714383206167,-2556.3274179211103 L-1134.5278490052108,-2556.2944274064503 L-1134.3875557463473,-2556.257824750353 L-1134.2508965227753,-2556.217698131823 L-1134.1182005585342,-2556.1741442193993 L-1133.989787529825,-2556.1272679382714 L-1133.865966794881,-2556.077182217507 L-1133.7470366486984,-2556.0240077179938 L-1133.6332836044162,-2555.9678725417584 " />
			<path d="M-1111.288948497829,-643.5641612795367 L-1133.6335227824184,-655.1458287174572 " />
			<path d="M-1111.2887093198271,-2544.3862051038377 L-1133.6332836044164,-2555.967872541758 " />
			<path d="M-1136.6865022192803,-655.2503104702768 L-1110.6124188578783,-641.735564065142 " />
			<path d="M-901.084190750678,-533.1326717472502 L-814.193326403866,-488.09530723883984 " />
			<path d="M-613.7159948764652,-384.1836851880429 L-526.8251305296532,-339.1463206796326 " />
			<path d="M-326.34779900225226,-235.23469862883556 L-239.45693465544025,-190.19733412042513 " />
			<path d="M-38.97963950685495,-86.2857309255343 L47.911232081836886,-41.24836266350507 " />
			<path d="M-38.71119536085968,-1923.3692202923216 L-14.907675369249489,-1910.980223061329 " />
			<path d="M48.17169281868566,-1942.7264448400083 L48.171692916792956,-1942.0384806739348 " />
			<path d="M-38.97990157945427,-1924.034514262278 L-38.979901504523674,-1923.5090735438994 " />
			<path d="M-239.1962045907485,-2091.675273768737 L-239.1962045907485,-2027.7154776979503 " />
			<path d="M-526.5644004649614,-2240.6242603279443 L-526.5644004649614,-2177.281751266556 " />
			<path d="M-813.9325963391741,-2389.5732468871515 L-813.9325963391741,-2326.8480248351607 " />
			<path d="M-1110.351451019716,-2543.213378035413 L-1110.3514588322307,-2481.1248909429783 " />

       </g>

       <!-- solid lines -->
       <g  stroke="rgb(0,0,0)" fill="none">
			<path d="M-47.23473298326138,8.234220549614975 L47.23473298326138,-40.731292748392164 " />
			<path d="M-1232.62854096439,-606.1803490071154 L-1197.5032845242265,-624.3865089945787 " />
			<path d="M49.49747468305833,-39.167523860631455 L49.49419036053031,-39.313213344757884 L49.48434692719798,-39.45507523133289 L49.46797295813895,-39.59269770119922 L49.44511598630448,-39.72568124205003 L49.415842364533255,-39.85363980819648 L49.38023707293191,-39.97620194124236 L49.33840347218129,-40.09301184841228 L49.31518830926584,-40.14915307077936 L49.290463003484675,-40.203730435403415 L49.26424550222827,-40.256704326140415 L49.23655483602903,-40.30803629076206 L49.207411104747536,-40.357689068867145 L49.17683546298265,-40.40562661892779 L49.14485010471601,-40.45181414445098 L49.111478247202015,-40.49621811923633 L49.07674411411512,-40.53880631171179 L49.04067291796657,-40.57954780832963 L49.00329084180332,-40.61841303600568 L48.96462502020257,-40.655373783585596 L48.9247035195755,-40.69040322232254 L48.8835553177947,-40.723475925351366 L48.84121028315996,-40.75456788614529 L48.79769915271769,-40.783656535941496 L48.753053509949844,-40.8107207601232 L48.70730576184833,-40.83574091354612 " />
			<path d="M48.707305761848325,-40.83574091354612 L48.62979780836119,-40.87238051870384 L48.54955384329274,-40.90337638977848 L48.46673124170814,-40.92866773743558 L48.3814924359138,-40.94820496009474 L48.29400459689391,-40.96194974120859 L48.20443930645348,-40.96987512440948 L48.11297222071079,-40.971965566376525 L48.0197827255993,-40.9682169673193 L47.92505358505464,-40.95863667901834 L47.82897058257658,-40.94324349040679 L47.73172215686906,-40.92206759072144 L47.63349903227277,-40.8951505102953 L47.53449384471518,-40.86254503910806 L47.43490076391148,-40.82431512325398 L47.3349151125575,-40.780535739530286 L47.23473298326139,-40.731292748392164 " />
			<path d="M-47.234732983261374,8.234220549614971 L-47.345760456074075,8.295064775688983 L-47.45652045397992,8.362355121079098 L-47.56674614644251,8.435929477449328 L-47.676171990114085,8.51561059773083 L-47.784534368552656,8.601206523125603 L-47.89157222729715,8.692511045552049 L-47.99702770277043,8.789304204418317 L-48.10064674349529,8.891352816526615 L-48.20217972212666,8.998411037831971 L-48.30138203682577,9.110220955702069 L-48.39801470052742,9.226513210251369 L-48.49184491668073,9.347007643252661 L-48.58264664007644,9.471413973062782 L-48.67020112140959,9.599432493936508 L-48.75429743426578,9.730754798043959 L-48.834732983261375,9.865064518452067 L-48.91131399211352,10.002038091280223 L-48.983855970464184,10.141345535194015 L-49.0521841583336,10.282651246359164 L-49.11613394713235,10.425614806940557 L-49.17555127621787,10.569891805198623 L-49.23029300404005,10.715134665207385 L-49.28022725298176,10.860993484195312 L-49.325233727063576,11.007116875491738 L-49.36520400174734,11.153152815048132 L-49.40004178514034,11.298749489494865 L-49.42966314997096,11.443556143690431 L-49.45399673577681,11.587223925721313 L-49.4729839208183,11.729406727316784 L-49.486578963303586,11.869762017654054 L-49.49474911158454,12.007951668545031 L-49.49747468305833,12.143642769016713 " />
			<path d="M-1232.62854096439,-606.1803490071154 L-1232.7395684372027,-606.1195047810414 L-1232.8503284351084,-606.0522144356513 L-1232.960554127571,-605.9786400792811 L-1233.0699799712427,-605.8989589589996 L-1233.178342349681,-605.8133630336048 L-1233.2853802084257,-605.7220585111784 L-1233.390835683899,-605.6252653523121 L-1233.494454724624,-605.5232167402038 L-1233.595987703255,-605.4161585188984 L-1233.6951900179542,-605.3043486010283 L-1233.791822681656,-605.188056346479 L-1233.8856528978092,-605.0675619134778 L-1233.976454621205,-604.9431555836676 L-1234.0640091025382,-604.815137062794 L-1234.1481054153944,-604.6838147586865 L-1234.2285409643898,-604.5495050382783 L-1234.305121973242,-604.4125314654502 L-1234.3776639515927,-604.2732240215364 L-1234.445992139462,-604.1319183103712 L-1234.5099419282608,-603.9889547497899 L-1234.5693592573464,-603.8446777515318 L-1234.6241009851685,-603.6994348915231 L-1234.6740352341103,-603.5535760725351 L-1234.7190417081922,-603.4074526812387 L-1234.7590119828758,-603.2614167416823 L-1234.793849766269,-603.1158200672355 L-1234.8234711310995,-602.9710134130399 L-1234.8478047169053,-602.827345631009 L-1234.8667919019467,-602.6851628294137 L-1234.880386944432,-602.5448075390764 L-1234.888557092713,-602.4066178881853 L-1234.891282664187,-602.2709267877137 " />
			<path d="M-49.49747468305833,12.143642769016738 L-49.49747468305833,39.167523860631455 " />
			<path d="M-1234.8912826641867,-602.2709267877136 L-1234.8912826641867,-575.247045696099 " />
			<path d="M-49.49747468305833,39.167523860631455 L-49.49419036053031,39.313213344757884 L-49.48434692719798,39.45507523133289 L-49.46797295813896,39.59269770119922 L-49.44511598630448,39.72568124205003 L-49.415842364533255,39.85363980819648 L-49.38023707293191,39.97620194124236 L-49.33840347218129,40.09301184841228 L-49.31518830926584,40.14915307077936 L-49.290463003484675,40.203730435403415 L-49.26424550222827,40.256704326140415 L-49.23655483602903,40.30803629076206 L-49.207411104747536,40.357689068867145 L-49.17683546298265,40.40562661892779 L-49.144850104716014,40.45181414445098 L-49.111478247202015,40.49621811923633 L-49.076744114115115,40.538806311711795 L-49.04067291796657,40.57954780832963 L-49.00329084180332,40.61841303600568 L-48.96462502020257,40.655373783585596 L-48.9247035195755,40.69040322232254 L-48.8835553177947,40.723475925351366 L-48.84121028315995,40.75456788614529 L-48.79769915271769,40.783656535941496 L-48.753053509949844,40.8107207601232 L-48.70730576184834,40.83574091354611 " />
			<path d="M-48.707305761848325,40.83574091354612 L-48.62979780836119,40.87238051870384 L-48.54955384329274,40.90337638977848 L-48.46673124170814,40.92866773743558 L-48.3814924359138,40.94820496009474 L-48.29400459689391,40.96194974120859 L-48.20443930645348,40.96987512440948 L-48.11297222071079,40.971965566376525 L-48.0197827255993,40.9682169673193 L-47.92505358505464,40.95863667901834 L-47.82897058257658,40.94324349040679 L-47.73172215686906,40.92206759072144 L-47.63349903227277,40.8951505102953 L-47.53449384471518,40.86254503910806 L-47.43490076391148,40.82431512325398 L-47.334915112557496,40.780535739530286 L-47.234732983261374,40.731292748392164 " />
			<path d="M-1234.891282664187,-575.247045696099 L-1234.8879983416589,-575.1013562119725 L-1234.8781549083265,-574.9594943253975 L-1234.8617809392674,-574.8218718555312 L-1234.838923967433,-574.6888883146804 L-1234.8096503456618,-574.5609297485339 L-1234.7740450540605,-574.438367615488 L-1234.73221145331,-574.3215577083181 L-1234.7089962903945,-574.265416485951 L-1234.6842709846132,-574.210839121327 L-1234.6580534833568,-574.15786523059 L-1234.6303628171577,-574.1065332659683 L-1234.601219085876,-574.0568804878633 L-1234.5706434441113,-574.0089429378027 L-1234.5386580858446,-573.9627554122794 L-1234.5052862283305,-573.918351437494 L-1234.4705520952436,-573.8757632450187 L-1234.4344808990952,-573.8350217484008 L-1234.3970988229319,-573.7961565207247 L-1234.3584330013312,-573.7591957731448 L-1234.318511500704,-573.7241663344079 L-1234.2773632989233,-573.6910936313791 L-1234.2350182642886,-573.6600016705851 L-1234.1915071338462,-573.630913020789 L-1234.1468614910784,-573.6038487966072 L-1234.1011137429768,-573.5788286431844 " />
			<path d="M-47.23473298326138,40.731292748392164 L47.23473298326138,-8.234220549614975 " />
			<path d="M47.234732983261374,-8.234220549614971 L47.34576045607408,-8.295064775688983 L47.45652045397992,-8.362355121079098 L47.56674614644251,-8.435929477449328 L47.676171990114085,-8.51561059773083 L47.784534368552656,-8.601206523125601 L47.89157222729715,-8.692511045552049 L47.99702770277043,-8.789304204418315 L48.10064674349529,-8.891352816526613 L48.20217972212666,-8.998411037831971 L48.30138203682577,-9.11022095570207 L48.39801470052742,-9.226513210251369 L48.49184491668074,-9.347007643252663 L48.58264664007645,-9.471413973062784 L48.67020112140959,-9.59943249393651 L48.75429743426578,-9.73075479804396 L48.834732983261375,-9.865064518452067 L48.91131399211352,-10.002038091280221 L48.983855970464184,-10.141345535194013 L49.0521841583336,-10.282651246359162 L49.11613394713235,-10.425614806940557 L49.17555127621787,-10.569891805198623 L49.23029300404005,-10.715134665207385 L49.28022725298176,-10.860993484195314 L49.325233727063576,-11.00711687549174 L49.36520400174734,-11.153152815048134 L49.40004178514034,-11.298749489494867 L49.42966314997096,-11.443556143690435 L49.45399673577681,-11.587223925721315 L49.4729839208183,-11.72940672731678 L49.486578963303586,-11.869762017654052 L49.49474911158454,-12.007951668545031 L49.49747468305833,-12.143642769016726 " />
			<path d="M49.49747468305833,-39.167523860631455 L49.49747468305833,-12.143642769016738 " />
			<path d="M-11.76907603523864,-1942.6066925195896 L46.689615604158725,-1973.1505351503442 " />
			<path d="M-1196.1071651574016,-2559.0181019189126 L-1137.6484735180043,-2589.5619445496673 " />
			<path d="M48.96161277700371,-1971.6033864318256 L48.957977039533,-1971.7478579385922 L48.947856871637605,-1971.8885216570575 L48.93128129604949,-1972.0249741902182 L48.90829784839184,-1972.1568242179562 L48.87897244085584,-1972.2836936192705 L48.84338917317696,-1972.4052185566566 L48.801650091452764,-1972.5210505195248 L48.753874895494,-1972.6308573236613 L48.72776590459934,-1972.6834021833258 L48.700200595548075,-1972.734324063871 L48.67119873491008,-1972.7835864501644 L48.64078111937956,-1972.8311540170662 L48.608969560862235,-1972.8769926547595 L48.57578687083437,-1972.9210694932115 L48.5412568439851,-1972.9633529257412 L48.50540424115372,-1973.0038126316872 L48.46825477157412,-1973.0424195981473 L48.4298350744392,-1973.079146140785 L48.39017269979836,-1973.1139659236803 L48.34929608880195,-1973.1468539782152 L48.30723455330656,-1973.1777867209782 L48.26401825485608,-1973.2067419706757 L48.21967818305343,-1973.233698964037 L48.17424613333847,-1973.2586383707044 " />
			<path d="M48.174246133338464,-1973.2586383707044 L48.096215933488686,-1973.2956607088345 L48.01540062138771,-1973.3269598135264 L47.93196104332368,-1973.3524733903375 L47.846063268647406,-1973.3721506597308 L47.75787825924543,-1973.3859524581412 L47.66758152927544,-1973.3938513159223 L47.575352795841425,-1973.3958315120192 L47.481375621303634,-1973.391889105258 L47.3858370479354,-1973.3820319421902 L47.28892722565388,-1973.3662796414753 L47.1908390335657,-1973.3446635548341 L47.09176769608068,-1973.3172267046493 L46.99191039435772,-1973.2840236983388 L46.89146587385616,-1973.2451206196704 L46.79063404877382,-1973.2005948972358 L46.68961560415873,-1973.1505351503447 " />
			<path d="M-1135.40064992306,-2588.392021769199 L-1135.4176023545845,-2588.503481714815 L-1135.4389804402408,-2588.611613922604 L-1135.4647416313383,-2588.716203177606 L-1135.494834655514,-2588.8170413163803 L-1135.529199618782,-2588.9139276413116 L-1135.5677681247369,-2589.006669320061 L-1135.610463410686,-2589.095081769355 L-1135.6572005004268,-2589.178989022364 L-1135.7078863733775,-2589.258224078926 L-1135.7624201497129,-2589.3326292379274 L-1135.8206932911467,-2589.402056411174 L-1135.8825898169534,-2589.4663674181293 L-1135.9479865348058,-2589.525434260937 L-1136.0167532859616,-2589.5791393791724 L-1136.0887532043203,-2589.6273758838224 L-1136.1638429888249,-2589.670047770027 " />
			<path d="M-1136.1638429888249,-2589.670047770027 L-1136.2418731886746,-2589.7070701081575 L-1136.3226885007755,-2589.738369212849 L-1136.4061280788396,-2589.7638827896603 L-1136.4920258535158,-2589.783560059054 L-1136.5802108629177,-2589.7973618574642 L-1136.6705075928878,-2589.805260715245 L-1136.7627363263218,-2589.807240911342 L-1136.8567135008595,-2589.8032985045807 L-1136.9522520742278,-2589.7934413415132 L-1137.0491618965093,-2589.777689040798 L-1137.1472500885975,-2589.756072954157 L-1137.2463214260824,-2589.728636103972 L-1137.3461787278054,-2589.6954330976614 L-1137.446623248307,-2589.656530018993 L-1137.5474550733893,-2589.6120042965586 L-1137.6484735180045,-2589.5619445496673 " />
			<path d="M-11.76907603523864,-1942.6066925195898 L-11.880192994454067,-1942.5453419680914 L-11.991024788453073,-1942.477561333594 L-12.101304413736203,-1942.4035139055832 L-12.210766197026793,-1942.3233780707985 L-12.319146435301175,-1942.2373468834855 L-12.426184031072362,-1942.1456276003096 L-12.53162112139675,-1942.0484411810576 L-12.635203699088557,-1941.946021756326 L-12.736682224645353,-1941.83861606348 L-12.835812227410605,-1941.7264828522411 L-12.93235489452489,-1941.609892261337 L-13.02607764624699,-1941.4891251677134 L-13.116754696258862,-1941.3644725098768 L-13.204167595604659,-1941.2362345869979 L-13.288105758953389,-1941.1047203354656 L-13.36836697191743,-1940.9702465846308 L-13.4447578782047,-1940.833137293538 L-13.5170944454309,-1940.6937227704786 L-13.585202408469646,-1940.5523388772503 L-13.648917689272428,-1940.4093262200352 L-13.708086792146991,-1940.2650293288514 L-13.762567173541905,-1940.1197958275482 L-13.812227585446477,-1939.9739755963515 L-13.856948391578687,-1939.8279199289707 L-13.896621855599484,-1939.6819806863011 L-13.931152400659059,-1939.5365094487613 L-13.96045683964984,-1939.3918566693044 L-13.984464575611538,-1939.248370829146 L-14.003117771805387,-1939.1063975982431 L-14.016371491047932,-1938.9662790025443 L-14.024193803968629,-1938.8283526000193 L-14.026565865930499,-1938.692950667453 " />
			<path d="M-1196.1071651574016,-2559.018101918912 L-1196.218282116617,-2558.9567513674137 L-1196.3291139106161,-2558.8889707329163 L-1196.4393935358992,-2558.8149233049057 L-1196.5488553191897,-2558.7347874701213 L-1196.6572355574642,-2558.648756282808 L-1196.7642731532353,-2558.557036999632 L-1196.8697102435597,-2558.45985058038 L-1196.9732928212516,-2558.3574311556486 L-1197.0747713468083,-2558.2500254628026 L-1197.1739013495735,-2558.1378922515637 L-1197.2704440166879,-2558.02130166066 L-1197.3641667684099,-2557.900534567036 L-1197.4548438184218,-2557.775881909199 L-1197.5422567177677,-2557.6476439863204 L-1197.6261948811164,-2557.516129734788 L-1197.7064560940803,-2557.3816559839534 L-1197.7828470003676,-2557.2445466928607 L-1197.855183567594,-2557.1051321698014 L-1197.9232915306327,-2556.963748276573 L-1197.9870068114353,-2556.820735619358 L-1198.04617591431,-2556.6764387281737 L-1198.1006562957048,-2556.531205226871 L-1198.1503167076094,-2556.385384995674 L-1198.1950375137417,-2556.239329328293 L-1198.2347109777625,-2556.0933900856235 L-1198.269241522822,-2555.947918848084 L-1198.2985459618128,-2555.803266068627 L-1198.3225536977745,-2555.6597802284687 L-1198.3412068939683,-2555.5178069975655 L-1198.354460613211,-2555.3776884018666 L-1198.3622829261317,-2555.2397619993417 L-1198.3646549880934,-2555.1043600667754 " />
			<path d="M-14.026565865930499,-1938.692950667453 L-13.954935864049423,-1911.7298034748399 " />
			<path d="M-1198.3646549880937,-2555.1043600667754 L-1198.2930249862125,-2528.141212874162 " />
			<path d="M-13.954935864049427,-1911.7298034748396 L-13.95130012657872,-1911.585331968073 L-13.941179958683325,-1911.4446682496077 L-13.924604383095213,-1911.308215716447 L-13.901620935437561,-1911.176365688709 L-13.87229552790156,-1911.0494962873947 L-13.836712260222676,-1910.9279713500086 L-13.794973178498484,-1910.8121393871404 L-13.74719798253972,-1910.702332583004 L-13.721088991645052,-1910.6497877233394 L-13.6935236825938,-1910.598865842794 L-13.664521821955796,-1910.5496034565008 L-13.63410420642528,-1910.502035889599 L-13.602292647907957,-1910.4561972519057 L-13.569109957880091,-1910.4121204134537 L-13.534579931030823,-1910.369836980924 L-13.49872732819944,-1910.329377274978 L-13.461577858619838,-1910.290770308518 L-13.423158161484913,-1910.2540437658802 L-13.383495786844083,-1910.2192239829849 L-13.342619175847672,-1910.18633592845 L-13.300557640352277,-1910.155403185687 L-13.257341341901803,-1910.1264479359895 L-13.213001270099152,-1910.099490942628 L-13.167569220384198,-1910.0745515359608 " />
			<path d="M-13.167569220384182,-1910.0745515359608 L-13.089539020534408,-1910.0375291978307 L-13.008723708433429,-1910.0062300931388 L-12.925284130369398,-1909.9807165163277 L-12.839386355693128,-1909.9610392469344 L-12.751201346291147,-1909.947237448524 L-12.660904616321158,-1909.9393385907429 L-12.568675882887142,-1909.937358394646 L-12.47469870834935,-1909.9413008014071 L-12.379160134981113,-1909.951157964475 L-12.282250312699597,-1909.9669102651899 L-12.184162120611422,-1909.988526351831 L-12.085090783126402,-1910.0159632020159 L-11.985233481403434,-1910.0491662083264 L-11.884788960901883,-1910.0880692869948 L-11.783957135819536,-1910.1325950094295 L-11.682938691204445,-1910.1826547563205 " />
			<path d="M-1198.2930249862125,-2528.1412128741626 L-1198.2893892487418,-2527.996741367396 L-1198.2792690808465,-2527.856077648931 L-1198.2626935052583,-2527.71962511577 L-1198.2397100576006,-2527.5877750880322 L-1198.2103846500645,-2527.460905686718 L-1198.1748013823858,-2527.3393807493317 L-1198.1330623006615,-2527.2235487864637 L-1198.0852871047027,-2527.113741982327 L-1198.059178113808,-2527.0611971226626 L-1198.0316128047568,-2527.0102752421176 L-1198.002610944119,-2526.9610128558243 L-1197.9721933285882,-2526.9134452889225 L-1197.940381770071,-2526.867606651229 L-1197.907199080043,-2526.823529812777 L-1197.872669053194,-2526.781246380247 L-1197.8368164503624,-2526.7407866743015 L-1197.7996669807828,-2526.702179707841 L-1197.761247283648,-2526.6654531652034 L-1197.721584909007,-2526.630633382308 L-1197.6807082980108,-2526.5977453277733 L-1197.6386467625152,-2526.56681258501 L-1197.5954304640647,-2526.5378573353128 L-1197.5510903922623,-2526.5109003419516 L-1197.5056583425473,-2526.4859609352843 " />
			<path d="M46.775752948192924,-1940.7264973870754 L46.886869907408354,-1940.7878479385738 L46.99770170140736,-1940.8556285730713 L47.10798132669049,-1940.929676001082 L47.217443109981076,-1941.0098118358667 L47.32582334825546,-1941.0958430231797 L47.43286094402665,-1941.1875623063556 L47.53829803435104,-1941.2847487256076 L47.64188061204284,-1941.3871681503392 L47.74335913759964,-1941.4945738431852 L47.84248914036489,-1941.606707054424 L47.939031807479175,-1941.723297645328 L48.03275455920127,-1941.8440647389518 L48.12343160921315,-1941.9687173967884 L48.21084450855894,-1942.0969553196674 L48.294782671907676,-1942.2284695711996 L48.375043884871715,-1942.3629433220344 L48.45143479115899,-1942.5000526131273 L48.52377135838519,-1942.6394671361866 L48.59187932142393,-1942.7808510294149 L48.655594602226714,-1942.92386368663 L48.71476370510128,-1943.0681605778138 L48.769244086496194,-1943.213394079117 L48.81890449840076,-1943.3592143103137 L48.863625304532974,-1943.5052699776945 L48.90329876855377,-1943.651209220364 L48.93782931361334,-1943.796680457904 L48.96713375260413,-1943.9413332373608 L48.99114148856582,-1944.0848190775191 L49.009794684759676,-1944.226792308422 L49.02304840400222,-1944.366910904121 L49.03087071692291,-1944.5048373066459 L49.033242778884784,-1944.6402392392122 " />
			<path d="M48.96161277700371,-1971.6033864318254 L49.033242778884784,-1944.6402392392122 " />
			<path d="M-11.172314517829996,-10.457721652657526 L47.23470558653536,-40.73130997901103 " />
			<path d="M-11.17258558504426,-1911.2800298637687 L47.2344345193211,-1941.5536181901223 " />
			<path d="M47.234705584858425,-43.07696283895632 L47.34300747636157,-43.018002269814154 L47.44559731724594,-42.956358300183 L47.54222795964532,-42.892179435757264 L47.63266661192189,-42.82562028901381 L47.71669539948165,-42.756841206737015 L47.79411188965321,-42.68600788372939 L47.86472957936578,-42.61329096363836 L47.92837834445132,-42.5388656278609 L47.98490484948847,-42.4629111735162 L48.034172917200976,-42.385610581503336 L48.07606385652055,-42.30715007568434 L48.110476748524064,-42.22771867425466 L48.137328689555986,-42.14750773438188 L48.15655499095053,-42.066710491209626 L48.16810933487229,-41.98552159233724 L48.17196388589993,-41.90413662889682 " />
			<path d="M48.17196388589993,-41.904136628896815 L48.16810935664067,-41.82275164912748 L48.15655503155139,-41.74156273184026 L48.137328746018476,-41.660765468284815 L48.11047681785648,-41.5805545061825 L48.0760639357244,-41.50112308080286 L48.03417300328503,-41.42266254944284 L47.984904939482725,-41.3453619304302 L47.92837843542079,-41.26940744776174 L47.86472966842413,-41.19498208247332 L47.794111973976136,-41.12226513182235 L47.71669547631997,-41.05143177734504 L47.63266667861428,-40.982652662828514 L47.5422280136307,-40.91609348321503 L47.44559735607546,-40.85191458542818 L47.343007497710055,-40.7902705820831 L47.23470558653538,-40.73130997901103 " />
			<path d="M-11.172314517829996,-10.457721652657531 L-11.286067562076356,-10.401586496262137 L-11.404997708225133,-10.348412015403062 L-11.528818443137204,-10.298326312062228 L-11.657231471816749,-10.251450047085973 L-11.789927436030029,-10.2078961495025 L-11.926586659576456,-10.167769544465958 L-12.066879918416577,-10.131166900482556 L-12.210469233801607,-10.098176396527663 L-12.357008686493845,-10.068877509614934 L-12.506145250116413,-10.04334082332922 L-12.657519641624722,-10.021627857784534 L-12.810767186850804,-10.003790921416703 L-12.965518699035304,-9.989872984967771 L-13.121401368230742,-9.979907577965706 L-13.278039659433315,-9.973918707948847 L-13.435056217279623,-9.971920802629626 L-13.592072775128788,-9.973918675136952 L-13.748711066339922,-9.979907512420962 L-13.904593735549609,-9.98987288684808 L-14.059345247754013,-10.003790790958446 L-14.212592793005602,-10.021627695301994 L-14.363967184544958,-10.043340629213834 L-14.513103748204037,-10.068877284334341 L-14.659643200938165,-10.098176140624584 L-14.803232516370363,-10.131166614573486 L-14.94352577526282,-10.167769229239674 L-15.080184998866622,-10.207895805718412 L-15.212880963142176,-10.251449675572285 L-15.341293991888747,-10.298325913713953 L-15.465114726872432,-10.348411591179852 L-15.58404487309724,-10.401586047185985 L-15.697797917423845,-10.457721179810289 " />
			<path d="M-13.79194765795651,-1910.8045610115214 L-13.925497087678984,-1910.8138030771522 L-14.058177548408446,-1910.825950842424 L-14.18975382531551,-1910.8409827718783 L-14.319992661058771,-1910.8588722170343 L-14.44866316930153,-1910.879587463631 L-14.575537244025172,-1910.903091787849 L-14.700389963913652,-1910.9293435214163 L-14.822999991092153,-1910.9582961254753 L-14.94314996351304,-1910.9898982730879 L-15.060626880293517,-1911.0240939402263 L-15.17522247932185,-1911.0608225050935 L-15.2867336064627,-1911.1000188555915 L-15.39496257570713,-1911.1416135047527 L-15.499717519628717,-1911.1855327139256 L-15.600812729524558,-1911.2316986234966 L-15.698068984638105,-1911.2800293909218 " />
			<path d="M-15.697797917423872,-10.457721179810296 L-38.04237221119851,-22.039379841106975 " />
			<path d="M-15.698068984638128,-1911.280029390922 L-38.04264327841277,-1922.8616880522188 " />
			<path d="M-38.04237221119851,-22.039379841106975 L-38.15067410270166,-22.098340410249143 L-38.25326394358603,-22.159984379880296 L-38.349894585985396,-22.224163244306027 L-38.44033323826198,-22.29072239104948 L-38.52436202582174,-22.35950147332628 L-38.601778515993296,-22.43033479633391 L-38.672396205705866,-22.503051716424928 L-38.736044970791404,-22.577477052202394 L-38.79257147582856,-22.653431506547093 L-38.84183954354106,-22.730732098559955 L-38.883730482860635,-22.80919260437895 L-38.91814337486415,-22.888624005808634 L-38.94499531589607,-22.96883494568141 L-38.96422161729062,-23.04963218885367 L-38.97577596121238,-23.130821087726048 L-38.979630512240014,-23.212206051166465 " />
			<path d="M-298.54048301696037,-159.40669099610702 L-240.1334628909515,-189.68027930759948 " />
			<path d="M-239.19620459074844,-190.85310597342004 L-239.20005913089187,-190.77172098544918 L-239.2116134653974,-190.6905320610428 L-239.23083975886112,-190.60973479143112 L-239.2576916934581,-190.52952382431369 L-239.2921045805259,-190.45009239493587 L-239.33399551640537,-190.37163186056844 L-239.38326358216275,-190.29433123951105 L-239.43979008671232,-190.2183767557305 L-239.50343885275342,-190.1439513902311 L-239.5740565448337,-190.0712344402372 L-239.65147303874755,-190.0004010872506 L-239.73550183138028,-189.9316219750229 L-239.82594049001037,-189.8650627984598 L-239.92257113998767,-189.80088390444755 L-240.02516098961254,-189.73923990556324 L-240.13346289095145,-189.6802793075995 " />
			<path d="M-298.5404830169603,-159.40669099610705 L-298.6542360612468,-159.35055584030877 L-298.7731662074336,-159.29738136118314 L-298.8969869423815,-159.24729566070786 L-299.02539997109454,-159.2004193997224 L-299.15809593533896,-159.1568655072453 L-299.2947551589141,-159.11673890841845 L-299.43504841778037,-159.0801362717331 L-299.57863773318894,-159.04714577614703 L-299.72517718590217,-159.01784689865374 L-299.874313749543,-158.99231022281535 L-300.0256881410668,-158.97059726872075 L-300.17893568630564,-158.95276034477817 L-300.3336871985001,-158.93884242169972 L-300.48956986770264,-158.92887702898116 L-300.64620815890953,-158.9228881741264 L-300.80322471675726,-158.92089028481138 L-300.960241274605,-158.9228881741264 L-301.11687956581187,-158.92887702898116 L-301.2727622350144,-158.93884242169972 L-301.4275137472089,-158.95276034477817 L-301.5807612924477,-158.97059726872075 L-301.73213568397153,-158.99231022281535 L-301.88127224761234,-159.01784689865374 L-302.02781170032557,-159.04714577614703 L-302.17140101573415,-159.0801362717331 L-302.3116942746004,-159.11673890841845 L-302.44835349817555,-159.1568655072453 L-302.58104946241997,-159.20041939972236 L-302.709462491133,-159.24729566070786 L-302.83328322608094,-159.29738136118314 L-302.9522133722677,-159.35055584030877 L-303.0659664165542,-159.40669099610705 " />
			<path d="M-300.73295813950386,-2059.7434579961796 L-300.894411792862,-2059.7437316360347 L-301.0556333149057,-2059.7482258630184 L-301.2162122904159,-2059.7569292363564 L-301.3757399398786,-2059.769819600217 L-301.5338101600987,-2059.786864140113 L-301.69002055800087,-2059.808019466437 L-301.8439734749855,-2059.8332317249165 L-301.9952769992324,-2059.8624367337065 L-302.143545963375,-2059.895560146778 L-302.28840292500604,-2059.932517643174 L-302.4294791275171,-2059.9732151416665 L-302.56641543882813,-2060.0175490402507 L-302.6988632656155,-2060.065406479884 L-302.82648544071213,-2060.116665631785 L-302.9489570814206,-2060.171196007568 L-303.0659664165542,-2060.228858791424 " />
			<path d="M-303.0659664165542,-159.40669099610705 L-325.4105407020491,-170.98835432108478 " />
			<path d="M-303.0659664165542,-2060.228858791424 L-325.4105407020491,-2071.810522116402 " />
			<path d="M-325.41054070204916,-170.98835432108478 L-325.51884260338807,-171.04731491904852 L-325.62143245301297,-171.10895891793282 L-325.7180631029903,-171.17313781194508 L-325.80850176162033,-171.23969698850817 L-325.8925305542531,-171.30847610073587 L-325.96994704816694,-171.37930945372247 L-326.04056474024725,-171.4520264037164 L-326.1042135062883,-171.52645176921578 L-326.16074001083786,-171.60240625299633 L-326.2100080765953,-171.67970687405372 L-326.2518990124748,-171.75816740842114 L-326.28631189954257,-171.83759883779896 L-326.3131638341395,-171.9178098049164 L-326.3323901276032,-171.99860707452808 L-326.34394446210877,-172.07979599893446 L-326.3477990022522,-172.1611809869053 " />
			<path d="M-325.41054070204916,-2071.810522116402 L-325.51884260338807,-2071.869482714366 L-325.62143245301297,-2071.93112671325 L-325.7180631029903,-2071.9953056072623 L-325.80850176162033,-2072.0618647838255 L-325.8925305542531,-2072.1306438960532 L-325.96994704816694,-2072.2014772490397 L-326.04056474024725,-2072.2741941990334 L-326.1042135062883,-2072.348619564533 L-326.16074001083786,-2072.4245740483134 L-326.2100080765953,-2072.501874669371 L-326.2518990124748,-2072.5803352037383 L-326.28631189954257,-2072.6597666331163 L-326.3131638341395,-2072.7399776002335 L-326.3323901276032,-2072.820774869845 L-326.34394446210877,-2072.9019637942515 L-326.3477990022522,-2072.9833487822225 " />
			<path d="M-326.3477990022522,-2072.9833487822225 L-326.3466353194137,-2073.028075462657 L-326.3431451172467,-2073.072769613297 " />
			<path d="M-585.9086788911732,-308.3556775553144 L-527.5016587651644,-338.6292658668068 " />
			<path d="M-526.5644004649614,-339.8020925326274 L-526.5682550051049,-339.72070754465653 L-526.5798093396104,-339.63951862025016 L-526.5990356330742,-339.5587213506385 L-526.6258875676712,-339.47851038352104 L-526.660300454739,-339.39907895414325 L-526.7021913906184,-339.3206184197758 L-526.7514594563758,-339.2433177987184 L-526.8079859609253,-339.16736331493786 L-526.8716347269665,-339.09293794943846 L-526.9422524190467,-339.0202209994446 L-527.0196689129606,-338.9493876464579 L-527.1036977055933,-338.88060853423025 L-527.1941363642234,-338.81404935766716 L-527.2907670142007,-338.74987046365493 L-527.3933568638256,-338.6882264647706 L-527.5016587651645,-338.62926586680686 " />
			<path d="M-585.9086788911733,-308.3556775553144 L-586.0224319354597,-308.29954239951616 L-586.1413620816465,-308.24636792039047 L-586.2651828165945,-308.1962822199152 L-586.3935958453075,-308.1494059589297 L-586.5262918095519,-308.10585206645266 L-586.662951033127,-308.06572546762584 L-586.8032442919933,-308.0291228309405 L-586.9468336074019,-307.9961323353544 L-587.0933730601151,-307.96683345786107 L-587.242509623756,-307.94129678202273 L-587.3938840152798,-307.91958382792814 L-587.5471315605187,-307.90174690398555 L-587.701883072713,-307.8878289809071 L-587.8577657419156,-307.8778635881885 L-588.0144040331224,-307.87187473333375 L-588.1714205909702,-307.86987684401873 L-588.328437148818,-307.87187473333375 L-588.4850754400248,-307.8778635881885 L-588.6409581092274,-307.8878289809071 L-588.7957096214218,-307.90174690398555 L-588.9489571666606,-307.91958382792814 L-589.1003315581845,-307.94129678202273 L-589.2494681218253,-307.96683345786107 L-589.3960075745385,-307.9961323353544 L-589.5395968899471,-308.0291228309405 L-589.6798901488135,-308.06572546762584 L-589.8165493723885,-308.10585206645266 L-589.949245336633,-308.1494059589297 L-590.077658365346,-308.1962822199152 L-590.2014791002939,-308.24636792039047 L-590.3204092464807,-308.29954239951616 L-590.4341622907672,-308.3556775553144 " />
			<path d="M-587.098743806543,-2208.788008000985 L-587.2055882713338,-2208.769396210238 L-587.313631076805,-2208.7527463616284 L-587.4227381706097,-2208.7380791131836 L-587.5327741799028,-2208.725412663053 L-587.6436025793025,-2208.7147627269273 L-587.755085860282,-2208.706142518541 L-587.8670857017804,-2208.6995627332776 L-587.9794631418234,-2208.695031534897 L-588.0920787499372,-2208.692554545411 L-588.2047928001447,-2208.6921348381024 L-588.3174654443285,-2208.6937729337174 L-588.4299568857452,-2208.697466799815 L-588.5421275524757,-2208.7032118532916 L-588.6538382705966,-2208.711000966065 L-588.7649504368584,-2208.7208244739218 L-588.8753261906553,-2208.7326701885045 L-588.9848285850728,-2208.746523412436 L-589.0933217568032,-2208.762366957555 L-589.2006710947151,-2208.780181166242 L-589.3067434068702,-2208.7999439358077 L-589.4114070857792,-2208.8216307459193 L-589.5145322716916,-2208.845214689021 L-589.6159910137166,-2208.87066650372 L-589.7156574285768,-2208.8979546110927 L-589.8134078567955,-2208.9270451538664 L-589.9091210161247,-2208.9579020384244 L-590.0026781520248,-2208.9904869795914 L-590.0939631850073,-2209.0247595481333 L-590.1828628546579,-2209.0606772209208 L-590.2692668601629,-2209.0981954336876 L-590.3530679971635,-2209.1372676363235 L-590.4341622907672,-2209.1778453506313 " />
			<path d="M-590.4341622907671,-308.3556775553144 L-612.778736576262,-319.93734088029214 " />
			<path d="M-590.4341622907671,-2209.1778453506313 L-612.778736576262,-2220.759508675609 " />
			<path d="M-612.778736576262,-319.93734088029214 L-612.8870384776009,-319.9963014782559 L-612.9896283272258,-320.0579454771402 L-613.0862589772031,-320.12212437115244 L-613.1766976358332,-320.1886835477155 L-613.2607264284659,-320.2574626599432 L-613.3381429223798,-320.32829601292985 L-613.40876061446,-320.40101296292374 L-613.4724093805012,-320.47543832842314 L-613.5289358850507,-320.5513928122037 L-613.5782039508081,-320.6286934332611 L-613.6200948866875,-320.70715396762847 L-613.6545077737553,-320.7865853970063 L-613.6813597083523,-320.8667963641238 L-613.7005860018161,-320.94759363373544 L-613.7121403363216,-321.0287825581418 L-613.7159948764651,-321.1101675461127 " />
			<path d="M-612.778736576262,-2220.759508675609 L-612.8870384776009,-2220.818469273573 L-612.9896283272258,-2220.880113272457 L-613.0862589772031,-2220.9442921664695 L-613.1766976358332,-2221.0108513430328 L-613.2607264284659,-2221.0796304552605 L-613.3381429223798,-2221.150463808247 L-613.40876061446,-2221.2231807582407 L-613.4724093805012,-2221.29760612374 L-613.5289358850507,-2221.3735606075206 L-613.5782039508081,-2221.450861228578 L-613.6200948866875,-2221.5293217629455 L-613.6545077737553,-2221.6087531923235 L-613.6813597083523,-2221.6889641594407 L-613.7005860018161,-2221.7697614290523 L-613.7121403363216,-2221.8509503534588 L-613.7159948764651,-2221.9323353414297 " />
			<path d="M-613.7159948764651,-2221.9323353414297 L-613.7126018900075,-2222.0086951356366 L-613.7024301258581,-2222.0848930000016 L-613.685501154428,-2222.1607673480726 L-613.6618508755741,-2222.2361572794534 L-613.6315294424688,-2222.310902921008 L-613.5946011552445,-2222.3848457658937 L-613.5511443246377,-2222.4578290096906 L-613.501251105922,-2222.529697882925 " />
			<path d="M-873.276874765386,-457.3046641145217 L-814.8698546393772,-487.5782524260141 " />
			<path d="M-813.9325963391741,-488.7510790918347 L-813.9364508793176,-488.66969410386383 L-813.9480052138231,-488.58850517945746 L-813.9672315072869,-488.5077079098458 L-813.9940834418838,-488.42749694272834 L-814.0284963289516,-488.34806551335055 L-814.0703872648311,-488.2696049789831 L-814.1196553305884,-488.1923043579257 L-814.176181835138,-488.11634987414516 L-814.2398306011792,-488.04192450864576 L-814.3104482932594,-487.9692075586519 L-814.3878647871733,-487.8983742056652 L-814.471893579806,-487.82959509343755 L-814.562332238436,-487.76303591687446 L-814.6589628884134,-487.6988570228622 L-814.7615527380383,-487.6372130239779 L-814.8698546393772,-487.57825242601416 " />
			<path d="M-873.276874765386,-457.3046641145217 L-873.3906278096724,-457.24852895872345 L-873.5095579558592,-457.19535447959777 L-873.6333786908071,-457.1452687791225 L-873.7617917195201,-457.098392518137 L-873.8944876837646,-457.05483862565995 L-874.0311469073397,-457.01471202683314 L-874.171440166206,-456.9781093901478 L-874.3150294816146,-456.9451188945617 L-874.4615689343278,-456.91582001706837 L-874.6107054979686,-456.89028334123003 L-874.7620798894925,-456.86857038713543 L-874.9153274347314,-456.85073346319285 L-875.0700789469257,-456.8368155401144 L-875.2259616161283,-456.8268501473958 L-875.3825999073351,-456.82086129254105 L-875.5396164651829,-456.81886340322603 L-875.6966330230307,-456.82086129254105 L-875.8532713142375,-456.8268501473958 L-876.0091539834401,-456.8368155401144 L-876.1639054956345,-456.85073346319285 L-876.3171530408733,-456.86857038713543 L-876.4685274323972,-456.89028334123003 L-876.617663996038,-456.91582001706837 L-876.7642034487512,-456.9451188945617 L-876.9077927641598,-456.9781093901478 L-877.0480860230261,-457.01471202683314 L-877.1847452466012,-457.05483862565995 L-877.3174412108457,-457.098392518137 L-877.4458542395587,-457.1452687791225 L-877.5696749745066,-457.19535447959777 L-877.6886051206934,-457.24852895872345 L-877.8023581649799,-457.3046641145217 " />
			<path d="M-873.6857840338707,-2357.9477141732705 L-873.801912017371,-2357.9068899459953 L-873.9213812178094,-2357.86874370124 L-874.0439619226381,-2357.8333487857008 L-874.1694184365823,-2357.8007732558817 L-874.2975095348297,-2357.7710797472405 L-874.4279889268515,-2357.7443253537513 L-874.5606057299645,-2357.7205615181283 L-874.695104951722,-2357.6998339329116 L-874.8312279802072,-2357.6821824526105 L-874.9687130812864,-2357.6676410170735 L-875.1072959018649,-2357.6562375862286 L-875.2467099781788,-2357.6479940863214 L-875.3866872481457,-2357.6429263677596 L-875.5269585667875,-2357.641044174631 L-875.6672542237363,-2357.6423511259727 L-875.8073044618274,-2357.6468447088096 L-875.9468399957813,-2357.654516282987 L-876.0855925299795,-2357.6653510977835 L-876.223295274337,-2357.6793283202746 L-876.3596834572797,-2357.6964210753877 L-876.4944948348411,-2357.7165964975784 L-876.6274701948988,-2357.7398157940224 L-876.7583538555813,-2357.766034319208 L-876.8868941568869,-2357.7952016607746 L-877.01284394457,-2357.8272617364496 L-877.1359610453633,-2357.8621529018797 L-877.2560087326225,-2357.899808069158 L-877.372756181499,-2357.9401548358214 L-877.4859789127644,-2357.983115624063 L-877.5954592244339,-2358.0286078298973 L-877.7009866103581,-2358.076543981988 L-877.8023581649799,-2358.1268319098385 " />
			<path d="M-877.8023581649799,-457.3046641145217 L-900.1469324504748,-468.88632743949944 " />
			<path d="M-877.8023581649799,-2358.1268319098385 L-900.1469324504748,-2369.7084952348164 " />
			<path d="M-900.1469324504748,-468.8863274394994 L-900.2552343518137,-468.9452880374631 L-900.3578242014386,-469.00693203634745 L-900.4544548514159,-469.0711109303597 L-900.544893510046,-469.13767010692277 L-900.6289223026787,-469.20644921915044 L-900.7063387965926,-469.2772825721371 L-900.7769564886728,-469.349999522131 L-900.840605254714,-469.4244248876304 L-900.8971317592635,-469.50037937141093 L-900.9463998250209,-469.57767999246835 L-900.9882907609003,-469.6561405268357 L-901.0227036479681,-469.73557195621356 L-901.0495555825651,-469.815782923331 L-901.0687818760289,-469.8965801929427 L-901.0803362105344,-469.97776911734906 L-901.0841907506779,-470.0591541053199 " />
			<path d="M-900.1469324504748,-2369.7084952348164 L-900.2552343518137,-2369.7674558327803 L-900.3578242014386,-2369.8290998316643 L-900.4544548514159,-2369.8932787256767 L-900.544893510046,-2369.95983790224 L-900.6289223026787,-2370.0286170144677 L-900.7063387965926,-2370.099450367454 L-900.7769564886728,-2370.172167317448 L-900.840605254714,-2370.2465926829473 L-900.8971317592635,-2370.322547166728 L-900.9463998250209,-2370.3998477877853 L-900.9882907609003,-2370.4783083221528 L-901.0227036479681,-2370.557739751531 L-901.0495555825651,-2370.637950718648 L-901.0687818760289,-2370.7187479882596 L-901.0803362105344,-2370.799936912666 L-901.0841907506779,-2370.881321900637 " />
			<path d="M-901.0841907506779,-2370.881321900637 L-901.0816094390366,-2370.947929143757 L-901.0738696685939,-2371.0144289280943 L-901.0609839260746,-2371.0807139682324 L-901.042973000302,-2371.146677325204 L-901.0198659486587,-2371.212212579022 L-900.9917000502079,-2371.277214000365 L-900.9585207455509,-2371.341576721154 L-900.9203815635158,-2371.4051969037396 L-900.8773440347994,-2371.4679719084224 L-900.8294775926978,-2371.5298004590463 L-900.7768594610885,-2371.590582806388 L-900.7195745298441,-2371.650220889084 L-900.6577152178768,-2371.708618491836 L-900.5913813240379,-2371.7656814006377 L-900.5206798661102,-2371.821317554769 L-900.445724908154,-2371.875437195322 " />
			<path d="M-1169.6959686263888,-610.9449192211773 L-1111.2889484980126,-641.2185075314428 " />
			<path d="M-1169.6957294483866,-2511.7669630454784 L-1169.4600817440278,-2511.889104212282 " />
			<path d="M-1110.3516901977177,-642.3913342111118 L-1110.355544747462,-642.3099492159254 L-1110.3670990902679,-642.2287602852582 L-1110.3863253907152,-642.1479630103232 L-1110.4131773309707,-642.0677520388004 L-1110.4475902223687,-641.9883206059139 L-1110.4894811612535,-641.909860068911 L-1110.5387492287007,-641.8325594460665 L-1110.5952757336402,-641.7566049613204 L-1110.6589244987929,-641.682179595649 L-1110.7295421887345,-641.6094626462475 L-1110.8069586792924,-641.5386292945869 L-1110.890987467391,-641.4698501843876 L-1110.9814261203533,-641.4032910105228 L-1111.078056763579,-641.3391121198456 L-1111.1806466054234,-641.2774681248994 L-1111.2889484980126,-641.2185075314427 " />
			<path d="M-1169.6959686263888,-610.9449192211772 L-1169.8097216706797,-610.888784065883 L-1169.9286518168706,-610.8356095882635 L-1170.0524725518223,-610.785523890293 L-1170.180885580539,-610.7386476328047 L-1170.313581544787,-610.695093744809 L-1170.4502407683651,-610.6549671514368 L-1170.5905340272343,-610.6183645211662 L-1170.7341233426455,-610.5853740329396 L-1170.880662795361,-610.5560751637328 L-1171.0297993590038,-610.5305384970878 L-1171.1811737505293,-610.5088255530715 L-1171.3344212957695,-610.4909886400677 L-1171.4891728079651,-610.4770707287623 L-1171.6450554771684,-610.4671053486228 L-1171.8016937683758,-610.4611165071225 L-1171.9587103262236,-610.4591186319053 L-1172.1157268840714,-610.4611165360277 L-1172.2723651752776,-610.4671054063634 L-1172.4282478444795,-610.4770708151996 L-1172.5829993566729,-610.490988754993 L-1172.7362469019101,-610.5088256962082 L-1172.8876212934324,-610.530538668091 L-1173.0367578570713,-610.5560753621904 L-1173.1832973097821,-610.5853742583738 L-1173.326886625188,-610.6183647730337 L-1173.4671798840516,-610.6549674291309 L-1173.6038391076236,-610.6950940476607 L-1173.7365350718646,-610.7386479600844 L-1173.8649481005739,-610.7855242412122 L-1173.988768835518,-610.835609961977 L-1174.1076989817004,-610.8887844614902 L-1174.2214520259827,-610.9449196377253 " />
			<path d="M-1169.6957294483866,-2511.766963045478 L-1169.8094824926775,-2511.7108278901837 L-1169.9284126388684,-2511.6576534125643 L-1170.0522333738202,-2511.6075677145936 L-1170.180646402537,-2511.5606914571053 L-1170.3133423667848,-2511.5171375691098 L-1170.450001590363,-2511.4770109757374 L-1170.5902948492321,-2511.440408345467 L-1170.7338841646433,-2511.40741785724 L-1170.880423617359,-2511.3781189880333 L-1171.0295601810017,-2511.3525823213886 L-1171.1809345725271,-2511.330869377372 L-1171.3341821177673,-2511.3130324643685 L-1171.488933629963,-2511.299114553063 L-1171.6448162991662,-2511.2891491729233 L-1171.8014545903736,-2511.283160331423 L-1171.9584711482214,-2511.281162456206 L-1172.1154877060692,-2511.283160360328 L-1172.2721259972755,-2511.289149230664 L-1172.4280086664774,-2511.2991146395 L-1172.5827601786707,-2511.3130325792936 L-1172.736007723908,-2511.3308695205087 L-1172.8873821154302,-2511.352582492392 L-1173.036518679069,-2511.378119186491 L-1173.18305813178,-2511.407418082674 L-1173.326647447186,-2511.440408597334 L-1173.4669407060494,-2511.4770112534316 L-1173.6035999296214,-2511.5171378719615 L-1173.7362958938625,-2511.560691784385 L-1173.8647089225717,-2511.607568065513 L-1173.9885296575158,-2511.6576537862775 L-1174.1074598036982,-2511.7108282857907 L-1174.2212128479805,-2511.766963462026 " />
			<path d="M-1174.2214520259824,-610.9449196377253 L-1196.5660263105717,-622.5265870756458 " />
			<path d="M-1174.2212128479803,-2511.766963462026 L-1196.5657871325695,-2523.3486308999463 " />
			<path d="M-1196.5660263105717,-622.5265870756458 L-1196.6743282206603,-622.5855476990525 L-1196.7769180780658,-622.6471917237639 L-1196.8735487347947,-622.7113706439001 L-1196.9639873990925,-622.7779298467956 L-1197.0480161962594,-622.846708985474 L-1197.125432693529,-622.9175423649386 L-1197.1960503877483,-622.9902593413456 L-1197.2596991546775,-623.0646847331003 L-1197.316225658837,-623.1406392428856 L-1197.3654937229048,-623.2179398896042 L-1197.407384655779,-623.2964004491962 L-1197.4417975385165,-623.3758319032702 L-1197.4686494674552,-623.4560428944641 L-1197.487875753935,-623.5368401874423 L-1197.4994300801404,-623.6180291344169 L-1197.503284610683,-623.6994141440706 " />
			<path d="M-1196.5657871325695,-2523.3486308999472 L-1196.6740890426581,-2523.407591523354 L-1196.7766789000636,-2523.469235548065 L-1196.8733095567925,-2523.5334144682015 L-1196.9637482210903,-2523.599973671097 L-1197.0477770182572,-2523.6687528097755 L-1197.125193515527,-2523.73958618924 L-1197.1958112097461,-2523.812303165647 L-1197.2594599766753,-2523.8867285574015 L-1197.315986480835,-2523.962683067187 L-1197.3652545449027,-2524.0399837139053 L-1197.4071454777768,-2524.1184442734975 L-1197.4415583605144,-2524.1978757275715 L-1197.468410289453,-2524.2780867187653 L-1197.4876365759328,-2524.3588840117436 L-1197.4991909021383,-2524.4400729587182 L-1197.503045432681,-2524.521457968372 " />
			<path d="M-1197.503045432681,-2524.521457968372 L-1197.4991908829365,-2524.6028429635585 L-1197.4876365401308,-2524.684031894226 L-1197.4684102396834,-2524.7648291691607 L-1197.441558299428,-2524.8450401406835 L-1197.40714540803,-2524.92447157357 L-1197.3652544691452,-2525.0029321105726 L-1197.315986401698,-2525.0802327334172 L-1197.2594598967585,-2525.1561872181633 L-1197.1958111316058,-2525.230612583835 L-1197.1251934416641,-2525.3033295332366 L-1197.0477769511062,-2525.374162884897 L-1196.9637481630077,-2525.442941995096 L-1196.8733095100454,-2525.509501168961 L-1196.7766788668196,-2525.5736800596383 L-1196.6740890249753,-2525.6353240545845 L-1196.565787132386,-2525.694284648041 " />
			<path d="M-1196.565787132386,-2525.694284648041 L-1196.2745807404262,-2525.8452230524335 " />
			<path d="M-47.234732983261374,8.234220549614971 L-1232.6285409643901,-606.1803490071156 " />
			<path d="M47.234732983261374,-40.731292748392164 L47.234702663328896,-40.73130846385156 " />
			<path d="M-38.97963938311441,-85.41801721956787 L-240.13346289095142,-189.6802793075995 " />
			<path d="M-326.3477990022522,-234.36698498700645 L-527.5016587651644,-338.62926586680686 " />
			<path d="M-613.7159948764652,-383.3159715462138 L-814.8698546393773,-487.57825242601416 " />
			<path d="M-901.084190750678,-532.2649581054212 L-1111.2889484980126,-641.218509980362 " />
			<path d="M-49.49747468305833,12.143642769016738 L-1234.891282664187,-602.2709267877138 " />
			<path d="M-49.49747468305833,39.167523860631455 L-1234.891282664187,-575.2470456960991 " />
			<path d="M-11.769076035238642,-1942.6066925195898 L-1196.107165157402,-2559.0181019189126 " />
			<path d="M46.68961560415873,-1973.1505351503447 L-1137.6484735180047,-2589.5619445496677 " />
			<path d="M-14.026565865930497,-1938.692950667453 L-1198.364654988094,-2555.104360066776 " />
			<path d="M-13.954935864049423,-1911.7298034748396 L-1198.293024986213,-2528.141212874162 " />
			<path d="M-11.17231451783,-10.45772165265753 L-11.172585585044263,-1911.2800298637694 " />
			<path d="M47.23470558653536,-40.73130997901103 L47.23443459501077,-1941.0228545666016 " />
			<path d="M-15.697797917423866,-10.457721179810296 L-15.69806898463813,-1911.2800293909222 " />
			<path d="M-38.04237221119851,-22.039379841106967 L-38.042643278412775,-1922.8616880522188 " />
			<path d="M-298.5404830169603,-159.40669099610705 L-298.5404830169603,-2058.6023423867327 " />
			<path d="M-240.13346289095148,-189.6802793075995 L-240.13346289095148,-2028.2032917057122 " />
			<path d="M-303.0659664165542,-159.40669099610705 L-303.0659664165542,-2060.228858791424 " />
			<path d="M-325.41054070204916,-170.98835432108478 L-325.41054070204916,-2071.810522116402 " />
			<path d="M-585.9086788911732,-308.3556775553144 L-585.9086788911732,-2208.1686159553374 " />
			<path d="M-527.5016587651644,-338.62926586680686 L-527.5016587651644,-2177.769565274317 " />
			<path d="M-590.4341622907672,-308.3556775553144 L-590.4341622907672,-2209.1778453506313 " />
			<path d="M-612.778736576262,-319.93734088029214 L-612.778736576262,-2220.759508675609 " />
			<path d="M-873.276874765386,-457.3046641145217 L-873.276874765386,-2357.7348895239425 " />
			<path d="M-814.8698546393772,-487.57825242601416 L-814.8698546393772,-2327.335838842922 " />
			<path d="M-877.8023581649799,-457.3046641145217 L-877.8023581649799,-2358.1268319098385 " />
			<path d="M-900.1469324504748,-468.8863274394994 L-900.1469324504748,-2369.7084952348164 " />
			<path d="M-1169.6959686263888,-610.9449192211773 L-1169.6957294483866,-2511.766963045478 " />
			<path d="M-1111.2889484980128,-641.2185075314427 L-1111.2887169235692,-2481.6127048420317 " />
			<path d="M-1174.2214520259827,-610.9449196377252 L-1174.2212128479805,-2511.766963462026 " />
			<path d="M-1196.5660263105715,-622.5265870756457 L-1196.5657871325693,-2523.3486308999463 " />
			<path d="M-1110.6124188578783,-641.735564065142 L-901.084190750678,-533.1326717472502 " />
			<path d="M-814.193326403866,-488.09530723883984 L-613.7159948764652,-384.1836851880429 " />
			<path d="M-526.8251305296532,-339.1463206796326 L-326.34779900225226,-235.23469862883556 " />
			<path d="M-239.45693465544025,-190.19733412042513 L-38.97963950685495,-86.2857309255343 " />
			<path d="M47.911232081836886,-41.24836266350507 L48.70730576184833,-40.83574091354612 " />
			<path d="M-1234.101113742977,-573.5788286431845 L-48.70730576184833,40.83574091354612 " />
			<path d="M-1136.1638429888249,-2589.670047770027 L48.17424613333847,-1973.2586383707041 " />
			<path d="M-1197.5056583425476,-2526.4859609352843 L-38.71119536085968,-1923.3692202923216 " />
			<path d="M-14.907675369249489,-1910.980223061329 L-13.16756922038418,-1910.0745515359613 " />
			<path d="M48.171692916792956,-1942.0384806739348 L48.17196388589993,-41.90413662889682 " />
			<path d="M-38.979901504523674,-1923.5090735438994 L-38.97963051224001,-23.21220605116648 " />
			<path d="M-239.1962045907485,-2027.7154776979503 L-239.1962045907485,-190.85310597342004 " />
			<path d="M-326.3477990022522,-2072.9833487822225 L-326.3477990022522,-172.16118098690532 " />
			<path d="M-526.5644004649614,-2177.281751266556 L-526.5644004649614,-339.8020925326274 " />
			<path d="M-613.7159948764651,-2221.9323353414297 L-613.7159948764651,-321.1101675461127 " />
			<path d="M-813.9325963391741,-2326.8480248351607 L-813.9325963391741,-488.75107909183464 " />
			<path d="M-901.0841907506779,-2370.881321900637 L-901.0841907506779,-470.05915410532 " />
			<path d="M-1110.3514588322307,-2481.1248909429783 L-1110.3516901977182,-642.3913342111118 " />
			<path d="M-1197.5030454326807,-2524.5214579683716 L-1197.5032846106828,-623.6994141440705 " />

       </g>
    </g>
    
</svg>
