<?xml version="1.0" encoding="UTF-8" standalone="no"?>
<svg
   xmlns:svg="http://www.w3.org/2000/svg"
   xmlns="http://www.w3.org/2000/svg"
   width="480.0"
   height="480.0"

>
    <g transform="scale(0.13166725655392705, -0.13166725655392705)   translate(1410.8839556915455,-143.93794144127764)" stroke-width="1.0"  fill="none">
       <!-- hidden lines -->
       <g  stroke="rgb(0,0,0)" fill="none" stroke-dasharray="1.0,1.0" >
			<path d="M-1311.60518555289,-545.3919403108837 L-1311.60518555289,-427.16292016430856 " />
			<path d="M-1313.5697955161377,-423.15478756053705 L-1313.4733966742806,-423.21591692199127 L-1313.3772300656772,-423.28372115075695 L-1313.2815273641106,-423.3580369005081 L-1313.1865191257716,-423.4386851380943 L-1313.092434233828,-423.52547157484713 L-1312.9994993470254,-423.618187134639 L-1312.9079383536462,-423.71660845756537 L-1312.8179718321435,-423.8204984380386 L-1312.7298165197471,-423.92960679599616 L-1312.643684790327,-424.0436706798468 L-1312.5597841427627,-424.16241529970364 L-1312.4783167010635,-424.2855545893766 L-1312.399478727432,-424.41279189553114 L-1312.3234601494523,-424.543820692352 L-1312.250444102537,-424.678325319991 L-1312.1806064887385,-424.8159817450188 L-1312.1141155529856,-424.95645834105034 L-1312.0511314777666,-425.0994166876614 L-1311.9918059972351,-425.24451238567343 L-1311.9362820316703,-425.3913958868409 L-1311.8846933431685,-425.5397133359441 L-1311.8371642133989,-425.6891074232571 L-1311.7938091441981,-425.8392182453381 L-1311.7547325817254,-425.98968417206856 L-1311.7200286648424,-426.1401427178518 L-1311.6897809983245,-426.29023141487244 L-1311.66406245145,-426.439588686313 L-1311.6429349824507,-426.58785471742453 L-1311.6264494892503,-426.73467232235146 L-1311.6146456868455,-426.87968780462387 L-1311.6075520116303,-427.0225518092431 L-1311.60518555289,-427.16292016430856 " />
			<path d="M-1311.60518555289,-545.3919403108837 L-1311.607577287479,-545.530199363917 L-1311.6147466678058,-545.6652577044392 L-1311.6266762377286,-545.7967864898704 L-1311.643336950907,-545.9244654714573 L-1311.6646882415243,-546.0479837740215 L-1311.6906781230575,-546.1670406528837 L-1311.7212433148557,-546.2813462261227 L-1311.7563093962167,-546.3906221803853 " />
			<path d="M-1313.5697955161374,-423.15478756053705 L-1332.970318903209,-411.5388271748786 " />
			<path d="M76.73072033565172,-1330.9418639923304 L77.00265326010326,-1257.9526656235018 " />
			<path d="M75.04605007028307,-1253.9376975494688 L75.14256027320016,-1253.9993616191766 L75.23881259501192,-1254.0676892363167 L75.33457515544438,-1254.1425157936749 L75.42961725410167,-1254.2236610275204 L75.52370992624341,-1254.3109294518772 L75.61662649438088,-1254.4041108294673 L75.70814311436288,-1254.5029806781904 L75.79803931463599,-1254.607300811921 L75.88609852737976,-1254.7168199143198 L75.97210861023761,-1254.8312741442758 L76.05586235738636,-1254.9503877715244 L76.13715799871315,-1255.0738738409043 L76.21579968589738,-1255.2014348636585 L76.29159796422641,-1255.33276353411 L76.36437022900861,-1255.4675434699886 L76.43394116548403,-1255.6054499746235 L76.500143171173,-1255.746150819166 L76.56281675964519,-1255.8893070429572 L76.62181094473642,-1256.0345737701155 L76.67698360428754,-1256.1816010403709 L76.72820182252913,-1256.3300346521517 L76.77534221028725,-1256.4795170158854 L76.81829120223878,-1256.629688015465 L76.85694533050024,-1256.7801858757991 L76.89121147389092,-1256.93064803436 L76.92100708227005,-1257.0807120146287 L76.94626037540726,-1257.2300162993329 L76.96691051590744,-1257.378201201373 L76.98290775577341,-1257.5249097303408 L76.99421355625311,-1257.6697884525395 L77.00080068068294,-1257.8124883424377 L77.00265326010317,-1257.9526656235016 " />
			<path d="M76.73072033565172,-1330.9418639923301 L76.72791499492406,-1331.0770705319644 L76.72052331776901,-1331.2091892765482 L76.70856256232045,-1331.3379117544123 L76.69206065462481,-1331.4629374235126 L76.67105612343912,-1331.5839743731376 L76.64559801027376,-1331.700740005462 L76.61574575489013,-1331.8129616953595 L76.5815690565203,-1331.9203774269286 " />
			<path d="M53.92843353111532,-1319.166713995071 L53.86347005442995,-1319.0270596965875 L53.80198571383297,-1318.885052956898 L53.744125571728674,-1318.7410288180458 L53.690026139808424,-1318.595327081802 L53.63981505697327,-1318.4482915079595 L53.59361078819052,-1318.3002690032858 L53.55152234499471,-1318.1516088030533 L53.513649028292456,-1318.0026616470736 L53.48008019407792,-1317.8537789521854 L53.45089504261174,-1317.7053119831405 L53.42616243156078,-1317.5576110238537 L53.40594071353952,-1317.411024550962 L53.39027759843648,-1317.2658984116524 L53.379210040850396,-1317.1225750076883 L53.37276415290181,-1316.9813924875707 L53.37095514262573,-1316.8426839487292 " />
			<path d="M1375.598310509741,-838.2462666610569 L1375.8702434341924,-765.2570682922284 " />
			<path d="M53.370955142625654,-1316.842683948729 L53.64288806707717,-1243.8534855799005 " />
			<path d="M53.64288806707741,-1243.8534855799007 L53.64721103406229,-1243.6828496133894 L53.65887575651274,-1243.5172928970414 L53.67783860345332,-1243.3574346827127 L53.6900357180541,-1243.2798302634826 L53.70402864584883,-1243.2038729074607 L53.71980429891612,-1243.1296336593857 L53.73734792190881,-1243.0571819570096 L53.75664310585502,-1242.9865855661487 L53.777671803505854,-1242.9179105173034 L53.80041434621542,-1242.8512210438957 L53.82484946233737,-1242.7865795221917 L53.8509542971208,-1242.7240464129588 L53.87870443408687,-1242.663680204916 L53.908073917866076,-1242.6055373600273 L53.939035278474954,-1242.5496722606915 L53.97155955700942,-1242.4961371588777 L54.00561633273072,-1242.4449821272524 L54.04117375151867,-1242.3962550123447 L54.07819855566561,-1242.3500013897958 L54.116656114983094,-1242.3062645217292 L54.156510459192376,-1242.2650853162882 L54.197724311568244,-1242.2265022893723 L54.24025912380486,-1242.1905515286135 L54.28407511207091,-1242.1572666596212 L54.32913129422036,-1242.1266788145329 L54.37538552812406,-1242.0988166028944 L54.42279455108629,-1242.0737060849017 L54.47131402030939,-1242.0513707470252 L54.52089855436863,-1242.0318314800427 " />
			<path d="M54.52089855436864,-1242.0318314800427 L54.58225228547118,-1242.0119537398489 L54.64501335393046,-1241.99622339754 L54.70909582061539,-1241.9846619927741 L54.774411936995875,-1241.9772853566567 L54.84087226529741,-1241.9741035900622 L54.90838580096883,-1241.975121049804 L54.97686009729539,-1241.9803363426686 L55.04620139198668,-1241.9897423273212 L55.116314735565865,-1242.0033261240878 L55.187104121384685,-1242.0210691325888 L55.25847261708591,-1242.0429470572094 L55.330322497333455,-1242.068929940368 L55.402555377628325,-1242.0989822035372 L55.4750723490271,-1242.1330626959614 L55.54777411357862,-1242.1711247510048 L55.62056112029326,-1242.2131162500532 " />
			<path d="M75.04605007028329,-1253.937697549469 L55.62056112029325,-1242.2131162500534 " />
			<path d="M9.138915406435899,54.04715118344404 L9.250750013134434,54.084881157118325 L9.362365288898479,54.11698332101309 L9.473542332945506,54.14339471610459 L9.584063103956584,54.164063544150935 L9.69371084770077,54.178949269279215 L9.802270522135263,54.18802269748478 L9.909529219147611,54.19126603388678 L10.01527658211281,54.188672917627585 L10.119305218446423,54.18024843434782 L10.221411106344604,54.16600910621229 L10.321393994913302,54.145982859506624 L10.419057796901942,54.12020896986801 L10.514210973271325,54.08873798525748 L10.606666908841548,54.051631626824864 L10.696244278283197,54.00896266786074 L10.782767401734048,53.96081479107292 " />
			<path d="M10.782767401734057,53.96081479107292 L10.833836185361752,53.92888396018215 L10.883674674910912,53.89498343033823 L10.93224669406028,53.85913780895743 L10.979516985782912,53.821373115341814 L11.025451237938231,53.78171676179262 L11.070016108178235,53.74019753371245 L11.113179248149727,53.69684556871073 L11.154909326975059,53.65169233472775 L11.195176053994317,53.60477060719297 L11.233950200752428,53.55611444523427 L11.271203622215255,53.50575916695545 L11.306909277199267,53.453741323799775 L11.341041247999954,53.400098674018395 L11.373574759204738,53.3448701552627 L11.404486195676728,53.288095856320595 L11.433753119696275,53.229816988017205 L11.461354287247856,53.17007585330116 L11.487269663440497,53.108915816538044 L11.511480437050519,53.046381272033514 L11.533969034176067,52.982517611808724 L11.55471913099349,52.91737119265156 L11.573715665606349,52.85098930246761 L11.606394174942627,52.71471270962962 L11.631909697855455,52.5740834384757 L11.650188163861797,52.429509729827686 L11.66117651134849,52.28141127504252 L11.66484284160788,52.13021799766603 " />
			<path d="M1376.1256042669122,-764.0279717706292 L1376.1592760164997,-764.1301076328721 L1376.1885823109087,-764.2353259961695 L1376.2134701718144,-764.3434366524879 L1376.2338946082957,-764.4542441652634 L1376.249818698167,-764.567548222702 L1376.2612136547252,-764.6831439998922 L1376.2680588787875,-764.8008225290758 L1376.2703419959303,-764.9203710774091 " />
			<path d="M11.664842863153563,-20.966466603597162 L11.661800272977304,-21.106520090709342 L11.652679832232847,-21.248440250052347 L11.637503512860803,-21.39188518353159 L11.616307875943827,-21.536509319738023 L11.58914398362777,-21.681964246459945 L11.556077276108496,-21.827899550038538 L11.517187413980725,-21.973963659545056 L11.47256808632867,-22.119804693745998 L11.422326785020834,-22.265071308815802 L11.366584545752689,-22.409413544754916 L11.305475656461073,-22.552483668474075 L11.239147333812799,-22.693937011513775 L11.1677593685468,-22.833432800380788 L11.091483740524248,-22.97063497750134 L11.010504204414007,-23.10521301081326 L10.925015847011533,-23.236842690046657 L10.835224617257708,-23.36520690777486 L10.741346830089793,-23.489996423353976 L10.643608645319794,-23.61091060791071 L10.542245522795678,-23.727658168583638 L10.43750165515797,-23.839957850273212 L10.32962937955828,-23.947539113209952 L10.218888569757032,-24.050142784708445 L10.105546010064781,-24.147521683537025 L9.989874752635464,-24.23944121539903 L9.872153459659833,-24.325679938091007 L9.752665732043832,-24.40603009497637 L9.631699426189178,-24.48029811548934 L9.509545960522072,-24.54830508146339 L9.386499613440686,-24.60988715816078 L9.262856814372729,-24.664895988964794 L9.138915429651005,-24.713199052783818 " />
			<path d="M1376.2703420174762,-838.0170556786722 L1376.2672994273,-838.1571091657844 L1376.2581789865555,-838.2990293251274 L1376.2430026671834,-838.4424742586067 L1376.2218070302665,-838.5870983948131 L1376.1946431379504,-838.7325533215351 L1376.161576430431,-838.8784886251136 L1376.1226865683034,-839.0245527346201 L1376.0780672406513,-839.1703937688211 L1376.0278259393435,-839.3156603838909 L1375.9720837000752,-839.46000261983 L1375.9109748107837,-839.6030727435492 L1375.8446464881354,-839.7445260865888 L1375.7732585228694,-839.8840218754559 L1375.6969828948468,-840.0212240525765 L1375.6160033587366,-840.1558020858884 L1375.5305150013342,-840.2874317651217 L1375.4407237715802,-840.41579598285 L1375.3468459844123,-840.5405854984291 L1375.2491077996424,-840.6614996829858 L1375.1477446771182,-840.7782472436587 L1375.0430008094806,-840.8905469253483 L1374.935128533881,-840.998128188285 L1374.8243877240795,-841.1007318597835 L1374.7110451643873,-841.1981107586121 L1374.595373906958,-841.2900302904741 L1374.4776526139824,-841.376269013166 L1374.3581648863665,-841.4566191700515 L1374.2371985805119,-841.5308871905644 L1374.1150451148446,-841.5988941565384 L1373.9919987677633,-841.6604762332358 L1373.8683559686954,-841.7154850640399 L1373.7444145839736,-841.7637881278589 " />
			<path d="M9.138915429650982,-24.713199052783835 L-15.804617984429683,-33.74783291586389 " />
			<path d="M-15.804617984429681,-33.74783291586389 L-15.916452591128218,-33.78556288953817 L-16.028067866892265,-33.81766505343293 L-16.13924491093929,-33.84407644852443 L-16.249765681950368,-33.86474527657078 L-16.35941342569455,-33.87963100169906 L-16.467973100129047,-33.88870442990463 L-16.5752317971414,-33.89194776630662 L-16.68097916010659,-33.88935465004743 L-16.785007796440205,-33.88093016676767 L-16.887113684338384,-33.86669083863214 L-16.987096572907085,-33.84666459192647 L-17.084760374895723,-33.820890702287855 L-17.17991355126511,-33.789419717677326 L-17.272369486835334,-33.75231335924471 L-17.361946856276983,-33.70964440028059 L-17.448469979727825,-33.66149652349277 " />
			<path d="M-17.448469979727843,-33.66149652349276 L-17.499538763355538,-33.62956569260199 L-17.549377252904698,-33.595665162758074 L-17.597949272054063,-33.55981954137727 L-17.645219563776696,-33.52205484776166 L-17.691153815932015,-33.48239849421247 L-17.73571868617202,-33.44087926613229 L-17.77888182614351,-33.39752730113057 L-17.820611904968843,-33.35237406714759 L-17.8608786319881,-33.30545233961281 L-17.899652778746212,-33.25679617765412 L-17.936906200209037,-33.206440899375295 L-17.97261185519305,-33.15442305621962 L-18.006743825993738,-33.10078040643824 L-18.03927733719852,-33.04555188768254 L-18.070188773670512,-32.98877758874043 L-18.099455697690058,-32.93049872043705 L-18.12705686524164,-32.870757585721 L-18.15297224143428,-32.80959754895789 L-18.177183015044303,-32.74706300445336 L-18.19967161216985,-32.68319934422857 L-18.220421708987274,-32.6180529250714 L-18.239418243600134,-32.551671034887455 L-18.272096752936413,-32.41539444204947 L-18.29761227584924,-32.27476517089554 L-18.315890741855583,-32.130191462247524 L-18.326879089342274,-31.982093007462364 L-18.330545419601663,-31.83089973008585 " />
			<path d="M1348.8008811698928,-850.7984219909389 L1348.6890465631943,-850.8361519646132 L1348.5774312874303,-850.8682541285079 L1348.4662542433832,-850.8946655235994 L1348.355733472372,-850.9153343516458 L1348.246085728628,-850.930220076774 L1348.1375260541934,-850.9392935049797 L1348.0302673571812,-850.9425368413816 L1347.9245199942159,-850.9399437251225 L1347.8204913578822,-850.9315192418427 L1347.718385469984,-850.9172799137071 L1347.6184025814155,-850.8972536670015 L1347.520738779427,-850.8714797773629 L1347.4255856030575,-850.8400087927523 L1347.3331296674871,-850.8029024343198 L1347.2435522980456,-850.7602334753556 L1347.1570291745948,-850.7120855985678 " />
			<path d="M1347.1570291745948,-850.7120855985678 L1347.105960390967,-850.680154767677 L1347.0561219014178,-850.6462542378331 L1347.0075498822684,-850.6104086164523 L1346.9602795905457,-850.5726439228366 L1346.9143453383906,-850.5329875692875 L1346.8697804681506,-850.4914683412073 L1346.826617328179,-850.4481163762056 L1346.7848872493537,-850.4029631422226 L1346.7446205223343,-850.3560414146879 L1346.7058463755764,-850.3073852527291 L1346.6685929541134,-850.2570299744503 L1346.6328872991294,-850.2050121312947 L1346.5987553283287,-850.1513694815133 L1346.566221817124,-850.0961409627575 L1346.535310380652,-850.0393666638155 L1346.5060434566324,-849.981087795512 L1346.478442289081,-849.9213466607961 L1346.4525269128883,-849.860186624033 L1346.4283161392782,-849.7976520795283 L1346.4058275421526,-849.7337884193036 L1346.3850774453351,-849.6686420001464 L1346.3660809107223,-849.6022601099625 L1346.3334024013861,-849.4659835171245 L1346.3078868784733,-849.3253542459705 L1346.289608412467,-849.1807805373226 L1346.2786200649803,-849.0326820825373 L1346.2749537347208,-848.8814888051609 " />
			<path d="M-18.330545419601663,-31.830899730085846 L-18.33054544114735,41.26578487117733 " />
			<path d="M1346.2749537347206,-848.881488805161 L1346.2749537131751,-775.7848042038978 " />
			<path d="M-18.33054544114735,41.26578487117733 L-18.32750285097109,41.40583835828951 L-18.318382410226633,41.547758517632516 L-18.303206090854587,41.691203451111754 L-18.282010453937612,41.835827587318185 L-18.254846561621555,41.98128251404011 L-18.221779854102284,42.1272178176187 L-18.182889991974513,42.273281927125225 L-18.138270664322455,42.41912296132616 L-18.08802936301462,42.56438957639597 L-18.032287123746475,42.70873181233508 L-17.97117823445486,42.851801936054244 L-17.904849911806583,42.993255279093944 L-17.833461946540584,43.13275106796095 L-17.757186318518034,43.26995324508151 L-17.676206782407792,43.40453127839343 L-17.59071842500532,43.53616095762683 L-17.500927195251496,43.664525175355024 L-17.407049408083576,43.78931469093414 L-17.30931122331358,43.91022887549088 L-17.207948100789466,44.0269764361638 L-17.103204233151754,44.13927611785338 L-16.995331957552064,44.24685738079012 L-16.884591147750815,44.34946105228861 L-16.771248588058565,44.44683995111719 L-16.655577330629246,44.5387594829792 L-16.537856037653615,44.624998205671176 L-16.418368310037614,44.705348362556535 L-16.29740200418296,44.77961638306951 L-16.175248538515856,44.84762334904355 L-16.05220219143447,44.90920542574094 L-15.928559392366514,44.96421425654496 L-15.804618007644777,45.01251732036398 " />
			<path d="M1346.274953713175,-775.7848042038977 L1346.277996303351,-775.6447507167856 L1346.2871167440956,-775.5028305574425 L1346.3022930634677,-775.3593856239632 L1346.3234887003846,-775.2147614877568 L1346.3506525927007,-775.0693065610349 L1346.38371930022,-774.9233712574563 L1346.4226091623477,-774.7773071479498 L1346.4672284899998,-774.6314661137488 L1346.5174697913076,-774.4861994986791 L1346.5732120305759,-774.34185726274 L1346.6343209198674,-774.1987871390207 L1346.7006492425157,-774.0573337959811 L1346.7720372077818,-773.917838007114 L1346.8483128358043,-773.7806358299935 L1346.9292923719145,-773.6460577966816 L1347.014780729317,-773.5144281174482 L1347.1045719590709,-773.3860638997199 L1347.1984497462388,-773.2612743841408 L1347.2961879310087,-773.1403601995842 L1347.3975510535329,-773.0236126389112 L1347.5022949211705,-772.9113129572216 L1347.6101671967701,-772.8037316942849 L1347.7209080065716,-772.7011280227864 L1347.8342505662638,-772.6037491239579 L1347.949921823693,-772.5118295920959 L1348.0676431166687,-772.4255908694039 L1348.1871308442846,-772.3452407125185 L1348.3080971501392,-772.2709726920056 L1348.4302506158065,-772.2029657260315 L1348.5532969628878,-772.1413836493341 L1348.6769397619557,-772.0863748185301 L1348.8008811466775,-772.038071754711 " />
			<path d="M9.138915406435899,54.04715118344405 L-15.804618007644766,45.01251732036399 " />
			<path d="M1373.744414560758,-763.0034378916309 L1348.8008811466773,-772.0380717547109 " />
			<path d="M-309.1278694849554,-137.15873336764818 L-309.1278694849554,-64.06204875606804 " />
			<path d="M1055.4779321746582,-954.2092127728073 L1055.4779321746582,-881.112528161227 " />
			<path d="M-311.6537965805597,-62.14511577165559 L-311.54196200619924,-62.10738579446767 L-311.43034676264347,-62.0752836253209 L-311.3191697505438,-62.048872223229786 L-311.2086490110888,-62.028203386433894 L-311.0990012983804,-62.0133176508107 L-310.9904416543338,-62.004244210376385 L-310.88318298693565,-62.00100086003027 L-310.7774356526878,-62.00359396065534 L-310.6734070440539,-62.01201842664322 L-310.5713011827202,-62.02625773586815 L-310.47131831946655,-62.04628396209024 L-310.373654541433,-62.07205782972468 L-310.27850138755235,-62.10352879086925 L-310.1860454729026,-62.14063512443931 L-310.09646812271575,-62.1833040572156 L-310.0099450167618,-62.231451906567656 " />
			<path d="M-310.0099450167618,-62.231451906567656 L-309.9588762286173,-62.263382729498275 L-309.90903773455585,-62.297283252077314 L-309.8604657109111,-62.33312886688752 L-309.81319541472226,-62.370893554624935 L-309.76726115814193,-62.41054990298561 L-309.7226962835298,-62.45206912656338 L-309.6795331392505,-62.49542108774439 L-309.6378030561928,-62.54057431858309 L-309.59753632502736,-62.58749604364395 L-309.5587621742198,-62.63615220379221 L-309.5215087488143,-62.68650748091637 L-309.48580309000425,-62.73852532356467 L-309.4516711155034,-62.79216797347672 L-309.41913760073345,-62.847396492991095 L-309.38822616083985,-62.904170793309106 L-309.3589592335505,-62.96244966359413 L-309.3313580628887,-63.02219080088532 L-309.3054426837527,-63.08335084080414 L-309.28123190737324,-63.145885389031335 L-309.25874330765856,-63.20974905353148 L-309.23799320843847,-63.274895477501744 L-309.2189966716149,-63.341277373021 L-309.18631815845316,-63.477553978030976 L-309.16080263253815,-63.61818326324426 L-309.14252416438046,-63.7627569876941 L-309.13153581561306,-63.91085545987066 L-309.12786948495545,-64.06204875606802 " />
			<path d="M-309.12786948495545,-137.15873336764818 L-309.13091207476464,-137.298786855023 L-309.1400325143269,-137.4407070151141 L-309.1552088317044,-137.58415194982504 L-309.17640446581936,-137.72877608774388 L-309.20356835453265,-137.87423101665473 L-309.23663505765705,-138.02016632289352 L-309.2755249146085,-138.1662304355251 L-309.32014423631523,-138.31207147330844 L-309.37038553092304,-138.45733809240932 L-309.4261277627526,-138.60168033281852 L-309.487236643885,-138.74475046143598 L-309.55356495767313,-138.88620380979043 L-309.62495291339934,-139.02569960437577 L-309.7012285312254,-139.1629017876045 L-309.78220805650716,-139.29747982739974 L-309.8676964024751,-139.42910951347596 L-309.95748762021594,-139.55747373839003 L-310.05136539482135,-139.6822632614807 L-310.14910356650967,-139.8031774538566 L-310.2504666754643,-139.91992502263747 L-310.3552105290775,-140.03222471270425 L-310.46308279023145,-140.13980598426724 L-310.57382358520056,-140.24240966462028 L-310.68716612970985,-140.33978857251034 L-310.8028373716421,-140.43170811361898 L-310.9205586488439,-140.51794684572042 L-311.0400463604472,-140.5982970121554 L-311.161012650089,-140.67256504233518 L-311.283166099382,-140.7405720180699 L-311.4062124299676,-140.80215410459837 L-311.5298552124578,-140.85716294528012 L-311.6537965805597,-140.9054660189998 " />
			<path d="M-311.65379658055963,-140.9054660189998 L-336.59732664965156,-149.94010187451192 " />
			<path d="M-336.59732664965156,-149.94010187451192 L-336.709161224012,-149.97783185169985 L-336.8207764675678,-150.00993402084663 L-336.93195347966747,-150.03634542293773 L-337.0424742191224,-150.05701425973362 L-337.15212193183083,-150.07189999535683 L-337.26068157587747,-150.08097343579112 L-337.3679402432756,-150.08421678613726 L-337.47368757752344,-150.0816236855122 L-337.5777161861574,-150.0731992195243 L-337.67982204749103,-150.05895991029936 L-337.7798049107447,-150.03893368407728 L-337.87746868877827,-150.01315981644285 L-337.97262184265884,-149.98168885529827 L-338.06507775730864,-149.94458252172822 L-338.1546551074955,-149.9019135889519 L-338.2411782134495,-149.85376573959988 " />
			<path d="M-338.2411782134495,-149.85376573959985 L-338.2922470015939,-149.82183491666925 L-338.3420854956554,-149.7879343940902 L-338.39065751930013,-149.75208877928 L-338.437927815489,-149.71432409154258 L-338.4838620720693,-149.6746677431819 L-338.52842694668146,-149.63314851960413 L-338.57159009096074,-149.58979655842313 L-338.61332017401844,-149.54464332758442 L-338.6535869051839,-149.49772160252357 L-338.69236105599146,-149.4490654423753 L-338.72961448139694,-149.39871016525115 L-338.765320140207,-149.34669232260285 L-338.79945211470783,-149.2930496726908 L-338.8319856294778,-149.23782115317644 L-338.8628970693714,-149.1810468528584 L-338.89216399666077,-149.12276798257338 L-338.91976516732257,-149.0630268452822 L-338.94568054645856,-149.0018668053634 L-338.969891322838,-148.9393322571362 L-338.9923799225527,-148.87546859263605 L-339.0131300217728,-148.81032216866578 L-339.03212655859636,-148.7439402731465 L-339.0648050717581,-148.60766366813655 L-339.0903205976731,-148.46703438292326 L-339.1085990658308,-148.32246065847343 L-339.1195874145982,-148.17436218629686 L-339.1232537452558,-148.02316889009947 " />
			<path d="M1026.3646234461642,-966.9042451447589 L1026.3135546580197,-966.8723143218283 L1026.2637161639582,-966.8384137992492 L1026.2151441403134,-966.802568184439 L1026.1678738441246,-966.7648034967017 L1026.1219395875444,-966.725147148341 L1026.0773747129322,-966.6836279247632 L1026.0342115686528,-966.6402759635822 L1025.9924814855951,-966.5951227327434 L1025.9522147544296,-966.5482010076826 L1025.9134406036221,-966.4995448475344 L1025.8761871782167,-966.4491895704102 L1025.8404815194065,-966.3971717277619 L1025.8063495449057,-966.3435290778499 L1025.7738160301358,-966.2883005583354 L1025.7429045902422,-966.2315262580174 L1025.7136376629528,-966.1732473877324 L1025.686036492291,-966.1135062504412 L1025.6601211131551,-966.0523462105224 L1025.6359103367756,-965.9898116622952 L1025.613421737061,-965.9259479977951 L1025.5926716378408,-965.8608015738248 L1025.5736751010172,-965.7944196783055 L1025.5409965878555,-965.6581430732956 L1025.5154810619404,-965.5175137880823 L1025.4972025937827,-965.3729400636324 L1025.4862142450154,-965.224841591456 L1025.4825479143578,-965.0736482952585 " />
			<path d="M-339.12325374525585,-148.02316889009947 L-339.12325374525585,-74.92648427851933 " />
			<path d="M1025.4825479143576,-965.0736482952585 L1025.4825479143576,-891.9769636836783 " />
			<path d="M-339.1232537452558,-74.92648427851933 L-339.1202111554466,-74.78643079114451 L-339.11109071588436,-74.64451063105342 L-339.09591439850686,-74.50106569634245 L-339.0747187643919,-74.35644155842364 L-339.0475548756786,-74.21098662951279 L-339.0144881725542,-74.06505132327399 L-338.9755983156027,-73.91898721064241 L-338.930978993896,-73.77314617285907 L-338.8807376992882,-73.62787955375818 L-338.8249954674586,-73.48353731334898 L-338.76388658632624,-73.34046718473151 L-338.6975582725381,-73.19901383637709 L-338.6261703168119,-73.05951804179173 L-338.54989469898584,-72.92231585856298 L-338.4689151737041,-72.78773781876775 L-338.3834268277362,-72.65610813269153 L-338.2936356099953,-72.52774390777749 L-338.1997578353899,-72.40295438468682 L-338.1020196637016,-72.28204019231092 L-338.00065655474697,-72.16529262353004 L-337.89591270113374,-72.05299293346327 L-337.7880404399798,-71.94541166190027 L-337.6772996450107,-71.84280798154724 L-337.5639571005014,-71.74542907365716 L-337.44828585856914,-71.65350953254854 L-337.33056458136736,-71.5672708004471 L-337.211076869764,-71.48692063401211 L-337.09011058012226,-71.41265260383233 L-336.96795713082923,-71.34464562809758 L-336.84491080024367,-71.28306354156913 L-336.72126801775346,-71.22805470088737 L-336.59732664965156,-71.17975162716772 " />
			<path d="M1025.4825479143578,-891.9769636836784 L1025.485590504167,-891.8369101963035 L1025.4947109437292,-891.6949900362125 L1025.5098872611068,-891.5515451015015 L1025.5310828952217,-891.4069209635827 L1025.558246783935,-891.2614660346718 L1025.5913134870593,-891.1155307284331 L1025.6302033440109,-890.9694666158015 L1025.6748226657176,-890.8236255780181 L1025.7250639603253,-890.6783589589172 L1025.7808061921548,-890.534016718508 L1025.8419150732873,-890.3909465898905 L1025.9082433870753,-890.2494932415361 L1025.9796313428017,-890.1099974469507 L1026.0559069606277,-889.972795263722 L1026.1368864859094,-889.8382172239268 L1026.2223748318775,-889.7065875378506 L1026.3121660496183,-889.5782233129365 L1026.4060438242236,-889.4534337898459 L1026.503781995912,-889.33251959747 L1026.6051451048666,-889.2157720286891 L1026.70988895848,-889.1034723386223 L1026.817761219634,-888.9958910670593 L1026.9285020146028,-888.8932873867063 L1027.0418445591122,-888.7959084788162 L1027.1575158010444,-888.7039889377075 L1027.2752370782462,-888.6177502056062 L1027.3947247898495,-888.5374000391712 L1027.5156910794913,-888.4631320089914 L1027.6378445287844,-888.3951250332566 L1027.76089085937,-888.3335429467281 L1027.8845336418601,-888.2785341060464 L1028.008475009962,-888.2302310323267 " />
			<path d="M-311.65379658055963,-62.14511577165556 L-336.59732664965156,-71.17975162716769 " />
			<path d="M1052.9520050790538,-879.1955951768145 L1028.0084750099618,-888.2302310323266 " />
			<path d="M-629.9206106266943,-253.3510122182851 L-629.9206106266943,-180.25432760670495 " />
			<path d="M734.6851910329192,-1070.4014916234441 L734.6851910329192,-997.3048070118639 " />
			<path d="M-632.4465377222986,-178.33739462229252 L-632.3347031479382,-178.2996646451046 L-632.2230879043823,-178.26756247595782 L-632.1119108922827,-178.24115107386672 L-632.0013901528278,-178.22048223707083 L-631.8917424401193,-178.20559650144762 L-631.7831827960727,-178.19652306101332 L-631.6759241286745,-178.19327971066718 L-631.5701767944266,-178.19587281129225 L-631.4661481857928,-178.20429727728015 L-631.3640423244591,-178.21853658650508 L-631.2640594612054,-178.23856281272717 L-631.1663956831719,-178.2643366803616 L-631.0712425292912,-178.29580764150617 L-630.9787866146414,-178.33291397507622 L-630.8892092644546,-178.37558290785253 L-630.8026861585006,-178.42373075720457 " />
			<path d="M-630.8026861585006,-178.4237307572046 L-630.7516173703561,-178.4556615801352 L-630.7017788762947,-178.48956210271425 L-630.65320685265,-178.52540771752444 L-630.6059365564612,-178.56317240526187 L-630.5600022998808,-178.60282875362253 L-630.5154374252687,-178.6443479772003 L-630.4722742809894,-178.68769993838131 L-630.4305441979317,-178.73285316922002 L-630.3902774667663,-178.77977489428088 L-630.3515033159587,-178.82843105442913 L-630.3142498905532,-178.8787863315533 L-630.2785442317431,-178.9308041742016 L-630.2444122572423,-178.98444682411363 L-630.2118787424723,-179.039675343628 L-630.1809673025788,-179.09644964394604 L-630.1517003752894,-179.15472851423107 L-630.1240992046276,-179.21446965152225 L-630.0981838254916,-179.27562969144105 L-630.073973049112,-179.33816423966826 L-630.0514844493974,-179.4020279041684 L-630.0307343501773,-179.46717432813867 L-630.0117378133538,-179.53355622365794 L-629.979059300192,-179.6698328286679 L-629.953543774277,-179.8104621138812 L-629.9352653061193,-179.955035838331 L-629.9242769573519,-180.10313431050758 L-629.9206106266943,-180.25432760670495 " />
			<path d="M-629.9206106266943,-253.35101221828515 L-629.9236532165035,-253.49106570565996 L-629.9327736560657,-253.63298586575107 L-629.9479499734433,-253.776430800462 L-629.9691456075582,-253.92105493838085 L-629.9963094962715,-254.0665098672917 L-630.029376199396,-254.21244517353048 L-630.0682660563474,-254.35850928616208 L-630.1128853780541,-254.5043503239454 L-630.163126672662,-254.64961694304628 L-630.2188689044915,-254.79395918345548 L-630.2799777856239,-254.93702931207295 L-630.346306099412,-255.0784826604274 L-630.4176940551382,-255.21797845501274 L-630.4939696729643,-255.35518063824148 L-630.574949198246,-255.4897586780367 L-630.660437544214,-255.62138836411293 L-630.7502287619548,-255.749752589027 L-630.8441065365603,-255.87454211211767 L-630.9418447082485,-255.99545630449356 L-631.0432078172032,-256.11220387327444 L-631.1479516708164,-256.2245035633412 L-631.2558239319703,-256.3320848349042 L-631.3665647269394,-256.4346885152572 L-631.4799072714487,-256.53206742314734 L-631.595578513381,-256.62398696425595 L-631.7132997905828,-256.7102256963574 L-631.8327875021861,-256.79057586279237 L-631.9537537918278,-256.86484389297215 L-632.075907241121,-256.9328508687069 L-632.1989535717065,-256.99443295523537 L-632.3225963541967,-257.0494417959171 L-632.4465377222986,-257.09774486963676 " />
			<path d="M-632.4465377222986,-257.09774486963676 L-657.3900677913904,-266.13238072514883 " />
			<path d="M-657.3900677913905,-266.1323807251489 L-657.5019023657509,-266.1701107023368 L-657.6135176093068,-266.20221287148354 L-657.7246946214063,-266.22862427357467 L-657.8352153608613,-266.24929311037056 L-657.9448630735698,-266.26417884599374 L-658.0534227176164,-266.2732522864281 L-658.1606813850145,-266.2764956367742 L-658.2664287192624,-266.27390253614914 L-658.3704573278962,-266.26547807016124 L-658.47256318923,-266.2512387609363 L-658.5725460524836,-266.23121253471425 L-658.6702098305171,-266.20543866707976 L-658.7653629843978,-266.17396770593524 L-658.8578188990476,-266.13686137236516 L-658.9473962492344,-266.0941924395889 L-659.0339193551885,-266.0460445902368 " />
			<path d="M-659.0339193551885,-266.0460445902368 L-659.0849881433329,-266.0141137673062 L-659.1348266373943,-265.98021324472717 L-659.1833986610391,-265.94436762991694 L-659.2306689572279,-265.9066029421795 L-659.2766032138082,-265.86694659381885 L-659.3211680884203,-265.8254273702411 L-659.3643312326997,-265.7820754090601 L-659.4060613157574,-265.7369221782214 L-659.4463280469228,-265.6900004531605 L-659.4851021977304,-265.64134429301225 L-659.5223556231358,-265.5909890158881 L-659.5580612819459,-265.53897117323976 L-659.5921932564468,-265.4853285233277 L-659.6247267712167,-265.4301000038134 L-659.6556382111103,-265.37332570349537 L-659.6849051383997,-265.3150468332103 L-659.7125063090615,-265.25530569591916 L-659.7384216881975,-265.19414565600033 L-659.762632464577,-265.1316111077731 L-659.7851210642916,-265.067747443273 L-659.8058711635117,-265.0026010193027 L-659.8248677003353,-264.9362191237835 L-659.857546213497,-264.7999425187735 L-659.883061739412,-264.6593132335602 L-659.9013402075698,-264.51473950911037 L-659.9123285563371,-264.3666410369338 L-659.9159948869948,-264.2154477407364 " />
			<path d="M705.571882304425,-1083.0965239953957 L705.5208135162806,-1083.064593172465 L705.4709750222191,-1083.030692649886 L705.4224029985744,-1082.9948470350757 L705.3751327023856,-1082.9570823473384 L705.3291984458052,-1082.9174259989777 L705.2846335711931,-1082.8759067754 L705.2414704269138,-1082.8325548142188 L705.1997403438561,-1082.7874015833802 L705.1594736126907,-1082.7404798583193 L705.1206994618831,-1082.6918236981712 L705.0834460364777,-1082.641468421047 L705.0477403776675,-1082.5894505783986 L705.0136084031667,-1082.5358079284865 L704.9810748883967,-1082.4805794089723 L704.9501634485032,-1082.4238051086543 L704.9208965212138,-1082.3655262383693 L704.893295350552,-1082.305785101078 L704.867379971416,-1082.2446250611592 L704.8431691950365,-1082.182090512932 L704.8206805953218,-1082.1182268484317 L704.7999304961018,-1082.0530804244615 L704.7809339592782,-1081.9866985289423 L704.7482554461164,-1081.8504219239323 L704.7227399202014,-1081.7097926387191 L704.7044614520437,-1081.5652189142693 L704.6934731032763,-1081.4171204420927 L704.6898067726187,-1081.2659271458954 " />
			<path d="M-659.9159948869947,-264.2154477407364 L-659.9159948869947,-191.11876312915624 " />
			<path d="M704.6898067726188,-1081.2659271458954 L704.6898067726188,-1008.1692425343151 " />
			<path d="M-659.9159948869948,-191.11876312915624 L-659.9129522971855,-190.97870964178142 L-659.9038318576233,-190.83678948169032 L-659.8886555402457,-190.69334454697938 L-659.8674599061309,-190.54872040906054 L-659.8402960174176,-190.40326548014968 L-659.8072293142931,-190.2573301739109 L-659.7683394573417,-190.1112660612793 L-659.723720135635,-189.96542502349598 L-659.6734788410271,-189.8201584043951 L-659.6177366091976,-189.6758161639859 L-659.5566277280651,-189.53274603536843 L-659.490299414277,-189.391292687014 L-659.4189114585508,-189.25179689242864 L-659.3426358407247,-189.1145947091999 L-659.261656315443,-188.98001666940465 L-659.176167969475,-188.84838698332845 L-659.0863767517343,-188.7200227584144 L-658.9924989771288,-188.59523323532372 L-658.8947608054406,-188.47431904294783 L-658.7933976964858,-188.35757147416695 L-658.6886538428727,-188.24527178410017 L-658.5807815817187,-188.13769051253718 L-658.4700407867497,-188.03508683218413 L-658.3566982422403,-187.93770792429407 L-658.241027000308,-187.84578838318544 L-658.1233057231062,-187.759549651084 L-658.003818011503,-187.67919948464902 L-657.8828517218612,-187.60493145446924 L-657.7606982725681,-187.5369244787345 L-657.6376519419825,-187.47534239220604 L-657.5140091594924,-187.4203335515243 L-657.3900677913905,-187.37203047780463 " />
			<path d="M704.6898067726187,-1008.1692425343152 L704.692849362428,-1008.0291890469404 L704.7019698019901,-1007.8872688868494 L704.7171461193677,-1007.7438239521383 L704.7383417534826,-1007.5991998142196 L704.7655056421959,-1007.4537448853087 L704.7985723453204,-1007.30780957907 L704.8374622022718,-1007.1617454664383 L704.8820815239785,-1007.015904428655 L704.9323228185864,-1006.8706378095541 L704.9880650504159,-1006.7262955691449 L705.0491739315484,-1006.5832254405274 L705.1155022453364,-1006.441772092173 L705.1868902010626,-1006.3022762975876 L705.2631658188888,-1006.1650741143588 L705.3441453441704,-1006.0304960745636 L705.4296336901384,-1005.8988663884875 L705.5194249078792,-1005.7705021635734 L705.6133026824847,-1005.6457126404828 L705.7110408541729,-1005.5247984481068 L705.8124039631276,-1005.408050879326 L705.9171478167408,-1005.2957511892591 L706.0250200778947,-1005.1881699176962 L706.1357608728638,-1005.0855662373432 L706.2491034173731,-1004.988187329453 L706.3647746593055,-1004.8962677883444 L706.4824959365072,-1004.810029056243 L706.6019836481105,-1004.729678889808 L706.7229499377522,-1004.6554108596282 L706.8451033870454,-1004.5874038838934 L706.9681497176309,-1004.525821797365 L707.0917925001211,-1004.4708129566833 L707.215733868223,-1004.4225098829636 " />
			<path d="M-632.4465377222986,-178.3373946222925 L-657.3900677913904,-187.37203047780463 " />
			<path d="M732.1592639373149,-995.3878740274515 L707.2157338682231,-1004.4225098829636 " />
			<path d="M-950.7133517684332,-369.543291068922 L-950.7133517684332,-296.44660645734183 " />
			<path d="M-953.2392788640374,-294.5296734729294 L-953.127444289677,-294.4919434957415 L-953.0158290461211,-294.45984132659476 L-952.9046520340215,-294.4334299245036 L-952.7941312945666,-294.41276108770774 L-952.6844835818581,-294.39787535208455 L-952.5759239378115,-294.3888019116502 L-952.4686652704133,-294.3855585613041 L-952.3629179361654,-294.38815166192916 L-952.2588893275316,-294.39657612791706 L-952.1567834661979,-294.410815437142 L-952.0568006029442,-294.43084166336405 L-951.9591368249107,-294.45661553099853 L-951.86398367103,-294.48808649214305 L-951.7715277563802,-294.52519282571313 L-951.6819504061934,-294.5678617584894 L-951.5954273002394,-294.6160096078415 " />
			<path d="M-951.5954273002394,-294.6160096078415 L-951.544358512095,-294.6479404307721 L-951.4945200180335,-294.6818409533511 L-951.4459479943888,-294.71768656816135 L-951.3986776982,-294.7554512558988 L-951.3527434416196,-294.79510760425944 L-951.3081785670075,-294.8366268278372 L-951.2650154227282,-294.8799787890182 L-951.2232853396705,-294.9251320198569 L-951.1830186085051,-294.9720537449178 L-951.1442444576975,-295.02070990506604 L-951.1069910322921,-295.0710651821902 L-951.0712853734819,-295.12308302483854 L-951.0371533989811,-295.17672567475057 L-951.0046198842111,-295.2319541942649 L-950.9737084443176,-295.2887284945829 L-950.9444415170282,-295.347007364868 L-950.9168403463664,-295.40674850215913 L-950.8909249672304,-295.46790854207796 L-950.8667141908509,-295.5304430903052 L-950.8442255911363,-295.5943067548053 L-950.8234754919162,-295.6594531787756 L-950.8044789550926,-295.7258350742948 L-950.7718004419308,-295.8621116793048 L-950.7462849160158,-296.00274096451807 L-950.7280064478581,-296.1473146889679 L-950.7170180990908,-296.2954131611445 L-950.7133517684331,-296.44660645734183 " />
			<path d="M-950.7133517684331,-369.54329106892203 L-950.7163943582423,-369.68334455629684 L-950.7255147978045,-369.82526471638795 L-950.7406911151821,-369.9687096510989 L-950.761886749297,-370.1133337890177 L-950.7890506380103,-370.25878871792855 L-950.8221173411348,-370.40472402416736 L-950.8610071980862,-370.55078813679893 L-950.9056265197929,-370.69662917458226 L-950.9558678144008,-370.8418957936832 L-951.0116100462303,-370.98623803409237 L-951.0727189273628,-371.12930816270983 L-951.1390472411508,-371.2707615110643 L-951.210435196877,-371.4102573056496 L-951.2867108147032,-371.54745948887836 L-951.3676903399848,-371.6820375286736 L-951.4531786859528,-371.81366721474984 L-951.5429699036936,-371.9420314396639 L-951.6368476782991,-372.06682096275455 L-951.7345858499873,-372.18773515513044 L-951.835948958942,-372.3044827239113 L-951.9406928125552,-372.41678241397807 L-952.0485650737091,-372.5243636855411 L-952.1593058686782,-372.62696736589413 L-952.2726484131875,-372.7243462737842 L-952.3883196551199,-372.8162658148928 L-952.5060409323216,-372.90250454699424 L-952.6255286439249,-372.9828547134293 L-952.7464949335666,-373.05712274360906 L-952.8686483828598,-373.12512971934376 L-952.9916947134453,-373.1867118058722 L-953.1153374959355,-373.241720646554 L-953.2392788640374,-373.29002372027367 " />
			<path d="M-953.2392788640375,-373.29002372027367 L-978.1828089331293,-382.32465957578574 " />
			<path d="M-978.1828089331293,-382.32465957578574 L-978.2946435074897,-382.36238955297364 L-978.4062587510456,-382.3944917221204 L-978.5174357631452,-382.4209031242115 L-978.6279565026001,-382.4415719610074 L-978.7376042153086,-382.4564576966306 L-978.8461638593552,-382.46553113706494 L-978.9534225267533,-382.46877448741105 L-979.0591698610012,-382.466181386786 L-979.1631984696351,-382.4577569207981 L-979.2653043309688,-382.44351761157316 L-979.3652871942224,-382.4234913853511 L-979.462950972256,-382.3977175177166 L-979.5581041261366,-382.3662465565721 L-979.6505600407864,-382.329140223002 L-979.7401373909732,-382.28647129022573 L-979.8266604969273,-382.23832344087367 " />
			<path d="M-979.8266604969273,-382.23832344087367 L-979.8777292850717,-382.20639261794304 L-979.9275677791331,-382.172492095364 L-979.9761398027779,-382.1366464805538 L-980.0234100989667,-382.09888179281637 L-980.0693443555471,-382.0592254444557 L-980.1139092301592,-382.0177062208779 L-980.1570723744385,-381.97435425969695 L-980.1988024574962,-381.92920102885824 L-980.2390691886616,-381.88227930379736 L-980.2778433394692,-381.8336231436491 L-980.3150967648746,-381.78326786652497 L-980.3508024236847,-381.7312500238766 L-980.3849343981856,-381.6776073739646 L-980.4174679129555,-381.62237885445023 L-980.4483793528491,-381.5656045541322 L-980.4776462801385,-381.50732568384717 L-980.5052474508003,-381.447584546556 L-980.5311628299363,-381.3864245066372 L-980.5553736063158,-381.32388995840995 L-980.5778622060304,-381.26002629390985 L-980.5986123052505,-381.19487986993954 L-980.6176088420741,-381.1284979744203 L-980.6502873552358,-380.99222136941034 L-980.6758028811508,-380.8515920841971 L-980.6940813493086,-380.7070183597472 L-980.7050696980759,-380.55891988757065 L-980.7087360287336,-380.40772659137326 " />
			<path d="M384.77914116268624,-1199.2888028460327 L384.7280723745418,-1199.256872023102 L384.6782338804803,-1199.222971500523 L384.6296618568356,-1199.1871258857127 L384.5823915606467,-1199.1493611979754 L384.5364573040664,-1199.1097048496147 L384.49189242945425,-1199.068185626037 L384.448729285175,-1199.0248336648558 L384.4069992021173,-1198.9796804340172 L384.36673247095183,-1198.9327587089563 L384.32795832014426,-1198.8841025488082 L384.2907048947388,-1198.833747271684 L384.2549992359287,-1198.7817294290355 L384.2208672614279,-1198.7280867791235 L384.1883337466579,-1198.6728582596093 L384.1574223067643,-1198.6160839592912 L384.12815537947495,-1198.5578050890063 L384.10055420881315,-1198.498063951715 L384.07463882967716,-1198.4369039117962 L384.0504280532977,-1198.374369363569 L384.02793945358303,-1198.3105056990687 L384.00718935436294,-1198.2453592750985 L383.98819281753936,-1198.1789773795792 L383.95551430437763,-1198.0427007745693 L383.9299987784626,-1197.902071489356 L383.91172031030493,-1197.7574977649062 L383.90073196153753,-1197.6093992927297 L383.8970656308799,-1197.4582059965323 " />
			<path d="M-980.7087360287336,-380.40772659137326 L-980.7087360287336,-307.3110419797931 " />
			<path d="M383.89706563087987,-1197.4582059965323 L383.89706563087987,-1124.361521384952 " />
			<path d="M-980.7087360287336,-307.3110419797931 L-980.7056934389243,-307.1709884924183 L-980.6965729993622,-307.0290683323272 L-980.6813966819846,-306.88562339761626 L-980.6602010478697,-306.74099925969745 L-980.6330371591564,-306.5955443307866 L-980.5999704560319,-306.4496090245478 L-980.5610805990805,-306.3035449119162 L-980.5164612773738,-306.1577038741329 L-980.4662199827659,-306.01243725503195 L-980.4104777509364,-305.8680950146228 L-980.3493688698039,-305.7250248860053 L-980.2830405560159,-305.58357153765087 L-980.2116526002897,-305.4440757430655 L-980.1353769824635,-305.3068735598368 L-980.0543974571818,-305.17229552004153 L-979.9689091112139,-305.0406658339653 L-979.8791178934731,-304.91230160905127 L-979.7852401188676,-304.7875120859606 L-979.6875019471794,-304.6665978935847 L-979.5861388382247,-304.54985032480386 L-979.4813949846115,-304.4375506347371 L-979.3735227234575,-304.32996936317403 L-979.2627819284885,-304.227365682821 L-979.1494393839791,-304.12998677493096 L-979.0337681420468,-304.03806723382235 L-978.916046864845,-303.9518285017209 L-978.7965591532418,-303.8714783352859 L-978.6755928636001,-303.7972103051061 L-978.5534394143069,-303.7292033293714 L-978.4303930837214,-303.6676212428429 L-978.3067503012312,-303.6126124021612 L-978.1828089331293,-303.5643093284415 " />
			<path d="M383.8970656308799,-1124.3615213849523 L383.9001082206891,-1124.2214678975774 L383.90922866025136,-1124.0795477374863 L383.92440497762885,-1123.9361028027754 L383.9456006117438,-1123.7914786648564 L383.9727645004571,-1123.6460237359456 L384.0058312035815,-1123.500088429707 L384.044721060533,-1123.3540243170753 L384.0893403822397,-1123.208183279292 L384.1395816768475,-1123.0629166601911 L384.1953239086771,-1122.9185744197819 L384.2564327898095,-1122.7755042911645 L384.3227611035976,-1122.63405094281 L384.3941490593238,-1122.4945551482247 L384.4704246771499,-1122.357352964996 L384.5514042024316,-1122.2227749252006 L384.63689254839954,-1122.0911452391244 L384.7266837661404,-1121.9627810142103 L384.8205615407458,-1121.8379914911197 L384.91829971243413,-1121.7170772987438 L385.01966282138875,-1121.6003297299628 L385.124406675002,-1121.488030039896 L385.2322789361559,-1121.380448768333 L385.343019731125,-1121.27784508798 L385.4563622756343,-1121.18046618009 L385.5720335175666,-1121.0885466389814 L385.68975479476836,-1121.0023079068799 L385.80924250637173,-1120.921957740445 L385.93020879601346,-1120.8476897102653 L386.0523622453065,-1120.7796827345305 L386.17540857589205,-1120.718100648002 L386.29905135838226,-1120.6630918073201 L386.42299272648415,-1120.6147887336006 " />
			<path d="M-953.2392788640375,-294.5296734729294 L-978.1828089331293,-303.5643093284415 " />
			<path d="M411.36652279557603,-1111.5801528780883 L386.4229927264841,-1120.6147887336003 " />
			<path d="M-1281.6097262771934,-489.3951403480631 L-1281.609726274551,-416.2984557355258 " />
			<path d="M-1284.13565307108,-414.3815229299699 L-1284.0238185252106,-414.3437929496287 L-1283.9122033100305,-414.311690775799 L-1283.8010263260755,-414.28527936748714 L-1283.6905056144196,-414.26461052293087 L-1283.5808579290508,-414.2497247780117 L-1283.4722983117722,-414.24065132675616 L-1283.36503967046,-414.23740796408 L-1283.259292361507,-414.24000105088845 L-1283.155263777271,-414.2484255016018 L-1283.0531579393348,-414.2626647941287 L-1282.9531750983776,-414.2826910022696 L-1282.855511341442,-414.3084648504859 L-1282.7603582073675,-414.33993579092726 L-1282.667902311142,-414.3770421025665 L-1282.5783249779117,-414.4197110122472 L-1282.4918018873661,-414.46785883740705 " />
			<path d="M-1282.4918018873661,-414.46785883740705 L-1282.440733095257,-414.4997896533012 L-1282.390894597234,-414.5336901694559 L-1282.3423225696415,-414.56953577845303 L-1282.29505226953,-414.60730046098706 L-1282.2491180090624,-414.64695680475165 L-1282.2045531306085,-414.68847602433755 L-1282.1613899825434,-414.73182798212696 L-1282.1196598957652,-414.7769812101698 L-1282.0793931609544,-414.82390293302524 L-1282.0406190065855,-414.8725590915524 L-1282.003365577712,-414.92291436763304 L-1281.9676599155357,-414.974932209808 L-1281.9335279377783,-415.02857485980877 L-1281.90099441987,-415.0838033799651 L-1281.8700829769632,-415.1405776814688 L-1281.8408160467934,-415.19885655347326 L-1281.8132148733907,-415.2585976930068 L-1281.7872994916597,-415.3197577356795 L-1281.7630887128375,-415.3822922871602 L-1281.740600110838,-415.44615595540097 L-1281.719850009496,-415.5113023835858 L-1281.7008534707188,-415.5776842837799 L-1281.6681749541715,-415.7139608994631 L-1281.642659425592,-415.85459019701375 L-1281.624380955515,-415.9991639353376 L-1281.6133926055916,-416.14726242279056 L-1281.609726274551,-416.2984557355258 " />
			<path d="M-1281.6097262771934,-489.395140348063 L-1281.6127688666477,-489.53519383565515 L-1281.6218893051353,-489.677113996394 L-1281.6370656207216,-489.8205589321816 L-1281.6582612523327,-489.96518307160335 L-1281.6854251378356,-490.1106380024398 L-1281.7184918370513,-490.25657331102224 L-1281.7573816894044,-490.40263742640985 L-1281.8020010058344,-490.5484784673549 L-1281.8522422945002,-490.69374509001574 L-1281.9079845197366,-490.8380873343744 L-1281.9690933936404,-490.98115746732134 L-1282.035421699582,-491.1226108203749 L-1282.1068096468628,-491.2621066200176 L-1282.1830852556648,-491.3993088086499 L-1282.2640647713654,-491.53388685418173 L-1282.3495531072183,-491.66551654631377 L-1282.439344314335,-491.79388077758836 L-1282.533222077832,-491.9186703073289 L-1282.630960237955,-492.03958450662805 L-1282.732323334915,-492.1563320825888 L-1282.8370671761334,-492.2686317800748 L-1282.9449394245219,-492.37621305927854 L-1283.0556802063857,-492.4788167474754 L-1283.1690227374816,-492.57619566339343 L-1283.2846939657247,-492.6681152126949 L-1283.4024152289942,-492.7543539531343 L-1283.5219029264563,-492.83470412803223 L-1283.6428692017812,-492.9089721667796 L-1283.765022636617,-492.97697915116595 L-1283.888068952639,-493.03856124640913 L-1284.0117117204952,-493.0935700958477 L-1284.1356530739272,-493.14187317834535 " />
			<path d="M-1284.1356530739272,-493.1418731783454 L-1309.079180190662,-502.176510800432 " />
			<path d="M-1309.079180190662,-502.17651080043197 L-1309.1910147365315,-502.21424078077314 L-1309.3026299517117,-502.2463429546029 L-1309.4138069356666,-502.2727543629147 L-1309.5243276473225,-502.293423207471 L-1309.6339753326913,-502.3083089523902 L-1309.74253494997,-502.3173824036457 L-1309.8497935912822,-502.3206257663219 L-1309.955540900235,-502.3180326795134 L-1310.059569484471,-502.3096082288001 L-1310.1616753224073,-502.2953689362732 L-1310.2616581633645,-502.2753427281323 L-1310.3593219203,-502.24956887991596 L-1310.4544750543746,-502.2180979394746 L-1310.5469309506002,-502.18099162783534 L-1310.6365082838304,-502.13832271815465 L-1310.723031374376,-502.0901748929948 " />
			<path d="M-1310.723031374376,-502.0901748929948 L-1310.7741001664851,-502.05824407710065 L-1310.8239386645082,-502.02434356094597 L-1310.8725106921006,-501.98849795194883 L-1310.919780992212,-501.9507332694148 L-1310.9657152526797,-501.9110769256502 L-1311.0102801311336,-501.8695577060643 L-1311.0534432791987,-501.8262057482749 L-1311.095173365977,-501.78105252023204 L-1311.1354401007877,-501.7341307973766 L-1311.1742142551566,-501.6854746388495 L-1311.2114676840301,-501.6351193627688 L-1311.2471733462064,-501.58310152059386 L-1311.2813053239638,-501.5294588705931 L-1311.3138388418722,-501.47423035043676 L-1311.344750284779,-501.41745604893305 L-1311.3740172149487,-501.3591771769286 L-1311.4016183883514,-501.2994360373951 L-1311.4275337700824,-501.23827599472236 L-1311.4517445489046,-501.17574144324163 L-1311.4742331509042,-501.1118777750009 L-1311.4949832522461,-501.04673134681605 L-1311.5139797910233,-500.980349446622 L-1311.5466583075706,-500.8440728309388 L-1311.5721738361501,-500.7034435333881 L-1311.590452306227,-500.55886979506425 L-1311.6014406561505,-500.4107713076113 L-1311.6051069871912,-500.25957799487605 " />
			<path d="M53.88303728264252,-1319.1405575907236 L53.831968490533384,-1319.1086267748294 L53.782129992510285,-1319.0747262586747 L53.73355796491798,-1319.0388806496776 L53.68628766480643,-1319.0011159671435 L53.640353404338754,-1318.961459623379 L53.59578852588498,-1318.9199404037931 L53.55262537781976,-1318.8765884460036 L53.51089529104164,-1318.8314352179607 L53.47062855623084,-1318.7845134951053 L53.43185440186209,-1318.7358573365782 L53.39460097298854,-1318.6855020604976 L53.35889531081207,-1318.6334842183226 L53.32476333305483,-1318.5798415683219 L53.292229815146335,-1318.5246130481655 L53.26131837223964,-1318.4678387466618 L53.232051442069846,-1318.4095598746574 L53.20445026866712,-1318.3498187351238 L53.17853488693626,-1318.2886586924512 L53.15432410811402,-1318.2261241409703 L53.13183550611444,-1318.1622604727297 L53.11108540477254,-1318.097114044545 L53.092088865995265,-1318.0307321443506 L53.05941034944798,-1317.8944555286675 L53.03389482086843,-1317.7538262311168 L53.01561635079162,-1317.609252492793 L53.00462800086793,-1317.4611540053402 L53.000961669827404,-1317.3099606926048 " />
			<path d="M-1311.605106987191,-500.25957799487605 L-1311.6051069845485,-427.1628933823388 " />
			<path d="M53.000961669827376,-1317.3099606926048 L53.000961672469856,-1244.2132760800673 " />
			<path d="M-1311.6051069845487,-427.1628933823388 L-1311.6020643950944,-427.02283989474665 L-1311.5929439566069,-426.8809197340078 L-1311.5777676410205,-426.7374747982202 L-1311.5565720094094,-426.59285065879845 L-1311.5294081239065,-426.447395727962 L-1311.4963414246909,-426.30146041937957 L-1311.4574515723377,-426.15539630399195 L-1311.4128322559077,-426.0095552630469 L-1311.3625909672419,-425.86428864038606 L-1311.3068487420055,-425.7199463960274 L-1311.2457398681017,-425.57687626308046 L-1311.17941156216,-425.4354229100269 L-1311.1080236148794,-425.2959271103842 L-1311.0317480060774,-425.1587249217519 L-1310.9507684903767,-425.0241468762201 L-1310.8652801545238,-424.89251718408804 L-1310.7754889474072,-424.76415295281345 L-1310.68161118391,-424.6393634230729 L-1310.5838730237872,-424.51844922377376 L-1310.482509926827,-424.401701647813 L-1310.3777660856088,-424.289401950327 L-1310.2698938372203,-424.18182067112326 L-1310.1591530553565,-424.0792169829264 L-1310.0458105242606,-423.98183806700837 L-1309.9301392960174,-423.8899185177069 L-1309.812418032748,-423.8036797772675 L-1309.6929303352858,-423.7233296023696 L-1309.571964059961,-423.6490615636222 L-1309.449810625125,-423.58105457923585 L-1309.326764309103,-423.5194724839927 L-1309.203121541247,-423.4644636345541 L-1309.079180187815,-423.41616055205645 " />
			<path d="M53.000961672469714,-1244.2132760800675 L53.004004261923804,-1244.0732225924753 L53.013124700411545,-1243.9313024317366 L53.02830101599776,-1243.7878574959489 L53.04949664760892,-1243.6432333565272 L53.07666053311195,-1243.4977784256907 L53.109727232327394,-1243.3518431171083 L53.148617084680545,-1243.2057790017207 L53.19323640111074,-1243.0599379607756 L53.2434776897765,-1242.9146713381149 L53.29921991501281,-1242.7703290937561 L53.36032878891665,-1242.6272589608093 L53.426657094858264,-1242.4858056077558 L53.49804504213897,-1242.346309808113 L53.574320650940926,-1242.2091076194806 L53.655300166641574,-1242.074529573949 L53.74078850249462,-1241.9428998818169 L53.8305797096111,-1241.8145356505422 L53.92445747310829,-1241.6897461208016 L54.022195633231206,-1241.5688319215026 L54.123558730191256,-1241.4520843455418 L54.228302571409515,-1241.3397846480557 L54.336174819797996,-1241.232203368852 L54.44691560166186,-1241.1295996806552 L54.56025813275782,-1241.032220764737 L54.675929361000854,-1240.9403012154357 L54.79365062427052,-1240.8540624749962 L54.91313832173243,-1240.7737123000984 L55.034104597057514,-1240.699444261351 L55.156258031893124,-1240.6314372769646 L55.27930434791536,-1240.5698551817216 L55.40294711577134,-1240.5148463322828 L55.526888469203456,-1240.4665432497852 " />
			<path d="M-1284.13565307108,-414.38152292996983 L-1309.079180187815,-423.41616055205645 " />
			<path d="M80.47041558593855,-1231.4319056276986 L55.52688846920364,-1240.466543249785 " />
			<path d="M54.52089855436793,-1242.031831480043 L82.53960801793346,-1231.8901157517644 " />
			<path d="M304.8400982746864,-1151.4257252925038 L413.48380167606956,-1112.1008036005533 " />
			<path d="M625.713414988965,-1035.28169063817 L734.3199001816519,-995.9702405335888 " />
			<path d="M946.5867317032433,-919.1376559838362 L1055.152979594672,-879.8407702642268 " />
			<path d="M1267.4597328705968,-802.9937355455843 L1375.982871015927,-763.7124539276061 " />
			<path d="M11.444752868377364,53.56445436616239 L10.782767401734057,53.96081479107291 " />
			<path d="M11.664871656783497,-51.0929614771346 L-17.448469979727843,-33.661496523492765 " />
			<path d="M-183.1616404237281,-138.18120087687288 L-310.0099450167617,-62.23145190656765 " />
			<path d="M-291.93504489192003,-177.57931723860506 L-338.24117821344953,-149.85376573959985 " />
			<path d="M-503.9543815654671,-254.37347972750982 L-630.8026861585007,-178.4237307572046 " />
			<path d="M-612.7277860336588,-293.771596089242 L-659.0339193551883,-266.04604459023676 " />
			<path d="M-824.7471227072058,-370.5657585781467 L-951.5954273002394,-294.6160096078415 " />
			<path d="M-933.5205271753978,-409.9638749398789 L-979.8266604969273,-382.2383234408737 " />
			<path d="M-1155.6434705891713,-490.4175999474969 L-1282.491801887366,-414.467858837407 " />
			<path d="M-1264.4168908176284,-529.8157220176536 L-1310.7230313743762,-502.0901748929948 " />

       </g>

       <!-- solid lines -->
       <g  stroke="rgb(0,0,0)" fill="none">
			<path d="M11.664871656783491,-66.09879005200627 L11.664871656783491,52.1302300945689 " />
			<path d="M9.700261693535746,56.138362698340394 L9.796660535392787,56.077233336886195 L9.892827143996254,56.00942910812049 L9.988529845562818,55.93511335836934 L10.083538083901843,55.85446512078319 L10.177622975845427,55.767678684030315 L10.270557862648019,55.67496312423847 L10.362118856027173,55.5765418013121 L10.452085377530047,55.472651820838834 L10.540240689926199,55.363543462881324 L10.626372419346577,55.24947957903064 L10.710273066910755,55.1307349591738 L10.791740508609928,55.007595669500844 L10.870578482241333,54.88035836334632 L10.946597060221102,54.74932956652542 L11.019613107136442,54.61482493888646 L11.089450720934881,54.477168513858636 L11.155941656687729,54.33669191782711 L11.218925731906836,54.19373357121603 L11.278251212438247,54.04863787320405 L11.333775178003066,53.901754372036564 L11.385363866504921,53.75343692293335 L11.432892996274573,53.60404283562038 L11.47624806547535,53.45393201353938 L11.51532462794809,53.303466086808875 L11.550028544831093,53.15300754102563 L11.580276211348886,53.00291884400505 L11.605994758223444,52.85356157256447 L11.627122227222667,52.70529554145295 L11.643607720423187,52.558477936525996 L11.65541152282793,52.41346245425359 L11.662505198043005,52.27059844963438 L11.664871656783491,52.13023009456891 " />
			<path d="M11.664871656783491,-66.09879005200627 L11.661166602490677,-66.27040652955495 L11.650065414322302,-66.4369389415317 L11.631609963698795,-66.59775916160159 L11.619645066075737,-66.6758367383104 L11.60586986082049,-66.75226060865398 L11.590297340313613,-66.8269586918184 L11.572942192112125,-66.89986053470292 L11.553820785096622,-66.97089737836943 L11.53295115403262,-67.0400022228938 L11.510352982560677,-67.10710989055846 L11.486047584631343,-67.17215708732597 L11.460057884402453,-67.23508246253633 L11.432408394617708,-67.29582666677105 L11.403125193486966,-67.35433240782987 L11.372235900090011,-67.41054450476715 L11.339769648327026,-67.46440993993691 L11.305757059440333,-67.51587790899765 L11.270230213133303,-67.56489986882943 L11.233222617313704,-67.61142958331847 L11.194769176489995,-67.65542316696566 L11.15490615885039,-67.69683912627816 L11.11367116205573,-67.73563839890484 L11.07110307777846,-67.77178439047881 L11.027242055021093,-67.80524300913216 L10.982129462248832,-67.8359826976504 L10.935807848372004,-67.86397446323643 L10.888320902615146,-67.88919190485561 L10.839713413310575,-67.91161123813653 L10.79003122565532,-67.9312113178037 " />
			<path d="M10.790031225655312,-67.9312113178037 L10.729235111021946,-67.95093384753332 L10.667049447572156,-67.96656669902376 L10.603558212222714,-67.97808876132123 L10.538847144964016,-67.98548447477397 L10.473003633074871,-67.98874385204444 L10.406116593112753,-67.98786249159632 L10.338276350838884,-67.98284158363857 L10.269574519240303,-67.9736879085181 L10.200103874813625,-67.96041382756339 L10.129958232277573,-67.94303726639153 L10.05923231788349,-67.92158169070105 L9.988021641494862,-67.89607607458332 L9.916422367608664,-67.86655486139526 L9.844531185492661,-67.8330579172463 L9.772445178614044,-67.79563047716222 L9.700261693535754,-67.75432308399886 " />
			<path d="M-1311.7563093962167,-546.3906221803853 L-1311.785296761289,-546.4685740175296 L-1311.8166939535643,-546.5434834426787 L-1311.850458573569,-546.6152492964624 L-1311.886545024802,-546.6837746646595 L-1311.9249045753086,-546.7489670090736 L-1311.9654854234902,-546.8107382924983 L-1312.008232768058,-546.8690050976052 L-1312.0530888820376,-546.9236887395915 L-1312.0999931907252,-546.974715372439 L-1312.1488823534885,-547.0220160886365 L-1312.199690349304,-547.0655270122342 L-1312.2523485659133,-547.1051893851036 L-1312.3067858924774,-547.1409496462853 L-1312.3629288156078,-547.1727595043196 L-1312.42070151864,-547.2005760024596 L-1312.480025984018,-547.2243615766811 " />
			<path d="M-1312.480025984018,-547.2243615766811 L-1312.5408220986515,-547.2440841064107 L-1312.6030077621012,-547.2597169579012 L-1312.6664989974506,-547.2712390201987 L-1312.7312100647093,-547.2786347336514 L-1312.7970535765985,-547.2818941109218 L-1312.8639406165607,-547.2810127504737 L-1312.9317808588346,-547.275991842516 L-1313.000482690433,-547.2668381673955 L-1313.0699533348597,-547.2535640864407 L-1313.1400989773958,-547.236187525269 L-1313.21082489179,-547.2147319495784 L-1313.2820355681786,-547.1892263334607 L-1313.3536348420648,-547.1597051202726 L-1313.4255260241807,-547.1262081761237 L-1313.4976120310594,-547.0887807360397 L-1313.5697955161377,-547.0474733428763 " />
			<path d="M9.700261693535747,-67.75432308399886 L-9.700261693535747,-56.1383626983404 " />
			<path d="M-1313.5697955161374,-547.0474733428763 L-1332.970318903209,-535.4315129572179 " />
			<path d="M-9.700261693535746,-56.138362698340394 L-9.796660535392787,-56.077233336886195 L-9.892827143996252,-56.00942910812049 L-9.988529845562818,-55.93511335836934 L-10.083538083901841,-55.85446512078319 L-10.177622975845427,-55.767678684030315 L-10.270557862648019,-55.67496312423847 L-10.362118856027173,-55.5765418013121 L-10.452085377530045,-55.472651820838834 L-10.540240689926199,-55.363543462881324 L-10.626372419346575,-55.24947957903064 L-10.710273066910755,-55.1307349591738 L-10.791740508609928,-55.007595669500844 L-10.870578482241335,-54.88035836334632 L-10.946597060221103,-54.74932956652542 L-11.019613107136442,-54.61482493888646 L-11.089450720934881,-54.477168513858636 L-11.155941656687729,-54.33669191782711 L-11.218925731906836,-54.19373357121603 L-11.278251212438247,-54.04863787320405 L-11.333775178003068,-53.90175437203656 L-11.385363866504921,-53.753436922933346 L-11.432892996274575,-53.60404283562038 L-11.47624806547535,-53.45393201353938 L-11.51532462794809,-53.303466086808875 L-11.550028544831093,-53.15300754102563 L-11.580276211348886,-53.00291884400505 L-11.605994758223444,-52.85356157256447 L-11.627122227222667,-52.70529554145295 L-11.643607720423187,-52.558477936525996 L-11.65541152282793,-52.41346245425359 L-11.662505198043005,-52.27059844963438 L-11.664871656783491,-52.130230094568915 " />
			<path d="M-1332.970318903209,-535.4315129572178 L-1333.0667177450662,-535.3703835957635 L-1333.1628843536696,-535.3025793669979 L-1333.2585870552361,-535.2282636172467 L-1333.3535952935752,-535.1476153796606 L-1333.4476801855187,-535.0608289429077 L-1333.5406150723213,-534.9681133831159 L-1333.6321760657006,-534.8696920601895 L-1333.7221425872033,-534.7658020797162 L-1333.8102978995996,-534.6566937217588 L-1333.8964296290198,-534.5426298379081 L-1333.980330276584,-534.4238852180512 L-1334.0617977182833,-534.3007459283782 L-1334.1406356919147,-534.1735086222237 L-1334.2166542698944,-534.0424798254028 L-1334.2896703168099,-533.9079751977639 L-1334.3595079306083,-533.770318772736 L-1334.4259988663612,-533.6298421767045 L-1334.4889829415802,-533.4868838300935 L-1334.5483084221116,-533.3417881320814 L-1334.6038323876764,-533.1949046309139 L-1334.6554210761783,-533.0465871818108 L-1334.702950205948,-532.8971930944978 L-1334.7463052751486,-532.7470822724168 L-1334.7853818376213,-532.5966163456862 L-1334.8200857545044,-532.4461577999031 L-1334.8503334210222,-532.2960691028825 L-1334.8760519678967,-532.1467118314418 L-1334.897179436896,-531.9984458003304 L-1334.9136649300965,-531.8516281954034 L-1334.9254687325013,-531.706612713131 L-1334.9325624077164,-531.5637487085118 L-1334.9349288664569,-531.4233803534463 " />
			<path d="M-11.664871656783491,-52.1302300945689 L-11.664871656783491,66.09879005200627 " />
			<path d="M-1334.9349288664569,-531.4233803534463 L-1334.9349288664569,-413.1943602068712 " />
			<path d="M-11.664871656783491,66.09879005200628 L-11.661166602490677,66.27040652955495 L-11.650065414322302,66.4369389415317 L-11.631609963698795,66.59775916160159 L-11.619645066075735,66.6758367383104 L-11.60586986082049,66.75226060865398 L-11.590297340313613,66.8269586918184 L-11.572942192112123,66.89986053470292 L-11.55382078509662,66.97089737836943 L-11.53295115403262,67.0400022228938 L-11.510352982560677,67.10710989055846 L-11.486047584631343,67.17215708732597 L-11.46005788440245,67.23508246253633 L-11.432408394617708,67.29582666677105 L-11.403125193486966,67.35433240782987 L-11.372235900090011,67.41054450476715 L-11.339769648327026,67.46440993993691 L-11.305757059440333,67.51587790899765 L-11.270230213133303,67.56489986882943 L-11.233222617313704,67.61142958331847 L-11.194769176489997,67.65542316696566 L-11.15490615885039,67.69683912627816 L-11.11367116205573,67.73563839890484 L-11.07110307777846,67.77178439047881 L-11.027242055021093,67.80524300913216 L-10.982129462248832,67.8359826976504 L-10.935807848372004,67.86397446323643 L-10.888320902615146,67.88919190485561 L-10.839713413310573,67.91161123813653 L-10.790031225655325,67.9312113178037 " />
			<path d="M-10.79003122565531,67.9312113178037 L-10.729235111021946,67.95093384753332 L-10.667049447572156,67.96656669902376 L-10.603558212222714,67.97808876132123 L-10.538847144964015,67.98548447477397 L-10.473003633074871,67.98874385204444 L-10.40611659311275,67.98786249159632 L-10.338276350838884,67.98284158363857 L-10.269574519240301,67.9736879085181 L-10.200103874813623,67.96041382756339 L-10.129958232277573,67.94303726639153 L-10.059232317883492,67.92158169070105 L-9.988021641494862,67.89607607458332 L-9.916422367608664,67.86655486139526 L-9.84453118549266,67.8330579172463 L-9.772445178614044,67.79563047716222 L-9.700261693535747,67.75432308399886 " />
			<path d="M-1334.9349288664569,-413.1943602068712 L-1334.931223812164,-413.0227437293225 L-1334.9201226239957,-412.85621131734575 L-1334.901667173372,-412.6953910972759 L-1334.8897022757492,-412.61731352056705 L-1334.8759270704938,-412.54088965022345 L-1334.860354549987,-412.46619156705907 L-1334.8429994017854,-412.3932897241745 L-1334.8238779947699,-412.322252880508 L-1334.8030083637059,-412.25314803598366 L-1334.780410192234,-412.18604036831897 L-1334.7561047943047,-412.12099317155145 L-1334.7301150940757,-412.0580677963411 L-1334.702465604291,-411.9973235921064 L-1334.6731824031604,-411.9388178510476 L-1334.6422931097634,-411.88260575411033 L-1334.6098268580004,-411.8287403189405 L-1334.5758142691136,-411.7772723498798 L-1334.5402874228066,-411.728250390048 L-1334.503279826987,-411.681720675559 L-1334.4648263861634,-411.6377270919118 L-1334.4249633685238,-411.5963111325993 L-1334.3837283717291,-411.5575118599726 L-1334.3411602874519,-411.5213658683986 L-1334.2972992646944,-411.4879072497453 L-1334.2521866719221,-411.45716756122704 L-1334.2058650580454,-411.429175795641 L-1334.1583781122886,-411.4039583540218 L-1334.109770622984,-411.38153902074095 L-1334.0600884353287,-411.36193894107373 " />
			<path d="M-1334.0600884353287,-411.36193894107373 L-1333.9992923206953,-411.3422164113441 L-1333.9371066572455,-411.3265835598537 L-1333.8736154218961,-411.3150614975562 L-1333.8089043546374,-411.30766578410345 L-1333.7430608427483,-411.30440640683304 L-1333.676173802786,-411.30528776728113 L-1333.6083335605122,-411.31030867523884 L-1333.5396317289137,-411.31946235035934 L-1333.470161084487,-411.33273643131406 L-1333.400015441951,-411.35011299248595 L-1333.3292895275567,-411.3715685681764 L-1333.2580788511682,-411.3970741842941 L-1333.186479577282,-411.4265953974822 L-1333.114588395166,-411.46009234163114 L-1333.0425023882874,-411.49751978171525 L-1332.970318903209,-411.5388271748786 " />
			<path d="M9.700261693535747,56.1383626983404 L-9.700261693535747,67.75432308399886 " />
			<path d="M1398.9580757027666,-852.3454467046579 L1399.230008627218,-779.3562483358294 " />
			<path d="M1397.2734054373984,-775.3412802617967 L1397.3699156403154,-775.4029443315044 L1397.4661679621272,-775.4712719486446 L1397.5619305225596,-775.5460985060027 L1397.656972621217,-775.6272437398482 L1397.7510652933586,-775.714512164205 L1397.843981861496,-775.8076935417951 L1397.9354984814781,-775.9065633905183 L1398.0253946817513,-776.0108835242489 L1398.113453894495,-776.1204026266474 L1398.199463977353,-776.2348568566035 L1398.2832177245016,-776.3539704838522 L1398.3645133658283,-776.4774565532322 L1398.4431550530126,-776.6050175759863 L1398.5189533313417,-776.7363462464377 L1398.591725596124,-776.8711261823164 L1398.6612965325992,-777.0090326869513 L1398.7274985382883,-777.1497335314936 L1398.7901721267604,-777.2928897552849 L1398.8491663118516,-777.4381564824431 L1398.9043389714027,-777.5851837526986 L1398.9555571896444,-777.7336173644793 L1399.0026975774024,-777.8830997282132 L1399.045646569354,-778.0332707277929 L1399.0843006976154,-778.1837685881269 L1399.1185668410062,-778.3342307466878 L1399.1483624493853,-778.4842947269566 L1399.1736157425225,-778.6335990116607 L1399.1942658830228,-778.7817839137009 L1399.2102631228886,-778.9284924426686 L1399.2215689233683,-779.0733711648674 L1399.2281560477982,-779.2160710547656 L1399.2300086272185,-779.3562483358295 " />
			<path d="M1398.958075702767,-852.345446704658 L1398.953752735782,-852.5160826711692 L1398.9420880133316,-852.6816393875172 L1398.9231251663912,-852.841497601846 L1398.9109280517903,-852.9191020210759 L1398.8969351239955,-852.9950593770978 L1398.8811594709282,-853.0692986251728 L1398.8636158479355,-853.1417503275492 L1398.8443206639893,-853.2123467184099 L1398.8232919663385,-853.2810217672552 L1398.800549423629,-853.3477112406629 L1398.776114307507,-853.4123527623669 L1398.7500094727236,-853.4748858715997 L1398.7222593357576,-853.5352520796425 L1398.6928898519784,-853.5933949245314 L1398.6619284913695,-853.6492600238671 L1398.629404212835,-853.702795125681 L1398.5953474371136,-853.7539501573063 L1398.5597900183257,-853.8026772722139 L1398.522765214179,-853.8489308947629 L1398.4843076548614,-853.8926677628294 L1398.444453310652,-853.9338469682705 L1398.4032394582762,-853.9724299951863 L1398.3607046460395,-854.0083807559453 L1398.3168886577735,-854.0416656249375 L1398.271832475624,-854.0722534700259 L1398.2255782417203,-854.1001156816642 L1398.178169218758,-854.1252261996568 L1398.129649749535,-854.1475615375333 L1398.0800652154758,-854.1671008045158 " />
			<path d="M1398.0800652154758,-854.1671008045158 L1398.0187114843732,-854.1869785447097 L1397.955950415914,-854.2027088870186 L1397.891867949229,-854.2142702917845 L1397.8265518328485,-854.221646927902 L1397.760091504547,-854.2248286944964 L1397.6925779688756,-854.2238112347544 L1397.624103672549,-854.2185959418902 L1397.5547623778577,-854.2091899572373 L1397.4846490342786,-854.1956061604707 L1397.4138596484597,-854.1778631519697 L1397.3424911527584,-854.1559852273492 L1397.2706412725108,-854.1300023441905 L1397.1984083922162,-854.0999500810215 L1397.1258914208172,-854.0658695885974 L1397.0531896562657,-854.0278075335538 L1396.980402649551,-853.9858160345053 " />
			<path d="M76.58156905652028,-1331.9203774269286 L76.55252260837811,-1331.9992287946347 L76.5210265527511,-1332.0750065293792 L76.48712401738898,-1332.1476068682264 L76.45086142524954,-1332.2169303990697 L76.41228843093133,-1332.2828821967569 L76.37145785268135,-1332.3453719530703 L76.32842560007063,-1332.404314100389 L76.28325059743699,-1332.4596279288544 L76.2359947031995,-1332.5112376968887 L76.18672262515533,-1332.5590727349079 L76.13550183187502,-1332.603067542089 L76.0824024603173,-1332.6431618760628 L76.0274972197901,-1332.6793008354016 L75.97086129238929,-1332.7114349347983 L75.91257223005121,-1332.7395201728255 L75.8527098483605,-1332.7635180921882 " />
			<path d="M75.85270984836049,-1332.7635180921882 L75.79135611725795,-1332.783395832382 L75.72859504879868,-1332.7991261746909 L75.66451258211374,-1332.8106875794567 L75.59919646573326,-1332.8180642155742 L75.53273613743173,-1332.8212459821686 L75.4652226017603,-1332.8202285224268 L75.39674830543375,-1332.8150132295623 L75.32740701074246,-1332.8056072449097 L75.25729366716327,-1332.792023448143 L75.18650428134445,-1332.774280439642 L75.11513578564323,-1332.7524025150215 L75.04328590539568,-1332.7264196318629 L74.97105302510082,-1332.6963673686937 L74.89853605370203,-1332.6622868762695 L74.8258342891505,-1332.624224821226 L74.75304728243587,-1332.5822333221777 " />
			<path d="M1396.9804026495508,-853.9858160345052 L1377.554913699561,-842.2612347350896 " />
			<path d="M74.75304728243589,-1332.5822333221777 L55.327558332445854,-1320.857652022762 " />
			<path d="M1377.5549136995608,-842.2612347350895 L1377.4584034966438,-842.1995706653818 L1377.362151174832,-842.1312430482416 L1377.2663886143996,-842.0564164908834 L1377.1713465157422,-841.975271257038 L1377.0772538436006,-841.8880028326812 L1376.984337275463,-841.7948214550911 L1376.892820655481,-841.6959516063679 L1376.8029244552079,-841.5916314726372 L1376.7148652424642,-841.4821123702387 L1376.6288551596062,-841.3676581402826 L1376.5451014124576,-841.248544513034 L1376.4638057711309,-841.125058443654 L1376.3851640839466,-840.9974974208999 L1376.3093658056175,-840.8661687504484 L1376.2365935408352,-840.7313888145698 L1376.16702260436,-840.5934823099349 L1376.100820598671,-840.4527814653926 L1376.0381470101988,-840.3096252416012 L1375.9791528251076,-840.164358514443 L1375.9239801655565,-840.0173312441875 L1375.8727619473148,-839.8688976324069 L1375.8256215595568,-839.719415268673 L1375.7826725676052,-839.5692442690932 L1375.7440184393438,-839.4187464087593 L1375.709752295953,-839.2682842501983 L1375.6799566875738,-839.1182202699296 L1375.6547033944366,-838.9689159852254 L1375.6340532539364,-838.8207310831853 L1375.6180560140706,-838.6740225542176 L1375.6067502135909,-838.5291438320188 L1375.600163089161,-838.3864439421205 L1375.5983105097407,-838.2462666610567 " />
			<path d="M55.327558332445825,-1320.857652022762 L55.2300471978049,-1320.7953125944152 L55.132801786783716,-1320.7261722400442 L55.036061260357755,-1320.6504010003164 L54.94006353781209,-1320.5681852235994 L54.84504471161344,-1320.4797271076643 L54.75123846677506,-1320.3852442024095 L54.65887550614228,-1320.2849688748286 L54.56818298301243,-1320.179147737537 L54.47938394248419,-1320.0680410422647 L54.39269677291062,-1319.9519220398035 L54.308334668804605,-1319.8310763079885 L54.22650510651798,-1319.7058010493588 L54.14740933398352,-1319.5764043602323 L54.07124187577481,-1319.443204472987 L53.99819005470136,-1319.3065289734145 L53.92843353111533,-1319.166713995071 " />
			<path d="M1375.8702434341922,-765.2570682922282 L1375.8745664011772,-765.0864323257169 L1375.8862311236276,-764.920875609369 L1375.905193970568,-764.7610173950402 L1375.917391085169,-764.6834129758103 L1375.9313840129637,-764.6074556197883 L1375.947159666031,-764.5332163717134 L1375.9647032890236,-764.460764669337 L1375.98399847297,-764.3901682784763 L1376.0050271706207,-764.321493229631 L1376.0277697133301,-764.2548037562233 L1376.0522048294522,-764.1901622345192 L1376.0783096642356,-764.1276291252865 L1376.1060598012016,-764.0672629172436 L1376.1354292849808,-764.0091200723548 L1376.1663906455897,-763.953254973019 L1376.1989149241242,-763.8997198712052 L1376.2329716998456,-763.8485648395798 L1376.2685291186335,-763.7998377246722 L1376.3055539227803,-763.7535841021232 L1376.3440114820978,-763.7098472340567 L1376.383865826307,-763.6686680286157 L1376.425079678683,-763.6300850016999 L1376.4676144909197,-763.5941342409409 L1376.5114304791857,-763.5608493719486 L1376.5564866613352,-763.5302615268603 L1376.6027408952389,-763.502399315222 L1376.6501499182011,-763.4772887972293 L1376.6986693874242,-763.4549534593529 L1376.7482539214834,-763.4354141923703 " />
			<path d="M1376.7482539214834,-763.4354141923703 L1376.809607652586,-763.4155364521764 L1376.8723687210452,-763.3998061098675 L1376.9364511877302,-763.3882447051017 L1377.0017673041107,-763.3808680689841 L1377.0682276324121,-763.3776863023897 L1377.1357411680835,-763.3787037621317 L1377.2042154644103,-763.383919054996 L1377.2735567591014,-763.3933250396489 L1377.3436701026806,-763.4069088364155 L1377.4144594884995,-763.4246518449164 L1377.4858279842008,-763.4465297695369 L1377.5576778644484,-763.4725126526956 L1377.629910744743,-763.5025649158647 L1377.702427716142,-763.5366454082888 L1377.7751294806935,-763.5747074633324 L1377.8479164874082,-763.6166989623808 " />
			<path d="M1397.273405437398,-775.3412802617966 L1377.8479164874082,-763.616698962381 " />
			<path d="M11.664842863153561,-20.966466603597173 L11.664842841607877,52.13021799766601 " />
			<path d="M1376.2703420174757,-838.0170556786721 L1376.2703419959303,-764.920371077409 " />
			<path d="M1373.7444145607583,-763.003437891631 L1373.8562491674568,-762.9657079179567 L1373.9678644432208,-762.933605754062 L1374.079041487268,-762.9071943589705 L1374.189562258279,-762.8865255309241 L1374.299210002023,-762.8716398057959 L1374.4077696764577,-762.8625663775903 L1374.51502837347,-762.8593230411883 L1374.6207757364352,-762.8619161574475 L1374.7248043727689,-762.8703406407272 L1374.826910260667,-762.8845799688628 L1374.9268931492356,-762.9046062155685 L1375.0245569512242,-762.9303801052071 L1375.1197101275936,-762.9618510898176 L1375.212166063164,-762.9989574482502 L1375.3017434326055,-763.0416264072144 L1375.3882665560564,-763.0897742840021 " />
			<path d="M1375.3882665560564,-763.0897742840021 L1375.4499502044562,-763.1286918578733 L1375.509818632787,-763.170490072949 L1375.5678081224319,-763.2151244429359 L1375.6238569545483,-763.2625474629906 L1375.6779054757571,-763.3127086602786 L1375.7298961616311,-763.3655546476942 L1375.7797736779203,-763.4210291806801 L1375.827484939443,-763.4790732170898 L1375.8729791665867,-763.539624980026 L1375.9162079393525,-763.6026200235914 L1375.957125248889,-763.6679913014783 L1375.9956875464602,-763.7356692383273 L1376.031853789795,-763.8055818037766 L1376.0655854867682,-763.8776545891251 L1376.0968467363696,-763.9518108865263 L1376.1256042669122,-764.0279717706292 " />
			<path d="M1373.7444145839736,-841.763788127859 L1348.8008811698928,-850.798421990939 " />
			<path d="M1052.9520050790538,-879.1955951768145 L1053.0638396534143,-879.1578651996266 L1053.17545489697,-879.1257630304799 L1053.2866319090697,-879.0993516283887 L1053.3971526485248,-879.0786827915929 L1053.506800361233,-879.0637970559696 L1053.6153600052799,-879.0547236155354 L1053.7226186726778,-879.0514802651893 L1053.8283660069258,-879.0540733658144 L1053.9323946155596,-879.0624978318021 L1054.0345004768933,-879.0767371410271 L1054.134483340147,-879.0967633672492 L1054.2321471181806,-879.1225372348837 L1054.3273002720612,-879.1540081960283 L1054.4197561867109,-879.1911145295983 L1054.5093335368979,-879.2337834623746 L1054.5958566428517,-879.2819313117267 " />
			<path d="M1054.5958566428517,-879.2819313117267 L1054.6469254309961,-879.3138621346573 L1054.6967639250577,-879.3477626572363 L1054.7453359487024,-879.3836082720464 L1054.7926062448912,-879.4213729597839 L1054.8385405014715,-879.4610293081446 L1054.8831053760837,-879.5025485317224 L1054.926268520363,-879.5459004929033 L1054.9679986034207,-879.5910537237421 L1055.0082653345862,-879.637975448803 L1055.0470394853937,-879.6866316089512 L1055.0842929107991,-879.7369868860753 L1055.1199985696094,-879.7890047287236 L1055.15413054411,-879.8426473786357 L1055.18666405888,-879.8978758981501 L1055.2175754987736,-879.9546501984681 L1055.246842426063,-880.0129290687531 L1055.274443596725,-880.0726702060443 L1055.3003589758607,-880.1338302459632 L1055.3245697522402,-880.1963647941903 L1055.347058351955,-880.2602284586904 L1055.367808451175,-880.3253748826608 L1055.3868049879986,-880.39175677818 L1055.4194835011604,-880.52803338319 L1055.4449990270755,-880.6686626684033 L1055.4632774952331,-880.8132363928531 L1055.4742658440005,-880.9613348650296 L1055.477932174658,-881.112528161227 " />
			<path d="M1055.477932174658,-954.2092127728072 L1055.4748895848488,-954.349266260182 L1055.4657691452867,-954.491186420273 L1055.450592827909,-954.6346313549841 L1055.429397193794,-954.7792554929028 L1055.402233305081,-954.9247104218138 L1055.3691666019565,-955.0706457280526 L1055.330276745005,-955.2167098406841 L1055.2856574232983,-955.3625508784675 L1055.2354161286905,-955.5078174975683 L1055.179673896861,-955.6521597379775 L1055.1185650157286,-955.795229866595 L1055.0522367019405,-955.9366832149494 L1054.9808487462142,-956.0761790095348 L1054.9045731283882,-956.2133811927636 L1054.8235936031065,-956.3479592325588 L1054.7381052571384,-956.4795889186349 L1054.6483140393975,-956.607953143549 L1054.5544362647922,-956.7327426666396 L1054.4566980931038,-956.8536568590156 L1054.3553349841493,-956.9704044277964 L1054.250591130536,-957.0827041178633 L1054.142718869382,-957.1902853894262 L1054.031978074413,-957.2928890697792 L1053.9186355299037,-957.3902679776694 L1053.8029642879715,-957.482187518778 L1053.6852430107697,-957.5684262508794 L1053.5657552991663,-957.6487764173144 L1053.4447890095246,-957.7230444474942 L1053.3226355602314,-957.791051423229 L1053.1995892296459,-957.8526335097574 L1053.0759464471557,-957.9076423504391 L1052.9520050790538,-957.9559454241588 " />
			<path d="M1052.9520050790538,-957.9559454241588 L1028.0084750099618,-966.9905812796709 " />
			<path d="M1028.008475009962,-966.990581279671 L1027.8966404356015,-967.028311256859 L1027.7850251920459,-967.0604134260057 L1027.6738481799462,-967.0868248280968 L1027.563327440491,-967.1074936648927 L1027.4536797277829,-967.1223794005159 L1027.345120083736,-967.1314528409501 L1027.237861416338,-967.1346961912963 L1027.13211408209,-967.1321030906712 L1027.0280854734563,-967.1236786246834 L1026.9259796121225,-967.1094393154584 L1026.8259967488689,-967.0894130892364 L1026.7283329708353,-967.0636392216019 L1026.6331798169547,-967.0321682604573 L1026.540723902305,-966.9950619268873 L1026.451146552118,-966.9523929941109 L1026.3646234461642,-966.9042451447589 " />
			<path d="M732.1592639373149,-995.3878740274515 L732.2710985116753,-995.3501440502636 L732.3827137552312,-995.3180418811169 L732.4938907673308,-995.2916304790257 L732.6044115067857,-995.2709616422298 L732.7140592194942,-995.2560759066066 L732.8226188635408,-995.2470024661724 L732.9298775309389,-995.2437591158263 L733.0356248651868,-995.2463522164513 L733.1396534738207,-995.2547766824391 L733.2417593351544,-995.2690159916641 L733.341742198408,-995.2890422178862 L733.4394059764415,-995.3148160855206 L733.5345591303222,-995.3462870466652 L733.627015044972,-995.3833933802352 L733.7165923951588,-995.4260623130116 L733.8031155011129,-995.4742101623636 " />
			<path d="M733.8031155011129,-995.4742101623636 L733.8541842892573,-995.5061409852942 L733.9040227833187,-995.5400415078733 L733.9525948069635,-995.5758871226834 L733.9998651031523,-995.6136518104208 L734.0457993597327,-995.6533081587816 L734.0903642343447,-995.6948273823593 L734.1335273786241,-995.7381793435403 L734.1752574616818,-995.7833325743791 L734.2155241928472,-995.83025429944 L734.2542983436548,-995.8789104595882 L734.2915517690602,-995.9292657367123 L734.3272574278703,-995.9812835793606 L734.3613894023712,-996.0349262292726 L734.3939229171411,-996.0901547487871 L734.4248343570347,-996.1469290491051 L734.4541012843241,-996.2052079193901 L734.4817024549859,-996.2649490566813 L734.5076178341219,-996.3261090966001 L734.5318286105014,-996.3886436448273 L734.554317210216,-996.4525073093274 L734.5750673094361,-996.5176537332977 L734.5940638462597,-996.584035628817 L734.6267423594214,-996.7203122338269 L734.6522578853364,-996.8609415190402 L734.6705363534942,-997.0055152434901 L734.6815247022615,-997.1536137156666 L734.6851910329192,-997.304807011864 " />
			<path d="M734.6851910329192,-1070.401491623444 L734.68214844311,-1070.5415451108188 L734.6730280035478,-1070.68346527091 L734.6578516861701,-1070.8269102056208 L734.6366560520553,-1070.9715343435398 L734.609492163342,-1071.1169892724506 L734.5764254602175,-1071.2629245786893 L734.5375356032661,-1071.408988691321 L734.4929162815594,-1071.5548297291043 L734.4426749869515,-1071.700096348205 L734.386932755122,-1071.8444385886144 L734.3258238739895,-1071.9875087172318 L734.2594955602015,-1072.1289620655862 L734.1881076044752,-1072.2684578601716 L734.1118319866491,-1072.4056600434003 L734.0308524613674,-1072.5402380831956 L733.9453641153995,-1072.6718677692718 L733.8555728976587,-1072.8002319941859 L733.7616951230532,-1072.9250215172765 L733.663956951365,-1073.0459357096524 L733.5625938424103,-1073.1626832784334 L733.4578499887971,-1073.2749829685001 L733.3499777276431,-1073.3825642400632 L733.2392369326741,-1073.4851679204162 L733.1258943881647,-1073.5825468283062 L733.0102231462324,-1073.6744663694149 L732.8925018690306,-1073.7607051015164 L732.7730141574274,-1073.8410552679513 L732.6520478677857,-1073.915323298131 L732.5298944184925,-1073.9833302738657 L732.406848087907,-1074.0449123603942 L732.2832053054168,-1074.099921201076 L732.1592639373149,-1074.1482242747957 " />
			<path d="M732.1592639373149,-1074.1482242747957 L707.2157338682231,-1083.1828601303077 " />
			<path d="M707.215733868223,-1083.1828601303077 L707.1038992938626,-1083.2205901074956 L706.9922840503067,-1083.2526922766424 L706.8811070382071,-1083.2791036787335 L706.7705862987522,-1083.2997725155294 L706.6609385860437,-1083.3146582511527 L706.5523789419971,-1083.323731691587 L706.4451202745989,-1083.326975041933 L706.339372940351,-1083.324381941308 L706.2353443317172,-1083.3159574753201 L706.1332384703835,-1083.3017181660953 L706.0332556071298,-1083.281691939873 L705.9355918290963,-1083.2559180722387 L705.8404386752156,-1083.2244471110942 L705.7479827605658,-1083.187340777524 L705.658405410379,-1083.1446718447478 L705.571882304425,-1083.0965239953957 " />
			<path d="M413.89244989118026,-1186.593770474081 L413.89244989118026,-1113.4970858625009 " />
			<path d="M411.3665227955761,-1111.5801528780885 L411.47835736993653,-1111.5424229009006 L411.5899726134923,-1111.5103207317538 L411.701149625592,-1111.4839093296628 L411.81167036504695,-1111.4632404928668 L411.92131807775536,-1111.4483547572436 L412.029877721802,-1111.4392813168092 L412.1371363892001,-1111.4360379664631 L412.24288372344796,-1111.4386310670882 L412.3469123320819,-1111.447055533076 L412.44901819341555,-1111.461294842301 L412.5490010566692,-1111.4813210685231 L412.6466648347028,-1111.5070949361575 L412.7418179885834,-1111.538565897302 L412.83427390323317,-1111.5756722308722 L412.92385125342,-1111.6183411636484 L413.010374359374,-1111.6664890130005 " />
			<path d="M413.010374359374,-1111.6664890130005 L413.06144314751845,-1111.6984198359312 L413.1112816415799,-1111.7323203585102 L413.15985366522466,-1111.7681659733205 L413.2071239614135,-1111.8059306610578 L413.25305821799384,-1111.8455870094185 L413.297623092606,-1111.8871062329963 L413.34078623688526,-1111.9304581941774 L413.38251631994297,-1111.975611425016 L413.4227830511084,-1112.022533150077 L413.461557201916,-1112.071189310225 L413.49881062732146,-1112.1215445873493 L413.5345162861315,-1112.1735624299977 L413.56864826063236,-1112.2272050799097 L413.6011817754023,-1112.282433599424 L413.6320932152959,-1112.339207899742 L413.6613601425853,-1112.397486770027 L413.6889613132471,-1112.4572279073182 L413.7148766923831,-1112.518387947237 L413.73908746876253,-1112.5809224954642 L413.7615760684772,-1112.6447861599645 L413.7823261676973,-1112.7099325839347 L413.8013227045209,-1112.776314479454 L413.8340012176826,-1112.9125910844639 L413.8595167435976,-1113.053220369677 L413.8777952117553,-1113.197794094127 L413.8887835605227,-1113.3458925663035 L413.8924498911803,-1113.4970858625009 " />
			<path d="M413.8924498911803,-1186.5937704740809 L413.88940730137114,-1186.7338239614558 L413.8802868618089,-1186.8757441215469 L413.8651105444314,-1187.0191890562578 L413.8439149103164,-1187.1638131941768 L413.8167510216031,-1187.3092681230876 L413.7836843184787,-1187.4552034293263 L413.74479446152725,-1187.601267541958 L413.70017513982054,-1187.7471085797413 L413.64993384521273,-1187.892375198842 L413.59419161338315,-1188.0367174392513 L413.53308273225076,-1188.1797875678687 L413.46675441846264,-1188.3212409162231 L413.39536646273643,-1188.4607367108085 L413.31909084491036,-1188.5979388940373 L413.2381113196286,-1188.7325169338326 L413.1526229736607,-1188.8641466199088 L413.06283175591983,-1188.9925108448228 L412.9689539813144,-1189.1173003679135 L412.8712158096261,-1189.2382145602894 L412.7698527006715,-1189.3549621290704 L412.66510884705826,-1189.467261819137 L412.5572365859043,-1189.5748430907001 L412.4464957909352,-1189.6774467710532 L412.3331532464259,-1189.7748256789432 L412.21748200449366,-1189.8667452200518 L412.0997607272919,-1189.9529839521533 L411.98027301568857,-1190.0333341185883 L411.8593067260468,-1190.107602148768 L411.73715327675376,-1190.1756091245027 L411.6141069461682,-1190.2371912110311 L411.490464163678,-1190.292200051713 L411.3665227955761,-1190.3405031254326 " />
			<path d="M411.36652279557603,-1190.3405031254326 L386.4229927264841,-1199.3751389809447 " />
			<path d="M386.42299272648415,-1199.3751389809447 L386.3111581521237,-1199.4128689581325 L386.19954290856793,-1199.4449711272794 L386.08836589646825,-1199.4713825293704 L385.9778451570133,-1199.4920513661664 L385.8681974443049,-1199.5069371017896 L385.75963780025825,-1199.516010542224 L385.6523791328601,-1199.51925389257 L385.5466317986123,-1199.516660791945 L385.44260318997834,-1199.5082363259571 L385.3404973286447,-1199.4939970167322 L385.240514465391,-1199.47397079051 L385.14285068735745,-1199.4481969228757 L385.0476975334769,-1199.4167259617311 L384.9552416188271,-1199.379619628161 L384.8656642686402,-1199.3369506953848 L384.77914116268624,-1199.2888028460327 " />
			<path d="M82.99634237982494,-1306.4455230457916 L82.99634238246742,-1233.3488384332545 " />
			<path d="M80.47041558593838,-1231.4319056276984 L80.58225013180768,-1231.3941756473573 L80.69386534698788,-1231.3620734735275 L80.8050423309429,-1231.3356620652157 L80.91556304259882,-1231.3149932206593 L81.02521072796753,-1231.30010747574 L81.13377034524612,-1231.2910340244846 L81.24102898655839,-1231.2877906618085 L81.34677629551126,-1231.290383748617 L81.45080487974717,-1231.2988081993303 L81.55291071768342,-1231.313047491857 L81.65289355864073,-1231.333073699998 L81.75055731557627,-1231.3588475482143 L81.8457104496509,-1231.3903184886558 L81.93816634587648,-1231.427424800295 L82.02774367910652,-1231.4700937099758 L82.11426676965226,-1231.5182415351355 " />
			<path d="M82.11426676965228,-1231.5182415351355 L82.16533556176141,-1231.5501723510297 L82.2151740597845,-1231.5840728671844 L82.26374608737682,-1231.6199184761815 L82.31101638748837,-1231.6576831587156 L82.35695064795604,-1231.6973395024802 L82.40151552640982,-1231.738858722066 L82.44467867447504,-1231.7822106798556 L82.48640876125314,-1231.8273639078984 L82.52667549606396,-1231.8742856307538 L82.56544965043271,-1231.922941789281 L82.60270307930625,-1231.9732970653615 L82.63840874148272,-1232.0253149075365 L82.67254071923996,-1232.0789575575373 L82.70507423714847,-1232.1341860776936 L82.73598568005515,-1232.1909603791973 L82.76525261022495,-1232.2492392512017 L82.79285378362768,-1232.3089803907353 L82.81876916535853,-1232.3701404334079 L82.84297994418077,-1232.4326749848888 L82.86546854618035,-1232.4965386531294 L82.88621864752226,-1232.5616850813142 L82.90521518629953,-1232.6280669815085 L82.93789370284681,-1232.7643435971916 L82.96340923142635,-1232.9049728947423 L82.98168770150318,-1233.049546633066 L82.99267605142687,-1233.197645120519 L82.99634238246739,-1233.3488384332543 " />
			<path d="M82.99634237982485,-1306.4455230457918 L82.99329979037076,-1306.585576533384 L82.98417935188301,-1306.7274966941227 L82.9690030362968,-1306.8709416299105 L82.94780740468565,-1307.0155657693322 L82.92064351918262,-1307.1610207001686 L82.88757681996718,-1307.306956008751 L82.84868696761403,-1307.4530201241387 L82.80406765118383,-1307.5988611650837 L82.75382636251807,-1307.7441277877444 L82.69808413728175,-1307.8884700321032 L82.63697526337792,-1308.03154016505 L82.57064695743631,-1308.1729935181036 L82.4992590101556,-1308.3124893177464 L82.42298340135363,-1308.4496915063787 L82.342003885653,-1308.5842695519104 L82.25651554979994,-1308.7158992440425 L82.16672434268347,-1308.8442634753171 L82.07284657918628,-1308.9690530050577 L81.97510841906336,-1309.0899672043568 L81.8737453221033,-1309.2067147803175 L81.76900148088505,-1309.3190144778036 L81.66112923249656,-1309.4265957570074 L81.55038845063271,-1309.529199445204 L81.43704591953674,-1309.6265783611223 L81.32137469129371,-1309.7184979104236 L81.20365342802404,-1309.804736650863 L81.08416573056213,-1309.885086825761 L80.96319945523705,-1309.9593548645084 L80.84104602040145,-1310.0273618488948 L80.71799970437921,-1310.0889439441378 L80.59435693652323,-1310.1439527935765 L80.47041558309112,-1310.1922558760741 " />
			<path d="M80.47041558309138,-1310.1922558760741 L55.52688846635647,-1319.2268934981605 " />
			<path d="M55.52688846635642,-1319.2268934981607 L55.41505392048711,-1319.2646234785018 L55.303438705306924,-1319.2967256523316 L55.192261721351905,-1319.3231370606434 L55.08174100969598,-1319.3438059051998 L54.97209332432727,-1319.358691650119 L54.86353370704868,-1319.3677651013745 L54.75627506573641,-1319.3710084640506 L54.65052775678354,-1319.3684153772422 L54.546499172547634,-1319.3599909265288 L54.44439333461138,-1319.345751634002 L54.34441049365406,-1319.325725425861 L54.24674673671852,-1319.2999515776448 L54.15159360264389,-1319.2684806372033 L54.05913770641831,-1319.231374325564 L53.96956037318827,-1319.1887054158833 L53.88303728264254,-1319.1405575907236 " />
			<path d="M9.700261693535746,-67.75432308399886 L-1313.5697955161377,-547.0474733428764 " />
			<path d="M-9.700261693535746,-56.1383626983404 L-1332.9703189032093,-535.4315129572179 " />
			<path d="M-11.664871656783491,-52.1302300945689 L-1334.934928866457,-531.4233803534464 " />
			<path d="M-11.664871656783491,66.09879005200627 L-1334.934928866457,-413.19436020687124 " />
			<path d="M1396.9804026495508,-853.9858160345053 L74.75304728243555,-1332.5822333221777 " />
			<path d="M1377.5549136995608,-842.2612347350895 L55.327558332445506,-1320.857652022762 " />
			<path d="M1345.831717411556,-849.0206503204356 L1049.9085285582375,-956.1336800143483 " />
			<path d="M1024.9587332625408,-965.1645645986912 L734.5094285333104,-1070.296254759881 " />
			<path d="M703.1507806012723,-1081.6469022036347 L413.89244989118015,-1186.34750470329 " />
			<path d="M382.27746388699404,-1197.7909368579685 L82.9963423798365,-1306.1194114835696 " />
			<path d="M1269.0250875038475,-803.9309836557535 L979.5107346157474,-908.724256524573 " />
			<path d="M948.1520866837095,-920.0749039683266 L734.6851910329191,-997.3418664565016 " />
			<path d="M627.2787699694311,-1036.2189386226603 L413.8921934619468,-1113.4568286112612 " />
			<path d="M306.40545325515245,-1152.3629732769941 L82.99406605746344,-1233.22946651665 " />
			<path d="M11.664842863153563,-20.96646660359717 L1376.2703420174764,-838.0170556786722 " />
			<path d="M11.664842841607879,52.13021799766601 L1375.9135110417167,-764.7067203618568 " />
			<path d="M11.664871656783491,-26.22560247240618 L1373.7444145839738,-841.7637881278589 " />
			<path d="M11.664871656783495,-50.19504986380521 L1348.8008811698933,-850.798421990939 " />
			<path d="M-260.5842715349232,-166.22395493484956 L1055.3827452475887,-954.1522201055473 " />
			<path d="M-184.51702952042453,-138.67212765817706 L1055.477932174658,-881.1125281612271 " />
			<path d="M-266.05711357539906,-168.206237907367 L1052.9520050790538,-957.9559454241589 " />
			<path d="M-291.00064364449094,-177.24087376287912 L1028.0084750099618,-966.990581279671 " />
			<path d="M-581.377012676662,-282.4162337854865 L734.6851910329192,-1070.4014916234441 " />
			<path d="M-505.3097706621634,-254.86440650881397 L734.6851910329192,-997.304807011864 " />
			<path d="M-586.849854717138,-284.39851675800395 L732.1592639373149,-1074.148224274796 " />
			<path d="M-611.7933847862299,-293.4331526135161 L707.215733868223,-1083.182860130308 " />
			<path d="M-902.1697538184009,-398.6085126361234 L413.89244989118026,-1186.593770474081 " />
			<path d="M-826.1025118039023,-371.05668535945085 L413.89244989118026,-1113.4970858625009 " />
			<path d="M-907.6425958588768,-400.59079560864086 L411.3665227955761,-1190.3405031254329 " />
			<path d="M-932.5861259279686,-409.625431464153 L386.42299272648415,-1199.375138980945 " />
			<path d="M-1233.06611702415,-518.4603595558028 L82.99634237982445,-1306.4455230457918 " />
			<path d="M-1156.9988601237674,-490.9085268874099 L82.99634238246722,-1233.3488384332545 " />
			<path d="M-1238.5389596411992,-520.4426427371573 L80.4704155830907,-1310.1922558760741 " />
			<path d="M-1263.482489709112,-529.4772785922422 L55.526888466355786,-1319.2268934981607 " />
			<path d="M-1312.480025984018,-547.2243615766812 L10.79003122565531,-67.9312113178037 " />
			<path d="M-1334.060088435329,-411.36193894107384 L-10.79003122565531,67.9312113178037 " />
			<path d="M75.85270984836029,-1332.7635180921884 L1398.0800652154758,-854.1671008045159 " />
			<path d="M82.53960801793346,-1231.8901157517644 L304.8400982746864,-1151.4257252925038 " />
			<path d="M413.48380167606956,-1112.1008036005533 L625.713414988965,-1035.28169063817 " />
			<path d="M734.3199001816519,-995.9702405335888 L946.5867317032433,-919.1376559838362 " />
			<path d="M1055.152979594672,-879.8407702642268 L1267.4597328705968,-802.9937355455843 " />
			<path d="M1375.982871015927,-763.7124539276061 L1376.7482539214834,-763.4354141923702 " />
			<path d="M1375.3882665560566,-763.089774284002 L11.444752868377364,53.56445436616239 " />
			<path d="M1347.1570291745945,-850.7120855985677 L11.664871656783497,-51.0929614771346 " />
			<path d="M1054.5958566428517,-879.2819313117267 L-183.1616404237281,-138.18120087687288 " />
			<path d="M1026.364623446164,-966.904245144759 L-291.93504489192003,-177.57931723860506 " />
			<path d="M733.8031155011128,-995.4742101623636 L-503.9543815654671,-254.37347972750982 " />
			<path d="M705.5718823044251,-1083.0965239953957 L-612.7277860336588,-293.771596089242 " />
			<path d="M413.01037435937405,-1111.6664890130005 L-824.7471227072058,-370.5657585781467 " />
			<path d="M384.7791411626862,-1199.288802846033 L-933.5205271753978,-409.9638749398789 " />
			<path d="M82.1142667696522,-1231.5182415351358 L-1155.6434705891713,-490.4175999474969 " />
			<path d="M53.88303728264191,-1319.1405575907236 L-1264.4168908176284,-529.8157220176536 " />

       </g>
    </g>
    
</svg>
