<?xml version="1.0" encoding="UTF-8" standalone="no"?>
<svg
   xmlns:svg="http://www.w3.org/2000/svg"
   xmlns="http://www.w3.org/2000/svg"
   width="480.0"
   height="480.0"

>
    <g transform="scale(0.1282682927505527, -0.1282682927505527)   translate(2867.5846991158282,-247.60146597667855)" stroke-width="1.0"  fill="none">
       <!-- hidden lines -->
       <g  stroke="rgb(0,0,0)" fill="none" stroke-dasharray="1.0,1.0" >
			<path d="M-766.7029881251282,-153.75433878642963 L-766.7029881251282,-285.8941856549454 " />
			<path d="M-765.380106153154,-288.6600480718373 L-765.4549678863672,-288.599876995308 L-765.528244069347,-288.53725542559715 L-765.5998627240856,-288.4722448748586 L-765.6697535007384,-288.40490920190337 L-765.7378477467272,-288.33531454947257 L-765.8040785741771,-288.2635292792662 L-765.8683809256189,-288.18962390479265 L-765.930691637894,-288.1136710221043 L-765.9909495041991,-288.0357452384878 L-766.0490953342078,-287.95592309917834 L-766.1050720122131,-287.8742830121706 L-766.1588245532306,-287.79090517120005 L-766.2103001570099,-287.70587147696943 L-766.259448259899,-287.61926545669945 L-766.3062205845125,-287.5311721820813 L-766.3505711871534,-287.4416781857119 L-766.3924565029428,-287.35087137609463 L-766.4318353886134,-287.2588409512878 L-766.4686691629236,-287.16567731128737 L-766.5029216446535,-287.0714719692281 L-766.5345591881448,-286.9763174614918 L-766.5635507163512,-286.88030725681045 L-766.5898677513638,-286.7835356644532 L-766.6134844423855,-286.68609774158796 L-766.634377591123,-286.5880891999083 L-766.6525266745747,-286.48960631161765 L-766.66791386519,-286.39074581486204 L-766.6805240483807,-286.2916048187065 L-766.6903448373679,-286.1922807077459 L-766.6973665853499,-286.0928710464459 L-766.7015823949771,-285.9934734833069 L-766.7029881251282,-285.8941856549454 " />
			<path d="M-766.7029881251282,-153.75433878642966 L-766.7008080744612,-153.63099141036292 L-766.6942712434551,-153.50815336728454 L-766.6833875900352,-153.38601178335225 L-766.6681736938881,-153.264752723768 L-766.6486527312047,-153.1445609093344 L-766.6248544393744,-153.02561943505893 L-766.596815071685,-152.9081094912351 L-766.5645773420955,-152.7922100874248 L-766.5281903601677,-152.678097779763 L-766.4877095562548,-152.56594640199975 L-766.4431965970614,-152.4559268006894 L-766.3947192917025,-152.34820657493032 L-766.3423514884068,-152.24294982105167 L-766.2861729620194,-152.14031688263623 L-766.2262692924751,-152.04046410625978 L-766.1627317344315,-151.9435436033197 L-766.0956570782541,-151.84970301831493 L-766.0251475025709,-151.75908530393062 L-765.9513104186173,-151.6718285032705 L-765.874258306611,-151.58806553956765 L-765.7941085444039,-151.5079240136953 L-765.7109832286749,-151.43152600978493 L-765.6250089889314,-151.35898790924878 L-765.536316794609,-151.29042021348934 L-765.4450417555573,-151.22592737556636 L-765.35132291622,-151.16560764107746 L-765.2553030438203,-151.10955289849522 L-765.1571284108753,-151.05784853918811 L-765.0569485723715,-151.01057332733902 L-764.9549161379385,-150.96779927995937 L-764.8511865393702,-150.9295915571814 L-764.7459177938472,-150.89600836299618 " />
			<path d="M-764.7459177938472,-150.89600836299618 L-764.6360095505869,-150.86629609217076 L-764.5248152209202,-150.84159601562644 L-764.4125146433724,-150.8219480816713 L-764.2992894456429,-150.80738406760452 L-764.1853227508518,-150.7979275283215 L-764.0707988813687,-150.79359375821798 L-763.9559030607016,-150.79438976645375 L-763.8408211139284,-150.80031426561655 " />
			<path d="M-763.8408211139284,-150.80031426561652 L-735.5769218783311,-152.88395656154722 " />
			<path d="M-735.5769218783312,-152.88395656154722 L-735.436481999555,-152.89812233952844 L-735.2963804527478,-152.91987881642328 L-735.1569547548073,-152.94917357897322 L-735.0185407944523,-152.98593605352937 L-734.8814720230367,-153.0300776760705 L-734.7460786512366,-153.0814921055616 L-734.612686853544,-153.14005548013864 L-734.4816179824832,-153.2056267155027 L-734.3531877944446,-153.2780478448044 L-734.2277056890006,-153.3571443992 L-734.1054739635341,-153.44272582816183 L-733.9867870849779,-153.53458595853152 L-733.8719309804183,-153.63250349120898 L-733.7611823482713,-153.73624253428147 L-733.6548079916922,-153.84555317130773 L-733.5530641758235,-153.96017206338868 L-733.4561960104289,-154.0798230835739 L-733.3644368594038,-154.20421798207553 L-733.2780077785801,-154.3330570806874 L-733.1971169831838,-154.466029994736 L-733.1219593462262,-154.6028163808243 L-733.0527159290377,-154.74308670856715 L-732.9895535450755,-154.88650305445879 L-732.9326243580548,-155.03271991596017 L-732.8820655153735,-155.18138504384487 L-732.8379988177121,-155.33214029079826 L-732.8005304256051,-155.4846224742259 L-732.7697506036908,-155.63846425119192 L-732.7457335032562,-155.7932950033808 L-732.7285369836002,-155.94874172994884 L-732.7182024726445,-156.10442994611626 L-732.7147548671314,-156.25998458533363 " />
			<path d="M-732.7147548671314,-156.25998458533365 L-732.7147548671314,-288.39983145384934 " />
			<path d="M-732.7147548671314,-288.39983145384934 L-732.715956496873,-288.4914460870276 L-732.7195603771322,-288.5828066240286 L-732.7255634818592,-288.67383635267026 L-732.7339607704614,-288.7644588385385 L-732.7447451920353,-288.85459798916634 L-732.757907691287,-288.9441781179263 L-732.7734372161354,-289.0331240075815 L-732.7913207269931,-289.1213609734431 L-732.8115432077143,-289.2088149260801 L-732.8340876782036,-289.29541243353003 L-732.8589352086738,-289.3810807829566 L-732.8860649355404,-289.46574804170444 L-732.9154540789401,-289.5493431176984 L-732.9470779618582,-289.63179581913676 L-732.9809100308488,-289.7130369134291 L-733.0169218783312,-289.7929981853281 L-733.0550832664425,-289.8716124942078 L-733.0953621524268,-289.94881383043884 L-733.1377247155415,-290.0245373708147 L-733.1821353854542,-290.0987195329812 L-733.2285568721106,-290.17129802882454 L-733.2769501970452,-290.2422119167722 L-733.3272747261101,-290.31140165296347 L-733.3794882035945,-290.37880914124645 L-733.4335467877052,-290.4443777819591 L-733.4894050873784,-290.50805251945405 L-733.5470162003934,-290.56977988832693 L-733.6063317527551,-290.6295080583093 L-733.6673019393112,-290.6871868777885 L-733.729875565572,-290.7427679159187 L-733.7940000906972,-290.79620450328576 L-733.8596216716115,-290.84745177109465 " />
			<path d="M-2786.4733815493187,-52.80831256873192 L-2758.223995223892,-55.027840101855375 " />
			<path d="M-2758.223995223892,-55.02784010185538 L-2758.0836404417055,-55.04267951650946 L-2757.9436497538904,-55.065104886129646 L-2757.804360410276,-55.09506218603629 L-2757.6661079710902,-55.13247924646997 L-2757.5292254985698,-55.17726592645476 L-2757.3940427545795,-55.22931433095572 L-2757.2608854061905,-55.288499070807504 L-2757.1300742411186,-55.35467756478784 L-2757.0019243949178,-55.427690383108185 L-2756.8767445917924,-55.507361631494035 L-2756.7548364008526,-55.59349937492964 L-2756.636493509608,-55.68589610004631 L-2756.5220010164494,-55.784329215040216 L-2756.411634743821,-55.88856158591563 L-2756.3056605737415,-55.99834210776143 L-2756.2043338072676,-56.11340630968486 L-2756.107898549455,-56.23347699194505 L-2756.0165871212876,-56.358264893751475 L-2755.9306194999926,-56.48746939011857 L-2755.8502027891,-56.620779216097596 L-2755.7755307195102,-56.757873216641215 L-2755.706783182779,-56.898421120294095 L-2755.6441257977444,-57.0420843348458 L-2755.5877095115347,-57.188516763029064 L-2755.537670235925,-57.33736563629842 L-2755.494128519913,-57.488272364680554 L-2755.4571892593067,-57.640873400648914 L-2755.4269414440205,-57.79480111494158 L-2755.4034579436902,-57.94968468221235 L-2755.3867953321255,-58.10515097438147 L-2755.376993751017,-58.26082545953386 L-2755.374076813232,-58.41633310419932 " />
			<path d="M-2004.1485625261207,164.023881933506 L-2004.4267938826147,82.3600827103763 " />
			<path d="M-2755.374076813232,-58.41633310419932 L-2755.652308169726,-140.08013232732904 " />
			<path d="M-2755.6523081697264,-140.08013232732907 L-2755.6537911726205,-140.17067696325864 L-2755.6576213578996,-140.26096275785858 L-2755.6637955812926,-140.35091559383613 L-2755.672308774265,-140.44046162723058 L-2755.6831539481773,-140.5295273480329 L-2755.6963222000245,-140.61803964053175 L-2755.711802719743,-140.70592584333536 L-2755.7295827990847,-140.79311380902064 L-2755.7496478420517,-140.87953196336042 L-2755.771981376876,-140.96510936408 L-2755.7965650695414,-141.049775759095 L-2755.823378738837,-141.13346164418266 L-2755.8524003729212,-141.21609832003904 L-2755.8836061473935,-141.29761794867565 L-2755.9169704448514,-141.3779536091089 L-2755.952465875921,-141.45703935229682 L-2755.9900633017405,-141.53481025527776 L-2756.0297318578823,-141.61120247446695 L-2756.0714389796885,-141.68615329806687 L-2756.115150429005,-141.75960119754848 L-2756.160830322288,-141.8314858781612 L-2756.208441160061,-141.90174832843002 L-2756.2579438576986,-141.970330868599 L-2756.309297777514,-142.0371771979818 L-2756.3624607621164,-142.10223244117984 L-2756.4173891690198,-142.16544319313064 L-2756.474037906471,-142.22675756294896 L-2756.532360470464,-142.28612521652502 L-2756.5923089829193,-142.34349741784473 L-2756.6538342309846,-142.398827068998 L-2756.7168857074357,-142.4520687488422 L-2756.7814116521404,-142.50317875028932 " />
			<path d="M-2005.1901132112139,80.27673985265935 L-2005.1548714493254,80.45410892870557 L-2005.124083232257,80.63441767131275 L-2005.0978529235344,80.81705488379889 L-2005.0762694366374,81.00140147661425 L-2005.0594059336065,81.18683256588332 L-2005.0473195770448,81.37271959158811 L-2005.0400513363525,81.5584324482124 L-2005.0376258488518,81.74334162062489 " />
			<path d="M-2005.0376258313536,163.4405822781186 L-2005.039006272773,163.57915899548544 L-2005.0431449339067,163.7166542267138 L-2005.050033830341,163.85280271239583 L-2005.0596596718362,163.9873417913004 L-2005.0720038879663,164.12001190710623 L-2005.0870426639456,164.25055710914472 L-2005.104746986573,164.3787255461866 L-2005.1250827002048,164.50426995232002 L-2005.1480105726482,164.62694812398246 L-2005.1734863708507,164.74652338722606 L-2005.2014609462333,164.86276505431542 L-2005.2318803295116,164.9754488687762 L-2005.264685834813,165.08435743803673 L-2005.2998141728958,165.18928065282753 L-2005.3371975732487,165.29001609252944 L-2005.3767639148343,165.38636941568893 L-2005.4184368652288,165.47815473494666 L-2005.4621360278825,165.56519497565634 L-2005.5077770972239,165.64732221750162 L-2005.555272021305,165.7243780184526 L-2005.6045291716716,165.79621372043613 L-2005.6554535201367,165.86269073613101 L-2005.7079468221114,165.9236808163342 L-2005.7619078061396,165.97906629738267 L-2005.8172323692754,166.02874032815305 L-2005.8738137779196,166.0726070762017 L-2005.9315428737343,166.11058191264732 L-2005.9903082842327,166.14259157543896 L-2006.0499966376433,166.1685743106952 L-2006.110492781628,166.18847999184143 L-2006.1716800054387,166.2022702163153 L-2006.233440265078,166.20991837965386 " />
			<path d="M-2006.233440265078,166.20991837965386 L-2006.2919056446613,166.21149408175228 L-2006.3506723654818,166.2076278174988 L-2006.40964026625,166.19832617650755 L-2006.4687088427881,166.18360501238305 " />
			<path d="M-18.425220020607036,19.62315761651181 L-32.55716476521555,15.455872676975972 " />
			<path d="M-2006.468708842788,166.18360501238303 L-2020.6006535873964,162.0163200728472 " />
			<path d="M-32.55716476521555,15.455872676975975 L-32.62738468039019,15.431353532042557 L-32.69743542964027,15.399268630363029 L-32.76714825457513,15.35969526727584 L-32.83635521089337,15.312728778478881 L-32.904889572975414,15.258482310357449 L-32.97258623554009,15.197086547404673 L-33.039282111397775,15.128689397391144 L-33.10481652434164,15.053455635042122 L-33.16903159623079,14.971566505080808 L-33.23177262733244,14.88321928559392 L-33.29288846900721,14.788626812771506 L-33.3522318878394,14.688016968165913 L-33.409659920335166,14.58163212970518 L-33.46503421733413,14.469728587783369 L-33.51822137730459,14.352575927834565 L-33.56909326771955,14.230456380877943 L-33.61752733373915,14.10366414359853 L-33.663406893456006,13.972504669601623 L-33.7066214189922,13.837293933548294 L-33.74706680277057,13.698357669944754 L-33.784645608318996,13.556030588419404 L-33.81926730500339,13.410655567378022 L-33.850848486123944,13.262582827979642 L-33.879313069849154,13.112169090423114 L-33.90459248250362,12.9597767145769 L-33.926625823768035,12.80577282702241 L-33.94536001339342,12.65052843661391 L-33.96074991907602,12.494417540685697 L-33.97275846518508,12.337816224059761 L-33.98135672208117,12.181101753024508 L-33.98652397581033,12.02465166646723 L-33.988247778005714,11.86884286634986 " />
			<path d="M-2020.6006535873964,162.0163200728472 L-2020.6708735025709,161.99180092791377 L-2020.740924251821,161.95971602623425 L-2020.810637076756,161.92014266314706 L-2020.879844033074,161.8731761743501 L-2020.9483783951562,161.81892970622866 L-2021.0160750577209,161.7575339432759 L-2021.0827709335786,161.68913679326235 L-2021.1483053465224,161.61390303091335 L-2021.2125204184115,161.53201390095202 L-2021.2752614495132,161.44366668146515 L-2021.336377291188,161.34907420864272 L-2021.3957207100202,161.24846436403712 L-2021.4531487425159,161.1420795255764 L-2021.508523039515,161.0301759836546 L-2021.5617101994853,160.91302332370577 L-2021.6125820899003,160.79090377674916 L-2021.66101615592,160.66411153946976 L-2021.7068957156368,160.53295206547284 L-2021.750110241173,160.39774132941952 L-2021.7905556249514,160.25880506581598 L-2021.8281344304999,160.1164779842906 L-2021.8627561271842,159.97110296324925 L-2021.8943373083048,159.82303022385085 L-2021.9228018920298,159.67261648629434 L-2021.9480813046844,159.5202241104481 L-2021.9701146459488,159.36622022289362 L-2021.9888488355741,159.21097583248513 L-2022.0042387412568,159.05486493655692 L-2022.0162472873658,158.898263619931 L-2022.024845544262,158.74154914889573 L-2022.030012797991,158.58509906233846 L-2022.0317366001866,158.4292902622211 " />
			<path d="M-33.988247778005714,11.868842866349851 L-33.98824779550421,-69.82839779114381 " />
			<path d="M-2022.0317366001866,158.42929026222106 L-2022.0317366176853,76.73204960472741 " />
			<path d="M-33.98824779550421,-69.82839779114381 L-33.98717263497312,-69.95074413831185 L-33.983948768845345,-70.0722725545546 L-33.978581041247544,-70.19280043333053 L-33.97107751763638,-70.31214667148879 L-33.96144947267945,-70.43013194139168 L-33.94971137331414,-70.54657896036942 L-33.93588085700992,-70.66131275710201 L-33.91997870526652,-70.7741609345282 L-33.902028812388025,-70.8849539288864 L-33.882058149579706,-70.99352526449833 L-33.8600967244215,-71.09971180391253 L-33.8361775357792,-71.20335399303194 L-33.810336524220844,-71.30429610085721 L-33.78261251801308,-71.40238645348545 L-33.75304717477844,-71.49747766201284 L-33.72168491890131,-71.58942684399877 L-33.688572874776604,-71.67809583815848 L-33.65376079600145,-71.76335141196199 L-33.61730099061626,-71.84506546182692 L-33.57924824250757,-71.92311520560486 L-33.539659729090694,-71.9973833670717 L-33.4985949353959,-72.06775835214493 L-33.45611556468723,-72.13413441656299 L-33.4122854457482,-72.19641182477478 L-33.367170436973765,-72.25449699980072 L-33.32083832741258,-72.30830266383984 L-33.27335873490837,-72.35774796941192 L-33.22480300149329,-72.40275862083763 L-33.17524408619064,-72.44326698587388 L-33.12475645538781,-72.4792121973369 L-33.07341597094442,-72.51054024456032 L-33.02129977620353,-72.53720405455051 " />
			<path d="M-2022.031736617685,76.73204960472741 L-2022.0282687241454,76.5128660410544 L-2022.0178818506838,76.29679001009548 L-2022.0006263375967,76.08486873088079 L-2021.9765858142516,75.87812928631025 L-2021.9458767937726,75.67757364536521 L-2021.908648108358,75.4841738070354 L-2021.8876440642543,75.39045170596292 L-2021.8650801879596,75.29886708949641 L-2021.8409838268879,75.2095309581736 L-2021.8153841858236,75.1225515873687 " />
			<path d="M-198.74172184018136,-36.7143047586774 L-198.74172184018136,-60.3637952986947 " />
			<path d="M-2186.7850392756945,109.84619306300418 L-2186.7850392756945,28.14895240926616 " />
			<path d="M-2187.126423527581,25.99664067631206 L-2187.086605684895,26.116569171715142 L-2187.048981994918,26.239625923493175 L-2187.013625543858,26.365571886742664 L-2186.980605013679,26.494162404098667 L-2186.9499845486835,26.62514768099593 L-2186.9218236309075,26.758273270909406 L-2186.896176964572,26.893280569631422 L-2186.87309436982,27.029907317625405 L-2186.852620685935,27.16788810948031 L-2186.8347956842404,27.30695490947606 L-2186.819653990839,27.446837572258566 L-2186.807225019352,27.58726436761277 L-2186.797532913779,27.72796250831443 L-2186.7905965016007,27.868658680035157 L-2186.786429257201,28.009079572271432 L-2186.785039275694,28.148952409266137 " />
			<path d="M-198.7417218401813,-36.71430475867741 L-198.74310228207827,-36.57572804269021 L-198.74724094458446,-36.438232812748836 L-198.75412984328378,-36.30208432825332 L-198.76375568793236,-36.167545250427104 L-198.77609990809844,-36.03487513558407 L-198.79113868898915,-35.90432993438582 L-198.80884301739428,-35.77616149805481 L-198.82917873765967,-35.65061709249648 L-198.85210661758097,-35.52793892126735 L-198.87758242409151,-35.40836365830956 L-198.9055570085979,-35.292121991353326 L-198.93597640179874,-35.17943817686811 L-198.9687819178037,-35.070529607421186 L-199.00391026735178,-34.96560639227817 L-199.04129367991067,-34.86487095205474 L-199.08086003442136,-34.76851762820149 L-199.1225329984361,-34.67673230807527 L-199.16623217538086,-34.58969206632051 L-199.21187325965855,-34.50756482325206 L-199.2593681992936,-34.43050902089903 L-199.308625365804,-34.35867331733421 L-199.3595497309736,-34.29219629987902 L-199.41204305018292,-34.23120621773728 L-199.46600405194516,-34.175820734573406 L-199.5213286332819,-34.126146701512646 L-199.57791006056138,-34.082279951001055 L-199.63563917541154,-34.04430511192305 L-199.69440460531155,-34.01229544633313 L-199.75409297845434,-33.98631270811681 L-199.8145891424666,-33.96640702385343 L-199.87577638656367,-33.9526167961106 L-199.93753666671114,-33.944968629356985 " />
			<path d="M-199.93753666671114,-33.944968629356985 L-199.99600207142362,-33.943392924032175 L-200.05476881755416,-33.947259185996074 L-200.11373674375292,-33.95656082563734 L-200.17280534578117,-33.971281989350935 " />
			<path d="M-2186.785039275694,109.84619306300416 L-2186.786419717591,109.98476977899136 L-2186.790558380097,110.12226500893274 L-2186.7974472787964,110.25841349342825 L-2186.807073123445,110.39295257125448 L-2186.8194173436113,110.5256226860975 L-2186.834456124502,110.65616788729577 L-2186.852160452907,110.78433632362676 L-2186.8724961731723,110.90988072918509 L-2186.895424053094,111.03255890041423 L-2186.920899859604,111.15213416337203 L-2186.9488744441105,111.26837583032825 L-2186.9792938373116,111.38105964481348 L-2187.0120993533164,111.4899682142604 L-2187.047227702865,111.59489142940342 L-2187.0846111154233,111.69562686962684 L-2187.1241774699342,111.7919801934801 L-2187.165850433949,111.8837655136063 L-2187.2095496108936,111.97080575536107 L-2187.255190695171,112.05293299842951 L-2187.3026856348065,112.12998880078254 L-2187.351942801317,112.20182450434737 L-2187.4028671664864,112.26830152180256 L-2187.4553604856956,112.3292916039443 L-2187.509321487458,112.38467708710817 L-2187.564646068795,112.43435112016893 L-2187.621227496074,112.47821787068052 L-2187.678956610924,112.51619270975853 L-2187.7377220408243,112.54820237534845 L-2187.797410413967,112.57418511356477 L-2187.8579065779795,112.59409079782814 L-2187.9190938220763,112.60788102557098 L-2187.980854102224,112.61552919232459 " />
			<path d="M-2187.980854102224,112.61552919232459 L-2188.0393195069364,112.61710489764941 L-2188.098086253067,112.6132386356855 L-2188.1570541792657,112.60393699604424 L-2188.216122781294,112.58921583233065 " />
			<path d="M-200.17280534578117,-33.971281989350935 L-214.30475496357985,-38.13856658121231 " />
			<path d="M-2188.2161227812944,112.58921583233065 L-2202.348072399093,108.42193124046928 " />
			<path d="M-214.30475496357985,-38.13856658121231 L-214.37497490296798,-38.163085724417996 L-214.44502567637156,-38.19517062437361 L-214.51473852534176,-38.23474398574485 L-214.5839455055193,-38.28171047283795 L-214.6524798912271,-38.33595693927174 L-214.7201765771271,-38.397352700557136 L-214.7868724759734,-38.46574984892757 L-214.85240691150386,-38.540983609661744 L-214.91662200552315,-38.62287273804034 L-214.97936305824513,-38.71121995598046 L-215.0404789209784,-38.805812427295784 L-215.09982236025647,-38.90642227043759 L-215.15725041253629,-39.01280710748136 L-215.21262472860977,-39.124710648036455 L-215.2658119068993,-39.24186330667209 L-215.31668381483374,-39.36398285237223 L-215.36511789753098,-39.490775088454896 L-215.41099747304355,-39.621934561317666 L-215.4542120134554,-39.7571452963022 L-215.49465741115355,-39.89608155890486 L-215.53223622963233,-40.038408639499664 L-215.56685793822658,-40.183783659683066 L-215.5984391302077,-40.33185639829811 L-215.62690372371807,-40.48227013514782 L-215.65218314505873,-40.634662510365445 L-215.67421649388942,-40.78866639737109 L-215.69295068994293,-40.94391078731181 L-215.70834060090004,-41.10002168285443 L-215.7203491511173,-41.2566229991779 L-215.72894741094535,-41.413337469994524 L-215.73411466642318,-41.56978755641756 L-215.73583846917973,-41.72559635648538 " />
			<path d="M-2202.348072399093,108.42193124046928 L-2202.418292338481,108.39741209726358 L-2202.4883431118847,108.36532719730798 L-2202.5580559608547,108.32575383593674 L-2202.6272629410323,108.27878734884362 L-2202.69579732674,108.22454088240984 L-2202.76349401264,108.16314512112444 L-2202.8301899114863,108.094747972754 L-2202.8957243470168,108.01951421201984 L-2202.959939441036,107.93762508364124 L-2203.0226804937583,107.84927786570113 L-2203.0837963564913,107.7546853943858 L-2203.1431397957695,107.65407555124399 L-2203.200567848049,107.54769071420021 L-2203.2559421641226,107.43578717364512 L-2203.3091293424122,107.31863451500949 L-2203.3600012503466,107.19651496930935 L-2203.408435333044,107.06972273322668 L-2203.4543149085566,106.93856326036392 L-2203.497529448968,106.80335252537938 L-2203.5379748466667,106.66441626277671 L-2203.5755536651454,106.52208918218192 L-2203.6101753737394,106.3767141619985 L-2203.6417565657207,106.22864142338346 L-2203.670221159231,106.07822768653376 L-2203.6955005805717,105.92583531131613 L-2203.7175339294026,105.77183142431049 L-2203.736268125456,105.61658703436977 L-2203.751658036413,105.46047613882715 L-2203.7636665866303,105.30387482250369 L-2203.7722648464583,105.14716035168705 L-2203.777432101936,104.99071026526403 L-2203.7791559046927,104.8349014651962 " />
			<path d="M-215.73583846917973,-41.7255963564854 L-215.73583846917973,-123.42283701022342 " />
			<path d="M-2203.7791559046927,104.83490146519618 L-2203.7791559046927,23.13766081145816 " />
			<path d="M-215.73583846917973,-123.42283701022339 L-215.73476330830127,-123.54518335459528 L-215.73153944118437,-123.66671176813675 L-215.726171711957,-123.78723964431877 L-215.71866818607782,-123.90658588000277 L-215.70904013821738,-124.02457114756302 L-215.6973020353167,-124.14101816434147 L-215.68347151484983,-124.25575195902951 L-215.66756935832174,-124.3686001345769 L-215.6496194600426,-124.47939312723273 L-215.62964879122455,-124.58796446132895 L-215.6076873594552,-124.69415099942391 L-215.58376816360874,-124.79779318742993 L-215.55792714426235,-124.8987352943565 L-215.5302031296926,-124.99682564630908 L-215.5006377775327,-125.09191685439168 L-215.46927551217834,-125.18386603617097 L-215.4361634580365,-125.27253503036887 L-215.40135136871712,-125.35779060446148 L-215.36489155227397,-125.43950465487195 L-215.3268387926077,-125.51755439945669 L-215.28725026714838,-125.59182256199578 L-215.24618546094158,-125.66219754841028 L-215.2037060772673,-125.72857361444146 L-215.1598759449256,-125.79085102454047 L-215.11476092232854,-125.84893620172916 L-215.0684287985424,-125.90274186820734 L-215.02094919142908,-125.9521871764949 L-214.97239344303938,-125.99719783091183 L-214.9228345124157,-126.03770619921367 L-214.87234686596508,-126.07365141421458 L-214.8210063655671,-126.10497946524532 L-214.76889015458522,-126.13164327930879 " />
			<path d="M-2203.7791559046927,23.137660811458183 L-2203.7777331102493,22.996981694907557 L-2203.773467556025,22.857421425302523 L-2203.7663677237156,22.71925750647198 L-2203.7564477307387,22.58276466571905 L-2203.7437273021637,22.448214307548994 L-2203.7282317314903,22.31587397400424 L-2203.7099918303547,22.186006812679594 L-2203.689043867262,22.05887105347543 L-2203.6654294954706,21.934719495129297 L-2203.6391956701677,21.81379900254697 L-2203.610394555103,21.69635001593237 L-2203.5790834188656,21.582606072692524 L-2203.5453245210097,21.472793343068084 L-2203.5091849882574,21.367130180412904 L-2203.470736681022,21.265826687016798 L-2203.4300560505208,21.169084296334848 " />
			<path d="M-380.4893270513643,-90.30874963628698 L-380.4893270513643,-113.95822818098212 " />
			<path d="M-2368.5326444868774,56.25174818539459 L-2368.5326444868774,-25.44549246834343 " />
			<path d="M-2368.9680315852297,-27.847225952113302 L-2368.917821931948,-27.71932928884112 L-2368.8702350874078,-27.586788800662333 L-2368.82539038469,-27.449936858106366 L-2368.783400280431,-27.30911664349602 L-2368.7443700728195,-27.16468129035242 L-2368.7083976375375,-27.01699299784543 L-2368.675573182321,-26.866422122510205 L-2368.645979020746,-26.7133462495076 L-2368.619689365812,-26.55814924575746 L-2368.596770143838,-26.401220297319135 L-2368.5772788291406,-26.242952933433326 L-2368.5612642999054,-26.083744039672485 L-2368.5487667156153,-25.92399286267463 L-2368.539817416345,-25.764100008956333 L-2368.5344388441677,-25.604466440315534 L-2368.5326444868774,-25.445492468343467 " />
			<path d="M-380.4893270513643,-90.308749636287 L-380.49070749326125,-90.1701729202998 L-380.49484615576745,-90.03267769035843 L-380.5017350544668,-89.89652920586292 L-380.51136089911535,-89.76199012803669 L-380.52370511928143,-89.62932001319366 L-380.5387439001721,-89.4987748119954 L-380.55644822857727,-89.37060637566441 L-380.57678394884266,-89.24506197010608 L-380.599711828764,-89.12238379887694 L-380.6251876352745,-89.00280853591914 L-380.6531622197809,-88.88656686896292 L-380.68358161298175,-88.7738830544777 L-380.7163871289867,-88.66497448503077 L-380.75151547853477,-88.56005126988775 L-380.78889889109365,-88.45931582966433 L-380.8284652456043,-88.36296250581107 L-380.8701382096191,-88.27117718568486 L-380.91383738656384,-88.1841369439301 L-380.95947847084153,-88.10200970086166 L-381.0069734104766,-88.02495389850863 L-381.056230576987,-87.9531181949438 L-381.1071549421566,-87.88664117748861 L-381.15964826136593,-87.82565109534687 L-381.21360926312815,-87.770265612183 L-381.2689338444649,-87.72059157912224 L-381.32551527174434,-87.67672482861065 L-381.3832443865945,-87.63874998953264 L-381.44200981649453,-87.60674032394272 L-381.5016981896373,-87.5807575857264 L-381.56219435364955,-87.56085190146302 L-381.62338159774663,-87.5470616737202 L-381.6851418778941,-87.53941350696658 " />
			<path d="M-381.6851418778941,-87.53941350696658 L-381.7436072826066,-87.53783780164176 L-381.8023740287372,-87.54170406360566 L-381.86134195493594,-87.55100570324693 L-381.92041055696416,-87.56572686696052 " />
			<path d="M-2368.5326444868774,56.25174818539458 L-2368.534024928774,56.39032490138178 L-2368.5381635912804,56.52782013132315 L-2368.5450524899798,56.66396861581867 L-2368.5546783346285,56.798507693644886 L-2368.5670225547947,56.93117780848792 L-2368.5820613356855,57.06172300968617 L-2368.5997656640902,57.18989144601718 L-2368.6201013843556,57.31543585157551 L-2368.643029264277,57.43811402280464 L-2368.6685050707874,57.55768928576243 L-2368.696479655294,57.67393095271866 L-2368.726899048495,57.78661476720388 L-2368.7597045644998,57.895523336650804 L-2368.794832914048,58.00044655179382 L-2368.8322163266066,58.10118199201725 L-2368.8717826811176,58.1975353158705 L-2368.913455645132,58.28932063599672 L-2368.957154822077,58.37636087775148 L-2369.0027959063545,58.45848812081993 L-2369.05029084599,58.53554392317296 L-2369.0995480125002,58.60737962673778 L-2369.1504723776698,58.673856644192966 L-2369.202965696879,58.73484672633471 L-2369.256926698641,58.79023220949858 L-2369.312251279978,58.839906242559344 L-2369.3688327072573,58.883772993070934 L-2369.4265618221075,58.92174783214894 L-2369.4853272520077,58.95375749773886 L-2369.5450156251504,58.97974023595518 L-2369.605511789163,58.99964592021856 L-2369.6666990332596,59.01343614796139 L-2369.7284593134073,59.021084314715004 " />
			<path d="M-2369.7284593134073,59.021084314715004 L-2369.7869247181197,59.022660020039815 L-2369.84569146425,59.018793758075915 L-2369.904659390449,59.00949211843465 L-2369.9637279924773,58.994770954721055 " />
			<path d="M-381.9204105569641,-87.5657268669605 L-396.0523601747628,-91.73301145882188 " />
			<path d="M-2369.9637279924773,58.994770954721076 L-2384.0956776102757,54.8274863628597 " />
			<path d="M-396.0523601747628,-91.73301145882186 L-396.1225801141509,-91.75753060202756 L-396.19263088755446,-91.78961550198318 L-396.2623437365247,-91.8291888633544 L-396.3315507167022,-91.87615535044752 L-396.40008510241,-91.9304018168813 L-396.46778178831005,-91.9917975781667 L-396.53447768715637,-92.06019472653713 L-396.6000121226868,-92.1354284872713 L-396.6642272167061,-92.2173176156499 L-396.7269682694281,-92.30566483359001 L-396.7880841321613,-92.40025730490534 L-396.8474275714394,-92.50086714804715 L-396.90485562371924,-92.60725198509093 L-396.9602299397927,-92.71915552564602 L-397.01341711808226,-92.83630818428165 L-397.06428902601664,-92.95842772998179 L-397.1127231087139,-93.08521996606446 L-397.1586026842265,-93.21637943892722 L-397.2018172246383,-93.35159017391176 L-397.24226262233645,-93.49052643651443 L-397.2798414408153,-93.63285351710923 L-397.3144631494095,-93.77822853729263 L-397.3460443413906,-93.92630127590768 L-397.374508934901,-94.07671501275738 L-397.39978835624163,-94.229107387975 L-397.4218217050723,-94.38311127498065 L-397.44055590112583,-94.53835566492137 L-397.455945812083,-94.694466560464 L-397.46795436230025,-94.85106787678745 L-397.4765526221283,-95.00778234760409 L-397.4817198776061,-95.16423243402711 L-397.48344368036265,-95.32004123409494 " />
			<path d="M-2384.0956776102757,54.82748636285971 L-2384.165897549664,54.80296721965402 L-2384.2359483230675,54.77088231969841 L-2384.3056611720376,54.73130895832717 L-2384.374868152215,54.68434247123407 L-2384.443402537923,54.63009600480028 L-2384.511099223823,54.56870024351488 L-2384.577795122669,54.500303095144446 L-2384.6433295581996,54.425069334410274 L-2384.707544652219,54.343180206031676 L-2384.770285704941,54.25483298809156 L-2384.831401567674,54.160240516776234 L-2384.8907450069523,54.05963067363443 L-2384.948173059232,53.95324583659066 L-2385.0035473753055,53.84134229603556 L-2385.056734553595,53.72418963739993 L-2385.1076064615295,53.60207009169979 L-2385.156040544227,53.47527785561712 L-2385.2019201197395,53.34411838275435 L-2385.245134660151,53.20890764776982 L-2385.2855800578495,53.06997138516716 L-2385.3231588763283,52.927644304572354 L-2385.3577805849222,52.78226928438895 L-2385.3893617769036,52.63419654577391 L-2385.417826370414,52.4837828089242 L-2385.4431057917545,52.331390433706574 L-2385.4651391405855,52.17738654670093 L-2385.4838733366387,52.02214215676021 L-2385.499263247596,51.866031261217586 L-2385.511271797813,51.70942994489412 L-2385.519870057641,51.552715474077495 L-2385.525037313119,51.39626538765446 L-2385.5267611158756,51.240456587586635 " />
			<path d="M-397.48344368036265,-95.32004123409494 L-397.48344368036265,-177.01728188783295 " />
			<path d="M-2385.5267611158756,51.24045658758662 L-2385.5267611158756,-30.4567840661514 " />
			<path d="M-397.48344368036265,-177.01728188783295 L-397.48236851948417,-177.13962823220484 L-397.4791446523673,-177.2611566457463 L-397.4737769231399,-177.38168452192835 L-397.46627339726075,-177.5010307576123 L-397.4566453494003,-177.61901602517258 L-397.44490724649967,-177.73546304195105 L-397.43107672603276,-177.85019683663907 L-397.41517456950464,-177.96304501218646 L-397.39722467122556,-178.0738380048423 L-397.3772540024075,-178.1824093389385 L-397.35529257063814,-178.2885958770335 L-397.33137337479167,-178.3922380650395 L-397.3055323554453,-178.49318017196606 L-397.27780834087554,-178.59127052391864 L-397.2482429887156,-178.68636173200125 L-397.21688072336127,-178.77831091378053 L-397.18376866921943,-178.86697990797842 L-397.1489565799,-178.95223548207105 L-397.1124967634569,-179.0339495324815 L-397.07444400379063,-179.11199927706625 L-397.0348554783313,-179.18626743960536 L-396.9937906721245,-179.25664242601985 L-396.95131128845026,-179.32301849205103 L-396.90748115610853,-179.38529590215003 L-396.8623661335115,-179.4433810793387 L-396.81603400972534,-179.4971867458169 L-396.768554402612,-179.54663205410446 L-396.7199986542223,-179.5916427085214 L-396.67043972359863,-179.63215107682322 L-396.619952077148,-179.66809629182416 L-396.56861157675,-179.69942434285488 L-396.51649536576815,-179.72608815691834 " />
			<path d="M-2385.5267611158756,-30.456784066151393 L-2385.5249264007216,-30.61645867932664 L-2385.5194269596395,-30.774641816078404 L-2385.510276893704,-30.93092788023156 L-2385.497499664529,-31.084916139880384 L-2385.481128034111,-31.23621175490216 L-2385.4612039808226,-31.38442678936374 L-2385.4377785917764,-31.5291812062251 L-2385.410911931835,-31.67010384178943 L-2385.380672889595,-31.806833357401132 L-2385.3471390007553,-31.93901916595151 L-2385.310396249304,-32.06632233081651 L-2385.2705388470504,-32.18841643492154 L-2385.2276689920554,-32.30498841770498 L-2385.1818966065875,-32.41573937783441 L-2385.1333390552713,-32.520385339617214 L-2385.0821208441544,-32.61865798114049 " />
			<path d="M-562.2369322625472,-143.9031945138965 L-562.2369322625472,-167.55267305859167 " />
			<path d="M-2550.2802496980603,2.6573033077850567 L-2550.2802496980603,-79.03993734595296 " />
			<path d="M-2550.8308479714137,-81.69737243268727 L-2550.7682710671675,-81.5644415811866 L-2550.7087310963025,-81.4247400680191 L-2550.6524197947792,-81.27871777254296 L-2550.599518501308,-81.12684492886719 L-2550.550197573384,-80.96961061156145 L-2550.5046158386895,-80.8075211606943 L-2550.462920083619,-80.64109855127137 L-2550.4252445805873,-80.47087871232463 L-2550.3917106556337,-80.29740980106553 L-2550.3624262977132,-80.12125043765994 L-2550.3374858109464,-79.94296790630939 L-2550.3169695109277,-79.76313632843147 L-2550.300943466089,-79.58233481382248 L-2550.289459284939,-79.40114559575612 L-2550.2825539498695,-79.22015215602354 L-2550.28024969806,-79.039937345953 " />
			<path d="M-562.2369322625472,-143.90319451389652 L-562.2383127044441,-143.76461779790932 L-562.2424513669504,-143.62712256796794 L-562.2493402656496,-143.49097408347242 L-562.2589661102982,-143.3564350056462 L-562.2713103304643,-143.22376489080318 L-562.286349111355,-143.09321968960492 L-562.3040534397602,-142.9650512532739 L-562.3243891600256,-142.8395068477156 L-562.3473170399468,-142.71682867648644 L-562.3727928464574,-142.59725341352868 L-562.4007674309637,-142.48101174657242 L-562.4311868241646,-142.36832793208723 L-562.4639923401696,-142.2594193626403 L-562.4991206897176,-142.15449614749727 L-562.5365041022765,-142.05376070727385 L-562.5760704567872,-141.9574073834206 L-562.617743420802,-141.86562206329438 L-562.6614425977467,-141.7785818215396 L-562.7070836820244,-141.69645457847116 L-562.7545786216594,-141.61939877611815 L-562.8038357881699,-141.54756307255332 L-562.8547601533395,-141.48108605509813 L-562.9072534725487,-141.42009597295637 L-562.9612144743111,-141.36471048979251 L-563.0165390556477,-141.31503645673175 L-563.0731204829273,-141.27116970622018 L-563.1308495977773,-141.23319486714215 L-563.1896150276774,-141.20118520155222 L-563.2493034008202,-141.17520246333592 L-563.3097995648325,-141.15529677907253 L-563.3709868089295,-141.1415065513297 L-563.432747089077,-141.1338583845761 " />
			<path d="M-563.432747089077,-141.1338583845761 L-563.4912124937895,-141.1322826792513 L-563.54997923992,-141.13614894121517 L-563.6089471661188,-141.14545058085645 L-563.668015768147,-141.16017174457005 " />
			<path d="M-2550.28024969806,2.6573033077850488 L-2550.2816301399566,2.7958800237722476 L-2550.285768802463,2.9333752537136197 L-2550.292657701162,3.0695237382091323 L-2550.302283545811,3.2040628160353566 L-2550.314627765977,3.33673293087838 L-2550.329666546868,3.4672781320766366 L-2550.3473708752726,3.5954465684076427 L-2550.367706595538,3.7209909739659723 L-2550.3906344754596,3.8436691451951077 L-2550.41611028197,3.963244408152899 L-2550.4440848664763,4.079486075109133 L-2550.4745042596774,4.192169889594346 L-2550.507309775682,4.301078459041274 L-2550.5424381252305,4.4060016741842905 L-2550.579821537789,4.506737114407718 L-2550.6193878923,4.603090438260972 L-2550.6610608563146,4.694875758387183 L-2550.7047600332594,4.7819160001419485 L-2550.750401117537,4.864043243210393 L-2550.7978960571722,4.9410990455634245 L-2550.8471532236827,5.012934749128252 L-2550.898077588852,5.079411766583435 L-2550.9505709080613,5.140401848725178 L-2551.0045319098235,5.19578733188905 L-2551.0598564911606,5.2454613649498105 L-2551.1164379184397,5.289328115461401 L-2551.17416703329,5.327302954539409 L-2551.23293246319,5.35931262012933 L-2551.292620836333,5.385295358345644 L-2551.3531170003453,5.405201042609026 L-2551.414304244442,5.418991270351858 L-2551.4760645245897,5.42663943710547 " />
			<path d="M-2551.4760645245897,5.426639437105472 L-2551.534529929302,5.428215142430284 L-2551.5932966754326,5.424348880466385 L-2551.6522646016315,5.415047240825121 L-2551.7113332036597,5.400326077111524 " />
			<path d="M-563.668015768147,-141.16017174457005 L-577.7999653859457,-145.32745633643145 " />
			<path d="M-2551.71133320366,5.400326077111501 L-2565.8432828214586,1.233041485250126 " />
			<path d="M-577.7999653859456,-145.32745633643142 L-577.8701853253338,-145.3519754796371 L-577.9402360987373,-145.3840603795927 L-578.0099489477075,-145.42363374096396 L-578.079155927885,-145.47060022805707 L-578.1476903135929,-145.52484669449083 L-578.2153869994928,-145.58624245577624 L-578.2820828983391,-145.65463960414667 L-578.3476173338696,-145.72987336488086 L-578.4118324278888,-145.81176249325944 L-578.4745734806108,-145.90010971119958 L-578.5356893433442,-145.99470218251489 L-578.5950327826222,-146.09531202565668 L-578.6524608349021,-146.20169686270046 L-578.7078351509755,-146.31360040325558 L-578.7610223292651,-146.43075306189118 L-578.8118942371995,-146.55287260759135 L-578.8603283198968,-146.679664843674 L-578.9062078954092,-146.81082431653678 L-578.9494224358211,-146.9460350515213 L-578.9898678335193,-147.08497131412398 L-579.027446651998,-147.22729839471876 L-579.0620683605923,-147.37267341490218 L-579.0936495525734,-147.52074615351722 L-579.1221141460838,-147.67115989036694 L-579.1473935674245,-147.82355226558457 L-579.1694269162551,-147.9775561525902 L-579.1881611123086,-148.13280054253093 L-579.2035510232658,-148.28891143807354 L-579.215559573483,-148.44551275439701 L-579.2241578333111,-148.60222722521362 L-579.2293250887889,-148.75867731163666 L-579.2310488915455,-148.9144861117045 " />
			<path d="M-2565.8432828214586,1.233041485250149 L-2565.9135027608468,1.2085223420444602 L-2565.9835535342504,1.1764374420888473 L-2566.0532663832205,1.1368640807176087 L-2566.122473363398,1.089897593624504 L-2566.1910077491057,1.0356511271907203 L-2566.2587044350057,0.9742553659053241 L-2566.325400333852,0.9058582175348877 L-2566.3909347693825,0.8306244568007153 L-2566.455149863402,0.7487353284221174 L-2566.517890916124,0.6603881104819971 L-2566.579006778857,0.5657956391666752 L-2566.638350218135,0.46518579602487087 L-2566.695778270415,0.3588009589810963 L-2566.7511525864884,0.24689741842599933 L-2566.804339764778,0.12974475979037114 L-2566.8552116727124,0.007625214090224652 L-2566.90364575541,-0.11916702199243812 L-2566.9495253309224,-0.2503264948552075 L-2566.992739871334,-0.38553722983974326 L-2567.0331852690324,-0.5244734924424055 L-2567.070764087511,-0.6668005730372057 L-2567.105385796105,-0.8121755932206116 L-2567.1369669880864,-0.9602483318356516 L-2567.1654315815967,-1.1106620686853639 L-2567.1907110029374,-1.2630544439029894 L-2567.2127443517684,-1.4170583309086329 L-2567.2314785478216,-1.5723027208493512 L-2567.246868458779,-1.7284136163919743 L-2567.258877008996,-1.8850149327154395 L-2567.267475268824,-2.04172940353207 L-2567.272642524302,-2.198179489955101 L-2567.2743663270585,-2.3539882900229228 " />
			<path d="M-579.2310488915456,-148.9144861117045 L-579.2310488915456,-230.61172676544248 " />
			<path d="M-2567.2743663270585,-2.3539882900229117 L-2567.2743663270585,-84.05122894376093 " />
			<path d="M-579.2310488915455,-230.61172676544248 L-579.229973730667,-230.73407310981437 L-579.2267498635501,-230.85560152335586 L-579.2213821343228,-230.9761293995379 L-579.2138786084436,-231.0954756352219 L-579.2042505605831,-231.21346090278217 L-579.1925124576825,-231.32990791956064 L-579.1786819372155,-231.44464171424866 L-579.1627797806875,-231.55748988979607 L-579.1448298824083,-231.6682828824519 L-579.1248592135903,-231.77685421654814 L-579.102897781821,-231.8830407546431 L-579.0789785859745,-231.9866829426491 L-579.053137566628,-232.0876250495757 L-579.0254135520584,-232.18571540152828 L-578.9958481998984,-232.2808066096109 L-578.9644859345441,-232.37275579139018 L-578.9313738804022,-232.4614247855881 L-578.8965617910828,-232.54668035968072 L-578.8601019746396,-232.62839441009118 L-578.8220492149734,-232.7064441546759 L-578.7824606895141,-232.780712317215 L-578.7413958833073,-232.8510873036295 L-578.698916499633,-232.91746336966068 L-578.6550863672912,-232.97974077975968 L-578.6099713446941,-233.03782595694838 L-578.563639220908,-233.09163162342657 L-578.5161596137947,-233.1410769317141 L-578.467603865405,-233.186087586131 L-578.4180449347813,-233.22659595443287 L-578.3675572883307,-233.26254116943377 L-578.3162167879327,-233.2938692204645 L-578.2641005769508,-233.32053303452795 " />
			<path d="M-2567.2743663270585,-84.05122894376092 L-2567.272011020319,-84.23204617522173 L-2567.2649528529255,-84.4108791370953 L-2567.2532150578327,-84.58713917543001 L-2567.236836271651,-84.76024610541548 L-2567.2158704074686,-84.92963012114275 L-2567.1903864773885,-85.09473367120098 L-2567.1604683653654,-85.25501329393663 L-2567.126214551091,-85.40994140633424 L-2567.0877377858324,-85.55900804063049 L-2567.045164721297,-85.70172252294502 L-2566.99863549274,-85.83761508840293 L-2566.948303257688,-85.9662384274321 L-2566.894333691802,-86.08716915814593 L-2566.8369044435303,-86.2000092199645 L-2566.776204549354,-86.30438718388731 L-2566.712433811549,-86.39995947510417 " />
			<path d="M-749.7088254036977,-199.185640796828 L-749.708825403303,-220.72511783123622 " />
			<path d="M-2737.7519915697376,-52.62509836822065 L-2737.7519915682406,-134.3223390215172 " />
			<path d="M-2738.454251708449,-137.25324677353376 L-2738.3760561329836,-137.1201335616215 L-2738.301245774712,-136.9770545805947 L-2738.23013444185,-136.8246100061627 L-2738.163020426254,-136.66343930004044 L-2738.1001852521667,-136.49421852758834 L-2738.041892495306,-136.31765752190975 L-2737.98838667724,-136.13449690630281 L-2737.9398922396863,-135.94550498755584 L-2737.896612603044,-135.75147453311843 L-2737.858729313103,-135.5532194456672 L-2737.826401279511,-135.35157134901493 L-2737.7997641091915,-135.14737609968483 L-2737.778929537513,-134.9414902387826 L-2737.7639849595885,-134.73477739904942 L-2737.7549930636806,-134.52810468216805 L-2737.75199156824,-134.32233902151725 " />
			<path d="M-749.7088254036977,-199.185640796828 L-749.7102058459931,-199.04706408202676 L-749.7143445096885,-198.90956885318832 L-749.721233410366,-198.7734203697059 L-749.730859257778,-198.63888129279636 L-749.7432034814876,-198.50621117876727 L-749.7582422666957,-198.3756659782741 L-749.7759466001842,-198.24749754253355 L-749.7962823262898,-198.1219531374456 L-749.8192102127973,-197.9992749665615 L-749.8446860266284,-197.87969970381863 L-749.8726606191765,-197.76345803694272 L-749.9030800211253,-197.65077422239912 L-749.935885546569,-197.5418656527514 L-749.9710139062292,-197.43694243726182 L-750.0083973295555,-197.3362069965432 L-750.0479636954692,-197.2398536720437 L-750.089636671502,-197.14806835111807 L-750.1333358610582,-197.0610281084092 L-750.1789769585178,-196.9789008642308 L-750.226471911881,-196.90184506061138 L-750.2757290926415,-196.8300093556235 L-750.3266534725569,-196.76353233658895 L-750.3791468069812,-196.70254225271228 L-750.4331078244,-196.6471567676592 L-750.4884324218066,-196.5974827325567 L-750.5450138655399,-196.55361597985313 L-750.6027429971981,-196.5156411384356 L-750.66150844423,-196.48363147036187 L-750.7211968347974,-196.45764872952117 L-750.7816930164954,-196.43774304249695 L-750.8428802785073,-196.42395281186154 L-750.9046405767662,-196.41630464208868 " />
			<path d="M-750.9046405767662,-196.41630464208868 L-750.9631060035632,-196.4147289339115 L-751.0218727719375,-196.41859519383243 L-751.0808407204864,-196.42789683224265 L-751.1399093449179,-196.4426179955368 " />
			<path d="M-2737.751991569737,-52.62509836822065 L-2737.7533720120327,-52.48652165341941 L-2737.757510675728,-52.34902642458096 L-2737.7643995764056,-52.21287794109854 L-2737.7740254238174,-52.07833886418899 L-2737.7863696475274,-51.945668750159896 L-2737.801408432735,-51.81512354966673 L-2737.819112766224,-51.686955113926196 L-2737.839448492329,-51.56141070883822 L-2737.862376378837,-51.43873253795414 L-2737.887852192668,-51.31915727521127 L-2737.915826785216,-51.20291560833536 L-2737.946246187165,-51.09023179379176 L-2737.9790517126085,-50.98132322414403 L-2738.0141800722686,-50.876400008654464 L-2738.051563495595,-50.775664567935856 L-2738.0911298615088,-50.679311243436324 L-2738.1328028375415,-50.58752592251071 L-2738.1765020270977,-50.50048567980183 L-2738.222143124557,-50.41835843562345 L-2738.2696380779207,-50.34130263200402 L-2738.318895258681,-50.26946692701615 L-2738.3698196385967,-50.20298990798158 L-2738.422312973021,-50.1419998241049 L-2738.4762739904395,-50.08661433905182 L-2738.531598587846,-50.036940303949336 L-2738.588180031579,-49.993073551245764 L-2738.645909163238,-49.95509870982824 L-2738.7046746102696,-49.923089041754515 L-2738.764363000837,-49.8971063009138 L-2738.824859182535,-49.87720061388959 L-2738.886046444547,-49.86341038325418 L-2738.947806742806,-49.85576221348132 " />
			<path d="M-2738.947806742806,-49.85576221348132 L-2739.0062721696027,-49.85418650530414 L-2739.065038937977,-49.85805276522508 L-2739.124006886526,-49.86735440363529 L-2739.1830755109577,-49.88207556692946 " />
			<path d="M-751.139909344918,-196.44261799553684 L-765.2718632638949,-200.6099022715778 " />
			<path d="M-2739.1830755109577,-49.88207556692948 L-2753.315029429935,-54.049359842970425 " />
			<path d="M-765.2718632638949,-200.60990227157777 L-765.3420832246551,-200.63442141321417 L-765.412134019379,-200.66650631160422 L-765.4818468895666,-200.70607967141743 L-765.5510538908073,-200.75304615696376 L-765.6195882973735,-200.80729262186574 L-765.6872850038768,-200.86868838163804 L-765.7539809230217,-200.93708552851768 L-765.819515378497,-201.012319287787 L-765.8837304920596,-201.0942084147302 L-765.9464715638761,-201.18255563126777 L-766.0075874452091,-201.27714810121688 L-766.0669309025473,-201.37775794303204 L-766.1243589723042,-201.48414277879192 L-766.1797333052295,-201.596046318109 L-766.2329204997052,-201.71319897555546 L-766.283792423121,-201.83531852011814 L-766.3322265205575,-201.96211075511778 L-766.3781061100317,-202.09327022695462 L-766.421320663594,-202.22848096097272 L-766.4617660735997,-202.36741722267084 L-766.4993449035136,-202.5097443024251 L-766.5339666226428,-202.65511932183406 L-766.5655478242334,-202.80319205974257 L-766.5940124264046,-202.95360579595538 L-766.6192918554365,-203.10599817060728 L-766.6413252109705,-203.26000205711975 L-766.6600594127233,-203.41524644664096 L-766.6754493283617,-203.57135734183885 L-766.687457882231,-203.7279586578931 L-766.6960561446731,-203.88467312851677 L-766.7012234017209,-204.04112321482347 L-766.7029472049992,-204.19693201485194 " />
			<path d="M-2753.315029429935,-54.04935984297042 L-2753.3852493906948,-54.073878984606814 L-2753.4553001854188,-54.10596388299687 L-2753.525013055606,-54.145537242810065 L-2753.594220056847,-54.19250372835639 L-2753.662754463413,-54.246750193258386 L-2753.7304511699163,-54.308145953030674 L-2753.797147089061,-54.37654309991033 L-2753.862681544537,-54.45177685917964 L-2753.9268966580994,-54.53366598612282 L-2753.9896377299156,-54.622013202660426 L-2754.0507536112486,-54.71660567260952 L-2754.110097068587,-54.81721551442467 L-2754.167525138344,-54.92360035018456 L-2754.222899471269,-55.03550388950163 L-2754.276086665745,-55.15265654694809 L-2754.3269585891608,-55.27477609151077 L-2754.375392686597,-55.40156832651042 L-2754.4212722760712,-55.532727798347246 L-2754.4644868296336,-55.66793853236536 L-2754.5049322396394,-55.80687479406346 L-2754.5425110695533,-55.94920187381774 L-2754.5771327886823,-56.094576893226694 L-2754.608713990273,-56.24264963113521 L-2754.6371785924443,-56.39306336734803 L-2754.662458021476,-56.54545574199992 L-2754.68449137701,-56.69945962851237 L-2754.703225578763,-56.85470401803361 L-2754.718615494401,-57.01081491323148 L-2754.730624048271,-57.167416229285756 L-2754.7392223107126,-57.3241306999094 L-2754.7443895677607,-57.48058078621611 L-2754.746113371039,-57.63638958624457 " />
			<path d="M-766.7029472049991,-204.19693201485194 L-766.702947203502,-285.8941726681485 " />
			<path d="M-2754.746113371039,-57.636389586244576 L-2754.746113369542,-139.33363023954112 " />
			<path d="M-766.702947203502,-285.89417266814854 L-766.7018720423371,-286.01651901010945 L-766.6986481743653,-286.13804742132425 L-766.6932804437158,-286.25857529527474 L-766.6857769158493,-286.37792152883287 L-766.6761488654386,-286.49590679438336 L-766.6644107594282,-286.61235380927815 L-766.6505802352958,-286.72708760221843 L-766.6346780745513,-286.8399357761636 L-766.6167281715103,-286.9507287673718 L-766.5967574973909,-287.0593001001838 L-766.5747960597874,-287.1654866371665 L-766.5508768575816,-287.26912882424017 L-766.5250358313588,-287.37007093042195 L-766.4973118094041,-287.46816128182445 L-766.4677464493604,-287.5632524895584 L-766.4363841756335,-287.6552016711967 L-766.4032721126409,-287.743870665467 L-766.3684600140039,-287.8291262398506 L-766.3320001877883,-287.91084029077535 L-766.2939474179071,-287.98889003610174 L-766.2543588818035,-288.06315819961344 L-766.2132940645366,-288.1335331872345 L-766.1708146694008,-288.19990925470864 L-766.1269845252106,-288.26218666648873 L-766.0818694903933,-288.3202718455979 L-766.0355373540308,-288.3740775142366 L-765.9880577340012,-288.4235228249246 L-765.9395019723719,-288.4685334819813 L-765.8899430282021,-288.50904185316097 L-765.8394553679163,-288.54498707127584 L-765.7881148534119,-288.5763151256542 L-765.7359986280705,-288.6029789432958 " />
			<path d="M-2754.746113369542,-139.33363023954115 L-2754.7430425702523,-139.53995459162076 L-2754.733843350946,-139.74358243013512 L-2754.718555190726,-139.9436398717249 L-2754.697243699821,-140.1392683556432 L-2754.6700003380097,-140.32962832833013 L-2754.6369420221185,-140.51390284641667 L-2754.5982106242627,-140.6913010826953 L-2754.5539723629918,-140.86106172001112 L-2754.5044170899528,-141.02245621850878 L-2754.449757475126,-141.17479194221295 L-2754.420586015639,-141.24735686712285 L-2754.390228094138,-141.317415131525 L-2754.3587162901595,-141.3848915502408 L-2754.3260844215633,-141.4497137088787 L-2754.2923675082425,-141.51181204154784 L-2754.2576017345377,-141.57111990551488 L-2754.2218244104074,-141.6275736527237 L-2754.185073931386,-141.68111269810123 L-2754.1473897373785,-141.73167958457628 L-2754.108812270336,-141.7792200447412 L-2754.069382930852,-141.82368305909077 L-2754.0291440337332,-141.86502091077526 " />
			<path d="M-764.7459177938473,-150.8960083629962 L-152.7564488795931,29.569840522832273 " />
			<path d="M-2006.2334402650772,166.20991837965383 L-2004.8071371982705,166.10476996777618 " />
			<path d="M-2187.9808541022244,112.61552919232463 L-199.9375366667112,-33.94496862935699 " />
			<path d="M-2369.7284593134073,59.021084314715054 L-381.6851418778941,-87.53941350696657 " />
			<path d="M-2551.47606452459,5.4266394371055355 L-563.432747089077,-141.1338583845761 " />
			<path d="M-2738.9478067428063,-49.85576221348131 L-750.9046405767663,-196.4163046420887 " />

       </g>

       <!-- solid lines -->
       <g  stroke="rgb(0,0,0)" fill="none">
			<path d="M-16.994116628998402,67.32274633370986 L-16.994116628998402,-64.81710053480586 " />
			<path d="M-14.131949617798673,-68.1931285585923 L-14.272389496574899,-68.17896278061107 L-14.412491043382076,-68.15720630371625 L-14.551916741322495,-68.12791154116631 L-14.690330701677567,-68.09114906661016 L-14.82739947309317,-68.047007444069 L-14.962792844893155,-67.9955930145779 L-15.096184642585797,-67.93702964000087 L-15.227253513646716,-67.87145840463683 L-15.355683701685246,-67.7990372753351 L-15.481165807129244,-67.71994072093952 L-15.603397532595764,-67.63435929197769 L-15.722084411151926,-67.542499161608 L-15.836940515711538,-67.44458162893054 L-15.947689147858513,-67.34084258585806 L-16.054063504437575,-67.23153194883179 L-16.155807320306437,-67.11691305675083 L-16.252675485700955,-66.99726203656562 L-16.344434636726046,-66.87286713806397 L-16.430863717549745,-66.74402803945209 L-16.511754512946048,-66.61105512540351 L-16.58691214990365,-66.4742687393152 L-16.656155567092092,-66.33399841157237 L-16.719317951054357,-66.19058206568073 L-16.776247138075107,-66.04436520417934 L-16.826805980756404,-65.89570007629464 L-16.870872678417797,-65.74494482934124 L-16.90834107052483,-65.59246264591364 L-16.939120892439078,-65.43862086894758 L-16.963137992873552,-65.28379011675874 L-16.980334512529655,-65.12834339019068 L-16.990669023485303,-64.97265517402325 L-16.994116628998405,-64.8171005348059 " />
			<path d="M-763.8408211139284,-289.27021367873175 L-763.9423763547004,-289.26073396598184 L-764.0438037003939,-289.2472802695043 L-764.1449754169976,-289.22986953240866 L-764.2457640924296,-289.2085236811613 L-764.346042796997,-289.18326959797236 L-764.4456852432462,-289.154139086941 L-764.5445659450045,-289.12116883400245 L-764.6425603754135,-289.0844003607271 L-764.7395451237535,-289.04387997202986 L-764.8353980508628,-288.9996586978549 L-764.9299984429551,-288.95179222891096 L-765.0232271636428,-288.90034084653604 L-765.1149668039723,-288.8453693467812 L-765.2051018302853,-288.786946958809 L-765.2935187297179,-288.72514725770844 L-765.380106153154,-288.66004807183737 " />
			<path d="M-16.994116628998405,67.32274633370984 L-16.991936578331426,67.4460937097766 L-16.98539974732531,67.56893175285498 L-16.974516093905457,67.69107333678727 L-16.959302197758387,67.81233239637152 L-16.939781235074943,67.93252421080513 L-16.915982943244696,68.05146568508057 L-16.887943575555298,68.16897562890442 L-16.85570584596578,68.28487503271472 L-16.819318864037967,68.39898734037654 L-16.778838060125093,68.51113871813978 L-16.734325100931603,68.62115831945012 L-16.685847795572748,68.7288785452092 L-16.633479992277145,68.83413529908783 L-16.57730146588956,68.93676823750329 L-16.517397796345353,69.03662101387972 L-16.453860238301747,69.13354151681979 L-16.386785582124393,69.2273821018246 L-16.316276006441136,69.3179998162089 L-16.242438922487523,69.40525661686902 L-16.165386810481152,69.48901958057186 L-16.0852370482742,69.56916110644423 L-16.00211173254508,69.6455591103546 L-15.91613749280163,69.71809721089073 L-15.82744529847922,69.78666490665017 L-15.736170259427581,69.85115774457316 L-15.642451420090296,69.91147747906206 L-15.546431547690533,69.96753222164429 L-15.44825691474561,70.01923658095141 L-15.3480770762418,70.0665117928005 L-15.24604464180873,70.10928584018015 L-15.142315043240464,70.1474935629581 L-15.03704629771748,70.18107675714333 " />
			<path d="M-15.037046297717454,70.18107675714333 L-14.927138054457188,70.21078902796876 L-14.815943724790486,70.23548910451309 L-14.703643147242738,70.25513703846819 L-14.590417949513194,70.269701052535 L-14.476451254722049,70.27915759181802 L-14.36192738523895,70.28349136192153 L-14.247031564571886,70.28269535368575 L-14.131949617798675,70.27677085452298 " />
			<path d="M-14.131949617798673,70.276770854523 L14.131949617798673,68.19312855859229 " />
			<path d="M14.131949617798673,68.1931285585923 L14.2723894965749,68.17896278061107 L14.412491043382076,68.15720630371625 L14.551916741322493,68.12791154116631 L14.690330701677567,68.09114906661016 L14.827399473093172,68.047007444069 L14.962792844893157,67.9955930145779 L15.096184642585799,67.93702964000087 L15.227253513646716,67.87145840463683 L15.355683701685244,67.7990372753351 L15.481165807129244,67.71994072093952 L15.603397532595766,67.63435929197769 L15.722084411151926,67.542499161608 L15.83694051571154,67.44458162893054 L15.947689147858515,67.34084258585806 L16.05406350443758,67.23153194883179 L16.155807320306437,67.11691305675083 L16.25267548570095,66.99726203656562 L16.344434636726046,66.87286713806397 L16.430863717549745,66.74402803945209 L16.511754512946048,66.61105512540351 L16.58691214990365,66.4742687393152 L16.656155567092092,66.33399841157237 L16.719317951054357,66.19058206568073 L16.776247138075107,66.04436520417934 L16.826805980756404,65.89570007629464 L16.870872678417797,65.74494482934124 L16.90834107052483,65.59246264591364 L16.939120892439078,65.43862086894758 L16.963137992873552,65.28379011675874 L16.980334512529655,65.12834339019068 L16.990669023485303,64.97265517402325 L16.994116628998405,64.81710053480587 " />
			<path d="M16.994116628998402,64.81710053480586 L16.994116628998402,-67.32274633370986 " />
			<path d="M16.994116628998405,-67.32274633370984 L16.991936578331426,-67.4460937097766 L16.98539974732531,-67.56893175285498 L16.974516093905457,-67.69107333678727 L16.959302197758387,-67.81233239637152 L16.939781235074943,-67.93252421080513 L16.915982943244696,-68.05146568508057 L16.887943575555298,-68.16897562890442 L16.85570584596578,-68.28487503271472 L16.819318864037967,-68.39898734037654 L16.778838060125096,-68.51113871813978 L16.734325100931603,-68.62115831945012 L16.685847795572748,-68.7288785452092 L16.633479992277145,-68.83413529908783 L16.57730146588956,-68.93676823750329 L16.517397796345353,-69.03662101387972 L16.453860238301747,-69.13354151681979 L16.386785582124393,-69.2273821018246 L16.31627600644114,-69.3179998162089 L16.242438922487523,-69.40525661686902 L16.165386810481152,-69.48901958057186 L16.0852370482742,-69.56916110644423 L16.002111732545078,-69.6455591103546 L15.91613749280163,-69.71809721089073 L15.82744529847922,-69.78666490665017 L15.736170259427581,-69.85115774457316 L15.642451420090298,-69.91147747906206 L15.546431547690531,-69.96753222164429 L15.44825691474561,-70.01923658095141 L15.3480770762418,-70.0665117928005 L15.246044641808728,-70.10928584018015 L15.142315043240464,-70.1474935629581 L15.037046297717467,-70.18107675714333 " />
			<path d="M15.037046297717454,-70.18107675714333 L14.927138054457188,-70.21078902796876 L14.815943724790486,-70.23548910451309 L14.70364314724274,-70.25513703846819 L14.590417949513194,-70.269701052535 L14.476451254722049,-70.27915759181802 L14.36192738523895,-70.28349136192153 L14.247031564571888,-70.28269535368575 L14.131949617798686,-70.27677085452298 " />
			<path d="M-733.8596216716115,-290.84745177109465 L-733.9530759542365,-290.9148702494407 L-734.0491565403548,-290.9778798059144 L-734.1477080354337,-291.03637853292975 L-734.2485710486515,-291.09027181842475 L-734.3515824506867,-291.1394724988811 L-734.4565756375524,-291.18390100029677 L-734.5633808000509,-291.22348546688363 L-734.6718251984124,-291.2581618772828 " />
			<path d="M-734.6718251984124,-291.2581618772828 L-734.7817334416727,-291.28787414810824 L-734.8929277713394,-291.31257422465256 L-735.0052283488872,-291.3322221586077 L-735.1184535466167,-291.34678617267446 L-735.2324202414078,-291.3562427119575 L-735.346944110891,-291.36057648206105 L-735.461839931558,-291.35978047382525 L-735.5769218783312,-291.35385597466245 " />
			<path d="M-14.131949617798673,-68.19312855859229 L14.131949617798673,-70.276770854523 " />
			<path d="M-763.8408211139284,-289.27021367873186 L-735.5769218783311,-291.3538559746625 " />
			<path d="M-2038.1193435503674,166.69293403030002 L-2038.3975749068613,85.0291348071703 " />
			<path d="M-2789.344857837479,-55.7472810074053 L-2789.623089193973,-137.41108023053502 " />
			<path d="M-2035.5476564962016,81.64064180482639 L-2035.688011278388,81.65548121948046 L-2035.828001966203,81.67790658910064 L-2035.9672913098177,81.70786388900729 L-2036.1055437490031,81.74528094944097 L-2036.242426221524,81.79006762942575 L-2036.3776089655141,81.84211603392671 L-2036.510766313903,81.9013007737785 L-2036.641577478975,81.96747926775885 L-2036.7697273251758,82.04049208607918 L-2036.8949071283012,82.12016333446503 L-2037.016815319241,82.20630107790065 L-2037.1351582104855,82.2986978030173 L-2037.249650703644,82.39713091801121 L-2037.3600169762722,82.50136328888662 L-2037.4659911463523,82.61114381073243 L-2037.5673179128262,82.72620801265586 L-2037.6637531706383,82.84627869491605 L-2037.7550645988063,82.97106659672248 L-2037.8410322201012,83.10027109308956 L-2037.9214489309936,83.2335809190686 L-2037.9961210005836,83.37067491961221 L-2038.0648685373146,83.5112228232651 L-2038.1275259223494,83.65488603781681 L-2038.183942208559,83.80131846600007 L-2038.2339814841687,83.95016733926943 L-2038.2775232001807,84.10107406765155 L-2038.314462460787,84.25367510361991 L-2038.3447102760733,84.40760281791258 L-2038.3681937764036,84.56248638518335 L-2038.3848563879683,84.71795267735247 L-2038.3946579690767,84.87362716250486 L-2038.3975749068616,85.0291348071703 " />
			<path d="M-2786.7731707833127,-140.79957323287897 L-2786.913525565499,-140.7847338182249 L-2787.0535162533142,-140.76230844860473 L-2787.192805596929,-140.73235114869806 L-2787.3310580361144,-140.69493408826438 L-2787.467940508635,-140.6501474082796 L-2787.603123252625,-140.59809900377866 L-2787.736280601014,-140.53891426392684 L-2787.867091766086,-140.47273576994652 L-2787.995241612287,-140.39972295162616 L-2788.1204214154122,-140.32005170324032 L-2788.242329606352,-140.2339139598047 L-2788.3606724975966,-140.14151723468805 L-2788.4751649907553,-140.04308411969416 L-2788.5855312633835,-139.93885174881873 L-2788.691505433463,-139.82907122697293 L-2788.792832199937,-139.7140070250495 L-2788.8892674577496,-139.5939363427893 L-2788.980578885917,-139.46914844098288 L-2789.066546507212,-139.33994394461578 L-2789.1469632181047,-139.20663411863677 L-2789.2216352876944,-139.06954011809313 L-2789.2903828244257,-138.92899221444026 L-2789.3530402094602,-138.78532899988855 L-2789.40945649567,-138.6388965717053 L-2789.4594957712798,-138.49004769843594 L-2789.5030374872917,-138.3391409700538 L-2789.539976747898,-138.18653993408543 L-2789.570224563184,-138.03261221979278 L-2789.5937080635144,-137.877728652522 L-2789.610370675079,-137.7222623603529 L-2789.6201722561877,-137.5665878752005 L-2789.6230891939726,-137.41108023053505 " />
			<path d="M-2038.1193435503674,166.69293403030005 L-2038.116763867182,166.8157075748454 L-2038.109866458896,166.93795610106187 L-2038.0986617453443,167.05949492952345 L-2038.0831666533568,167.1801404529362 L-2038.063404591189,167.29971041351183 L-2038.0394054131582,167.4180241783022 L-2038.0112053745434,167.53490301207964 L-2037.9788470768144,167.65017034734993 L-2037.9423794032757,167.76365205109101 L-2037.9018574452168,167.87517668781354 L-2037.8573424186886,167.98457577854657 L-2037.8089015720236,168.0916840553567 L-2037.756608084245,168.19633971101652 L-2037.7005409545163,168.29838464344485 L-2037.6407848827982,168.39766469454966 L-2037.5774301418928,168.494029883113 L-2037.51057244107,168.5873346313659 L-2037.4403127814803,168.67743798491085 L-2037.3667573035739,168.7642038256601 L-2037.2900171267556,168.84750107746774 L-2037.2102081815174,168.92720390414468 L-2037.127451034304,169.00319189955812 L-2037.0418707053748,169.0753502695276 L-2036.9535964799372,169.1435700052433 L-2036.862761712836,169.20774804794428 L-2036.769503627097,169.2677874446082 L-2036.6739631066253,169.32359749441719 L-2036.576284483373,169.37509388577843 L-2036.4766153193002,169.4221988236927 L-2036.3751061834528,169.46484114727843 L-2036.2719104245016,169.50295643727358 L-2036.1671839390783,169.53648711335308 " />
			<path d="M-2036.1671839390783,169.5364871133531 L-2036.0555931556883,169.56674268303527 L-2035.9426714072827,169.59182339197193 L-2035.828607282193,169.61168735337756 L-2035.7135912766114,169.62630139285136 L-2035.5978154764462,169.6356411037811 L-2035.481473236523,169.63969088810418 L-2035.3647588576675,169.6384439823576 L-2035.247867262207,169.6319024689734 " />
			<path d="M-2789.3448578374787,-55.74728100740527 L-2789.342278154293,-55.624507462859924 L-2789.3353807460076,-55.50225893664344 L-2789.3241760324554,-55.380720108181876 L-2789.308680940468,-55.2600745847691 L-2789.2889188783006,-55.14050462419348 L-2789.2649197002697,-55.022190859403096 L-2789.2367196616547,-54.905312025625676 L-2789.2043613639257,-54.79004469035537 L-2789.167893690387,-54.67656298661429 L-2789.1273717323284,-54.565038349891765 L-2789.0828567058,-54.45563925915875 L-2789.0344158591347,-54.34853098234861 L-2788.982122371356,-54.243875326688794 L-2788.9260552416276,-54.14183039426048 L-2788.86629916991,-54.04255034315567 L-2788.802944429004,-53.94618515459231 L-2788.7360867281814,-53.85288040633942 L-2788.6658270685916,-53.762777052794476 L-2788.5922715906854,-53.676011212045196 L-2788.515531413867,-53.592713960237575 L-2788.4357224686287,-53.51301113356064 L-2788.3529653214155,-53.4370231381472 L-2788.2673849924863,-53.3648647681777 L-2788.1791107670483,-53.29664503246202 L-2788.088275999947,-53.23246698976105 L-2787.9950179142083,-53.17242759309712 L-2787.8994773937366,-53.11661754328812 L-2787.8017987704843,-53.06512115192689 L-2787.7021296064113,-53.01801621401261 L-2787.600620470564,-52.97537389042688 L-2787.497424711613,-52.937258600431726 L-2787.3926982261896,-52.90372792435223 " />
			<path d="M-2787.3926982261896,-52.903727924352225 L-2787.2811074427996,-52.87347235467006 L-2787.1681856943937,-52.84839164573339 L-2787.0541215693042,-52.82852768432775 L-2786.939105563723,-52.813913644853955 L-2786.8233297635575,-52.80457393392421 L-2786.7069875236343,-52.800524149601124 L-2786.5902731447786,-52.80177105534773 L-2786.473381549318,-52.8083125687319 " />
			<path d="M-2035.247867262207,169.6319024689734 L-2006.9984809367807,167.41237493584998 " />
			<path d="M-2006.9984809367804,167.41237493584995 L-2006.858126154594,167.3975355211959 L-2006.7181354667791,167.3751101515757 L-2006.5788461231643,167.34515285166904 L-2006.440593683979,167.30773579123536 L-2006.303711211458,167.26294911125058 L-2006.168528467468,167.2109007067496 L-2006.035371119079,167.15171596689783 L-2005.904559954007,167.0855374729175 L-2005.7764101078062,167.01252465459714 L-2005.651230304681,166.9328534062113 L-2005.529322113741,166.8467156627757 L-2005.4109792224965,166.75431893765904 L-2005.296486729338,166.65588582266514 L-2005.18612045671,166.55165345178972 L-2005.0801462866298,166.4418729299439 L-2004.9788195201559,166.3268087280205 L-2004.8823842623437,166.2067380457603 L-2004.7910728341758,166.08195014395386 L-2004.7051052128809,165.95274564758677 L-2004.6246885019884,165.81943582160775 L-2004.5500164323985,165.68234182106414 L-2004.4812688956674,165.54179391741124 L-2004.4186115106327,165.39813070285953 L-2004.362195224423,165.25169827467627 L-2004.3121559488134,165.10284940140693 L-2004.2686142328014,164.9519426730248 L-2004.2316749721952,164.79934163705644 L-2004.2014271569087,164.64541392276377 L-2004.1779436565785,164.49053035549298 L-2004.1612810450138,164.33506406332387 L-2004.1514794639054,164.17938957817148 L-2004.1485625261205,164.02388193350603 " />
			<path d="M-2004.4267938826144,82.36008271037626 L-2004.4293735657998,82.23730916583091 L-2004.4362709740858,82.11506063961443 L-2004.4474756876375,81.99352181115286 L-2004.462970779625,81.87287628774008 L-2004.4827328417928,81.75330632716447 L-2004.5067320198236,81.63499256237408 L-2004.5349320584385,81.51811372859666 L-2004.5672903561674,81.40284639332636 L-2004.6037580297061,81.28936468958528 L-2004.644279987765,81.17784005286275 L-2004.6887950142932,81.06844096212974 L-2004.7372358609582,80.9613326853196 L-2004.7895293487368,80.85667702965978 L-2004.8455964784655,80.75463209723146 L-2004.9053525501836,80.65535204612665 L-2004.968707291089,80.55898685756328 L-2005.0355649919118,80.4656821093104 L-2005.1058246515015,80.37557875576546 L-2005.179380129408,80.28881291501618 L-2005.2561203062262,80.20551566320856 L-2005.3359292514644,80.12581283653162 L-2005.418686398678,80.04982484111818 L-2005.504266727607,79.9776664711487 L-2005.5925409530446,79.909446735433 L-2005.683375720146,79.84526869273203 L-2005.7766338058848,79.7852292960681 L-2005.8721743263566,79.72941924625911 L-2005.9698529496088,79.67792285489787 L-2006.0695221136816,79.6308179169836 L-2006.171031249529,79.58817559339786 L-2006.2742270084802,79.5500603034027 L-2006.3789534939035,79.51652962732321 " />
			<path d="M-2006.3789534939035,79.51652962732321 L-2006.4905442772936,79.48627405764104 L-2006.6034660256992,79.46119334870437 L-2006.717530150789,79.44132938729874 L-2006.8325461563704,79.42671534782494 L-2006.9483219565357,79.41737563689519 L-2007.0646641964588,79.41332585257211 L-2007.1813785753143,79.41457275831871 L-2007.298270170775,79.42111427170289 " />
			<path d="M-2756.7814116521404,-142.50317875028932 L-2756.8758964619374,-142.57230947576124 L-2756.9731153745115,-142.63690269555633 L-2757.0729060265194,-142.69685053384265 L-2757.175101759609,-142.752052872946 L-2757.2795318987496,-142.80241752055466 L-2757.386022037275,-142.84786036368766 L-2757.494394328155,-142.88830550917038 L-2757.6044677810155,-142.9236854103821 " />
			<path d="M-2757.6044677810155,-142.92368541038212 L-2757.7160585644056,-142.9539409800643 L-2757.8289803128114,-142.97902168900094 L-2757.943044437901,-142.99888565040658 L-2758.058060443482,-143.01349968988038 L-2758.1738362436477,-143.0228394008101 L-2758.290178483571,-143.0268891851332 L-2758.4068928624265,-143.0256422793866 L-2758.523784457887,-143.01910076600242 " />
			<path d="M-2035.5476564962012,81.64064180482636 L-2007.298270170775,79.4211142717029 " />
			<path d="M-2786.773170783313,-140.79957323287897 L-2758.5237844578864,-143.0191007660024 " />
			<path d="M-16.994137009172686,16.88013488224738 L-16.99413702667118,-64.81710577524629 " />
			<path d="M-2005.0376258313531,163.4405822781186 L-2005.0376258488518,81.74334162062493 " />
			<path d="M-18.42522003946134,-68.4041355858724 L-18.3550001242867,-68.37961644093897 L-18.284949375036618,-68.34753153925945 L-18.215236550101764,-68.30795817617226 L-18.146029593783524,-68.26099168737531 L-18.077495231701484,-68.20674521925388 L-18.0097985691368,-68.14534945630109 L-17.94310269327912,-68.07695230628757 L-17.87756828033525,-68.00171854393855 L-17.81335320844611,-67.91982941397723 L-17.750612177344458,-67.83148219449035 L-17.68949633566968,-67.73688972166792 L-17.630152916837492,-67.63627987706234 L-17.572724884341728,-67.52989503860161 L-17.51735058734277,-67.41799149667979 L-17.4641634273723,-67.30083883673099 L-17.413291536957338,-67.17871928977436 L-17.364857470937746,-67.05192705249495 L-17.318977911220887,-66.92076757849804 L-17.27576338568469,-66.78555684244472 L-17.23531800190632,-66.64662057884118 L-17.1977391963579,-66.50429349731583 L-17.163117499673504,-66.35891847627444 L-17.13153631855295,-66.21084573687607 L-17.103071734827743,-66.06043199931953 L-17.07779232217328,-65.90803962347333 L-17.05575898090886,-65.75403573591883 L-17.03702479128348,-65.59879134551034 L-17.021634885600868,-65.44268044958213 L-17.009626339491817,-65.28607913295619 L-17.00102808259572,-65.12936466192093 L-16.995860828866565,-64.97291457536366 L-16.99413702667118,-64.8171057752463 " />
			<path d="M-2006.468708861642,78.1563118099988 L-2006.419303388973,78.17276737097903 L-2006.3699568176173,78.19297666494465 L-2006.3207279786666,78.2169155983306 L-2006.2716755628521,78.2445556310874 L-2006.2228580505725,78.27586381070667 L-2006.1743336421744,78.31080281150724 L-2006.1261601885649,78.34933097913488 L-2006.0783951222425,78.39140238022266 L-2006.031095388825,78.43696685715292 L-2005.9843173791596,78.48597008785522 L-2005.938116862093,78.53835365056919 L-2005.8925489179844,78.59405509349523 L-2005.8476678730378,78.65300800924949 L-2005.8035272345342,78.7151421140351 L-2005.760179627041,78.78038333143452 L-2005.717676729672,78.84865388072365 L-2005.6760692144755,78.91987236960222 L-2005.6354066860235,78.99395389122984 L-2005.595737622273,79.07081012545211 L-2005.5571093167691,79.15034944409615 L-2005.5195678222635,79.23247702020984 L-2005.4831578958097,79.3170949411148 L-2005.4139049782273,79.4933954418834 L-2005.3496807195172,79.67841045359381 L-2005.2907913016093,79.87125793798724 L-2005.2375174731799,80.07101851637223 L-2005.1901132112139,80.27673985265932 " />
			<path d="M-16.99413700917269,16.88013488224738 L-16.99551745059199,17.018711599614214 L-16.99965611172562,17.156206830842596 L-17.006545008159925,17.292355316524606 L-17.01617084965514,17.426894395429173 L-17.02851506578527,17.559564511235013 L-17.043553841764655,17.690109713273486 L-17.06125816439206,17.81827815031536 L-17.081593878023714,17.94382255644879 L-17.10452175046728,18.06650072811122 L-17.129997548669618,18.18607599135484 L-17.157972124052357,18.302317658444185 L-17.18839150733063,18.415001472904958 L-17.22119701263201,18.523910042165515 L-17.256325350714878,18.62883325695631 L-17.293708751067637,18.72956869665822 L-17.333275092653405,18.8259220198177 L-17.37494804304778,18.917707339075434 L-17.41864720570138,19.004747579785093 L-17.46428827504296,19.08687482163039 L-17.51178319912394,19.163930622581358 L-17.56104034949053,19.23576632456489 L-17.61196469795575,19.302243340259768 L-17.6644579999303,19.363233420462983 L-17.718418983958607,19.41861890151144 L-17.773743547094362,19.468292932281805 L-17.830324955738668,19.512159680330484 L-17.888054051553283,19.550134516776097 L-17.946819462051774,19.582144179567717 L-18.006507815462218,19.60812691482397 L-18.06700395944701,19.628032595970215 L-18.12819118325778,19.64182282044407 L-18.189951442896803,19.649470983782624 " />
			<path d="M-18.189951442896817,19.649470983782624 L-18.248416822480326,19.651046685881056 L-18.307183543300855,19.64718042162758 L-18.36615144406909,19.637878780636303 L-18.425220020607036,19.623157616511808 " />
			<path d="M-33.02129977620352,-72.53720405455051 L-32.96502856211582,-72.56042817719262 L-32.9080621899289,-72.5782766025014 L-32.850497752439615,-72.59071890983635 L-32.79243336178009,-72.59773389267906 " />
			<path d="M-32.792433361780084,-72.59773389267906 L-32.733967982196575,-72.5993095947775 L-32.67520126137604,-72.59544333052402 L-32.61623336060781,-72.58614168953274 L-32.55716478406987,-72.57142052540824 " />
			<path d="M-2021.8153841858236,75.12255158736869 L-2021.773567313047,74.99481551771858 L-2021.728451843366,74.87315189355252 L-2021.6801646554654,74.75790287069277 L-2021.6288415478853,74.6493925651145 L-2021.5746268571118,74.54792614143103 L-2021.5176730516598,74.45378895467655 L-2021.4581403032844,74.36724574779917 L-2021.3961960365266,74.28853990712174 L-2021.3320144578647,74.21789277786411 L-2021.2657760657921,74.15550304165167 L-2021.1976671431985,74.10154615776109 L-2021.1629708994155,74.0777783938033 L-2021.1278792334854,74.05617386967451 L-2021.0924168219067,74.03674777770013 L-2021.0566086018866,74.01951377832968 L-2021.0204797538056,74.0044839905307 L-2020.9840556835095,73.99166898326672 L-2020.9473620044453,73.9810777680651 L-2020.910424519649,73.97271779268019 L-2020.873269203601,73.96659493585597 L-2020.8359221839607,73.96271350319216 " />
			<path d="M-2020.8359221839607,73.96271350319216 L-2020.7774568043774,73.96113780109373 L-2020.7186900835568,73.9650040653472 L-2020.6597221827885,73.97430570633848 L-2020.6006536062505,73.98902687046298 " />
			<path d="M-18.425220039461344,-68.40413558587241 L-32.55716478406986,-72.57142052540826 " />
			<path d="M-2006.468708861642,78.15631180999883 L-2020.6006536062505,73.98902687046298 " />
			<path d="M-198.74172184018136,-60.3637952986947 L-198.74172184018136,-118.41154541241542 " />
			<path d="M-200.17280534578117,-121.9985751876885 L-200.10258540639305,-121.97405604448281 L-200.03253463298947,-121.9419711445272 L-199.96282178401927,-121.90239778315596 L-199.89361480384173,-121.85543129606285 L-199.82508041813392,-121.80118482962907 L-199.75738373223393,-121.73978906834367 L-199.6906878333876,-121.67139191997323 L-199.62515339785716,-121.59615815923907 L-199.56093830383787,-121.51426903086046 L-199.4981972511159,-121.42592181292034 L-199.43708138838264,-121.33132934160503 L-199.37773794910456,-121.23071949846322 L-199.32030989682474,-121.12433466141944 L-199.26493558075126,-121.01243112086435 L-199.21174840246172,-120.89527846222872 L-199.1608764945273,-120.77315891652857 L-199.11244241183005,-120.64636668044591 L-199.06656283631747,-120.51520720758315 L-199.02334829590563,-120.3799964725986 L-198.98290289820747,-120.24106020999594 L-198.9453240797287,-120.09873312940114 L-198.91070237113445,-119.95335810921773 L-198.87912117915332,-119.80528537060269 L-198.85065658564295,-119.65487163375298 L-198.8253771643023,-119.50247925853536 L-198.8033438154716,-119.34847537152972 L-198.7846096194181,-119.193230981589 L-198.76921970846098,-119.03712008604637 L-198.75721115824373,-118.88051876972291 L-198.74861289841567,-118.72380429890627 L-198.74344564293784,-118.56735421248325 L-198.7417218401813,-118.41154541241545 " />
			<path d="M-2188.216122781294,24.561922633993085 L-2188.177419024798,24.574493467821434 L-2188.1387435827983,24.5893705425919 L-2188.100124749077,24.606542974687063 L-2188.0615907760043,24.62599820127558 L-2188.023169853867,24.647721989502788 L-2187.984890090249,24.67169844690302 L-2187.908865932079,24.726337572269152 L-2187.8337407286954,24.78975571729797 L-2187.759734277188,24.86176733675212 L-2187.687063101464,24.94216174309071 L-2187.615939818758,25.030703722887058 L-2187.546572517564,25.127134225002887 L-2187.479164148827,25.23117111850556 L-2187.4139119321544,25.34251001811087 L-2187.3510067788084,25.460825174736353 L-2187.290632733144,25.585770428559645 L-2187.2329664341437,25.716980221793353 L-2187.1781765986175,25.854070668213467 L-2187.126423527581,25.996640676312037 " />
			<path d="M-214.76889015458522,-126.13164327930879 L-214.71261891668792,-126.154867408833 L-214.65565252027358,-126.17271584013004 L-214.59808805819722,-126.18515815254389 L-214.54002364264989,-126.19217313954381 " />
			<path d="M-214.54002364264989,-126.19217313954381 L-214.4815582379374,-126.19374884486864 L-214.42279149180686,-126.18988258290473 L-214.3638235656081,-126.18058094326346 L-214.30475496357985,-126.16585977954988 " />
			<path d="M-2203.4300560505208,21.169084296334837 L-2203.388539312671,21.07978382760365 L-2203.34507593343,20.995123043170228 L-2203.299747229764,20.915260337487158 L-2203.2526380085314,20.840345128134643 L-2203.203836407817,20.770517576270592 L-2203.1534337320286,20.7059083243988 L-2203.101524281075,20.646638251945916 L-2203.0482051739364,20.592818249104415 L-2202.993576166962,20.544549009364736 L-2202.9377394672338,20.501920841124747 L-2202.880799541341,20.465013498729014 L-2202.822862919934,20.433896033253955 L-2202.764037998411,20.40862666331805 L-2202.7044348341183,20.38925266615886 L-2202.644164940439,20.375810289180606 L-2202.583341078163,20.36832468213776 " />
			<path d="M-2202.583341078163,20.36832468213776 L-2202.5248756734504,20.36674897681295 L-2202.46610892732,20.370615238776846 L-2202.407141001121,20.37991687841811 L-2202.348072399093,20.394638042131707 " />
			<path d="M-200.17280534578117,-121.99857518768852 L-214.30475496357985,-126.16585977954989 " />
			<path d="M-2188.2161227812944,24.561922633993063 L-2202.348072399093,20.39463804213169 " />
			<path d="M-380.4893270513643,-113.95822818098212 L-380.4893270513643,-172.005990290025 " />
			<path d="M-381.92041055696416,-175.59302006529808 L-381.85019061757606,-175.5685009220924 L-381.7801398441725,-175.5364160221368 L-381.7104269952022,-175.49684266076554 L-381.6412200150247,-175.44987617367244 L-381.57268562931694,-175.39562970723867 L-381.5049889434169,-175.33423394595326 L-381.43829304457057,-175.26583679758284 L-381.37275860904015,-175.19060303684864 L-381.30854351502086,-175.10871390847007 L-381.24580246229885,-175.02036669052993 L-381.1846865995656,-174.92577421921462 L-381.1253431602875,-174.82516437607282 L-381.0679151080077,-174.71877953902904 L-381.0125407919342,-174.60687599847392 L-380.9593536136447,-174.48972333983832 L-380.9084817057103,-174.36760379413815 L-380.86004762301303,-174.2408115580555 L-380.81416804750046,-174.10965208519272 L-380.7709535070886,-173.9744413502082 L-380.7305081093905,-173.83550508760553 L-380.69292929091165,-173.69317800701072 L-380.65830758231743,-173.54780298682732 L-380.62672639033633,-173.39973024821228 L-380.59826179682597,-173.24931651136257 L-380.5729823754853,-173.09692413614493 L-380.5509490266546,-172.9429202491393 L-380.5322148306011,-172.78767585919857 L-380.51682491964397,-172.63156496365596 L-380.5048163694267,-172.4749636473325 L-380.49621810959866,-172.31824917651588 L-380.49105085412083,-172.16179909009284 L-380.4893270513643,-172.00599029002504 " />
			<path d="M-2369.9637279924773,-29.03252224361652 L-2369.894929864649,-29.008575282480194 L-2369.8262908298134,-28.977364697674243 L-2369.7579696130683,-28.938962662461446 L-2369.6901242045687,-28.893457980053793 L-2369.6229114941807,-28.840955878258498 L-2369.556486908682,-28.78157776614281 L-2369.491004052342,-28.71546095328025 L-2369.426614351716,-28.642758332227576 L-2369.363466705483,-28.563638024966696 L-2369.3017071401164,-28.478282994129128 L-2369.2414784722077,-28.386890619902026 L-2369.182919978208,-28.289672243594193 L-2369.126167072355,-28.18685267891751 L-2369.0713509935363,-28.078669692113994 L-2369.0185985017997,-27.965373452130606 L-2368.9680315852297,-27.847225952113323 " />
			<path d="M-396.51649536576815,-179.72608815691834 L-396.46022412787084,-179.74931228644255 L-396.4032577314565,-179.7671607177396 L-396.34569326938015,-179.77960303015345 L-396.2876288538328,-179.7866180171534 " />
			<path d="M-396.2876288538328,-179.7866180171534 L-396.22916344912034,-179.78819372247818 L-396.17039670298976,-179.7843274605143 L-396.111428776791,-179.77502582087303 L-396.0523601747628,-179.76030465715942 " />
			<path d="M-2385.0821208441544,-32.6186579811405 L-2385.0428672799576,-32.686657309678445 L-2385.0023023540657,-32.75098517758054 L-2384.9604822276583,-32.81155252443509 L-2384.9174647997115,-32.86827549618286 L-2384.8733096268375,-32.92107556121102 L-2384.828077840828,-32.96987961907832 L-2384.7818320640217,-33.01462010172091 L-2384.734636322602,-33.05523506699872 L-2384.6865559579574,-33.09166828445292 L-2384.6376575362156,-33.12386931315563 L-2384.588008756084,-33.1517935715442 L-2384.537678355126,-33.175402399143316 L-2384.48673601459,-33.19466311008955 L-2384.4352522629424,-33.20954903838414 L-2384.3832983782195,-33.220039574811416 L-2384.330946289346,-33.226120195471815 " />
			<path d="M-2384.330946289346,-33.226120195471815 L-2384.2724808846333,-33.227695900796625 L-2384.213714138503,-33.223829638832726 L-2384.154746212304,-33.21452799919147 L-2384.0956776102757,-33.199806835477865 " />
			<path d="M-381.9204105569641,-175.59302006529805 L-396.0523601747628,-179.76030465715945 " />
			<path d="M-2369.9637279924773,-29.032522243616498 L-2384.0956776102757,-33.19980683547787 " />
			<path d="M-562.2369322625472,-167.55267305859167 L-562.2369322625472,-225.60043516763454 " />
			<path d="M-563.668015768147,-229.1874649429076 L-563.5977958287589,-229.16294579970193 L-563.5277450553554,-229.13086089974632 L-563.4580322063852,-229.09128753837507 L-563.3888252262076,-229.04432105128197 L-563.3202908404998,-228.9900745848482 L-563.2525941545998,-228.9286788235628 L-563.1858982557535,-228.86028167519237 L-563.120363820223,-228.78504791445818 L-563.0561487262038,-228.7031587860796 L-562.9934076734818,-228.61481156813946 L-562.9322918107484,-228.52021909682415 L-562.8729483714704,-228.41960925368235 L-562.8155203191906,-228.31322441663858 L-562.7601460031171,-228.20132087608346 L-562.7069588248276,-228.08416821744785 L-562.6560869168932,-227.96204867174768 L-562.6076528341958,-227.83525643566503 L-562.5617732586834,-227.70409696280225 L-562.5185587182715,-227.56888622781773 L-562.4781133205734,-227.42994996521506 L-562.4405345020946,-227.28762288462025 L-562.4059127935003,-227.14224786443685 L-562.3743316015192,-226.9941751258218 L-562.3458670080088,-226.8437613889721 L-562.3205875866681,-226.69136901375447 L-562.2985542378375,-226.53736512674882 L-562.279820041784,-226.3821207368081 L-562.2644301308268,-226.2260098412655 L-562.2524215806096,-226.06940852494202 L-562.2438233207815,-225.9126940541254 L-562.2386560653038,-225.75624396770237 L-562.2369322625472,-225.60043516763457 " />
			<path d="M-2551.7113332036597,-82.62696712122606 L-2551.6520753072286,-82.60677838172238 L-2551.592919057904,-82.58119519431966 L-2551.533965928433,-82.55026144273849 L-2551.475317043145,-82.51403018870602 L-2551.4170730044884,-82.47256358093749 L-2551.3593337204643,-82.42593274853029 L-2551.3021982332507,-82.3742176789538 L-2551.2457645493128,-82.31750708084417 L-2551.1901294712875,-82.25589823183932 L-2551.1353884319374,-82.18949681171527 L-2551.081635330447,-82.11841672110998 L-2551.02896237136,-82.04277988614568 L-2550.9774599064126,-81.96271604928482 L-2550.9272162795532,-81.87836254677832 L-2550.8783176754014,-81.78986407308801 L-2550.8308479714137,-81.69737243268729 " />
			<path d="M-578.2641005769508,-233.32053303452795 L-578.2078293390535,-233.34375716405214 L-578.1508629426393,-233.36160559534915 L-578.0932984805629,-233.37404790776299 L-578.0352340650156,-233.38106289476292 " />
			<path d="M-578.0352340650156,-233.38106289476292 L-577.9767686603032,-233.38263860008772 L-577.9180019141726,-233.37877233812384 L-577.8590339879738,-233.36947069848256 L-577.7999653859456,-233.35474953476896 " />
			<path d="M-2566.712433811549,-86.39995947510418 L-2566.6773912715557,-86.44702464758046 L-2566.6415742718887,-86.4914735273523 L-2566.6050160682025,-86.5332648441689 L-2566.5677506043503,-86.57235979529479 L-2566.5298124808664,-86.60872208153759 L-2566.491236922843,-86.6423179409515 L-2566.452059747223,-86.67311618018472 L-2566.412317329542,-86.7010882034422 L-2566.3720465701585,-86.72620803903646 L-2566.3312848599876,-86.74845236350201 L-2566.2900700457876,-86.76780052325086 L-2566.248440395019,-86.78423455374917 L-2566.206434560311,-86.7977391961971 L-2566.164091543578,-86.80830191169642 L-2566.121450659801,-86.8159128928927 L-2566.0785515005286,-86.82056507308134 " />
			<path d="M-2566.0785515005286,-86.82056507308134 L-2566.020086095816,-86.82214077840617 L-2565.9613193496857,-86.81827451644226 L-2565.902351423487,-86.808972876801 L-2565.8432828214586,-86.7942517130874 " />
			<path d="M-563.668015768147,-229.1874649429076 L-577.7999653859457,-233.354749534769 " />
			<path d="M-2551.71133320366,-82.62696712122606 L-2565.8432828214586,-86.79425171308743 " />
			<path d="M-749.708825403303,-220.72511783123622 L-749.7088254022007,-280.88288145012456 " />
			<path d="M-751.1399093433049,-284.46991119339873 L-751.0696893825448,-284.4453920517623 L-750.9996385878209,-284.4133071533723 L-750.9299257176333,-284.3737337935591 L-750.8607187163925,-284.3267673080128 L-750.7921843098263,-284.2725208431108 L-750.724487603323,-284.2111250833385 L-750.6577916841782,-284.1427279364588 L-750.5922572287028,-284.06749417718953 L-750.5280421151402,-283.98560505024636 L-750.4653010433237,-283.89725783370875 L-750.4041851619908,-283.8026653637597 L-750.3448417046526,-283.7020555219445 L-750.2874136348956,-283.5956706861846 L-750.2320393019703,-283.48376714686754 L-750.1788521074947,-283.36661448942107 L-750.1279801840789,-283.2444949448584 L-750.0795460866424,-283.11770270985875 L-750.0336664971682,-282.9865432380219 L-749.9904519436059,-282.8513325040038 L-749.9500065336001,-282.7123962423057 L-749.9124277036863,-282.5700691625514 L-749.8778059845571,-282.42469414314246 L-749.8462247829665,-282.276621405234 L-749.8177601807953,-282.12620766902114 L-749.7924807517634,-281.9738152943692 L-749.7704473962293,-281.8198114078568 L-749.7517131944766,-281.66456701833556 L-749.7363232788382,-281.5084561231377 L-749.7243147249688,-281.3518548070834 L-749.7157164625268,-281.19514033645976 L-749.710549205479,-281.038690250153 L-749.7088254022007,-280.8828814501246 " />
			<path d="M-2739.1830755093442,-137.9093687647914 L-2739.1352907448018,-137.8935129239912 L-2739.087559271917,-137.87414499063883 L-2739.0399343229174,-137.8512865647003 L-2738.9924690112266,-137.8249631388917 L-2738.945216272237,-137.7952040702483 L-2738.8982288042675,-137.76204254738468 L-2738.8515590097977,-137.72551555348093 L-2738.805258937023,-137.6856638250377 L-2738.7593802218084,-137.64253180644494 L-2738.713974030103,-137.59616760041555 L-2738.669091000878,-137.54662291433928 L-2738.6247811896483,-137.4939530026162 L-2738.581094012654,-137.43821660503465 L-2738.5380781917443,-137.37947588126212 L-2738.495781700044,-137.317796341522 L-2738.454251708449,-137.25324677353376 " />
			<path d="M-765.7359986280705,-288.6029789432958 L-765.6797273692463,-288.62620307882986 L-765.6227609515387,-288.6440515153649 L-765.5651964678536,-288.6564938322314 L-765.5071320304336,-288.6635088228878 " />
			<path d="M-765.5071320304336,-288.6635088228878 L-765.4486666036365,-288.665084531065 L-765.3898998352622,-288.6612182711441 L-765.3309318867133,-288.6519166327339 L-765.2718632622818,-288.6371954694397 " />
			<path d="M-2754.0291440337332,-141.86502091077526 L-2753.9730610726206,-141.91626214029301 L-2753.9156657374097,-141.96151094426287 L-2753.8570724969895,-142.00067707875988 L-2753.797398209344,-142.03368243109617 L-2753.73676188849,-142.06046117560834 L-2753.6752844671178,-142.08095990493982 L-2753.613088555403,-142.09513773655607 L-2753.5502981964732,-142.1029663942805 " />
			<path d="M-2753.5502981964732,-142.1029663942805 L-2753.4918327696764,-142.10454210245766 L-2753.433066001302,-142.10067584253673 L-2753.374098052753,-142.0913742041265 L-2753.3150294283214,-142.07665304083235 " />
			<path d="M-751.1399093433049,-284.4699111933987 L-765.2718632622818,-288.63719546943963 " />
			<path d="M-2739.1830755093447,-137.90936876479134 L-2753.315029428322,-142.0766530408323 " />
			<path d="M-16.994116628998402,67.32274633370986 L-146.5676485590339,29.113596306382945 " />
			<path d="M-16.994116628998402,-64.81710053480586 L-16.994137026671222,-64.81710654975143 " />
			<path d="M-41.26210986872764,-71.97334132524486 L-198.74172184018133,-118.41154541241544 " />
			<path d="M-223.00969608917055,-125.56778060279072 L-380.4893270513643,-172.005990290025 " />
			<path d="M-404.75730130035345,-179.16222548040025 L-562.2369322625472,-225.60043516763457 " />
			<path d="M-586.5049065115364,-232.75667035800987 L-749.7088280753751,-280.8828812530554 " />
			<path d="M-14.131949617798673,-68.19312855859229 L-763.8408211139285,-289.2702136787318 " />
			<path d="M14.131949617798673,-70.276770854523 L-735.5769218783312,-291.35385597466257 " />
			<path d="M-2038.1193435503676,166.69293403030005 L-2789.344857837479,-55.74728100740529 " />
			<path d="M-2038.3975749068613,85.02913480717031 L-2789.6230891939726,-137.41108023053505 " />
			<path d="M-2035.5476564962016,81.64064180482639 L-2786.773170783313,-140.79957323287897 " />
			<path d="M-2007.298270170775,79.4211142717029 L-2758.5237844578864,-143.01910076600245 " />
			<path d="M-16.99413700917269,16.880134882247383 L-2005.0376258313534,163.4405822781186 " />
			<path d="M-16.994137026671183,-64.81710577524628 L-2004.4923597377742,81.7031440868996 " />
			<path d="M-18.42522003946134,-68.40413558587241 L-2006.468708861642,78.15631180999881 " />
			<path d="M-18.425220020607036,19.623157616511815 L-2004.7750155940375,166.05874434324582 " />
			<path d="M-32.55716478406986,-72.57142052540824 L-2020.6006536062505,73.98902687046298 " />
			<path d="M-198.74172184018136,-118.4115454124154 L-2181.2385461470244,27.7400595109208 " />
			<path d="M-200.17280534578117,-121.99857518768852 L-2188.2161227812944,24.561922633993106 " />
			<path d="M-214.30475496357985,-126.16585977954989 L-2202.3480723990933,20.39463804213173 " />
			<path d="M-380.4893270513643,-172.00599029002498 L-2362.386982133889,-25.898556707939434 " />
			<path d="M-381.92041055696416,-175.59302006529808 L-2369.9637279924773,-29.032522243616455 " />
			<path d="M-396.0523601747628,-179.76030465715942 L-2384.095677610276,-33.1998068354778 " />
			<path d="M-562.2369322625472,-225.60043516763452 L-2543.535418120754,-79.5371729267996 " />
			<path d="M-563.668015768147,-229.1874649429076 L-2551.71133320366,-82.62696712122599 " />
			<path d="M-577.7999653859456,-233.35474953476898 L-2565.843282821459,-86.79425171308736 " />
			<path d="M-749.7088254022005,-280.8828814501245 L-2730.38912316841,-134.8651370879146 " />
			<path d="M-751.1399093433049,-284.46991119339873 L-2739.183075509345,-137.90936876479137 " />
			<path d="M-765.2718632622818,-288.6371954694397 L-2753.315029428322,-142.07665304083233 " />
			<path d="M-152.7564488795931,29.569840522832273 L-15.037046297717453,70.18107675714334 " />
			<path d="M-734.6718251984124,-291.2581618772829 L15.037046297717453,-70.18107675714334 " />
			<path d="M-2787.39269822619,-52.90372792435227 L-2036.1671839390785,169.5364871133531 " />
			<path d="M-2757.604467781015,-142.92368541038218 L-2006.3789534939033,79.51652962732321 " />
			<path d="M-2004.8071371982705,166.10476996777618 L-18.189951442896813,19.649470983782628 " />
			<path d="M-2020.8359221839605,73.96271350319213 L-32.79243336178008,-72.59773389267906 " />
			<path d="M-2202.5833410781634,20.36832468213781 L-214.54002364264989,-126.19217313954381 " />
			<path d="M-2384.3309462893462,-33.22612019547174 L-396.2876288538328,-179.78661801715336 " />
			<path d="M-2566.078551500529,-86.82056507308133 L-578.0352340650157,-233.38106289476295 " />
			<path d="M-2753.5502981964737,-142.10296639428043 L-765.5071320304336,-288.6635088228878 " />

       </g>
    </g>
    
</svg>
