<?xml version="1.0" encoding="UTF-8" standalone="no"?>
<svg
   xmlns:svg="http://www.w3.org/2000/svg"
   xmlns="http://www.w3.org/2000/svg"
   width="480.0"
   height="480.0"

>
    <g transform="scale(0.13047975176991192, -0.13047975176991192)   translate(1376.649900613291,-142.44691315958897)" stroke-width="1.0"  fill="none">
       <!-- hidden lines -->
       <g  stroke="rgb(0,0,0)" fill="none" stroke-dasharray="1.0,1.0" >
			<path d="M-1275.682649523416,-642.7621904863972 L-1275.682649523416,-530.2441526559708 " />
			<path d="M-1277.7312396023424,-526.223678937479 L-1277.6307200515193,-526.291961046146 L-1277.5304426610985,-526.366571251449 L-1277.430649008097,-526.4473298108686 L-1277.3315795041656,-526.5340421699615 L-1277.233472816417,-526.6264994310595 L-1277.1365652924546,-526.7244788565223 L-1277.0410903909922,-526.8277444053319 L-1276.9472781194297,-526.9360473017364 L-1276.8553544797467,-527.0491266345721 L-1276.7655409240424,-527.1667099858215 L-1276.6780538210394,-527.2885140868924 L-1276.5931039348316,-527.4142455010367 L-1276.510895917136,-527.5436013302648 L-1276.4316278142674,-527.6762699450538 L-1276.3554905900287,-527.8119317350904 L-1276.282667665662,-527.9502598792399 L-1276.2133344779709,-528.0909211328867 L-1276.147658056677,-528.2335766307505 L-1276.0857966220321,-528.3778827032417 L-1276.0278992036506,-528.523491704392 L-1275.9741052814845,-528.6700528493636 L-1275.9245444498042,-528.8172130595214 L-1275.879336104994,-528.964617813029 L-1275.8385891579167,-529.1119119989244 L-1275.8024017715366,-529.2587407726122 L-1275.770861124437,-529.4047504107158 L-1275.7440432007995,-529.5495891632282 L-1275.7220126073514,-529.6929081009083 L-1275.7048224177215,-529.8343619558818 L-1275.6925140445826,-529.9736099534223 L-1275.6851171398837,-530.1103166329069 L-1275.682649523416,-530.2441526559708 " />
			<path d="M-1275.682649523416,-642.7621904863972 L-1275.684753888367,-642.8829532748719 L-1275.6910626599024,-643.0007449278974 L-1275.701562876955,-643.1153234481815 L-1275.7162329673329,-643.2264534396586 " />
			<path d="M-1299.272542041576,-512.9111822316393 L-1299.2029924694502,-512.8832399995309 L-1299.1311017436883,-512.8608528756826 L-1299.0570053854533,-512.8440630620476 L-1298.980843073745,-512.8329022090934 L-1298.9027583820903,-512.8273913561372 L-1298.8228985078938,-512.8275408916845 L-1298.741413994955,-512.8333505338458 L-1298.6584584496802,-512.8448093308683 L-1298.5741882515163,-512.8618956817808 L-1298.4887622581623,-512.8845773771136 L-1298.4023415061063,-512.9128116596166 L-1298.3150889070546,-512.9465453048614 L-1298.2271689408287,-512.9857147215739 L-1298.1387473453028,-513.0302460715105 L-1298.0499908039726,-513.0800554086509 L-1297.9610666317399,-513.1350488374441 " />
			<path d="M-1277.7312396023422,-526.223678937479 L-1297.9610666317399,-513.1350488374442 " />
			<path d="M172.00062698692454,-1535.9095506514172 L172.28013222867412,-1466.4630532985361 " />
			<path d="M170.23991124240712,-1462.4369706060209 L170.3405384171863,-1462.5057491390721 L170.44089708598793,-1462.5808434389487 L170.54074547598847,-1462.6620725969049 L170.6398430436707,-1462.749240924784 L170.73795105431418,-1462.8421384264495 L170.834833157128,-1462.940541303683 L170.93025595464064,-1463.0442124953338 L171.0239895649748,-1463.1529022484212 L171.11580817565314,-1463.2663487198095 L171.20549058760017,-1463.3842786070127 L171.2928207480302,-1463.5064078066027 L171.3775882709376,-1463.6324420986407 L171.4595889439349,-1463.762077855478 L171.53862522021842,-1463.8950027732214 L171.6145066944759,-1464.0308966241012 L171.68705056158933,-1464.169432027928 L171.7560820570288,-1464.3102752407794 L171.82143487787536,-1464.4530869590194 L171.88295158345935,-1464.5975231367097 L171.94048397464874,-1464.7432358144476 L171.99389345087397,-1464.889873957629 L172.0430513440287,-1465.0370843021233 L172.08783922844253,-1465.1845122053164 L172.12814920617905,-1465.3318025004764 L172.16388416697106,-1465.4786003523814 L172.19495802216807,-1465.6245521121475 L172.22129591213113,-1465.7693061692023 L172.2428343865764,-1465.9125137983428 L172.25952155743235,-1466.0538299998473 L172.27131722384286,-1466.1929143306083 L172.27819296901427,-1466.329431724291 L172.2801322286743,-1466.4630532985361 " />
			<path d="M172.00062698692471,-1535.9095506514175 L171.9982423270404,-1536.0245857098778 L171.99202882728892,-1536.1369094974323 L171.98199810035467,-1536.2463120871892 L171.96816889310665,-1536.352589011812 " />
			<path d="M148.12741197891307,-1522.112811057304 L148.0706316767339,-1521.9835979474014 L148.01701270581233,-1521.8532186913656 L147.9666593889801,-1521.721926959361 L147.91966969530517,-1521.5899781968965 L147.87613504947964,-1521.45762912782 L147.83614015394107,-1521.3251372548293 L147.79976282407247,-1521.1927603584666 L147.76707383680227,-1521.0607559955715 L147.73813679289827,-1520.92938099817 L147.71300799322404,-1520.7988909737746 L147.69173632919794,-1520.6695398080647 L147.67436318766852,-1520.5415791709188 L147.6609223703909,-1520.4152580267576 L147.65144002826077,-1520.29082215015 L147.64593461043464,-1520.168513647627 L147.64441682843432,-1520.04857048663 " />
			<path d="M1434.4033798004027,-941.9691524544971 L1434.6828850421523,-872.5226551016158 " />
			<path d="M147.64441682843426,-1520.04857048663 L147.92392207018383,-1450.602073133749 " />
			<path d="M147.9239220701839,-1450.602073133749 L147.92755621565118,-1450.4575225365465 L147.93726834336445,-1450.3173661155104 L147.95302962177956,-1450.1820199407507 L147.97479326176767,-1450.0518858026198 L148.002494655514,-1449.9273500189531 L148.03605156831355,-1449.8087822882403 L148.07536438269398,-1449.6965345921344 L148.12031639414124,-1449.5909401505546 L148.1448660406015,-1449.5407366566487 L148.17077415755014,-1449.4923124324848 L148.19802151362808,-1449.4457034229229 L148.22658788337122,-1449.4009442254064 L148.25645206222367,-1449.3580680642792 L148.2875918822777,-1449.317106766125 L148.31998422872863,-1449.2780907361425 L148.353605057033,-1449.2410489355748 L148.38842941075637,-1449.206008860213 L148.42443144009837,-1449.1729965199852 L148.46158442108074,-1449.1420364196513 L148.49986077538435,-1449.1131515406112 L148.5392320908203,-1449.0863633238475 L148.5796691424199,-1449.0616916540093 L148.62114191412837,-1449.0391548446523 L148.66361962108525,-1449.0187696246446 " />
			<path d="M148.66361962108527,-1449.0187696246446 L148.73374167590907,-1448.9906136856964 L148.8062318799389,-1448.96808057568 L148.88095192869886,-1448.951213285645 L148.9577592633795,-1448.940043996791 L149.03650734282652,-1448.9345940190683 L149.11704592312765,-1448.9348737505204 L149.1992213442637,-1448.9408826574463 L149.28287682327752,-1448.952609275418 L149.36785275340097,-1448.9700312311534 L149.45398700856978,-1448.9931152852039 L149.5411152527446,-1449.02181739537 L149.62907125344873,-1449.0560828007312 L149.71768719892415,-1449.0958461261241 L149.80679401830037,-1449.1410315068724 L149.89622170416573,-1449.191552733529 L149.9857996369256,-1449.2473134163558 " />
			<path d="M170.2399112424069,-1462.4369706060209 L149.9857996369255,-1449.2473134163558 " />
			<path d="M9.705167241005922,49.97977569428813 L9.825790735263027,50.03072590195036 L9.946123636882202,50.0750607701349 L10.065876053286884,50.112673492232766 L10.184759490340596,50.14347345587798 L10.302487547354794,50.16738646124076 L10.418776607053383,50.184354899781404 L10.533346518831758,50.19433789303441 L10.645921273664323,50.197311391088256 L10.7562296690346,50.1932682305238 L10.864005962286003,50.182218151671556 L10.96899051081935,50.16418777514638 L11.070930397594791,50.13922053771609 L11.169580040431274,50.10737658765843 L11.26470178363568,50.06873263985856 L11.356066470536355,50.023381790996176 L11.443453995541756,49.97143329526733 " />
			<path d="M11.443453995541763,49.971433295267325 L11.526653812963112,49.91301231747508 L11.60546551085141,49.848259585963895 L11.679699224973557,49.77733109569439 L11.749176119857411,49.70039771956707 L11.813728819621996,49.61764479677458 L11.87320181120055,49.5292716863035 L11.92745181898502,49.43549128666126 L11.976348149989471,49.33652952298503 L12.019773008700849,49.23262480276852 L12.057621780858605,49.12402744151751 L12.089803285479565,49.010999059718095 L12.116239994520823,48.89381195257015 L12.136868219651559,48.77274843400451 L12.151638265683752,48.648100156564226 L12.160514550292216,48.52016740878813 L12.163475689735513,48.38925839178974 " />
			<path d="M1432.642737968011,-870.6563732419758 L1432.7633614622682,-870.6054230343135 L1432.8836943638873,-870.5610881661289 L1433.003446780292,-870.5234754440311 L1433.1223302173457,-870.4926754803859 L1433.2400582743599,-870.4687624750231 L1433.3563473340585,-870.4517940364825 L1433.470917245837,-870.4418110432294 L1433.5834920006696,-870.4388375451756 L1433.6938003960397,-870.4428807057401 L1433.801576689291,-870.4539307845923 L1433.9065612378245,-870.4719611611175 L1434.0085011246,-870.4969283985478 L1434.1071507674365,-870.5287723486055 L1434.2022725106408,-870.5674162964053 L1434.2936371975416,-870.6127671452676 L1434.381024722547,-870.6647156409965 " />
			<path d="M1434.9483853465915,-871.3805554744645 L1434.9838778892426,-871.4774237514458 L1435.0147800864784,-871.5779664230862 L1435.0410313474054,-871.681986352261 L1435.0625802003647,-871.7892795838796 L1435.079384393854,-871.8996357447859 L1435.0914109793719,-872.0128384562436 L1435.0986363760203,-872.1286657581969 L1435.1010464167407,-872.2468905444741 " />
			<path d="M12.163475710522622,-21.17653444612972 L12.160514570375417,-21.310104378969154 L12.151638283500754,-21.44601342886206 L12.136868233651182,-21.583934179003016 L12.116240003170496,-21.72353436622451 L12.089803287272739,-21.864477681447987 L12.057621774322097,-22.006424579881898 L12.019772992402032,-22.14903309901483 L11.976348122543351,-22.29195968243317 L11.927451779061116,-22.43486000747857 L11.873201757529586,-22.577389814751402 L11.813728751002373,-22.719205737461813 L11.749176035161423,-22.859966128630386 L11.679699123153341,-22.99933188414564 L11.605465390944621,-23.136967259695542 L11.526653674098256,-23.272540679604955 L11.443453836943219,-23.405725535630488 L11.356066315174662,-23.536200973788365 L11.264701632986773,-23.66365266731976 L11.16957989590154,-23.787773573931503 L11.070930260515283,-23.908264675487864 L10.968990382440332,-24.02483569837142 L10.864005843771851,-24.137205812777626 L10.756229561459053,-24.24510430925842 L10.645921178006114,-24.348271250884984 L10.533346435970646,-24.44645809945859 L10.418776537766597,-24.539428314260867 L10.302487492313876,-24.626957921901127 L10.184759450108697,-24.70883605588788 L10.065876028316488,-24.78486546462467 L9.946123627513312,-24.85486298660646 L9.825790741721772,-24.918659991671742 L9.705167263403675,-24.976102787247342 " />
			<path d="M1435.1010464375279,-941.8126833823936 L1435.0980852973807,-941.9462533152331 L1435.089209010506,-942.082162365126 L1435.0744389606564,-942.2200831152669 L1435.0538107301757,-942.3596833024884 L1435.027374014278,-942.5006266177119 L1434.9951925013274,-942.6425735161458 L1434.9573437194072,-942.7851820352787 L1434.9139188495485,-942.9281086186971 L1434.8650225060665,-943.0710089437425 L1434.8107724845347,-943.2135387510153 L1434.7512994780077,-943.3553546737257 L1434.6867467621666,-943.4961150648943 L1434.6172698501587,-943.6354808204096 L1434.54303611795,-943.7731161959595 L1434.4642244011036,-943.9086896158689 L1434.3810245639484,-944.0418744718944 L1434.2936370421799,-944.1723499100523 L1434.202272359992,-944.2998016035837 L1434.1071506229068,-944.4239225101954 L1434.0085009875206,-944.5444136117518 L1433.9065611094456,-944.6609846346354 L1433.8015765707771,-944.7733547490416 L1433.6938002884642,-944.8812532455223 L1433.5834919050114,-944.9844201871489 L1433.4709171629759,-945.0826070357225 L1433.3563472647718,-945.1755772505248 L1433.240058219319,-945.2631068581651 L1433.122330177114,-945.3449849921518 L1433.0034467553216,-945.4210144008886 L1432.8836943545186,-945.4910119228704 L1432.763361468727,-945.5548089279357 L1432.642737990409,-945.6122517235112 " />
			<path d="M9.705167263403654,-24.976102787247356 L-14.570628659848625,-35.8832922904298 " />
			<path d="M-14.570628659848625,-35.8832922904298 L-14.69125215410573,-35.93424249809203 L-14.811585055724905,-35.97857736627657 L-14.931337472129584,-36.01619008837444 L-15.050220909183299,-36.04699005201965 L-15.167948966197496,-36.07090305738243 L-15.284238025896087,-36.087871495923075 L-15.398807937674459,-36.09785448917608 L-15.511382692507025,-36.10082798722993 L-15.621691087877302,-36.09678482666547 L-15.729467381128703,-36.08573474781323 L-15.834451929662052,-36.06770437128805 L-15.936391816437494,-36.04273713385776 L-16.035041459273977,-36.0108931838001 L-16.130163202478382,-35.97224923600024 L-16.221527889379058,-35.92689838713785 L-16.308915414384447,-35.874949891409 " />
			<path d="M-16.308915414384465,-35.874949891408995 L-16.392115231805814,-35.81652891361675 L-16.470926929694112,-35.751776182105566 L-16.54516064381626,-35.680847691836064 L-16.614637538700116,-35.60391431570874 L-16.6791902384647,-35.52116139291625 L-16.73866323004325,-35.43278828244517 L-16.792913237827722,-35.33900788280293 L-16.841809568832176,-35.2400461191267 L-16.88523442754355,-35.13614139891019 L-16.92308319970131,-35.02754403765918 L-16.955264704322268,-34.914515655859766 L-16.981701413363524,-34.79732854871182 L-17.00232963849426,-34.67626503014618 L-17.017099684526457,-34.5516167527059 L-17.02597596913492,-34.423684004929804 L-17.028937108578216,-34.2927749879314 " />
			<path d="M1408.3669420671565,-956.5194412266936 L1408.2463185728993,-956.5703914343559 L1408.1259856712802,-956.6147263025405 L1408.0062332548755,-956.6523390246383 L1407.8873498178218,-956.6831389882835 L1407.7696217608077,-956.7070519936462 L1407.653332701109,-956.7240204321869 L1407.5387627893306,-956.7340034254399 L1407.4261880344982,-956.7369769234938 L1407.3158796391278,-956.7329337629293 L1407.2081033458765,-956.721883684077 L1407.103118797343,-956.7038533075519 L1407.0011789105677,-956.6788860701216 L1406.902529267731,-956.6470421200639 L1406.8074075245268,-956.6083981722641 L1406.716042837626,-956.5630473234017 L1406.6286553126206,-956.5110988276729 " />
			<path d="M1406.6286553126206,-956.5110988276729 L1406.5454554951993,-956.4526778498806 L1406.466643797311,-956.3879251183694 L1406.392410083189,-956.3169966280999 L1406.322933188305,-956.2400632519726 L1406.2583804885403,-956.1573103291801 L1406.1989074969617,-956.068937218709 L1406.1446574891775,-955.9751568190668 L1406.095761158173,-955.8761950553906 L1406.0523362994616,-955.772290335174 L1406.0144875273038,-955.663692973923 L1405.982306022683,-955.5506645921237 L1405.9558693136416,-955.4334774849757 L1405.9352410885108,-955.3124139664101 L1405.9204710424785,-955.1877656889698 L1405.9115947578703,-955.0598329411937 L1405.9086336184268,-954.9289239241953 " />
			<path d="M-17.02893710857822,-34.29277498793139 L-17.028937129365325,35.27301784998806 " />
			<path d="M1405.908633618427,-954.9289239241954 L1405.9086335976401,-885.363131086276 " />
			<path d="M-17.028937129365325,35.27301784998806 L-17.025975989218118,35.406587782827486 L-17.017099702343454,35.542496832720396 L-17.002329652493884,35.68041758286135 L-16.9817014220132,35.82001777008285 L-16.955264706115443,35.96096108530632 L-16.9230831931648,36.10290798374023 L-16.885234411244735,36.245516502873166 L-16.841809541386056,36.3884430862915 L-16.792913197903818,36.531343411336906 L-16.738663176372288,36.67387321860974 L-16.679190169845075,36.81568914132015 L-16.614637454004125,36.956449532488726 L-16.545160541996044,37.095815288003976 L-16.470926809787322,37.23345066355388 L-16.392115092940955,37.369024083463295 L-16.30891525578592,37.502208939488824 L-16.221527734017364,37.6326843776467 L-16.130163051829477,37.760136071178096 L-16.03504131474424,37.88425697778984 L-15.936391679357985,38.0047480793462 L-15.834451801283034,38.121319102229755 L-15.729467262614554,38.23368921663596 L-15.621690980301754,38.34158771311676 L-15.511382596848815,38.44475465474332 L-15.398807854813345,38.542941503316925 L-15.284237956609296,38.6359117181192 L-15.167948911156575,38.72344132575947 L-15.050220868951397,38.805319459746215 L-14.931337447159194,38.881348868483 L-14.811585046356017,38.9513463904648 L-14.691252160564474,39.015143395530075 L-14.570628682246365,39.072586191105685 " />
			<path d="M1405.9086335976397,-885.3631310862758 L1405.9115947377868,-885.2295611534363 L1405.9204710246615,-885.0936521035434 L1405.9352410745112,-884.9557313534025 L1405.955869304992,-884.816131166181 L1405.9823060208896,-884.6751878509575 L1406.01448753384,-884.5332409525236 L1406.0523363157604,-884.3906324333907 L1406.095761185619,-884.2477058499722 L1406.144657529101,-884.1048055249269 L1406.1989075506328,-883.962275717654 L1406.2583805571599,-883.8204597949436 L1406.322933273001,-883.6796994037751 L1406.3924101850089,-883.5403336482598 L1406.4666439172177,-883.4026982727099 L1406.545455634064,-883.2671248528005 L1406.6286554712192,-883.133939996775 L1406.7160429929877,-883.0034645586171 L1406.8074076751755,-882.8760128650857 L1406.9025294122607,-882.751891958474 L1407.001179047647,-882.6314008569176 L1407.103118925722,-882.514829834034 L1407.2081034643904,-882.4024597196278 L1407.3158797467033,-882.2945612231471 L1407.426188130156,-882.1913942815205 L1407.5387628721917,-882.0932074329469 L1407.6533327703958,-882.0002372181445 L1407.7696218158485,-881.9127076105043 L1407.8873498580535,-881.8308294765176 L1408.006233279846,-881.7548000677808 L1408.125985680649,-881.684802545799 L1408.2463185664406,-881.6210055407337 L1408.3669420447586,-881.5635627451582 " />
			<path d="M9.705167241005922,49.97977569428814 L-14.570628682246356,39.07258619110571 " />
			<path d="M1432.642737968011,-870.6563732419756 L1408.3669420447588,-881.5635627451582 " />
			<path d="M-300.04162443474837,-161.45128972973424 L-300.04162443474837,-91.88549687948547 " />
			<path d="M1122.8962406994908,-1082.0873062913658 L1122.8962406994908,-1012.5215134411171 " />
			<path d="M-302.49993252946,-90.29497980403818 L-302.37930906847225,-90.24402959151445 L-302.2589761999674,-90.19969471673215 L-302.13922381636553,-90.16208198628792 L-302.02034041164785,-90.13128201254388 L-301.90261238634935,-90.10736899533454 L-301.7863233575946,-90.0904005432129 L-301.6717534758397,-90.08041753466637 L-301.5591787499649,-90.07744401963694 L-301.44887038234515,-90.08148716158279 L-301.3410941155,-90.0925372202208 L-301.23610959189637,-90.11056757499188 L-301.1341697284471,-90.13553478919208 L-301.03552010721216,-90.16737871461554 L-300.94039838376983,-90.20602263645671 L-300.8490337146835,-90.25137345812307 L-300.76164620544364,-90.30332192551296 " />
			<path d="M-300.76164620544364,-90.30332192551296 L-300.67844638021427,-90.3617428902183 L-300.59963467466173,-90.42649561101803 L-300.5254009530878,-90.49742409293607 L-300.45592405102997,-90.57435746304691 L-300.39137134443064,-90.65711038212334 L-300.33189834641416,-90.74548349113503 L-300.27764833264206,-90.83926389152181 L-300.22875199614913,-90.93822565808495 L-300.18532713249294,-91.04213038326075 L-300.1474783559735,-91.1507277514653 L-300.11529684760865,-91.2637561421266 L-300.0888601354708,-91.38094325995141 L-300.068231907915,-91.50200679090851 L-300.0534618601484,-91.62665508234794 L-300.04458557450965,-91.75458784561768 L-300.0416244347484,-91.88549687948544 " />
			<path d="M1120.4379326047792,-1010.9309963656699 L1120.558556065767,-1010.8800461531462 L1120.678888934272,-1010.8357112783639 L1120.7986413178737,-1010.7980985479197 L1120.9175247225915,-1010.7672985741756 L1121.03525274789,-1010.7433855569662 L1121.1515417766445,-1010.7264171048447 L1121.2661116583995,-1010.7164340962981 L1121.3786863842743,-1010.7134605812687 L1121.488994751894,-1010.7175037232146 L1121.5967710187392,-1010.7285537818525 L1121.7017555423429,-1010.7465841366236 L1121.803695405792,-1010.7715513508239 L1121.902345027027,-1010.8033952762473 L1121.9974667504694,-1010.8420391980885 L1122.0888314195556,-1010.8873900197548 L1122.1762189287956,-1010.9393384871447 " />
			<path d="M-300.0416244347484,-161.4512897297342 L-300.04458557450965,-161.58485966287117 L-300.0534618601484,-161.720768713609 L-300.068231907915,-161.85868946514026 L-300.0888601354708,-161.9982896542941 L-300.11529684760865,-162.1392329719873 L-300.1474783559735,-162.28117987342236 L-300.18532713249294,-162.42378839608065 L-300.22875199614913,-162.56671498354004 L-300.277648332642,-162.70961531313247 L-300.33189834641416,-162.85214512544738 L-300.3913713444306,-162.9939610536827 L-300.45592405102997,-163.13472145084577 L-300.5254009530878,-163.27408721281063 L-300.59963467466173,-163.4117225952497 L-300.67844638021427,-163.5472960224713 L-300.76164620544364,-163.68048088621438 L-300.8490337146835,-163.81095633247656 L-300.94039838376983,-163.93840803447952 L-301.03552010721216,-164.06252894990968 L-301.1341697284471,-164.18302006061006 L-301.23610959189637,-164.29959109294123 L-301.3410941155,-164.41196121707583 L-301.44887038234515,-164.5198597235424 L-301.5591787499649,-164.62302667538805 L-301.6717534758397,-164.72121353438945 L-301.7863233575946,-164.81418375980311 L-301.90261238634935,-164.90171337821275 L-302.02034041164785,-164.98359152310096 L-302.13922381636553,-165.05962094284502 L-302.2589761999674,-165.12961847591336 L-302.37930906847225,-165.19341549211777 L-302.49993252946,-165.25085829885825 " />
			<path d="M-302.49993252945995,-165.25085829885828 L-326.7757249647371,-176.15805004888736 " />
			<path d="M-326.7757249647371,-176.15805004888736 L-326.89634842572485,-176.2090002614111 L-327.0166812942297,-176.25333513619339 L-327.1364336778316,-176.29094786663762 L-327.25531708254925,-176.32174784038165 L-327.37304510784776,-176.34566085759099 L-327.4893341366025,-176.36262930971264 L-327.6039040183574,-176.37261231825917 L-327.71647874423223,-176.3755858332886 L-327.82678711185196,-176.37154269134277 L-327.9345633786971,-176.36049263270473 L-328.03954790230074,-176.34246227793366 L-328.14148776575,-176.31749506373347 L-328.24013738698494,-176.28565113831002 L-328.3352591104273,-176.24700721646883 L-328.4266237795136,-176.20165639480246 L-328.5140112887534,-176.14970792741258 " />
			<path d="M-328.51401128875347,-176.14970792741258 L-328.59721111398284,-176.09128696270724 L-328.6760228195354,-176.0265342419075 L-328.7502565411093,-175.95560575998945 L-328.81973344316714,-175.87867238987863 L-328.88428614976647,-175.7959194708022 L-328.94375914778294,-175.7075463617905 L-328.9980091615551,-175.61376596140371 L-329.046905498048,-175.5148041948406 L-329.09033036170416,-175.4108994696648 L-329.12817913822363,-175.30230210146024 L-329.16036064658846,-175.18927371079894 L-329.1867973587263,-175.07208659297413 L-329.2074255862821,-174.95102306201701 L-329.2221956340487,-174.82637477057762 L-329.23107191968745,-174.69844200730785 L-329.2340330594487,-174.56753297344008 " />
			<path d="M1094.4238538454858,-1096.7857244890442 L1094.3406540202564,-1096.7273035243388 L1094.261842314704,-1096.6625508035393 L1094.18760859313,-1096.5916223216211 L1094.1181316910722,-1096.5146889515104 L1094.0535789844728,-1096.431936032434 L1093.9941059864564,-1096.3435629234223 L1093.9398559726842,-1096.2497825230355 L1093.8909596361914,-1096.1508207564723 L1093.847534772535,-1096.0469160312964 L1093.8096859960158,-1095.9383186630919 L1093.7775044876507,-1095.8252902724305 L1093.7510677755129,-1095.7081031546059 L1093.7304395479573,-1095.5870396236487 L1093.7156695001906,-1095.4623913322093 L1093.706793214552,-1095.3344585689395 L1093.7038320747906,-1095.2035495350717 " />
			<path d="M-329.2340330594487,-174.56753297344005 L-329.2340330594487,-105.00174012319131 " />
			<path d="M1093.7038320747906,-1095.2035495350717 L1093.7038320747906,-1025.637756684823 " />
			<path d="M-329.2340330594487,-105.00174012319135 L-329.23107191968745,-104.86817019005441 L-329.2221956340487,-104.73226113931658 L-329.2074255862821,-104.59434038778531 L-329.1867973587263,-104.45474019863147 L-329.16036064658846,-104.31379688093827 L-329.12817913822363,-104.17184997950321 L-329.09033036170416,-104.02924145684491 L-329.046905498048,-103.88631486938552 L-328.9980091615551,-103.74341453979308 L-328.94375914778294,-103.60088472747819 L-328.88428614976647,-103.45906879924286 L-328.81973344316714,-103.31830840207981 L-328.7502565411093,-103.17894264011494 L-328.6760228195354,-103.04130725767585 L-328.59721111398284,-102.90573383045427 L-328.51401128875347,-102.7725489667112 L-328.4266237795136,-102.642073520449 L-328.3352591104273,-102.51462181844603 L-328.24013738698494,-102.39050090301588 L-328.14148776575,-102.27000979231549 L-328.03954790230074,-102.15343875998435 L-327.9345633786971,-102.04106863584974 L-327.82678711185196,-101.93317012938317 L-327.71647874423223,-101.8300031775375 L-327.6039040183574,-101.73181631853612 L-327.4893341366025,-101.63884609312247 L-327.37304510784776,-101.55131647471282 L-327.25531708254925,-101.46943832982461 L-327.1364336778316,-101.39340891008055 L-327.0166812942297,-101.3234113770122 L-326.89634842572485,-101.25961436080779 L-326.7757249647371,-101.2021715540673 " />
			<path d="M1093.7038320747906,-1025.637756684823 L1093.706793214552,-1025.5041867516861 L1093.7156695001906,-1025.3682777009483 L1093.7304395479573,-1025.230356949417 L1093.7510677755129,-1025.090756760263 L1093.7775044876507,-1024.9498134425698 L1093.8096859960158,-1024.807866541135 L1093.847534772535,-1024.6652580184766 L1093.8909596361914,-1024.5223314310172 L1093.9398559726842,-1024.3794311014246 L1093.9941059864564,-1024.23690128911 L1094.0535789844728,-1024.0950853608745 L1094.1181316910722,-1023.9543249637114 L1094.18760859313,-1023.8149592017467 L1094.261842314704,-1023.6773238193075 L1094.3406540202564,-1023.541750392086 L1094.4238538454858,-1023.4085655283428 L1094.5112413547258,-1023.2780900820807 L1094.602606023812,-1023.1506383800777 L1094.6977277472545,-1023.0265174646476 L1094.7963773684894,-1022.9060263539471 L1094.8983172319386,-1022.7894553216161 L1095.0033017555422,-1022.6770851974815 L1095.1110780223873,-1022.5691866910148 L1095.2213863900072,-1022.4660197391692 L1095.333961115882,-1022.3678328801677 L1095.448530997637,-1022.2748626547541 L1095.5648200263915,-1022.1873330363445 L1095.68254805169,-1022.1054548914562 L1095.8014314564077,-1022.0294254717122 L1095.9211838400095,-1021.9594279386439 L1096.0415167085143,-1021.8956309224394 L1096.1621401695022,-1021.8381881156989 " />
			<path d="M-302.49993252945995,-90.29497980403819 L-326.7757249647371,-101.20217155406728 " />
			<path d="M1120.4379326047792,-1010.9309963656699 L1096.162140169502,-1021.838188115699 " />
			<path d="M-612.2467524631219,-301.72605957820946 L-612.2467524631219,-232.16026672796073 " />
			<path d="M810.6911126711174,-1222.362076139841 L810.6911126711174,-1152.7962832895923 " />
			<path d="M-614.7050605578336,-230.5697496525134 L-614.5844370968458,-230.51879943998966 L-614.464104228341,-230.47446456520737 L-614.3443518447391,-230.43685183476313 L-614.2254684400215,-230.4060518610191 L-614.1077404147229,-230.38213884380977 L-613.9914513859682,-230.3651703916881 L-613.8768815042133,-230.35518738314158 L-613.7643067783384,-230.35221386811216 L-613.6539984107187,-230.356257010058 L-613.5462221438736,-230.36730706869602 L-613.4412376202699,-230.3853374234671 L-613.3392977568207,-230.41030463766728 L-613.2406481355857,-230.44214856309074 L-613.1455264121435,-230.48079248493192 L-613.0541617430571,-230.5261433065983 L-612.9667742338172,-230.57809177398818 " />
			<path d="M-612.9667742338172,-230.57809177398818 L-612.8835744085878,-230.6365127386935 L-612.8047627030353,-230.70126545949324 L-612.7305289814614,-230.7721939414113 L-612.6610520794035,-230.84912731152212 L-612.5964993728041,-230.93188023059855 L-612.5370263747877,-231.02025333961026 L-612.4827763610156,-231.11403373999704 L-612.4338800245228,-231.21299550656016 L-612.3904551608665,-231.31690023173596 L-612.352606384347,-231.4254975999405 L-612.3204248759822,-231.5385259906018 L-612.2939881638443,-231.65571310842662 L-612.2733599362886,-231.77677663938374 L-612.258589888522,-231.90142493082314 L-612.2497136028833,-232.0293576940929 L-612.246752463122,-232.16026672796067 " />
			<path d="M808.2328045764057,-1151.2057662141451 L808.3534280373934,-1151.1548160016214 L808.4737609058983,-1151.110481126839 L808.5935132895002,-1151.0728683963948 L808.7123966942178,-1151.0420684226508 L808.8301247195163,-1151.0181554054413 L808.9464137482711,-1151.0011869533198 L809.0609836300259,-1150.9912039447731 L809.1735583559008,-1150.9882304297437 L809.2838667235205,-1150.9922735716896 L809.3916429903657,-1151.0033236303277 L809.4966275139693,-1151.0213539850988 L809.5985673774186,-1151.046321199299 L809.6972169986535,-1151.0781651247223 L809.7923387220958,-1151.1168090465635 L809.8837033911822,-1151.16215986823 L809.971090900422,-1151.2141083356198 " />
			<path d="M-612.246752463122,-301.72605957820946 L-612.2497136028833,-301.8596295113464 L-612.258589888522,-301.9955385620842 L-612.2733599362886,-302.1334593136155 L-612.2939881638443,-302.2730595027693 L-612.3204248759822,-302.4140028204625 L-612.352606384347,-302.55594972189755 L-612.3904551608665,-302.69855824455584 L-612.4338800245228,-302.8414848320153 L-612.4827763610156,-302.9843851616077 L-612.5370263747877,-303.12691497392257 L-612.5964993728041,-303.2687309021579 L-612.6610520794035,-303.40949129932096 L-612.7305289814614,-303.54885706128584 L-612.8047627030353,-303.68649244372494 L-612.8835744085878,-303.8220658709465 L-612.9667742338172,-303.95525073468957 L-613.0541617430571,-304.0857261809518 L-613.1455264121435,-304.21317788295477 L-613.2406481355857,-304.3372987983849 L-613.3392977568207,-304.4577899090853 L-613.4412376202699,-304.57436094141644 L-613.5462221438736,-304.68673106555104 L-613.6539984107187,-304.7946295720176 L-613.7643067783384,-304.8977965238633 L-613.8768815042133,-304.99598338286467 L-613.9914513859682,-305.0889536082783 L-614.1077404147229,-305.176483226688 L-614.2254684400215,-305.2583613715762 L-614.3443518447391,-305.33439079132023 L-614.464104228341,-305.40438832438855 L-614.5844370968458,-305.468185340593 L-614.7050605578336,-305.52562814733346 " />
			<path d="M-614.7050605578336,-305.5256281473335 L-638.9808529931106,-316.43281989736255 " />
			<path d="M-638.9808529931106,-316.43281989736255 L-639.1014764540984,-316.48377010988634 L-639.2218093226032,-316.52810498466863 L-639.3415617062051,-316.56571771511284 L-639.4604451109227,-316.59651768885686 L-639.5781731362213,-316.6204307060662 L-639.694462164976,-316.63739915818786 L-639.8090320467309,-316.6473821667344 L-639.9216067726057,-316.6503556817638 L-640.0319151402255,-316.646312539818 L-640.1396914070706,-316.63526248117995 L-640.2446759306742,-316.6172321264089 L-640.3466157941235,-316.5922649122087 L-640.4452654153584,-316.56042098678523 L-640.5403871388007,-316.52177706494405 L-640.6317518078871,-316.4764262432777 L-640.719139317127,-316.4244777758878 " />
			<path d="M-640.719139317127,-316.4244777758878 L-640.8023391423563,-316.36605681118243 L-640.8811508479089,-316.3013040903827 L-640.9553845694828,-316.23037560846467 L-641.0248614715407,-316.1534422383539 L-641.08941417814,-316.0706893192774 L-641.1488871761564,-315.9823162102657 L-641.2031371899286,-315.88853580987893 L-641.2520335264214,-315.78957404331584 L-641.2954583900777,-315.68566931814 L-641.3333071665971,-315.57707194993543 L-641.365488674962,-315.46404355927416 L-641.3919253870998,-315.34685644144935 L-641.4125536146556,-315.22579291049226 L-641.4273236624222,-315.10114461905283 L-641.4361999480609,-314.97321185578306 L-641.4391610878222,-314.84230282191527 " />
			<path d="M782.2187258171123,-1237.0604943375195 L782.1355259918829,-1237.002073372814 L782.0567142863304,-1236.9373206520145 L781.9824805647564,-1236.8663921700963 L781.9130036626985,-1236.7894587999856 L781.8484509560992,-1236.706705880909 L781.7889779580828,-1236.6183327718975 L781.7347279443106,-1236.5245523715107 L781.6858316078178,-1236.4255906049475 L781.6424067441616,-1236.3216858797716 L781.6045579676421,-1236.213088511567 L781.5723764592773,-1236.1000601209057 L781.5459397471394,-1235.982873003081 L781.5253115195836,-1235.861809472124 L781.5105414718171,-1235.7371611806846 L781.5016651861783,-1235.6092284174147 L781.4987040464171,-1235.478319383547 " />
			<path d="M-641.4391610878222,-314.8423028219153 L-641.4391610878222,-245.2765099716666 " />
			<path d="M781.4987040464171,-1235.478319383547 L781.4987040464171,-1165.9125265332982 " />
			<path d="M-641.4391610878222,-245.27650997166654 L-641.4361999480609,-245.1429400385296 L-641.4273236624222,-245.00703098779178 L-641.4125536146556,-244.8691102362605 L-641.3919253870998,-244.72951004710666 L-641.365488674962,-244.58856672941346 L-641.3333071665971,-244.4466198279784 L-641.2954583900777,-244.3040113053201 L-641.2520335264214,-244.1610847178607 L-641.2031371899286,-244.01818438826828 L-641.1488871761564,-243.87565457595338 L-641.08941417814,-243.73383864771804 L-641.0248614715407,-243.59307825055498 L-640.9553845694828,-243.45371248859013 L-640.8811508479089,-243.31607710615106 L-640.8023391423563,-243.18050367892945 L-640.719139317127,-243.04731881518637 L-640.6317518078871,-242.9168433689242 L-640.5403871388007,-242.78939166692123 L-640.4452654153584,-242.66527075149105 L-640.3466157941235,-242.5447796407907 L-640.2446759306742,-242.42820860845953 L-640.1396914070706,-242.31583848432493 L-640.0319151402255,-242.20793997785836 L-639.9216067726057,-242.1047730260127 L-639.8090320467309,-242.0065861670113 L-639.694462164976,-241.91361594159764 L-639.5781731362213,-241.826086323188 L-639.4604451109227,-241.7442081782998 L-639.3415617062051,-241.66817875855574 L-639.2218093226032,-241.5981812254874 L-639.1014764540984,-241.534384209283 L-638.9808529931106,-241.47694140254248 " />
			<path d="M781.4987040464171,-1165.9125265332982 L781.5016651861783,-1165.7789566001613 L781.5105414718171,-1165.6430475494235 L781.5253115195836,-1165.5051267978922 L781.5459397471394,-1165.3655266087383 L781.5723764592773,-1165.224583291045 L781.6045579676421,-1165.0826363896101 L781.6424067441616,-1164.9400278669518 L781.6858316078178,-1164.7971012794924 L781.7347279443106,-1164.6542009498999 L781.7889779580828,-1164.5116711375852 L781.8484509560992,-1164.3698552093497 L781.9130036626985,-1164.2290948121868 L781.9824805647564,-1164.0897290502219 L782.0567142863304,-1163.9520936677827 L782.1355259918829,-1163.8165202405612 L782.2187258171123,-1163.6833353768181 L782.3061133263521,-1163.552859930556 L782.3974779954385,-1163.425408228553 L782.4925997188808,-1163.3012873131227 L782.5912493401157,-1163.1807962024225 L782.693189203565,-1163.0642251700913 L782.7981737271687,-1162.9518550459566 L782.9059499940138,-1162.8439565394901 L783.0162583616335,-1162.7407895876445 L783.1288330875084,-1162.642602728643 L783.2434029692632,-1162.5496325032293 L783.359691998018,-1162.4621028848196 L783.4774200233165,-1162.3802247399315 L783.5963034280342,-1162.3041953201875 L783.716055811636,-1162.234197787119 L783.8363886801409,-1162.1704007709147 L783.9570121411286,-1162.1129579641743 " />
			<path d="M-614.7050605578336,-230.56974965251345 L-638.9808529931106,-241.47694140254254 " />
			<path d="M808.2328045764057,-1151.2057662141451 L783.9570121411286,-1162.1129579641743 " />
			<path d="M-924.4518804914952,-442.0008294266846 L-924.4518804914952,-372.4350365764359 " />
			<path d="M-926.9101885862068,-370.8445195009886 L-926.789565125219,-370.7935692884649 L-926.6692322567142,-370.74923441368253 L-926.5494798731123,-370.7116216832383 L-926.4305964683947,-370.6808217094943 L-926.3128684430961,-370.65690869228496 L-926.1965794143414,-370.6399402401633 L-926.0820095325865,-370.62995723161674 L-925.9694348067117,-370.62698371658735 L-925.8591264390919,-370.6310268585332 L-925.7513501722468,-370.6420769171712 L-925.6463656486432,-370.66010727194225 L-925.5444257851939,-370.68507448614247 L-925.445776163959,-370.7169184115659 L-925.3506544405167,-370.7555623334071 L-925.2592897714303,-370.8009131550735 L-925.1719022621904,-370.85286162246337 " />
			<path d="M-925.1719022621904,-370.85286162246337 L-925.0887024369611,-370.9112825871687 L-925.0098907314085,-370.97603530796846 L-924.9356570098346,-371.0469637898865 L-924.8661801077767,-371.1238971599973 L-924.8016274011774,-371.20665007907377 L-924.742154403161,-371.29502318808545 L-924.6879043893888,-371.38880358847223 L-924.639008052896,-371.4877653550353 L-924.5955831892397,-371.59167008021114 L-924.5577344127203,-371.70026744841573 L-924.5255529043554,-371.813295839077 L-924.4991161922176,-371.9304829569018 L-924.4784879646618,-372.0515464878589 L-924.4637179168952,-372.1761947792983 L-924.4548416312565,-372.3041275425681 L-924.4518804914952,-372.43503657643583 " />
			<path d="M496.02767654803233,-1291.4805360626203 L496.1483000090201,-1291.4295858500966 L496.26863287752496,-1291.3852509753142 L496.3883852611268,-1291.34763824487 L496.5072686658445,-1291.316838271126 L496.624996691143,-1291.2929252539166 L496.74128571989775,-1291.275956801795 L496.85585560165265,-1291.2659737932483 L496.96843032752747,-1291.263000278219 L497.0787386951472,-1291.2670434201648 L497.1865149619923,-1291.278093478803 L497.291499485596,-1291.296123833574 L497.39343934904525,-1291.3210910477742 L497.4920889702802,-1291.3529349731975 L497.5872106937225,-1291.3915788950387 L497.67857536280883,-1291.4369297167052 L497.7659628720487,-1291.488878184095 " />
			<path d="M-924.4518804914952,-442.0008294266847 L-924.4548416312565,-442.1343993598216 L-924.4637179168952,-442.27030841055944 L-924.4784879646618,-442.4082291620907 L-924.4991161922176,-442.5478293512445 L-924.5255529043554,-442.6887726689377 L-924.5577344127203,-442.83071957037276 L-924.5955831892397,-442.97332809303106 L-924.639008052896,-443.1162546804905 L-924.6879043893888,-443.2591550100829 L-924.742154403161,-443.4016848223978 L-924.8016274011774,-443.54350075063314 L-924.8661801077767,-443.6842611477962 L-924.9356570098346,-443.82362690976106 L-925.0098907314085,-443.96126229220016 L-925.0887024369611,-444.09683571942173 L-925.1719022621904,-444.2300205831648 L-925.2592897714303,-444.360496029427 L-925.3506544405167,-444.48794773143 L-925.445776163959,-444.6120686468601 L-925.5444257851939,-444.7325597575605 L-925.6463656486432,-444.84913078989166 L-925.7513501722468,-444.96150091402626 L-925.8591264390919,-445.0693994204928 L-925.9694348067117,-445.1725663723385 L-926.0820095325865,-445.2707532313399 L-926.1965794143414,-445.3637234567535 L-926.3128684430961,-445.4512530751632 L-926.4305964683947,-445.5331312200514 L-926.5494798731123,-445.60916063979545 L-926.6692322567142,-445.67915817286377 L-926.789565125219,-445.7429551890682 L-926.9101885862068,-445.8003979958087 " />
			<path d="M-926.9101885862068,-445.8003979958087 L-951.1859810214838,-456.7075897458377 " />
			<path d="M-951.1859810214838,-456.70758974583777 L-951.3066044824716,-456.75853995836155 L-951.4269373509765,-456.80287483314385 L-951.5466897345783,-456.84048756358806 L-951.6655731392959,-456.8712875373321 L-951.7833011645945,-456.8952005545414 L-951.8995901933492,-456.9121690066631 L-952.0141600751041,-456.92215201520963 L-952.126734800979,-456.92512553023903 L-952.2370431685987,-456.9210823882932 L-952.3448194354438,-456.91003232965517 L-952.4498039590475,-456.8920019748841 L-952.5517438224967,-456.8670347606839 L-952.6503934437317,-456.83519083526045 L-952.745515167174,-456.79654691341926 L-952.8368798362603,-456.7511960917529 L-952.9242673455002,-456.699247624363 " />
			<path d="M-952.9242673455002,-456.699247624363 L-953.0074671707296,-456.64082665965765 L-953.0862788762821,-456.5760739388579 L-953.160512597856,-456.5051454569399 L-953.2299894999139,-456.4282120868291 L-953.2945422065133,-456.3454591677526 L-953.3540152045297,-456.2570860587409 L-953.4082652183018,-456.16330565835415 L-953.4571615547947,-456.06434389179105 L-953.5005864184509,-455.96043916661523 L-953.5384351949704,-455.85184179841065 L-953.5706167033352,-455.7388134077494 L-953.597053415473,-455.62162628992456 L-953.6176816430288,-455.5005627589675 L-953.6324516907954,-455.37591446752805 L-953.6413279764341,-455.2479817042583 L-953.6442891161954,-455.1170726703905 " />
			<path d="M470.01359778873893,-1377.3352641859947 L469.93039796350956,-1377.2768432212893 L469.851586257957,-1377.2120905004897 L469.7773525363831,-1377.1411620185715 L469.70787563432526,-1377.0642286484608 L469.64332292772593,-1376.9814757293843 L469.58384992970946,-1376.8931026203727 L469.5295999159373,-1376.799322219986 L469.4807035794444,-1376.7003604534227 L469.43727871578824,-1376.5964557282468 L469.39942993926877,-1376.4878583600423 L469.36724843090394,-1376.374829969381 L469.3408117187661,-1376.2576428515563 L469.3201834912103,-1376.1365793205991 L469.3054134434437,-1376.0119310291598 L469.29653715780495,-1375.8839982658899 L469.2935760180437,-1375.7530892320221 " />
			<path d="M-953.6442891161955,-455.1170726703904 L-953.6442891161955,-385.5512798201417 " />
			<path d="M469.2935760180436,-1375.7530892320221 L469.2935760180436,-1306.1872963817734 " />
			<path d="M-953.6442891161954,-385.5512798201417 L-953.6413279764341,-385.4177098870048 L-953.6324516907954,-385.28180083626694 L-953.6176816430288,-385.1438800847357 L-953.597053415473,-385.0042798955819 L-953.5706167033352,-384.8633365778887 L-953.5384351949704,-384.7213896764536 L-953.5005864184509,-384.5787811537953 L-953.4571615547947,-384.4358545663359 L-953.4082652183018,-384.29295423674347 L-953.3540152045297,-384.1504244244286 L-953.2945422065133,-384.00860849619323 L-953.2299894999139,-383.8678480990302 L-953.160512597856,-383.7284823370653 L-953.0862788762821,-383.5908469546262 L-953.0074671707296,-383.45527352740464 L-952.9242673455002,-383.3220886636616 L-952.8368798362603,-383.1916132173994 L-952.745515167174,-383.0641615153964 L-952.6503934437317,-382.94004059996627 L-952.5517438224967,-382.81954948926585 L-952.4498039590475,-382.7029784569347 L-952.3448194354438,-382.5906083328001 L-952.2370431685987,-382.4827098263336 L-952.126734800979,-382.37954287448787 L-952.0141600751041,-382.2813560154865 L-951.8995901933492,-382.18838579007286 L-951.7833011645945,-382.10085617166317 L-951.6655731392959,-382.01897802677496 L-951.5466897345783,-381.9429486070309 L-951.4269373509765,-381.8729510739626 L-951.3066044824716,-381.8091540577582 L-951.1859810214838,-381.7517112510177 " />
			<path d="M469.2935760180437,-1306.1872963817734 L469.29653715780495,-1306.0537264486366 L469.3054134434437,-1305.9178173978987 L469.3201834912103,-1305.7798966463674 L469.3408117187661,-1305.6402964572135 L469.36724843090394,-1305.4993531395203 L469.39942993926877,-1305.3574062380853 L469.43727871578824,-1305.214797715427 L469.4807035794444,-1305.0718711279676 L469.5295999159373,-1304.928970798375 L469.58384992970946,-1304.7864409860604 L469.64332292772593,-1304.644625057825 L469.70787563432526,-1304.503864660662 L469.7773525363831,-1304.364498898697 L469.851586257957,-1304.226863516258 L469.93039796350956,-1304.0912900890364 L470.01359778873893,-1303.9581052252934 L470.1009852979788,-1303.8276297790312 L470.1923499670651,-1303.700178077028 L470.28747169050746,-1303.5760571615979 L470.3861213117424,-1303.4555660508977 L470.48806117519166,-1303.3389950185665 L470.5930456987953,-1303.2266248944318 L470.70082196564044,-1303.1187263879654 L470.81113033326017,-1303.0155594361197 L470.923705059135,-1302.9173725771182 L471.0382749408899,-1302.8244023517045 L471.15456396964464,-1302.7368727332948 L471.27229199494315,-1302.6549945884067 L471.3911753996608,-1302.5789651686628 L471.5109277832627,-1302.5089676355942 L471.63126065176755,-1302.44517061939 L471.7518841127553,-1302.3877278126495 " />
			<path d="M-926.9101885862068,-370.8445195009886 L-951.1859810214838,-381.75171125101764 " />
			<path d="M496.0276765480324,-1291.4805360626203 L471.75188411275525,-1302.3877278126495 " />
			<path d="M-1246.4901680148819,-586.6936674589706 L-1246.4901680123103,-517.1278746075664 " />
			<path d="M-1248.9484757951693,-515.5373577336682 L-1248.8278523634967,-515.4864075167961 L-1248.7075195241694,-515.4420726361376 L-1248.587767169469,-515.4044598982786 L-1248.4688837932406,-515.373659915578 L-1248.3511557958839,-515.3497468878744 L-1248.2348667943897,-515.332778423733 L-1248.1202969390838,-515.3227954016604 L-1248.0077222387183,-515.3198218716259 L-1247.8974138955439,-515.3238649971219 L-1247.7896376519589,-515.3349150379072 L-1247.6846531503143,-515.3529453734719 L-1247.5827133074108,-515.3779125671686 L-1247.4840637052023,-515.4097564708546 L-1247.3889419991656,-515.4484003697947 L-1247.297577345769,-515.4937511674733 L-1247.2101898504138,-515.5456996098717 " />
			<path d="M-1247.2101898504138,-515.5456996098717 L-1247.1269900183308,-515.604120563003 L-1247.0481783060484,-515.6688732743202 L-1246.9739445779287,-515.7398017488338 L-1246.9044676695664,-515.8167351135961 L-1246.839914956958,-515.89948802935 L-1246.7804419532786,-515.9878611370267 L-1246.7261919342366,-516.0816415380197 L-1246.67729559291,-516.1806033070762 L-1246.6338707248954,-516.2845080365713 L-1246.5960219445274,-516.3931054108522 L-1246.5638404328547,-516.5061338092714 L-1246.5374037179754,-516.623320936454 L-1246.5167754882661,-516.7443844782802 L-1246.5020054389506,-516.8690327820061 L-1246.4931291523797,-516.9969655588804 L-1246.4901680123103,-517.1278746075664 " />
			<path d="M-1246.490168014882,-586.6936674589706 L-1246.4931291542725,-586.8272373923526 L-1246.5020054387905,-586.9631464438205 L-1246.5167754846889,-587.1010671965652 L-1246.5374037096335,-587.2406673874127 L-1246.5638404184235,-587.3816107072761 L-1246.596021922712,-587.5235576113523 L-1246.6338706944364,-587.6661661371164 L-1246.67729555259,-587.8090927281389 L-1246.7261918828867,-587.9519930617431 L-1246.7804418897833,-588.0945228785088 L-1246.8399148802619,-588.2363388116231 L-1246.904467578679,-588.3770992140817 L-1246.97394447193,-588.5164649817458 L-1247.0481781840938,-588.6541003702741 L-1247.1269898796554,-588.7896738039603 L-1247.2101896943375,-588.9228586745278 L-1247.2975771924985,-589.0533341279578 L-1247.3889418500016,-589.1807858374546 L-1247.484063561384,-589.3049067606865 L-1247.5827131701112,-589.4253978794779 L-1247.6846530206356,-589.5419689201699 L-1247.7896375309278,-589.6543390529148 L-1247.8974137841076,-589.7622375682206 L-1248.0077221377403,-589.865404529113 L-1248.1202968493405,-589.9635913973468 L-1248.2348667165677,-590.0565616321566 L-1248.3511557305765,-590.1440912601031 L-1248.4688837409462,-590.225969414646 L-1248.5877671305884,-590.3019988441395 L-1248.7075194990043,-590.3719963870284 L-1248.8278523522495,-590.4357934131009 L-1248.9484757979403,-590.4932362297332 " />
			<path d="M-1248.9484757979403,-590.4932362297333 L-1273.2242651546576,-601.4004299705012 " />
			<path d="M-1273.2242651546576,-601.4004299705012 L-1273.3448885863302,-601.4513801873733 L-1273.4652214256575,-601.4957150680318 L-1273.5849737803578,-601.5333278058908 L-1273.7038571565863,-601.5641277885915 L-1273.821585153943,-601.588040816295 L-1273.9378741554372,-601.6050092804364 L-1274.052444010743,-601.614992302509 L-1274.1650187111086,-601.6179658325435 L-1274.275327054283,-601.6139227070475 L-1274.383103297868,-601.6028726662622 L-1274.4880877995126,-601.5848423306975 L-1274.590027642416,-601.5598751370009 L-1274.6886772446246,-601.5280312333148 L-1274.7837989506613,-601.4893873343747 L-1274.875163604058,-601.4440365366961 L-1274.962551099413,-601.3920880942977 " />
			<path d="M-1274.962551099413,-601.3920880942977 L-1275.045750931496,-601.3336671411664 L-1275.1245626437785,-601.2689144298492 L-1275.1987963718982,-601.1979859553356 L-1275.2682732802605,-601.1210525905733 L-1275.332825992869,-601.0382996748194 L-1275.3922989965483,-600.9499265671427 L-1275.4465490155903,-600.8561461661498 L-1275.495445356917,-600.7571843970932 L-1275.5388702249315,-600.6532796675981 L-1275.5767190052995,-600.5446822933172 L-1275.6089005169722,-600.431653894898 L-1275.6353372318515,-600.3144667677154 L-1275.6559654615608,-600.1934032258893 L-1275.6707355108763,-600.0687549221633 L-1275.6796117974473,-599.940822145289 L-1275.6825729375166,-599.809913096603 " />
			<path d="M147.9755738847165,-1522.027987904519 L147.89237405263364,-1521.9695669513876 L147.81356234035127,-1521.9048142400704 L147.7393286122315,-1521.833885765557 L147.66985170386914,-1521.7569524007945 L147.60529899126075,-1521.6741994850406 L147.54582598758137,-1521.585826377364 L147.4915759685394,-1521.492045976371 L147.4426796272128,-1521.3930842073144 L147.3992547591981,-1521.2891794778195 L147.3614059788302,-1521.1805821035387 L147.3292244671574,-1521.0675537051193 L147.30278775227808,-1520.9503665779368 L147.28215952256883,-1520.8293030361106 L147.26738947325336,-1520.7046547323846 L147.25851318668248,-1520.5767219555103 L147.25555204661296,-1520.4458129068244 " />
			<path d="M-1275.6825729375164,-599.8099130966029 L-1275.6825729349448,-530.2441202451987 " />
			<path d="M147.25555204661296,-1520.4458129068241 L147.25555204918473,-1450.88002005542 " />
			<path d="M-1275.6825729349448,-530.2441202451987 L-1275.6796117955544,-530.1105503118167 L-1275.6707355110364,-529.9746412603488 L-1275.655965465138,-529.8367205076041 L-1275.6353372401934,-529.6971203167566 L-1275.6089005314034,-529.5561769968932 L-1275.576719027115,-529.414230092817 L-1275.5388702553905,-529.2716215670529 L-1275.4954453972368,-529.1286949760304 L-1275.4465490669402,-528.9857946424262 L-1275.3922990600436,-528.8432648256605 L-1275.332826069565,-528.7014488925462 L-1275.2682733711479,-528.5606884900876 L-1275.1987964778968,-528.4213227224235 L-1275.1245627657331,-528.2836873338952 L-1275.0457510701715,-528.148113900209 L-1274.9625512554894,-528.0149290296415 L-1274.8751637573284,-527.8844535762115 L-1274.7837990998253,-527.7570018667147 L-1274.688677388443,-527.6328809434827 L-1274.5900277797157,-527.5123898246914 L-1274.4880879291914,-527.3958187839994 L-1274.383103418899,-527.2834486512545 L-1274.2753271657193,-527.1755501359487 L-1274.1650188120866,-527.0723831750563 L-1274.0524441004864,-526.9741963068225 L-1273.9378742332592,-526.8812260720127 L-1273.8215852192504,-526.7936964440662 L-1273.7038572088807,-526.7118182895233 L-1273.5849738192385,-526.6357888600298 L-1273.4652214508226,-526.5657913171409 L-1273.3448885975774,-526.5019942910684 L-1273.2242651518866,-526.4445514744361 " />
			<path d="M147.25555204918456,-1450.8800200554201 L147.2585131885752,-1450.7464501220381 L147.26738947309315,-1450.6105410705702 L147.28215951899153,-1450.4726203178257 L147.3027877439361,-1450.333020126978 L147.32922445272612,-1450.1920768071147 L147.36140595701457,-1450.0501299030384 L147.39925472873884,-1449.9075213772742 L147.44267958689264,-1449.7645947862518 L147.49157591718915,-1449.6216944526475 L147.54582592408588,-1449.479164635882 L147.60529891456446,-1449.3373487027677 L147.6698516129816,-1449.196588300309 L147.7393285062327,-1449.057222532645 L147.8135622183964,-1448.9195871441166 L147.89237391395807,-1448.7840137104304 L147.97557372863994,-1448.650828839863 L148.06296122680104,-1448.520353386433 L148.15432588430406,-1448.3929016769362 L148.24944759568646,-1448.2687807537043 L148.34809720441385,-1448.1482896349128 L148.4500370549381,-1448.0317185942208 L148.55502156523045,-1447.919348461476 L148.66279781841004,-1447.8114499461701 L148.77310617204287,-1447.7082829852777 L148.88568088364318,-1447.610096117044 L149.00025075087032,-1447.5171258822343 L149.116539764879,-1447.4295962542876 L149.2342677752488,-1447.3477180997447 L149.353151164891,-1447.2716886702513 L149.47290353330692,-1447.2016911273622 L149.593236386552,-1447.1378941012897 L149.7138598322429,-1447.0804512846576 " />
			<path d="M-1248.9484757951693,-515.5373577336682 L-1273.2242651518866,-526.4445514744361 " />
			<path d="M173.98964918896016,-1436.1732575438893 L149.71385983224283,-1447.0804512846573 " />
			<path d="M148.66361962108454,-1449.0187696246448 L176.17830757550792,-1436.6577328976946 " />
			<path d="M403.7114034220622,-1334.437967257802 L498.2239212973483,-1291.9780016369623 " />
			<path d="M715.9310348858322,-1194.1725810832856 L810.4362827953042,-1151.715881511277 " />
			<path d="M1028.1506663496025,-1053.9071949087693 L1122.6485254736417,-1011.4538147655783 " />
			<path d="M1340.3699872657742,-913.6419482484744 L1434.8603272070438,-871.1919461154039 " />
			<path d="M11.979509991625237,49.62460674573969 L11.443453995541764,49.971433295267325 " />
			<path d="M12.16350359362512,-54.29651576027635 L-16.30891541438446,-35.874949891408995 " />
			<path d="M-195.23758700614422,-158.57703358437857 L-300.76164620544364,-90.30332192551299 " />
			<path d="M-289.92160243223,-201.11886675701174 L-328.51401128875347,-176.14970792741258 " />
			<path d="M-507.4427150345178,-298.8518034328538 L-612.9667742338172,-230.5780917739882 " />
			<path d="M-602.1267304606034,-341.39363660548696 L-640.719139317127,-316.42447777588774 " />
			<path d="M-819.6478430628911,-439.12657328132894 L-925.1719022621904,-370.85286162246337 " />
			<path d="M-914.3318584889769,-481.66840645396223 L-952.9242673455003,-456.699247624363 " />
			<path d="M-1141.686109437374,-583.819403867946 L-1247.2101898504138,-515.5456996098718 " />
			<path d="M-1236.370137087776,-626.3612425330039 L-1274.9625510994128,-601.3920880942976 " />

       </g>

       <!-- solid lines -->
       <g  stroke="rgb(0,0,0)" fill="none">
			<path d="M12.163503593625117,-64.12876486143679 L12.163503593625117,48.38927296898977 " />
			<path d="M10.114913514698783,52.409746687481494 L10.21543306552192,52.34146457881458 L10.31571045594265,52.26685437351149 L10.41550410894419,52.186095814091885 L10.514573612875568,52.09938345499903 L10.612680300624344,52.00692619390106 L10.709587824586608,51.908946768438284 L10.805062726049032,51.80568121962862 L10.898874997611383,51.697378323224136 L10.990798637294482,51.58429899038849 L11.080612192998771,51.46671563913907 L11.16809929600182,51.344911538068104 L11.253049182209532,51.21918012392387 L11.3352571999053,51.089824294695795 L11.414525302773923,50.957155679906734 L11.490662527012523,50.821493889870105 L11.56348545137908,50.683165745720686 L11.632818639070257,50.54250449207384 L11.698495060364035,50.39984899421007 L11.760356495008944,50.25554292171888 L11.818253913390503,50.109933920568615 L11.872047835556616,49.963372775596895 L11.921608667236994,49.816212565439194 L11.9668170120471,49.6688078119315 L12.007563959124507,49.52151362603613 L12.04375134550469,49.37468485234837 L12.075291992604223,49.22867521424471 L12.102109916241606,49.08383646173227 L12.124140509689825,48.940517524052225 L12.14133069931961,48.79906366907872 L12.153639072458462,48.65981567153826 L12.161035977157404,48.52310899205362 L12.16350359362512,48.38927296898978 " />
			<path d="M12.16350359362512,-64.12876486143679 L12.160433565376687,-64.27426821559256 L12.151232682153495,-64.4153628695924 L12.135928520942949,-64.5516259330026 L12.114566951543718,-64.68264899668539 L12.087211999084264,-64.80803935688728 L12.053945652126036,-64.92742119225495 L12.01486761692646,-65.0404366902512 L11.970095018598258,-65.14674711959452 L11.945614537490192,-65.1972875485956 L11.919762050060777,-65.2460338455082 L11.892556931279348,-65.29294947775455 L11.864019569835525,-65.33799928473593 L11.834171352859052,-65.3811495041836 L11.803034649891355,-65.42236779746163 L11.77063279612085,-65.46162327380293 L11.736990074894543,-65.49888651346005 L11.702131699519034,-65.53412958975372 L11.666083794364594,-65.5673260900022 L11.62887337528642,-65.59845113531613 L11.590528329377793,-65.62748139924383 L11.551077394070294,-65.6543951252532 L11.510550135596716,-65.67917214303694 L11.468976926832875,-65.70179388362902 L11.426388924534855,-65.72224339332118 " />
			<path d="M11.426388924534848,-65.72224339332118 L11.356839352409068,-65.75018562542958 L11.284948626647175,-65.77257274927798 L11.210852268412278,-65.78936256291294 L11.13468995670391,-65.80052341586706 L11.056605265049232,-65.80603426882325 L10.976745390852658,-65.80588473327602 L10.895260877914135,-65.80007509111469 L10.812305332639097,-65.78861629409218 L10.728035134475144,-65.7715299431797 L10.642609141121229,-65.74884824784694 L10.556188389065104,-65.72061396534383 L10.46893579001355,-65.68688032009906 L10.381015823787601,-65.64771090338662 L10.292594228261752,-65.60317955344996 L10.203837686931577,-65.55337021630957 L10.114913514698792,-65.4983767875164 " />
			<path d="M-1275.7162329673329,-643.2264534396586 L-1275.734167717688,-643.3294589266358 L-1275.7558671470297,-643.428896487253 L-1275.7812903497772,-643.5245786718256 L-1275.8103894006667,-643.6163251099259 L-1275.843109445095,-643.7039628503998 L-1275.8793888025266,-643.7873266873962 L-1275.9191590827666,-643.8662594717972 L-1275.9623453148845,-643.9406124074592 L-1276.0088660885401,-644.0102453317088 L-1276.0586337074521,-644.075026979563 L-1276.1115543547123,-644.1348352311771 L-1276.1675282696408,-644.1895573420528 L-1276.2264499358448,-644.2390901555723 L-1276.2882082801277,-644.2833402974591 L-1276.3526868818724,-644.3222243517979 L-1276.4197641925064,-644.3556690182817 " />
			<path d="M-1276.4197641925064,-644.3556690182817 L-1276.489313764632,-644.38361125039 L-1276.561204490394,-644.4059983742384 L-1276.635300848629,-644.4227881878734 L-1276.7114631603372,-644.4339490408275 L-1276.789547851992,-644.4394598937837 L-1276.8694077261885,-644.4393103582364 L-1276.9508922391271,-644.4335007160752 L-1277.033847784402,-644.4220419190526 L-1277.118117982566,-644.4049555681402 L-1277.20354397592,-644.3822738728073 L-1277.289964727976,-644.3540395903043 L-1277.3772173270277,-644.3203059450595 L-1277.4651372932535,-644.281136528347 L-1277.5535588887794,-644.2366051784104 L-1277.6423154301096,-644.18679584127 L-1277.7312396023424,-644.1318024124769 " />
			<path d="M10.114913514698785,-65.49837678751639 L-10.114913514698785,-52.4097466874815 " />
			<path d="M-1277.7312396023422,-644.1318024124769 L-1297.9610666317399,-631.043172312442 " />
			<path d="M-10.114913514698783,-52.409746687481494 L-10.21543306552192,-52.34146457881458 L-10.31571045594265,-52.26685437351149 L-10.41550410894419,-52.186095814091885 L-10.514573612875568,-52.09938345499902 L-10.612680300624344,-52.006926193901066 L-10.709587824586606,-51.908946768438284 L-10.805062726049032,-51.80568121962862 L-10.898874997611381,-51.697378323224136 L-10.99079863729448,-51.5842989903885 L-11.08061219299877,-51.46671563913907 L-11.168099296001818,-51.34491153806811 L-11.253049182209532,-51.21918012392387 L-11.335257199905302,-51.089824294695795 L-11.414525302773923,-50.957155679906734 L-11.490662527012525,-50.821493889870105 L-11.56348545137908,-50.683165745720686 L-11.632818639070255,-50.54250449207384 L-11.698495060364035,-50.39984899421007 L-11.760356495008944,-50.25554292171888 L-11.818253913390503,-50.109933920568615 L-11.872047835556618,-49.963372775596895 L-11.921608667236994,-49.816212565439194 L-11.9668170120471,-49.668807811931494 L-12.007563959124507,-49.52151362603613 L-12.04375134550469,-49.37468485234837 L-12.075291992604223,-49.22867521424471 L-12.102109916241606,-49.08383646173227 L-12.124140509689825,-48.940517524052225 L-12.14133069931961,-48.79906366907872 L-12.153639072458462,-48.65981567153826 L-12.161035977157404,-48.52310899205362 L-12.16350359362512,-48.389272968989786 " />
			<path d="M-1297.9610666317399,-631.0431723124419 L-1298.061586182563,-630.974890203775 L-1298.1618635729837,-630.9002799984719 L-1298.2616572259853,-630.8195214390523 L-1298.3607267299167,-630.7328090799595 L-1298.4588334176653,-630.6403518188614 L-1298.5557409416276,-630.5423723933986 L-1298.65121584309,-630.439106844589 L-1298.7450281146525,-630.3308039481846 L-1298.8369517543356,-630.2177246153489 L-1298.9267653100399,-630.1001412640994 L-1299.0142524130429,-629.9783371630285 L-1299.0992022992507,-629.8526057488842 L-1299.1814103169463,-629.7232499196562 L-1299.2606784198151,-629.5905813048671 L-1299.3368156440536,-629.4549195148305 L-1299.4096385684202,-629.3165913706811 L-1299.4789717561114,-629.1759301170342 L-1299.5446481774052,-629.0332746191705 L-1299.60650961205,-628.8889685466793 L-1299.6644070304317,-628.743359545529 L-1299.7182009525977,-628.5967984005573 L-1299.767761784278,-628.4496381903996 L-1299.8129701290882,-628.3022334368919 L-1299.8537170761656,-628.1549392509966 L-1299.8899044625457,-628.0081104773087 L-1299.9214451096452,-627.8621008392051 L-1299.9482630332827,-627.7172620866927 L-1299.9702936267308,-627.5739431490126 L-1299.9874838163607,-627.4324892940391 L-1299.9997921894997,-627.2932412964986 L-1300.0071890941986,-627.156534617014 L-1300.0096567106661,-627.0226985939502 " />
			<path d="M-12.163503593625117,-48.38927296898977 L-12.163503593625117,64.12876486143679 " />
			<path d="M-1300.0096567106661,-627.0226985939502 L-1300.0096567106661,-514.5046607635237 " />
			<path d="M-12.16350359362512,64.12876486143679 L-12.160433565376687,64.27426821559256 L-12.151232682153495,64.4153628695924 L-12.135928520942949,64.5516259330026 L-12.114566951543717,64.68264899668539 L-12.087211999084264,64.80803935688728 L-12.053945652126036,64.92742119225495 L-12.01486761692646,65.0404366902512 L-11.970095018598256,65.14674711959452 L-11.94561453749019,65.1972875485956 L-11.919762050060777,65.2460338455082 L-11.89255693127935,65.29294947775455 L-11.864019569835527,65.33799928473593 L-11.834171352859052,65.3811495041836 L-11.803034649891355,65.42236779746163 L-11.77063279612085,65.46162327380293 L-11.736990074894543,65.49888651346005 L-11.702131699519034,65.53412958975372 L-11.666083794364594,65.5673260900022 L-11.62887337528642,65.59845113531613 L-11.590528329377793,65.62748139924383 L-11.551077394070292,65.6543951252532 L-11.510550135596716,65.67917214303692 L-11.468976926832877,65.70179388362902 L-11.426388924534862,65.72224339332118 " />
			<path d="M-11.426388924534848,65.72224339332118 L-11.356839352409068,65.75018562542958 L-11.284948626647175,65.77257274927798 L-11.210852268412278,65.78936256291294 L-11.13468995670391,65.80052341586706 L-11.05660526504923,65.80603426882325 L-10.976745390852658,65.80588473327602 L-10.895260877914133,65.80007509111469 L-10.812305332639097,65.78861629409218 L-10.728035134475146,65.7715299431797 L-10.642609141121229,65.74884824784694 L-10.556188389065104,65.72061396534383 L-10.46893579001355,65.68688032009906 L-10.381015823787601,65.64771090338662 L-10.292594228261752,65.60317955344996 L-10.203837686931577,65.55337021630957 L-10.114913514698785,65.4983767875164 " />
			<path d="M-1300.0096567106661,-514.5046607635237 L-1300.0065866824177,-514.359157409368 L-1299.9973857991945,-514.2180627553681 L-1299.982081637984,-514.0817996919579 L-1299.9607200685848,-513.9507766282751 L-1299.9333651161253,-513.8253862680732 L-1299.900098769167,-513.7060044327055 L-1299.8610207339675,-513.5929889347093 L-1299.8162481356394,-513.486678505366 L-1299.7917676545312,-513.436138076365 L-1299.7659151671019,-513.3873917794523 L-1299.7387100483204,-513.340476147206 L-1299.7101726868766,-513.2954263402246 L-1299.6803244699001,-513.2522761207769 L-1299.6491877669325,-513.2110578274988 L-1299.616785913162,-513.1718023511576 L-1299.5831431919357,-513.1345391115004 L-1299.5482848165602,-513.0992960352067 L-1299.5122369114056,-513.0660995349583 L-1299.4750264923275,-513.0349744896444 L-1299.4366814464188,-513.0059442257167 L-1299.3972305111113,-512.9790304997073 L-1299.3567032526378,-512.9542534819236 L-1299.315130043874,-512.9316317413314 L-1299.272542041576,-512.9111822316393 " />
			<path d="M10.114913514698785,52.4097466874815 L-10.114913514698785,65.49837678751639 " />
			<path d="M1458.7595899588928,-957.8301326192842 L1459.0390952006424,-888.3836352664028 " />
			<path d="M1456.9988742143753,-884.3575525738878 L1457.0995013891545,-884.426331106939 L1457.1998600579561,-884.5014254068155 L1457.2997084479566,-884.5826545647717 L1457.398806015639,-884.6698228926509 L1457.4969140262824,-884.7627203943165 L1457.5937961290963,-884.8611232715499 L1457.6892189266089,-884.9647944632009 L1457.782952536943,-885.0734842162881 L1457.8747711476215,-885.1869306876765 L1457.9644535595685,-885.3048605748795 L1458.0517837199984,-885.4269897744697 L1458.1365512429059,-885.5530240665078 L1458.2185519159032,-885.6826598233449 L1458.2975881921866,-885.8155847410883 L1458.3734696664442,-885.9514785919682 L1458.4460135335576,-886.0900139957948 L1458.515045028997,-886.2308572086463 L1458.5803978498436,-886.3736689268862 L1458.6419145554275,-886.5181051045768 L1458.699446946617,-886.6638177823145 L1458.7528564228421,-886.8104559254961 L1458.802014315997,-886.9576662699903 L1458.8468022004108,-887.1050941731835 L1458.8871121781472,-887.2523844683435 L1458.9228471389392,-887.3991823202482 L1458.9539209941363,-887.5451340800146 L1458.9802588840994,-887.6898881370691 L1459.0017973585445,-887.8330957662098 L1459.0184845294007,-887.9744119677143 L1459.030280195811,-888.1134962984754 L1459.0371559409825,-888.250013692158 L1459.0390952006426,-888.383635266403 " />
			<path d="M1458.759589958893,-957.8301326192843 L1458.7559558134258,-957.9746832164867 L1458.7462436857124,-958.1148396375229 L1458.7304824072974,-958.2501858122826 L1458.7087187673092,-958.3803199504134 L1458.6810173735628,-958.5048557340803 L1458.6474604607633,-958.6234234647931 L1458.6081476463828,-958.7356711608988 L1458.5631956349357,-958.8412656024788 L1458.5386459884753,-958.8914690963845 L1458.5127378715267,-958.9398933205485 L1458.4854905154486,-958.9865023301103 L1458.4569241457057,-959.031261527627 L1458.4270599668532,-959.074137688754 L1458.3959201467992,-959.115098986908 L1458.3635278003483,-959.1541150168907 L1458.3299069720438,-959.1911568174585 L1458.2950826183205,-959.2261968928204 L1458.2590805889786,-959.2592092330481 L1458.2219276079961,-959.290169333382 L1458.1836512536925,-959.3190542124221 L1458.1442799382567,-959.3458424291857 L1458.103842886657,-959.3705140990239 L1458.0623701149484,-959.3930509083809 L1458.0198924079916,-959.4134361283886 " />
			<path d="M1458.0198924079916,-959.4134361283886 L1457.9497703531679,-959.4415920673368 L1457.877280149138,-959.4641251773534 L1457.802560100378,-959.4809924673882 L1457.7257527656973,-959.4921617562421 L1457.6470046862503,-959.497611733965 L1457.566466105949,-959.4973320025128 L1457.4842906848132,-959.491323095587 L1457.4006352057993,-959.4795964776155 L1457.315659275676,-959.4621745218799 L1457.229525020507,-959.4390904678295 L1457.1423967763324,-959.4103883576634 L1457.054440775628,-959.3761229523021 L1456.9658248301528,-959.336359626909 L1456.8767180107764,-959.2911742461607 L1456.787290324911,-959.2406530195042 L1456.6977123921513,-959.1848923366774 " />
			<path d="M171.96816889310665,-1536.352589011812 L171.95036484088746,-1536.4565912978994 L171.92874347542963,-1536.55700156579 L171.90334604826023,-1536.6536282421578 L171.87422101527622,-1536.746286972413 L171.84142394429503,-1536.8348009724327 L171.80501740903645,-1536.919001365849 L171.76507086973785,-1536.998727506248 L171.7216605406306,-1537.07382728367 L171.67486924453053,-1537.1441574148184 L171.62478625481978,-1537.209583716433 L171.57150712512154,-1537.2699813612976 L171.51513350699292,-1537.3252351163997 L171.45577295598318,-1537.3752395627826 L171.39353872642792,-1537.4198992966765 L171.3285495553706,-1537.4591291115191 L171.26092943602333,-1537.4928541605218 " />
			<path d="M171.26092943602333,-1537.4928541605218 L171.19080738119953,-1537.52101009947 L171.1183171771697,-1537.5435432094864 L171.04359712840974,-1537.5604104995214 L170.9667897937291,-1537.5715797883754 L170.88804171428208,-1537.5770297660981 L170.80750313398096,-1537.576750034646 L170.72532771284492,-1537.57074112772 L170.6416722338311,-1537.5590145097485 L170.55669630370764,-1537.541592554013 L170.47056204853882,-1537.5185084999625 L170.38343380436402,-1537.4898063897965 L170.29547780365988,-1537.4555409844352 L170.20686185818445,-1537.4157776590423 L170.11775503880824,-1537.370592278294 L170.02832735294288,-1537.3200710516373 L169.938749420183,-1537.2643103688106 " />
			<path d="M1456.697712392151,-959.1848923366775 L1436.4436007866698,-945.9952351470123 " />
			<path d="M169.9387494201829,-1537.2643103688106 L149.6846378147015,-1524.0746531791456 " />
			<path d="M1436.4436007866695,-945.9952351470121 L1436.3429736118903,-945.9264566139609 L1436.2426149430887,-945.8513623140843 L1436.1427665530882,-945.7701331561282 L1436.043668985406,-945.6829648282489 L1435.9455609747624,-945.5900673265834 L1435.8486788719486,-945.49166444935 L1435.753256074436,-945.387993257699 L1435.6595224641019,-945.2793035046118 L1435.5677038534234,-945.1658570332233 L1435.4780214414764,-945.0479271460204 L1435.3906912810464,-944.9257979464302 L1435.305923758139,-944.7997636543921 L1435.2239230851417,-944.670127897555 L1435.1448868088582,-944.5372029798116 L1435.0690053346007,-944.4013091289316 L1434.9964614674873,-944.262773725105 L1434.9274299720478,-944.1219305122536 L1434.8620771512012,-943.9791187940136 L1434.8005604456173,-943.8346826163231 L1434.743028054428,-943.6889699385854 L1434.6896185782027,-943.5423317954038 L1434.6404606850479,-943.3951214509095 L1434.595672800634,-943.2476935477164 L1434.5553628228977,-943.1004032525564 L1434.5196278621056,-942.9536054006517 L1434.4885540069085,-942.8076536408854 L1434.4622161169455,-942.6628995838307 L1434.4406776425003,-942.5196919546901 L1434.4239904716442,-942.3783757531855 L1434.4121948052339,-942.2392914224245 L1434.4053190600623,-942.1027740287419 L1434.4033798004023,-941.9691524544969 " />
			<path d="M149.6846378147015,-1524.0746531791453 L149.57382409008264,-1523.99854932658 L149.46336580020844,-1523.9148065079744 L149.3535857012754,-1523.823669417626 L149.2448045678241,-1523.7254043556982 L149.13734025544446,-1523.6202984500983 L149.0315067720101,-1523.5086588174981 L148.92761336015565,-1523.3908116659463 L148.82596359367804,-1523.2671013416973 L148.72685449050178,-1523.137889323041 L148.6305756448006,-1523.0035531640726 L148.53740838081077,-1522.8644853914898 L148.44762493080935,-1522.721092357639 L148.36148763965852,-1522.5737930531668 L148.2792481982409,-1522.423017882738 L148.2011469080255,-1522.2692074074057 L148.12741197891307,-1522.112811057304 " />
			<path d="M1434.682885042152,-872.5226551016157 L1434.6865191876193,-872.3781045044133 L1434.6962313153326,-872.2379480833771 L1434.7119925937477,-872.1026019086174 L1434.733756233736,-871.9724677704866 L1434.7614576274823,-871.8479319868197 L1434.7950145402817,-871.7293642561069 L1434.8343273546623,-871.6171165600011 L1434.8792793661094,-871.5115221184212 L1434.9038290125698,-871.4613186245155 L1434.9297371295183,-871.4128944003514 L1434.9569844855964,-871.3662853907897 L1434.9855508553394,-871.321526193273 L1435.0154150341918,-871.278650032146 L1435.0465548542459,-871.237688733992 L1435.0789472006968,-871.1986727040093 L1435.1125680290013,-871.1616309034415 L1435.1473923827245,-871.1265908280795 L1435.1833944120665,-871.0935784878519 L1435.220547393049,-871.062618387518 L1435.2588237473526,-871.0337335084779 L1435.2981950627884,-871.0069452917143 L1435.338632114388,-870.9822736218761 L1435.3801048860967,-870.959736812519 L1435.4225825930534,-870.9393515925113 " />
			<path d="M1435.4225825930534,-870.9393515925113 L1435.4927046478772,-870.9111956535631 L1435.565194851907,-870.8886625435466 L1435.639914900667,-870.8717952535118 L1435.7167222353478,-870.8606259646579 L1435.7954703147948,-870.855175986935 L1435.876008895096,-870.8554557183871 L1435.9581843162318,-870.861464625313 L1436.0418397952458,-870.8731912432845 L1436.1268157253692,-870.8906131990201 L1436.212949980538,-870.9136972530705 L1436.3000782247127,-870.9423993632366 L1436.388034225417,-870.9766647685979 L1436.4766501708923,-871.016428093991 L1436.5657569902687,-871.0616134747393 L1436.655184676134,-871.1121347013958 L1436.7447626088938,-871.1678953842226 " />
			<path d="M1456.998874214375,-884.3575525738877 L1436.7447626088938,-871.1678953842224 " />
			<path d="M12.163475710522619,-21.17653444612972 L12.16347568973551,48.389258391789724 " />
			<path d="M1435.1010464375277,-941.8126833823935 L1435.1010464167407,-872.2468905444741 " />
			<path d="M1434.381024722547,-870.6647156409965 L1434.4272270368824,-870.6959919500754 L1434.4721337836359,-870.729196139498 L1434.515712359792,-870.764304102492 L1434.5579311266072,-870.8012903501154 L1434.598759432583,-870.8401280297613 L1434.638167635716,-870.8807889446537 L1434.6761271250214,-870.9232435743182 L1434.712610341303,-870.9674610960157 L1434.747590797163,-871.0134094071184 L1434.7810430962313,-871.0610551484182 L1434.8129429516043,-871.1103637283455 L1434.843267203477,-871.1612993480834 L1434.871993835958,-871.2138250275577 L1434.899101993053,-871.267902632286 L1434.9245719938067,-871.3234929010628 L1434.9483853465915,-871.3805554744645 " />
			<path d="M1432.642737990409,-945.6122517235112 L1408.3669420671567,-956.5194412266937 " />
			<path d="M1122.1762189287956,-1010.9393384871447 L1122.259418754025,-1010.99775945185 L1122.3382304595775,-1011.0625121726498 L1122.4124641811513,-1011.1334406545678 L1122.4819410832092,-1011.2103740246787 L1122.5464937898087,-1011.293126943755 L1122.605966787825,-1011.3815000527668 L1122.6602168015972,-1011.4752804531536 L1122.70911313809,-1011.5742422197167 L1122.7525380017464,-1011.6781469448925 L1122.7903867782657,-1011.7867443130971 L1122.8225682866307,-1011.8997727037583 L1122.8490049987686,-1012.0169598215831 L1122.8696332263241,-1012.1380233525402 L1122.8844032740908,-1012.2626716439797 L1122.8932795597295,-1012.3906044072494 L1122.8962406994908,-1012.5215134411172 " />
			<path d="M1122.8962406994908,-1082.0873062913658 L1122.8932795597295,-1082.2208762245027 L1122.8844032740908,-1082.3567852752406 L1122.8696332263241,-1082.4947060267718 L1122.8490049987686,-1082.6343062159258 L1122.8225682866307,-1082.775249533619 L1122.7903867782657,-1082.917196435054 L1122.7525380017464,-1083.0598049577122 L1122.70911313809,-1083.2027315451717 L1122.6602168015972,-1083.3456318747642 L1122.605966787825,-1083.488161687079 L1122.5464937898087,-1083.6299776153144 L1122.4819410832092,-1083.7707380124773 L1122.4124641811513,-1083.9101037744422 L1122.3382304595775,-1084.0477391568813 L1122.259418754025,-1084.1833125841029 L1122.1762189287956,-1084.316497447846 L1122.0888314195556,-1084.446972894108 L1121.9974667504694,-1084.5744245961112 L1121.902345027027,-1084.6985455115414 L1121.803695405792,-1084.8190366222416 L1121.7017555423429,-1084.9356076545728 L1121.5967710187392,-1085.0479777787075 L1121.488994751894,-1085.155876285174 L1121.3786863842743,-1085.2590432370196 L1121.2661116583995,-1085.357230096021 L1121.1515417766445,-1085.4502003214347 L1121.03525274789,-1085.5377299398444 L1120.9175247225915,-1085.6196080847326 L1120.7986413178737,-1085.6956375044765 L1120.678888934272,-1085.765635037545 L1120.558556065767,-1085.8294320537493 L1120.4379326047792,-1085.8868748604898 " />
			<path d="M1120.4379326047792,-1085.88687486049 L1096.162140169502,-1096.7940666105192 " />
			<path d="M1096.1621401695022,-1096.794066610519 L1096.0415167085143,-1096.8450168230427 L1095.9211838400095,-1096.889351697825 L1095.8014314564077,-1096.9269644282692 L1095.68254805169,-1096.9577644020133 L1095.5648200263915,-1096.9816774192227 L1095.448530997637,-1096.9986458713443 L1095.333961115882,-1097.008628879891 L1095.2213863900072,-1097.0116023949204 L1095.1110780223873,-1097.0075592529745 L1095.0033017555422,-1096.9965091943363 L1094.8983172319386,-1096.9784788395652 L1094.7963773684894,-1096.953511625365 L1094.6977277472545,-1096.9216676999417 L1094.602606023812,-1096.8830237781006 L1094.5112413547258,-1096.837672956434 L1094.4238538454858,-1096.7857244890442 " />
			<path d="M809.971090900422,-1151.2141083356198 L810.0542907256514,-1151.2725293003252 L810.133102431204,-1151.3372820211248 L810.2073361527779,-1151.408210503043 L810.2768130548358,-1151.4851438731537 L810.3413657614351,-1151.5678967922302 L810.4008387594515,-1151.6562699012418 L810.4550887732237,-1151.7500503016286 L810.5039851097165,-1151.8490120681918 L810.5474099733727,-1151.9529167933676 L810.5852587498922,-1152.0615141615722 L810.617440258257,-1152.1745425522336 L810.6438769703949,-1152.2917296700582 L810.6645051979507,-1152.4127932010153 L810.6792752457172,-1152.5374414924547 L810.688151531356,-1152.6653742557246 L810.6911126711173,-1152.7962832895923 " />
			<path d="M810.6911126711173,-1222.3620761398413 L810.688151531356,-1222.4956460729782 L810.6792752457172,-1222.631555123716 L810.6645051979507,-1222.7694758752473 L810.6438769703949,-1222.9090760644012 L810.617440258257,-1223.0500193820944 L810.5852587498922,-1223.1919662835294 L810.5474099733727,-1223.3345748061877 L810.5039851097165,-1223.4775013936471 L810.4550887732237,-1223.6204017232396 L810.4008387594515,-1223.7629315355543 L810.3413657614351,-1223.9047474637898 L810.2768130548358,-1224.0455078609527 L810.2073361527779,-1224.1848736229176 L810.133102431204,-1224.3225090053568 L810.0542907256514,-1224.4580824325783 L809.971090900422,-1224.5912672963213 L809.8837033911822,-1224.7217427425835 L809.7923387220958,-1224.8491944445866 L809.6972169986535,-1224.9733153600168 L809.5985673774186,-1225.093806470717 L809.4966275139693,-1225.2103775030482 L809.3916429903657,-1225.322747627183 L809.2838667235205,-1225.4306461336494 L809.1735583559008,-1225.533813085495 L809.0609836300259,-1225.6319999444966 L808.9464137482711,-1225.7249701699102 L808.8301247195163,-1225.8124997883199 L808.7123966942178,-1225.894377933208 L808.5935132895002,-1225.970407352952 L808.4737609058983,-1226.0404048860205 L808.3534280373934,-1226.1042019022248 L808.2328045764057,-1226.1616447089652 " />
			<path d="M808.2328045764057,-1226.1616447089652 L783.9570121411286,-1237.0688364589944 " />
			<path d="M783.9570121411286,-1237.0688364589942 L783.8363886801409,-1237.1197866715179 L783.716055811636,-1237.1641215463003 L783.5963034280342,-1237.2017342767444 L783.4774200233165,-1237.2325342504885 L783.359691998018,-1237.256447267698 L783.2434029692632,-1237.2734157198195 L783.1288330875084,-1237.2833987283661 L783.0162583616335,-1237.2863722433956 L782.9059499940138,-1237.2823291014497 L782.7981737271687,-1237.2712790428116 L782.693189203565,-1237.2532486880405 L782.5912493401157,-1237.2282814738403 L782.4925997188808,-1237.196437548417 L782.3974779954385,-1237.1577936265758 L782.3061133263521,-1237.1124428049093 L782.2187258171123,-1237.0604943375195 " />
			<path d="M498.4859846427439,-1362.6368459883163 L498.4859846427439,-1293.0710531380676 " />
			<path d="M497.7659628720487,-1291.488878184095 L497.8491626972781,-1291.5472991488004 L497.9279744028306,-1291.6120518696 L498.00220812440455,-1291.6829803515182 L498.0716850264624,-1291.759913721629 L498.1362377330617,-1291.8426666407054 L498.1957107310782,-1291.931039749717 L498.2499607448503,-1292.0248201501038 L498.2988570813432,-1292.123781916667 L498.3422819449994,-1292.2276866418429 L498.38013072151887,-1292.3362840100474 L498.4123122298837,-1292.4493124007088 L498.43874894202156,-1292.5664995185334 L498.45937716957735,-1292.6875630494906 L498.47414721734395,-1292.81221134093 L498.4830235029827,-1292.9401441041998 L498.4859846427439,-1293.0710531380676 " />
			<path d="M498.4859846427439,-1362.6368459883163 L498.4830235029827,-1362.7704159214532 L498.47414721734395,-1362.906324972191 L498.45937716957735,-1363.0442457237223 L498.43874894202156,-1363.1838459128762 L498.4123122298837,-1363.3247892305694 L498.38013072151887,-1363.4667361320044 L498.3422819449994,-1363.6093446546627 L498.2988570813432,-1363.752271242122 L498.24996074485034,-1363.8951715717146 L498.1957107310782,-1364.0377013840293 L498.13623773306176,-1364.1795173122648 L498.0716850264624,-1364.3202777094277 L498.00220812440455,-1364.4596434713926 L497.9279744028306,-1364.5972788538318 L497.8491626972781,-1364.7328522810533 L497.7659628720487,-1364.8660371447963 L497.67857536280883,-1364.9965125910585 L497.5872106937225,-1365.1239642930616 L497.4920889702802,-1365.2480852084918 L497.39343934904525,-1365.368576319192 L497.291499485596,-1365.4851473515232 L497.1865149619923,-1365.597517475658 L497.0787386951472,-1365.7054159821244 L496.96843032752747,-1365.80858293397 L496.85585560165265,-1365.9067697929715 L496.74128571989775,-1365.9997400183852 L496.624996691143,-1366.0872696367949 L496.5072686658445,-1366.169147781683 L496.3883852611268,-1366.245177201427 L496.26863287752496,-1366.3151747344955 L496.1483000090201,-1366.3789717506997 L496.02767654803233,-1366.4364145574402 " />
			<path d="M496.0276765480324,-1366.4364145574402 L471.75188411275525,-1377.3436063074694 " />
			<path d="M471.7518841127553,-1377.3436063074694 L471.63126065176755,-1377.394556519993 L471.5109277832627,-1377.4388913947755 L471.3911753996608,-1377.4765041252197 L471.27229199494315,-1377.5073040989637 L471.15456396964464,-1377.5312171161731 L471.0382749408899,-1377.5481855682947 L470.923705059135,-1377.5581685768414 L470.81113033326017,-1377.5611420918708 L470.70082196564044,-1377.557098949925 L470.5930456987953,-1377.5460488912868 L470.48806117519166,-1377.5280185365157 L470.3861213117424,-1377.5030513223155 L470.28747169050746,-1377.4712073968922 L470.1923499670651,-1377.432563475051 L470.1009852979788,-1377.3872126533845 L470.013597788739,-1377.3352641859947 " />
			<path d="M176.44795696924749,-1507.3295672691918 L176.44795697181925,-1437.7637744177875 " />
			<path d="M173.98964918895993,-1436.1732575438891 L174.1102726206324,-1436.122307327017 L174.23060545995995,-1436.0779724463587 L174.35035781466013,-1436.0403597084996 L174.4692411908885,-1436.009559725799 L174.58696918824543,-1435.9856466980953 L174.70325818973942,-1435.9686782339538 L174.81782804504536,-1435.9586952118814 L174.93040274541087,-1435.9557216818469 L175.04071108858545,-1435.9597648073427 L175.14848733217033,-1435.9708148481282 L175.253471833815,-1435.9888451836928 L175.3554116767183,-1436.0138123773895 L175.45406127892687,-1436.0456562810757 L175.54918298496364,-1436.0843001800158 L175.64054763836032,-1436.1296509776942 L175.72793513371548,-1436.1815994200927 " />
			<path d="M175.72793513371548,-1436.1815994200927 L175.81113496579835,-1436.240020373224 L175.88994667808072,-1436.3047730845412 L175.96418040620048,-1436.3757015590547 L176.03365731456284,-1436.4526349238172 L176.09821002717123,-1436.535387839571 L176.15768303085062,-1436.6237609472478 L176.2119330498926,-1436.7175413482407 L176.26082939121918,-1436.8165031172973 L176.3042542592339,-1436.9204078467922 L176.3421030396018,-1437.029005221073 L176.3742845512746,-1437.1420336194924 L176.4007212661539,-1437.2592207466748 L176.42134949586315,-1437.3802842885011 L176.43611954517863,-1437.504932592227 L176.4449958317495,-1437.6328653691014 L176.44795697181902,-1437.7637744177873 " />
			<path d="M176.44795696924743,-1507.3295672691916 L176.4449958298568,-1507.4631372025735 L176.43611954533884,-1507.5990462540415 L176.42134949944045,-1507.736967006786 L176.40072127449588,-1507.8765671976337 L176.37428456570586,-1508.017510517497 L176.34210306141742,-1508.1594574215733 L176.30425428969315,-1508.3020659473375 L176.26082943153935,-1508.4449925383599 L176.21193310124283,-1508.5878928719642 L176.1576830943461,-1508.7304226887297 L176.09821010386753,-1508.872238621844 L176.03365740545038,-1509.0129990243026 L175.96418051219928,-1509.1523647919666 L175.88994680003557,-1509.290000180495 L175.81113510447392,-1509.4255736141813 L175.72793528979204,-1509.5587584847488 L175.64054779163095,-1509.6892339381786 L175.54918313412793,-1509.8166856476755 L175.45406142274553,-1509.9408065709074 L175.35541181401814,-1510.061297689699 L175.2534719634939,-1510.1778687303909 L175.14848745320154,-1510.2902388631358 L175.04071120002195,-1510.3981373784416 L174.93040284638911,-1510.501304339334 L174.8178281347888,-1510.5994912075678 L174.70325826756167,-1510.6924614423774 L174.58696925355298,-1510.779991070324 L174.46924124318318,-1510.861869224867 L174.350357853541,-1510.9378986543604 L174.23060548512507,-1511.0078961972495 L174.11027263187998,-1511.071693223322 L173.9896491861891,-1511.1291360399541 " />
			<path d="M173.98964918618915,-1511.1291360399546 L149.71385982947183,-1522.0363297807226 " />
			<path d="M149.71385982947206,-1522.0363297807226 L149.5932363977996,-1522.0872799975946 L149.47290355847204,-1522.131614878253 L149.35315120377186,-1522.169227616112 L149.23426782754348,-1522.2000275988128 L149.11653983018655,-1522.2239406265164 L149.00025082869257,-1522.2409090906579 L148.88568097338663,-1522.2508921127303 L148.7731062730211,-1522.2538656427648 L148.66279792984653,-1522.249822517269 L148.55502168626165,-1522.2387724764835 L148.45003718461697,-1522.220742140919 L148.3480973417137,-1522.1957749472222 L148.24944773950511,-1522.163931043536 L148.15432603346835,-1522.1252871445959 L148.06296138007167,-1522.0799363469175 L147.9755738847165,-1522.027987904519 " />
			<path d="M10.114913514698783,-65.49837678751639 L-1277.7312396023422,-644.1318024124769 " />
			<path d="M-10.114913514698783,-52.4097466874815 L-1297.9610666317399,-631.043172312442 " />
			<path d="M-12.163503593625117,-48.38927296898977 L-1300.0096567106661,-627.0226985939503 " />
			<path d="M-12.163503593625117,64.12876486143679 L-1300.0096567106661,-514.5046607635237 " />
			<path d="M1456.6977123921513,-959.1848923366774 L169.93874942018283,-1537.2643103688108 " />
			<path d="M1436.4436007866698,-945.9952351470122 L149.68463781470132,-1524.0746531791456 " />
			<path d="M1405.7641037251033,-954.8354129763841 L1117.8217161460568,-1084.1941916042229 " />
			<path d="M1093.5447959830271,-1095.1006537181863 L810.518929272267,-1222.2506740594556 " />
			<path d="M780.3068526626316,-1235.8235188319545 L498.4859846427438,-1362.4321907451235 " />
			<path d="M468.08722119886124,-1376.0889050064711 L176.44795696925553,-1507.1085139562188 " />
			<path d="M1341.5111445226776,-914.3802734174341 L1059.5039004523292,-1041.072675199122 " />
			<path d="M1029.2918238426942,-1054.6455199716208 L810.6911126711173,-1152.8523912908677 " />
			<path d="M717.0721923789238,-1194.9109061461372 L498.4859846427439,-1293.1112617637377 " />
			<path d="M404.8525609151536,-1335.1762923206538 L176.44795697181826,-1437.7875849736815 " />
			<path d="M12.16347571052262,-21.176534446129725 L1435.1010464375279,-941.8126833823937 " />
			<path d="M12.163475689735513,48.38925839178973 L1434.7276134232707,-872.0052805679956 " />
			<path d="M12.163503593625117,-26.56663868875487 L1432.642737990409,-945.6122517235113 " />
			<path d="M12.163503593625116,-53.18019207670497 L1408.3669420671567,-956.5194412266939 " />
			<path d="M-259.71092925420857,-187.54511396897516 L1122.7385607360377,-1081.9852878849395 " />
			<path d="M-196.25585155946533,-159.0345431287093 L1122.8962406994908,-1012.5215134411173 " />
			<path d="M-264.62754544363173,-189.75416546265194 L1120.4379326047792,-1085.88687486049 " />
			<path d="M-288.9033378789089,-200.66135721268103 L1096.1621401695022,-1096.7940666105192 " />
			<path d="M-571.9160572825821,-327.8198838174504 L810.6911126711174,-1222.3620761398413 " />
			<path d="M-508.4609795878388,-299.30931297718456 L810.6911126711174,-1152.7962832895926 " />
			<path d="M-576.8326734720054,-330.02893531112716 L808.2328045764057,-1226.1616447089655 " />
			<path d="M-601.1084659072824,-340.93612706115624 L783.9570121411286,-1237.0688364589944 " />
			<path d="M-884.1211853109555,-468.0946536659256 L498.48598464274403,-1362.6368459883165 " />
			<path d="M-820.6661076162122,-439.58408282565966 L498.48598464274403,-1293.0710531380678 " />
			<path d="M-889.0378015003787,-470.3037051596023 L496.02767654803245,-1366.4364145574405 " />
			<path d="M-913.3135939356557,-481.2108969096314 L471.7518841127554,-1377.3436063074696 " />
			<path d="M-1206.1594635934007,-612.7874896028285 L176.44795696924734,-1507.3295672691918 " />
			<path d="M-1142.7043743082318,-584.276913554947 L176.44795697181917,-1437.7637744177875 " />
			<path d="M-1211.0760802317482,-614.9965412982084 L173.9896491861889,-1511.1291360399546 " />
			<path d="M-1235.3518726660413,-625.9037330477955 L149.71385982947163,-1522.0363297807226 " />
			<path d="M-1276.4197641925061,-644.3556690182817 L11.426388924534848,-65.72224339332116 " />
			<path d="M-1299.272542041576,-512.9111822316394 L-11.426388924534848,65.72224339332116 " />
			<path d="M171.26092943602293,-1537.4928541605223 L1458.0198924079916,-959.4134361283888 " />
			<path d="M176.17830757550792,-1436.6577328976946 L403.7114034220622,-1334.437967257802 " />
			<path d="M498.2239212973483,-1291.9780016369623 L715.9310348858322,-1194.1725810832856 " />
			<path d="M810.4362827953042,-1151.715881511277 L1028.1506663496025,-1053.9071949087693 " />
			<path d="M1122.6485254736417,-1011.4538147655783 L1340.3699872657742,-913.6419482484744 " />
			<path d="M1434.8603272070438,-871.1919461154039 L1435.4225825930532,-870.9393515925112 " />
			<path d="M1434.3810247225465,-870.6647156409964 L11.979509991625237,49.62460674573969 " />
			<path d="M1406.6286553126206,-956.5110988276729 L12.16350359362512,-54.29651576027635 " />
			<path d="M1122.1762189287956,-1010.9393384871448 L-195.23758700614422,-158.57703358437857 " />
			<path d="M1094.4238538454858,-1096.7857244890445 L-289.92160243223,-201.11886675701174 " />
			<path d="M809.971090900422,-1151.21410833562 L-507.4427150345178,-298.8518034328538 " />
			<path d="M782.2187258171123,-1237.0604943375197 L-602.1267304606034,-341.39363660548696 " />
			<path d="M497.7659628720488,-1291.4888781840953 L-819.6478430628911,-439.12657328132894 " />
			<path d="M470.01359778873893,-1377.335264185995 L-914.3318584889769,-481.66840645396223 " />
			<path d="M175.72793513371562,-1436.181599420093 L-1141.686109437374,-583.819403867946 " />
			<path d="M147.9755738847166,-1522.0279879045188 L-1236.370137087776,-626.3612425330039 " />

       </g>
    </g>
    
</svg>
