<?xml version="1.0" encoding="UTF-8" standalone="no"?>
<svg
   xmlns:svg="http://www.w3.org/2000/svg"
   xmlns="http://www.w3.org/2000/svg"
   width="480.0"
   height="480.0"

>
    <g transform="scale(0.13638520956062566, -0.13638520956062566)   translate(1504.9760702767076,-727.3120967835142)" stroke-width="1.0"  fill="none">
       <!-- hidden lines -->
       <g  stroke="rgb(0,0,0)" fill="none" stroke-dasharray="1.0,1.0" >
			<path d="M-1411.5143769740691,122.25810237160412 L-1411.5143769740691,252.95340755009522 " />
			<path d="M-1412.4122575312513,255.4176097492805 L-1412.362177339663,255.38290446316645 L-1412.3130647063097,255.3447858211118 L-1412.2649756551746,255.3032973059854 L-1412.2179650426172,255.258486244753 L-1412.1720864947947,255.2104037544899 L-1412.1273923464908,255.15910468407085 L-1412.0839335814153,255.10464755160228 L-1412.0417597740463,255.04709447766942 L-1412.0009190330793,254.9865111144737 L-1411.9614579465479,254.92296657094187 L-1411.9234215286804,254.85653333389155 L-1411.8868531685503,254.78728718534384 L-1411.8517945805825,254.71530711607696 L-1411.8182857569666,254.6406752355194 L-1411.7863649220392,254.5634766780858 L-1411.7560684886782,254.483799506062 L-1411.727431016768,254.40173460915022 L-1411.700485173774,254.31737560078895 L-1411.6752616974798,254.2308187113658 L-1411.6517893609223,254.1421626784452 L-1411.6300949395713,254.05150863413598 L-1411.6102031807848,253.95895998972753 L-1411.592136775579,253.86462231772592 L-1411.5759163327452,253.76860323142486 L-1411.56156035534,253.67101226214865 L-1411.5490852195785,253.57196073430683 L-1411.5385051561534,253.47156163840404 L-1411.529832234003,253.3699295021487 L-1411.5182452003748,253.16343111996196 L-1411.5143769740694,252.95340755009525 " />
			<path d="M-1411.5143769740694,122.25810237160412 L-1411.5164198762595,122.10382173991816 L-1411.5225436612998,121.9485570136188 L-1411.532733576456,121.79268223903127 L-1411.5469650733294,121.63657293214055 L-1411.5652038669975,121.48060517394053 L-1411.5874060186095,121.32515470442188 L-1411.6135180412368,121.17059601738148 L-1411.6434770287303,121.0173014582342 L-1411.6772108072646,120.86564032700002 L-1411.7146381092125,120.71597798862804 L-1411.7556687689257,120.56867499280025 L-1411.8002039399507,120.42408620533585 L-1411.84813633316,120.2825599532883 L-1411.8993504752198,120.14443718579503 L-1411.953722986776,120.01005065270104 L-1412.0111228796861,119.87972410293543 L-1412.07141187258,119.75377150457186 L-1412.1344447239935,119.63249628845192 L-1412.2000695822662,119.51619061719369 L-1412.2681283513668,119.40513468134641 L-1412.338457071759,119.2995960243869 L-1412.4108863153956,119.19982889818385 L-1412.4852415938842,119.10607365048287 L-1412.5613437788465,119.01855614588764 L-1412.6390095334532,118.93748722173238 L-1412.7180517540985,118.86306218015616 L-1412.7982800211498,118.79546031760302 L-1412.8795010576846,118.73484449288107 L-1412.9615191951114,118.68136073482137 L-1413.0441368445536,118.63513789048172 L-1413.1271549728572,118.59628731474277 L-1413.2103735820795,118.5649026020444 " />
			<path d="M-1413.2103735820795,118.56490260204438 L-1429.95834008618,113.00751628213547 " />
			<path d="M-213.00297300832855,570.5028796559488 L-212.75592068708173,651.359347500684 " />
			<path d="M-213.65739803625306,653.8394436189215 L-213.60687072181938,653.804787755345 L-213.5573231870767,653.7666709039183 L-213.50881269504592,653.7251371170058 L-213.46139531021805,653.6802343959889 L-213.4151258337595,653.6320146357893 L-213.37005774017737,653.5805335648942 L-213.32624311551783,653.5258506809482 L-213.2837325971694,653.4680291819926 L-213.24257531534028,653.4071358934245 L-213.20281883627774,653.3432411907668 L-213.16450910729486,653.276418918333 L-213.12769040366834,653.2067463038843 L-213.0924052774687,653.1343038693758 L-213.05869450838216,653.0591753378962 L-213.02659705658067,652.9814475369071 L-212.99615001769493,652.9012102978947 L-212.96738857994237,652.8185563525503 L-212.9403459834593,652.7335812255982 L-212.9150534818848,652.646383124396 L-212.8915403062402,652.557062825435 L-212.86983363114626,652.4657235578698 L-212.84995854341705,652.3724708842158 L-212.83193801306643,652.2774125783475 L-212.81579286676146,652.1806585009427 L-212.80154176375234,652.0823204725147 L-212.78920117430775,651.9825121441784 L-212.77878536067976,651.8813488663021 L-212.77030636062076,651.7789475551954 L-212.76377397347107,651.6754265579856 L-212.75919574883386,651.5709055158426 L-212.75592068708158,651.359347500684 " />
			<path d="M-213.0029730083287,570.5028796559488 L-213.00548881512805,570.3485158630574 L-213.01209091794533,570.1932008217995 L-213.02276341173658,570.0373086997131 L-213.03748058552947,569.8812150545751 L-213.05620698436323,569.725295929649 L-213.07889749470283,569.5699269477632 L-213.10549745312144,569.4154824064041 L-213.13594277798933,569.2623343759996 L-213.1701601238522,569.1108518035688 L-213.20806705812677,568.9613996238974 L-213.24957225968814,568.8143378803765 L-213.2945757388703,568.6700208576273 L-213.34296907835008,568.5287962279982 L-213.39463569433389,568.3910042139921 L-213.4494511174184,568.2569767686397 L-213.5072832924481,568.1270367757961 L-213.56799289664787,568.0014972722857 L-213.63143367526365,567.8806606937685 L-213.69745279390298,567.764818146146 L-213.7658912067265,567.6542487042619 L-213.8365840396032,567.5492187395868 L-213.90936098730674,567.4499812785049 L-213.98404672379556,567.3567753927522 L-214.06046132458877,567.2698256234712 L-214.13842070021997,567.1893414402722 L-214.21773703972477,567.1155167366021 L-214.29821926309407,567.0485293626381 L-214.3796734816023,566.9885406968317 L-214.4619034649026,566.9356952571331 L-214.54471111376265,566.8901203528354 L-214.62789693730326,566.8519257778747 L-214.7112605335893,566.8212035463279 " />
			<path d="M-214.71126053358898,566.8212035463279 L-231.48608588244565,561.3976348196758 " />
			<path d="M-231.48608588244574,561.3976348196758 L-231.53734060623984,561.3824883801907 L-231.58853993303086,561.3702086148685 L-231.63963723307916,561.360806707494 L-231.69058596956575,561.3542912208458 L-231.7413397409759,561.3506680888972 L-231.79185232335902,561.3499406114124 L-231.8420777124273,561.3521094509409 L-231.89197016545393,561.3571726322141 " />
			<path d="M-231.89197016545396,561.3571726322141 L-231.9600189736478,561.3688672163206 L-232.02723348267222,561.3860165719298 L-232.09349771211234,561.4085911073741 L-232.15869732128587,561.4365518696953 L-232.22271980654105,561.4698506118577 L-232.28545469538452,561.5084298759999 L-232.3467937371046,561.5522230925803 L-232.40663108956088,561.6011546952444 L-232.46486350181746,561.6551402512162 L-232.52139049230527,561.7140866069894 L-232.57611452220561,561.7778920490668 L-232.62894116375608,561.8464464794687 L-232.67977926318807,561.9196316057103 L-232.72854109801506,561.9973211449188 L-232.7751425284,562.0793810417374 L-232.81950314234103,562.1656696996416 L-232.86154639442432,562.2560382252675 L-232.90119973790527,562.3503306853319 L-232.93839474988988,562.4483843756981 L-232.9730672494002,562.5500301021277 L-233.00515740812037,562.6550924722285 L-233.03460985363188,562.7633901980993 L-233.06137376496028,562.874736409147 L-233.08540296026797,562.9889389745363 L-233.10665597654224,563.1058008347171 L-233.12509614114086,563.2251203414559 L-233.1406916350716,563.3466916057845 L-233.15341554789674,563.4703048532679 L-233.16324592416788,563.5957467859746 L-233.17016580131047,563.7228009505287 L-233.17416323889333,563.8512481116056 L-233.17523133923203,563.9808666302279 " />
			<path d="M1187.508734661585,377.95933931809185 L1187.755786982832,458.81580716282684 " />
			<path d="M-233.1752313392321,563.9808666302279 L-232.9281790179853,644.837334474963 " />
			<path d="M-232.92817901798537,644.837334474963 L-232.92514027196123,645.0086356813028 L-232.91707486944122,645.1810571941218 L-232.90400671945417,645.3540878881661 L-232.88597456114206,645.5272148323292 L-232.86303184892222,645.6999248101812 L-232.8352465940271,645.8717058413446 L-232.8027011628925,646.0420486992056 L-232.76549203299078,646.2104484204623 " />
			<path d="M9.131374847298195,71.17860231083759 L9.23881027532209,71.05154922332682 L9.34083656280298,70.91871851835059 L9.437160542551725,70.78049187797701 L9.527505432661545,70.63726648921177 L9.611611631826332,70.48945390270201 L9.689237465291392,70.33747885016716 L9.760159879293193,70.18177802395455 L9.82417508199265,70.02279882222693 L9.881099129060303,69.86099806338723 L9.930768452230703,69.6968406734348 L9.97304032930724,69.53079835002505 L10.00779329426691,69.3633482070708 L10.034927486286554,69.19497140378058 L10.054364936687696,69.0261517620728 L10.06604979297547,68.85737437633888 L10.069948479327817,68.6891242195499 " />
			<path d="M1187.992037229846,460.4690675764256 L1188.0168095008385,460.35979295076106 L1188.0383408308514,460.25000108465224 L1188.0566047084342,460.1398271644397 L1188.0715786453377,460.0294068468857 L1188.0832442042063,459.91887609214075 L1188.0915870212777,459.8083709963363 L1188.0965968240707,459.69802762401 L1188.098267444033,459.58798184057014 " />
			<path d="M10.06994850302613,-12.115009076055895 L10.06807147637704,-12.231180018467972 L10.062442993085966,-12.346703650851182 L10.053070839734064,-12.461420154992942 L10.039967981987022,-12.575170829281571 L10.02315254665805,-12.687798308257976 L10.002647796630788,-12.799146780318875 L9.978482098676878,-12.909062203270372 L9.950688884212674,-13.017392517433686 L9.919306603049405,-13.123987856008213 L9.884378670200775,-13.22870075240093 L9.845953405821557,-13.331386344235272 L9.80408396836033,-13.43190257375728 L9.75882828101877,-13.530110384361762 L9.71024895161929,-13.6258739129666 L9.658413185991842,-13.71906067796905 L9.603392694999737,-13.809541762524024 L9.545263595333077,-13.897191992890805 L9.484106304207085,-13.981890111601455 L9.420005428110947,-14.063518945211342 L9.353049645761152,-14.141965566399765 L9.283331585421168,-14.217121450196345 L9.210947696757259,-14.288882624117129 L9.135998117407656,-14.357149812002666 L9.058586534449697,-14.421828571359057 L8.978820040956613,-14.482829424012012 L8.89680898784234,-14.540067979893141 L8.81266683119937,-14.593465053787238 L8.72650997534084,-14.642946774879027 L8.638457611763945,-14.688444688947865 L8.548631554257533,-14.729895853068976 L8.457156070381908,-14.76724292269023 L8.364157709554101,-14.800434230963983 " />
			<path d="M8.364157709554078,-14.800434230963992 L8.24322693320818,-14.83674906373982 L8.120290189678633,-14.866112186037222 L7.995625542443564,-14.888457183115737 L7.869514963226116,-14.903733514124614 L7.742243694218976,-14.911906626418228 L7.614099602911635,-14.912958033708701 L7.48537253097964,-14.906885357878968 L7.356353638708546,-14.893702334361693 " />
			<path d="M1188.0982674677311,378.7838485449643 L1188.096390441082,378.66767760255226 L1188.0907619577908,378.55215397016906 L1188.081389804439,378.4374374660273 L1188.0682869466918,378.3236867917386 L1188.051471511363,378.21105931276225 L1188.0309667613358,378.09971084070133 L1188.0068010633818,377.98979541774986 L1187.9790078489175,377.88146510358655 L1187.9476255677544,377.774869765012 L1187.9126976349057,377.6701568686193 L1187.8742723705266,377.56747127678494 L1187.8324029330652,377.46695504726296 L1187.7871472457236,377.36874723665846 L1187.7385679163242,377.27298370805363 L1187.6867321506968,377.17979694305114 L1187.6317116597047,377.0893158584962 L1187.573582560038,377.0016656281294 L1187.512425268912,376.9169675094188 L1187.448324392816,376.8353386758089 L1187.381368610466,376.75689205462044 L1187.3116505501262,376.68173617082385 L1187.2392666614621,376.6099749969031 L1187.1643170821126,376.54170780901757 L1187.0869054991547,376.47702904966116 L1187.0071390056614,376.4160281970082 L1186.9251279525472,376.3587896411271 L1186.8409857959043,376.30539256723296 L1186.7548289400459,376.2559108461412 L1186.666776576469,376.21041293207236 L1186.5769505189623,376.16896176795126 L1186.485475035087,376.13161469833 L1186.3924766742591,376.0984233900562 " />
			<path d="M7.356353638708541,-14.893702334361699 L-19.44039565549382,-11.420336854064338 " />
			<path d="M1185.3846726034135,376.0051552866585 L1158.587923309211,379.4785207669559 " />
			<path d="M-19.440395655493823,-11.420336854064338 L-19.573545444598867,-11.399307387527756 L-19.706374464201623,-11.370787111255204 L-19.838562717559427,-11.334844733090303 L-19.969791751591604,-11.291566841370237 L-20.099745424060877,-11.241057696326848 L-20.228110665187664,-11.183438978914632 L-20.35457823186262,-11.118849497670634 L-20.478843452640383,-11.047444854312541 L-20.600606961719745,-10.969397068880513 L-20.719575420142114,-10.884894165325832 L-20.835462222470742,-10.794139718544745 L-20.947988187248335,-10.697352363948694 L-21.05688222956963,-10.594765270752474 L-21.16188201414869,-10.486625580249163 L-21.262734587307566,-10.3731938104251 L-21.359196986363873,-10.254743228349245 L-21.45103682494918,-10.131559191848858 L-21.538032852848115,-10.003938462057521 L-21.619975489009516,-9.872188488491556 L-21.696667326445542,-9.736626668377218 L-21.767923607802402,-9.597579582012973 L-21.833572670456988,-9.455382206008963 L-21.89345636006719,-9.310377106298997 L-21.94743041157955,-9.162913612869223 L-21.995364796776396,-9.013346978191594 L-22.03714403752524,-8.862037521389535 L-22.07266748397569,-8.709349760197627 L-22.101849557033752,-8.555651532806447 L-22.12461995452939,-8.40131311170816 L-22.14092382058058,-8.246706311677634 L-22.15072187774596,-8.092203594038105 L-22.1539905216476,-7.93817716936921 " />
			<path d="M1158.587923309211,379.4785207669558 L1158.4547735201058,379.49955023349236 L1158.3219445005032,379.5280705097649 L1158.1897562471454,379.56401288792983 L1158.0585272131132,379.60729077964993 L1157.9285735406438,379.6577999246933 L1157.8002082995172,379.71541864210553 L1157.6737407328421,379.7800081233495 L1157.5494755120644,379.8514127667076 L1157.427712002985,379.92946055213963 L1157.3087435445627,380.0139634556943 L1157.192856742234,380.1047179024754 L1157.0803307774563,380.20150525707146 L1156.971436735135,380.30409235026764 L1156.8664369505561,380.41223204077096 L1156.765584377397,380.52566381059506 L1156.6691219783409,380.6441143926709 L1156.5772821397557,380.76729842917126 L1156.4902861118567,380.89491915896264 L1156.4083434756953,381.0266691325286 L1156.3316516382592,381.1622309526429 L1156.2603953569023,381.3012780390072 L1156.1947462942478,381.44347541501116 L1156.1348626046376,381.58848051472114 L1156.0808885531253,381.7359440081509 L1156.0329541679284,381.88551064282854 L1155.9911749271796,382.03682009963063 L1155.955651480729,382.1895078608225 L1155.926469407671,382.34320608821366 L1155.9036990101754,382.497544509312 L1155.8873951441242,382.6521513093425 L1155.8775970869588,382.806654026982 L1155.874328443057,382.96068045165094 " />
			<path d="M-22.153990521647604,-7.938177169369197 L-22.153990545345916,72.86595612623657 " />
			<path d="M1155.8743284430573,382.960680451651 L1155.874328419359,463.76481374725677 " />
			<path d="M-22.153990545345913,72.86595612623655 L-22.152927104756937,72.95344974852554 L-22.149737616449848,73.0405991103931 L-22.144424580305113,73.12733590527507 L-22.136992160613065,73.21359214997197 L-22.127446182809965,73.29930023793352 L-22.11579412891211,73.3843929922477 L-22.102045131651522,73.4688037182932 L-22.086209967317824,73.55246625601384 L-22.068301047311934,73.63531503177393 L-22.048332408418144,73.71728510975409 L-22.02631970180229,73.79831224284712 L-22.002280180744556,73.87833292301403 L-21.97623268711657,73.95728443106091 L-21.94819763661338,74.03510488579737 L-21.91819700275191,74.11173329253825 L-21.88625429964837,74.18710959091048 L-21.85239456358822,74.26117470192769 L-21.81664433340302,74.33387057429546 L-21.779031629669642,74.4051402299113 L-21.7395859327481,74.47492780852329 L-21.698338159675213,74.54317861151267 L-21.655320639932224,74.60983914476596 L-21.61056709010537,74.67485716060284 L-21.564112587459235,74.73818169872736 L-21.515993542443653,74.7997631261699 L-21.466247670155642,74.85955317618891 L-21.414913960778797,74.91750498610169 L-21.36203264902329,74.97357313401484 L-21.30764518259039,75.02771367442533 L-21.251794189686308,75.07988417266445 L-21.19452344561072,75.13004373815753 L-21.13587783844628,75.17815305647348 " />
			<path d="M1155.8743284193588,463.7648137472567 L1155.8778031413037,463.92273118565373 L1155.888218408561,464.07934342234245 L1155.9055475479095,464.234249377567 L1155.9297461798858,464.3870523413129 L1155.96075233244,464.53736098927055 L1155.9984865996435,464.6847903850067 L1156.0428523450453,464.82896296577593 L1156.0937359491566,464.9695095094491 L1156.1510071004257,465.10607008008117 L1156.2145191289642,465.23829494969766 L1156.2841093821626,465.3658454939386 L1156.3595996412414,465.4883950592664 L1156.4407965776627,465.60562979951703 L1156.5274922482406,465.7172494796515 L1156.6194646276786,465.8229682446498 L1156.7164781771685,465.922515351578 " />
			<path d="M-334.5565308876072,32.555116302029795 L-334.5565308876072,113.35924959352204 " />
			<path d="M843.472113057461,423.45393191157314 L843.472113057461,504.25806520306537 " />
			<path d="M-335.5746429867465,115.93537935765751 L-335.5159974124851,115.8720668800741 L-335.45872670081144,115.80706057317764 L-335.4028757397592,115.74041138805997 L-335.3484883045801,115.67217156347941 L-335.29560702343343,115.60239458491664 L-335.2442733439747,115.53113514265348 L-335.1945275008695,115.45844908890741 L-335.1464084842581,115.38439339405527 L-335.09995400919536,115.30902610198069 L-335.05520048609037,115.23240628458 L-335.01218299216833,115.15459399546248 L-334.97093524397764,115.07565022288114 L-334.93148957096287,114.99563684193089 L-334.89387689012597,114.91461656605166 L-334.8581266817935,114.83265289787448 L-334.8242669665105,114.74981007944885 L-334.7923242830782,114.66615304189077 L-334.7623236677536,114.58174735449047 L-334.734288634626,114.4966591733202 L-334.7082411571871,114.41095518938182 L-334.6842016511086,114.32470257633537 L-334.66218895824045,114.23796893784917 L-334.64222033184296,114.15082225461302 L-334.624311423064,114.06333083105575 L-334.6084762686717,113.97556324180914 L-334.59472728005267,113.88758827796005 L-334.583075233484,113.7994748931328 L-334.57352926168727,113.71129214944428 L-334.56609684667006,113.62310916337393 L-334.560783813862,113.53499505159121 L-334.5575943275485,113.44701887678275 L-334.5565308876072,113.35924959352208 " />
			<path d="M-334.5565308876072,32.55511630202979 L-334.5584079143868,32.43894535047401 L-334.5640363980004,32.323421709198556 L-334.57340855186516,32.20870519645374 L-334.5865114103127,32.0949545138884 L-334.6033268465259,31.982327026998107 L-334.6238315976162,31.870978547421867 L-334.64799729680595,31.761063117388485 L-334.6757905126719,31.65273279661073 L-334.70717279539457,31.546137451922196 L-334.74210072995135,31.44142454994782 L-334.78052599617735,31.338738953094936 L-334.8223954356129,31.238222719147046 L-334.8676511250446,31.14001490473758 L-334.916230456637,31.04425137297554 L-334.9680662245464,30.951064605489105 L-335.02308671789507,30.860583519147312 L-335.0812158199775,30.77293328771326 L-335.14237311356226,30.688235168675657 L-335.2064739921433,30.60660633549822 L-335.2734297769867,30.528159715519024 L-335.3431478398107,30.453003833724033 L-335.4155317309303,30.38124266261097 L-335.49048131268796,30.3129754783512 L-335.56789289798644,30.24829672344862 L-335.64765939373234,30.187295876085606 L-335.729670448991,30.130057326336644 L-335.81381260764886,30.07666025942106 L-335.8999694653716,30.02717854615622 L-335.9880218306404,29.981680640762836 L-336.07784788964466,29.940229486163688 L-336.16932337480233,29.90288242690686 L-336.26232173667444,29.869691129833875 " />
			<path d="M-336.26232173667444,29.869691129833864 L-336.38325247391776,29.833376323373653 L-336.5061891766478,29.80401322413447 L-336.63085378161725,29.78166824677157 L-336.7569643173387,29.76639193206597 L-336.8842355418599,29.758218832609224 L-337.01237958793513,29.75716743465097 L-337.1411066141354,29.76324011628599 L-337.2701254604235,29.776423142075323 " />
			<path d="M843.472113057461,423.4539319115732 L843.4702360306815,423.3377609600174 L843.4646075470679,423.222237318742 L843.455235393203,423.1075208059971 L843.4421325347555,422.9937701234318 L843.4253170985423,422.8811426365415 L843.404812347452,422.76979415696525 L843.3806466482622,422.6598787269319 L843.3528534323964,422.5515484061541 L843.3214711496736,422.4449530614656 L843.2865432151169,422.3402401594912 L843.2481179488909,422.2375545626383 L843.2062485094552,422.13703832869044 L843.1609928200236,422.03883051428096 L843.1124134884312,421.9430669825189 L843.0605777205218,421.8498802150325 L843.0055572271731,421.7593991286907 L842.9474281250907,421.67174889725663 L842.886270831506,421.58705077821907 L842.8221699529249,421.50542194504163 L842.7552141680816,421.4269753250624 L842.6854961052575,421.3518194432674 L842.6131122141379,421.28005827215435 L842.5381626323802,421.2117910878946 L842.4607510470818,421.14711233299204 L842.3809845513358,421.086111485629 L842.2989734960772,421.02887293588003 L842.2148313374194,420.97547586896445 L842.1286744796967,420.92599415569964 L842.0406221144278,420.88049625030624 L841.9507960554236,420.8390450957071 L841.8593205702658,420.80169803645026 L841.7663222083938,420.76850673937724 " />
			<path d="M-337.2701254604235,29.77642314207532 L-364.06687186698434,33.2497895920184 " />
			<path d="M840.7585184846447,420.6752387516187 L813.961772078084,424.1486052015618 " />
			<path d="M-364.0668718669843,33.2497895920184 L-364.2000216417399,33.27081906337284 L-364.33285064702557,33.29933934445126 L-364.46503888613313,33.33528172739847 L-364.59626790601624,33.37855962386574 L-364.7262215644717,33.42906877360981 L-364.8545867917537,33.48668749566487 L-364.9810543447863,33.551276981482665 L-365.1053195521569,33.62268162933451 L-365.22708304809663,33.700729419169406 L-365.3460514936786,33.78523232702546 L-365.461938283497,33.87598677799608 L-365.5744642361246,33.97277413665972 L-365.6833582666854,34.075361233791796 L-365.78835803992183,34.18350092808973 L-365.8892106021833,34.296932701558056 L-365.98567299081367,34.41538328711903 L-366.07751281946963,34.53856732693699 L-366.16450883795966,34.66618805987037 L-366.24645146525535,34.79793803639528 L-366.32314329439015,34.933499859278335 L-366.3943995680303,35.072546948214395 L-366.46004862357125,35.21474432658712 L-366.5199323066881,35.35974942845701 L-366.57390635234293,35.50721292383269 L-366.6218407323323,35.65677956023754 L-366.6636199685362,35.80808901854396 L-366.6991434111152,35.960776781013756 L-366.7283254809846,36.11447500945326 L-366.75109587598206,36.268813431367796 L-366.7673997402316,36.423420231980515 L-366.7771977962962,36.57792294996679 L-366.7804664398006,36.73194937474614 " />
			<path d="M813.9617720780839,424.1486052015618 L813.8286223033283,424.16963467291623 L813.6957932980426,424.1981549539946 L813.5636050589351,424.23409733694183 L813.432376039052,424.2773752334091 L813.3024223805965,424.32788438315316 L813.1740571533144,424.3855031052082 L813.0475896002819,424.450092591026 L812.9233243929112,424.5214972388779 L812.8015608969715,424.5995450287128 L812.6825924513895,424.68404793656885 L812.5667056615712,424.77480238753947 L812.4541797089436,424.8715897462031 L812.3452856783828,424.97417684333516 L812.2402859051463,425.0823165376331 L812.1394333428848,425.1957483111014 L812.0429709542544,425.3141988966624 L811.9511311255985,425.43738293648033 L811.8641351071085,425.5650036694137 L811.7821924798128,425.69675364593866 L811.705500650678,425.8323154688217 L811.6342443770379,425.97136255775774 L811.5685953214969,426.1135599361305 L811.5087116383801,426.25856503800037 L811.4547375927252,426.40602853337606 L811.4068032127359,426.55559516978093 L811.3650239765319,426.70690462808733 L811.329500533953,426.8595923905571 L811.3003184640836,427.0132906189966 L811.277548069086,427.16762904091115 L811.2612442048365,427.3222358415239 L811.251446148772,427.4767385595102 L811.2481775052676,427.6307649842895 " />
			<path d="M-366.7804664398006,36.73194937474616 L-366.7804664398006,117.5360826662384 " />
			<path d="M811.2481775052677,427.6307649842895 L811.2481775052677,508.43489827578173 " />
			<path d="M-366.7804664398006,117.5360826662384 L-366.7794029998593,117.62357626553677 L-366.7762135135458,117.71072560453571 L-366.77090048073774,117.79746237672481 L-366.76346806572053,117.88371859895814 L-366.7539220939238,117.96942666473853 L-366.74227004735513,118.05451939720668 L-366.7285210587361,118.13893010179343 L-366.7126859043438,118.22259261849419 L-366.69477699556484,118.30544137372418 L-366.67480836916735,118.38741143171427 L-366.6527956762992,118.46843854540666 L-366.6287561702207,118.54845920681096 L-366.6027086927818,118.62741069678091 L-366.5746736596542,118.70523113417282 L-366.54467304432956,118.78185952434715 L-366.5127303608973,118.85723580697541 L-366.4788706456143,118.93130090311458 L-366.44312043728183,119.00399676151244 L-366.40550775644493,119.07526640410737 L-366.36606208343017,119.14505397068702 L-366.32481433523947,119.2133047626708 L-366.28179684131743,119.27996528598194 L-366.23704331821244,119.34498329297541 L-366.1905888431497,119.40830782338897 L-366.1424698265383,119.46988924428511 L-366.0927239834331,119.52967928895275 L-366.04139030397437,119.58763109473804 L-365.9885090228277,119.64369923977468 L-365.9341215876486,119.69783977858498 L-365.87827062659636,119.75001027652378 L-365.8209999149227,119.80016984303816 L-365.7623543406613,119.84827916371687 " />
			<path d="M811.2481775052676,508.43489827578173 L811.2516522285092,508.5928157508376 L811.2620674995566,508.7494280232294 L811.2793966451661,508.90433401292245 L811.3035952858379,509.0571370096284 L811.3346014494706,509.2074456887703 L811.3723357300698,509.35487511365494 L811.4167014911058,509.4990477212859 L811.4675851129958,509.63959428929235 L811.5248562840824,509.77615488149877 L811.5883683343571,509.9083797697119 L811.6579586110794,510.0359303293657 L811.7334488953254,510.1584799067306 L811.8146458584031,510.27571465546464 L811.9013415569609,510.387334340367 L811.9933139655265,510.4930531062716 L812.0903275451072,510.59260021011573 " />
			<path d="M-679.1830416352749,77.2252468481332 L-679.1830416352749,158.02938013962543 " />
			<path d="M498.8456023097933,468.1240624576766 L498.8456023097933,548.9281957491688 " />
			<path d="M-680.2011537344142,160.60550990376092 L-680.1425081601528,160.5421974261775 L-680.0852374484792,160.47719111928103 L-680.029386487427,160.41054193416335 L-679.9749990522479,160.34230210958282 L-679.9221177711013,160.27252513102005 L-679.8707840916426,160.20126568875688 L-679.8210382485373,160.1285796350108 L-679.7729192319259,160.05452394015867 L-679.7264647568632,159.97915664808409 L-679.6817112337582,159.9025368306834 L-679.6386937398362,159.82472454156587 L-679.5974459916454,159.74578076898453 L-679.5580003186307,159.66576738803428 L-679.5203876377938,159.58474711215507 L-679.4846374294613,159.50278344397788 L-679.4507777141782,159.41994062555224 L-679.418835030746,159.33628358799416 L-679.3888344154215,159.25187790059388 L-679.3607993822937,159.1667897194236 L-679.3347519048549,159.0810857354852 L-679.3107123987763,158.99483312243876 L-679.2886997059082,158.90809948395255 L-679.2687310795108,158.8209528007164 L-679.2508221707318,158.73346137715913 L-679.2349870163395,158.64569378791253 L-679.2212380277205,158.55771882406344 L-679.2095859811518,158.46960543923618 L-679.200040009355,158.38142269554766 L-679.1926075943378,158.29323970947732 L-679.1872945615297,158.2051255976946 L-679.1841050752163,158.11714942288614 L-679.183041635275,158.02938013962546 " />
			<path d="M-679.183041635275,77.2252468481332 L-679.1849186620545,77.10907589657742 L-679.1905471456681,76.99355225530196 L-679.199919299533,76.87883574255716 L-679.2130221579805,76.76508505999182 L-679.2298375941937,76.65245757310151 L-679.250342345284,76.54110909352528 L-679.2745080444738,76.4311936634919 L-679.3023012603396,76.32286334271414 L-679.3336835430624,76.2162679980256 L-679.3686114776191,76.11155509605123 L-679.4070367438451,76.00886949919834 L-679.4489061832808,75.90835326525045 L-679.4941618727124,75.81014545084099 L-679.5427412043048,75.71438191907895 L-679.5945769722142,75.62119515159252 L-679.6495974655629,75.53071406525072 L-679.7077265676453,75.44306383381667 L-679.76888386123,75.35836571477907 L-679.8329847398111,75.27673688160162 L-679.8999405246544,75.19829026162243 L-679.9696585874785,75.12313437982743 L-680.0420424785981,75.05137320871438 L-680.1169920603558,74.9831060244546 L-680.1944036456542,74.91842726955203 L-680.2741701414002,74.85742642218902 L-680.3561811966588,74.80018787244005 L-680.4403233553167,74.74679080552447 L-680.5264802130393,74.69730909225963 L-680.6145325783082,74.65181118686624 L-680.7043586373125,74.6103600322671 L-680.7958341224702,74.57301297301026 L-680.8888324843422,74.53982167593728 " />
			<path d="M-680.8888324843423,74.53982167593728 L-681.0097632215856,74.50350686947706 L-681.1326999243156,74.47414377023787 L-681.257364529285,74.45179879287498 L-681.3834750650065,74.43652247816938 L-681.5107462895277,74.42834937871262 L-681.6388903356029,74.42729798075437 L-681.7676173618032,74.4333706623894 L-681.8966362080913,74.44655368817872 " />
			<path d="M-681.8966362080913,74.44655368817872 L-708.693382614652,77.91992013812181 " />
			<path d="M496.13200773697696,465.3453692977221 L469.33526133041613,468.8187357476652 " />
			<path d="M-708.6933826146519,77.9199201381218 L-708.8265323894075,77.94094960947625 L-708.9593613946931,77.96946989055466 L-709.0915496338007,78.00541227350186 L-709.2227786536838,78.04869016996915 L-709.3527323121393,78.09919931971322 L-709.4810975394214,78.15681804176828 L-709.6075650924539,78.22140752758607 L-709.7318302998245,78.2928121754379 L-709.8535937957643,78.3708599652728 L-709.9725622413463,78.45536287312886 L-710.0884490311646,78.54611732409948 L-710.2009749837922,78.64290468276313 L-710.309869014353,78.74549177989519 L-710.4148687875895,78.85363147419314 L-710.515721349851,78.96706324766146 L-710.6121837384813,79.08551383322244 L-710.7040235671373,79.20869787304039 L-710.7910195856273,79.33631860597377 L-710.872962212923,79.46806858249869 L-710.9496540420578,79.60363040538174 L-711.0209103156978,79.7426774943178 L-711.0865593712389,79.88487487269053 L-711.1464430543557,80.02987997456042 L-711.2004171000106,80.17734346993609 L-711.2483514799999,80.32691010634095 L-711.2901307162039,80.47821956464736 L-711.3256541587828,80.63090732711716 L-711.3548362286522,80.78460555555667 L-711.3776066236497,80.9389439774712 L-711.3939104878992,81.09355077808391 L-711.4037085439638,81.24805349607018 L-711.4069771874682,81.40207992084954 " />
			<path d="M469.3352613304163,468.8187357476652 L469.2021115556607,468.8397652190196 L469.069282550375,468.868285500098 L468.93709431126746,468.9042278830452 L468.80586529138435,468.9475057795125 L468.6759116329289,468.99801492925656 L468.54754640564687,469.0556336513116 L468.4210788526143,469.1202231371294 L468.2968136452437,469.1916277849813 L468.17505014930396,469.2696755748162 L468.056081703722,469.35417848267224 L467.9401949139036,469.44493293364286 L467.827668961276,469.5417202923065 L467.7187749307152,469.64430738943855 L467.61377515747876,469.7524470837365 L467.5129225952173,469.8658788572048 L467.4164602065869,469.9843294427658 L467.32462037793096,470.1075134825837 L467.23762435944093,470.2351342155171 L467.15568173214524,470.36688419204205 L467.07898990301044,470.5024460149251 L467.0077336293703,470.64149310386114 L466.94208457382933,470.7836904822339 L466.8822008907125,470.92869558410376 L466.82822684505766,471.07615907947945 L466.78029246506827,471.2257257158843 L466.7385132288644,471.3770351741907 L466.7029897862854,471.5297229366605 L466.673807716416,471.6834211651 L466.6510373214185,471.83775958701455 L466.634733457169,471.99236638762727 L466.6249354011044,472.1468691056136 L466.6216667576,472.3008955303929 " />
			<path d="M-711.4069771874683,81.40207992084956 L-711.4069771874683,162.2062132123418 " />
			<path d="M466.6216667575999,472.30089553039295 L466.6216667575999,553.1050288218852 " />
			<path d="M-711.4069771874682,162.20621321234182 L-711.4059137475269,162.2937068116402 L-711.4027242612135,162.38085615063912 L-711.3974112284054,162.4675929228282 L-711.3899788133882,162.55384914506155 L-711.3804328415914,162.63955721084193 L-711.3687807950228,162.72464994331008 L-711.3550318064038,162.8090606478968 L-711.3391966520114,162.89272316459758 L-711.3212877432325,162.97557191982756 L-711.301319116835,163.05754197781766 L-711.2793064239669,163.13856909151005 L-711.2552669178883,163.21858975291434 L-711.2292194404495,163.29754124288428 L-711.2011844073219,163.3753616802762 L-711.1711837919972,163.4519900704505 L-711.139241108565,163.52736635307878 L-711.105381393282,163.60143144921796 L-711.0696311849495,163.6741273076158 L-711.0320185041126,163.74539695021073 L-710.9925728310978,163.81518451679037 L-710.9513250829071,163.88343530877415 L-710.908307588985,163.9500958320853 L-710.8635540658801,164.01511383907877 L-710.8170995908174,164.07843836949232 L-710.7689805742059,164.14001979038846 L-710.7192347311008,164.1998098350561 L-710.667901051642,164.2577616408414 L-710.6150197704953,164.31382978587803 L-710.5606323353163,164.36797032468834 L-710.5047813742641,164.42014082262713 L-710.4475106625904,164.47030038914153 L-710.388865088329,164.51840970982022 " />
			<path d="M466.6216667576,553.1050288218852 L466.62514148084165,553.2629462969411 L466.635556751889,553.4195585693328 L466.6528858974985,553.5744645590258 L466.67708453817033,553.7272675557318 L466.708090701803,553.8775762348737 L466.7458249824023,554.0250056597583 L466.7901907434382,554.1691782673893 L466.84107436532827,554.3097248353957 L466.8983455364148,554.4462854276022 L466.9618575866895,554.5785103158153 L467.0314478634117,554.7060608754691 L467.10693814765784,554.8286104528339 L467.18813511073546,554.945845201568 L467.2748308092933,555.0574648864704 L467.3668032178588,555.163183652375 L467.46381679743956,555.2627307562191 " />
			<path d="M-1023.8095523829426,121.89537739423659 L-1023.8095523829426,202.69951068572882 " />
			<path d="M-1024.8276644820817,205.27564044986437 L-1024.7690189078203,205.21232797228095 L-1024.7117481961466,205.14732166538448 L-1024.6558972350945,205.08067248026683 L-1024.6015097999152,205.01243265568627 L-1024.5486285187687,204.9426556771235 L-1024.49729483931,204.87139623486033 L-1024.4475489962047,204.79871018111425 L-1024.3994299795934,204.72465448626212 L-1024.3529755045306,204.64928719418754 L-1024.3082219814255,204.57266737678682 L-1024.2652044875035,204.49485508766932 L-1024.2239567393128,204.41591131508798 L-1024.184511066298,204.33589793413773 L-1024.146898385461,204.2548776582585 L-1024.1111481771286,204.17291399008133 L-1024.0772884618457,204.0900711716557 L-1024.0453457784133,204.00641413409758 L-1024.0153451630888,203.9220084466973 L-1023.9873101299611,203.83692026552703 L-1023.9612626525222,203.75121628158865 L-1023.9372231464438,203.66496366854219 L-1023.9152104535756,203.578230030056 L-1023.8952418271781,203.49108334681983 L-1023.8773329183991,203.40359192326255 L-1023.8614977640069,203.31582433401596 L-1023.8477487753878,203.22784937016684 L-1023.8360967288191,203.1397359853396 L-1023.8265507570223,203.05155324165108 L-1023.8191183420051,202.9633702555807 L-1023.813805309197,202.875256143798 L-1023.8106158228836,202.78727996898954 L-1023.8095523829423,202.69951068572885 " />
			<path d="M-1023.8095523829423,121.89537739423659 L-1023.8114294097219,121.77920644268082 L-1023.8170578933355,121.66368280140536 L-1023.8264300472003,121.54896628866055 L-1023.8395329056478,121.43521560609521 L-1023.856348341861,121.32258811920491 L-1023.8768530929514,121.21123963962867 L-1023.9010187921411,121.10132420959529 L-1023.928812008007,120.99299388881754 L-1023.9601942907298,120.886398544129 L-1023.9951222252864,120.78168564215463 L-1024.0335474915125,120.67900004530173 L-1024.075416930948,120.57848381135385 L-1024.1206726203798,120.48027599694439 L-1024.169251951972,120.38451246518234 L-1024.2210877198816,120.29132569769591 L-1024.2761082132301,120.20084461135411 L-1024.3342373153125,120.11319437992006 L-1024.3953946088973,120.02849626088246 L-1024.4594954874785,119.94686742770502 L-1024.5264512723218,119.86842080772583 L-1024.5961693351458,119.79326492593083 L-1024.6685532262654,119.72150375481777 L-1024.743502808023,119.653236570558 L-1024.8209143933216,119.58855781565542 L-1024.9006808890674,119.52755696829242 L-1024.982691944326,119.47031841854344 L-1025.066834102984,119.41692135162786 L-1025.1529909607068,119.36743963836302 L-1025.2410433259754,119.32194173296963 L-1025.33086938498,119.28049057837049 L-1025.4223448701375,119.24314351911366 L-1025.5153432320096,119.20995222204067 " />
			<path d="M-1025.5153432320096,119.20995222204067 L-1025.636273969253,119.17363741558046 L-1025.759210671983,119.14427431634127 L-1025.8838752769523,119.12192933897838 L-1026.009985812674,119.10665302427277 L-1026.137257037195,119.09847992481602 L-1026.2654010832703,119.09742852685777 L-1026.3941281094706,119.10350120849279 L-1026.5231469557586,119.11668423428212 " />
			<path d="M-1026.5231469557586,119.11668423428213 L-1053.3198933623196,122.59005068422522 " />
			<path d="M151.50549698930936,510.01549984382547 L124.70875058274859,513.4888662937685 " />
			<path d="M-1053.3198933623194,122.5900506842252 L-1053.453043137075,122.61108015557966 L-1053.5858721423606,122.63960043665807 L-1053.7180603814681,122.67554281960527 L-1053.8492894013514,122.71882071607256 L-1053.9792430598068,122.76932986581663 L-1054.1076082870889,122.82694858787168 L-1054.2340758401215,122.89153807368947 L-1054.3583410474919,122.96294272154131 L-1054.4801045434317,123.04099051137621 L-1054.5990729890136,123.12549341923227 L-1054.714959778832,123.21624787020289 L-1054.8274857314595,123.31303522886654 L-1054.9363797620204,123.4156223259986 L-1055.041379535257,123.52376202029654 L-1055.1422320975184,123.63719379376487 L-1055.2386944861487,123.75564437932584 L-1055.3305343148047,123.8788284191438 L-1055.4175303332947,124.00644915207718 L-1055.4994729605903,124.1381991286021 L-1055.5761647897252,124.27376095148514 L-1055.6474210633653,124.41280804042121 L-1055.7130701189064,124.55500541879394 L-1055.7729538020233,124.70001052066382 L-1055.826927847678,124.8474740160395 L-1055.8748622276673,124.99704065244435 L-1055.9166414638712,125.14835011075077 L-1055.9521649064502,125.30103787322057 L-1055.9813469763196,125.45473610166007 L-1056.004117371317,125.6090745235746 L-1056.0204212355668,125.76368132418732 L-1056.0302192916313,125.91818404217359 L-1056.0334879351356,126.07221046695295 " />
			<path d="M124.70875058274873,513.4888662937685 L124.57560080799314,513.509895765123 L124.44277180270747,513.5384160462014 L124.3105835635999,513.5743584291487 L124.17935454371678,513.6176363256159 L124.04940088526132,513.66814547536 L123.9210356579793,513.7257641974151 L123.79456810494673,513.7903536832329 L123.67030289757612,513.8617583310846 L123.54853940163636,513.9398061209196 L123.4295709560544,514.0243090287756 L123.31368416623606,514.1150634797463 L123.20115821360847,514.2118508384099 L123.09226418304763,514.314437935542 L122.98726440981117,514.4225776298399 L122.8864118475497,514.5360094033082 L122.78994945891932,514.6544599888692 L122.6981096302634,514.7776440286872 L122.61111361177336,514.9052647616205 L122.52917098447769,515.0370147381454 L122.45247915534289,515.1725765610284 L122.38122288170274,515.3116236499645 L122.31557382616177,515.4538210283373 L122.25569014304493,515.5988261302072 L122.20171609739006,515.7462896255829 L122.1537817174007,515.8958562619877 L122.11200248119682,516.0471657202942 L122.07647903861785,516.199853482764 L122.04729696874844,516.3535517112034 L122.02452657375096,516.5078901331179 L122.00822270950141,516.6624969337307 L121.99842465343681,516.816999651717 L121.99515600993246,516.9710260764963 " />
			<path d="M-1056.0334879351358,126.07221046695295 L-1056.0334879351358,206.8763437584452 " />
			<path d="M121.99515600993232,516.9710260764963 L121.99515600993232,597.7751593679885 " />
			<path d="M-1056.0334879351356,206.8763437584452 L-1056.0324244951944,206.96383735774356 L-1056.029235008881,207.05098669674248 L-1056.0239219760729,207.1377234689316 L-1056.0164895610556,207.2239796911649 L-1056.006943589259,207.30968775694532 L-1055.9952915426902,207.39478048941348 L-1055.9815425540712,207.47919119400024 L-1055.9657073996789,207.56285371070098 L-1055.9477984909,207.64570246593098 L-1055.9278298645024,207.72767252392106 L-1055.9058171716342,207.80869963761347 L-1055.8817776655558,207.88872029901776 L-1055.855730188117,207.96767178898773 L-1055.8276951549892,208.04549222637962 L-1055.7976945396647,208.12212061655396 L-1055.7657518562323,208.19749689918223 L-1055.7318921409494,208.2715619953214 L-1055.696141932617,208.34425785371926 L-1055.65852925178,208.41552749631418 L-1055.6190835787652,208.48531506289382 L-1055.5778358305745,208.5535658548776 L-1055.5348183366525,208.62022637818876 L-1055.4900648135474,208.68524438518224 L-1055.4436103384846,208.7485689155958 L-1055.3954913218734,208.81015033649192 L-1055.345745478768,208.86994038115958 L-1055.2944117993093,208.92789218694486 L-1055.2415305181628,208.9839603319815 L-1055.1871430829835,209.0381008707918 L-1055.1312921219314,209.0902713687306 L-1055.0740214102577,209.14043093524498 L-1055.0153758359963,209.18854025592367 " />
			<path d="M121.99515600993246,597.7751593679885 L121.9986307331741,597.9330768430443 L122.0090460042214,598.0896891154362 L122.02637514983093,598.2445951051292 L122.05057379050277,598.397398101835 L122.08157995413542,598.547706780977 L122.11931423473473,598.6951362058617 L122.16367999577058,598.8393088134925 L122.21456361766064,598.979855381499 L122.27183478874719,599.1164159737054 L122.33534683902191,599.2486408619185 L122.40493711574412,599.3761914215723 L122.4804273999902,599.4987409989371 L122.5616243630678,599.6159757476713 L122.64832006162564,599.7275954325736 L122.74029247019111,599.8333141984782 L122.83730604977188,599.9328613023223 " />
			<path d="M-1379.2903604585033,167.97243001608828 L-1379.2903604556643,248.77656330721257 " />
			<path d="M-1380.3084731410518,251.35269382274709 L-1380.249827535936,251.28938134001208 L-1380.19255679376,251.22437502622716 L-1380.1367058026137,251.15772583252627 L-1380.0823183378038,251.08948599771205 L-1380.0294370275435,251.0197090073117 L-1379.978103319541,250.94844955165564 L-1379.9283574485132,250.87576348301212 L-1379.8802384046503,250.8017077718106 L-1379.8337839030557,250.72634046198934 L-1379.7890303541856,250.6497206255011 L-1379.7460128353105,250.5719083160133 L-1379.7047650630225,250.49296452183887 L-1379.6653193668087,250.41295111813415 L-1379.6277066637113,250.33193081840204 L-1379.5919564340954,250.24996712533797 L-1379.5580966985428,250.16712428105723 L-1379.5261539958904,250.08346721674278 L-1379.4961533624273,249.99906150175303 L-1379.4681183122748,249.91397329222946 L-1379.4420708189532,249.82826927924415 L-1379.4180312981616,249.74201663652826 L-1379.396018591775,249.65528296782207 L-1379.3760499530767,249.56813625388793 L-1379.3581410332354,249.48064479922795 L-1379.3423058690382,249.3928771785476 L-1379.3285568718882,249.3049021830079 L-1379.3169048180769,249.21678876630764 L-1379.307358840338,249.12860599063845 L-1379.2999264206896,249.04042297255452 L-1379.2946133845687,248.95230882880017 L-1379.2914238962667,248.86433262213683 L-1379.2903604556643,248.77656330721257 " />
			<path d="M-1379.290360458503,167.97243001608825 L-1379.2922374853727,167.85625905642274 L-1379.2978659692483,167.74073540725868 L-1379.3072381235454,167.62601888687985 L-1379.3203409825928,167.51226819696802 L-1379.3371564195706,167.3996407030511 L-1379.3576611715857,167.28829221679982 L-1379.381826871855,167.17837678047388 L-1379.4096200889492,167.07004645381625 L-1379.4410023730416,166.96345110368978 L-1379.4759303091016,166.85873819674768 L-1379.5143555769555,166.75605259542462 L-1379.5562250181338,166.65553635753028 L-1379.6014807094125,166.55732853972322 L-1379.650060042945,166.46156500513624 L-1379.7018958128751,166.36837823542012 L-1379.7569163083124,166.27789714746515 L-1379.8150454125375,166.19024691505433 L-1379.8762027083048,166.1055487956948 L-1379.9403035890937,166.02391996286727 L-1380.0072593761543,165.94547334392522 L-1380.0769774411885,165.8703174638685 L-1380.1493613344953,165.79855629520705 L-1380.2243109183994,165.7302891141229 L-1380.3017225057863,165.66561036312882 L-1380.3814890035446,165.60460952041444 L-1380.4635000607211,165.54737097605965 L-1380.5476422211839,165.49397391528754 L-1380.6337990805794,165.44449220891738 L-1380.72185144737,165.39899431116996 L-1380.8116775077256,165.3575431649664 L-1380.9031529940448,165.3201961148512 L-1380.9961513568692,165.28700482766058 " />
			<path d="M-1380.9961513568694,165.28700482766055 L-1381.1170820594918,165.2506900444659 L-1381.2400187260998,165.22132696560453 L-1381.3646832936497,165.19898200565638 L-1381.490793790863,165.1837057053407 L-1381.618064976001,165.17553261720133 L-1381.7462089820337,165.17448122745412 L-1381.8749359677504,165.18055391417425 L-1382.0039547733338,165.19373694191734 " />
			<path d="M-1382.0039547733336,165.19373694191734 L-1408.8006986312016,168.667104238832 " />
			<path d="M-203.97502399389177,556.0925153722808 L-230.77176785175962,559.5658826691954 " />
			<path d="M-1408.8006986312016,168.66710423883202 L-1408.933848393293,168.68813371439495 L-1409.0666773859446,168.71665399967168 L-1409.1988656124788,168.75259638679688 L-1409.3300946198794,168.79587428741183 L-1409.4600482659737,168.84638344126324 L-1409.588413481045,168.90400216737538 L-1409.7148810220474,168.96859165719025 L-1409.8391462175969,169.0399963089695 L-1409.9609097019534,169.11804410265273 L-1410.0798781362175,169.20254701426876 L-1410.195764915011,169.2933014689019 L-1410.3082908569331,169.3900888311218 L-1410.4171848771336,169.4926759316953 L-1410.5221846403801,169.60081562931157 L-1410.6230371930458,169.71424740596711 L-1410.7194995724976,169.8326979945765 L-1410.8113393924145,169.95588203729676 L-1410.8983354026261,170.08350277297933 L-1410.980278022124,170.21525275209368 L-1411.05696984396,170.35081457740017 L-1411.128226110818,170.48986166858785 L-1411.1938751601106,170.63205904903495 L-1411.253758837527,170.77706415279698 L-1411.3077328780432,170.92452764987797 L-1411.3556672534683,171.07409428779727 L-1411.3974464856933,171.22540374742354 L-1411.4329699248885,171.37809151101547 L-1411.462151991977,171.53178974037664 L-1411.4849223848034,171.6861281630102 L-1411.501226247497,171.84073496413754 L-1411.5110243026243,171.99523768243282 L-1411.5142929458123,172.14926410731476 " />
			<path d="M-230.77176785175965,559.5658826691955 L-230.90491761385096,559.5869121447583 L-231.0377466065026,559.6154324300351 L-231.1699348330368,559.6513748171603 L-231.30116384043754,559.6946527177753 L-231.43111748653166,559.7451618716267 L-231.55948270160317,559.8027805977388 L-231.68595024260546,559.8673700875537 L-231.810215438155,559.938774739333 L-231.9319789225114,560.0168225330162 L-232.05094735677562,560.1013254446322 L-232.16683413556908,560.1920798992653 L-232.2793600774912,560.2888672614853 L-232.3882540976918,560.3914543620588 L-232.49325386093818,560.499594059675 L-232.59410641360384,560.6130258363305 L-232.69056879305575,560.73147642494 L-232.78240861297272,560.8546604676602 L-232.8694046231843,560.9822812033427 L-232.95134724268198,561.1140311824571 L-233.02803906451805,561.2495930077636 L-233.0992953313763,561.3886400989513 L-233.16494438066857,561.5308374793984 L-233.2248280580849,561.6758425831604 L-233.27880209860126,561.8233060802414 L-233.32673647402646,561.9728727181607 L-233.36851570625151,562.124182177787 L-233.40403914544657,562.2768699413789 L-233.43322121253516,562.4305681707401 L-233.4559916053616,562.5849065933736 L-233.47229546805508,562.739513394501 L-233.48209352318236,562.8940161127963 L-233.48536216637044,563.0480425376783 " />
			<path d="M-1411.5142929458125,172.14926410731476 L-1411.5142929429735,252.95339739843905 " />
			<path d="M-233.48536216637027,563.0480425376782 L-233.48536216353145,643.8521758288025 " />
			<path d="M-1411.5142929429735,252.9533973984391 L-1411.5132295039746,253.0408909630342 L-1411.510040020493,253.12804026756314 L-1411.5047269924019,253.2147770055968 L-1411.49729458398,253.30103319406993 L-1411.4877486206467,253.38674122656556 L-1411.4760965843977,253.47183392630376 L-1411.4623476079387,253.556244598794 L-1411.4465124675287,253.63990708410935 L-1411.4286035745338,253.7227558087417 L-1411.4086349656986,253.80472583699748 L-1411.3866222921445,253.88575292189313 L-1411.362582807103,253.96577355551133 L-1411.3365353523932,254.04472501877737 L-1411.3085003436518,254.12254543061758 L-1411.2784997543347,254.1991737964609 L-1411.2465570984918,254.2745500560456 L-1411.212697412339,254.34861513049358 L-1411.176947234633,254.42131096861578 L-1411.1393345858728,254.49258059241166 L-1411.0998889463367,254.56236814172794 L-1411.0586412329758,254.63061891804105 L-1411.0156237751814,254.6972794273289 L-1410.9708702894472,254.76229742199897 L-1410.924415852941,254.8256219418391 L-1410.8762968760127,254.8872033539595 L-1410.8265510736564,254.94699339169432 L-1410.7752174359493,255.0049451924323 L-1410.7223361974925,255.06101333434717 L-1410.6679488058749,255.11515387199856 L-1410.612097889188,255.16732437077593 L-1410.5548272226135,255.21748394015816 L-1410.496181694115,255.26559326576296 " />
			<path d="M-233.48536216353168,643.8521758288026 L-233.4818874391749,644.0100933363575 L-233.4714721647998,644.1667056404045 L-233.4541430136694,644.3216116606617 L-233.4299443653162,644.474414686598 L-233.39893819188697,644.6247233933994 L-233.36120389943395,644.7721528441424 L-233.3168381245576,644.9163254756077 L-233.2659544869228,645.0568720652107 L-233.2086832982816,645.193432676571 L-233.14517122874807,645.3256575813017 L-233.07558093117964,645.4532081546539 L-233.00009062462715,645.5757577427277 L-232.9188936379202,645.6929924990236 L-232.8321979145568,645.8046121881969 L-232.74022548016504,645.9103309549523 L-232.64321187390107,646.0098780561125 " />
			<path d="M-231.89197016545472,561.3571726322141 L-201.6048528046365,557.3914378423713 " />
			<path d="M-61.41351393900936,539.0350633102312 L153.5982161075076,510.88185586194294 " />
			<path d="M282.23068312278406,494.03897697490413 L497.8245598403762,465.8095444016306 " />
			<path d="M625.874880184578,449.0428906395771 L841.7791685441948,420.7728133844976 " />
			<path d="M969.5187714772246,404.0468443410528 L1185.4231033097005,375.77676139372386 " />
			<path d="M10.069979860060423,-14.234400359619054 L8.364157709554078,-14.800434230963992 " />
			<path d="M-149.555122138687,91.8237221831154 L-336.26232173667444,29.86969112983386 " />
			<path d="M-494.18163288635475,136.49385272921882 L-680.8888324843422,74.53982167593726 " />
			<path d="M-838.8081436340224,181.16398327532218 L-1025.5153432320096,119.2099522220407 " />
			<path d="M-1194.2889047854353,227.2410304903246 L-1380.9961513568694,165.28700482766055 " />

       </g>

       <!-- solid lines -->
       <g  stroke="rgb(0,0,0)" fill="none">
			<path d="M10.069979860060423,-62.00618613107247 L10.069979860060423,68.68911904741864 " />
			<path d="M8.373983252050246,71.25677222054112 L8.425910508273835,71.27253533012568 L8.47778907469811,71.28534840247669 L8.529570307177945,71.29519942336563 L8.581205652833773,71.3020791559434 L8.632646695577389,71.30598114940128 L8.683845201509495,71.30690174501947 L8.7347531641464,71.30484007959785 L8.78532284943348,71.29979808626521 " />
			<path d="M8.785322849433495,71.29979808626521 L8.85312050960069,71.28824109295232 L8.920095803172094,71.27125718476458 L8.986133777191517,71.24887551201029 L9.051121087469939,71.22113448944374 L9.114946193123654,71.18808173033219 L9.177499548017321,71.14977396473485 L9.238673788783327,71.10627694213434 L9.298363919094763,71.05766531858764 L9.356467489875726,71.00402252859028 L9.412884775139656,70.94544064187363 L9.467518943153902,70.8820202053812 L9.520276222636738,70.81387007069493 L9.571066063701577,70.741107207208 L9.619801293272147,70.66385650136455 L9.666398264701881,70.58225054231096 L9.710777001340743,70.49642939432673 L9.752861333803029,70.4065403564252 L9.792579030700596,70.31273770953726 L9.829861922617113,70.21518245171131 L9.864646019110541,70.1140420217846 L9.896871618543056,70.00949001199974 L9.926483410549857,69.9017058700599 L9.953430570971054,69.79087459113397 L9.977666849083638,69.67718640034037 L9.999150646983853,69.56083642625444 L10.0178450909837,69.44202436599967 L10.033718094899042,69.32095414249795 L10.046742415120683,69.1978335544666 L10.056895697373909,69.07287391976344 L10.064160515086202,68.94628971269154 L10.068524399297331,68.81829819588663 L10.069979860060425,68.68911904741864 " />
			<path d="M-1413.2103735820795,255.52106072321772 L-1413.158446325856,255.53682383280227 L-1413.1065677594315,255.54963690515328 L-1413.0547865269518,255.5594879260422 L-1413.0031511812958,255.56636765861998 L-1412.9517101385522,255.57026965207785 L-1412.9005116326202,255.57119024769605 L-1412.8496036699833,255.56912858227443 L-1412.7990339846963,255.56408658894182 " />
			<path d="M-1412.7990339846963,255.56408658894182 L-1412.7488499936264,255.55606899534337 L-1412.6990987519937,255.5450833192078 L-1412.6498269092488,255.53113986129821 L-1412.6010806653314,255.5142516957537 L-1412.5529057273525,255.49443465783008 L-1412.505347266735,255.47170732905224 L-1412.4584498768595,255.4460910197908 L-1412.4122575312513,255.4176097492805 " />
			<path d="M10.069979860060425,-62.00618613107247 L10.067936957870197,-62.160466762758425 L10.061813172829828,-62.31573148905779 L10.05162325767386,-62.47160626364533 L10.037391760800435,-62.62771557053603 L10.019152967132054,-62.78368332873605 L9.996950815520194,-62.939133798254716 L9.970838792892764,-63.0936924852951 L9.940879805399417,-63.246987044442385 L9.907146026865124,-63.39864817567656 L9.869718724917103,-63.548310514048545 L9.828688065203993,-63.695613509876324 L9.7841528941789,-63.84020229734073 L9.736220500969647,-63.981728549388286 L9.685006358909858,-64.11985131688157 L9.63063384735358,-64.25423784997555 L9.573233954443626,-64.38456439974115 L9.51294496154965,-64.51051699810472 L9.449912110136227,-64.63179221422467 L9.384287251863435,-64.74809788548289 L9.316228482762916,-64.85915382133017 L9.245899762370675,-64.96469247828969 L9.173470518734206,-65.06445960449274 L9.09911524024548,-65.15821485219372 L9.023013055283132,-65.24573235678895 L8.945347300676497,-65.32680128094421 L8.866305080031143,-65.40122632252042 L8.786076812979886,-65.46882818507356 L8.704855776445214,-65.52944400979553 L8.622837639018265,-65.58292776785522 L8.54021998957604,-65.62915061219488 L8.457201861272496,-65.66800118793383 L8.373983252050255,-65.6993859006322 " />
			<path d="M8.373983252050246,-65.6993859006322 L-8.373983252050246,-71.25677222054111 " />
			<path d="M-8.373983252050246,-71.25677222054112 L-8.425910508273835,-71.27253533012568 L-8.477789074698112,-71.28534840247669 L-8.529570307177947,-71.29519942336563 L-8.581205652833773,-71.3020791559434 L-8.63264669557739,-71.30598114940128 L-8.683845201509495,-71.30690174501947 L-8.734753164146401,-71.30484007959785 L-8.785322849433488,-71.29979808626521 " />
			<path d="M-8.785322849433495,-71.29979808626521 L-8.85312050960069,-71.28824109295232 L-8.920095803172094,-71.27125718476458 L-8.986133777191517,-71.24887551201029 L-9.051121087469939,-71.22113448944374 L-9.114946193123654,-71.18808173033219 L-9.177499548017321,-71.14977396473485 L-9.238673788783327,-71.10627694213434 L-9.298363919094763,-71.05766531858764 L-9.356467489875726,-71.00402252859028 L-9.412884775139656,-70.94544064187363 L-9.467518943153902,-70.8820202053812 L-9.52027622263674,-70.81387007069493 L-9.571066063701577,-70.741107207208 L-9.619801293272147,-70.66385650136455 L-9.666398264701883,-70.58225054231096 L-9.710777001340743,-70.49642939432673 L-9.752861333803029,-70.4065403564252 L-9.792579030700596,-70.31273770953726 L-9.829861922617111,-70.21518245171131 L-9.864646019110541,-70.1140420217846 L-9.896871618543056,-70.00949001199974 L-9.926483410549857,-69.9017058700599 L-9.953430570971053,-69.79087459113397 L-9.977666849083638,-69.67718640034037 L-9.999150646983853,-69.56083642625444 L-10.0178450909837,-69.44202436599967 L-10.033718094899042,-69.32095414249795 L-10.046742415120683,-69.1978335544666 L-10.056895697373909,-69.07287391976344 L-10.064160515086202,-68.94628971269154 L-10.068524399297331,-68.81829819588663 L-10.069979860060425,-68.68911904741867 " />
			<path d="M-1429.9583400861798,113.00751628213546 L-1430.0102673424033,112.9917531725509 L-1430.0621459088277,112.97894010019989 L-1430.1139271413074,112.96908907931095 L-1430.1655624869634,112.96220934673318 L-1430.217003529707,112.9583073532753 L-1430.268202035639,112.9573867576571 L-1430.319109998276,112.95944842307873 L-1430.369679683563,112.96449041641137 " />
			<path d="M-1430.369679683563,112.96449041641137 L-1430.4374773437303,112.97604740972426 L-1430.5044526373017,112.993031317912 L-1430.570490611321,113.01541299066629 L-1430.6354779215994,113.04315401323284 L-1430.699303027253,113.07620677234439 L-1430.7618563821468,113.11451453794173 L-1430.823030622913,113.15801156054223 L-1430.8827207532242,113.20662318408894 L-1430.9408243240052,113.2602659740863 L-1430.9972416092692,113.31884786080295 L-1431.0518757772834,113.38226829729538 L-1431.1046330567663,113.45041843198165 L-1431.1554228978312,113.52318129546858 L-1431.2041581274016,113.60043200131203 L-1431.2507550988314,113.68203796036562 L-1431.2951338354703,113.76785910834985 L-1431.3372181679326,113.85774814625138 L-1431.37693586483,113.95155079313932 L-1431.4142187567465,114.04910605096526 L-1431.44900285324,114.15024648089198 L-1431.4812284526727,114.25479849067683 L-1431.5108402446795,114.36258263261668 L-1431.5377874051005,114.47341391154261 L-1431.562023683213,114.5871021023362 L-1431.5835074811134,114.70345207642214 L-1431.6022019251131,114.8222641366769 L-1431.6180749290286,114.94333436017862 L-1431.6310992492502,115.06645494820998 L-1431.6412525315034,115.19141458291314 L-1431.6485173492158,115.31799878998504 L-1431.6528812334268,115.44599030678995 L-1431.6543366941899,115.5751694552579 " />
			<path d="M-10.069979860060423,-68.68911904741864 L-10.069979860060423,62.00618613107247 " />
			<path d="M-1431.65433669419,115.57516945525795 L-1431.65433669419,246.27047463374907 " />
			<path d="M-10.069979860060425,62.00618613107247 L-10.067936957870197,62.160466762758425 L-10.061813172829828,62.31573148905779 L-10.05162325767386,62.47160626364533 L-10.037391760800435,62.62771557053603 L-10.019152967132054,62.78368332873605 L-9.996950815520194,62.939133798254716 L-9.970838792892764,63.0936924852951 L-9.940879805399417,63.24698704444238 L-9.907146026865124,63.398648175676556 L-9.869718724917105,63.548310514048545 L-9.828688065203993,63.695613509876324 L-9.7841528941789,63.84020229734073 L-9.736220500969647,63.981728549388286 L-9.685006358909858,64.11985131688157 L-9.63063384735358,64.25423784997555 L-9.573233954443626,64.38456439974115 L-9.51294496154965,64.51051699810472 L-9.449912110136227,64.63179221422467 L-9.384287251863437,64.74809788548289 L-9.316228482762916,64.85915382133017 L-9.245899762370673,64.96469247828969 L-9.173470518734204,65.06445960449274 L-9.099115240245478,65.15821485219372 L-9.023013055283132,65.24573235678895 L-8.945347300676497,65.32680128094421 L-8.866305080031145,65.40122632252042 L-8.786076812979886,65.46882818507356 L-8.704855776445214,65.52944400979553 L-8.622837639018265,65.58292776785522 L-8.540219989576041,65.62915061219488 L-8.457201861272498,65.66800118793383 L-8.373983252050262,65.6993859006322 " />
			<path d="M-1431.6543366941899,246.27047463374907 L-1431.6522937919997,246.424755265435 L-1431.6461700069594,246.5800199917344 L-1431.6359800918033,246.73589476632193 L-1431.6217485949298,246.89200407321263 L-1431.6035098012617,247.04797183141264 L-1431.5813076496497,247.20342230093132 L-1431.5551956270224,247.3579809879717 L-1431.5252366395289,247.51127554711897 L-1431.4915028609946,247.66293667835316 L-1431.4540755590467,247.81259901672513 L-1431.4130448993335,247.95990201255293 L-1431.3685097283085,248.10449080001735 L-1431.3205773350992,248.2460170520649 L-1431.2693631930395,248.38413981955816 L-1431.2149906814832,248.51852635265215 L-1431.157590788573,248.64885290241776 L-1431.0973017956792,248.77480550078133 L-1431.0342689442657,248.89608071690128 L-1430.968644085993,249.01238638815948 L-1430.9005853168924,249.12344232400676 L-1430.8302565965002,249.2289809809663 L-1430.7578273528636,249.32874810716933 L-1430.683472074375,249.42250335487032 L-1430.6073698894127,249.51002085946556 L-1430.529704134806,249.59108978362082 L-1430.4506619141607,249.66551482519702 L-1430.3704336471094,249.73311668775017 L-1430.2892126105746,249.79373251247213 L-1430.2071944731479,249.84721627053182 L-1430.1245768237056,249.89343911487148 L-1430.041558695402,249.93228969061042 L-1429.9583400861798,249.9636744033088 " />
			<path d="M8.373983252050246,71.25677222054111 L-8.373983252050246,65.6993859006322 " />
			<path d="M-1413.2103735820795,255.5210607232177 L-1429.95834008618,249.96367440330877 " />
			<path d="M1207.6809929924884,384.4813523438126 L1207.9280453137353,465.3378201885476 " />
			<path d="M1206.238899856949,467.92105199909986 L1206.2901545807433,467.9361984385849 L1206.3413539075343,467.9484782039071 L1206.3924512075826,467.95788011128155 L1206.4433999440691,467.9643955979298 L1206.4941537154793,467.96801872987834 L1206.5446662978625,467.9687462073631 L1206.5948916869306,467.96657736783465 L1206.6447841399574,467.96151418656154 " />
			<path d="M1206.6447841399574,467.96151418656154 L1206.7128329481511,467.94981960245497 L1206.7800474571757,467.9326702468459 L1206.8463116866158,467.9100957114014 L1206.9115112957893,467.88213494908024 L1206.9755337810445,467.8488362069179 L1207.0382686698879,467.81025694277565 L1207.099607711608,467.7664637261952 L1207.1594450640644,467.71753212353116 L1207.217677476321,467.6635465675594 L1207.2742044668087,467.6046002117861 L1207.328928496709,467.5407947697087 L1207.3817551382595,467.4722403393069 L1207.4325932376914,467.39905521306525 L1207.4813550725185,467.32136567385675 L1207.5279565029034,467.23930577703817 L1207.5723171168445,467.153017119134 L1207.6143603689277,467.062648593508 L1207.6540137124086,466.96835613344376 L1207.6912087243934,466.87030244307743 L1207.7258812239036,466.76865671664785 L1207.7579713826237,466.6635943465471 L1207.7874238281354,466.55529662067624 L1207.8141877394637,466.44395040962866 L1207.8382169347713,466.3297478442393 L1207.8594699510456,466.21288598405846 L1207.8779101156442,466.0935664773197 L1207.893505609575,465.9719952129911 L1207.9062295224,465.8483819655077 L1207.9160598986714,465.722940032801 L1207.922979775814,465.5958858682468 L1207.9269772133966,465.46743870717 L1207.9280453137355,465.33782018854765 " />
			<path d="M-214.44506614386788,653.942579311236 L-214.39381142007377,653.9577257507211 L-214.34261209328275,653.9700055160433 L-214.29151479323446,653.9794074234178 L-214.24056605674787,653.985922910066 L-214.18981228533772,653.9895460420146 L-214.1392997029546,653.9902735194994 L-214.0890743138863,653.9881046799709 L-214.03918186085969,653.9830414986977 " />
			<path d="M-214.03918186085966,653.9830414986977 L-213.98966778338027,653.9750885869678 L-213.94057717634854,653.9642531878877 L-213.89195474898963,653.9505451697876 L-213.84384478413443,653.9339770172321 L-213.79629109788905,653.9145638196509 L-213.74933699972945,653.8923232575959 L-213.70302525305726,653.8672755866382 L-213.65739803625306,653.8394436189215 " />
			<path d="M1207.6809929924887,384.4813523438126 L1207.6784771856892,384.3269885509212 L1207.6718750828718,384.1716735096632 L1207.6612025890806,384.0157813875769 L1207.6464854152878,383.85968774243895 L1207.627759016454,383.7037686175127 L1207.6050685061143,383.54839963562705 L1207.5784685476958,383.39395509426794 L1207.5480232228279,383.2408070638633 L1207.513805876965,383.08932449143265 L1207.4758989426905,382.93987231176123 L1207.434393741129,382.79281056824027 L1207.389390261947,382.6484935454911 L1207.3409969224672,382.5072689158621 L1207.2893303064834,382.3694769018559 L1207.2345148833988,382.23544945650343 L1207.176682708369,382.1055094636599 L1207.1159731041694,381.9799699601496 L1207.0525323255536,381.8591333816323 L1206.9865132069142,381.74329083400977 L1206.9180747940907,381.6327213921258 L1206.847381961214,381.52769142745063 L1206.7746050135106,381.4284539663687 L1206.6999192770218,381.33524808061594 L1206.6235046762285,381.248298311335 L1206.5455453005973,381.16781412813606 L1206.4662289610924,381.09398942446586 L1206.3857467377231,381.02700205050195 L1206.3042925192149,380.9670133846955 L1206.2220625359146,380.91416794499696 L1206.1392548870547,380.86859304069924 L1206.056069063514,380.8303984657386 L1205.972705467228,380.7996762341916 " />
			<path d="M1205.972705467228,380.7996762341917 L1189.1978801183714,375.3761075075396 " />
			<path d="M1189.1978801183711,375.37610750753953 L1189.1466253945769,375.3609610680545 L1189.0954260677859,375.3486813027323 L1189.0443287677376,375.33927939535783 L1188.993380031251,375.3327639087096 L1188.9426262598408,375.32914077676105 L1188.8921136774577,375.3284132992763 L1188.8418882883896,375.33058213880474 L1188.7919958353627,375.33564532007784 " />
			<path d="M1188.7919958353627,375.33564532007784 L1188.723947027169,375.3473399041844 L1188.6567325181445,375.3644892597935 L1188.5904682887044,375.38706379523796 L1188.5252686795309,375.41502455755915 L1188.4612461942756,375.4483232997215 L1188.3985113054323,375.48690256386374 L1188.337172263712,375.5306957804442 L1188.2773349112558,375.57962738310823 L1188.2191024989993,375.63361293907997 L1188.1625755085115,375.6925592948533 L1188.107851478611,375.75636473693066 L1188.0550248370607,375.8249191673325 L1188.0041867376287,375.89810429357414 L1187.9554249028017,375.97579383278264 L1187.9088234724168,376.0578537296012 L1187.8644628584757,376.1441423875054 L1187.8224196063925,376.2345109131314 L1187.7827662629115,376.3288033731956 L1187.7455712509268,376.42685706356195 L1187.7108987514166,376.52850278999153 L1187.6788085926964,376.6335651600923 L1187.6493561471848,376.74186288596314 L1187.6225922358565,376.85320909701073 L1187.598563040549,376.9674116624001 L1187.5773100242745,377.08427352258093 L1187.558869859676,377.2035930293197 L1187.5432743657452,377.3251642936483 L1187.5305504529201,377.4487775411317 L1187.5207200766488,377.5742194738384 L1187.5138001995062,377.7012736383926 L1187.5098027619235,377.8297207994694 L1187.5087346615846,377.9593393180917 " />
			<path d="M1187.7557869828318,458.81580716282673 L1187.7583027896312,458.9701709557181 L1187.7649048924486,459.1254859969761 L1187.7755773862398,459.2813781190624 L1187.7902945600326,459.4374717642004 L1187.8090209588663,459.5933908891266 L1187.831711469206,459.74875987101234 L1187.8583114276246,459.9032044123714 L1187.8887567524926,460.056352442776 L1187.9229740983553,460.2078350152067 L1187.96088103263,460.3572871948781 L1188.0023862341914,460.50434893839906 L1188.0473897133734,460.64866596114825 L1188.0957830528532,460.78989059077725 L1188.147449668837,460.9276826047834 L1188.2022650919216,461.0617100501359 L1188.2600972669513,461.1916500429794 L1188.320806871151,461.3171895464897 L1188.3842476497668,461.438026125007 L1188.4502667684062,461.55386867262956 L1188.5187051812297,461.66443811451353 L1188.5893980141063,461.7694680791887 L1188.6621749618098,461.86870554027064 L1188.7368606982986,461.9619114260234 L1188.8132752990919,462.0488611953043 L1188.8912346747231,462.1293453785033 L1188.970551014228,462.2031700821735 L1189.0510332375973,462.2701574561374 L1189.1324874561055,462.3301461219438 L1189.2147174394058,462.38299156164237 L1189.2975250882657,462.4285664659401 L1189.3807109118063,462.46676104090074 L1189.4640745080924,462.4974832724477 " />
			<path d="M-232.76549203299075,646.2104484204623 L-232.7387947459729,646.31887184124 L-232.71019829222135,646.4261221458393 L-232.6797386541613,646.5320643830489 L-232.64745415863064,646.6365652475768 L-232.61338542865406,646.7394932477849 L-232.57757533232765,646.8407188711437 L-232.54006892887878,646.9401147471947 L-232.50091341196895,647.0375558078192 L-232.46015805031058,647.1329194446089 L-232.4178541256733,647.2260856631423 L-232.3740548683568,647.3169372339713 L-232.32881539021216,647.4053598401293 L-232.28219261529546,647.4912422209738 L-232.2342452082414,647.5744763121845 L-232.1850335004463,647.654957381738 L-232.1346194141545,647.7325841616906 L-232.08306638454243,647.8072589756024 L-232.03043927989927,647.8788878614412 L-231.9768043200043,647.9473806898136 L-231.92222899280372,648.0126512773735 L-231.86678196949174,648.0746174952649 L-231.8105330181027,648.1332013724631 L-231.7535529157233,648.1883291938844 L-231.69591335943494,648.2399315931409 L-231.63768687609846,648.2879436398222 L-231.5789467310949,648.3323049211971 L-231.51976683613697,648.3729596182292 L-231.46022165626715,648.4098565758136 L-231.40038611615964,648.442949367144 L-231.3403355058439,648.4721963521313 L-231.28014538596858,648.4975607297978 L-231.21989149272477,648.519010584584 " />
			<path d="M1206.2388998569488,467.9210519990998 L1189.4640745080922,462.4974832724477 " />
			<path d="M-214.44506614386796,653.942579311236 L-231.21989149272463,648.519010584584 " />
			<path d="M10.069948503026128,-12.115009076055898 L10.069948479327811,68.68912421954987 " />
			<path d="M1188.098267467731,378.78384854496426 L1188.0982674440327,459.58798184057 " />
			<path d="M7.35635361317404,72.171283904245 L7.477241696360492,72.15250662906274 L7.597889743707174,72.12755085130276 L7.718058195988574,72.09646612325308 L7.837508446264984,72.05931416686893 L7.956003313661351,72.01616875121739 L8.073307514314529,71.96711554600125 L8.18918812855383,71.9122519514529 L8.303415063387206,71.8516869049361 L8.415761509374775,71.78554066463947 L8.526004390982525,71.71394457079143 L8.633924809521943,71.6370407848705 L8.739308477796092,71.55498200732895 L8.841946145589086,71.46793117439016 L8.941634015154127,71.37606113452186 L9.0381741458751,71.27955430522755 L9.131374847298177,71.1786023108376 " />
			<path d="M1185.384672577879,463.0701415252652 L1185.4940401033875,463.05342189637275 L1185.603229902633,463.03164237897005 L1185.712064538163,463.0048383655764 L1185.8203671496788,462.97305341370264 L1185.9279617414402,462.93633917506844 L1186.034673468266,462.8947553116662 L1186.1403289196621,462.84836939880836 L1186.244756401622,462.7972568153149 L1186.3477862156337,462.74150062101995 L1186.4492509344484,462.68119142179654 L1186.5489856741538,462.6164272223188 L1186.6468283621177,462.54731326680053 L1186.7426200003622,462.47396186796965 L1186.8362049239404,462.3964922245558 L1186.9274310538985,462.31503022758807 L1187.016150144409,462.22970825581734 L1187.1022180236764,462.14066496059604 L1187.185494828221,462.0480450405644 L1187.2658452301625,461.95199900651 L1187.3431386571333,461.8526829367822 L1187.4172495044625,461.7502582236588 L1187.4880573392884,461.64489131107814 L1187.5554470962666,461.53675342416085 L1187.6193092645558,461.4260202909634 L1187.6795400657759,461.3128718569131 L1187.7360416226525,461.1974919923902 L1187.7887221180708,461.08006819393205 L1187.8374959442822,460.9607912795438 L1187.882283842019,460.8398550786125 L1187.9230130292951,460.71745611692705 L1187.9596173196783,460.59379329731644 L1187.992037229846,460.46906757642563 " />
			<path d="M1186.392476674259,376.0984233900562 L1186.271545897913,376.0621085572804 L1186.1486091543836,376.032745434983 L1186.0239445071484,376.0104004379045 L1185.897833927931,375.9951241068956 L1185.7705626589238,375.986950994602 L1185.6424185676165,375.9858995873115 L1185.5136914956845,375.99197226314124 L1185.3846726034135,376.0051552866585 " />
			<path d="M-21.13587783844627,75.17815305647348 L-21.05678381262985,75.2382037227889 L-20.97550132191917,75.29456632912982 L-20.892140416539092,75.34716456487332 L-20.806813960727663,75.39592721606398 L-20.719637479926668,75.44078826183207 L-20.630729004369062,75.48168696378079 L-20.540208909275165,75.51856794822136 L-20.448199751873872,75.55138128114466 " />
			<path d="M-20.44819975187386,75.55138128114466 L-20.327268975527964,75.58769611392049 L-20.204332231998414,75.61705923621788 L-20.07966758476335,75.6394042332964 L-19.9535570055459,75.65468056430528 L-19.826285736538757,75.66285367659889 L-19.698141645231416,75.66390508388936 L-19.569414573299422,75.65783240805963 L-19.44039568102834,75.64464938454236 " />
			<path d="M1156.7164781771685,465.922515351578 L1156.8120220904857,466.01021385384524 L1156.9115828115423,466.092038051138 L1157.0149351497273,466.167802870058 L1157.1218453383913,466.2373369425628 L1157.2320715635892,466.30048299357355 L1157.3453645110262,466.357098196706 L1157.4614679299661,466.4070544973211 L1157.580119212831,466.4502389021648 " />
			<path d="M1157.580119212831,466.4502389021648 L1157.701049989177,466.4865537349406 L1157.8239867327063,466.51591685723804 L1157.9486513799416,466.53826185431654 L1158.0747619591589,466.5535381853254 L1158.202033228166,466.561711297619 L1158.3301773194735,466.5627627049095 L1158.4589043914054,466.5566900290798 L1158.5879232836764,466.5435070055625 " />
			<path d="M7.356353613174038,72.171283904245 L-19.44039568102832,75.64464938454236 " />
			<path d="M1185.3846725778787,463.0701415252651 L1158.5879232836762,466.5435070055625 " />
			<path d="M-337.2701254604235,116.8414093762498 L-337.155698479574,116.8237930567734 L-337.0414750569153,116.80063924956471 L-336.92765838852125,116.77198914374777 L-336.8144509468763,116.73789370600598 L-336.7020541206899,116.69841358991566 L-336.59066785663913,116.65361902804736 L-336.48049030367645,116.60358970702657 L-336.3717174605354,116.54841462577643 L-336.264542827062,116.48819193719436 L-336.1591570599904,116.42302877354442 L-336.0557476337774,116.353041055876 L-335.95449850709747,116.27835328780775 L-335.85558979559187,116.19909833404363 L-335.7591974514549,116.11541718401531 L-335.66549295042614,116.02745870107108 L-335.5746429867465,115.93537935765752 " />
			<path d="M840.7585184846447,507.74022498579313 L840.8916682594003,507.7191955144387 L841.0244972646859,507.6906752333603 L841.1566855037935,507.6547328504131 L841.2879145236766,507.61145495394584 L841.4178681821321,507.56094580420176 L841.5462334094142,507.5033270821467 L841.6727009624467,507.4387375963289 L841.7969661698173,507.36733294847704 L841.918729665757,507.28928515864214 L842.0376981113391,507.2047822507861 L842.1535849011574,507.11402779981546 L842.266110853785,507.01724044115184 L842.3750048843458,506.91465334401977 L842.4800046575823,506.8065136497218 L842.5808572198438,506.69308187625353 L842.6773196084741,506.57463129069254 L842.76915943713,506.45144725087454 L842.8561554556201,506.3238265179412 L842.9380980829158,506.19207654141627 L843.0147899120506,506.0565147185332 L843.0860461856906,505.9174676295972 L843.1516952412317,505.7752702512244 L843.2115789243485,505.63026514935456 L843.2655529700033,505.48280165397887 L843.3134873499927,505.333235017574 L843.3552665861966,505.1819255592676 L843.3907900287755,505.0292377967978 L843.419972098645,504.8755395683583 L843.4427424936425,504.7212011464438 L843.459046357892,504.56659434583105 L843.4688444139566,504.41209162784475 L843.472113057461,504.2580652030654 " />
			<path d="M841.7663222083937,420.76850673937724 L841.6453914711504,420.73219193291703 L841.5224547684204,420.70282883367787 L841.397790163451,420.68048385631494 L841.2716796277296,420.66520754160933 L841.1444084032083,420.6570344421526 L841.0162643571331,420.6559830441944 L840.8875373309328,420.66205572582936 L840.7585184846447,420.67523875161874 " />
			<path d="M-365.7623543406613,119.84827916371687 L-365.68326024775735,119.90832991578844 L-365.60197768471556,119.96469259995239 L-365.51861670210565,120.01729090530928 L-365.43329016452327,120.06605361764974 L-365.34611359777995,120.11091471587325 L-365.2572050324897,120.15181346137578 L-365.16668484426424,120.18869448028538 L-365.07467559073336,120.22150783843432 " />
			<path d="M-365.07467559073336,120.22150783843432 L-364.95374485349004,120.25782264489453 L-364.83080815076,120.28718574413372 L-364.70614354579055,120.30953072149661 L-364.5800330100691,120.32480703620222 L-364.4527617855479,120.33298013565897 L-364.32461773947267,120.33403153361722 L-364.1958907132724,120.3279588519822 L-364.0668718669843,120.31477582619287 " />
			<path d="M812.0903275451072,510.59260021011573 L812.185871440303,510.6802986648187 L812.285432139981,510.7621228166091 L812.3887844536908,510.83788759228383 L812.4956946149546,510.9074216239835 L812.6059208100097,510.9705676367998 L812.7192137247534,511.02718280450586 L812.8353171086512,511.0771390726066 L812.9539683543348,511.1203234479777 " />
			<path d="M812.9539683543348,511.1203234479777 L813.0748990915781,511.1566382544379 L813.1978357943082,511.18600135367706 L813.3225003992776,511.20834633104 L813.448610934999,511.2236226457456 L813.5758821595202,511.2317957452023 L813.7040262055955,511.23284714316054 L813.8327532317958,511.22677446152557 L813.9617720780839,511.2135914357362 " />
			<path d="M-337.2701254604235,116.84140937624979 L-364.06687186698434,120.31477582619287 " />
			<path d="M840.7585184846447,507.74022498579313 L813.961772078084,511.21359143573625 " />
			<path d="M-681.8966362080913,161.5115399223532 L-681.7822092272419,161.49392360287678 L-681.667985804583,161.4707697956681 L-681.5541691361891,161.44211968985115 L-681.4409616945441,161.40802425210936 L-681.3285648683577,161.36854413601907 L-681.2171786043069,161.32374957415075 L-681.1070010513442,161.27372025312997 L-680.9982282082032,161.21854517187984 L-680.8910535747298,161.15832248329775 L-680.7856678076581,161.0931593196478 L-680.6822583814452,161.0231716019794 L-680.5810092547653,160.94848383391113 L-680.4821005432597,160.86922888014703 L-680.3857081991226,160.7855477301187 L-680.2920036980939,160.69758924717448 L-680.2011537344143,160.60550990376092 " />
			<path d="M496.1320077369769,552.4103555318966 L496.2651575117325,552.3893260605421 L496.3979865170182,552.3608057794637 L496.53017475612575,552.3248633965164 L496.66140377600885,552.2815855000492 L496.7913574344643,552.2310763503051 L496.91972266174633,552.17345762825 L497.0461902147789,552.1088681424322 L497.17045542214953,552.0374634945805 L497.29221891808925,551.9594157047455 L497.4111873636712,551.8749127968895 L497.5270741534896,551.7841583459189 L497.63960010611714,551.6873709872552 L497.748494136678,551.5847838901232 L497.85349390991445,551.4766441958252 L497.9543464721759,551.3632124223569 L498.0508088608063,551.2447618367959 L498.14264868946225,551.1215777969779 L498.2296447079523,550.9939570640446 L498.31158733524796,550.8622070875197 L498.38827916438277,550.7266452646367 L498.4595354380229,550.5875981757006 L498.52518449356387,550.4454007973278 L498.5850681766807,550.300395695458 L498.63904222233555,550.1529322000822 L498.68697660232493,550.0033655636774 L498.7287558385288,549.852056105371 L498.7642792811078,549.6993683429012 L498.7934613509772,549.5456701144617 L498.8162317459747,549.3913316925472 L498.8325356102242,549.2367248919344 L498.8423336662888,549.0822221739481 L498.8456023097932,548.9281957491688 " />
			<path d="M498.8456023097932,468.1240624576766 L498.8437252830136,468.0078915061208 L498.83809679940003,467.89236786484537 L498.82872464553526,467.7776513521005 L498.8156217870877,467.66390066953517 L498.79880635087454,467.5512731826449 L498.77830159978424,467.43992470306864 L498.75413590059446,467.3300092730353 L498.72634268472854,467.2216789522575 L498.69496040200585,467.115083607569 L498.66003246744907,467.0103707055946 L498.62160720122307,466.9076851087417 L498.5797377617875,466.80716887479383 L498.53448207235584,466.70896106038435 L498.48590274076344,466.6131975286223 L498.434066972854,466.5200107611359 L498.37904647950535,466.4295296747941 L498.3209173774229,466.34187944336 L498.25976008383816,466.25718132432246 L498.19565920525713,466.175552491145 L498.12870342041373,466.0971058711658 L498.05898535758973,466.0219499893708 L497.9866014664701,465.95018881825774 L497.91165188471246,465.881921633998 L497.834240299414,465.81724287909543 L497.7544738036681,465.75624203173237 L497.67246274840943,465.6990034819834 L497.58832058975156,465.64560641506785 L497.5021637320288,465.59612470180303 L497.41411136676004,465.55062679640963 L497.32428530775576,465.5091756418105 L497.2328098225981,465.47182858255366 L497.139811460726,465.43863728548064 " />
			<path d="M497.139811460726,465.43863728548064 L497.01888072348265,465.4023224790204 L496.8959440207526,465.37295937978126 L496.77127941578317,465.35061440241833 L496.6451688800617,465.3353380877127 L496.51789765554054,465.327164988256 L496.3897536094653,465.3261135902978 L496.261026583265,465.33218627193276 L496.1320077369769,465.34536929772213 " />
			<path d="M-710.388865088329,164.51840970982022 L-710.309770995425,164.5784604618918 L-710.2284884323833,164.63482314605577 L-710.1451274497733,164.68742145141266 L-710.0598009121909,164.73618416375314 L-709.9726243454476,164.78104526197666 L-709.8837157801573,164.82194400747917 L-709.7931955919319,164.85882502638879 L-709.7011863384009,164.8916383845377 " />
			<path d="M-709.7011863384009,164.89163838453774 L-709.5802556011577,164.92795319099795 L-709.4573188984276,164.95731629023712 L-709.3326542934582,164.97966126760002 L-709.2065437577368,164.99493758230562 L-709.0792725332155,165.00311068176237 L-708.9511284871403,165.00416207972063 L-708.82240146094,164.9980893980856 L-708.6933826146519,164.98490637229628 " />
			<path d="M467.46381679743956,555.2627307562191 L467.5593606926354,555.350429210922 L467.6589213923134,555.4322533627125 L467.7622737060232,555.5080181383872 L467.8691838672869,555.577552170087 L467.9794100623421,555.6406981829032 L468.0927029770859,555.6973133506093 L468.2088063609837,555.74726961871 L468.3274576066672,555.7904539940811 " />
			<path d="M468.3274576066672,555.7904539940811 L468.44838834391055,555.8267688005413 L468.5713250466406,555.8561318997805 L468.69598965161003,555.8784768771434 L468.8221001873315,555.893753191849 L468.94937141185267,555.9019262913058 L469.0775154579279,555.902977689264 L469.2062424841282,555.896905007629 L469.3352613304163,555.8837219818397 " />
			<path d="M-681.8966362080913,161.5115399223532 L-708.693382614652,164.98490637229625 " />
			<path d="M496.13200773697696,552.4103555318966 L469.33526133041613,555.8837219818397 " />
			<path d="M154.21909156212564,512.7941930037799 L154.21909156212564,593.5983262952722 " />
			<path d="M-1026.5231469557586,206.1816704684566 L-1026.4087199749092,206.16405414898017 L-1026.2944965522504,206.1409003417715 L-1026.1806798838563,206.11225023595458 L-1026.0674724422115,206.07815479821278 L-1025.9550756160252,206.03867468212246 L-1025.8436893519743,205.99388012025418 L-1025.7335117990117,205.9438507992334 L-1025.6247389558705,205.88867571798323 L-1025.5175643223972,205.82845302940117 L-1025.4121785553255,205.76328986575123 L-1025.3087691291125,205.69330214808284 L-1025.2075200024326,205.61861438001458 L-1025.108611290927,205.53935942625046 L-1025.01221894679,205.45567827622216 L-1024.9185144457613,205.36771979327793 L-1024.8276644820817,205.2756404498644 " />
			<path d="M151.50549698930945,597.080486078 L151.63864676406504,597.0594566066455 L151.77147576935073,597.0309363255672 L151.90366400845826,596.9949939426199 L152.0348930283414,596.9517160461527 L152.16484668679686,596.9012068964086 L152.29321191407888,596.8435881743535 L152.41967946711145,596.7789986885357 L152.54394467448208,596.707594040684 L152.66570817042182,596.629546250849 L152.7846766160038,596.5450433429929 L152.90056340582214,596.4542888920223 L153.01308935844972,596.3575015333587 L153.12198338901055,596.2549144362266 L153.22698316224702,596.1467747419287 L153.3278357245085,596.0333429684604 L153.42429811313886,595.9148923828993 L153.5161379417948,595.7917083430814 L153.60313396028482,595.664087610148 L153.68507658758048,595.5323376336231 L153.76176841671528,595.3967758107401 L153.83302469035544,595.257728721804 L153.89867374589642,595.1155313434313 L153.95855742901324,594.9705262415614 L154.01253147466812,594.8230627461857 L154.06046585465748,594.6734961097809 L154.10224509086137,594.5221866514745 L154.13776853344035,594.3694988890046 L154.16695060330974,594.2158006605652 L154.18972099830722,594.0614622386506 L154.20602486255677,593.9068554380378 L154.21582291862137,593.7523527200516 L154.21909156212573,593.5983262952723 " />
			<path d="M154.21909156212573,512.7941930037799 L154.2172145353462,512.6780220522242 L154.21158605173258,512.5624984109487 L154.2022138978678,512.4477818982039 L154.18911103942028,512.3340312156386 L154.1722956032071,512.2214037287482 L154.15179085211676,512.110055249172 L154.12762515292698,512.0001398191386 L154.09983193706108,511.89180949836083 L154.0684496543384,511.7852141536723 L154.03352171978162,511.68050125169793 L153.99509645355565,511.57781565484504 L153.95322701412002,511.47729942089717 L153.9079713246884,511.3790916064877 L153.859391993096,511.28332807472566 L153.80755622518654,511.19014130723923 L153.75253573183787,511.0996602208974 L153.6944066297555,511.01200998946337 L153.63324933617073,510.9273118704258 L153.56914845758965,510.84568303724836 L153.50219267274628,510.76723641726915 L153.43247460992225,510.69208053547413 L153.36009071880267,510.6203193643611 L153.28514113704503,510.5520521801013 L153.2077295517465,510.48737342519877 L153.12796305600062,510.4263725778357 L153.04595200074198,510.36913402808676 L152.96180984208408,510.3157369611712 L152.87565298436138,510.2662552479064 L152.7876006190926,510.22075734251297 L152.69777456008828,510.1793061879138 L152.60629907493063,510.141959128657 L152.51330071305853,510.108767831584 " />
			<path d="M152.51330071305853,510.108767831584 L152.39236997581523,510.07245302512376 L152.26943327308513,510.0430899258846 L152.14476866811574,510.02074494852167 L152.01865813239428,510.00546863381606 L151.89138690787308,509.99729553435935 L151.76324286179783,509.9962441364011 L151.63451583559757,510.0023168180361 L151.50549698930945,510.01549984382547 " />
			<path d="M-1055.0153758359963,209.1885402559237 L-1054.9362817430924,209.24859100799526 L-1054.8549991800505,209.3049536921592 L-1054.7716381974408,209.35755199751608 L-1054.6863116598583,209.40631470985653 L-1054.599135093115,209.45117580808005 L-1054.5102265278247,209.49207455358257 L-1054.4197063395993,209.52895557249215 L-1054.3276970860684,209.56176893064108 " />
			<path d="M-1054.3276970860684,209.5617689306411 L-1054.206766348825,209.59808373710132 L-1054.083829646095,209.62744683634048 L-1053.9591650411257,209.6497918137034 L-1053.833054505404,209.665068128409 L-1053.705783280883,209.67324122786573 L-1053.5776392348077,209.674292625824 L-1053.4489122086075,209.66821994418896 L-1053.3198933623194,209.65503691839965 " />
			<path d="M122.83730604977188,599.9328613023224 L122.93284994496771,600.0205597570254 L123.0324106446458,600.1023839088158 L123.13576295835557,600.1781486844905 L123.24267311961928,600.2476827161902 L123.3528993146745,600.3108287290065 L123.4661922294183,600.3674438967126 L123.58229561331612,600.4174001648133 L123.70094685899966,600.4605845401844 " />
			<path d="M123.70094685899967,600.4605845401844 L123.82187759624296,600.4968993466447 L123.94481429897304,600.5262624458838 L124.06947890394244,600.5486074232467 L124.19558943966392,600.5638837379523 L124.3228606641851,600.5720568374091 L124.45100471026034,600.5731082353674 L124.57973173646063,600.5670355537324 L124.70875058274872,600.553852527943 " />
			<path d="M-1026.5231469557586,206.1816704684566 L-1053.3198933623196,209.65503691839965 " />
			<path d="M151.50549698930936,597.0804860779999 L124.70875058274859,600.553852527943 " />
			<path d="M-201.2614296790613,558.8712084464516 L-201.2614296762225,639.675341737576 " />
			<path d="M-1382.003954770275,252.2587231756953 L-1381.8895278549471,252.2411068623446 L-1381.775304497499,252.21795306654127 L-1381.6614878936946,252.18930297734977 L-1381.54828051571,252.15520756137516 L-1381.435883751949,252.11572747209718 L-1381.3244975487864,252.07093294197153 L-1381.2143200548774,252.02090365749112 L-1381.1055472686628,251.96572861742902 L-1380.9983726897028,251.90550597451562 L-1380.8929869744525,251.84034286083138 L-1380.789577597097,251.7703551972261 L-1380.6883285160484,251.69566748710324 L-1380.5894198466947,251.61641259493678 L-1380.4930275409868,251.53273150991407 L-1380.3993230744325,251.44477309512556 L-1380.3084731410518,251.3526938227471 " />
			<path d="M-203.9750239908331,643.1575016060586 L-203.8418742287418,643.1364721304958 L-203.70904523609016,643.1079518452191 L-203.57685700955597,643.0720094580938 L-203.44562800215522,643.0287315574789 L-203.3156743560611,642.9782224036275 L-203.18730914098958,642.9206036775154 L-203.0608415999873,642.8560141877005 L-202.93657640443774,642.7846095359212 L-202.81481292008135,642.7065617422379 L-202.69584448581713,642.622058830622 L-202.57995770702368,642.5313043759888 L-202.46743176510157,642.4345170137689 L-202.35853774490096,642.3319299131954 L-202.25353798165457,642.2237902155791 L-202.15268542898892,642.1103584389236 L-202.056223049537,641.9919078503142 L-201.96438322962004,641.8687238075939 L-201.87738721940846,641.7411030719114 L-201.79544459991078,641.609353092797 L-201.7187527780747,641.4737912674906 L-201.64749651121645,641.3347441763028 L-201.58184746192418,641.1925467958557 L-201.52196378450785,641.0475416920938 L-201.4679897439915,640.9000781950127 L-201.4200553685663,640.7505115570934 L-201.37827613634124,640.5992020974671 L-201.34275269714618,640.4465143338753 L-201.3135706300576,640.292816104514 L-201.29080023723117,640.1384776818805 L-201.27449637453768,639.9838708807531 L-201.2646983194104,639.8293681624579 L-201.26142967622232,639.675341737576 " />
			<path d="M-201.26142967906108,558.8712084464516 L-201.26330670593083,558.7550374867861 L-201.26893518980637,558.6395138376221 L-201.2783073441034,558.5247973172433 L-201.29141020315103,558.4110466273314 L-201.3082256401288,558.2984191334145 L-201.3287303921438,558.1870706471632 L-201.35289609241315,558.0771552108373 L-201.38068930950726,557.9688248841796 L-201.4120715935997,557.8622295340532 L-201.4469995296597,557.757516627111 L-201.4854247975136,557.654831025788 L-201.52729423869195,557.5543147878938 L-201.57254992997062,557.4561069700867 L-201.62112926350298,557.3603434354997 L-201.67296503343314,557.2671566657835 L-201.72798552887036,557.1766755778286 L-201.78611463309554,557.0890253454178 L-201.84727192886302,557.0043272260582 L-201.9113728096518,556.9226983932307 L-201.97832859671226,556.8442517742886 L-202.04804666174667,556.7690958942319 L-202.12043055505333,556.6973347255705 L-202.1953801389575,556.6290675444864 L-202.27279172634442,556.5643887934923 L-202.35255822410267,556.5033879507779 L-202.4345692812792,556.446149406423 L-202.51871144174194,556.3927523456509 L-202.60486830113751,556.3432706392808 L-202.69292066792804,556.2977727415333 L-202.78274672828368,556.2563215953298 L-202.87422221460292,556.2189745452147 L-202.96722057742738,556.185783258024 " />
			<path d="M-202.96722057742738,556.185783258024 L-203.08815128005006,556.1494684748293 L-203.21108794665787,556.1201053959679 L-203.3357525142077,556.0977604360198 L-203.46186301142131,556.0824841357041 L-203.5891341965592,556.0743110475647 L-203.71727820259176,556.0732596578175 L-203.8460051883084,556.0793323445376 L-203.97502399389182,556.0925153722808 " />
			<path d="M-1410.496181694115,255.26559326576296 L-1410.4170875106402,255.32564413752976 L-1410.3358048498135,255.38200693095106 L-1410.2524437626655,255.43460533475158 L-1410.1671171142705,255.483368134376 L-1410.079940430935,255.5282293084085 L-1409.9910317437834,255.56912811796101 L-1409.9005114289516,255.60600918890955 L-1409.8085020446074,255.63882258686678 " />
			<path d="M-1409.8085020446072,255.6388225868668 L-1409.6875713419847,255.67513737006146 L-1409.5646346753767,255.70450044892283 L-1409.4399701078269,255.726845408871 L-1409.3138596106135,255.74212170918665 L-1409.1865884254755,255.75029479732603 L-1409.0584444194428,255.75134618707324 L-1408.9297174337262,255.7452735003531 L-1408.8006986281428,255.73209047261003 " />
			<path d="M-232.64321187390107,646.0098780561125 L-232.54766799475107,646.0975764687072 L-232.44810731400278,646.1794005802185 L-232.3447550219646,646.2551653176162 L-232.23784488496216,646.3246993132028 L-232.12761871659643,646.3878452922213 L-232.01432583079995,646.4444604285841 L-231.89822247792884,646.4944166679236 L-231.77957126516537,646.5376010172303 " />
			<path d="M-231.77957126516537,646.5376010172303 L-231.6586405625427,646.573915800425 L-231.5357038959349,646.6032788792863 L-231.41103932838504,646.6256238392344 L-231.28492883117144,646.6409001395501 L-231.15765764603356,646.6490732276895 L-231.029513640001,646.6501246174367 L-230.90078665428436,646.6440519307166 L-230.77176784870093,646.6308689029735 " />
			<path d="M-1382.003954770275,252.2587231756953 L-1408.800698628143,255.73209047260997 " />
			<path d="M-203.97502399083314,643.1575016060588 L-230.771767848701,646.6308689029734 " />
			<path d="M8.373983252050246,71.25677222054111 L-1413.2103735820792,255.52106072321772 " />
			<path d="M-9.172099302878562,-71.15332124660387 L-1429.9583400861798,113.0075162821355 " />
			<path d="M-10.069979860060423,-68.68911904741864 L-1431.6543366941899,115.57516945525796 " />
			<path d="M-10.069979860060423,62.00618613107247 L-1431.6543366941899,246.27047463374907 " />
			<path d="M-8.373983252050246,65.6993859006322 L-1429.9583400861798,249.9636744033088 " />
			<path d="M1206.2388998569493,467.92105199909986 L-214.44506614386796,653.942579311236 " />
			<path d="M1188.4102120107564,375.479243199854 L1185.625383811855,375.84388305450074 " />
			<path d="M969.7210519793791,404.1139660018298 L841.9594276394737,420.8428184844057 " />
			<path d="M626.0771607423346,449.11001229307357 L497.92139754099776,465.8904725327096 " />
			<path d="M282.43296368054064,494.1060986284007 L153.66257632626343,510.967036529775 " />
			<path d="M-61.21123338125244,539.1021849637276 L-201.5614298107223,557.4793599886996 " />
			<path d="M974.8253064702651,405.80768356139384 L842.5059091778912,423.1333217514532 " />
			<path d="M631.1814166362575,450.8037296689268 L324.2491956464605,490.9928230184855 " />
			<path d="M287.53721957446373,495.79981600425384 L154.21909156212564,513.2562260044747 " />
			<path d="M-56.10697748732969,540.7959023395808 L-201.26142967902865,559.8021370399454 " />
			<path d="M1149.620769588369,463.8091303434649 L842.6889038734372,503.99817717404085 " />
			<path d="M805.9769278014405,508.8051701598091 L498.84442661327444,549.0204877994158 " />
			<path d="M462.3327307396464,553.8012564951362 L154.17737870712176,594.150504185925 " />
			<path d="M118.68853367785277,598.7973428304632 L-201.40826858375954,640.7101802168477 " />
			<path d="M1189.4640745080924,462.49748327244777 L1185.8120767457035,462.9756685816073 " />
			<path d="M1158.4690479420449,466.55591028287347 L-231.21989149272486,648.519010584584 " />
			<path d="M10.069948503026128,-12.115009076055898 L1188.0982674677314,378.7838485449643 " />
			<path d="M10.069948479327813,68.68912421954987 L1187.79588042523,459.48764236798985 " />
			<path d="M7.35635361317404,72.171283904245 L1185.3846725778792,463.0701415252652 " />
			<path d="M-19.440395681028328,75.64464938454236 L1158.587923283677,466.54350700556256 " />
			<path d="M-154.1481045630515,92.41905979671685 L843.4721130574609,423.45393191157314 " />
			<path d="M-329.2597543401022,115.11685004713603 L843.4721130574609,504.25806520306537 " />
			<path d="M-337.2701254604235,116.8414093762498 L840.7585184846446,507.74022498579313 " />
			<path d="M-364.0668718669843,120.31477582619287 L813.9617720780839,511.21359143573625 " />
			<path d="M-498.7746153107192,137.08919034282025 L498.8456023097932,468.12406245767653 " />
			<path d="M-673.8862650877699,159.78698059323943 L498.8456023097932,548.9281957491688 " />
			<path d="M-681.8966362080913,161.5115399223532 L496.1320077369768,552.4103555318966 " />
			<path d="M-708.6933826146519,164.98490637229628 L469.3352613304162,555.8837219818397 " />
			<path d="M-843.4011260583868,181.75932088892367 L154.21909156212553,512.7941930037799 " />
			<path d="M-1018.5127758354375,204.45711113934286 L154.21909156212553,593.5983262952723 " />
			<path d="M-1026.5231469557586,206.18167046845656 L151.50549698930945,597.0804860779999 " />
			<path d="M-1053.3198933623194,209.65503691839965 L124.70875058274873,600.553852527943 " />
			<path d="M-1198.881888743193,227.83636830268293 L-201.2614296790614,558.8712084464518 " />
			<path d="M-1373.9935811547743,250.5341640793457 L-201.2614296762224,639.675341737576 " />
			<path d="M-1382.0039547702752,252.25872317569534 L-203.97502399083328,643.1575016060588 " />
			<path d="M-1408.8006986281428,255.73209047260997 L-230.77176784870085,646.6308689029734 " />
			<path d="M-1412.799033984696,255.56408658894182 L8.785322849433495,71.29979808626521 " />
			<path d="M-1430.369679683563,112.9644904164114 L-8.785322849433495,-71.29979808626521 " />
			<path d="M-214.03918186086025,653.9830414986978 L1206.6447841399574,467.9615141865616 " />
			<path d="M-201.6048528046365,557.3914378423713 L-61.41351393900936,539.0350633102312 " />
			<path d="M153.5982161075076,510.88185586194294 L282.23068312278406,494.03897697490413 " />
			<path d="M497.8245598403762,465.8095444016306 L625.874880184578,449.0428906395771 " />
			<path d="M841.7791685441948,420.7728133844976 L969.5187714772246,404.0468443410528 " />
			<path d="M1185.4231033097005,375.77676139372386 L1188.791995835363,375.3356453200778 " />
			<path d="M1186.3924766742591,376.09842339005615 L10.069979860060423,-14.234400359619054 " />
			<path d="M1157.5801192128313,466.45023890216487 L-20.44819975187386,75.55138128114466 " />
			<path d="M841.7663222083936,420.76850673937724 L-149.555122138687,91.8237221831154 " />
			<path d="M812.9539683543347,511.1203234479777 L-365.07467559073336,120.2215078384343 " />
			<path d="M497.1398114607259,465.43863728548064 L-494.18163288635475,136.49385272921882 " />
			<path d="M468.32745760666705,555.7904539940811 L-709.701186338401,164.8916383845377 " />
			<path d="M152.51330071305847,510.10876783158403 L-838.8081436340224,181.16398327532218 " />
			<path d="M123.70094685899971,600.4605845401845 L-1054.3276970860684,209.5617689306411 " />
			<path d="M-202.96722057742727,556.185783258024 L-1194.2889047854353,227.2410304903246 " />
			<path d="M-231.77957126516526,646.5376010172303 L-1409.8085020446074,255.63882258686675 " />

       </g>
    </g>
    
</svg>
