<?xml version="1.0" encoding="UTF-8" standalone="no"?>
<svg
   xmlns:svg="http://www.w3.org/2000/svg"
   xmlns="http://www.w3.org/2000/svg"
   width="480.0"
   height="480.0"

>
    <g transform="scale(0.13869033321848986, -0.13869033321848986)   translate(1537.0525219070398,-141.1611773653649)" stroke-width="1.0"  fill="none">
       <!-- hidden lines -->
       <g  stroke="rgb(0,0,0)" fill="none" stroke-dasharray="1.0,1.0" >
			<path d="M-1446.0961636286636,-436.82828460370973 L-1446.0961636286636,-317.1485473623001 " />
			<path d="M-1447.6838082314055,-313.0471321385503 L-1447.6059062030904,-313.1111755268106 L-1447.528191847585,-313.1819704725252 L-1447.4508523855786,-313.25934642446896 L-1447.3740741346094,-313.3431169771963 L-1447.298042060209,-313.4330803201083 L-1447.2229393303037,-313.52901972363196 L-1447.1489468739487,-313.63070406134096 L-1447.0762429454523,-313.7378883667592 L-1447.0050026949461,-313.8503144235068 L-1446.9353977464336,-313.96771138736557 L-1446.8675957843323,-314.0897964387669 L-1446.8017601495078,-314.2162754641285 L-1446.738049445771,-314.3468437644001 L-1446.6766171577874,-314.4811867891098 L-1446.6176112813196,-314.6189808941442 L-1446.5611739666924,-314.7598941214348 L-1446.50744117634,-314.9035869986745 L-1446.456542357261,-315.0497133571361 L-1446.4086001291687,-315.19792116562286 L-1446.3637299890895,-315.34785337854265 L-1446.3220400331213,-315.4991487960621 L-1446.2836306960196,-315.65144293426846 L-1446.2485945092417,-315.80436890324336 L-1446.2170158780302,-315.95755829093287 L-1446.188970878074,-316.1106420506842 L-1446.1645270722343,-316.26325139031155 L-1446.1437433477802,-316.4150186605488 L-1446.1266697745245,-316.56557824074866 L-1446.1133474842009,-316.714567419695 L-1446.1038085713733,-316.8616272694058 L-1446.0980760161183,-317.0064035098222 L-1446.0961636286636,-317.1485473623001 " />
			<path d="M-1446.0961636286636,-436.82828460370973 L-1446.0996794668183,-437.01621742909543 L-1446.1102114096389,-437.19784881861716 L-1446.1277128111615,-437.3723743270379 L-1446.1521061576968,-437.5390209810607 L-1446.1668547286274,-437.6191576347325 L-1446.183283411138,-437.6970507028266 L-1446.2013740095356,-437.7726139143758 L-1446.2211064874618,-437.8457635788608 L-1446.2424589900845,-437.9164186789014 L-1446.2654078683024,-437.98450095998857 L-1446.289927704938,-438.04993501715524 L-1446.3159913428894,-438.1126483784919 " />
			<path d="M-1447.6838082314057,-313.04713213855024 L-1463.3617986834815,-300.85313956471344 " />
			<path d="M-324.1552261438721,-1263.1814857741724 L-323.91846195529644,-1189.3065650422986 " />
			<path d="M-325.49972030927813,-1185.1983914976765 L-325.42169261656693,-1185.2629865819924 L-325.3438749966675,-1185.3343208173767 L-325.26645491904225,-1185.4122223534087 L-325.18961889543925,-1185.4965035184644 L-325.1135520305695,-1185.586961271835 L-325.03843757617307,-1185.6833776928695 L-324.96445648954995,-1185.785520505965 L-324.89178699761766,-1185.8931436401374 L-324.82060416754746,-1186.0059878218303 L-324.75107948501187,-1186.1237811995259 L-324.6833804410607,-1186.2462399986596 L-324.6176701286206,-1186.3730692052586 L-324.5541068495898,-1186.503963276655 L-324.49284373347496,-1186.6386068775657 L-324.4340283684887,-1186.7766756397632 L-324.37780244599713,-1186.9178369435053 L-324.3243014191721,-1187.0617507188476 L-324.2736541766736,-1187.2080702648998 L-324.22598273214476,-1187.3564430850593 L-324.1814019302711,-1187.5065117362064 L-324.1400191701091,-1187.6579146898162 L-324.1019341463527,-1187.8102872029117 L-324.06723860916003,-1187.963262196763 L-324.0360161431191,-1188.1164711412107 L-324.00834196588545,-1188.2695449424882 L-323.9842827469759,-1188.4221148324004 L-323.96389644715623,-1188.5738132567192 L-323.94723217880824,-1188.724274760653 L-323.9343300876141,-1188.8731368692602 L-323.9252212558415,-1189.020040960682 L-323.9199276274641,-1189.1646331300951 L-323.9184619552963,-1189.3065650422986 " />
			<path d="M-324.1552261438721,-1263.1814857741722 L-324.15924186443476,-1263.3662593347426 L-324.1700702556564,-1263.5448877878457 L-324.1876648163008,-1263.716604034867 L-324.2119499886231,-1263.8806706608386 L-324.22657007454194,-1263.959613822525 L-324.24282148284345,-1264.0363831011782 L-324.26068676140807,-1264.1108960555343 L-324.2801467250074,-1264.183072667359 L-324.3011804759071,-1264.252835427378 L-324.3237654263085,-1264.3201094185124 L-324.34787732260554,-1264.3848223963316 L-324.37349027142983,-1264.4469048666342 " />
			<path d="M-342.6608478097706,-1250.5566116146608 L-342.70560559598226,-1250.423037689674 L-342.7478772958454,-1250.2878904340212 L-342.78757913434185,-1250.151437685614 L-342.82463242946324,-1250.0139498696187 L-342.85896374814484,-1249.875699462523 L-342.8905050517968,-1249.736960452134 L-342.9191938311448,-1249.5980077945849 L-342.944973230112,-1249.459116869419 L-342.967792158498,-1249.320562933837 L-342.9876053932305,-1249.1826205771868 L-343.00437366798934,-1249.045563176774 L-343.0180637510254,-1248.9096623560788 L-343.0286485110202,-1248.7751874464448 L-343.0361069708551,-1248.6424049533125 L-343.0404243491844,-1248.511578028053 L-343.04159208972925,-1248.3829659464488 " />
			<path d="M1111.6382304788667,-879.4081788042869 L1111.8749946674425,-805.5332580724131 " />
			<path d="M-343.04159208972914,-1248.3829659464488 L-342.8048279011535,-1174.508045214575 " />
			<path d="M-342.8048279011535,-1174.508045214575 L-342.80082011565094,-1174.3234660128032 L-342.7900141763264,-1174.1450179606054 L-342.77245638888536,-1173.9734657451324 L-342.74822199211184,-1173.8095445034357 L-342.73363241191197,-1173.7306663699121 L-342.71741483545446,-1173.6539566722515 L-342.69958664132,-1173.5794976117415 L-342.68016693400995,-1173.507368977912 L-342.65917652347406,-1173.437648063032 L-342.6366379028107,-1173.370409579285 L-342.6125752241638,-1173.3057255787078 L-342.58701427284126,-1173.2436653759808 L-342.5599824396839,-1173.1842954741505 L-342.5315086917139,-1173.1276794933663 L-342.50162354109364,-1173.0738781027046 L-342.4703590124295,-1173.0229489551577 L-342.4377486084546,-1172.9749466258536 L-342.4038272741276,-1172.9299225535724 L-342.3686313591859,-1172.8879249856261 L-342.33219857919397,-1172.848998926158 L-342.2945679751274,-1172.8131860879146 L-342.2557798715374,-1172.7805248475493 L-342.2158758333391,-1172.7510502044959 L-342.1748986212712,-1172.7247937434659 L-342.13289214607397,-1172.7017836006003 L-342.08990142143506,-1172.6820444333212 L-342.04597251575314,-1172.6655973939085 L-342.00115250277173,-1172.6524601068327 " />
			<path d="M-342.0011525027717,-1172.6524601068327 L-341.9555387048497,-1172.6426553700342 L-341.90913240608864,-1172.6361778388286 L-341.8619832286251,-1172.6330344396233 L-341.814141588954,-1172.6332285336468 L-341.76565864401823,-1172.6367599133553 L-341.7165862365069,-1172.6436248026532 L-341.66697683941976,-1172.6538158609321 L-341.6168834999583,-1172.6673221909193 L-341.56635978280235,-1172.6841293503307 L-341.5154597128333,-1172.704219367314 L-341.464237717366,-1172.727570759665 L-341.41274856794905,-1172.7541585577999 L-341.36104732179825,-1172.783954331454 L-341.309189262924,-1172.8169262200825 L-341.2572298430159,-1172.8530389669297 L-341.2052246221489,-1172.8922539567275 " />
			<path d="M-325.4997203092783,-1185.1983914976765 L-341.20522462214893,-1172.8922539567277 " />
			<path d="M6.648229216917313,54.66898896422941 L6.784557806139507,54.70015916107129 L6.920557967725079,54.72434841990467 L7.055902065246369,54.74149846666386 L7.190264042792123,54.75156798536814 L7.323320210465042,54.75453271765561 L7.4547500241794005,54.750385521223755 L7.584236857880118,54.73913638703589 L7.711468766322952,54.72081241525203 L7.836139236578211,54.695457749942165 L7.957947926447529,54.66313347273938 L8.076601388014804,54.62391745568872 L8.191813774588212,54.577904173646566 L8.303307529330176,54.525204476682326 L8.410814053916377,54.46594532303085 L8.514074355612873,54.40026947323875 L8.61283967121252,54.32833514624165 " />
			<path d="M8.612839671212528,54.32833514624164 L8.706872031044249,54.250315669404905 L8.795944941933369,54.16639897189284 L8.879843819518344,54.07678721630212 L8.958366544132243,53.98169628511789 L9.031323947726555,53.88135526063412 L9.098540269593398,53.776005873074524 L9.159853579788312,53.665901918243485 L9.215116169233516,53.55130864611001 L9.264194905561883,53.43250212179752 L9.306971553844347,53.30976856051907 L9.343343061428094,53.183403638060085 L9.373221806199336,53.05371177846978 L9.396535807672574,52.92100542067724 L9.413228900397828,52.78560426579895 L9.423260869268066,52.64783450695113 L9.426607546400893,52.5080280434222 " />
			<path d="M1109.4159147638136,-803.0395543102192 L1109.5522433530357,-803.0083841133772 L1109.6882435146213,-802.9841948545438 L1109.8235876121425,-802.9670448077846 L1109.9579495896885,-802.9569752890804 L1110.0910057573612,-802.9540105567929 L1110.2224355710757,-802.9581577532248 L1110.3519224047764,-802.9694068874127 L1110.4791543132192,-802.9877308591965 L1110.6038247834745,-803.0130855245063 L1110.7256334733438,-803.0454098017092 L1110.844286934911,-803.0846258187598 L1110.9594993214846,-803.130639100802 L1111.0709930762264,-803.1833387977662 L1111.1784996008128,-803.2425979514177 L1111.281759902509,-803.3082738012098 L1111.3805252181087,-803.3802081282068 " />
			<path d="M1112.0592005977264,-804.3518366648545 L1112.0906643639669,-804.4512373908052 L1112.1180311035953,-804.5528666444579 L1112.1412588978242,-804.6565687560045 L1112.1603121676626,-804.7621848805533 L1112.1751617284149,-804.8695532414379 L1112.1857848343836,-804.9785093780182 L1112.1921652137096,-805.0888863975908 L1112.1942930932971,-805.2005152310263 " />
			<path d="M9.426607570863105,-21.485581949235844 L9.423260892534284,-21.627088338957776 L9.41322891989605,-21.76995372684169 L9.396535820849182,-21.913833937654633 L9.373221810531431,-22.058382351366348 L9.343343054435715,-22.203250738187258 L9.30697153310254,-22.34809009748453 L9.264194868712568,-22.492551498555194 L9.215116113997107,-22.636286921230745 L9.159853503975057,-22.77895009428822 L9.098540171114394,-22.92019732964791 L9.031323824604392,-23.059688350348033 L8.958366394511252,-23.19708711030175 L8.879843641674384,-23.332062603861633 L8.795944734283154,-23.464289663241225 L8.706871792154143,-23.593449741872767 L8.612839399806806,-23.71923168181375 L8.514074089510572,-23.841332463353655 L8.41081379554877,-23.959457935014985 L8.303307281014083,-24.073323522189945 L8.191813538516485,-24.182654912705576 L8.076601166247352,-24.287188717665835 L7.95794772090289,-24.386673105978485 L7.836139049025748,-24.48086841103828 L7.711468598375661,-24.5695477081048 L7.584236710988083,-24.65249736098402 L7.4547498996239305,-24.729517536696623 L7.323320109353484,-24.800422686893146 L7.190263966053393,-24.86504199485621 L7.05590201362721,-24.923219787012947 L6.920557941787051,-24.97481590796628 L6.784557806256716,-25.019706058141544 L6.648229243274927,-25.057782093235048 " />
			<path d="M1112.1942931177591,-879.1941252236843 L1112.1909464394303,-879.3356316134062 L1112.180914466792,-879.4784970012902 L1112.1642213677453,-879.6223772121032 L1112.1409073574275,-879.7669256258148 L1112.1110286013318,-879.9117940126357 L1112.0746570799986,-880.056633371933 L1112.0318804156086,-880.2010947730037 L1111.982801660893,-880.3448301956793 L1111.927539050871,-880.4874933687368 L1111.8662257180104,-880.6287406040964 L1111.7990093715005,-880.7682316247965 L1111.7260519414074,-880.9056303847502 L1111.6475291885704,-881.0406058783101 L1111.5636302811793,-881.1728329376897 L1111.4745573390503,-881.3019930163213 L1111.380524946703,-881.4277749562623 L1111.2817596364066,-881.5498757378022 L1111.1784993424449,-881.6680012094635 L1111.0709928279102,-881.7818667966384 L1110.9594990854125,-881.891198187154 L1110.8442867131434,-881.9957319921143 L1110.725633267799,-882.095216380427 L1110.6038245959219,-882.1894116854868 L1110.4791541452717,-882.2780909825533 L1110.351922257884,-882.3610406354325 L1110.22243544652,-882.4380608111451 L1110.0910056562495,-882.5089659613417 L1109.9579495129494,-882.5735852693047 L1109.8235875605233,-882.6317630614615 L1109.6882434886832,-882.6833591824147 L1109.5522433531528,-882.72824933259 L1109.415914790171,-882.7663253676835 " />
			<path d="M6.648229243274901,-25.057782093235062 L-20.788256751017027,-32.02577575774553 " />
			<path d="M-20.788256751017023,-32.02577575774553 L-20.92458534023922,-32.056945954587405 L-21.06058550182479,-32.08113521342079 L-21.195929599346076,-32.09828526017998 L-21.330291576891835,-32.10835477888425 L-21.463347744564754,-32.11131951117172 L-21.594777558279112,-32.10717231473987 L-21.72426439197983,-32.095923180552006 L-21.851496300422664,-32.077599208768135 L-21.97616677067792,-32.05224454345828 L-22.09797546054724,-32.0199202662555 L-22.216628922114513,-31.980704249204837 L-22.33184130868792,-31.934690967162677 L-22.44333506342989,-31.88199127019844 L-22.55084158801609,-31.822732116546966 L-22.654101889712585,-31.757056266754866 L-22.75286720531222,-31.68512193975777 " />
			<path d="M-22.75286720531224,-31.68512193975776 L-22.84689956514396,-31.607102462921016 L-22.93597247603308,-31.52318576540895 L-23.019871353618058,-31.433574009818237 L-23.098394078231955,-31.33848307863401 L-23.171351481826264,-31.238142054150238 L-23.23856780369311,-31.132792666590635 L-23.299881113888024,-31.0226887117596 L-23.355143703333226,-30.908095439626127 L-23.404222439661595,-30.789288915313634 L-23.446999087944057,-30.666555354035186 L-23.483370595527806,-30.540190431576203 L-23.513249340299048,-30.4104985719859 L-23.536563341772286,-30.277792214193358 L-23.553256434497538,-30.14239105931507 L-23.56328840336778,-30.00462130046724 L-23.566635080500603,-29.864814836938308 " />
			<path d="M1081.9794287958791,-889.7343190321941 L1081.843100206657,-889.765489229036 L1081.7071000450715,-889.7896784878694 L1081.5717559475502,-889.8068285346286 L1081.4373939700042,-889.8168980533328 L1081.3043378023315,-889.8198627856203 L1081.172907988617,-889.8157155891885 L1081.0434211549164,-889.8044664550006 L1080.9161892464736,-889.7861424832167 L1080.7915187762183,-889.7607878179069 L1080.669710086349,-889.7284635407041 L1080.5510566247817,-889.6892475236534 L1080.4358442382081,-889.6432342416113 L1080.3243504834663,-889.5905345446471 L1080.21684395888,-889.5312753909956 L1080.1135836571837,-889.4655995412035 L1080.014818341584,-889.3936652142064 " />
			<path d="M1080.0148183415838,-889.3936652142064 L1079.9207859817523,-889.3156457373697 L1079.831713070863,-889.2317290398576 L1079.7478141932781,-889.1421172842669 L1079.6692914686641,-889.0470263530826 L1079.5963340650699,-888.9466853285988 L1079.529117743203,-888.8413359410392 L1079.467804433008,-888.7312319862082 L1079.4125418435628,-888.6166387140747 L1079.3634631072346,-888.4978321897622 L1079.3206864589522,-888.3750986284838 L1079.2843149513683,-888.2487337060248 L1079.2544362065971,-888.1190418464345 L1079.231122205124,-887.986335488642 L1079.2144291123986,-887.8509343337637 L1079.2043971435285,-887.7131645749158 L1079.2010504663956,-887.5733581113869 " />
			<path d="M-23.566635080500603,-29.8648148369383 L-23.566635104962813,44.12879515571972 " />
			<path d="M1079.2010504663956,-887.5733581113869 L1079.2010504419334,-813.5797481187288 " />
			<path d="M-23.566635104962813,44.128795155719715 L-23.563288426633996,44.270301545441654 L-23.553256453995758,44.41316693332556 L-23.536563354948893,44.55704714413851 L-23.51324934463114,44.701595557850226 L-23.483370588535426,44.84646394467113 L-23.446999067202253,44.9913033039684 L-23.40422240281228,45.135764705039065 L-23.355143648096817,45.27950012771462 L-23.299881038074766,45.4221633007721 L-23.238567705214102,45.563410536131784 L-23.1713513587041,45.70290155683191 L-23.09839392861096,45.84030031678563 L-23.019871175774092,45.97527581034551 L-22.935972268382862,46.1075028697251 L-22.84689932625385,46.236662948356646 L-22.752866933906514,46.362444888297624 L-22.654101623610284,46.48454566983753 L-22.55084132964848,46.60267114149886 L-22.443334815113793,46.716536728673816 L-22.331841072616196,46.82586811918945 L-22.216628700347062,46.930401924149706 L-22.0979752550026,47.02988631246236 L-21.97616658312546,47.12408161752216 L-21.85149613247537,47.21276091458868 L-21.72426424508779,47.29571056746789 L-21.59477743372364,47.3727307431805 L-21.46334764345319,47.44363589337702 L-21.330291500153102,47.508255201340084 L-21.195929547726923,47.566432993496825 L-21.06058547588676,47.61802911445015 L-20.924585340356426,47.66291926462542 L-20.788256777374624,47.700995299718926 " />
			<path d="M1079.2010504419334,-813.5797481187288 L1079.2043971202622,-813.4382417290069 L1079.2144290929004,-813.295376341123 L1079.2311221919472,-813.15149613031 L1079.254436202265,-813.0069477165983 L1079.2843149583607,-812.8620793297774 L1079.320686479694,-812.7172399704801 L1079.3634631440839,-812.5727785694095 L1079.4125418987994,-812.4290431467339 L1079.4678045088215,-812.2863799736764 L1079.5291178416821,-812.1451327383168 L1079.596334188192,-812.0056417176166 L1079.6692916182851,-811.8682429576629 L1079.747814371122,-811.733267464103 L1079.8317132785132,-811.6010404047234 L1079.9207862206422,-811.4718803260919 L1080.0148186129895,-811.3460983861509 L1080.113583923286,-811.223997604611 L1080.2168442172476,-811.1058721329497 L1080.3243507317823,-810.9920065457748 L1080.43584447428,-810.8826751552591 L1080.551056846549,-810.7781413502988 L1080.6697102918936,-810.6786569619861 L1080.7915189637706,-810.5844616569264 L1080.9161894144208,-810.4957823598598 L1081.0434213018084,-810.4128327069807 L1081.1729081131725,-810.3358125312681 L1081.304337903443,-810.2649073810715 L1081.437394046743,-810.2002880731085 L1081.5717559991692,-810.1421102809517 L1081.7071000710093,-810.0905141599984 L1081.8431002065397,-810.0456240098231 L1081.9794287695215,-810.0075479747296 " />
			<path d="M6.648229216917315,54.66898896422942 L-20.788256777374613,47.70099529971895 " />
			<path d="M1109.4159147638134,-803.039554310219 L1081.9794287695213,-810.0075479747295 " />
			<path d="M-343.42737313060036,-111.09928993527167 L-343.42737313060036,-37.10567993422053 " />
			<path d="M759.3406451551341,-968.8077486019541 L759.3406451551341,-894.814138600903 " />
			<path d="M-346.2057511853986,-34.94471922493299 L-346.0694226358473,-34.91354902303049 L-345.93342251371286,-34.88935975646071 L-345.7980784552017,-34.87220969928554 L-345.6637165160054,-34.862140167494886 L-345.5306603858044,-34.85917541947281 L-345.3992306084706,-34.86332259755698 L-345.26974380984944,-34.87457171083215 L-345.1425119349805,-34.89289565919913 L-345.01784149659466,-34.91825029866131 L-344.8960328366977,-34.95057454767143 L-344.7773794030206,-34.98979053428234 L-344.6621670420778,-35.035803783747404 L-344.55067331053823,-35.08850344611835 L-344.4431668065669,-35.1477625632926 L-344.3399065227484,-35.21343837486639 L-344.2411412221509,-35.28537266205711 " />
			<path d="M-344.2411412221508,-35.285372662057114 L-344.1471088390343,-35.36339212886623 L-344.0580359056459,-35.447308819564505 L-343.97413700648406,-35.5369205714938 L-343.89561426134554,-35.63201150209466 L-343.8226568384012,-35.7323525289863 L-343.75544049847315,-35.837701921846076 L-343.6941271716118,-35.947805884759084 L-343.6388645669919,-36.06239916763471 L-343.5897858170685,-36.1812057052173 L-343.5470091568489,-36.30393928215161 L-343.5106376390544,-36.4303042225006 L-343.4807588858571,-36.559996102054725 L-343.4574448777905,-36.69270248171645 L-343.4407517803421,-36.82810366019349 L-343.4307198086459,-36.96587344418713 L-343.4273731306003,-37.10567993422052 " />
			<path d="M756.5622671003359,-892.6531778916155 L756.6985956498872,-892.622007689713 L756.8345957720217,-892.5978184231433 L756.9699398305329,-892.5806683659681 L757.1043017697291,-892.5705988341774 L757.2373578999301,-892.5676340861553 L757.368787677264,-892.5717812642395 L757.4982744758851,-892.5830303775147 L757.625506350754,-892.6013543258816 L757.7501767891398,-892.6267089653438 L757.8719854490367,-892.6590332143539 L757.9906388827139,-892.6982492009648 L758.1058512436567,-892.7442624504299 L758.2173449751963,-892.7969621128009 L758.3248514791676,-892.8562212299752 L758.4281117629862,-892.921897041549 L758.5268770635837,-892.9938313287396 " />
			<path d="M-343.4273731306003,-111.09928993527167 L-343.4307198086459,-111.24079632526474 L-343.4407517803421,-111.38366171392947 L-343.4574448777905,-111.52754192603108 L-343.4807588858571,-111.67209034153615 L-343.5106376390544,-111.81695873065081 L-343.5470091568489,-111.96179809273671 L-343.5897858170685,-112.10625949708414 L-343.6388645669919,-112.24999492351672 L-343.6941271716118,-112.39265810080244 L-343.75544049847315,-112.53390534085138 L-343.8226568384012,-112.67339636669048 L-343.89561426134554,-112.81079513222052 L-343.97413700648406,-112.94577063178062 L-344.0580359056459,-113.0779976975699 L-344.1471088390343,-113.20715778300513 L-344.2411412221508,-113.3329397301274 L-344.3399065227484,-113.45504051920894 L-344.4431668065669,-113.57316599875405 L-344.55067331053823,-113.68703159413595 L-344.6621670420778,-113.7963629931619 L-344.7773794030206,-113.90089680691538 L-344.8960328366977,-114.00038120428295 L-345.01784149659466,-114.09457651863754 L-345.1425119349805,-114.18325582521636 L-345.26974380984944,-114.26620548780245 L-345.3992306084706,-114.34322567339314 L-345.5306603858044,-114.41413083361512 L-345.6637165160054,-114.4787501517269 L-345.7980784552017,-114.53692795413114 L-345.93342251371286,-114.5885240854061 L-346.0694226358473,-114.63341424595224 L-346.2057511853986,-114.67149029144086 " />
			<path d="M-346.2057511853986,-114.67149029144089 L-373.64223447653154,-121.63948604791908 " />
			<path d="M-373.64223447653154,-121.63948604791908 L-373.77856302608285,-121.67065624982156 L-373.91456314821727,-121.69484551639135 L-374.04990720672845,-121.71199557356651 L-374.1842691459247,-121.72206510535717 L-374.3173252761257,-121.72502985337925 L-374.44875505345954,-121.72088267529507 L-374.5782418520807,-121.7096335620199 L-374.7054737269496,-121.69130961365293 L-374.83014416533547,-121.66595497419075 L-374.9519528252324,-121.63363072518064 L-375.07060625890955,-121.59441473856971 L-375.18581861985234,-121.54840148910466 L-375.2973123513919,-121.49570182673371 L-375.4048188553632,-121.43644270955946 L-375.50807913918175,-121.37076689798567 L-375.60684443977925,-121.29883261079496 " />
			<path d="M-375.6068444397793,-121.29883261079495 L-375.70087682289585,-121.22081314398582 L-375.7899497562842,-121.13689645328756 L-375.87384865544607,-121.04728470135827 L-375.9523714005846,-120.95219377075739 L-376.0253288235289,-120.85185274386576 L-376.092545163457,-120.74650335100598 L-376.1538584903183,-120.63639938809297 L-376.2091210949382,-120.52180610521735 L-376.2581998448616,-120.40299956763477 L-376.3009765050812,-120.28026599070046 L-376.33734802287574,-120.15390105035145 L-376.36722677607304,-120.02420917079733 L-376.3905407841396,-119.89150279113561 L-376.407233881588,-119.75610161265857 L-376.4172658532842,-119.61833182866494 L-376.4206125313298,-119.47852533863153 " />
			<path d="M727.1611738459552,-979.0072912774774 L727.0671414628387,-978.9292718106683 L726.9780685294503,-978.84535511997 L726.8941696302885,-978.7557433680407 L726.8156468851499,-978.6606524374398 L726.7426894622056,-978.5603114105481 L726.6754731222776,-978.4549620176884 L726.6141597954162,-978.3448580547754 L726.5588971907963,-978.2302647718998 L726.5098184408729,-978.1114582343172 L726.4670417806533,-977.9887246573828 L726.4306702628588,-977.8623597170339 L726.4007915096614,-977.7326678374798 L726.3774775015949,-977.599961457818 L726.3607844041466,-977.464560279341 L726.3507524324503,-977.3267904953474 L726.3474057544047,-977.186984005314 " />
			<path d="M-376.42061253132977,-119.47852533863154 L-376.42061253132977,-45.484915337580404 " />
			<path d="M726.3474057544047,-977.186984005314 L726.3474057544047,-903.1933740042629 " />
			<path d="M-376.4206125313298,-45.48491533758039 L-376.4172658532842,-45.34340894758733 L-376.407233881588,-45.20054355892258 L-376.3905407841396,-45.05666334682099 L-376.36722677607304,-44.91211493131591 L-376.33734802287574,-44.76724654220125 L-376.3009765050812,-44.62240718011535 L-376.2581998448616,-44.477945775767914 L-376.2091210949382,-44.33421034933533 L-376.1538584903183,-44.19154717204962 L-376.092545163457,-44.05029993200068 L-376.0253288235289,-43.91080890616158 L-375.9523714005846,-43.77341014063154 L-375.87384865544607,-43.63843464107144 L-375.7899497562842,-43.50620757528217 L-375.70087682289585,-43.37704748984694 L-375.6068444397793,-43.251265542724646 L-375.50807913918175,-43.12916475364312 L-375.4048188553632,-43.011039274098 L-375.2973123513919,-42.89717367871611 L-375.18581861985234,-42.78784227969015 L-375.07060625890955,-42.68330846593668 L-374.9519528252324,-42.583824068569115 L-374.83014416533547,-42.48962875421452 L-374.7054737269496,-42.4009494476357 L-374.5782418520807,-42.31799978504961 L-374.44875505345954,-42.24097959945893 L-374.3173252761257,-42.170074439236934 L-374.1842691459247,-42.10545512112516 L-374.04990720672845,-42.04727731872091 L-373.91456314821727,-41.99568118744595 L-373.77856302608285,-41.95079102689982 L-373.64223447653154,-41.91271498141119 " />
			<path d="M726.3474057544047,-903.1933740042629 L726.3507524324503,-903.0518676142698 L726.3607844041466,-902.909002225605 L726.3774775015949,-902.7651220135034 L726.4007915096614,-902.6205735979984 L726.4306702628588,-902.4757052088837 L726.4670417806533,-902.3308658467978 L726.5098184408729,-902.1864044424503 L726.5588971907963,-902.0426690160177 L726.6141597954162,-901.900005838732 L726.6754731222776,-901.7587585986831 L726.7426894622056,-901.619267572844 L726.8156468851499,-901.481868807314 L726.8941696302885,-901.3468933077538 L726.9780685294503,-901.2146662419646 L727.0671414628387,-901.0855061565294 L727.1611738459552,-900.9597242094071 L727.2599391465527,-900.8376234203255 L727.3631994303713,-900.7194979407805 L727.4707059343426,-900.6056323453985 L727.5821996658822,-900.4963009463726 L727.697412026825,-900.3917671326191 L727.8160654605022,-900.2922827352515 L727.9378741203991,-900.198087420897 L728.0625445587849,-900.1094081143182 L728.1897764336538,-900.026458451732 L728.3192632322749,-899.9494382661413 L728.4506930096088,-899.8785331059194 L728.5837491398098,-899.8139137878076 L728.718111079006,-899.7557359854034 L728.8534551375172,-899.7041398541284 L728.9894552596517,-899.6592496935823 L729.125783809203,-899.6211736480936 " />
			<path d="M-346.2057511853986,-34.94471922493298 L-373.64223447653154,-41.912714981411185 " />
			<path d="M756.5622671003359,-892.6531778916155 L729.1257838092031,-899.6211736480936 " />
			<path d="M-696.2813860899805,-200.71300751225712 L-696.2813860899805,-126.71939751120598 " />
			<path d="M406.48663219575394,-1058.4214661789397 L406.48663219575394,-984.4278561778884 " />
			<path d="M-699.0597641447788,-124.55843680191845 L-698.9234355952275,-124.52726660001596 L-698.7874354730931,-124.50307733344617 L-698.6520914145818,-124.48592727627101 L-698.5177294753856,-124.47585774448035 L-698.3846733451846,-124.47289299645827 L-698.2532435678507,-124.47704017454245 L-698.1237567692297,-124.48828928781762 L-697.9965248943607,-124.50661323618459 L-697.8718544559749,-124.53196787564677 L-697.750045796078,-124.56429212465689 L-697.6313923624008,-124.60350811126781 L-697.516180001458,-124.64952136073286 L-697.4046862699184,-124.70222102310382 L-697.2971797659471,-124.76148014027807 L-697.1939194821285,-124.82715595185185 L-697.095154181531,-124.89909023904258 " />
			<path d="M-697.095154181531,-124.89909023904258 L-697.0011217984145,-124.9771097058517 L-696.9120488650261,-125.06102639654996 L-696.8281499658643,-125.15063814847926 L-696.7496272207258,-125.24572907908014 L-696.6766697977814,-125.34607010597176 L-696.6094534578534,-125.45141949883154 L-696.548140130992,-125.56152346174456 L-696.4928775263721,-125.67611674462017 L-696.4437987764487,-125.79492328220276 L-696.4010221162291,-125.91765685913707 L-696.3646505984347,-126.04402179948607 L-696.3347718452372,-126.17371367904019 L-696.3114578371707,-126.30642005870192 L-696.2947647397224,-126.44182123717896 L-696.2847327680262,-126.57959102117259 L-696.2813860899805,-126.71939751120598 " />
			<path d="M403.70825414095566,-982.266895468601 L403.84458269050697,-982.2357252666984 L403.9805828126414,-982.2115360001287 L404.11592687115257,-982.1943859429535 L404.2502888103488,-982.1843164111629 L404.3833449405498,-982.1813516631407 L404.51477471788365,-982.1854988412249 L404.6442615165048,-982.1967479545001 L404.7714933913737,-982.2150719028671 L404.8961638297596,-982.2404265423293 L405.01797248965653,-982.2727507913394 L405.13662592333367,-982.3119667779503 L405.25183828427646,-982.3579800274154 L405.363332015816,-982.4106796897863 L405.4708385197873,-982.4699388069606 L405.57409880360586,-982.5356146185344 L405.67286410420337,-982.607548905725 " />
			<path d="M-696.2813860899805,-200.71300751225712 L-696.2847327680262,-200.85451390225018 L-696.2947647397224,-200.99737929091492 L-696.3114578371707,-201.14125950301653 L-696.3347718452372,-201.2858079185216 L-696.3646505984347,-201.43067630763625 L-696.4010221162291,-201.57551566972217 L-696.4437987764487,-201.7199770740696 L-696.4928775263721,-201.86371250050217 L-696.548140130992,-202.0063756777879 L-696.6094534578534,-202.14762291783683 L-696.6766697977814,-202.28711394367593 L-696.7496272207258,-202.42451270920597 L-696.8281499658643,-202.55948820876608 L-696.9120488650261,-202.69171527455535 L-697.0011217984145,-202.82087535999057 L-697.095154181531,-202.94665730711287 L-697.1939194821285,-203.0687580961944 L-697.2971797659471,-203.1868835757395 L-697.4046862699184,-203.3007491711214 L-697.516180001458,-203.41008057014736 L-697.6313923624008,-203.51461438390083 L-697.750045796078,-203.61409878126838 L-697.8718544559749,-203.708294095623 L-697.9965248943607,-203.79697340220181 L-698.1237567692297,-203.8799230647879 L-698.2532435678507,-203.95694325037857 L-698.3846733451846,-204.02784841060057 L-698.5177294753856,-204.09246772871236 L-698.6520914145818,-204.1506455311166 L-698.7874354730931,-204.20224166239154 L-698.9234355952275,-204.2471318229377 L-699.0597641447788,-204.2852078684263 " />
			<path d="M-699.0597641447788,-204.2852078684263 L-726.4962474359116,-211.25320362490453 " />
			<path d="M-726.4962474359116,-211.25320362490447 L-726.632575985463,-211.28437382680698 L-726.7685761075974,-211.30856309337676 L-726.9039201661086,-211.32571315055193 L-727.0382821053048,-211.3357826823426 L-727.1713382355058,-211.33874743036466 L-727.3027680128397,-211.3346002522805 L-727.4322548114608,-211.32335113900533 L-727.5594866863297,-211.30502719063833 L-727.6841571247155,-211.27967255117616 L-727.8059657846125,-211.24734830216605 L-727.9246192182896,-211.20813231555513 L-728.0398315792324,-211.16211906609007 L-728.151325310772,-211.1094194037191 L-728.2588318147433,-211.05016028654487 L-728.3620920985619,-210.98448447497108 L-728.4608573991594,-210.91255018778037 " />
			<path d="M-728.4608573991594,-210.91255018778034 L-728.554889782276,-210.83453072097123 L-728.6439627156643,-210.75061403027297 L-728.7278616148261,-210.66100227834366 L-728.8063843599647,-210.5659113477428 L-728.879341782909,-210.46557032085119 L-728.946558122837,-210.3602209279914 L-729.0078714496984,-210.25011696507838 L-729.0631340543183,-210.13552368220277 L-729.1122128042417,-210.01671714462017 L-729.1549894644613,-209.89398356768586 L-729.1913609822558,-209.76761862733687 L-729.2212397354532,-209.63792674778276 L-729.2445537435198,-209.505220368121 L-729.261246840968,-209.36981918964398 L-729.2712788126643,-209.23204940565034 L-729.2746254907099,-209.09224291561694 " />
			<path d="M374.30716088657505,-1068.6210088544628 L374.2131285034585,-1068.5429893876537 L374.12405557007014,-1068.4590726969554 L374.0401566709083,-1068.3694609450263 L373.9616339257698,-1068.2743700144254 L373.88867650282543,-1068.1740289875338 L373.8214601628974,-1068.068679594674 L373.76014683603603,-1067.958575631761 L373.70488423141614,-1067.8439823488852 L373.65580548149273,-1067.7251758113027 L373.61302882127313,-1067.6024422343685 L373.5766573034786,-1067.4760772940194 L373.5467785502813,-1067.3463854144652 L373.5234645422147,-1067.2136790348036 L373.50677144476634,-1067.0782778563266 L373.49673947307014,-1066.940508072333 L373.49339279502453,-1066.8007015822996 " />
			<path d="M-729.2746254907099,-209.092242915617 L-729.2746254907099,-135.09863291456585 " />
			<path d="M373.49339279502453,-1066.8007015822996 L373.49339279502453,-992.8070915812483 " />
			<path d="M-729.2746254907099,-135.0986329145658 L-729.2712788126643,-134.95712652457274 L-729.261246840968,-134.814261135908 L-729.2445537435198,-134.6703809238064 L-729.2212397354532,-134.52583250830133 L-729.1913609822558,-134.38096411918664 L-729.1549894644613,-134.23612475710075 L-729.1122128042417,-134.09166335275333 L-729.0631340543183,-133.94792792632074 L-729.0078714496984,-133.80526474903502 L-728.946558122837,-133.6640175089861 L-728.879341782909,-133.52452648314699 L-728.8063843599647,-133.38712771761695 L-728.7278616148261,-133.25215221805684 L-728.6439627156643,-133.11992515226757 L-728.554889782276,-132.99076506683235 L-728.4608573991594,-132.86498311971005 L-728.3620920985619,-132.74288233062853 L-728.2588318147433,-132.62475685108342 L-728.151325310772,-132.51089125570152 L-728.0398315792324,-132.40155985667556 L-727.9246192182896,-132.29702604292208 L-727.8059657846125,-132.19754164555454 L-727.6841571247155,-132.10334633119993 L-727.5594866863297,-132.0146670246211 L-727.4322548114608,-131.93171736203502 L-727.3027680128397,-131.85469717644435 L-727.1713382355058,-131.78379201622235 L-727.0382821053048,-131.71917269811055 L-726.9039201661086,-131.66099489570632 L-726.7685761075974,-131.60939876443138 L-726.632575985463,-131.56450860388523 L-726.4962474359116,-131.5264325583966 " />
			<path d="M373.49339279502453,-992.8070915812483 L373.49673947307014,-992.6655851912552 L373.50677144476634,-992.5227198025905 L373.5234645422147,-992.3788395904888 L373.5467785502813,-992.2342911749838 L373.5766573034786,-992.0894227858691 L373.61302882127313,-991.9445834237832 L373.65580548149273,-991.8001220194358 L373.70488423141614,-991.6563865930032 L373.76014683603603,-991.5137234157174 L373.8214601628974,-991.3724761756686 L373.88867650282543,-991.2329851498295 L373.9616339257698,-991.0955863842994 L374.0401566709083,-990.9606108847393 L374.12405557007014,-990.82838381895 L374.2131285034585,-990.6992237335148 L374.30716088657505,-990.5734417863926 L374.4059261871726,-990.4513409973109 L374.50918647099115,-990.3332155177659 L374.61669297496246,-990.2193499223839 L374.728186706502,-990.110018523358 L374.8433990674448,-990.0054847096045 L374.96205250112195,-989.906000312237 L375.0838611610189,-989.8118049978824 L375.20853159940475,-989.7231256913036 L375.3357634742737,-989.6401760287174 L375.4652502728948,-989.5631558431268 L375.59668005022866,-989.4922506829048 L375.72973618042965,-989.427631364793 L375.8640981196259,-989.3694535623888 L375.9994421781371,-989.3178574311138 L376.1354423002715,-989.2729672705677 L376.2717708498228,-989.2348912250791 " />
			<path d="M-699.0597641447788,-124.55843680191843 L-726.4962474359116,-131.52643255839664 " />
			<path d="M403.7082541409557,-982.266895468601 L376.27177084982276,-989.2348912250791 " />
			<path d="M-1049.1353990493606,-290.3267250892425 L-1049.1353990493606,-216.33311508819136 " />
			<path d="M-1051.913777104159,-214.17215437890383 L-1051.7774485546076,-214.14098417700131 L-1051.6414484324732,-214.11679491043154 L-1051.506104373962,-214.09964485325636 L-1051.3717424347658,-214.0895753214657 L-1051.2386863045647,-214.08661057344364 L-1051.107256527231,-214.0907577515278 L-1050.9777697286097,-214.10200686480297 L-1050.850537853741,-214.12033081316997 L-1050.725867415355,-214.14568545263214 L-1050.604058755458,-214.17800970164225 L-1050.485405321781,-214.21722568825317 L-1050.370192960838,-214.26323893771823 L-1050.2586992292986,-214.3159386000892 L-1050.1511927253273,-214.37519771726343 L-1050.0479324415087,-214.44087352883722 L-1049.9491671409112,-214.51280781602793 " />
			<path d="M-1049.9491671409112,-214.51280781602796 L-1049.8551347577948,-214.59082728283707 L-1049.7660618244063,-214.67474397353533 L-1049.6821629252445,-214.76435572546464 L-1049.603640180106,-214.8594466560655 L-1049.5306827571617,-214.9597876829571 L-1049.4634664172336,-215.0651370758169 L-1049.4021530903722,-215.17524103872992 L-1049.3468904857523,-215.28983432160553 L-1049.2978117358289,-215.40864085918813 L-1049.2550350756094,-215.53137443612243 L-1049.2186635578148,-215.65773937647143 L-1049.1887848046174,-215.78743125602554 L-1049.1654707965508,-215.9201376356873 L-1049.1487776991025,-216.05553881416432 L-1049.1387457274063,-216.19330859815796 L-1049.1353990493608,-216.33311508819133 " />
			<path d="M50.85424118157562,-1071.8806130455862 L50.990569731126904,-1071.8494428436838 L51.12656985326135,-1071.825253577114 L51.26191391177253,-1071.8081035199389 L51.396275850968756,-1071.798033988148 L51.52933198116978,-1071.7950692401262 L51.66076175850361,-1071.7992164182103 L51.79024855712477,-1071.8104655314855 L51.91748043199366,-1071.8287894798525 L52.04215087037954,-1071.8541441193147 L52.163959530276486,-1071.8864683683248 L52.28261296395363,-1071.9256843549356 L52.39782532489644,-1071.9716976044008 L52.509319056435984,-1072.0243972667715 L52.61682556040729,-1072.083656383946 L52.720085844225835,-1072.1493321955197 L52.818851144823356,-1072.2212664827105 " />
			<path d="M-1049.1353990493608,-290.32672508924253 L-1049.1387457274063,-290.4682314792356 L-1049.1487776991025,-290.61109686790036 L-1049.1654707965508,-290.75497708000194 L-1049.1887848046174,-290.899525495507 L-1049.2186635578148,-291.0443938846217 L-1049.2550350756094,-291.18923324670754 L-1049.2978117358289,-291.333694651055 L-1049.3468904857523,-291.4774300774876 L-1049.4021530903722,-291.6200932547733 L-1049.4634664172336,-291.76134049482226 L-1049.5306827571617,-291.9008315206613 L-1049.603640180106,-292.0382302861914 L-1049.6821629252445,-292.17320578575146 L-1049.7660618244063,-292.30543285154073 L-1049.8551347577948,-292.434592936976 L-1049.9491671409112,-292.5603748840983 L-1050.0479324415087,-292.6824756731798 L-1050.1511927253273,-292.80060115272494 L-1050.2586992292986,-292.9144667481068 L-1050.370192960838,-293.02379814713277 L-1050.485405321781,-293.1283319608862 L-1050.604058755458,-293.2278163582538 L-1050.725867415355,-293.3220116726084 L-1050.850537853741,-293.4106909791872 L-1050.9777697286097,-293.4936406417733 L-1051.107256527231,-293.570660827364 L-1051.2386863045647,-293.641565987586 L-1051.3717424347658,-293.7061853056978 L-1051.506104373962,-293.76436310810203 L-1051.6414484324732,-293.815959239377 L-1051.7774485546076,-293.8608493999231 L-1051.913777104159,-293.89892544541175 " />
			<path d="M-1051.913777104159,-293.89892544541175 L-1079.3502603952918,-300.86692120188997 " />
			<path d="M-1079.3502603952918,-300.8669212018899 L-1079.486588944843,-300.89809140379236 L-1079.6225890669775,-300.92228067036217 L-1079.7579331254888,-300.93943072753734 L-1079.892295064685,-300.949500259328 L-1080.025351194886,-300.95246500735004 L-1080.1567809722198,-300.9483178292659 L-1080.286267770841,-300.93706871599073 L-1080.4134996457099,-300.91874476762376 L-1080.5381700840958,-300.89339012816157 L-1080.6599787439927,-300.86106587915145 L-1080.7786321776698,-300.8218498925405 L-1080.8938445386127,-300.7758366430755 L-1081.0053382701522,-300.7231369807045 L-1081.1128447741235,-300.6638778635303 L-1081.216105057942,-300.5982020519565 L-1081.3148703585396,-300.52626776476575 " />
			<path d="M-1081.3148703585396,-300.52626776476575 L-1081.408902741656,-300.44824829795664 L-1081.4979756750445,-300.36433160725835 L-1081.5818745742063,-300.27471985532907 L-1081.6603973193448,-300.1796289247282 L-1081.733354742289,-300.0792878978366 L-1081.8005710822172,-299.9739385049768 L-1081.8618844090786,-299.8638345420638 L-1081.9171470136985,-299.7492412591882 L-1081.9662257636219,-299.6304347216056 L-1082.0090024238414,-299.5077011446713 L-1082.045373941636,-299.3813362043223 L-1082.0752526948334,-299.25164432476817 L-1082.0985667029,-299.11893794510644 L-1082.1152598003482,-298.9835367666294 L-1082.1252917720444,-298.8457669826357 L-1082.12863845009,-298.70596049260234 " />
			<path d="M21.453147927195026,-1158.234726431448 L21.35911554407847,-1158.156706964639 L21.270042610690084,-1158.0727902739407 L21.186143711528256,-1157.9831785220115 L21.107620966389753,-1157.8880875914106 L21.03466354344539,-1157.787746564519 L20.96744720351736,-1157.6823971716592 L20.906133876655996,-1157.5722932087463 L20.850871272036127,-1157.4576999258704 L20.801792522112716,-1157.338893388288 L20.759015861893115,-1157.2161598113537 L20.722644344098587,-1157.0897948710046 L20.692765590901267,-1156.9601029914504 L20.669451582834682,-1156.8273966117888 L20.652758485386325,-1156.6919954333118 L20.642726513690093,-1156.5542256493181 L20.6393798356445,-1156.4144191592848 " />
			<path d="M-1082.12863845009,-298.7059604926024 L-1082.12863845009,-224.71235049155126 " />
			<path d="M20.639379835644604,-1156.414419159285 L20.639379835644604,-1082.4208091582336 " />
			<path d="M-1082.12863845009,-224.71235049155118 L-1082.1252917720444,-224.57084410155812 L-1082.1152598003482,-224.42797871289338 L-1082.0985667029,-224.28409850079177 L-1082.0752526948334,-224.13955008528671 L-1082.045373941636,-223.99468169617202 L-1082.0090024238414,-223.84984233408613 L-1081.9662257636219,-223.7053809297387 L-1081.9171470136985,-223.56164550330612 L-1081.8618844090786,-223.4189823260204 L-1081.8005710822172,-223.27773508597147 L-1081.733354742289,-223.13824406013237 L-1081.6603973193448,-223.00084529460233 L-1081.5818745742063,-222.86586979504222 L-1081.4979756750445,-222.73364272925295 L-1081.408902741656,-222.60448264381773 L-1081.3148703585396,-222.47870069669543 L-1081.216105057942,-222.3565999076139 L-1081.1128447741235,-222.2384744280688 L-1081.0053382701522,-222.1246088326869 L-1080.8938445386127,-222.01527743366094 L-1080.7786321776698,-221.91074361990746 L-1080.6599787439927,-221.81125922253992 L-1080.5381700840958,-221.7170639081853 L-1080.4134996457099,-221.62838460160648 L-1080.286267770841,-221.5454349390204 L-1080.1567809722198,-221.46841475342973 L-1080.025351194886,-221.39750959320773 L-1079.892295064685,-221.33289027509593 L-1079.7579331254888,-221.2747124726917 L-1079.6225890669775,-221.22311634141676 L-1079.486588944843,-221.1782261808706 L-1079.3502603952918,-221.140150135382 " />
			<path d="M20.6393798356445,-1082.4208091582336 L20.642726513690093,-1082.2793027682405 L20.652758485386325,-1082.1364373795757 L20.669451582834682,-1081.9925571674742 L20.692765590901267,-1081.848008751969 L20.722644344098587,-1081.7031403628544 L20.759015861893115,-1081.5583010007686 L20.801792522112716,-1081.413839596421 L20.850871272036127,-1081.2701041699886 L20.906133876655996,-1081.1274409927028 L20.96744720351736,-1080.986193752654 L21.03466354344539,-1080.8467027268148 L21.107620966389753,-1080.7093039612848 L21.186143711528256,-1080.5743284617247 L21.270042610690084,-1080.4421013959354 L21.35911554407847,-1080.3129413105 L21.453147927195026,-1080.1871593633778 L21.551913227792554,-1080.0650585742962 L21.655173511611096,-1079.946933094751 L21.762680015582404,-1079.8330674993692 L21.874173747121947,-1079.7237361003433 L21.989386108064757,-1079.6192022865898 L22.108039541741903,-1079.5197178892222 L22.229848201638852,-1079.4255225748677 L22.35451864002473,-1079.336843268289 L22.481750514893623,-1079.2538936057028 L22.611237313514774,-1079.176873420112 L22.742667090848606,-1079.10596825989 L22.875723221049633,-1079.0413489417783 L23.010085160245854,-1078.983171139374 L23.145429218757037,-1078.9315750080991 L23.281429340891485,-1078.886684847553 L23.41775789044276,-1078.8486088020643 " />
			<path d="M-1051.913777104159,-214.17215437890383 L-1079.3502603952918,-221.14015013538204 " />
			<path d="M50.85424118157565,-1071.8806130455864 L23.417757890442736,-1078.8486088020645 " />
			<path d="M-1413.1028411971802,-382.762899363683 L-1413.1028411942734,-308.7692893618937 " />
			<path d="M-1415.8812190073527,-306.60832884037757 L-1415.7448904927583,-306.57715863395634 L-1415.6088904053854,-306.55296936051144 L-1415.4735463812456,-306.5358192941016 L-1415.339184475837,-306.52574975072486 L-1415.2061283786493,-306.5227849887851 L-1415.0746986333656,-306.52693215065096 L-1414.9452118656473,-306.5381812454497 L-1414.8179800203532,-306.55650517313586 L-1414.6933096100393,-306.58185978977764 L-1414.5715009765418,-306.61418401390347 L-1414.4528475674288,-306.6533999736525 L-1414.3376352290582,-306.6994131943748 L-1414.226141517951,-306.7521128262291 L-1414.1186350321314,-306.81137191122923 L-1414.0153747640525,-306.8770476890974 L-1413.9166094766604,-306.94898194118593 " />
			<path d="M-1413.9166094766604,-306.94898194118593 L-1413.8225770730367,-307.02700139911366 L-1413.7335041198305,-307.1109180837621 L-1413.649605201661,-307.200529832419 L-1413.5710824384391,-307.2956207624598 L-1413.4981249984432,-307.39596179142717 L-1413.4309086425965,-307.50131118891164 L-1413.3695953010424,-307.611415158901 L-1413.3143326830411,-307.7260084511977 L-1413.2652539211251,-307.8448150004298 L-1413.222477250371,-307.9675485911168 L-1413.1861057235596,-308.0939135471883 L-1413.1562269629153,-308.22360544429375 L-1413.1329129490136,-308.3563118431873 L-1413.116219847375,-308.4917130424219 L-1413.1061878731575,-308.6294828485383 L-1413.1028411942734,-308.7692893618937 " />
			<path d="M-313.1129070394517,-1164.3167129211001 L-312.9765785248573,-1164.2855427146787 L-312.84057843748445,-1164.261353441234 L-312.70523441334467,-1164.244203374824 L-312.57087250793626,-1164.2341338314473 L-312.4378164107484,-1164.2311690695076 L-312.30638666546474,-1164.2353162313734 L-312.1768998977463,-1164.2465653261722 L-312.0496680524523,-1164.2648892538584 L-311.9249976421384,-1164.2902438705 L-311.80318900864097,-1164.322568094626 L-311.6845355995278,-1164.361784054375 L-311.56932326115736,-1164.4077972750972 L-311.45782955004995,-1164.4604969069514 L-311.3503230642304,-1164.5197559919518 L-311.24706279615157,-1164.58543176982 L-311.1482975087594,-1164.6573660219085 " />
			<path d="M-1413.10284119718,-382.762899363683 L-1413.1061878749401,-382.9044057539037 L-1413.1162198457696,-383.04727114324794 L-1413.1329129417718,-383.1911513564793 L-1413.1562269478163,-383.3356997735616 L-1413.1861056984208,-383.4805681646972 L-1413.2224772130578,-383.625407529243 L-1413.265253869563,-383.76986893648314 L-1413.3143326152235,-383.91360436623444 L-1413.3695952150429,-384.0562675472568 L-1413.4309085365774,-384.1975147914514 L-1413.4981248706652,-384.3370058218351 L-1413.5710822872697,-384.4744045922978 L-1413.6496050255846,-384.60938009716665 L-1413.733503917455,-384.74160716862804 L-1413.8225768431016,-384.8707672600851 L-1413.9166092180453,-384.9965492135643 L-1414.015374510058,-385.1186500093227 L-1414.1186347849007,-385.23677549584846 L-1414.2261412795267,-385.35064109849793 L-1414.3376350013739,-385.45997250506093 L-1414.452847352301,-385.5645063266028 L-1414.5715007756628,-385.6639907319912 L-1414.6933094249698,-385.7581860545799 L-1414.8179798525166,-385.84686536958617 L-1414.9452117163235,-385.92981504077284 L-1415.0746985036862,-386.0068352351164 L-1415.2061282695925,-386.07774040422254 L-1415.339184388224,-386.1423597313283 L-1415.4735463157372,-386.2005375428148 L-1415.6088903624798,-386.2521336832383 L-1415.744890472788,-386.29702385297725 L-1415.8812190104843,-386.33509990768084 " />
			<path d="M-1415.8812190104843,-386.33509990768084 L-1443.3176999157524,-393.3030975186841 " />
			<path d="M-1443.3176999157524,-393.3030975186841 L-1443.4540284303469,-393.33426772510535 L-1443.5900285177197,-393.35845699855025 L-1443.7253725418595,-393.3756070649601 L-1443.859734447268,-393.38567660833684 L-1443.9927905444558,-393.3886413702766 L-1444.1242202897395,-393.38449420841073 L-1444.2537070574579,-393.373245113612 L-1444.380938902752,-393.35492118592583 L-1444.5056093130659,-393.32956656928405 L-1444.6274179465631,-393.2972423451582 L-1444.7460713556763,-393.2580263854092 L-1444.861283694047,-393.2120131646869 L-1444.9727774051541,-393.1593135328326 L-1445.0802838909738,-393.10005444783246 L-1445.1835441590526,-393.03437866996427 L-1445.2823094464447,-392.96244441787576 " />
			<path d="M-1445.2823094464447,-392.96244441787576 L-1445.3763418500685,-392.88442495994803 L-1445.4654148032746,-392.8005082752996 L-1445.5493137214442,-392.71089652664267 L-1445.627836484666,-392.6158055966019 L-1445.7007939246619,-392.5154645676345 L-1445.7680102805086,-392.41011517015005 L-1445.8293236220627,-392.30001120016067 L-1445.884586240064,-392.185417907864 L-1445.93366500198,-392.0666113586319 L-1445.9764416727342,-391.9438777679449 L-1446.0128131995455,-391.81751281187337 L-1446.0426919601898,-391.68782091476794 L-1446.0660059740915,-391.5551145158744 L-1446.08269907573,-391.4197133166398 L-1446.0927310499476,-391.2819435105234 L-1446.0960777288317,-391.142136997168 " />
			<path d="M-342.5139974785439,-1250.6708284985984 L-342.60802988216756,-1250.5928090406708 L-342.6971028353736,-1250.5088923560224 L-342.78100175354314,-1250.4192806073654 L-342.8595245167651,-1250.3241896773247 L-342.93248195676085,-1250.2238486483573 L-342.9996983126076,-1250.118499250873 L-343.0610116541618,-1250.0083952808834 L-343.116274272163,-1249.8938019885868 L-343.16535303407903,-1249.7749954393548 L-343.20812970483337,-1249.6522618486676 L-343.2445012316445,-1249.5258968925962 L-343.2743799922889,-1249.3962049954907 L-343.2976940061906,-1249.2634985965972 L-343.31438710782913,-1249.1280973973626 L-343.32441908204675,-1248.9903275912461 L-343.3277657609307,-1248.8505210778908 " />
			<path d="M-1446.0960777288315,-391.14213699716794 L-1446.0960777259247,-317.14852699537863 " />
			<path d="M-343.3277657609305,-1248.8505210778908 L-343.3277657580239,-1174.8569110761014 " />
			<path d="M-1446.0960777259252,-317.1485269953787 L-1446.092731048165,-317.007020605158 L-1446.0826990773355,-316.86415521581375 L-1446.0660059813333,-316.7202750025824 L-1446.0426919752888,-316.5757265855001 L-1446.0128132246844,-316.4308581943645 L-1445.9764417100473,-316.2860188298187 L-1445.9336650535422,-316.14155742257856 L-1445.8845863078816,-315.99782199282726 L-1445.8293237080622,-315.85515881180487 L-1445.7680103865277,-315.7139115676103 L-1445.70079405244,-315.5744205372266 L-1445.6278366358354,-315.4370217667639 L-1445.5493138975205,-315.30204626189504 L-1445.4654150056501,-315.16981919043366 L-1445.3763420800035,-315.0406590989766 L-1445.2823097050598,-314.91487714549737 L-1445.183544413047,-314.792776349739 L-1445.0802841382044,-314.67465086321323 L-1444.9727776435784,-314.56078526056376 L-1444.8612839217312,-314.45145385400076 L-1444.7460715708041,-314.3469200324589 L-1444.6274181474423,-314.2474356270705 L-1444.5056094981353,-314.1532403044818 L-1444.3809390705885,-314.0645609894755 L-1444.2537072067817,-313.98161131828886 L-1444.1242204194189,-313.9045911239453 L-1443.9927906535127,-313.83368595483915 L-1443.859734534881,-313.76906662773337 L-1443.725372607368,-313.7108888162469 L-1443.5900285606253,-313.6592926758234 L-1443.454028450317,-313.61440250608445 L-1443.3176999126208,-313.57632645138085 " />
			<path d="M-343.32776575802393,-1174.8569110761014 L-343.32441908026385,-1174.7154046858807 L-343.3143871094345,-1174.5725392965364 L-343.29769401343225,-1174.428659083305 L-343.2743800073876,-1174.2841106662227 L-343.2445012567831,-1174.139242275087 L-343.2081297421461,-1173.9944029105413 L-343.16535308564113,-1173.8499415033011 L-343.1162743399804,-1173.70620607355 L-343.0610117401611,-1173.5635428925275 L-342.9996984186266,-1173.422295648333 L-342.93248208453883,-1173.2828046179493 L-342.8595246679342,-1173.1454058474867 L-342.78100192961944,-1173.0104303426178 L-342.6971030377491,-1172.8782032711563 L-342.60803011210226,-1172.7490431796994 L-342.5139977371587,-1172.62326122622 L-342.415232445146,-1172.5011604304616 L-342.3119721703033,-1172.3830349439359 L-342.2044656756773,-1172.2691693412864 L-342.09297195383,-1172.1598379347233 L-341.97775960290306,-1172.0553041131816 L-341.85910617954124,-1171.9558197077931 L-341.73729753023423,-1171.8616243852045 L-341.61262710268744,-1171.7729450701981 L-341.4853952388806,-1171.6899953990117 L-341.3559084515178,-1171.612975204668 L-341.2244786856116,-1171.542070035562 L-341.0914225669798,-1171.477450708456 L-340.9570606394667,-1171.4192728969695 L-340.82171659272433,-1171.367676756546 L-340.68571648241596,-1171.322786586807 L-340.5493879447196,-1171.2847105321036 " />
			<path d="M-1415.8812190073525,-306.60832884037757 L-1443.3176999126206,-313.57632645138085 " />
			<path d="M-313.1129070394518,-1164.3167129211001 L-340.5493879447199,-1171.2847105321034 " />
			<path d="M-342.0011525027719,-1172.6524601068327 L-310.9967970575017,-1164.7883065842393 " />
			<path d="M-53.948650190854096,-1099.5888834507434 L53.06185518492339,-1072.4460181752193 " />
			<path d="M299.0153556328564,-1010.0607158793484 L405.9957283110268,-982.9254936641825 " />
			<path d="M651.979361456567,-920.5325483079533 L758.9217832991242,-893.4069521983228 " />
			<path d="M1004.9430233684535,-831.0044679686695 L1111.8403517328863,-803.890309672525 " />
			<path d="M9.284045948708133,53.806285610285286 L8.612839671212527,54.32833514624164 " />
			<path d="M9.426639828779848,-56.71363743149798 L-22.752867205312235,-31.685121939757764 " />
			<path d="M-224.66689207381728,-128.28756644409438 L-344.2411412221509,-35.285372662057135 " />
			<path d="M-331.67869875742144,-155.46516814151767 L-375.60684443977925,-121.29883261079495 " />
			<path d="M-577.5209050331974,-217.90128402107985 L-697.095154181531,-124.89909023904256 " />
			<path d="M-684.5327117168016,-245.07888571850316 L-728.4608573991594,-210.9125501877804 " />
			<path d="M-930.3749179925775,-307.5150015980653 L-1049.9491671409112,-214.5128078160279 " />
			<path d="M-1037.3867246761818,-334.6926032954886 L-1081.3148703585396,-300.5262677647658 " />
			<path d="M-1294.3423268304243,-399.9511689219629 L-1413.9166094766601,-306.948981941186 " />
			<path d="M-1401.3541536614136,-427.1287757361824 L-1445.2823094464445,-392.9624444178757 " />

       </g>

       <!-- solid lines -->
       <g  stroke="rgb(0,0,0)" fill="none">
			<path d="M9.426639828779845,-67.17169959864466 L9.426639828779845,52.50803764276491 " />
			<path d="M7.8389952260379765,56.60945286651474 L7.916897254352998,56.54540947825443 L7.994611609858396,56.47461453253983 L8.071951071864785,56.39723858059608 L8.148729322834056,56.313468027868744 L8.224761397234643,56.22350468495677 L8.299864127139688,56.12756528143309 L8.373856583494634,56.025880943724104 L8.446560511991144,55.91869663830584 L8.517800762497359,55.80627058155828 L8.5874057110099,55.6888736176995 L8.655207673111128,55.56678856629819 L8.72104330793559,55.440309540936575 L8.784754011672474,55.309741240664984 L8.846186299656077,55.17539821595522 L8.905192176123816,55.03760411092087 L8.961629490750974,54.89669088363028 L9.015362281103291,54.752998006390555 L9.06626110018237,54.60687164792896 L9.114203328274842,54.4586638394422 L9.159073468353986,54.30873162652238 L9.200763424322194,54.157436209002945 L9.239172761423927,54.0051420707966 L9.274208948201847,53.85221610182168 L9.305787579413202,53.69902671413219 L9.333832579369437,53.54594295438086 L9.35827638520921,53.3933336147535 L9.379060109663225,53.241566344516265 L9.396133682918835,53.0910067643164 L9.409455973242599,52.94201758537007 L9.418994886070232,52.79495773565926 L9.42472744132522,52.650181495242855 L9.426639828779845,52.508037642764926 " />
			<path d="M9.426639828779845,-67.17169959864466 L9.423211601552683,-67.35731256594026 L9.412941725126611,-67.53679114103173 L9.395874551329387,-67.70936022181276 L9.372083787021856,-67.87427454574754 L9.357698042832126,-67.95363723353778 L9.34167217578506,-68.03082190838617 L9.324023493013136,-68.10574521471584 L9.304771054208414,-68.17832623911438 L9.283935651039018,-68.24848659771645 L9.261539784695172,-68.31615052085432 L9.237607641589056,-68.3812449348853 L9.21216506723468,-68.44369954110768 L9.185239538336038,-68.5034468916797 L9.15686013311364,-68.56042246245997 L9.127057499901484,-68.61456472269018 L9.095863824048415,-68.66581520144528 L9.063312793159536,-68.71411855077919 L9.02943956071531,-68.75942260549772 L8.994280708107548,-68.80167843949442 L8.957874205133336,-68.84084041858833 L8.920259368989583,-68.87686624980654 L8.881476821812399,-68.90971702705858 L8.841568446807228,-68.93935727315292 L8.8005773430171,-68.9657549781107 L8.758547778777814,-68.98888163373475 L8.71552514391036,-69.00871226439718 L8.671555900702192,-69.02522545401162 L8.62668753373029,-69.03840336916167 " />
			<path d="M8.626687533730284,-69.03840336916168 L8.581554348208607,-69.048127988912 L8.535639476953104,-69.05457740822075 L8.488991254162038,-69.05774483783857 L8.44165878602665,-69.05762694343895 L8.393691899037501,-69.05422384912833 L8.345141087532527,-69.04753913731545 L8.296057460542091,-69.03757984494013 L8.246492687986926,-69.02435645606556 L8.196498946285647,-69.00788289084186 L8.146128863429082,-68.98817649085237 L8.09543546357922,-68.96525800085838 L8.044472111251123,-68.93915154696131 L7.993292455136558,-68.90988461120529 L7.941950371628465,-68.87748800264707 L7.890499908105732,-68.84199582492366 L7.838995226037984,-68.8034454403516 " />
			<path d="M-1446.3159913428894,-438.1126483784919 L-1446.3428598184444,-438.1711030570634 L-1446.3711398991,-438.2268442618797 L-1446.400801814653,-438.27981331464395 L-1446.4318143402554,-438.3299544552805 L-1446.464144829282,-438.37721490063274 L-1446.4977592476996,-438.421544900028 L-1446.5326222098931,-438.46289778764924 L-1446.5686970159159,-438.50123003166 L-1446.6059456901232,-438.5365012800298 L-1446.6443290211498,-438.5686744030126 L-1446.683806603186,-438.59771553223277 L-1446.724336878514,-438.6235940963382 L-1446.7658771812542,-438.6462828531824 L-1446.8083837822796,-438.66575791850215 L-1446.8518119352495,-438.6819987910602 L-1446.896115923713,-438.69498837422674 " />
			<path d="M-1446.896115923713,-438.69498837422674 L-1446.9412491092348,-438.70471299397707 L-1446.9871639804903,-438.7111624132858 L-1447.0338122032815,-438.7143298429036 L-1447.0811446714167,-438.71421194850404 L-1447.1291115584058,-438.71080885419343 L-1447.1776623699109,-438.7041241423805 L-1447.2267459969014,-438.6941648500052 L-1447.2763107694566,-438.68094146113066 L-1447.3263045111578,-438.66446789590697 L-1447.3766745940143,-438.64476149591746 L-1447.4273679938642,-438.6218430059235 L-1447.4783313461924,-438.5957365520264 L-1447.529511002307,-438.56646961627035 L-1447.580853085815,-438.53407300771215 L-1447.6323035493376,-438.4985808299887 L-1447.6838082314055,-438.4600304454167 " />
			<path d="M7.838995226037976,-68.8034454403516 L-7.838995226037976,-56.609452866514744 " />
			<path d="M-1447.6838082314057,-438.46003044541663 L-1463.3617986834815,-426.26603787157984 " />
			<path d="M-7.8389952260379765,-56.60945286651474 L-7.916897254352998,-56.54540947825443 L-7.994611609858396,-56.47461453253983 L-8.071951071864785,-56.39723858059608 L-8.148729322834056,-56.313468027868744 L-8.22476139723464,-56.22350468495677 L-8.299864127139688,-56.12756528143309 L-8.373856583494634,-56.025880943724104 L-8.446560511991144,-55.91869663830584 L-8.517800762497359,-55.80627058155828 L-8.5874057110099,-55.68887361769951 L-8.655207673111128,-55.56678856629819 L-8.72104330793559,-55.440309540936575 L-8.784754011672472,-55.30974124066499 L-8.846186299656075,-55.17539821595523 L-8.905192176123814,-55.03760411092087 L-8.961629490750973,-54.896690883630285 L-9.015362281103291,-54.752998006390555 L-9.06626110018237,-54.60687164792896 L-9.114203328274842,-54.4586638394422 L-9.159073468353986,-54.30873162652238 L-9.200763424322194,-54.157436209002945 L-9.239172761423927,-54.0051420707966 L-9.274208948201847,-53.85221610182169 L-9.3057875794132,-53.69902671413219 L-9.333832579369437,-53.54594295438086 L-9.358276385209209,-53.3933336147535 L-9.379060109663225,-53.241566344516265 L-9.396133682918835,-53.0910067643164 L-9.409455973242599,-52.94201758537007 L-9.418994886070232,-52.79495773565926 L-9.42472744132522,-52.650181495242855 L-9.426639828779845,-52.50803764276494 " />
			<path d="M-1463.3617986834815,-426.26603787157984 L-1463.4397007117966,-426.20199448331954 L-1463.517415067302,-426.1311995376049 L-1463.5947545293084,-426.0538235856612 L-1463.6715327802776,-425.97005303293383 L-1463.747564854678,-425.88008969002186 L-1463.8226675845833,-425.7841502864982 L-1463.8966600409383,-425.6824659487892 L-1463.9693639694347,-425.57528164337094 L-1464.0406042199409,-425.4628555866234 L-1464.1102091684534,-425.34545862276457 L-1464.1780111305548,-425.22337357136325 L-1464.2438467653792,-425.09689454600164 L-1464.307557469116,-424.96632624573004 L-1464.3689897570996,-424.8319832210203 L-1464.4279956335674,-424.694189115986 L-1464.4844329481946,-424.55327588869534 L-1464.538165738547,-424.40958301145565 L-1464.589064557626,-424.263456652994 L-1464.6370067857183,-424.1152488445073 L-1464.6818769257975,-423.9653166315875 L-1464.7235668817657,-423.814021214068 L-1464.7619762188674,-423.6617270758617 L-1464.7970124056453,-423.5088011068868 L-1464.8285910368568,-423.35561171919727 L-1464.856636036813,-423.20252795944594 L-1464.8810798426528,-423.0499186198186 L-1464.9018635671068,-422.8981513495813 L-1464.9189371403625,-422.7475917693815 L-1464.9322594306861,-422.5986025904351 L-1464.9417983435137,-422.45154274072434 L-1464.9475308987687,-422.30676650030796 L-1464.9494432862234,-422.16462264783 " />
			<path d="M-9.426639828779845,-52.50803764276491 L-9.426639828779845,67.17169959864466 " />
			<path d="M-1464.9494432862234,-422.16462264782996 L-1464.9494432862234,-302.48488540642035 " />
			<path d="M-9.426639828779845,67.17169959864466 L-9.423211601552685,67.35731256594026 L-9.412941725126611,67.53679114103173 L-9.395874551329387,67.70936022181276 L-9.372083787021856,67.87427454574754 L-9.357698042832126,67.95363723353778 L-9.34167217578506,68.03082190838617 L-9.324023493013136,68.10574521471582 L-9.304771054208414,68.17832623911438 L-9.283935651039018,68.24848659771645 L-9.261539784695172,68.31615052085432 L-9.237607641589056,68.3812449348853 L-9.21216506723468,68.44369954110766 L-9.18523953833604,68.5034468916797 L-9.15686013311364,68.56042246245997 L-9.127057499901484,68.61456472269018 L-9.095863824048415,68.66581520144528 L-9.063312793159538,68.71411855077919 L-9.02943956071531,68.75942260549772 L-8.994280708107548,68.80167843949442 L-8.957874205133338,68.84084041858833 L-8.920259368989585,68.87686624980654 L-8.881476821812399,68.90971702705858 L-8.841568446807228,68.93935727315292 L-8.800577343017101,68.9657549781107 L-8.758547778777816,68.98888163373475 L-8.71552514391036,69.00871226439716 L-8.671555900702192,69.02522545401162 L-8.626687533730298,69.03840336916167 " />
			<path d="M-8.626687533730284,69.03840336916168 L-8.581554348208606,69.048127988912 L-8.535639476953104,69.05457740822075 L-8.488991254162038,69.05774483783857 L-8.44165878602665,69.05762694343895 L-8.393691899037501,69.05422384912833 L-8.345141087532529,69.04753913731545 L-8.296057460542091,69.03757984494014 L-8.246492687986926,69.02435645606556 L-8.196498946285647,69.00788289084186 L-8.146128863429082,68.98817649085237 L-8.09543546357922,68.96525800085838 L-8.044472111251123,68.93915154696131 L-7.993292455136558,68.90988461120529 L-7.941950371628465,68.87748800264707 L-7.890499908105732,68.84199582492366 L-7.838995226037978,68.8034454403516 " />
			<path d="M-1464.9494432862234,-302.4848854064204 L-1464.9460150589962,-302.29927243912476 L-1464.9357451825701,-302.11979386403334 L-1464.918678008773,-301.9472247832523 L-1464.8948872444655,-301.7823104593175 L-1464.8805015002756,-301.7029477715273 L-1464.8644756332287,-301.6257630966789 L-1464.8468269504567,-301.55083979034924 L-1464.827574511652,-301.47825876595067 L-1464.8067391084826,-301.4080984073486 L-1464.7843432421387,-301.34043448421073 L-1464.7604110990326,-301.27534007017977 L-1464.7349685246782,-301.2128854639574 L-1464.7080429957796,-301.15313811338535 L-1464.6796635905573,-301.0961625426051 L-1464.649860957345,-301.0420202823749 L-1464.618667281492,-300.99076980361974 L-1464.586116250603,-300.94246645428586 L-1464.5522430181588,-300.8971623995673 L-1464.517084165551,-300.8549065655706 L-1464.480677662577,-300.81574458647674 L-1464.443062826433,-300.7797187552585 L-1464.404280279256,-300.7468679780065 L-1464.364371904251,-300.71722773191215 L-1464.3233808004607,-300.69083002695436 L-1464.2813512362213,-300.6677033713303 L-1464.238328601354,-300.6478727406679 L-1464.1943593581457,-300.63135955105344 L-1464.149490991174,-300.6181816359034 " />
			<path d="M-1464.149490991174,-300.6181816359034 L-1464.1043578056522,-300.60845701615307 L-1464.0584429343967,-300.6020075968443 L-1464.0117947116055,-300.5988401672265 L-1463.9644622434703,-300.5989580616261 L-1463.9164953564812,-300.6023611559367 L-1463.8679445449761,-300.6090458677496 L-1463.8188609179856,-300.6190051601249 L-1463.7692961454304,-300.6322285489995 L-1463.7193024037292,-300.64870211422317 L-1463.6689323208727,-300.6684085142127 L-1463.6182389210228,-300.69132700420664 L-1463.5672755686946,-300.71743345810376 L-1463.51609591258,-300.7467003938598 L-1463.464753829072,-300.779097002418 L-1463.4133033655494,-300.8145891801414 L-1463.3617986834815,-300.85313956471344 " />
			<path d="M7.838995226037976,56.609452866514744 L-7.838995226037976,68.8034454403516 " />
			<path d="M1130.5245964247238,-894.2066986320101 L1130.7613606132995,-820.3317779001363 " />
			<path d="M1129.180102259318,-816.2236043555145 L1129.2581299520289,-816.2881994398302 L1129.3359475719283,-816.3595336752146 L1129.4133676495537,-816.4374352112465 L1129.4902036731567,-816.5217163763022 L1129.5662705380264,-816.6121741296729 L1129.641384992423,-816.7085905507075 L1129.715366079046,-816.8107333638028 L1129.7880355709783,-816.9183564979753 L1129.8592184010483,-817.0312006796682 L1129.928743083584,-817.1489940573638 L1129.9964421275351,-817.2714528564976 L1130.0621524399753,-817.3982820630965 L1130.1257157190062,-817.5291761344929 L1130.186978835121,-817.6638197354036 L1130.2457942001072,-817.801888497601 L1130.3020201225988,-817.9430498013434 L1130.3555211494238,-818.0869635766857 L1130.4061683919224,-818.2332831227378 L1130.4538398364512,-818.3816559428973 L1130.498420638325,-818.5317245940444 L1130.5398033984868,-818.683127547654 L1130.5778884222432,-818.8355000607496 L1130.6125839594358,-818.9884750546008 L1130.643806425477,-819.1416839990486 L1130.6714806027105,-819.2947578003261 L1130.69553982162,-819.4473276902384 L1130.7159261214397,-819.5990261145572 L1130.7325903897877,-819.749487618491 L1130.7454924809817,-819.898349727098 L1130.7546013127544,-820.0452538185199 L1130.7598949411317,-820.189845987933 L1130.7613606132995,-820.3317779001366 " />
			<path d="M1130.5245964247238,-894.2066986320102 L1130.5205886392214,-894.3912778337819 L1130.5097826998967,-894.56972588598 L1130.4922249124556,-894.741278101453 L1130.4679905156822,-894.9051993431495 L1130.4534009354823,-894.9840774766732 L1130.4371833590249,-895.0607871743339 L1130.4193551648905,-895.1352462348437 L1130.3999354575803,-895.2073748686732 L1130.3789450470445,-895.2770957835534 L1130.356406426381,-895.3443342673004 L1130.332343747734,-895.4090182678775 L1130.3067827964117,-895.4710784706044 L1130.2797509632542,-895.5304483724346 L1130.2512772152843,-895.587064353219 L1130.2213920646639,-895.6408657438808 L1130.1901275359999,-895.6917948914274 L1130.157517132025,-895.7397972207317 L1130.123595797698,-895.7848212930129 L1130.0883998827562,-895.8268188609591 L1130.0519671027644,-895.8657449204273 L1130.0143364986977,-895.9015577586706 L1129.9755483951078,-895.934218999036 L1129.9356443569095,-895.9636936420893 L1129.8946671448416,-895.9899501031196 L1129.8526606696444,-896.0129602459851 L1129.8096699450055,-896.0326994132641 L1129.7657410393235,-896.0491464526768 L1129.720921026342,-896.0622837397527 " />
			<path d="M1129.720921026342,-896.0622837397527 L1129.67530722842,-896.0720884765511 L1129.628900929659,-896.0785660077568 L1129.5817517521955,-896.0817094069621 L1129.5339101125244,-896.0815153129384 L1129.4854271675886,-896.0779839332299 L1129.4363547600772,-896.0711190439321 L1129.38674536299,-896.0609279856532 L1129.3366520235286,-896.047421655666 L1129.2861283063726,-896.0306144962544 L1129.2352282364036,-896.0105244792713 L1129.1840062409362,-895.9871730869203 L1129.1325170915193,-895.9605852887855 L1129.0808158453685,-895.9307895151314 L1129.0289577864944,-895.8978176265027 L1128.9769983665863,-895.8617048796556 L1128.9249931457193,-895.8224898898578 " />
			<path d="M-324.37349027142983,-1264.4469048666342 L-324.40051731186037,-1264.5061661314523 L-324.428982706677,-1264.5626783699495 L-324.45885601790576,-1264.6163811537338 L-324.4901053020914,-1264.6672170585557 L-324.52269714445424,-1264.7151317257124 L-324.55659669462057,-1264.7600739201725 L-324.5917677038882,-1264.8019955853629 L-324.6281725639867,-1264.840851894554 L-324.6657723472924,-1264.8766012987935 L-324.7045268484531,-1264.9092055713352 L-324.7443946273799,-1264.9386298485138 L-324.7853330535587,-1264.9648426670246 L-324.827298351635,-1264.9878159975685 L-324.8702456482231,-1265.0075252748213 L-324.9141290198884,-1265.0239494237035 L-324.95890154225384,-1265.0370708819146 " />
			<path d="M-324.9589015422539,-1265.0370708819146 L-325.0045153401759,-1265.046875618713 L-325.0509216389369,-1265.0533531499186 L-325.0980708164005,-1265.056496549124 L-325.1459124560716,-1265.0563024551004 L-325.19439540100734,-1265.052771075392 L-325.2434678085187,-1265.045906186094 L-325.2930772056058,-1265.0357151278151 L-325.34317054506727,-1265.022208797828 L-325.3936942622232,-1265.0054016384165 L-325.44459433219225,-1264.9853116214333 L-325.49581632765955,-1264.9619602290823 L-325.5473054770765,-1264.9353724309474 L-325.5990067232273,-1264.9055766572933 L-325.65086478210156,-1264.8726047686648 L-325.70282420200965,-1264.8364920218175 L-325.7548294228767,-1264.7972770320198 " />
			<path d="M1128.9249931457193,-895.8224898898579 L1113.2194888328486,-883.5163523489089 " />
			<path d="M-325.75482942287664,-1264.7972770320198 L-341.46033373574727,-1252.491139491071 " />
			<path d="M1113.2194888328484,-883.5163523489088 L1113.1414611401374,-883.451757264593 L1113.063643520238,-883.3804230292086 L1112.9862234426125,-883.3025214931768 L1112.9093874190096,-883.218240328121 L1112.8333205541398,-883.1277825747503 L1112.7582060997433,-883.0313661537157 L1112.6842250131203,-882.9292233406204 L1112.611555521188,-882.8216002064479 L1112.540372691118,-882.708756024755 L1112.4708480085822,-882.5909626470594 L1112.403148964631,-882.4685038479256 L1112.337438652191,-882.3416746413267 L1112.27387537316,-882.2107805699303 L1112.2126122570453,-882.0761369690196 L1112.153796892059,-881.9380682068222 L1112.0975709695674,-881.7969069030798 L1112.0440699427425,-881.6529931277375 L1111.9934227002439,-881.5066735816854 L1111.945751255715,-881.3583007615259 L1111.9011704538414,-881.2082321103788 L1111.8597876936794,-881.0568291567693 L1111.821702669923,-880.9044566436736 L1111.7870071327304,-880.7514816498224 L1111.7557846666894,-880.5982727053746 L1111.7281104894557,-880.4451989040971 L1111.7040512705462,-880.2926290141849 L1111.6836649707266,-880.140930589866 L1111.6670007023786,-879.9904690859322 L1111.6540986111845,-879.8416069773252 L1111.6449897794118,-879.6947028859033 L1111.6396961510345,-879.5501107164902 L1111.6382304788667,-879.4081788042866 " />
			<path d="M-341.46033373574744,-1252.491139491071 L-341.54561166258634,-1252.420190750494 L-341.6306177612488,-1252.3412094163466 L-341.7151073842227,-1252.2544227968713 L-341.79883737041257,-1252.1600806639183 L-341.8815667449573,-1252.0584545341023 L-341.96305741275563,-1251.9498368873776 L-342.0430748437037,-1251.8345403252804 L-342.1213887476727,-1251.7128966712626 L-342.1977737372836,-1251.5852560157036 L-342.272009976572,-1251.4519857083503 L-342.343883813676,-1251.3134693010852 L-342.4131883957259,-1251.1701054440637 L-342.47972426416703,-1251.0223067383988 L-342.5432999288011,-1250.8704985486968 L-342.60373241889505,-1250.7151177788564 L-342.6608478097706,-1250.5566116146608 " />
			<path d="M1111.8749946674425,-805.5332580724129 L1111.8790024529449,-805.3486788706412 L1111.8898083922695,-805.1702308184431 L1111.9073661797106,-804.9986786029701 L1111.931600576484,-804.8347573612735 L1111.946190156684,-804.7558792277499 L1111.9624077331414,-804.6791695300892 L1111.9802359272758,-804.6047104695793 L1111.999655634586,-804.5325818357499 L1112.0206460451218,-804.4628609208697 L1112.0431846657852,-804.3956224371227 L1112.0672473444322,-804.3309384365456 L1112.0928082957546,-804.2688782338187 L1112.119840128912,-804.2095083319884 L1112.148313876882,-804.1528923512041 L1112.1781990275024,-804.0990909605423 L1112.2094635561664,-804.0481618129957 L1112.2420739601412,-804.0001594836914 L1112.2759952944682,-803.9551354114102 L1112.31119120941,-803.913137843464 L1112.3476239894019,-803.8742117839957 L1112.3852545934685,-803.8383989457525 L1112.4240426970584,-803.8057377053871 L1112.4639467352567,-803.7762630623338 L1112.5049239473246,-803.7500066013035 L1112.5469304225219,-803.726996458438 L1112.5899211471608,-803.707257291159 L1112.6338500528427,-803.6908102517463 L1112.6786700658242,-803.6776729646704 " />
			<path d="M1112.6786700658242,-803.6776729646704 L1112.7242838637462,-803.667868227872 L1112.7706901625072,-803.6613906966663 L1112.8178393399708,-803.658247297461 L1112.8656809796419,-803.6584413914846 L1112.9141639245777,-803.6619727711932 L1112.963236332089,-803.668837660491 L1113.0128457291762,-803.6790287187699 L1113.0629390686377,-803.6925350487571 L1113.1134627857937,-803.7093422081687 L1113.1643628557626,-803.7294322251518 L1113.21558485123,-803.7527836175028 L1113.267074000647,-803.7793714156376 L1113.3187752467977,-803.8091671892917 L1113.3706333056718,-803.8421390779204 L1113.42259272558,-803.8782518247675 L1113.4745979464471,-803.9174668145653 " />
			<path d="M1129.1801022593177,-816.2236043555143 L1113.474597946447,-803.9174668145653 " />
			<path d="M9.426607570863101,-21.48558194923584 L9.426607546400888,52.508028043422186 " />
			<path d="M1112.1942931177591,-879.1941252236843 L1112.194293093297,-805.2005152310262 " />
			<path d="M1111.380525218109,-803.3802081282068 L1111.4376511521534,-803.4264053582224 L1111.4930157232986,-803.4747629606495 L1111.5465706972136,-803.5252388057191 L1111.598269416112,-803.577788918222 L1111.648066839401,-803.6323675158204 L1111.6959195829213,-803.6889270489336 L1111.7417859567436,-803.7474182421647 L1111.7856260014894,-803.8077901372294 L1111.8274015231443,-803.8699901373515 L1111.8670761263338,-803.933964053086 L1111.90461524603,-803.9996561495299 L1111.939986177666,-804.0670091948788 L1111.9731581056287,-804.1359645102881 L1112.0041021301051,-804.2064620209948 L1112.0327912922608,-804.2784403086555 L1112.0592005977264,-804.3518366648545 " />
			<path d="M1109.4159147901712,-882.7663253676837 L1081.9794287958791,-889.7343190321942 " />
			<path d="M758.5268770635837,-892.9938313287396 L758.6209094467002,-893.0718507955487 L758.7099823800886,-893.155767486247 L758.7938812792504,-893.2453792381763 L758.872404024389,-893.3404701687772 L758.9453614473333,-893.4408111956689 L759.0125777872613,-893.5461605885286 L759.0738911141227,-893.6562645514416 L759.1291537187426,-893.7708578343172 L759.178232468666,-893.8896643718998 L759.2210091288856,-894.0123979488342 L759.2573806466801,-894.1387628891831 L759.2872593998775,-894.2684547687372 L759.310573407944,-894.401161148399 L759.3272665053923,-894.536562326876 L759.3372984770886,-894.6743321108696 L759.3406451551342,-894.814138600903 " />
			<path d="M759.3406451551342,-968.807748601954 L759.3372984770886,-968.9492549919471 L759.3272665053923,-969.0921203806118 L759.310573407944,-969.2360005927135 L759.2872593998775,-969.3805490082185 L759.2573806466801,-969.5254173973332 L759.2210091288856,-969.6702567594191 L759.178232468666,-969.8147181637665 L759.1291537187426,-969.9584535901992 L759.0738911141227,-970.1011167674849 L759.0125777872613,-970.2423640075338 L758.9453614473333,-970.3818550333729 L758.872404024389,-970.5192537989029 L758.7938812792504,-970.6542292984631 L758.7099823800886,-970.7864563642523 L758.6209094467002,-970.9156164496875 L758.5268770635837,-971.0413983968098 L758.4281117629862,-971.1634991858914 L758.3248514791676,-971.2816246654364 L758.2173449751963,-971.3954902608184 L758.1058512436567,-971.5048216598443 L757.9906388827139,-971.6093554735978 L757.8719854490367,-971.7088398709653 L757.7501767891398,-971.8030351853199 L757.625506350754,-971.8917144918987 L757.4982744758851,-971.9746641544849 L757.368787677264,-972.0516843400756 L757.2373578999301,-972.1225895002975 L757.1043017697291,-972.1872088184093 L756.9699398305329,-972.2453866208135 L756.8345957720217,-972.2969827520885 L756.6985956498872,-972.3418729126346 L756.5622671003359,-972.3799489581232 " />
			<path d="M756.5622671003359,-972.3799489581234 L729.1257838092031,-979.3479447146015 " />
			<path d="M729.125783809203,-979.3479447146015 L728.9894552596517,-979.379114916504 L728.8534551375172,-979.4033041830737 L728.718111079006,-979.4204542402489 L728.5837491398098,-979.4305237720396 L728.4506930096088,-979.4334885200617 L728.3192632322749,-979.4293413419775 L728.1897764336538,-979.4180922287023 L728.0625445587849,-979.3997682803354 L727.9378741203991,-979.3744136408732 L727.8160654605022,-979.342089391863 L727.697412026825,-979.3028734052522 L727.5821996658822,-979.2568601557871 L727.4707059343426,-979.2041604934161 L727.3631994303713,-979.1449013762418 L727.2599391465527,-979.079225564668 L727.1611738459552,-979.0072912774774 " />
			<path d="M405.6728641042034,-982.607548905725 L405.76689648731997,-982.6855683725341 L405.85596942070833,-982.7694850632324 L405.9398683198702,-982.8590968151617 L406.0183910650087,-982.9541877457626 L406.09134848795304,-983.0545287726543 L406.1585648278811,-983.159878165514 L406.21987815474245,-983.269982128427 L406.27514075936233,-983.3845754113026 L406.32421950928574,-983.5033819488852 L406.36699616950534,-983.6261155258196 L406.40336768729986,-983.7524804661685 L406.43324644049716,-983.8821723457227 L406.4565604485638,-984.0148787253844 L406.47325354601213,-984.1502799038615 L406.48328551770834,-984.288049687855 L406.48663219575394,-984.4278561778884 " />
			<path d="M406.48663219575394,-1058.4214661789395 L406.48328551770834,-1058.5629725689325 L406.47325354601213,-1058.7058379575974 L406.4565604485638,-1058.849718169699 L406.43324644049716,-1058.994266585204 L406.40336768729986,-1059.1391349743187 L406.36699616950534,-1059.2839743364045 L406.32421950928574,-1059.428435740752 L406.27514075936233,-1059.5721711671845 L406.21987815474245,-1059.7148343444703 L406.1585648278811,-1059.8560815845192 L406.09134848795304,-1059.9955726103583 L406.0183910650087,-1060.1329713758882 L405.9398683198702,-1060.2679468754484 L405.85596942070833,-1060.4001739412377 L405.76689648731997,-1060.529334026673 L405.6728641042034,-1060.6551159737953 L405.57409880360586,-1060.7772167628768 L405.4708385197873,-1060.895342242422 L405.363332015816,-1061.0092078378038 L405.25183828427646,-1061.1185392368297 L405.13662592333367,-1061.2230730505833 L405.01797248965653,-1061.3225574479509 L404.8961638297596,-1061.4167527623054 L404.7714933913737,-1061.5054320688841 L404.6442615165048,-1061.5883817314702 L404.51477471788365,-1061.665401917061 L404.3833449405498,-1061.736307077283 L404.2502888103488,-1061.8009263953948 L404.11592687115257,-1061.859104197799 L403.9805828126414,-1061.910700329074 L403.84458269050697,-1061.9555904896201 L403.70825414095566,-1061.9936665351088 " />
			<path d="M403.7082541409557,-1061.9936665351088 L376.27177084982276,-1068.961662291587 " />
			<path d="M376.2717708498228,-1068.9616622915871 L376.1354423002715,-1068.9928324934895 L375.9994421781371,-1069.0170217600594 L375.8640981196259,-1069.0341718172344 L375.72973618042965,-1069.0442413490252 L375.59668005022866,-1069.0472060970471 L375.4652502728948,-1069.043058918963 L375.3357634742737,-1069.0318098056878 L375.20853159940475,-1069.0134858573208 L375.0838611610189,-1068.9881312178586 L374.96205250112195,-1068.9558069688485 L374.8433990674448,-1068.9165909822377 L374.728186706502,-1068.8705777327725 L374.61669297496246,-1068.8178780704018 L374.50918647099115,-1068.7586189532274 L374.4059261871726,-1068.6929431416536 L374.3071608865751,-1068.6210088544628 " />
			<path d="M53.63261923637401,-1148.0351837559251 L53.63261923637401,-1074.0415737548738 " />
			<path d="M52.81885114482336,-1072.2212664827105 L52.91288352793992,-1072.2992859495196 L53.001956461328305,-1072.3832026402179 L53.08585536049013,-1072.472814392147 L53.164378105628636,-1072.567905322748 L53.237335528573,-1072.6682463496395 L53.30455186850103,-1072.7735957424993 L53.36586519536239,-1072.8836997054123 L53.42112779998226,-1072.998292988288 L53.470206549905676,-1073.1170995258706 L53.51298321012528,-1073.2398331028048 L53.549354727919805,-1073.3661980431539 L53.57923348111712,-1073.495889922708 L53.602547489183706,-1073.6285963023697 L53.61924058663206,-1073.7639974808467 L53.629272558328296,-1073.9017672648404 L53.632619236373884,-1074.0415737548738 " />
			<path d="M53.632619236373884,-1148.035183755925 L53.629272558328296,-1148.176690145918 L53.61924058663206,-1148.3195555345828 L53.602547489183706,-1148.4634357466844 L53.57923348111712,-1148.6079841621895 L53.549354727919805,-1148.7528525513042 L53.51298321012528,-1148.89769191339 L53.470206549905676,-1149.0421533177375 L53.42112779998226,-1149.18588874417 L53.365865195362396,-1149.3285519214558 L53.30455186850103,-1149.4697991615046 L53.237335528573,-1149.6092901873437 L53.164378105628636,-1149.7466889528737 L53.08585536049013,-1149.8816644524338 L53.001956461328305,-1150.013891518223 L52.91288352793992,-1150.1430516036585 L52.81885114482336,-1150.2688335507808 L52.720085844225835,-1150.3909343398623 L52.61682556040729,-1150.5090598194074 L52.509319056435984,-1150.6229254147893 L52.39782532489644,-1150.7322568138152 L52.28261296395363,-1150.8367906275687 L52.163959530276486,-1150.9362750249363 L52.04215087037954,-1151.0304703392908 L51.91748043199366,-1151.1191496458696 L51.79024855712477,-1151.2020993084557 L51.66076175850361,-1151.2791194940464 L51.52933198116978,-1151.3500246542685 L51.396275850968756,-1151.4146439723802 L51.26191391177253,-1151.4728217747845 L51.12656985326135,-1151.5244179060594 L50.990569731126904,-1151.5693080666056 L50.85424118157564,-1151.6073841120942 " />
			<path d="M50.85424118157565,-1151.6073841120942 L23.417757890442736,-1158.5753798685723 " />
			<path d="M23.417757890442772,-1158.5753798685723 L23.281429340891485,-1158.6065500704747 L23.145429218757037,-1158.6307393370446 L23.010085160245858,-1158.6478893942196 L22.875723221049633,-1158.6579589260105 L22.74266709084861,-1158.6609236740323 L22.611237313514774,-1158.6567764959482 L22.481750514893623,-1158.645527382673 L22.35451864002473,-1158.627203434306 L22.229848201638855,-1158.6018487948438 L22.108039541741906,-1158.5695245458337 L21.989386108064757,-1158.530308559223 L21.87417374712195,-1158.4842953097577 L21.7626800155824,-1158.431595647387 L21.655173511611096,-1158.3723365302126 L21.551913227792554,-1158.3066607186388 L21.453147927195044,-1158.234726431448 " />
			<path d="M-310.33452922927944,-1240.4712834444056 L-310.3345292263728,-1166.4776734426162 " />
			<path d="M-311.1482975087594,-1164.6573660219085 L-311.05426510513576,-1164.7353854798362 L-310.9651921519297,-1164.8193021644845 L-310.8812932337602,-1164.9089139131415 L-310.80277047053823,-1165.0040048431822 L-310.72981303054246,-1165.1043458721497 L-310.6625966746957,-1165.209695269634 L-310.6012833331415,-1165.3197992396235 L-310.5460207151403,-1165.4343925319201 L-310.4969419532243,-1165.5531990811521 L-310.45416528246994,-1165.6759326718393 L-310.4177937556588,-1165.8022976279108 L-310.3879149950144,-1165.9319895250162 L-310.3646009811127,-1166.0646959239098 L-310.3479078794742,-1166.2000971231444 L-310.33787590525657,-1166.3378669292608 L-310.33452922637264,-1166.4776734426162 " />
			<path d="M-310.3345292292794,-1240.4712834444056 L-310.33787590703946,-1240.6127898346263 L-310.3479078778688,-1240.7556552239705 L-310.36460097387106,-1240.8995354372018 L-310.3879149799157,-1241.0440838542843 L-310.41779373052015,-1241.1889522454198 L-310.4541652451572,-1241.3337916099656 L-310.4969419016622,-1241.4782530172058 L-310.5460206473229,-1241.621988446957 L-310.6012832471422,-1241.7646516279794 L-310.6625965686767,-1241.905898872174 L-310.7298129027645,-1242.0453899025576 L-310.80277031936913,-1242.1827886730202 L-310.8812930576839,-1242.317764177889 L-310.9651919495542,-1242.4499912493507 L-311.05426487520106,-1242.5791513408076 L-311.1482972501446,-1242.704933294287 L-311.2470625421573,-1242.8270340900453 L-311.350322817,-1242.945159576571 L-311.457829311626,-1243.0590251792205 L-311.5693230334733,-1243.1683565857836 L-311.68453538440025,-1243.2728904073253 L-311.80318880776207,-1243.3723748127138 L-311.9249974570691,-1243.4665701353024 L-312.04966788461587,-1243.5552494503088 L-312.1768997484227,-1243.6381991214953 L-312.3063865357855,-1243.715219315839 L-312.4378163016917,-1243.786124484945 L-312.5708724203235,-1243.850743812051 L-312.7052343478366,-1243.9089216235375 L-312.840578394579,-1243.960517763961 L-312.97657850488736,-1244.0054079336999 L-313.11290704258363,-1244.0434839884033 " />
			<path d="M-313.1129070425834,-1244.0434839884035 L-340.5493879478515,-1251.0114815994068 " />
			<path d="M-340.5493879478516,-1251.0114815994068 L-340.685716462446,-1251.0426518058282 L-340.82171654981886,-1251.066841079273 L-340.95706057395864,-1251.0839911456828 L-341.09142247936705,-1251.0940606890597 L-341.22447857655493,-1251.0970254509994 L-341.35590832183857,-1251.0928782891335 L-341.485395089557,-1251.0816291943347 L-341.612626934851,-1251.0633052666485 L-341.7372973451649,-1251.037950650007 L-341.85910597866234,-1251.005626425881 L-341.9777593877755,-1250.966410466132 L-342.09297172614595,-1250.9203972454097 L-342.20446543725336,-1250.8676976135555 L-342.3119719230729,-1250.8084385285551 L-342.41523219115174,-1250.742762750687 L-342.5139974785439,-1250.6708284985984 " />
			<path d="M7.8389952260379765,-68.8034454403516 L-1447.6838082314057,-438.46003044541663 " />
			<path d="M-7.8389952260379765,-56.609452866514744 L-1463.3617986834815,-426.2660378715798 " />
			<path d="M-9.426639828779845,-52.50803764276491 L-1464.9494432862234,-422.16462264782996 " />
			<path d="M-9.426639828779845,67.17169959864466 L-1464.9494432862234,-302.4848854064204 " />
			<path d="M1128.9249931457193,-895.8224898898577 L-325.7548294228766,-1264.7972770320198 " />
			<path d="M1113.2194888328484,-883.5163523489088 L-341.46033373574755,-1252.491139491071 " />
			<path d="M1079.261555463311,-887.6204167049552 L753.7429512810272,-970.1871477653278 " />
			<path d="M726.2979153951287,-977.1484915036548 L406.33743373800496,-1058.3054229340237 " />
			<path d="M372.1827089553411,-1066.9686573523923 L53.63261923637401,-1147.7678474728905 " />
			<path d="M19.218703131630946,-1156.4968249237872 L-310.3345292292645,-1240.0869262477088 " />
			<path d="M1006.544434764373,-832.2500106641794 L687.7354981186404,-913.114856462459 " />
			<path d="M653.5807733359768,-921.7780908808274 L406.48663219575394,-984.4527129638528 " />
			<path d="M300.6167675122658,-1011.3062584522227 L53.63129203939525,-1073.9533178435415 " />
			<path d="M-52.347238311444244,-1100.8344260236177 L-310.3416858062974,-1166.2738752215762 " />
			<path d="M9.4266075708631,-21.485581949235847 L1112.1942931177596,-879.1941252236846 " />
			<path d="M9.426607546400891,52.50802804342218 L1111.9098352906542,-804.9792701848345 " />
			<path d="M9.426639828779845,-27.218768969387416 L1109.4159147901714,-882.7663253676837 " />
			<path d="M9.426639828779848,-55.52626028436036 L1081.9794287958794,-889.7343190321943 " />
			<path d="M-297.5346174849948,-146.7936554374093 L759.3014395617157,-968.7772553626287 " />
			<path d="M-225.81773394551448,-128.5798437448429 L759.3406451551342,-894.8141386009032 " />
			<path d="M-303.09137359459135,-148.20489508429097 L756.5622671003359,-972.3799489581236 " />
			<path d="M-330.52785688572425,-155.17289084076918 L729.1257838092031,-979.3479447146017 " />
			<path d="M-650.3886304443749,-236.40737301439478 L406.48663219575405,-1058.4214661789397 " />
			<path d="M-578.6717469048946,-218.19356132182835 L406.48663219575405,-984.4278561778887 " />
			<path d="M-655.9453865539715,-237.81861266127643 L403.7082541409558,-1061.993666535109 " />
			<path d="M-683.3818698451043,-244.78660841775462 L376.27177084982293,-1068.9616622915871 " />
			<path d="M-1003.242643403755,-326.02109059138013 L53.63261923637401,-1148.0351837559251 " />
			<path d="M-931.5257598642747,-307.8072788988137 L53.63261923637401,-1074.041573754874 " />
			<path d="M-1008.7993995133517,-327.4323302382619 L50.85424118157562,-1151.6073841120945 " />
			<path d="M-1036.2358828044844,-334.40032599474006 L23.417757890442772,-1158.5753798685726 " />
			<path d="M-1367.210071867009,-418.45726289950824 L-310.3345292292797,-1240.4712834444053 " />
			<path d="M-1295.4931692254368,-400.24344635561675 L-310.334529226373,-1166.477673442616 " />
			<path d="M-1372.7668287165254,-419.86850273430605 L-313.11290704258386,-1244.0434839884033 " />
			<path d="M-1400.2033120065466,-426.83649849050187 L-340.549387947852,-1251.0114815994064 " />
			<path d="M-1446.8961159237133,-438.6949883742267 L8.626687533730284,-69.03840336916167 " />
			<path d="M-1464.149490991174,-300.6181816359034 L-8.626687533730284,69.03840336916167 " />
			<path d="M-324.95890154225435,-1265.037070881915 L1129.7209210263422,-896.0622837397526 " />
			<path d="M-310.9967970575017,-1164.7883065842393 L-53.948650190854096,-1099.5888834507434 " />
			<path d="M53.06185518492339,-1072.4460181752193 L299.0153556328564,-1010.0607158793484 " />
			<path d="M405.9957283110268,-982.9254936641825 L651.979361456567,-920.5325483079533 " />
			<path d="M758.9217832991242,-893.4069521983228 L1004.9430233684535,-831.0044679686695 " />
			<path d="M1111.8403517328863,-803.890309672525 L1112.6786700658242,-803.6776729646706 " />
			<path d="M1111.3805252181085,-803.3802081282068 L9.284045948708133,53.806285610285286 " />
			<path d="M1080.014818341584,-889.3936652142064 L9.426639828779848,-56.71363743149798 " />
			<path d="M758.5268770635837,-892.9938313287398 L-224.66689207381728,-128.28756644409438 " />
			<path d="M727.1611738459553,-979.0072912774776 L-331.67869875742144,-155.46516814151767 " />
			<path d="M405.67286410420354,-982.6075489057253 L-577.5209050331974,-217.90128402107985 " />
			<path d="M374.30716088657516,-1068.621008854463 L-684.5327117168016,-245.07888571850316 " />
			<path d="M52.818851144823384,-1072.2212664827105 L-930.3749179925775,-307.5150015980653 " />
			<path d="M21.453147927195005,-1158.2347264314485 L-1037.3867246761818,-334.6926032954886 " />
			<path d="M-311.14829750875947,-1164.6573660219085 L-1294.3423268304243,-399.9511689219629 " />
			<path d="M-342.51399747854384,-1250.6708284985982 L-1401.3541536614136,-427.1287757361824 " />

       </g>
    </g>
    
</svg>
