<?xml version="1.0" encoding="UTF-8" standalone="no"?>
<svg
   xmlns:svg="http://www.w3.org/2000/svg"
   xmlns="http://www.w3.org/2000/svg"
   width="480.0"
   height="480.0"

>
    <g transform="scale(0.13865058457539226, -0.13865058457539226)   translate(81.55038911281137,-1012.5779218314068)" stroke-width="1.0"  fill="none">
       <!-- hidden lines -->
       <g  stroke="rgb(0,0,0)" fill="none" stroke-dasharray="1.0,1.0" >
			<path d="M1464.9494432862236,-377.66578454109407 L1464.9494432862236,-302.48488540642023 " />
			<path d="M1463.3617986834818,-300.8531395647133 L1463.4133033655496,-300.81458918014124 L1463.4647538290722,-300.7790970024178 L1463.5160959125803,-300.7467003938596 L1463.5672755686949,-300.7174334581036 L1463.618238921023,-300.69132700420647 L1463.668932320873,-300.6684085142125 L1463.7193024037294,-300.648702114223 L1463.7692961454306,-300.6322285489993 L1463.8188609179858,-300.61900516012474 L1463.8679445449764,-300.60904586774944 L1463.9164953564814,-300.60236115593653 L1463.9644622434705,-300.5989580616259 L1464.0117947116057,-300.59884016722634 L1464.058442934397,-300.60200759684415 L1464.1043578056524,-300.6084570161529 L1464.1494909911742,-300.6181816359032 " />
			<path d="M1464.1494909911742,-300.6181816359032 L1464.194359358146,-300.63135955105327 L1464.2383286013542,-300.6478727406677 L1464.2813512362216,-300.6677033713301 L1464.3233808004609,-300.6908300269542 L1464.3643719042511,-300.717227731912 L1464.4042802792562,-300.7468679780063 L1464.4430628264333,-300.77971875525833 L1464.4806776625771,-300.81574458647657 L1464.5170841655513,-300.85490656557045 L1464.552243018159,-300.89716239956715 L1464.5861162506033,-300.9424664542857 L1464.6186672814922,-300.99076980361957 L1464.6498609573453,-301.0420202823747 L1464.6796635905575,-301.09616254260493 L1464.7080429957798,-301.1531381133852 L1464.7349685246784,-301.2128854639572 L1464.7604110990328,-301.2753400701796 L1464.784343242139,-301.34043448421056 L1464.8067391084828,-301.4080984073484 L1464.8275745116523,-301.4782587659505 L1464.846826950457,-301.5508397903491 L1464.864475633229,-301.6257630966787 L1464.8805015002758,-301.70294777152714 L1464.8948872444657,-301.78231045931733 L1464.9186780087732,-301.9472247832521 L1464.9357451825704,-302.11979386403317 L1464.9460150589964,-302.2992724391246 L1464.9494432862236,-302.4848854064202 " />
			<path d="M1446.3159913428897,-438.1126483784918 L1446.2899277049385,-438.04993501715524 L1446.2654078683026,-437.9845009599885 L1446.2424589900847,-437.9164186789013 L1446.221106487462,-437.8457635788607 L1446.2013740095358,-437.77261391437577 L1446.1832834111383,-437.6970507028265 L1446.1668547286279,-437.6191576347324 L1446.152106157697,-437.53902098106056 L1446.1277128111617,-437.3723743270378 L1446.110211409639,-437.19784881861705 L1446.0996794668185,-437.0162174290953 L1446.0961636286638,-436.82828460370956 " />
			<path d="M1446.0961636286638,-436.8282846037096 L1446.0961636286638,-317.1485473623 " />
			<path d="M1446.0961636286638,-317.14854736229995 L1446.0980760161185,-317.006403509822 L1446.1038085713735,-316.86162726940563 L1446.113347484201,-316.71456741969484 L1446.1266697745248,-316.5655782407485 L1446.1437433477804,-316.41501866054864 L1446.1645270722345,-316.2632513903114 L1446.1889708780743,-316.110642050684 L1446.2170158780305,-315.9575582909327 L1446.248594509242,-315.8043689032432 L1446.2836306960198,-315.6514429342683 L1446.3220400331215,-315.49914879606195 L1446.3637299890897,-315.3478533785425 L1446.408600129169,-315.1979211656227 L1446.4565423572612,-315.04971335713594 L1446.5074411763403,-314.9035869986743 L1446.5611739666926,-314.7598941214346 L1446.6176112813198,-314.61898089414404 L1446.6766171577876,-314.48118678910964 L1446.7380494457711,-314.3468437643999 L1446.801760149508,-314.21627546412833 L1446.8675957843325,-314.0897964387667 L1446.9353977464339,-313.9677113873654 L1447.0050026949464,-313.8503144235066 L1447.0762429454526,-313.737888366759 L1447.148946873949,-313.6307040613408 L1447.222939330304,-313.5290197236318 L1447.2980420602091,-313.4330803201081 L1447.3740741346096,-313.34311697719613 L1447.4508523855789,-313.2593464244688 L1447.5281918475853,-313.18197047252505 L1447.6059062030906,-313.1111755268104 L1447.6838082314057,-313.0471321385501 " />
			<path d="M1463.3617986834815,-300.8531395647133 L1447.6838082314057,-313.0471321385502 " />
			<path d="M2568.325077589671,480.9112465977015 L2568.29827265266,480.974670395222 L2568.2730597428936,481.0409266059098 L2568.2494678106154,481.10993915233047 L2568.2275239448136,481.18162879213924 L2568.2072533421147,481.2559132090699 L2568.188679277853,481.3327071074526 L2568.1718230793454,481.41192231015333 L2568.156704101401,481.49346785982107 L2568.1433397040983,481.5772501233285 L2568.1317452328526,481.66317289928395 L2568.113917273489,481.8410430072428 L2568.103302082265,482.026261474325 L2568.099948399953,482.217977850392 " />
			<path d="M1111.7368066860183,849.8835167684019 L1111.8453476737657,924.0270081929714 " />
			<path d="M2568.099948399953,482.217977850392 L2568.2084893877,556.3614692749615 " />
			<path d="M2568.2084893877,556.3614692749613 L2568.2106047116145,556.5038843337937 L2568.2165329304003,556.6489037126688 L2568.22625976246,556.7961780472008 L2568.239761775003,556.9453525406179 L2568.257006440498,557.0960678184996 L2568.277952215036,557.2479607945402 L2568.302548638411,557.4006655452561 L2568.330736455685,557.5538141915276 L2568.362447759937,557.7070377848517 L2568.397606155858,557.8599671961709 L2568.436126943792,558.0122340051387 L2568.4779173237866,558.1634713876751 L2568.522876619157,558.3133149996788 L2568.5708965190224,558.4614038547637 L2568.6218613392375,558.6073811939069 L2568.675648301087,558.7508953449122 L2568.7321278270683,558.8916005696196 L2568.7911638530563,559.0291578968184 L2568.8526141560933,559.1632359388587 L2568.916330697017,559.2935116899936 L2568.9821599771,559.4196713045275 L2569.0499434078392,559.5414108528989 L2569.119517693014,559.6584370538726 L2569.1907152220774,559.7704679810803 L2569.2633644739453,559.8772337422054 L2569.337290430207,559.9784771291778 L2569.412314996758,560.0739542378105 L2569.488257432847,560.1634350553861 L2569.564934786493,560.2467040147773 L2569.6421623352353,560.3235605137673 L2569.7197540311445,560.3938193983186 L2569.797522949029,560.4573114086239 " />
			<path d="M2585.447705212033,572.5389300933551 L2569.7975229490294,560.4573114086239 " />
			<path d="M12.20505314608496,69.33265302434229 L12.068724636073549,69.3638232314364 L11.93272455325517,69.38801250586135 L11.797380533615957,69.40516257355864 L11.663018632628992,69.41523211852888 L11.529962539758404,69.4181968823655 L11.398532798663403,69.41404972269554 L11.269046034980818,69.40280063038601 L11.141814193546502,69.38447670547521 L11.017143786893184,69.35912209188633 L10.895335156835223,69.3267978710809 L10.776681750919133,69.28758191490824 L10.661469415483019,69.2415686980055 L10.54997570702798,69.18886907019997 L10.442469223560428,69.12960998946234 L10.339208957516233,69.06393421605385 L10.240443671825492,68.99199996860455 " />
			<path d="M1114.9734041706245,927.0410270832331 L1114.837075660613,927.0721972903272 L1114.7010755777947,927.096386564752 L1114.5657315581554,927.1135366324494 L1114.4313696571685,927.1236061774196 L1114.298313564298,927.1265709412562 L1114.1668838232029,927.1224237815862 L1114.0373970595203,927.1111746892767 L1113.9101652180861,927.092850764366 L1113.7854948114327,927.0674961507771 L1113.6636861813747,927.0351719299716 L1113.5450327754586,926.995955973799 L1113.4298204400225,926.9499427568962 L1113.3183267315676,926.8972431290907 L1113.2108202481,926.8379840483531 L1113.1075599820558,926.7723082749446 L1113.008794696365,926.7003740274953 " />
			<path d="M1113.008794696365,926.7003740274953 L1112.91476229005,926.6223545707902 L1112.8256893342393,926.5384378869932 L1112.7417904135673,926.448826138823 L1112.6632676479603,926.3537352089129 L1112.5903102057107,926.25339417973 L1112.5230938477546,926.1480447816947 L1112.461780504248,926.037940810832 L1112.4065178844623,925.9233475173531 L1112.3574391209402,925.8045409666452 L1112.3146624487667,925.6818073742047 L1112.278290920732,925.5554424161195 L1112.2484121590658,925.4257505167583 L1112.22509814435,925.2930441153862 L1112.2084050421097,925.1576429134705 L1112.1983730675056,925.0198731044912 L1112.1950263884526,924.8800665881126 " />
			<path d="M1112.1950263597637,850.886456592167 L1112.1974711140272,850.7656077222263 L1112.2048010745277,850.6437297468544 L1112.2170033416858,850.5210371521501 L1112.234056441427,850.3977458578144 L1112.2559303629735,850.2740728371654 L1112.2825866116584,850.1502357352997 L1112.3139782766696,850.0264524860712 L1112.350050113606,849.9029409285614 L1112.3907386416984,849.7799184237174 L1112.435972255527,849.6576014718297 L1112.4856713510342,849.5362053315273 L1112.5397484656155,849.4159436409545 L1112.598108432041,849.2970280418031 L1112.6606485459336,849.1796678068545 L1112.7272587465134,849.0640694716939 L1112.7978218102865,848.9504364712393 L1112.8722135573412,848.8389687817286 L1112.9503030698836,848.7298625687918 L1113.031952922634,848.6233098422314 L1113.1170194246724,848.5194981181147 L1113.205352872313,848.4186100887754 L1113.296797812558,848.3208233013028 L1113.3911933166723,848.2263098450882 L1113.4883732633907,848.1352360489734 L1113.5881666312666,848.0477621885389 L1113.6903977996428,847.9640422040434 L1113.7948868577157,847.8842234295134 L1113.9014499211505,847.8084463334587 L1114.0098994556884,847.7368442716695 L1114.1200446071782,847.6695432525311 L1114.2316915374486,847.6066617152693 L1114.3446437654334,847.5483103215158 " />
			<path d="M41.60614317740566,-17.021462850351764 L41.70017558372061,-16.943443393646717 L41.789248539531386,-16.859526709849632 L41.87314746020334,-16.76991496167949 L41.951670225810425,-16.674824031769443 L42.02462766806001,-16.574483002586422 L42.091844026016034,-16.46913360455121 L42.15315736952266,-16.35902963368847 L42.20841998930836,-16.24443634020964 L42.2574987528306,-16.125629789501694 L42.30027542500395,-16.002896197061226 L42.336646953038866,-15.876531238975936 L42.366525714704935,-15.746839339614787 L42.38983972942067,-15.614132938242761 L42.40653283166101,-15.478731736327003 L42.416564806265114,-15.34096192734769 L42.41991148531819,-15.201155410969077 " />
			<path d="M1143.1989920833123,840.2638980615791 L1143.2814161242677,840.26960000236 L1143.3629979002822,840.2781463464157 L1143.443658569136,840.2895288343924 L1143.5233201787858,840.3037364660319 L1143.6019057426975,840.3207555108015 L1143.6793393142498,840.3405695211648 L1143.7555460601282,840.3631593484753 L1143.8304523326474,840.3885031614835 L1143.9039857409243,840.416576467434 L1143.9760752208388,840.4473521357364 L1144.0466511037114,840.4808004241846 L1144.115645183632,840.5168890077 L1144.1829907833762,840.5555830095717 L1144.2486228188427,840.5968450351616 L1144.312477861952,840.640635208043 L1144.3744942019453,840.6869112085388 " />
			<path d="M1144.3744942019453,840.6869112085388 L1144.4685266082602,840.7649306652439 L1144.5575995640709,840.848847349041 L1144.641498484743,840.9384590972111 L1144.7200212503499,841.0335500271212 L1144.7929786925995,841.1338910563042 L1144.8601950505556,841.2392404543394 L1144.9215083940621,841.3493444252022 L1144.9767710138478,841.463937718681 L1145.02584977737,841.582744269389 L1145.0686264495434,841.7054778618294 L1145.1049979775783,841.8318428199146 L1145.1348767392444,841.9615347192758 L1145.15819075396,842.0942411206479 L1145.1748838562005,842.2296423225637 L1145.1849158308046,842.3674121315429 L1145.1882625098576,842.5072186479216 " />
			<path d="M42.41991148531819,-15.201155410969065 L42.419911514007175,58.792454584976454 " />
			<path d="M1145.1882625098579,842.5072186479216 L1145.188262538547,916.5008286438671 " />
			<path d="M42.41991151400718,58.792454584976454 L42.41656483634585,58.933960975217545 L42.40653286569242,59.07682636464519 L42.38983976994288,59.22070657802273 L42.366525764227035,59.365254995313705 L42.336647014026724,59.510123386719926 L42.300275499868256,59.65496275159752 L42.257498843914995,59.79942415923007 L42.20842009887792,59.943159589433265 L42.15315749975264,60.085822770966 L42.09184417898085,60.22707001572815 L42.024627845722726,60.366561046735285 L41.95167043001253,60.503959817875746 L41.873147692655024,60.638935323475124 L41.78924880180229,60.771162395717994 L41.70017587723105,60.900322488005585 L41.60614350341848,61.02610444236249 L41.507378212589344,61.14820523904347 L41.40411793898008,61.266330726534555 L41.29661144563434,61.380196330189804 L41.18511772511104,61.489527737796564 L41.069905375548636,61.59406156041761 L40.951251953588624,61.69354596691816 L40.82944330571731,61.78774129064916 L40.70477287963661,61.8764206068252 L40.57754101732277,61.959370279206226 L40.44805423147633,62.03639047476593 L40.31662446710607,62.107295645107044 L40.183568350026256,62.17191497346366 L40.049206424077276,62.23009278621377 L39.913862378907446,62.28168892791069 L39.77786227017633,62.32657909892979 L39.641533734058065,62.364655154917166 " />
			<path d="M1145.1882625385467,916.5008286438671 L1145.1849158608854,916.6423350341081 L1145.174883890232,916.7852004235358 L1145.1581907944824,916.9290806369133 L1145.1348767887666,917.0736290542043 L1145.1049980385662,917.2184974456105 L1145.0686265244078,917.3633368104881 L1145.0258498684545,917.5077982181207 L1144.9767711234176,917.6515336483238 L1144.9215085242922,917.7941968298566 L1144.8601952035206,917.9354440746187 L1144.7929788702622,918.0749351056259 L1144.7200214545521,918.2123338767663 L1144.6414987171947,918.3473093823657 L1144.5575998263419,918.4795364546086 L1144.4685269017707,918.6086965468961 L1144.3744945279582,918.7344785012531 L1144.2757292371289,918.856579297934 L1144.1724689635198,918.9747047854252 L1144.064962470174,919.0885703890804 L1143.9534687496507,919.1979017966871 L1143.8382564000883,919.3024356193082 L1143.7196029781283,919.4019200258087 L1143.5977943302569,919.4961153495398 L1143.4731239041762,919.5847946657158 L1143.3458920418625,919.6677443380968 L1143.2164052560158,919.7447645336565 L1143.0849754916458,919.8156697039976 L1142.951919374566,919.8802890323542 L1142.817557448617,919.9384668451044 L1142.6822134034471,919.9900629868013 L1142.546213294716,920.0349531578204 L1142.4098847585976,920.0730292138077 " />
			<path d="M12.205053146084959,69.33265302434229 L39.64153373405805,62.36465515491717 " />
			<path d="M1114.9734041706245,927.0410270832328 L1142.4098847585976,920.0730292138078 " />
			<path d="M1465.0486710738946,761.2728306872906 L1465.0486710738946,835.2664406883417 " />
			<path d="M365.0590308429583,-20.281057269053196 L364.922702293407,-20.249887067150702 L364.78670217127257,-20.225697800580924 L364.6513581127614,-20.208547743405752 L364.51699617356513,-20.198478211615097 L364.38394004336413,-20.19551346359302 L364.2525102660303,-20.199660641677195 L364.12302346740915,-20.21090975495236 L363.99579159254023,-20.229233703319338 L363.87112115415437,-20.25458834278152 L363.7493124942574,-20.286912591791637 L363.6306590605803,-20.326128578402557 L363.5154466996375,-20.372141827867612 L363.40395296809794,-20.424841490238563 L363.29644646412663,-20.484100607412813 L363.1931861803081,-20.549776418986603 L363.0944208797106,-20.621710706177318 " />
			<path d="M1467.8270491286928,837.4274013976292 L1467.6907205791415,837.4585715995318 L1467.554720457007,837.4827608661014 L1467.4193763984958,837.4999109232766 L1467.2850144592996,837.5099804550673 L1467.1519583290985,837.5129452030894 L1467.0205285517648,837.5087980250053 L1466.8910417531436,837.4975489117301 L1466.7638098782747,837.4792249633631 L1466.6391394398888,837.4538703239009 L1466.5173307799919,837.4215460748908 L1466.3986773463148,837.3823300882799 L1466.283464985372,837.3363168388148 L1466.1719712538325,837.2836171764438 L1466.0644647498611,837.2243580592695 L1465.9612044660425,837.1586822476958 L1465.862439165445,837.0867479605051 " />
			<path d="M1465.862439165445,837.0867479605051 L1465.7684067823286,837.008728493696 L1465.6793338489401,836.9248118029977 L1465.5954349497783,836.8352000510685 L1465.5169122046398,836.7401091204675 L1465.4439547816955,836.6397680935759 L1465.3767384417674,836.5344187007162 L1465.315425114906,836.4243147378031 L1465.2601625102861,836.3097214549275 L1465.2110837603627,836.1909149173449 L1465.1683071001432,836.0681813404105 L1465.1319355823487,835.9418164000616 L1465.1020568291513,835.8121245205075 L1465.0787428210847,835.6794181408458 L1465.0620497236364,835.5440169623687 L1465.0520177519402,835.4062471783751 L1465.0486710738946,835.2664406883417 " />
			<path d="M1465.0486710738946,761.2728306872907 L1465.0512839999312,761.1478745934041 L1465.0591178633874,761.0218263289436 L1465.0721579295478,760.8949229781255 L1465.0903796713478,760.7674032334984 L1465.113748815508,760.6395069469864 L1465.1422214069987,760.511474678751 L1465.1757438917145,760.3835472447222 L1465.2142532172043,760.2559652636467 L1465.2576769512668,760.128968704509 L1465.3059334181883,760.0027964351735 L1465.3589318523664,759.8776857730975 L1465.4165725690314,759.7538720389606 L1465.4787471517425,759.6315881140506 L1465.5453386563097,759.5110640022368 L1465.6162218307531,759.3925263973551 L1465.6912633508898,759.2761982568206 " />
			<path d="M394.460124097339,-106.63517065491514 L394.55415648045556,-106.55715118810602 L394.6432294138439,-106.47323449740776 L394.7271283130058,-106.38362274547846 L394.8056510581443,-106.28853181487759 L394.87860848108863,-106.18819078798596 L394.9458248210167,-106.08284139512618 L395.00713814787804,-105.97273743221317 L395.0624007524979,-105.85814414933755 L395.11147950242133,-105.73933761175496 L395.15425616264093,-105.61660403482065 L395.19062768043545,-105.49023909447165 L395.22050643363275,-105.36054721491753 L395.2438204416993,-105.2278408352558 L395.2605135391477,-105.09243965677877 L395.27054551084393,-104.95466987278513 L395.27389218888953,-104.81486338275172 " />
			<path d="M1497.029593608088,750.9377437054674 L1497.1310438866124,751.0024903403098 L1497.2281423830736,751.0732880117673 " />
			<path d="M1497.2281423830736,751.0732880117673 L1497.32217476619,751.1513074785764 L1497.4112476995786,751.2352241692747 L1497.4951465987403,751.324835921204 L1497.573669343879,751.4199268518049 L1497.6466267668231,751.5202678786966 L1497.7138431067513,751.6256172715563 L1497.7751564336127,751.7357212344693 L1497.8304190382325,751.8503145173449 L1497.879497788156,751.9691210549275 L1497.9222744483754,752.0918546318619 L1497.95864596617,752.2182195722108 L1497.9885247193674,752.347911451765 L1498.011838727434,752.4806178314267 L1498.0285318248823,752.6160190099038 L1498.0385637965785,752.7537887938973 L1498.041910474624,752.8935952839307 " />
			<path d="M395.2738921888895,-104.81486338275174 L395.2738921888895,-30.8212533817006 " />
			<path d="M1498.041910474624,752.8935952839307 L1498.041910474624,826.8872052849819 " />
			<path d="M395.27389218888953,-30.821253381700604 L395.27054551084393,-30.67974699170754 L395.2605135391477,-30.536881603042797 L395.2438204416993,-30.3930013909412 L395.22050643363275,-30.248452975436123 L395.19062768043545,-30.10358458632146 L395.15425616264093,-29.958745224235564 L395.11147950242133,-29.814283819888125 L395.0624007524979,-29.670548393455544 L395.00713814787804,-29.52788521616983 L394.9458248210167,-29.386637976120888 L394.87860848108863,-29.24714695028179 L394.8056510581443,-29.10974818475175 L394.7271283130058,-28.97477268519165 L394.6432294138439,-28.84254561940238 L394.55415648045556,-28.71338553396715 L394.460124097339,-28.58760358684486 L394.36135879674146,-28.465502797763328 L394.2580985129229,-28.347377318218218 L394.1505920089516,-28.233511722836322 L394.03909827741205,-28.12418032381036 L393.92388591646926,-28.019646510056894 L393.8052324827921,-27.92016211268933 L393.6834238228952,-27.825966798334733 L393.5587533845093,-27.737287491755914 L393.4315215096404,-27.654337829169815 L393.30203471101925,-27.577317643579143 L393.1706049336854,-27.50641248335715 L393.0375488034844,-27.441793165245368 L392.90318686428816,-27.38361536284112 L392.767842805777,-27.332019231566164 L392.63184268364256,-27.287129071020036 L392.49551413409125,-27.249053025531403 " />
			<path d="M1498.041910474624,826.8872052849819 L1498.0385637965785,827.0287116749749 L1498.0285318248823,827.1715770636397 L1498.011838727434,827.3154572757413 L1497.9885247193674,827.4600056912464 L1497.95864596617,827.604874080361 L1497.9222744483754,827.7497134424469 L1497.879497788156,827.8941748467944 L1497.8304190382325,828.037910273227 L1497.7751564336127,828.1805734505127 L1497.7138431067513,828.3218206905616 L1497.6466267668231,828.4613117164007 L1497.573669343879,828.5987104819308 L1497.4951465987403,828.7336859814909 L1497.4112476995786,828.8659130472802 L1497.32217476619,828.9950731327153 L1497.2281423830736,829.1208550798376 L1497.1293770824761,829.2429558689192 L1497.0261167986575,829.3610813484643 L1496.9186102946862,829.4749469438462 L1496.8071165631468,829.5842783428722 L1496.691904202204,829.6888121566257 L1496.5732507685268,829.7882965539932 L1496.4514421086299,829.8824918683478 L1496.326771670244,829.9711711749266 L1496.1995397953751,830.0541208375128 L1496.070052996754,830.1311410231034 L1495.9386232194202,830.2020461833254 L1495.805567089219,830.2666655014372 L1495.6712051500228,830.3248433038414 L1495.5358610915116,830.3764394351164 L1495.3998609693772,830.4213295956624 L1495.2635324198259,830.4594056411511 " />
			<path d="M365.0590308429583,-20.281057269053193 L392.49551413409125,-27.249053025531396 " />
			<path d="M1467.8270491286928,837.4274013976292 L1495.2635324198257,830.4594056411511 " />
			<path d="M1817.902684033275,671.6591131103052 L1817.902684033275,745.6527231113563 " />
			<path d="M717.9130438023386,-109.89477484603862 L717.7767152527873,-109.86360464413613 L717.6407151306529,-109.83941537756634 L717.5053710721417,-109.82226532039118 L717.3710091329455,-109.81219578860052 L717.2379530027445,-109.80923104057844 L717.1065232254106,-109.81337821866262 L716.9770364267895,-109.82462733193779 L716.8498045519206,-109.84295128030476 L716.7251341135348,-109.86830591976694 L716.6033254536378,-109.90063016877706 L716.4846720199606,-109.93984615538798 L716.3694596590178,-109.98585940485303 L716.2579659274783,-110.03855906722399 L716.150459423507,-110.09781818439824 L716.0471991396884,-110.16349399597202 L715.9484338390909,-110.23542828316275 " />
			<path d="M1820.681062088073,747.8136838206437 L1820.5447335385218,747.8448540225463 L1820.4087334163873,747.869043289116 L1820.273389357876,747.8861933462912 L1820.13902741868,747.8962628780819 L1820.0059712884788,747.899227626104 L1819.874541511145,747.8950804480198 L1819.7450547125238,747.8838313347446 L1819.617822837655,747.8655073863777 L1819.493152399269,747.8401527469155 L1819.3713437393722,747.8078284979053 L1819.252690305695,747.7686125112945 L1819.1374779447522,747.7225992618294 L1819.0259842132127,747.6698995994584 L1818.9184777092414,747.6106404822841 L1818.8152174254228,747.5449646707103 L1818.7164521248253,747.4730303835197 " />
			<path d="M1818.7164521248253,747.4730303835197 L1818.6224197417089,747.3950109167106 L1818.5333468083204,747.3110942260123 L1818.4494479091586,747.221482474083 L1818.37092516402,747.1263915434821 L1818.2979677410758,747.0260505165904 L1818.2307514011477,746.9207011237307 L1818.1694380742863,746.8105971608177 L1818.1141754696664,746.6960038779421 L1818.065096719743,746.5771973403595 L1818.0223200595235,746.4544637634251 L1817.985948541729,746.3280988230762 L1817.9560697885315,746.1984069435221 L1817.932755780465,746.0657005638603 L1817.9160626830167,745.9302993853833 L1817.9060307113205,745.7925296013897 L1817.902684033275,745.6527231113563 " />
			<path d="M1817.902684033275,671.6591131103053 L1817.9038858755582,671.5745015388989 L1817.9074903626476,671.4893527087315 L1817.9134943761585,671.4037402854185 L1817.9218927217821,671.3177383356477 L1817.9326781337777,671.2314212631021 L1817.9458412812594,671.1448637440894 L1817.9613707762687,671.0581406629375 L1817.9792531836265,670.9713270472082 L1817.9994730325557,670.8844980027886 L1818.0220128300666,670.7977286489138 L1818.0468530760902,670.7110940531779 L1818.0739722803492,670.624669166591 L1818.1033469809488,670.5385287587351 L1818.1349517646759,670.4527473530784 L1818.1687592889834,670.3673991625024 L1818.2047403056479,670.2825580250968 " />
			<path d="M747.3141370567192,-196.2488882319005 L747.4081694398358,-196.1708687650914 L747.4972423732241,-196.08695207439314 L747.5811412723859,-195.99734032246383 L747.6596640175245,-195.90224939186297 L747.7326214404688,-195.80190836497135 L747.7998377803968,-195.69655897211157 L747.8611511072583,-195.58645500919854 L747.9164137118781,-195.47186172632294 L747.9654924618015,-195.35305518874034 L748.0082691220211,-195.23032161180603 L748.0446406398156,-195.10395667145704 L748.074519393013,-194.97426479190293 L748.0978334010796,-194.84155841224117 L748.1145264985279,-194.70615723376415 L748.1245584702241,-194.5683874497705 L748.1279051482697,-194.4285809597371 " />
			<path d="M1850.3700949672925,661.7353173786761 L1850.4319306517732,661.8117098997811 L1850.490231056332,661.8914229344826 L1850.5449071256799,661.9743347191769 L1850.5958753407879,662.0603186040915 L1850.6430578464651,662.1492432467466 L1850.6863825702837,662.2409728125823 L1850.725783332672,662.335367182451 L1850.7611999480055,662.4322821666517 L1850.7925783165401,662.5315697251833 L1850.8198705070536,662.6330781938799 L1850.8430348300592,662.7366525160811 L1850.8620359014892,662.842134479485 L1850.8768446967435,662.949362957821 L1850.8874385950264,663.0581741569745 L1850.8938014139005,663.1684018651864 L1850.895923434004,663.2798777069453 " />
			<path d="M748.1279051482697,-194.42858095973716 L748.1279051482697,-120.43497095868602 " />
			<path d="M1850.895923434004,663.2798777069453 L1850.895923434004,737.2734877079964 " />
			<path d="M748.1279051482697,-120.43497095868598 L748.1245584702241,-120.29346456869291 L748.1145264985279,-120.15059918002818 L748.0978334010796,-120.00671896792659 L748.074519393013,-119.8621705524215 L748.0446406398156,-119.71730216330684 L748.0082691220211,-119.57246280122094 L747.9654924618015,-119.4280013968735 L747.9164137118781,-119.28426597044093 L747.8611511072583,-119.14160279315522 L747.7998377803968,-119.00035555310627 L747.7326214404688,-118.86086452726717 L747.6596640175245,-118.72346576173713 L747.5811412723859,-118.58849026217703 L747.4972423732241,-118.45626319638775 L747.4081694398358,-118.32710311095252 L747.3141370567192,-118.20132116383024 L747.2153717561217,-118.07922037474872 L747.1121114723031,-117.9610948952036 L747.0046049683318,-117.8472292998217 L746.8931112367923,-117.73789790079574 L746.7778988758495,-117.63336408704227 L746.6592454421723,-117.5338796896747 L746.5374367822753,-117.43968437532011 L746.4127663438895,-117.35100506874129 L746.2855344690206,-117.2680554061552 L746.1560476703995,-117.19103522056452 L746.0246178930656,-117.12013006034253 L745.8915617628646,-117.05551074223075 L745.7571998236684,-116.9973329398265 L745.6218557651572,-116.94573680855154 L745.4858556430228,-116.90084664800541 L745.3495270934715,-116.86277060251679 " />
			<path d="M1850.895923434004,737.2734877079964 L1850.8925767559585,737.4149940979895 L1850.8825447842623,737.5578594866543 L1850.865851686814,737.7017396987559 L1850.8425376787475,737.8462881142609 L1850.81265892555,737.9911565033756 L1850.7762874077555,738.1359958654615 L1850.733510747536,738.280457269809 L1850.6844319976126,738.4241926962416 L1850.6291693929927,738.5668558735273 L1850.5678560661313,738.7081031135762 L1850.5006397262032,738.8475941394153 L1850.427682303259,738.9849929049453 L1850.3491595581204,739.1199684045055 L1850.2652606589586,739.2521954702947 L1850.1761877255701,739.3813555557299 L1850.0821553424537,739.5071375028522 L1849.9833900418562,739.6292382919338 L1849.8801297580376,739.7473637714788 L1849.7726232540663,739.8612293668608 L1849.6611295225268,739.9705607658867 L1849.545917161584,740.0750945796402 L1849.4272637279068,740.1745789770077 L1849.30545506801,740.2687742913623 L1849.180784629624,740.3574535979411 L1849.0535527547552,740.4404032605273 L1848.924065956134,740.517423446118 L1848.7926361788002,740.5883286063399 L1848.659580048599,740.6529479244517 L1848.5252181094029,740.7111257268559 L1848.3898740508916,740.7627218581309 L1848.2538739287572,740.807612018677 L1848.117545379206,740.8456880641656 " />
			<path d="M717.9130438023386,-109.8947748460386 L745.3495270934715,-116.86277060251679 " />
			<path d="M1820.681062088073,747.8136838206437 L1848.117545379206,740.8456880641656 " />
			<path d="M2170.7566969926547,582.0453955333197 L2170.7566969926547,656.0390055343709 " />
			<path d="M1070.7670567617185,-199.508492423024 L1070.6307282121672,-199.47732222112148 L1070.4947280900328,-199.4531329545517 L1070.3593840315216,-199.43598289737653 L1070.2250220923254,-199.42591336558587 L1070.0919659621243,-199.4229486175638 L1069.9605361847905,-199.42709579564797 L1069.8310493861693,-199.43834490892314 L1069.7038175113005,-199.45666885729014 L1069.5791470729146,-199.4820234967523 L1069.4573384130176,-199.51434774576242 L1069.3386849793405,-199.55356373237333 L1069.2234726183976,-199.5995769818384 L1069.1119788868582,-199.65227664420937 L1069.004472382887,-199.7115357613836 L1068.9012120990683,-199.77721157295738 L1068.8024467984708,-199.8491458601481 " />
			<path d="M2173.535075047453,658.1999662436584 L2173.398746497902,658.231136445561 L2173.262746375767,658.2553257121307 L2173.1274023172564,658.2724757693059 L2172.99304037806,658.2825453010965 L2172.859984247859,658.2855100491187 L2172.728554470525,658.2813628710345 L2172.599067671904,658.2701137577593 L2172.471835797035,658.2517898093923 L2172.3471653586494,658.2264351699301 L2172.2253566987524,658.19411092092 L2172.106703265075,658.1548949343091 L2171.991490904132,658.108881684844 L2171.8799971725925,658.0561820224731 L2171.7724906686212,657.9969229052988 L2171.669230384803,657.931247093725 L2171.5704650842054,657.8593128065344 " />
			<path d="M2171.5704650842054,657.8593128065344 L2171.476432701089,657.7812933397253 L2171.3873597677,657.697376649027 L2171.3034608685384,657.6077648970977 L2171.2249381234,657.5126739664968 L2171.1519807004556,657.4123329396051 L2171.0847643605275,657.3069835467454 L2171.0234510336663,657.1968795838324 L2170.9681884290467,657.0822863009568 L2170.9191096791233,656.9634797633742 L2170.8763330189036,656.8407461864398 L2170.839961501109,656.7143812460909 L2170.8100827479116,656.5846893665367 L2170.7867687398452,656.451982986875 L2170.7700756423965,656.3165818083979 L2170.7600436707003,656.1788120244044 L2170.7566969926547,656.039005534371 " />
			<path d="M2170.7566969926547,582.0453955333198 L2170.7606935075796,581.8906826352516 L2170.7726715549047,581.7343848500973 L2170.7925966753555,581.5769518261186 L2170.8204115469703,581.4188364775105 L2170.8560361500054,581.2604936814263 L2170.8993679971427,581.1023789693566 L2170.950282428332,580.9449472166234 L2171.008632969422,580.7886513337647 " />
			<path d="M1100.1681500160992,-285.86260580888586 L1100.2621823992156,-285.78458634207675 L1100.351255332604,-285.70066965137846 L1100.4351542317659,-285.6110578994492 L1100.5136769769044,-285.5159669688483 L1100.5866343998487,-285.4156259419567 L1100.6538507397768,-285.3102765490969 L1100.7151640666382,-285.2001725861839 L1100.770426671258,-285.0855793033083 L1100.8195054211815,-284.9667727657257 L1100.862282081401,-284.8440391887914 L1100.8986535991955,-284.7176742484424 L1100.928532352393,-284.5879823688883 L1100.9518463604595,-284.45527598922655 L1100.9685394579078,-284.3198748107495 L1100.978571429604,-284.18210502675583 L1100.9819181076496,-284.04229853672246 " />
			<path d="M2203.5192856892636,572.5811882976226 L2203.5468703859974,572.6419658986682 L2203.572761283014,572.7038812098249 L2203.619394688667,572.8309613525416 L2203.6590632420007,572.9620944549531 L2203.6916625990984,573.0969355853598 L2203.717107010814,573.2351300584883 L2203.735329548324,573.3763143684532 L2203.7462822791795,573.520117144921 L2203.7499363933844,573.66616012996 " />
			<path d="M1100.9819181076496,-284.04229853672257 L1100.9819181076496,-210.0486885356714 " />
			<path d="M2203.749936393384,573.6661601299598 L2203.749936393384,647.659770131011 " />
			<path d="M1100.9819181076496,-210.04868853567135 L1100.978571429604,-209.9071821456783 L1100.9685394579078,-209.76431675701355 L1100.9518463604595,-209.62043654491194 L1100.928532352393,-209.47588812940688 L1100.8986535991955,-209.3310197402922 L1100.862282081401,-209.1861803782063 L1100.8195054211815,-209.04171897385888 L1100.770426671258,-208.8979835474263 L1100.7151640666382,-208.75532037014057 L1100.6538507397768,-208.61407313009164 L1100.5866343998487,-208.47458210425253 L1100.5136769769044,-208.3371833387225 L1100.4351542317659,-208.20220783916238 L1100.351255332604,-208.06998077337312 L1100.2621823992156,-207.9408206879379 L1100.1681500160992,-207.8150387408156 L1100.0693847155017,-207.69293795173408 L1099.966124431683,-207.57481247218897 L1099.8586179277117,-207.46094687680707 L1099.7471241961723,-207.3516154777811 L1099.6319118352294,-207.24708166402763 L1099.5132584015523,-207.14759726666009 L1099.3914497416554,-207.05340195230548 L1099.2667793032695,-206.96472264572665 L1099.1395474284006,-206.88177298314056 L1099.0100606297794,-206.8047527975499 L1098.8786308524457,-206.7338476373279 L1098.7455747222446,-206.6692283192161 L1098.6112127830484,-206.61105051681187 L1098.4758687245371,-206.55945438553692 L1098.3398686024027,-206.51456422499078 L1098.2035400528514,-206.47648817950216 " />
			<path d="M2203.7499363933844,647.6597701310111 L2203.746589715339,647.8012765210042 L2203.7365577436426,647.9441419096689 L2203.719864646194,648.0880221217706 L2203.6965506381275,648.2325705372756 L2203.66667188493,648.3774389263903 L2203.6303003671355,648.5222782884762 L2203.587523706916,648.6667396928236 L2203.5384449569924,648.8104751192562 L2203.4831823523728,648.953138296542 L2203.4218690255116,649.0943855365908 L2203.3546526855835,649.2338765624299 L2203.281695262639,649.37127532796 L2203.2031725175007,649.5062508275201 L2203.119273618339,649.6384778933094 L2203.03020068495,649.7676379787446 L2202.9361683018337,649.8934199258669 L2202.837403001236,650.0155207149485 L2202.734142717418,650.1336461944935 L2202.6266362134465,650.2475117898755 L2202.515142481907,650.3568431889014 L2202.399930120964,650.4613770026549 L2202.2812766872867,650.5608614000224 L2202.1594680273897,650.655056714377 L2202.034797589004,650.7437360209558 L2201.907565714135,650.826685683542 L2201.778078915514,650.9037058691326 L2201.6466491381802,650.9746110293546 L2201.513593007979,651.0392303474664 L2201.3792310687827,651.0974081498706 L2201.243887010272,651.1490042811456 L2201.1078868881373,651.1938944416917 L2200.971558338586,651.2319704871803 " />
			<path d="M1070.7670567617185,-199.508492423024 L1098.2035400528514,-206.4764881795022 " />
			<path d="M2173.535075047453,658.1999662436584 L2200.9715583385864,651.2319704871803 " />
			<path d="M2534.723842589203,489.60929361331324 L2534.723842586296,563.6029036151026 " />
			<path d="M1434.7344962790457,-291.9446687401718 L1434.5981676945519,-291.91349854280236 L1434.4621675376707,-291.88930928312067 L1434.326823444803,-291.8721592351918 L1434.1924614718343,-291.8620897149974 L1434.0594053086356,-291.85912498090187 L1433.9279754992672,-291.8632721752116 L1433.7984886697586,-291.874521306969 L1433.67125676533,-291.89284527602103 L1433.5465862988872,-291.9181999383065 L1433.4247776126053,-291.95052421220225 L1433.3061241543783,-291.9897402256749 L1433.1909117708767,-292.0357535038811 L1433.079418018918,-292.08845319676567 L1432.971911496807,-292.1477123461096 L1432.86865119726,-292.21338819138316 L1432.7698858834676,-292.28532251366903 " />
			<path d="M2537.5022208825885,565.763864512451 L2537.365892298095,565.7950347098205 L2537.2298921412134,565.8192239695021 L2537.094548048346,565.836374017431 L2536.9601860753774,565.8464435376254 L2536.827129912179,565.849408271721 L2536.69570010281,565.8452610774112 L2536.566213273302,565.8340119456539 L2536.438981368873,565.8156879766018 L2536.3143109024304,565.7903333143164 L2536.1925022161486,565.7580090404206 L2536.0738487579215,565.7187930269479 L2535.9586363744197,565.6727797487417 L2535.847142622461,565.6200800558571 L2535.7396361003503,565.5608209065132 L2535.6363758008033,565.4951450612397 L2535.5376104870106,565.4232107389538 " />
			<path d="M2535.5376104870106,565.4232107389538 L2535.443578124392,565.345191263255 L2535.3545052108125,565.2612745664973 L2535.2706063306514,565.1716628112849 L2535.19208360359,565.0765718801122 L2535.1191261976924,564.9762308552836 L2535.0519098736795,564.8708814670349 L2534.9905965615085,564.7607775111837 L2534.935333970269,564.646184237714 L2534.8862552323385,564.5273777117651 L2534.8434785826557,564.4046441485672 L2534.807107073881,564.2782792239238 L2534.777228328135,564.148587361904 L2534.75391432591,564.0158810014567 L2534.737221232659,563.8804798437197 L2534.7271892634935,563.7427100818313 L2534.7238425862965,563.6029036151025 " />
			<path d="M2534.7238425892033,489.6092936133132 L2534.7249503255052,489.5280731861202 L2534.7282726510985,489.44635486440444 L2534.733806916768,489.3642038101717 L2534.741548709503,489.28168553048766 L2534.7514918560155,489.1988658252427 L2534.7636284276623,489.11581073468335 L2534.7779487467687,489.0325864867518 L2534.7944413943446,488.949259444276 " />
			<path d="M1464.1355923547526,-378.2987799336363 L1464.2296247173715,-378.22076045793744 L1464.3186976309505,-378.13684376117976 L1464.402596511112,-378.04723200596743 L1464.481119238173,-377.9521410747947 L1464.554076644071,-377.85180004996613 L1464.621292968084,-377.7464506617174 L1464.6826062802547,-377.6363467058663 L1464.7378688714941,-377.52175343239657 L1464.7869476094247,-377.4029469064476 L1464.8297242591077,-377.2802133432496 L1464.8660957678824,-377.1538484186064 L1464.8959745136278,-377.02415655658643 L1464.9192885158532,-376.89145019613915 L1464.935981609104,-376.75604903840224 L1464.94601357827,-376.6182792765138 L1464.9493602554667,-376.47847280978505 " />
			<path d="M2567.6571164666298,480.6529267545323 L2567.6832992852023,480.79295920368384 L2567.7020520925807,480.93608516424075 L2567.7133241221904,481.0819171734366 L2567.71708485901,481.23006044283795 " />
			<path d="M1464.9493602554667,-376.47847280978493 L1464.94936025256,-302.4848628079956 " />
			<path d="M2567.71708485901,481.230060442838 L2567.717084856103,555.2236704446273 " />
			<path d="M1464.9493602525602,-302.4848628079957 L1464.9460135742181,-302.34335641822776 L1464.935981601644,-302.2004910302405 L1464.9192885027385,-302.0566108192673 L1464.895974492639,-301.91206240533865 L1464.8660957368381,-301.7671940182447 L1464.8297242158753,-301.622354658619 L1464.7869475519308,-301.4778932571652 L1464.7378687977343,-301.3341578340528 L1464.6826061883037,-301.19149466050584 L1464.6212928561056,-301.0502474246051 L1464.5540765103276,-300.9107564033138 L1464.4811190810344,-300.77335764272016 L1464.402596329063,-300.63838214847306 L1464.318697422601,-300.50615508836074 L1464.2296244814627,-300.37699500895263 L1464.1355920901651,-300.2512130681931 L1464.0368267809752,-300.1291122857948 L1463.9335664881735,-300.01098681323714 L1463.82605997485,-299.8971212251301 L1463.714566233612,-299.7877898336489 L1463.5993538626474,-299.68325602769187 L1463.4807004186496,-299.58377163835377 L1463.3588917481577,-299.48957633224217 L1463.234221298928,-299.4008970341001 L1463.1069894129932,-299.31794738012417 L1462.9775026031102,-299.24092720329634 L1462.846072814346,-299.1700220519688 L1462.713016672573,-299.1054027428615 L1462.578654721692,-299.04722494955024 L1462.4433106514107,-298.9956288274348 L1462.3073105174492,-298.95073867609267 L1462.1709819560429,-298.9126626398303 " />
			<path d="M2567.717084856103,555.2236704446274 L2567.713738177761,555.3651768343954 L2567.703706205187,555.5080422223825 L2567.6870131062815,555.6519224333558 L2567.663699096182,555.7964708472845 L2567.633820340381,555.9413392343783 L2567.5974488194183,556.0861785940041 L2567.554672155474,556.2306399954579 L2567.505593401277,556.3743754185703 L2567.4503307918467,556.5170385921173 L2567.3890174596486,556.6582858280179 L2567.3218011138706,556.7977768493092 L2567.2488436845774,556.9351756099029 L2567.170320932606,557.07015110415 L2567.086422026144,557.2023781642623 L2566.9973490850057,557.3315382436705 L2566.9033166937083,557.4573201844299 L2566.804551384518,557.5794209668283 L2566.7012910917165,557.697546439386 L2566.5937845783933,557.811412027493 L2566.482290837155,557.9207434189742 L2566.3670784661904,558.0252772249312 L2566.2484250221924,558.1247616142693 L2566.1266163517007,558.218956920381 L2566.001945902471,558.3076362185229 L2565.8747140165365,558.3905858724988 L2565.7452272066535,558.4676060493267 L2565.613797417889,558.5385112006543 L2565.480741276116,558.6031305097615 L2565.346379325235,558.6613083030728 L2565.2110352549535,558.7129044251883 L2565.075035120992,558.7577945765304 L2564.9387065595856,558.7958706127928 " />
			<path d="M1434.7344962790457,-291.9446687401718 L1462.1709819560429,-298.9126626398303 " />
			<path d="M2537.5022208825885,565.763864512451 L2564.9387065595856,558.7958706127926 " />
			<path d="M1464.1494909911742,-300.6181816359033 L1432.4718228187294,-292.5730595603618 " />
			<path d="M1175.4619989160856,-227.30072333111892 L1068.5043825279154,-200.13688424840907 " />
			<path d="M822.6079859567055,-137.68700575413354 L715.6503695685354,-110.5231666714237 " />
			<path d="M469.75397299732515,-48.0732881771481 L362.79635660915505,-20.909449094438244 " />
			<path d="M116.90001638774234,41.540415088777664 L9.94237782055031,68.704259804255 " />
			<path d="M1113.0087946963652,926.7003740274954 L1112.185645549305,926.0601471694458 " />
			<path d="M1144.3744942019453,840.6869112085391 L1143.6758418536112,840.1435151551747 " />
			<path d="M1465.8624391654453,837.0867479605052 L1389.8788872543632,777.9884298074413 " />
			<path d="M1497.2281423830736,751.0732880117675 L1497.047922015875,750.9331166150574 " />
			<path d="M1818.7164521248255,747.4730303835199 L1743.2513342067678,688.777938669475 " />
			<path d="M2171.5704650842054,657.8593128065346 L2096.623781159172,599.5674475315086 " />
			<path d="M2535.5376104870106,565.423210738954 L2461.125710072206,507.5472677480874 " />

       </g>

       <!-- solid lines -->
       <g  stroke="rgb(0,0,0)" fill="none">
			<path d="M9.426639828779841,-52.50803764276491 L9.426639828779841,67.17169959864466 " />
			<path d="M1464.9494432862236,-422.16462264782984 L1464.9494432862236,-377.66578454109407 " />
			<path d="M7.838995226037973,68.8034454403516 L7.890499908105729,68.84199582492366 L7.9419503716284625,68.87748800264707 L7.993292455136555,68.90988461120529 L8.04447211125112,68.93915154696131 L8.095435463579214,68.96525800085838 L8.146128863429078,68.98817649085237 L8.196498946285644,69.00788289084186 L8.246492687986922,69.02435645606556 L8.29605746054209,69.03757984494014 L8.345141087532525,69.04753913731545 L8.393691899037497,69.05422384912833 L8.441658786026647,69.05762694343895 L8.488991254162034,69.05774483783857 L8.5356394769531,69.05457740822075 L8.581554348208602,69.048127988912 L8.626687533730275,69.03840336916168 " />
			<path d="M8.62668753373028,69.03840336916168 L8.671555900702188,69.02522545401162 L8.715525143910357,69.00871226439718 L8.75854777877781,68.98888163373475 L8.800577343017096,68.9657549781107 L8.841568446807225,68.93935727315292 L8.881476821812395,68.90971702705858 L8.92025936898958,68.87686624980654 L8.957874205133333,68.84084041858833 L8.994280708107542,68.80167843949442 L9.029439560715307,68.75942260549772 L9.063312793159534,68.71411855077919 L9.095863824048411,68.66581520144528 L9.12705749990148,68.61456472269018 L9.156860133113636,68.56042246245997 L9.185239538336036,68.5034468916797 L9.212165067234677,68.44369954110768 L9.237607641589051,68.3812449348853 L9.261539784695168,68.31615052085432 L9.283935651039013,68.24848659771645 L9.30477105420841,68.17832623911438 L9.324023493013133,68.10574521471584 L9.341672175785055,68.03082190838617 L9.357698042832123,67.95363723353778 L9.372083787021852,67.87427454574754 L9.395874551329383,67.70936022181276 L9.412941725126608,67.53679114103173 L9.42321160155268,67.35731256594026 L9.426639828779841,67.1716995986447 " />
			<path d="M9.426639828779841,-52.50803764276491 L9.424727441325217,-52.650181495242855 L9.418994886070227,-52.79495773565926 L9.409455973242595,-52.94201758537006 L9.396133682918832,-53.0910067643164 L9.379060109663222,-53.241566344516265 L9.358276385209205,-53.3933336147535 L9.333832579369433,-53.54594295438086 L9.305787579413197,-53.69902671413219 L9.274208948201844,-53.85221610182169 L9.239172761423923,-54.0051420707966 L9.20076342432219,-54.157436209002945 L9.159073468353983,-54.30873162652238 L9.114203328274838,-54.4586638394422 L9.066261100182366,-54.60687164792896 L9.015362281103288,-54.75299800639055 L8.96162949075097,-54.89669088363028 L8.90519217612381,-55.03760411092087 L8.846186299656072,-55.17539821595523 L8.784754011672469,-55.30974124066499 L8.721043307935586,-55.440309540936575 L8.655207673111125,-55.56678856629819 L8.587405711009897,-55.6888736176995 L8.517800762497355,-55.80627058155828 L8.44656051199114,-55.91869663830583 L8.37385658349463,-56.025880943724104 L8.299864127139687,-56.12756528143309 L8.224761397234639,-56.223504684956765 L8.148729322834052,-56.313468027868744 L8.071951071864781,-56.39723858059608 L7.994611609858391,-56.47461453253983 L7.916897254352993,-56.54540947825443 L7.838995226037987,-56.60945286651473 " />
			<path d="M1464.9494432862236,-422.16462264782984 L1464.947530898769,-422.3067665003078 L1464.941798343514,-422.45154274072416 L1464.9322594306864,-422.59860259043495 L1464.9189371403627,-422.7475917693813 L1464.901863567107,-422.89815134958116 L1464.881079842653,-423.0499186198184 L1464.8566360368131,-423.2025279594458 L1464.828591036857,-423.3556117191971 L1464.7970124056455,-423.5088011068866 L1464.7619762188676,-423.6617270758615 L1464.723566881766,-423.81402121406785 L1464.6818769257977,-423.9653166315873 L1464.6370067857185,-424.1152488445071 L1464.5890645576262,-424.26345665299385 L1464.5381657385471,-424.4095830114555 L1464.4844329481948,-424.55327588869517 L1464.4279956335677,-424.69418911598575 L1464.3689897570998,-424.83198322102015 L1464.3075574691163,-424.9663262457299 L1464.2438467653794,-425.09689454600147 L1464.178011130555,-425.2233735713631 L1464.1102091684536,-425.3454586227644 L1464.040604219941,-425.4628555866232 L1463.9693639694349,-425.5752816433708 L1463.8966600409385,-425.682465948789 L1463.8226675845835,-425.784150286498 L1463.7475648546783,-425.8800896900217 L1463.6715327802779,-425.97005303293366 L1463.5947545293086,-426.053823585661 L1463.5174150673022,-426.13119953760474 L1463.4397007117968,-426.20199448331937 L1463.3617986834818,-426.2660378715796 " />
			<path d="M7.838995226037973,-56.609452866514744 L-7.838995226037973,-68.8034454403516 " />
			<path d="M1463.3617986834815,-426.26603787157967 L1447.6838082314057,-438.4600304454166 " />
			<path d="M-7.838995226037973,-68.8034454403516 L-7.890499908105729,-68.84199582492366 L-7.941950371628462,-68.87748800264707 L-7.993292455136555,-68.90988461120529 L-8.04447211125112,-68.93915154696131 L-8.095435463579216,-68.96525800085838 L-8.14612886342908,-68.98817649085237 L-8.196498946285645,-69.00788289084186 L-8.246492687986922,-69.02435645606558 L-8.29605746054209,-69.03757984494014 L-8.345141087532527,-69.04753913731545 L-8.3936918990375,-69.05422384912833 L-8.441658786026649,-69.05762694343895 L-8.488991254162036,-69.05774483783857 L-8.535639476953103,-69.05457740822075 L-8.581554348208604,-69.048127988912 L-8.62668753373027,-69.03840336916168 " />
			<path d="M-8.626687533730282,-69.03840336916168 L-8.67155590070219,-69.02522545401162 L-8.715525143910359,-69.00871226439718 L-8.758547778777812,-68.98888163373475 L-8.800577343017098,-68.9657549781107 L-8.841568446807226,-68.93935727315292 L-8.881476821812395,-68.90971702705858 L-8.920259368989582,-68.87686624980654 L-8.957874205133335,-68.84084041858833 L-8.994280708107544,-68.80167843949442 L-9.029439560715309,-68.75942260549772 L-9.063312793159534,-68.71411855077919 L-9.095863824048411,-68.66581520144528 L-9.12705749990148,-68.61456472269018 L-9.156860133113636,-68.56042246245997 L-9.185239538336036,-68.5034468916797 L-9.212165067234677,-68.44369954110768 L-9.237607641589053,-68.3812449348853 L-9.261539784695168,-68.31615052085432 L-9.283935651039014,-68.24848659771645 L-9.30477105420841,-68.17832623911438 L-9.324023493013133,-68.10574521471582 L-9.341672175785057,-68.03082190838617 L-9.357698042832123,-67.95363723353778 L-9.372083787021852,-67.87427454574754 L-9.395874551329383,-67.70936022181274 L-9.412941725126608,-67.53679114103173 L-9.42321160155268,-67.35731256594026 L-9.426639828779841,-67.17169959864468 " />
			<path d="M1447.6838082314057,-438.4600304454165 L1447.6323035493378,-438.49858082998855 L1447.5808530858153,-438.534073007712 L1447.5295110023071,-438.5664696162702 L1447.4783313461926,-438.5957365520262 L1447.4273679938644,-438.6218430059233 L1447.3766745940145,-438.6447614959173 L1447.326304511158,-438.6644678959068 L1447.2763107694568,-438.6809414611305 L1447.2267459969016,-438.69416485000505 L1447.177662369911,-438.70412414238035 L1447.129111558406,-438.71080885419326 L1447.081144671417,-438.7142119485039 L1447.0338122032817,-438.71432984290345 L1446.9871639804905,-438.71116241328565 L1446.941249109235,-438.7047129939769 L1446.8961159237133,-438.69498837422657 " />
			<path d="M1446.8961159237133,-438.69498837422657 L1446.8518119352498,-438.68199879106004 L1446.8083837822799,-438.665757918502 L1446.7658771812544,-438.64628285318224 L1446.7243368785141,-438.6235940963381 L1446.6838066031862,-438.59771553223266 L1446.64432902115,-438.5686744030125 L1446.6059456901235,-438.53650128002965 L1446.568697015916,-438.5012300316599 L1446.5326222098936,-438.4628977876491 L1446.4977592477,-438.42154490002787 L1446.4641448292823,-438.3772149006326 L1446.4318143402556,-438.32995445528036 L1446.4008018146535,-438.2798133146439 L1446.3711398991002,-438.22684426187965 L1446.3428598184448,-438.17110305706336 L1446.3159913428897,-438.1126483784918 " />
			<path d="M-9.426639828779841,-67.17169959864466 L-9.426639828779841,52.50803764276491 " />
			<path d="M-9.426639828779841,52.50803764276491 L-9.424727441325217,52.650181495242855 L-9.418994886070227,52.79495773565926 L-9.409455973242595,52.94201758537007 L-9.396133682918832,53.0910067643164 L-9.379060109663222,53.241566344516265 L-9.358276385209205,53.3933336147535 L-9.333832579369433,53.54594295438086 L-9.305787579413197,53.69902671413219 L-9.274208948201844,53.85221610182168 L-9.239172761423923,54.0051420707966 L-9.20076342432219,54.157436209002945 L-9.159073468353983,54.30873162652238 L-9.114203328274838,54.4586638394422 L-9.066261100182366,54.60687164792896 L-9.015362281103286,54.752998006390555 L-8.96162949075097,54.89669088363028 L-8.905192176123812,55.03760411092087 L-8.846186299656072,55.17539821595522 L-8.784754011672469,55.30974124066499 L-8.721043307935586,55.440309540936575 L-8.655207673111125,55.56678856629819 L-8.587405711009897,55.6888736176995 L-8.517800762497355,55.80627058155828 L-8.44656051199114,55.91869663830584 L-8.37385658349463,56.025880943724104 L-8.299864127139685,56.12756528143309 L-8.224761397234637,56.22350468495677 L-8.148729322834052,56.313468027868744 L-8.071951071864781,56.39723858059608 L-7.994611609858392,56.47461453253983 L-7.916897254352993,56.54540947825443 L-7.83899522603798,56.60945286651474 " />
			<path d="M7.838995226037973,68.8034454403516 L-7.838995226037973,56.609452866514744 " />
			<path d="M1130.5566461162127,864.4120455664962 L1130.66518710396,938.5555369910657 " />
			<path d="M2586.9197878301475,496.7465066484864 L2587.0283288178944,570.8899980730558 " />
			<path d="M1129.0845634980983,940.2044690113651 L1129.135494960398,940.2423049478256 L1129.186369459331,940.2771342320414 L1129.237134434689,940.308920880672 L1129.2877374394172,940.337632053829 L1129.3381261937977,940.3632380890048 L1129.3882486394623,940.3857125317168 L1129.4380529931752,940.4050321628396 L1129.487487800333,940.4211770225928 L1129.536501988123,940.4341304311622 L1129.5850449182897,940.4438790059326 L1129.6330664394495,940.4504126753135 L1129.6805169389047,940.4537246891448 L1129.7273473939001,940.4538116256701 L1129.7735094222699,940.4506733950724 L1129.8189553324228,940.4443132395663 L1129.863638172614,940.4347377300489 " />
			<path d="M1129.863638172614,940.4347377300489 L1129.9086898670014,940.4215656329916 L1129.952838743678,940.4050262353841 L1129.9960366837513,940.3851375639027 L1130.0382366047752,940.361921295676 L1130.0793925120688,940.3354027346575 L1130.1194595488462,940.3056107840472 L1130.158394045107,940.272577914789 L1130.1961535652324,940.2363401301799 L1130.2326969542387,940.1969369266288 L1130.267984382631,940.1544112506091 L1130.3019773898163,940.1088094518497 L1130.3346389260205,940.0601812328177 L1130.3659333926712,940.0085795945467 L1130.3958266811974,939.9540607788692 L1130.4242862102044,939.8966842071176 L1130.4512809609864,939.8365124153596 L1130.4767815113325,939.7736109862386 L1130.5007600675967,939.7080484774934 L1130.5231904949896,939.639896347236 L1130.5440483460636,939.5692288760673 L1130.563310887359,939.4961230861172 L1130.5809571241814,939.420658657096 L1130.5969678234846,939.3429178394503 L1130.611325534833,939.2629853647156 L1130.6350212171294,939.096896218859 L1130.651940893306,938.9231151200039 L1130.6620108188586,938.7423994940483 L1130.66518710396,938.5555369910659 " />
			<path d="M2585.4477052120324,572.538930093355 L2585.498636674332,572.5767660298155 L2585.549511173265,572.6115953140313 L2585.600276148623,572.6433819626619 L2585.6508791533515,572.672093135819 L2585.701267907732,572.6976991709947 L2585.7513903533963,572.7201736137067 L2585.8011947071095,572.7394932448295 L2585.850629514267,572.7556381045828 L2585.8996437020573,572.7685915131522 L2585.948186632224,572.7783400879225 L2585.9962081533836,572.7848737573034 L2586.043658652839,572.7881857711347 L2586.0904891078344,572.7882727076601 L2586.136651136204,572.7851344770623 L2586.182097046357,572.7787743215563 L2586.2267798865482,572.7691988120389 " />
			<path d="M2586.2267798865482,572.7691988120389 L2586.271831580935,572.7560267149815 L2586.315980457612,572.739487317374 L2586.3591783976854,572.7195986458927 L2586.4013783187092,572.6963823776659 L2586.442534226003,572.6698638166474 L2586.4826012627805,572.6400718660371 L2586.521535759041,572.607038996779 L2586.5592952791662,572.5708012121698 L2586.5958386681727,572.5313980086188 L2586.6311260965654,572.488872332599 L2586.6651191037504,572.4432705338396 L2586.6977806399545,572.3946423148077 L2586.7290751066053,572.3430406765367 L2586.7589683951314,572.2885218608592 L2586.7874279241387,572.2311452891075 L2586.8144226749205,572.1709734973496 L2586.8399232252664,572.1080720682286 L2586.863901781531,572.0425095594834 L2586.8863322089237,571.974357429226 L2586.9071900599974,571.9036899580573 L2586.926452601293,571.8305841681072 L2586.9440988381157,571.755119739086 L2586.9601095374187,571.6773789214402 L2586.9744672487673,571.5974464467056 L2586.9981629310632,571.431357300849 L2587.01508260724,571.2575762019939 L2587.0251525327926,571.0768605760383 L2587.0283288178944,570.8899980730558 " />
			<path d="M1130.5566461162127,864.4120455664965 L1130.5545307922987,864.2696305076641 L1130.5486025735124,864.1246111287891 L1130.5388757414528,863.9773367942571 L1130.52537372891,863.82816230084 L1130.5081290634148,863.6774470229583 L1130.4871832888768,863.5255540469177 L1130.4625868655019,863.3728492962018 L1130.434399048228,863.2197006499302 L1130.402687743976,863.0664770566062 L1130.3675293480553,862.9135476452869 L1130.3290085601213,862.7612808363192 L1130.2872181801263,862.6100434537827 L1130.2422588847558,862.4601998417791 L1130.1942389848905,862.3121109866942 L1130.1432741646752,862.166133647551 L1130.089487202826,862.0226194965456 L1130.0330076768446,861.8819142718382 L1129.9739716508568,861.7443569446394 L1129.9125213478196,861.6102789025991 L1129.8488048068957,861.4800031514643 L1129.7829755268133,861.3538435369304 L1129.7151920960735,861.232103988559 L1129.6456178108986,861.1150777875853 L1129.5744202818353,861.0030468603776 L1129.5017710299674,860.8962810992525 L1129.427845073706,860.7950377122801 L1129.3528205071548,860.6995606036473 L1129.276878071066,860.6100797860718 L1129.2002007174199,860.5268108266806 L1129.1229731686776,860.4499543276905 L1129.0453814727684,860.3796954431393 L1128.967612554884,860.316203432834 " />
			<path d="M2586.9197878301475,496.74650664848645 L2586.917672506233,496.6040915896541 L2586.911744287447,496.45907221077897 L2586.9020174553875,496.31179787624706 L2586.8885154428444,496.1626233828299 L2586.8712707773493,496.01190810494825 L2586.8503250028116,495.8600151289077 L2586.8257285794366,495.7073103781918 L2586.7975407621625,495.5541617319202 L2586.7658294579105,495.40093813859625 L2586.7306710619896,495.2480087272769 L2586.6921502740556,495.0957419183091 L2586.650359894061,494.9445045357727 L2586.6054005986903,494.794660923769 L2586.557380698825,494.64657206868407 L2586.50641587861,494.5005947295409 L2586.45262891676,494.35708057853554 L2586.396149390779,494.2163753538282 L2586.337113364791,494.0788180266294 L2586.275663061754,493.9447399845891 L2586.21194652083,493.81446423345426 L2586.1461172407476,493.6883046189203 L2586.078333810008,493.5665650705489 L2586.0087595248333,493.4495388695752 L2585.93756199577,493.3375079423676 L2585.864912743902,493.2307421812425 L2585.7909867876406,493.12949879427003 L2585.7159622210893,493.0340216856373 L2585.6400197850003,492.9445408680618 L2585.5633424313546,492.86127190867063 L2585.486114882612,492.7844154096805 L2585.408523186703,492.71415652512934 L2585.3307542688185,492.6506645148239 " />
			<path d="M1128.967612554884,860.3162034328338 L1113.31743029188,848.2345847481026 " />
			<path d="M2585.330754268818,492.6506645148239 L2569.6805720058146,480.5690458300927 " />
			<path d="M1113.31743029188,848.2345847481025 L1113.2664988295803,848.196748811642 L1113.2156243306474,848.1619195274262 L1113.1648593552893,848.1301328787956 L1113.1142563505612,848.1014217056386 L1113.0638675961807,848.0758156704628 L1113.0137451505161,848.0533412277508 L1112.9639407968032,848.034021596628 L1112.9145059896455,848.0178767368748 L1112.8654918018553,848.0049233283054 L1112.8169488716887,847.995174753535 L1112.7689273505289,847.9886410841541 L1112.7214768510737,847.9853290703228 L1112.6746463960783,847.9852421337974 L1112.6284843677086,847.9883803643952 L1112.5830384575556,847.9947405199013 L1112.5383556173645,848.0043160294186 " />
			<path d="M1112.5383556173645,848.0043160294186 L1112.493303922977,848.017488126476 L1112.4491550463003,848.0340275240835 L1112.405957106227,848.0539161955649 L1112.3637571852032,848.0771324637916 L1112.3226012779096,848.1036510248101 L1112.2825342411322,848.1334429754204 L1112.2435997448715,848.1664758446785 L1112.205840224746,848.2027136292877 L1112.1692968357397,848.2421168328387 L1112.1340094073473,848.2846425088585 L1112.100016400162,848.3302443076179 L1112.067354863958,848.3788725266498 L1112.0360603973072,848.4304741649208 L1112.006167108781,848.4849929805983 L1111.977707579774,848.54236955235 L1111.950712828992,848.602541344108 L1111.9252122786459,848.665442773229 L1111.9012337223817,848.7310052819741 L1111.8788032949888,848.7991574122316 L1111.8579454439148,848.8698248834003 L1111.8386829026194,848.9429306733504 L1111.821036665797,849.0183951023715 L1111.8050259664938,849.0961359200173 L1111.7906682551454,849.176068394752 L1111.766972572849,849.3421575406086 L1111.7500528966725,849.5159386394637 L1111.7399829711198,849.6966542654193 L1111.7368066860183,849.8835167684017 " />
			<path d="M2569.680572005815,480.56904583009276 L2569.6296405435155,480.5312098936322 L2569.5787660445826,480.49638060941646 L2569.5280010692245,480.4645939607859 L2569.477398064496,480.43588278762877 L2569.4270093101154,480.41027675245306 L2569.376886864451,480.387802309741 L2569.327082510738,480.3684826786182 L2569.2776477035804,480.35233781886507 L2569.22863351579,480.3393844102956 L2569.1800905856235,480.32963583552527 L2569.132069064464,480.3231021661443 L2569.0846185650084,480.31979015231303 L2569.037788110013,480.3197032157877 L2568.9916260816435,480.32284144638544 L2568.9461801714906,480.3292016018915 L2568.901497331299,480.33877711140883 " />
			<path d="M2568.901497331299,480.33877711140883 L2568.85762372446,480.3515580821467 L2568.8146046783168,480.3675313096413 L2568.7724846373367,480.38668029139785 L2568.7313071171934,480.40898524393964 L2568.6911146598104,480.4344231232473 L2568.651948789408,480.46296764856623 L2568.6138499696035,480.4945893295581 L2568.5768575616094,480.5292554967685 L2568.541009783563,480.56693033537874 L2568.506343671046,480.6075749222075 L2568.472895038822,480.6511472659237 L2568.4406984438306,480.6976023504291 L2568.4097871494905,480.74689218136604 L2568.3801930913305,480.79896583570206 L2568.3519468439986,480.8537695143404 L2568.325077589671,480.9112465977015 " />
			<path d="M1111.8453476737657,924.0270081929712 L1111.8474629976797,924.1694232518036 L1111.853391216466,924.3144426306786 L1111.8631180485256,924.4617169652106 L1111.8766200610685,924.6108914586277 L1111.8938647265636,924.7616067365094 L1111.9148105011016,924.91349971255 L1111.9394069244765,925.0662044632659 L1111.9675947417504,925.2193531095375 L1111.9993060460024,925.3725767028615 L1112.034464441923,925.5255061141808 L1112.072985229857,925.6777729231485 L1112.1147756098521,925.829010305685 L1112.1597349052226,925.9788539176886 L1112.207754805088,926.1269427727735 L1112.2587196253032,926.2729201119167 L1112.3125065871525,926.416434262922 L1112.3689861131338,926.5571394876295 L1112.4280221391216,926.6946968148283 L1112.4894724421588,926.8287748568686 L1112.5531889830827,926.9590506080034 L1112.6190182631651,927.0852102225373 L1112.686801693905,927.2069497709087 L1112.7563759790798,927.3239759718824 L1112.8275735081431,927.4360068990901 L1112.900222760011,927.5427726602152 L1112.9741487162723,927.6440160471876 L1113.0491732828236,927.7394931558204 L1113.1251157189124,927.8289739733959 L1113.2017930725585,927.9122429327871 L1113.2790206213008,927.9890994317772 L1113.35661231721,928.0593583163284 L1113.4343812350944,928.1228503266337 " />
			<path d="M1129.0845634980983,940.204469011365 L1113.4343812350944,928.1228503266337 " />
			<path d="M9.426675335223969,-6.821917466723672 L9.42667536391296,67.17169252922184 " />
			<path d="M1112.1950263597635,850.886456592167 L1112.1950263884526,924.8800665881124 " />
			<path d="M10.240443671825483,68.99199996860455 L10.146411265510539,68.9139805118995 L10.057338309699759,68.83006382810241 L9.973439389027806,68.74045207993227 L9.89491662342072,68.64536115002223 L9.821959181171136,68.5450201208392 L9.75474282321511,68.439670722804 L9.693429479708485,68.32956675194124 L9.638166859922789,68.21497345846242 L9.589088096400548,68.09616690775448 L9.546311424227195,67.97343331531401 L9.509939896192286,67.84706835722872 L9.48006113452621,67.71737645786757 L9.45674711981048,67.58467005649554 L9.440054017570137,67.44926885457978 L9.430022042966035,67.31149904560047 L9.426675363912956,67.17169252922187 " />
			<path d="M9.426675335223967,-6.821917466723675 L9.430022012885296,-6.963423856964772 L9.440053983538728,-7.106289246392417 L9.456747079288268,-7.250169459769951 L9.48006108500411,-7.394717877060928 L9.509939835204419,-7.53958626846715 L9.546311349362892,-7.684425633344745 L9.589088005316155,-7.8288870409772935 L9.638166750353221,-7.972622471180484 L9.69342934947851,-8.115285652713222 L9.754742670250291,-8.256532897475372 L9.821959003508418,-8.39602392848251 L9.894916419218616,-8.533422699622966 L9.973439156576122,-8.668398205222351 L10.05733804742886,-8.800625277465217 L10.146410972000096,-8.929785369752807 L10.240443345812668,-9.055567324109715 L10.3392086366418,-9.177668120790695 L10.442468910251065,-9.295793608281778 L10.549975403596807,-9.409659211937026 L10.661469124120103,-9.518990619543786 L10.776681473682512,-9.62352444216483 L10.895334895642527,-9.723008848665385 L11.017143543513836,-9.817204172396384 L11.14181396959454,-9.905883488572425 L11.26904583190837,-9.988833160953448 L11.398532617754817,-10.065853356513156 L11.529962382125076,-10.136758526854269 L11.663018499204888,-10.20137785521088 L11.797380425153872,-10.259555667960992 L11.932724470323699,-10.311151809657918 L12.068724579054818,-10.356041980677016 L12.20505311517307,-10.394118036664384 " />
			<path d="M1114.3446437654336,847.5483103215158 L1114.4221142653298,847.511263045451 L1114.500033630043,847.4763893584128 L1114.5783384169758,847.4437176548485 L1114.6569648697175,847.4132745363315 L1114.7358489699543,847.3850847899031 L1114.8149264895933,847.35917136789 L1114.8941330430584,847.3355553692166 L1114.9734041397128,847.3142560222263 " />
			<path d="M12.205053115173099,-10.394118036664391 L39.64153370314619,-17.36211590608951 " />
			<path d="M1114.9734041397128,847.3142560222263 L1142.409884727686,840.3462581528013 " />
			<path d="M39.64153370314619,-17.362115906089514 L39.7778622131576,-17.393286113183624 L39.91386229597598,-17.41747538760857 L40.04920631561519,-17.434625455305863 L40.183568216602154,-17.44469500027609 L40.316624309472736,-17.447659764112732 L40.44805405056774,-17.443512604442756 L40.57754081425033,-17.432263512133225 L40.70477265568464,-17.41393958722243 L40.82944306233796,-17.388584973633556 L40.95125169239592,-17.356260752828117 L41.06990509831201,-17.317044796655466 L41.185117433748125,-17.27103157975272 L41.29661114220317,-17.218331951947196 L41.40411762567072,-17.15907287120956 L41.50737789171492,-17.093397097801077 L41.60614317740565,-17.021462850351778 " />
			<path d="M1142.4098847276857,840.346258152801 L1142.5098782571215,840.3227200637841 L1142.6097422257055,840.3029266794186 L1142.7093472404554,840.2869036458417 L1142.8085642439132,840.2746717239758 L1142.9072646813645,840.2662467626287 L1143.0053206674054,840.2616396779586 L1143.1026051516426,840.2608564393299 L1143.1989920833123,840.2638980615791 " />
			<path d="M362.28065278816007,-96.43562797939188 L362.28065278816007,-22.442017978340736 " />
			<path d="M363.0944208797105,-20.621710706177325 L363.000388496594,-20.699730172986442 L362.9113155632056,-20.783646863684716 L362.82741666404377,-20.873258615614013 L362.74889391890525,-20.968349546214874 L362.6759364959609,-21.068690573106505 L362.60872015603286,-21.174039965966283 L362.5474068291715,-21.284143928879296 L362.4921442245516,-21.398737211754916 L362.4430654746282,-21.517543749337513 L362.4002888144086,-21.64027732627182 L362.3639172966141,-21.766642266620813 L362.3340385434168,-21.896334146174933 L362.31072453535023,-22.029040525836667 L362.2940314379018,-22.1644417043137 L362.2839994662056,-22.302211488307343 L362.28065278816,-22.442017978340726 " />
			<path d="M362.28065278816,-96.43562797939187 L362.2839994662056,-96.57713436938494 L362.2940314379018,-96.71999975804967 L362.31072453535023,-96.86387997015127 L362.3340385434168,-97.00842838565634 L362.3639172966141,-97.15329677477101 L362.4002888144086,-97.29813613685691 L362.4430654746282,-97.44259754120434 L362.4921442245516,-97.58633296763692 L362.5474068291715,-97.72899614492263 L362.60872015603286,-97.87024338497157 L362.6759364959609,-98.00973441081068 L362.74889391890525,-98.14713317634072 L362.82741666404377,-98.28210867590082 L362.9113155632056,-98.4143357416901 L363.000388496594,-98.54349582712533 L363.0944208797105,-98.6692777742476 L363.1931861803081,-98.79137856332913 L363.29644646412663,-98.90950404287425 L363.40395296809794,-99.02336963825614 L363.5154466996375,-99.1327010372821 L363.6306590605803,-99.23723485103558 L363.7493124942574,-99.33671924840314 L363.87112115415437,-99.43091456275774 L363.99579159254023,-99.51959386933656 L364.12302346740915,-99.60254353192265 L364.2525102660303,-99.67956371751333 L364.38394004336413,-99.75046887773532 L364.51699617356513,-99.8150881958471 L364.6513581127614,-99.87326599825134 L364.78670217127257,-99.9248621295263 L364.922702293407,-99.96975229007244 L365.0590308429583,-100.00782833556106 " />
			<path d="M1465.69126335089,759.2761982568206 L1465.7918053204796,759.132715569373 L1465.8984581304155,758.9935399687157 L1466.010901554545,758.859089331013 L1466.1287979803371,758.7297673456795 L1466.2517934225684,758.6059623032986 L1466.3795185861652,758.4880459297759 L1466.511589975018,758.3763722702288 L1466.6476110434314,758.271276625962 L1466.7871733867564,758.1730745477221 L1466.9298579676301,758.0820608882532 L1467.0752363741392,757.9985089169984 L1467.2228721061317,757.9226694996061 L1467.3723218858127,757.8547703447022 L1467.4475869931482,757.8238630229176 L1467.5231369886903,757.7950153201938 L1467.598915151885,757.7682488944761 L1467.674864590876,757.7435838411529 L1467.75092828522,757.7210386779689 L1467.8270491286928,757.7006303311215 " />
			<path d="M365.0590308429583,-100.00782833556109 L392.49551413409125,-106.97582409203928 " />
			<path d="M1467.8270491286928,757.7006303311214 L1495.2635324198257,750.7326345746433 " />
			<path d="M392.49551413409125,-106.97582409203928 L392.63184268364256,-107.00699429394176 L392.767842805777,-107.03118356051155 L392.90318686428816,-107.04833361768671 L393.0375488034844,-107.05840314947737 L393.1706049336854,-107.06136789749945 L393.30203471101925,-107.05722071941527 L393.4315215096404,-107.0459716061401 L393.5587533845093,-107.02764765777313 L393.6834238228952,-107.00229301831095 L393.8052324827921,-106.96996876930083 L393.92388591646926,-106.93075278268991 L394.03909827741205,-106.88473953322486 L394.1505920089516,-106.8320398708539 L394.2580985129229,-106.77278075367965 L394.36135879674146,-106.70710494210587 L394.46012409733896,-106.63517065491516 " />
			<path d="M1495.2635324198259,750.7326345746433 L1495.3831121671763,750.7049213591745 L1495.502470303444,750.6825719915541 L1495.6213856282475,750.665627890732 L1495.7396377618447,750.6541204583511 L1495.8570075535524,750.6480710205523 L1495.9732774878871,750.6474907884519 L1496.0882320876747,750.6523808373647 L1496.201658313384,750.6627321048111 L1496.3133459579426,750.6785254073118 L1496.4230880363018,750.6997314759401 L1496.5306811690323,750.7263110105644 L1496.6359259592364,750.7582147526807 L1496.7386273620812,750.7953835767015 L1496.8385950462641,750.8377485995301 L1496.935643746745,750.8852313082175 L1497.029593608088,750.9377437054674 " />
			<path d="M715.1346657475403,-186.0493455563773 L715.1346657475403,-112.05573555532615 " />
			<path d="M715.9484338390909,-110.23542828316275 L715.8544014559743,-110.31344774997187 L715.765328522586,-110.39736444067013 L715.6814296234242,-110.48697619259943 L715.6029068782856,-110.5820671232003 L715.5299494553412,-110.68240815009193 L715.4627331154132,-110.78775754295171 L715.4014197885518,-110.89786150586473 L715.346157183932,-111.01245478874034 L715.2970784340085,-111.13126132632293 L715.2543017737889,-111.25399490325724 L715.2179302559945,-111.38035984360624 L715.1880515027971,-111.51005172316036 L715.1647374947305,-111.64275810282209 L715.1480443972822,-111.77815928129912 L715.138012425586,-111.91592906529276 L715.1346657475403,-112.05573555532615 " />
			<path d="M715.1346657475403,-186.0493455563773 L715.138012425586,-186.19085194637034 L715.1480443972822,-186.3337173350351 L715.1647374947305,-186.4775975471367 L715.1880515027971,-186.62214596264178 L715.2179302559945,-186.76701435175642 L715.2543017737889,-186.91185371384233 L715.2970784340085,-187.05631511818976 L715.346157183932,-187.20005054462234 L715.4014197885518,-187.34271372190807 L715.4627331154132,-187.483960961957 L715.5299494553412,-187.6234519877961 L715.6029068782856,-187.76085075332614 L715.6814296234242,-187.89582625288625 L715.765328522586,-188.02805331867552 L715.8544014559743,-188.15721340411073 L715.9484338390909,-188.28299535123304 L716.0471991396884,-188.40509614031455 L716.150459423507,-188.52322161985967 L716.2579659274783,-188.63708721524156 L716.3694596590178,-188.74641861426753 L716.4846720199606,-188.850952428021 L716.6033254536378,-188.95043682538855 L716.7251341135348,-189.04463213974316 L716.8498045519206,-189.13331144632198 L716.9770364267895,-189.21626110890807 L717.1065232254106,-189.29328129449874 L717.2379530027445,-189.36418645472074 L717.3710091329455,-189.42880577283253 L717.5053710721417,-189.48698357523676 L717.6407151306529,-189.5385797065117 L717.7767152527873,-189.58346986705786 L717.9130438023386,-189.62154591254648 " />
			<path d="M1818.2047403056479,670.2825580250968 L1818.2495089707866,670.1841343856186 L1818.2971514488477,670.086620038862 L1818.347611431964,669.9901302354414 L1818.4008292823057,669.8947790150795 L1818.4567421025647,669.8006790718267 L1818.5152838102915,669.7079416208694 L1818.5763852159978,669.6166762670864 L1818.6399741049302,669.5269908755089 L1818.7059753224187,669.4389914438366 L1818.7743108627028,669.352781977161 L1818.844899961123,669.2684643650429 L1818.9176591895766,669.186138261091 L1818.9925025551197,669.1059009651832 L1819.0693416016009,669.0278473084695 L1819.1480855142056,668.952069541292 L1819.2286412267897,668.8786572241563 L1819.3109135318716,668.8076971218811 L1819.394805193158,668.7392731010527 L1819.4802170604637,668.6734660309039 L1819.567048186898,668.6103536877362 L1819.6551959481703,668.5500106629975 L1819.744556163881,668.4925082751231 L1819.8350232206506,668.4379144852464 L1819.9264901969416,668.3862938168763 L1820.0188489894288,668.3377072796375 L1820.1119904407633,668.2922122971651 L1820.205804468585,668.2498626392359 L1820.3001801956261,668.2107083582189 L1820.3950060807563,668.1747957299198 L1820.49017005081,668.1421671988873 L1820.5855596330455,668.1128613282493 L1820.681062088073,668.086912754136 " />
			<path d="M717.9130438023386,-189.62154591254648 L745.3495270934715,-196.5895416690247 " />
			<path d="M1820.681062088073,668.0869127541359 L1848.117545379206,661.1189169976578 " />
			<path d="M745.3495270934715,-196.58954166902464 L745.4858556430228,-196.62071187092715 L745.6218557651572,-196.64490113749693 L745.7571998236684,-196.6620511946721 L745.8915617628646,-196.67212072646277 L746.0246178930656,-196.67508547448483 L746.1560476703995,-196.67093829640066 L746.2855344690206,-196.6596891831255 L746.4127663438895,-196.6413652347585 L746.5374367822753,-196.61601059529633 L746.6592454421723,-196.5836863462862 L746.7778988758495,-196.5444703596753 L746.8931112367923,-196.49845711021024 L747.0046049683318,-196.44575744783927 L747.1121114723031,-196.38649833066503 L747.2153717561217,-196.32082251909125 L747.3141370567192,-196.24888823190054 " />
			<path d="M1848.117545379206,661.1189169976578 L1848.2538739287572,661.0877467957553 L1848.3898740508916,661.0635575291856 L1848.5252181094029,661.0464074720104 L1848.659580048599,661.0363379402197 L1848.7926361788002,661.0333731921976 L1848.924065956134,661.0375203702818 L1849.0535527547552,661.048769483557 L1849.180784629624,661.0670934319239 L1849.30545506801,661.0924480713861 L1849.4272637279068,661.1247723203962 L1849.545917161584,661.1639883070071 L1849.6611295225268,661.2100015564722 L1849.7726232540663,661.2627012188432 L1849.8801297580376,661.3219603360175 L1849.9833900418562,661.3876361475913 L1850.0821553424537,661.4595704347819 " />
			<path d="M1850.0821553424537,661.4595704347819 L1850.1591574158444,661.5227045391332 L1850.2328924696492,661.5897796434367 L1850.3032425118786,661.6606884130593 L1850.3700949672925,661.7353173786761 " />
			<path d="M1067.9886787069202,-275.6630631333627 L1067.9886787069202,-201.66945313231153 " />
			<path d="M1068.8024467984708,-199.84914586014813 L1068.7084144153544,-199.92716532695724 L1068.6193414819659,-200.0110820176555 L1068.535442582804,-200.1006937695848 L1068.4569198376655,-200.19578470018567 L1068.3839624147213,-200.29612572707728 L1068.3167460747932,-200.40147511993706 L1068.2554327479318,-200.5115790828501 L1068.2001701433119,-200.6261723657257 L1068.1510913933885,-200.7449789033083 L1068.108314733169,-200.8677124802426 L1068.0719432153744,-200.9940774205916 L1068.042064462177,-201.1237693001457 L1068.0187504541104,-201.25647567980747 L1068.0020573566621,-201.3918768582845 L1067.992025384966,-201.52964664227812 L1067.9886787069204,-201.6694531323115 " />
			<path d="M1067.9886787069204,-275.66306313336264 L1067.992025384966,-275.8045695233557 L1068.0020573566621,-275.94743491202047 L1068.0187504541104,-276.09131512412205 L1068.042064462177,-276.23586353962713 L1068.0719432153744,-276.3807319287418 L1068.108314733169,-276.52557129082766 L1068.1510913933885,-276.6700326951751 L1068.2001701433119,-276.8137681216077 L1068.2554327479318,-276.9564312988934 L1068.3167460747932,-277.0976785389424 L1068.3839624147213,-277.2371695647814 L1068.4569198376655,-277.3745683303115 L1068.535442582804,-277.5095438298716 L1068.6193414819659,-277.64177089566084 L1068.7084144153544,-277.7709309810961 L1068.8024467984708,-277.8967129282184 L1068.9012120990683,-278.0188137172999 L1069.004472382887,-278.13693919684505 L1069.1119788868582,-278.2508047922269 L1069.2234726183976,-278.3601361912529 L1069.3386849793405,-278.4646700050063 L1069.4573384130176,-278.5641544023739 L1069.5791470729146,-278.65834971672854 L1069.7038175113005,-278.74702902330733 L1069.8310493861693,-278.8299786858934 L1069.9605361847905,-278.9069988714841 L1070.0919659621243,-278.9779040317061 L1070.2250220923254,-279.0425233498179 L1070.3593840315216,-279.10070115222214 L1070.4947280900328,-279.1522972834971 L1070.6307282121672,-279.1971874440432 L1070.7670567617185,-279.23526348953186 " />
			<path d="M2171.008632969422,580.7886513337647 L2171.0514762777884,580.685552772121 L2171.097480435899,580.5832868330531 L2171.1465868947494,580.4819836693341 L2171.1987331570726,580.3817722084233 L2171.2538528568743,580.2827799883812 L2171.3118758438995,580.1851329955535 L2171.372728272909,580.08895550423 L2171.436332697664,579.9943699184805 L2171.5026081694896,579.9014966163747 L2171.571470340297,579.8104537967763 L2171.6428315699336,579.7213573289138 L2171.716601037722,579.6343206049141 L2171.7926848580446,579.5494543954906 L2171.8709861998323,579.4668667089653 L2171.9514054098004,579.3866626538088 L2172.0338401392755,579.308944304869 L2172.1181854744536,579.2338105734623 L2172.2043340699242,579.1613570814895 L2172.2921762852857,579.0916760397396 L2172.3816003246843,579.0248561305333 L2172.4724923790964,578.9609823948583 L2172.564736771171,578.9001361241391 L2172.658216102451,578.8423947567771 L2172.752811402786,578.7878317795968 L2172.8484022817424,578.7365166343187 L2172.944867081826,578.6885146291828 L2173.042083033311,578.6438868558304 L2173.13992641049,578.602690111554 L2173.2382726891365,578.5649768270122 L2173.336996704989,578.5307949995009 L2173.435972813041,578.5001881318688 L2173.535075047453,578.4731951771506 " />
			<path d="M1070.7670567617185,-279.23526348953186 L1098.2035400528514,-286.2032592460101 " />
			<path d="M2173.535075047453,578.4731951771505 L2200.9715583385864,571.5051994206724 " />
			<path d="M1098.2035400528514,-286.20325924601 L1098.3398686024027,-286.2344294479125 L1098.4758687245371,-286.2586187144823 L1098.6112127830484,-286.27576877165745 L1098.7455747222446,-286.2858383034481 L1098.8786308524457,-286.28880305147015 L1099.0100606297794,-286.284655873386 L1099.1395474284006,-286.27340676011084 L1099.2667793032695,-286.2550828117439 L1099.3914497416554,-286.2297281722817 L1099.5132584015523,-286.19740392327157 L1099.6319118352294,-286.1581879366606 L1099.7471241961723,-286.1121746871956 L1099.8586179277117,-286.0594750248246 L1099.966124431683,-286.0002159076504 L1100.0693847155017,-285.9345400960766 L1100.1681500160992,-285.86260580888586 " />
			<path d="M2200.971558338586,571.5051994206725 L2201.1078868881373,571.4740292187699 L2201.243887010272,571.4498399522003 L2201.3792310687827,571.4326898950251 L2201.513593007979,571.4226203632344 L2201.6466491381802,571.4196556152123 L2201.778078915514,571.4238027932964 L2201.907565714135,571.4350519065716 L2202.034797589004,571.4533758549386 L2202.1594680273897,571.4787304944008 L2202.2812766872867,571.5110547434109 L2202.399930120964,571.5502707300218 L2202.515142481907,571.5962839794869 L2202.6266362134465,571.6489836418579 L2202.734142717418,571.7082427590321 L2202.837403001236,571.7739185706059 L2202.9361683018337,571.8458528577966 " />
			<path d="M2202.9361683018337,571.8458528577966 L2203.0260803694086,571.9202387492517 L2203.1114776268337,572.0000119001006 L2203.1921724137196,572.0849970089229 L2203.2679874033515,572.1750073210249 L2203.3387559923635,572.269845038834 L2203.404322666851,572.3693017565583 L2203.464543344111,572.4731589181581 L2203.5192856892636,572.5811882976226 " />
			<path d="M1431.95611798566,-368.09923963930964 L1431.9561179827533,-294.10562963752034 " />
			<path d="M1432.7698858834676,-292.28532251366903 L1432.6758535208487,-292.3633419893679 L1432.5867806072697,-292.44725868612556 L1432.5028817271082,-292.5368704413379 L1432.4243590000472,-292.6319613725106 L1432.3514015941491,-292.7323023973392 L1432.2841852701363,-292.8376517855879 L1432.2228719579655,-292.94775574143904 L1432.167609366726,-293.06234901490876 L1432.1185306287955,-293.18115554085773 L1432.0757539791125,-293.3038891040557 L1432.0393824703378,-293.4302540286989 L1432.0095037245924,-293.5599458907189 L1431.986189722367,-293.6926522511662 L1431.9694966291163,-293.8280534089031 L1431.9594646599503,-293.9658231707915 L1431.9561179827535,-294.1056296375203 " />
			<path d="M1431.95611798566,-368.09923963930964 L1431.959464664002,-368.24074602907757 L1431.9694966365762,-368.3836114170648 L1431.9861897354817,-368.52749162803804 L1432.0095037455812,-368.6720400419667 L1432.039382501382,-368.8169084290606 L1432.0757540223449,-368.96174778868635 L1432.1185306862894,-369.10620919014013 L1432.1676094404859,-369.2499446132525 L1432.2228720499165,-369.3926077867995 L1432.2841853821146,-369.5338550227002 L1432.3514017278926,-369.6733460439915 L1432.4243591571858,-369.81074480458517 L1432.5028819091572,-369.94572029883227 L1432.5867808156192,-370.0779473589446 L1432.6758537567575,-370.2071074383527 L1432.769886148055,-370.33288937911215 L1432.868651457245,-370.4549901615105 L1432.9719117500467,-370.5731156340682 L1433.0794182633701,-370.68698122217523 L1433.1909120046082,-370.7963126136564 L1433.3061243755728,-370.90084641961346 L1433.4247778195706,-371.00033080895156 L1433.5465864900625,-371.09452611506316 L1433.671256939292,-371.1832054132052 L1433.798488825227,-371.26615506718116 L1433.92797563511,-371.343175244009 L1434.0594054238743,-371.41408039533655 L1434.192461565647,-371.47869970444384 L1434.3268235165283,-371.5368774977551 L1434.4621675868095,-371.5884736198705 L1434.598167720771,-371.63336377121266 L1434.7344962821774,-371.67143980747505 " />
			<path d="M2534.7944413943446,488.949259444276 L2534.822980503278,488.8251987904475 L2534.856251307642,488.70127672839607 L2534.894195049249,488.5777121117412 L2534.9367447172285,488.4547231628328 L2534.9838251663746,488.3325270873577 L2535.035353249857,488.2113396907419 L2535.091237966062,488.0913749970255 L2535.1513806193084,487.97284487088365 L2535.215674994148,487.8559586434611 L2535.2840075429485,487.74092274268116 L2535.3562575864275,487.62794032868203 L2535.4322975267764,487.5172109350239 L2535.5119930730075,487.4089301163011 L2535.595203478118,487.3032891027813 L2535.6817817876595,487.2004744626814 L2535.771575099266,487.10066777267747 L2535.8644248326914,487.0040452972295 L2535.9601670098673,486.91077767728797 L2536.058632544502,486.8210296289322 L2536.1596475406946,486.73495965247196 L2536.263033600045,486.6527197525265 L2536.368608136718,486.5744551695757 L2536.4761846998986,486.50030412345683 L2536.5855733030753,486.4303975692602 L2536.6965807595684,486.3648589660548 L2536.8090110237085,486.3038040588522 L2536.922665537064,486.24734067419445 L2537.0373435791084,486.1955685297258 L2537.152842621703,486.14857905808543 L2537.268958686773,486.10645524543236 L2537.3854867065484,486.0692714848869 L2537.502220885721,486.0370934451478 " />
			<path d="M1434.7344962821776,-371.67143980747505 L1462.1709819591747,-378.63943370713355 " />
			<path d="M2537.5022208857204,486.0370934451478 L2564.9387065627175,479.0690995454893 " />
			<path d="M1462.1709819591745,-378.63943370713355 L1462.3073105436683,-378.67060390450297 L1462.4433107005495,-378.69479316418466 L1462.5786547934172,-378.7119432121135 L1462.7130167663859,-378.7220127323079 L1462.8460729295846,-378.72497746640346 L1462.977502738953,-378.72083027209374 L1463.1069895684616,-378.70958114033635 L1463.23422147289,-378.6912571712843 L1463.358891939333,-378.66590250899884 L1463.4807006256149,-378.6335782351031 L1463.599354083842,-378.59436222163043 L1463.7145664673435,-378.54834894342423 L1463.8260602193022,-378.49564925053966 L1463.9335667414132,-378.43639010119574 L1464.0368270409601,-378.37071425592217 L1464.1355923547526,-378.2987799336363 " />
			<path d="M2564.938706562718,479.06909954548945 L2565.0750351472116,479.03792934812003 L2565.211035304093,479.01374008843834 L2565.3463793969604,478.9965900405095 L2565.480741369929,478.9865205203151 L2565.6137975331276,478.98355578621954 L2565.7452273424965,478.98770298052926 L2565.8747141720046,478.99895211228664 L2566.0019460764333,479.0172760813387 L2566.126616542876,479.04263074362416 L2566.248425229158,479.0749550175199 L2566.367078687385,479.11417103099257 L2566.4822910708867,479.16018430919877 L2566.5937848228455,479.21288400208334 L2566.701291344956,479.27214315142726 L2566.804551644503,479.33781899670083 L2566.903316958296,479.4097533189867 " />
			<path d="M2566.903316958296,479.4097533189867 L2566.972902990158,479.46651393282065 L2567.0398415027503,479.5264881817111 L2567.1040453751825,479.5895980088011 L2567.165431045717,479.65576127625917 L2567.2239186205225,479.72489187218224 L2567.2794319776576,479.7968998226708 L2567.3318988661435,479.8716914089307 L2567.3812509999993,479.94916928924823 L2567.4274241471167,480.02923262568163 L2567.4703582128586,480.11177721530186 L2567.5099973182714,480.19669562581333 L2567.546289872814,480.283877335378 L2567.579188641502,480.37320887646 L2567.6086508063822,480.4645739835044 L2567.634638022266,480.5578537442576 L2567.6571164666298,480.6529267545323 " />
			<path d="M9.426639828779841,-52.50803764276491 L1464.9494432862236,-422.16462264782984 " />
			<path d="M9.426639828779841,67.17169959864466 L9.426675363912958,67.17169057384895 " />
			<path d="M115.2876605038418,40.286361014501956 L362.28065278816007,-22.442017978340743 " />
			<path d="M468.14161760006704,-49.32734237501552 L715.1346657475403,-112.05573555532618 " />
			<path d="M820.9956305594474,-138.94105995200098 L1067.9886787069202,-201.66945313231147 " />
			<path d="M1173.8496435188274,-228.55477752898636 L1431.9561193891352,-294.10562854366765 " />
			<path d="M7.838995226037973,-56.609452866514744 L1463.3617986834818,-426.26603787157967 " />
			<path d="M-7.838995226037973,-68.8034454403516 L1447.683808231406,-438.4600304454165 " />
			<path d="M1130.5566461162127,864.4120455664964 L2586.9197878301475,496.7465066484865 " />
			<path d="M1130.66518710396,938.5555369910659 L2587.028328817895,570.889998073056 " />
			<path d="M1128.967612554884,860.3162034328338 L2585.330754268819,492.6506645148239 " />
			<path d="M1113.3174302918799,848.2345847481025 L2569.6805720058146,480.5690458300926 " />
			<path d="M9.42667533522397,-6.821917466723677 L1112.195026359764,850.8864565921673 " />
			<path d="M9.42667536391296,67.17169252922184 L1111.8790657176671,924.6343194981148 " />
			<path d="M12.205053115173095,-10.394118036664391 L1114.973404139713,847.3142560222266 " />
			<path d="M39.64153370314618,-17.362115906089514 L1142.4098847276862,840.3462581528015 " />
			<path d="M362.28065278816007,-96.43562797939187 L1462.8536742390525,759.565610926858 " />
			<path d="M362.28065278816007,-22.442017978340743 L1391.0314200110297,777.6974676394468 " />
			<path d="M365.0590308429583,-100.00782833556107 L1467.8270491286928,757.7006303311216 " />
			<path d="M392.49551413409125,-106.97582409203928 L1495.2635324198259,750.7326345746434 " />
			<path d="M715.1346657475403,-186.04934555637726 L1816.2261211914574,670.3551197888918 " />
			<path d="M715.1346657475403,-112.05573555532614 L1744.4038669634342,688.4869765014803 " />
			<path d="M717.9130438023386,-189.6215459125465 L1820.6810620880733,668.0869127541362 " />
			<path d="M745.3495270934715,-196.58954166902467 L1848.1175453792061,661.118916997658 " />
			<path d="M1067.9886787069202,-275.66306313336264 L2169.598568143862,581.1446286509256 " />
			<path d="M1067.9886787069202,-201.66945313231153 L2097.7763139158387,599.276485363514 " />
			<path d="M1070.7670567617185,-279.23526348953186 L2173.535075047453,578.4731951771507 " />
			<path d="M1098.2035400528514,-286.20325924601 L2200.971558338586,571.5051994206726 " />
			<path d="M1431.95611798566,-368.0992396393097 L2534.100477380148,489.1244538349891 " />
			<path d="M1431.9561179827533,-294.10562963752034 L2462.278242304563,507.2563057124569 " />
			<path d="M1434.7344962821774,-371.6714398074751 L2537.5022208857204,486.03709344514783 " />
			<path d="M1462.1709819591745,-378.6394337071335 L2564.9387065627175,479.06909954548945 " />
			<path d="M1432.4718228187294,-292.5730595603618 L1175.4619989160856,-227.30072333111892 " />
			<path d="M1068.5043825279154,-200.13688424840907 L822.6079859567055,-137.68700575413354 " />
			<path d="M715.6503695685354,-110.5231666714237 L469.75397299732515,-48.0732881771481 " />
			<path d="M362.79635660915505,-20.909449094438244 L116.90001638774234,41.540415088777664 " />
			<path d="M9.94237782055031,68.704259804255 L8.62668753373028,69.03840336916167 " />
			<path d="M1446.8961159237135,-438.69498837422657 L-8.62668753373028,-69.03840336916167 " />
			<path d="M2586.226779886549,572.7691988120389 L1129.863638172614,940.4347377300489 " />
			<path d="M2568.901497331299,480.33877711140866 L1112.5383556173642,848.0043160294186 " />
			<path d="M1112.185645549305,926.0601471694458 L10.240443671825483,68.99199996860453 " />
			<path d="M1143.6758418536112,840.1435151551747 L41.606143177405656,-17.021462850351764 " />
			<path d="M1389.8788872543632,777.9884298074413 L363.0944208797106,-20.621710706177346 " />
			<path d="M1497.047922015875,750.9331166150574 L394.46012409733896,-106.63517065491514 " />
			<path d="M1743.2513342067678,688.777938669475 L715.9484338390909,-110.23542828316273 " />
			<path d="M1850.082155342454,661.4595704347821 L747.3141370567192,-196.24888823190057 " />
			<path d="M2096.623781159172,599.5674475315086 L1068.8024467984708,-199.84914586014807 " />
			<path d="M2202.9361683018337,571.8458528577967 L1100.1681500160992,-285.8626058088859 " />
			<path d="M2461.125710072206,507.5472677480874 L1432.7698858834676,-292.28532251366903 " />
			<path d="M2566.9033169582954,479.40975331898676 L1464.1355923547526,-378.2987799336363 " />

       </g>
    </g>
    
</svg>
