<?xml version="1.0" encoding="UTF-8" standalone="no"?>
<svg
   xmlns:svg="http://www.w3.org/2000/svg"
   xmlns="http://www.w3.org/2000/svg"
   width="480.0"
   height="480.0"

>
    <g transform="scale(0.14860306522763417, -0.14860306522763417)   translate(1540.809206468557,-241.52529005529868)" stroke-width="1.0"  fill="none">
       <!-- hidden lines -->
       <g  stroke="rgb(0,0,0)" fill="none" stroke-dasharray="1.0,1.0" >
			<path d="M-1471.869457127068,117.38044387819455 L-1403.1328242019504,136.74479646898632 " />
			<path d="M-1401.4864377845822,140.36256773145763 L-1401.4884209291251,140.20725183476634 L-1401.494365585185,140.0511927323088 L-1401.5042574315648,139.89476638413197 L-1401.51807263794,139.73834963500994 L-1401.5357779222684,139.58231930659184 L-1401.5573306309693,139.42705128960546 L-1401.5826788416796,139.2729196383036 L-1401.6117614883394,139.12029566933458 L-1401.6445085083058,138.96954706720794 L-1401.6808410111391,138.82103699851018 L-1401.7206714686579,138.6751232370048 L-1401.763903925801,138.53215730172377 L-1401.810434231793,138.39248361012753 L-1401.8601502910503,138.2564386483731 L-1401.9129323332324,138.12435016068946 L-1401.968653201776,137.99653635981304 L-1402.0271786602284,137.8733051603853 L-1402.088367715634,137.7549534371595 L-1402.1520729581985,137.64176630980322 L-1402.218140916413,137.53401645602028 L-1402.286412426779,137.43196345464625 L-1402.3567230172484,137.33585316030022 L-1402.4289033034502,137.24591711109952 L-1402.5027793967527,137.16237197086414 L-1402.5781733231763,137.0854190071546 L-1402.6549034521486,137.0152436064008 L-1402.732784934068,136.95201482728973 L-1402.811630145623,136.89588499348852 L-1402.8912491417932,136.84698932668314 L-1402.9714501134424,136.8054456208177 L-1403.052039849406,136.77135395831843 L-1403.1328242019504,136.74479646898635 " />
			<path d="M-1402.4995986568088,174.133784580493 L-1402.4441880483473,174.1028588836658 L-1402.3897073896164,174.06780250388016 L-1402.336230252521,174.02866278205875 L-1402.283828853789,173.98549257336114 L-1402.2325739574453,173.93835017580685 L-1402.182534779254,173.8872992515485 L-1402.133778893245,173.83240874090092 L-1402.0863721404623,173.77375276924272 L-1402.0403785400495,173.71141054691554 L-1401.9958602027975,173.6454662622568 L-1401.9528772472693,173.57600896790981 L-1401.9114877186132,173.503132460565 L-1401.871747510179,173.42693515429494 L-1401.8337102880362,173.3475199476536 L-1401.7974274185044,173.26499408471986 L-1401.7629478987853,173.17946901027284 L-1401.7303182907974,173.09106021929412 L-1401.6995826582956,172.99988710100098 L-1401.6707825073688,172.90607277762035 L-1401.6439567303876,172.80974393812184 L-1401.619141553484,172.71103066713408 L-1401.59637048763,172.6100662692756 L-1401.575674283385,172.50698708913717 L-1401.5570808893674,172.4019323271591 L-1401.5406154145146,172.29504385165177 L-1401.5263000941736,172.18646600721348 L-1401.5141542600743,172.07634541980434 L-1401.5041943142244,171.96483079873914 L-1401.496433706758,171.85207273586715 L-1401.490882917774,171.73822350220925 L-1401.4875494431824,171.62343684232795 L-1401.4864377845822,171.50786776670716 " />
			<path d="M-1401.4864377845824,140.3625677314576 L-1401.4864377845824,171.50786776670714 " />
			<path d="M-1445.3020615921566,-2103.963916369884 L-1402.7417885262896,-2092.3411621845444 " />
			<path d="M-1401.088793140887,-2088.734726126551 L-1401.0909838951734,-2088.890133928412 L-1401.0971415335096,-2089.0462520940505 L-1401.1072512216053,-2089.202704521131 L-1401.1212886043365,-2089.359114302053 L-1401.139219864419,-2089.5151046319543 L-1401.1610018038762,-2089.6702997164675 L-1401.1865819481081,-2089.8243256770397 L-1401.215898672307,-2089.9768114516414 L-1401.2488813499162,-2090.1273896886855 L-1401.2854505227767,-2090.2756976320097 L-1401.3255180925478,-2090.4213779947877 L-1401.3689875329444,-2090.5640798202667 L-1401.4157541222771,-2090.7034593272488 L-1401.4657051957358,-2090.8391807382936 L-1401.5187204168096,-2090.970917088635 L-1401.5746720671873,-2091.0983510138653 L-1401.6334253544424,-2091.221175514497 L-1401.6948387367595,-2091.33909469555 L-1401.7587642639216,-2091.451824479389 L-1401.8250479337344,-2091.5590932900905 L-1401.8935300630317,-2091.6606427076936 L-1401.9640456723657,-2091.756228090757 L-1402.036424883457,-2091.84561916572 L-1402.1104933284464,-2091.9286005816543 L-1402.1860725699623,-2092.0049724290598 L-1402.262980530992,-2092.074550721467 L-1402.3410319335212,-2092.137167838675 L-1402.4200387448843,-2092.192672930564 L-1402.4998106307528,-2092.240932280506 L-1402.5801554136665,-2092.2818296274995 L-1402.6608795360057,-2092.315266446254 L-1402.7417885262894,-2092.3411621845444 " />
			<path d="M-1445.4294447610137,-2066.5510415231506 L-1445.3853229590093,-2066.5310299880707 L-1445.3411082776806,-2066.513263933664 L-1445.2968326445057,-2066.4977561888213 L-1445.2525280309756,-2066.484517951704 " />
			<path d="M-8.520057648913756,-2210.8177819980715 L34.0402154169534,-2199.195027812732 " />
			<path d="M-1445.2525280309753,-2066.4845179517047 L-1402.6922549651083,-2054.861763766365 " />
			<path d="M-1402.6922549651085,-2054.8617637663656 L-1402.6128583343525,-2054.8437418324365 L-1402.5336556134127,-2054.833085228638 L-1402.454830583252,-2054.8298186824154 L-1402.3765661484442,-2054.8339497734196 " />
			<path d="M-1402.3765661484442,-2054.8339497734196 L-1402.3072255036695,-2054.8438975875115 L-1402.2386065736057,-2054.859731159876 L-1402.170836601833,-2054.8814211295125 L-1402.1040412576633,-2054.9089272756055 L-1402.0383444031083,-2054.9421985921063 L-1401.973867863194,-2054.9811733823162 L-1401.9107312000544,-2055.0257793732953 L-1401.8490514912219,-2055.075933849882 L-1401.7889431125245,-2055.1315438080733 L-1401.7305175259926,-2055.192506127489 L-1401.6738830731688,-2055.2587077625935 L-1401.619144774206,-2055.330025952321 L-1401.5664041331215,-2055.4063284477165 L-1401.5157589495743,-2055.4874737571745 L-1401.4673031375098,-2055.573311408811 L-1401.4211265510098,-2055.6636822294945 L-1401.3773148176722,-2055.758418640005 L-1401.3359491798274,-2055.857344965789 L-1401.2971063438858,-2055.9602777627174 L-1401.260858338098,-2056.0670261572595 L-1401.2272723789883,-2056.1773922004254 L-1401.196410746713,-2056.291171234837 L-1401.1683306695695,-2056.4081522742313 L-1401.143084217876,-2056.528118394704 L-1401.1207182074152,-2056.6508471369643 L-1401.1012741126194,-2056.77611091885 L-1401.0847879896653,-2056.903677457345 L-1401.0712904096108,-2057.0333101993156 L-1401.0608064017065,-2057.164768760161 L-1401.0533554069825,-2057.297809369572 L-1401.0489512421982,-2057.432185323565 L-1401.0476020742208,-2057.56764744196 " />
			<path d="M-1401.0887931408872,-2088.734726126551 L-1401.047602074221,-2057.5676474419593 " />
			<path d="M33.270692186408745,-8.302320476602908 L33.443865498674214,-8.321191038679915 L33.609495388286355,-8.341906232561294 L33.766895196686114,-8.364380178426599 L33.91541238509631,-8.388519705125859 L34.05443123977816,-8.414224736443009 L34.18337542462069,-8.441388705985922 L34.30171037048081,-8.469898998983023 L34.408945491368264,-8.499637419154924 L34.50463621828792,-8.530480678725537 L34.5883858423075,-8.562300909541214 L34.6598471592099,-8.594966193178951 L34.718723908911834,-8.628341107845936 L34.743364726495834,-8.645251537454797 L34.764772003681266,-8.662287289803189 L34.78292354746165,-8.679430703861229 L34.79780054006184,-8.696664006985726 L34.80938755844649,-8.713969333345146 L34.81767259030912,-8.731328742441194 L34.82264704652539,-8.748724237707796 L34.82430577005744,-8.766137785168196 " />
			<path d="M34.82430577005744,-8.766137785168198 L34.82301211219288,-8.78151655566692 L34.819132189181126,-8.796882891507513 " />
			<path d="M33.2703635084434,-2199.0193247711204 L33.44353682070887,-2199.038195333197 L33.60916671032101,-2199.0589105270788 L33.76656651872077,-2199.081384472944 L33.91508370713097,-2199.105523999643 L34.05410256181282,-2199.13122903096 L34.18304674665535,-2199.158393000503 L34.30138169251547,-2199.1869032935006 L34.40861681340292,-2199.2166417136723 L34.50430754032258,-2199.247484973243 L34.58805716434216,-2199.279305204059 L34.65951848124456,-2199.3119704876963 L34.71839523094649,-2199.3453454023634 L34.74303604853049,-2199.362255831972 L34.76444332571592,-2199.3792915843205 L34.78259486949631,-2199.3964349983785 L34.7974718620965,-2199.413668301503 L34.809058880481146,-2199.4309736278624 L34.81734391234378,-2199.4483330369585 L34.82231836856005,-2199.465728532225 L34.8239770920921,-2199.4831420796854 " />
			<path d="M34.8239770920921,-2199.4831420796854 L34.82215193032539,-2199.5014081280397 L34.81667853251282,-2199.5196533393196 L34.80756314229276,-2199.537856900767 L34.79481615781317,-2199.5559980471357 L34.77845211987018,-2199.574056084378 L34.758489695320996,-2199.5920104132497 L34.73495165579022,-2199.6098405528105 L34.70786485169367,-2199.6275261637848 L34.64317255703125,-2199.6623832902237 L34.56470791146657,-2199.6964227884278 L34.47282883903757,-2199.7294893839467 L34.36795445498233,-2199.761432240321 " />
			<path d="M-8.129066239119473,-21.016699830490044 L-8.2131558325197,-21.039123030312155 L-8.303653328535278,-21.060821784152935 L-8.400340710771665,-21.081743817813795 L-8.502985050856239,-21.10183872828309 L-8.725141732630602,-21.139355647286397 L-8.967983883569683,-21.17301123272402 L-9.229172801008918,-21.202481362910174 L-9.506193092892977,-21.22748222438116 L-9.796376902376323,-21.247773045174153 L-10.09692960074303,-21.26315841359282 L-10.404956701209002,-21.273490160128794 L-10.717491734412013,-21.278668784415025 L-11.031524817133288,-21.278644413468715 L-11.344031639118278,-21.2734172819954 L-11.65200258883766,-21.263037730128605 L-11.952471737691596,-21.24760571862685 L-12.242545403523472,-21.227269866196895 L-12.519430018360907,-21.202226018214347 " />
			<path d="M-8.129394917084817,-2211.733704125008 L-8.213484510485042,-2211.75612732483 L-8.303982006500622,-2211.777826078671 L-8.40066938873701,-2211.7987481123314 L-8.503313728821583,-2211.818843022801 L-8.725470410595946,-2211.8563599418044 L-8.968312561535027,-2211.8900155272418 L-9.22950147897426,-2211.919485657428 L-9.50652177085832,-2211.944486518899 L-9.796705580341667,-2211.964777339692 L-10.097258278708374,-2211.9801627081106 L-10.405285379174346,-2211.9904944546465 L-10.717820412377357,-2211.9956730789327 L-11.031853495098632,-2211.9956487079867 L-11.344360317083622,-2211.990421576513 L-11.652331266803005,-2211.9800420246465 L-11.95280041565694,-2211.9646100131445 L-12.242874081488816,-2211.9442741607145 L-12.519758696326251,-2211.919230312732 " />
			<path d="M-12.519430018360937,-21.202226018214347 L-39.61620647690157,-18.454105940925253 " />
			<path d="M-39.61620647690157,-18.454105940925253 L-39.789379789167036,-18.435235378848247 L-39.95500967877918,-18.414520184966868 L-40.11240948717894,-18.392046239101564 L-40.26092667558913,-18.367906712402302 L-40.39994553027098,-18.34220168108515 L-40.528889715113515,-18.31503771154224 L-40.647224660973635,-18.286527418545138 L-40.75445978186109,-18.25678899837324 L-40.85015050878074,-18.225945738802626 L-40.933900132800325,-18.194125507986946 L-41.005361449702725,-18.16146022434921 L-41.064238199404656,-18.128085309682223 L-41.088879016988656,-18.111174880073364 L-41.11028629417409,-18.094139127724972 L-41.12843783795447,-18.076995713666932 L-41.143314830554665,-18.059762410542437 L-41.15490184893931,-18.042457084183017 L-41.163186880801945,-18.025097675086965 L-41.16816133701821,-18.007702179820367 L-41.169820060550265,-17.990288632359967 " />
			<path d="M-41.169820060550265,-17.990288632359963 L-41.16799489878356,-17.972022584005753 L-41.16252150097098,-17.953777372726098 L-41.15340611075092,-17.935573811278534 L-41.14065912627134,-17.917432664909615 L-41.124295088328346,-17.899374627667484 L-41.10433266377916,-17.881420298795693 L-41.080794624248384,-17.863590159235113 L-41.053707820151836,-17.84590454826084 L-40.989015525489414,-17.81104742182176 L-40.910550879924735,-17.777007923617912 L-40.81867180749573,-17.743941328098813 L-40.71379742344049,-17.711998471724684 " />
			<path d="M-39.61653515486691,-2209.1711102354425 L-39.78970846713238,-2209.152239673366 L-39.95533835674452,-2209.131524479484 L-40.11273816514428,-2209.1090505336188 L-40.261255353554475,-2209.08491100692 L-40.400274208236326,-2209.0592059756027 L-40.52921839307886,-2209.03204200606 L-40.64755333893898,-2209.0035317130623 L-40.75478845982643,-2208.9737932928906 L-40.850479186746085,-2208.94295003332 L-40.93422881076567,-2208.911129802504 L-41.00569012766807,-2208.8784645188666 L-41.06456687737,-2208.8450896041995 L-41.089207694954,-2208.828179174591 L-41.11061497213943,-2208.8111434222424 L-41.128766515919814,-2208.7940000081844 L-41.14364350852001,-2208.77676670506 L-41.15523052690465,-2208.7594613787005 L-41.16351555876729,-2208.7421019696044 L-41.168490014983554,-2208.724706474338 L-41.17014873851561,-2208.7072929268775 " />
			<path d="M-41.17014873851561,-2208.7072929268775 L-41.168323576748904,-2208.6890268785232 L-41.162850178936324,-2208.6707816672433 L-41.153734788716264,-2208.652578105796 L-41.14098780423668,-2208.634436959427 L-41.12462376629369,-2208.616378922185 L-41.1046613417445,-2208.598424593313 L-41.081123302213726,-2208.5805944537524 L-41.05403649811718,-2208.562908842778 L-40.989344203454756,-2208.528051716339 L-40.91087955789008,-2208.494012218135 L-40.819000485461075,-2208.4609456226162 L-40.71412610140583,-2208.429002766242 " />
			<path d="M-40.71379742344048,-17.711998471724684 L1.783551948626652,-5.739726587038115 " />
			<path d="M-40.714126101405824,-2208.4290027662423 L1.7832232706613134,-2196.4567308815554 " />
			<path d="M1.7835519486266533,-5.739726587038116 L1.8676415420268793,-5.717303387216004 L1.958139038042459,-5.6956046333752255 L2.0548264202788467,-5.674682599714366 L2.1574707603634207,-5.654587689245068 L2.3796274421377834,-5.617070770241762 L2.622469593076865,-5.583415184804142 L2.8836585105161,-5.553945054617986 L3.1606788024001595,-5.528944193147 L3.4508626118835073,-5.508653372354009 L3.751415310250212,-5.493268003935341 L4.059442410716184,-5.482936257399368 L4.371977443919194,-5.477757633113135 L4.68601052664047,-5.477782004059445 L4.998517348625462,-5.483009135532761 L5.3064882983448465,-5.4933886873995545 L5.60695744719878,-5.508820698901308 L5.897031113030654,-5.529156551331266 L6.173915727868101,-5.5542003993138165 " />
			<path d="M1.783223270661312,-2196.456730881555 L1.867312864061538,-2196.434307681733 L1.9578103600771177,-2196.412608927892 L2.0544977423135053,-2196.3916868942315 L2.1571420823980794,-2196.371591983762 L2.379298764172442,-2196.3340750647585 L2.622140915111524,-2196.300419479321 L2.883329832550759,-2196.2709493491348 L3.160350124434818,-2196.245948487664 L3.450533933918166,-2196.225657666871 L3.7510866322848706,-2196.2102722984523 L4.059113732750843,-2196.1999405519164 L4.371648765953853,-2196.19476192763 L4.685681848675129,-2196.194786298576 L4.998188670660121,-2196.2000134300497 L5.306159620379505,-2196.2103929819164 L5.6066287692334384,-2196.2258249934184 L5.896702435065313,-2196.2461608458484 L6.1735870499027605,-2196.271204693831 " />
			<path d="M33.27069218640875,-8.302320476602906 L6.173915727868122,-5.554200399313816 " />
			<path d="M33.2703635084434,-2199.01932477112 L6.173587049902773,-2196.271204693831 " />
			<path d="M-356.61415794533275,14.326142290971957 L-314.1168085470191,26.298414177195014 " />
			<path d="M-356.6141579453328,-2176.390895315013 L-314.11680854701916,-2164.41862342879 " />
			<path d="M-315.21439949193115,27.040521102830144 L-315.0412261839403,27.02165057623209 L-314.8755962982126,27.00093541777443 L-314.7181964932568,26.97846150712646 L-314.5696793078032,26.954322015287502 L-314.4306604555476,26.928617018324097 L-314.3017162725621,26.901453082480636 L-314.1833813279554,26.872942822383358 L-314.0761462076881,26.84320443416936 L-313.98045548073054,26.812361205476076 L-313.89670585599544,26.78054100432277 L-313.82524453768536,26.747875749002887 L-313.76636778587476,26.714500861185073 L-313.74172696697224,26.697590444412853 L-313.7203196882922,26.680554704490095 L-313.7021681428415,26.663411302432916 L-313.6872911483962,26.64617801087118 L-313.6757041279926,26.628872695623535 L-313.66741909393886,26.611513297175872 L-313.66244463536106,26.59411781208232 L-313.66078590929925,26.576704274308188 " />
			<path d="M-313.66078590929925,26.576704274308184 L-313.66261106849925,26.558438234254226 L-313.6680844640954,26.540193030719674 L-313.6771998524513,26.52198947645521 L-313.68994683542,26.503848336701168 L-313.7063108722059,26.485790305500128 L-313.7262732959513,26.467835982090694 L-313.74981133503013,26.450005847409468 L-313.7768981390248,26.43232024072792 L-313.8415904345212,26.397463121103122 L-313.9200550822757,26.363423627339824 L-314.0119341582063,26.330357033882063 L-314.1168085470191,26.29841417719501 " />
			<path d="M-315.2143994919312,-2163.6765165031547 L-315.049537312822,-2163.6944192297065 L-314.89146683921086,-2163.7139940167713 L-314.74078079376824,-2163.7351674640504 L-314.59804420950235,-2163.7578601766895 L-314.4637923110346,-2163.781987062989 L-314.33852850764777,-2163.807457653476 L-314.22272250563384,-2163.83417644014 L-314.11680854701916,-2163.8620432345633 " />
			<path d="M-313.68266221916,-2164.203472590502 L-313.7068739642365,-2164.2318037707405 L-313.73991886824285,-2164.259878769786 L-313.78170438234014,-2164.2876189580084 L-313.8321134778689,-2164.3149466434825 L-313.89100497411124,-2164.341785289579 L-313.95821393369584,-2164.368059729321 L-314.03355212453755,-2164.393696375904 L-314.11680854701916,-2164.41862342879 " />
			<path d="M-356.6141579453328,14.326142290971955 L-356.6982475387822,14.303719090492102 L-356.7887450348453,14.282020334685527 L-356.88543241712756,14.26109829775555 L-356.98807675725624,14.241003382721694 L-357.2102334391128,14.203486450750013 L-357.4530755901257,14.169830847334214 L-357.71426450762954,14.140360694333216 L-357.9912847995684,14.115359805430442 L-358.28146860909624,14.095068952852902 L-358.5820213074967,14.079683548603025 L-358.8900484079853,14.069351762534255 L-359.2025834411997,14.064173095394366 L-359.5166165239209,14.064197420578859 L-359.8291233458944,14.06942450382291 L-360.13709429559106,14.079804005457467 L-360.4375634444112,14.095235965207774 L-360.7276371101985,14.11557176486547 L-361.004521724981,14.140615559563168 " />
			<path d="M-361.00452172498103,14.140615559563178 L-388.1012981774975,16.888730268555783 " />
			<path d="M-388.1012981774975,16.88873026855578 L-388.27447148548833,16.90760079515383 L-388.44010137121603,16.928315953611495 L-388.5975011761718,16.950789864259463 L-388.74601836162543,16.97492935609842 L-388.88503721388105,17.000634353061827 L-389.01398139686654,17.027798288905288 L-389.13231634147326,17.056308549002566 L-389.2395514617405,17.086046937216565 L-389.3352421886981,17.116890165909847 L-389.4189918134332,17.148710367063153 L-389.49045313174327,17.181375622383037 L-389.54932988355387,17.21475051020085 L-389.5739707024564,17.23166092697307 L-389.59537798113644,17.248696666895828 L-389.6135295265871,17.265840068953008 L-389.62840652103245,17.283073360514745 L-389.639993541436,17.300378675762385 L-389.64827857548977,17.31773807421005 L-389.6532530340676,17.335133559303603 L-389.6549117601294,17.352547097077736 " />
			<path d="M-389.6549117601294,17.35254709707774 L-389.6530866009294,17.370813137131698 L-389.64761320533324,17.38905834066625 L-389.63849781697735,17.407261894930713 L-389.6257508340086,17.425403034684756 L-389.6093867972227,17.443461065885796 L-389.58942437347736,17.46141538929523 L-389.5658863343985,17.479245523976456 L-389.5387995304038,17.496931130658005 L-389.4741072349074,17.5317882502828 L-389.3956425871529,17.5658277440461 L-389.3037635112223,17.59889433750386 L-389.1988891224095,17.630837194190914 " />
			<path d="M-389.65491176012944,-2173.3644905089072 L-389.65308660092944,-2173.3462244688535 L-389.6476132053333,-2173.327979265319 L-389.6384978169774,-2173.309775711054 L-389.62575083400867,-2173.2916345713 L-389.6093867972228,-2173.2735765400994 L-389.5894243734774,-2173.25562221669 L-389.56588633439856,-2173.2377920820086 L-389.5387995304039,-2173.220106475327 L-389.4741072349075,-2173.185249355702 L-389.39564258715296,-2173.1512098619387 L-389.30376351122237,-2173.118143268481 L-389.1988891224096,-2173.086200411794 " />
			<path d="M-389.19888912240947,17.630837194190917 L-346.7015397240958,29.603109080413972 " />
			<path d="M-389.1988891224095,-2173.086200411794 L-346.7015397240959,-2161.113928525571 " />
			<path d="M-346.7015397240958,29.60310908041397 L-346.61745013064643,29.62553228089382 L-346.5269526345833,29.647231036700397 L-346.43026525230107,29.66815307363037 L-346.3276209121724,29.68824798866423 L-346.1054642303158,29.72576492063591 L-345.8626220793029,29.75942052405171 L-345.6014331617991,29.788890677052706 L-345.3244128698602,29.81389156595548 L-345.0342290603324,29.83418241853302 L-344.73367636193194,29.849567822782898 L-344.4256492614433,29.859899608851666 L-344.11311422822894,29.865078275991557 L-343.7990811455077,29.865053950807066 L-343.4865743235342,29.85982686756301 L-343.1786033738376,29.849447365928455 L-342.87813422501745,29.83401540617815 L-342.58806055923014,29.813679606520456 L-342.3111759444476,29.788635811822754 " />
			<path d="M-346.7015397240959,-2161.113928525571 L-346.6174501306465,-2161.091505325091 L-346.5269526345834,-2161.0698065692845 L-346.4302652523011,-2161.0488845323544 L-346.32762091217245,-2161.028789617321 L-346.1054642303159,-2160.991272685349 L-345.862622079303,-2160.957617081933 L-345.60143316179915,-2160.928146928932 L-345.3244128698603,-2160.9031460400292 L-345.03422906033245,-2160.8828551874517 L-344.733676361932,-2160.867469783202 L-344.42564926144337,-2160.857137997133 L-344.113114228229,-2160.8519593299934 L-343.7990811455078,-2160.8519836551777 L-343.4865743235343,-2160.857210738422 L-343.17860337383763,-2160.8675902400564 L-342.8781342250175,-2160.883022199807 L-342.5880605592302,-2160.9033579994643 L-342.31117594444765,-2160.9284017941623 " />
			<path d="M-315.21439949193115,27.040521102830155 L-342.3111759444476,29.788635811822758 " />
			<path d="M-315.2143994919312,-2163.6765165031547 L-342.31117594444765,-2160.928401794162 " />
			<path d="M-705.0992829549107,49.66898462434517 L-662.601933556597,61.641256510568226 " />
			<path d="M-705.0992829549107,-2141.0480529816396 L-662.601933556597,-2129.0757810954165 " />
			<path d="M-663.6995245015091,62.383363436203375 L-663.5263511935182,62.364492909605325 L-663.3607213077905,62.34377775114766 L-663.2033215028348,62.321303840499695 L-663.0548043173811,62.297164348660736 L-662.9157854651255,62.27145935169733 L-662.78684128214,62.24429541585387 L-662.6685063375334,62.21578515575659 L-662.561271217266,62.18604676754259 L-662.4655804903085,62.155203538849314 L-662.3818308655733,62.123383337696005 L-662.3103695472632,62.09071808237612 L-662.2514927954527,62.05734319455831 L-662.2268519765502,62.04043277778609 L-662.2054446978701,62.023397037863326 L-662.1872931524194,62.00625363580615 L-662.1724161579741,61.98902034424441 L-662.1608291375705,61.97171502899677 L-662.1525441035168,61.9543556305491 L-662.1475696449389,61.93696014545555 L-662.1459109188771,61.91954660768142 " />
			<path d="M-662.1459109188771,61.91954660768142 L-662.1477360780772,61.90128056762746 L-662.1532094736733,61.88303536409291 L-662.1623248620292,61.864831809828445 L-662.175071844998,61.8466906700744 L-662.1914358817838,61.82863263887336 L-662.2113983055292,61.81067831546393 L-662.2349363446081,61.792848180782705 L-662.2620231486027,61.77516257410115 L-662.3267154440991,61.740305454476356 L-662.4051800918536,61.70626596071306 L-662.4970591677842,61.6731993672553 L-662.601933556597,61.64125651056825 " />
			<path d="M-663.6995245015091,-2128.3336741697813 L-663.5346623223999,-2128.351576896333 L-663.3765918487887,-2128.371151683398 L-663.225905803346,-2128.392325130677 L-663.0831692190801,-2128.415017843316 L-662.9489173206124,-2128.4391447296157 L-662.8236535172255,-2128.4646153201024 L-662.7078475152116,-2128.4913341067663 L-662.6019335565969,-2128.51920090119 " />
			<path d="M-705.0992829549108,49.668984624345185 L-705.1833725483601,49.646561423865336 L-705.2738700444233,49.62486266805876 L-705.3705574267055,49.603940631128786 L-705.4732017668342,49.58384571609493 L-705.6953584486909,49.54632878412325 L-705.9382005997037,49.51267318070745 L-706.1993895172075,49.48320302770645 L-706.4764098091464,49.45820213880368 L-706.7665936186742,49.43791128622614 L-707.0671463170746,49.422525881976256 L-707.3751734175632,49.41219409590749 L-707.6877084507777,49.4070154287676 L-708.0017415334988,49.40703975395209 L-708.3142483554724,49.41226683719614 L-708.6222193051691,49.4226463388307 L-708.9226884539892,49.43807829858101 L-709.2127621197765,49.458414098238705 L-709.489646734559,49.4834578929364 " />
			<path d="M-709.4896467345588,49.48345789293638 L-736.5864231870753,52.23157260192898 " />
			<path d="M-736.5864231870753,52.23157260192898 L-736.7595964950663,52.25044312852703 L-736.9252263807939,52.271158286984694 L-737.0826261857496,52.29363219763266 L-737.2311433712033,52.31777168947162 L-737.3701622234589,52.343476686435025 L-737.4991064064444,52.370640622278486 L-737.6174413510511,52.399150882375764 L-737.7246764713184,52.428889270589764 L-737.8203671982759,52.45973249928304 L-737.9041168230111,52.49155270043635 L-737.9755781413212,52.524217955756235 L-738.0344548931317,52.55759284357405 L-738.0590957120343,52.57450326034627 L-738.0805029907143,52.59153900026903 L-738.098654536165,52.60868240232621 L-738.1135315306103,52.62591569388795 L-738.1251185510139,52.64322100913559 L-738.1334035850676,52.660580407583254 L-738.1383780436455,52.677975892676805 L-738.1400367697073,52.69538943045093 " />
			<path d="M-738.1400367697073,52.69538943045094 L-738.1382116105073,52.7136554705049 L-738.1327382149111,52.731900674039444 L-738.1236228265552,52.75010422830391 L-738.1108758435864,52.768245368057954 L-738.0945118068006,52.786303399259 L-738.0745493830552,52.804257722668424 L-738.0510113439764,52.82208785734965 L-738.0239245399817,52.839773464031204 L-737.9592322444853,52.874630583656 L-737.8807675967308,52.908670077419295 L-737.7888885208002,52.941736670877056 L-737.6840141319874,52.973679527564116 " />
			<path d="M-738.1400367697073,-2138.0216481755338 L-738.1382116105073,-2138.00338213548 L-738.1327382149111,-2137.9851369319454 L-738.1236228265552,-2137.9669333776806 L-738.1108758435864,-2137.9487922379267 L-738.0945118068006,-2137.930734206726 L-738.0745493830552,-2137.9127798833165 L-738.0510113439764,-2137.894949748635 L-738.0239245399817,-2137.8772641419537 L-737.9592322444853,-2137.8424070223286 L-737.8807675967308,-2137.808367528565 L-737.7888885208002,-2137.7753009351077 L-737.6840141319874,-2137.7433580784204 " />
			<path d="M-737.6840141319874,52.97367952756413 L-695.1866647336738,64.94595141378718 " />
			<path d="M-737.6840141319874,-2137.7433580784204 L-695.1866647336738,-2125.7710861921973 " />
			<path d="M-695.1866647336736,64.94595141378718 L-695.1025751402243,64.96837461426703 L-695.0120776441611,64.99007337007362 L-694.9153902618789,65.01099540700359 L-694.8127459217502,65.03109032203746 L-694.5905892398936,65.06860725400912 L-694.3477470888807,65.10226285742493 L-694.086558171377,65.13173301042593 L-693.809537879438,65.1567338993287 L-693.5193540699102,65.17702475190625 L-693.2188013715098,65.19241015615611 L-692.9107742710212,65.20274194222489 L-692.5982392378068,65.20792060936478 L-692.2842061550856,65.20789628418028 L-691.971699333112,65.20266920093623 L-691.6637283834153,65.19228969930168 L-691.3632592345953,65.17685773955137 L-691.073185568808,65.15652193989368 L-690.7963009540255,65.13147814519597 " />
			<path d="M-695.1866647336736,-2125.7710861921973 L-695.1025751402243,-2125.7486629917175 L-695.0120776441611,-2125.726964235911 L-694.9153902618789,-2125.706042198981 L-694.8127459217502,-2125.6859472839474 L-694.5905892398936,-2125.6484303519755 L-694.3477470888807,-2125.6147747485597 L-694.086558171377,-2125.5853045955587 L-693.809537879438,-2125.5603037066558 L-693.5193540699102,-2125.540012854078 L-693.2188013715098,-2125.5246274498286 L-692.9107742710212,-2125.5142956637596 L-692.5982392378068,-2125.50911699662 L-692.2842061550856,-2125.5091413218042 L-691.971699333112,-2125.5143684050486 L-691.6637283834153,-2125.524747906683 L-691.3632592345953,-2125.5401798664334 L-691.073185568808,-2125.560515666091 L-690.7963009540255,-2125.5855594607888 " />
			<path d="M-663.699524501509,62.38336343620336 L-690.7963009540255,65.13147814519597 " />
			<path d="M-663.699524501509,-2128.3336741697817 L-690.7963009540255,-2125.5855594607888 " />
			<path d="M-1053.5844079644885,85.01182695771836 L-1011.0870585661747,96.98409884394142 " />
			<path d="M-1012.1846495110868,97.72620576957657 L-1012.0114762030959,97.70733524297852 L-1011.8458463173682,97.68662008452085 L-1011.6884465124125,97.6641461738729 L-1011.5399293269588,97.64000668203393 L-1011.4009104747032,97.61430168507053 L-1011.2719662917177,97.58713774922705 L-1011.1536313471111,97.55862748912978 L-1011.0463962268437,97.52888910091578 L-1010.9507054998862,97.4980458722225 L-1010.866955875151,97.4662256710692 L-1010.7954945568409,97.43356041574931 L-1010.7366178050304,97.4001855279315 L-1010.7119769861279,97.38327511115928 L-1010.6905697074478,97.36623937123652 L-1010.6724181619971,97.34909596917934 L-1010.6575411675518,97.33186267761761 L-1010.6459541471482,97.31455736236997 L-1010.6376691130945,97.2971979639223 L-1010.6326946545166,97.27980247882874 L-1010.6310359284548,97.26238894105461 " />
			<path d="M-1010.6310359284548,97.26238894105461 L-1010.6328610876549,97.24412290100065 L-1010.638334483251,97.2258776974661 L-1010.6474498716069,97.20767414320163 L-1010.6601968545757,97.1895330034476 L-1010.6765608913615,97.17147497224656 L-1010.6965233151069,97.15352064883712 L-1010.7200613541858,97.1356905141559 L-1010.7471481581804,97.11800490747434 L-1010.8118404536768,97.08314778784955 L-1010.8903051014313,97.04910829408625 L-1010.9821841773619,97.01604170062849 L-1011.0870585661747,96.98409884394144 " />
			<path d="M-1012.1846495110868,-2092.9908318364082 L-1012.0197873319776,-2093.00873456296 L-1011.8617168583664,-2093.0283093500248 L-1011.7110308129237,-2093.049482797304 L-1011.5682942286578,-2093.072175509943 L-1011.4340423301901,-2093.0963023962427 L-1011.3087785268032,-2093.1217729867294 L-1011.1929725247893,-2093.1484917733933 L-1011.0870585661746,-2093.176358567817 " />
			<path d="M-1053.5844079644883,85.01182695771838 L-1053.6684975579378,84.98940375723853 L-1053.758995054001,84.96770500143195 L-1053.8556824362831,84.94678296450198 L-1053.9583267764117,84.92668804946811 L-1054.1804834582683,84.88917111749645 L-1054.4233256092812,84.85551551408064 L-1054.684514526785,84.82604536107964 L-1054.961534818724,84.80104447217687 L-1055.2517186282519,84.78075361959932 L-1055.5522713266523,84.76536821534945 L-1055.8602984271408,84.75503642928068 L-1056.1728334603552,84.74985776214079 L-1056.4868665430765,84.74988208732529 L-1056.79937336505,84.75510917056934 L-1057.1073443147466,84.76548867220389 L-1057.4078134635668,84.7809206319542 L-1057.697887129354,84.80125643161189 L-1057.9747717441367,84.8263002263096 " />
			<path d="M-1057.9747717441367,84.82630022630957 L-1085.0715481966529,87.57441493530217 " />
			<path d="M-1085.071548196653,87.57441493530219 L-1085.2447215046438,87.59328546190024 L-1085.4103513903715,87.6140006203579 L-1085.5677511953274,87.63647453100586 L-1085.716268380781,87.66061402284483 L-1085.8552872330365,87.68631901980822 L-1085.984231416022,87.7134829556517 L-1086.1025663606288,87.74199321574898 L-1086.2098014808962,87.77173160396298 L-1086.3054922078536,87.80257483265625 L-1086.3892418325888,87.83439503380956 L-1086.4607031508988,87.86706028912944 L-1086.5195799027094,87.90043517694725 L-1086.544220721612,87.91734559371947 L-1086.565628000292,87.93438133364224 L-1086.5837795457426,87.95152473569941 L-1086.5986565401881,87.96875802726115 L-1086.6102435605915,87.98606334250879 L-1086.6185285946453,88.00342274095645 L-1086.6235030532232,88.02081822605001 L-1086.625161779285,88.03823176382414 " />
			<path d="M-1086.625161779285,88.03823176382414 L-1086.623336620085,88.0564978038781 L-1086.6178632244887,88.07474300741265 L-1086.608747836133,88.09294656167712 L-1086.5960008531642,88.11108770143116 L-1086.5796368163783,88.1291457326322 L-1086.559674392633,88.14710005604164 L-1086.536136353554,88.16493019072286 L-1086.5090495495594,88.18261579740441 L-1086.444357254063,88.2174729170292 L-1086.3658926063085,88.2515124107925 L-1086.274013530378,88.28457900425026 L-1086.1691391415652,88.31652186093731 " />
			<path d="M-1086.1691391415652,88.31652186093731 L-1043.6717897432513,100.28879374716038 " />
			<path d="M-1086.1691391415652,-2102.4005157450474 L-1043.6717897432513,-2090.4282438588243 " />
			<path d="M-1043.6717897432516,100.28879374716037 L-1043.587700149802,100.31121694764022 L-1043.497202653739,100.3329157034468 L-1043.4005152714567,100.35383774037678 L-1043.2978709313281,100.37393265541064 L-1043.0757142494715,100.41144958738231 L-1042.8328720984587,100.44510519079812 L-1042.5716831809548,100.47457534379912 L-1042.2946628890159,100.49957623270188 L-1042.004479079488,100.51986708527943 L-1041.7039263810875,100.5352524895293 L-1041.395899280599,100.54558427559807 L-1041.0833642473847,100.55076294273796 L-1040.7693311646633,100.55073861755346 L-1040.4568243426897,100.54551153430941 L-1040.1488533929933,100.53513203267487 L-1039.848384244173,100.51970007292455 L-1039.5583105783858,100.49936427326686 L-1039.2814259636032,100.47432047856915 " />
			<path d="M-1043.6717897432516,-2090.4282438588243 L-1043.587700149802,-2090.4058206583445 L-1043.497202653739,-2090.384121902538 L-1043.4005152714567,-2090.363199865608 L-1043.2978709313281,-2090.3431049505743 L-1043.0757142494715,-2090.3055880186025 L-1042.8328720984587,-2090.2719324151867 L-1042.5716831809548,-2090.2424622621857 L-1042.2946628890159,-2090.2174613732827 L-1042.004479079488,-2090.197170520705 L-1041.7039263810875,-2090.1817851164556 L-1041.395899280599,-2090.1714533303866 L-1041.0833642473847,-2090.166274663247 L-1040.7693311646633,-2090.166298988431 L-1040.4568243426897,-2090.1715260716755 L-1040.1488533929933,-2090.18190557331 L-1039.848384244173,-2090.1973375330604 L-1039.5583105783858,-2090.217673332718 L-1039.2814259636032,-2090.2427171274157 " />
			<path d="M-1012.1846495110868,97.72620576957655 L-1039.2814259636032,100.47432047856915 " />
			<path d="M-1012.1846495110868,-2092.9908318364082 L-1039.2814259636032,-2090.2427171274153 " />
			<path d="M-1413.045358987021,121.46782407376786 L-1370.5480095858368,133.4400959596998 " />
			<path d="M-1371.6456005305706,134.18220240537607 L-1371.4724272262729,134.16333191009556 L-1371.3067973438951,134.14261678290592 L-1371.1493975419028,134.12014290334307 L-1371.000880358985,134.0960034422734 L-1370.8618615088005,134.07029847563152 L-1370.7329173273877,134.0431345695315 L-1370.6145823838256,134.01462433847138 L-1370.5073472640488,133.98488597846273 L-1370.4116565370068,133.95404277702067 L-1370.327906911595,133.92222260204593 L-1370.256445592004,133.88955737171773 L-1370.1975688383002,133.85618250759515 L-1370.1729280182205,133.8392721021516 L-1370.15152073821,133.82223637319473 L-1370.133369191275,133.80509298172854 L-1370.1184921951933,133.78785970037114 L-1370.1069051730017,133.77055439492983 L-1370.0986201370097,133.75319500587955 L-1370.0936456763452,133.73579952976388 L-1370.09198694805,133.71838600053806 " />
			<path d="M-1370.09198694805,133.71838600053806 L-1370.093812104983,133.7001199678241 L-1370.0992854986175,133.6818747711396 L-1370.1084008853186,133.6636712232292 L-1370.1211478669406,133.64553008932762 L-1370.1375119026882,133.62747206347254 L-1370.157474325703,133.60951774489817 L-1370.1810123643586,133.5916876145373 L-1370.2080991682349,133.57400201165817 L-1370.2727914643997,133.5391448980742 L-1370.3512561140053,133.5051054082555 L-1370.4431351929318,133.47203881664092 L-1370.5480095858366,133.4400959596998 " />
			<path d="M-1371.6453104846394,-2056.5348646166103 L-1371.4804483203206,-2056.55276731207 L-1371.3223778602023,-2056.5723420678537 L-1371.1716918267957,-2056.593515483793 L-1371.0289552529603,-2056.6162081651655 L-1370.8947033631807,-2056.6403350204046 L-1370.7694395666151,-2056.66580558017 L-1370.6536335694436,-2056.6925243365845 L-1370.5477196135953,-2056.7203911013626 " />
			<path d="M-1413.0453589870208,121.46782407376786 L-1413.1294485804756,121.44540087271044 L-1413.219946076544,121.42370211517145 L-1413.3166334588311,121.40278007535841 L-1413.4192777989647,121.38268515629774 L-1413.6414344808302,121.34516821288281 L-1413.8842766318512,121.3115125936006 L-1414.1454655493621,121.28204242046283 L-1414.422485841307,121.25704150734687 L-1414.7126696508396,121.23675062671288 L-1415.0132223492437,121.22136519083352 L-1415.3212494497348,121.21103336986683 L-1415.6337844829504,121.20585466489666 L-1415.9478175656716,121.20587894968286 L-1416.260324387644,121.21110599034965 L-1416.5682953373382,121.22148544763802 L-1416.8687644861545,121.2369173617003 L-1417.1588381519368,121.25725311476812 L-1417.4357227667135,121.28229686242278 " />
			<path d="M-1417.4357227667135,121.28229686242278 L-1444.5324992185708,124.03040683193322 " />
			<path d="M-1444.5324992185708,124.03040683193323 L-1444.7056725228686,124.04927732721373 L-1444.8713024052463,124.06999245440338 L-1445.0287022072387,124.09246633396623 L-1445.1772193901566,124.11660579503591 L-1445.316238240341,124.14231076167778 L-1445.4451824217538,124.16947466777779 L-1445.5635173653159,124.19798489883792 L-1445.6707524850926,124.22772325884658 L-1445.7664432121346,124.25856646028863 L-1445.8501928375465,124.29038663526336 L-1445.9216541571375,124.3230518655916 L-1445.9805309108413,124.35642672971417 L-1446.005171730921,124.37333713515773 L-1446.0265790109315,124.39037286411458 L-1446.0447305578664,124.40751625558076 L-1446.0596075539481,124.42474953693815 L-1446.0711945761398,124.44205484237946 L-1446.0794796121318,124.45941423142976 L-1446.0844540727962,124.47680970754541 L-1446.0861128010915,124.49422323677123 " />
			<path d="M-1446.0861128010915,124.49422323677123 L-1446.0842876441584,124.5124892694852 L-1446.078814250524,124.5307344661697 L-1446.0696988638229,124.54893801408014 L-1446.0569518822008,124.5670791479817 L-1446.0405878464533,124.58513717383677 L-1446.0206254234383,124.60309149241112 L-1445.9970873847828,124.620921622772 L-1445.9700005809066,124.63860722565116 L-1445.9053082847417,124.6734643392351 L-1445.8268436351361,124.70750382905382 L-1445.7349645562097,124.74057042066839 L-1445.6300901633049,124.77251327760953 " />
			<path d="M-1445.6300901633049,124.77251327760952 L-1403.1327407621206,136.74478516354145 " />
			<path d="M-1445.6298001173734,-2065.944553744377 L-1403.1324507161892,-2053.972281858445 " />
			<path d="M-1403.1327407621206,136.74478516354145 L-1403.0486511686659,136.76720836459884 L-1402.9581536725975,136.78890712213783 L-1402.8614662903103,136.8098291619509 L-1402.7588219501768,136.82992408101157 L-1402.5366652683113,136.86744102442648 L-1402.2938231172902,136.90109664370868 L-1402.0326341997793,136.93056681684646 L-1401.7556139078345,136.95556772996244 L-1401.4654300983018,136.97585861059642 L-1401.1648773998977,136.99124404647577 L-1400.8568502994065,137.00157586744245 L-1400.544315266191,137.00675457241263 L-1400.2302821834699,137.00673028762643 L-1399.9177753614974,137.00150324695963 L-1399.6098044118032,136.99112378967126 L-1399.309335262987,136.975691875609 L-1399.0192615972046,136.95535612254116 L-1398.742376982428,136.9303123748865 " />
			<path d="M-1403.1324507161894,-2053.972281858445 L-1403.0483611227346,-2053.9498586573877 L-1402.9578636266663,-2053.9281598998487 L-1402.861176244379,-2053.907237860036 L-1402.7585319042455,-2053.887142940975 L-1402.53637522238,-2053.84962599756 L-1402.293533071359,-2053.815970378278 L-1402.032344153848,-2053.7865002051403 L-1401.7553238619032,-2053.761499292024 L-1401.4651400523705,-2053.7412084113903 L-1401.1645873539665,-2053.7258229755107 L-1400.8565602534752,-2053.715491154544 L-1400.5440252202598,-2053.710312449574 L-1400.2299921375386,-2053.71033673436 L-1399.9174853155662,-2053.715563775027 L-1399.609514365872,-2053.7259432323153 L-1399.3090452170557,-2053.741375146378 L-1399.0189715512734,-2053.7617108994455 L-1398.7420869364967,-2053.7867546471 " />
			<path d="M-1371.6456005305706,134.18220240537607 L-1398.742376982428,136.9303123748865 " />
			<path d="M-1371.6453104846394,-2056.5348646166103 L-1398.7420869364967,-2053.7867546470998 " />
			<path d="M-1402.3765661484447,-2054.8339497734187 L-1372.5218943729092,-2057.833131815466 " />
			<path d="M-1086.625161779285,-2086.5541424740863 L-1012.1591136373709,-2094.0349560636187 " />
			<path d="M-738.1400367697072,-2121.562744702491 L-662.799420844354,-2129.131416835917 " />
			<path d="M-389.6549117601294,-2156.5713469308953 L-314.11680854701916,-2164.1598585162988 " />
			<path d="M-41.17014616885809,-2191.5799130523565 L34.355904233617615,-2199.1672138197855 " />
			<path d="M34.8239770920921,-2199.4831420796854 L34.82397711045533,-2199.3607467329502 " />
			<path d="M34.82430576608933,-8.792586214384507 L34.82430577005744,-8.766137785168201 " />
			<path d="M-41.1698215295381,-27.78144284024885 L-41.16982006055026,-17.990288632359963 " />
			<path d="M-313.66078590929925,-0.14581508977305901 L-313.66078590929925,26.57670427430819 " />
			<path d="M-389.6549117601293,7.561395965891329 L-389.6549117601293,17.35254709707774 " />
			<path d="M-662.1459109188772,35.197027243600154 L-662.1459109188772,61.91954660768142 " />
			<path d="M-738.1400367697072,42.90423829926454 L-738.1400367697072,52.69538943045095 " />
			<path d="M-1010.6310359284548,70.53986957697333 L-1010.6310359284548,97.2623889410546 " />
			<path d="M-1086.625161779285,78.24708063263775 L-1086.625161779285,88.03823176382416 " />
			<path d="M-1370.0919834100491,106.99586347771086 L-1370.09198694805,133.7183860005381 " />
			<path d="M-1446.0861115047658,114.70307476094692 L-1446.0861128010915,124.49422323677126 " />

       </g>

       <!-- solid lines -->
       <g  stroke="rgb(0,0,0)" fill="none">
			<path d="M-34.368316462558774,-28.408780746969974 L34.368316462558774,-9.044428156178194 " />
			<path d="M36.01470287992686,-5.426656893706919 L36.01271973538393,-5.581972790398193 L36.00677507932405,-5.738031892855737 L35.996883232944356,-5.894458241032568 L35.9830680265692,-6.0508749901545995 L35.96536274224081,-6.206905318572705 L35.94381003353994,-6.362173335559085 L35.91846182282963,-6.516304986860945 L35.88937917616973,-6.668928955829961 L35.85663215620339,-6.819677557956608 L35.82029965336999,-6.968187626654343 L35.78046919585123,-7.114101388159726 L35.73723673870799,-7.257067323440759 L35.690706432716254,-7.3967410150370085 L35.64099037345873,-7.532785976791451 L35.588208331276775,-7.664874464475087 L35.53248746273317,-7.792688265351504 L35.473962004280814,-7.915919464779224 L35.41277294887533,-8.034271188005043 L35.349067706310734,-8.147458315361327 L35.282999748096266,-8.255208169144254 L35.21472823773016,-8.357261170518285 L35.14441764726074,-8.453371464864327 L35.07223736105893,-8.54330751406503 L34.99836126775646,-8.6268526543004 L34.92296734133285,-8.703805618009925 L34.8462372123606,-8.773981018763743 L34.76835573044116,-8.837209797874799 L34.689510518886095,-8.893339631676024 L34.609891522716055,-8.942235298481403 L34.52969055106662,-8.983779004346847 L34.44910081510328,-9.017870666846123 L34.36831646255878,-9.044428156178196 " />
			<path d="M-34.368316462558774,-28.40878074696997 L-34.44953083160314,-28.42782064978562 L-34.530547458378855,-28.439134886491544 L-34.611169082083876,-28.44269590897205 L-34.691199403677,-28.438495046782826 " />
			<path d="M-34.691199403677004,-28.438495046782826 L-34.760169500639854,-28.428538304693227 L-34.82841790680643,-28.412736415285984 L-34.895818926464784,-28.391118481507977 L-34.962248424567306,-28.36372431793846 L-35.02758405535492,-28.330604377461032 L-35.09170548768604,-28.29181965834264 L-35.15449462665503,-28.247441591890684 L-35.21583583109212,-28.19755191089528 L-35.2756161265442,-28.142242499098817 L-35.33372541334421,-28.08161522197013 L-35.39005666938595,-28.015781739094976 L-35.444506147230754,-27.94486329852826 L-35.4969735651832,-27.86899051348686 L-35.547362291983674,-27.788303121794222 L-35.59557952477798,-27.702949728519847 L-35.641536460035844,-27.61308753228764 L-35.68514845710381,-27.51888203575715 L-35.72633519409117,-27.42050674081097 L-35.76502081580193,-27.31814282900964 L-35.80113407344018,-27.21197882790263 L-35.83460845583174,-27.10221026380988 L-35.865382311920406,-26.989039301713483 L-35.893398964312986,-26.87267437292267 L-35.9186068136643,-26.75332979119785 L-35.94095943370965,-26.631225358040723 L-35.96041565676984,-26.506585957877416 L-35.97693964957131,-26.379641143880196 L-35.99050097924161,-26.25062471519056 L-36.001074669358836,-26.119774286322386 L-36.008641245951615,-25.98733084953815 L-36.01318677336512,-25.853538331004206 L-36.01470287992686,-25.718643141542636 " />
			<path d="M-1471.869457127068,117.38044387819454 L-1471.9506714961124,117.36140397537889 L-1472.031688122888,117.35008973867298 L-1472.1123097465932,117.34652871619247 L-1472.1923400681862,117.35072957838169 " />
			<path d="M-1472.1923400681862,117.35072957838169 L-1472.261310165149,117.36068632047129 L-1472.3295585713156,117.37648820987853 L-1472.3969595909741,117.39810614365653 L-1472.4633890890766,117.42550030722606 L-1472.5287247198642,117.45862024770348 L-1472.5928461521953,117.49740496682188 L-1472.6556352911643,117.54178303327383 L-1472.7169764956013,117.59167271426924 L-1472.7767567910535,117.6469821260657 L-1472.8348660778533,117.70760940319438 L-1472.8911973338952,117.77344288606955 L-1472.94564681174,117.84436132663625 L-1472.9981142296924,117.92023411167766 L-1473.048502956493,118.0009215033703 L-1473.0967201892872,118.08627489664467 L-1473.1426771245451,118.17613709287687 L-1473.186289121613,118.27034258940736 L-1473.2274758586004,118.36871788435354 L-1473.2661614803112,118.47108179615488 L-1473.3022747379493,118.57724579726188 L-1473.335749120341,118.68701436135464 L-1473.3665229764297,118.80018532345103 L-1473.3945396288223,118.91655025224185 L-1473.4197474781736,119.03589483396667 L-1473.4421000982188,119.1579992671238 L-1473.461556321279,119.2826386672871 L-1473.4780803140804,119.40958348128432 L-1473.4916416437509,119.53859990997395 L-1473.502215333868,119.66945033884213 L-1473.5097819104608,119.80189377562637 L-1473.5143274378743,119.9356862941603 L-1473.5158435444362,120.07058148362188 " />
			<path d="M-36.01470287992686,-25.71864314154261 L-36.01470287992686,5.4266568937069195 " />
			<path d="M-1473.515843544436,120.07058148362194 L-1473.515843544436,151.21588151887147 " />
			<path d="M-36.01470287992686,5.4266568937069195 L-36.01271973538393,5.581972790398193 L-36.00677507932405,5.738031892855736 L-35.996883232944356,5.894458241032567 L-35.9830680265692,6.0508749901546 L-35.96536274224081,6.2069053185727086 L-35.94381003353994,6.3621733355590875 L-35.91846182282963,6.5163049868609475 L-35.88937917616973,6.668928955829964 L-35.85663215620339,6.819677557956609 L-35.82029965336999,6.968187626654344 L-35.78046919585123,7.114101388159728 L-35.73723673870799,7.25706732344076 L-35.690706432716254,7.3967410150370085 L-35.64099037345873,7.532785976791451 L-35.588208331276775,7.664874464475087 L-35.53248746273317,7.792688265351506 L-35.473962004280814,7.9159194647792255 L-35.41277294887533,8.034271188005045 L-35.349067706310734,8.14745831536133 L-35.282999748096266,8.255208169144256 L-35.21472823773016,8.357261170518287 L-35.14441764726073,8.453371464864327 L-35.07223736105893,8.54330751406503 L-34.99836126775646,8.6268526543004 L-34.92296734133285,8.703805618009925 L-34.8462372123606,8.773981018763742 L-34.768355730441165,8.837209797874797 L-34.689510518886095,8.893339631676024 L-34.609891522716055,8.942235298481403 L-34.52969055106662,8.983779004346847 L-34.44910081510328,9.017870666846123 L-34.36831646255879,9.044428156178194 " />
			<path d="M-1473.5158435444362,151.21588151887144 L-1473.5138603998932,151.37119741556273 L-1473.5079157438333,151.52725651802027 L-1473.4980238974535,151.6836828661971 L-1473.4842086910785,151.84009961531913 L-1473.46650340675,151.99612994373723 L-1473.444950698049,152.1513979607236 L-1473.4196024873388,152.30552961202548 L-1473.390519840679,152.4581535809945 L-1473.3577728207126,152.60890218312113 L-1473.3214403178793,152.7574122518189 L-1473.2816098603605,152.90332601332426 L-1473.2383774032173,153.0462919486053 L-1473.1918470972255,153.18596564020154 L-1473.142131037968,153.32201060195598 L-1473.089348995786,153.4540990896396 L-1473.0336281272423,153.58191289051604 L-1472.97510266879,153.70514408994376 L-1472.9139136133845,153.8234958131696 L-1472.85020837082,153.93668294052586 L-1472.7841404126054,154.0444327943088 L-1472.7158689022394,154.14648579568282 L-1472.64555831177,154.24259609002885 L-1472.5733780255682,154.33253213922956 L-1472.4995019322657,154.41607727946493 L-1472.424108005842,154.49303024317447 L-1472.3473778768698,154.56320564392828 L-1472.2694963949505,154.62643442303934 L-1472.1906511833954,154.68256425684055 L-1472.1110321872252,154.73145992364593 L-1472.030831215576,154.77300362951138 L-1471.9502414796125,154.80709529201067 L-1471.869457127068,154.83365278134272 " />
			<path d="M-34.368316462558774,9.044428156178194 L34.368316462558774,28.408780746969974 " />
			<path d="M-1471.869457127068,154.83365278134272 L-1403.1328242019504,174.1980053721345 " />
			<path d="M34.368316462558774,28.40878074696997 L34.44953083160314,28.42782064978562 L34.530547458378855,28.439134886491544 L34.61116908208387,28.44269590897205 L34.69119940367699,28.438495046782826 " />
			<path d="M34.691199403677004,28.438495046782826 L34.760169500639854,28.428538304693227 L34.82841790680643,28.412736415285984 L34.895818926464784,28.391118481507977 L34.9622484245673,28.36372431793846 L35.02758405535492,28.330604377461032 L35.09170548768604,28.29181965834264 L35.15449462665503,28.247441591890684 L35.21583583109212,28.19755191089528 L35.2756161265442,28.142242499098813 L35.33372541334421,28.08161522197013 L35.39005666938595,28.015781739094976 L35.44450614723076,27.94486329852826 L35.4969735651832,27.86899051348686 L35.547362291983674,27.788303121794222 L35.59557952477798,27.702949728519847 L35.641536460035844,27.61308753228764 L35.68514845710381,27.51888203575715 L35.72633519409117,27.42050674081097 L35.76502081580193,27.31814282900964 L35.80113407344018,27.21197882790263 L35.83460845583174,27.10221026380988 L35.865382311920406,26.989039301713483 L35.893398964312986,26.87267437292267 L35.9186068136643,26.75332979119785 L35.94095943370965,26.631225358040723 L35.96041565676984,26.506585957877416 L35.97693964957131,26.379641143880196 L35.99050097924161,26.250624715190558 L36.001074669358836,26.119774286322386 L36.008641245951615,25.987330849538147 L36.01318677336512,25.853538331004206 L36.01470287992686,25.718643141542618 " />
			<path d="M-1403.1328242019504,174.1980053721345 L-1403.051609832906,174.21704527495015 L-1402.9705932061304,174.2283595116561 L-1402.8899715824252,174.2319205341366 L-1402.8099412608321,174.22771967194737 " />
			<path d="M-1402.8099412608321,174.22771967194737 L-1402.7306971006785,174.21576715342644 L-1402.6524320471317,174.19609208079004 L-1402.5753366614115,174.16874235927395 L-1402.4995986568088,174.133784580493 " />
			<path d="M36.01470287992686,-5.4266568937069195 L36.01470287992686,25.71864314154261 " />
			<path d="M-8.56959121009485,-2248.2971804162503 L33.99068185577231,-2236.6744262309107 " />
			<path d="M35.64367724117464,-2233.0679901729177 L35.64148648688832,-2233.223397974779 L35.63532884855222,-2233.3795161404173 L35.62521916045646,-2233.535968567498 L35.61118177772516,-2233.69237834842 L35.59325051764284,-2233.848368678321 L35.571468578185645,-2234.0035637628343 L35.545888433953586,-2234.1575897234065 L35.516571709754686,-2234.3100754980082 L35.483589032145375,-2234.4606537350523 L35.447019859284964,-2234.6089616783765 L35.40695228951394,-2234.7546420411545 L35.363482849117396,-2234.8973438666335 L35.31671625978473,-2235.0367233736156 L35.26676518632589,-2235.1724447846605 L35.21374996525205,-2235.3041811350017 L35.15779831487436,-2235.431615060232 L35.099045027619376,-2235.554439560864 L35.037631645302255,-2235.672358741917 L34.97370611814019,-2235.785088525756 L34.907422448327324,-2235.8923573364573 L34.83894031903001,-2235.9939067540604 L34.768424709696035,-2236.0894921371237 L34.69604549860473,-2236.178883212087 L34.62197705361528,-2236.261864628021 L34.54639781209931,-2236.3382364754266 L34.469489851069575,-2236.4078147678338 L34.39143844854054,-2236.4704318850418 L34.312431637177404,-2236.525936976931 L34.2326597513089,-2236.574196326873 L34.1523149683953,-2236.6150936738663 L34.071590846056,-2236.648530492621 L33.99068185577232,-2236.674426230911 " />
			<path d="M-8.569591210094853,-2248.2971804162507 L-8.648987840850829,-2248.31520235018 L-8.728190561790498,-2248.3258589539782 L-8.807015591951204,-2248.329125500201 L-8.885280026759053,-2248.3249944091967 " />
			<path d="M-8.88528002675906,-2248.3249944091967 L-8.954620671533913,-2248.315046595105 L-9.023239601597556,-2248.2992130227403 L-9.091009573370547,-2248.277523053104 L-9.15780491754008,-2248.250016907011 L-9.223501772094982,-2248.21674559051 L-9.287978312009368,-2248.1777708003 L-9.351114975148986,-2248.133164809321 L-9.412794683981378,-2248.0830103327344 L-9.472903062678718,-2248.027400374543 L-9.531328649210737,-2247.966438055127 L-9.587963102034452,-2247.900236420023 L-9.642701400997403,-2247.828918230295 L-9.695442042081881,-2247.7526157349 L-9.746087225628996,-2247.671470425442 L-9.794543037693577,-2247.585632773805 L-9.840719624193579,-2247.495261953122 L-9.884531357531092,-2247.4005255426114 L-9.92589699537596,-2247.3015992168275 L-9.96473983131757,-2247.198666419899 L-10.000987837105466,-2247.091918025357 L-10.034573796215,-2246.981551982191 L-10.065435428490359,-2246.8677729477795 L-10.093515505633835,-2246.750791908385 L-10.118761957327179,-2246.6308257879123 L-10.141127967788233,-2246.508097045652 L-10.16057206258383,-2246.3828332637663 L-10.17705818553795,-2246.255266725271 L-10.190555765592524,-2246.1256339833008 L-10.2010397734969,-2245.994175422455 L-10.208490768220866,-2245.8611348130444 L-10.212894933005133,-2245.726758859051 L-10.214244100982471,-2245.591296740656 " />
			<path d="M-1445.3020615921564,-2103.9639163698835 L-1445.3814582229124,-2103.9819383038125 L-1445.4606609438522,-2103.992594907611 L-1445.539485974013,-2103.9958614538336 L-1445.6177504088207,-2103.9917303628295 " />
			<path d="M-1445.6177504088207,-2103.9917303628295 L-1445.6870910535954,-2103.9817825487376 L-1445.7557099836592,-2103.965948976373 L-1445.823479955432,-2103.9442590067365 L-1445.8902752996016,-2103.9167528606436 L-1445.9559721541566,-2103.883481544143 L-1446.0204486940709,-2103.844506753933 L-1446.0835853572105,-2103.7999007629537 L-1446.145265066043,-2103.749746286367 L-1446.2053734447404,-2103.694136328176 L-1446.2637990312724,-2103.63317400876 L-1446.3204334840962,-2103.5669723736555 L-1446.375171783059,-2103.495654183928 L-1446.4279124241434,-2103.4193516885325 L-1446.4785576076906,-2103.3382063790746 L-1446.5270134197551,-2103.252368727438 L-1446.5731900062551,-2103.1619979067546 L-1446.6170017395928,-2103.067261496244 L-1446.6583673774376,-2102.9683351704603 L-1446.697210213379,-2102.8654023735317 L-1446.733458219167,-2102.7586539789895 L-1446.7670441782766,-2102.6482879358236 L-1446.797905810552,-2102.534508901412 L-1446.8259858876954,-2102.417527862018 L-1446.8512323393888,-2102.297561741545 L-1446.8735983498498,-2102.1748329992847 L-1446.8930424446455,-2102.049569217399 L-1446.9095285675996,-2101.922002678904 L-1446.9230261476541,-2101.7923699369335 L-1446.9335101555585,-2101.660911376088 L-1446.9409611502824,-2101.527870766677 L-1446.9453653150667,-2101.393494812684 L-1446.9467144830442,-2101.258032694289 " />
			<path d="M-10.21424410098247,-2245.591296740656 L-10.173053034316084,-2214.4242180560645 " />
			<path d="M-1446.9467144830442,-2101.2580326942893 L-1446.905523416378,-2070.0909540096977 " />
			<path d="M-10.173053034316087,-2214.4242180560645 L-10.17086228002976,-2214.2688102542033 L-10.164704641693667,-2214.112692088565 L-10.154594953597906,-2213.9562396614842 L-10.140557570866601,-2213.7998298805624 L-10.122626310784284,-2213.643839550661 L-10.100844371327085,-2213.488644466148 L-10.07526422709503,-2213.3346185055757 L-10.04594750289613,-2213.182132730974 L-10.01296482528682,-2213.03155449393 L-9.976395652426405,-2212.8832465506057 L-9.936328082655384,-2212.7375661878277 L-9.892858642258844,-2212.594864362349 L-9.846092052926169,-2212.4554848553666 L-9.796140979467333,-2212.319763444322 L-9.743125758393496,-2212.1880270939805 L-9.687174108015808,-2212.06059316875 L-9.628420820760816,-2211.937768668118 L-9.5670074384437,-2211.8198494870653 L-9.503081911281635,-2211.7071197032265 L-9.43679824146877,-2211.599850892525 L-9.368316112171449,-2211.498301474922 L-9.297800502837477,-2211.4027160918586 L-9.225421291746173,-2211.3133250168953 L-9.15135284675673,-2211.230343600961 L-9.075773605240755,-2211.1539717535557 L-8.99886564421102,-2211.0843934611485 L-8.920814241681988,-2211.0217763439405 L-8.841807430318847,-2210.9662712520512 L-8.762035544450347,-2210.9180119021094 L-8.681690761536743,-2210.877114555116 L-8.600966639197441,-2210.8436777363613 L-8.520057648913774,-2210.817781998071 " />
			<path d="M-1446.905523416378,-2070.0909540096977 L-1446.903609130407,-2069.9462078068636 L-1446.8982516297954,-2069.800822828733 L-1446.8894621155357,-2069.655103033464 L-1446.8772589639734,-2069.5093530792215 L-1446.8616676883867,-2069.3638776872226 L-1446.8427208856472,-2069.2189810046552 L-1446.820458168068,-2069.0749659687926 L-1446.7949260805856,-2068.9321336736366 L-1446.7661780034489,-2068.7907827404206 L-1446.7342740406157,-2068.651208693275 L-1446.6992808940925,-2068.513703341373 L-1446.66127172448,-2068.378554168842 L-1446.620325998016,-2068.2460437337154 L-1446.576529320433,-2068.116449077186 L-1446.5299732579826,-2067.9900411443928 L-1446.4807551459958,-2067.8670842179527 L-1446.4289778853836,-2067.7478353654205 L-1446.3747497274999,-2067.632543901836 L-1446.31818404782,-2067.5214508684767 L-1446.259399108905,-2067.414788528911 L-1446.1985178131476,-2067.312779883401 L-1446.1356674458204,-2067.215638202675 L-1446.0709794089578,-2067.123566582036 L-1446.004588946632,-2067.0367575167515 L-1445.9366348621977,-2066.9553924996 L-1445.8672592280932,-2066.8796416414207 L-1445.796607088808,-2066.8096633154632 L-1445.7248261576372,-2066.7456038262726 L-1445.6520665078542,-2066.6875971038085 L-1445.578480258952,-2066.635764423438 L-1445.5042212586038,-2066.5902141523816 L-1445.4294447610137,-2066.5510415231506 " />
			<path d="M34.0402154169534,-2199.1950278127315 L34.11961204770938,-2199.1770058788024 L34.19881476864905,-2199.166349275004 L34.27763979880976,-2199.1630827287813 L34.3559042336176,-2199.1672138197855 " />
			<path d="M34.355904233617615,-2199.1672138197855 L34.42524487839246,-2199.1771616338774 L34.493863808456105,-2199.192995206242 L34.5616337802291,-2199.2146851758785 L34.62842912439863,-2199.2421913219714 L34.69412597895354,-2199.275462638472 L34.75860251886792,-2199.314437428682 L34.82173918200753,-2199.3590434196612 L34.88341889083993,-2199.409197896248 L34.94352726953727,-2199.464807854439 L35.00195285606929,-2199.525770173855 L35.058587308893,-2199.5919718089594 L35.113325607855955,-2199.663289998687 L35.16606624894043,-2199.7395924940824 L35.21671143248755,-2199.8207378035404 L35.26516724455213,-2199.906575455177 L35.31134383105213,-2199.9969462758604 L35.35515556438964,-2200.091682686371 L35.39652120223451,-2200.1906090121547 L35.43536403817612,-2200.2935418090833 L35.471612043964015,-2200.4002902036254 L35.50519800307355,-2200.5106562467913 L35.536059635348906,-2200.6244352812028 L35.564139712492384,-2200.741416320597 L35.58938616418573,-2200.86138244107 L35.61175217464678,-2200.9841111833302 L35.631196269442384,-2201.109374965216 L35.647682392396504,-2201.236941503711 L35.66117997245107,-2201.3665742456815 L35.671663980355454,-2201.498032806527 L35.679114975079415,-2201.631073415938 L35.683519139863684,-2201.765449369931 L35.68486830784102,-2201.900911488326 " />
			<path d="M35.643677241174636,-2233.0679901729177 L35.68486830784102,-2201.900911488326 " />
			<path d="M-8.129066239119474,-21.016699830490047 L34.36828313294766,-9.044427945803479 " />
			<path d="M-8.12939491708482,-2211.7337041250075 L34.36795445498231,-2199.7614322403206 " />
			<path d="M34.819132189181126,-8.796882891507515 L34.81217708274247,-8.813186854650727 L34.80231054152016,-8.829447848150005 L34.78954157647744,-8.845651021085267 L34.77388184931748,-8.86178157534308 L34.733949942844106,-8.89376598043468 L34.682660665624624,-8.925284246603795 L34.62020134177213,-8.956221259511212 L34.546800091823286,-8.986464027732236 L34.46272499957244,-9.015902095435914 L34.368283132947674,-9.044427945803477 " />
			<path d="M-12.519758696326276,-2211.919230312732 L-39.6165351548669,-2209.171110235443 " />
			<path d="M-314.11680854701916,-2163.8620432345633 L-314.0119341582064,-2163.8939860912506 L-313.9200550822758,-2163.927052684708 L-313.84159043452127,-2163.9610921784715 L-313.77689813902487,-2163.9959492980965 L-313.74981133503024,-2164.013634904778 L-313.72627329595133,-2164.0314650394594 L-313.70631087220596,-2164.049419362869 L-313.6899468354201,-2164.0674773940696 L-313.67719985245134,-2164.0856185338234 L-313.66808446409544,-2164.1038220880882 L-313.6626110684993,-2164.122067291623 L-313.6607859092993,-2164.1403333316766 " />
			<path d="M-313.6607859092993,-2164.1403333316766 L-313.66215464178094,-2164.1561519594425 L-313.6662596683329,-2164.17195705504 L-313.67309747727825,-2164.187735097876 L-313.68266221916,-2164.203472590502 " />
			<path d="M-356.61415794533286,-2176.390895315013 L-356.69824753878225,-2176.413318515493 L-356.78874503484536,-2176.4350172712993 L-356.8854324171276,-2176.4559393082295 L-356.9880767572563,-2176.476034223263 L-357.21023343911287,-2176.513551155235 L-357.45307559012576,-2176.5472067586506 L-357.7142645076296,-2176.5766769116517 L-357.99128479956846,-2176.6016778005546 L-358.2814686090963,-2176.621968653132 L-358.58202130749675,-2176.637354057382 L-358.8900484079854,-2176.6476858434507 L-359.20258344119975,-2176.6528645105905 L-359.51661652392096,-2176.652840185406 L-359.82912334589446,-2176.647613102162 L-360.1370942955911,-2176.6372336005275 L-360.43756344441124,-2176.621801640777 L-360.72763711019854,-2176.6014658411195 L-361.00452172498103,-2176.5764220464216 " />
			<path d="M-361.0045217249811,-2176.5764220464216 L-388.10129817749754,-2173.8283073374287 " />
			<path d="M-388.10129817749754,-2173.828307337429 L-388.2744714854884,-2173.8094368108314 L-388.4401013712161,-2173.7887216523736 L-388.5975011761719,-2173.7662477417257 L-388.7460183616255,-2173.7421082498868 L-388.8850372138811,-2173.716403252923 L-389.0139813968666,-2173.6892393170797 L-389.1323163414733,-2173.6607290569823 L-389.2395514617406,-2173.6309906687684 L-389.33524218869815,-2173.600147440075 L-389.41899181343325,-2173.568327238922 L-389.4904531317433,-2173.535661983602 L-389.5493298835539,-2173.502287095784 L-389.57397070245645,-2173.485376679012 L-389.5953779811365,-2173.468340939089 L-389.6135295265872,-2173.451197537032 L-389.6284065210325,-2173.43396424547 L-389.63999354143607,-2173.4166589302226 L-389.6482785754898,-2173.399299531775 L-389.65325303406763,-2173.3819040466815 L-389.65491176012944,-2173.3644905089072 " />
			<path d="M-662.6019335565969,-2128.51920090119 L-662.4970591677842,-2128.551143757877 L-662.4051800918536,-2128.5842103513346 L-662.3267154440991,-2128.618249845098 L-662.2620231486027,-2128.653106964723 L-662.2349363446081,-2128.6707925714045 L-662.2113983055292,-2128.688622706086 L-662.1914358817838,-2128.7065770294953 L-662.175071844998,-2128.724635060696 L-662.1623248620292,-2128.74277620045 L-662.1532094736733,-2128.7609797547148 L-662.1477360780772,-2128.7792249582494 L-662.1459109188771,-2128.797490998303 " />
			<path d="M-662.1459109188771,-2128.797490998303 L-662.1477360780772,-2128.815757038357 L-662.1532094736733,-2128.8340022418915 L-662.1623248620292,-2128.8522057961563 L-662.175071844998,-2128.87034693591 L-662.1914358817838,-2128.888404967111 L-662.2113983055292,-2128.9063592905204 L-662.2349363446081,-2128.924189425202 L-662.2620231486027,-2128.9418750318832 L-662.3267154440991,-2128.9767321515083 L-662.4051800918536,-2129.0107716452717 L-662.4970591677842,-2129.043838238729 L-662.601933556597,-2129.0757810954165 " />
			<path d="M-705.0992829549108,-2141.0480529816396 L-705.1833725483601,-2141.0704761821194 L-705.2738700444233,-2141.092174937926 L-705.3705574267055,-2141.113096974856 L-705.4732017668342,-2141.1331918898895 L-705.6953584486909,-2141.1707088218614 L-705.9382005997037,-2141.204364425277 L-706.1993895172075,-2141.233834578278 L-706.4764098091464,-2141.258835467181 L-706.7665936186742,-2141.2791263197587 L-707.0671463170746,-2141.2945117240083 L-707.3751734175632,-2141.3048435100773 L-707.6877084507777,-2141.310022177217 L-708.0017415334988,-2141.3099978520327 L-708.3142483554724,-2141.3047707687883 L-708.6222193051691,-2141.294391267154 L-708.9226884539892,-2141.2789593074035 L-709.2127621197765,-2141.258623507746 L-709.489646734559,-2141.233579713048 " />
			<path d="M-709.4896467345588,-2141.2335797130486 L-736.5864231870753,-2138.4854650040556 " />
			<path d="M-736.5864231870753,-2138.4854650040556 L-736.7595964950663,-2138.466594477458 L-736.9252263807939,-2138.445879319 L-737.0826261857496,-2138.423405408352 L-737.2311433712033,-2138.3992659165133 L-737.3701622234589,-2138.3735609195496 L-737.4991064064444,-2138.346396983706 L-737.6174413510511,-2138.317886723609 L-737.7246764713184,-2138.288148335395 L-737.8203671982759,-2138.2573051067016 L-737.9041168230111,-2138.2254849055485 L-737.9755781413212,-2138.1928196502286 L-738.0344548931317,-2138.1594447624107 L-738.0590957120343,-2138.1425343456385 L-738.0805029907143,-2138.1254986057156 L-738.098654536165,-2138.1083552036584 L-738.1135315306103,-2138.0911219120967 L-738.1251185510139,-2138.073816596849 L-738.1334035850676,-2138.0564571984014 L-738.1383780436455,-2138.039061713308 L-738.1400367697073,-2138.0216481755338 " />
			<path d="M-1053.5844079644885,-2105.7052106482665 L-1011.0870585661747,-2093.7329387620434 " />
			<path d="M-1011.0870585661746,-2093.176358567817 L-1010.9821841773619,-2093.208301424504 L-1010.8903051014313,-2093.2413680179616 L-1010.8118404536768,-2093.275407511725 L-1010.7471481581804,-2093.31026463135 L-1010.7200613541858,-2093.3279502380315 L-1010.6965233151069,-2093.345780372713 L-1010.6765608913615,-2093.3637346961223 L-1010.6601968545757,-2093.381792727323 L-1010.6474498716069,-2093.399933867077 L-1010.638334483251,-2093.4181374213417 L-1010.6328610876549,-2093.4363826248764 L-1010.6310359284548,-2093.45464866493 " />
			<path d="M-1010.6310359284548,-2093.45464866493 L-1010.6328610876549,-2093.472914704984 L-1010.638334483251,-2093.4911599085185 L-1010.6474498716069,-2093.5093634627833 L-1010.6601968545757,-2093.527504602537 L-1010.6765608913615,-2093.545562633738 L-1010.6965233151069,-2093.5635169571474 L-1010.7200613541858,-2093.581347091829 L-1010.7471481581804,-2093.59903269851 L-1010.8118404536768,-2093.6338898181352 L-1010.8903051014313,-2093.6679293118987 L-1010.9821841773619,-2093.700995905356 L-1011.0870585661747,-2093.7329387620434 " />
			<path d="M-1053.5844079644883,-2105.7052106482665 L-1053.6684975579378,-2105.7276338487463 L-1053.758995054001,-2105.749332604553 L-1053.8556824362831,-2105.770254641483 L-1053.9583267764117,-2105.7903495565165 L-1054.1804834582683,-2105.8278664884883 L-1054.4233256092812,-2105.861522091904 L-1054.684514526785,-2105.890992244905 L-1054.961534818724,-2105.915993133808 L-1055.2517186282519,-2105.9362839863857 L-1055.5522713266523,-2105.9516693906353 L-1055.8602984271408,-2105.9620011767042 L-1056.1728334603552,-2105.967179843844 L-1056.4868665430765,-2105.9671555186596 L-1056.79937336505,-2105.9619284354153 L-1057.1073443147466,-2105.951548933781 L-1057.4078134635668,-2105.9361169740305 L-1057.697887129354,-2105.915781174373 L-1057.9747717441367,-2105.890737379675 " />
			<path d="M-1057.9747717441367,-2105.890737379675 L-1085.0715481966529,-2103.142622670682 " />
			<path d="M-1085.071548196653,-2103.1426226706826 L-1085.2447215046438,-2103.123752144085 L-1085.4103513903715,-2103.103036985627 L-1085.5677511953274,-2103.080563074979 L-1085.716268380781,-2103.0564235831403 L-1085.8552872330365,-2103.0307185861766 L-1085.984231416022,-2103.003554650333 L-1086.1025663606288,-2102.975044390236 L-1086.2098014808962,-2102.945306002022 L-1086.3054922078536,-2102.9144627733285 L-1086.3892418325888,-2102.8826425721754 L-1086.4607031508988,-2102.8499773168555 L-1086.5195799027094,-2102.8166024290376 L-1086.544220721612,-2102.7996920122655 L-1086.565628000292,-2102.7826562723426 L-1086.5837795457426,-2102.7655128702854 L-1086.5986565401881,-2102.7482795787237 L-1086.6102435605915,-2102.730974263476 L-1086.6185285946453,-2102.7136148650284 L-1086.6235030532232,-2102.696219379935 L-1086.625161779285,-2102.6788058421607 " />
			<path d="M-1086.625161779285,-2102.6788058421607 L-1086.623336620085,-2102.660539802107 L-1086.6178632244887,-2102.6422945985723 L-1086.608747836133,-2102.6240910443075 L-1086.5960008531642,-2102.6059499045537 L-1086.5796368163783,-2102.587891873353 L-1086.559674392633,-2102.5699375499435 L-1086.536136353554,-2102.552107415262 L-1086.5090495495594,-2102.5344218085806 L-1086.444357254063,-2102.4995646889556 L-1086.3658926063085,-2102.465525195192 L-1086.274013530378,-2102.4324586017347 L-1086.1691391415652,-2102.4005157450474 " />
			<path d="M-1413.0450689410895,-2069.2492429482186 L-1370.5477195399053,-2057.2769710622865 " />
			<path d="M-1370.5477196135953,-2056.7203911013626 L-1370.4428452122322,-2056.7523339305335 L-1370.3509661245498,-2056.785400497819 L-1370.2725014659306,-2056.8194399668605 L-1370.2078091605358,-2056.8542970633143 L-1370.1807223519763,-2056.871982659021 L-1370.1571843085997,-2056.889812783149 L-1370.1372218808306,-2056.9077670964375 L-1370.1208578403014,-2056.9258251179594 L-1370.1081108538756,-2056.9439662484856 L-1370.0989954623542,-2056.9621697939824 L-1370.0935220638885,-2056.9804149892175 L-1370.0916969021187,-2056.998681021448 " />
			<path d="M-1370.0916969021187,-2056.998681021448 L-1370.0935220590518,-2057.0169470541623 L-1370.0989954526863,-2057.0351922508466 L-1370.1081108393873,-2057.0533957987573 L-1370.1208578210094,-2057.0715369326585 L-1370.137221856757,-2057.0895949585138 L-1370.1571842797719,-2057.107549277088 L-1370.1807223184273,-2057.1253794074487 L-1370.2078091223036,-2057.143065010328 L-1370.2725014184684,-2057.177922123912 L-1370.350966068074,-2057.2119616137306 L-1370.4428451470005,-2057.245028205345 L-1370.5477195399053,-2057.2769710622865 " />
			<path d="M-1413.0450689410895,-2069.2492429482186 L-1413.1291585345443,-2069.271666149276 L-1413.2196560306127,-2069.293364906815 L-1413.3163434128999,-2069.314286946628 L-1413.4189877530334,-2069.3343818656886 L-1413.641144434899,-2069.3718988091036 L-1413.88398658592,-2069.4055544283856 L-1414.145175503431,-2069.4350246015233 L-1414.4221957953757,-2069.4600255146397 L-1414.7123796049084,-2069.4803163952733 L-1415.0129323033125,-2069.495701831153 L-1415.3209594038035,-2069.5060336521196 L-1415.6334944370192,-2069.51121235709 L-1415.9475275197403,-2069.5111880723034 L-1416.2600343417128,-2069.5059610316366 L-1416.568005291407,-2069.4955815743483 L-1416.8684744402233,-2069.480149660286 L-1417.1585481060056,-2069.459813907218 L-1417.4354327207823,-2069.4347701595634 " />
			<path d="M-1417.4354327207823,-2069.4347701595634 L-1444.5322091726396,-2066.686660190053 " />
			<path d="M-1444.5322091726393,-2066.686660190053 L-1444.705382476937,-2066.6677896947726 L-1444.8710123593148,-2066.647074567583 L-1445.0284121613072,-2066.62460068802 L-1445.176929344225,-2066.6004612269503 L-1445.3159481944094,-2066.5747562603083 L-1445.4448923758223,-2066.5475923542085 L-1445.5632273193844,-2066.5190821231486 L-1445.6704624391612,-2066.48934376314 L-1445.7661531662031,-2066.4585005616977 L-1445.849902791615,-2066.426680386723 L-1445.921364111206,-2066.3940151563947 L-1445.9802408649098,-2066.360640292272 L-1446.0048816849894,-2066.3437298868284 L-1446.026288965,-2066.3266941578718 L-1446.044440511935,-2066.3095507664057 L-1446.0593175080166,-2066.292317485048 L-1446.0709045302083,-2066.2750121796066 L-1446.0791895662003,-2066.2576527905567 L-1446.0841640268648,-2066.240257314441 L-1446.08582275516,-2066.222843785215 " />
			<path d="M-1446.08582275516,-2066.222843785215 L-1446.083997598227,-2066.204577752501 L-1446.0785242045924,-2066.1863325558165 L-1446.0694088178914,-2066.168129007906 L-1446.0566618362693,-2066.1499878740046 L-1446.0402978005218,-2066.1319298481494 L-1446.0203353775069,-2066.1139755295753 L-1445.9967973388514,-2066.0961453992145 L-1445.969710534975,-2066.078459796335 L-1445.9050182388103,-2066.043602682751 L-1445.8265535892047,-2066.0095631929325 L-1445.7346745102782,-2065.976496601318 L-1445.6298001173734,-2065.9445537443767 " />
			<path d="M-35.00154200770035,-28.344559955328467 L-1471.869457127068,117.38044387819457 " />
			<path d="M-36.01470287992686,-25.71864314154261 L-1473.515843544436,120.07058148362192 " />
			<path d="M-36.01470287992686,5.4266568937069195 L-1473.515843544436,151.21588151887147 " />
			<path d="M-34.368316462558774,9.044428156178196 L-1471.869457127068,154.83365278134272 " />
			<path d="M34.368316462558774,28.40878074696997 L-1403.1328242019504,174.1980053721345 " />
			<path d="M-9.189128069190298,-2248.2349421228214 L-1445.3020615921566,-2103.9639163698835 " />
			<path d="M-10.21424410098247,-2245.591296740656 L-1446.9467144830444,-2101.2580326942893 " />
			<path d="M-10.173053034316087,-2214.4242180560645 L-1446.905523416378,-2070.0909540096977 " />
			<path d="M-39.616534933230234,-2207.6938489351564 L-361.0045217249811,-2175.4074086164455 " />
			<path d="M-388.10129817749754,-2172.685283049473 L-705.0992829549107,-2140.839859644462 " />
			<path d="M-738.1400367697072,-2137.52060575207 L-1053.970029143626,-2105.7925181485757 " />
			<path d="M-1086.625161779285,-2102.5120035236655 L-1415.2073363364013,-2069.5028395081335 " />
			<path d="M-41.17014617778921,-2191.6394409495842 L-356.61415794533286,-2159.950128721412 " />
			<path d="M-389.6549117601294,-2156.63087482902 L-662.9551806743135,-2129.1752971969195 " />
			<path d="M-738.1400367697072,-2121.6222726006154 L-1012.3148734673308,-2094.0788364246205 " />
			<path d="M-1086.625161779285,-2086.613670372211 L-1372.6776542028795,-2057.877012176467 " />
			<path d="M-8.129066239119478,-21.016699830490047 L-8.129394917084824,-2211.7337041250075 " />
			<path d="M34.36828313294766,-9.044427945803482 L34.36795454393914,-2199.1685137688346 " />
			<path d="M-12.519430176093973,-22.253554344941552 L-12.519758696326278,-2211.919230312732 " />
			<path d="M-39.61620789994175,-27.939008020559758 L-39.61653515486691,-2209.171110235443 " />
			<path d="M-356.6141579453328,4.210451925969812 L-356.61415794533286,-2175.8484618728667 " />
			<path d="M-314.1168085470191,-0.09956595307048843 L-314.11680854701916,-2164.219386414423 " />
			<path d="M-361.00452172498103,4.655716081350885 L-361.0045217249811,-2176.5764220464216 " />
			<path d="M-388.1012981774975,7.403830790343502 L-388.10129817749754,-2173.828307337429 " />
			<path d="M-705.0992829549107,39.55329425934301 L-705.0992829549107,-2141.0480529816396 " />
			<path d="M-662.6019335565969,35.2432763803027 L-662.6019335565969,-2129.0757810954165 " />
			<path d="M-709.489646734559,39.9985584147241 L-709.489646734559,-2141.2335797130486 " />
			<path d="M-736.5864231870753,42.74667312371669 L-736.5864231870753,-2138.4854650040556 " />
			<path d="M-1053.5844079644883,74.89613659271618 L-1053.5844079644883,-2105.7052106482665 " />
			<path d="M-1011.0870585661746,70.58611871367592 L-1011.0870585661746,-2093.7329387620434 " />
			<path d="M-1057.9747717441367,75.3414007480973 L-1057.9747717441367,-2105.890737379675 " />
			<path d="M-1085.071548196653,78.08951545708989 L-1085.071548196653,-2103.1426226706826 " />
			<path d="M-1413.0453576477266,111.35213071674117 L-1413.04506894109,-2069.2492429482177 " />
			<path d="M-1370.548006090804,107.04211261877798 L-1370.5477195399053,-2057.276971062286 " />
			<path d="M-1417.4357215109344,111.79739488059674 L-1417.4354327207825,-2069.434770159563 " />
			<path d="M-1444.5324979627921,114.54550958952258 L-1444.5322091726396,-2066.6866601900524 " />
			<path d="M-1472.1923400681862,117.3507295783817 L-34.691199403677004,-28.438495046782826 " />
			<path d="M-1402.8099412608321,174.22771967194737 L34.691199403677004,28.438495046782826 " />
			<path d="M-1445.6177504088214,-2103.9917303628295 L-8.88528002675906,-2248.3249944091963 " />
			<path d="M-1372.5218943729092,-2057.833131815466 L-1086.625161779285,-2086.5541424740863 " />
			<path d="M-1012.1591136373709,-2094.0349560636187 L-738.1400367697072,-2121.562744702491 " />
			<path d="M-662.799420844354,-2129.131416835917 L-389.6549117601294,-2156.5713469308953 " />
			<path d="M-314.11680854701916,-2164.1598585162988 L-41.17014616885809,-2191.5799130523565 " />
			<path d="M34.82397711045533,-2199.3607467329502 L34.82430576608933,-8.792586214384507 " />
			<path d="M-41.1701487385156,-2208.7072929268766 L-41.1698215295381,-27.78144284024885 " />
			<path d="M-313.6607859092993,-2164.1403333316766 L-313.66078590929925,-0.14581508977305901 " />
			<path d="M-389.6549117601294,-2173.3644905089072 L-389.6549117601293,7.561395965891329 " />
			<path d="M-662.1459109188772,-2128.7974909983036 L-662.1459109188772,35.197027243600154 " />
			<path d="M-738.1400367697072,-2138.0216481755338 L-738.1400367697072,42.90423829926454 " />
			<path d="M-1010.6310359284548,-2093.45464866493 L-1010.6310359284548,70.53986957697333 " />
			<path d="M-1086.625161779285,-2102.6788058421607 L-1086.625161779285,78.24708063263775 " />
			<path d="M-1370.0916969021187,-2056.998681021448 L-1370.0919834100491,106.99586347771086 " />
			<path d="M-1446.0858227551603,-2066.222843785215 L-1446.0861115047658,114.70307476094692 " />

       </g>
    </g>
    
</svg>
