<?xml version="1.0" encoding="UTF-8" standalone="no"?>
<svg
   xmlns:svg="http://www.w3.org/2000/svg"
   xmlns="http://www.w3.org/2000/svg"
   width="480.0"
   height="480.0"

>
    <g transform="scale(0.1471365235538199, -0.1471365235538199)   translate(75.44855715487681,-138.77592611807424)" stroke-width="1.0"  fill="none">
       <!-- hidden lines -->
       <g  stroke="rgb(0,0,0)" fill="none" stroke-dasharray="1.0,1.0" >
			<path d="M1548.3391949952768,-19.18124272402082 L1548.3391949952768,66.8 " />
			<path d="M10.424475193400538,70.0 L915.0368016412618,70.0 " />
			<path d="M1516.35243799755,70.0 L1547.0786532398233,70.0 " />
			<path d="M1547.0786532398233,70.0 L1547.140505092156,69.99614545985655 L1547.202207937959,69.98459112535103 L1547.2636131296717,69.9653648318873 L1547.3245727368094,69.93851289729034 L1547.384939902339,69.90410001022254 L1547.4445691964709,69.86220907434307 L1547.5033169670128,69.81294100858567 L1547.5610416854397,69.75641450403612 L1547.617604287849,69.69276573799502 L1547.672868509977,69.62214804591473 L1547.726701215472,69.54473155200087 L1547.7789727166314,69.46070275936815 L1547.8295570868306,69.37026410073807 L1547.8783324638907,69.27363345076076 L1547.9251813436565,69.17104360113586 L1547.9699908630732,69.06274169979694 L1548.0126530720834,68.94898865551046 L1548.053065193689,68.83005850932366 L1548.0911298715494,68.70623777437578 L1548.1267554045212,68.57782474566272 L1548.1598559675756,68.4451287814183 L1548.1903518185566,68.3084695578432 L1548.2181694902881,68.1681762989769 L1548.2432419675624,68.02458698356828 L1548.2655088485858,67.8780475308551 L1548.2849164904912,67.72891096721428 L1548.3014181385697,67.57753657569044 L1548.3149740389056,67.4242890304516 L1548.3255515341475,67.26953751825715 L1548.333125142183,67.1136548490546 L1548.337676617527,66.95701655784774 L1548.3391949952766,66.80000000000003 " />
			<path d="M-6.223924917550848,-70.0 L1534.6308034047215,-70.0 " />
			<path d="M1547.0786532398233,-70.0 L1534.6308034047215,-70.0 " />
			<path d="M1534.6308034047217,-70.0 L1534.568951552389,-69.99614545985655 L1534.507248706586,-69.98459112535103 L1534.4458435148733,-69.9653648318873 L1534.3848839077357,-69.93851289729034 L1534.324516742206,-69.90410001022254 L1534.2648874480742,-69.86220907434307 L1534.2061396775323,-69.81294100858567 L1534.1484149591054,-69.75641450403612 L1534.091852356696,-69.69276573799502 L1534.036588134568,-69.62214804591473 L1533.982755429073,-69.54473155200087 L1533.9304839279137,-69.46070275936815 L1533.8798995577145,-69.37026410073805 L1533.8311241806543,-69.27363345076076 L1533.7842753008886,-69.17104360113586 L1533.7394657814718,-69.06274169979694 L1533.6968035724617,-68.94898865551046 L1533.656391450856,-68.83005850932366 L1533.6183267729957,-68.70623777437578 L1533.5827012400239,-68.57782474566272 L1533.5496006769695,-68.4451287814183 L1533.5191048259885,-68.3084695578432 L1533.491287154257,-68.1681762989769 L1533.4662146769826,-68.02458698356828 L1533.4439477959593,-67.8780475308551 L1533.4245401540538,-67.72891096721428 L1533.4080385059754,-67.57753657569044 L1533.3944826056395,-67.4242890304516 L1533.3839051103976,-67.26953751825715 L1533.376331502362,-67.1136548490546 L1533.371780027018,-66.95701655784774 L1533.3702616492685,-66.80000000000001 " />
			<path d="M1533.3702616492683,-66.8 L1533.3702616492683,66.8 " />
			<path d="M-6.223924917550848,70.0 L1534.6308034047215,70.0 " />
			<path d="M1533.3702616492685,66.8 L1533.371780027018,66.95701655784774 L1533.376331502362,67.1136548490546 L1533.3839051103976,67.26953751825715 L1533.3944826056395,67.4242890304516 L1533.4080385059754,67.57753657569044 L1533.4245401540538,67.72891096721428 L1533.4439477959593,67.8780475308551 L1533.4662146769826,68.02458698356828 L1533.491287154257,68.1681762989769 L1533.5191048259885,68.3084695578432 L1533.5496006769695,68.4451287814183 L1533.5827012400239,68.57782474566272 L1533.6183267729957,68.70623777437578 L1533.656391450856,68.83005850932366 L1533.6968035724617,68.94898865551046 L1533.7394657814718,69.06274169979694 L1533.7842753008886,69.17104360113586 L1533.8311241806543,69.27363345076076 L1533.8798995577145,69.37026410073805 L1533.9304839279137,69.46070275936815 L1533.982755429073,69.54473155200087 L1534.036588134568,69.62214804591473 L1534.091852356696,69.69276573799502 L1534.1484149591054,69.75641450403612 L1534.2061396775323,69.81294100858567 L1534.2648874480742,69.86220907434307 L1534.324516742206,69.90410001022254 L1534.3848839077357,69.93851289729034 L1534.4458435148733,69.9653648318873 L1534.507248706586,69.98459112535103 L1534.568951552389,69.99614545985655 L1534.6308034047217,70.0 " />
			<path d="M1547.0786532398233,70.0 L1534.6308034047215,70.0 " />
			<path d="M2437.8933312401305,-18.320526104247314 L2425.474880937538,-18.18736736802928 " />
			<path d="M2425.474880937538,-18.18736736802928 L2425.413178397634,-18.182851214063856 L2425.351630964007,-18.17063693111782 L2425.2903869098154,-18.150753944468633 L2425.2295937773497,-18.123250153972677 L2425.169398022591,-18.088191818670307 L2425.1099446623853,-18.04566339716201 L2425.0513769250842,-17.99576734414025 L2424.9938359054972,-17.93862386356714 L2424.9374602249804,-17.874370619092552 L2424.8823856974864,-17.803162402410347 L2424.8287450023754,-17.725170760351617 L2424.7766673647807,-17.64058358161334 L2424.726278244292,-17.549604644118055 L2424.6776990327153,-17.452453124095012 L2424.631046761626,-17.349363068065408 L2424.58643382043,-17.240582829003838 L2424.543967685612,-17.126374468034232 L2424.50375066181,-17.007013123101633 L2424.4658796353565,-16.882786346140804 L2424.4304458408715,-16.75399341033842 L2424.3975346414695,-16.620944589157762 L2424.3672253231125,-16.483960408862757 L2424.3395909036035,-16.343370876342124 L2424.3146979566795,-16.199514684093902 L2424.2926064516296,-16.05273839428553 L2424.273369608825,-15.903395603855238 L2424.2570337715047,-15.751846092666058 L2424.2436382941314,-15.598454956764614 L2424.233215447584,-15.44359172883277 L2424.2257903414124,-15.287629487951028 L2424.221380863348,-15.130943960818353 L2424.2199976362085,-14.973912616593646 " />
			<path d="M882.6984158709316,-16.465402717624386 L882.7676265729154,66.13383123065589 " />
			<path d="M2424.219997636209,-14.973912616593633 L2424.289208338193,67.62532133168664 " />
			<path d="M2424.2892083381926,67.62532133168665 L2424.29083625933,67.78140266254714 L2424.295454555639,67.93708025868769 L2424.303052230994,68.09198345299518 L2424.3136111953904,68.24574342220113 L2424.327106308018,68.39799406504687 L2424.3435054371216,68.54837287396772 L2424.3627695365058,68.69652179822066 L2424.3848527385044,68.84208809640022 L2424.4097024631888,68.98472517631302 L2424.4372595435634,69.12409342021095 L2424.46745836644,69.25986099341836 L2424.5002270286623,69.39170463442775 L2424.5354875083076,69.51931042458286 L2424.5731558504554,69.64237453551644 L2424.6131423670836,69.76060395256323 L2424.6553518506157,69.87371717242547 L2424.6996838006085,69.98144487343005 L2424.746032663043,70.08353055678126 L2424.794288081648,70.17973115728233 L2424.844335160657,70.26981762207178 L2424.896054738375,70.35357545599645 L2424.9493236709004,70.43080523232265 L2425.0040151253297,70.5013230675698 L2425.0599988817476,70.56496105933533 L2425.1171416432767,70.6215676860691 L2425.1753073534583,70.67100816784496 L2425.234357520201,70.71316478727064 L2425.2941515455286,70.74793716977199 L2425.354547060346,70.77524252258397 L2425.415400263413,70.79501583187962 L2425.47656626374,70.80721001756741 L2425.5378994255693,70.81179604538865 " />
			<path d="M884.1783839730533,69.32049652029873 L884.1134570663503,69.26361026656443 L884.0500380305515,69.20474498669903 L883.9881778103783,69.14394796737677 L883.9279260983503,69.08126804704467 L883.8693312948676,69.01675557669033 L883.8124404693299,68.95046237939485 L883.7572993223256,68.88244170870318 L883.7039521489208,68.8127482058454 L883.6524418030767,68.74143785584315 L883.6028096632245,68.6685679425368 L883.5550955990268,68.59419700256906 L883.5093379393492,68.5183847783623 L883.4655734414713,68.44119217012737 L883.4238372615592,68.36268118694208 L883.3841629264246,68.2829148969393 L883.346582306592,68.20195737664397 L883.3111255906982,68.11987365950027 L883.2778212612402,68.03672968363006 L883.2466960716962,67.95259223886453 L883.2177750250341,67.86752891309172 L883.1910813536266,67.78160803796298 L883.1666365005882,67.69489863400187 L883.1444601025503,67.60747035515979 L883.124569973887,67.5193934328627 L883.1069820924043,67.43073861959398 L883.091710586506,67.34157713205877 L883.078767723843,67.25198059397535 L883.0681639014601,67.16202097853946 L883.0599076374427,67.07177055060816 L883.0540055640752,66.98130180864914 L883.0504624225124,66.89068742650241 L883.0492810589719,66.80000019500135 " />
			<path d="M883.1835470006142,-18.999999805817005 L885.9905449067238,-18.999999806184483 " />
			<path d="M883.0492810291603,-15.799999804998677 L883.0528239102578,-15.957016362847845 L883.0634440185523,-16.113654654058983 L883.0811157692731,-16.26953732326867 L883.1057965896247,-16.42428883547307 L883.137427021349,-16.57753638072466 L883.1759308639656,-16.728910772264015 L883.2212153583451,-16.878047335923096 L883.2731714101741,-17.024586788657224 L883.3316738527727,-17.168176104089426 L883.3965817486328,-17.308469362981885 L883.4677387289478,-17.44512858658569 L883.5449733703196,-17.577824550861248 L883.6280996077321,-17.706237579607823 L883.7169171827985,-17.830058314591508 L883.8112121262008,-17.948988460816317 L883.9107572731613,-18.06274150514294 L884.0153128107015,-18.17104340652401 L884.1246268553739,-18.27363325619297 L884.2384360600697,-18.37026390621616 L884.3564662484466,-18.460702564893825 L884.4784330754426,-18.544731357575728 L884.6040427122881,-18.62214785154023 L884.7329925543661,-18.6927655436725 L884.8649719502123,-18.75641430976681 L884.999662949902,-18.81294081437066 L885.1367410710195,-18.862208880183324 L885.2758760803644,-18.904099816118894 L885.4167327895124,-18.938512703243475 L885.5589718623135,-18.965364637897782 L885.7022506323826,-18.984590931419277 L885.8462239286132,-18.996145265982843 L885.9905449067237,-18.999999806184476 " />
			<path d="M10.42576770875129,-18.999999691559992 L39.47074851109474,-18.999999703269772 " />
			<path d="M885.9905449067238,-18.999999806184483 L915.0355257090672,-18.999999817894263 " />
			<path d="M883.1835470045962,-18.999999813724372 L915.0355257090672,-18.99999981789427 " />
			<path d="M39.47095528292675,-18.999999695362437 L39.615269557803245,-18.99613446240358 L39.75923569997935,-18.98457014990769 L39.9025069134459,-18.965334614823348 L40.044738076188025,-18.938474193092482 L40.18558657153993,-18.904053588032966 L40.32471311350459,-18.862155714476632 L40.46178256405029,-18.81288149903805 L40.596464740415215,-18.756349636995225 L40.72843521047551,-18.692696306367875 L40.85737607426071,-18.622074839882004 L40.9829767297341,-18.544655355611 L41.1049346209932,-18.460624347182954 L41.22295596708831,-18.3701842345414 L41.33675646970313,-18.273552876341576 L41.44606199799307,-18.170963045156793 L41.550609248931316,-18.06266186675912 L41.65014638157217,-17.948910224825024 L41.744433623703614,-17.82998213249998 L41.833243849427895,-17.70616407233588 L41.916363126278746,-17.57775430619125 L41.9935912305573,-17.445062156756574 L42.064742129645374,-17.308407262435566 L42.129644430134206,-17.168118807377134 L42.188141790689265,-17.02453472851293 L42.2400932986565,-16.87800090151051 L42.28537380950287,-16.728870307603138 L42.32387424827356,-16.577502183303174 L42.35550187233954,-16.424261155047294 L42.38018049480269,-16.269516360858077 L42.39785066802029,-16.113640561137753 L42.40846982680682,-15.957009240736117 L42.41201239096799,-15.79999970445558 " />
			<path d="M915.0355257090671,-18.999999817894263 L915.1798466871804,-18.996145277809 L915.3238199834193,-18.98459094336152 L915.4670987535023,-18.965364649955557 L915.6093378263229,-18.93851271541594 L915.7501945354957,-18.90409982840493 L915.8893295448707,-18.862208892581553 L916.0264076660238,-18.812940826879416 L916.1610986657544,-18.756414322384167 L916.2930780616465,-18.692765556396278 L916.4220279037754,-18.62214786436798 L916.5476375406769,-18.544731370504756 L916.6696043677334,-18.460702577921204 L916.7876345561756,-18.370263919338708 L916.9014437609413,-18.273633269407284 L917.0107578056876,-18.171043419826468 L917.1153133433062,-18.062741518529705 L917.2148584903487,-17.948988474283343 L917.3091534338369,-17.830058328134566 L917.3979710089926,-17.706237593222493 L917.4810972464978,-17.577824564542947 L917.5583318879653,-17.445128600329667 L917.629488868379,-17.30846937678324 L917.6943967643404,-17.16817611794312 L917.7528992070427,-17.024586802558087 L917.8048552589773,-16.878047349865852 L917.8501397534645,-16.728910786243283 L917.8886435961904,-16.57753639473497 L917.9202740280253,-16.42428884950889 L917.9449548484887,-16.269537337324387 L917.9626265993219,-16.113654668128948 L917.9732467077296,-15.957016376926374 L917.9767895889404,-15.799999819080071 " />
			<path d="M42.41201239096799,-15.79999970445557 L42.41201242077959,66.80000029554442 " />
			<path d="M917.9767895889405,-15.799999819080064 L917.9767896187522,66.80000018091994 " />
			<path d="M39.47074854321619,70.00000029673022 L915.0355257411886,70.00000018210572 " />
			<path d="M42.41201242077958,66.80000029554442 L42.408469539682194,66.95701685339358 L42.39784943138756,67.11365514460472 L42.38017768066679,67.26953781381441 L42.35549686031522,67.42428932601881 L42.32386642859086,67.5775368712704 L42.28536258597425,67.72891126280976 L42.240078091594775,67.87804782646884 L42.18812203976585,68.02458727920296 L42.12961959716715,68.16817659463517 L42.0647117013071,68.30846985352763 L41.99355472099209,68.44512907713143 L41.916320079620306,68.57782504140698 L41.833193842207784,68.70623807015356 L41.74437626714143,68.83005880513724 L41.650081323739094,68.94898895136205 L41.55053617677869,69.06274199568868 L41.44598063923837,69.17104389706975 L41.33666659456605,69.27363374673871 L41.22285738987013,69.3702643967619 L41.10482720149322,69.46070305543957 L40.98286037449736,69.54473184812147 L40.85725073765181,69.62214834208598 L40.72830089557383,69.69276603421824 L40.59632149972766,69.75641480031256 L40.46163050003792,69.81294130491641 L40.324552378920416,69.86220937072906 L40.185417369575525,69.90410030666463 L40.044560660427564,69.93851319378922 L39.902321587626446,69.96536512844352 L39.75904281755723,69.98459142196502 L39.615069521326745,69.99614575652859 L39.4707485432162,70.00000029673022 " />
			<path d="M917.9767896187519,66.80000018091994 L917.9755657280518,66.89230494600866 L917.9718950744326,66.98453289313761 L917.9657807126891,67.07660726827551 L917.9572277313214,67.16845144519692 L917.9462432482997,67.25998898925221 L917.9328364051413,67.35114372097802 L917.9170183593021,67.44183977949544 L917.8988022748915,67.53200168564305 L917.8782033117169,67.6215544047922 L917.8552386126672,67.71042340929245 L917.8299272894466,67.798534740495 L917.8022904066688,67.8858150703027 L917.7723509643273,67.97219176219512 L917.7401338786535,68.05759293167833 L917.7056659613817,68.14194750610852 L917.6689758974352,68.22518528384028 L917.6300942210546,68.3072369926498 L917.5890532903861,68.38803434738472 L917.5458872605527,68.4675101067924 L917.5006320552294,68.5455981294796 L917.453325336747,68.6222334289566 L917.4040064747484,68.69735222772047 L917.3527165134245,68.77089201033189 L917.2994981373565,68.84279157544196 L917.2443956359929,68.91299108672514 L917.1874548667904,68.98143212267631 L917.1287232170512,69.04805772523042 L917.0682495644853,69.11281244716416 L917.0060842365344,69.17564239824026 L916.9422789684879,69.23649529005614 L916.8768868604275,69.29532047955941 L916.8099623330364,69.35206901119398 " />
			<path d="M10.425767740872741,70.00000030844001 L39.47074854321619,70.00000029673024 " />
			<path d="M381.0250068723429,-15.800000000000004 L381.0250068723429,66.79999999999998 " />
			<path d="M1256.5894318242588,-15.800000000000004 L1256.5894318242588,66.79999999999998 " />
			<path d="M383.96627096840064,70.0 L915.0366921625388,70.0 " />
			<path d="M383.96627096840064,69.99999999999999 L383.8219499796243,69.99614545985654 L383.677976672751,69.98459112535102 L383.53469789208754,69.96536483188729 L383.39245880876626,69.93851289729032 L383.2516020891975,69.90410001022252 L383.1124670695564,69.86220907434306 L382.9753889382919,69.81294100858565 L382.840697928629,69.7564145040361 L382.7087185230075,69.692765737995 L382.5797686713755,69.62214804591471 L382.45415902522035,69.54473155200085 L382.3321921891816,69.46070275936813 L382.21416199205044,69.37026410073804 L382.1003527789099,69.27363345076074 L381.991038726123,69.17104360113585 L381.88648318081766,69.06274169979693 L381.78693802646046,68.94898865551045 L381.6926430760475,68.83005850932365 L381.60382549437344,68.70623777437577 L381.52069925077205,68.57782474566271 L381.4434646036453,68.44512878141829 L381.37230761802294,68.30846955784318 L381.307399717316,68.16817629897689 L381.2488972703425,68.02458698356827 L381.1969412146215,67.87804753085508 L381.151656716842,67.72891096721426 L381.1131528713256,67.57753657569043 L381.08152243720866,67.42428903045159 L381.0568416149775,67.26953751825714 L381.0391698628946,67.11365484905458 L381.0285497537587,66.95701655784772 L381.02500687234283,66.80000000000001 " />
			<path d="M1258.2532514029324,69.68243044870802 L1258.1612014365217,69.63196089061834 L1258.0708334706605,69.57801314416645 L1257.9822584944557,69.52065346747919 L1257.895585294879,69.45995230918476 L1257.8109203231586,69.39598422188841 L1257.7283675640354,69.3288277706076 L1257.6480284080499,69.25856543627914 L1257.570001527016,69.1852835144569 L1257.4943827528325,69.10907200932436 L1257.4212649597835,69.03002452315233 L1257.3507379504708,68.94823814133753 L1257.28288834552,68.86381331316308 L1257.2177994771926,68.77685372842775 L1257.1555512870393,68.68746619009507 L1257.0962202277155,68.5957604831188 L1257.0398791690834,68.50184923960619 L1256.9865973087142,68.40584780048424 L1256.936440086899,68.30787407383895 L1256.8894691062776,68.20804839010178 L1256.845742056177,68.10649335426088 L1256.8053126417585,68.00333369527877 L1256.7682305180576,67.89869611290136 L1256.7345412289983,67.79270912204655 L1256.704286151456,67.68550289496329 L1256.6775024444391,67.57720910135531 L1256.6542230034509,67.46796074666554 L1256.6344764200865,67.35789200872006 L1256.6182869469187,67.24713807293215 L1256.6056744677098,67.13583496626877 L1256.5966544729908,67.02411939018354 L1256.5912380410364,66.9121285527212 L1256.5894318242588,66.80000000000001 " />
			<path d="M883.1835470983947,-19.000000000000007 L1259.5306959203167,-19.000000000000007 " />
			<path d="M381.02500687234283,-15.800000000000004 L381.02854777385426,-15.956972704568452 L381.0391619528136,-16.113567459473966 L381.05682385302396,-16.26940722505862 L381.08149094919884,-16.424116779483462 L381.1131038493521,-16.57732362216561 L381.1515864377987,-16.728658870663306 L381.1968460584212,-16.877758148849395 L381.2487737377621,-17.024262464234774 L381.30724444740355,-17.167819072329436 L381.37211740500334,-17.308082325959933 L381.4432364132626,-17.444714507498375 L381.5204302360083,-17.57738664199908 L381.60351301048564,-17.70577928928515 L381.69228469486774,-17.82958331307778 L381.7865315499042,-17.94850062531643 L381.8860266535504,-18.062244903877765 L381.9905304473365,-18.17054228196525 L382.0997913131629,-18.27313200750956 L382.2135461791309,-18.369767070992083 L382.33152115295235,-18.46021480017996 L382.453432181411,-18.5442574203406 L382.57898573428935,-18.621692578586938 L382.70787951111345,-18.692333831090792 L382.83980316901415,-18.7560110919914 L382.9744390699526,-18.812571042918158 L383.11146304551045,-18.86187750214159 L383.25054517740324,-18.90381175246373 L383.3913505918387,-18.938272827058412 L383.533540265806,-18.965177752573272 L383.6767718433554,-18.98446174890812 L383.82070045990304,-18.996078385188653 L383.9649795725752,-18.99999969155999 " />
			<path d="M1256.5894318242588,-15.800000000000004 L1256.5929747056746,-15.95701655784774 L1256.6035948148105,-16.113654849054598 L1256.6212665668934,-16.26953751825716 L1256.6459473891246,-16.424289030451614 L1256.6775778232413,-16.577536575690452 L1256.7160816687579,-16.728910967214286 L1256.7613661665373,-16.87804753085511 L1256.8133222222584,-17.02458698356829 L1256.8718246692317,-17.168176298976906 L1256.9367325699388,-17.308469557843196 L1257.0078895555612,-17.445128781418312 L1257.085124202688,-17.57782474566273 L1257.1682504462892,-17.70623777437579 L1257.2570680279632,-17.830058509323667 L1257.3513629783763,-17.948988655510462 L1257.4509081327335,-18.062741699796955 L1257.555463678039,-18.171043601135874 L1257.6647777308258,-18.273633450760762 L1257.7785869439663,-18.37026410073807 L1257.8966171410975,-18.46070275936815 L1258.0185839771361,-18.544731552000876 L1258.1441936232914,-18.62214804591474 L1258.2731434749232,-18.69276573799502 L1258.405122880545,-18.756414504036123 L1258.5398138902078,-18.81294100858567 L1258.6768920214722,-18.86220907434307 L1258.8160270411133,-18.904100010222542 L1258.956883760682,-18.93851289729034 L1259.0991228440034,-18.965364831887303 L1259.2424016246669,-18.984591125351034 L1259.38637493154,-18.996145459856557 L1259.5306959203165,-19.000000000000004 " />
			<path d="M413.01125391697127,-19.000000000000007 L1288.5756788688873,-19.000000000000007 " />
			<path d="M383.9662709684007,-19.000000000000007 L413.01125391697127,-19.000000000000007 " />
			<path d="M1259.5306959203167,-19.000000000000007 L1288.5756788688873,-19.000000000000007 " />
			<path d="M413.01125391697127,-19.000000000000004 L413.1555749057476,-18.996145459856557 L413.2995482126209,-18.984591125351034 L413.44282699328437,-18.965364831887303 L413.58506607660564,-18.93851289729034 L413.7259227961744,-18.904100010222546 L413.86505781581553,-18.862209074343074 L414.00213594708,-18.81294100858567 L414.1368269567429,-18.756414504036123 L414.2688063623644,-18.692765737995025 L414.3977562139964,-18.62214804591474 L414.52336586015156,-18.544731552000876 L414.6453326961903,-18.46070275936815 L414.76336289332147,-18.37026410073807 L414.877172106462,-18.273633450760762 L414.9864861592489,-18.171043601135874 L415.09104170455424,-18.062741699796955 L415.19058685891144,-17.948988655510462 L415.2848818093244,-17.83005850932367 L415.37369939099847,-17.70623777437579 L415.45682563459985,-17.57782474566273 L415.5340602817266,-17.445128781418312 L415.60521726734896,-17.308469557843196 L415.6701251680559,-17.168176298976906 L415.7286276150294,-17.02458698356829 L415.7805836707504,-16.87804753085511 L415.8258681685299,-16.728910967214283 L415.8643720140463,-16.57753657569045 L415.89600244816324,-16.424289030451614 L415.9206832703944,-16.269537518257163 L415.9383550224773,-16.113654849054598 L415.9489751316132,-15.957016557847743 L415.9525180130291,-15.800000000000011 " />
			<path d="M1288.5756788688873,-19.000000000000004 L1288.7199998576637,-18.996145459856557 L1288.863973164537,-18.984591125351034 L1289.0072519452003,-18.965364831887303 L1289.1494910285217,-18.93851289729034 L1289.2903477480904,-18.904100010222546 L1289.4294827677315,-18.862209074343074 L1289.566560898996,-18.81294100858567 L1289.7012519086588,-18.756414504036123 L1289.8332313142805,-18.692765737995025 L1289.9621811659124,-18.62214804591474 L1290.0877908120676,-18.544731552000876 L1290.2097576481062,-18.46070275936815 L1290.3277878452375,-18.37026410073807 L1290.441597058378,-18.273633450760762 L1290.5509111111649,-18.171043601135874 L1290.6554666564703,-18.062741699796955 L1290.7550118108275,-17.948988655510462 L1290.8493067612405,-17.83005850932367 L1290.9381243429145,-17.70623777437579 L1291.0212505865159,-17.57782474566273 L1291.0984852336426,-17.445128781418312 L1291.169642219265,-17.308469557843196 L1291.234550119972,-17.168176298976906 L1291.2930525669453,-17.02458698356829 L1291.3450086226665,-16.87804753085511 L1291.390293120446,-16.728910967214283 L1291.4287969659624,-16.57753657569045 L1291.4604274000792,-16.424289030451614 L1291.4851082223104,-16.269537518257163 L1291.5027799743932,-16.113654849054598 L1291.5134000835292,-15.957016557847743 L1291.516942964945,-15.800000000000011 " />
			<path d="M415.9525180130291,-15.800000000000004 L415.9525180130291,66.79999999999998 " />
			<path d="M1291.516942964945,-15.800000000000004 L1291.516942964945,66.79999999999998 " />
			<path d="M413.01125391697127,70.0 L1288.5756788688873,70.0 " />
			<path d="M415.9525180130291,66.79999999999998 L415.9489751316132,66.95701655784772 L415.9383550224773,67.11365484905458 L415.9206832703944,67.26953751825714 L415.89600244816324,67.42428903045159 L415.8643720140463,67.57753657569043 L415.8258681685299,67.72891096721426 L415.7805836707504,67.87804753085508 L415.7286276150294,68.02458698356827 L415.6701251680559,68.16817629897689 L415.60521726734896,68.30846955784318 L415.5340602817266,68.44512878141829 L415.45682563459985,68.57782474566271 L415.37369939099847,68.70623777437577 L415.2848818093244,68.83005850932365 L415.19058685891144,68.94898865551045 L415.09104170455424,69.06274169979693 L414.9864861592489,69.17104360113585 L414.877172106462,69.27363345076074 L414.76336289332147,69.37026410073804 L414.6453326961903,69.46070275936813 L414.52336586015156,69.54473155200085 L414.3977562139964,69.62214804591471 L414.2688063623644,69.692765737995 L414.1368269567429,69.7564145040361 L414.00213594708,69.81294100858565 L413.86505781581553,69.86220907434306 L413.7259227961744,69.90410001022252 L413.58506607660564,69.93851289729032 L413.44282699328437,69.96536483188729 L413.2995482126209,69.98459112535102 L413.1555749057476,69.99614545985654 L413.01125391697127,69.99999999999999 " />
			<path d="M1291.516942964945,66.79999999999998 L1291.5150636112612,66.91437545631446 L1291.509427951878,67.02860474966761 L1291.5000431887308,67.14254190388303 L1291.4869213148193,67.25604131611549 L1291.4700790988802,67.36895794292002 L1291.4495380639592,67.48114748560626 L1291.4253244599056,67.59246657464095 L1291.397469229827,67.70277295286309 L1291.3660079705471,67.81192565727747 L1291.3309808871147,67.91978519919462 L1291.2924327414253,68.02621374248638 L1291.2504127950194,68.13107527972981 L1291.2049747461288,68.23423580601423 L1291.1561766610555,68.33556349018895 L1291.1040808999671,68.43492884333334 L1291.0487540372055,68.53220488423364 L1290.9902667762094,68.62726730165507 L1290.928693859162,68.7199946132019 L1290.8641139714748,68.81026832056267 L1290.7966096412351,68.89797306094165 L1290.726267133741,68.98299675448372 L1290.6531763412606,69.06523074750363 L1290.5774306681574,69.14456995133699 L1290.4991269115258,69.22091297663546 L1290.4183651374933,69.29416226293446 L1290.3352485533424,69.3642242033279 L1290.2498833756206,69.43100926409048 L1290.1623786944033,69.49443209909491 L1290.0728463338858,69.55441165887763 L1289.9814007094799,69.61087129421371 L1289.8881586816003,69.66373885406863 L1289.793239406326,69.71294677780172 " />
			<path d="M383.9662709684007,70.0 L413.01125391697127,70.0 " />
			<path d="M754.5655470716816,-15.8 L754.5655470716816,66.8 " />
			<path d="M1630.1299720235975,-15.8 L1630.1299720235975,66.8 " />
			<path d="M757.5068111677394,70.0 L1633.0712361196554,70.0 " />
			<path d="M757.5068111677394,70.0 L757.3624901789632,69.99614545985655 L757.2185168720898,69.98459112535103 L757.0752380914264,69.9653648318873 L756.9329990081051,69.93851289729034 L756.7921422885363,69.90410001022254 L756.6530072688952,69.86220907434307 L756.5159291376308,69.81294100858567 L756.3812381279679,69.75641450403612 L756.2492587223463,69.69276573799502 L756.1203088707143,69.62214804591473 L755.9946992245591,69.54473155200087 L755.8727323885204,69.46070275936815 L755.7547021913892,69.37026410073807 L755.6408929782488,69.27363345076076 L755.5315789254619,69.17104360113586 L755.4270233801565,69.06274169979694 L755.3274782257993,68.94898865551046 L755.2331832753863,68.83005850932366 L755.1443656937122,68.70623777437578 L755.0612394501109,68.57782474566272 L754.9840048029841,68.4451287814183 L754.9128478173617,68.3084695578432 L754.8479399166548,68.1681762989769 L754.7894374696814,68.02458698356828 L754.7374814139604,67.8780475308551 L754.6921969161808,67.72891096721428 L754.6536930706644,67.57753657569044 L754.6220626365474,67.4242890304516 L754.5973818143162,67.26953751825715 L754.5797100622334,67.1136548490546 L754.5690899530975,66.95701655784774 L754.5655470716816,66.80000000000003 " />
			<path d="M1633.0712361196552,70.0 L1632.9269151308788,69.99614545985655 L1632.7829418240055,69.98459112535103 L1632.6396630433421,69.9653648318873 L1632.4974239600208,69.93851289729034 L1632.356567240452,69.90410001022254 L1632.217432220811,69.86220907434307 L1632.0803540895465,69.81294100858567 L1631.9456630798836,69.75641450403612 L1631.813683674262,69.69276573799502 L1631.68473382263,69.62214804591473 L1631.5591241764748,69.54473155200087 L1631.4371573404362,69.46070275936815 L1631.319127143305,69.37026410073807 L1631.2053179301645,69.27363345076076 L1631.0960038773776,69.17104360113586 L1630.9914483320722,69.06274169979694 L1630.891903177715,68.94898865551046 L1630.797608227302,68.83005850932366 L1630.708790645628,68.70623777437578 L1630.6256644020266,68.57782474566272 L1630.5484297548999,68.4451287814183 L1630.4772727692775,68.3084695578432 L1630.4123648685704,68.1681762989769 L1630.3538624215971,68.02458698356828 L1630.301906365876,67.8780475308551 L1630.2566218680965,67.72891096721428 L1630.21811802258,67.57753657569044 L1630.1864875884633,67.4242890304516 L1630.161806766232,67.26953751825715 L1630.1441350141492,67.1136548490546 L1630.1335149050133,66.95701655784774 L1630.1299720235975,66.80000000000003 " />
			<path d="M757.5068111677394,-19.000000000000004 L1633.0712361196554,-19.000000000000004 " />
			<path d="M754.5655470716816,-15.8 L754.5690899530975,-15.957016557847737 L754.5797100622334,-16.113654849054594 L754.5973818143162,-16.269537518257156 L754.6220626365474,-16.42428903045161 L754.6536930706644,-16.57753657569045 L754.6921969161808,-16.728910967214283 L754.7374814139604,-16.878047530855106 L754.7894374696814,-17.024586983568287 L754.8479399166548,-17.168176298976903 L754.9128478173617,-17.308469557843193 L754.9840048029841,-17.44512878141831 L755.0612394501109,-17.577824745662728 L755.1443656937122,-17.706237774375786 L755.2331832753863,-17.830058509323663 L755.3274782257993,-17.94898865551046 L755.4270233801565,-18.062741699796952 L755.5315789254619,-18.17104360113587 L755.6408929782488,-18.27363345076076 L755.7547021913892,-18.370264100738066 L755.8727323885204,-18.460702759368147 L755.9946992245591,-18.544731552000872 L756.1203088707143,-18.622148045914734 L756.2492587223463,-18.692765737995018 L756.3812381279679,-18.75641450403612 L756.5159291376307,-18.812941008585668 L756.6530072688952,-18.86220907434307 L756.7921422885363,-18.904100010222542 L756.9329990081051,-18.938512897290337 L757.0752380914264,-18.9653648318873 L757.2185168720898,-18.98459112535103 L757.3624901789632,-18.996145459856553 L757.5068111677394,-19.0 " />
			<path d="M1630.1299720235975,-15.8 L1630.1335149050133,-15.957016557847737 L1630.1441350141492,-16.113654849054594 L1630.161806766232,-16.269537518257156 L1630.1864875884633,-16.42428903045161 L1630.21811802258,-16.57753657569045 L1630.2566218680965,-16.728910967214283 L1630.301906365876,-16.878047530855106 L1630.3538624215971,-17.024586983568287 L1630.4123648685704,-17.168176298976903 L1630.4772727692775,-17.308469557843193 L1630.5484297548999,-17.44512878141831 L1630.6256644020266,-17.577824745662728 L1630.708790645628,-17.706237774375786 L1630.797608227302,-17.830058509323663 L1630.891903177715,-17.94898865551046 L1630.9914483320722,-18.062741699796952 L1631.0960038773776,-18.17104360113587 L1631.2053179301645,-18.27363345076076 L1631.319127143305,-18.370264100738066 L1631.4371573404362,-18.460702759368147 L1631.5591241764748,-18.544731552000872 L1631.68473382263,-18.622148045914734 L1631.813683674262,-18.692765737995018 L1631.9456630798836,-18.75641450403612 L1632.0803540895465,-18.812941008585668 L1632.217432220811,-18.86220907434307 L1632.356567240452,-18.904100010222542 L1632.4974239600208,-18.938512897290337 L1632.6396630433421,-18.9653648318873 L1632.7829418240055,-18.98459112535103 L1632.9269151308788,-18.996145459856553 L1633.0712361196552,-19.0 " />
			<path d="M786.5517941163099,-19.000000000000004 L1662.1162190682257,-19.000000000000004 " />
			<path d="M757.5068111677394,-19.000000000000004 L786.55179411631,-19.000000000000004 " />
			<path d="M1633.0712361196552,-19.000000000000004 L1662.1162190682257,-19.000000000000004 " />
			<path d="M786.5517941163099,-19.0 L786.6961151050862,-18.996145459856553 L786.8400884119595,-18.98459112535103 L786.983367192623,-18.9653648318873 L787.1256062759443,-18.938512897290337 L787.266462995513,-18.904100010222542 L787.4055980151542,-18.86220907434307 L787.5426761464187,-18.812941008585668 L787.6773671560815,-18.75641450403612 L787.809346561703,-18.692765737995018 L787.938296413335,-18.622148045914738 L788.0639060594903,-18.544731552000872 L788.185872895529,-18.460702759368147 L788.3039030926601,-18.370264100738066 L788.4177123058006,-18.27363345076076 L788.5270263585875,-18.17104360113587 L788.6315819038929,-18.062741699796952 L788.7311270582501,-17.94898865551046 L788.825422008663,-17.830058509323667 L788.9142395903372,-17.706237774375786 L788.9973658339385,-17.577824745662728 L789.0746004810652,-17.445128781418312 L789.1457574666877,-17.308469557843193 L789.2106653673945,-17.168176298976903 L789.269167814368,-17.024586983568287 L789.321123870089,-16.878047530855106 L789.3664083678685,-16.72891096721428 L789.4049122133849,-16.577536575690445 L789.4365426475019,-16.42428903045161 L789.4612234697331,-16.26953751825716 L789.478895221816,-16.113654849054594 L789.4895153309518,-15.957016557847739 L789.4930582123677,-15.800000000000008 " />
			<path d="M1662.1162190682257,-19.0 L1662.2605400570021,-18.996145459856553 L1662.4045133638754,-18.98459112535103 L1662.5477921445388,-18.9653648318873 L1662.6900312278601,-18.938512897290337 L1662.830887947429,-18.904100010222542 L1662.97002296707,-18.86220907434307 L1663.1071010983344,-18.812941008585668 L1663.2417921079973,-18.75641450403612 L1663.373771513619,-18.692765737995018 L1663.5027213652509,-18.622148045914738 L1663.628331011406,-18.544731552000872 L1663.7502978474447,-18.460702759368147 L1663.868328044576,-18.370264100738066 L1663.9821372577164,-18.27363345076076 L1664.0914513105033,-18.17104360113587 L1664.1960068558087,-18.062741699796952 L1664.295552010166,-17.94898865551046 L1664.389846960579,-17.830058509323667 L1664.478664542253,-17.706237774375786 L1664.5617907858543,-17.577824745662728 L1664.639025432981,-17.445128781418312 L1664.7101824186034,-17.308469557843193 L1664.7750903193105,-17.168176298976903 L1664.8335927662838,-17.024586983568287 L1664.885548822005,-16.878047530855106 L1664.9308333197844,-16.72891096721428 L1664.9693371653009,-16.577536575690445 L1665.0009675994177,-16.42428903045161 L1665.0256484216488,-16.26953751825716 L1665.0433201737317,-16.113654849054594 L1665.0539402828676,-15.957016557847739 L1665.0574831642834,-15.800000000000008 " />
			<path d="M789.4930582123678,-15.8 L789.4930582123678,66.8 " />
			<path d="M1665.0574831642837,-15.8 L1665.0574831642837,66.8 " />
			<path d="M786.5517941163099,70.0 L1662.1162190682257,70.0 " />
			<path d="M789.4930582123677,66.8 L789.4895153309518,66.95701655784774 L789.478895221816,67.1136548490546 L789.4612234697331,67.26953751825715 L789.4365426475019,67.4242890304516 L789.4049122133849,67.57753657569044 L789.3664083678685,67.72891096721428 L789.321123870089,67.8780475308551 L789.269167814368,68.02458698356828 L789.2106653673945,68.1681762989769 L789.1457574666877,68.3084695578432 L789.0746004810652,68.4451287814183 L788.9973658339385,68.57782474566272 L788.9142395903372,68.70623777437578 L788.825422008663,68.83005850932366 L788.7311270582501,68.94898865551046 L788.6315819038929,69.06274169979694 L788.5270263585875,69.17104360113586 L788.4177123058006,69.27363345076076 L788.3039030926601,69.37026410073805 L788.185872895529,69.46070275936815 L788.0639060594903,69.54473155200087 L787.938296413335,69.62214804591473 L787.809346561703,69.69276573799502 L787.6773671560815,69.75641450403612 L787.5426761464187,69.81294100858567 L787.4055980151542,69.86220907434307 L787.266462995513,69.90410001022254 L787.1256062759443,69.93851289729034 L786.983367192623,69.9653648318873 L786.8400884119595,69.98459112535103 L786.6961151050862,69.99614545985655 L786.5517941163099,70.0 " />
			<path d="M1665.0574831642834,66.8 L1665.0539402828676,66.95701655784774 L1665.0433201737317,67.1136548490546 L1665.0256484216488,67.26953751825715 L1665.0009675994177,67.4242890304516 L1664.9693371653009,67.57753657569044 L1664.9308333197844,67.72891096721428 L1664.885548822005,67.8780475308551 L1664.8335927662838,68.02458698356828 L1664.7750903193105,68.1681762989769 L1664.7101824186034,68.3084695578432 L1664.639025432981,68.4451287814183 L1664.5617907858543,68.57782474566272 L1664.478664542253,68.70623777437578 L1664.389846960579,68.83005850932366 L1664.295552010166,68.94898865551046 L1664.1960068558087,69.06274169979694 L1664.0914513105033,69.17104360113586 L1663.9821372577164,69.27363345076076 L1663.868328044576,69.37026410073805 L1663.7502978474447,69.46070275936815 L1663.628331011406,69.54473155200087 L1663.5027213652509,69.62214804591473 L1663.373771513619,69.69276573799502 L1663.2417921079973,69.75641450403612 L1663.1071010983344,69.81294100858567 L1662.97002296707,69.86220907434307 L1662.830887947429,69.90410001022254 L1662.6900312278601,69.93851289729034 L1662.5477921445388,69.9653648318873 L1662.4045133638754,69.98459112535103 L1662.2605400570021,69.99614545985655 L1662.1162190682257,70.0 " />
			<path d="M757.5068111677394,70.0 L786.55179411631,70.0 " />
			<path d="M1633.0712361196552,70.0 L1662.1162190682257,70.0 " />
			<path d="M1128.10608727102,-15.799999999999994 L1128.10608727102,66.8 " />
			<path d="M2003.670512222936,-15.799999999999994 L2003.670512222936,66.8 " />
			<path d="M1131.047351367078,70.0 L2006.6117763189939,70.0 " />
			<path d="M1131.047351367078,70.0 L1130.9030303783015,69.99614545985655 L1130.7590570714283,69.98459112535103 L1130.6157782907649,69.9653648318873 L1130.4735392074435,69.93851289729034 L1130.3326824878748,69.90410001022254 L1130.1935474682336,69.86220907434307 L1130.0564693369693,69.81294100858567 L1129.9217783273064,69.75641450403612 L1129.7897989216847,69.69276573799502 L1129.6608490700528,69.62214804591473 L1129.5352394238976,69.54473155200087 L1129.413272587859,69.46070275936815 L1129.2952423907277,69.37026410073807 L1129.1814331775872,69.27363345076076 L1129.0721191248003,69.17104360113586 L1128.967563579495,69.06274169979694 L1128.8680184251377,68.94898865551046 L1128.7737234747246,68.83005850932366 L1128.6849058930507,68.70623777437578 L1128.6017796494493,68.57782474566272 L1128.5245450023226,68.4451287814183 L1128.4533880167003,68.3084695578432 L1128.3884801159932,68.1681762989769 L1128.3299776690199,68.02458698356828 L1128.2780216132987,67.8780475308551 L1128.2327371155193,67.72891096721428 L1128.1942332700028,67.57753657569044 L1128.162602835886,67.4242890304516 L1128.1379220136548,67.26953751825715 L1128.120250261572,67.1136548490546 L1128.109630152436,66.95701655784774 L1128.1060872710202,66.80000000000003 " />
			<path d="M2006.6117763189939,70.0 L2006.4674553302175,69.99614545985655 L2006.3234820233442,69.98459112535103 L2006.1802032426808,69.9653648318873 L2006.0379641593595,69.93851289729034 L2005.8971074397907,69.90410001022254 L2005.7579724201496,69.86220907434307 L2005.6208942888852,69.81294100858567 L2005.4862032792223,69.75641450403612 L2005.3542238736006,69.69276573799502 L2005.2252740219687,69.62214804591473 L2005.0996643758135,69.54473155200087 L2004.977697539775,69.46070275936815 L2004.8596673426437,69.37026410073807 L2004.7458581295032,69.27363345076076 L2004.6365440767163,69.17104360113586 L2004.531988531411,69.06274169979694 L2004.4324433770537,68.94898865551046 L2004.3381484266406,68.83005850932366 L2004.2493308449666,68.70623777437578 L2004.1662046013653,68.57782474566272 L2004.0889699542386,68.4451287814183 L2004.0178129686162,68.3084695578432 L2003.9529050679091,68.1681762989769 L2003.8944026209358,68.02458698356828 L2003.8424465652147,67.8780475308551 L2003.7971620674352,67.72891096721428 L2003.7586582219187,67.57753657569044 L2003.727027787802,67.4242890304516 L2003.7023469655708,67.26953751825715 L2003.684675213488,67.1136548490546 L2003.674055104352,66.95701655784774 L2003.6705122229362,66.80000000000003 " />
			<path d="M1131.047351367078,-18.999999999999996 L1735.6616387868542,-18.999999999999996 " />
			<path d="M1128.1060872710202,-15.799999999999994 L1128.109630152436,-15.95701655784773 L1128.120250261572,-16.113654849054587 L1128.1379220136548,-16.26953751825715 L1128.162602835886,-16.424289030451604 L1128.1942332700028,-16.57753657569044 L1128.2327371155193,-16.728910967214276 L1128.2780216132987,-16.8780475308551 L1128.3299776690199,-17.02458698356828 L1128.3884801159932,-17.168176298976896 L1128.4533880167003,-17.308469557843186 L1128.5245450023226,-17.4451287814183 L1128.6017796494493,-17.57782474566272 L1128.6849058930507,-17.70623777437578 L1128.7737234747246,-17.830058509323656 L1128.8680184251377,-17.94898865551045 L1128.967563579495,-18.062741699796945 L1129.0721191248003,-18.171043601135864 L1129.1814331775872,-18.27363345076075 L1129.2952423907277,-18.37026410073806 L1129.413272587859,-18.46070275936814 L1129.5352394238976,-18.544731552000865 L1129.6608490700528,-18.622148045914727 L1129.7897989216847,-18.69276573799501 L1129.9217783273064,-18.756414504036112 L1130.0564693369693,-18.81294100858566 L1130.1935474682336,-18.862209074343063 L1130.3326824878748,-18.904100010222535 L1130.4735392074435,-18.93851289729033 L1130.6157782907649,-18.965364831887292 L1130.7590570714283,-18.984591125351024 L1130.9030303783015,-18.996145459856546 L1131.047351367078,-18.999999999999993 " />
			<path d="M2003.6705122229362,-15.799999999999994 L2003.6724581559379,-15.91638313812129 L2003.6782933800946,-16.032612278653843 L2003.6880101742665,-16.148533627777745 L2003.7015956812402,-16.263993798941154 L2003.7190319247402,-16.378840015820604 L2003.7402958332164,-16.492920314473885 L2003.7653592703705,-16.60608374441797 L2003.7941890723873,-16.71818056836593 L2003.8267470918167,-16.829062460358593 L2003.8629902480495,-16.938582702028686 L2003.9028705843218,-17.046596376737874 L2003.946335331171,-17.152960561329717 L2003.9933269762607,-17.257534515244878 L2004.0437833404806,-17.360179866748343 L2004.09763766022,-17.4607607960222 L2004.1548186757118,-17.55914421488175 L2004.215250725321,-17.65519994287714 L2004.2788538456605,-17.748800879547456 L2004.345543877398,-17.839823172599456 L2004.415232576616,-17.928146381788288 L2004.4878277315747,-18.013653638283422 L2004.5632332847263,-18.096231799308914 L2004.6413494598187,-18.17577159785335 L2004.7220728939178,-18.252167787251427 L2004.805296774178,-18.325319280445804 L2004.890910979175,-18.395129283744996 L2004.9788022246194,-18.46150542490031 L2005.068854213253,-18.52435987533234 L2005.1609477887325,-18.5836094663453 L2005.254961093298,-18.639175799175447 L2005.3507697290129,-18.690985348727907 L2005.4482469223674,-18.738969560864728 " />
			<path d="M1160.0923343156483,-18.999999999999996 L2035.6567592675642,-18.999999999999996 " />
			<path d="M1131.0473513670777,-18.999999999999996 L1160.0923343156483,-18.999999999999996 " />
			<path d="M1160.0923343156483,-18.999999999999993 L1160.2366553044246,-18.996145459856546 L1160.3806286112979,-18.984591125351024 L1160.5239073919613,-18.965364831887292 L1160.6661464752826,-18.93851289729033 L1160.8070031948514,-18.904100010222535 L1160.9461382144925,-18.862209074343063 L1161.083216345757,-18.81294100858566 L1161.2179073554198,-18.756414504036112 L1161.3498867610415,-18.69276573799501 L1161.4788366126734,-18.62214804591473 L1161.6044462588286,-18.544731552000865 L1161.7264130948672,-18.46070275936814 L1161.8444432919985,-18.37026410073806 L1161.958252505139,-18.27363345076075 L1162.0675665579258,-18.171043601135864 L1162.1721221032312,-18.062741699796945 L1162.2716672575884,-17.94898865551045 L1162.3659622080015,-17.83005850932366 L1162.4547797896755,-17.70623777437578 L1162.5379060332768,-17.57782474566272 L1162.6151406804036,-17.445128781418305 L1162.686297666026,-17.308469557843186 L1162.751205566733,-17.168176298976896 L1162.8097080137063,-17.02458698356828 L1162.8616640694274,-16.8780475308551 L1162.9069485672069,-16.728910967214272 L1162.9454524127234,-16.577536575690438 L1162.9770828468402,-16.424289030451604 L1163.0017636690714,-16.269537518257152 L1163.0194354211542,-16.113654849054587 L1163.0300555302902,-15.957016557847732 L1163.033598411706,-15.8 " />
			<path d="M2036.8831579183952,-18.708554898409076 L2036.9776559747872,-18.659154468823708 L2037.0704757612714,-18.60612133057822 L2037.1614993453447,-18.54952286511096 L2037.2506110766758,-18.489430983799192 L2037.337697734044,-18.425922036591835 L2037.4226486691944,-18.35907671500277 L2037.5053559474202,-18.28897994958796 L2037.5857144847012,-18.215720802036646 L2037.6636221812184,-18.139392352013676 L2037.738980051077,-18.060091578896856 L2037.811692348073,-17.977919238559426 L2037.8816666873445,-17.892979735354366 L2037.948814162751,-17.805380989463053 L2038.0130494598343,-17.715234299776924 L2038.074290964214,-17.622654202486267 L2038.1324608652837,-17.52775832555587 L2038.187485255073,-17.4306672392724 L2038.239294222152,-17.331504303053407 L2038.2878219404572,-17.23039550871259 L2038.3330067529275,-17.127469320380452 L2038.374791249842,-17.02285651128376 L2038.4131223417628,-16.916689997591156 L2038.4479513269875,-16.809104669536072 L2038.479233953428,-16.70023722003146 L2038.5069304748342,-16.590225970994148 L2038.5310057012946,-16.479210697599424 L2038.5514290439462,-16.36733245068924 L2038.5681745538402,-16.254733377559536 L2038.5812209549103,-16.141556541354518 L2038.5905516710068,-16.027945739297277 L2038.5961548469556,-15.914045319987727 L2038.598023363622,-15.8 " />
			<path d="M1163.0335984117062,-15.799999999999994 L1163.0335984117062,66.8 " />
			<path d="M2038.5980233636221,-15.799999999999994 L2038.5980233636221,66.8 " />
			<path d="M1160.0923343156483,70.0 L2035.6567592675642,70.0 " />
			<path d="M1163.033598411706,66.8 L1163.0300555302902,66.95701655784774 L1163.0194354211542,67.1136548490546 L1163.0017636690714,67.26953751825715 L1162.9770828468402,67.4242890304516 L1162.9454524127234,67.57753657569044 L1162.9069485672069,67.72891096721428 L1162.8616640694274,67.8780475308551 L1162.8097080137063,68.02458698356828 L1162.751205566733,68.1681762989769 L1162.686297666026,68.3084695578432 L1162.6151406804036,68.4451287814183 L1162.5379060332768,68.57782474566272 L1162.4547797896755,68.70623777437578 L1162.3659622080015,68.83005850932366 L1162.2716672575884,68.94898865551046 L1162.1721221032312,69.06274169979694 L1162.0675665579258,69.17104360113586 L1161.958252505139,69.27363345076076 L1161.8444432919985,69.37026410073805 L1161.7264130948672,69.46070275936815 L1161.6044462588286,69.54473155200087 L1161.4788366126734,69.62214804591473 L1161.3498867610415,69.69276573799502 L1161.2179073554198,69.75641450403612 L1161.083216345757,69.81294100858567 L1160.9461382144925,69.86220907434307 L1160.8070031948514,69.90410001022254 L1160.6661464752826,69.93851289729034 L1160.5239073919613,69.9653648318873 L1160.3806286112979,69.98459112535103 L1160.2366553044246,69.99614545985655 L1160.0923343156483,70.0 " />
			<path d="M2038.598023363622,66.8 L2038.594480482206,66.95701655784774 L2038.5838603730701,67.1136548490546 L2038.5661886209873,67.26953751825715 L2038.5415077987561,67.4242890304516 L2038.5098773646394,67.57753657569044 L2038.4713735191228,67.72891096721428 L2038.4260890213434,67.8780475308551 L2038.3741329656223,68.02458698356828 L2038.315630518649,68.1681762989769 L2038.2507226179418,68.3084695578432 L2038.1795656323195,68.4451287814183 L2038.1023309851928,68.57782474566272 L2038.0192047415915,68.70623777437578 L2037.9303871599175,68.83005850932366 L2037.8360922095044,68.94898865551046 L2037.7365470551472,69.06274169979694 L2037.6319915098418,69.17104360113586 L2037.522677457055,69.27363345076076 L2037.4088682439144,69.37026410073805 L2037.2908380467832,69.46070275936815 L2037.1688712107446,69.54473155200087 L2037.0432615645893,69.62214804591473 L2036.9143117129574,69.69276573799502 L2036.7823323073358,69.75641450403612 L2036.6476412976729,69.81294100858567 L2036.5105631664085,69.86220907434307 L2036.3714281467674,69.90410001022254 L2036.2305714271986,69.93851289729034 L2036.0883323438773,69.9653648318873 L2035.9450535632138,69.98459112535103 L2035.8010802563406,69.99614545985655 L2035.6567592675642,70.0 " />
			<path d="M1131.0473513670777,70.0 L1160.0923343156483,70.0 " />
			<path d="M2006.6117763189936,70.0 L2035.6567592675642,70.0 " />
			<path d="M1513.4115932984269,-15.799999967569072 L1513.41159329535,66.80000003243092 " />
			<path d="M2388.9757073506526,-15.799999967569093 L2388.9757073475757,66.8000000324309 " />
			<path d="M1586.4755888374596,70.00000003256062 L2391.9169716353426,70.00000003256059 " />
			<path d="M1516.3524379977343,69.99999999999999 L1516.2081306025818,69.99612376270295 L1516.0641718040895,69.98454918158096 L1515.9209083486353,69.96530413575027 L1515.7786853077596,69.93843497979297 L1515.6378452470074,69.90400643210492 L1515.498727400809,69.86210141901185 L1515.3616668553818,69.8128208750288 L1515.2269937416263,69.75628349974428 L1515.0950324399546,69.69262547191435 L1514.9661007989723,69.62200012145578 L1514.8405093698932,69.54457756012783 L1514.7185606585288,69.4605442717926 L1514.6005483966574,69.3701026632406 L1514.4867568345292,69.27347057666367 L1514.377460056204,69.1708807649493 L1514.272921319381,69.0625803310604 L1514.173392421302,68.94883013285067 L1514.0791130922596,68.82990415474939 L1513.9903104181715,68.70608884782864 L1513.90719829361,68.57768243984303 L1513.8299769066043,68.44499421690334 L1513.7588322564582,68.30834377851444 L1513.6939357057418,68.16806026777198 L1513.6354435675403,68.02448157857174 L1513.58349672895,67.87795354174155 L1513.53822031173,67.72882909205578 L1513.499723370928,67.57746741813891 L1513.468098632206,67.4242330973059 L1513.4434222684945,67.26949521742291 L1513.42575371652,67.1136264879038 L1513.4151355336426,66.95700234198354 L1513.4115932953498,66.80000003243096 " />
			<path d="M2391.9169716353426,70.0000000325606 L2391.7726506371537,69.99614549241079 L2391.6286773208913,69.98459115789892 L2391.4853985308837,69.96536486442888 L2391.3431594382864,69.93851292982563 L2391.2023027095324,69.90410004275164 L2391.0631676808184,69.86220910686603 L2390.926089540616,69.81294104110258 L2390.7913985221708,69.7564145365471 L2390.659419107944,69.69276577050017 L2390.5304692479044,69.6221480784142 L2390.4048595935596,69.5447315844948 L2390.28289274957,69.4607027918567 L2390.1648625447438,69.37026413322141 L2390.0510533241845,69.27363348323908 L2389.9417392642717,69.17104363360937 L2389.8371837121513,69.06274173226585 L2389.737638551306,68.94898868797497 L2389.643343594748,68.83005854178401 L2389.554526007286,68.70623780683222 L2389.4713997582676,68.5778247781155 L2389.3941651061086,68.44512881386767 L2389.3230081158504,68.30846959028942 L2389.2581002109155,68.16817633142027 L2389.199597760132,68.02458701600906 L2389.1476417010276,67.87804756329359 L2389.1023572003005,67.72891099965078 L2389.0638533522783,67.57753660812524 L2389.0322229161043,67.42428906288502 L2389.007542092269,67.26953755068948 L2388.9898703390395,67.11365488148613 L2388.9792502292166,66.95701659027881 L2388.9757073475757,66.80000003243094 " />
			<path d="M1516.3528575864323,-18.99999996743938 L2035.657178852924,-18.999999967439393 " />
			<path d="M1513.4115932984269,-15.799999967569066 L1513.4151361800796,-15.95701652541665 L1513.425756289914,-16.113654816623036 L1513.4434280431553,-16.269537485824824 L1513.4681088670018,-16.424288998018184 L1513.4997393031874,-16.577536543255626 L1513.5382431512207,-16.728910934777762 L1513.5835276519592,-16.87804749841659 L1513.6354837110741,-17.024586951127482 L1513.6939861618685,-17.168176266533514 L1513.758894066814,-17.308469525396944 L1513.8300510570823,-17.445128748968923 L1513.9072857092513,-17.577824713209935 L1513.9904119582789,-17.70623774191933 L1514.0792295457502,-17.830058476863293 L1514.1735245023174,-17.94898862304593 L1514.273069663171,-18.062741667328034 L1514.3776252152995,-18.17104356866234 L1514.4869392752198,-18.273633418282408 L1514.6007484957865,-18.370264068254695 L1514.718778700619,-18.460702726879575 L1514.8407455446154,-18.54473151950692 L1514.9663551989656,-18.62214801341525 L1515.0953050590103,-18.692765705489848 L1515.227284473242,-18.756414471525126 L1515.3619754916915,-18.812940976068734 L1515.4990536318978,-18.862209041820094 L1515.638188660615,-18.90409997769343 L1515.7790453893715,-18.938512864755015 L1515.9212844819706,-18.965364799345704 L1516.0645632719795,-18.984591092803118 L1516.208536588243,-18.99614542730229 L1516.352857586432,-18.999999967439376 " />
			<path d="M2388.9757073506526,-15.799999967569088 L2388.976951581347,-15.893068415575037 L2388.9806832207396,-15.986058122870746 L2388.986899111671,-16.078890415364786 L2388.995593995177,-16.171486752146766 L2389.0067605149366,-16.26376879193702 L2389.0203892234986,-16.355658459367348 L2389.036468590272,-16.447078011036815 L2389.0549850112825,-16.537950101286697 L2389.0759228206825,-16.628197847638862 L2389.0992643040045,-16.717744895842348 L2389.1249897131493,-16.806515484472992 L2389.1530772830924,-16.8944345090315 L2389.183503250301,-16.981427585485726 L2389.2162418728362,-17.06742111320341 L2389.2512654521333,-17.152342337222105 L2389.2885443564373,-17.236119409803642 L2389.3280470458712,-17.31868145122101 L2389.369740099121,-17.399958609726266 L2389.4135882417118,-17.479882120648725 L2389.4595543758523,-17.55838436457342 L2389.5075996118203,-17.635398924550607 L2389.557683300867,-17.71086064228794 L2389.6097630696067,-17.784705673277752 L2389.6637948558673,-17.856871540812797 L2389.7197329459686,-17.927297188844765 L2389.7775300134003,-17.995923033640864 L2389.83713715886,-18.062691014194723 L2389.898503951627,-18.127544641349 L2389.961578472227,-18.190429045588125 L2390.02630735636,-18.25129102346074 L2390.0926358400507,-18.310079082592576 L2390.160507805978,-18.36674348525163 " />
			<path d="M1516.3528575864323,-18.999999967439383 L1545.3978424293066,-18.99999996615868 " />
			<path d="M1545.3978424293066,-18.999999966158683 L2420.9619564815325,-18.999999966158704 " />
			<path d="M1545.3978424293066,-18.99999996615868 L1545.5421634274953,-18.99614542600887 L1545.6861367437582,-18.984591091497 L1545.8294155337655,-18.96536479802695 L1545.9716546263626,-18.938512863423718 L1546.1125113551166,-18.90409997634971 L1546.2516463838306,-18.8622090404641 L1546.3887245240335,-18.812940974700656 L1546.5234155424787,-18.756414470145167 L1546.6553949567055,-18.69276570409825 L1546.7843448167448,-18.622148012012282 L1546.9099544710893,-18.544731518092878 L1547.0319213150797,-18.460702725454773 L1547.1499515199052,-18.370264066819487 L1547.263760740465,-18.273633416837164 L1547.3730748003775,-18.171043567207455 L1547.4776303524977,-18.062741665863925 L1547.577175513343,-17.948988621573044 L1547.6714704699016,-17.830058475382092 L1547.7602880573636,-17.706237740430296 L1547.8434143063816,-17.57782471171357 L1547.9206489585406,-17.44512874746575 L1547.9918059487989,-17.308469523887496 L1548.0567138537338,-17.168176265018342 L1548.1152163045174,-17.024586949607148 L1548.1671723636214,-16.878047496891675 L1548.212456864349,-16.72891093324885 L1548.250960712371,-16.57753654172332 L1548.282591148545,-16.424288996483092 L1548.30727197238,-16.26953748428755 L1548.3249437256097,-16.113654815084207 L1548.3355638354324,-15.957016523876883 L1548.3391067170735,-15.799999966028997 " />
			<path d="M2422.756699778062,-18.335205232247493 L2422.822550538769,-18.278375964657243 L2422.88688187094,-18.219522765408946 L2422.9496412392773,-18.158693696157975 L2423.010777392207,-18.095938432126758 L2423.07024040373,-18.031308221538193 L2423.127981714197,-17.964855843764475 L2423.1839541699615,-17.89663556622557 L2423.2381120618866,-17.826703100072447 L2423.2904111626754,-17.75511555469136 L2423.3408087629873,-17.68193139106624 L2423.3892637063154,-17.607210374037336 L2423.4357364225966,-17.531013523495087 L2423.4801889605264,-17.453403064549054 L2423.522585018552,-17.37444237671266 L2423.562889974515,-17.29419594214517 L2423.601070913929,-17.212729292993227 L2423.6370966568547,-17.13010895787492 L2423.670937783364,-17.046402407550115 L2423.7025666575673,-16.961677999821376 L2423.73195745018,-16.876004923710514 L2423.759086159615,-16.78945314295632 L2423.783930631585,-16.702093338879635 L2423.8064705771944,-16.61399685266244 L2423.8266875895065,-16.52523562708804 L2423.844565158576,-16.435882147789997 L2423.860088684933,-16.346009384057723 L2423.8732454915025,-16.255690729247117 L2423.8840248339593,-16.164999940844897 L2423.8924179095025,-16.074011080235554 L2423.898417864042,-15.982798452220145 L2423.9020197977975,-15.891436544336303 L2423.9032207692994,-15.799999966029018 " />
			<path d="M1548.3391067170733,-15.799999966028984 L1548.3391067139964,66.800000033971 " />
			<path d="M2423.9032207692994,-15.79999996602901 L2423.9032207662226,66.80000003397099 " />
			<path d="M1586.4755901611172,70.00000003384132 L2420.961956478217,70.00000003384129 " />
			<path d="M1548.3391067139964,66.800000033971 L1548.3355639599401,66.95701376602862 L1548.3249442322808,67.11364925187563 L1548.3072731139507,67.26952915649713 L1548.2825931746886,67.42427796507404 L1548.250963868489,67.57752288759859 L1548.212461390376,67.72889475692574 L1548.1671784928517,67.87802891809717 L1548.1152242624535,68.02456610679535 L1548.0567238569654,68.16815331481156 L1547.9918182039125,68.30844464044301 L1547.9206636610668,68.4451021217703 L1547.8434316397809,68.57779655080796 L1547.7603081920577,68.70620826656672 L1547.6714935623513,68.83002792511721 L1547.5772017051786,68.94895724479962 L1547.477659769701,69.06270972478451 L1547.3731075525236,69.1710113352536 L1547.263796920024,69.27360117753773 L1547.149991201606,69.37023211262205 L1547.0319645553398,69.46067135650406 L1546.9100013075133,69.5447010409705 L1546.7843952676917,69.62211873844201 L1546.6554490209287,69.69273794962143 L1546.5234731988392,69.75638855277062 L1546.3887857312877,69.81291721353399 L1546.251711080495,69.86218775432104 L1546.112579459408,69.90408148235828 L1545.971726036217,69.93849747562025 L1545.8294901269348,69.96535282595073 L1545.6862143779847,69.98458283878857 L1545.5422439407641,69.99614118901695 L1545.3979256401753,70.00000003256062 " />
			<path d="M2423.9032207662226,66.80000003397097 L2423.89967788457,66.95701659181856 L2423.8890577747356,67.11365488302495 L2423.8713860214943,67.26953755222674 L2423.8467051976477,67.4242890644201 L2423.8150747614623,67.57753660965753 L2423.7765709134287,67.72891100117967 L2423.73128641269,67.8780475648185 L2423.679330353575,68.0245870175294 L2423.620827902781,68.16817633293543 L2423.5559199978356,68.30846959179885 L2423.4847630075674,68.44512881537084 L2423.4075283553984,68.57782477961184 L2423.3244021063706,68.70623780832123 L2423.2355845188995,68.83005854326521 L2423.141289562332,68.94898868944784 L2423.0417444014784,69.06274173372995 L2422.9371888493497,69.17104363506425 L2422.8278747894296,69.27363348468432 L2422.714065568863,69.37026413465661 L2422.5960353640307,69.46070279328148 L2422.474068520034,69.54473158590883 L2422.348458865684,69.62214807981715 L2422.219509005639,69.69276577189176 L2422.0875295914075,69.75641453792703 L2421.952838572958,69.81294104247064 L2421.8157604327516,69.862209108222 L2421.6766254040344,69.90410004409534 L2421.5357686752777,69.93851293115692 L2421.3935295826786,69.96536486574762 L2421.25025079267,69.98459115920502 L2421.1062774764064,69.9961454937042 L2420.9619564782174,70.00000003384129 " />
			<path d="M1516.352857583117,70.0000000325606 L1545.3978424259913,70.00000003384132 " />
			<path d="M2391.9169716353426,70.00000003256059 L2420.961956478217,70.0000000338413 " />

       </g>

       <!-- solid lines -->
       <g  stroke="rgb(0,0,0)" fill="none">
			<path d="M7.484466673004184,-66.8 L7.484466673004184,66.8 " />
			<path d="M1548.3391949952768,-66.8 L1548.3391949952768,-19.18124272402082 " />
			<path d="M6.223924917550848,70.0 L10.424475193400538,70.0 " />
			<path d="M915.0368016412618,70.0 L1516.35243799755,70.0 " />
			<path d="M6.223924917550848,70.0 L6.285776769883544,69.99614545985655 L6.347479615686388,69.98459112535103 L6.4088848073993105,69.9653648318873 L6.4698444145370155,69.93851289729034 L6.530211580066475,69.90410001022254 L6.5898408741983925,69.86220907434307 L6.648588644740293,69.81294100858567 L6.706313363167246,69.75641450403612 L6.762875965576471,69.69276573799502 L6.818140187704466,69.62214804591473 L6.871972893199549,69.54473155200087 L6.924244394358996,69.46070275936815 L6.974828764558071,69.37026410073807 L7.023604141618296,69.27363345076076 L7.070453021384116,69.17104360113586 L7.115262540800697,69.06274169979694 L7.157924749810913,68.94898865551046 L7.198336871416492,68.83005850932366 L7.236401549276801,68.70623777437578 L7.272027082248803,68.57782474566272 L7.305127645303141,68.4451287814183 L7.33562349628415,68.3084695578432 L7.363441168015694,68.1681762989769 L7.388513645290033,68.02458698356828 L7.4107805263133235,67.8780475308551 L7.430188168218831,67.72891096721428 L7.446689816297298,67.57753657569044 L7.460245716633128,67.4242890304516 L7.470823211875057,67.26953751825715 L7.478396819910568,67.1136548490546 L7.482948295254532,66.95701655784774 L7.484466673004184,66.80000000000003 " />
			<path d="M6.223924917550848,-70.0 L1547.0786532398233,-70.0 " />
			<path d="M7.484466673004184,-66.8 L7.482948295254532,-66.95701655784774 L7.478396819910568,-67.11365484905458 L7.470823211875058,-67.26953751825715 L7.460245716633128,-67.4242890304516 L7.446689816297298,-67.57753657569044 L7.430188168218832,-67.72891096721428 L7.4107805263133235,-67.8780475308551 L7.388513645290033,-68.02458698356828 L7.363441168015694,-68.1681762989769 L7.33562349628415,-68.3084695578432 L7.305127645303141,-68.4451287814183 L7.272027082248804,-68.57782474566272 L7.236401549276802,-68.70623777437578 L7.198336871416492,-68.83005850932366 L7.157924749810914,-68.94898865551045 L7.115262540800697,-69.06274169979694 L7.070453021384116,-69.17104360113586 L7.023604141618296,-69.27363345076076 L6.9748287645580715,-69.37026410073805 L6.924244394358997,-69.46070275936815 L6.871972893199549,-69.54473155200087 L6.818140187704466,-69.62214804591473 L6.762875965576471,-69.69276573799502 L6.706313363167247,-69.75641450403612 L6.648588644740295,-69.81294100858567 L6.589840874198394,-69.86220907434307 L6.530211580066477,-69.90410001022254 L6.4698444145370155,-69.93851289729034 L6.4088848073993105,-69.9653648318873 L6.347479615686388,-69.98459112535103 L6.285776769883544,-69.99614545985655 L6.2239249175508595,-70.0 " />
			<path d="M1548.3391949952766,-66.8 L1548.337676617527,-66.95701655784774 L1548.333125142183,-67.11365484905458 L1548.3255515341475,-67.26953751825715 L1548.3149740389056,-67.4242890304516 L1548.3014181385697,-67.57753657569044 L1548.2849164904912,-67.72891096721428 L1548.2655088485858,-67.8780475308551 L1548.2432419675624,-68.02458698356828 L1548.2181694902881,-68.1681762989769 L1548.1903518185566,-68.3084695578432 L1548.1598559675756,-68.4451287814183 L1548.1267554045212,-68.57782474566272 L1548.0911298715494,-68.70623777437578 L1548.053065193689,-68.83005850932366 L1548.0126530720834,-68.94898865551045 L1547.9699908630732,-69.06274169979694 L1547.9251813436565,-69.17104360113586 L1547.8783324638907,-69.27363345076076 L1547.8295570868306,-69.37026410073805 L1547.7789727166314,-69.46070275936815 L1547.726701215472,-69.54473155200087 L1547.672868509977,-69.62214804591473 L1547.617604287849,-69.69276573799502 L1547.5610416854397,-69.75641450403612 L1547.5033169670128,-69.81294100858567 L1547.4445691964709,-69.86220907434307 L1547.384939902339,-69.90410001022254 L1547.3245727368094,-69.93851289729034 L1547.2636131296717,-69.9653648318873 L1547.202207937959,-69.98459112535103 L1547.140505092156,-69.99614545985655 L1547.0786532398233,-70.0 " />
			<path d="M6.223924917550848,-70.0 L-6.223924917550848,-70.0 " />
			<path d="M-6.223924917550848,-70.0 L-6.285776769883544,-69.99614545985655 L-6.347479615686388,-69.98459112535103 L-6.4088848073993105,-69.9653648318873 L-6.469844414537015,-69.93851289729034 L-6.530211580066476,-69.90410001022254 L-6.589840874198393,-69.86220907434307 L-6.648588644740294,-69.81294100858567 L-6.706313363167246,-69.75641450403612 L-6.762875965576471,-69.69276573799502 L-6.818140187704466,-69.62214804591473 L-6.871972893199549,-69.54473155200087 L-6.924244394358997,-69.46070275936815 L-6.9748287645580715,-69.37026410073805 L-7.023604141618297,-69.27363345076076 L-7.070453021384116,-69.17104360113586 L-7.115262540800697,-69.06274169979694 L-7.157924749810913,-68.94898865551046 L-7.198336871416492,-68.83005850932366 L-7.236401549276801,-68.70623777437578 L-7.272027082248803,-68.57782474566272 L-7.305127645303141,-68.4451287814183 L-7.33562349628415,-68.3084695578432 L-7.363441168015694,-68.1681762989769 L-7.3885136452900335,-68.02458698356828 L-7.4107805263133235,-67.8780475308551 L-7.430188168218832,-67.72891096721428 L-7.446689816297298,-67.57753657569044 L-7.460245716633128,-67.4242890304516 L-7.470823211875057,-67.26953751825715 L-7.478396819910568,-67.1136548490546 L-7.482948295254532,-66.95701655784774 L-7.484466673004184,-66.80000000000001 " />
			<path d="M-7.484466673004184,-66.8 L-7.484466673004184,66.8 " />
			<path d="M-7.484466673004184,66.8 L-7.482948295254532,66.95701655784774 L-7.478396819910568,67.1136548490546 L-7.470823211875057,67.26953751825715 L-7.460245716633128,67.4242890304516 L-7.446689816297298,67.57753657569044 L-7.430188168218832,67.72891096721428 L-7.4107805263133235,67.8780475308551 L-7.3885136452900335,68.02458698356828 L-7.363441168015694,68.1681762989769 L-7.33562349628415,68.3084695578432 L-7.305127645303141,68.4451287814183 L-7.272027082248804,68.57782474566272 L-7.236401549276802,68.70623777437578 L-7.198336871416492,68.83005850932366 L-7.157924749810913,68.94898865551046 L-7.115262540800697,69.06274169979694 L-7.070453021384116,69.17104360113586 L-7.023604141618297,69.27363345076076 L-6.9748287645580715,69.37026410073805 L-6.924244394358997,69.46070275936815 L-6.871972893199549,69.54473155200087 L-6.818140187704466,69.62214804591473 L-6.762875965576471,69.69276573799502 L-6.706313363167246,69.75641450403612 L-6.648588644740294,69.81294100858567 L-6.589840874198393,69.86220907434307 L-6.530211580066476,69.90410001022254 L-6.4698444145370155,69.93851289729034 L-6.408884807399311,69.9653648318873 L-6.347479615686389,69.98459112535103 L-6.285776769883544,69.99614545985655 L-6.223924917550853,70.0 " />
			<path d="M6.223924917550848,70.0 L-6.223924917550848,70.0 " />
			<path d="M897.6319953487326,-16.625530311810635 L897.7012060507165,65.97370363646964 " />
			<path d="M2439.15357711401,-15.13404021077988 L2439.2227878159943,67.46519373750039 " />
			<path d="M896.4463227493878,69.18715838790528 L896.5080252892913,69.18264223393986 L896.5695727229182,69.17042795099383 L896.63081677711,69.15054496434463 L896.6916099095756,69.12304117384869 L896.7518056643344,69.08798283854631 L896.8112590245403,69.04545441703802 L896.8698267618413,68.99555836401626 L896.9273677814282,68.93841488344314 L896.9837434619449,68.87416163896856 L897.038817989439,68.80295342228635 L897.09245868455,68.72496178022762 L897.1445363221447,68.64037460148934 L897.194925442633,68.54939566399406 L897.2435046542099,68.45224414397101 L897.2901569252997,68.34915408794141 L897.3347698664951,68.24037384887984 L897.3772360013131,68.12616548791024 L897.4174530251154,68.00680414297764 L897.4553240515689,67.8825773660168 L897.490757846054,67.75378443021442 L897.5236690454559,67.62073560903377 L897.5539783638128,67.48375142873876 L897.5816127833219,67.34316189621813 L897.606505730246,67.19930570396991 L897.6285972352957,67.05252941416154 L897.6478340781005,66.90318662373124 L897.6641699154209,66.75163711254207 L897.6775653927939,66.59824597664063 L897.6879882393415,66.44338274870877 L897.6954133455131,66.28742050782704 L897.6998228235778,66.13073498069436 L897.7012060507167,65.97370363646968 " />
			<path d="M2437.967904514665,70.67864848893605 L2438.0296070545687,70.67413233497062 L2438.0911544881956,70.66191805202459 L2438.1523985423873,70.6420350653754 L2438.213191674853,70.61453127487945 L2438.273387429612,70.57947293957707 L2438.3328407898175,70.53694451806878 L2438.3914085271185,70.48704846504702 L2438.4489495467055,70.42990498447391 L2438.5053252272223,70.36565173999932 L2438.5603997547164,70.29444352331711 L2438.6140404498274,70.21645188125838 L2438.666118087422,70.1318647025201 L2438.7165072079106,70.04088576502483 L2438.7650864194875,69.94373424500178 L2438.811738690577,69.84064418897218 L2438.8563516317727,69.7318639499106 L2438.8988177665906,69.617655588941 L2438.9390347903927,69.4982942440084 L2438.9769058168463,69.37406746704757 L2439.0123396113313,69.24527453124519 L2439.0452508107333,69.11222571006454 L2439.0755601290903,68.97524152976952 L2439.1031945485993,68.8346519972489 L2439.1280874955232,68.69079580500068 L2439.150179000573,68.5440195151923 L2439.169415843378,68.39467672476201 L2439.185751680698,68.24312721357283 L2439.1991471580714,68.08973607767139 L2439.209570004619,67.93487284973953 L2439.2169951107903,67.7789106088578 L2439.221404588855,67.62222508172512 L2439.2227878159943,67.46519373750044 " />
			<path d="M897.6319953487327,-16.625530311810643 L897.6303582230563,-16.782070408520255 L897.625713126976,-16.938203293223832 L897.6180711855864,-17.093555024662436 L897.6074507014837,-17.247753532454205 L897.5938771109315,-17.400429508210074 L897.57738292294,-17.551217290034455 L897.5580076414066,-17.699755738292513 L897.5357976705025,-17.845689100546522 L897.5108062035349,-17.988667863589797 L897.4830930955475,-18.128349590537525 L897.4527247199663,-18.264399740969697 L897.4197738096344,-18.39649247216185 L897.3843192826153,-18.524311419484626 L897.3464460531823,-18.647550454103165 L897.3062448284476,-18.765914416161532 L897.263811891117,-18.87911982169625 L897.2192488688908,-18.986895541585838 L897.1726624910634,-19.08898345091026 L897.1241643329049,-19.185139047165077 L897.0738705484359,-19.275132035849644 L897.0219015922368,-19.358746882026853 L896.968381930956,-19.435783326533468 L896.9134397452108,-19.50605686560464 L896.8572066225917,-19.56939919276401 L896.799817242508,-19.625658601920907 L896.7414090536275,-19.674700350709383 L896.6821219446852,-19.716406983198763 L896.6220979094459,-19.75067861120284 L896.5614807066275,-19.77743315351403 L896.5004155155956,-19.7966065324894 L896.4390485886559,-19.8081528275179 L896.3775269007776,-19.812044385001073 " />
			<path d="M896.3775269007776,-19.812044385001073 L896.371749474853,-19.81201620527807 " />
			<path d="M2439.15357711401,-15.134040210779885 L2439.1519399883337,-15.2905803074895 L2439.1472948922533,-15.446713192193076 L2439.1396529508634,-15.602064923631678 L2439.1290324667607,-15.756263431423449 L2439.115458876209,-15.908939407179318 L2439.098964688217,-16.0597271890037 L2439.0795894066837,-16.208265637261757 L2439.0573794357797,-16.354198999515766 L2439.032387968812,-16.49717776255904 L2439.0046748608247,-16.63685948950677 L2438.9743064852437,-16.77290963993894 L2438.9413555749115,-16.905002371131093 L2438.9059010478923,-17.03282131845387 L2438.8680278184593,-17.15606035307241 L2438.8278265937247,-17.274424315130776 L2438.7853936563943,-17.387629720665494 L2438.740830634168,-17.495405440555082 L2438.6942442563404,-17.597493349879503 L2438.645746098182,-17.69364894613432 L2438.595452313713,-17.78364193481889 L2438.543483357514,-17.867256780996097 L2438.489963696233,-17.94429322550271 L2438.435021510488,-18.014566764573885 L2438.378788387869,-18.077909091733254 L2438.321399007785,-18.13416850089015 L2438.2629908189047,-18.183210249678627 L2438.203703709962,-18.224916882168007 L2438.143679674723,-18.259188510172084 L2438.0830624719047,-18.285943052483272 L2438.0219972808727,-18.305116431458643 L2437.960630353933,-18.316662726487145 L2437.899108666055,-18.320554283970317 " />
			<path d="M2437.899108666055,-18.320554283970317 L2437.8933312401305,-18.320526104247314 " />
			<path d="M896.3717494748531,-19.81201620527807 L883.9532991722605,-19.678857469060034 " />
			<path d="M883.9532991722604,-19.678857469060034 L883.8915966323569,-19.674341315094612 L883.83004919873,-19.662127032148575 L883.7688051445382,-19.64224404549939 L883.7080120120726,-19.614740255003433 L883.6478162573138,-19.579681919701063 L883.5883628971079,-19.537153498192765 L883.5297951598069,-19.487257445171007 L883.47225414022,-19.430113964597897 L883.4158784597033,-19.365860720123308 L883.3608039322091,-19.294652503441103 L883.3071632370982,-19.216660861382373 L883.2550855995034,-19.132073682644094 L883.2046964790152,-19.04109474514881 L883.1561172674383,-18.943943225125768 L883.1094649963485,-18.840853169096164 L883.0648520551531,-18.732072930034594 L883.0223859203351,-18.617864569064988 L882.9821688965328,-18.49850322413239 L882.9442978700793,-18.37427644717156 L882.9088640755942,-18.245483511369176 L882.8759528761923,-18.11243469018852 L882.8456435578354,-17.975450509893513 L882.8180091383263,-17.83486097737288 L882.7931161914022,-17.691004785124658 L882.7710246863525,-17.544228495316286 L882.7517878435477,-17.394885704885994 L882.7354520062273,-17.243336193696816 L882.7220565288543,-17.08994505779537 L882.7116336823067,-16.935081829863524 L882.7042085761351,-16.779119588981782 L882.6997990980703,-16.62243406184911 L882.6984158709315,-16.4654027176244 " />
			<path d="M882.7676265729153,66.13383123065589 L882.7692636985918,66.2903713273655 L882.773908794672,66.44650421206909 L882.7815507360617,66.60185594350769 L882.7921712201644,66.75605445129945 L882.8057448107165,66.90873042705532 L882.822238998708,67.05951820887971 L882.8416142802415,67.20805665713776 L882.8638242511456,67.35399001939177 L882.8888157181132,67.49696878243505 L882.9165288261006,67.63665050938278 L882.9468972016817,67.77270065981494 L882.9798481120137,67.9047933910071 L883.0153026390328,68.03261233832987 L883.0531758684658,68.15585137294842 L883.0933770932005,68.27421533500679 L883.135810030531,68.3874207405415 L883.1803730527573,68.49519646043109 L883.2269594305847,68.59728436975551 L883.2754575887432,68.69343996601033 L883.3257513732121,68.78343295469489 L883.3777203294113,68.8670478008721 L883.4312399906921,68.94408424537872 L883.4861821764373,69.0143577844499 L883.5424152990564,69.07770011160926 L883.5998046791401,69.13395952076615 L883.6582128680205,69.18300126955464 L883.7174999769629,69.22470790204402 L883.7775240122022,69.2589795300481 L883.8381412150205,69.28573407235928 L883.8992064060525,69.30490745133466 L883.9605733329922,69.31645374636315 L884.0220950208704,69.32034530384632 " />
			<path d="M884.0220950208704,69.32034530384632 L884.0278724467951,69.32031712412332 " />
			<path d="M2425.5378994255693,70.81179604538865 L2425.543676786148,70.81183540487709 " />
			<path d="M2425.543676786148,70.81183540487709 L2425.5494542120723,70.81180722515408 " />
			<path d="M896.4463227493877,69.18715838790528 L884.0278724467951,69.32031712412332 " />
			<path d="M2437.967904514665,70.67864848893603 L2425.5494542120723,70.81180722515407 " />
			<path d="M7.484503831187894,-15.79999969037419 L7.4845038609994905,66.8000003096258 " />
			<path d="M883.0492810291602,-15.799999804998684 L883.0492810589718,66.8000001950013 " />
			<path d="M10.425767740872741,70.00000030844001 L885.9905449388452,70.00000019381551 " />
			<path d="M10.42576774087274,70.00000030844001 L10.2814467627594,69.99614576835474 L10.137473466520577,69.98459143390727 L9.99419469643748,69.96536514050129 L9.851955623616982,69.93851320596168 L9.711098914444177,69.90410031895067 L9.571963905069053,69.8622093831273 L9.434885783915979,69.81294131742516 L9.300194784185441,69.7564148129299 L9.168215388293326,69.69276604694201 L9.039265546164373,69.62214835491372 L8.913655909262937,69.5447318610505 L8.791689082206421,69.46070306846694 L8.673658893764237,69.37026440988446 L8.559849688998563,69.27363375995303 L8.450535644252192,69.1710439103722 L8.345980106633695,69.06274200907545 L8.24643495959118,68.94898896482908 L8.152140016102997,68.83005881868031 L8.063322440947271,68.70623808376824 L7.980196203442049,68.5778250550887 L7.902961561974484,68.44512909087541 L7.831804581560828,68.30846986732898 L7.7668966855995105,68.16817660848886 L7.708394242897164,68.02458729310382 L7.656438190962464,67.8780478404116 L7.611153696475338,67.72891127678902 L7.572649853749454,67.57753688528071 L7.541019421914482,67.42428934005463 L7.516338601451208,67.26953782787012 L7.498666850617913,67.11365515867469 L7.4880467422102175,66.95701686747212 L7.484503860999487,66.80000030962583 " />
			<path d="M885.9905449388452,70.00000019381552 L885.8685537827615,69.99724662722787 L885.7467725709116,69.98899066619721 L885.6254108862219,69.97524651906033 L885.5046775896209,69.95603783920787 L885.3847804605946,69.9313976843773 L885.2659258396021,69.9013684597613 L885.1483182729676,69.86600184502926 L885.032160160861,69.82535870538767 L884.9176514089712,69.77950898683237 L884.8049890844723,69.72853159577294 L884.6943670768757,69.6725142632364 L884.5859757643495,69.61155339388397 L884.4800016860827,69.54575390010065 L884.3766272212541,69.47522902144321 L884.2760302751622,69.40010012975725 L884.1783839730533,69.32049652029873 " />
			<path d="M10.425767708751286,-18.99999969155999 L883.1835470006142,-18.999999805817005 " />
			<path d="M7.484503831187892,-15.799999690374186 L7.488046712285283,-15.957016248223354 L7.498666820579912,-16.113654539434492 L7.516338571300686,-16.269537208644177 L7.541019391652256,-16.42428872084858 L7.57264982337661,-16.577536266100168 L7.611153665993226,-16.728910657639524 L7.656438160372701,-16.878047221298605 L7.708394212201624,-17.024586674032733 L7.766896654800325,-17.168175989464935 L7.831804550660374,-17.308469248357394 L7.902961530975386,-17.445128471961198 L7.980196172347166,-17.577824436236757 L8.063322409759694,-17.70623746498333 L8.152139984826043,-17.830058199967016 L8.24643492822838,-17.948988346191825 L8.345980075188784,-18.06274139051845 L8.450535612729105,-18.17104329189952 L8.559849657401424,-18.273633141568478 L8.673658862097344,-18.370263791591668 L8.79168905047425,-18.460702450269334 L8.913655877470113,-18.544731242951237 L9.039265514315666,-18.62214773691574 L9.168215356393647,-18.69276542904801 L9.300194752239817,-18.75641419514232 L9.434885751929551,-18.812940699746168 L9.57196387304706,-18.862208765558833 L9.711098882391948,-18.904099701494403 L9.851955591539914,-18.938512588618984 L9.994194664341029,-18.96536452327329 L10.137473434410245,-18.984590816794785 L10.281446730640727,-18.996145151358352 L10.42576770875126,-18.999999691559985 " />
			<path d="M39.47074851109473,-18.999999703269776 L883.1835470045962,-18.999999813724372 " />
			<path d="M39.47074851109473,-18.999999703269772 L39.47095528292675,-18.999999695362437 " />
			<path d="M916.8099623330364,69.35206901119399 L916.7135888089359,69.42809807193296 L916.6144664391343,69.49982202893612 L916.5127575966108,69.56712339073694 L916.4086288912621,69.62989191054999 L916.3022508969775,69.68802476686692 L916.1937978722207,69.741426731889 L916.0834474745758,69.79001032752038 L915.9713804697254,69.8336959686665 L915.8577804353375,69.87241209360297 L915.742833460345,69.90609528120123 L915.626727840113,69.93469035481915 L915.5096537679905,69.95815047268621 L915.3918030237537,69.9764372046353 L915.2733686594505,69.98952059505545 L915.1545446831603,69.99737921196224 L915.0355257411885,70.00000018210574 " />
			<path d="M885.9905449388451,70.00000019381551 L915.0355257411885,70.00000018210574 " />
			<path d="M915.0366921625388,70.0 L1259.5306959203167,70.0 " />
			<path d="M1259.5306959203165,69.99999999999999 L1259.4481158539074,69.99873849781454 L1259.3656008968321,69.9949549858756 L1259.28321610709,69.98865244725098 L1259.201026440051,69.97983585110714 L1259.1190966972433,69.96851214879109 L1259.0374914752604,69.95469026834988 L1258.9562751148305,69.93838110749124 L1258.8755116500893,69.91959752499145 L1258.7952647580908,69.898354330557 L1258.7155977086038,69.87466827314802 L1258.6365733142268,69.84855802777275 L1258.558253880863,69.82004418076345 L1258.4807011585979,69.7891492135453 L1258.4039762930122,69.75589748491123 L1258.3281397769713,69.72031521181646 L1258.2532514029324,69.68243044870802 " />
			<path d="M383.96627096840064,-19.000000000000007 L883.1835470983947,-19.000000000000007 " />
			<path d="M383.96497957257526,-18.99999969155999 L383.96627096840064,-19.000000000000004 " />
			<path d="M1289.793239406326,69.71294677780172 L1289.7213948496174,69.7472416149473 L1289.6487351078688,69.77943946879688 L1289.5753118790014,69.80951743034926 L1289.501177404163,69.83745409892164 L1289.4263844305578,69.86322959737635 L1289.3509861739167,69.88682558626354 L1289.2750362806332,69.90822527686993 L1289.198588789595,69.92741344316396 L1289.1216980937338,69.94437643262935 L1289.0444189013247,69.95910217597888 L1288.9668061970604,69.9715801957418 L1288.88891520293,69.9818016137186 L1288.8108013389283,69.98975915729795 L1288.7325201836227,69.99544716463122 L1288.6541274346102,69.99886158866086 L1288.5756788688873,69.99999999999999 " />
			<path d="M1259.5306959203167,70.0 L1288.5756788688873,70.0 " />
			<path d="M1735.6616387868542,-18.999999999999996 L2006.6117763189939,-18.999999999999996 " />
			<path d="M2005.4482469223674,-18.73896956086474 L2005.5172814629802,-18.770194450410663 L2005.5870231612762,-18.799500284956867 L2005.6574269568534,-18.826868129881642 L2005.7284473615266,-18.852280302706447 L2005.8000384887168,-18.875720384520623 L2005.8721540830984,-18.89717323058973 L2005.9447475504858,-18.91662498014061 L2006.0177719879373,-18.9340630653169 L2006.0911802140602,-18.949476219299164 L2006.1649247994937,-18.962854483584454 L2006.2389580975544,-18.974189214420516 L2006.3132322750198,-18.98347308839057 L2006.3876993430351,-18.990700107144995 L2006.4623111881174,-18.99586560127689 L2006.537019603243,-18.998966233338983 L2006.6117763189939,-18.999999999999993 " />
			<path d="M2006.6117763189936,-18.999999999999996 L2035.6567592675642,-18.999999999999996 " />
			<path d="M2035.6567592675642,-18.999999999999993 L2035.7358148888038,-18.998843898646605 L2035.8148133873492,-18.9953764299429 L2035.893697681781,-18.98960009935467 L2035.9724107731997,-18.98151908064667 L2036.0508957864101,-18.971139212866817 L2036.1290960110186,-18.9584679961271 L2036.2069549424098,-18.94351458618429 L2036.284416322573,-18.9262897878243 L2036.3614241807545,-18.906806047055063 L2036.4379228738985,-18.885077442113506 L2036.5138571268535,-18.861119673293118 L2036.5891720723118,-18.83495005159949 L2036.6638132904538,-18.806587486242037 L2036.737726848272,-18.776052470970882 L2036.810859338538,-18.74336706926882 L2036.8831579183952,-18.708554898409076 " />
			<path d="M1516.352857583117,70.00000003256062 L1586.4755888374596,70.00000003256062 " />
			<path d="M1516.3528575831167,70.00000003256062 L1516.3524379977343,69.99999999999999 " />
			<path d="M2035.657178852924,-18.999999967439393 L2391.916971638658,-18.9999999674394 " />
			<path d="M2390.160507805978,-18.366743485251646 L2390.256253069937,-18.441106813904536 L2390.354654968211,-18.511245191256247 L2390.455556088301,-18.577046417670083 L2390.5587950197287,-18.638405231604832 L2390.664206612244,-18.695223478000575 L2390.771622240012,-18.747410265296317 L2390.8808700713657,-18.79488211082826 L2390.9917753436775,-18.83756307437619 L2391.104160642932,-18.87538487964424 L2391.217846187528,-18.908287023481762 L2391.3326501158754,-18.936216872669625 L2391.448388777318,-18.959129748117004 L2391.5648770259168,-18.976988996334068 L2391.6819285166252,-18.989766048066194 L2391.799356003384,-18.997440463995893 L2391.9169716386577,-18.999999967439397 " />
			<path d="M2391.916971638658,-18.999999967439404 L2420.9619564815325,-18.9999999661587 " />
			<path d="M2420.9619564815325,-18.9999999661587 L2421.082570752098,-18.997308233222466 L2421.2029821092856,-18.98923756281576 L2421.322987981086,-18.975801532494398 L2421.442386477651,-18.957022746136683 L2421.5609767309397,-18.932932795916138 L2421.678559232646,-18.903572209152962 L2421.794936169837,-18.868990380133564 L2421.909911757742,-18.829245487012937 L2422.0232925691257,-18.78440439393961 L2422.1348878596978,-18.734542538567883 L2422.24450988901,-18.679743805146572 L2422.3519742362946,-18.620100383397755 L2422.4571001107265,-18.55571261342295 L2422.5597106555683,-18.48668881689765 L2422.6596332457066,-18.413145114838187 L2422.756699778062,-18.335205232247496 " />
			<path d="M1545.3978424259913,70.00000003384132 L1586.4755901611172,70.00000003384132 " />
			<path d="M1545.3979256401753,70.00000003256062 L1545.3978424259913,70.00000003384132 " />
			<path d="M7.484466673004184,-66.8 L1548.3391949952766,-66.8 " />
			<path d="M7.484466673004184,66.8 L7.4845038609994905,66.8 " />
			<path d="M897.6319953487327,-16.625530311810643 L2439.1535771140097,-15.134040210779888 " />
			<path d="M897.7012060507166,65.97370363646965 L2439.222787815994,67.4651937375004 " />
			<path d="M896.4463227493877,69.18715838790528 L2437.967904514665,70.67864848893603 " />
			<path d="M896.3833042613551,-19.81200502551264 L2437.8933312401305,-18.320526104247314 " />
			<path d="M884.0278724467952,69.32031712412332 L2425.5494542120723,70.81180722515407 " />
			<path d="M7.484503831187895,-15.79999969037419 L883.0492810291604,-15.799999804998684 " />
			<path d="M7.48450386099949,66.8000003096258 L882.7957622501608,66.8000001950345 " />
			<path d="M39.47074851109473,-18.999999703269776 L883.1835470045962,-18.999999813724372 " />
			<path d="M2437.8991086660553,-18.320554283970317 L896.3775269007778,-19.812044385001073 " />
			<path d="M2425.5436767861484,70.81183540487707 L884.0220950208706,69.32034530384632 " />

       </g>
    </g>
    
</svg>
