<?xml version="1.0" encoding="UTF-8" standalone="no"?>
<svg
   xmlns:svg="http://www.w3.org/2000/svg"
   xmlns="http://www.w3.org/2000/svg"
   width="480.0"
   height="480.0"

>
    <g transform="scale(0.15386592849380176, -0.15386592849380176)   translate(1708.316027281293,-140.62432840365614)" stroke-width="1.0"  fill="none">
       <!-- hidden lines -->
       <g  stroke="rgb(0,0,0)" fill="none" stroke-dasharray="1.0,1.0" >
			<path d="M-1642.5482669960616,22.28380531999941 L-1610.1455074912074,37.88714070129891 " />
			<path d="M-1609.3693934910912,41.437600249139514 L-1609.3731306921352,41.124426931991025 L-1609.3843063039785,40.810670395997846 L-1609.4028126993696,40.499352288118374 L-1609.4284716516045,40.19347077191527 L-1609.4610360509464,39.89597165360142 L-1609.479812308686,39.75126474525635 L-1609.500192284428,39.60972001231575 L-1609.5221268810265,39.471678448439135 L-1609.5455632561163,39.3374726078449 L-1609.5704449494174,39.20742580415807 L-1609.5967120187513,39.081851331519495 L-1609.6243011844472,38.96105170983277 L-1609.6531459817882,38.845317955967346 L-1609.6831769211312,38.734928882673366 L-1609.714321655313,38.63015042689733 L-1609.746505153941,38.53123500911671 L-1609.7796498841476,38.43842092523692 L-1609.8136759973752,38.35193177251556 L-1609.8485015217364,38.27197591089711 L-1609.8840425594926,38.1987459610555 L-1609.920213489171,38.13241834035409 L-1609.9569271718337,38.07315283784077 L-1609.9940951610035,38.021092229302134 L-1610.031627915739,37.97636193330412 L-1610.0694350163462,37.9390697090477 L-1610.1074253822087,37.90930539676752 L-1610.1455074912074,37.88714070129891 " />
			<path d="M-1609.954464045025,75.60502366504406 L-1609.9235572341652,75.58498139391514 L-1609.8930292264301,75.55956141327029 L-1609.8629321240564,75.52880710746159 L-1609.8333172938526,75.49277096494885 L-1609.8042352795323,75.45151448871735 L-1609.7757357154508,75.40510809131055 L-1609.7478672418938,75.35363097465678 L-1609.7206774220633,75.2971709948951 L-1609.6942126609008,75.23582451243097 L-1609.668518125888,75.16969622747771 L-1609.6436376699603,75.09889900136434 L-1609.6196137566608,75.02355366391481 L-1609.59648738767,74.94378880722739 L-1609.5742980328266,74.85974056620624 L-1609.5328801842788,74.6793747782809 L-1609.4956428422063,74.48368709794327 L-1609.4628401104467,74.27401287803437 L-1609.4346958315073,74.05178291411966 L-1609.411402059087,73.81851368088553 L-1609.3931177475215,73.57579698387019 L-1609.3799676670942,73.32528909714443 L-1609.3720415526175,73.06869946106579 L-1609.3693934910912,72.80777901723118 " />
			<path d="M-1609.3693934910912,41.437600249139514 L-1609.3693934910912,72.80777901723118 " />
			<path d="M-1630.033860320953,-2216.6088749331093 L-1609.9289675769473,-2207.309609594018 " />
			<path d="M-1609.1499449422179,-2203.7709812900052 L-1609.1537092525116,-2204.084250417147 L-1609.164938370297,-2204.3979721122623 L-1609.1835241530316,-2204.70912506393 L-1609.2092876094675,-2205.014712699132 L-1609.2419806234354,-2205.31179204189 L-1609.2608298515845,-2205.456243068958 L-1609.2812883433392,-2205.5975020557325 L-1609.3033068124005,-2205.7352286969417 L-1609.326832214348,-2205.8690911970425 L-1609.3518078744282,-2205.9987670695477 L-1609.3781736240878,-2206.1239439139226 L-1609.405865945927,-2206.244320168184 L-1609.4348181267164,-2206.3596058353924 L-1609.4649604181168,-2206.4695231822775 L-1609.4962202047084,-2206.573807408323 L-1609.5285221789268,-2206.6722072836938 L-1609.561788522487,-2206.764485754472 L-1609.5959390938535,-2206.8504205137383 L-1609.6308916213086,-2206.9298045371306 L-1609.6665619011524,-2207.002446581584 L-1609.7028640005562,-2207.06817164605 L-1609.739710464583,-2207.1268213930916 L-1609.7770125268732,-2207.1782545303313 L-1609.8146803234922,-2207.2223471508364 L-1609.852623109418,-2207.2589930316217 L-1609.890749477156,-2207.288103889551 L-1609.9289675769473,-2207.309609594018 " />
			<path d="M-4.048519428003976,-2226.3031330508825 L16.056373316001533,-2217.0038677117914 " />
			<path d="M-1629.5323815100687,-2178.6345957048884 L-1609.9272980543333,-2169.5665108674666 " />
			<path d="M-1609.9272980543333,-2169.5665108674666 L-1609.9039508635824,-2169.5571401240163 L-1609.8806247818395,-2169.5506342728368 L-1609.8573407727893,-2169.546999160886 L-1609.8341197623042,-2169.546238055122 " />
			<path d="M-1609.8341197623042,-2169.546238055122 L-1609.7991676166655,-2169.550547735766 L-1609.7644791135244,-2169.5614228971117 L-1609.7301255500686,-2169.578841186841 L-1609.6961775350655,-2169.602766804186 L-1609.6627048437367,-2169.6331505735106 L-1609.6297762743447,-2169.669930045383 L-1609.5974595067887,-2169.713029624932 L-1609.5658209634976,-2169.7623607272235 L-1609.5349256729085,-2169.81782195933 L-1609.504837135811,-2169.879299328733 L-1609.475617194829,-2169.946666477615 L-1609.447325907314,-2170.0197849425717 L-1609.4200214219045,-2170.098504439202 L-1609.3937598590103,-2170.182663170997 L-1609.3685951954653,-2170.2720881618884 L-1609.3445791535862,-2170.3665956117766 L-1609.3217610948639,-2170.4659912743045 L-1609.3001879185088,-2170.570070856102 L-1609.2799039650565,-2170.6786204366836 L-1609.2609509252316,-2170.791416908128 L-1609.227190591796,-2171.028814924091 L-1609.1991843334588,-2171.280314158102 L-1609.1771622831177,-2171.5438479918084 L-1609.1613054002642,-2171.8172509161996 L-1609.151743984003,-2172.098276326019 L-1609.14855660236,-2172.384614980557 " />
			<path d="M-1609.1499449422179,-2203.7709812900052 L-1609.14855660236,-2172.384614980557 " />
			<path d="M13.872999937356447,-10.592984457578055 L14.127289041831753,-10.60200021352627 L14.37450705750906,-10.61351882012355 L14.612957463351622,-10.627461231518996 L14.841003905598466,-10.64373176862478 L15.057081427158716,-10.662218775709 L15.259707207049878,-10.682795386627463 L15.447490736181305,-10.705320395436122 L15.619143359651954,-10.729639225409684 L15.77348712007902,-10.755584989816512 L15.909462841270436,-10.782979637170305 L16.026137396767528,-10.811635173099365 L16.12271011337781,-10.841354950448387 L16.163245660866917,-10.856550442453084 L16.198518265753947,-10.871935018759547 L16.228467387948452,-10.887482274069841 L16.253041624312715,-10.903165523872122 L16.27219879688747,-10.918957850240583 L16.28590602528398,-10.934832148035984 L16.294139783118258,-10.950761171427532 L16.29688593839053,-10.966717580656226 " />
			<path d="M16.29688593839053,-10.966717580656228 L16.292919076149893,-10.985893417428453 L16.281028330880037,-11.005021710463247 " />
			<path d="M13.872628119608223,-2217.1276678331838 L14.126917224083527,-2217.136683589132 L14.374135239760834,-2217.1482021957295 L14.612585645603396,-2217.162144607125 L14.840632087850242,-2217.1784151442307 L15.05670960941049,-2217.196902151315 L15.259335389301654,-2217.2174787622334 L15.447118918433077,-2217.240003771042 L15.618771541903728,-2217.2643226010155 L15.773115302330794,-2217.2902683654224 L15.909091023522208,-2217.3176630127764 L16.025765579019303,-2217.3463185487053 L16.122338295629582,-2217.376038326054 L16.162873843118692,-2217.391233818059 L16.198146448005723,-2217.4066183943655 L16.228095570200225,-2217.4221656496757 L16.252669806564487,-2217.437848899478 L16.27182697913924,-2217.4536412258467 L16.285534207535754,-2217.469515523642 L16.29376796537003,-2217.4854445470332 L16.296514120642307,-2217.501400956262 " />
			<path d="M16.296514120642307,-2217.501400956262 L16.295013872513724,-2217.5131959016085 L16.290514538816467,-2217.5249797868737 L16.283020338368047,-2217.536741562852 L16.272538298134275,-2217.54847020107 L16.242652804755405,-2217.5717841159944 L16.20097012139497,-2217.5948341106186 " />
			<path d="M-3.832100659163325,-20.707123055744525 L-3.8739222213175544,-20.725348699478786 L-3.9231219380894617,-20.743305346089258 L-3.9795812830519575,-20.760949736441432 L-4.043164240697772,-20.778239363653483 L-4.1910714939923395,-20.81158867475119 L-4.3654192702696095,-20.843032107285907 L-4.564528505135843,-20.872266843813605 L-4.786481667815098,-20.89901133784019 L-5.02914122801883,-20.923008025268153 L-5.290170241531072,-20.94402580487964 L-5.5670548562587285,-20.96186226396751 L-5.857128522001439,-20.97634562768034 L-6.157597670787709,-20.98733641330817 L-6.465568620461582,-20.994728773577226 L-6.778075442423654,-20.99845151601704 L-7.092108525144824,-20.998468788582866 L-7.404643558370541,-20.994780424930443 L-7.712670658881783,-20.987421946018014 " />
			<path d="M-3.8324724769115526,-2227.2418064313506 L-3.874294039065782,-2227.260032075085 L-3.9234937558376894,-2227.2779887216952 L-3.979953100800185,-2227.295633112047 L-4.043536058446,-2227.3129227392596 L-4.191443311740567,-2227.346272050357 L-4.365791088017837,-2227.3777154828917 L-4.56490032288407,-2227.4069502194197 L-4.786853485563325,-2227.433694713446 L-5.029513045767057,-2227.457691400874 L-5.2905420592793,-2227.4787091804856 L-5.567426674006956,-2227.4965456395735 L-5.8575003397496666,-2227.5110290032862 L-6.157969488535937,-2227.522019788914 L-6.46594043820981,-2227.5294121491834 L-6.778447260171881,-2227.533134891623 L-7.092480342893052,-2227.533152164189 L-7.405015376118769,-2227.529463800536 L-7.713042476630011,-2227.522105321624 " />
			<path d="M-7.712670658881812,-20.98742194601802 L-38.369173666313884,-20.064764221910263 " />
			<path d="M-38.369173666313884,-20.064764221910256 L-38.62346277078919,-20.05574846596204 L-38.870680786466494,-20.044229859364762 L-39.10913119230906,-20.030287447969314 L-39.33717763455591,-20.014016910863532 L-39.55325515611615,-19.99552990377931 L-39.755880936007316,-19.97495329286085 L-39.94366446513874,-19.95242828405219 L-40.11531708860939,-19.928109454078626 L-40.269660849036455,-19.9021636896718 L-40.40563657022787,-19.874769042318004 L-40.52231112572497,-19.846113506388946 L-40.618883842335244,-19.816393729039923 L-40.65941938982436,-19.801198237035226 L-40.694691994711384,-19.785813660728763 L-40.724641116905886,-19.77026640541847 L-40.74921535327015,-19.75458315561619 L-40.7683725258449,-19.738790829247726 L-40.782079754241416,-19.722916531452327 L-40.79031351207569,-19.706987508060777 L-40.79305966734797,-19.691031098832084 " />
			<path d="M-40.79305966734797,-19.69103109883208 L-40.79155941921939,-19.67923615348558 L-40.78706008552213,-19.667452268220458 L-40.77956588507371,-19.655690492241963 L-40.76908384483994,-19.643961854024486 L-40.73919835146107,-19.62064793909964 L-40.69751566810063,-19.5975979444757 " />
			<path d="M-38.36954548406211,-2226.5994475975167 L-38.62383458853741,-2226.5904318415683 L-38.87105260421472,-2226.578913234971 L-39.10950301005728,-2226.5649708235755 L-39.33754945230413,-2226.5487002864697 L-39.553626973864375,-2226.5302132793854 L-39.75625275375554,-2226.509636668467 L-39.94403628288696,-2226.4871116596582 L-40.11568890635761,-2226.462792829685 L-40.27003266678468,-2226.436847065278 L-40.406008387976094,-2226.409452417924 L-40.52268294347319,-2226.380796881995 L-40.61925566008347,-2226.3510771046463 L-40.65979120757258,-2226.3358816126415 L-40.69506381245961,-2226.320497036335 L-40.72501293465411,-2226.304949781025 L-40.749587171018376,-2226.2892665312224 L-40.76874434359313,-2226.2734742048538 L-40.78245157198964,-2226.2575999070586 L-40.790685329823916,-2226.241670883667 L-40.79343148509619,-2226.2257144744385 " />
			<path d="M-40.79343148509619,-2226.2257144744385 L-40.79193123696761,-2226.213919529092 L-40.78743190327035,-2226.2021356438268 L-40.77993770282193,-2226.1903738678484 L-40.769455662588165,-2226.1786452296305 L-40.73957016920929,-2226.155331314706 L-40.69788748584885,-2226.132281320082 " />
			<path d="M-40.69751566810063,-19.59759794447571 L-20.664073069794107,-9.950625623743788 " />
			<path d="M-40.69788748584885,-2226.132281320082 L-20.66444488754233,-2216.48530899935 " />
			<path d="M-20.66407306979411,-9.950625623743786 L-20.62225150763988,-9.932399980009523 L-20.57305179086797,-9.914443333399054 L-20.516592445905477,-9.89679894304688 L-20.45300948825966,-9.879509315834826 L-20.305102234965094,-9.846160004737122 L-20.130754458687825,-9.814716572202403 L-19.93164522382159,-9.785481835674705 L-19.709692061142338,-9.758737341648121 L-19.467032500938604,-9.73474065422016 L-19.20600348742636,-9.71372287460867 L-18.92911887269871,-9.695886415520802 L-18.639045206956,-9.681403051807969 L-18.338576058169725,-9.67041226618014 L-18.030605108495852,-9.663019905911085 L-17.718098286533777,-9.659297163471269 L-17.40406520381261,-9.659279890905447 L-17.091530170586896,-9.66296825455787 L-16.783503070075632,-9.670326733470297 " />
			<path d="M-20.664444887542338,-2216.48530899935 L-20.62262332538811,-2216.4670833556156 L-20.5734236086162,-2216.449126709005 L-20.516964263653705,-2216.4314823186533 L-20.45338130600789,-2216.414192691441 L-20.305474052713322,-2216.3808433803433 L-20.131126276436053,-2216.3493999478087 L-19.932017041569818,-2216.3201652112807 L-19.710063878890566,-2216.2934207172543 L-19.46740431868683,-2216.2694240298265 L-19.20637530517459,-2216.248406250215 L-18.929490690446936,-2216.230569791127 L-18.639417024704223,-2216.216086427414 L-18.338947875917953,-2216.2050956417866 L-18.03097692624408,-2216.197703281517 L-17.718470104282005,-2216.1939805390775 L-17.404437021560838,-2216.1939632665117 L-17.091901988335124,-2216.1976516301643 L-16.78387488782386,-2216.2050101090763 " />
			<path d="M13.872999937356447,-10.592984457578053 L-16.783503070075625,-9.670326733470295 " />
			<path d="M13.872628119608219,-2217.127667833184 L-16.783874887823853,-2216.2050101090763 " />
			<path d="M-398.09797493463685,-8.84111143985313 L-378.0645323066357,0.805860884213776 " />
			<path d="M-398.09797493463685,-2215.3758059916677 L-378.0645323066357,-2205.7288336676006 " />
			<path d="M-380.39287430698454,1.2730266141928035 L-380.1385852064482,1.264010903727228 L-379.8913671944706,1.2524923423775243 L-379.6529167920101,1.2385499756816185 L-379.4248703527536,1.2222794824176133 L-379.2087928337227,1.203792518013069 L-379.0061670558364,1.1832159483153444 L-378.81838352812815,1.1606909789812094 L-378.64673090544926,1.1363721864602516 L-378.4923871451403,1.1104264572218985 L-378.3564114233596,1.0830318425055596 L-378.23973686654074,1.0543763364531074 L-378.14316414786043,1.0246565860086951 L-378.10262859905333,1.0094611062812975 L-378.0673559926596,0.9940765414391657 L-378.0374068687703,0.978529296759739 L-378.01283263052454,0.9628460567357788 L-377.9936754558835,0.9470537392754759 L-377.97996822523834,0.9311794495019339 L-377.9717344649763,0.9152504332313274 L-377.9689883071008,0.8992940302095835 " />
			<path d="M-377.9689883071008,0.8992940302095818 L-377.9704885534948,0.8874990876784842 L-377.9749878859649,0.8757152047223866 L-377.98248208569385,0.8639534305462343 L-377.9929641257155,0.852224793624587 L-378.0228496201851,0.8289108797748895 L-378.0645323066357,0.805860884213778 " />
			<path d="M-380.39287430698454,-2205.2616679376215 L-380.1385852064482,-2205.270683648087 L-379.8913671944706,-2205.282202209437 L-379.6529167920101,-2205.296144576133 L-379.4248703527536,-2205.312415069397 L-379.2087928337227,-2205.3309020338015 L-379.0061670558364,-2205.351478603499 L-378.81838352812815,-2205.3740035728333 L-378.64673090544926,-2205.398322365354 L-378.4923871451403,-2205.4242680945927 L-378.3564114233596,-2205.451662709309 L-378.23973686654074,-2205.4803182153614 L-378.14316414786043,-2205.5100379658056 L-378.10262859905333,-2205.525233445533 L-378.0673559926596,-2205.5406180103755 L-378.0374068687703,-2205.5561652550546 L-378.01283263052454,-2205.5718484950785 L-377.9936754558835,-2205.587640812539 L-377.97996822523834,-2205.6035151023125 L-377.9717344649763,-2205.619444118583 L-377.9689883071008,-2205.635400521605 " />
			<path d="M-377.9689883071008,-2205.635400521605 L-377.9704885534948,-2205.647195464136 L-377.9749878859649,-2205.658979347092 L-377.98248208569385,-2205.6707411212683 L-377.9929641257155,-2205.6824697581897 L-378.0228496201851,-2205.7057836720396 L-378.0645323066357,-2205.7288336676006 " />
			<path d="M-398.09797493463685,-8.841111439853131 L-398.13979649684717,-8.859337084253324 L-398.1889962136744,-8.8772937328473 L-398.24545555869116,-8.894938126495774 L-398.3090385163902,-8.912227758308985 L-398.4569457697874,-8.945577082476115 L-398.6312935461615,-8.977020533126364 L-398.8304027811177,-9.00625529264123 L-399.05235594387926,-9.032999814305242 L-399.2950155041569,-9.056996533754733 L-399.5560445177338,-9.07801434946346 L-399.83292913251637,-9.095850848376644 L-400.1230027983037,-9.110334255259328 L-400.4234719471238,-9.121325086985797 L-400.73144289682045,-9.128717495838323 L-401.04394971879395,-9.132440288878557 L-401.35798280151516,-9.132457613574436 L-401.67051783472954,-9.128769303079666 L-401.97854493521817,-9.12141087784055 " />
			<path d="M-401.97854493521817,-9.121410877840548 L-432.6350479398107,-8.198758561131969 " />
			<path d="M-432.6350479398107,-8.198758561131969 L-432.889337040347,-8.189742850666395 L-433.13655505232464,-8.17822428931669 L-433.37500545478514,-8.164281922620784 L-433.60305189404164,-8.14801142935678 L-433.8191294130725,-8.129524464952235 L-434.02175519095886,-8.108947895254511 L-434.2095387186671,-8.086422925920376 L-434.381191341346,-8.062104133399417 L-434.53553510165494,-8.036158404161064 L-434.67151082343565,-8.008763789444727 L-434.7881853802545,-7.980108283392274 L-434.8847580989348,-7.950388532947861 L-434.9252936477419,-7.9351930532204635 L-434.96056625413564,-7.919808488378332 L-434.99051537802495,-7.9042612436989055 L-435.0150896162707,-7.888578003674945 L-435.03424679091177,-7.872785686214642 L-435.0479540215569,-7.8569113964411 L-435.05618778181895,-7.840982380170494 L-435.05893393969444,-7.825025977148751 " />
			<path d="M-435.05893393969444,-7.825025977148748 L-435.0574336933004,-7.81323103461765 L-435.05293436083036,-7.801447151661553 L-435.0454401611014,-7.789685377485401 L-435.03495812107974,-7.777956740563753 L-435.0050726266101,-7.754642826714056 L-434.9633899401595,-7.731592831152943 " />
			<path d="M-435.05893393969444,-2214.359720528963 L-435.0574336933004,-2214.3479255864318 L-435.05293436083036,-2214.3361417034757 L-435.0454401611014,-2214.3243799292995 L-435.03495812107974,-2214.312651292378 L-435.0050726266101,-2214.289337378528 L-434.9633899401595,-2214.266287382967 " />
			<path d="M-434.9633899401595,-7.731592831152942 L-414.9299473121584,1.9153794929139645 " />
			<path d="M-434.9633899401595,-2214.266287382967 L-414.9299473121584,-2204.6193150589 " />
			<path d="M-414.9299473121584,1.9153794929139658 L-414.8881257499481,1.9336051373141585 L-414.83892603312086,1.9515617859081322 L-414.7824666881041,1.9692061795566076 L-414.718883730405,1.986495811369819 L-414.57097647700783,2.019845135536949 L-414.39662870063376,2.0512885861871974 L-414.19751946567754,2.0805233457020647 L-413.975566302916,2.1072678673660765 L-413.73290674263836,2.131264586815566 L-413.4718777290614,2.152282402524294 L-413.1949931142789,2.170118901437478 L-412.90491944849157,2.1846023083201622 L-412.60445029967144,2.195593140046631 L-412.2964793499748,2.2029855488991577 L-411.9839725280013,2.206708341939392 L-411.6699394452801,2.20672566663527 L-411.3574044120657,2.2030373561405 L-411.0493773115771,2.195678930901382 " />
			<path d="M-414.9299473121584,-2204.6193150589006 L-414.8881257499481,-2204.6010894145 L-414.83892603312086,-2204.583132765906 L-414.7824666881041,-2204.5654883722577 L-414.718883730405,-2204.5481987404446 L-414.57097647700783,-2204.5148494162777 L-414.39662870063376,-2204.4834059656273 L-414.19751946567754,-2204.4541712061123 L-413.975566302916,-2204.4274266844486 L-413.73290674263836,-2204.403429964999 L-413.4718777290614,-2204.3824121492903 L-413.1949931142789,-2204.364575650377 L-412.90491944849157,-2204.350092243494 L-412.60445029967144,-2204.339101411768 L-412.2964793499748,-2204.3317090029154 L-411.9839725280013,-2204.3279862098752 L-411.6699394452801,-2204.3279688851794 L-411.3574044120657,-2204.331657195674 L-411.0493773115771,-2204.339015620913 " />
			<path d="M-380.39287430698454,1.2730266141928015 L-411.0493773115771,2.19567893090138 " />
			<path d="M-380.39287430698454,-2205.261667937622 L-411.0493773115771,-2204.339015620913 " />
			<path d="M-792.3638869936996,3.0248981016141103 L-772.3304443656986,12.671870425681018 " />
			<path d="M-792.3638869936996,-2203.5097964502 L-772.3304443656986,-2193.862824126133 " />
			<path d="M-774.6587863660474,13.139036155660046 L-774.4044972655112,13.130020445194472 L-774.1572792535335,13.118501883844766 L-773.918828851073,13.10455951714886 L-773.6907824118165,13.088289023884856 L-773.4747048927856,13.069802059480311 L-773.2720791148993,13.049225489782588 L-773.084295587191,13.026700520448452 L-772.9126429645121,13.002381727927494 L-772.7582992042031,12.97643599868914 L-772.6223234824224,12.949041383972803 L-772.5056489256036,12.92038587792035 L-772.4090762069234,12.890666127475939 L-772.3685406581162,12.87547064774854 L-772.3332680517225,12.860086082906408 L-772.3033189278332,12.844538838226981 L-772.2787446895874,12.828855598203022 L-772.2595875149464,12.813063280742718 L-772.2458802843012,12.797188990969177 L-772.2376465240392,12.78125997469857 L-772.2349003661636,12.765303571676826 " />
			<path d="M-772.2349003661636,12.765303571676824 L-772.2364006125576,12.753508629145728 L-772.2408999450278,12.741724746189629 L-772.2483941447567,12.729962972013476 L-772.2588761847784,12.718234335091829 L-772.2887616792481,12.694920421242132 L-772.3304443656986,12.671870425681021 " />
			<path d="M-774.6587863660474,-2193.395658396154 L-774.2477066154897,-2193.411649048249 L-773.8582641582161,-2193.4341597541224 L-773.6738939828275,-2193.447736369313 L-773.4975568084296,-2193.4627802431305 L-773.3300570141037,-2193.4792227514886 L-773.1721586663666,-2193.4969888902947 L-773.0245820338081,-2193.515997617588 L-772.888000301515,-2193.5361622232194 L-772.7630365002734,-2193.55739072439 L-772.6502606645524,-2193.579586285238 L-772.5501872322376,-2193.6026476585644 L-772.4632726979721,-2193.626469647684 L-772.389913530813,-2193.65094358629 L-772.3304443656986,-2193.6759578341416 " />
			<path d="M-792.3638869936997,3.0248981016141108 L-792.40570855591,3.0066724572139183 L-792.4549082727372,2.9887158086199443 L-792.511367617754,2.971071414971469 L-792.5749505754529,2.9537817831582576 L-792.7228578288502,2.9204324589911277 L-792.8972056052243,2.888989008340879 L-793.0963148401805,2.859754248826012 L-793.3182680029421,2.8330097271620005 L-793.5609275632197,2.8090130077125104 L-793.8219565767967,2.7879951920037827 L-794.0988411915791,2.7701586930905986 L-794.3889148573664,2.7556752862079144 L-794.6893840061865,2.7446844544814457 L-794.9973549558832,2.7372920456289185 L-795.3098617778568,2.7335692525886848 L-795.6238948605779,2.7335519278928064 L-795.9364298937924,2.7372402383875767 L-796.2444569942809,2.7445986636266935 " />
			<path d="M-796.244456994281,2.7445986636266966 L-826.9009599988734,3.6672509803352753 " />
			<path d="M-826.9009599988734,3.6672509803352695 L-827.1552490994096,3.676266690800845 L-827.4024671113873,3.6877852521505488 L-827.6409175138477,3.7017276188464545 L-827.8689639531043,3.7179981121104597 L-828.0850414721352,3.7364850765150037 L-828.2876672500215,3.7570616462127284 L-828.4754507777297,3.7795866155468634 L-828.6471034004087,3.803905408067821 L-828.8014471607177,3.8298511373061745 L-828.9374228824984,3.8572457520225134 L-829.0540974393172,3.8859012580749654 L-829.1506701579974,3.915621008519378 L-829.1912057068046,3.9308164882467755 L-829.2264783131983,3.9462010530889073 L-829.2564274370876,3.961748297768334 L-829.2810016753334,3.9774315377922944 L-829.3001588499744,3.993223855252597 L-829.3138660806196,4.009098145026139 L-829.3220998408816,4.025027161296745 L-829.3248459987572,4.040983564318488 " />
			<path d="M-829.3248459987572,4.040983564318491 L-829.3233457523631,4.052778506849589 L-829.318846419893,4.064562389805686 L-829.311352220164,4.076324163981838 L-829.3008701801424,4.088052800903486 L-829.2709846856727,4.111366714753183 L-829.2293019992221,4.134416710314296 " />
			<path d="M-829.3248459987572,-2202.493710987496 L-829.3233457523631,-2202.4819160449647 L-829.318846419893,-2202.4701321620087 L-829.311352220164,-2202.4583703878325 L-829.3008701801424,-2202.446641750911 L-829.2709846856727,-2202.423327837061 L-829.2293019992221,-2202.4002778415 " />
			<path d="M-829.2293019992222,4.134416710314299 L-809.1958593712212,13.781389034381206 " />
			<path d="M-829.2293019992222,-2202.4002778415 L-809.1958593712212,-2192.753305517433 " />
			<path d="M-809.1958593712211,13.781389034381208 L-809.1540378090108,13.799614678781401 L-809.1048380921836,13.817571327375376 L-809.0483787471668,13.83521572102385 L-808.9847957894679,13.852505352837062 L-808.8368885360705,13.885854677004192 L-808.6625407596965,13.91729812765444 L-808.4634315247403,13.946532887169306 L-808.2414783619787,13.973277408833319 L-807.9988188017011,13.99727412828281 L-807.7377897881241,14.018291943991537 L-807.4609051733416,14.03612844290472 L-807.1708315075543,14.050611849787405 L-806.8703623587343,14.061602681513873 L-806.5623914090376,14.0689950903664 L-806.249884587064,14.072717883406634 L-805.9358515043428,14.072735208102513 L-805.6233164711284,14.069046897607743 L-805.3152893706398,14.061688472368624 " />
			<path d="M-809.1958593712211,-2192.753305517433 L-809.1540378090108,-2192.7350798730326 L-809.1048380921836,-2192.7171232244386 L-809.0483787471668,-2192.69947883079 L-808.9847957894679,-2192.682189198977 L-808.8368885360705,-2192.64883987481 L-808.6625407596965,-2192.61739642416 L-808.4634315247403,-2192.5881616646448 L-808.2414783619787,-2192.561417142981 L-807.9988188017011,-2192.5374204235313 L-807.7377897881241,-2192.516402607823 L-807.4609051733416,-2192.4985661089095 L-807.1708315075543,-2192.4840827020266 L-806.8703623587343,-2192.4730918703003 L-806.5623914090376,-2192.465699461448 L-806.249884587064,-2192.4619766684077 L-805.9358515043428,-2192.461959343712 L-805.6233164711284,-2192.4656476542064 L-805.3152893706398,-2192.4730060794454 " />
			<path d="M-774.6587863660474,13.139036155660044 L-805.3152893706398,14.061688472368623 " />
			<path d="M-774.6587863660474,-2193.3956583961544 L-805.3152893706398,-2192.4730060794454 " />
			<path d="M-1186.629799052762,14.890907643081345 L-1166.596356424761,24.537879967148253 " />
			<path d="M-1168.9246984251101,25.00504569712728 L-1168.6704093245737,24.996029986661704 L-1168.4231913125961,24.984511425312 L-1168.1847409101356,24.970569058616093 L-1167.9566944708793,24.954298565352087 L-1167.7406169518483,24.935811600947545 L-1167.537991173962,24.915235031249818 L-1167.3502076462537,24.892710061915682 L-1167.1785550235747,24.868391269394728 L-1167.024211263266,24.842445540156373 L-1166.888235541485,24.815050925440033 L-1166.7715609846664,24.78639541938758 L-1166.674988265986,24.75667566894317 L-1166.6344527171789,24.74148018921577 L-1166.599180110785,24.72609562437364 L-1166.569230986896,24.710548379694213 L-1166.5446567486501,24.694865139670252 L-1166.525499574009,24.67907282220995 L-1166.5117923433638,24.663198532436407 L-1166.5035585831017,24.647269516165803 L-1166.5008124252263,24.631313113144056 " />
			<path d="M-1166.5008124252263,24.631313113144056 L-1166.5023126716203,24.61951817061296 L-1166.5068120040903,24.60773428765686 L-1166.5143062038194,24.59597251348071 L-1166.524788243841,24.58424387655906 L-1166.5546737383106,24.560929962709363 L-1166.5963564247613,24.537879967148253 " />
			<path d="M-1168.9246984251101,-2181.529648854687 L-1168.5136186745524,-2181.5456395067818 L-1168.1241762172788,-2181.5681502126554 L-1167.93980604189,-2181.581726827846 L-1167.763468867492,-2181.5967707016634 L-1167.595969073166,-2181.6132132100215 L-1167.438070725429,-2181.6309793488276 L-1167.2904940928706,-2181.6499880761207 L-1167.1539123605776,-2181.6701526817524 L-1167.028948559336,-2181.691381182923 L-1166.9161727236149,-2181.713576743771 L-1166.8160992913001,-2181.7366381170973 L-1166.7291847570348,-2181.7604601062176 L-1166.6558255898756,-2181.784934044823 L-1166.596356424761,-2181.8099482926746 " />
			<path d="M-1186.6297990527626,14.890907643081343 L-1186.6716206149729,14.87268199868115 L-1186.7208203318,14.854725350087175 L-1186.7772796768168,14.837080956438701 L-1186.8408626345158,14.81979132462549 L-1186.9887698879131,14.78644200045836 L-1187.1631176642873,14.75499854980811 L-1187.3622268992433,14.725763790293245 L-1187.5841800620049,14.699019268629232 L-1187.8268396222825,14.675022549179742 L-1188.0878686358594,14.654004733471014 L-1188.364753250642,14.63616823455783 L-1188.6548269164293,14.621684827675146 L-1188.9552960652495,14.610693995948678 L-1189.263267014946,14.603301587096151 L-1189.5757738369196,14.599578794055917 L-1189.889806919641,14.599561469360038 L-1190.2023419528552,14.603249779854808 L-1190.5103690533438,14.610608205093925 " />
			<path d="M-1190.5103690533435,14.610608205093929 L-1221.1668720579362,15.533260521802507 " />
			<path d="M-1221.166872057936,15.533260521802505 L-1221.4211611584724,15.54227623226808 L-1221.66837917045,15.553794793617785 L-1221.9068295729105,15.56773716031369 L-1222.1348760121668,15.584007653577695 L-1222.3509535311978,15.60249461798224 L-1222.5535793090842,15.623071187679964 L-1222.7413628367924,15.645596157014099 L-1222.9130154594714,15.669914949535057 L-1223.0673592197802,15.69586067877341 L-1223.203334941561,15.723255293489748 L-1223.3200094983797,15.751910799542202 L-1223.41658221706,15.781630549986613 L-1223.4571177658672,15.79682602971401 L-1223.492390372261,15.812210594556143 L-1223.5223394961502,15.82775783923557 L-1223.546913734396,15.843441079259529 L-1223.566070909037,15.859233396719832 L-1223.5797781396823,15.875107686493374 L-1223.5880118999444,15.891036702763982 L-1223.5907580578198,15.906993105785723 " />
			<path d="M-1223.5907580578198,15.906993105785727 L-1223.5892578114258,15.918788048316824 L-1223.5847584789558,15.930571931272922 L-1223.5772642792267,15.942333705449075 L-1223.5667822392052,15.954062342370722 L-1223.5368967447355,15.977376256220419 L-1223.4952140582848,16.000426251781533 " />
			<path d="M-1223.4952140582848,16.00042625178153 L-1203.4617714302838,25.647398575848438 " />
			<path d="M-1223.4952140582848,-2190.534268300033 L-1203.4617714302838,-2180.887295975966 " />
			<path d="M-1203.4617714302835,25.64739857584844 L-1203.4199498680732,25.665624220248635 L-1203.370750151246,25.683580868842608 L-1203.3142908062293,25.701225262491082 L-1203.2507078485303,25.718514894304292 L-1203.102800595133,25.75186421847142 L-1202.928452818759,25.783307669121672 L-1202.7293435838028,25.81254242863654 L-1202.5073904210412,25.83928695030055 L-1202.2647308607636,25.86328366975004 L-1202.0037018471867,25.884301485458767 L-1201.726817232404,25.902137984371954 L-1201.4367435666168,25.916621391254637 L-1201.1362744177966,25.927612222981104 L-1200.8283034681,25.935004631833632 L-1200.5157966461265,25.938727424873868 L-1200.2017635634052,25.938744749569743 L-1199.8892285301908,25.935056439074973 L-1199.5812014297023,25.927698013835858 " />
			<path d="M-1203.4617714302835,-2180.887295975966 L-1203.4199498680732,-2180.8690703315656 L-1203.370750151246,-2180.8511136829716 L-1203.3142908062293,-2180.833469289323 L-1203.2507078485303,-2180.81617965751 L-1203.102800595133,-2180.782830333343 L-1202.928452818759,-2180.7513868826927 L-1202.7293435838028,-2180.7221521231777 L-1202.5073904210412,-2180.695407601514 L-1202.2647308607636,-2180.6714108820643 L-1202.0037018471867,-2180.6503930663557 L-1201.726817232404,-2180.6325565674424 L-1201.4367435666168,-2180.6180731605596 L-1201.1362744177966,-2180.6070823288333 L-1200.8283034681,-2180.599689919981 L-1200.5157966461265,-2180.5959671269406 L-1200.2017635634052,-2180.595949802245 L-1199.8892285301908,-2180.5996381127393 L-1199.5812014297023,-2180.6069965379784 " />
			<path d="M-1168.92469842511,25.005045697127276 L-1199.5812014297026,25.927698013835855 " />
			<path d="M-1168.92469842511,-2181.5296488546874 L-1199.5812014297026,-2180.6069965379784 " />
			<path d="M-1593.3134407274513,27.130649802243227 L-1573.2799980962025,36.77762212621239 " />
			<path d="M-1575.6083400963937,37.244787372770915 L-1575.354050999258,37.2357717024563 L-1575.1068329904674,37.224253181049754 L-1574.8683825909125,37.210310853812956 L-1574.6403361542154,37.194040399250646 L-1574.4242586373387,37.17555347252177 L-1574.2216328611457,37.1549769392117 L-1574.0338493346212,37.13245200472369 L-1573.8621967125732,37.10813324526401 L-1573.7078529523062,37.08218754707068 L-1573.5718772299497,37.05479296116527 L-1573.4552026719157,37.02613748148684 L-1573.3586299513677,36.996417754793235 L-1573.3180944013802,36.981222285904146 L-1573.2828217936415,36.96583773118279 L-1573.2528726682438,36.95029049588852 L-1573.2282984283268,36.93460726449726 L-1573.209141251854,36.91881495490166 L-1573.1954340192183,36.9029406722106 L-1573.18720025681,36.887011662227344 L-1573.1844540966358,36.871055264686305 " />
			<path d="M-1573.1844540966358,36.871055264686305 L-1573.1859543414955,36.85926032465831 L-1573.190453672872,36.84747644375837 L-1573.1979478719486,36.835714671191106 L-1573.2084299117585,36.82398603543119 L-1573.2383154071213,36.800672122566006 L-1573.2799980962022,36.7776221262124 " />
			<path d="M-1575.6080119468818,-2169.289917055158 L-1575.1969322096604,-2169.305907641498 L-1574.8074897640477,-2169.328418282383 L-1574.6231195936448,-2169.341994865746 L-1574.4467824235633,-2169.35703870838 L-1574.2792826328111,-2169.373481186346 L-1574.1213842878383,-2169.391247295694 L-1573.9738076571741,-2169.4102559946036 L-1573.837225925852,-2169.4304205730614 L-1573.7122621246122,-2169.4516490483975 L-1573.599486287886,-2169.473844584875 L-1573.4994128535297,-2169.496905935413 L-1573.412498316165,-2169.520727903437 L-1573.3391391448372,-2169.545201822743 L-1573.2796699744808,-2169.5702160531864 " />
			<path d="M-1593.313440727451,27.13064980224323 L-1593.3552622896675,27.112424157260925 L-1593.4044620065008,27.09446750692165 L-1593.4609213515234,27.07682311036889 L-1593.5245043092284,27.059533474499396 L-1593.6724115626369,27.026184138805583 L-1593.8467593390214,26.99474067217354 L-1594.0458685739875,26.96550589237568 L-1594.2678217367582,26.938761346322817 L-1594.5104812970437,26.914764598613488 L-1594.7715103106277,26.8937467510461 L-1595.0483949254165,26.875910216982245 L-1595.3384685912085,26.8614267719954 L-1595.6389377400324,26.850435899578248 L-1595.9469086897316,26.843043447840387 L-1596.2594155117063,26.839320610133175 L-1596.5734485944274,26.839303239418843 L-1596.8859836276406,26.84299150298687 L-1597.1940107281268,26.85034988084288 " />
			<path d="M-1597.1940107281268,26.85034988084288 L-1627.8505137324084,27.772997423811372 " />
			<path d="M-1627.8505137324084,27.77299742381138 L-1628.104802829544,27.782013094126 L-1628.3520208383347,27.793531615532547 L-1628.5904712378897,27.80747394276934 L-1628.8185176745867,27.82374439733165 L-1629.0345951914635,27.84223132406053 L-1629.2372209676564,27.862807857370598 L-1629.425004494181,27.88533279185861 L-1629.596657116229,27.909651551318294 L-1629.751000876496,27.935597249511616 L-1629.8869765988525,27.96299183541703 L-1630.0036511568865,27.99164731509546 L-1630.1002238774345,28.021367041789063 L-1630.140759427422,28.036562510678152 L-1630.1760320351607,28.051947065399506 L-1630.2059811605584,28.06749430069378 L-1630.2305554004754,28.08317753208504 L-1630.2497125769482,28.098969841680635 L-1630.2634198095839,28.1148441243717 L-1630.2716535719921,28.13077313435495 L-1630.2743997321663,28.14672953189599 " />
			<path d="M-1630.2743997321663,28.146729531895993 L-1630.2728994873066,28.158524471923986 L-1630.26840015593,28.170308352823934 L-1630.2609059568535,28.182070125391196 L-1630.2504239170437,28.193798761151104 L-1630.2205384216809,28.217112674016292 L-1630.1788557326,28.2401626703699 " />
			<path d="M-1630.1788557326,28.24016267036989 L-1610.145413101351,37.88713499433906 " />
			<path d="M-1630.178527583088,-2178.2945417575593 L-1610.1450849518392,-2168.6475694335904 " />
			<path d="M-1610.145413101351,37.88713499433905 L-1610.1035915391346,37.90536063932135 L-1610.0543918223013,37.92331728966062 L-1609.9979324772787,37.94096168621339 L-1609.9343495195737,37.95825132208288 L-1609.7864422661653,37.991600657776694 L-1609.6120944897807,38.023044124408734 L-1609.4129852548147,38.052278904206595 L-1609.191032092044,38.07902345025946 L-1608.9483725317584,38.10302019796879 L-1608.6873435181744,38.124038045536174 L-1608.4104589033857,38.14187457960003 L-1608.1203852375936,38.15635802458687 L-1607.8199160887698,38.167348897004025 L-1607.5119451390706,38.17474134874189 L-1607.1994383170959,38.178464186449105 L-1606.8854052343747,38.17848155716343 L-1606.5728702011615,38.17479329359541 L-1606.2648431006753,38.16743491573939 " />
			<path d="M-1610.1450849518392,-2168.64756943359 L-1610.1032633896227,-2168.629343788608 L-1610.0540636727894,-2168.6113871382686 L-1609.9976043277668,-2168.5937427417157 L-1609.9340213700618,-2168.576453105846 L-1609.7861141166534,-2168.5431037701524 L-1609.6117663402688,-2168.5116603035203 L-1609.4126571053027,-2168.4824255237227 L-1609.190703942532,-2168.4556809776695 L-1608.9480443822465,-2168.4316842299604 L-1608.6870153686625,-2168.410666382393 L-1608.4101307538738,-2168.3928298483293 L-1608.1200570880817,-2168.378346403342 L-1607.8195879392579,-2168.367355530925 L-1607.5116169895587,-2168.3599630791873 L-1607.199110167584,-2168.35624024148 L-1606.8850770848628,-2168.3562228707656 L-1606.5725420516496,-2168.3599111343337 L-1606.2645149511634,-2168.36726951219 " />
			<path d="M-1575.608340096394,37.244787372770915 L-1606.2648431006755,38.167434915739406 " />
			<path d="M-1575.608011946882,-2169.289917055158 L-1606.2645149511636,-2168.3672695121895 " />
			<path d="M-1609.834119762305,-2169.5462380551216 L-1574.9549893218673,-2170.5638213102648 " />
			<path d="M-1223.5907580578196,-2180.8147178686277 L-1167.537560482725,-2182.450045198449 " />
			<path d="M-829.3248459987572,-2192.3172520522194 L-772.5599535585055,-2193.9733427660017 " />
			<path d="M-435.05893393969444,-2203.819786235811 L-378.0645323066357,-2205.482572779121 " />
			<path d="M-40.793429647790006,-2215.322308522975 L16.14955160803061,-2216.9835948994464 " />
			<path d="M16.296514120642307,-2217.501400956262 L16.296514197105203,-2217.0476355432143 " />
			<path d="M16.29688593446492,-10.990013942546154 L16.296885938390535,-10.966717580656228 " />
			<path d="M-40.79306072170851,-25.948083398944092 L-40.79305966734797,-19.691031098832084 " />
			<path d="M-377.9689883071008,-2205.635400521605 L-377.9689883071008,-2205.4853602331896 " />
			<path d="M-377.9689883071008,-15.800280478355887 L-377.9689883071008,0.8992940302095818 " />
			<path d="M-435.05893393969444,-14.0820750264559 L-435.05893393969444,-7.825025977148748 " />
			<path d="M-772.2349003661637,-3.9342709368886446 L-772.2349003661637,12.765303571676824 " />
			<path d="M-829.3248459987572,-2.216065484988661 L-829.3248459987572,4.040983564318491 " />
			<path d="M-1166.5008124252265,7.9317386045785945 L-1166.5008124252265,24.631313113144056 " />
			<path d="M-1223.5907580578196,9.64994405647856 L-1223.5907580578196,15.90699310578572 " />
			<path d="M-1573.1844516131227,20.171477814493556 L-1573.184454096636,36.871055264686305 " />
			<path d="M-1630.2743988016364,21.889683313221234 L-1630.2743997321663,28.146729531895996 " />

       </g>

       <!-- solid lines -->
       <g  stroke="rgb(0,0,0)" fill="none">
			<path d="M-16.201379752427037,-26.663484038552966 L16.201379752427044,-11.060148657253464 " />
			<path d="M16.977493752543307,-7.50968910941286 L16.97375655149921,-7.822862426561353 L16.962580939655947,-8.136618962554529 L16.94407454426477,-8.447937070434001 L16.91841559202992,-8.753818586637102 L16.885851192688037,-9.051317704950952 L16.867074934948516,-9.196024613296027 L16.84669495920629,-9.337569346236625 L16.824760362607996,-9.47561091011324 L16.80132398751808,-9.609816750707477 L16.776442294216928,-9.739863554394303 L16.75017522488307,-9.865438027032884 L16.722586059187257,-9.986237648719605 L16.69374126184618,-10.10197140258503 L16.663710322503142,-10.21236047587901 L16.63256558832141,-10.317138931655046 L16.600382089693593,-10.416054349435662 L16.56723735948682,-10.50886843331546 L16.533211246259302,-10.595357586036814 L16.498385721898135,-10.675313447655268 L16.46284468414186,-10.748543397496876 L16.42667375446346,-10.814871018198282 L16.389960071800733,-10.874136520711605 L16.35279208263095,-10.926197129250243 L16.31525932789555,-10.970927425248258 L16.277452227288173,-11.008219649504678 L16.239461861425696,-11.037983961784857 L16.201379752427044,-11.060148657253464 " />
			<path d="M-16.20137975242704,-26.663484038552966 L-16.225504278951302,-26.67356599936668 L-16.249605490750312,-26.680568124626433 L-16.273660095630927,-26.68448364725116 L-16.297644846442427,-26.685308783152742 " />
			<path d="M-16.29764484644243,-26.685308783152742 L-16.33234512089771,-26.680994453392106 L-16.366777858130746,-26.67015490703819 L-16.40087271863895,-26.65281228721291 L-16.434560053137332,-26.629002021574657 L-16.467771044838663,-26.59877274994634 L-16.50043785003302,-26.562186224953532 L-16.532493736679537,-26.51931718587565 L-16.5638732207272,-26.47025320596789 L-16.594512199886246,-26.41509451356581 L-16.62434808457692,-26.35395378733797 L-16.653319925787983,-26.286955926104977 L-16.681368539583936,-26.21423779369503 L-16.708436628006464,-26.135947939357283 L-16.734468896123236,-26.052246294304116 L-16.759412164984866,-25.963303845002237 L-16.783215480259358,-25.869302283879982 L-16.805830216322068,-25.77043363816442 L-16.827210175588558,-25.66689987760641 L-16.847311682887444,-25.55891250189502 L-16.866093674680414,-25.44669210860403 L-16.899548413564077,-25.21047742750531 L-16.92730116529312,-24.960185014395716 L-16.949125271407098,-24.697859023079182 L-16.964842493065383,-24.425641886346042 L-16.974324466734934,-24.145756818590364 L-16.977493752543307,-23.860489658678834 " />
			<path d="M-1642.5482669960616,22.28380531999941 L-1642.5723915225858,22.273723359185695 L-1642.5964927343848,22.266721233925942 L-1642.6205473392654,22.262805711301215 L-1642.6445320900768,22.261980575399633 " />
			<path d="M-1642.6445320900768,22.261980575399633 L-1642.6792323645323,22.26629490516027 L-1642.7136651017652,22.277134451514186 L-1642.7477599622734,22.294477071339465 L-1642.7814472967718,22.31828733697772 L-1642.814658288473,22.348516608606033 L-1642.8473250936675,22.385103133598843 L-1642.879380980314,22.427972172676725 L-1642.9107604643616,22.477036152584486 L-1642.9413994435208,22.532194844986567 L-1642.9712353282114,22.593335571214404 L-1643.0002071694225,22.6603334324474 L-1643.0282557832184,22.733051564857345 L-1643.055323871641,22.81134141919509 L-1643.0813561397576,22.89504306424826 L-1643.1062994086194,22.983985513550138 L-1643.130102723894,23.077987074672393 L-1643.1527174599566,23.176855720387955 L-1643.174097419223,23.280389480945963 L-1643.194198926522,23.388376856657356 L-1643.212980918315,23.500597249948346 L-1643.2464356571986,23.736811931047065 L-1643.2741884089276,23.98710434415666 L-1643.2960125150416,24.249430335473193 L-1643.3117297366998,24.521647472206332 L-1643.3212117103694,24.80153253996201 L-1643.3243809961778,25.08679969987354 " />
			<path d="M-16.977493752543307,-23.860489658678805 L-16.977493752543307,7.509689109412861 " />
			<path d="M-1643.3243809961778,25.086799699873573 L-1643.3243809961778,56.456978467965236 " />
			<path d="M-16.977493752543307,7.509689109412859 L-16.97375655149921,7.822862426561351 L-16.962580939655947,8.136618962554527 L-16.94407454426477,8.447937070434001 L-16.91841559202992,8.753818586637102 L-16.885851192688037,9.05131770495095 L-16.867074934948516,9.196024613296025 L-16.84669495920629,9.337569346236624 L-16.824760362607996,9.475610910113236 L-16.80132398751808,9.609816750707473 L-16.776442294216928,9.7398635543943 L-16.75017522488307,9.865438027032884 L-16.722586059187257,9.986237648719605 L-16.69374126184618,10.101971402585027 L-16.663710322503142,10.21236047587901 L-16.63256558832141,10.317138931655045 L-16.600382089693593,10.416054349435662 L-16.56723735948682,10.508868433315458 L-16.533211246259302,10.595357586036812 L-16.498385721898135,10.675313447655267 L-16.46284468414186,10.748543397496874 L-16.42667375446346,10.81487101819828 L-16.389960071800733,10.874136520711602 L-16.35279208263095,10.926197129250243 L-16.31525932789555,10.970927425248258 L-16.277452227288173,11.008219649504678 L-16.239461861425696,11.037983961784857 L-16.201379752427048,11.060148657253462 " />
			<path d="M-1643.3243809961778,56.45697846796523 L-1643.3206437951337,56.770151785113725 L-1643.3094681832904,57.083908321106904 L-1643.2909617878993,57.395226428986376 L-1643.2653028356644,57.70110794518948 L-1643.2327384363225,57.99860706350332 L-1643.213962178583,58.1433139718484 L-1643.1935822028408,58.284858704788995 L-1643.1716476062425,58.42290026866561 L-1643.1482112311526,58.55710610925985 L-1643.1233295378515,58.68715291294667 L-1643.0970624685176,58.812727385585255 L-1643.0694733028217,58.93352700727198 L-1643.0406285054808,59.049260761137404 L-1643.0105975661377,59.159649834431384 L-1642.979452831956,59.26442829020742 L-1642.947269333328,59.36334370798804 L-1642.9141246031213,59.45615779186783 L-1642.8800984898937,59.54264694458919 L-1642.8452729655326,59.62260280620764 L-1642.8097319277763,59.69583275604925 L-1642.773560998098,59.76216037675066 L-1642.7368473154352,59.82142587926398 L-1642.6996793262654,59.873486487802616 L-1642.66214657153,59.91821678380063 L-1642.6243394709227,59.95550900805705 L-1642.5863491050602,59.98527332033723 L-1642.5482669960616,60.00743801580584 " />
			<path d="M-16.201379752427044,11.060148657253464 L16.201379752427037,26.663484038552966 " />
			<path d="M-1642.5482669960616,60.007438015805846 L-1610.1455074912074,75.61077339710535 " />
			<path d="M16.20137975242704,26.663484038552966 L16.225504278951302,26.67356599936668 L16.249605490750312,26.680568124626433 L16.273660095630923,26.68448364725116 L16.297644846442424,26.685308783152742 " />
			<path d="M16.29764484644243,26.685308783152742 L16.33234512089771,26.680994453392106 L16.366777858130746,26.67015490703819 L16.40087271863895,26.65281228721291 L16.434560053137332,26.629002021574657 L16.467771044838663,26.59877274994634 L16.50043785003302,26.562186224953532 L16.532493736679537,26.51931718587565 L16.5638732207272,26.47025320596789 L16.594512199886246,26.41509451356581 L16.62434808457692,26.35395378733797 L16.653319925787983,26.286955926104977 L16.681368539583936,26.21423779369503 L16.708436628006464,26.13594793935728 L16.734468896123236,26.052246294304116 L16.759412164984866,25.963303845002237 L16.783215480259358,25.869302283879982 L16.805830216322068,25.770433638164416 L16.827210175588558,25.66689987760641 L16.847311682887444,25.55891250189502 L16.866093674680414,25.44669210860403 L16.899548413564077,25.21047742750531 L16.92730116529312,24.960185014395716 L16.949125271407098,24.69785902307918 L16.964842493065383,24.425641886346042 L16.974324466734934,24.145756818590364 L16.977493752543307,23.860489658678812 " />
			<path d="M-1610.1455074912074,75.61077339710535 L-1610.121382964683,75.62085535791905 L-1610.097281752884,75.62785748317881 L-1610.0732271480035,75.63177300580354 L-1610.049242397192,75.63259814170512 " />
			<path d="M-1610.049242397192,75.63259814170512 L-1610.025350680091,75.63033209344545 L-1610.0015750864313,75.62497705100708 L-1609.9779385937181,75.61653818967682 L-1609.954464045025,75.60502366504406 " />
			<path d="M16.977493752543307,-7.509689109412861 L16.977493752543307,23.860489658678805 " />
			<path d="M-4.050188950617794,-2264.046231777434 L16.054703793387713,-2254.746966438343 " />
			<path d="M16.83372642811702,-2251.20833813433 L16.829962117823342,-2251.5216072614717 L16.81873300003786,-2251.835328956587 L16.800147217303316,-2252.146481908255 L16.77438376086746,-2252.4520695434567 L16.74169074689951,-2252.7491488862147 L16.72284151875036,-2252.8935999132827 L16.702383026995804,-2253.0348589000573 L16.680364557934425,-2253.1725855412665 L16.656839155986788,-2253.3064480413673 L16.631863495906764,-2253.4361239138725 L16.605497746247096,-2253.5613007582474 L16.577805424408083,-2253.6816770125088 L16.54885324361859,-2253.796962679717 L16.51871095221806,-2253.9068800266023 L16.487451165626624,-2254.0111642526476 L16.455149191408214,-2254.1095641280185 L16.421882847848043,-2254.2018425987967 L16.387732276481533,-2254.287777358063 L16.352779749026343,-2254.3671613814554 L16.317109469182594,-2254.439803425909 L16.280807369778778,-2254.5055284903747 L16.243960905752047,-2254.5641782374164 L16.206658843461607,-2254.615611374656 L16.16899104684279,-2254.659703995161 L16.131048260916966,-2254.6963498759465 L16.092921893178822,-2254.725460733876 L16.054703793387716,-2254.746966438343 " />
			<path d="M-4.050188950617793,-2264.046231777434 L-4.073536141368815,-2264.0556025208843 L-4.096862223111629,-2264.062108372064 L-4.120146232161873,-2264.0657434840145 L-4.14336724264687,-2264.0665045897786 " />
			<path d="M-4.143367242646873,-2264.0665045897786 L-4.178319388285641,-2264.0621949091346 L-4.213007891426713,-2264.051319747789 L-4.247361454882585,-2264.0339014580595 L-4.281309469885698,-2264.0099758407146 L-4.3147821612145245,-2263.97959207139 L-4.347710730606418,-2263.9428125995178 L-4.380027498162458,-2263.8997130199687 L-4.411666041453674,-2263.850381917677 L-4.442561332042709,-2263.7949206855706 L-4.472649869140351,-2263.7334433161677 L-4.501869810122184,-2263.6660761672856 L-4.5301610976371425,-2263.592957702329 L-4.5574655830466835,-2263.514238205699 L-4.583727145940883,-2263.430079473904 L-4.608891809485795,-2263.3406544830123 L-4.632907851365008,-2263.246147033124 L-4.655725910087368,-2263.146751370596 L-4.677299086442357,-2263.0426717887985 L-4.697583039894631,-2262.934122208217 L-4.716536079719548,-2262.8213257367725 L-4.750296413155293,-2262.5839277208097 L-4.778302671492445,-2262.3324284867986 L-4.800324721833382,-2262.0688946530922 L-4.816181604686994,-2261.795491728701 L-4.825743020948187,-2261.5144663188817 L-4.828930402591091,-2261.2281276643434 " />
			<path d="M-1630.0338603209527,-2216.6088749331093 L-1630.0572075117036,-2216.6182456765596 L-1630.0805335934465,-2216.624751527739 L-1630.1038176024967,-2216.62838663969 L-1630.1270386129818,-2216.629147745454 " />
			<path d="M-1630.1270386129818,-2216.629147745454 L-1630.1619907586205,-2216.62483806481 L-1630.1966792617616,-2216.613962903464 L-1630.2310328252174,-2216.5965446137347 L-1630.2649808402205,-2216.57261899639 L-1630.2984535315493,-2216.5422352270652 L-1630.3313821009413,-2216.505455755193 L-1630.3636988684973,-2216.462356175644 L-1630.3953374117884,-2216.4130250733524 L-1630.4262327023775,-2216.357563841246 L-1630.456321239475,-2216.296086471843 L-1630.485541180457,-2216.228719322961 L-1630.513832467972,-2216.155600858004 L-1630.5411369533815,-2216.076881361374 L-1630.5673985162757,-2215.992722629579 L-1630.5925631798207,-2215.9032976386875 L-1630.6165792216998,-2215.8087901887993 L-1630.6393972804221,-2215.7093945262714 L-1630.6609704567772,-2215.605314944474 L-1630.6812544102295,-2215.4967653638923 L-1630.7002074500544,-2215.3839688924477 L-1630.73396778349,-2215.146570876485 L-1630.7619740418272,-2214.895071642474 L-1630.7839960921683,-2214.6315378087675 L-1630.7998529750218,-2214.3581348843763 L-1630.809414391283,-2214.077109474557 L-1630.812601772926,-2213.7907708200187 " />
			<path d="M-4.82893040259109,-2261.228127664343 L-4.8275420627332855,-2229.841761354895 " />
			<path d="M-1630.812601772926,-2213.790770820018 L-1630.8112134330681,-2182.40440451057 " />
			<path d="M-4.8275420627332855,-2229.841761354895 L-4.823777752439604,-2229.5284922277533 L-4.8125486346541235,-2229.214770532638 L-4.793962851919578,-2228.90361758097 L-4.768199395483724,-2228.5980299457683 L-4.735506381515776,-2228.3009506030103 L-4.716657153366625,-2228.1564995759422 L-4.6961986616120655,-2228.0152405891677 L-4.674180192550687,-2227.8775139479585 L-4.65065479060305,-2227.7436514478577 L-4.625679130523027,-2227.6139755753525 L-4.599313380863359,-2227.4887987309776 L-4.571621059024345,-2227.368422476716 L-4.542668878234855,-2227.253136809508 L-4.5125265868343245,-2227.1432194626227 L-4.481266800242886,-2227.0389352365773 L-4.448964826024476,-2226.9405353612065 L-4.415698482464304,-2226.8482568904283 L-4.381547911097795,-2226.762322131162 L-4.346595383642606,-2226.6829381077696 L-4.3109251037988585,-2226.610296063316 L-4.274623004395042,-2226.5445709988503 L-4.2377765403683085,-2226.4859212518086 L-4.200474478077869,-2226.434488114569 L-4.162806681459054,-2226.390395494064 L-4.124863895533229,-2226.3537496132785 L-4.086737527795085,-2226.324638755349 L-4.048519428003984,-2226.303133050882 " />
			<path d="M-1630.8112134330684,-2182.40440451057 L-1630.8074491227746,-2182.0911353834285 L-1630.7962200049892,-2181.777413688313 L-1630.7776342222546,-2181.4662607366454 L-1630.7518707658187,-2181.1606731014435 L-1630.7191777518508,-2180.8635937586855 L-1630.7003285237017,-2180.7191427316175 L-1630.679870031947,-2180.577883744843 L-1630.6578515628858,-2180.4401571036337 L-1630.6343261609381,-2180.306294603533 L-1630.609350500858,-2180.1766187310277 L-1630.5829847511984,-2180.051441886653 L-1630.5552924293593,-2179.9310656323914 L-1630.5263402485698,-2179.815779965183 L-1630.4961979571694,-2179.705862618298 L-1630.4649381705779,-2179.6015783922526 L-1630.4326361963595,-2179.5031785168817 L-1630.3993698527993,-2179.4109000461035 L-1630.3652192814327,-2179.324965286837 L-1630.3302667539776,-2179.245581263445 L-1630.2945964741339,-2179.1729392189914 L-1630.25829437473,-2179.1072141545255 L-1630.2214479107033,-2179.048564407484 L-1630.184145848413,-2178.997131270244 L-1630.146478051794,-2178.953038649739 L-1630.1085352658683,-2178.9163927689538 L-1630.0704088981302,-2178.8872819110243 L-1630.0321907983391,-2178.8657762065573 " />
			<path d="M-1630.032190798339,-2178.8657762065577 L-1629.5323815100687,-2178.6345957048884 " />
			<path d="M16.05637331600153,-2217.003867711791 L16.07972050675255,-2216.9944969683406 L16.103046588495367,-2216.987991117161 L16.126330597545607,-2216.9843560052104 L16.149551608030603,-2216.9835948994464 " />
			<path d="M16.14955160803061,-2216.9835948994464 L16.184503753669375,-2216.9879045800903 L16.219192256810448,-2216.998779741436 L16.25354582026632,-2217.0161980311655 L16.287493835269434,-2217.0401236485104 L16.320966526598262,-2217.070507417835 L16.353895095990154,-2217.107286889707 L16.386211863546194,-2217.1503864692563 L16.41785040683741,-2217.199717571548 L16.448745697426446,-2217.2551788036544 L16.478834234524086,-2217.3166561730573 L16.50805417550592,-2217.3840233219394 L16.53634546302088,-2217.457141786896 L16.56364994843042,-2217.535861283526 L16.58991151132462,-2217.620020015321 L16.615076174869532,-2217.7094450062127 L16.639092216748743,-2217.803952456101 L16.661910275471104,-2217.903348118629 L16.683483451826092,-2218.0074277004264 L16.703767405278366,-2218.115977281008 L16.722720445103285,-2218.2287737524525 L16.75648077853903,-2218.4661717684153 L16.784487036876182,-2218.7176710024264 L16.80650908721712,-2218.9812048361327 L16.82236597007073,-2219.254607760524 L16.831927386331923,-2219.5356331703433 L16.835114767974826,-2219.8219718248815 " />
			<path d="M16.83372642811702,-2251.2083381343296 L16.835114767974826,-2219.8219718248815 " />
			<path d="M-3.8321006591633306,-20.70712305574453 L16.20134193914319,-11.06015073501261 " />
			<path d="M-3.8324724769115575,-2227.24180643135 L16.200970121394963,-2217.594834110618 " />
			<path d="M16.281028330880037,-11.005021710463248 L16.267363491948608,-11.018925653816003 L16.249510842843346,-11.03276063602508 L16.22749396471386,-11.04650838278376 L16.201341939143198,-11.060150735012607 " />
			<path d="M-7.71304247663004,-2227.522105321624 L-38.369545484062115,-2226.5994475975162 " />
			<path d="M-398.09797493463685,-2215.3758059916677 L-398.13979649684717,-2215.394031636068 L-398.1889962136744,-2215.411988284662 L-398.24545555869116,-2215.4296326783106 L-398.3090385163902,-2215.4469223101237 L-398.4569457697874,-2215.4802716342906 L-398.6312935461615,-2215.511715084941 L-398.8304027811177,-2215.540949844456 L-399.05235594387926,-2215.5676943661197 L-399.2950155041569,-2215.5916910855694 L-399.5560445177338,-2215.612708901278 L-399.83292913251637,-2215.6305454001913 L-400.1230027983037,-2215.645028807074 L-400.4234719471238,-2215.6560196388004 L-400.73144289682045,-2215.663412047653 L-401.04394971879395,-2215.667134840693 L-401.35798280151516,-2215.667152165389 L-401.67051783472954,-2215.6634638548944 L-401.97854493521817,-2215.6561054296553 " />
			<path d="M-401.97854493521817,-2215.6561054296553 L-432.6350479398107,-2214.7334531129463 " />
			<path d="M-432.6350479398107,-2214.7334531129463 L-432.889337040347,-2214.724437402481 L-433.13655505232464,-2214.712918841131 L-433.37500545478514,-2214.698976474435 L-433.60305189404164,-2214.682705981171 L-433.8191294130725,-2214.6642190167663 L-434.02175519095886,-2214.643642447069 L-434.2095387186671,-2214.6211174777345 L-434.381191341346,-2214.596798685214 L-434.53553510165494,-2214.570852955975 L-434.67151082343565,-2214.543458341259 L-434.7881853802545,-2214.5148028352064 L-434.8847580989348,-2214.485083084762 L-434.9252936477419,-2214.4698876050347 L-434.96056625413564,-2214.4545030401923 L-434.99051537802495,-2214.4389557955133 L-435.0150896162707,-2214.4232725554893 L-435.03424679091177,-2214.4074802380287 L-435.0479540215569,-2214.3916059482553 L-435.05618778181895,-2214.375676931985 L-435.05893393969444,-2214.359720528963 " />
			<path d="M-772.3304443656986,-2193.6759578341416 L-772.288761679248,-2193.6990078297026 L-772.2588761847784,-2193.7223217435526 L-772.2483941447567,-2193.734050380474 L-772.2408999450278,-2193.74581215465 L-772.2364006125576,-2193.757596037606 L-772.2349003661636,-2193.7693909801374 " />
			<path d="M-772.2349003661636,-2193.7693909801374 L-772.2364006125576,-2193.7811859226686 L-772.2408999450278,-2193.7929698056246 L-772.2483941447567,-2193.804731579801 L-772.2588761847784,-2193.816460216722 L-772.2887616792481,-2193.839774130572 L-772.3304443656986,-2193.862824126133 " />
			<path d="M-792.3638869936997,-2203.5097964502 L-792.40570855591,-2203.5280220946006 L-792.4549082727372,-2203.5459787431946 L-792.511367617754,-2203.563623136843 L-792.5749505754529,-2203.580912768656 L-792.7228578288502,-2203.614262092823 L-792.8972056052243,-2203.6457055434735 L-793.0963148401805,-2203.6749403029885 L-793.3182680029421,-2203.701684824652 L-793.5609275632197,-2203.725681544102 L-793.8219565767967,-2203.7466993598105 L-794.0988411915791,-2203.764535858724 L-794.3889148573664,-2203.7790192656066 L-794.6893840061865,-2203.790010097333 L-794.9973549558832,-2203.7974025061853 L-795.3098617778568,-2203.8011252992255 L-795.6238948605779,-2203.8011426239214 L-795.9364298937924,-2203.797454313427 L-796.2444569942809,-2203.790095888188 " />
			<path d="M-796.244456994281,-2203.790095888188 L-826.9009599988734,-2202.867443571479 " />
			<path d="M-826.9009599988734,-2202.8674435714793 L-827.1552490994096,-2202.8584278610138 L-827.4024671113873,-2202.846909299664 L-827.6409175138477,-2202.832966932968 L-827.8689639531043,-2202.8166964397037 L-828.0850414721352,-2202.7982094752992 L-828.2876672500215,-2202.777632905602 L-828.4754507777297,-2202.7551079362674 L-828.6471034004087,-2202.7307891437467 L-828.8014471607177,-2202.704843414508 L-828.9374228824984,-2202.677448799792 L-829.0540974393172,-2202.6487932937393 L-829.1506701579974,-2202.619073543295 L-829.1912057068046,-2202.6038780635677 L-829.2264783131983,-2202.5884934987253 L-829.2564274370876,-2202.572946254046 L-829.2810016753334,-2202.5572630140223 L-829.3001588499744,-2202.5414706965616 L-829.3138660806196,-2202.5255964067883 L-829.3220998408816,-2202.5096673905177 L-829.3248459987572,-2202.493710987496 " />
			<path d="M-1186.629799052762,-2191.643786908733 L-1166.596356424761,-2181.996814584666 " />
			<path d="M-1166.596356424761,-2181.8099482926746 L-1166.5546737383106,-2181.8329982882356 L-1166.524788243841,-2181.8563122020855 L-1166.5143062038194,-2181.868040839007 L-1166.5068120040903,-2181.879802613183 L-1166.5023126716203,-2181.891586496139 L-1166.5008124252263,-2181.9033814386703 " />
			<path d="M-1166.5008124252263,-2181.9033814386703 L-1166.5023126716203,-2181.9151763812015 L-1166.5068120040903,-2181.9269602641575 L-1166.5143062038194,-2181.9387220383337 L-1166.524788243841,-2181.950450675255 L-1166.5546737383106,-2181.973764589105 L-1166.5963564247613,-2181.996814584666 " />
			<path d="M-1186.6297990527626,-2191.643786908733 L-1186.6716206149729,-2191.6620125531335 L-1186.7208203318,-2191.6799692017275 L-1186.7772796768168,-2191.697613595376 L-1186.8408626345158,-2191.714903227189 L-1186.9887698879131,-2191.748252551356 L-1187.1631176642873,-2191.7796960020064 L-1187.3622268992433,-2191.8089307615214 L-1187.5841800620049,-2191.835675283185 L-1187.8268396222825,-2191.859672002635 L-1188.0878686358594,-2191.8806898183434 L-1188.364753250642,-2191.8985263172567 L-1188.6548269164293,-2191.9130097241396 L-1188.9552960652495,-2191.924000555866 L-1189.263267014946,-2191.9313929647183 L-1189.5757738369196,-2191.9351157577585 L-1189.889806919641,-2191.9351330824543 L-1190.2023419528552,-2191.93144477196 L-1190.5103690533438,-2191.9240863467207 " />
			<path d="M-1190.5103690533435,-2191.9240863467207 L-1221.1668720579362,-2191.0014340300118 " />
			<path d="M-1221.166872057936,-2191.0014340300118 L-1221.4211611584724,-2190.9924183195462 L-1221.66837917045,-2190.9808997581963 L-1221.9068295729105,-2190.9669573915003 L-1222.1348760121668,-2190.950686898236 L-1222.3509535311978,-2190.9321999338317 L-1222.5535793090842,-2190.9116233641344 L-1222.7413628367924,-2190.8890983948 L-1222.9130154594714,-2190.864779602279 L-1223.0673592197802,-2190.8388338730406 L-1223.203334941561,-2190.8114392583243 L-1223.3200094983797,-2190.782783752272 L-1223.41658221706,-2190.7530640018276 L-1223.4571177658672,-2190.7378685221 L-1223.492390372261,-2190.7224839572577 L-1223.5223394961502,-2190.7069367125787 L-1223.546913734396,-2190.6912534725548 L-1223.566070909037,-2190.675461155094 L-1223.5797781396823,-2190.6595868653208 L-1223.5880118999444,-2190.64365784905 L-1223.5907580578198,-2190.6277014460284 " />
			<path d="M-1223.5907580578198,-2190.6277014460284 L-1223.5892578114258,-2190.615906503497 L-1223.5847584789558,-2190.604122620541 L-1223.5772642792267,-2190.592360846365 L-1223.5667822392052,-2190.5806322094436 L-1223.5368967447355,-2190.5573182955936 L-1223.4952140582848,-2190.5342683000326 " />
			<path d="M-1593.3131125779394,-2179.4040546256856 L-1573.2796699466905,-2169.7570823017168 " />
			<path d="M-1573.2796699744808,-2169.5702160531864 L-1573.2379872785439,-2169.5932660371423 L-1573.2081017762466,-2169.6165799411187 L-1573.1976197329482,-2169.628308573761 L-1573.1901255303733,-2169.640070344099 L-1573.185626195492,-2169.651854223661 L-1573.184125947124,-2169.6636491632426 " />
			<path d="M-1573.184125947124,-2169.6636491632426 L-1573.1856261919836,-2169.675444103271 L-1573.1901255233602,-2169.6872279841705 L-1573.1976197224367,-2169.698989756738 L-1573.2081017622465,-2169.7107183924977 L-1573.2379872576093,-2169.734032305363 L-1573.2796699466903,-2169.7570823017168 " />
			<path d="M-1593.3131125779394,-2179.404054625686 L-1593.3549341401558,-2179.422280270668 L-1593.4041338569891,-2179.4402369210075 L-1593.4605932020118,-2179.4578813175603 L-1593.5241761597167,-2179.47517095343 L-1593.6720834131252,-2179.5085202891237 L-1593.8464311895098,-2179.5399637557557 L-1594.0455404244758,-2179.5691985355534 L-1594.2674935872465,-2179.5959430816065 L-1594.510153147532,-2179.6199398293156 L-1594.771182161116,-2179.640957676883 L-1595.0480667759048,-2179.658794210947 L-1595.3381404416969,-2179.673277655934 L-1595.6386095905207,-2179.684268528351 L-1595.9465805402199,-2179.6916609800887 L-1596.2590873621946,-2179.695383817796 L-1596.5731204449157,-2179.6954011885105 L-1596.885655478129,-2179.6917129249423 L-1597.1936825786152,-2179.684354547086 " />
			<path d="M-1597.193682578615,-2179.684354547086 L-1627.8501855828965,-2178.7617070041174 " />
			<path d="M-1627.8501855828968,-2178.761707004118 L-1628.1044746800324,-2178.7526913338033 L-1628.351692688823,-2178.741172812397 L-1628.590143088378,-2178.72723048516 L-1628.818189525075,-2178.7109600305976 L-1629.0342670419518,-2178.692473103869 L-1629.2368928181447,-2178.6718965705586 L-1629.4246763446693,-2178.6493716360706 L-1629.5963289667172,-2178.625052876611 L-1629.7506727269842,-2178.599107178418 L-1629.8866484493408,-2178.5717125925125 L-1630.0033230073748,-2178.543057112834 L-1630.0998957279228,-2178.5133373861404 L-1630.1404312779102,-2178.4981419172514 L-1630.175703885649,-2178.48275736253 L-1630.2056530110467,-2178.4672101272354 L-1630.2302272509637,-2178.4515268958444 L-1630.2493844274366,-2178.4357345862486 L-1630.2630916600722,-2178.4198603035575 L-1630.2713254224805,-2178.4039312935743 L-1630.2740715826546,-2178.3879748960335 " />
			<path d="M-1630.2740715826546,-2178.3879748960335 L-1630.272571337795,-2178.376179956005 L-1630.2680720064184,-2178.3643960751056 L-1630.2605778073419,-2178.3526343025383 L-1630.250095767532,-2178.3409056667783 L-1630.2202102721692,-2178.317591753913 L-1630.1785275830882,-2178.2945417575593 " />
			<path d="M-16.3924231986095,-26.657734306491687 L-1642.5482669960616,22.283805319999402 " />
			<path d="M-16.977493752543307,-23.860489658678805 L-1643.3243809961778,25.086799699873563 " />
			<path d="M-16.977493752543307,7.509689109412861 L-1643.3243809961778,56.45697846796523 " />
			<path d="M-16.201379752427044,11.060148657253464 L-1642.5482669960616,60.00743801580583 " />
			<path d="M16.201379752427037,26.663484038552966 L-1610.1455074912074,75.61077339710533 " />
			<path d="M-4.235205156497729,-2264.0408340111867 L-1630.033860320953,-2216.6088749331093 " />
			<path d="M-4.82893040259109,-2261.2281276643434 L-1630.8126017729262,-2213.7907708200187 " />
			<path d="M-4.8275420627332855,-2229.841761354895 L-1630.8112134330684,-2182.40440451057 " />
			<path d="M-38.369545265404135,-2225.3018322515086 L-401.97854493521817,-2214.6936999726595 " />
			<path d="M-432.6350479398107,-2213.799310011534 L-792.3638869936996,-2203.3043797081978 " />
			<path d="M-829.3248459987572,-2202.226060022396 L-1187.1980582445624,-2191.7852668131864 " />
			<path d="M-1223.4833811218148,-2190.7266585135785 L-1630.0321907983391,-2178.8657762065577 " />
			<path d="M-40.7934296516642,-2215.3452997708023 L-398.09797493463685,-2204.921097169553 " />
			<path d="M-435.05893393969444,-2203.842777483751 L-772.6049710617499,-2193.995020648129 " />
			<path d="M-829.3248459987572,-2192.3402433001593 L-1167.5825779859692,-2182.471723080577 " />
			<path d="M-1223.5907580578196,-2180.8377091165676 L-1575.0000068251193,-2170.585499192392 " />
			<path d="M-3.8321006591633293,-20.70712305574453 L-3.8324724769115575,-2227.2418064313506 " />
			<path d="M16.20134193914319,-11.060150735012613 L16.200970222936967,-2216.9922379446894 " />
			<path d="M-7.712670926535875,-22.57580222414654 L-7.713042476630037,-2227.522105321624 " />
			<path d="M-38.369174669990265,-26.021033796473795 L-38.369545484062115,-2226.5994475975162 " />
			<path d="M-40.697516738689906,-25.950958934919818 L-40.69788733446548,-2225.2339038980263 " />
			<path d="M-398.09797493463685,-15.194469171628896 L-398.09797493463685,-2214.8069138917895 " />
			<path d="M-378.0645323066357,-15.797404941883073 L-378.0645323066357,-2205.5055640270607 " />
			<path d="M-401.97854493521817,-15.077677739134142 L-401.97854493521817,-2215.656105429655 " />
			<path d="M-432.6350479398107,-14.155025422425563 L-432.6350479398107,-2214.7334531129463 " />
			<path d="M-434.9633899401595,-14.084950562928707 L-434.9633899401595,-2213.731381660056 " />
			<path d="M-792.3638869936996,-3.3284596301616585 L-792.3638869936996,-2203.5097964502 " />
			<path d="M-772.3304443656986,-3.931395400415827 L-772.3304443656986,-2193.8628241261335 " />
			<path d="M-796.244456994281,-3.2116681976669 L-796.244456994281,-2203.790095888188 " />
			<path d="M-826.9009599988734,-2.289015880958325 L-826.9009599988734,-2202.8674435714793 " />
			<path d="M-829.2293019992222,-2.2189410214614735 L-829.2293019992222,-2202.4002778415 " />
			<path d="M-1186.6297990527623,8.53754991130558 L-1186.6297990527623,-2191.643786908733 " />
			<path d="M-1166.596356424761,7.934614141051398 L-1166.596356424761,-2181.996814584666 " />
			<path d="M-1190.5103690533438,8.65434134380034 L-1190.5103690533438,-2191.9240863467207 " />
			<path d="M-1221.166872057936,9.576993660508904 L-1221.166872057936,-2191.0014340300118 " />
			<path d="M-1223.495214058285,9.647068520005766 L-1223.495214058285,-2190.534268300033 " />
			<path d="M-1593.3134397825977,20.77728916762746 L-1593.3131125779396,-2179.404054625686 " />
			<path d="M-1573.2799956270119,20.174353351398384 L-1573.2796699466908,-2169.7570823017168 " />
			<path d="M-1597.1940098423277,20.894080601902374 L-1597.1936825786152,-2179.6843545470865 " />
			<path d="M-1627.8505128466097,21.816732918601602 L-1627.8501855828965,-2178.761707004118 " />
			<path d="M-1630.1788547877472,21.886807776316417 L-1630.1785275830882,-2178.2945417575593 " />
			<path d="M-1642.6445320900768,22.261980575399626 L-16.297644846442427,-26.685308783152742 " />
			<path d="M-1610.049242397192,75.6325981417051 L16.297644846442427,26.685308783152742 " />
			<path d="M-1630.1270386129825,-2216.629147745454 L-4.143367242646874,-2264.0665045897786 " />
			<path d="M-1574.9549893218673,-2170.5638213102648 L-1223.5907580578196,-2180.8147178686277 " />
			<path d="M-1167.537560482725,-2182.450045198449 L-829.3248459987572,-2192.3172520522194 " />
			<path d="M-772.5599535585055,-2193.9733427660017 L-435.05893393969444,-2203.819786235811 " />
			<path d="M-378.0645323066357,-2205.482572779121 L-40.793429647790006,-2215.322308522975 " />
			<path d="M16.296514197105203,-2217.0476355432143 L16.29688593446492,-10.990013942546154 " />
			<path d="M-40.7934314850962,-2226.225714474437 L-40.79306072170851,-25.948083398944092 " />
			<path d="M-377.9689883071008,-2205.4853602331896 L-377.9689883071008,-15.800280478355887 " />
			<path d="M-435.05893393969444,-2214.3597205289634 L-435.05893393969444,-14.0820750264559 " />
			<path d="M-772.2349003661637,-2193.769390980138 L-772.2349003661637,-3.9342709368886446 " />
			<path d="M-829.3248459987572,-2202.493710987496 L-829.3248459987572,-2.216065484988661 " />
			<path d="M-1166.5008124252265,-2181.9033814386703 L-1166.5008124252265,7.9317386045785945 " />
			<path d="M-1223.5907580578196,-2190.627701446029 L-1223.5907580578196,9.64994405647856 " />
			<path d="M-1573.1841259471244,-2169.6636491632435 L-1573.1844516131227,20.171477814493556 " />
			<path d="M-1630.2740715826546,-2178.3879748960335 L-1630.2743988016364,21.889683313221234 " />

       </g>
    </g>
    
</svg>
