<?xml version="1.0" encoding="UTF-8" standalone="no"?>
<svg
   xmlns:svg="http://www.w3.org/2000/svg"
   xmlns="http://www.w3.org/2000/svg"
   width="480.0"
   height="480.0"

>
    <g transform="scale(0.17957012061768168, -0.17957012061768168)   translate(123.2337747639975,-65.39770977612241)" stroke-width="1.0"  fill="none">
       <!-- hidden lines -->
       <g  stroke="rgb(0,0,0)" fill="none" stroke-dasharray="1.0,1.0" >
			<path d="M-3.0389219398993674,-1652.978244239931 L66.1202633900474,-1644.5953126847858 " />
			<path d="M67.00778370400775,-1643.7884760357308 L67.13094359370827,-1643.824897023031 L67.23906096362063,-1643.8628640658555 L67.33155199441238,-1643.9021721472532 L67.37177818486563,-1643.922262998441 L67.40791724689163,-1643.9426090088432 L67.43992037748919,-1643.96318270275 L67.46774435891192,-1643.983956296983 L67.49135161703028,-1644.0049017384142 L67.51071027207263,-1644.0259907418488 L67.52579418167636,-1644.0471948282227 L67.53658297619111,-1644.0684853630617 L67.54306208618644,-1644.0898335951492 L67.54522276212666,-1644.1112106953528 " />
			<path d="M67.54522276212666,-1644.1112106953528 L67.54371368777865,-1644.1290768631327 L67.53918788805048,-1644.1469261800528 L67.53164963154732,-1644.1647418111468 L67.52110602813764,-1644.18250695322 L67.50756702224733,-1644.2002048506965 L67.49104538348043,-1644.2178188114253 L67.44911933670704,-1644.2527285655333 L67.39548602432549,-1644.2871045430627 L67.33034774026484,-1644.3208170848284 L67.25395017286375,-1644.3537390339902 L67.16658147818407,-1644.3857462156623 L67.06857119314495,-1644.4167179052754 L66.9602889925766,-1644.4465372839254 L66.84214329488222,-1644.4750918789898 L66.71457972156698,-1644.5022739883532 L66.57807941644441,-1644.527981086636 L66.43315723085998,-1644.5521162118998 L66.28035978177672,-1644.5745883313687 L66.12026339004741,-1644.5953126847858 " />
			<path d="M-67.00778370400761,-1652.4821409292974 L-66.91698154245911,-1652.4586536290724 L-66.8199176144078,-1652.4360093165672 L-66.71682825292577,-1652.4142631265788 L-66.60796446192346,-1652.3934680071382 L-66.37398726006423,-1652.354931070323 L-66.12026339004723,-1652.3207735994865 " />
			<path d="M-66.12026339004724,-1652.3207735994865 L45.04165593348869,-1638.8466015602698 " />
			<path d="M45.041655933488684,-1638.8466015602698 L45.311179848756446,-1638.8172991152462 L45.595202712966206,-1638.7929410355816 L45.89098923067293,-1638.773761902899 L46.19569081601775,-1638.7599464227303 L46.50637302616697,-1638.751627645702 L46.82004382160067,-1638.7488856861844 L47.13368238108893,-1638.7517469507463 L47.444268193851606,-1638.7601838838461 L47.74881014872831,-1638.774115233206 L48.04437534021401,-1638.793406832316 L48.328117313942336,-1638.8178728925302 L48.597303479597144,-1638.847277792315 L48.849341427251055,-1638.881338346411 L49.08180389369019,-1638.9197265330624 L49.18998674795555,-1638.940429490859 L49.292452138285846,-1638.9620726530472 L49.38895321658087,-1638.9846038793537 L49.479257503290505,-1639.0079688900807 " />
			<path d="M67.00778370400776,-1643.788476035731 L49.479257503290526,-1639.007968890081 " />
			<path d="M1230.4793290202938,-1989.4189778156433 L1230.5716321479192,-1989.3948182878462 L1230.670500051051,-1989.37152588552 L1230.775681020982,-1989.349159909007 L1230.886907276509,-1989.3277773000534 L1231.126348286731,-1989.288177295391 L1231.3863862533763,-1989.253128886929 " />
			<path d="M1229.2043874666106,-340.69036835894485 L1298.124135847168,-332.3398923176395 " />
			<path d="M1231.386386253376,-1989.253128886929 L1300.3061346339334,-1980.9026528456238 " />
			<path d="M1300.3061346339334,-1980.9026528456238 L1300.5763350159689,-1980.8732661324602 L1300.8609196196733,-1980.848807097568 L1301.1571477397433,-1980.829511294823 L1301.4621665374475,-1980.8155645533548 L1301.7730385150242,-1980.8071011879072 L1302.0867698053892,-1980.8042027053161 L1302.4003390047133,-1980.8068970195534 L1302.7107262701927,-1980.8151581829 L1303.014942402786,-1980.8289066358373 L1303.3100576348345,-1980.8480099732471 L1303.5932298453276,-1980.8722842195477 L1303.8617319310804,-1980.9014956004778 L1304.1129780702288,-1980.93536279447 L1304.344548625108,-1980.9735596419325 L1304.4522506337405,-1980.994168265069 L1304.554213444685,-1981.0157182863438 L1304.6501914205994,-1981.0381577898681 L1304.7399533421328,-1981.0614327169121 " />
			<path d="M1322.1575202426773,-1985.8239970561176 L1304.7399533421328,-1981.061432716912 " />
			<path d="M68.7828261009544,1.0387633996359442 L68.78170828227542,1.1297990178033555 L68.778355747038,1.2204872081860396 L68.77277131024354,1.3107518232237032 L68.76495966093955,1.4005170710167945 L68.75492735828257,1.4897075789661915 L68.74268282603065,1.578248457060822 L68.72823634547015,1.6660653607600713 L68.71160004678305,1.7530845534181758 L68.69278789886154,1.839232968198187 L68.67181569757898,1.9244382694235274 L68.64870105252656,2.008628913315619 L68.62346337222732,2.091734208066578 L68.59612384783934,2.173684373196539 L68.56670543536246,2.254410598145779 L68.53523283636287,2.333845100052432 L68.50173247723212,2.4119211806672793 L68.46623248699792,2.488573282357832 L68.4287626737051,2.5637370431546773 L68.38935449938698,2.6373493507938823 L68.3480410536478,2.7093483957100486 L68.30485702587865,2.779673722935547 L68.25983867612993,2.848266282862345 L68.21302380466528,2.9150684808238077 L68.16445172022195,2.9800242254548337 L68.1141632070047,3.0430789757897276 L68.06220049044087,3.104179787058253 L68.00860720172518,3.163275355141421 L67.95342834118422,3.22031605964969 L67.89671024049127,3.2752540055873878 L67.83850052376339,3.328043063568392 L67.77884806757308,3.378638908549295 L67.71780295990851,3.4269990570475084 " />
			<path d="M1301.7149521553793,-335.21582967925053 L1301.712924153071,-335.09328402214607 L1301.7068432115539,-334.9714166855476 L1301.696718594267,-334.85041331681157 L1301.6825657246088,-334.7304582471635 L1301.66440616244,-334.61173421089626 L1301.6422675712413,-334.4944220670003 L1301.6161836759718,-334.37870052365116 L1301.5861942116935,-334.2647458659734 L1301.5523448630415,-334.1527316874952 L1301.514687194629,-334.04282862570403 L1301.4732785724966,-333.93520410210465 L1301.4281820767235,-333.83002206717674 L1301.3794664053335,-333.7274427506198 L1301.3272057696445,-333.62762241726625 L1301.2714797812168,-333.53071312903467 L1301.2123733305777,-333.4368625132849 L1301.1499764579019,-333.34621353792943 L1301.0843842158492,-333.25890429364216 L1301.0156965247645,-333.1750677834971 L1300.9440180204645,-333.0948317203573 L1300.8694578948393,-333.0183183323229 L1300.7921297295145,-332.94564417653385 L1300.7121513228265,-332.8769199616121 L1300.6296445103721,-332.812250379013 L1300.544734979412,-332.7517339435427 L1300.4575520774017,-332.69546284328527 L1300.368228614951,-332.6435227991671 L1300.2769006635058,-332.59599293437384 L1300.1837073480622,-332.55294565381706 L1300.08879063523,-332.51444653383635 L1299.9922951169674,-332.48055422230277 L1299.8943677903153,-332.4513203492774 " />
			<path d="M1299.8943677903153,-332.4513203492774 L1299.7921244287015,-332.4261180177747 L1299.6886846686455,-332.40594956315 L1299.5842158071746,-332.39084760460605 L1299.4788868057203,-332.38083656711024 L1299.3728680168513,-332.37593264189127 L1299.2663309087552,-332.3761437602524 L1299.159447787917,-332.38146958074395 L1299.0523915204412,-332.3919014897155 " />
			<path d="M1230.3250372057726,-340.72248986046446 L1230.218204393074,-340.7379732847524 L1230.1115436437863,-340.7584997566331 L1230.0052267446904,-340.7840362163677 L1229.8994249287655,-340.81454153517865 L1229.7943085994036,-340.8499665814916 L1229.690047055958,-340.89025430006626 L1229.5868082210718,-340.9353398038889 L1229.484758370224,-340.9851504786788 L1229.384061863927,-341.0396060998402 L1229.2848808830095,-341.09861896167126 L1229.1873751674095,-341.16209401862176 L1229.0917017588986,-341.2299290383729 L1228.9980147481524,-341.30201476649154 L1228.9064650265734,-341.3782351023943 L1228.8172000432662,-341.45846728633813 L1228.730363567558,-341.54258209713595 L1228.646095457445,-341.63044406027905 L1228.5645314343383,-341.72191166613106 L1228.4858028644724,-341.8168375978419 L1228.410036547328,-341.9150689686152 L1228.33735451141,-342.0164475679457 L1228.2678738177092,-342.1208101164324 L1228.2017063711655,-342.2279885287541 L1228.1389587404346,-342.3378101843864 L1228.0797319862497,-342.4500982056224 L1228.0241214986538,-342.56467174245057 L1227.9722168433657,-342.68134626382965 L1227.924101617526,-342.79993385489297 L1227.879853315057,-342.920243519602 L1227.8395432018506,-343.042081488363 L1227.8032362009892,-343.16525153011025 L1227.7709907881806,-343.28955526835415 " />
			<path d="M1227.8146765263168,-376.29538528721406 L1227.8408999587548,-376.37607400541805 L1227.8691290129805,-376.45560525345655 L1227.8993408976273,-376.53391481997465 L1227.9315112204458,-376.6109394799698 L1227.9656140079971,-376.68661704583775 L1228.001621726623,-376.7608864175813 L1228.039505304676,-376.83368763214054 L1228.0792341559913,-376.90496191180574 L1228.1207762045808,-376.97465171167244 L1228.1640979105302,-377.042700766102 L1228.2091642970793,-377.1090541341486 L1228.2559389788591,-377.17365824391743 L1228.3043841912715,-377.23646093581687 L1228.3544608209763,-377.2974115046708 L1228.406128437472,-377.35646074065664 L1228.459345325738,-377.4135609690361 L1228.514068519914,-377.4686660886461 L1228.5702538379894,-377.52173160912 L1228.6278559174748,-377.57271468680767 L1228.6868282520265,-377.6215741593663 L1228.747123228994,-377.6682705789938 L1228.8086921678619,-377.71276624427804 L1228.8714853595523,-377.75502523063545 L1228.9354521065598,-377.79501341931615 L1229.0005407638814,-377.83269852495005 L1229.0666987807158,-377.8680501216134 L1229.1338727428886,-377.9010396673937 L1229.2020084159803,-377.9316405274339 L1229.2710507891113,-377.9598279954363 L1229.3409441193573,-377.98557931361006 L1229.4116319767554,-378.0088736910451 L1229.4830572898618,-378.02969232049804 " />
			<path d="M1229.4830572898618,-378.02969232049804 L1229.5853006514756,-378.05489465200077 L1229.6887404115316,-378.07506310662546 L1229.7932092730025,-378.0901650651694 L1229.8985382744568,-378.1001761026652 L1230.0045570633258,-378.1050800278842 L1230.1110941714219,-378.1048689095231 L1230.21797729226,-378.0995430890315 L1230.3250335597359,-378.08911118005994 " />
			<path d="M-2.6070924946888567,-41.83451810117346 L66.12026181997987,-33.503929730424545 " />
			<path d="M1230.325033559736,-378.08911118005994 L1299.052387874405,-369.758522809311 " />
			<path d="M66.12026181997987,-33.50392973042455 L66.25090749352732,-33.48430359810256 L66.38123843094367,-33.45714416043651 L66.51094065358502,-33.42251684689064 L66.63970169743646,-33.380505077696256 L66.76721136586524,-33.331210062885155 L66.89316247691154,-33.27475055846575 L67.01725160331688,-33.21126258032945 L67.1391798035068,-33.14089907657649 L67.25865334176741,-33.06382955905051 L67.37538439588039,-32.980239694969725 L67.48909175051195,-32.890330859638325 L67.59950147468517,-32.79431965131569 L67.7063475817038,-32.692437369412275 L67.8093726699374,-32.584929457269006 L67.9083285429245,-32.472054910862816 L68.00297680729953,-32.35408565486266 L68.09308944710344,-32.2313058875391 L68.17844937309398,-32.10401139610588 L68.25885094573282,-31.97250884414253 L68.3341004705891,-31.837115032815 L68.40401666496638,-31.69815613767387 L68.46843109462844,-31.5559669228689 L68.52718857957223,-31.41088993467286 L68.58014756786994,-31.263274676257552 L68.62718047668012,-31.113476765710075 L68.66817399960584,-30.96185707931768 L68.70302937965975,-30.80878088218521 L68.73166264717835,-30.65461694827944 L68.75400482211222,-30.499736672020315 L68.77000208020497,-30.34451317355926 L68.77961588266069,-30.189320399900033 L68.78282306898717,-30.034532224027675 " />
			<path d="M1299.0523878744048,-369.75852280931105 L1299.1830335479524,-369.73889667698904 L1299.3133644853685,-369.711737239323 L1299.44306670801,-369.67710992577713 L1299.5718277518615,-369.6350981565827 L1299.6993374202902,-369.58580314177163 L1299.8252885313366,-369.5293436373522 L1299.949377657742,-369.46585565921595 L1300.0713058579317,-369.395492155463 L1300.1907793961923,-369.318422637937 L1300.3075104503052,-369.2348327738562 L1300.421217804937,-369.1449239385248 L1300.5316275291102,-369.0489127302022 L1300.6384736361288,-368.94703044829873 L1300.7414987243624,-368.83952253615547 L1300.8404545973494,-368.72664798974927 L1300.9351028617245,-368.6086787337491 L1301.0252155015285,-368.48589896642557 L1301.110575427519,-368.3586044749924 L1301.1909770001578,-368.227101923029 L1301.266226525014,-368.09170811170145 L1301.3361427193913,-367.95274921656033 L1301.4005571490534,-367.8105600017554 L1301.459314633997,-367.6654830135593 L1301.512273622295,-367.51786775514404 L1301.559306531105,-367.36806984459656 L1301.6003000540309,-367.21645015820417 L1301.6351554340847,-367.0633739610717 L1301.6637887016034,-366.9092100271659 L1301.6861308765372,-366.7543297509068 L1301.70212813463,-366.5991062524457 L1301.7117419370857,-366.4439134787865 L1301.7149491234122,-366.28912530291416 " />
			<path d="M68.7828261009544,1.038763399635945 L68.78282306898717,-30.034532224027664 " />
			<path d="M1301.714952155379,-335.2158296792505 L1301.714949123412,-366.2891253029141 " />
			<path d="M1230.3250352275581,-740.3482664437001 L1299.0523895398642,-732.0176780422084 " />
			<path d="M68.78282433192841,-398.58739009122326 L68.78170650323288,-398.496354425088 L68.77835395574712,-398.405666187127 L68.77276950448562,-398.3154015250169 L68.76495783851279,-398.22563623077275 L68.7549255170057,-398.1364456771082 L68.74268096374668,-398.0479047541478 L68.72823446005005,-397.9600878065444 L68.71159813612934,-397.87306857105443 L68.69278596091199,-397.7869201146242 L68.67181373031006,-397.70171477303774 L68.64869905395706,-397.61752409017913 L68.62346134042171,-397.53441875796 L68.5961217809113,-397.4524685569615 L68.56670333147815,-397.37174229784256 L68.53523069374423,-397.29230776356155 L68.50173029416013,-397.2142316524619 L68.4662302618157,-397.1375795222673 L68.42876040482103,-397.06241573503564 L68.38935218527767,-396.9888034031164 L68.34803869286101,-396.91680433615716 L68.3048546170361,-396.84647898920485 L68.25983621793006,-396.77788641194314 L68.21302129588584,-396.711084199111 L68.16444915972257,-396.64612844214224 L68.11416059372935,-396.5830736820676 L68.06219782342015,-396.5219728637186 L68.00860448007856,-396.4628772912715 L67.95342556412211,-396.40583658516937 L67.89670740731712,-396.3508986404572 L67.83849763387548,-396.2981095865663 L67.7788451204663,-396.24751374858107 L67.71779995517602,-396.19915361002086 " />
			<path d="M1301.7149504817453,-734.8416063139006 L1301.7129224667012,-734.7190606307992 L1301.7068415109595,-734.5971932684976 L1301.6967168779847,-734.4761898744605 L1301.682563991205,-734.3562347800206 L1301.6644044105146,-734.2375107195764 L1301.6422657994333,-734.1201985522226 L1301.6161818829628,-734.004476986237 L1301.5861923962123,-733.8905223068441 L1301.552343023868,-733.77850810767 L1301.5146853305982,-733.6686050262967 L1301.4732766825032,-733.5609804843217 L1301.4281801597247,-733.4557984323133 L1301.3794644603538,-733.3532191000567 L1301.3272037957781,-733.2533987524664 L1301.2714777776318,-733.1564894515392 L1301.212371296519,-733.0626388247093 L1301.1499743926943,-732.9719898399593 L1301.0843821189003,-732.8846805880288 L1301.0156943955676,-732.8008440720528 L1300.9440158586006,-732.7206080049508 L1300.86945569998,-732.6440946148746 L1300.7921275014244,-732.5714204590104 L1300.7121490613638,-732.5026962460216 L1300.629642215492,-732.4380266673996 L1300.5447326511664,-732.3775102379811 L1300.4575497159424,-732.3212391458752 L1300.3682262205296,-732.2692991120279 L1300.2768982364742,-732.2217692596384 L1300.183704888874,-732.1787219936267 L1300.088788144441,-732.1402228903343 L1299.992292595235,-732.1063305976288 L1299.894365238399,-732.0770967455618 " />
			<path d="M1299.894365238399,-732.0770967455618 L1299.7921219400343,-732.0518944584799 L1299.688682246274,-732.0317260413202 L1299.5842134537963,-732.0166241131776 L1299.4788845236774,-732.0066130989352 L1299.3728658081243,-732.0017091897606 L1299.2663287749583,-732.0019203169198 L1299.1594457302945,-732.0072461389492 L1299.0523895398642,-732.0176780422084 " />
			<path d="M1230.3250352275581,-740.3482664437001 L1230.225621662764,-740.3625107103159 L1230.1263467381993,-740.3811233872533 L1230.0273489007488,-740.404078517634 L1229.9287662108763,-740.4313440886784 L1229.8307361500897,-740.4628820763498 L1229.7333954292103,-740.4986484983824 L1229.6368797977198,-740.5385934756175 L1229.5413238544459,-740.5826613015647 L1229.4468608598543,-740.6307905200883 L1229.3536225502053,-740.6829140111137 L1229.261738953837,-740.7389590842312 L1229.171338209831,-740.7988475800686 L1229.082546389312,-740.8624959792911 L1228.995487319631,-740.9298155190755 L1228.9102824116776,-741.0007123168972 L1228.8270504905645,-741.0750875014569 " />
			<path d="M1228.344923058275,-776.9118713220405 L1228.403441866251,-776.979256607399 L1228.4639654205396,-777.0441265296347 L1228.526430578556,-777.1064134117146 L1228.5907721720928,-777.1660522714216 L1228.6569230753075,-777.2229808891485 L1228.7248142747546,-777.27713987281 L1228.7943749413841,-777.3284727198055 L1228.8655325044367,-777.3769258759658 L1228.938212727154,-777.422448791425 L1229.0123397842276,-777.4649939733588 L1229.0878363409065,-777.5045170355306 L1229.1646236336778,-777.5409767446004 L1229.2426215524388,-777.5743350631409 L1229.3217487240727,-777.6045571893219 L1229.4019225973443,-777.6316115932176 L1229.4830595290234,-777.655470049701 " />
			<path d="M1229.4830595290234,-777.655470049701 L1229.585302827388,-777.6806723367829 L1229.6887425211482,-777.7008407539425 L1229.793211313626,-777.7159426820851 L1229.898540243745,-777.7259536963276 L1230.004558959298,-777.7308576055021 L1230.111095992464,-777.7306464783429 L1230.2179790371279,-777.7253206563136 L1230.3250352275581,-777.7148887530543 " />
			<path d="M-2.607090922258564,-441.4606725303768 L66.12026339004733,-433.13008412888524 " />
			<path d="M1230.3250352275581,-777.7148887530542 L1299.0523895398642,-769.3843003515625 " />
			<path d="M66.12026339004731,-433.1300841288853 L66.25090906322043,-433.1104579964045 L66.38123999952369,-433.08329855837917 L66.51094222031584,-433.0486712442745 L66.63970326158646,-433.0066594743231 L66.76721292670899,-432.9573644585587 L66.89316403373161,-432.9009049529918 L67.01725315540548,-432.8374169735168 L67.1391813501676,-432.76705346823695 L67.2586548823171,-432.6899839489997 L67.37538592965042,-432.6063940830274 L67.48909327685007,-432.5164852456287 L67.59950299295708,-432.4204740350681 L67.7063490912946,-432.31859175076124 L67.80937417025311,-432.211083836055 L67.90833003339348,-432.0982092869325 L68.00297828737388,-431.98024002806915 L68.09309091626028,-431.85746025774245 L68.17845083083674,-431.7301657631733 L68.25885239159241,-431.59866320794896 L68.33410190412509,-431.4632693932431 L68.404018085768,-431.32431049461445 L68.46843250231564,-431.1821212762212 L68.5271899737965,-431.03704428434474 L68.58014894831524,-430.8894290221658 L68.62718184306358,-430.73963110778044 L68.66817535167849,-430.5880114174853 L68.70303071720708,-430.4349352163945 L68.73166397002086,-430.2807712784844 L68.7540061301058,-430.12589099818456 L68.77000337324132,-429.9706674956562 L68.77961716066751,-429.8154747179128 L68.78282433192841,-429.6606865379493 " />
			<path d="M1299.0523895398642,-769.3843003515626 L1299.1830352130373,-769.3646742190817 L1299.3133661493405,-769.3375147810565 L1299.4430683701328,-769.3028874669518 L1299.5718294114033,-769.2608756970004 L1299.6993390765258,-769.211580681236 L1299.8252901835485,-769.1551211756691 L1299.9493793052225,-769.091633196194 L1300.0713074999844,-769.0212696909143 L1300.190781032134,-768.944200171677 L1300.3075120794672,-768.8606103057047 L1300.421219426667,-768.770701468306 L1300.531629142774,-768.6746902577454 L1300.6384752411116,-768.5728079734386 L1300.74150032007,-768.4653000587324 L1300.8404561832103,-768.3524255096098 L1300.9351044371908,-768.2344562507465 L1301.0252170660772,-768.1116764804198 L1301.1105769806536,-767.9843819858506 L1301.1909785414093,-767.8528794306262 L1301.2662280539419,-767.7174856159204 L1301.336144235585,-767.5785267172918 L1301.4005586521325,-767.4363374988985 L1301.4593161236135,-767.2912605070221 L1301.512275098132,-767.1436452448431 L1301.5593079928803,-766.9938473304578 L1301.6003015014953,-766.8422276401626 L1301.6351568670239,-766.6891514390718 L1301.6637901198378,-766.5349875011617 L1301.6861322799227,-766.3801072208619 L1301.7021295230581,-766.2248837183334 L1301.7117433104843,-766.0696909405901 L1301.7149504817453,-765.9149027606267 " />
			<path d="M68.78282433192842,-398.58739009122326 L68.78282433192842,-429.66068653794923 " />
			<path d="M1301.7149504817453,-734.8416063139005 L1301.7149504817453,-765.9149027606265 " />
			<path d="M1230.3250352275581,-1139.9744587205817 L1299.0523895398642,-1131.64387031909 " />
			<path d="M68.78282433192844,-798.2135823681048 L68.78170650323291,-798.1225467019694 L68.77835395574715,-798.0318584640085 L68.77276950448565,-797.9415938018984 L68.76495783851281,-797.8518285076542 L68.75492551700573,-797.7626379539897 L68.74268096374671,-797.6740970310293 L68.72823446005007,-797.5862800834259 L68.71159813612938,-797.499260847936 L68.69278596091202,-797.4131123915057 L68.6718137303101,-797.3279070499192 L68.6486990539571,-797.2437163670606 L68.62346134042177,-797.1606110348415 L68.59612178091136,-797.0786608338431 L68.5667033314782,-796.997934574724 L68.53523069374428,-796.9185000404431 L68.50173029416018,-796.8404239293434 L68.46623026181577,-796.7637717991488 L68.42876040482109,-796.6886080119172 L68.38935218527774,-796.614995679998 L68.3480386928611,-796.5429966130387 L68.30485461703618,-796.4726712660864 L68.25983621793014,-796.4040786888247 L68.21302129588594,-796.3372764759926 L68.16444915972266,-796.2723207190238 L68.11416059372945,-796.2092659589491 L68.06219782342026,-796.1481651406001 L68.00860448007867,-796.089069568153 L67.95342556412224,-796.032028862051 L67.89670740731725,-795.9770909173387 L67.8384976338756,-795.9243018634478 L67.77884512046644,-795.8737060254626 L67.71779995517618,-795.8253458869024 " />
			<path d="M1301.7149504817453,-1134.467798590782 L1301.7129224667012,-1134.3452529076806 L1301.7068415109595,-1134.2233855453792 L1301.6967168779847,-1134.102382151342 L1301.682563991205,-1133.9824270569022 L1301.6644044105146,-1133.863702996458 L1301.6422657994333,-1133.7463908291043 L1301.6161818829628,-1133.6306692631185 L1301.5861923962123,-1133.5167145837256 L1301.552343023868,-1133.4047003845515 L1301.5146853305982,-1133.2947973031783 L1301.4732766825032,-1133.187172761203 L1301.4281801597247,-1133.0819907091948 L1301.3794644603538,-1132.979411376938 L1301.3272037957781,-1132.879591029348 L1301.2714777776318,-1132.7826817284208 L1301.212371296519,-1132.688831101591 L1301.1499743926943,-1132.598182116841 L1301.0843821189003,-1132.5108728649102 L1301.0156943955676,-1132.4270363489343 L1300.9440158586006,-1132.3468002818324 L1300.86945569998,-1132.270286891756 L1300.7921275014244,-1132.1976127358919 L1300.7121490613638,-1132.128888522903 L1300.629642215492,-1132.064218944281 L1300.5447326511664,-1132.0037025148627 L1300.4575497159424,-1131.9474314227566 L1300.3682262205296,-1131.8954913889095 L1300.2768982364742,-1131.84796153652 L1300.183704888874,-1131.8049142705083 L1300.088788144441,-1131.7664151672159 L1299.992292595235,-1131.7325228745103 L1299.894365238399,-1131.7032890224432 " />
			<path d="M1299.894365238399,-1131.7032890224432 L1299.7921219400343,-1131.6780867353614 L1299.688682246274,-1131.6579183182016 L1299.5842134537963,-1131.6428163900591 L1299.4788845236774,-1131.6328053758168 L1299.3728658081243,-1131.6279014666422 L1299.2663287749583,-1131.6281125938012 L1299.1594457302945,-1131.6334384158308 L1299.0523895398642,-1131.64387031909 " />
			<path d="M1230.3250352275581,-1139.9744587205814 L1230.2010316798173,-1139.9929039372223 L1230.0772972476998,-1140.0181380907525 L1229.954100462787,-1140.050106417376 L1229.831708689845,-1140.0887395386248 L1229.710387546583,-1140.1339536119267 L1229.5904003272021,-1140.1856505125602 L1229.4720074309885,-1140.2437180466095 L1229.3554657971883,-1140.3080301944492 " />
			<path d="M1228.8744820951108,-1177.0089350435023 L1228.9462033444606,-1177.053411821717 L1229.0193187572763,-1177.0949978163292 L1229.093754405156,-1177.1336509789396 L1229.1694350247833,-1177.1693322265908 L1229.2462840940261,-1177.2020054812863 L1229.3242239093108,-1177.2316377064692 L1229.4031756641898,-1177.2581989404264 L1229.4830595290234,-1177.2816623265824 " />
			<path d="M1229.4830595290234,-1177.2816623265824 L1229.585302827388,-1177.3068646136642 L1229.6887425211482,-1177.327033030824 L1229.793211313626,-1177.3421349589664 L1229.898540243745,-1177.3521459732087 L1230.004558959298,-1177.3570498823833 L1230.111095992464,-1177.3568387552243 L1230.2179790371279,-1177.3515129331947 L1230.3250352275581,-1177.3410810299356 " />
			<path d="M-2.6070909222585428,-841.0868648072584 L66.12026339004734,-832.7562764057667 " />
			<path d="M1230.3250352275581,-1177.3410810299356 L1299.0523895398642,-1169.010492628444 " />
			<path d="M66.12026339004734,-832.7562764057667 L66.25090906322046,-832.7366502732858 L66.38123999952371,-832.7094908352606 L66.51094222031587,-832.6748635211559 L66.63970326158649,-832.6328517512045 L66.76721292670902,-832.5835567354401 L66.89316403373164,-832.5270972298732 L67.01725315540551,-832.4636092503981 L67.13918135016763,-832.3932457451183 L67.25865488231713,-832.3161762258811 L67.37538592965045,-832.2325863599087 L67.4890932768501,-832.1426775225101 L67.59950299295711,-832.0466663119495 L67.70634909129463,-831.9447840276426 L67.80937417025314,-831.8372761129365 L67.90833003339351,-831.7244015638139 L68.0029782873739,-831.6064323049505 L68.09309091626031,-831.4836525346238 L68.17845083083677,-831.3563580400547 L68.25885239159244,-831.2248554848303 L68.33410190412512,-831.0894616701245 L68.40401808576803,-830.9505027714958 L68.46843250231566,-830.8083135531026 L68.52718997379652,-830.6632365612262 L68.58014894831527,-830.5156212990472 L68.62718184306361,-830.3658233846619 L68.66817535167851,-830.2142036943667 L68.70303071720711,-830.0611274932759 L68.73166397002089,-829.9069635553658 L68.75400613010582,-829.752083275066 L68.77000337324135,-829.5968597725375 L68.77961716066754,-829.4416669947942 L68.78282433192844,-829.2868788148307 " />
			<path d="M1299.0523895398642,-1169.010492628444 L1299.1830352130373,-1168.990866495963 L1299.3133661493405,-1168.9637070579377 L1299.4430683701328,-1168.9290797438332 L1299.5718294114033,-1168.8870679738818 L1299.6993390765258,-1168.8377729581173 L1299.8252901835485,-1168.7813134525504 L1299.9493793052225,-1168.7178254730754 L1300.0713074999844,-1168.6474619677956 L1300.190781032134,-1168.5703924485583 L1300.3075120794672,-1168.486802582586 L1300.421219426667,-1168.3968937451873 L1300.531629142774,-1168.3008825346267 L1300.6384752411116,-1168.1990002503198 L1300.74150032007,-1168.0914923356136 L1300.8404561832103,-1167.978617786491 L1300.9351044371908,-1167.8606485276277 L1301.0252170660772,-1167.737868757301 L1301.1105769806536,-1167.610574262732 L1301.1909785414093,-1167.4790717075075 L1301.2662280539419,-1167.3436778928017 L1301.336144235585,-1167.204718994173 L1301.4005586521325,-1167.0625297757797 L1301.4593161236135,-1166.9174527839034 L1301.512275098132,-1166.7698375217244 L1301.5593079928803,-1166.620039607339 L1301.6003015014953,-1166.4684199170438 L1301.6351568670239,-1166.315343715953 L1301.6637901198378,-1166.1611797780429 L1301.6861322799227,-1166.0062994977432 L1301.7021295230581,-1165.8510759952148 L1301.7117433104843,-1165.6958832174714 L1301.7149504817453,-1165.5410950375078 " />
			<path d="M68.78282433192845,-798.2135823681048 L68.78282433192845,-829.2868788148309 " />
			<path d="M1301.7149504817453,-1134.467798590782 L1301.7149504817453,-1165.541095037508 " />
			<path d="M1230.3250352275581,-1539.6006509974627 L1299.0523895398642,-1531.270062595971 " />
			<path d="M68.78282433192847,-1197.8397746449857 L68.78170650323294,-1197.7487389788505 L68.77835395574718,-1197.6580507408896 L68.77276950448568,-1197.5677860787794 L68.76495783851284,-1197.4780207845351 L68.75492551700576,-1197.3888302308708 L68.74268096374672,-1197.3002893079104 L68.72823446005009,-1197.212472360307 L68.7115981361294,-1197.1254531248169 L68.69278596091203,-1197.0393046683866 L68.6718137303101,-1196.9540993268001 L68.6486990539571,-1196.8699086439417 L68.62346134042176,-1196.7868033117225 L68.59612178091135,-1196.704853110724 L68.56670333147818,-1196.624126851605 L68.53523069374425,-1196.544692317324 L68.50173029416015,-1196.4666162062242 L68.46623026181571,-1196.3899640760296 L68.42876040482105,-1196.314800288798 L68.38935218527767,-1196.2411879568788 L68.34803869286102,-1196.1691888899195 L68.3048546170361,-1196.0988635429674 L68.25983621793006,-1196.0302709657055 L68.21302129588582,-1195.9634687528735 L68.16444915972255,-1195.8985129959046 L68.11416059372932,-1195.83545823583 L68.06219782342012,-1195.774357417481 L68.00860448007852,-1195.7152618450339 L67.95342556412209,-1195.6582211389318 L67.89670740731708,-1195.6032831942196 L67.83849763387542,-1195.5504941403287 L67.77884512046624,-1195.4998983023436 L67.71779995517596,-1195.4515381637832 " />
			<path d="M1301.7149504817453,-1534.093990867663 L1301.7129224667012,-1533.9714451845616 L1301.7068415109595,-1533.8495778222602 L1301.6967168779847,-1533.728574428223 L1301.682563991205,-1533.6086193337833 L1301.6644044105146,-1533.489895273339 L1301.6422657994333,-1533.3725831059853 L1301.6161818829628,-1533.2568615399996 L1301.5861923962123,-1533.1429068606067 L1301.552343023868,-1533.0308926614325 L1301.5146853305982,-1532.9209895800593 L1301.4732766825032,-1532.8133650380842 L1301.4281801597247,-1532.7081829860758 L1301.3794644603538,-1532.6056036538191 L1301.3272037957781,-1532.505783306229 L1301.2714777776318,-1532.4088740053019 L1301.212371296519,-1532.315023378472 L1301.1499743926943,-1532.224374393722 L1301.0843821189003,-1532.1370651417913 L1301.0156943955676,-1532.0532286258153 L1300.9440158586006,-1531.9729925587135 L1300.86945569998,-1531.8964791686371 L1300.7921275014244,-1531.823805012773 L1300.7121490613638,-1531.755080799784 L1300.629642215492,-1531.690411221162 L1300.5447326511664,-1531.6298947917437 L1300.4575497159424,-1531.5736236996377 L1300.3682262205296,-1531.5216836657905 L1300.2768982364742,-1531.474153813401 L1300.183704888874,-1531.4311065473894 L1300.088788144441,-1531.392607444097 L1299.992292595235,-1531.3587151513914 L1299.894365238399,-1531.3294812993242 " />
			<path d="M1299.894365238399,-1531.3294812993242 L1299.7921219400343,-1531.3042790122424 L1299.688682246274,-1531.2841105950827 L1299.5842134537963,-1531.2690086669402 L1299.4788845236774,-1531.2589976526979 L1299.3728658081243,-1531.2540937435233 L1299.2663287749583,-1531.2543048706823 L1299.1594457302945,-1531.2596306927119 L1299.0523895398642,-1531.270062595971 " />
			<path d="M1230.3250352275581,-1539.6006509974627 L1230.2009480338568,-1539.6191109635129 L1230.0771305009353,-1539.6443690013566 L1229.953851703559,-1539.6763702213482 L1229.8313795457366,-1539.7150450798565 L1229.709980178524,-1539.7603095303966 L1229.5899174216358,-1539.8120652062742 L1229.4714521901249,-1539.8701996343523 L1229.3548419273723,-1539.934586479473 " />
			<path d="M1229.4037480559114,-1576.8845714016525 L1229.4830595290234,-1576.9078546034634 " />
			<path d="M1229.4830595290234,-1576.9078546034634 L1229.585302827388,-1576.9330568905452 L1229.6887425211482,-1576.953225307705 L1229.793211313626,-1576.9683272358475 L1229.898540243745,-1576.9783382500898 L1230.004558959298,-1576.9832421592644 L1230.111095992464,-1576.9830310321054 L1230.2179790371279,-1576.9777052100758 L1230.3250352275581,-1576.9672733068167 " />
			<path d="M-2.6070909222585215,-1240.7130570841393 L66.12026339004737,-1232.3824686826476 " />
			<path d="M1230.3250352275581,-1576.9672733068167 L1299.0523895398642,-1568.636684905325 " />
			<path d="M66.12026339004737,-1232.3824686826476 L66.25090906322049,-1232.3628425501668 L66.38123999952374,-1232.3356831121414 L66.5109422203159,-1232.301055798037 L66.63970326158652,-1232.2590440280856 L66.76721292670905,-1232.209749012321 L66.89316403373167,-1232.1532895067542 L67.01725315540554,-1232.0898015272792 L67.13918135016766,-1232.0194380219993 L67.25865488231716,-1231.942368502762 L67.37538592965048,-1231.8587786367898 L67.48909327685013,-1231.768869799391 L67.59950299295714,-1231.6728585888304 L67.70634909129465,-1231.5709763045236 L67.80937417025316,-1231.4634683898173 L67.90833003339354,-1231.3505938406947 L68.00297828737394,-1231.2326245818315 L68.09309091626034,-1231.1098448115047 L68.1784508308368,-1230.9825503169357 L68.25885239159247,-1230.8510477617112 L68.33410190412515,-1230.7156539470054 L68.40401808576806,-1230.5766950483767 L68.4684325023157,-1230.4345058299834 L68.52718997379655,-1230.2894288381071 L68.5801489483153,-1230.1418135759282 L68.62718184306364,-1229.9920156615428 L68.66817535167854,-1229.8403959712475 L68.70303071720714,-1229.6873197701568 L68.73166397002092,-1229.5331558322466 L68.75400613010585,-1229.378275551947 L68.77000337324138,-1229.2230520494186 L68.77961716066757,-1229.0678592716752 L68.78282433192847,-1228.9130710917116 " />
			<path d="M1299.0523895398642,-1568.636684905325 L1299.1830352130373,-1568.617058772844 L1299.3133661493405,-1568.5898993348187 L1299.4430683701328,-1568.5552720207143 L1299.5718294114033,-1568.5132602507629 L1299.6993390765258,-1568.4639652349983 L1299.8252901835485,-1568.4075057294315 L1299.9493793052225,-1568.3440177499565 L1300.0713074999844,-1568.2736542446767 L1300.190781032134,-1568.1965847254394 L1300.3075120794672,-1568.112994859467 L1300.421219426667,-1568.0230860220684 L1300.531629142774,-1567.9270748115077 L1300.6384752411116,-1567.825192527201 L1300.74150032007,-1567.7176846124946 L1300.8404561832103,-1567.604810063372 L1300.9351044371908,-1567.4868408045088 L1301.0252170660772,-1567.364061034182 L1301.1105769806536,-1567.236766539613 L1301.1909785414093,-1567.1052639843886 L1301.2662280539419,-1566.9698701696827 L1301.336144235585,-1566.830911271054 L1301.4005586521325,-1566.6887220526608 L1301.4593161236135,-1566.5436450607845 L1301.512275098132,-1566.3960297986055 L1301.5593079928803,-1566.2462318842202 L1301.6003015014953,-1566.0946121939248 L1301.6351568670239,-1565.9415359928341 L1301.6637901198378,-1565.787372054924 L1301.6861322799227,-1565.6324917746242 L1301.7021295230581,-1565.477268272096 L1301.7117433104843,-1565.3220754943525 L1301.7149504817453,-1565.167287314389 " />
			<path d="M68.78282433192847,-1197.839774644986 L68.78282433192847,-1228.913071091712 " />
			<path d="M1301.7149504817453,-1534.0939908676633 L1301.7149504817453,-1565.1672873143893 " />
			<path d="M1230.3250336506637,-1951.8130662865094 L1299.0523879629698,-1943.4824778817258 " />
			<path d="M68.78282302528054,-1610.0525226151742 L68.78170518776496,-1609.9614869066463 L68.77835262948669,-1609.8707986266363 L68.77276816547176,-1609.7805339229233 L68.76495648479944,-1609.6907685876247 L68.75492414666498,-1609.601577993555 L68.7426795748721,-1609.5130370309398 L68.72823305075981,-1609.4252200445303 L68.71159670456954,-1609.3382007711814 L68.69278450525978,-1609.2520522779357 L68.67181224877683,-1609.1668469006722 L68.64869754479153,-1609.0826561833685 L68.623459801913,-1608.9995508180275 L68.59612021139193,-1608.9176005853203 L68.56670172932702,-1608.836874295993 L68.53522905738954,-1608.75743973309 L68.50172862208221,-1608.6793635950373 L68.46622855254978,-1608.6027114396397 L68.42875865695999,-1608.5275476290328 L68.38935039747466,-1608.4539352756422 L68.34803686383205,-1608.3819361891879 L68.30485274556253,-1608.3116108247866 L68.25983430286101,-1608.2430182321893 L68.21301933614053,-1608.176216006199 L68.16444715429256,-1608.1112602383096 L68.1141585416807,-1608.04820546961 L68.06219572389546,-1607.9871046449855 L68.00860233229893,-1607.9280090686632 L67.95342336738909,-1607.8709683611335 L67.89670516101435,-1607.8160304174846 L67.83849533747043,-1607.7632413671884 L67.77884277351185,-1607.712645535365 L67.71779755731183,-1607.6642854055667 " />
			<path d="M1301.7149491750831,-1946.3064062269473 L1301.712921148827,-1946.1838605208702 L1301.7068401805573,-1946.0619931358513 L1301.696715533761,-1945.9409897194505 L1301.6825626318923,-1945.8210346030955 L1301.6644030348757,-1945.7023105212786 L1301.6422644062645,-1945.584998333186 L1301.6161804710987,-1945.469276747186 L1301.5861909645287,-1945.3553220485917 L1301.5523415712858,-1945.2433078311153 L1301.5146838560877,-1945.1334047324235 L1301.4732751850863,-1945.0257801741943 L1301.4281786384795,-1944.920598107075 L1301.3794629144168,-1944.8180187609269 L1301.327202224348,-1944.7181984007366 L1301.2714761799725,-1944.6212890885702 L1301.2123696719618,-1944.5274384519278 L1301.1499727406417,-1944.4367894588536 L1301.0843804388276,-1944.3494802001453 L1301.0156926870259,-1944.2656436789925 L1300.9440141212183,-1944.1854076083641 L1300.8694539334658,-1944.1088942164574 L1300.7921257055684,-1944.0362200605 L1300.7121472360395,-1943.967495849192 L1300.6296403606582,-1943.9028262740562 L1300.5447307668683,-1943.8423098499566 L1300.457547802312,-1943.7860387650246 L1300.3682242777877,-1943.7340987402233 L1300.2768962649307,-1943.6865688987643 L1300.1837028889283,-1943.6435216455745 L1300.0887861165825,-1943.605022556998 L1299.992290540043,-1943.5711302808984 L1299.8943631565428,-1943.5418964473197 " />
			<path d="M1299.8943631565428,-1943.5418964473197 L1299.7921199140858,-1943.5166941994598 L1299.6886802789238,-1943.4965258153745 L1299.5842115474268,-1943.4814239140635 L1299.4788826803563,-1943.471412920335 L1299.3728640296004,-1943.4665090253031 L1299.2663270626563,-1943.4667201602006 L1299.159444085312,-1943.472045983552 L1299.0523879629698,-1943.4824778817256 " />
			<path d="M1230.3250336506637,-1951.813066286509 L1230.2183766401124,-1951.8285200654338 L1230.111890845636,-1951.8490003493366 L1230.0057472080232,-1951.8744742613821 L1229.9001161188019,-1951.9049009085043 " />
			<path d="M1229.9494707623287,-1989.1937517873835 L1230.0429501700426,-1989.1961721392793 L1230.1367826731653,-1989.1946330938474 L1230.2308508189456,-1989.1891365775543 L1230.3250368596719,-1989.179689470542 " />
			<path d="M-2.6070892901310074,-1652.9258058587686 L66.12026502217489,-1644.595217453985 " />
			<path d="M1230.3250368596716,-1989.179689470542 L1299.0523911719777,-1980.8491010657583 " />
			<path d="M66.12026502217488,-1644.5952174539855 L66.2509106950225,-1644.5755913214095 L66.38124163035,-1644.548431883112 L66.51094384951855,-1644.5138045685587 L66.63970488852159,-1644.471792797983 L66.76721455073803,-1644.4224977814204 L66.89316565422307,-1644.3660382748833 L67.01725477173638,-1644.3025502942683 L67.13918296172497,-1644.2321867876815 L67.25865648849948,-1644.1551172669733 L67.37538752986931,-1644.07152739937 L67.48909487053133,-1643.981618560184 L67.59950457954231,-1643.8856073476838 L67.7063506702425,-1643.7837250612902 L67.8093757410408,-1643.6762171443547 L67.9083315955177,-1643.563342592866 L68.00297984035227,-1643.4453733315054 L68.09309245963249,-1643.322593558556 L68.1784523641656,-1643.1952990612454 L68.25885391446491,-1643.063796503167 L68.33410341615341,-1642.9284026855016 L68.40401958659048,-1642.7894437838154 L68.46843399159758,-1642.6472545622735 L68.527191451231,-1642.5021775671648 L68.58015041362397,-1642.3545623016782 L68.62718329599741,-1642.2047643839176 L68.6681767920181,-1642.0531446901878 L68.7030321447635,-1641.900068485611 L68.73166538463589,-1641.745904544172 L68.75400753165245,-1641.591024260309 L68.77000476162405,-1641.4358007541919 L68.77961853582254,-1641.2806079728425 L68.78282569382375,-1641.1258197892646 " />
			<path d="M1299.0523911719777,-1980.8491010657588 L1299.1830368448252,-1980.8294749331828 L1299.3133677801527,-1980.8023154948853 L1299.4430699993213,-1980.767688180332 L1299.5718310383243,-1980.7256764097563 L1299.6993407005407,-1980.6763813931937 L1299.8252918040257,-1980.6199218866566 L1299.9493809215392,-1980.5564339060415 L1300.0713091115276,-1980.4860703994548 L1300.1907826383022,-1980.4090008787466 L1300.307513679672,-1980.3254110111434 L1300.421221020334,-1980.2355021719573 L1300.5316307293451,-1980.1394909594571 L1300.6384768200453,-1980.0376086730635 L1300.7415018908434,-1979.930100756128 L1300.8404577453205,-1979.8172262046394 L1300.935105990155,-1979.6992569432787 L1301.0252186094353,-1979.5764771703293 L1301.1105785139684,-1979.4491826730186 L1301.1909800642677,-1979.3176801149402 L1301.266229565956,-1979.182286297275 L1301.3361457363933,-1979.0433273955887 L1301.4005601414003,-1978.9011381740468 L1301.4593176010337,-1978.7560611789381 L1301.5122765634267,-1978.6084459134515 L1301.5593094458002,-1978.4586479956909 L1301.600302941821,-1978.307028301961 L1301.6351582945663,-1978.1539520973843 L1301.6637915344386,-1977.9997881559452 L1301.6861336814552,-1977.8449078720823 L1301.7021309114268,-1977.6896843659651 L1301.7117446856253,-1977.5344915846158 L1301.7149518436265,-1977.379703401038 " />
			<path d="M68.78282302528052,-1610.0525226151742 L68.78282569382375,-1641.1258197892646 " />
			<path d="M1301.7149491750831,-1946.3064062269475 L1301.7149518436265,-1977.379703401038 " />
			<path d="M67.54522276212666,-1644.111210695353 L67.54522276212666,-1607.4470087933785 " />
			<path d="M67.54522276212663,-1260.0157173034008 L67.54522276212663,-1195.2342606239774 " />
			<path d="M67.54522276212661,-860.3895250265196 L67.54522276212661,-795.6080683470963 " />
			<path d="M67.5452227621266,-460.7633327496381 L67.54522276212658,-395.98187607021475 " />
			<path d="M67.54522276212657,-61.13720045039867 L67.54522276212657,3.6442777260665284 " />
			<path d="M1299.8943677903155,-332.45132034927735 L1299.1808211971322,-332.25671651483805 " />
			<path d="M1229.483057289862,-378.02969232049804 L1227.8163703805762,-377.5751408357661 " />
			<path d="M1299.894365238399,-732.0770967455618 L1228.2597224653211,-712.5403759892679 " />
			<path d="M1229.4830595290236,-777.6554700497009 L1228.3454966358086,-777.3452256242787 " />
			<path d="M1299.894365238399,-1131.7032890224432 L1228.7888492695715,-1112.3108755763994 " />
			<path d="M1229.4830595290236,-1177.2816623265824 L1228.8746234400587,-1177.11572521141 " />
			<path d="M1299.8943652383991,-1531.3294812993245 L1229.3179760738212,-1512.0813751635305 " />
			<path d="M1229.4830595290236,-1576.9078546034634 L1229.4037502443086,-1576.8862247985412 " />
			<path d="M1299.8943631565428,-1943.5418964473197 L1229.8637677471688,-1924.442662046167 " />

       </g>

       <!-- solid lines -->
       <g  stroke="rgb(0,0,0)" fill="none">
			<path d="M-45.04165593348861,-9.61144158186624 L66.12026339004731,3.862730457350232 " />
			<path d="M-45.04165593348853,-1658.0694847240025 L-3.0389219398993674,-1652.978244239931 " />
			<path d="M67.00778370400768,4.66956710640511 L67.1309435937082,4.633146119105004 L67.23906096362056,4.595179076280349 L67.33155199441231,4.555870994882775 L67.37177818486556,4.535780143694869 L67.40791724689156,4.515434133292791 L67.43992037748912,4.494860439386012 L67.46774435891184,4.474086845152923 L67.4913516170302,4.453141403721807 L67.51071027207256,4.432052400287261 L67.52579418167629,4.410848313913238 L67.53658297619104,4.389557779074279 L67.54306208618637,4.368209546986869 L67.54522276212658,4.346832446783162 " />
			<path d="M67.54522276212658,4.346832446783159 L67.54371368777858,4.32896627900334 L67.5391878880504,4.311116962083204 L67.53164963154725,4.293301330989187 L67.52110602813757,4.275536188916209 L67.50756702224726,4.257838291439391 L67.49104538348035,4.240224330710669 L67.44911933670697,4.2053145766026265 L67.39548602432542,4.170938599073377 L67.33034774026477,4.137226057307692 L67.25395017286368,4.1043041081457865 L67.166581478184,4.0722969264736175 L67.06857119314488,4.041325236860516 L66.96028899257652,4.011505858210693 L66.84214329488215,3.9829512631461395 L66.7145797215669,3.9557691537827977 L66.57807941644434,3.930062055500126 L66.4331572308599,3.90592693023625 L66.28035978177665,3.8834548107672804 L66.12026339004734,3.862730457350235 " />
			<path d="M-45.041655933488606,-9.611441581866242 L-45.31117984875637,-9.640744026889966 L-45.59520271296612,-9.66510210655446 L-45.89098923067285,-9.684281239237077 L-46.195690816017674,-9.698096719405697 L-46.506373026166884,-9.706415496433992 L-46.82004382160059,-9.70915745595167 L-47.13368238108885,-9.70629619138967 L-47.44426819385153,-9.69785925828985 L-47.748810148728225,-9.683927908930057 L-48.04437534021393,-9.664636309820276 L-48.32811731394226,-9.640170249605797 L-48.597303479597066,-9.610765349820992 L-48.84934142725098,-9.576704795725146 L-49.081803893690115,-9.53831660907359 L-49.189986747955466,-9.517613651277106 L-49.29245213828577,-9.495970489088897 L-49.38895321658079,-9.473439262782392 L-49.47925750329042,-9.45007425205527 " />
			<path d="M-45.04165593348852,-1658.0694847240025 L-45.31117984875628,-1658.098787169026 L-45.595202712966035,-1658.1231452486907 L-45.890989230672766,-1658.1423243813733 L-46.19569081601759,-1658.156139861542 L-46.5063730261668,-1658.1644586385703 L-46.82004382160051,-1658.167200598088 L-47.13368238108877,-1658.164339333526 L-47.44426819385144,-1658.1559024004262 L-47.74881014872814,-1658.1419710510663 L-48.04437534021385,-1658.1226794519564 L-48.32811731394217,-1658.098213391742 L-48.59730347959698,-1658.0688084919573 L-48.84934142725089,-1658.0347479378613 L-49.08180389369003,-1657.9963597512099 L-49.18998674795538,-1657.9756567934132 L-49.29245213828568,-1657.954013631225 L-49.3889532165807,-1657.9314824049186 L-49.479257503290334,-1657.9081173941915 " />
			<path d="M-49.47925750329044,-9.450074252055265 L-67.00778370400768,-4.669567106405111 " />
			<path d="M-49.479257503290356,-1657.9081173941913 L-67.0077837040076,-1653.1276102485413 " />
			<path d="M-67.00778370400768,-4.66956710640511 L-67.1309435937082,-4.633146119105004 L-67.23906096362056,-4.595179076280349 L-67.33155199441231,-4.555870994882776 L-67.37177818486556,-4.53578014369487 L-67.40791724689154,-4.515434133292792 L-67.43992037748912,-4.494860439386012 L-67.46774435891184,-4.474086845152923 L-67.4913516170302,-4.453141403721807 L-67.51071027207256,-4.432052400287262 L-67.52579418167629,-4.410848313913239 L-67.53658297619104,-4.389557779074279 L-67.54306208618637,-4.368209546986869 L-67.54522276212658,-4.346832446783164 " />
			<path d="M-67.54522276212658,-4.346832446783159 L-67.54371368777858,-4.32896627900334 L-67.5391878880504,-4.311116962083204 L-67.53164963154725,-4.293301330989187 L-67.52110602813757,-4.275536188916209 L-67.50756702224726,-4.257838291439391 L-67.49104538348035,-4.240224330710669 L-67.44911933670697,-4.2053145766026265 L-67.39548602432542,-4.170938599073377 L-67.33034774026477,-4.137226057307692 L-67.25395017286368,-4.104304108145786 L-67.166581478184,-4.0722969264736175 L-67.06857119314488,-4.041325236860516 L-66.96028899257652,-4.011505858210693 L-66.84214329488215,-3.9829512631461395 L-66.7145797215669,-3.9557691537827977 L-66.57807941644434,-3.9300620555001258 L-66.4331572308599,-3.9059269302362494 L-66.28035978177665,-3.8834548107672804 L-66.12026339004731,-3.8627304573502323 " />
			<path d="M-67.0077837040076,-1653.1276102485415 L-67.13094359370811,-1653.0911892612412 L-67.23906096362047,-1653.0532222184167 L-67.33155199441222,-1653.0139141370191 L-67.37177818486548,-1652.9938232858312 L-67.40791724689146,-1652.973477275429 L-67.43992037748903,-1652.9529035815224 L-67.46774435891176,-1652.9321299872893 L-67.49135161703012,-1652.911184545858 L-67.51071027207247,-1652.8900955424235 L-67.5257941816762,-1652.8688914560496 L-67.53658297619096,-1652.8476009212106 L-67.54306208618628,-1652.826252689123 L-67.5452227621265,-1652.8048755889195 " />
			<path d="M-67.5452227621265,-1652.8048755889195 L-67.54306208618628,-1652.7834984887158 L-67.53658297619096,-1652.7621502566283 L-67.5257941816762,-1652.7408597217893 L-67.51071027207247,-1652.7196556354154 L-67.49135161703012,-1652.6985666319808 L-67.46774435891176,-1652.6776211905496 L-67.43992037748905,-1652.6568475963165 L-67.40791724689147,-1652.6362739024098 L-67.37177818486549,-1652.6159278920077 L-67.33155199441222,-1652.5958370408198 L-67.23906096362049,-1652.5565289594222 L-67.13094359370812,-1652.5185619165977 L-67.00778370400761,-1652.4821409292974 " />
			<path d="M-66.12026339004731,-3.862730457350232 L45.04165593348861,9.61144158186624 " />
			<path d="M45.041655933488606,9.611441581866242 L45.31117984875637,9.640744026889966 L45.59520271296613,9.66510210655446 L45.89098923067285,9.684281239237077 L46.195690816017674,9.698096719405697 L46.50637302616689,9.706415496433992 L46.82004382160059,9.70915745595167 L47.13368238108885,9.70629619138967 L47.44426819385153,9.69785925828985 L47.74881014872823,9.683927908930055 L48.04437534021393,9.664636309820276 L48.32811731394226,9.640170249605797 L48.597303479597066,9.610765349820992 L48.84934142725098,9.576704795725146 L49.081803893690115,9.538316609073588 L49.18998674795547,9.517613651277106 L49.29245213828577,9.495970489088897 L49.388953216580795,9.473439262782392 L49.47925750329043,9.450074252055268 " />
			<path d="M67.00778370400768,4.669567106405111 L49.47925750329044,9.450074252055265 " />
			<path d="M1250.149562853341,-346.41750269090113 L1319.0693112338984,-338.0670266495958 " />
			<path d="M1252.3315616401069,-1994.9802632188855 L1321.2513100206643,-1986.6297871775803 " />
			<path d="M1319.9755214559118,-337.2612365281336 L1320.0969654949504,-337.2972452053736 L1320.2035634166562,-337.3347829062373 L1320.2947482897098,-337.37364998988807 L1320.3344060078487,-337.39351769940953 L1320.3700351556845,-337.413639745288 L1320.4015883448674,-337.4339893643081 L1320.4290236082536,-337.4545394905722 L1320.4523044557234,-337.475262791499 L1320.471399922715,-337.4961317041774 L1320.4862846114083,-337.517118472026 L1320.4969387245067,-337.53819518171093 L1320.5033480915654,-337.5593338002716 L1320.505504187842,-337.5805062124058 " />
			<path d="M1320.505504187842,-337.5805062124058 L1320.5040051166918,-337.598421480941 L1320.499461910847,-337.6163237298537 L1320.491878894253,-337.63419592087945 L1320.4812632839603,-337.65202104436094 L1320.4676251832573,-337.669782135437 L1320.4509775720528,-337.6874622901885 L1320.4087200440374,-337.7225125762075 L1320.3546515341488,-337.75703849930136 L1320.2889778298015,-337.7909086521045 L1320.2119488883518,-337.82399412314567 L1320.1238578857487,-337.85616898749083 L1320.0250401006913,-337.88731078602 L1319.915871638541,-337.91730099151266 L1319.796767999847,-337.94602545976824 L1319.66818249893,-337.9733748640443 L1319.5306045385462,-337.99924511115984 L1319.3845577471955,-338.02353773767885 L1319.230597986166,-338.0461602846672 L1319.0693112338986,-338.0670266495958 " />
			<path d="M1322.1575202426773,-1985.8239970561176 L1322.2789642817158,-1985.8600057333576 L1322.3855622034216,-1985.8975434342215 L1322.4767470764752,-1985.936410517872 L1322.5164047946141,-1985.9562782273936 L1322.55203394245,-1985.976400273272 L1322.5835871316328,-1985.9967498922922 L1322.611022395019,-1986.0173000185562 L1322.6343032424888,-1986.038023319483 L1322.6533987094804,-1986.0588922321615 L1322.6682833981738,-1986.0798790000101 L1322.6789375112721,-1986.100955709695 L1322.6853468783308,-1986.1220943282556 L1322.6875029746075,-1986.14326674039 " />
			<path d="M1322.6875029746075,-1986.14326674039 L1322.6860039034573,-1986.1611820089252 L1322.6814606976125,-1986.1790842578378 L1322.6738776810184,-1986.1969564488634 L1322.6632620707258,-1986.214781572345 L1322.6496239700227,-1986.232542663421 L1322.6329763588183,-1986.2502228181725 L1322.5907188308029,-1986.2852731041914 L1322.5366503209143,-1986.3197990272854 L1322.470976616567,-1986.3536691800887 L1322.3939476751173,-1986.3867546511296 L1322.3058566725142,-1986.418929515475 L1322.2070388874567,-1986.450071314004 L1322.0978704253064,-1986.4800615194968 L1321.9787667866124,-1986.5087859877522 L1321.8501812856955,-1986.5361353920284 L1321.7126033253116,-1986.5620056391438 L1321.566556533961,-1986.586298265663 L1321.4125967729315,-1986.6089208126514 L1321.251310020664,-1986.6297871775798 " />
			<path d="M1250.1495628533412,-346.4175026909012 L1249.8793624713057,-346.44688940406473 L1249.5947778676014,-346.4713484389572 L1249.2985497475313,-346.4906442417019 L1248.9935309498271,-346.50459098317026 L1248.6826589722505,-346.5130543486179 L1248.3689276818855,-346.51595283120895 L1248.0553584825614,-346.5132585169717 L1247.744971217082,-346.50499735362496 L1247.4407550844887,-346.4912489006879 L1247.1456398524401,-346.4721455632779 L1246.862467641947,-346.44787131697717 L1246.5939655561942,-346.4186599360473 L1246.3427194170458,-346.38479274205514 L1246.1111488621666,-346.34659589459255 L1246.0034468535341,-346.325987271456 L1245.9014840425896,-346.30443725018114 L1245.8055060666752,-346.28199774665694 L1245.7157441451418,-346.25872281961284 " />
			<path d="M1252.3315616401067,-1994.9802632188853 L1252.0613612580712,-1995.009649932049 L1251.7767766543668,-1995.0341089669412 L1251.4805485342968,-1995.053404769686 L1251.1755297365926,-1995.0673515111544 L1250.864657759016,-1995.075814876602 L1250.550926468651,-1995.078713359193 L1250.2373572693268,-1995.0760190449557 L1249.9269700038474,-1995.0677578816092 L1249.6227538712542,-1995.0540094286719 L1249.3276386392056,-1995.034906091262 L1249.0444664287124,-1995.0106318449614 L1248.7759643429597,-1994.9814204640313 L1248.5247182038113,-1994.9475532700392 L1248.293147648932,-1994.9093564225766 L1248.1854456402996,-1994.8887477994401 L1248.083482829355,-1994.8671977781653 L1247.9875048534407,-1994.844758274641 L1247.8977429319073,-1994.821483347597 " />
			<path d="M1245.7157441451418,-346.2587228196128 L1228.2981772445974,-341.49615848040696 " />
			<path d="M1247.8977429319075,-1994.8214833475968 L1230.480176031363,-1990.058919008391 " />
			<path d="M1228.2981772445974,-341.496158480407 L1228.1767332055588,-341.46014980316704 L1228.070135283853,-341.42261210230333 L1227.9789504107994,-341.3837450186526 L1227.9392926926605,-341.3638773091311 L1227.9036635448247,-341.34375526325266 L1227.8721103556418,-341.32340564423254 L1227.8446750922556,-341.30285551796845 L1227.8213942447858,-341.28213221704164 L1227.8022987777942,-341.26126330436324 L1227.7874140891008,-341.2402765365146 L1227.7767599760025,-341.2191998268297 L1227.7703506089438,-341.19806120826905 L1227.7681945126672,-341.17688879613485 " />
			<path d="M1227.7681945126672,-341.17688879613485 L1227.7696935838173,-341.15897352759964 L1227.7742367896622,-341.1410712786869 L1227.7818198062562,-341.1231990876612 L1227.7924354165489,-341.1053739641797 L1227.806073517252,-341.08761287310364 L1227.8227211284564,-341.06993271835216 L1227.8649786564717,-341.0348824323331 L1227.9190471663603,-341.0003565092393 L1227.9847208707076,-340.9664863564361 L1228.0617498121574,-340.933400885395 L1228.1498408147604,-340.9012260210498 L1228.2486585998179,-340.87008422252063 L1228.3578270619682,-340.840094017028 L1228.4769307006623,-340.8113695487724 L1228.6055162015791,-340.78402014449637 L1228.743094161963,-340.7581498973808 L1228.8891409533137,-340.7338572708618 L1229.0431007143432,-340.7112347238734 L1229.2043874666106,-340.69036835894485 " />
			<path d="M1230.480176031363,-1990.0589190083913 L1230.3587319923245,-1990.0229103311513 L1230.2521340706187,-1989.9853726302874 L1230.160949197565,-1989.946505546637 L1230.1212914794262,-1989.9266378371153 L1230.0856623315904,-1989.9065157912369 L1230.0541091424075,-1989.8861661722167 L1230.0266738790212,-1989.8656160459527 L1230.0033930315515,-1989.8448927450258 L1229.98429756456,-1989.8240238323474 L1229.9694128758665,-1989.8030370644988 L1229.9587587627682,-1989.781960354814 L1229.9523493957095,-1989.7608217362533 L1229.9501932994328,-1989.739649324119 " />
			<path d="M1229.9501932994328,-1989.739649324119 L1229.9522933416426,-1989.7184712786602 L1229.958646729189,-1989.6973157676186 L1229.9692450117846,-1989.676210928764 L1229.984074093242,-1989.6551848324702 L1230.0031142502241,-1989.6342654443793 L1230.0263401584762,-1989.6134805882075 L1230.0537209265078,-1989.5928579087372 L1230.0852201366806,-1989.5724248350484 L1230.1207958936452,-1989.5522085440375 L1230.160400880064,-1989.5322359242698 L1230.2514825467026,-1989.4931275969261 L1230.357980727064,-1989.4553078470876 L1230.4793290202938,-1989.4189778156433 " />
			<path d="M1298.1241358471677,-332.33989231763945 L1298.3943362292032,-332.3105056044759 L1298.6789208329076,-332.28604656958345 L1298.9751489529776,-332.26675076683875 L1299.2801677506818,-332.2528040253704 L1299.5910397282585,-332.2443406599227 L1299.9047710186235,-332.2414421773317 L1300.2183402179476,-332.24413649156895 L1300.528727483427,-332.2523976549157 L1300.8329436160202,-332.26614610785276 L1301.1280588480688,-332.28524944526276 L1301.411231058562,-332.30952369156347 L1301.6797331443147,-332.33873507249336 L1301.930979283463,-332.3726022664855 L1302.1625498383423,-332.4107991139481 L1302.2702518469748,-332.43140773708467 L1302.3722146579194,-332.4529577583595 L1302.4681926338337,-332.4753972618837 L1302.5579545553671,-332.4986721889278 " />
			<path d="M1319.9755214559116,-337.2612365281336 L1302.5579545553671,-332.4986721889278 " />
			<path d="M-2.6070888486523174,-4.467896781577984 L66.1202654660164,3.862691589170925 " />
			<path d="M1230.3250372057723,-340.72248986046446 L1299.0523915204412,-332.3919014897155 " />
			<path d="M67.7178029599085,3.4269990570475155 L67.6308661039109,3.4903382408115777 L67.54148609600416,3.5491904291363214 L67.44980749384771,3.6034604381568434 L67.35597857270425,3.6530604949397354 L67.26015108562842,3.6979103794415558 L67.16248001803105,3.737937554251738 L67.06312333701528,3.7730772819100777 L66.96224173589044,3.8032727296090716 " />
			<path d="M66.96224173589044,3.8032727296090747 L66.85999837427667,3.828475061111771 L66.75655861422076,3.8486435157364456 L66.65208975274984,3.863745474280398 L66.5467607512956,3.8737565117762194 L66.44074196242653,3.8786604369952116 L66.33420485433041,3.878449318634074 L66.22732173349222,3.873123498142498 L66.12026546601642,3.86269158917093 " />
			<path d="M-2.6070888486523107,-4.467896781577982 L-2.737734522199765,-4.4875229138999755 L-2.868065459616106,-4.514682351566021 L-2.9977676822574573,-4.549309665111899 L-3.1265287261089028,-4.5913214343062805 L-3.254038394537669,-4.640616449117379 L-3.3799895055839846,-4.697075953536785 L-3.504078631989323,-4.760563931673081 L-3.6260068321792485,-4.830927435426046 L-3.7454803704398563,-4.907996952952026 L-3.8622114245528314,-4.9915868170328075 L-3.975918779184382,-5.081495652364214 L-4.0863285033576116,-5.177506860686845 L-4.1931746103762375,-5.279389142590263 L-4.29619969860984,-5.386897054733533 L-4.395155571596931,-5.499771601139716 L-4.4898038359719745,-5.617740857139881 L-4.5799164757758835,-5.740520624463437 L-4.66527640176643,-5.867815115896658 L-4.745677974405261,-5.999317667860006 L-4.8209274992615425,-6.134711479187537 L-4.890843693638815,-6.273670374328665 L-4.955258123300889,-6.415859589133635 L-5.014015608244671,-6.560936577329676 L-5.066974596542384,-6.708551835744982 L-5.114007505352559,-6.8583497462924585 L-5.155001028278274,-7.009969432684851 L-5.189856408332195,-7.163045629817324 L-5.218489675850801,-7.317209563723098 L-5.240831850784662,-7.472089839982222 L-5.256829108877417,-7.627313338443279 L-5.266442911333127,-7.782506112102503 L-5.269650097659607,-7.937294287974842 " />
			<path d="M1227.7709907881806,-343.28955526835415 L1227.7456910785813,-343.401258774243 L1227.7236986772346,-343.51356222662133 L1227.7050417834034,-343.6263216269094 L1227.689744319471,-343.7393923918983 L1227.6778259002667,-343.8526295391391 L1227.6693018079159,-343.96588787284264 L1227.6641829722448,-344.07902217005403 L1227.662475956765,-344.19188736686135 " />
			<path d="M-5.26965009765961,-7.93729428797487 L-5.269653129626843,-39.010589911638476 " />
			<path d="M1227.6624759567653,-344.19188736686135 L1227.6624729247983,-375.265182990525 " />
			<path d="M-5.269653129626844,-39.010589911638476 L-5.267625127318722,-39.13313556874294 L-5.261544185801455,-39.255002905341385 L-5.251419568514688,-39.37600627407745 L-5.237266698856406,-39.49596134372548 L-5.219107136687604,-39.614685379992736 L-5.19696854548895,-39.73199752388871 L-5.170884650219441,-39.84771906723781 L-5.140895185941284,-39.96167372491561 L-5.107045837289249,-40.07368790339379 L-5.069388168876691,-40.18359096518496 L-5.027979546744286,-40.291215488784324 L-4.982883050971114,-40.396397523712245 L-4.934167379581243,-40.4989768402692 L-4.88190674389216,-40.598797173622714 L-4.826180755464513,-40.69570646185434 L-4.767074304825348,-40.7895570776041 L-4.704677432149598,-40.880206052959544 L-4.639085190096834,-40.96751529724681 L-4.5703974990122145,-41.05135180739189 L-4.498718994712209,-41.13158787053166 L-4.424158869086982,-41.208101258566096 L-4.346830703762258,-41.28077541435517 L-4.266852297074058,-41.3494996292769 L-4.184345484619874,-41.414169211876 L-4.099435953659665,-41.474685647346284 L-4.012253051649394,-41.53095674760374 L-3.9229295891987936,-41.582896791721865 L-3.8316016377535016,-41.63042665651516 L-3.7384083223097826,-41.673473937071904 L-3.6434916094776213,-41.711973057052624 L-3.546996091215009,-41.74586536858624 L-3.4490687645629112,-41.7750992416116 " />
			<path d="M-3.449068764562888,-41.775099241611606 L-3.3468254029491202,-41.800301573114304 L-3.2433856428932133,-41.82047002773898 L-3.1389167814222945,-41.83557198628293 L-3.0335877799680415,-41.84558302377875 L-2.927568991098984,-41.85048694899774 L-2.821031883002865,-41.850275830636605 L-2.7141487621646734,-41.84495001014503 L-2.6070924946888616,-41.83451810117346 " />
			<path d="M1227.6624729247978,-375.2651829905249 L1227.6648737435148,-375.3984894931746 L1227.6720718960992,-375.5309735710056 L1227.6840544013996,-375.66239630217706 L1227.7007996501616,-375.79252067888126 L1227.722277443996,-375.92111203476327 L1227.748449049841,-376.0479384681188 L1227.7792672698115,-376.17277126010526 L1227.8146765263168,-376.295385287214 " />
			<path d="M-2.607090922258564,-404.09405022102277 L66.12026339004733,-395.7634618195312 " />
			<path d="M67.71779995517602,-396.19915361002086 L67.63086312661392,-396.13581451976376 L67.54148315162615,-396.0769624196475 L67.44980458761009,-396.0226924932569 L67.35597570955252,-395.9730925132649 L67.26014827021926,-395.9282426994749 L67.16247725472002,-395.88821558907824 L67.06312062984549,-395.8530759193375 L66.96223908858207,-395.8228805228845 " />
			<path d="M66.96223908858207,-395.8228805228845 L66.85999579021741,-395.7976782358026 L66.75655609645716,-395.7775098186429 L66.65208730397953,-395.76240789050036 L66.54675837386057,-395.752396876258 L66.44073965830735,-395.7474929670834 L66.33420262514136,-395.7477040942425 L66.2273195804775,-395.75302991627194 L66.12026339004733,-395.7634618195312 " />
			<path d="M-2.607090922258562,-404.0940502210228 L-2.7377365954316866,-404.11367635350365 L-2.868067531734929,-404.14083579152896 L-2.997769752527091,-404.17546310563364 L-3.126530793797712,-404.217474875585 L-3.2540404589202354,-404.26676989134944 L-3.379991565942854,-404.3232293969163 L-3.504080687616736,-404.38671737639135 L-3.626008882378847,-404.4570808816712 L-3.7454824145283556,-404.5341504009084 L-3.8622134618616677,-404.61774026688073 L-3.975920809061324,-404.7076491042794 L-4.086330525168336,-404.80366031484004 L-4.193176623505851,-404.9055425991469 L-4.29620170246436,-405.0130505138531 L-4.395157565604725,-405.1259250629756 L-4.489805819585129,-405.243894321839 L-4.579918448471524,-405.3666740921657 L-4.665278363047988,-405.4939685867348 L-4.745679923803662,-405.62547114195917 L-4.820929436336341,-405.76086495666505 L-4.890845617979252,-405.8998238552937 L-4.955260034526889,-406.0420130736869 L-5.014017506007747,-406.1870900655634 L-5.066976480526484,-406.3347053277423 L-5.114009375274826,-406.48450324212763 L-5.155002883889727,-406.63612293242284 L-5.1898582494183305,-406.78919913351365 L-5.218491502232107,-406.94336307142373 L-5.2408336623170495,-407.09824335172357 L-5.256830905452572,-407.25346685425194 L-5.266444692878769,-407.4086596319953 L-5.269651864139663,-407.5634478119588 " />
			<path d="M1228.8270504905645,-741.0750875014569 L1228.7608057932414,-741.1381557061744 L1228.6960079389908,-741.2034038223434 L1228.6327168629634,-741.270771498341 L1228.5709911066065,-741.3401964220452 L1228.5108877635157,-741.4116143784709 L1228.4524624266264,-741.4849593091657 L1228.395769136792,-741.5601633733113 L1228.3408603327994,-741.6371570104731 L1228.2877868028645,-741.7158690049405 L1228.2365976376566,-741.7962265515986 L1228.18734018489,-741.8781553232692 L1228.1400600055313,-741.9615795394607 L1228.0948008316557,-742.0464220364611 L1228.0516045259985,-742.1326043387116 L1228.0105110432326,-742.2200467313928 L1227.9715583930126,-742.3086683341572 L1227.9347826048183,-742.3983871759401 L1227.9002176946278,-742.4891202707795 L1227.8678956334547,-742.5807836945737 L1227.837846317777,-742.6732926627083 L1227.810097541883,-742.7665616084774 L1227.7846749721634,-742.8605042622297 L1227.7616021233719,-742.9550337311636 L1227.740900336873,-743.0500625796994 L1227.7225887609043,-743.1455029103536 L1227.7066843328637,-743.2412664450394 L1227.6932017636445,-743.3372646067211 L1227.6821535240267,-743.4334086013432 L1227.6735498331439,-743.5296094999611 L1227.6673986490296,-743.6257783209967 L1227.6637056612572,-743.721826112542 L1227.662474285677,-743.8176640346361 " />
			<path d="M-5.269651864139666,-407.5634478119588 L-5.269651864139666,-438.63674425868476 " />
			<path d="M1227.662474285677,-743.817664034636 L1227.662474285677,-774.8909604813621 " />
			<path d="M-5.269651864139663,-438.63674425868487 L-5.267623849095639,-438.7592899417862 L-5.261542893353902,-438.88115730408776 L-5.2514182603792126,-439.0021606981249 L-5.237265373599189,-439.1221157925648 L-5.219105792908937,-439.24083985300894 L-5.196967181827628,-439.3581520203627 L-5.1708832653571,-439.4738735863483 L-5.140893778606641,-439.5878282657412 L-5.107044406262252,-439.6998424649155 L-5.0693867129925705,-439.8097455462886 L-5.027978064897482,-439.9173700882637 L-4.982881542119093,-440.0225521402721 L-4.934165842748168,-440.1251314725288 L-4.881905178172438,-440.22495182011903 L-4.826179160026175,-440.3218611210462 L-4.767072678913286,-440.41571174787606 L-4.704675775088631,-440.50636073262604 L-4.639083501294605,-440.59366998455664 L-4.570395777961897,-440.6775065005326 L-4.4987172409950364,-440.7577425676346 L-4.424157082374581,-440.83425595771087 L-4.346828883818789,-440.906930113575 L-4.266850443758129,-440.97565432656376 L-4.18434359788627,-441.0403239051858 L-4.099434033560847,-441.1008403346043 L-4.012251098336781,-441.1571114267102 L-3.9229276029238234,-441.2090514605575 L-3.8315996188684496,-441.2565813129469 L-3.738406271268377,-441.2996285789587 L-3.6434895268354017,-441.33812768225107 L-3.5469939776294517,-441.37201997495663 L-3.4490666207933334,-441.40125382702365 " />
			<path d="M-3.4490666207933103,-441.40125382702365 L-3.346823322428662,-441.4264561141055 L-3.243383628668404,-441.44662453126523 L-3.1389148361907813,-441.46172645940777 L-3.03358590607182,-441.47173747365014 L-2.9275671905186034,-441.4766413828247 L-2.821030157352612,-441.4764302556656 L-2.714147112688749,-441.4711044336362 L-2.607090922258564,-441.46067253037694 " />
			<path d="M1227.662474285677,-774.8909604813622 L1227.6652619848765,-775.0345768951028 L1227.6736192450371,-775.1772167704337 L1227.6875285660692,-775.3185814196817 L1227.7069608218767,-775.4583748254951 L1227.7318753213467,-775.5963042607032 L1227.7622198935567,-775.7320809012871 L1227.7979309970203,-775.8654204311762 L1227.8389338527438,-775.9960436376059 L1227.8851426008118,-776.1236769957886 L1227.9364604801794,-776.2480532416744 L1227.9927800312878,-776.3689119316011 L1228.0539833210867,-776.4859999876634 L1228.1199421899837,-776.599072227657 L1228.190518520212,-776.7078918784904 L1228.2655645250477,-776.812231071987 L1228.344923058275,-776.9118713220405 " />
			<path d="M-2.6070909222585428,-803.7202424979043 L66.12026339004734,-795.3896540964126 " />
			<path d="M67.71779995517616,-795.8253458869024 L67.63086312661406,-795.7620067966452 L67.54148315162627,-795.703154696529 L67.44980458761019,-795.6488847701384 L67.35597570955261,-795.5992847901464 L67.26014827021935,-795.5544349763563 L67.16247725472009,-795.5144078659597 L67.06312062984553,-795.479268196219 L66.9622390885821,-795.449072799766 " />
			<path d="M66.9622390885821,-795.449072799766 L66.85999579021744,-795.4238705126841 L66.75655609645719,-795.4037020955244 L66.65208730397956,-795.3886001673818 L66.5467583738606,-795.3785891531394 L66.44073965830738,-795.3736852439648 L66.33420262514139,-795.373896371124 L66.22731958047753,-795.3792221931534 L66.12026339004736,-795.3896540964126 " />
			<path d="M-2.6070909222585406,-803.7202424979042 L-2.7377365954316653,-803.7398686303851 L-2.8680675317349076,-803.7670280684104 L-2.99776975252707,-803.801655382515 L-3.1265307937976905,-803.8436671524664 L-3.254040458920214,-803.8929621682308 L-3.3799915659428326,-803.9494216737977 L-3.5040806876167148,-804.0129096532728 L-3.6260088823788257,-804.0832731585525 L-3.7454824145283343,-804.1603426777898 L-3.8622134618616464,-804.2439325437622 L-3.9759208090613027,-804.3338413811608 L-4.086330525168314,-804.4298525917214 L-4.193176623505829,-804.5317348760283 L-4.296201702464339,-804.6392427907344 L-4.395157565604704,-804.752117339857 L-4.489805819585108,-804.8700865987204 L-4.579918448471503,-804.9928663690471 L-4.665278363047967,-805.1201608636162 L-4.745679923803641,-805.2516634188406 L-4.8209294363363195,-805.3870572335464 L-4.890845617979231,-805.5260161321751 L-4.955260034526868,-805.6682053505683 L-5.0140175060077254,-805.8132823424447 L-5.0669764805264625,-805.9608976046237 L-5.114009375274804,-806.110695519009 L-5.155002883889706,-806.2623152093042 L-5.189858249418309,-806.415391410395 L-5.2184915022320855,-806.5695553483051 L-5.240833662317028,-806.724435628605 L-5.256830905452551,-806.8796591311334 L-5.266444692878748,-807.0348519088767 L-5.269651864139641,-807.1896400888402 " />
			<path d="M1229.3554657971883,-1140.3080301944492 L1229.263325284038,-1140.364143173308 L1229.1726728458582,-1140.4241202872754 L1229.0836355395957,-1140.487877473427 L1228.9963381584557,-1140.555325370753 L1228.910903056994,-1140.6263694454044 L1228.8274499796248,-1140.700910123189 L1228.7460958927916,-1140.7788429291352 L1228.666954821027,-1140.8600586339203 L1228.5901376871388,-1140.944443406965 L1228.5157521567426,-1141.0318789759776 L1228.4439024873584,-1141.122242792721 L1228.3746893822856,-1141.2154082047748 L1228.30820984946,-1141.3112446330497 L1228.2445570654863,-1141.4096177548042 L1228.1838202450472,-1141.5103896919095 L1228.1260845158577,-1141.6134192040977 L1228.0714307993544,-1141.7185618869203 L1228.019935697276,-1141.825670374145 L1227.9716713842993,-1141.9345945443001 L1227.9267055068817,-1142.0451817310834 L1227.885101088448,-1142.157276937336 L1227.8469164410576,-1142.2707230522842 L1227.8122050836766,-1142.3853610717433 L1227.781015667165,-1142.501030320975 L1227.7533919060895,-1142.6175686798858 L1227.7293725174534,-1142.7348128102542 L1227.7089911664318,-1142.8525983846594 L1227.6922764191868,-1142.9707603168029 L1227.6792517028293,-1143.0891329928886 L1227.6699352725852,-1143.207550503746 L1227.664340186208,-1143.3258468773645 L1227.662474285677,-1143.4438563115175 " />
			<path d="M-5.269651864139643,-807.1896400888403 L-5.269651864139643,-838.2629365355664 " />
			<path d="M1227.662474285677,-1143.4438563115175 L1227.662474285677,-1174.5171527582436 " />
			<path d="M-5.269651864139643,-838.2629365355662 L-5.267623849095619,-838.3854822186676 L-5.261542893353883,-838.5073495809692 L-5.251418260379193,-838.6283529750062 L-5.237265373599169,-838.7483080694461 L-5.219105792908917,-838.8670321298903 L-5.196967181827609,-838.9843442972441 L-5.17088326535708,-839.1000658632297 L-5.140893778606621,-839.2140205426226 L-5.107044406262233,-839.3260347417968 L-5.069386712992551,-839.43593782317 L-5.027978064897463,-839.543562365145 L-4.982881542119073,-839.6487444171535 L-4.934165842748149,-839.7513237494101 L-4.881905178172419,-839.8511440970003 L-4.826179160026156,-839.9480533979275 L-4.767072678913267,-840.0419040247574 L-4.704675775088612,-840.1325530095074 L-4.639083501294586,-840.2198622614379 L-4.570395777961878,-840.303698777414 L-4.498717240995017,-840.3839348445159 L-4.4241570823745615,-840.4604482345921 L-4.34682888381877,-840.5331223904564 L-4.266850443758109,-840.6018466034451 L-4.184343597886251,-840.6665161820671 L-4.0994340335608275,-840.7270326114856 L-4.012251098336762,-840.7833037035915 L-3.922927602923804,-840.8352437374389 L-3.83159961886843,-840.8827735898283 L-3.7384062712683575,-840.92582085584 L-3.643489526835382,-840.9643199591325 L-3.546993977629432,-840.9982122518379 L-3.449066620793314,-841.0274461039049 " />
			<path d="M-3.4490666207932907,-841.0274461039049 L-3.3468233224286426,-841.0526483909869 L-3.2433836286683846,-841.0728168081465 L-3.1389148361907617,-841.0879187362891 L-3.0335859060718007,-841.0979297505315 L-2.927567190518584,-841.1028336597061 L-2.8210301573525927,-841.1026225325469 L-2.7141471126887295,-841.0972967105175 L-2.6070909222585446,-841.0868648072583 " />
			<path d="M1227.662474285677,-1174.5171527582436 L1227.6637603877084,-1174.614788276328 L1227.6676174513457,-1174.7120176899502 L1227.6740417504186,-1174.8087470692822 L1227.683027078644,-1174.9048829675598 L1227.6945647556204,-1175.000332511361 L1227.708643635214,-1175.0950034903246 L1227.7252501163275,-1175.1888044462337 L1227.7443681560385,-1175.2816447613693 L1227.7659792850989,-1175.3734347460525 L1227.7900626257763,-1175.4640857252905 L1227.8165949120241,-1175.553510124443 L1227.8455505119582,-1175.6416215538245 L1227.8769014526179,-1175.7283348921621 L1227.9106174469907,-1175.8135663688279 L1227.9466659232708,-1175.8972336447678 L1227.9850120563258,-1175.9792558920446 L1228.0256188013402,-1176.0595538719251 L1228.068446929603,-1176.1380500114278 L1228.113455066404,-1176.2146684782645 L1228.1605997310064,-1176.2893352540984 L1228.209835378651,-1176.3619782060516 L1228.2611144445546,-1176.432527156389 L1228.3143873898618,-1176.500913950315 L1228.3696027495023,-1176.5670725218156 L1228.4267071819093,-1176.6309389574815 L1228.4856455205509,-1176.6924515582537 L1228.5463608272244,-1176.7515508990277 L1228.6087944470628,-1176.8081798860628 L1228.6728860651986,-1176.8622838121375 L1228.7385737650318,-1176.9138104094013 L1228.8057940880453,-1176.9627098998674 L1228.8744820951108,-1177.0089350435023 " />
			<path d="M-2.6070909222585215,-1203.3464347747854 L66.12026339004737,-1195.0158463732937 " />
			<path d="M67.71779995517595,-1195.4515381637832 L67.63086312661387,-1195.3881990735263 L67.54148315162611,-1195.3293469734099 L67.44980458761006,-1195.2750770470193 L67.35597570955251,-1195.2254770670274 L67.26014827021928,-1195.1806272532374 L67.16247725472005,-1195.1406001428406 L67.06312062984553,-1195.1054604731 L66.96223908858212,-1195.075265076647 " />
			<path d="M66.96223908858212,-1195.075265076647 L66.85999579021747,-1195.0500627895651 L66.75655609645722,-1195.0298943724054 L66.65208730397958,-1195.0147924442629 L66.54675837386063,-1195.0047814300206 L66.44073965830741,-1194.999877520846 L66.33420262514142,-1195.000088648005 L66.22731958047756,-1195.0054144700346 L66.12026339004738,-1195.0158463732937 " />
			<path d="M-2.6070909222585157,-1203.3464347747854 L-2.7377365954316404,-1203.3660609072663 L-2.8680675317348827,-1203.3932203452916 L-2.997769752527045,-1203.427847659396 L-3.1265307937976656,-1203.4698594293475 L-3.2540404589201892,-1203.519154445112 L-3.3799915659428077,-1203.5756139506789 L-3.50408068761669,-1203.6391019301539 L-3.626008882378801,-1203.7094654354337 L-3.7454824145283094,-1203.786534954671 L-3.8622134618616215,-1203.8701248206432 L-3.975920809061278,-1203.960033658042 L-4.0863305251682895,-1204.0560448686026 L-4.193176623505805,-1204.1579271529095 L-4.296201702464314,-1204.2654350676157 L-4.395157565604679,-1204.3783096167383 L-4.489805819585083,-1204.4962788756015 L-4.579918448471478,-1204.6190586459284 L-4.665278363047942,-1204.7463531404974 L-4.745679923803616,-1204.8778556957218 L-4.820929436336295,-1205.0132495104276 L-4.890845617979206,-1205.1522084090564 L-4.955260034526843,-1205.2943976274496 L-5.014017506007701,-1205.439474619326 L-5.066976480526438,-1205.5870898815049 L-5.1140093752747795,-1205.7368877958902 L-5.155002883889681,-1205.8885074861855 L-5.189858249418284,-1206.0415836872762 L-5.218491502232061,-1206.1957476251864 L-5.240833662317003,-1206.3506279054861 L-5.256830905452526,-1206.5058514080145 L-5.266444692878723,-1206.6610441857579 L-5.269651864139616,-1206.8158323657215 " />
			<path d="M1229.3548419273723,-1539.934586479473 L1229.2627301812022,-1539.990713496352 L1229.1721067188812,-1540.05070249611 L1229.0830985034086,-1540.11446943447 L1228.9958302348318,-1540.181924974283 L1228.9104241755417,-1540.2529746106882 L1228.8269999789832,-1540.327518803514 L1228.7456745220222,-1540.4054531167342 L1228.6665617412013,-1540.4866683647806 L1228.5897724731153,-1540.571050765513 L1228.5154142991296,-1540.6584820996263 L1228.4435913946593,-1540.7488398762762 L1228.3744043832207,-1540.8419975046868 L1228.307950195457,-1540.9378244715053 L1228.2443219333397,-1541.0361865236487 L1228.1836087397337,-1541.1369458563936 L1228.1258956735076,-1541.2399613064385 L1228.071263590367,-1541.345088549673 L1228.0197890295765,-1541.4521803033758 L1227.9715441067285,-1541.5610865325566 L1227.926596412709,-1541.6716546601544 L1227.8850089190037,-1541.783729780797 L1227.8468398894752,-1541.897154877823 L1227.8121427987353,-1542.0117710432608 L1227.780966257228,-1542.1274177004582 L1227.753353943126,-1542.24393282905 L1227.7293445411376,-1542.361153191946 L1227.7089716883104,-1542.4789145640275 L1227.6922639269053,-1542.597051962224 L1227.679244664409,-1542.7153998766546 L1227.6699321407407,-1542.8337925025066 L1227.6643394026978,-1542.952063972326 L1227.662474285677,-1543.0700485883988 " />
			<path d="M-5.26965186413962,-1206.8158323657215 L-5.26965186413962,-1237.8891288124476 " />
			<path d="M1227.662474285677,-1543.0700485883988 L1227.662474285677,-1574.1433450351249 " />
			<path d="M-5.269651864139616,-1237.8891288124473 L-5.2676238490955924,-1238.0116744955487 L-5.261542893353856,-1238.13354185785 L-5.251418260379166,-1238.2545452518873 L-5.237265373599143,-1238.374500346327 L-5.21910579290889,-1238.4932244067713 L-5.196967181827582,-1238.610536574125 L-5.170883265357054,-1238.7262581401108 L-5.1408937786065945,-1238.8402128195037 L-5.107044406262206,-1238.9522270186778 L-5.069386712992524,-1239.062130100051 L-5.027978064897436,-1239.1697546420262 L-4.982881542119046,-1239.2749366940345 L-4.934165842748122,-1239.3775160262912 L-4.881905178172392,-1239.4773363738814 L-4.826179160026129,-1239.5742456748085 L-4.76707267891324,-1239.6680963016383 L-4.704675775088585,-1239.7587452863884 L-4.639083501294559,-1239.846054538319 L-4.570395777961851,-1239.929891054295 L-4.49871724099499,-1240.0101271213969 L-4.424157082374535,-1240.0866405114732 L-4.346828883818743,-1240.1593146673374 L-4.2668504437580825,-1240.2280388803263 L-4.184343597886224,-1240.2927084589483 L-4.099434033560801,-1240.3532248883666 L-4.012251098336735,-1240.4094959804727 L-3.922927602923777,-1240.4614360143198 L-3.8315996188684034,-1240.5089658667093 L-3.738406271268331,-1240.552013132721 L-3.6434895268353555,-1240.5905122360134 L-3.5469939776294055,-1240.624404528719 L-3.449066620793287,-1240.653638380786 " />
			<path d="M-3.449066620793264,-1240.653638380786 L-3.346823322428616,-1240.678840667868 L-3.243383628668358,-1240.6990090850277 L-3.138914836190735,-1240.7141110131702 L-3.033585906071774,-1240.7241220274125 L-2.927567190518557,-1240.729025936587 L-2.821030157352566,-1240.728814809428 L-2.714147112688703,-1240.7234889873985 L-2.607090922258518,-1240.7130570841393 " />
			<path d="M1227.662474285677,-1574.1433450351246 L1227.6644010902044,-1574.262800882332 L1227.6701787150612,-1574.3816167331681 L1227.6797987981074,-1574.4996206216765 L1227.6932474158912,-1574.61664175708 L1227.7105051038006,-1574.7325107709707 L1227.7315468842355,-1574.8470599624434 L1227.7563423027586,-1574.960123540813 L1227.7848554721727,-1575.07153786557 L1227.8170451244616,-1575.1811416832222 L1227.852864670519,-1575.2887763606814 L1227.8922622675775,-1575.394286114859 L1227.9351808942429,-1575.4975182381347 L1227.9815584330233,-1575.5983233193767 L1228.0313277602331,-1575.696555460188 L1228.0844168431436,-1575.7920724860692 L1228.1407488442383,-1575.8847361521941 L1228.2002422324217,-1575.9744123434941 L1228.262810901023,-1576.0609712687683 L1228.3283642924198,-1576.1442876485335 L1228.396807529106,-1576.224240896346 L1228.46804155101,-1576.3007152933294 L1228.5419632588685,-1576.3736001556592 L1228.618465663445,-1576.4427899947584 L1228.6974380403783,-1576.5081846699738 L1228.7787660904382,-1576.5696895335147 L1228.8623321049533,-1576.6272155674374 L1228.9480151361754,-1576.6806795124849 L1229.035691172331,-1576.730003988591 L1229.1252333171074,-1576.7751176068741 L1229.2165119733124,-1576.815955072961 L1229.3093950304471,-1576.8524572814893 L1229.4037480559114,-1576.8845714016525 " />
			<path d="M-2.6070924991386875,-1615.5591826747361 L66.1202618131672,-1607.2285942699525 " />
			<path d="M67.71779755731181,-1607.6642854055667 L67.63086075301987,-1607.6009463979176 L67.5414808071468,-1607.5420943757258 L67.44980227685834,-1607.487824522329 L67.35597343689743,-1607.4382246101695 L67.26014603977457,-1607.393374858839 L67.16247507033331,-1607.3533478053348 L67.06311849508822,-1607.3182081867453 L66.96223700674028,-1607.2880128355466 " />
			<path d="M66.96223700674027,-1607.2880128355466 L66.85999376428325,-1607.2628105876868 L66.75655412912126,-1607.2426422036015 L66.6520853976242,-1607.2275403022904 L66.54675653055381,-1607.217529308562 L66.44073787979768,-1607.21262541353 L66.33420091285363,-1607.2128365484275 L66.22731793550948,-1607.218162371779 L66.12026181316723,-1607.2285942699525 " />
			<path d="M-2.6070924991386812,-1615.5591826747357 L-2.737738171986299,-1615.5788088073116 L-2.868069107313806,-1615.6059682456091 L-2.997771326482355,-1615.6405955601624 L-3.126532365485395,-1615.6826073307382 L-3.254042027701834,-1615.7319023473008 L-3.3799931311868643,-1615.7883618538378 L-3.504082248700178,-1615.8518498344529 L-3.6260104386887635,-1615.9222133410397 L-3.7454839654632885,-1615.9992828617478 L-3.8622150068331074,-1616.082872729351 L-3.9759223474951293,-1616.1727815685372 L-4.086332056506113,-1616.2687927810373 L-4.193178147206305,-1616.370675067431 L-4.296203218004592,-1616.4781829843664 L-4.395159072481492,-1616.591057535855 L-4.489807317316062,-1616.7090267972158 L-4.579919936596287,-1616.831806570165 L-4.665279841129389,-1616.9591010674758 L-4.745681391428703,-1617.0906036255542 L-4.820930893117215,-1617.2259974432195 L-4.890847063554277,-1617.3649563449057 L-4.955261468561373,-1617.5071455664477 L-5.014018928194806,-1617.6522225615563 L-5.066977890587774,-1617.799837827043 L-5.114010772961215,-1617.9496357448036 L-5.155004268981896,-1618.1012554385334 L-5.1898596217273,-1618.2543316431102 L-5.218492861599692,-1618.4084955845492 L-5.240835008616245,-1618.563375868412 L-5.256832238587856,-1618.7185993745293 L-5.26644601278633,-1618.8737921558786 L-5.2696531707875565,-1619.0285803394563 " />
			<path d="M1229.9001161188019,-1951.9049009085043 L1229.7847080881756,-1951.9440350922616 L1229.6703497080284,-1951.9890276390072 L1229.5572631338096,-1952.0397911450946 L1229.4456680503276,-1952.0962269960664 L1229.3357812449829,-1952.1582255582275 L1229.2278161866323,-1952.2256663916196 L1229.121982610899,-1952.2984184839931 L1229.0184861127345,-1952.3763405053135 L1228.9175277470254,-1952.4592810823126 L1228.8193036380178,-1952.547079092551 L1228.7240045983235,-1952.639563977418 L1228.6318157582405,-1952.7365560734625 L1228.5429162061157,-1952.8378669614124 L1228.457478640443,-1952.9432998322027 L1228.3756690343748,-1953.052649869301 L1228.297646313298,-1953.1657046465903 L1228.2235620461022,-1953.2822445410316 L1228.1535601507385,-1953.4020431593112 L1228.0877766146393,-1953.5248677776362 L1228.026339230548,-1953.650479793831 L1227.9693673482636,-1953.7786351908503 L1227.9169716427896,-1953.9090850108146 L1227.8692538993344,-1954.0415758386398 L1227.8263068155798,-1954.17585029433 L1227.788213821605,-1954.311647532969 L1227.7550489178132,-1954.4487037514432 L1227.7268765311758,-1954.586752700915 L1227.7037513900764,-1954.7255262040414 L1227.685718417992,-1954.8647546759441 L1227.6728126462253,-1955.0041676479107 L1227.6650591458517,-1955.1434942928145 L1227.6624729790149,-1955.2824639512296 " />
			<path d="M-5.269653170787558,-1619.0285803394565 L-5.26965050224433,-1650.101877513547 " />
			<path d="M1227.662472979015,-1955.2824639512298 L1227.6624756475585,-1986.3557611253202 " />
			<path d="M-5.269650502244334,-1650.1018775135472 L-5.2676224759881825,-1650.2244232196242 L-5.261541507718583,-1650.3462906046432 L-5.251416860922422,-1650.467294021044 L-5.237263959053451,-1650.5872491373989 L-5.219104362036848,-1650.7059732192158 L-5.196965733425754,-1650.8232854073085 L-5.170881798259801,-1650.9390069933083 L-5.140892291689825,-1651.0529616919027 L-5.107042898447041,-1651.164975909379 L-5.069385183248879,-1651.274879008071 L-5.027976512247496,-1651.3825035663 L-4.982879965640636,-1651.4876856334195 L-4.934164241577956,-1651.5902649795676 L-4.881903551509202,-1651.6900853397578 L-4.826177507133665,-1651.7869946519243 L-4.767070999123124,-1651.8808452885667 L-4.704674067803023,-1651.9714942816408 L-4.639081765988902,-1652.0588035403491 L-4.5703940141869905,-1652.1426400615019 L-4.498715448379601,-1652.2228761321303 L-4.424155260627132,-1652.299389524037 L-4.346827032729567,-1652.3720636799944 L-4.266848563200817,-1652.4407878913025 L-4.184341687819505,-1652.5054574664382 L-4.099432094029551,-1652.5659738905379 L-4.0122491294733,-1652.6222449754698 L-3.922925604948857,-1652.674185000271 L-3.831597592091799,-1652.72171484173 L-3.738404216089466,-1652.76476209492 L-3.643487443743603,-1652.8032611834965 L-3.546991867204214,-1652.837153459596 L-3.4490644837040834,-1652.8663872931747 " />
			<path d="M-3.4490644837040603,-1652.8663872931747 L-3.3468212412470386,-1652.8915895410346 L-3.2433816060850535,-1652.91175792512 L-3.138912874588006,-1652.926859826431 L-3.033584007517601,-1652.9368708201594 L-2.9275653567614777,-1652.9417747151913 L-2.8210283898174224,-1652.9415635802939 L-2.71414541247327,-1652.9362377569423 L-2.6070892901310097,-1652.9258058587689 " />
			<path d="M1227.6624756475585,-1986.3557611253202 L1227.6645036738146,-1986.4783068313973 L1227.6705846420843,-1986.6001742164162 L1227.6807092888805,-1986.721177632817 L1227.6948621907493,-1986.841132749172 L1227.713021787766,-1986.9598568309889 L1227.735160416377,-1987.0771690190816 L1227.761244351543,-1987.1928906050814 L1227.791233858113,-1987.3068453036758 L1227.8250832513559,-1987.4188595211522 L1227.862740966554,-1987.528762619844 L1227.9041496375553,-1987.6363871780732 L1227.9492461841621,-1987.7415692451925 L1227.9979619082249,-1987.8441485913406 L1228.0502225982937,-1987.943968951531 L1228.105948642669,-1988.0408782636973 L1228.1650551506798,-1988.1347289003397 L1228.227452082,-1988.225377893414 L1228.293044383814,-1988.3126871521222 L1228.3617321356157,-1988.3965236732752 L1228.4334107014233,-1988.4767597439034 L1228.5079708891758,-1988.55327313581 L1228.5852991170732,-1988.6259472917675 L1228.665277586602,-1988.6946715030756 L1228.7477844619834,-1988.7593410782113 L1228.8326940557733,-1988.819857502311 L1228.9198770203295,-1988.8761285872429 L1229.009200544854,-1988.9280686120442 L1229.100528557711,-1988.9755984535032 L1229.1937219337133,-1989.018645706693 L1229.2886387060591,-1989.0571447952696 L1229.3851342825985,-1989.091037071369 L1229.4830616660988,-1989.1202709049478 " />
			<path d="M1229.4830616660988,-1989.1202709049478 L1229.5976857650421,-1989.1481658665468 L1229.7137861662256,-1989.169738037104 L1229.8311272209412,-1989.184943631636 L1229.9494707623287,-1989.1937517873835 " />
			<path d="M-45.0416559334886,-9.611441581866242 L-45.04165593348852,-1658.0694847240025 " />
			<path d="M66.12026339004731,3.8627304573502323 L66.12026339004731,3.8626913375383074 " />
			<path d="M66.12026339004731,-60.7485747315233 L66.12026339004733,-395.7634618195312 " />
			<path d="M66.12026339004734,-460.37470746634375 L66.12026339004736,-795.3896540964126 " />
			<path d="M66.12026339004736,-860.0008997432253 L66.12026339004737,-1195.0158463732937 " />
			<path d="M66.12026339004737,-1259.6270920201061 L66.1202633900474,-1607.22859470001 " />
			<path d="M-49.47925750329044,-9.450074252055265 L-49.47925750329036,-1657.9081173941913 " />
			<path d="M-67.00778370400768,-4.669567106405111 L-67.0077837040076,-1653.1276102485413 " />
			<path d="M1250.1495628533414,-346.4175026909012 L1252.3315616401069,-1994.9802632188853 " />
			<path d="M1319.0693112338984,-338.06702664959585 L1321.2513100206638,-1986.62978717758 " />
			<path d="M1245.7157441451418,-346.2587228196128 L1247.8977429319073,-1994.821483347597 " />
			<path d="M1228.2981772445974,-341.49615848040696 L1230.4801760313628,-1990.058919008391 " />
			<path d="M-2.6070888486523156,-4.467896781577986 L1230.325037205773,-340.72248986046446 " />
			<path d="M66.1202654660164,3.8626915891709257 L1298.6674445493088,-332.28691583446346 " />
			<path d="M-5.269650097659609,-7.937294287974867 L1227.6624759567655,-344.19188736686135 " />
			<path d="M-5.269653129626846,-39.010589911638476 L1227.6624729247983,-375.265182990525 " />
			<path d="M-2.6070909222585623,-404.0940502210228 L1228.295795827774,-739.7948375164863 " />
			<path d="M66.12026339004731,-395.7634618195312 L1228.259947833982,-712.710648486059 " />
			<path d="M-5.269651864139666,-407.5634478119588 L1227.6624742856773,-743.8176640346361 " />
			<path d="M-5.269651864139666,-438.6367442586848 L1227.6624742856773,-774.8909604813621 " />
			<path d="M-2.607090922258541,-803.7202424979042 L1228.8249226320243,-1139.5653371036178 " />
			<path d="M66.12026339004734,-795.3896540964126 L1228.7890746382323,-1112.4811480731905 " />
			<path d="M-5.269651864139643,-807.1896400888403 L1227.6624742856773,-1143.4438563115177 " />
			<path d="M-5.269651864139645,-838.2629365355663 L1227.6624742856773,-1174.5171527582436 " />
			<path d="M-2.607090922258516,-1203.3464347747854 L1229.3540494362742,-1539.335836690749 " />
			<path d="M66.12026339004737,-1195.0158463732937 L1229.3182014424824,-1512.2516476603214 " />
			<path d="M-5.26965186413962,-1206.8158323657215 L1227.6624742856773,-1543.0700485883988 " />
			<path d="M-5.26965186413962,-1237.8891288124473 L1227.6624742856773,-1574.1433450351246 " />
			<path d="M-2.607092499138684,-1615.5591826747361 L1229.8998410847635,-1951.6971047923328 " />
			<path d="M66.1202618131672,-1607.2285942699523 L1229.863993115529,-1924.6129343157158 " />
			<path d="M-5.269653170787558,-1619.0285803394568 L1227.6624729790149,-1955.28246395123 " />
			<path d="M-5.269650502244335,-1650.101877513547 L1227.662475647558,-1986.3557611253202 " />
			<path d="M67.54522276212666,-1607.4470087933785 L67.54522276212663,-1260.0157173034008 " />
			<path d="M67.54522276212663,-1195.2342606239774 L67.54522276212661,-860.3895250265196 " />
			<path d="M67.54522276212661,-795.6080683470963 L67.5452227621266,-460.7633327496381 " />
			<path d="M67.54522276212658,-395.98187607021475 L67.54522276212657,-61.13720045039867 " />
			<path d="M67.54522276212657,3.6442777260665284 L67.54522276212657,4.346832446783159 " />
			<path d="M-67.54522276212649,-1652.8048755889192 L-67.54522276212657,-4.346832446783159 " />
			<path d="M1322.6875029746072,-1986.1432667403906 L1320.5055041878418,-337.58050621240585 " />
			<path d="M1229.9501932994326,-1989.7396493241195 L1227.7681945126672,-341.1768887961348 " />
			<path d="M1299.1808211971322,-332.25671651483805 L66.96224173589044,3.8032727296090734 " />
			<path d="M1227.8163703805762,-377.5751408357661 L-3.4490687645628935,-41.7750992416116 " />
			<path d="M1228.2597224653211,-712.5403759892679 L66.96223908858207,-395.8228805228845 " />
			<path d="M1228.3454966358086,-777.3452256242787 L-3.4490666207933103,-441.4012538270236 " />
			<path d="M1228.7888492695715,-1112.3108755763994 L66.9622390885821,-795.4490727997659 " />
			<path d="M1228.8746234400587,-1177.11572521141 L-3.4490666207932907,-841.027446103905 " />
			<path d="M1229.3179760738212,-1512.0813751635305 L66.96223908858212,-1195.0752650766472 " />
			<path d="M1229.4037502443086,-1576.8862247985412 L-3.449066620793264,-1240.653638380786 " />
			<path d="M1229.8637677471688,-1924.442662046167 L66.96223700674025,-1607.2880128355464 " />
			<path d="M1229.4830616660986,-1989.120270904948 L-3.449064483704058,-1652.8663872931747 " />

       </g>
    </g>
    
</svg>
