<?xml version="1.0" encoding="UTF-8" standalone="no"?>
<svg
   xmlns:svg="http://www.w3.org/2000/svg"
   xmlns="http://www.w3.org/2000/svg"
   width="480.0"
   height="480.0"

>
    <g transform="scale(0.1755580328758868, -0.1755580328758868)   translate(2058.1125634199966,-1732.2054682453042)" stroke-width="1.0"  fill="none">
       <!-- hidden lines -->
       <g  stroke="rgb(0,0,0)" fill="none" stroke-dasharray="1.0,1.0" >
			<path d="M-49.04993604904199,1673.3010702273673 L15.831959556423254,1662.0108049545215 " />
			<path d="M20.1833202197838,1661.890615836514 L19.901653340241232,1661.8771922672286 L19.607732644622057,1661.8665023197977 L19.30438874989849,1661.8586489442584 L18.994543023601352,1661.8537077729109 L18.68117944945379,1661.8517263919355 L18.367315889976798,1661.8527238831148 L18.055975022823418,1661.8566906400633 L17.750155230740564,1661.863588460743 L17.4528017255041,1661.87335091537 L17.16677818391941,1661.8858839861698 L16.894839169048332,1661.901066972819 L16.639603602261058,1661.9187536548566 L16.403529541591702,1661.9387736998658 L16.188890509295724,1661.9609343038692 L15.99775359658776,1661.9850220481362 L15.83195955642326,1662.0108049545215 " />
			<path d="M49.049936049041705,1663.4943893799286 L48.93513217117312,1663.4759531991222 L48.807348439424075,1663.4583331770875 L48.667203163033626,1663.441614572114 L48.515374465249735,1663.4258782807904 L48.17965840751503,1663.3976520913218 L47.8066901452244,1663.374200261921 " />
			<path d="M20.183320219783802,1661.890615836514 L47.8066901452244,1663.374200261921 " />
			<path d="M-2000.7551678729515,1562.7827818174724 L-1960.9456338882637,1555.7126553362632 " />
			<path d="M-1956.5995502692297,1555.5910586546338 L-1956.8817996345142,1555.5774489235491 L-1957.1761835715029,1555.5666080992103 L-1957.4798670019559,1555.558640584682 L-1957.7899252884276,1555.5536231114845 L-1958.1033724001245,1555.5516040006275 L-1958.4171896700134,1555.5526026972525 L-1958.7283548662347,1555.556609583365 L-1959.0338712978491,1555.5635860704608 L-1959.3307966746077,1555.5734649711562 L-1959.6162714428165,1555.586151146237 L-1959.8875463244012,1555.6015224209018 L-1960.1420087939582,1555.6194307613732 L-1960.3772082388023,1555.6397037005424 L-1960.5908795597065,1555.6621459989233 L-1960.7809649850462,1555.686541524914 L-1960.9456338882637,1555.7126553362634 " />
			<path d="M-1967.620212911184,1564.6169369174013 L-1967.4597383523474,1564.5914217834834 " />
			<path d="M-1966.7011328747756,-103.74934194517346 L-1926.8915988900878,-110.81946842638254 " />
			<path d="M-1967.4597383523471,1564.5914217834834 L-1927.6502043676594,1557.5212953022742 " />
			<path d="M-1927.6502043676596,1557.5212953022744 L-1927.5588662071825,1557.5037896580043 L-1927.4789623896932,1557.4857516226182 L-1927.4108084923807,1557.4672524366742 L-1927.3546736865567,1557.4483651620267 L-1927.3107796745721,1557.4291643932725 L-1927.2792998142138,1557.4097259631415 L-1927.268255973531,1557.3999415877167 L-1927.2603584340325,1557.3901266429991 L-1927.2556149954046,1557.3802908223229 L-1927.2540303423127,1557.3704438396394 " />
			<path d="M-1927.2540303423127,1557.3704438396394 L-1927.2558074982758,1557.359985757899 L-1927.2611464969357,1557.349537702773 L-1927.2700413922792,1557.3391113102025 L-1927.2824822781108,1557.3287181920034 L-1927.317942666136,1557.3080780278037 L-1927.3673697368429,1557.2877091319194 L-1927.4305433649167,1557.2677022179928 L-1927.5071822042341,1557.2481463875658 L-1927.5969449408485,1557.2291287332632 L-1927.6994318130437,1557.210733950922 L-1927.8141863916883,1557.1930439623957 L-1927.9406976129596,1557.1761375507122 L-1928.0784020543865,1557.16009000921 L-1928.2266864440712,1557.144972806218 L-1928.552309330713,1557.1177942727545 L-1928.9117720363063,1557.0950855737378 " />
			<path d="M-1956.5995502692297,1555.5910586546336 L-1928.9117720363063,1557.0950855737376 " />
			<path d="M17.386014702599603,-3.622536416319968 L17.384397158365292,-3.7675345334833676 L17.379547936812585,-3.9116678730902636 L17.3714771324514,-4.054636396173726 L17.36020154608444,-4.196142488537857 L17.34574464983339,-4.335891580294224 L17.328136538277526,-4.473592759061042 L17.307413865806566,-4.608959375548597 L17.283619770318083,-4.741709640270303 L17.256803783418352,-4.871567210137217 L17.227021727313595,-4.998261763714916 L17.1943355986062,-5.121529563945236 L17.158813439237868,-5.241114007161476 L17.120529194848302,-5.356766157254192 L17.07956256084432,-5.468245263875602 L17.035998816499816,-5.575319263603905 L16.989928647431903,-5.677765263024217 L16.941447956822802,-5.775370002720525 L16.890657665780477,-5.867930301212784 L16.83766350325352,-5.955253477914986 L16.782575785937716,-6.037157754233794 L16.725509188632383,-6.113472631972741 L16.66658250552454,-6.184039248254295 L16.605918402897874,-6.248710706220959 L16.54364316378122,-6.307352380826988 L16.479886425068166,-6.359842199084159 L16.41478090765501,-6.40607089417824 L16.34846214015879,-6.445942232927116 L16.281068176790573,-6.479373216107149 L16.212739309971255,-6.506294251230685 L16.143617778288167,-6.5266492974151 L16.07384747040034,-6.54039598204178 L16.003573625508924,-6.547505688962192 " />
			<path d="M16.003573625508917,-6.547505688962193 L15.960784476544479,-6.548577595813169 L15.917896740840208,-6.5472033628435815 L15.874943238821961,-6.543384041703993 L15.83195684124417,-6.537122555182099 " />
			<path d="M-1925.6033629883798,-107.97541770201273 L-1925.6049805326143,-108.12041581917613 L-1925.6098297541669,-108.26454915878303 L-1925.6179005585282,-108.4075176818665 L-1925.6291761448952,-108.54902377423062 L-1925.6436330411461,-108.68877286598699 L-1925.661241152702,-108.82647404475381 L-1925.681963825173,-108.96184066124137 L-1925.7057579206614,-109.09459092596308 L-1925.7325739075611,-109.22444849582999 L-1925.7623559636659,-109.35114304940768 L-1925.7950420923733,-109.474410849638 L-1925.8305642517416,-109.59399529285425 L-1925.8688484961312,-109.70964744294696 L-1925.9098151301353,-109.82112654956838 L-1925.9533788744798,-109.92820054929668 L-1925.9994490435477,-110.03064654871699 L-1926.0479297341567,-110.1282512884133 L-1926.098720025199,-110.22081158690555 L-1926.151714187726,-110.30813476360775 L-1926.2068019050419,-110.39003903992656 L-1926.2638685023471,-110.46635391766551 L-1926.3227951854549,-110.53692053394707 L-1926.3834592880817,-110.60159199191372 L-1926.4457345271983,-110.66023366651976 L-1926.5094912659113,-110.71272348477693 L-1926.5745967833245,-110.758952179871 L-1926.6409155508206,-110.79882351861988 L-1926.7083095141888,-110.83225450179992 L-1926.7766383810083,-110.85917553692346 L-1926.8457599126914,-110.87953058310787 L-1926.915530220579,-110.89327726773455 L-1926.9858040654706,-110.90038697465496 " />
			<path d="M-1926.9858040654706,-110.90038697465496 L-1927.028593214435,-110.90145888150593 L-1927.0714809501392,-110.90008464853635 L-1927.1144344521576,-110.89626532739676 L-1927.1574208497352,-110.89000384087487 " />
			<path d="M-24.28214927038722,0.443236033842207 L-24.358403251196634,0.4603416709332242 L-24.43447352832669,0.48507907109286075 L-24.510176841816822,0.517388639757391 L-24.585330815753995,0.5571925403459179 L-24.659754397632284,0.6043948817755145 L-24.733268294524215,0.6588819494712403 L-24.805695405013118,0.7205224793145129 L-24.87686124584595,0.7891679738698651 L-24.946594372278764,0.8646530601282798 L-25.014726791102078,0.9467958879052469 L-25.08109436535125,1.03539856793379 L-25.14553720972681,1.1302476485970443 L-25.20790007577212,1.231114630151891 L-25.268032725880538,1.3377565152048598 L-25.325790295230956,1.4499163941141329 L-25.38103364077984,1.5673240639073738 L-25.433629676469025,1.6896966792243548 L-25.48345169384166,1.8167394337161982 L-25.530379667294003,1.9481462702597037 L-25.5743005432276,2.0836006182757583 L-25.615108512405317,2.2227761563755926 L-25.652705264855047,2.365337598497586 L-25.687000226707053,2.510941501640759 L-25.717910778394344,2.659237093249044 L-25.74536245369047,2.8098671162530975 L-25.769289119105153,2.9624686897338703 L-25.789633133205683,3.1166741831345286 L-25.80634548548017,3.272112101914667 L-25.819385914408144,3.428407982513187 L-25.828723004454126,3.585185294463822 L-25.834334261750353,3.742066347490015 L-25.836206168286513,3.8986732013938403 " />
			<path d="M-1967.7907830177942,-103.63623679350552 L-1967.8466918002575,-103.58339105240466 L-1967.901750755335,-103.5263213946543 L-1967.955878531446,-103.46511214272023 L-1968.0089951528603,-103.39985373546705 L-1968.0610221378654,-103.33064259453157 L-1968.111882614725,-103.25758098185635 L-1968.1615014352608,-103.18077684859404 L-1968.2098052858864,-103.1003436756056 L-1968.25672279593,-103.01640030578838 L-1968.3021846430886,-102.92907076848138 L-1968.3461236558524,-102.83848409620752 L-1968.3884749127546,-102.7447741340234 L-1968.4291758382947,-102.64807934175846 L-1968.4681662953951,-102.54854258943567 L-1968.5053886742578,-102.4463109461758 L-1968.5407879774834,-102.34153546289771 L-1968.5743119013314,-102.23437094913504 L-1968.6059109130028,-102.12497574429969 L-1968.6355383238244,-102.01351148372956 L-1968.6631503582344,-101.90014285986662 L-1968.688706218462,-101.78503737891788 L-1968.712168144807,-101.66836511335902 L-1968.733501471432,-101.55029845064608 L-1968.752674677582,-101.43101183850698 L-1968.7696594341576,-101.3106815271886 L-1968.7844306455713,-101.18948530904086 L-1968.7969664868292,-101.06760225582197 L-1968.807248435776,-100.94521245411367 L-1968.8152613004634,-100.82249673923671 L-1968.8209932415966,-100.69963642806029 L-1968.824435790027,-100.57681305109976 L-1968.825583859266,-100.45420808429893 " />
			<path d="M-25.836206168286516,3.898673201393871 L-25.836201411221786,35.35066327681198 " />
			<path d="M-25.836201411221786,35.35066327681197 L-25.834583866987476,35.49566139397537 L-25.82973464543477,35.639794733582264 L-25.821663841073583,35.78276325666573 L-25.810388254706623,35.92426934902986 L-25.795931358455572,36.06401844078623 L-25.77832324689971,36.201719619553046 L-25.75760057442875,36.3370862360406 L-25.733806478940267,36.469836500762305 L-25.706990492040536,36.59969407062922 L-25.67720843593578,36.72638862420692 L-25.644522307228385,36.84965642443724 L-25.60900014786005,36.96924086765348 L-25.570715903470486,37.0848930177462 L-25.529749269466503,37.196372124367606 L-25.486185525122,37.303446124095906 L-25.440115356054086,37.40589212351622 L-25.391634665444986,37.50349686321253 L-25.34084437440266,37.596057161704785 L-25.287850211875703,37.68338033840699 L-25.2327624945599,37.7652846147258 L-25.175695897254567,37.841599492464745 L-25.116769214146725,37.9121661087463 L-25.056105111520058,37.976837566712966 L-24.993829872403403,38.035479241318995 L-24.93007313369035,38.08796905957617 L-24.864967616277195,38.13419775467025 L-24.798648848780974,38.17406909341912 L-24.731254885412756,38.20750007659915 L-24.662926018593442,38.23442111172269 L-24.59380448691035,38.2547761579071 L-24.52403417902253,38.268522842533784 L-24.453760334131115,38.275632549454194 " />
			<path d="M-24.453760334131104,38.2756325494542 L-24.410971185166662,38.276704456305175 L-24.368083449462393,38.27533022333559 L-24.325129947444147,38.271510902196 L-24.282143549866348,38.265249415674106 " />
			<path d="M-1968.8255791022013,-69.00221800888077 L-1968.8239615579669,-68.85721989171738 L-1968.8191123364143,-68.71308655211048 L-1968.811041532053,-68.57011802902701 L-1968.799765945686,-68.42861193666289 L-1968.785309049435,-68.28886284490652 L-1968.7677009378792,-68.1511616661397 L-1968.7469782654082,-68.01579504965214 L-1968.7231841699197,-67.88304478493045 L-1968.69636818302,-67.75318721506353 L-1968.6665861269153,-67.62649266148583 L-1968.6338999982079,-67.5032248612555 L-1968.5983778388395,-67.38364041803926 L-1968.5600935944499,-67.26798826794655 L-1968.5191269604459,-67.15650916132513 L-1968.4755632161014,-67.04943516159683 L-1968.4294930470335,-66.94698916217652 L-1968.3810123564244,-66.84938442248021 L-1968.330222065382,-66.75682412398795 L-1968.2772279028552,-66.66950094728575 L-1968.2221401855393,-66.58759667096695 L-1968.165073588234,-66.511281793228 L-1968.1061469051263,-66.44071517694644 L-1968.0454828024995,-66.37604371897979 L-1967.9832075633828,-66.31740204437375 L-1967.9194508246699,-66.26491222611658 L-1967.8543453072566,-66.2186835310225 L-1967.7880265397605,-66.17881219227363 L-1967.7206325763923,-66.14538120909359 L-1967.6523037095728,-66.11846017397005 L-1967.5831821778897,-66.09810512778564 L-1967.513411870002,-66.08435844315896 L-1967.4431380251106,-66.07724873623854 " />
			<path d="M-1967.4431380251106,-66.07724873623854 L-1967.4003488761462,-66.07617682938758 L-1967.357461140442,-66.07755106235716 L-1967.3145076384235,-66.08137038349675 L-1967.271521240846,-66.08763187001864 " />
			<path d="M-24.282143549866348,38.2652494156741 L15.83196256176504,31.284890826649793 " />
			<path d="M-1967.271521240846,-66.08763187001867 L-1927.1574151292145,-73.06799045904296 " />
			<path d="M15.831962561765044,31.284890826649796 L15.908216542574458,31.26778518955878 L15.984286819704517,31.243047789399142 L16.059990133194646,31.210738220734612 L16.13514410713182,31.170934320146085 L16.20956768901011,31.12373197871649 L16.28308158590204,31.069244911020764 L16.355508696390938,31.00760438117749 L16.426674537223775,30.93895888662214 L16.496407663656587,30.863473800363725 L16.564540082479905,30.781330972586755 L16.63090765672908,30.69272829255821 L16.695350501104635,30.59787921189496 L16.757713367149943,30.49701223034011 L16.81784601725836,30.390370345287145 L16.87560358660878,30.27821046637787 L16.930846932157664,30.16080279658463 L16.983442967846848,30.03843018126765 L17.033264985219482,29.911387426775807 L17.080192958671823,29.7799805902323 L17.124113834605424,29.644526242216244 L17.16492180378314,29.50535070411641 L17.20251855623287,29.362789261994415 L17.236813518084876,29.217185358851243 L17.267724069772168,29.068889767242958 L17.295175745068292,28.918259744238902 L17.319102410482976,28.76565817075813 L17.339446424583507,28.61145267735747 L17.356158776857992,28.456014758577336 L17.369199205785968,28.299718877978815 L17.37853629583195,28.14294156602818 L17.384147553128177,27.986060513001988 L17.386019459664336,27.829453659098142 " />
			<path d="M-1927.1574151292143,-73.06799045904295 L-1927.0811611484048,-73.08509609613397 L-1927.0050908712747,-73.1098334962936 L-1926.9293875577846,-73.14214306495813 L-1926.8542335838474,-73.18194696554666 L-1926.779810001969,-73.22914930697625 L-1926.7062961050772,-73.28363637467199 L-1926.6338689945883,-73.34527690451526 L-1926.5627031537554,-73.41392239907061 L-1926.4929700273226,-73.48940748532902 L-1926.4248376084993,-73.57155031310599 L-1926.35847003425,-73.66015299313453 L-1926.2940271898747,-73.75500207379778 L-1926.2316643238294,-73.85586905535263 L-1926.171531673721,-73.96251094040561 L-1926.1137741043706,-74.07467081931487 L-1926.0585307588217,-74.19207848910811 L-1926.0059347231324,-74.3144511044251 L-1925.9561127057598,-74.44149385891694 L-1925.9091847323075,-74.57290069546045 L-1925.8652638563738,-74.7083550434765 L-1925.824455887196,-74.84753058157634 L-1925.7868591347465,-74.99009202369832 L-1925.7525641728944,-75.1356959268415 L-1925.721653621207,-75.2839915184498 L-1925.694201945911,-75.43462154145384 L-1925.6702752804963,-75.58722311493462 L-1925.6499312663957,-75.74142860833527 L-1925.6332189141212,-75.8968665271154 L-1925.6201784851933,-76.05316240771393 L-1925.6108413951472,-76.20993971966456 L-1925.605230137851,-76.36682077269076 L-1925.6033582313148,-76.52342762659461 " />
			<path d="M17.38601470259961,-3.6225364163199725 L17.38601945966434,27.829453659098135 " />
			<path d="M-1925.6033629883796,-107.97541770201272 L-1925.6033582313148,-76.52342762659461 " />
			<path d="M-24.282146558931643,404.9396740274792 L15.83195955642337,397.9593154081898 " />
			<path d="M-1967.2715241942735,300.58641129480094 L-1927.1574180789187,293.60605267551153 " />
			<path d="M17.386016936194984,400.87390151987586 L17.384399414144262,400.72890341330816 L17.379550215149084,400.5847700841648 L17.37147943367109,400.441801571352 L17.36020387046317,400.30029548900546 L17.345746997595743,400.1605464069545 L17.32813890959549,400.02284523752286 L17.307416260798334,399.8874786299435 L17.283622189046945,399.75472837364777 L17.256806225891744,399.6248708116712 L17.22702419348226,399.4981762653965 L17.1943380883635,399.3749084718325 L17.1588159524192,399.2553240345985 L17.120531731230685,399.1396718897592 L17.07956512014611,399.02819278762007 L17.03600139838056,398.92111879156334 L16.98993125149235,398.81867279496737 L16.941450582605057,398.7210680572145 L16.890660312768293,398.62850775975426 L16.837666170872755,398.5411845831455 L16.782578473556928,398.45928030595763 L16.725511895563578,398.38296542636687 L16.666585231024072,398.3123988072338 L16.60592114616748,398.2477273454029 L16.54364592396922,398.18908566591034 L16.479889201270797,398.13659584173865 L16.414783698917905,398.09036713970016 L16.3484649454786,398.0504957929789 L16.28107099511673,398.0170648008044 L16.212742140207858,397.99014375567384 L16.143620619296023,397.9697886984835 L16.07385032099912,397.9560420018694 L16.003576484479424,397.94893228200124 " />
			<path d="M16.003576484479417,397.94893228200124 L15.960787300414966,397.9478603669827 L15.917899528989604,397.9492345959647 L15.874945990712868,397.95305391729806 L15.831959556423367,397.95931540818975 " />
			<path d="M-1925.603360699147,296.5206387871976 L-1925.6047423771756,296.38660291558045 L-1925.6088849544224,296.25328623930227 L-1925.6157810647398,296.1209258161768 L-1925.62541844577,295.9897570036507 L-1925.6377799607485,295.8600130403015 L-1925.6528436289761,295.7319246311029 L-1925.6705826649047,295.60571953719557 L-1925.690965525766,295.48162217089214 L-1925.7139559676584,295.35985319663746 L-1925.7395131099959,295.2406291386325 L-1925.767591508199,295.124161995821 L-1925.7981412345025,295.0106588649219 L-1925.8311079667353,294.90032157217934 L-1925.8664330849128,294.79334631448444 L-1925.9040537754736,294.689923310506 L-1925.9439031429702,294.59023646245276 L-1925.9859103290212,294.49446302906614 L-1926.0300006383075,294.402773310427 L-1926.076095671392,294.3153303451351 L-1926.124113464127,294.2322896204017 L-1926.1739686333988,294.1537987955682 L-1926.2255725289513,294.07999743954593 L-1926.2788333910214,294.01101678263996 L-1926.3336565135012,293.9469794832016 L-1926.3899444123408,293.88799940952265 L-1926.4475969988891,293.83418143736003 L-1926.5065117578686,293.7856212634501 L-1926.5665839296616,293.74240523534496 L-1926.6277066965915,293.7046101978733 L-1926.6897713728586,293.6723033564981 L-1926.7526675978024,293.64554215781493 L-1926.8162835321396,293.62437418740296 " />
			<path d="M-1926.9858011508627,293.59566954932296 L-1927.028590334927,293.5945976343044 L-1927.0714781063525,293.5959718632864 L-1927.1144316446291,293.5997911846198 L-1927.1574180789187,293.6060526755115 " />
			<path d="M-24.282146558931643,404.9396740274792 L-24.358400540328397,404.95677966459647 L-24.434470819204908,404.9815170647196 L-24.51017413559639,405.013826633285 L-24.58532811358283,405.05363053371207 L-24.659751700648545,405.1008328749181 L-24.733265603853564,405.1553199423289 L-24.805692721766004,405.2169604718265 L-24.876858571114944,405.2856059659762 L-24.94659170713592,405.36109105177 L-25.014724136596346,405.44323387902455 L-25.081091722505963,405.531836558474 L-25.145534579537195,405.6266856385031 L-25.207897459202933,405.7275526193701 L-25.268030123863713,405.8341945036832 L-25.32578770866337,405.9463543818024 L-25.381031070521157,406.06376205075725 L-25.433627123339605,406.1861346651895 L-25.483449158620612,406.3131774187525 L-25.530377150717285,406.44458425432526 L-25.574298045986264,406.58003860133095 L-25.615106035143825,406.7192141383833 L-25.652702808169725,406.8617755794231 L-25.686997791144663,407.0073794814521 L-25.717908364450764,407.1556750719169 L-25.745360061809492,407.3063050937509 L-25.769286749677416,407.4589066660378 L-25.78963078656774,407.6131121582237 L-25.806343161913663,407.76855007577115 L-25.81938361413915,407.924845955122 L-25.828720727652577,408.08162326581294 L-25.834332008529657,408.2385043175705 L-25.836203938703267,408.3951111701998 " />
			<path d="M-25.836203938703264,408.39511117019987 L-25.836203938703264,439.847100988833 " />
			<path d="M-25.836203938703267,439.847100988833 L-25.834586416652545,439.9920990954007 L-25.829737217657367,440.13623242454406 L-25.821666436179374,440.27920093735685 L-25.810390872971453,440.4207070197034 L-25.795934000104026,440.56045610175437 L-25.778325912103774,440.698157271186 L-25.757603263306617,440.8335238787654 L-25.733809191555224,440.9662741350611 L-25.706993228400027,441.09613169703766 L-25.677211195990544,441.22282624331234 L-25.644525090871785,441.34609403687637 L-25.609002954927483,441.46567847411035 L-25.570718733738968,441.58133061894966 L-25.529752122654394,441.6928097210888 L-25.486188400888842,441.7998837171455 L-25.44011825400063,441.9023297137415 L-25.39163758511334,441.99993445149437 L-25.340847315276573,442.0924947489546 L-25.287853173381038,442.1798179255634 L-25.23276547606521,442.26172220275123 L-25.17569889807186,442.338037082342 L-25.116772233532355,442.40860370147504 L-25.05610814867576,442.47327516330597 L-24.9938329264775,442.5319168427985 L-24.93007620377908,442.5844066669702 L-24.864970701426188,442.6306353690087 L-24.798651947986883,442.67050671572997 L-24.731257997625008,442.70393770790446 L-24.66292914271614,442.730858753035 L-24.593807621804306,442.75121381022535 L-24.5240373235074,442.7649605068395 L-24.453763486987715,442.7720702267076 " />
			<path d="M-24.4537634869877,442.7720702267076 L-24.410974302923247,442.77314214172617 L-24.368086531497884,442.77176791274417 L-24.32513299322115,442.7679485914108 L-24.282146558931643,442.7616871005191 " />
			<path d="M-1968.8255815740454,335.4938382561548 L-1968.8239640519946,335.6388363627225 L-1968.8191148529995,335.78296969186584 L-1968.8110440715216,335.92593820467863 L-1968.7997685083135,336.0674442870252 L-1968.785311635446,336.20719336907615 L-1968.767703547446,336.3448945385078 L-1968.7469808986486,336.4802611460872 L-1968.7231868268973,336.6130114023829 L-1968.6963708637422,336.74286896435945 L-1968.6665888313325,336.8695635106341 L-1968.6339027262138,336.99283130419815 L-1968.5983805902697,337.11241574143213 L-1968.560096369081,337.22806788627145 L-1968.5191297579966,337.3395469884106 L-1968.475566036231,337.4466209844673 L-1968.4294958893427,337.5490669810633 L-1968.3810152204555,337.64667171881615 L-1968.3302249506187,337.7392320162764 L-1968.277230808723,337.82655519288517 L-1968.2221431114074,337.908459470073 L-1968.1650765334139,337.9847743496638 L-1968.1061498688744,338.0553409687968 L-1968.045485784018,338.12001243062775 L-1967.9832105618195,338.1786541101203 L-1967.9194538391212,338.231143934292 L-1967.8543483367682,338.2773726363305 L-1967.788029583329,338.31724398305175 L-1967.720635632967,338.35067497522624 L-1967.6523067780583,338.3775960203568 L-1967.5831852571464,338.39795107754713 L-1967.5134149588496,338.41169777416127 L-1967.4431411223297,338.4188074940294 " />
			<path d="M-1967.4431411223297,338.4188074940294 L-1967.4003519382654,338.41987940904795 L-1967.35746416684,338.41850518006595 L-1967.3145106285633,338.4146858587326 L-1967.2715241942738,338.4084243678409 " />
			<path d="M-24.282146558931643,442.761687100519 L15.83195955642337,435.7813284812296 " />
			<path d="M-1967.2715241942735,338.4084243678407 L-1927.1574180789187,331.4280657485513 " />
			<path d="M15.83195955642336,435.78132848122965 L15.908213537820115,435.7642228441124 L15.984283816696625,435.7394854439893 L16.059987133088107,435.70717587542384 L16.135141111074546,435.6673719749968 L16.209564698140262,435.62016963379074 L16.28307860134528,435.56568256637996 L16.35550571925772,435.50404203688237 L16.42667156860666,435.4353965427327 L16.496404704627636,435.35991145693885 L16.564537134088063,435.2777686296843 L16.63090471999768,435.18916595023484 L16.69534757702891,435.0943168702058 L16.75771045669465,434.99344988933876 L16.81784312135543,434.88680800502567 L16.875600706155087,434.77464812690647 L16.930844068012874,434.6572404579516 L16.983440120831325,434.53486784351935 L17.03326215611233,434.40782508995636 L17.080190148209006,434.2764182543836 L17.12411104347798,434.1409639073779 L17.164919032635538,434.0017883703256 L17.20251580566144,433.85922692928574 L17.23681078863638,433.71362302725674 L17.26772136194248,433.56532743679196 L17.29517305930121,433.41469741495797 L17.319099747169133,433.26209584267104 L17.33944378405946,433.10789035048515 L17.35615615940538,432.9524524329377 L17.369196611630866,432.79615655358685 L17.378533725144294,432.6393792428959 L17.384145006021374,432.48249819113835 L17.386016936194984,432.325891338509 " />
			<path d="M-1927.1574180789187,331.4280657485514 L-1927.0811640975219,331.4109601114341 L-1927.0050938186455,331.386222711311 L-1926.929390502254,331.35391314274557 L-1926.8542365242674,331.3141092423185 L-1926.7798129372018,331.26690690111246 L-1926.7062990339969,331.2124198337017 L-1926.6338719160842,331.1507793042041 L-1926.5627060667355,331.0821338100544 L-1926.4929729307144,331.0066487242606 L-1926.424840501254,330.92450589700604 L-1926.3584729153445,330.83590321755656 L-1926.2940300583132,330.7410541375275 L-1926.2316671786473,330.6401871566605 L-1926.1715345139867,330.5335452723474 L-1926.113776929187,330.4213853942282 L-1926.0585335673293,330.30397772527334 L-1926.0059375145106,330.1816051108411 L-1925.9561154792298,330.0545623572781 L-1925.909187487133,329.9231555217053 L-1925.8652665918642,329.78770117469963 L-1925.8244586027065,329.6485256376473 L-1925.7868618296807,329.50596419660747 L-1925.7525668467056,329.36036029457847 L-1925.7216562733995,329.2120647041137 L-1925.6942045760409,329.0614346822797 L-1925.670277888173,328.90883310999277 L-1925.6499338512826,328.7546276178069 L-1925.6332214759366,328.59918970025944 L-1925.6201810237112,328.4428938209086 L-1925.6108439101977,328.28611651021765 L-1925.6052326293207,328.1292354584601 L-1925.603360699147,327.9726286058307 " />
			<path d="M17.386016936194995,400.87390151987586 L17.386016936194995,432.325891338509 " />
			<path d="M-1925.603360699147,296.52063878719764 L-1925.603360699147,327.9726286058308 " />
			<path d="M-24.28214655893168,809.4361506823052 L15.831959556423335,802.4557920630157 " />
			<path d="M-1967.2715241942735,705.0828879496269 L-1927.1574180789187,698.1025293303373 " />
			<path d="M17.38601693619496,805.3703781747021 L17.384399414144237,805.2253800681343 L17.37955021514906,805.081246738991 L17.371479433671066,804.9382782261781 L17.360203870463145,804.7967721438316 L17.345746997595718,804.6570230617807 L17.328138909595467,804.519321892349 L17.30741626079831,804.3839552847696 L17.283622189046916,804.2512050284739 L17.25680622589172,804.1213474664974 L17.227024193482237,803.9946529202227 L17.194338088363477,803.8713851266587 L17.158815952419175,803.7518006894247 L17.12053173123066,803.6361485445854 L17.079565120146086,803.5246694424462 L17.036001398380535,803.4175954463896 L16.989931251492322,803.3151494497936 L16.941450582605032,803.2175447120406 L16.89066031276827,803.1249844145804 L16.83766617087273,803.0376612379716 L16.782578473556903,802.9557569607838 L16.725511895563553,802.879442081193 L16.666585231024047,802.80887546206 L16.605921146167454,802.744204000229 L16.543645923969194,802.6855623207365 L16.479889201270773,802.6330724965648 L16.41478369891788,802.5868437945263 L16.348464945478575,802.546972447805 L16.281070995116703,802.5135414556305 L16.212742140207833,802.4866204105 L16.143620619295998,802.4662653533097 L16.073850320999096,802.4525186566956 L16.0035764844794,802.4454089368273 " />
			<path d="M16.003576484479392,802.4454089368273 L15.96078730041494,802.4443370218088 L15.91789952898958,802.4457112507909 L15.874945990712844,802.4495305721242 L15.831959556423342,802.4557920630159 " />
			<path d="M-1925.603360699147,701.0171154420237 L-1925.6047423771756,700.8830795704066 L-1925.6088849544224,700.7497628941284 L-1925.6157810647398,700.6174024710028 L-1925.62541844577,700.4862336584767 L-1925.6377799607485,700.3564896951275 L-1925.6528436289761,700.228401285929 L-1925.6705826649047,700.1021961920216 L-1925.690965525766,699.9780988257181 L-1925.7139559676584,699.8563298514634 L-1925.7395131099959,699.7371057934585 L-1925.767591508199,699.6206386506469 L-1925.7981412345025,699.5071355197477 L-1925.8311079667353,699.3967982270053 L-1925.8664330849128,699.2898229693103 L-1925.9040537754736,699.1863999653319 L-1925.9439031429704,699.0867131172787 L-1925.9859103290214,698.9909396838921 L-1926.0300006383075,698.8992499652529 L-1926.076095671392,698.811806999961 L-1926.124113464127,698.7287662752276 L-1926.1739686333988,698.6502754503941 L-1926.2255725289513,698.5764740943719 L-1926.2788333910214,698.5074934374659 L-1926.3336565135014,698.4434561380275 L-1926.3899444123408,698.3844760643485 L-1926.4475969988894,698.330658092186 L-1926.5065117578688,698.282097918276 L-1926.5665839296619,698.2388818901709 L-1926.6277066965918,698.2010868526993 L-1926.6897713728588,698.1687800113241 L-1926.7526675978027,698.1420188126409 L-1926.8162835321398,698.120850842229 " />
			<path d="M-24.28214655893168,809.4361506823053 L-24.358400540328432,809.4532563194225 L-24.434470819204943,809.4779937195457 L-24.510174135596426,809.5103032881111 L-24.585328113582865,809.5501071885382 L-24.65975170064858,809.5973095297443 L-24.7332656038536,809.651796597155 L-24.80569272176604,809.7134371266526 L-24.87685857111498,809.7820826208023 L-24.946591707135955,809.8575677065961 L-25.01472413659638,809.9397105338506 L-25.081091722506,810.0283132133002 L-25.14553457953723,810.1231622933292 L-25.207897459202968,810.2240292741961 L-25.26803012386375,810.3306711585093 L-25.325787708663405,810.4428310366285 L-25.381031070521193,810.5602387055833 L-25.43362712333964,810.6826113200157 L-25.483449158620648,810.8096540735786 L-25.53037715071732,810.9410609091514 L-25.5742980459863,811.076515256157 L-25.61510603514386,811.2156907932093 L-25.65270280816976,811.3582522342492 L-25.686997791144698,811.5038561362783 L-25.7179083644508,811.652151726743 L-25.745360061809528,811.802781748577 L-25.769286749677452,811.9553833208639 L-25.789630786567777,812.1095888130499 L-25.8063431619137,812.2650267305972 L-25.819383614139184,812.4213226099481 L-25.828720727652613,812.578099920639 L-25.834332008529692,812.7349809723967 L-25.836203938703303,812.8915878250259 " />
			<path d="M-25.8362039387033,812.8915878250258 L-25.8362039387033,844.3435776436589 " />
			<path d="M-25.8362039387033,844.3435776436589 L-25.834586416652577,844.4885757502267 L-25.8297372176574,844.63270907937 L-25.821666436179406,844.7756775921829 L-25.810390872971485,844.9171836745294 L-25.795934000104058,845.0569327565803 L-25.778325912103806,845.194633926012 L-25.75760326330665,845.3300005335914 L-25.73380919155526,845.4627507898871 L-25.70699322840006,845.5926083518636 L-25.677211195990576,845.7193028981383 L-25.644525090871817,845.8425706917023 L-25.609002954927515,845.9621551289363 L-25.570718733739,846.0778072737756 L-25.529752122654426,846.1892863759148 L-25.486188400888874,846.2963603719714 L-25.440118254000662,846.3988063685674 L-25.391637585113372,846.4964111063204 L-25.340847315276605,846.5889714037806 L-25.28785317338107,846.6762945803894 L-25.232765476065243,846.7581988575772 L-25.175698898071893,846.834513737168 L-25.116772233532387,846.905080356301 L-25.056108148675794,846.969751818132 L-24.99383292647753,847.0283934976245 L-24.93007620377911,847.0808833217963 L-24.86497070142622,847.1271120238347 L-24.798651947986915,847.166983370556 L-24.73125799762504,847.2004143627305 L-24.662929142716173,847.227335407861 L-24.593807621804338,847.2476904650513 L-24.524037323507432,847.2614371616654 L-24.453763486987746,847.2685468815337 " />
			<path d="M-24.453763486987732,847.2685468815337 L-24.41097430292328,847.2696187965522 L-24.368086531497916,847.2682445675702 L-24.32513299322118,847.2644252462368 L-24.282146558931675,847.2581637553451 " />
			<path d="M-1967.4431411223297,742.9152841488553 L-1967.4003519382654,742.9163560638739 L-1967.35746416684,742.9149818348918 L-1967.3145106285633,742.9111625135585 L-1967.2715241942738,742.9049010226668 " />
			<path d="M-24.28214655893168,847.2581637553451 L15.831959556423335,840.2778051360556 " />
			<path d="M-1967.2715241942735,742.9049010226668 L-1927.1574180789187,735.9245424033772 " />
			<path d="M15.831959556423335,840.2778051360557 L15.90821353782009,840.2606994989385 L15.9842838166966,840.2359620988153 L16.059987133088082,840.2036525302499 L16.13514111107452,840.1638486298228 L16.209564698140237,840.1166462886167 L16.283078601345256,840.062159221206 L16.355505719257696,840.0005186917084 L16.426671568606636,839.9318731975587 L16.49640470462761,839.8563881117649 L16.564537134088038,839.7742452845104 L16.630904719997655,839.6856426050608 L16.695347577028887,839.5907935250318 L16.757710456694625,839.4899265441649 L16.817843121355406,839.3832846598517 L16.875600706155062,839.2711247817325 L16.93084406801285,839.1537171127777 L16.983440120831297,839.0313444983453 L17.033262156112304,838.9043017447824 L17.08019014820898,838.7728949092096 L17.124111043477956,838.637440562204 L17.164919032635513,838.4982650251517 L17.202515805661417,838.3557035841118 L17.236810788636355,838.2100996820827 L17.267721361942456,838.061804091618 L17.295173059301185,837.911174069784 L17.31909974716911,837.7585724974971 L17.339443784059434,837.6043670053111 L17.356156159405355,837.4489290877638 L17.36919661163084,837.2926332084129 L17.37853372514427,837.135855897722 L17.38414500602135,836.9789748459643 L17.38601693619496,836.8223679933351 " />
			<path d="M-1927.1574180789187,735.9245424033774 L-1927.0811640975219,735.9074367662602 L-1927.0050938186455,735.882699366137 L-1926.929390502254,735.8503897975716 L-1926.8542365242674,735.8105858971445 L-1926.7798129372018,735.7633835559384 L-1926.7062990339969,735.7088964885277 L-1926.6338719160842,735.6472559590301 L-1926.5627060667355,735.5786104648804 L-1926.4929729307144,735.5031253790866 L-1926.424840501254,735.420982551832 L-1926.3584729153445,735.3323798723825 L-1926.2940300583132,735.2375307923535 L-1926.2316671786473,735.1366638114865 L-1926.1715345139867,735.0300219271734 L-1926.113776929187,734.9178620490542 L-1926.0585335673293,734.8004543800994 L-1926.0059375145106,734.678081765667 L-1925.9561154792298,734.5510390121041 L-1925.909187487133,734.4196321765313 L-1925.8652665918642,734.2841778295257 L-1925.8244586027065,734.1450022924734 L-1925.7868618296807,734.0024408514334 L-1925.7525668467056,733.8568369494044 L-1925.7216562733995,733.7085413589397 L-1925.6942045760409,733.5579113371057 L-1925.670277888173,733.4053097648188 L-1925.6499338512826,733.2511042726328 L-1925.6332214759366,733.0956663550854 L-1925.6201810237112,732.9393704757346 L-1925.6108439101977,732.7825931650436 L-1925.6052326293207,732.625712113286 L-1925.603360699147,732.4691052606568 " />
			<path d="M17.386016936194963,805.3703781747018 L17.386016936194963,836.822367993335 " />
			<path d="M-1925.603360699147,701.0171154420235 L-1925.603360699147,732.4691052606566 " />
			<path d="M-24.28214655893171,1213.932627337131 L15.831959556423303,1206.9522687178417 " />
			<path d="M17.38601693619492,1209.8668548295277 L17.384399414144198,1209.72185672296 L17.37955021514902,1209.5777233938165 L17.371479433671027,1209.4347548810038 L17.360203870463106,1209.2932487986573 L17.34574699759568,1209.1534997166063 L17.328138909595427,1209.0157985471747 L17.30741626079827,1208.8804319395954 L17.28362218904688,1208.7476816832996 L17.25680622589168,1208.6178241213229 L17.227024193482197,1208.4911295750483 L17.194338088363438,1208.3678617814844 L17.158815952419136,1208.2482773442503 L17.12053173123062,1208.132625199411 L17.079565120146047,1208.0211460972719 L17.036001398380495,1207.9140721012152 L16.989931251492287,1207.811626104619 L16.941450582604993,1207.7140213668663 L16.89066031276823,1207.621461069406 L16.83766617087269,1207.5341378927972 L16.782578473556864,1207.4522336156094 L16.725511895563514,1207.3759187360185 L16.66658523102401,1207.3053521168856 L16.605921146167415,1207.2406806550548 L16.543645923969155,1207.1820389755621 L16.479889201270733,1207.1295491513904 L16.41478369891784,1207.083320449352 L16.348464945478536,1207.0434491026308 L16.281070995116664,1207.0100181104563 L16.212742140207794,1206.9830970653256 L16.14362061929596,1206.9627420081354 L16.073850320999057,1206.9489953115212 L16.00357648447936,1206.941885591653 " />
			<path d="M16.003576484479353,1206.941885591653 L15.960787300414902,1206.9408136766344 L15.91789952898954,1206.9421879056165 L15.874945990712805,1206.9460072269499 L15.831959556423303,1206.9522687178417 " />
			<path d="M-1925.603360699147,1105.5135920968494 L-1925.6047423771756,1105.3795562252324 L-1925.6088849544224,1105.2462395489542 L-1925.6157810647398,1105.1138791258286 L-1925.62541844577,1104.9827103133027 L-1925.6377799607485,1104.8529663499535 L-1925.6528436289761,1104.7248779407548 L-1925.6705826649047,1104.5986728468476 L-1925.690965525766,1104.4745754805442 L-1925.7139559676584,1104.3528065062897 L-1925.7395131099959,1104.2335824482848 L-1925.7675915081988,1104.1171153054731 L-1925.7981412345023,1104.003612174574 L-1925.831107966735,1103.8932748818315 L-1925.8664330849126,1103.7862996241367 L-1925.9040537754734,1103.6828766201584 L-1925.94390314297,1103.583189772105 L-1925.985910329021,1103.4874163387185 L-1926.0300006383072,1103.3957266200794 L-1926.0760956713916,1103.3082836547874 L-1926.1241134641266,1103.225242930054 L-1926.1739686333983,1103.1467521052205 L-1926.2255725289508,1103.0729507491983 L-1926.278833391021,1103.0039700922923 L-1926.3336565135007,1102.9399327928538 L-1926.3899444123401,1102.880952719175 L-1926.4475969988887,1102.8271347470122 L-1926.5065117578679,1102.7785745731023 L-1926.5665839296612,1102.735358544997 L-1926.6277066965908,1102.6975635075255 L-1926.6897713728579,1102.66525666615 L-1926.7526675978017,1102.638495467467 L-1926.8162835321386,1102.617327497055 " />
			<path d="M-24.282146558931707,1213.932627337131 L-24.35840054032846,1213.949732974248 L-24.43447081920497,1213.9744703743713 L-24.510174135596454,1214.0067799429366 L-24.585328113582893,1214.0465838433636 L-24.65975170064861,1214.0937861845698 L-24.733265603853628,1214.1482732519805 L-24.805692721766068,1214.209913781478 L-24.876858571115008,1214.278559275628 L-24.946591707135983,1214.3540443614215 L-25.01472413659641,1214.436187188676 L-25.081091722506027,1214.5247898681257 L-25.14553457953726,1214.6196389481547 L-25.207897459202997,1214.7205059290218 L-25.268030123863777,1214.8271478133347 L-25.325787708663434,1214.939307691454 L-25.38103107052122,1215.0567153604088 L-25.43362712333967,1215.1790879748412 L-25.483449158620676,1215.3061307284042 L-25.53037715071735,1215.4375375639768 L-25.57429804598633,1215.5729919109826 L-25.61510603514389,1215.712167448035 L-25.65270280816979,1215.8547288890747 L-25.686997791144726,1216.0003327911038 L-25.717908364450828,1216.1486283815686 L-25.745360061809556,1216.2992584034025 L-25.76928674967748,1216.4518599756893 L-25.789630786567805,1216.6060654678754 L-25.806343161913727,1216.7615033854229 L-25.819383614139213,1216.9177992647735 L-25.82872072765264,1217.0745765754646 L-25.83433200852972,1217.2314576272222 L-25.83620393870333,1217.3880644798514 " />
			<path d="M-25.836203938703335,1217.3880644798517 L-25.836203938703335,1248.8400542984848 " />
			<path d="M-25.83620393870333,1248.8400542984846 L-25.83458641665261,1248.9850524050523 L-25.82973721765743,1249.1291857341957 L-25.821666436179438,1249.2721542470085 L-25.810390872971517,1249.413660329355 L-25.79593400010409,1249.553409411406 L-25.77832591210384,1249.6911105808376 L-25.75760326330668,1249.826477188417 L-25.733809191555288,1249.9592274447127 L-25.70699322840009,1250.0890850066894 L-25.67721119599061,1250.215779552964 L-25.64452509087185,1250.3390473465279 L-25.609002954927547,1250.458631783762 L-25.57071873373903,1250.5742839286013 L-25.529752122654457,1250.6857630307404 L-25.486188400888906,1250.792837026797 L-25.440118254000694,1250.8952830233932 L-25.391637585113404,1250.992887761146 L-25.340847315276637,1251.0854480586063 L-25.2878531733811,1251.1727712352151 L-25.232765476065275,1251.2546755124029 L-25.175698898071925,1251.3309903919937 L-25.11677223353242,1251.4015570111267 L-25.056108148675825,1251.4662284729575 L-24.993832926477562,1251.5248701524501 L-24.930076203779144,1251.577359976622 L-24.86497070142625,1251.6235886786603 L-24.798651947986947,1251.6634600253815 L-24.73125799762507,1251.696891017556 L-24.662929142716205,1251.7238120626866 L-24.59380762180437,1251.744167119877 L-24.524037323507464,1251.757913816491 L-24.45376348698778,1251.7650235363592 " />
			<path d="M-24.453763486987764,1251.7650235363592 L-24.41097430292331,1251.7660954513779 L-24.368086531497948,1251.7647212223958 L-24.325132993221214,1251.7609019010624 L-24.282146558931707,1251.7546404101706 " />
			<path d="M-24.28214655893171,1251.7546404101709 L15.831959556423303,1244.7742817908816 " />
			<path d="M-1967.2715241942735,1147.4013776774925 L-1927.1574180789187,1140.4210190582032 " />
			<path d="M15.831959556423296,1244.7742817908813 L15.908213537820052,1244.7571761537642 L15.98428381669656,1244.732438753641 L16.059987133088043,1244.7001291850756 L16.135141111074482,1244.6603252846487 L16.2095646981402,1244.6131229434425 L16.283078601345217,1244.5586358760318 L16.355505719257657,1244.4969953465343 L16.426671568606597,1244.4283498523844 L16.496404704627572,1244.3528647665908 L16.564537134088,1244.2707219393362 L16.630904719997616,1244.1821192598866 L16.695347577028848,1244.0872701798576 L16.757710456694586,1243.9864031989905 L16.817843121355367,1243.8797613146776 L16.875600706155023,1243.7676014365584 L16.93084406801281,1243.6501937676035 L16.98344012083126,1243.527821153171 L17.033262156112265,1243.400778399608 L17.080190148208942,1243.2693715640355 L17.124111043477917,1243.1339172170296 L17.164919032635474,1242.9947416799773 L17.202515805661378,1242.8521802389375 L17.236810788636316,1242.7065763369085 L17.267721361942417,1242.5582807464436 L17.295173059301145,1242.4076507246098 L17.31909974716907,1242.255049152323 L17.339443784059394,1242.100843660137 L17.356156159405316,1241.9454057425894 L17.3691966116308,1241.7891098632388 L17.37853372514423,1241.6323325525477 L17.38414500602131,1241.47545150079 L17.38601693619492,1241.3188446481608 " />
			<path d="M-1927.1574180789187,1140.421019058203 L-1927.0811640975219,1140.403913421086 L-1927.0050938186455,1140.3791760209626 L-1926.929390502254,1140.3468664523973 L-1926.8542365242674,1140.3070625519704 L-1926.7798129372018,1140.2598602107641 L-1926.7062990339969,1140.2053731433534 L-1926.6338719160842,1140.143732613856 L-1926.5627060667355,1140.075087119706 L-1926.4929729307144,1139.9996020339124 L-1926.424840501254,1139.917459206658 L-1926.3584729153445,1139.8288565272082 L-1926.2940300583132,1139.7340074471792 L-1926.2316671786473,1139.6331404663122 L-1926.1715345139867,1139.5264985819992 L-1926.113776929187,1139.41433870388 L-1926.0585335673293,1139.2969310349251 L-1926.0059375145106,1139.1745584204928 L-1925.9561154792298,1139.0475156669297 L-1925.909187487133,1138.9161088313572 L-1925.8652665918642,1138.7806544843513 L-1925.8244586027065,1138.641478947299 L-1925.7868618296807,1138.4989175062592 L-1925.7525668467056,1138.3533136042302 L-1925.7216562733995,1138.2050180137653 L-1925.6942045760409,1138.0543879919314 L-1925.670277888173,1137.9017864196446 L-1925.6499338512826,1137.7475809274586 L-1925.6332214759366,1137.592143009911 L-1925.6201810237112,1137.4358471305604 L-1925.6108439101977,1137.2790698198694 L-1925.6052326293207,1137.1221887681118 L-1925.603360699147,1136.9655819154825 " />
			<path d="M17.386016936194924,1209.8668548295277 L17.386016936194924,1241.3188446481608 " />
			<path d="M-1925.603360699147,1105.5135920968494 L-1925.603360699147,1136.9655819154825 " />
			<path d="M-24.28214401563693,1631.1690538064431 L15.831962099718075,1624.188695183822 " />
			<path d="M17.38601905386123,1627.1032812725048 L17.38440155141,1626.958283175256 L17.37955237234331,1626.8141498553134 L17.37148161108015,1626.6711813515296 L17.36020606832941,1626.529675277988 L17.345749216116236,1626.3899262044654 L17.328141148920874,1626.2522250432346 L17.30741852103174,1626.1168584434786 L17.28362447024304,1625.9841081945804 L17.256808528055902,1625.8542506395286 L17.22702651656981,1625.7275560996602 L17.194340432279123,1625.6042883119408 L17.158818317016433,1625.484703879948 L17.120534116311553,1625.3690517397074 L17.079567525460877,1625.257572641487 L17.036003823627617,1625.1504986486345 L16.989933696318207,1625.0480526544961 L16.941453046604508,1624.9504479184245 L16.89066279548466,1624.8578876218426 L16.837668671798298,1624.7705644452851 L16.78258099213339,1624.6886601673011 L16.725514431182823,1624.6123452860484 L16.666587783028902,1624.5417786643732 L16.60592371385255,1624.477107199108 L16.54364850658209,1624.4184655152812 L16.479891798013128,1624.3659756858704 L16.414786308946745,1624.319746977686 L16.348467567907843,1624.279875623914 L16.281073629018643,1624.246444623789 L16.212744784614795,1624.219523569817 L16.143623273202177,1624.199168502906 L16.07385298336245,1624.1854217957075 L16.00357915422367,1624.17831206441 " />
			<path d="M16.00357915422366,1624.17831206441 L15.960789939294726,1624.1772401421827 L15.917902136457144,1624.1786143676325 L15.874948566294048,1624.1824336891113 L15.831962099718089,1624.1886951838217 " />
			<path d="M-1925.6033585814585,1522.7496818753652 L-1925.604740241201,1522.6156460212705 L-1925.6088827995104,1522.482329362306 L-1925.6157788902751,1522.3499689561954 L-1925.6254162511743,1522.2188001602972 L-1925.6377777454843,1522.0890562131017 L-1925.6528413925475,1521.9609678194963 L-1925.6705804068608,1521.834762740538 L-1925.6909632457014,1521.710665388457 L-1925.7139536652162,1521.5888964276187 L-1925.739510784869,1521.4696723821457 L-1925.767589160132,1521.3532052509079 L-1925.7981388632932,1521.2397021305517 L-1925.8311055722356,1521.1293648472529 L-1925.8664306670314,1521.022389597837 L-1925.9040513341754,1520.9189666009113 L-1925.9439006782793,1520.8192797586262 L-1925.98590784102,1520.723506329669 L-1926.0299981271385,1520.6318166140704 L-1926.0760931372586,1520.5443736503848 L-1926.1241109072937,1520.4613329257816 L-1926.1739660541912,1520.3828420995658 L-1926.225569927757,1520.3090407406162 L-1926.2788307682902,1520.2400600792112 L-1926.3336538697442,1520.176022773679 L-1926.3899417481305,1520.1170426922947 L-1926.4475943148595,1520.0632247108026 L-1926.5065090547141,1520.014664525932 L-1926.5665812081372,1519.971448485233 L-1926.6277039575102,1519.933653433538 L-1926.689768617092,1519.9013465763182 L-1926.7526648262797,1519.8745853601833 L-1926.8162807458446,1519.853417370732 " />
			<path d="M-24.28214401563693,1631.1690538064431 L-24.358397997546373,1631.186159443539 L-24.43446827795971,1631.210896843586 L-24.51017159690846,1631.2432064120203 L-24.585325578466446,1631.2830103122615 L-24.659749170109386,1631.3302126532278 L-24.73326307888627,1631.3846997203452 L-24.805690203351798,1631.4463402494966 L-24.87685606021927,1631.5149857432482 L-24.946589204706097,1631.590470828593 L-25.014721643559305,1631.6726136553484 L-25.081089239766005,1631.7612163342499 L-25.145532107973814,1631.8560654136838 L-25.207894999668696,1631.9569323939095 L-25.268027677182214,1632.0635742775369 L-25.325785275627233,1632.1757341549276 L-25.381028651890137,1632.2931418231128 L-25.433624719838754,1632.4155144367362 L-25.483446770938528,1632.5425571894534 L-25.530374779504463,1632.6739640241449 L-25.574295691853514,1632.8094183702362 L-25.615103698660818,1632.9485939063436 L-25.652700489863612,1633.0911553464096 L-25.686995491498802,1633.2367592474386 L-25.71790608390356,1633.3850548368796 L-25.74535780075334,1633.5356848576685 L-25.769284508457755,1633.6882864288912 L-25.789628565482218,1633.8424919199967 L-25.80634096121143,1633.9979298364503 L-25.819381434020244,1634.154225714696 L-25.82871856826745,1634.3110030242735 L-25.83432986997882,1634.4678840749118 L-25.83620182103703,1634.624490926419 " />
			<path d="M-25.836201821037033,1634.624490926419 L-25.836206024118237,1666.0764805191727 " />
			<path d="M-25.836206024118233,1666.0764805191727 L-25.834588521667005,1666.2214786164216 L-25.829739342600313,1666.365611936364 L-25.821668581337153,1666.5085804401479 L-25.810393038586415,1666.6500865136895 L-25.79593618637324,1666.789835587212 L-25.77832811917788,1666.927536748443 L-25.757605491288743,1667.062903348199 L-25.733811440500045,1667.1956535970971 L-25.706995498312907,1667.325511152149 L-25.677213486826815,1667.4522056920173 L-25.644527402536127,1667.5754734797367 L-25.609005287273437,1667.6950579117295 L-25.570721086568557,1667.81071005197 L-25.52975449571788,1667.9221891501904 L-25.48619079388462,1668.029263143043 L-25.44012066657521,1668.1317091371814 L-25.39164001686151,1668.229313873253 L-25.34084976574166,1668.321874169835 L-25.287855642055302,1668.4091973463924 L-25.23276796239039,1668.4911016243764 L-25.175701401439827,1668.5674165056291 L-25.116774753285906,1668.6379831273043 L-25.056110684109555,1668.7026545925694 L-24.993835476839095,1668.7612962763963 L-24.93007876827013,1668.8137861058071 L-24.864973279203753,1668.8600148139915 L-24.798654538164847,1668.8998861677635 L-24.731260599275647,1668.9333171678884 L-24.6629317548718,1668.9602382218604 L-24.59381024345918,1668.9805932887714 L-24.524039953619454,1668.99433999597 L-24.45376612448068,1669.0014497272675 " />
			<path d="M-24.453766124480666,1669.0014497272675 L-24.410976909551728,1669.0025216494948 L-24.368089106714148,1669.001147424045 L-24.325135536551052,1668.9973281025661 L-24.282149069975084,1668.9910666078558 " />
			<path d="M-24.282149069975084,1668.9910666078556 L15.831957045379923,1662.0107079852344 " />
			<path d="M-1967.271526705295,1564.6374672107163 L-1927.15742058994,1557.657108588095 " />
			<path d="M15.831957045379921,1662.0107079852344 L15.908211027289365,1661.9936023481384 L15.984281307702704,1661.9688649480916 L16.059984626651453,1661.9365553796572 L16.13513860820944,1661.896751479416 L16.20956219985238,1661.8495491384497 L16.283076108629263,1661.7950620713323 L16.35550323309479,1661.7334215421808 L16.426669089962264,1661.6647760484293 L16.49640223444909,1661.5892909630845 L16.564534673302298,1661.507148136329 L16.630902269508994,1661.4185454574276 L16.695345137716807,1661.3236963779937 L16.75770802941169,1661.222829397768 L16.817840706925207,1661.1161875141406 L16.875598305370225,1661.00402763675 L16.93084168163313,1660.8866199685647 L16.983437749581746,1660.7642473549413 L17.03325980068152,1660.637204602224 L17.080187809247455,1660.5057977675326 L17.124108721596507,1660.3703434214412 L17.16491672840381,1660.231167885334 L17.202513519606605,1660.088606445268 L17.236808521241795,1659.9430025442389 L17.267719113646553,1659.794706954798 L17.295170830496332,1659.644076934009 L17.319097538200747,1659.4914753627863 L17.33944159522521,1659.3372698716807 L17.35615399095442,1659.1818319552272 L17.369194463763236,1659.0255360769816 L17.378531598010444,1658.868758767404 L17.384142899721812,1658.7118777167657 L17.386014850780022,1658.5552708652585 " />
			<path d="M-1927.1574205899403,1557.657108588095 L-1927.0811666080308,1557.6400029509991 L-1927.0050963276176,1557.6152655509522 L-1926.9293930086687,1557.582955982518 L-1926.8542390271107,1557.5431520822767 L-1926.7798154354678,1557.4959497413104 L-1926.706301526691,1557.441462674193 L-1926.6338744022255,1557.3798221450415 L-1926.562708545358,1557.31117665129 L-1926.492975400871,1557.2356915659452 L-1926.424842962018,1557.1535487391898 L-1926.3584753658113,1557.0649460602883 L-1926.2940324976034,1556.9700969808544 L-1926.2316696059086,1556.8692300006287 L-1926.171536928395,1556.7625881170013 L-1926.11377932995,1556.6504282396106 L-1926.0585359536872,1556.5330205714254 L-1926.0059398857384,1556.410647957802 L-1925.9561178346387,1556.2836052050848 L-1925.9091898260729,1556.1521983703933 L-1925.8652689137236,1556.016744024302 L-1925.8244609069163,1555.8775684881946 L-1925.7868641157136,1555.7350070481286 L-1925.7525691140784,1555.5894031470996 L-1925.7216585216736,1555.4411075576586 L-1925.6942068048238,1555.2904775368697 L-1925.6702800971195,1555.137875965647 L-1925.649936040095,1554.9836704745414 L-1925.633223644366,1554.8282325580878 L-1925.620183171557,1554.6719366798422 L-1925.6108460373098,1554.5151593702647 L-1925.6052347355985,1554.3582783196264 L-1925.6033627845402,1554.2016714681192 " />
			<path d="M17.386019053861222,1627.1032812725048 L17.38601485078002,1658.5552708652585 " />
			<path d="M-1925.6033585814587,1522.7496818753652 L-1925.6033627845397,1554.201671468119 " />
			<path d="M-1927.2540303423127,1557.3704438396398 L-1927.2369690682374,1519.8489391011985 " />
			<path d="M-1927.0686054369578,1149.5801795189773 L-1927.0472377159717,1102.5878481911423 " />
			<path d="M-1926.8846827300495,745.0935809081476 L-1926.863313860984,698.0987247004028 " />
			<path d="M-1926.7007600231411,340.6069822973177 L-1926.6793911540756,293.6121260895731 " />
			<path d="M-1926.516837503669,-63.8792041000646 L-1926.4954686382262,-110.87405234039657 " />
			<path d="M-1926.9858040654697,-110.90038697465491 L-1926.6278694242835,-110.8811632405735 " />
			<path d="M15.92213727932064,-6.551879422274222 L16.003573625508924,-6.547505688962192 " />
			<path d="M-1967.44313802511,-66.07724873623854 L-1966.7182803242376,-66.03831852361017 " />
			<path d="M-49.45263276545292,36.933008448131496 L-24.4537603341311,38.275632549454194 " />
			<path d="M-49.452632765452975,394.43343750886135 L16.00357648447942,397.94893228200124 " />
			<path d="M-49.45263276545296,441.429441386909 L-24.4537634869877,442.7720702267076 " />
			<path d="M-49.452632765453004,798.9299141636874 L16.003576484479396,802.4454089368272 " />
			<path d="M-49.45263276545299,845.925918041735 L-24.453763486987732,847.2685468815337 " />
			<path d="M-49.452632765453046,1203.426390818513 L16.003576484479357,1206.9418855916529 " />
			<path d="M-49.45263276545303,1250.4223946965608 L-24.453763486987768,1251.7650235363594 " />
			<path d="M-49.45263276545306,1620.662805806196 L16.00357915422366,1624.17831206441 " />
			<path d="M-49.45263276545307,1667.658816697534 L-24.45376612448067,1669.0014497272673 " />

       </g>

       <!-- solid lines -->
       <g  stroke="rgb(0,0,0)" fill="none">
			<path d="M-49.04993604904185,4.753104026209721 L15.831959556423403,-6.537161246636133 " />
			<path d="M20.183320219783948,-6.657350364643805 L19.90165334024138,-6.670773933929083 L19.607732644622207,-6.681463881360019 L19.30438874989864,-6.689317256899133 L18.9945430236015,-6.694258428246892 L18.68117944945394,-6.696239809222098 L18.367315889976947,-6.695242318042826 L18.055975022823567,-6.691275561094418 L17.750155230740713,-6.684377740414737 L17.452801725504248,-6.6746152857876595 L17.166778183919558,-6.662082214987945 L16.89483916904848,-6.646899228338668 L16.639603602261207,-6.629212546301128 L16.40352954159185,-6.609192501291868 L16.188890509295874,-6.587031897288397 L15.99775359658791,-6.562944153021489 L15.83195955642341,-6.537161246636133 " />
			<path d="M-49.04993604904185,4.75310402620972 L-49.142759784507156,4.770535816571274 L-49.223975017557045,4.78850103075562 L-49.29325553857413,4.8069275095701425 L-49.35032307498069,4.825741241103801 L-49.39494840895002,4.844866658003842 L-49.426952298084196,4.864226941000104 L-49.43817903408494,4.87397088479093 L-49.44620619536025,4.883744327457781 L-49.45102571939897,4.893537452517863 L-49.452632765452925,4.903340423719311 " />
			<path d="M-49.452632765452925,4.903340423719313 L-49.45086503282884,4.913621685103946 L-49.445563788005714,4.92389158741285 L-49.43673488797321,4.934138784120177 L-49.424388087190444,4.944351953785972 L-49.389199219601785,4.964631126670898 L-49.34015265355935,4.984639510432767 L-49.2774650822314,5.004288705813102 L-49.201413466260405,5.023491900487527 L-49.11233381012018,5.042164252612251 L-49.01061967761088,5.060223265664737 L-48.896720453050506,5.077589152922495 L-48.771139355845094,5.094185189969664 L-48.6344312172096,5.1099380536739964 L-48.48720002886208,5.12477814613658 L-48.16381405599728,5.151462079037964 L-47.80669014522457,5.173765939236578 " />
			<path d="M-49.04993604904199,1673.3010702273673 L-49.142759784507305,1673.3185020177289 L-49.223975017557194,1673.3364672319133 L-49.293255538574286,1673.3548937107278 L-49.35032307498084,1673.3737074422613 L-49.39494840895017,1673.3928328591614 L-49.426952298084345,1673.4121931421578 L-49.43817903408509,1673.4219370859485 L-49.446206195360396,1673.4317105286154 L-49.45102571939912,1673.4415036536755 L-49.452632765453075,1673.451306624877 " />
			<path d="M-49.452632765453075,1673.451306624877 L-49.450865032828986,1673.4615878862614 L-49.44556378800587,1673.4718577885703 L-49.43673488797336,1673.4821049852778 L-49.42438808719059,1673.4923181549436 L-49.389199219601934,1673.5125973278284 L-49.3401526535595,1673.5326057115903 L-49.27746508223155,1673.5522549069708 L-49.201413466260554,1673.571458101645 L-49.112333810120326,1673.59013045377 L-49.01061967761103,1673.6081894668223 L-48.896720453050655,1673.62555535408 L-48.77113935584524,1673.6421513911273 L-48.63443121720975,1673.6579042548317 L-48.48720002886223,1673.6727443472942 L-48.16381405599743,1673.6994282801957 L-47.80669014522472,1673.7217321403941 " />
			<path d="M-47.80669014522455,5.17376593923658 L-20.18332021978395,6.657350364643806 " />
			<path d="M-47.8066901452247,1673.7217321403941 L-20.1833202197841,1675.2053165658012 " />
			<path d="M-20.183320219783948,6.657350364643805 L-19.90165334024138,6.670773933929083 L-19.607732644622207,6.681463881360019 L-19.30438874989864,6.689317256899133 L-18.9945430236015,6.694258428246892 L-18.68117944945394,6.696239809222098 L-18.36731588997695,6.695242318042826 L-18.05597502282357,6.691275561094418 L-17.750155230740713,6.684377740414737 L-17.452801725504248,6.6746152857876595 L-17.166778183919558,6.662082214987945 L-16.89483916904848,6.646899228338668 L-16.639603602261207,6.629212546301128 L-16.403529541591855,6.609192501291868 L-16.188890509295874,6.587031897288397 L-15.99775359658791,6.562944153021489 L-15.831959556423417,6.537161246636134 " />
			<path d="M-20.183320219784097,1675.2053165658012 L-19.90165334024153,1675.2187401350866 L-19.607732644622356,1675.2294300825174 L-19.304388749898788,1675.2372834580567 L-18.99454302360165,1675.2422246294043 L-18.68117944945409,1675.2442060103797 L-18.3673158899771,1675.2432085192004 L-18.05597502282372,1675.2392417622518 L-17.750155230740862,1675.2323439415723 L-17.452801725504397,1675.222581486945 L-17.166778183919707,1675.2100484161454 L-16.89483916904863,1675.194865429496 L-16.639603602261356,1675.1771787474586 L-16.403529541592004,1675.1571587024494 L-16.188890509296023,1675.134998098446 L-15.997753596588058,1675.110910354179 L-15.831959556423566,1675.0851274477936 " />
			<path d="M-15.831959556423403,6.537161246636133 L49.04993604904185,-4.753104026209721 " />
			<path d="M-15.831959556423556,1675.0851274477936 L49.04993604904169,1663.7948621749479 " />
			<path d="M49.04993604904185,-4.75310402620972 L49.142759784507156,-4.770535816571274 L49.223975017557045,-4.78850103075562 L49.29325553857413,-4.8069275095701425 L49.35032307498069,-4.825741241103801 L49.39494840895002,-4.844866658003842 L49.426952298084196,-4.864226941000104 L49.43817903408494,-4.873970884790929 L49.44620619536025,-4.883744327457781 L49.45102571939897,-4.893537452517863 L49.452632765452925,-4.90334042371931 " />
			<path d="M49.452632765452925,-4.903340423719313 L49.45086503282884,-4.913621685103946 L49.445563788005714,-4.92389158741285 L49.43673488797321,-4.934138784120177 L49.424388087190444,-4.944351953785973 L49.389199219601785,-4.964631126670898 L49.34015265355935,-4.984639510432767 L49.2774650822314,-5.004288705813102 L49.201413466260405,-5.023491900487527 L49.11233381012018,-5.042164252612251 L49.01061967761088,-5.060223265664737 L48.896720453050506,-5.077589152922495 L48.771139355845094,-5.094185189969664 L48.6344312172096,-5.1099380536739964 L48.48720002886208,-5.12477814613658 L48.16381405599728,-5.151462079037964 L47.80669014522455,-5.173765939236579 " />
			<path d="M49.04993604904169,1663.7948621749479 L49.14275978450701,1663.7774303845863 L49.223975017556896,1663.7594651704019 L49.29325553857399,1663.7410386915874 L49.350323074980544,1663.7222249600538 L49.39494840894987,1663.7030995431537 L49.426952298084046,1663.6837392601574 L49.43817903408479,1663.6739953163667 L49.4462061953601,1663.6642218736997 L49.45102571939882,1663.6544287486397 L49.452632765452776,1663.6446257774383 " />
			<path d="M49.452632765452776,1663.6446257774383 L49.45102571939882,1663.6348228062368 L49.4462061953601,1663.6250296811768 L49.43817903408479,1663.6152562385098 L49.426952298084046,1663.6055122947191 L49.39494840894987,1663.5861520117228 L49.35032307498055,1663.5670265948227 L49.29325553857399,1663.548212863289 L49.223975017556896,1663.5297863844746 L49.142759784507014,1663.5118211702902 L49.049936049041705,1663.4943893799286 " />
			<path d="M20.18332021978395,-6.657350364643806 L47.80669014522455,-5.17376593923658 " />
			<path d="M-1999.9965623953794,-105.55798191118446 L-1960.1870284106917,-112.62810839239354 " />
			<path d="M-1955.8409447916576,-112.74970507402317 L-1956.1231941569422,-112.7633148051078 L-1956.4175780939308,-112.77415562944655 L-1956.7212615243839,-112.78212314397489 L-1957.0313198108556,-112.78714061717238 L-1957.3447669225525,-112.78915972802933 L-1957.6585841924414,-112.78816103140443 L-1957.9697493886626,-112.7841541452921 L-1958.2752658202771,-112.77717765819601 L-1958.5721911970356,-112.7672987575006 L-1958.8576659652445,-112.75461258241995 L-1959.1289408468292,-112.73924130775507 L-1959.3834033163862,-112.72133296728373 L-1959.6186027612302,-112.7010600281144 L-1959.8322740821345,-112.67861772973357 L-1960.0223595074742,-112.65422220374289 L-1960.1870284106917,-112.62810839239357 " />
			<path d="M-1999.9965623953797,-105.55798191118447 L-2000.0879005558568,-105.54047626691414 L-2000.1678043733461,-105.5224382315282 L-2000.2359582706586,-105.50393904558415 L-2000.2920930764826,-105.48505177093662 L-2000.3359870884672,-105.46585100218236 L-2000.3674669488255,-105.44641257205151 L-2000.3785107895083,-105.43662819662671 L-2000.3864083290068,-105.42681325190914 L-2000.3911517676347,-105.41697743123291 L-2000.3927364207266,-105.40713044854945 " />
			<path d="M-2000.3927364207266,-105.40713044854945 L-2000.3909592647635,-105.39667236680891 L-2000.3856202661036,-105.3862243116829 L-2000.3767253707601,-105.37579791911254 L-2000.3642844849285,-105.36540480091348 L-2000.3288240969032,-105.34476463671369 L-2000.2793970261964,-105.32439574082937 L-2000.2162233981226,-105.30438882690274 L-2000.1395845588052,-105.28483299647576 L-2000.0498218221908,-105.26581534217313 L-1999.9473349499956,-105.24742055983194 L-1999.832580371351,-105.22973057130568 L-1999.7060691500797,-105.21282415962209 L-1999.5683647086528,-105.19677661812007 L-1999.420080318968,-105.18165941512791 L-1999.0944574323264,-105.15448088166448 L-1998.734994726733,-105.13177218264775 " />
			<path d="M-2000.7551678729512,1562.7827818174726 L-2000.8465060334283,1562.8002874617428 L-2000.9264098509177,1562.8183254971289 L-2000.9945637482301,1562.8368246830728 L-2001.0506985540542,1562.8557119577204 L-2001.0945925660387,1562.8749127264746 L-2001.126072426397,1562.8943511566056 L-2001.1371162670798,1562.9041355320303 L-2001.1450138065784,1562.913950476748 L-2001.1497572452063,1562.9237862974242 L-2001.1513418982981,1562.9336332801076 " />
			<path d="M-2001.1513418982981,1562.9336332801076 L-2001.149564742335,1562.944091361848 L-2001.1442257436752,1562.954539416974 L-2001.1353308483317,1562.9649658095445 L-2001.1228899625,1562.9753589277436 L-2001.0874295744748,1562.9959990919433 L-2001.038002503768,1563.0163679878276 L-2000.9748288756941,1563.0363749017542 L-2000.8981900363767,1563.0559307321812 L-2000.8084272997623,1563.0749483864838 L-2000.7059404275672,1563.093343168825 L-2000.5911858489226,1563.1110331573514 L-2000.4646746276512,1563.1279395690349 L-2000.3269701862243,1563.143987110537 L-2000.1786857965396,1563.159104313529 L-1999.853062909898,1563.1862828469925 L-1999.4936002043046,1563.2089915460092 " />
			<path d="M-1998.7349947267328,-105.13177218264775 L-1971.0472164938094,-103.62774526354386 " />
			<path d="M-1999.4936002043046,1563.2089915460092 L-1971.8058219713812,1564.7130184651132 " />
			<path d="M-1971.0472164938092,-103.62774526354383 L-1970.7649671285246,-103.6141355324592 L-1970.470583191536,-103.60329470812044 L-1970.166899761083,-103.59532719359211 L-1969.8568414746112,-103.59030972039461 L-1969.5433943629143,-103.58829060953767 L-1969.2295770930255,-103.58928930616257 L-1968.9184118968042,-103.59329619227489 L-1968.6128954651897,-103.60027267937099 L-1968.3159700884312,-103.6101515800664 L-1968.0304953202224,-103.62283775514705 L-1967.7592204386376,-103.63820902981193 L-1967.5047579690806,-103.65611737028327 L-1967.2695585242366,-103.6763903094526 L-1967.0558872033323,-103.69883260783342 L-1966.8658017779926,-103.72322813382411 L-1966.701132874775,-103.74934194517343 " />
			<path d="M-1971.8058219713814,1564.713018465113 L-1971.5411718324158,1564.7258758310866 L-1971.2656724200915,1564.736298064983 L-1970.9816632382456,1564.7441966625984 L-1970.6915560545287,1564.7495045501078 L-1970.3978144200014,1564.7521766536465 L-1970.1029327489891,1564.7521902820718 L-1969.8094151368543,1564.749545319653 L-1969.5197540955548,1564.744264227054 L-1969.2364093875697,1564.7363918506005 L-1968.9617871379276,1564.7259950414514 L-1968.6982194017178,1564.7131620879068 L-1968.447944360593,1564.698001965677 L-1968.2130873164333,1564.6806434124742 L-1967.9956426435685,1564.6612338347902 L-1967.7974568528207,1564.6399380561395 L-1967.620212911184,1564.6169369174013 " />
			<path d="M-1926.8915988900876,-110.81946842638253 L-1926.8002607296105,-110.83697407065286 L-1926.7203569121211,-110.8550121060388 L-1926.6522030148087,-110.87351129198285 L-1926.5960682089847,-110.89239856663038 L-1926.552174197,-110.91159933538464 L-1926.5206943366418,-110.93103776551548 L-1926.509650495959,-110.94082214094028 L-1926.5017529564605,-110.95063708565786 L-1926.4970095178326,-110.96047290633409 L-1926.4954248647407,-110.97031988901755 " />
			<path d="M-1926.4954248647407,-110.97031988901755 L-1926.4972020207038,-110.98077797075808 L-1926.5025410193637,-110.9912260258841 L-1926.5114359147071,-111.00165241845446 L-1926.5238768005388,-111.01204553665352 L-1926.559337188564,-111.0326857008533 L-1926.6087642592709,-111.05305459673762 L-1926.6719378873447,-111.07306151066426 L-1926.7485767266621,-111.09261734109124 L-1926.8383394632765,-111.11163499539387 L-1926.9408263354717,-111.13002977773506 L-1927.0555809141163,-111.14771976626132 L-1927.1820921353876,-111.16462617794491 L-1927.3197965768145,-111.18067371944693 L-1927.4680809664992,-111.19579092243909 L-1927.7937038531409,-111.22296945590251 L-1928.1531665587343,-111.24567815491925 " />
			<path d="M-1955.8409447916574,-112.74970507402315 L-1928.153166558734,-111.24567815491926 " />
			<path d="M-24.282149270387222,0.44323603384220833 L15.831956841244164,-6.537122555182094 " />
			<path d="M-1967.2715269613664,-103.90964525185055 L-1927.157420849735,-110.89000384087484 " />
			<path d="M-1967.2715269613666,-103.90964525185056 L-1967.3376867405334,-103.89524505259901 L-1967.4037265564784,-103.87509583179866 L-1967.4695266643728,-103.84923412445427 L-1967.5349677540319,-103.81770682357529 L-1967.5999311662508,-103.7805710951484 L-1967.6642991079596,-103.73789427448288 L-1967.7279548658082,-103.68975374411686 L-1967.7907830177942,-103.63623679350552 " />
			<path d="M-1968.825583859266,-100.4542080842989 L-1968.8255791022013,-69.00221800888079 " />
			<path d="M-1926.8162835321396,293.62437418740296 L-1926.858352045973,293.61354460084874 L-1926.9006494245687,293.6051466588451 L-1926.943143299223,293.599186788043 L-1926.9858011508627,293.59566954932296 " />
			<path d="M-1967.2715241942738,300.586411294801 L-1967.3477781756706,300.60351693191825 L-1967.423848454547,300.62825433204137 L-1967.4995517709385,300.6605639006068 L-1967.574705748925,300.70036780103385 L-1967.6491293359907,300.7475701422399 L-1967.7226432391956,300.8020572096507 L-1967.7950703571082,300.8636977391483 L-1967.866236206457,300.93234323329796 L-1967.935969342478,301.0078283190918 L-1968.0041017719384,301.08997114634633 L-1968.070469357848,301.1785738257958 L-1968.1349122148793,301.2734229058249 L-1968.1972750945451,301.3742898866919 L-1968.2574077592058,301.480931771005 L-1968.3151653440054,301.5930916491242 L-1968.3704087058632,301.71049931807903 L-1968.4230047586818,301.8328719325113 L-1968.4728267939627,301.9599146860743 L-1968.5197547860594,302.09132152164705 L-1968.5636756813283,302.22677586865274 L-1968.604483670486,302.36595140570506 L-1968.6420804435118,302.5085128467449 L-1968.6763754264869,302.6541167487739 L-1968.707285999793,302.8024123392387 L-1968.7347376971516,302.9530423610727 L-1968.7586643850195,303.1056439333596 L-1968.7790084219098,303.2598494255455 L-1968.7957207972559,303.4152873430929 L-1968.8087612494812,303.5715832224438 L-1968.8180983629948,303.7283605331347 L-1968.8237096438718,303.8852415848923 L-1968.8255815740454,304.0418484375216 " />
			<path d="M-1968.8255815740454,304.0418484375216 L-1968.8255815740454,335.49383825615473 " />
			<path d="M-1926.8162835321398,698.120850842229 L-1926.8583520459733,698.1100212556747 L-1926.9006494245687,698.1016233136712 L-1926.9431432992233,698.0956634428692 L-1926.9858011508627,698.092146204149 " />
			<path d="M-1926.9858011508627,698.092146204149 L-1927.028590334927,698.0910742891305 L-1927.0714781063525,698.0924485181125 L-1927.1144316446291,698.0962678394459 L-1927.1574180789187,698.1025293303376 " />
			<path d="M-1967.2715241942738,705.082887949627 L-1967.3477781756706,705.0999935867442 L-1967.423848454547,705.1247309868673 L-1967.4995517709385,705.1570405554328 L-1967.574705748925,705.1968444558598 L-1967.6491293359907,705.244046797066 L-1967.7226432391956,705.2985338644767 L-1967.7950703571082,705.3601743939743 L-1967.866236206457,705.4288198881239 L-1967.935969342478,705.5043049739178 L-1968.0041017719384,705.5864478011723 L-1968.070469357848,705.6750504806218 L-1968.1349122148793,705.7698995606509 L-1968.1972750945451,705.8707665415178 L-1968.2574077592058,705.977408425831 L-1968.3151653440054,706.0895683039502 L-1968.3704087058632,706.206975972905 L-1968.4230047586818,706.3293485873373 L-1968.4728267939627,706.4563913409003 L-1968.5197547860594,706.587798176473 L-1968.5636756813283,706.7232525234787 L-1968.604483670486,706.862428060531 L-1968.6420804435118,707.0049895015709 L-1968.6763754264869,707.1505934035999 L-1968.707285999793,707.2988889940647 L-1968.7347376971516,707.4495190158987 L-1968.7586643850195,707.6021205881856 L-1968.7790084219098,707.7563260803715 L-1968.7957207972559,707.9117639979189 L-1968.8087612494812,708.0680598772698 L-1968.8180983629948,708.2248371879607 L-1968.8237096438718,708.3817182397183 L-1968.8255815740454,708.5383250923476 " />
			<path d="M-1968.8255815740454,708.5383250923475 L-1968.8255815740454,739.9903149109806 " />
			<path d="M-1968.8255815740454,739.9903149109806 L-1968.8239640519946,740.1353130175484 L-1968.8191148529995,740.2794463466917 L-1968.8110440715216,740.4224148595046 L-1968.7997685083135,740.563920941851 L-1968.785311635446,740.703670023902 L-1968.767703547446,740.8413711933337 L-1968.7469808986486,740.976737800913 L-1968.7231868268973,741.1094880572088 L-1968.6963708637422,741.2393456191853 L-1968.6665888313325,741.3660401654599 L-1968.6339027262138,741.489307959024 L-1968.5983805902697,741.6088923962579 L-1968.560096369081,741.7245445410973 L-1968.5191297579966,741.8360236432364 L-1968.475566036231,741.9430976392931 L-1968.4294958893427,742.0455436358891 L-1968.3810152204555,742.143148373642 L-1968.3302249506187,742.2357086711023 L-1968.277230808723,742.323031847711 L-1968.2221431114074,742.4049361248989 L-1968.1650765334139,742.4812510044896 L-1968.1061498688744,742.5518176236227 L-1968.045485784018,742.6164890854536 L-1967.9832105618195,742.6751307649462 L-1967.9194538391212,742.7276205891179 L-1967.8543483367682,742.7738492911564 L-1967.788029583329,742.8137206378776 L-1967.720635632967,742.8471516300522 L-1967.6523067780583,742.8740726751827 L-1967.5831852571464,742.894427732373 L-1967.5134149588496,742.9081744289871 L-1967.4431411223297,742.9152841488553 " />
			<path d="M-1967.2715241942735,1109.5793646044526 L-1927.1574180789187,1102.5990059851633 " />
			<path d="M-1926.8162835321386,1102.617327497055 L-1926.8583520459727,1102.6064979105006 L-1926.9006494245682,1102.5980999684969 L-1926.943143299223,1102.5921400976947 L-1926.9858011508627,1102.5886228589748 " />
			<path d="M-1926.9858011508627,1102.5886228589748 L-1927.028590334927,1102.587550943956 L-1927.0714781063525,1102.5889251729382 L-1927.1144316446291,1102.5927444942715 L-1927.1574180789187,1102.5990059851633 " />
			<path d="M-1967.2715241942735,1109.5793646044526 L-1967.3477781756703,1109.5964702415697 L-1967.4238484545467,1109.621207641693 L-1967.4995517709383,1109.6535172102583 L-1967.5747057489248,1109.6933211106852 L-1967.6491293359904,1109.7405234518915 L-1967.7226432391953,1109.7950105193022 L-1967.795070357108,1109.8566510487997 L-1967.8662362064567,1109.9252965429496 L-1967.9359693424778,1110.0007816287432 L-1968.0041017719382,1110.0829244559977 L-1968.0704693578477,1110.1715271354474 L-1968.134912214879,1110.2663762154764 L-1968.197275094545,1110.3672431963435 L-1968.2574077592055,1110.4738850806564 L-1968.3151653440052,1110.5860449587756 L-1968.370408705863,1110.7034526277305 L-1968.4230047586816,1110.8258252421629 L-1968.4728267939624,1110.952867995726 L-1968.5197547860591,1111.0842748312984 L-1968.563675681328,1111.2197291783043 L-1968.6044836704857,1111.3589047153566 L-1968.6420804435115,1111.5014661563964 L-1968.6763754264866,1111.6470700584255 L-1968.7072859997927,1111.7953656488903 L-1968.7347376971513,1111.9459956707242 L-1968.7586643850193,1112.098597243011 L-1968.7790084219096,1112.252802735197 L-1968.7957207972556,1112.4082406527446 L-1968.808761249481,1112.5645365320952 L-1968.8180983629945,1112.7213138427862 L-1968.8237096438716,1112.8781948945439 L-1968.8255815740451,1113.034801747173 " />
			<path d="M-1968.8255815740454,1113.0348017471733 L-1968.8255815740454,1144.4867915658065 " />
			<path d="M-1968.8255815740451,1144.4867915658062 L-1968.8239640519944,1144.631789672374 L-1968.8191148529993,1144.7759230015174 L-1968.8110440715213,1144.9188915143302 L-1968.7997685083133,1145.0603975966767 L-1968.7853116354459,1145.2001466787276 L-1968.7677035474458,1145.3378478481593 L-1968.7469808986484,1145.4732144557386 L-1968.723186826897,1145.6059647120344 L-1968.696370863742,1145.735822274011 L-1968.6665888313323,1145.8625168202857 L-1968.6339027262136,1145.9857846138495 L-1968.5983805902695,1146.1053690510837 L-1968.5600963690808,1146.221021195923 L-1968.5191297579963,1146.332500298062 L-1968.4755660362307,1146.4395742941188 L-1968.4294958893424,1146.5420202907148 L-1968.3810152204553,1146.6396250284677 L-1968.3302249506185,1146.732185325928 L-1968.2772308087228,1146.8195085025368 L-1968.2221431114071,1146.9014127797245 L-1968.1650765334136,1146.9777276593154 L-1968.1061498688741,1147.0482942784483 L-1968.0454857840177,1147.1129657402792 L-1967.9832105618193,1147.1716074197718 L-1967.919453839121,1147.2240972439436 L-1967.854348336768,1147.270325945982 L-1967.7880295833288,1147.3101972927032 L-1967.7206356329668,1147.3436282848777 L-1967.6523067780581,1147.3705493300083 L-1967.5831852571462,1147.3909043871986 L-1967.5134149588494,1147.4046510838127 L-1967.4431411223295,1147.4117608036809 " />
			<path d="M-1967.4431411223295,1147.4117608036809 L-1967.4003519382652,1147.4128327186995 L-1967.3574641668397,1147.4114584897175 L-1967.314510628563,1147.407639168384 L-1967.2715241942735,1147.4013776774923 " />
			<path d="M-1967.2715216509566,1526.8154544093036 L-1927.1574155356018,1519.8350957866824 " />
			<path d="M-1926.8162807458446,1519.853417370732 L-1926.8583492876278,1519.8425877623865 L-1926.9006466950084,1519.8341898022074 L-1926.9431405992132,1519.8282299168693 L-1926.985798481096,1519.8247126672704 " />
			<path d="M-1926.985798481096,1519.8247126672704 L-1927.028587696025,1519.8236407450431 L-1927.0714754988626,1519.825014970493 L-1927.1144290690256,1519.8288342919718 L-1927.1574155356016,1519.8350957866821 " />
			<path d="M-1967.2715216509566,1526.8154544093036 L-1967.3477756328662,1526.8325600463995 L-1967.4238459132794,1526.8572974464464 L-1967.4995492322282,1526.8896070148808 L-1967.5747032137863,1526.929410915122 L-1967.6491268054292,1526.9766132560883 L-1967.722640714206,1527.0311003232057 L-1967.7950678386715,1527.092740852357 L-1967.866233695539,1527.1613863461087 L-1967.935966840026,1527.2368714314534 L-1968.004099278879,1527.3190142582089 L-1968.0704668750857,1527.4076169371103 L-1968.1349097432935,1527.5024660165443 L-1968.1972726349884,1527.60333299677 L-1968.257405312502,1527.7099748803973 L-1968.315162910947,1527.822134757788 L-1968.3704062872098,1527.9395424259733 L-1968.4230023551586,1528.0619150395967 L-1968.4728244062583,1528.1889577923139 L-1968.519752414824,1528.3203646270053 L-1968.5636733271733,1528.4558189730967 L-1968.6044813339806,1528.594994509204 L-1968.6420781251834,1528.73755594927 L-1968.6763731268186,1528.883159850299 L-1968.7072837192234,1529.03145543974 L-1968.7347354360732,1529.182085460529 L-1968.7586621437774,1529.3346870317516 L-1968.7790062008019,1529.4888925228572 L-1968.795718596531,1529.6443304393108 L-1968.8087590693399,1529.8006263175564 L-1968.8180962035872,1529.957403627134 L-1968.8237075052984,1530.1142846777723 L-1968.8255794563568,1530.2708915292794 " />
			<path d="M-1968.825579456357,1530.2708915292794 L-1968.825583659438,1561.7228811220332 " />
			<path d="M-1968.8255836594385,1561.7228811220334 L-1968.8239661569874,1561.8678792192823 L-1968.8191169779207,1562.0120125392248 L-1968.8110462166574,1562.1549810430085 L-1968.7997706739068,1562.2964871165502 L-1968.7853138216935,1562.4362361900728 L-1968.7677057544981,1562.5739373513036 L-1968.746983126609,1562.7093039510596 L-1968.7231890758203,1562.8420541999578 L-1968.6963731336332,1562.9719117550096 L-1968.666591122147,1563.098606294878 L-1968.6339050378565,1563.2218740825974 L-1968.5983829225938,1563.3414585145902 L-1968.5600987218888,1563.4571106548308 L-1968.519132131038,1563.5685897530511 L-1968.475568429205,1563.6756637459036 L-1968.4294983018956,1563.778109740042 L-1968.3810176521818,1563.8757144761137 L-1968.3302274010618,1563.9682747726956 L-1968.2772332773757,1564.055597949253 L-1968.2221455977108,1564.137502227237 L-1968.16507903676,1564.2138171084898 L-1968.1061523886062,1564.284383730165 L-1968.0454883194298,1564.34905519543 L-1967.9832131121593,1564.407696879257 L-1967.9194564035904,1564.4601867086678 L-1967.854350914524,1564.5064154168522 L-1967.7880321734851,1564.5462867706242 L-1967.720638234596,1564.579717770749 L-1967.6523093901922,1564.6066388247211 L-1967.5831878787794,1564.626993891632 L-1967.5134175889398,1564.6407405988307 L-1967.443143759801,1564.6478503301282 " />
			<path d="M-1967.443143759801,1564.6478503301282 L-1967.400354544872,1564.6489222523555 L-1967.3574667420344,1564.6475480269057 L-1967.3145131718713,1564.6437287054268 L-1967.2715267052954,1564.6374672107165 " />
			<path d="M-47.80669014522455,5.17376593923658 L-47.8066901452247,1673.7217321403941 " />
			<path d="M-20.18332021978395,6.657350364643806 L-20.183320219784104,1675.2053165658015 " />
			<path d="M-15.831959556423403,6.537161246636131 L-15.831959556423554,1675.0851274477936 " />
			<path d="M49.04993604904185,-4.753104026209721 L49.0499360490417,1663.7948621749479 " />
			<path d="M-1998.7349947267328,-105.13177218264774 L-1999.4936002043046,1563.2089915460094 " />
			<path d="M-1971.0472164938092,-103.62774526354383 L-1971.805821971381,1564.7130184651132 " />
			<path d="M-1966.71698411393,-68.88897088307706 L-1966.8866055533178,304.14598615255613 " />
			<path d="M-1966.9009066299377,335.5972078949336 L-1967.0689191376812,705.0937693774644 " />
			<path d="M-1967.0861255470297,742.9344585924 L-1967.252839909957,1109.5761133041572 " />
			<path d="M-1967.270048253938,1147.4210572032293 L-1967.4425837081635,1526.8645755836937 " />
			<path d="M-1926.9129332627724,-63.900477368051625 L-1927.0796493728608,302.74501973663513 " />
			<path d="M-1927.0968557822093,340.5857089515708 L-1927.2594290947584,698.1202805291709 " />
			<path d="M-1927.2807784891177,745.0723075624005 L-1927.4433708476058,1102.6487653607774 " />
			<path d="M-1927.464701196026,1149.5589061732303 L-1927.633105844621,1519.9178718789801 " />
			<path d="M-24.282149270387222,0.44323603384220944 L-1967.2715269613666,-103.90964525185055 " />
			<path d="M15.83195684124416,-6.537122555182095 L-1926.6835291117818,-110.86455235419113 " />
			<path d="M-39.8229028246911,3.1474842795587463 L-1968.8255838592659,-100.4542080842989 " />
			<path d="M-49.45263276545292,34.08228647259675 L-1968.8255791022011,-69.00221800888079 " />
			<path d="M-49.45263276545292,36.91340822540556 L-1966.7182714121057,-66.0579182676888 " />
			<path d="M-49.45263276545296,403.58782805732005 L-1966.884996430773,300.60717076663457 " />
			<path d="M-49.45263276545296,394.4530377654104 L-1927.0754958252912,293.61045252172516 " />
			<path d="M-49.45263276545296,407.12672986532385 L-1968.8255815740454,304.0418484375216 " />
			<path d="M-49.45263276545296,438.57871968395693 L-1968.8255815740454,335.49383825615473 " />
			<path d="M-49.45263276545296,441.4098411303599 L-1966.9021939279742,338.4282602036708 " />
			<path d="M-49.452632765453,808.084304712146 L-1967.2715241942738,705.0828879496269 " />
			<path d="M-49.452632765453,798.9495144202365 L-1927.157418078919,698.1025293303375 " />
			<path d="M-49.452632765453,811.6232065201499 L-1968.8255815740454,708.5383250923476 " />
			<path d="M-49.452632765453,843.0751963387829 L-1968.8255815740454,739.9903149109806 " />
			<path d="M-49.452632765453,845.9063177851859 L-1967.2715241942738,742.9049010226668 " />
			<path d="M-49.45263276545303,1212.580781366972 L-1967.271524194274,1109.5793646044526 " />
			<path d="M-49.45263276545303,1203.4459910750622 L-1927.157418078919,1102.5990059851633 " />
			<path d="M-49.45263276545303,1216.1196831749755 L-1968.8255815740456,1113.0348017471733 " />
			<path d="M-49.45263276545303,1247.5716729936087 L-1968.8255815740456,1144.4867915658065 " />
			<path d="M-49.45263276545303,1250.4027944400118 L-1967.271524194274,1147.4013776774925 " />
			<path d="M-49.45263276545306,1629.8172033383644 L-1967.2715216509564,1526.8154544093036 " />
			<path d="M-49.45263276545305,1620.6824060924957 L-1927.1574155356013,1519.835095786682 " />
			<path d="M-49.45263276545307,1633.3561054157565 L-1968.8255794563565,1530.2708915292794 " />
			<path d="M-49.45263276545307,1664.8080952342482 L-1968.8255836594376,1561.7228811220332 " />
			<path d="M-49.45263276545307,1667.6392164112342 L-1967.2715267052945,1564.6374672107163 " />
			<path d="M-49.45263276545307,1673.451306624877 L-49.45263276545292,4.903340423719314 " />
			<path d="M49.45263276545277,1663.6446257774383 L49.45263276545292,-4.903340423719314 " />
			<path d="M-2001.1513418982977,1562.933633280108 L-2000.392736420726,-105.40713044854944 " />
			<path d="M-1927.2369690682374,1519.8489391011985 L-1927.0686054369578,1149.5801795189773 " />
			<path d="M-1927.0472377159717,1102.5878481911423 L-1926.8846827300495,745.0935809081476 " />
			<path d="M-1926.863313860984,698.0987247004028 L-1926.7007600231411,340.6069822973177 " />
			<path d="M-1926.6793911540756,293.6121260895731 L-1926.516837503669,-63.8792041000646 " />
			<path d="M-1926.4954686382262,-110.87405234039657 L-1926.495424864741,-110.97031988901756 " />
			<path d="M-1926.6278694242835,-110.8811632405735 L15.92213727932064,-6.551879422274222 " />
			<path d="M-1966.7182803242376,-66.03831852361017 L-49.45263276545292,36.933008448131496 " />
			<path d="M-1926.9858011508627,293.59566954932296 L-49.452632765452975,394.43343750886135 " />
			<path d="M-1967.44314112233,338.41880749402935 L-49.45263276545296,441.429441386909 " />
			<path d="M-1926.9858011508627,698.0921462041489 L-49.452632765453004,798.9299141636874 " />
			<path d="M-1967.44314112233,742.9152841488553 L-49.45263276545299,845.925918041735 " />
			<path d="M-1926.985801150863,1102.5886228589745 L-49.452632765453046,1203.426390818513 " />
			<path d="M-1967.44314112233,1147.411760803681 L-49.45263276545303,1250.4223946965608 " />
			<path d="M-1926.9857984810963,1519.8247126672704 L-49.45263276545306,1620.662805806196 " />
			<path d="M-1967.4431437598005,1564.6478503301278 L-49.45263276545307,1667.658816697534 " />

       </g>
    </g>
    
</svg>
