<?xml version="1.0" encoding="UTF-8" standalone="no"?>
<svg
   xmlns:svg="http://www.w3.org/2000/svg"
   xmlns="http://www.w3.org/2000/svg"
   width="480.0"
   height="480.0"

>
    <g transform="scale(0.19604389684760193, -0.19604389684760193)   translate(114.88548002299962,-56.54222243080583)" stroke-width="1.0"  fill="none">
       <!-- hidden lines -->
       <g  stroke="rgb(0,0,0)" fill="none" stroke-dasharray="1.0,1.0" >
			<path d="M0.4502397632488613,-1671.3588357925278 L62.78371075592142,-1666.2505293971697 " />
			<path d="M63.08474143380417,-1665.8276178045362 L63.264112720871,-1665.8486534849828 L63.42260642854629,-1665.8711117867656 L63.558943787469765,-1665.8948115103367 L63.672024791591916,-1665.9195614400269 L63.76093707331518,-1665.945161886825 L63.79609797938562,-1665.9582167296926 L63.824963264718235,-1665.971406299522 L63.84747467672477,-1665.984703978645 L63.86358678547101,-1665.9980829312203 L63.87326707535817,-1666.0115161573895 L63.876496010742166,-1666.0249765477652 " />
			<path d="M63.876496010742166,-1666.0249765477652 L63.875361942385574,-1666.0329550008596 L63.8719605411352,-1666.0409277988847 L63.858366988867175,-1666.0568338334951 L63.83575388715255,-1666.0726495632612 L63.80418533663854,-1666.0883301558315 L63.76375082370103,-1666.1038311619245 L63.714564966780316,-1666.1191086413264 L63.656767191475886,-1666.1341192874474 L63.590521335321,-1666.1488205500816 L63.43345993582821,-1666.1771292271949 L63.24516037426889,-1666.2037139172746 L63.02775620493714,-1666.2282733988034 L62.78371075592143,-1666.2505293971699 " />
			<path d="M-63.0847414338039,-1671.8400109464787 L-62.78371075592115,-1671.811816840303 " />
			<path d="M-62.78371075592115,-1671.8118168403032 L37.760535656917725,-1663.5720893104897 " />
			<path d="M37.76053565691773,-1663.5720893104894 L38.00673180145644,-1663.5538308694788 L38.27085057245556,-1663.5379204644757 L38.55034836176838,-1663.524511321378 L38.84253345289477,-1663.5137325775634 L39.14459194368258,-1663.5056880382276 L39.45361484574354,-1663.5004551766817 L39.7666260996017,-1663.4980843882431 L40.08061123577306,-1663.4985985049004 L40.39254640575456,-1663.5019925754293 L40.69942750333815,-1663.508233913075 L40.99829909579584,-1663.5172624103443 L41.286282886312435,-1663.5289911178727 L41.5606054335573,-1663.5433070817955 L41.818624861440505,-1663.5600724315543 L42.05785630182377,-1663.5791257076655 L42.27599582515899,-1663.6002834166652 " />
			<path d="M63.08474143380417,-1665.8276178045362 L42.275995825159,-1663.6002834166652 " />
			<path d="M1465.0241764816983,-1828.0944331748856 L1465.1787797556228,-1828.0787077996881 L1465.344756352055,-1828.0640302510453 " />
			<path d="M1463.1051958655662,-159.0067867857518 L1525.4966089455615,-153.86352377887485 " />
			<path d="M1465.3447563520551,-1828.064030251045 L1527.7361694320505,-1822.920767244168 " />
			<path d="M1527.7361694320505,-1822.9207672441682 L1527.9831845893398,-1822.902311490576 L1528.2480165636264,-1822.8861827286523 L1528.5281148782267,-1822.872536287191 L1528.8207820332532,-1822.8615035888831 L1529.1231994840152,-1822.8531908846448 L1529.4324547851436,-1822.847678230362 L1529.7455696390323,-1822.8450187159087 L1530.0595285784723,-1822.8452379538633 L1530.3713080072498,-1822.8483338328442 L1530.6779053190292,-1822.8542765378445 L1530.976367814095,-1822.8630088373666 L1531.263821135464,-1822.8744466345922 L1531.5374969505128,-1822.8884797772816 L1531.7947596115366,-1822.9049731185996 L1532.0331315384751,-1822.923767818653 L1532.2503170793652,-1822.9446828742061 " />
			<path d="M1552.9586552015865,-1825.1484902900468 L1532.250317079365,-1822.944682874206 " />
			<path d="M65.19195820651885,-0.20797059015895075 L65.19001075204498,-0.08003026512672234 L65.18417150902005,0.04738394252462996 L65.17444992145282,0.17406596141033603 L65.16086171240156,0.2998109043397227 L65.14342885854461,0.42441539968732345 L65.1221795546367,0.5476779203128125 L65.09714816790864,0.6693991094977827 L65.06837518248398,0.7893821033722319 L65.03590713390268,0.9074328493092796 L64.99979653385755,1.0233604197731585 L64.96010178526528,1.1369773211128948 L64.91688708780943,1.2480997968022391 L64.87022233410804,1.3565481246354296 L64.82018299667386,1.4621469073981017 L64.76685000585015,1.5647253565432357 L64.71030961891917,1.6641175684133627 L64.65065328059531,1.7601627925622556 L64.58797747512845,1.852705691742163 L64.52238357025665,1.9415965931360857 L64.45397765326057,2.0266917304287793 L64.38287035938492,2.107853476324964 L64.30917669290423,2.1849505651386902 L64.23301584112251,2.2578583050938454 L64.15451098160746,2.326458779992465 L64.07378908297123,2.3906410399246525 L63.99098069951965,2.4503012807116917 L63.90621976010229,2.5053430117921196 L63.81964335150468,2.55567721227923 L63.731391496733195,2.6012224749376216 L63.64160692855098,2.641905137845922 L63.55043485863133,2.6776594035327483 L63.45802274270189,2.7084274453932196 " />
			<path d="M1528.8501500295883,-156.87595163614284 L1528.8477495456746,-156.7339338157243 L1528.8405528469448,-156.59259256546642 L1528.828574280505,-156.45220965872358 L1528.8118377264393,-156.31306495832737 L1528.790376550201,-156.17543585866133 L1528.7642335360986,-156.03959673265615 L1528.7334608020012,-155.90581838480892 L1528.6981196954382,-155.77436751131583 L1528.6582806712988,-155.6455061683954 L1528.614023151376,-155.51949124986152 L1528.5654353660323,-155.3965739749883 L1528.512614178309,-155.2769993876875 L1528.4556648908206,-155.16100586799678 L1528.3947010358286,-155.04882465685296 L1528.3298441489062,-154.94067939509767 L1528.2612235266504,-154.83678567763405 L1528.1889759689182,-154.73735062362385 L1528.113245506109,-154.6425724635812 L1528.034183112029,-154.55264014418668 L1527.9519464029154,-154.46773295160955 L1527.8666993232166,-154.38802015408825 L1527.7786118187591,-154.31366066448302 L1527.6878594979491,-154.2448027234722 L1527.5946232816837,-154.18158360402438 L1527.499089042674,-154.12412933773555 L1527.4014472348958,-154.07255446357652 L1527.3018925139052,-154.02696179955169 L1527.2006233487805,-153.98744223772442 L1527.0978416264606,-153.9540745630176 L1526.9937522492698,-153.92692529615047 L1526.8885627264303,-153.90604856102516 L1526.78248276038,-153.89148597682694 " />
			<path d="M1526.78248276038,-153.89148597682694 L1526.6977140017134,-153.8844372164459 L1526.612623359406,-153.881400998697 L1526.527317902573,-153.8823811440374 L1526.4419049706307,-153.88737641915526 " />
			<path d="M1464.2790699850377,-158.9816989479813 L1464.1861209598133,-158.99169010673927 L1464.0933104484243,-159.00641411494888 L1464.0007767588338,-159.02584903061737 L1463.9086577864791,-159.04996589146927 L1463.8170908087784,-159.07872875810688 L1463.726212280557,-159.11209476756753 L1463.6361576307002,-159.15001419719889 L1463.5470610603336,-159.19243053875664 L1463.4590553428357,-159.23928058261407 L1463.3722716259751,-159.2904945119583 L1463.2868392364724,-159.34599600683237 L1463.2028854872744,-159.4057023578691 L1463.120535487831,-159.46952458954573 L1463.0399119576539,-159.53736759277712 L1462.961135043438,-159.60913026664903 L1462.8843221400164,-159.68470566908064 L1462.8095877154167,-159.76398117619158 L1462.7370431402783,-159.84683865013622 L1462.6667965218858,-159.9331546151548 L1462.598952543066,-160.0228004415794 L1462.5336123061868,-160.11564253752027 L1462.4708731824933,-160.21154254794695 L1462.4108286670028,-160.31035756086757 L1462.3535682391769,-160.41194032029887 L1462.2991772295777,-160.51613944570994 L1462.2477366927067,-160.6227996576123 L1462.1993232862155,-160.73176200896017 L1462.1540091566692,-160.84286412201658 L1462.1118618320327,-160.9559404303315 L1462.0729441210383,-161.07082242547224 L1462.0373140195882,-161.18733890813763 L1462.0050246243268,-161.30531624328265 " />
			<path d="M1462.0502608758736,-195.01813345310012 L1462.0810916683076,-195.11081935639552 L1462.1142457764806,-195.201938653706 L1462.149688155643,-195.29139502957776 L1462.1873813422835,-195.37909392630795 L1462.227285493729,-195.46494264389457 L1462.269358430259,-195.54885043802295 L1462.313555679692,-195.6307286159846 L1462.359830524392,-195.71049063042778 L1462.4081340506516,-195.7880521708405 L1462.458415200394,-195.86333125266853 L1462.5106208251436,-195.9362483039755 L1462.5646957422052,-196.00672624955237 L1462.6205827929925,-196.07469059238792 L1462.6782229034477,-196.14006949241406 L1462.7375551464834,-196.2027938424426 L1462.798516806384,-196.26279734121334 L1462.8610434450986,-196.32001656347626 L1462.9250689703529,-196.3743910270336 L1462.9905257055107,-196.4258632566711 L1463.0573444611102,-196.47437884491086 L1463.1254546079986,-196.51988650952137 L1463.194784151989,-196.5623381477242 L1463.265259809961,-196.60168888703987 L1463.3368070873207,-196.63789713271922 L1463.4093503567458,-196.6709246117101 L1463.4828129381244,-196.70073641311308 L1463.5571171796082,-196.72730102508305 L1463.632184539692,-196.75059036813812 L1463.707935670235,-196.7705798248404 L1463.7842905003329,-196.78724826581717 L1463.8611683209556,-196.80057807209522 L1463.9384878702585,-196.81055515372458 " />
			<path d="M1463.9384878702585,-196.81055515372458 L1464.023256628925,-196.81760391410563 L1464.1083472712326,-196.82064013185453 L1464.1936527280654,-196.81965998651413 L1464.2790656600077,-196.81466471139626 " />
			<path d="M0.6208738369382765,-40.146683665412375 L62.783708822531395,-35.05236113658636 " />
			<path d="M1464.279065660008,-196.8146647113963 L1526.4419006456012,-191.72034218257028 " />
			<path d="M62.78370882253139,-35.05236113658636 L62.901875825094734,-35.038839605125354 L63.01975815387612,-35.01767545425584 L63.13707182002023,-34.98891967027102 L63.25353420462987,-34.95264152837321 L63.36886473961962,-34.90892842578386 L63.48278558362892,-34.8578856711959 L63.595022291366256,-34.799636231075965 L63.70530447477193,-34.73432043342734 L63.81336645440653,-34.66209562972755 L63.918947899496004,-34.58313581585487 L64.0217944550913,-34.49763121291696 L64.12165835483168,-34.405787808991626 L64.21829901783563,-34.30782686288346 L64.31148362828125,-34.20398437109199 L64.40098769627998,-34.09451049927548 L64.48659559869238,-33.97966897957991 L64.56810109858314,-33.85973647528517 L64.64530784206403,-33.73500191429893 L64.71802983132746,-33.60576579310408 L64.7860918727316,-33.47233945283631 L64.8493299988572,-33.335044329236105 L64.90759186351941,-33.194211178281854 L64.96073710878312,-33.05017927936972 L65.0086377030975,-32.90329561795989 L65.05117824973527,-32.7539140496582 L65.08825626479347,-32.60239444774695 L65.11978242408615,-32.449101836218716 L65.14568077833424,-32.2944055104015 L65.1658889361339,-32.138678147294 L65.18035821426298,-31.982294907754046 L65.18905375496311,-31.825632532703246 L65.1919546099151,-31.669068435525105 " />
			<path d="M1526.4419006456008,-191.72034218257025 L1526.560067648164,-191.70682065110924 L1526.6779499769455,-191.68565650023973 L1526.7952636430896,-191.6569007162549 L1526.9117260276992,-191.6206225743571 L1527.027056562689,-191.57690947176775 L1527.1409774066983,-191.52586671717978 L1527.2532141144357,-191.46761727705984 L1527.3634962978413,-191.40230147941122 L1527.4715582774759,-191.33007667571144 L1527.5771397225653,-191.25111686183874 L1527.6799862781606,-191.16561225890084 L1527.7798501779012,-191.0737688549755 L1527.876490840905,-190.97580790886735 L1527.9696754513507,-190.87196541707587 L1528.0591795193493,-190.76249154525937 L1528.1447874217617,-190.6476500255638 L1528.2262929216524,-190.52771752126904 L1528.3034996651334,-190.4029829602828 L1528.3762216543969,-190.27374683908795 L1528.444283695801,-190.1403204988202 L1528.5075218219265,-190.00302537521998 L1528.5657836865887,-189.86219222426573 L1528.6189289318525,-189.7181603253536 L1528.6668295261668,-189.57127666394376 L1528.7093700728046,-189.42189509564207 L1528.746448087863,-189.27037549373082 L1528.7779742471555,-189.1170828822026 L1528.8038726014036,-188.96238655638538 L1528.8240807592033,-188.80665919327788 L1528.8385500373324,-188.65027595373792 L1528.8472455780325,-188.49361357868713 L1528.8501464329845,-188.33704948150898 " />
			<path d="M65.19195820651885,-0.2079705901589488 L65.19195460991511,-31.669068435525098 " />
			<path d="M1528.8501500295881,-156.87595163614282 L1528.8501464329845,-188.33704948150898 " />
			<path d="M1464.2790676824884,-563.5948960549441 L1526.4419026652763,-558.5005734953439 " />
			<path d="M65.1919561789833,-404.82154925879905 L65.1900087086988,-404.6936088939541 L65.18416944755788,-404.56619464687145 L65.1744478396043,-404.4395125891231 L65.16085960793872,-404.31376760808536 L65.1434267292892,-404.189163075567 L65.12217739846747,-404.0659005188893 L65.09714598276845,-403.9441792949483 L65.0683729663868,-403.8241962677882 L65.03590488494042,-403.7061454902059 L64.99979425020672,-403.59021788990276 L64.96009946519348,-403.47660096069023 L64.91688472968161,-403.3654784592498 L64.87021993639256,-403.25703010793643 L64.82018055794833,-403.15143130410763 L64.76684752480698,-403.0488528364467 L64.71030709437086,-402.9494606087404 L64.65065071147951,-402.85341537155705 L64.58797486051269,-402.76087246225825 L64.52238090934274,-402.67198155376724 L64.45397494538877,-402.5868864124967 L64.38286760403767,-402.5057246658309 L64.30917388970968,-402.42862757953554 L64.23301298985754,-402.3557198454575 L64.15450808220052,-402.2871193798557 L64.07378613550465,-402.2229371326915 L63.9909777042317,-402.16327690818525 L63.9062167173888,-402.1082351969298 L63.8196402619203,-402.0579010198331 L63.73138836099224,-402.01235578414145 L63.64160374752791,-401.9716731517768 L63.55043163336083,-401.93591892020055 L63.45801947437853,-401.905150915997 " />
			<path d="M1528.8501480883383,-561.4891487499555 L1528.8477475875193,-561.3471309086879 L1528.8405508706244,-561.2057896378072 L1528.8285722848002,-561.0654067107853 L1528.8118357101748,-560.9262619905695 L1528.7903745122526,-560.7886328716576 L1528.7642314753964,-560.6527937270928 L1528.7334587175346,-560.519015361482 L1528.6981175862607,-560.3875644711292 L1528.6582785365322,-560.2587031123568 L1528.6140209902144,-560.1326881790797 L1528.5654331777464,-560.0097708906692 L1528.5126119622496,-559.8901962911301 L1528.455662646422,-559.7742027605889 L1528.3946987626127,-559.6620215400661 L1528.3298418464851,-559.5538762704828 L1528.2612211947287,-559.4499825468156 L1528.1889736072972,-559.3505474882945 L1528.113243114687,-559.2557693254961 L1528.0341806908052,-559.1658370051576 L1527.9519439519904,-559.0809298134983 L1527.8666968427947,-559.0012170188006 L1527.7786093091495,-558.926857533962 L1527.687856959566,-558.8579995996911 L1527.5946207150478,-558.7947804889803 L1527.4990864484128,-558.7373262334421 L1527.4014446137423,-558.6857513720568 L1527.3018898666994,-558.640158722831 L1527.2006206764675,-558.6006391778232 L1527.09783893009,-558.5672715219438 L1526.9937495299941,-558.5401222758926 L1526.8885599855046,-558.5192455635448 L1526.782479999158,-558.5046830040516 " />
			<path d="M1526.782479999158,-558.5046830040516 L1526.6977113522444,-558.497634272175 L1526.612620823455,-558.4945980721054 L1526.5273154814724,-558.4955782242674 L1526.4419026652763,-558.5005734953439 " />
			<path d="M1464.2790676824884,-563.5948960549441 L1464.2179614448453,-563.6009295492998 L1464.15689455542,-563.6090106810557 L1464.0959063370926,-563.619134246518 L1464.035036062085,-563.6312937268063 L1463.9743229266708,-563.6454812920509 L1463.9138060259372,-563.661687806435 L1463.793516651958,-563.7001146457502 L1463.6744777226318,-563.7464752837103 L1463.5569958001597,-563.800650327279 L1463.4413734369666,-563.8625002588992 L1463.3279083965353,-563.9318657957946 " />
			<path d="M1462.5945515931865,-600.6568155796308 L1462.663915823258,-600.7374605831388 L1462.7358059136682,-600.814202940572 L1462.8101094388715,-600.8869226381522 L1462.8867101990656,-600.9555059529504 L1462.9654884019094,-601.0198456307331 L1463.0463208498616,-601.0798410536921 L1463.1290811328429,-601.1353983977954 L1463.2136398259233,-601.186430779515 L1463.2998646917238,-601.2328583916996 L1463.3876208872152,-601.2746086283809 L1463.4767711745942,-601.3116161983196 L1463.5671761359017,-601.3438232271105 L1463.6586943910538,-601.3711793476898 L1463.7511828189379,-601.3936417791018 L1463.8444967812338,-601.4111753934025 L1463.9384903486066,-601.4237527705934 " />
			<path d="M1463.9384903486066,-601.4237527705934 L1464.0232589955203,-601.43080150247 L1464.1083495243097,-601.4338377025396 L1464.1936548662923,-601.4328575503775 L1464.2790676824884,-601.427862279301 " />
			<path d="M0.6208757731332035,-444.7602627881447 L62.783710755921305,-439.6659402285445 " />
			<path d="M1464.2790676824884,-601.427862279301 L1526.4419026652763,-596.3335397197009 " />
			<path d="M62.7837107559213,-439.6659402285445 L62.9018777580406,-439.6524186969782 L63.01976008550159,-439.6312545459102 L63.13707374945214,-439.6024987616341 L63.25353613100033,-439.5662206193529 L63.368866662068115,-439.522507516289 L63.48278750130439,-439.47146476113653 L63.59502420342914,-439.4132153203634 L63.70530638039619,-439.3478995219745 L63.81336835278162,-439.2756747174492 L63.91894978982887,-439.1967149026676 L64.02179633660825,-439.11121029873976 L64.12166022678025,-439.0193668937457 L64.21830087948642,-438.92140594649265 L64.31148547892967,-438.81756345348293 L64.40098953524793,-438.7080895803777 L64.4865974253299,-438.593248059326 L64.56810291227002,-438.4733155536111 L64.6453096422112,-438.348580991144 L64.7180316173785,-438.2193448684112 L64.78609364416404,-438.08591852655206 L64.8493317551838,-437.94862340131095 L64.90759360428929,-437.8077902486702 L64.9607388335829,-437.66375834803 L65.00863941155227,-437.5168746848547 L65.0511799415095,-437.3674931147544 L65.08825793959181,-437.21597351101576 L65.11978408165416,-437.06268089763574 L65.14568241845896,-436.9079845699468 L65.16589055864443,-436.7522572049522 L65.18035981903083,-436.5958739635142 L65.18905534190253,-436.43921158655905 L65.1919561789833,-436.28264748747483 " />
			<path d="M1526.4419026652763,-596.3335397197009 L1526.5600696673955,-596.3200181881346 L1526.6779519948566,-596.2988540370666 L1526.7952656588072,-596.2700982527905 L1526.9117280403552,-596.2338201105092 L1527.0270585714231,-596.1901070074454 L1527.1409794106594,-596.1390642522929 L1527.2532161127842,-596.0808148115198 L1527.363498289751,-596.0154990131309 L1527.4715602621366,-595.9432742086055 L1527.5771416991838,-595.864314393824 L1527.6799882459632,-595.7788097898961 L1527.7798521361353,-595.686966384902 L1527.8764927888415,-595.589005437649 L1527.9696773882847,-595.4851629446392 L1528.059181444603,-595.375689071534 L1528.144789334685,-595.2608475504824 L1528.226294821625,-595.1409150447674 L1528.3035015515661,-595.0161804823003 L1528.3762235267336,-594.8869443595676 L1528.444285553519,-594.7535180177084 L1528.507523664539,-594.6162228924674 L1528.5657855136442,-594.4753897398265 L1528.618930742938,-594.3313578391864 L1528.6668313209072,-594.184474176011 L1528.7093718508645,-594.0350926059108 L1528.746449848947,-593.8835730021722 L1528.7779759910093,-593.7302803887922 L1528.803874327814,-593.5755840611032 L1528.8240824679995,-593.4198566961085 L1528.838551728386,-593.2634734546706 L1528.8472472512576,-593.1068110777154 L1528.8501480883383,-592.9502469786312 " />
			<path d="M65.19195617898332,-404.8215492587991 L65.19195617898332,-436.28264748747483 " />
			<path d="M1528.8501480883383,-561.4891487499555 L1528.8501480883383,-592.9502469786313 " />
			<path d="M1464.2790676824884,-968.2085137806984 L1526.4419026652763,-963.1141912210982 " />
			<path d="M65.19195617898336,-809.4351669845535 L65.19000870869884,-809.3072266197084 L65.18416944755792,-809.1798123726257 L65.17444783960433,-809.0531303148774 L65.16085960793875,-808.9273853338397 L65.14342672928922,-808.8027808013212 L65.12217739846749,-808.6795182446435 L65.09714598276845,-808.5577970207024 L65.06837296638679,-808.4378139935424 L65.03590488494038,-808.31976321596 L64.99979425020665,-808.2038356156568 L64.9600994651934,-808.0902186864442 L64.9168847296815,-807.9790961850038 L64.87021993639243,-807.8706478336904 L64.82018055794818,-807.7650490298616 L64.76684752480679,-807.6624705622006 L64.71030709437063,-807.5630783344944 L64.65065071147926,-807.467033097311 L64.5879748605124,-807.3744901880123 L64.52238090934242,-807.2855992795212 L64.45397494538841,-807.2005041382506 L64.38286760403729,-807.1193423915848 L64.30917388970924,-807.0422453052895 L64.23301298985707,-806.9693375712114 L64.15450808220001,-806.9007371056097 L64.07378613550411,-806.8365548584455 L63.99097770423112,-806.7768946339393 L63.906216717388176,-806.7218529226838 L63.81964026191963,-806.671518745587 L63.73138836099154,-806.6259735098955 L63.641603747527164,-806.5852908775308 L63.55043163336005,-806.5495366459546 L63.45801947437771,-806.5187686417511 " />
			<path d="M1528.8501480883383,-966.1027664757098 L1528.8477475875193,-965.9607486344422 L1528.8405508706244,-965.8194073635616 L1528.8285722848002,-965.6790244365396 L1528.8118357101748,-965.5398797163239 L1528.7903745122526,-965.4022505974119 L1528.7642314753964,-965.2664114528471 L1528.7334587175346,-965.1326330872364 L1528.6981175862607,-965.0011821968835 L1528.6582785365322,-964.8723208381111 L1528.6140209902144,-964.746305904834 L1528.5654331777464,-964.6233886164235 L1528.5126119622496,-964.5038140168845 L1528.455662646422,-964.3878204863432 L1528.3946987626127,-964.2756392658205 L1528.3298418464851,-964.1674939962371 L1528.2612211947287,-964.0636002725699 L1528.1889736072972,-963.9641652140489 L1528.113243114687,-963.8693870512504 L1528.0341806908052,-963.779454730912 L1527.9519439519904,-963.6945475392527 L1527.8666968427947,-963.614834744555 L1527.7786093091495,-963.5404752597163 L1527.687856959566,-963.4716173254454 L1527.5946207150478,-963.4083982147347 L1527.4990864484128,-963.3509439591965 L1527.4014446137423,-963.2993690978111 L1527.3018898666994,-963.2537764485853 L1527.2006206764675,-963.2142569035775 L1527.09783893009,-963.1808892476981 L1526.9937495299941,-963.153740001647 L1526.8885599855046,-963.1328632892992 L1526.782479999158,-963.1183007298059 " />
			<path d="M1526.782479999158,-963.1183007298059 L1526.6977113522444,-963.1112519979293 L1526.612620823455,-963.1082157978598 L1526.5273154814724,-963.1091959500218 L1526.4419026652763,-963.1141912210983 " />
			<path d="M1464.2790676824884,-968.2085137806985 L1464.2012427449145,-968.2165556436265 L1464.1234991031738,-968.2279171287346 L1464.045917968178,-968.2425863678297 L1463.9685803810844,-968.2605480374427 L1463.8915671286406,-968.2817833748359 L1463.8149586587945,-968.3062701976021 L1463.7388349966584,-968.3339829268368 L1463.6632756609154,-968.3648926138574 L1463.5883595807538,-968.398966970443 L1463.5141650134183,-968.4361704025632 L1463.4407694624615,-968.4764640475589 L1463.368249596785,-968.5198058147386 L1463.2966811705505,-968.5661504293461 L1463.226138944047,-968.6154494798543 L1463.156696605597,-968.6676514685365 L1463.0884266945811,-968.72270186526 " />
			<path d="M1463.1381167144411,-1005.7547392116569 L1463.2324169655942,-1005.8106302459985 L1463.328739387683,-1005.8608119397135 L1463.4268978819457,-1005.905187339768 L1463.5267028022556,-1005.9436707111188 L1463.6279613215258,-1005.9761877023575 L1463.7304778042578,-1006.00267548936 L1463.8340541845175,-1006.023082896665 L1463.9384903486066,-1006.0373704963476 " />
			<path d="M1463.9384903486066,-1006.0373704963476 L1464.0232589955203,-1006.0444192282242 L1464.1083495243097,-1006.0474554282938 L1464.1936548662923,-1006.0464752761318 L1464.2790676824884,-1006.0414800050553 " />
			<path d="M0.6208757731332355,-849.3738805138989 L62.78371075592134,-844.2795579542988 " />
			<path d="M1464.2790676824884,-1006.0414800050553 L1526.4419026652763,-1000.9471574454551 " />
			<path d="M62.78371075592135,-844.2795579542988 L62.90187775804065,-844.2660364227324 L63.01976008550164,-844.2448722716645 L63.13707374945219,-844.2161164873884 L63.25353613100038,-844.1798383451071 L63.368866662068164,-844.1361252420432 L63.482787501304436,-844.0850824868908 L63.59502420342919,-844.0268330461176 L63.70530638039624,-843.9615172477288 L63.81336835278167,-843.8892924432034 L63.91894978982892,-843.8103326284219 L64.02179633660829,-843.724828024494 L64.12166022678029,-843.6329846194999 L64.21830087948648,-843.5350236722469 L64.31148547892973,-843.4311811792371 L64.40098953524799,-843.3217073061319 L64.48659742532996,-843.2068657850803 L64.56810291227008,-843.0869332793653 L64.64530964221125,-842.9621987168982 L64.71803161737854,-842.8329625941655 L64.7860936441641,-842.6995362523063 L64.84933175518384,-842.5622411270652 L64.90759360428933,-842.4214079744244 L64.96073883358294,-842.2773760737842 L65.00863941155232,-842.1304924106089 L65.05117994150956,-841.9811108405087 L65.08825793959187,-841.82959123677 L65.11978408165422,-841.67629862339 L65.14568241845902,-841.5216022957011 L65.16589055864448,-841.3658749307064 L65.18035981903088,-841.2094916892685 L65.18905534190259,-841.0528293123133 L65.19195617898336,-840.8962652132291 " />
			<path d="M1526.4419026652763,-1000.9471574454551 L1526.5600696673955,-1000.9336359138888 L1526.6779519948566,-1000.9124717628208 L1526.7952656588072,-1000.8837159785447 L1526.9117280403552,-1000.8474378362635 L1527.0270585714231,-1000.8037247331996 L1527.1409794106594,-1000.7526819780471 L1527.2532161127842,-1000.694432537274 L1527.363498289751,-1000.6291167388852 L1527.4715602621366,-1000.5568919343598 L1527.5771416991838,-1000.4779321195782 L1527.6799882459632,-1000.3924275156503 L1527.7798521361353,-1000.3005841106562 L1527.8764927888415,-1000.2026231634032 L1527.9696773882847,-1000.0987806703935 L1528.059181444603,-999.9893067972882 L1528.144789334685,-999.8744652762366 L1528.226294821625,-999.7545327705217 L1528.3035015515661,-999.6297982080546 L1528.3762235267336,-999.5005620853218 L1528.444285553519,-999.3671357434627 L1528.507523664539,-999.2298406182216 L1528.5657855136442,-999.0890074655807 L1528.618930742938,-998.9449755649406 L1528.6668313209072,-998.7980919017652 L1528.7093718508645,-998.648710331665 L1528.746449848947,-998.4971907279264 L1528.7779759910093,-998.3438981145464 L1528.803874327814,-998.1892017868574 L1528.8240824679995,-998.0334744218627 L1528.838551728386,-997.8770911804248 L1528.8472472512576,-997.7204288034696 L1528.8501480883383,-997.5638647043854 " />
			<path d="M65.19195617898336,-809.4351669845533 L65.19195617898336,-840.8962652132292 " />
			<path d="M1528.8501480883385,-966.1027664757097 L1528.8501480883385,-997.5638647043855 " />
			<path d="M1464.2790676824884,-1372.8221315064523 L1526.4419026652763,-1367.727808946852 " />
			<path d="M65.19195617898339,-1214.0487847103072 L65.19000870869887,-1213.9208443454622 L65.18416944755795,-1213.7934300983795 L65.17444783960437,-1213.6667480406313 L65.16085960793879,-1213.5410030595935 L65.14342672928929,-1213.4163985270752 L65.12217739846757,-1213.2931359703975 L65.09714598276855,-1213.1714147464565 L65.06837296638692,-1213.0514317192965 L65.03590488494054,-1212.9333809417142 L64.99979425020683,-1212.817453341411 L64.9600994651936,-1212.7038364121984 L64.91688472968174,-1212.592713910758 L64.8702199363927,-1212.4842655594446 L64.82018055794849,-1212.3786667556158 L64.76684752480715,-1212.276088287955 L64.71030709437103,-1212.1766960602488 L64.6506507114797,-1212.0806508230653 L64.58797486051289,-1211.9881079137665 L64.52238090934294,-1211.8992170052754 L64.45397494538898,-1211.8141218640048 L64.3828676040379,-1211.7329601173392 L64.30917388970992,-1211.6558630310437 L64.2330129898578,-1211.5829552969658 L64.15450808220078,-1211.514354831364 L64.07378613550493,-1211.4501725841997 L63.990977704231994,-1211.3905123596935 L63.9062167173891,-1211.335470648438 L63.81964026192062,-1211.2851364713413 L63.731388360992575,-1211.2395912356496 L63.64160374752825,-1211.198908603285 L63.550431633361185,-1211.1631543717087 L63.4580194743789,-1211.1323863675052 " />
			<path d="M1528.8501480883383,-1370.7163842014636 L1528.8477475875193,-1370.5743663601959 L1528.8405508706244,-1370.4330250893154 L1528.8285722848002,-1370.2926421622933 L1528.8118357101748,-1370.1534974420774 L1528.7903745122526,-1370.0158683231657 L1528.7642314753964,-1369.8800291786008 L1528.7334587175346,-1369.7462508129902 L1528.6981175862607,-1369.614799922637 L1528.6582785365322,-1369.4859385638647 L1528.6140209902144,-1369.3599236305877 L1528.5654331777464,-1369.2370063421772 L1528.5126119622496,-1369.1174317426382 L1528.455662646422,-1369.001438212097 L1528.3946987626127,-1368.8892569915743 L1528.3298418464851,-1368.7811117219908 L1528.2612211947287,-1368.6772179983236 L1528.1889736072972,-1368.5777829398025 L1528.113243114687,-1368.4830047770042 L1528.0341806908052,-1368.3930724566655 L1527.9519439519904,-1368.3081652650064 L1527.8666968427947,-1368.2284524703086 L1527.7786093091495,-1368.15409298547 L1527.687856959566,-1368.085235051199 L1527.5946207150478,-1368.0220159404882 L1527.4990864484128,-1367.9645616849502 L1527.4014446137423,-1367.9129868235648 L1527.3018898666994,-1367.867394174339 L1527.2006206764675,-1367.827874629331 L1527.09783893009,-1367.7945069734517 L1526.9937495299941,-1367.7673577274006 L1526.8885599855046,-1367.746481015053 L1526.782479999158,-1367.7319184555597 " />
			<path d="M1526.782479999158,-1367.7319184555597 L1526.6977113522444,-1367.724869723683 L1526.612620823455,-1367.7218335236134 L1526.5273154814724,-1367.7228136757753 L1526.4419026652763,-1367.727808946852 " />
			<path d="M1464.2790676824884,-1372.8221315064523 L1464.1970486135601,-1372.8307013233864 L1464.1151247078255,-1372.8429576991578 L1464.033391018065,-1372.8588864132212 L1463.9519423763588,-1372.878468984176 L1463.870873284059,-1372.901682691208 L1463.790277802142,-1372.9285006004525 L1463.7102494420756,-1372.9588915962447 L1463.6308810573191,-1372.9928204172204 " />
			<path d="M1463.6813487035756,-1410.6043924437179 L1463.7450878563477,-1410.6195542295868 L1463.809222926283,-1410.6323801712763 L1463.873706360696,-1410.6428607590442 L1463.9384903486066,-1410.6509882221014 " />
			<path d="M1463.9384903486066,-1410.6509882221014 L1464.0232589955203,-1410.6580369539781 L1464.1083495243097,-1410.6610731540477 L1464.1936548662923,-1410.6600930018858 L1464.2790676824884,-1410.655097730809 " />
			<path d="M0.6208757731332746,-1253.9874982396527 L62.783710755921376,-1248.8931756800525 " />
			<path d="M1464.2790676824884,-1410.655097730809 L1526.4419026652763,-1405.560775171209 " />
			<path d="M62.783710755921376,-1248.8931756800525 L62.901877758040676,-1248.8796541484865 L63.019760085501666,-1248.8584899974182 L63.13707374945222,-1248.8297342131423 L63.25353613100041,-1248.793456070861 L63.36886666206819,-1248.7497429677971 L63.482787501304465,-1248.6987002126448 L63.59502420342922,-1248.6404507718717 L63.705306380396266,-1248.5751349734826 L63.8133683527817,-1248.5029101689572 L63.91894978982895,-1248.4239503541758 L64.02179633660832,-1248.338445750248 L64.12166022678032,-1248.246602345254 L64.2183008794865,-1248.1486413980008 L64.31148547892975,-1248.044798904991 L64.40098953524802,-1247.935325031886 L64.48659742532999,-1247.8204835108343 L64.5681029122701,-1247.7005510051192 L64.64530964221127,-1247.5758164426522 L64.71803161737857,-1247.4465803199193 L64.78609364416413,-1247.3131539780602 L64.84933175518387,-1247.1758588528191 L64.90759360428936,-1247.0350257001783 L64.96073883358297,-1246.8909937995381 L65.00863941155235,-1246.744110136363 L65.05117994150959,-1246.5947285662626 L65.0882579395919,-1246.4432089625238 L65.11978408165425,-1246.2899163491438 L65.14568241845905,-1246.1352200214549 L65.1658905586445,-1245.9794926564603 L65.18035981903091,-1245.8231094150224 L65.18905534190262,-1245.6664470380672 L65.19195617898339,-1245.509882938983 " />
			<path d="M1526.4419026652763,-1405.560775171209 L1526.5600696673955,-1405.5472536396428 L1526.6779519948566,-1405.5260894885746 L1526.7952656588072,-1405.4973337042986 L1526.9117280403552,-1405.4610555620175 L1527.0270585714231,-1405.4173424589535 L1527.1409794106594,-1405.3662997038011 L1527.2532161127842,-1405.308050263028 L1527.363498289751,-1405.242734464639 L1527.4715602621366,-1405.1705096601136 L1527.5771416991838,-1405.091549845332 L1527.6799882459632,-1405.0060452414043 L1527.7798521361353,-1404.9142018364103 L1527.8764927888415,-1404.8162408891571 L1527.9696773882847,-1404.7123983961474 L1528.059181444603,-1404.6029245230422 L1528.144789334685,-1404.4880830019906 L1528.226294821625,-1404.3681504962756 L1528.3035015515661,-1404.2434159338086 L1528.3762235267336,-1404.1141798110757 L1528.444285553519,-1403.9807534692166 L1528.507523664539,-1403.8434583439755 L1528.5657855136442,-1403.7026251913346 L1528.618930742938,-1403.5585932906945 L1528.6668313209072,-1403.4117096275193 L1528.7093718508645,-1403.262328057419 L1528.746449848947,-1403.1108084536802 L1528.7779759910093,-1402.9575158403002 L1528.803874327814,-1402.8028195126112 L1528.8240824679995,-1402.6470921476166 L1528.838551728386,-1402.4907089061787 L1528.8472472512576,-1402.3340465292235 L1528.8501480883383,-1402.1774824301394 " />
			<path d="M65.19195617898339,-1214.0487847103072 L65.19195617898339,-1245.509882938983 " />
			<path d="M1528.8501480883385,-1370.7163842014636 L1528.8501480883385,-1402.1774824301394 " />
			<path d="M1464.2790658028734,-1790.17905140043 L1526.4419007856613,-1785.0847288374969 " />
			<path d="M65.1919546201569,-1631.4060413971006 L65.19000713594355,-1631.2781009970577 L65.1841678588355,-1631.1506867151127 L65.17444623290729,-1631.0240046230033 L65.16085798129701,-1630.8982596082699 L65.14342508077664,-1630.7736550428833 L65.12217572620816,-1630.650392454325 L65.09714428494311,-1630.5286711996475 L65.06837124123894,-1630.4086881430496 L65.03590313078237,-1630.2906373374783 L64.99979246542556,-1630.1747097107811 L64.96009764825673,-1630.061092756912 L64.91688287914282,-1629.949970232689 L64.8702180508966,-1629.8415218605999 L64.82017863623658,-1629.735923038128 L64.76684556572225,-1629.6333445540772 L64.71030509686209,-1629.5339523123491 L64.65064867460619,-1629.4379070636194 L64.58797278344909,-1629.3453641453507 L64.52237879138178,-1629.2564732305602 L64.45397278594572,-1629.1713780857467 L64.38286540265348,-1629.0902163383732 L64.30917164605398,-1629.013119254276 L64.23301070373151,-1628.9402115253645 L64.1545057535392,-1628.8716110679516 L64.07378376437914,-1628.8074288320443 L63.9909752908509,-1628.7477686218995 L63.90621426210086,-1628.6927269281382 L63.81963776521376,-1628.642392771687 L63.73138582349677,-1628.596847559802 L63.641601170014724,-1628.5561649544054 L63.550429016742754,-1628.5204107529503 L63.458016819709734,-1628.4896427820026 " />
			<path d="M1528.8501465294953,-1788.0733041262956 L1528.8477460137851,-1787.931286266595 L1528.8405492808852,-1787.7899449774798 L1528.8285706779768,-1787.649562032525 L1528.8118340852286,-1787.5104172947808 L1528.7903728681888,-1787.3727881588459 L1528.764229811268,-1787.236948997863 L1528.7334570324479,-1787.1031706165365 L1528.6981158793778,-1786.9717197112648 L1528.6582768070757,-1786.8428583384627 L1528.6140192374705,-1786.7168433921345 L1528.5654314010694,-1786.5939260917376 L1528.512610161064,-1786.4743514813588 L1528.455660820227,-1786.358357941203 L1528.3946969109834,-1786.2461767123652 L1528.3298399690768,-1786.1380314358364 L1528.2612192912793,-1786.0341377066584 L1528.1889716776284,-1785.9347026441217 L1528.113241158708,-1785.839924478858 L1528.0341787085129,-1785.7499921576546 L1527.9519419434719,-1785.665084966775 L1527.8666948082289,-1785.585372174541 L1527.7786072488072,-1785.5110126938823 L1527.6878548738116,-1785.4421547655352 L1527.5946186043393,-1785.3789356625127 L1527.4990843133023,-1785.321481416442 L1527.4014424548764,-1785.2699065663123 L1527.3018876848178,-1785.2243139301315 L1527.2006184724034,-1785.1847943999544 L1527.0978367047692,-1785.1514267606804 L1526.9937472844335,-1785.124277532992 L1526.8885577208107,-1785.1034008407407 L1526.7824777165258,-1785.0888383030476 " />
			<path d="M1526.7824777165258,-1785.0888383030476 L1526.6977091684112,-1785.0817895963382 L1526.6126187399805,-1785.0787534118658 L1526.5273134995325,-1785.0797335700258 L1526.4419007856613,-1785.0847288374966 " />
			<path d="M1464.2790658028732,-1790.1790514004297 L1464.1906790099024,-1790.1884412870447 " />
			<path d="M1464.241434742973,-1828.0147132007157 L1464.2790696120403,-1828.0120180322945 " />
			<path d="M0.6208777027014065,-1671.3447553030994 L62.78371268548952,-1666.2504327401664 " />
			<path d="M1464.27906961204,-1828.0120180322942 L1526.441904594828,-1822.9176954693612 " />
			<path d="M62.78371268548952,-1666.2504327401666 L62.90187968722244,-1666.2369112085526 L63.01976201352521,-1666.2157470573543 L63.137075675548495,-1666.1869912728657 L63.25353805440501,-1666.1507131302903 L63.36886858202321,-1666.1070000268512 L63.48278941706028,-1666.0559572712434 L63.595026114246345,-1665.997707829936 L63.7053082855471,-1665.932392030935 L63.81337025155231,-1665.8601672257212 L63.91895168152075,-1665.7812074101766 L64.0217982205398,-1665.6957028054132 L64.12166210228865,-1665.6038593995127 L64.21830274592915,-1665.5058984512846 L64.31148733568602,-1665.4020559572336 L64.40099138172056,-1665.2925820830235 L64.4865992609462,-1665.1777405608057 L64.56810473648358,-1665.0578080538664 L64.64531145450306,-1664.93307349012 L64.71803341725841,-1664.8038373660554 L64.78609543117167,-1664.6704110228154 L64.84933352888982,-1664.533115896148 L64.90759536429643,-1664.3922827420386 L64.96074057952686,-1664.248250839891 L65.00864114310268,-1664.1013671751734 L65.05118165837061,-1663.9519856034992 L65.08825964150329,-1663.8004659981593 L65.11978576839168,-1663.6471733831543 L65.14568408983477,-1663.4924770538205 L65.16589221450775,-1663.3367496871654 L65.18036145926828,-1663.180366444055 L65.18905696643837,-1663.0237040654195 L65.19195778777961,-1662.8671399646514 " />
			<path d="M1526.4419045948284,-1822.9176954693614 L1526.5600715965613,-1822.9041739377474 L1526.6779539228642,-1822.883009786549 L1526.7952675848874,-1822.8542540020605 L1526.911729963744,-1822.8179758594852 L1527.0270604913621,-1822.774262756046 L1527.1409813263992,-1822.7232200004382 L1527.2532180235853,-1822.6649705591308 L1527.363500194886,-1822.5996547601299 L1527.4715621608912,-1822.527429954916 L1527.5771435908596,-1822.4484701393715 L1527.6799901298787,-1822.362965534608 L1527.7798540116275,-1822.2711221287075 L1527.876494655268,-1822.1731611804794 L1527.969679245025,-1822.0693186864285 L1528.0591832910595,-1821.9598448122183 L1528.144791170285,-1821.8450032900005 L1528.2262966458225,-1821.7250707830613 L1528.3035033638419,-1821.6003362193148 L1528.3762253265973,-1821.4711000952502 L1528.4442873405105,-1821.3376737520102 L1528.5075254382286,-1821.2003786253429 L1528.5657872736354,-1821.0595454712334 L1528.6189324888658,-1820.9155135690858 L1528.6668330524415,-1820.7686299043683 L1528.7093735677095,-1820.619248332694 L1528.7464515508423,-1820.4677287273541 L1528.7779776777306,-1820.314436112349 L1528.8038759991737,-1820.1597397830153 L1528.8240841238467,-1820.0040124163602 L1528.838553368607,-1819.8476291732497 L1528.8472488757773,-1819.6909667946143 L1528.8501496971185,-1819.5344026938462 " />
			<path d="M65.19195462015689,-1631.4060413971006 L65.1919577877796,-1662.867139964651 " />
			<path d="M1528.8501465294953,-1788.0733041262956 L1528.850149697118,-1819.534402693846 " />
			<path d="M63.87649601074216,-1666.0249765477652 L63.87649601074215,-1628.5020907612368 " />
			<path d="M63.87649601074212,-1260.7906225956315 L63.87649601074212,-1211.1448340805302 " />
			<path d="M63.876496010742095,-856.1770048698774 L63.87649601074209,-806.5312163547766 " />
			<path d="M63.87649601074206,-451.5633871441232 L63.87649601074206,-401.91759862902217 " />
			<path d="M63.87649601074203,-46.9498248074935 L63.876496010742024,2.6959800617286733 " />
			<path d="M1526.7824827603797,-153.8914859768269 L1526.1362327481504,-153.82231225496173 " />
			<path d="M1463.9384878702585,-196.81055515372458 L1462.0523950768397,-196.6086703477903 " />
			<path d="M1526.7824799991583,-558.5046830040516 L1462.5287629074935,-551.6270693161159 " />
			<path d="M1463.9384903486068,-601.4237527705934 L1462.5953877748884,-601.2799892489885 " />
			<path d="M1526.7824799991583,-963.1183007298059 L1463.0717561690265,-956.2988081601029 " />
			<path d="M1463.9384903486068,-1006.0373704963475 L1463.1383810364212,-1005.9517280929753 " />
			<path d="M1526.7824799991583,-1367.7319184555597 L1463.6147494305587,-1360.9705470040894 " />
			<path d="M1463.9384903486068,-1410.6509882221017 L1463.6813742979537,-1410.6234669369621 " />
			<path d="M1526.7824777165265,-1785.0888383030479 L1464.1748442794647,-1778.3874331452344 " />

       </g>

       <!-- solid lines -->
       <g  stroke="rgb(0,0,0)" fill="none">
			<path d="M-37.76053565691759,-5.459083808246753 L62.783710755921284,2.7806437215666193 " />
			<path d="M-37.760535656917455,-1674.4902569269832 L0.4502397632488613,-1671.3588357925278 " />
			<path d="M63.084741433804034,3.203555314200325 L63.26411272087086,3.18251963375366 L63.42260642854615,3.16006133197077 L63.55894378746963,3.136361608399734 L63.67202479159178,3.1116116787095778 L63.76093707331505,3.0860112319114354 L63.79609797938549,3.0729563890438603 L63.82496326471809,3.0597668192145324 L63.84747467672464,3.0464691400914035 L63.86358678547087,3.0330901875161267 L63.87326707535804,3.019656961347059 L63.87649601074203,3.006196570971264 " />
			<path d="M63.87649601074203,3.006196570971263 L63.87536194238544,2.9982181178767155 L63.87196054113507,2.990245319851662 L63.85836698886704,2.9743392852412147 L63.835753887152414,2.958523555475261 L63.804185336638405,2.9428429629048405 L63.763750823700896,2.9273419568118433 L63.71456496678018,2.912064477410026 L63.65676719147575,2.8970538312890755 L63.590521335320865,2.8823525686547806 L63.433459935828076,2.8540438915414614 L63.24516037426876,2.8274592014617177 L63.027756204937006,2.8028997199330474 L62.7837107559213,2.78064372156662 " />
			<path d="M-37.76053565691759,-5.459083808246753 L-38.0067318014563,-5.477342249257353 L-38.270850572455416,-5.493252654260446 L-38.550348361768236,-5.50666179735834 L-38.84253345289463,-5.517440541172818 L-39.144591943682435,-5.525485080508687 L-39.453614845743395,-5.530717942054549 L-39.76662609960156,-5.533088730493144 L-40.08061123577292,-5.532574613835806 L-40.392546405754416,-5.529180543306987 L-40.699427503338015,-5.5229392056612685 L-40.9982990957957,-5.513910708392041 L-41.28628288631229,-5.5021820008634865 L-41.56060543355715,-5.487866036940667 L-41.81862486144036,-5.471100687182062 L-42.05785630182363,-5.45204741107072 L-42.27599582515884,-5.430889702071174 " />
			<path d="M-37.760535656917455,-1674.4902569269834 L-38.006731801456155,-1674.508515367994 L-38.27085057245528,-1674.5244257729971 L-38.5503483617681,-1674.5378349160949 L-38.84253345289449,-1674.5486136599095 L-39.1445919436823,-1674.5566581992452 L-39.45361484574326,-1674.5618910607911 L-39.766626099601424,-1674.5642618492298 L-40.080611235772786,-1674.5637477325724 L-40.39254640575428,-1674.5603536620436 L-40.69942750333788,-1674.554112324398 L-40.998299095795566,-1674.5450838271286 L-41.28628288631216,-1674.5333551196002 L-41.560605433557015,-1674.5190391556773 L-41.81862486144023,-1674.5022738059185 L-42.05785630182349,-1674.4832205298073 L-42.2759958251587,-1674.4620628208077 " />
			<path d="M-42.27599582515886,-5.430889702071173 L-63.08474143380404,-3.2035553142003246 " />
			<path d="M-42.27599582515873,-1674.4620628208077 L-63.0847414338039,-1672.2347284329367 " />
			<path d="M-63.08474143380404,-3.203555314200325 L-63.26411272087086,-3.1825196337536594 L-63.42260642854615,-3.16006133197077 L-63.55894378746963,-3.136361608399734 L-63.67202479159178,-3.1116116787095778 L-63.76093707331505,-3.0860112319114354 L-63.79609797938549,-3.0729563890438603 L-63.82496326471809,-3.0597668192145324 L-63.84747467672464,-3.046469140091404 L-63.86358678547087,-3.033090187516127 L-63.87326707535804,-3.019656961347059 L-63.87649601074203,-3.0061965709712655 " />
			<path d="M-63.87649601074203,-3.006196570971263 L-63.87536194238544,-2.9982181178767155 L-63.87196054113507,-2.990245319851662 L-63.85836698886704,-2.9743392852412147 L-63.835753887152414,-2.9585235554752605 L-63.804185336638405,-2.9428429629048405 L-63.763750823700896,-2.9273419568118433 L-63.71456496678018,-2.912064477410026 L-63.65676719147575,-2.8970538312890755 L-63.590521335320865,-2.8823525686547806 L-63.433459935828076,-2.8540438915414614 L-63.24516037426876,-2.8274592014617177 L-63.027756204937006,-2.8028997199330474 L-62.78371075592129,-2.7806437215666198 " />
			<path d="M-63.0847414338039,-1672.2347284329367 L-63.26411272087072,-1672.21369275249 L-63.42260642854601,-1672.1912344507073 L-63.55894378746949,-1672.1675347271362 L-63.67202479159164,-1672.142784797446 L-63.760937073314906,-1672.117184350648 L-63.79609797938535,-1672.1041295077803 L-63.82496326471795,-1672.090939937951 L-63.847474676724495,-1672.0776422588278 L-63.86358678547073,-1672.0642633062525 L-63.873267075357894,-1672.0508300800834 L-63.87649601074189,-1672.0373696897077 " />
			<path d="M-63.87649601074189,-1672.0373696897077 L-63.873267075357894,-1672.023909299332 L-63.86358678547073,-1672.0104760731629 L-63.847474676724495,-1671.9970971205876 L-63.82496326471796,-1671.9837994414645 L-63.79609797938535,-1671.9706098716351 L-63.760937073314906,-1671.9575550287675 L-63.67202479159164,-1671.9319545819694 L-63.55894378746949,-1671.9072046522792 L-63.42260642854601,-1671.8835049287081 L-63.26411272087073,-1671.8610466269254 L-63.0847414338039,-1671.8400109464787 " />
			<path d="M-62.783710755921284,-2.7806437215666193 L37.76053565691759,5.459083808246753 " />
			<path d="M37.76053565691759,5.459083808246753 L38.0067318014563,5.477342249257353 L38.270850572455416,5.493252654260446 L38.550348361768236,5.50666179735834 L38.84253345289463,5.517440541172818 L39.144591943682435,5.525485080508687 L39.453614845743395,5.530717942054549 L39.76662609960156,5.533088730493144 L40.08061123577292,5.532574613835806 L40.392546405754416,5.529180543306987 L40.69942750333801,5.5229392056612685 L40.9982990957957,5.513910708392041 L41.28628288631229,5.5021820008634865 L41.56060543355716,5.487866036940667 L41.81862486144036,5.471100687182062 L42.05785630182363,5.45204741107072 L42.275995825158844,5.430889702071173 " />
			<path d="M63.08474143380404,3.2035553142003246 L42.27599582515886,5.430889702071173 " />
			<path d="M1488.0076277846929,-161.65693494404147 L1550.3990408646882,-156.5136719371645 " />
			<path d="M1490.247188271182,-1830.714178409335 L1552.6386013511774,-1825.570915402458 " />
			<path d="M1550.7190947150978,-156.0912468247536 L1550.8965023461058,-156.11194614218826 L1551.0532285775107,-156.13406876436093 L1551.1880241098904,-156.1574383469619 L1551.2998144582707,-156.1818686058842 L1551.3877085170823,-156.2071648021357 L1551.4224678891944,-156.22007483977114 L1551.4510056633603,-156.23312529414636 L1551.4732649409927,-156.24629014527784 L1551.4892013415654,-156.2595431450979 L1551.4987830910975,-156.27285786978803 L1551.501991085506,-156.28620777246283 " />
			<path d="M1551.501991085506,-156.28620777246283 L1551.5008561779764,-156.29421339552485 L1551.497430788064,-156.30221636080427 L1551.483720010123,-156.3181914025579 L1551.460898013985,-156.33408715145606 L1551.429030152915,-156.34985808829487 L1551.388207683996,-156.36545905128327 L1551.3385475068023,-156.38084536536883 L1551.2801918286466,-156.39597297016957 L1551.2133077573535,-156.41079854614563 L1551.0547444280867,-156.4393747794996 L1550.8646724720222,-156.46624697516788 L1550.6452674973061,-156.4911075477023 L1550.3990408646887,-156.5136719371645 " />
			<path d="M1552.9586552015867,-1825.148490290047 L1553.1360628325947,-1825.1691896074815 L1553.2927890639996,-1825.1913122296544 L1553.4275845963793,-1825.2146818122553 L1553.5393749447596,-1825.2391120711775 L1553.6272690035712,-1825.264408267429 L1553.6620283756833,-1825.2773183050645 L1553.6905661498492,-1825.2903687594396 L1553.7128254274817,-1825.303533610571 L1553.7287618280543,-1825.3167866103913 L1553.7383435775864,-1825.3301013350813 L1553.741551571995,-1825.3434512377562 " />
			<path d="M1553.741551571995,-1825.3434512377562 L1553.7404166644653,-1825.3514568608182 L1553.736991274553,-1825.3594598260977 L1553.723280496612,-1825.3754348678513 L1553.7004585004738,-1825.3913306167494 L1553.6685906394039,-1825.4071015535883 L1553.6277681704848,-1825.4227025165767 L1553.5781079932913,-1825.438088830662 L1553.5197523151355,-1825.453216435463 L1553.4528682438424,-1825.468042011439 L1553.2943049145756,-1825.496618244793 L1553.1042329585111,-1825.5234904404613 L1552.884827983795,-1825.5483510129957 L1552.6386013511776,-1825.5709154024578 " />
			<path d="M1488.007627784693,-161.6569349440415 L1487.7606126274038,-161.6753906976336 L1487.4957806531172,-161.6915194595574 L1487.215682338517,-161.7051659010188 L1486.9230151834904,-161.71619859932653 L1486.6205977327284,-161.72451130356484 L1486.3113424316,-161.73002395784772 L1485.9982275777113,-161.7326834723009 L1485.6842686382713,-161.73246423434634 L1485.3724892094938,-161.72936835536544 L1485.0658918977144,-161.7234256503651 L1484.7674294026485,-161.71469335084313 L1484.4799760812796,-161.7032555536175 L1484.2063002662308,-161.68922241092798 L1483.949037605207,-161.67272906961003 L1483.7106656782685,-161.65393436955665 L1483.4934801373786,-161.6330193140036 " />
			<path d="M1490.2471882711818,-1830.7141784093349 L1490.0001731138925,-1830.732634162927 L1489.735341139606,-1830.7487629248508 L1489.4552428250056,-1830.762409366312 L1489.162575669979,-1830.77344206462 L1488.860158219217,-1830.7817547688583 L1488.5509029180887,-1830.7872674231412 L1488.2377880642,-1830.7899269375944 L1487.92382912476,-1830.7897076996398 L1487.6120496959825,-1830.786611820659 L1487.3054523842031,-1830.7806691156586 L1487.0069898891372,-1830.7719368161365 L1486.7195365677683,-1830.7604990189109 L1486.4458607527195,-1830.7464658762215 L1486.1885980916957,-1830.7299725349035 L1485.9502261647572,-1830.71117783485 L1485.7330406238673,-1830.690262779297 " />
			<path d="M1483.4934801373786,-161.63301931400363 L1462.7851420151571,-159.42921189816278 " />
			<path d="M1485.7330406238673,-1830.690262779297 L1465.0247025016458,-1828.4864553634561 " />
			<path d="M1462.7851420151567,-159.42921189816272 L1462.6077343841487,-159.40851258072806 L1462.4510081527437,-159.38638995855538 L1462.316212620364,-159.36302037595442 L1462.2044222719837,-159.3385901170321 L1462.1165282131722,-159.3132939207806 L1462.08176884106,-159.30038388314517 L1462.053231066894,-159.28733342876995 L1462.0309717892617,-159.27416857763848 L1462.015035388689,-159.26091557781842 L1462.005453639157,-159.2476008531283 L1462.0022456447484,-159.2342509504535 " />
			<path d="M1462.0022456447484,-159.2342509504535 L1462.003380552278,-159.22624532739147 L1462.0068059421903,-159.21824236211205 L1462.0205167201314,-159.20226732035843 L1462.0433387162695,-159.18637157146026 L1462.0752065773395,-159.17060063462145 L1462.1160290462585,-159.15499967163305 L1462.165689223452,-159.1396133575475 L1462.2240449016078,-159.12448575274675 L1462.290928972901,-159.1096601767707 L1462.4494923021678,-159.08108394341673 L1462.6395642582322,-159.05421174774844 L1462.8589692329483,-159.029351175214 L1463.1051958655657,-159.0067867857518 " />
			<path d="M1465.0247025016458,-1828.4864553634561 L1464.8472948706378,-1828.4657560460216 L1464.6905686392329,-1828.4436334238487 L1464.5557731068532,-1828.4202638412478 L1464.4439827584729,-1828.3958335823256 L1464.3560886996613,-1828.3705373860741 L1464.3213293275492,-1828.3576273484387 L1464.2927915533833,-1828.3445768940635 L1464.2705322757508,-1828.331412042932 L1464.2545958751782,-1828.3181590431118 L1464.245014125646,-1828.3048443184218 L1464.2418061312376,-1828.291494415747 " />
			<path d="M1464.2418061312376,-1828.291494415747 L1464.2449782880485,-1828.2781359521107 L1464.2545242714361,-1828.2647955616055 L1464.2704250486274,-1828.2514998422887 L1464.292648916668,-1828.2382753031534 L1464.321151565631,-1828.2251483112727 L1464.355876166962,-1828.2121450392308 L1464.4437020239343,-1828.1866130599458 L1464.5554264082725,-1828.1618828863468 L1464.690158740221,-1828.1381516481122 L1464.8468250385906,-1828.1156085121859 L1465.0241764816983,-1828.0944331748856 " />
			<path d="M1525.4966089455613,-153.86352377887482 L1525.7436241028506,-153.84506802528273 L1526.0084560771372,-153.8289392633589 L1526.2885543917375,-153.81529282189751 L1526.581221546764,-153.80426012358978 L1526.883638997526,-153.79594741935148 L1527.1928942986544,-153.7904347650686 L1527.5060091525431,-153.78777525061543 L1527.8199680919831,-153.78799448856998 L1528.1317475207607,-153.79109036755088 L1528.43834483254,-153.79703307255122 L1528.736807327606,-153.80576537207318 L1529.0242606489749,-153.8172031692988 L1529.2979364640237,-153.83123631198833 L1529.5551991250475,-153.8477296533063 L1529.793571051986,-153.86652435335967 L1530.010756592876,-153.8874394089127 " />
			<path d="M1550.7190947150975,-156.09124682475357 L1530.010756592876,-153.8874394089127 " />
			<path d="M0.6208781619680899,-2.313717901997383 L62.7837131475612,2.780604626828623 " />
			<path d="M1464.2790699850373,-158.98169894798127 L1526.4419049706305,-153.88737641915526 " />
			<path d="M63.458022742701885,2.7084274453932227 L63.375602100283544,2.731387397915781 L63.29243668659421,2.750400435974734 L63.20863114824444,2.7654426355624753 L63.1242909373104,2.77649506915694 " />
			<path d="M63.12429093731039,2.776495069156941 L63.03952217864395,2.783543829538014 L62.95443153633639,2.786580047286907 L62.869126079503545,2.785599901946504 L62.78371314756122,2.780604626828628 " />
			<path d="M0.6208781619680925,-2.3137179019973804 L0.5027111594047475,-2.327239433458386 L0.3848288306233645,-2.3484035843279027 L0.2675151644792495,-2.377159368312726 L0.1510527798696068,-2.4134375102105254 L0.035722244879861864,-2.45715061279988 L-0.07819859912943494,-2.508193367387838 L-0.19043530686677612,-2.5664428075077774 L-0.30071749027244765,-2.631758605156401 L-0.40877946990704683,-2.7039834088561863 L-0.5143609149965243,-2.7829432227288744 L-0.6172074705918156,-2.8684478256667836 L-0.7170713703321969,-2.9602912295921167 L-0.8137120333361492,-3.0582521757002863 L-0.9068966437817754,-3.1620946674917523 L-0.9964007117805025,-3.2715685393082614 L-1.0820086141928906,-3.386410059003827 L-1.1635141140836625,-3.506342563298575 L-1.240720857564543,-3.631077124284812 L-1.3134428468279733,-3.760313245479666 L-1.3815048882321266,-3.8937395857474324 L-1.4447430143577278,-4.0310347093476375 L-1.5030048790199326,-4.171867860301893 L-1.5561501242836355,-4.315899759214026 L-1.6040507185980228,-4.462783420623852 L-1.6465912652357937,-4.612164988925546 L-1.6836692802939854,-4.763684590836789 L-1.7151954395866738,-4.916977202365027 L-1.741093793834756,-5.071673528182242 L-1.761301951634422,-5.227400891289741 L-1.7757712297635053,-5.383784130829694 L-1.7844667704636343,-5.540446505880494 L-1.7873676254156234,-5.697010603058615 " />
			<path d="M1462.0050246243268,-161.30531624328268 L1461.9737978021628,-161.43489161835856 L1461.94662267454,-161.56575484324688 L1461.923547003859,-161.69767591565045 L1461.904611347406,-161.83042297402278 L1461.88984898607,-161.96376270508284 L1461.8792858658496,-162.0974607538812 L1461.8729405522502,-162.2312821356971 L1461.870824197654,-162.36499164904254 " />
			<path d="M-1.7873676254156272,-5.697010603058645 L-1.787371222019366,-37.1581084484248 " />
			<path d="M1461.870824197654,-162.36499164904257 L1461.8708206010504,-193.82608949440873 " />
			<path d="M-1.787371222019369,-37.15810844842479 L-1.7849707381055633,-37.30012626884333 L-1.7777740393757235,-37.4414675191012 L-1.7657954729361456,-37.58185042584407 L-1.7490589188702441,-37.72099512624026 L-1.727597742631989,-37.85862422590632 L-1.7014547285296153,-37.994463351911484 L-1.6706819944322024,-38.12824169975872 L-1.635340887869177,-38.2596925732518 L-1.5955018637298584,-38.388553916172235 L-1.5512443438068648,-38.51456883470612 L-1.502656558463387,-38.637486109579314 L-1.4498353707399882,-38.757060696880124 L-1.3928860832515748,-38.873054216570864 L-1.3319222282594987,-38.98523542771468 L-1.2670653413373054,-39.09338068946997 L-1.1984447190813377,-39.19727440693357 L-1.1261971613492185,-39.29670946094379 L-1.0504666985400666,-39.39148762098646 L-0.9714043044601408,-39.48141994038094 L-0.889167595346334,-39.56632713295809 L-0.8039205156475344,-39.64603993047938 L-0.7158330111902613,-39.720399420084604 L-0.6250806903801469,-39.78925736109544 L-0.5318444741146906,-39.85247648054325 L-0.43631023510520084,-39.90993074683207 L-0.33866842732695435,-39.961505620991105 L-0.2391137063362938,-40.00709828501594 L-0.13784454121159828,-40.04661784684321 L-0.03506281889173812,-40.07998552155004 L0.069026558299216,-40.10713478841717 L0.17421608113864984,-40.12801152354248 L0.2802960471890716,-40.142574107740685 " />
			<path d="M0.28029604718909334,-40.142574107740685 L0.36506480585553597,-40.14962286812176 L0.4501554481630885,-40.15265908587065 L0.5354609049959405,-40.151678940530246 L0.6208738369382727,-40.14668366541237 " />
			<path d="M1461.8708206010501,-193.82608949440868 L1461.873659309179,-193.98050157812187 L1461.8821687766533,-194.13408436021 L1461.8963289423577,-194.2864757684334 L1461.9161064236248,-194.43731653922256 L1461.9414545949355,-194.58625106464424 L1461.972313697839,-194.73292823074888 L1462.0086109818328,-194.8770022453238 L1462.0502608758736,-195.0181334531001 " />
			<path d="M0.6208757731332035,-406.9272965637877 L62.783710755921305,-401.8329740041875 " />
			<path d="M63.45801947437852,-401.905150915997 L63.37559893239347,-401.88219103440815 L63.29243362259555,-401.86317805686036 L63.20862819118036,-401.8481359072201 L63.12428808980303,-401.8370835128952 " />
			<path d="M63.12428808980302,-401.8370835128952 L63.03951944288926,-401.8300347810185 L62.95442891410003,-401.82699858094895 L62.869123572117466,-401.82797873311097 L62.78371075592131,-401.8329740041875 " />
			<path d="M0.6208757731332054,-406.9272965637877 L0.5027087710139041,-406.94081809535396 L0.3848264435529141,-406.961982246422 L0.26751277960236247,-406.99073803069814 L0.15105039805417042,-407.0270161729793 L0.035719866986386295,-407.0707292760432 L-0.07820097224988587,-407.1217720311957 L-0.1904376743746392,-407.1800214719688 L-0.300719851341682,-407.2453372703577 L-0.4087818237271219,-407.317562074883 L-0.5143632607743702,-407.3965218896646 L-0.6172098075537398,-407.48202649359246 L-0.7170736977257455,-407.5738698985865 L-0.8137143504319189,-407.67183084583957 L-0.9068989498751703,-407.7756733388493 L-0.9964030061934335,-407.8851472119545 L-1.0820108962754071,-407.9999887330062 L-1.1635163832155195,-408.11992123872113 L-1.2407231131566943,-408.24465580118823 L-1.3134450883239916,-408.373891923921 L-1.3815071151095428,-408.50731826578016 L-1.4447452261292901,-408.64461339102127 L-1.5030070752347817,-408.78544654366203 L-1.5561523045283887,-408.9294784443022 L-1.6040528824977698,-409.0763621074775 L-1.6465934124550028,-409.22574367757784 L-1.683671410537309,-409.37726328131646 L-1.7151975525996601,-409.5305558946965 L-1.741095889404464,-409.68525222238543 L-1.76130402958993,-409.84097958738005 L-1.7757732899763292,-409.99736282881804 L-1.7844688128480328,-410.15402520577317 L-1.787369649928804,-410.31058930485733 " />
			<path d="M1463.3279083965353,-563.9318657957946 L1463.2480248583279,-563.9861425348897 L1463.169507195574,-564.0441215402649 L1463.0924594246594,-564.1057260041499 L1463.0169836147288,-564.1708743159434 L1462.9431797524692,-564.239480170326 L1462.8711456096526,-564.3114526815945 L1462.8009766136124,-564.3866965040614 L1462.7327657208261,-564.4651119583659 L1462.666603293772,-564.5465951635227 L1462.602576981219,-564.6310381745394 L1462.5407716021166,-564.7183291254166 L1462.481269033229,-564.8083523773427 L1462.424148100669,-564.9009886718857 L1462.3694844754739,-564.9961152889824 L1462.317350573359,-565.0936062095111 L1462.2678154587857,-565.1933322822354 L1462.2209447534676,-565.2951613948981 L1462.176800549439,-565.3989586492366 L1462.1354413267966,-565.5045865396905 L1462.0969218762298,-565.6119051355606 L1462.061293226436,-565.7207722663841 L1462.0286025765197,-565.8310437102738 L1461.998893233466,-565.942573384977 L1461.9722045547699,-566.0552135413978 L1461.9485718962962,-566.1688149593284 L1461.9280265654431,-566.2832271451279 L1461.910595779667,-566.3982985310897 L1461.8963026304261,-566.5138766762313 L1461.8851660525906,-566.6298084682396 L1461.8772007993578,-566.7459403263077 L1461.872417422708,-566.8621184045909 L1461.8708222594264,-566.9781887960138 " />
			<path d="M-1.787369649928806,-410.3105893048574 L-1.7873696499288056,-441.7716875335331 " />
			<path d="M1461.8708222594262,-566.9781887960137 L1461.8708222594262,-598.4392870246895 " />
			<path d="M-1.787369649928804,-441.77168753353317 L-1.7849691491097683,-441.91370537480077 L-1.7777724322149018,-442.05504664568133 L-1.7657938463905838,-442.19542957270335 L-1.7490572717653143,-442.33457429291917 L-1.7275960738430514,-442.47220341183106 L-1.7014530369867975,-442.6080425563959 L-1.670680279125051,-442.7418209220065 L-1.6353391478511652,-442.87327181235946 L-1.595500098122724,-443.0021331711319 L-1.5512425518047812,-443.128148104409 L-1.5026547393369483,-443.25106539281944 L-1.4498335238399909,-443.3706399923585 L-1.3928842080125876,-443.4866335228998 L-1.3319203242032078,-443.59881474342245 L-1.2670634080756307,-443.70696001300587 L-1.1984427563192985,-443.81085373667304 L-1.1261951688875442,-443.91028879519416 L-1.0504646762775443,-444.0050669579925 L-0.9714022523956916,-444.09499927833104 L-0.8891655135808074,-444.1799064699903 L-0.8039184043852112,-444.259619264688 L-0.7158308707400662,-444.3339787495267 L-0.625078521156561,-444.40283668379755 L-0.5318422766383604,-444.46605579450835 L-0.4363080100032313,-444.5235100500465 L-0.33866617533289434,-444.5750849114319 L-0.23911142828981113,-444.6206775606576 L-0.13784223805783458,-444.6601971056655 L-0.03506049168034209,-444.69356476154485 L0.06902890841536513,-444.72071400759603 L0.17421845290503807,-444.74159071994376 L0.280298439251461,-444.756153279437 " />
			<path d="M0.28029843925148273,-444.756153279437 L0.3650670861652484,-444.7632020113137 L0.45015761495447615,-444.76623821138327 L0.5354629569370373,-444.76525805922125 L0.6208757731332049,-444.7602627881447 " />
			<path d="M1461.8708222594264,-598.4392870246895 L1461.8738028871733,-598.5975031957133 L1461.882737392311,-598.7548391936074 L1461.8976036587924,-598.9109055563706 L1461.9183648873734,-599.0653159647958 L1461.9449696867016,-599.2176881987459 L1461.97735220053,-599.3676450832836 L1462.0154322707333,-599.5148154223118 L1462.0591156357275,-599.6588349174149 L1462.1082941638012,-599.7993470696254 L1462.1628461207788,-599.9360040618849 L1462.2226364713565,-600.0684676200134 L1462.2875172133606,-600.1964098500569 L1462.3573277441074,-600.3195140499407 L1462.4318952579488,-600.4374754934187 L1462.511035174029,-600.5500021843776 L1462.5945515931865,-600.6568155796307 " />
			<path d="M0.6208757731332355,-811.540914289542 L62.78371075592134,-806.4465917299418 " />
			<path d="M63.4580194743777,-806.5187686417511 L63.37559893239286,-806.4958087601624 L63.29243362259516,-806.4767957826147 L63.20862819118019,-806.4617536329745 L63.12428808980308,-806.4507012386496 " />
			<path d="M63.124288089803066,-806.4507012386496 L63.03951944288931,-806.443652506773 L62.95442891410008,-806.4406163067034 L62.869123572117516,-806.4415964588654 L62.78371075592136,-806.4465917299419 " />
			<path d="M0.6208757731332356,-811.5409142895421 L0.5027087710139343,-811.5544358211084 L0.3848264435529443,-811.5755999721764 L0.26751277960239267,-811.6043557564525 L0.15105039805420062,-811.6406338987338 L0.03571986698641649,-811.6843470017976 L-0.07820097224985567,-811.7353897569501 L-0.190437674374609,-811.7936391977232 L-0.3007198513416518,-811.8589549961121 L-0.4087818237270917,-811.9311798006374 L-0.51436326077434,-812.010139615419 L-0.6172098075537096,-812.0956442193469 L-0.7170736977257153,-812.187487624341 L-0.8137143504318887,-812.285448571594 L-0.9068989498751401,-812.3892910646038 L-0.9964030061934033,-812.498764937709 L-1.082010896275377,-812.6136064587606 L-1.1635163832154893,-812.7335389644755 L-1.240723113156664,-812.8582735269426 L-1.3134450883239615,-812.9875096496754 L-1.3815071151095126,-813.1209359915346 L-1.44474522612926,-813.2582311167756 L-1.5030070752347515,-813.3990642694165 L-1.5561523045283585,-813.5430961700566 L-1.6040528824977396,-813.689979833232 L-1.6465934124549726,-813.8393614033322 L-1.6836714105372788,-813.9908810070708 L-1.71519755259963,-814.1441736204508 L-1.7410958894044337,-814.2988699481398 L-1.7613040295898998,-814.4545973131345 L-1.775773289976299,-814.6109805545724 L-1.7844688128480026,-814.7676429315276 L-1.787369649928774,-814.9242070306118 " />
			<path d="M1463.0884266945811,-968.72270186526 L1463.0201584477632,-968.7816518774695 L1462.9532549342066,-968.8434343174451 L1462.8877886813405,-968.9079822093095 L1462.823830658517,-968.9752255792686 L1462.7614502000765,-969.0450915314689 L1462.7007149301842,-969.1175043270197 L1462.6416906895224,-969.192385466099 L1462.5844414639153,-969.2696537730525 L1462.5290293149633,-969.349225484392 L1462.4755143127659,-969.431014339601 L1462.4239544708014,-969.5149316746454 L1462.3744056830365,-969.6008865180911 L1462.326921663335,-969.6887856897227 L1462.2815538872276,-969.7785339015561 L1462.2383515361098,-969.8700338611364 L1462.1973614439264,-969.963186377009 L1462.1586280464003,-970.057890466249 L1462.1221933328625,-970.1540434639325 L1462.0880968007316,-970.251541134432 L1462.0563754126972,-970.3502777844138 L1462.0270635566505,-970.4501463774161 L1462.0001930084047,-970.5510386498826 L1461.975792897249,-970.6528452285271 L1461.95388967437,-970.7554557489005 L1461.9345070841773,-970.8587589750327 L1461.9176661385638,-970.9626429200188 L1461.9033850941264,-971.0669949674196 L1461.8916794323754,-971.1717019933453 L1461.8825618429516,-971.2766504890875 L1461.87604220987,-971.3817266841701 L1461.8721276008043,-971.4868166696834 L1461.8708222594264,-971.5918065217681 " />
			<path d="M-1.787369649928776,-814.9242070306117 L-1.7873696499287755,-846.3853052592875 " />
			<path d="M1461.8708222594262,-971.591806521768 L1461.8708222594262,-1003.0529047504439 " />
			<path d="M-1.787369649928774,-846.3853052592874 L-1.7849691491097381,-846.527323100555 L-1.7777724322148716,-846.6686643714356 L-1.7657938463905536,-846.8090472984576 L-1.7490572717652841,-846.9481920186734 L-1.7275960738430212,-847.0858211375853 L-1.7014530369867673,-847.2216602821501 L-1.6706802791250208,-847.3554386477608 L-1.635339147851135,-847.4868895381137 L-1.5955000981226939,-847.6157508968861 L-1.551242551804751,-847.7417658301632 L-1.502654739336918,-847.8646831185737 L-1.4498335238399607,-847.9842577181128 L-1.3928842080125574,-848.100251248654 L-1.3319203242031776,-848.2124324691767 L-1.2670634080756005,-848.3205777387601 L-1.1984427563192683,-848.4244714624273 L-1.126195168887514,-848.5239065209483 L-1.050464676277514,-848.6186846837468 L-0.9714022523956614,-848.7086170040852 L-0.8891655135807772,-848.7935241957446 L-0.803918404385181,-848.8732369904423 L-0.715830870740036,-848.9475964752809 L-0.6250785211565308,-849.0164544095518 L-0.5318422766383302,-849.0796735202625 L-0.4363080100032011,-849.1371277758008 L-0.33866617533286414,-849.1887026371861 L-0.23911142828978094,-849.2342952864119 L-0.13784223805780438,-849.2738148314197 L-0.03506049168031189,-849.3071824872991 L0.06902890841539533,-849.3343317333503 L0.17421845290506827,-849.355208445698 L0.28029843925149117,-849.3697710051913 " />
			<path d="M0.28029843925151293,-849.3697710051913 L0.3650670861652786,-849.3768197370679 L0.45015761495450635,-849.3798559371374 L0.5354629569370675,-849.3788757849754 L0.620875773133235,-849.3738805138989 " />
			<path d="M1461.8708222594264,-1003.0529047504438 L1461.872186677887,-1003.1600222841654 L1461.8762783872153,-1003.2667948089863 L1461.883092751004,-1003.373101338563 L1461.8926220477445,-1003.4788214145817 L1461.9048554795768,-1003.5838352432523 L1461.9197791845247,-1003.6880238310495 L1461.9373762522034,-1003.7912691195467 L1461.957626742981,-1003.893454119191 L1461.9805077105714,-1003.9944630418669 L1462.0059932280374,-1004.0941814320977 L1462.0340544171672,-1004.1924962967381 L1462.0646594811979,-1004.2892962330092 L1462.0977737408446,-1004.3844715547314 L1462.1333596735967,-1004.4779144166122 L1462.1713769562357,-1004.5695189364483 L1462.2117825105254,-1004.659181315103 L1462.2545305520255,-1004.7467999541234 L1462.2995726419715,-1004.8322755708637 L1462.3468577421606,-1004.9155113109849 L1462.3963322727848,-1004.9964128582023 L1462.4479401731433,-1005.0748885411577 L1462.5016229651665,-1005.150849437294 L1462.557319819678,-1005.2242094736156 L1462.6149676253228,-1005.2948855242191 L1462.6745010600787,-1005.3627975044861 L1462.735852665275,-1005.4278684618281 L1462.7989529220313,-1005.4900246628833 L1462.8637303300309,-1005.5491956770657 L1462.9301114885398,-1005.6053144563715 L1462.9980211795776,-1005.6583174113529 L1463.0673824531498,-1005.7081444831724 L1463.1381167144411,-1005.7547392116569 " />
			<path d="M0.6208757731332746,-1216.154532015296 L62.783710755921376,-1211.0602094556957 " />
			<path d="M63.45801947437889,-1211.1323863675052 L63.37559893239377,-1211.1094264859162 L63.29243362259578,-1211.0904135083686 L63.208628191180516,-1211.0753713587283 L63.12428808980311,-1211.0643189644034 " />
			<path d="M63.124288089803095,-1211.0643189644034 L63.039519442889336,-1211.0572702325267 L62.954428914100106,-1211.054234032457 L62.869123572117545,-1211.055214184619 L62.78371075592139,-1211.0602094556957 " />
			<path d="M0.6208757731332765,-1216.154532015296 L0.5027087710139752,-1216.168053546862 L0.3848264435529852,-1216.1892176979302 L0.2675127796024335,-1216.2179734822062 L0.15105039805424147,-1216.2542516244873 L0.03571986698645735,-1216.2979647275513 L-0.07820097224981482,-1216.3490074827037 L-0.19043767437456816,-1216.4072569234768 L-0.30071985134161094,-1216.4725727218658 L-0.40878182372705085,-1216.5447975263912 L-0.5143632607742992,-1216.6237573411727 L-0.6172098075536687,-1216.7092619451005 L-0.7170736977256744,-1216.8011053500945 L-0.8137143504318478,-1216.8990662973476 L-0.9068989498750992,-1217.0029087903574 L-0.9964030061933624,-1217.1123826634625 L-1.082010896275336,-1217.2272241845142 L-1.1635163832154485,-1217.3471566902292 L-1.2407231131566232,-1217.4718912526962 L-1.3134450883239206,-1217.601127375429 L-1.3815071151094718,-1217.7345537172882 L-1.444745226129219,-1217.8718488425293 L-1.5030070752347107,-1218.0126819951702 L-1.5561523045283177,-1218.1567138958103 L-1.6040528824976987,-1218.3035975589855 L-1.6465934124549317,-1218.4529791290859 L-1.683671410537238,-1218.6044987328246 L-1.715197552599589,-1218.7577913462046 L-1.7410958894043929,-1218.9124876738936 L-1.761304029589859,-1219.0682150388882 L-1.7757732899762582,-1219.224598280326 L-1.7844688128479618,-1219.3812606572812 L-1.787369649928733,-1219.5378247563654 " />
			<path d="M1463.6308810573191,-1372.9928204172204 L1463.5373401226034,-1373.0377917195644 L1463.4450199287735,-1373.0876515212 L1463.35407241711,-1373.142317762485 L1463.2646472697224,-1373.2017004733013 L1463.1768916632016,-1373.26570192113 L1463.0909500263954,-1373.334216771899 L1463.0069638027064,-1373.4071322633436 L1462.9250712173034,-1373.4843283905907 L1462.8454070496289,-1373.5656781036641 L1462.768102411579,-1373.6510475165844 L1462.693284531718,-1373.7402961277198 L1462.6210765458839,-1373.8332770510237 L1462.5515972945313,-1373.9298372577823 L1462.4849611271436,-1374.0298178284695 L1462.421277714034,-1374.1330542142978 L1462.3606518658505,-1374.2393765080349 L1462.3031833610771,-1374.3486097236369 L1462.2489667818184,-1374.4605740842433 L1462.1980913581344,-1374.5750853180534 L1462.1506408211865,-1374.691954961604 L1462.106693265431,-1374.8109906699428 L1462.0663210200908,-1374.931996533191 L1462.0295905301157,-1375.0547733989745 L1461.9965622468271,-1375.1791192001892 L1461.9672905284258,-1375.3048292875653 L1461.9418235505295,-1375.4316967664809 L1461.9202032268854,-1375.5595128374691 L1461.902465140387,-1375.688067139864 L1461.888638484513,-1375.8171480980122 L1461.8787460152787,-1375.9465432694867 L1461.8728040137862,-1376.0760396947253 L1461.8708222594264,-1376.2054242475217 " />
			<path d="M-1.787369649928735,-1219.5378247563656 L-1.7873696499287346,-1250.9989229850414 " />
			<path d="M1461.8708222594264,-1376.205424247522 L1461.8708222594264,-1407.6665224761978 " />
			<path d="M-1.787369649928733,-1250.9989229850412 L-1.7849691491096973,-1251.140940826309 L-1.7777724322148307,-1251.2822820971894 L-1.7657938463905127,-1251.4226650242115 L-1.7490572717652433,-1251.5618097444274 L-1.7275960738429803,-1251.699438863339 L-1.7014530369867265,-1251.835278007904 L-1.67068027912498,-1251.9690563735146 L-1.6353391478510941,-1252.1005072638677 L-1.595500098122653,-1252.22936862264 L-1.5512425518047102,-1252.3553835559171 L-1.5026547393368772,-1252.4783008443276 L-1.4498335238399198,-1252.5978754438665 L-1.3928842080125166,-1252.713868974408 L-1.3319203242031368,-1252.8260501949305 L-1.2670634080755596,-1252.934195464514 L-1.1984427563192275,-1253.0380891881812 L-1.1261951688874732,-1253.1375242467022 L-1.0504646762774732,-1253.2323024095006 L-0.9714022523956205,-1253.3222347298392 L-0.8891655135807364,-1253.4071419214984 L-0.8039184043851402,-1253.4868547161961 L-0.7158308707399952,-1253.5612142010348 L-0.62507852115649,-1253.6300721353057 L-0.5318422766382893,-1253.6932912460165 L-0.4363080100031602,-1253.7507455015545 L-0.3386661753328233,-1253.80232036294 L-0.23911142828974008,-1253.8479130121657 L-0.13784223805776352,-1253.8874325571737 L-0.03506049168027103,-1253.920800213053 L0.06902890841543619,-1253.9479494591042 L0.17421845290510912,-1253.9688261714518 L0.28029843925153203,-1253.983388730945 " />
			<path d="M0.2802984392515538,-1253.983388730945 L0.36506708616531947,-1253.9904374628218 L0.4501576149545472,-1253.9934736628913 L0.5354629569371083,-1253.9924935107294 L0.6208757731332759,-1253.9874982396527 " />
			<path d="M1461.8708222594264,-1407.6665224761975 L1461.8728707903463,-1407.7977349077282 L1461.8790128980133,-1407.928388352866 L1461.8892381330795,-1408.058260535576 L1461.903529099718,-1408.1871305089567 L1461.921861485218,-1408.31477903113 L1461.9442041013476,-1408.4409889382287 L1461.9705189374129,-1408.5655455138499 L1462.0007612249237,-1408.6882368543447 L1462.0348795137577,-1408.8088542293217 L1462.07281575969,-1408.9271924367536 L1462.1145054231417,-1409.0430501520784 L1462.1598775789785,-1409.1562302707073 L1462.208855037174,-1409.2665402433508 L1462.2613544741298,-1409.3737924035963 L1462.3172865744305,-1409.477804287178 L1462.3765561827934,-1409.5783989423967 L1462.4390624659532,-1409.6754052311624 L1462.5046990842045,-1409.7686581201435 L1462.5733543723159,-1409.8579989615343 L1462.6449115294997,-1409.9432757629556 L1462.719248818123,-1410.0243434460335 L1462.7962397708143,-1410.1010640932172 L1462.8757534056183,-1410.1733071824128 L1462.957654448831,-1410.2409498090353 L1463.041803565135,-1410.3038768951021 L1463.1280575946482,-1410.3619813850116 L1463.2162697964732,-1410.4151644276726 L1463.306290098345,-1410.463335544676 L1463.3979653519425,-1410.5064127842222 L1463.4911395934341,-1410.5443228605443 L1463.585654308814,-1410.5770012785842 L1463.6813487035756,-1410.6043924437179 " />
			<path d="M0.6208738935348528,-1633.5117886712349 L62.78370887632296,-1628.4174661083018 " />
			<path d="M63.45801681970973,-1628.4896427820026 L63.37559636652264,-1628.4666829630924 L63.292431148578395,-1628.4476700390085 L63.20862581170569,-1628.432627933493 L63.124285807187455,-1628.4215755738526 " />
			<path d="M63.12428580718745,-1628.4215755738526 L63.03951725907281,-1628.4145268671432 L62.95442683064212,-1628.4114906826708 L62.86912159019411,-1628.4124708408308 L62.78370887632298,-1628.4174661083016 " />
			<path d="M0.6208738935348573,-1633.5117886712346 L0.5027068918019398,-1633.5253102028487 L0.3848245654991705,-1633.546474354047 L0.26751090347588596,-1633.5752301385355 L0.1510485246193649,-1633.611508281111 L0.03571799700117073,-1633.65522138455 L-0.07820283803590278,-1633.7062641401578 L-0.19043953522196477,-1633.7645135814653 L-0.3007217065227217,-1633.8298293804662 L-0.40878367252793124,-1633.90205418568 L-0.5143651024963756,-1633.9810140012246 L-0.6172116415154207,-1634.066518605988 L-0.7170755232642771,-1634.1583620118886 L-0.813716166904769,-1634.2563229601167 L-0.9069007566616454,-1634.3601654541676 L-0.9964048026961765,-1634.4696393283778 L-1.0820126819218352,-1634.5844808505956 L-1.1635181574592028,-1634.7044133575348 L-1.2407248754786742,-1634.8291479212812 L-1.3134468382340294,-1634.9583840453458 L-1.381508852147301,-1635.0918103885858 L-1.4447469498654426,-1635.2291055152532 L-1.5030087852720464,-1635.3699386693627 L-1.556154000502485,-1635.5139705715103 L-1.6040545640782975,-1635.6608542362278 L-1.6465950793462354,-1635.810235807902 L-1.6836730624789107,-1635.961755413242 L-1.7151991893673069,-1636.115048028247 L-1.741097510810389,-1636.2697443575807 L-1.7613056354833745,-1636.4254717242359 L-1.7757748802439037,-1636.5818549673463 L-1.7844703874139922,-1636.7385173459818 L-1.7873712087552316,-1636.8950814467498 " />
			<path d="M1464.1906790099024,-1790.1884412870447 L1464.0754507685933,-1790.2071457435038 L1463.960690399223,-1790.2331063549698 L1463.8466616007477,-1790.2662634685662 L1463.733626391103,-1790.3065408951327 L1463.6218445051338,-1790.3538460842926 L1463.5115727977702,-1790.4080703371196 L1463.4030646538195,-1790.469089055907 L1463.2965694057334,-1790.5367620304712 L1463.1923317606863,-1790.6109337603302 L1463.0905912382818,-1790.6914338120166 L1462.9915816201787,-1790.7780772107021 L1462.8955304129026,-1790.8706648652383 L1462.8026583250764,-1790.9689840256315 L1462.7131787602707,-1791.0728087719053 L1462.6272973266402,-1791.1819005332247 L1462.5452113644735,-1791.2960086360886 L1462.467109492739,-1791.4148708803339 L1462.3931711756732,-1791.5382141416242 L1462.3235663104024,-1791.6657549990416 L1462.2584548365503,-1791.797200386338 L1462.1979863687252,-1791.932248265348 L1462.1422998527312,-1792.0705883200205 L1462.0915232462964,-1792.2119026694686 L1462.045773225048,-1792.355866598404 L1462.0051549144132,-1792.5021493032757 L1461.9697616480587,-1792.6504146523969 L1461.9396747534279,-1792.8003219583159 L1461.914963364863,-1792.9515267606564 L1461.8956842647483,-1793.1036816176252 L1461.8818817530332,-1793.2564369043728 L1461.8735875454392,-1793.409441616368 L1461.8708207005832,-1793.5623441759449 " />
			<path d="M-1.7873712087552351,-1636.8950814467503 L-1.7873680411325243,-1668.3561800143007 " />
			<path d="M1461.8708207005832,-1793.562344175945 L1461.870823868206,-1825.0234427434955 " />
			<path d="M-1.787368041132524,-1668.3561800143007 L-1.7849675254223465,-1668.4981978740013 L-1.7777707925222912,-1668.6395391631165 L-1.7657921896140647,-1668.7799221080713 L-1.7490555968659214,-1668.9190668458155 L-1.7275943798259026,-1669.0566959817504 L-1.701451322905327,-1669.1925351427333 L-1.6706785440851233,-1669.3263135240597 L-1.6353373910150535,-1669.4577644293315 L-1.5954983187129552,-1669.5866258021335 L-1.5512407491078233,-1669.7126407484618 L-1.502652912706735,-1669.8355580488587 L-1.4498316727012681,-1669.9551326592375 L-1.3928823318640693,-1670.0711261993933 L-1.3319184226205407,-1670.183307428231 L-1.2670614807141487,-1670.2914527047599 L-1.1984408029165619,-1670.395346433938 L-1.126193189265649,-1670.4947814964746 L-1.050462670345201,-1670.5895596617383 L-0.9714002201500658,-1670.6794919829417 L-0.8891634551091103,-1670.7643991738212 L-0.8039163198660315,-1670.8441119660554 L-0.7158287604444431,-1670.918471446714 L-0.6250763854488004,-1670.987329375061 L-0.531840115976574,-1671.0505484780836 L-0.4363058249396006,-1671.1080027241542 L-0.33866396651366326,-1671.159577574284 L-0.23910919645500217,-1671.2051702104648 L-0.1378399840406832,-1671.244689740642 L-0.03505821640644757,-1671.278057379916 L0.06903120392916673,-1671.3052066076043 L0.17422076755207527,-1671.3260832998556 L0.28030077183690977,-1671.3406458375487 " />
			<path d="M0.28030077183693153,-1671.3406458375487 L0.36506931995156955,-1671.347694544258 L0.4501597483822556,-1671.3507307287305 L0.5354649888302654,-1671.3497505705704 L0.6208777027014052,-1671.3447553030996 " />
			<path d="M1461.8708238682063,-1825.0234427434955 L1461.8732243839165,-1825.1654606031962 L1461.8804211168165,-1825.3068018923113 L1461.8923997197248,-1825.4471848372661 L1461.909136312473,-1825.5863295750103 L1461.9305975295129,-1825.7239587109452 L1461.9567405864336,-1825.859797871928 L1461.9875133652538,-1825.9935762532546 L1462.0228545183238,-1826.1250271585263 L1462.062693590626,-1826.2538885313284 L1462.1069511602311,-1826.3799034776566 L1462.1555389966322,-1826.5028207780535 L1462.2083602366376,-1826.6223953884323 L1462.2653095774747,-1826.7383889285882 L1462.3262734867183,-1826.8505701574259 L1462.3911304286248,-1826.9587154339547 L1462.4597511064223,-1827.0626091631327 L1462.5319987200733,-1827.1620442256694 L1462.6077292389937,-1827.2568223909332 L1462.6867916891888,-1827.3467547121365 L1462.7690284542298,-1827.431661903016 L1462.8542755894728,-1827.5113746952502 L1462.9423631488944,-1827.5857341759088 L1463.03311552389,-1827.654592104256 L1463.1263517933623,-1827.7178112072784 L1463.2218860843993,-1827.775265453349 L1463.3195279428253,-1827.826840303479 L1463.419082712884,-1827.8724329396596 L1463.5203519252982,-1827.9119524698367 L1463.6231336929325,-1827.9453201091108 L1463.727223113268,-1827.9724693367991 L1463.832412676891,-1827.9933460290504 L1463.9384926811758,-1828.0079085667435 " />
			<path d="M1463.9384926811758,-1828.0079085667435 L1464.0139073375844,-1828.0143774580242 L1464.0895862025466,-1828.0176695194837 L1464.1654538693033,-1828.0177814708973 L1464.241434742973,-1828.0147132007157 " />
			<path d="M-37.76053565691759,-5.459083808246753 L-37.760535656917455,-1674.4902569269832 " />
			<path d="M62.783710755921284,2.780643721566619 L62.783710755921284,2.7806044308307225 " />
			<path d="M62.78371075592129,-46.83285456092497 L62.78371075592132,-401.8329740041875 " />
			<path d="M62.78371075592132,-451.4464171824352 L62.78371075592135,-806.4465917299418 " />
			<path d="M62.783710755921355,-856.0600349081893 L62.78371075592138,-1211.0602094556957 " />
			<path d="M62.78371075592138,-1260.6736526339434 L62.78371075592141,-1628.4174663094907 " />
			<path d="M-42.27599582515886,-5.430889702071172 L-42.275995825158724,-1674.4620628208077 " />
			<path d="M-63.08474143380404,-3.203555314200325 L-63.084741433803906,-1672.2347284329367 " />
			<path d="M1488.007627784693,-161.6569349440415 L1490.247188271182,-1830.714178409335 " />
			<path d="M1550.3990408646887,-156.51367193716447 L1552.6386013511776,-1825.570915402458 " />
			<path d="M1483.4934801373784,-161.6330193140036 L1485.7330406238673,-1830.6902627792972 " />
			<path d="M1462.785142015157,-159.42921189816275 L1465.0247025016458,-1828.4864553634563 " />
			<path d="M0.6208781619680881,-2.313717901997384 L1464.2790699850377,-158.9816989479813 " />
			<path d="M62.7837131475612,2.780604626828624 L1525.9347396669302,-153.83309013521875 " />
			<path d="M-1.7873676254156248,-5.697010603058643 L1461.8708241976542,-162.36499164904254 " />
			<path d="M-1.7873712220193703,-37.15810844842479 L1461.8708206010504,-193.8260894944087 " />
			<path d="M0.6208738369382747,-40.146683665412375 L1462.052351669136,-196.5763202760181 " />
			<path d="M0.6208757731332053,-406.9272965637877 L1462.5445723595817,-563.4092384881225 " />
			<path d="M62.7837107559213,-401.8329740041875 L1462.5288063150786,-551.6594192992468 " />
			<path d="M-1.7873696499288059,-410.3105893048574 L1461.8708222594264,-566.9781887960138 " />
			<path d="M-1.7873696499288059,-441.77168753353317 L1461.8708222594264,-598.4392870246895 " />
			<path d="M0.6208757731332053,-444.7602627881447 L1462.5953443673036,-601.2476392658575 " />
			<path d="M0.6208757731332355,-811.540914289542 L1463.0875656211142,-968.0809773321093 " />
			<path d="M62.78371075592135,-806.4465917299418 L1463.071799576611,-956.3311581432338 " />
			<path d="M-1.7873696499287757,-814.9242070306118 L1461.8708222594266,-971.5918065217681 " />
			<path d="M-1.7873696499287757,-846.3853052592874 L1461.8708222594266,-1003.0529047504438 " />
			<path d="M0.6208757731332355,-849.3738805138989 L1463.1383376288363,-1005.9193781098444 " />
			<path d="M0.6208757731332764,-1216.154532015296 L1463.6305588826467,-1372.7527161760959 " />
			<path d="M62.783710755921376,-1211.0602094556957 L1463.6147928381433,-1361.0028969872203 " />
			<path d="M-1.7873696499287348,-1219.5378247563656 L1461.8708222594266,-1376.205424247522 " />
			<path d="M-1.7873696499287348,-1250.9989229850414 L1461.8708222594266,-1407.6665224761978 " />
			<path d="M0.6208757731332764,-1253.9874982396527 L1463.6047589640307,-1410.5829208189996 " />
			<path d="M0.6208738935348563,-1633.511788671235 L1464.1906537122532,-1790.1695879339554 " />
			<path d="M62.78370887632296,-1628.4174661083018 L1464.1748876869444,-1778.4197830500016 " />
			<path d="M-1.7873712087552338,-1636.8950814467503 L1461.8708207005832,-1793.5623441759453 " />
			<path d="M-1.7873680411325257,-1668.3561800143004 L1461.870823868206,-1825.0234427434955 " />
			<path d="M0.6208777027014101,-1671.3447553030994 L1463.6047616686544,-1827.9398413585936 " />
			<path d="M63.87649601074215,-1628.5020907612368 L63.87649601074212,-1260.7906225956315 " />
			<path d="M63.87649601074212,-1211.1448340805302 L63.876496010742095,-856.1770048698774 " />
			<path d="M63.87649601074209,-806.5312163547766 L63.87649601074206,-451.5633871441232 " />
			<path d="M63.87649601074206,-401.91759862902217 L63.87649601074203,-46.9498248074935 " />
			<path d="M63.876496010742024,2.6959800617286733 L63.876496010742024,3.0061965709712624 " />
			<path d="M-63.87649601074189,-1672.0373696897077 L-63.876496010742024,-3.0061965709712624 " />
			<path d="M1553.741551571995,-1825.3434512377569 L1551.501991085506,-156.28620777246286 " />
			<path d="M1464.2418061312374,-1828.2914944157476 L1462.0022456447484,-159.2342509504535 " />
			<path d="M1526.1362327481504,-153.82231225496173 L63.12429093731039,2.776495069156941 " />
			<path d="M1462.0523950768397,-196.6086703477903 L0.28029604718908985,-40.14257410774069 " />
			<path d="M1462.5287629074935,-551.6270693161159 L63.124288089803024,-401.8370835128952 " />
			<path d="M1462.5953877748884,-601.2799892489885 L0.28029843925148334,-444.75615327943706 " />
			<path d="M1463.0717561690265,-956.2988081601029 L63.12428808980307,-806.4507012386496 " />
			<path d="M1463.1383810364212,-1005.9517280929753 L0.28029843925151354,-849.3697710051912 " />
			<path d="M1463.6147494305587,-1360.9705470040894 L63.1242880898031,-1211.0643189644034 " />
			<path d="M1463.6813742979537,-1410.6234669369621 L0.2802984392515544,-1253.9833887309453 " />
			<path d="M1464.1748442794647,-1778.3874331452344 L63.12428580718745,-1628.4215755738528 " />
			<path d="M1463.9384926811758,-1828.0079085667437 L0.2803007718369326,-1671.3406458375487 " />

       </g>
    </g>
    
</svg>
