<?xml version="1.0" encoding="UTF-8" standalone="no"?>
<svg
   xmlns:svg="http://www.w3.org/2000/svg"
   xmlns="http://www.w3.org/2000/svg"
   width="480.0"
   height="480.0"

>
    <g transform="scale(0.18803681892223884, -0.18803681892223884)   translate(122.21871121659152,-59.34307386011151)" stroke-width="1.0"  fill="none">
       <!-- hidden lines -->
       <g  stroke="rgb(0,0,0)" fill="none" stroke-dasharray="1.0,1.0" >
			<path d="M-4.633297541031135,-1666.6710673286625 L67.42528172269381,-1661.6026113518485 " />
			<path d="M68.6160151747502,-1661.0651911132823 L68.7131223094281,-1661.0877800297994 L68.79812463443979,-1661.1110965294229 L68.87066431905492,-1661.1350424576601 L68.93043599599888,-1661.1595170103387 L68.9771880469446,-1661.184417157959 L68.99561804430293,-1661.196994131238 L69.01072366173977,-1661.2096380794112 L69.02248899769889,-1661.2223356923014 L69.0309016669102,-1661.235073603238 L69.03595281342768,-1661.2478384031297 L69.03763711995194,-1661.260616654579 " />
			<path d="M69.03763711995194,-1661.260616654579 L69.03590920021496,-1661.273559243783 L69.03072730707066,-1661.28648785564 L69.02209703670368,-1661.2993885278975 L69.01002770937312,-1661.312247328477 L68.994532359347,-1661.3250503705185 L68.97562772082605,-1661.337783827379 L68.92767590235697,-1661.3629870695786 L68.86637934027395,-1661.3877482115201 L68.7920027519359,-1661.4119603189183 L68.70486734253541,-1661.4355188285656 L68.60534941793144,-1661.4583219999035 L68.49387875952232,-1661.480271354403 L68.37093676817763,-1661.5012721008559 L68.23705438524455,-1661.5212335447447 L68.09280979960693,-1661.540069479918 L67.93882595069968,-1661.5576985608839 L67.775767838262,-1661.5740446541101 L67.60433965044746,-1661.5890371668186 L67.42528172269382,-1661.6026113518485 " />
			<path d="M-68.61601517475002,-1665.847009826888 L-68.50426207056051,-1665.8246952056618 L-68.38069848721278,-1665.8033449553907 L-68.24587168769014,-1665.7830536363117 L-68.1003788197487,-1665.7639111186559 L-67.94486427115066,-1665.746002184614 L-67.78001681567152,-1665.7294061528369 L-67.60656656252168,-1665.7141965271317 L-67.42528172269363,-1665.7004406709154 " />
			<path d="M-67.42528172269363,-1665.7004406709157 L48.57200206513413,-1657.5414243217747 " />
			<path d="M48.57200206513412,-1657.5414243217745 L48.85197567952947,-1657.5239160670133 L49.14454288038827,-1657.5098700222045 L49.446886085632755,-1657.4994214584376 L49.75609356491881,-1657.492671001094 L50.06918748119091,-1657.489683660768 L50.3831525688808,-1657.4904882071796 L50.69496517256327,-1657.4950768921074 L51.001622366410736,-1657.503405524007 L51.300170874010576,-1657.5153938936 L51.58773551003139,-1657.5309265463345 L51.861546869829475,-1657.549853894273 L52.11896800032947,-1657.5719936567082 L52.35751979532393,-1657.5971326156252 L52.57490487062141,-1657.625028669107 L52.76902968911202,-1657.6554131629096 L52.93802472267425,-1657.687993477747 " />
			<path d="M68.61601517475022,-1661.0651911132823 L52.938024722674264,-1657.687993477747 " />
			<path d="M1098.3185658003613,-1904.4207929734955 L1098.4314181592922,-1904.3979940307556 L1098.5564995617071,-1904.376167243697 L1098.6932376895388,-1904.355412482199 L1098.8410068886174,-1904.3358247110186 L1098.9991310313906,-1904.317493555273 L1099.1668866105904,-1904.3005028903538 L1099.3435060496868,-1904.28493045815 L1099.5281812149838,-1904.270847511335 " />
			<path d="M1097.3915455905478,-240.53061579270877 L1169.2804165990376,-235.4501528309387 " />
			<path d="M1099.5281812149835,-1904.270847511335 L1171.4170522234733,-1899.190384549565 " />
			<path d="M1171.417052223473,-1899.1903845495651 L1171.6976224736081,-1899.1727279696513 L1171.9906676685994,-1899.1585120943002 L1172.2933656230243,-1899.147873830163 L1172.6028011901105,-1899.1409156295388 L1172.915994336192,-1899.1377045037032 L1173.2299288400632,-1899.1382713775533 L1173.5415813408379,-1899.1426107917844 L1173.847950454567,-1899.1506809554648 L1174.1460856792069,-1899.162404148507 L1174.433115809567,-1899.1776674701532 L1174.7062765885853,-1899.1963239262725 L1174.962937328635,-1899.2181938449937 L1175.2006262464845,-1899.243066607044 L1175.417054267921,-1899.2707026741282 L1175.610137072786,-1899.3008358958127 L1175.7780151681193,-1899.3331760727006 " />
			<path d="M1191.3402442965216,-1902.6868577340256 L1175.7780151681195,-1899.3331760727006 " />
			<path d="M70.2036613980142,-0.9313638764234867 L70.20207672699755,-0.8242338340817614 L70.19732450306108,-0.717448923943298 L70.18941014717738,-0.6111309580434707 L70.17834268743664,-0.5054012157634781 L70.16413474874808,-0.40038030548413006 L70.14680253843846,-0.2961880270050561 L70.12636582776395,-0.1929432348862803 L70.10284792935666,-0.09076370286805657 L70.07627567063132,0.010234010476380728 L70.04667936318268,0.10993469470189954 L70.0140927682083,0.2082246189147039 L69.97855305799645,0.304991661507823 L69.94010077352272,0.4001254380608361 L69.89877977820406,0.4935174272579521 L69.85463720786272,0.5850610946808079 L69.80772341695734,0.6746520143347574 L69.75809192114241,0.762187987770039 L69.70579933622176,0.8475691606619291 L69.65090531356557,0.9306981367168969 L69.59347247206466,1.011480088774824 L69.53356632669968,1.0898228669805587 L69.47125521380661,1.1656371039014046 L69.40661021312397,1.2388363164706235 L69.33970506671042,1.309337004640701 L69.27061609482556,1.377058746633781 L69.19942210886957,1.4419242906806735 L69.12620432148124,1.5038596431437385 L69.05104625389683,1.5627941529231606 L68.9740336406754,1.6186605920502992 L68.8952543318995,1.6713952323762031 L68.81479819296237,1.7209379182677917 L68.73275700205657,1.7672321352287828 " />
			<path d="M1172.9716795842103,-238.47912345782134 L1172.9692952638684,-238.34775531194924 L1172.9621463724045,-238.21694805774618 L1172.950245179804,-238.08692620597319 L1172.933612112654,-237.95791291936746 L1172.9122757190846,-237.83012962961737 L1172.8862726197717,-237.70379565730886 L1172.8556474450809,-237.57912783549472 L1172.8204527584674,-237.45634013753389 L1172.780748966259,-237.33564330983856 L1172.736604213978,-237.21724451016007 L1172.6880942693783,-237.10134695203408 L1172.635302392404,-236.9881495559955 L1172.5783191922837,-236.8778466081616 L1172.5172424720158,-236.77062742676947 L1172.4521770605031,-236.66667603723994 L1172.3832346326303,-236.5661708563261 L1172.3105335175915,-236.469284385888 L1172.2341984957955,-236.37618291681935 L1172.1543605846996,-236.28702624363459 L1172.071156813938,-236.20196739020594 L1171.9847299901307,-236.12115234712104 L1171.8952284517788,-236.04471982111247 L1171.802805814663,-235.97280099698864 L1171.7076207081861,-235.905519312475 L1171.6098365031094,-235.84299024635206 L1171.509621031151,-235.7853211202535 L1171.4071462969303,-235.73261091446503 L1171.3025881827457,-235.6849500980396 L1171.1961261467009,-235.6424204735212 L1171.087942914692,-235.60509503654322 L1170.978224166786,-235.57303785054245 L1170.86715821853,-235.54630393680392 " />
			<path d="M1170.86715821853,-235.54630393680392 L1170.7843149782457,-235.5299932990351 L1170.7009175705562,-235.5166311733108 L1170.6170441935549,-235.50623008871054 L1170.5327734916311,-235.49879979787548 L1170.4481844817283,-235.49434726786362 L1170.3633564792533,-235.49287667361722 L1170.2783690237056,-235.49438939404803 L1170.1933018040972,-235.49888401074443 " />
			<path d="M1098.4764182625038,-240.54330576463678 L1098.359933985417,-240.5542912419106 L1098.2436545456992,-240.57084181491868 L1098.1277844209956,-240.59292837944275 L1098.01252736917,-240.62051209621148 L1097.8980860699962,-240.65354445919957 L1097.7846617687453,-240.69196738092552 L1097.6724539222955,-240.73571329459875 L1097.5616598483864,-240.78470527293584 L1097.4524743786355,-240.83885716343735 L1097.3450895159267,-240.89807373988722 L1097.239694096772,-240.9622508698082 L1097.1364734592435,-241.03127569757913 L1097.035609117054,-241.10502684289168 L1096.937278440367,-241.183374614198 L1096.8416543438889,-241.26618123677346 L1096.7489049827996,-241.35330109499395 L1096.6591934570502,-241.44458098840113 L1096.5726775245519,-241.53986040110587 L1096.4895093237585,-241.63897178405568 L1096.40983510613,-241.74174084967024 L1096.3337949789498,-241.84798687832622 L1096.2615226589453,-241.9575230361535 L1096.193145237147,-242.07015670358257 L1096.1287829553983,-242.18568981406668 L1096.0685489949103,-242.3039192023822 L1096.0125492772322,-242.42463696189512 L1095.9608822779883,-242.54763081016534 L1095.9136388537079,-242.6726844622458 L1095.8709020820543,-242.79957801101997 L1095.8327471157327,-242.928088313909 L1095.7992410503334,-243.0579893852685 L1095.7704428063448,-243.1890527937847 " />
			<path d="M1095.812797220326,-276.1692866370163 L1095.839811815487,-276.265593328451 L1095.8695971745026,-276.36065269350996 L1095.9021219964216,-276.45436483584666 L1095.9373521014354,-276.5466312748891 L1095.975250466798,-276.63735504933146 L1096.0157772657308,-276.7264408190291 L1096.0588899092777,-276.81379496519025 L1096.10454309106,-276.8993256887579 L1096.1526888348887,-276.98294310688067 L1096.203276545182,-277.0645593473686 L1096.2562530601347,-277.14408864103694 L1096.3115627075852,-277.2214474118396 L1096.3691473635215,-277.29655436469784 L1096.4289465131617,-277.3693305709318 L1096.4908973145484,-277.4396995512055 L1096.554934664588,-277.5075873558978 L1096.6209912674672,-277.5729226428146 L1096.6889977053722,-277.63563675216164 L1096.7588825114392,-277.6956637786975 L1096.8305722448579,-277.7529406409926 L1096.9039915680492,-277.8074071477204 L1096.9790633258356,-277.85900606091155 L1097.0557086265237,-277.9076831561041 L1097.1338469248085,-277.9533872793275 L1097.2133961064185,-277.9960704008592 L1097.2942725744076,-278.03568766569833 L1097.376391337006,-278.0721974407032 L1097.4596660969369,-278.1055613583428 L1097.5440093421041,-278.1357443570167 L1097.629332437558,-278.1627147179006 L1097.7155457186402,-278.1864440982793 L1097.8025585852101,-278.20690756133143 " />
			<path d="M1097.8025585852101,-278.20690756133143 L1097.8854018254945,-278.22321819910024 L1097.968799233184,-278.23658032482456 L1098.0526726101853,-278.24698140942485 L1098.136943312109,-278.2544117002599 L1098.2215323220119,-278.25886423027174 L1098.3063603244868,-278.2603348245181 L1098.3913477800345,-278.2588221040873 L1098.4764149996429,-278.2543274873909 " />
			<path d="M-4.291603186553246,-40.70656790599309 L67.42528035504048,-35.662146152100725 " />
			<path d="M1098.476414999643,-278.254327487391 L1170.1932985412368,-273.2099057334986 " />
			<path d="M67.42528035504046,-35.662146152100725 L67.56160890492673,-35.648731847788966 L67.6976090280573,-35.62769940460173 L67.83295308822333,-35.59909949153688 L67.96731502972915,-35.56300100829005 L68.10037116288895,-35.51949091926923 L68.23180094382361,-35.468674044089916 L68.36128774667897,-35.41067280505543 L68.48851962640525,-35.34562693223093 L68.61319007025999,-35.27369312682138 L68.73499873622409,-35.19504468366468 L68.85365217655209,-35.10987107374919 L68.9688645447134,-35.01837748776151 L69.08035828402173,-34.92078434176419 L69.18786479629337,-34.81732674619408 L69.2911250889238,-34.70825393946071 L69.38989039882355,-34.59382868750917 L69.48392279171026,-34.47432665079388 L69.57299573531319,-34.350035720188416 L69.65689464510932,-34.221255323431215 L69.7354174012763,-34.088295703777895 L69.8083748356167,-33.95147717259808 L69.87559118728093,-33.81112933771728 L69.93690452619035,-33.667590309362744 L69.9921671431411,-33.5212058856263 L70.04124590564854,-33.3723287194065 L70.08402257867498,-33.22131746883686 L70.12039410946831,-33.068535933247034 L70.15027287582507,-32.914352176738326 L70.17358689718004,-32.75913764148508 L70.19028000801372,-32.60326625289792 L70.20031199315996,-32.44711351880464 L70.20365868468784,-32.291055624819066 " />
			<path d="M1170.1932985412363,-273.20990573349854 L1170.3296270911226,-273.1964914291868 L1170.4656272142531,-273.17545898599957 L1170.6009712744192,-273.1468590729347 L1170.735333215925,-273.11076058968786 L1170.8683893490847,-273.06725050066706 L1170.9998191300194,-273.01643362548776 L1171.1293059328748,-272.95843238645324 L1171.2565378126012,-272.89338651362874 L1171.381208256456,-272.8214527082192 L1171.5030169224199,-272.7428042650625 L1171.6216703627479,-272.65763065514705 L1171.7368827309092,-272.56613706915937 L1171.8483764702175,-272.46854392316203 L1171.9558829824891,-272.3650863275919 L1172.0591432751196,-272.2560135208585 L1172.1579085850194,-272.141588268907 L1172.251940977906,-272.0220862321917 L1172.341013921509,-271.89779530158626 L1172.4249128313052,-271.769014904829 L1172.5034355874723,-271.6360552851757 L1172.5763930218127,-271.4992367539959 L1172.643609373477,-271.3588889191151 L1172.7049227123862,-271.2153498907606 L1172.760185329337,-271.06896546702416 L1172.8092640918444,-270.9200883008043 L1172.852040764871,-270.76907705023467 L1172.8884122956642,-270.61629551464483 L1172.918291062021,-270.46211175813613 L1172.9416050833759,-270.3068972228829 L1172.9582981942096,-270.15102583429575 L1172.968330179356,-269.9948731002025 L1172.9716768708838,-269.8388152062169 " />
			<path d="M70.2036613980142,-0.9313638764234806 L70.20365868468785,-32.29105562481906 " />
			<path d="M1172.9716795842103,-238.47912345782134 L1172.9716768708838,-269.8388152062169 " />
			<path d="M1098.4764164689477,-643.8523472328852 L1170.1933000084282,-638.807925448162 " />
			<path d="M70.20365977749199,-404.2407856964865 L70.20207509553332,-404.13365559601067 L70.19732285734281,-404.026870628168 L70.18940848391502,-403.92055260518754 L70.17834100336961,-403.81482280664295 L70.16413304065279,-403.70980184110573 L70.14680080313573,-403.6056095085643 L70.1263640621264,-403.50236466376526 L70.10284613031598,-403.40018508063235 L70.07627383518546,-403.2991873179195 L70.04667748840293,-403.1994865862492 L70.01409085124628,-403.10119661668864 L69.97855109609087,-403.0044295310142 L69.94009876400614,-402.9092957138113 L69.89877771850938,-402.81590368655606 L69.85463509552955,-402.72435998382196 L69.80772124963816,-402.63476903175365 L69.75808969660865,-402.5472330289451 L69.7057970523695,-402.4618518298593 L69.65090296842118,-402.37872283092196 L69.59347006379015,-402.2979408594187 L69.53356385359781,-402.21959806532374 L69.47125267432587,-402.14378381618155 L69.4066076058631,-402.0705845951637 L69.33970239042293,-402.00008390241493 L69.2706133484238,-401.93236215980266 L69.19941929142855,-401.867496619178 L69.12620143224231,-401.8055612742522 L69.05104329227085,-401.7466267761908 L68.97403060624582,-401.6907603530195 L68.895251224425,-401.638025732936 L68.81479501237928,-401.58848307161344 L68.73275374848097,-401.54218888357934 " />
			<path d="M1172.9716780632264,-641.7881649529379 L1172.969293730484,-641.6567967765758 L1172.9621448246025,-641.5259894921771 L1172.9502436155974,-641.3959676106507 L1172.9336105300927,-641.2669542948802 L1172.912274116263,-641.139170976699 L1172.8862709948335,-641.0128369768354 L1172.8556457962272,-640.8881691284824 L1172.8204510839632,-640.765381405136 L1172.780747264439,-640.6446845533422 L1172.7366024832527,-640.5262857309822 L1172.6880925082407,-640.4103881517175 L1172.6353005994342,-640.2971907362045 L1172.5783173661562,-640.186887770677 L1172.5172406115028,-640.0796685734833 L1172.452175164481,-639.9757171701502 L1172.3832327000848,-639.875211977531 L1172.310531547621,-639.7783254975792 L1172.2341964876161,-639.6852240212763 L1172.1543585376492,-639.5960673432174 L1172.0711547274796,-639.5110084873487 L1171.9847278638563,-639.4301934443242 L1171.895226285412,-639.353760920936 L1171.8028036080623,-639.2818421020439 L1171.7076184613463,-639.2145604254174 L1171.6098342161645,-639.1520313698727 L1171.509618704376,-639.0943622570713 L1171.4071439307415,-639.0416520673184 L1171.3025857777027,-638.9939912696782 L1171.1961237035068,-638.9514616666975 L1171.0879404341936,-638.9141362540037 L1170.9782216499734,-638.8820790950194 L1170.8671556665358,-638.855345211007 " />
			<path d="M1170.8671556665358,-638.855345211007 L1170.7843125150955,-638.8390346172865 L1170.7009151984164,-638.8256725289506 L1170.617041914326,-638.8152714750147 L1170.532771306944,-638.8078412080686 L1170.4481823929423,-638.8033886951317 L1170.3633544874542,-638.8019181111208 L1170.2783671297043,-638.8034308349347 L1170.1933000084282,-638.8079254481619 " />
			<path d="M1098.476416468948,-643.8523472328853 L1098.3560624134823,-643.8637935954151 L1098.2359343033543,-643.8811802684381 L1098.1162576597255,-643.9044746112785 L1097.9972571562018,-643.9336328925627 L1097.8791561970456,-643.9686003723183 L1097.762176497769,-644.0093114047386 L1097.6465376688996,-644.0556895614232 L1097.5324568036974,-644.1076477748592 L1097.4201480705967,-644.1650885018768 L1097.309822311139,-644.2279039067707 L1097.201686644153,-644.2959760637444 L1097.095944076921,-644.3691771782966 L1096.9927931240672,-644.447369827135 L1096.8924274348772,-644.5304072161665 L1096.7950354297532,-644.6181334560791 L1096.7007999464847,-644.7103838549992 " />
			<path d="M1096.7473981391431,-680.9951330956219 L1096.8060080422988,-681.0428263737691 L1096.8658059865463,-681.0886312552167 L1096.926749441919,-681.1325151622543 L1096.9887950637299,-681.1744468834228 L1097.0518987234018,-681.2143965957116 L1097.1160155398504,-681.2523358857705 L1097.1810999114068,-681.2882377701177 L1097.2471055482492,-681.3220767143308 L1097.3139855053266,-681.3538286512085 L1097.3816922157473,-681.383470997887 L1097.450177524609,-681.4109826719022 L1097.519392723249,-681.4363441061837 L1097.5892885838857,-681.4595372629715 L1097.659815394633,-681.4805456466454 L1097.7309229948544,-681.4993543154565 L1097.8025608108403,-681.5159498921546 " />
			<path d="M1097.8025608108403,-681.5159498921546 L1097.8854039622806,-681.5322604858751 L1097.9688012789597,-681.545622574211 L1098.0526745630502,-681.5560236281469 L1098.1369451704322,-681.5634538950931 L1098.2215340844339,-681.5679064080299 L1098.306361989922,-681.5693769920408 L1098.3913493476718,-681.5678642682269 L1098.476416468948,-681.5633696549997 " />
			<path d="M-4.291601816786596,-444.01599039854824 L67.42528172269373,-438.9715686138249 " />
			<path d="M1098.4764164689477,-681.5633696549996 L1170.1933000084282,-676.5189478702764 " />
			<path d="M67.42528172269373,-438.97156861382484 L67.561610272245,-438.95815430938353 L67.69761039437945,-438.93712186592523 L67.83295445289065,-438.9085219524483 L67.96731639208686,-438.8724234686496 L68.10037252228788,-438.8289133789382 L68.23180229962172,-438.7780965029314 L68.36128909824288,-438.7200952629345 L68.48852097311178,-438.655049389015 L68.61319141149764,-438.58311558238046 L68.7350000713946,-438.5044671378717 L68.85365350507175,-438.41929352648043 L68.96886586601455,-438.3277999388967 L69.0803595975541,-438.230206791187 L69.1878661015254,-438.12674919379225 L69.29112638534394,-438.01767638512644 L69.38989168594146,-437.9032511311392 L69.48392406905802,-437.78374909228995 L69.57299700244641,-437.6594581594574 L69.65689590160824,-437.5306777603853 L69.73541864674674,-437.3977181383349 L69.8083760696911,-437.2608996046815 L69.87559240961914,-437.12055176725676 L69.9369057364805,-436.9770127362939 L69.99216834110037,-436.83062830989104 L70.04124709102378,-436.68175114095317 L70.08402375124338,-436.5307398876204 L70.12039526903791,-436.377958349229 L70.15027402223522,-436.22377458988706 L70.17358803030181,-436.0685600517757 L70.19028112775017,-435.9126886603125 L70.2003130994464,-435.7565359233321 L70.20365977749199,-435.6004780264553 " />
			<path d="M1170.1933000084282,-676.5189478702763 L1170.3296285579795,-676.505533565835 L1170.465628680114,-676.4845011223766 L1170.6009727386252,-676.4559012088997 L1170.7353346778214,-676.4198027251009 L1170.8683908080225,-676.3762926353896 L1170.9998205853562,-676.3254757593828 L1171.1293073839774,-676.2674745193859 L1171.2565392588463,-676.2024286454664 L1171.3812096972322,-676.1304948388319 L1171.5030183571291,-676.0518463943231 L1171.6216717908062,-675.9666727829318 L1171.736884151749,-675.8751791953481 L1171.8483778832885,-675.7775860476385 L1171.9558843872599,-675.6741284502436 L1172.0591446710785,-675.5650556415778 L1172.157909971676,-675.4506303875906 L1172.2519423547924,-675.3311283487413 L1172.3410152881809,-675.2068374159088 L1172.4249141873427,-675.0780570168367 L1172.5034369324812,-674.9450973947863 L1172.5763943554255,-674.808278861133 L1172.6436106953536,-674.6679310237081 L1172.704924022215,-674.5243919927452 L1172.7601866268349,-674.3780075663424 L1172.8092653767583,-674.2291303974046 L1172.8520420369778,-674.0781191440718 L1172.8884135547723,-673.9253376056804 L1172.9182923079698,-673.7711538463385 L1172.9416063160363,-673.6159393082271 L1172.9582994134846,-673.4600679167638 L1172.9683313851808,-673.3039151797834 L1172.9716780632264,-673.1478572829067 " />
			<path d="M70.203659777492,-404.2407856964865 L70.203659777492,-435.6004780264553 " />
			<path d="M1172.9716780632266,-641.7881649529379 L1172.9716780632266,-673.1478572829067 " />
			<path d="M1098.476416468948,-1047.1618080841295 L1170.1933000084284,-1042.117386299406 " />
			<path d="M70.20365977749202,-807.5502465477307 L70.20207509553335,-807.4431164472549 L70.19732285734284,-807.3363314794121 L70.18940848391505,-807.2300134564317 L70.17834100336964,-807.1242836578871 L70.16413304065281,-807.0192626923499 L70.14680080313576,-806.9150703598085 L70.12636406212643,-806.8118255150094 L70.10284613031601,-806.7096459318765 L70.07627383518549,-806.6086481691638 L70.04667748840296,-806.5089474374934 L70.01409085124631,-806.4106574679328 L69.9785510960909,-806.3138903822584 L69.94009876400617,-806.2187565650555 L69.89877771850941,-806.1253645378002 L69.85463509552957,-806.0338208350662 L69.80772124963819,-805.9442298829979 L69.75808969660868,-805.8566938801893 L69.70579705236953,-805.7713126811035 L69.6509029684212,-805.6881836821661 L69.59347006379018,-805.6074017106629 L69.53356385359784,-805.5290589165679 L69.4712526743259,-805.4532446674258 L69.40660760586313,-805.3800454464078 L69.33970239042296,-805.3095447536591 L69.27061334842382,-805.2418230110469 L69.19941929142858,-805.1769574704222 L69.12620143224234,-805.1150221254965 L69.05104329227088,-805.056087627435 L68.97403060624585,-805.0002212042638 L68.89525122442502,-804.9474865841802 L68.8147950123793,-804.8979439228576 L68.732753748481,-804.8516497348235 " />
			<path d="M1172.9716780632264,-1045.0976258041821 L1172.969293730484,-1044.9662576278201 L1172.9621448246025,-1044.8354503434214 L1172.9502436155974,-1044.7054284618948 L1172.9336105300927,-1044.5764151461244 L1172.912274116263,-1044.4486318279432 L1172.8862709948335,-1044.3222978280796 L1172.8556457962272,-1044.1976299797266 L1172.8204510839632,-1044.0748422563804 L1172.780747264439,-1043.9541454045864 L1172.7366024832527,-1043.8357465822264 L1172.6880925082407,-1043.7198490029618 L1172.6353005994342,-1043.6066515874488 L1172.5783173661562,-1043.4963486219212 L1172.5172406115028,-1043.3891294247276 L1172.452175164481,-1043.2851780213946 L1172.3832327000848,-1043.184672828775 L1172.310531547621,-1043.0877863488236 L1172.2341964876161,-1042.9946848725206 L1172.1543585376492,-1042.9055281944618 L1172.0711547274796,-1042.8204693385928 L1171.9847278638563,-1042.7396542955685 L1171.895226285412,-1042.6632217721803 L1171.8028036080623,-1042.5913029532883 L1171.7076184613463,-1042.5240212766616 L1171.6098342161645,-1042.461492221117 L1171.509618704376,-1042.4038231083155 L1171.4071439307415,-1042.3511129185626 L1171.3025857777027,-1042.3034521209224 L1171.1961237035068,-1042.2609225179417 L1171.0879404341936,-1042.2235971052478 L1170.9782216499734,-1042.1915399462637 L1170.8671556665358,-1042.1648060622513 " />
			<path d="M1170.8671556665358,-1042.1648060622513 L1170.7843125150955,-1042.1484954685309 L1170.7009151984164,-1042.135133380195 L1170.617041914326,-1042.124732326259 L1170.532771306944,-1042.1173020593128 L1170.4481823929423,-1042.112849546376 L1170.3633544874542,-1042.111378962365 L1170.2783671297043,-1042.112891686179 L1170.1933000084282,-1042.1173862994062 " />
			<path d="M1098.476416468948,-1047.1618080841295 L1098.3948183499251,-1047.1689173915834 L1098.3132906274632,-1047.178760284433 L1098.23190363739,-1047.1913282709902 L1098.1507275941203,-1047.2066105085655 L1098.0698325300807,-1047.2245938128237 L1097.9892882352904,-1047.2452626691575 L1097.9091641971518,-1047.2685992460727 L1097.8295295405023,-1047.2945834105712 L1097.7504529679788,-1047.323192745521 L1097.6720027007464,-1047.3544025689957 L1097.5942464196423,-1047.3881859555677 L1097.5172512067857,-1047.4245137595376 L1097.4410834877049,-1047.4633546400798 L1097.365808974031,-1047.5046750882793 L1097.2914926068058,-1047.548439456042 L1097.2181985004565,-1047.5946099868481 " />
			<path d="M1096.85073951914,-1084.3868137579625 L1096.9595695780656,-1084.4644924130012 L1097.0718222073315,-1084.5359269499236 L1097.187244123286,-1084.600956185865 L1097.3055748911888,-1084.6594333907003 L1097.4265475128486,-1084.7112266181216 L1097.5498890290698,-1084.7562190033582 L1097.6753211355506,-1084.794309026867 L1097.8025608108403,-1084.8254107433984 " />
			<path d="M1097.8025608108403,-1084.8254107433984 L1097.8854039622806,-1084.8417213371188 L1097.9688012789597,-1084.8550834254547 L1098.0526745630502,-1084.8654844793907 L1098.1369451704322,-1084.8729147463368 L1098.2215340844339,-1084.8773672592736 L1098.306361989922,-1084.8788378432846 L1098.3913493476718,-1084.8773251194707 L1098.476416468948,-1084.8728305062434 " />
			<path d="M-4.291601816786567,-847.3254512497922 L67.42528172269375,-842.281029465069 " />
			<path d="M1098.476416468948,-1084.8728305062436 L1170.1933000084284,-1079.8284087215202 " />
			<path d="M67.42528172269375,-842.281029465069 L67.56161027224503,-842.2676151606277 L67.69761039437948,-842.2465827171693 L67.83295445289068,-842.2179828036924 L67.96731639208689,-842.1818843198936 L68.10037252228791,-842.1383742301823 L68.23180229962175,-842.0875573541755 L68.3612890982429,-842.0295561141786 L68.4885209731118,-841.9645102402591 L68.61319141149767,-841.8925764336245 L68.73500007139462,-841.8139279891158 L68.85365350507178,-841.7287543777245 L68.96886586601458,-841.6372607901408 L69.08035959755412,-841.5396676424311 L69.18786610152543,-841.4362100450363 L69.29112638534397,-841.3271372363705 L69.38989168594149,-841.2127119823833 L69.48392406905805,-841.093209943534 L69.57299700244644,-840.9689190107015 L69.65689590160827,-840.8401386116294 L69.73541864674677,-840.707178989579 L69.80837606969114,-840.5703604559257 L69.87559240961917,-840.4300126185008 L69.93690573648053,-840.2864735875379 L69.9921683411004,-840.140089161135 L70.0412470910238,-839.9912119921972 L70.08402375124341,-839.8402007388645 L70.12039526903794,-839.6874192004731 L70.15027402223525,-839.5332354411312 L70.17358803030184,-839.3780209030198 L70.1902811277502,-839.2221495115565 L70.20031309944643,-839.0659967745761 L70.20365977749202,-838.9099388776993 " />
			<path d="M1170.1933000084282,-1079.8284087215204 L1170.3296285579795,-1079.814994417079 L1170.465628680114,-1079.7939619736208 L1170.6009727386252,-1079.765362060144 L1170.7353346778214,-1079.7292635763451 L1170.8683908080225,-1079.6857534866338 L1170.9998205853562,-1079.634936610627 L1171.1293073839774,-1079.57693537063 L1171.2565392588463,-1079.5118894967106 L1171.3812096972322,-1079.439955690076 L1171.5030183571291,-1079.3613072455673 L1171.6216717908062,-1079.276133634176 L1171.736884151749,-1079.1846400465924 L1171.8483778832885,-1079.0870468988826 L1171.9558843872599,-1078.9835893014879 L1172.0591446710785,-1078.874516492822 L1172.157909971676,-1078.7600912388348 L1172.2519423547924,-1078.6405891999857 L1172.3410152881809,-1078.516298267153 L1172.4249141873427,-1078.387517868081 L1172.5034369324812,-1078.2545582460305 L1172.5763943554255,-1078.1177397123772 L1172.6436106953536,-1077.9773918749524 L1172.704924022215,-1077.8338528439895 L1172.7601866268349,-1077.6874684175866 L1172.8092653767583,-1077.5385912486488 L1172.8520420369778,-1077.387579995316 L1172.8884135547723,-1077.2347984569246 L1172.9182923079698,-1077.0806146975826 L1172.9416063160363,-1076.9254001594713 L1172.9582994134846,-1076.769528768008 L1172.9683313851808,-1076.6133760310277 L1172.9716780632264,-1076.457318134151 " />
			<path d="M70.20365977749204,-807.5502465477306 L70.20365977749204,-838.9099388776993 " />
			<path d="M1172.9716780632266,-1045.0976258041821 L1172.9716780632266,-1076.457318134151 " />
			<path d="M1098.476416468948,-1450.4712689353732 L1170.1933000084284,-1445.4268471506498 " />
			<path d="M70.20365977749205,-1210.8597073989745 L70.20207509553337,-1210.7525772984986 L70.19732285734287,-1210.645792330656 L70.18940848391507,-1210.5394743076756 L70.17834100336967,-1210.433744509131 L70.16413304065286,-1210.3287235435937 L70.1468008031358,-1210.2245312110524 L70.12636406212648,-1210.1212863662533 L70.10284613031607,-1210.0191067831204 L70.07627383518556,-1209.9181090204077 L70.04667748840303,-1209.8184082887374 L70.0140908512464,-1209.7201183191767 L69.97855109609098,-1209.6233512335023 L69.94009876400627,-1209.5282174162994 L69.8987777185095,-1209.4348253890441 L69.85463509552969,-1209.34328168631 L69.80772124963833,-1209.253690734242 L69.75808969660882,-1209.1661547314332 L69.70579705236969,-1209.0807735323474 L69.65090296842138,-1208.99764453341 L69.59347006379036,-1208.916862561907 L69.53356385359804,-1208.838519767812 L69.47125267432611,-1208.7627055186697 L69.40660760586336,-1208.6895062976519 L69.33970239042321,-1208.6190056049031 L69.27061334842408,-1208.5512838622908 L69.19941929142887,-1208.4864183216662 L69.12620143224264,-1208.4244829767404 L69.05104329227119,-1208.365548478679 L68.97403060624619,-1208.3096820555077 L68.89525122442537,-1208.2569474354243 L68.81479501237968,-1208.2074047741016 L68.73275374848139,-1208.1611105860675 " />
			<path d="M1172.9716780632264,-1448.407086655426 L1172.969293730484,-1448.275718479064 L1172.9621448246025,-1448.1449111946652 L1172.9502436155974,-1448.0148893131386 L1172.9336105300927,-1447.8858759973682 L1172.912274116263,-1447.758092679187 L1172.8862709948335,-1447.6317586793234 L1172.8556457962272,-1447.5070908309704 L1172.8204510839632,-1447.3843031076242 L1172.780747264439,-1447.2636062558302 L1172.7366024832527,-1447.1452074334702 L1172.6880925082407,-1447.0293098542056 L1172.6353005994342,-1446.9161124386926 L1172.5783173661562,-1446.805809473165 L1172.5172406115028,-1446.6985902759714 L1172.452175164481,-1446.5946388726384 L1172.3832327000848,-1446.4941336800189 L1172.310531547621,-1446.3972472000673 L1172.2341964876161,-1446.3041457237643 L1172.1543585376492,-1446.2149890457056 L1172.0711547274796,-1446.1299301898366 L1171.9847278638563,-1446.0491151468123 L1171.895226285412,-1445.9726826234241 L1171.8028036080623,-1445.900763804532 L1171.7076184613463,-1445.8334821279054 L1171.6098342161645,-1445.7709530723607 L1171.509618704376,-1445.7132839595592 L1171.4071439307415,-1445.6605737698064 L1171.3025857777027,-1445.6129129721662 L1171.1961237035068,-1445.5703833691855 L1171.0879404341936,-1445.5330579564916 L1170.9782216499734,-1445.5010007975075 L1170.8671556665358,-1445.474266913495 " />
			<path d="M1170.8671556665358,-1445.474266913495 L1170.7843125150955,-1445.4579563197747 L1170.7009151984164,-1445.4445942314387 L1170.617041914326,-1445.4341931775027 L1170.532771306944,-1445.4267629105566 L1170.4481823929423,-1445.4223103976199 L1170.3633544874542,-1445.4208398136088 L1170.2783671297043,-1445.4223525374227 L1170.1933000084282,-1445.42684715065 " />
			<path d="M1098.476416468948,-1450.4712689353735 L1098.4019736980101,-1450.4776451961081 L1098.327584378939,-1450.4862970895128 L1098.2533019252214,-1450.4972184033004 L1098.179179673612,-1450.5104012956804 L1098.105270845836,-1450.5258363009896 L1098.031628510375,-1450.5435123364884 L1097.958305544362,-1450.5634167103185 L1097.8853545956142,-1450.5855351306163 L1097.8128280448307,-1450.6098517157745 L1097.7407779679818,-1450.6363490058457 L1097.6692560989168,-1450.6650079750787 L1097.5983137922178,-1450.6958080455804 L1097.5280019863267,-1450.7287271020907 L1097.4583711669684,-1450.7637415078611 L1097.3894713309016,-1450.8008261216278 L1097.3213519500202,-1450.8399543156634 " />
			<path d="M1097.3690704462622,-1487.9970535830357 L1097.4750724942703,-1488.0393050876844 L1097.5827774450447,-1488.076399166706 L1097.6920021336953,-1488.1082727372727 L1097.8025608108403,-1488.1348715946426 " />
			<path d="M1097.8025608108403,-1488.1348715946426 L1097.8854039622806,-1488.151182188363 L1097.9688012789597,-1488.164544276699 L1098.0526745630502,-1488.174945330635 L1098.1369451704322,-1488.182375597581 L1098.2215340844339,-1488.1868281105178 L1098.306361989922,-1488.1882986945288 L1098.3913493476718,-1488.186785970715 L1098.476416468948,-1488.1822913574877 " />
			<path d="M-4.291601816786539,-1250.6349121010362 L67.42528172269378,-1245.5904903163128 " />
			<path d="M1098.476416468948,-1488.1822913574874 L1170.1933000084284,-1483.137869572764 " />
			<path d="M67.42528172269378,-1245.5904903163128 L67.56161027224506,-1245.5770760118714 L67.69761039437951,-1245.556043568413 L67.8329544528907,-1245.5274436549364 L67.96731639208691,-1245.4913451711375 L68.10037252228794,-1245.447835081426 L68.23180229962178,-1245.3970182054193 L68.36128909824293,-1245.3390169654224 L68.48852097311183,-1245.273971091503 L68.6131914114977,-1245.2020372848683 L68.73500007139465,-1245.1233888403597 L68.8536535050718,-1245.0382152289683 L68.96886586601461,-1244.9467216413848 L69.08035959755415,-1244.849128493675 L69.18786610152546,-1244.7456708962802 L69.291126385344,-1244.6365980876144 L69.38989168594152,-1244.522172833627 L69.48392406905808,-1244.402670794778 L69.57299700244647,-1244.2783798619453 L69.6568959016083,-1244.1495994628733 L69.7354186467468,-1244.0166398408228 L69.80837606969116,-1243.8798213071695 L69.8755924096192,-1243.7394734697448 L69.93690573648055,-1243.5959344387818 L69.99216834110042,-1243.449550012379 L70.04124709102383,-1243.3006728434411 L70.08402375124344,-1243.1496615901083 L70.12039526903797,-1242.996880051717 L70.15027402223528,-1242.842696292375 L70.17358803030187,-1242.6874817542637 L70.19028112775023,-1242.5316103628004 L70.20031309944646,-1242.37545762582 L70.20365977749205,-1242.2193997289432 " />
			<path d="M1170.1933000084282,-1483.1378695727642 L1170.3296285579795,-1483.124455268323 L1170.465628680114,-1483.1034228248645 L1170.6009727386252,-1483.0748229113879 L1170.7353346778214,-1483.038724427589 L1170.8683908080225,-1482.9952143378775 L1170.9998205853562,-1482.9443974618707 L1171.1293073839774,-1482.8863962218738 L1171.2565392588463,-1482.8213503479544 L1171.3812096972322,-1482.7494165413198 L1171.5030183571291,-1482.6707680968111 L1171.6216717908062,-1482.5855944854197 L1171.736884151749,-1482.4941008978362 L1171.8483778832885,-1482.3965077501264 L1171.9558843872599,-1482.2930501527317 L1172.0591446710785,-1482.1839773440659 L1172.157909971676,-1482.0695520900786 L1172.2519423547924,-1481.9500500512295 L1172.3410152881809,-1481.8257591183967 L1172.4249141873427,-1481.6969787193248 L1172.5034369324812,-1481.5640190972742 L1172.5763943554255,-1481.427200563621 L1172.6436106953536,-1481.2868527261962 L1172.704924022215,-1481.1433136952332 L1172.7601866268349,-1480.9969292688304 L1172.8092653767583,-1480.8480520998926 L1172.8520420369778,-1480.6970408465597 L1172.8884135547723,-1480.5442593081684 L1172.9182923079698,-1480.3900755488264 L1172.9416063160363,-1480.2348610107151 L1172.9582994134846,-1480.0789896192518 L1172.9683313851808,-1479.9228368822714 L1172.9716780632264,-1479.7667789853947 " />
			<path d="M70.20365977749205,-1210.8597073989745 L70.20365977749205,-1242.2193997289432 " />
			<path d="M1172.9716780632266,-1448.407086655426 L1172.9716780632266,-1479.7667789853947 " />
			<path d="M1098.4764150625533,-1866.4829574402172 L1170.1932986020338,-1861.4385356521718 " />
			<path d="M70.20365861282926,-1626.8717316289103 L70.2020739212382,-1626.7646014770687 L70.19732167048879,-1626.657816458239 L70.18940728159495,-1626.5514983848213 L70.17833978270237,-1626.4457685365596 L70.16413179878988,-1626.3407475221939 L70.14679953726787,-1626.236555141879 L70.12636276949002,-1626.1333102505268 L70.10284480819965,-1626.031130622223 L70.07627248093628,-1625.930132815881 L70.04667609943277,-1625.8304320422803 L70.0140894250379,-1625.7321420326411 L69.978549630204,-1625.6353749088898 L69.94009725608336,-1625.5402410557572 L69.8987761662819,-1625.4468489948613 L69.85463349682284,-1625.355305260913 L69.80771960237743,-1625.2657142801888 L69.75808799882407,-1625.1781782514104 L69.70579530220141,-1625.0927970291632 L69.65090116412499,-1625.0096680099894 L69.59346820374108,-1624.928886021286 L69.53356193629546,-1624.850543213132 L69.47125069839848,-1624.7747289531706 L69.40660557007175,-1624.7015297246662 L69.33970029366533,-1624.6310290278495 L69.270611189738,-1624.5633072846672 L69.19941706999637,-1624.4984417470425 L69.1261991473924,-1624.4365064087522 L69.05104094348168,-1624.3775719210194 L68.97402819314833,-1624.3217055119205 L68.8952487468049,-1624.2689709096962 L68.81479247017928,-1624.2194282700552 L68.73275114180254,-1624.1731341075524 " />
			<path d="M1172.971676898551,-1864.4187752088558 L1172.9692925548954,-1864.287407005553 L1172.9621436363184,-1864.156599694472 L1172.950242412862,-1864.0265777866525 L1172.9336093111829,-1863.8975644451075 L1172.912272879494,-1863.7697811017983 L1172.8862697385648,-1863.6434470775796 L1172.8556445188692,-1863.5187792057675 L1172.820449783982,-1863.3959914599795 L1172.7807459403625,-1863.27529458688 L1172.7366011336758,-1863.1568957444645 L1172.688091131831,-1863.0409981465064 L1172.6352991949364,-1862.9278007137686 L1172.5783159323973,-1862.8174977325887 L1172.5172391473977,-1862.710278521413 L1172.4521736690363,-1862.606327105862 L1172.3832311724022,-1862.5058219028772 L1172.3105299869028,-1862.4089354144953 L1172.2341948931687,-1862.315833931775 L1172.1543569088863,-1862.2266772493829 L1172.071153063925,-1862.1416183913302 L1171.9847261651485,-1862.0608033483304 L1171.895224551305,-1861.9843708272276 L1171.8028018384296,-1861.9124520129274 L1171.7076166561817,-1861.845170343238 L1171.609832375585,-1861.782641297007 L1171.509616828623,-1861.7249721959213 L1171.4071420201813,-1861.6722620203027 L1171.302583832828,-1861.6246012392255 L1171.196121724937,-1861.5820716552391 L1171.0879384226748,-1861.5447462639659 L1170.9782196063788,-1861.512689128816 L1170.8671535918652,-1861.4859552710316 " />
			<path d="M1170.8671535918652,-1861.4859552710316 L1170.7843105189293,-1861.469644716203 L1170.7009132826681,-1861.4562826608742 L1170.6170400806736,-1861.445881634004 L1170.5327695568276,-1861.4384513881373 L1170.4481807275622,-1861.4339988902593 L1170.3633529077688,-1861.4325283152637 L1170.2783656364288,-1861.4340410420384 L1170.1932986020338,-1861.438535652172 " />
			<path d="M1098.4764150625535,-1866.4829574402174 L1098.3981237413755,-1866.4897253540553 L1098.3198945994884,-1866.4990100113685 L1098.2417897666085,-1866.5108040382668 L1098.1638712737251,-1866.525098067914 L1098.086201003837,-1866.5418807479678 L1098.0088406428026,-1866.5611387495956 L1097.931851630351,-1866.5828567780597 L1097.8552951112856,-1866.6070175848658 " />
			<path d="M1097.9035297641828,-1904.1660340453727 L1097.974293324163,-1904.177006891019 L1098.045395273817,-1904.1858510437376 L1098.116787696399,-1904.192560543312 L1098.188422479409,-1904.197130868103 L1098.260251347017,-1904.1995589380947 L1098.332225892595,-1904.1998431169723 L1098.4042976113417,-1904.1979832132229 L1098.4764179329684,-1904.1939804802653 " />
			<path d="M-4.291600352753722,-1666.64693690032 L67.4252831867266,-1661.6025151122747 " />
			<path d="M1098.4764179329682,-1904.1939804802655 L1170.1933014724486,-1899.1495586922201 " />
			<path d="M67.4252831867266,-1661.6025151122744 L67.56161173598673,-1661.5891008077642 L67.69761185724839,-1661.5680683641117 L67.83295591430728,-1661.539468450316 L67.96731785147517,-1661.5033699660742 L68.10037397907675,-1661.459859875797 L68.23180375324625,-1661.4090429991031 L68.36129054814583,-1661.351041758299 L68.48852241874488,-1661.2859958834542 L68.6131928523229,-1661.214062075779 L68.73500150688558,-1661.1354136301163 L68.8536549347149,-1661.0502400174605 L68.96886728931041,-1660.958746428505 L69.08036101401846,-1660.8611532793195 L69.18786751069057,-1660.7576956803484 L69.29112778675974,-1660.6486228700096 L69.38989307917646,-1660.5341976142568 L69.48392545370042,-1660.4146955735534 L69.57299837810515,-1660.2904046387828 L69.6568972679139,-1660.161624237693 L69.73542000335244,-1660.028664613551 L69.80837741627332,-1659.8918460777363 L69.87559374587849,-1659.7514982380862 L69.9369070621425,-1659.607959204839 L69.99216965591602,-1659.4615747760988 L70.04124839477025,-1659.3126976047756 L70.08402504372448,-1659.1616863490158 L70.1203965500846,-1659.008904808161 L70.15027529170604,-1658.8547210463257 L70.17358928808312,-1658.699506505697 L70.19028237375653,-1658.543635111698 L70.20031433362074,-1658.3874823721699 L70.20366099980573,-1658.2314244727397 " />
			<path d="M1170.1933014724489,-1899.14955869222 L1170.329630021709,-1899.1361443877097 L1170.4656301429707,-1899.1151119440572 L1170.6009742000294,-1899.0865120302615 L1170.7353361371975,-1899.0504135460196 L1170.868392264799,-1899.0069034557425 L1170.9998220389684,-1898.9560865790486 L1171.1293088338682,-1898.8980853382445 L1171.2565407044672,-1898.8330394633997 L1171.3812111380453,-1898.7611056557246 L1171.5030197926078,-1898.6824572100618 L1171.621673220437,-1898.597283597406 L1171.7368855750326,-1898.5057900084505 L1171.8483792997408,-1898.408196859265 L1171.9558857964128,-1898.304739260294 L1172.059146072482,-1898.195666449955 L1172.1579113648986,-1898.0812411942022 L1172.2519437394226,-1897.961739153499 L1172.3410166638273,-1897.8374482187282 L1172.424915553636,-1897.7086678176386 L1172.5034382890747,-1897.5757081934964 L1172.5763957019956,-1897.4388896576818 L1172.6436120316007,-1897.2985418180317 L1172.7049253478647,-1897.1550027847845 L1172.7601879416384,-1897.0086183560443 L1172.8092666804926,-1896.859741184721 L1172.8520433294468,-1896.7087299289612 L1172.8884148358068,-1896.5559483881066 L1172.9182935774284,-1896.4017646262712 L1172.9416075738054,-1896.2465500856424 L1172.9583006594787,-1896.0906786916435 L1172.968332619343,-1895.9345259521153 L1172.971679285528,-1895.7784680526852 " />
			<path d="M70.20365861282926,-1626.8717316289103 L70.20366099980572,-1658.23142447274 " />
			<path d="M1172.9716768985513,-1864.4187752088558 L1172.971679285528,-1895.7784680526854 " />
			<path d="M69.03763711995194,-1661.260616654579 L69.03763711995194,-1624.141074183621 " />
			<path d="M69.03763711995192,-1266.5285070270284 L69.03763711995192,-1208.1290499883512 " />
			<path d="M69.0376371199519,-863.2190461757843 L69.0376371199519,-804.8195891371073 " />
			<path d="M69.03763711995188,-459.90958532454044 L69.03763711995188,-401.5101282858631 " />
			<path d="M69.03763711995185,-56.60018865053465 L69.03763711995185,1.7992935607642435 " />
			<path d="M1170.8671582185302,-235.5463039368039 L1170.2158876361236,-235.40601344489576 " />
			<path d="M1097.8025585852104,-278.2069075613315 L1095.81486413544,-277.77873739726385 " />
			<path d="M1170.867155666536,-638.855345211007 L1096.257932119769,-622.7837642184387 " />
			<path d="M1097.8025608108403,-681.5159498921546 L1096.3329515764733,-681.1993812064778 " />
			<path d="M1170.867155666536,-1042.164806062251 L1096.7760200981659,-1026.2048264576918 " />
			<path d="M1097.8025608108403,-1084.8254107433986 L1096.8510395548699,-1084.6204434457306 " />
			<path d="M1170.867155666536,-1445.4742669134953 L1097.2941080765625,-1429.6258886969445 " />
			<path d="M1097.8025608108403,-1488.1348715946424 L1097.3691275332662,-1488.0415056849833 " />
			<path d="M1170.8671535918652,-1861.4859552710313 L1097.828513259881,-1845.7527160128482 " />

       </g>

       <!-- solid lines -->
       <g  stroke="rgb(0,0,0)" fill="none">
			<path d="M-48.572002065134036,-6.110101689607354 L67.42528172269373,2.048914659533504 " />
			<path d="M-48.572002065133944,-1669.7616277009895 L-4.633297541031135,-1666.6710673286625 " />
			<path d="M68.61601517475012,2.586334898099667 L68.71312230942802,2.5637459815824686 L68.7981246344397,2.5404294819589603 L68.87066431905484,2.516483553721837 L68.93043599599879,2.4920090010430873 L68.97718804694452,2.46710885342289 L68.99561804430284,2.4545318801439993 L69.01072366173969,2.441887931970638 L69.0224889976988,2.429190319080556 L69.03090166691011,2.4164524081438996 L69.0359528134276,2.4036876082522287 L69.03763711995185,2.390909356802882 " />
			<path d="M69.03763711995185,2.3909093568028803 L69.03590920021487,2.377966767598874 L69.03072730707058,2.3650381557419506 L69.0220970367036,2.3521374834843605 L69.01002770937303,2.339278682904987 L68.99453235934692,2.3264756408634018 L68.97562772082597,2.3137421840027534 L68.92767590235688,2.288538941803411 L68.86637934027387,2.2637777998617095 L68.79200275193581,2.2395656924636134 L68.70486734253532,2.2160071828163614 L68.60534941793135,2.1932040114783438 L68.49387875952223,2.1712546569789644 L68.37093676817754,2.1502539105260077 L68.23705438524446,2.1302924666371967 L68.09280979960684,2.111456531463851 L67.9388259506996,2.093827450498153 L67.77576783826191,2.077481357271817 L67.60433965044737,2.062488844563301 L67.42528172269374,2.0489146595335046 " />
			<path d="M-48.57200206513403,-6.110101689607354 L-48.851975679529374,-6.12760994436861 L-49.14454288038818,-6.141655989177507 L-49.44688608563266,-6.152104552944186 L-49.756093564918714,-6.158855010287808 L-50.069187481190816,-6.161842350613978 L-50.38315256888071,-6.1610378042023095 L-50.69496517256318,-6.156449119274557 L-51.00162236641064,-6.148120487375003 L-51.30017087401049,-6.136132117781736 L-51.5877355100313,-6.120599465047447 L-51.86154686982939,-6.10167211710898 L-52.118968000329374,-6.079532354673722 L-52.35751979532384,-6.054393395756751 L-52.574904870621324,-6.02649734227479 L-52.769029689111925,-5.9961128484724036 L-52.93802472267415,-5.963532533634766 " />
			<path d="M-48.57200206513394,-1669.7616277009895 L-48.85197567952928,-1669.7791359557507 L-49.14454288038809,-1669.7931820005595 L-49.44688608563257,-1669.8036305643263 L-49.75609356491862,-1669.8103810216699 L-50.069187481190724,-1669.813368361996 L-50.38315256888062,-1669.8125638155843 L-50.69496517256309,-1669.8079751306566 L-51.00162236641055,-1669.799646498757 L-51.3001708740104,-1669.787658129164 L-51.58773551003121,-1669.7721254764294 L-51.8615468698293,-1669.753198128491 L-52.11896800032928,-1669.7310583660558 L-52.357519795323746,-1669.7059194071387 L-52.574904870621225,-1669.678023353657 L-52.76902968911183,-1669.6476388598544 L-52.93802472267406,-1669.6150585450168 " />
			<path d="M-52.93802472267417,-5.963532533634764 L-68.61601517475012,-2.586334898099667 " />
			<path d="M-52.93802472267408,-1669.6150585450168 L-68.61601517475003,-1666.2378609094817 " />
			<path d="M-68.61601517475012,-2.586334898099667 L-68.71312230942802,-2.563745981582468 L-68.7981246344397,-2.54042948195896 L-68.87066431905484,-2.5164835537218364 L-68.93043599599879,-2.4920090010430873 L-68.97718804694452,-2.4671088534228907 L-68.99561804430284,-2.4545318801439997 L-69.01072366173969,-2.441887931970638 L-69.0224889976988,-2.429190319080556 L-69.03090166691011,-2.4164524081438996 L-69.0359528134276,-2.403687608252229 L-69.03763711995185,-2.390909356802884 " />
			<path d="M-69.03763711995185,-2.39090935680288 L-69.03590920021487,-2.3779667675988736 L-69.03072730707058,-2.3650381557419506 L-69.0220970367036,-2.3521374834843605 L-69.01002770937303,-2.3392786829049865 L-68.99453235934692,-2.3264756408634018 L-68.97562772082597,-2.3137421840027534 L-68.92767590235688,-2.2885389418034108 L-68.86637934027387,-2.2637777998617095 L-68.79200275193581,-2.239565692463613 L-68.70486734253532,-2.2160071828163614 L-68.60534941793135,-2.1932040114783438 L-68.49387875952223,-2.1712546569789644 L-68.37093676817754,-2.1502539105260077 L-68.23705438524446,-2.1302924666371963 L-68.09280979960684,-2.111456531463851 L-67.9388259506996,-2.093827450498153 L-67.77576783826191,-2.077481357271817 L-67.60433965044739,-2.062488844563301 L-67.42528172269373,-2.0489146595335033 " />
			<path d="M-68.61601517475002,-1666.2378609094817 L-68.71312230942792,-1666.2152719929645 L-68.7981246344396,-1666.191955493341 L-68.87066431905474,-1666.1680095651038 L-68.93043599599869,-1666.1435350124252 L-68.97718804694442,-1666.118634864805 L-68.99561804430274,-1666.106057891526 L-69.01072366173959,-1666.0934139433527 L-69.0224889976987,-1666.0807163304626 L-69.03090166691001,-1666.0679784195258 L-69.0359528134275,-1666.0552136196343 L-69.03763711995175,-1666.042435368185 " />
			<path d="M-69.03763711995175,-1666.042435368185 L-69.0359528134275,-1666.0296571167355 L-69.03090166691001,-1666.016892316844 L-69.0224889976987,-1666.0041544059072 L-69.01072366173959,-1665.991456793017 L-68.99561804430274,-1665.9788128448438 L-68.97718804694442,-1665.9662358715648 L-68.93043599599869,-1665.9413357239448 L-68.87066431905474,-1665.916861171266 L-68.7981246344396,-1665.8929152430287 L-68.71312230942792,-1665.8695987434053 L-68.61601517475002,-1665.847009826888 " />
			<path d="M-67.42528172269373,-2.048914659533504 L48.572002065134036,6.110101689607354 " />
			<path d="M48.57200206513403,6.110101689607354 L48.851975679529374,6.12760994436861 L49.14454288038818,6.141655989177506 L49.44688608563266,6.152104552944186 L49.756093564918714,6.158855010287808 L50.069187481190816,6.161842350613978 L50.38315256888071,6.1610378042023095 L50.69496517256318,6.156449119274557 L51.00162236641064,6.148120487375003 L51.30017087401048,6.136132117781736 L51.5877355100313,6.120599465047447 L51.86154686982938,6.10167211710898 L52.118968000329374,6.079532354673722 L52.35751979532384,6.054393395756751 L52.574904870621324,6.02649734227479 L52.769029689111925,5.9961128484724036 L52.93802472267416,5.9635325336347655 " />
			<path d="M68.61601517475012,2.586334898099667 L52.93802472267417,5.963532533634764 " />
			<path d="M1116.1056185930563,-244.56352411961873 L1187.994489601546,-239.48306115784865 " />
			<path d="M1118.2422542174922,-1908.303755838245 L1190.131125225982,-1903.223292876475 " />
			<path d="M1189.2036086720857,-238.94662601539932 L1189.2991805662118,-238.9688713205933 L1189.3828293451113,-238.99183921360097 L1189.454208778984,-239.0154346282526 L1189.5130234219491,-239.03955990101014 L1189.5590298349236,-239.06411517520533 L1189.5771683535118,-239.07652235950488 L1189.5920375932367,-239.0889988143554 L1189.603622163837,-239.1015316261238 L1189.6119100748153,-239.11410782284545 L1189.6168927478507,-239.1267143876505 L1189.6185650256755,-239.13933827223687 " />
			<path d="M1189.6185650256755,-239.13933827223687 L1189.6168393459686,-239.1522910440883 L1189.6116309229258,-239.16523418615674 L1189.6029454282357,-239.17815360406684 L1189.590792319928,-239.19103522927742 L1189.5751848320745,-239.2038650344016 L1189.5561399603778,-239.21662904848165 L1189.507824741299,-239.2419041930287 L1189.4460570559472,-239.26675059987716 L1189.3711058776337,-239.29106007296502 L1189.2832975884537,-239.31472675435992 L1189.1830145580254,-239.33764758522753 L1189.0706934784243,-239.3597227546112 L1188.9468234625658,-239.3808561340683 L1188.8119439143159,-239.4009556962708 L1188.6666421796056,-239.41993391574712 L1188.5115509887764,-239.43770815002006 L1188.3473457012958,-239.45420099948151 L1188.174741364839,-239.46934064443644 L1187.9944896015463,-239.48306115784868 " />
			<path d="M1191.3402442965214,-1902.6868577340254 L1191.4358161906475,-1902.7091030392194 L1191.519464969547,-1902.732070932227 L1191.5908444034196,-1902.7556663468786 L1191.6496590463848,-1902.7797916196362 L1191.6956654593594,-1902.8043468938315 L1191.7138039779475,-1902.816754078131 L1191.7286732176724,-1902.8292305329815 L1191.7402577882726,-1902.8417633447498 L1191.748545699251,-1902.8543395414715 L1191.7535283722864,-1902.8669461062766 L1191.7552006501112,-1902.8795699908628 " />
			<path d="M1191.7552006501112,-1902.8795699908628 L1191.7534749704043,-1902.8925227627144 L1191.7482665473615,-1902.905465904783 L1191.7395810526714,-1902.918385322693 L1191.7274279443636,-1902.9312669479034 L1191.7118204565102,-1902.9440967530277 L1191.6927755848135,-1902.9568607671076 L1191.6444603657346,-1902.9821359116547 L1191.582692680383,-1903.006982318503 L1191.5077415020694,-1903.031291791591 L1191.4199332128894,-1903.054958472986 L1191.3196501824611,-1903.0778793038537 L1191.20732910286,-1903.0999544732372 L1191.0834590870015,-1903.1210878526945 L1190.9485795387516,-1903.1411874148969 L1190.8032778040413,-1903.1601656343732 L1190.6481866132121,-1903.177939868646 L1190.4839813257315,-1903.1944327181075 L1190.3113769892748,-1903.2095723630625 L1190.131125225982,-1903.2232928764747 " />
			<path d="M1116.1056185930568,-244.56352411961876 L1115.8250483429217,-244.58118069953267 L1115.5320031479305,-244.5953965748836 L1115.2293051935055,-244.60603483902077 L1114.9198696264193,-244.61299303964503 L1114.606676480338,-244.61620416548067 L1114.2927419764667,-244.6156372916305 L1113.981089475692,-244.61129787739955 L1113.674720361963,-244.60322771371906 L1113.376585137323,-244.59150452067686 L1113.0895550069629,-244.57624119903053 L1112.8163942279446,-244.55758474291127 L1112.5597334878948,-244.53571482419017 L1112.3220445700454,-244.51084206213983 L1112.1056165486089,-244.48320599505564 L1111.9125337437438,-244.45307277337102 L1111.7446556484106,-244.4207325964833 " />
			<path d="M1118.2422542174922,-1908.303755838245 L1117.9616839673572,-1908.3214124181588 L1117.668638772366,-1908.33562829351 L1117.365940817941,-1908.3462665576471 L1117.0565052508548,-1908.3532247582714 L1116.7433121047734,-1908.356435884107 L1116.4293776009022,-1908.3558690102568 L1116.1177251001275,-1908.3515295960258 L1115.8113559863984,-1908.3434594323453 L1115.5132207617585,-1908.3317362393032 L1115.2261906313984,-1908.316472917657 L1114.95302985238,-1908.2978164615376 L1114.6963691123303,-1908.2759465428164 L1114.4586801944808,-1908.251073780766 L1114.2422521730443,-1908.223437713682 L1114.0491693681793,-1908.1933044919974 L1113.881291272846,-1908.1609643151096 " />
			<path d="M1111.7446556484106,-244.4207325964833 L1096.1824265200084,-241.06705093515816 " />
			<path d="M1113.8812912728463,-1908.1609643151094 L1098.3190621444442,-1904.8072826537843 " />
			<path d="M1096.1824265200082,-241.0670509351581 L1096.086854625882,-241.04480562996412 L1096.0032058469826,-241.02183773695646 L1095.93182641311,-240.99824232230483 L1095.8730117701448,-240.9741170495473 L1095.8270053571703,-240.9495617753521 L1095.8088668385822,-240.93715459105255 L1095.7939975988572,-240.92467813620203 L1095.782413028257,-240.91214532443362 L1095.7741251172786,-240.89956912771197 L1095.7691424442432,-240.88696256290692 L1095.7674701664184,-240.87433867832056 " />
			<path d="M1095.7674701664184,-240.87433867832056 L1095.7691958461253,-240.86138590646914 L1095.7744042691681,-240.8484427644007 L1095.7830897638582,-240.8355233464906 L1095.795242872166,-240.82264172128 L1095.8108503600195,-240.80981191615584 L1095.8298952317161,-240.79704790207578 L1095.878210450795,-240.77177275752874 L1095.9399781361467,-240.74692635068027 L1096.0149293144602,-240.7226168775924 L1096.1027376036402,-240.6989501961975 L1096.2030206340685,-240.6760293653299 L1096.3153417136696,-240.65395419594623 L1096.439211729528,-240.63282081648913 L1096.574091277778,-240.6127212542866 L1096.7193930124884,-240.5937430348103 L1096.8744842033175,-240.57596880053737 L1097.038689490798,-240.5594759510759 L1097.2112938272548,-240.54433630612098 L1097.3915455905476,-240.53061579270874 " />
			<path d="M1098.3190621444444,-1904.8072826537843 L1098.2234902503183,-1904.7850373485903 L1098.1398414714188,-1904.7620694555826 L1098.0684620375462,-1904.7384740409311 L1098.009647394581,-1904.7143487681735 L1097.9636409816064,-1904.6897934939782 L1097.9455024630183,-1904.6773863096787 L1097.9306332232934,-1904.6649098548282 L1097.9190486526932,-1904.65237704306 L1097.9107607417147,-1904.6398008463382 L1097.9057780686794,-1904.627194281533 L1097.9041057908546,-1904.6145703969469 " />
			<path d="M1097.9041057908546,-1904.6145703969469 L1097.905745639115,-1904.6019422588079 L1097.9106959161513,-1904.5893229377475 L1097.9189514982284,-1904.5767254952714 L1097.9305038404855,-1904.5641629702393 L1097.945340985784,-1904.5516483653703 L1097.963447577081,-1904.5391946337843 L1098.0093907688567,-1904.5145212745676 L1098.0681432528202,-1904.4902450178363 L1098.1394618471695,-1904.4664663451947 L1098.2230513578445,-1904.4432836787023 L1098.3185658003613,-1904.4207929734955 " />
			<path d="M1169.2804165990374,-235.45015283093863 L1169.5609868491724,-235.43249625102473 L1169.8540320441637,-235.4182803756738 L1170.1567299985886,-235.40764211153663 L1170.4661655656748,-235.40068391091236 L1170.7793587117562,-235.39747278507673 L1171.0932932156275,-235.3980396589269 L1171.4049457164022,-235.40237907315785 L1171.7113148301312,-235.41044923683833 L1172.0094500547712,-235.42217242988053 L1172.2964801851313,-235.43743575152686 L1172.5696409641496,-235.45609220764612 L1172.8263017041993,-235.47796212636723 L1173.0639906220488,-235.50283488841757 L1173.2804186434853,-235.53047095550176 L1173.4735014483504,-235.56060417718638 L1173.6413795436836,-235.5929443540741 " />
			<path d="M1189.2036086720855,-238.94662601539926 L1173.6413795436833,-235.59294435407412 " />
			<path d="M-4.291599923692441,-2.9955461832389174 L67.42528361790129,2.0488755706534425 " />
			<path d="M1098.4764182625036,-240.54330576463678 L1170.1933018040972,-235.4988840107444 " />
			<path d="M68.73275700205657,1.7672321352287885 L68.65708473682128,1.8063517173496169 L68.58025746541232,1.842721021596709 L68.50234722539453,1.8763059460676366 L68.42342706978496,1.90707499965084 L68.34357099855426,1.9349993315534668 L68.26285388924008,1.9600527583534908 L68.1813514267378,1.9822117885507593 L68.09914003233405,2.0014556445939458 " />
			<path d="M68.09914003233405,2.0014556445939484 L68.01629679204977,2.017766282362755 L67.93289938436018,2.0311284080870835 L67.8490260073589,2.04152949268734 L67.76475530543517,2.0489597835224034 L67.68016629553236,2.0534123135342455 L67.5953382930573,2.0548829077806423 L67.51035083750966,2.0533701873498282 L67.4252836179013,2.0488755706534465 " />
			<path d="M-4.291599923692428,-2.995546183238914 L-4.427928473578701,-3.0089604875506737 L-4.563928596709267,-3.02999293073791 L-4.699272656875299,-3.0585928438027588 L-4.833634598381115,-3.0946913270495893 L-4.966690731540916,-3.138201416070407 L-5.098120512475576,-3.1890182912497274 L-5.2276073153309355,-3.247019530284211 L-5.354839195057213,-3.312065403108715 L-5.47950963891195,-3.38399920851826 L-5.601318304876058,-3.4626476516749563 L-5.719971745204051,-3.547821261590449 L-5.835184113365366,-3.6393148475781265 L-5.946677852673692,-3.7369079935754526 L-6.054184364945334,-3.8403655891455677 L-6.1574446575757715,-3.949438395878929 L-6.256209967475526,-4.063863647830466 L-6.350242360362228,-4.183365684545761 L-6.4393153039651505,-4.307656615151223 L-6.5232142137612845,-4.436437011908424 L-6.601736969928257,-4.569396631561748 L-6.674694404268676,-4.706215162741561 L-6.741910755932903,-4.8465629976223585 L-6.803224094842317,-4.990102025976899 L-6.858486711793076,-5.136486449713341 L-6.90756547430051,-5.285363615933142 L-6.950342147326946,-5.4363748665027805 L-6.986713678120271,-5.589156402092609 L-7.016592444477032,-5.743340158601311 L-7.039906465832008,-5.898554693854553 L-7.0565995766656835,-6.054426082441725 L-7.066631561811919,-6.210578816534998 L-7.0699782533398,-6.366636710520551 " />
			<path d="M1095.7704428063448,-243.1890527937847 L1095.7535301374533,-243.27897976710247 L1095.7388444140206,-243.36926659215828 L1095.7263976469364,-243.4598394268234 L1095.7162000159337,-243.5506241950529 L1095.7082598612635,-243.64154664746945 L1095.7025836768737,-243.73253242208912 L1095.6991761050972,-243.82350710513924 L1095.6980399328563,-243.91439629191842 " />
			<path d="M-7.069978253339804,-6.3666367105205826 L-7.069980966666159,-37.726328458916164 " />
			<path d="M1095.6980399328565,-243.91439629191848 L1095.69803721953,-275.27408804031404 " />
			<path d="M-7.069980966666159,-37.72632845891616 L-7.067596646324359,-37.85769660478827 L-7.060447754860577,-37.98850385899133 L-7.048546562259935,-38.118525710764324 L-7.0319134951098095,-38.247538997370064 L-7.010577101540709,-38.375322287120134 L-6.9845740022277365,-38.501656259428664 L-6.953948827536779,-38.626324081242785 L-6.918754140923264,-38.749111779203616 L-6.879050348714989,-38.86980860689894 L-6.834905596433837,-38.98820740657744 L-6.786395651834358,-39.104104964703424 L-6.733603774859932,-39.217302360742 L-6.676620574739745,-39.327605308575905 L-6.615543854471821,-39.43482448996806 L-6.5504784429590455,-39.53877587949758 L-6.481536015086299,-39.639281060411406 L-6.408834900047498,-39.73616753084953 L-6.332499878251524,-39.829268999918185 L-6.25266196715563,-39.91842567310293 L-6.16945819639389,-40.003484526531594 L-6.083031372586682,-40.08429956961648 L-5.993529834234831,-40.16073209562505 L-5.901107197119126,-40.232650919748885 L-5.805922090642198,-40.29993260426251 L-5.708137885565272,-40.36246167038544 L-5.6079224136070955,-40.420130796483996 L-5.505447679386311,-40.47284100227249 L-5.400889565201686,-40.52050181869792 L-5.294427529156897,-40.5630314432163 L-5.186244297147979,-40.60035688019428 L-5.076525549242109,-40.632414066195075 L-4.965459600986027,-40.65914797993359 " />
			<path d="M-4.965459600986003,-40.65914797993359 L-4.8826163607017365,-40.675458617702404 L-4.799218953012138,-40.68882074342673 L-4.715345576010864,-40.699221828026985 L-4.631074874087132,-40.70665211886205 L-4.546485864184323,-40.71110464887389 L-4.461657861709258,-40.71257524312029 L-4.376670406161619,-40.711062522689474 L-4.291603186553242,-40.70656790599309 " />
			<path d="M1095.6980372195299,-275.274088040314 L1095.6998426221853,-275.38842577768025 L1095.7052565036283,-275.5023609416743 L1095.7142718278913,-275.6157454603116 L1095.7268768785127,-275.72843197723546 L1095.7430552737642,-275.8402740432234 L1095.762785987942,-275.9511263065151 L1095.7860433786898,-276.06084470171385 L1095.812797220326,-276.1692866370162 " />
			<path d="M-4.291601816786596,-406.30496797643383 L67.42528172269373,-401.2605461917105 " />
			<path d="M68.73275374848096,-401.54218888357934 L68.65708154564058,-401.5030693949892 L68.58025434077362,-401.4667001785697 L68.50234417121573,-401.4331153360617 L68.42342408974876,-401.40234635842717 L68.34356809610247,-401.3744220963209 L68.26285106756845,-401.34936873303883 L68.18134868879106,-401.3272097599672 L68.09913738080147,-401.30796595455564 " />
			<path d="M68.09913738080145,-401.30796595455564 L68.0162942293611,-401.2916553608352 L67.93289691268203,-401.27829327249924 L67.84902362859148,-401.2678922185633 L67.7647530212095,-401.2604619516172 L67.68016410720784,-401.2560094386804 L67.59533620171977,-401.2545388546694 L67.51034884396985,-401.2560515784833 L67.42528172269374,-401.26054619171055 " />
			<path d="M-4.291601816786596,-406.3049679764339 L-4.427930366337882,-406.3183822808752 L-4.563930488472329,-406.3394147243335 L-4.699274546983512,-406.3680146378104 L-4.833636486179735,-406.40411312160916 L-4.96669261638076,-406.44762321132055 L-5.098122393714592,-406.4984400873273 L-5.227609192335746,-406.55644132732425 L-5.354841067204639,-406.6214872012437 L-5.479511505590516,-406.69342100787827 L-5.601320165487463,-406.77206945238703 L-5.719973599164611,-406.8572430637783 L-5.8351859601074185,-406.948736651362 L-5.946679691646966,-407.0463297990717 L-6.054186195618271,-407.1497873964665 L-6.157446479436814,-407.2588602051323 L-6.2562117800343415,-407.37328545911953 L-6.3502441631508955,-407.4927874979688 L-6.439317096539285,-407.6170784308013 L-6.523215995701109,-407.74585882987344 L-6.601738740839613,-407.87881845192385 L-6.674696163783977,-408.0156369855772 L-6.74191250371201,-408.155984823002 L-6.803225830573371,-408.29952385396484 L-6.858488435193239,-408.4459082803677 L-6.907567185116653,-408.59478544930556 L-6.950343845336253,-408.74579670263836 L-6.986715363130781,-408.8985782410297 L-7.016594116328099,-409.0527620003717 L-7.039908124394685,-409.207976538483 L-7.056601221843041,-409.36384792994625 L-7.066633193539273,-409.52000066692665 L-7.069979871584866,-409.6760585638034 " />
			<path d="M1096.7007999464847,-644.7103838549993 L1096.6428762354992,-644.771021871138 L1096.5863311535752,-644.8333569062515 L1096.531207216656,-644.8973420909615 L1096.4775458721338,-644.9629293151509 L1096.4253874676858,-645.0300692641378 L1096.3747712209365,-645.0987114557549 L1096.32573518997,-645.1688042783068 L1096.2783162447147,-645.2402950293763 L1096.2325500392212,-645.3131299554514 L1096.188470984854,-645.387254292342 L1096.146112224417,-645.4626123063572 L1096.1055056072353,-645.5391473362106 L1096.066681665206,-645.6168018356238 L1096.0296695898433,-645.6955174165957 L1095.9944972103276,-645.7752348933035 L1095.9611909725825,-645.855894326604 L1095.9297759193894,-645.9374350691023 L1095.900275671558,-646.0197958107518 L1095.8727124101665,-646.1029146249527 L1095.847106859883,-646.186729015115 L1095.8234782733837,-646.2711759616483 L1095.8018444168758,-646.3561919693467 L1095.7822215567398,-646.4417131151304 L1095.7646244472992,-646.5276750961089 L1095.749066319726,-646.6140132779299 L1095.7355588720925,-646.7006627433778 L1095.7241122605765,-646.7875583411848 L1095.7147350918237,-646.8746347350171 L1095.7074344164769,-646.9618264526016 L1095.7022157238746,-647.0490679349537 L1095.6990829379238,-647.136293585671 L1095.6980384141498,-647.223437820255 " />
			<path d="M-7.069979871584868,-409.6760585638034 L-7.069979871584868,-441.03575089377216 " />
			<path d="M1095.6980384141496,-647.2234378202548 L1095.6980384141496,-678.5831301502236 " />
			<path d="M-7.069979871584865,-441.0357508937722 L-7.067595538842278,-441.1671190701343 L-7.060446632960853,-441.297926354533 L-7.048545423955708,-441.4279482360594 L-7.031912338451115,-441.5569615518299 L-7.010575924621295,-441.6847448700112 L-6.984572803191794,-441.81107886987473 L-6.953947604585549,-441.9357467182277 L-6.918752892321525,-442.05853444157407 L-6.879049072797383,-442.17923129336793 L-6.8349042916110445,-442.29763011572794 L-6.786394316599082,-442.41352769499264 L-6.733602407792694,-442.5267251105056 L-6.676619174514464,-442.6370280760332 L-6.615542419861165,-442.7442472732268 L-6.550476972839547,-442.84819867655983 L-6.481534508443213,-442.94870386917916 L-6.408833355979382,-443.04559034913086 L-6.332498295974556,-443.1386918254338 L-6.2526603460076124,-443.2278485034926 L-6.169456535837969,-443.3129073593614 L-6.083029672214729,-443.3937224023859 L-5.9935280937705135,-443.4701549257741 L-5.901105416420644,-443.54207374466614 L-5.80592026970467,-443.6093554212927 L-5.7081360245227675,-443.6718844768374 L-5.6079205127343155,-443.7295535896388 L-5.505445739099905,-443.7822637793917 L-5.400887586061194,-443.82992457703193 L-5.2944255118653185,-443.8724541800127 L-5.186242242551961,-443.90977959270646 L-5.07652345833176,-443.9418367516907 L-4.965457474894349,-443.9685706357031 " />
			<path d="M-4.965457474894325,-443.9685706357031 L-4.882614323453968,-443.98488122942354 L-4.7992170067748905,-443.9982433177595 L-4.715343722684356,-444.0086443716954 L-4.631073115302371,-444.01607463864156 L-4.546484201300715,-444.02052715157834 L-4.461656295812642,-444.0219977355893 L-4.376668938062727,-444.0204850117754 L-4.291601816786597,-444.0159903985482 " />
			<path d="M1095.6980384141498,-678.5831301502237 L1095.699135023672,-678.672267870161 L1095.7024239865882,-678.7611809591981 L1095.7079027066297,-678.8497992303853 L1095.715566858959,-678.9380527294988 L1095.7254103935843,-679.0258717902619 L1095.7374255401346,-679.1131870893381 L1095.7516028139946,-679.1999297010547 L1095.7679310237902,-679.2860311518111 L1095.786397280224,-679.3714234741326 L1095.8069870062504,-679.4560392603213 L1095.8296839485806,-679.5398117156684 L1095.854470190515,-679.6226747111803 L1095.8813261660848,-679.7045628357802 L1095.910230675498,-679.7854114479433 L1095.9411609018737,-679.8651567267235 L1095.9740924292541,-679.9437357221332 L1096.008999261878,-680.0210864048353 L1096.0458538447012,-680.0971477151079 L1096.084627085148,-680.1718596110453 L1096.1252883760776,-680.2451631159531 L1096.1678056199437,-680.3170003649044 L1096.2121452541326,-680.3873146504175 L1096.2582722774575,-680.4560504672204 L1096.3061502777873,-680.5231535560655 L1096.3557414607901,-680.5885709465616 L1096.4070066797676,-680.6522509989882 L1096.4599054665573,-680.7141434450587 L1096.5143960634778,-680.7741994276023 L1096.5704354562909,-680.8323715391309 L1096.627979408157,-680.8886138592619 L1096.6869824945559,-680.9428819909679 L1096.7473981391431,-680.9951330956218 " />
			<path d="M-4.291601816786567,-809.6144288276778 L67.42528172269375,-804.5700070429546 " />
			<path d="M68.73275374848099,-804.8516497348235 L68.65708154564061,-804.8125302462335 L68.58025434077365,-804.7761610298138 L68.50234417121575,-804.7425761873059 L68.42342408974879,-804.7118072096714 L68.3435680961025,-804.683882947565 L68.26285106756848,-804.658829584283 L68.18134868879109,-804.6366706112113 L68.0991373808015,-804.6174268057998 " />
			<path d="M68.09913738080148,-804.6174268057998 L68.01629422936112,-804.6011162120793 L67.93289691268205,-804.5877541237434 L67.84902362859151,-804.5773530698075 L67.76475302120953,-804.5699228028614 L67.68016410720787,-804.5654702899245 L67.5953362017198,-804.5639997059136 L67.51034884396988,-804.5655124297275 L67.42528172269377,-804.5700070429547 " />
			<path d="M-4.291601816786571,-809.6144288276779 L-4.427930366337857,-809.6278431321192 L-4.563930488472304,-809.6488755755776 L-4.699274546983487,-809.6774754890545 L-4.83363648617971,-809.7135739728533 L-4.966692616380735,-809.7570840625646 L-5.098122393714567,-809.8079009385714 L-5.227609192335721,-809.8659021785683 L-5.354841067204614,-809.9309480524878 L-5.479511505590491,-810.0028818591223 L-5.601320165487438,-810.0815303036311 L-5.719973599164586,-810.1667039150224 L-5.835185960107394,-810.2581975026061 L-5.946679691646941,-810.3557906503157 L-6.054186195618247,-810.4592482477105 L-6.157446479436789,-810.5683210563764 L-6.256211780034317,-810.6827463103635 L-6.350244163150871,-810.8022483492128 L-6.43931709653926,-810.9265392820454 L-6.523215995701084,-811.0553196811175 L-6.601738740839588,-811.1882793031679 L-6.674696163783952,-811.3250978368212 L-6.741912503711985,-811.4654456742461 L-6.803225830573346,-811.608984705209 L-6.858488435193214,-811.7553691316118 L-6.907567185116628,-811.9042463005496 L-6.950343845336228,-812.0552575538824 L-6.986715363130756,-812.2080390922738 L-7.016594116328074,-812.3622228516157 L-7.03990812439466,-812.5174373897271 L-7.0566012218430165,-812.6733087811904 L-7.066633193539248,-812.8294615181708 L-7.069979871584841,-812.9855194150475 " />
			<path d="M1097.2181985004565,-1047.5946099868481 L1097.133743824505,-1047.6516886997588 L1097.050877929506,-1047.7119454942094 L1096.9696988704516,-1047.7753090684962 L1096.8903027063052,-1047.841704444671 L1096.8127833863362,-1047.9110530572625 L1096.7372326389484,-1047.9832728462427 L1096.6637398631394,-1048.0582783541283 L1096.5923920227146,-1048.1359808271025 L1096.5232735433829,-1048.216288320036 L1096.4564662128557,-1048.2991058052878 L1096.3920490840694,-1048.3843352851484 L1096.33009838164,-1048.4718759078023 L1096.2706874116682,-1048.5616240866643 L1096.2138864749961,-1048.6534736229544 L1096.1597627840201,-1048.7473158313617 L1096.1083803831593,-1048.8430396686515 L1096.0598000730713,-1048.9405318650633 L1096.0140793387072,-1049.0396770583416 L1095.9712722812897,-1049.1403579302437 L1095.9314295542956,-1049.2424553453632 L1095.8945983035173,-1049.3458484921016 L1095.8608221112754,-1049.4504150256244 L1095.8301409448477,-1049.5560312126322 L1095.8025911091768,-1049.6625720777731 L1095.7782052039095,-1049.7699115515259 L1095.7570120848222,-1049.877922619378 L1095.7390368296765,-1049.9864774721218 L1095.7243007085433,-1050.0954476570898 L1095.7128211586355,-1050.2047042301535 L1095.704611763674,-1050.314117908302 L1095.6996822378137,-1050.423559222622 L1095.6980384141498,-1050.532898671499 " />
			<path d="M-7.069979871584843,-812.9855194150474 L-7.069979871584843,-844.3452117450162 " />
			<path d="M1095.6980384141496,-1050.5328986714987 L1095.6980384141496,-1081.8925910014675 " />
			<path d="M-7.06997987158484,-844.3452117450162 L-7.067595538842253,-844.4765799213783 L-7.060446632960828,-844.607387205777 L-7.048545423955683,-844.7374090873034 L-7.03191233845109,-844.8664224030739 L-7.01057592462127,-844.9942057212551 L-6.984572803191769,-845.1205397211187 L-6.953947604585524,-845.2452075694716 L-6.9187528923215,-845.367995292818 L-6.8790490727973586,-845.4886921446118 L-6.83490429161102,-845.6070909669719 L-6.786394316599057,-845.7229885462366 L-6.733602407792669,-845.8361859617496 L-6.676619174514439,-845.9464889272771 L-6.61554241986114,-846.0537081244707 L-6.5504769728395225,-846.1576595278038 L-6.481534508443188,-846.2581647204231 L-6.4088333559793575,-846.3550512003749 L-6.332498295974531,-846.4481526766778 L-6.252660346007588,-846.5373093547366 L-6.169456535837944,-846.6223682106054 L-6.083029672214704,-846.7031832536298 L-5.993528093770489,-846.7796157770181 L-5.901105416420619,-846.8515345959102 L-5.805920269704645,-846.9188162725367 L-5.708136024522743,-846.9813453280814 L-5.607920512734291,-847.0390144408827 L-5.50544573909988,-847.0917246306357 L-5.400887586061169,-847.1393854282759 L-5.294425511865294,-847.1819150312566 L-5.186242242551936,-847.2192404439504 L-5.076523458331735,-847.2512976029346 L-4.9654574748943245,-847.278031486947 " />
			<path d="M-4.965457474894301,-847.278031486947 L-4.882614323453943,-847.2943420806675 L-4.799217006774866,-847.3077041690035 L-4.715343722684331,-847.3181052229394 L-4.631073115302346,-847.3255354898855 L-4.54648420130069,-847.3299880028223 L-4.461656295812617,-847.3314585868333 L-4.376668938062702,-847.3299458630194 L-4.291601816786572,-847.3254512497922 " />
			<path d="M1095.6980384141498,-1081.8925910014675 L1095.6992518096695,-1081.986349929616 L1095.7028909363814,-1082.0798562678485 L1095.708952615668,-1082.1730283424913 L1095.7174315529194,-1082.2657847718342 L1095.7283203421566,-1082.358044537216 L1095.741609472501,-1082.449727053789 L1095.757287336482,-1082.540752240907 L1095.7753402401747,-1082.6310405920726 L1095.7957524151616,-1082.7205132443817 L1095.8185060323055,-1082.8090920474074 L1095.843581217323,-1082.896699631461 L1095.8709560681423,-1082.9832594751704 L1095.9006066740353,-1083.0686959723196 L1095.9325071365017,-1083.1529344978853 L1095.9666295918908,-1083.2359014732203 L1096.002944235738,-1083.3175244303204 L1096.0414193487993,-1083.3977320751226 L1096.0820213247555,-1083.4764543497763 L1096.124714699566,-1083.5536224938369 L1096.169462182446,-1083.6291691043243 L1096.216224688437,-1083.7030281945968 L1096.2649613725466,-1083.7751352519872 L1096.3156296654245,-1083.8454272941524 L1096.3681853105452,-1083.9138429240845 L1096.4225824028645,-1083.98032238374 L1096.4787734289139,-1084.0448076062344 L1096.536709308304,-1084.107242266562 L1096.5963394365917,-1084.167571830793 L1096.6576117294826,-1084.2257436037057 L1096.7204726683237,-1084.2817067748153 L1096.7848673468495,-1084.3354124627533 L1096.85073951914,-1084.3868137579625 " />
			<path d="M-4.291601816786539,-1212.923889678922 L67.42528172269378,-1207.8794678941986 " />
			<path d="M68.73275374848137,-1208.1611105860675 L68.65708154564096,-1208.1219910974773 L68.58025434077395,-1208.0856218810577 L68.50234417121602,-1208.0520370385498 L68.423424089749,-1208.0212680609152 L68.34356809610267,-1207.9933437988088 L68.2628510675686,-1207.9682904355268 L68.18134868879116,-1207.9461314624552 L68.09913738080152,-1207.9268876570436 " />
			<path d="M68.09913738080151,-1207.9268876570436 L68.01629422936115,-1207.9105770633232 L67.93289691268208,-1207.8972149749873 L67.84902362859154,-1207.8868139210513 L67.76475302120956,-1207.8793836541051 L67.6801641072079,-1207.8749311411684 L67.59533620171983,-1207.8734605571574 L67.51034884396991,-1207.8749732809713 L67.4252817226938,-1207.8794678941986 " />
			<path d="M-4.291601816786541,-1212.923889678922 L-4.427930366337827,-1212.9373039833633 L-4.563930488472274,-1212.9583364268217 L-4.699274546983457,-1212.9869363402984 L-4.83363648617968,-1213.0230348240973 L-4.966692616380705,-1213.0665449138087 L-5.098122393714537,-1213.1173617898155 L-5.227609192335691,-1213.1753630298124 L-5.354841067204584,-1213.2404089037318 L-5.479511505590461,-1213.3123427103665 L-5.601320165487408,-1213.390991154875 L-5.719973599164556,-1213.4761647662665 L-5.8351859601073635,-1213.56765835385 L-5.946679691646911,-1213.6652515015599 L-6.054186195618216,-1213.7687090989546 L-6.157446479436759,-1213.8777819076204 L-6.2562117800342865,-1213.9922071616077 L-6.35024416315084,-1214.1117092004567 L-6.43931709653923,-1214.2360001332895 L-6.523215995701054,-1214.3647805323615 L-6.601738740839558,-1214.497740154412 L-6.6746961637839215,-1214.6345586880652 L-6.741912503711955,-1214.77490652549 L-6.803225830573316,-1214.918445556453 L-6.858488435193184,-1215.0648299828558 L-6.907567185116598,-1215.2137071517936 L-6.950343845336198,-1215.3647184051265 L-6.986715363130726,-1215.5174999435178 L-7.016594116328044,-1215.6716837028598 L-7.03990812439463,-1215.826898240971 L-7.056601221842986,-1215.9827696324344 L-7.066633193539218,-1216.1389223694148 L-7.069979871584811,-1216.2949802662915 " />
			<path d="M1097.3213519500202,-1450.8399543156634 L1097.2319242330868,-1450.8951913144015 L1097.1440814615999,-1450.9539328444525 L1097.057935509299,-1451.016104094486 L1096.97359608891,-1451.0816258851892 L1096.891170612416,-1451.1504147701082 L1096.8107640542646,-1451.2223831419228 L1096.732478817672,-1451.2974393440202 L1096.6564146042078,-1451.3754877872257 L1096.5826682868178,-1451.4564290715418 L1096.5113337864493,-1451.5401601127423 L1096.4425019524372,-1451.6265742736548 L1096.3762604468002,-1451.7155614999722 L1096.312693632598,-1451.8070084604135 L1096.2518824664887,-1451.9007986910594 L1096.1939043956256,-1451.9968127436769 L1096.1388332590227,-1452.0949283378436 L1096.086739193515,-1452.195020516682 L1096.0376885444364,-1452.2969618059994 L1095.9917437811214,-1452.4006223766355 L1095.9489634173492,-1452.5058702098079 L1095.9094019368208,-1452.6125712652479 L1095.8731097237705,-1452.7205896519088 L1095.8401329987983,-1452.8297878010342 L1095.8105137600044,-1452.9400266413588 L1095.7842897295027,-1453.0511657762272 L1095.7614943053786,-1453.1630636623972 L1095.7421565191542,-1453.2755777903055 L1095.726300998814,-1453.3885648655632 L1095.7139479374412,-1453.5018809914504 L1095.7051130674988,-1453.6153818521793 L1095.6998076407947,-1453.7289228966893 L1095.6980384141498,-1453.842359522743 " />
			<path d="M-7.069979871584813,-1216.2949802662915 L-7.069979871584813,-1247.6546725962603 " />
			<path d="M1095.6980384141496,-1453.842359522743 L1095.6980384141496,-1485.2020518527117 " />
			<path d="M-7.06997987158481,-1247.6546725962603 L-7.067595538842223,-1247.7860407726223 L-7.060446632960798,-1247.916848057021 L-7.048545423955653,-1248.0468699385476 L-7.03191233845106,-1248.175883254318 L-7.01057592462124,-1248.3036665724992 L-6.984572803191739,-1248.4300005723628 L-6.953947604585494,-1248.5546684207159 L-6.91875289232147,-1248.677456144062 L-6.879049072797328,-1248.798152995856 L-6.8349042916109894,-1248.916551818216 L-6.786394316599027,-1249.0324493974806 L-6.733602407792639,-1249.1456468129936 L-6.676619174514409,-1249.2559497785212 L-6.61554241986111,-1249.3631689757149 L-6.550476972839492,-1249.4671203790479 L-6.481534508443158,-1249.5676255716673 L-6.408833355979327,-1249.6645120516189 L-6.332498295974501,-1249.7576135279219 L-6.252660346007557,-1249.8467702059806 L-6.169456535837914,-1249.9318290618496 L-6.083029672214674,-1250.012644104874 L-5.9935280937704585,-1250.089076628262 L-5.901105416420589,-1250.1609954471542 L-5.805920269704615,-1250.2282771237808 L-5.708136024522712,-1250.2908061793255 L-5.60792051273426,-1250.348475292127 L-5.50544573909985,-1250.4011854818798 L-5.400887586061139,-1250.44884627952 L-5.2944255118652634,-1250.4913758825007 L-5.186242242551906,-1250.5287012951947 L-5.076523458331705,-1250.5607584541788 L-4.965457474894294,-1250.5874923381912 " />
			<path d="M-4.96545747489427,-1250.5874923381912 L-4.882614323453913,-1250.6038029319116 L-4.799217006774835,-1250.6171650202475 L-4.715343722684301,-1250.6275660741835 L-4.631073115302316,-1250.6349963411296 L-4.54648420130066,-1250.6394488540664 L-4.4616562958125865,-1250.6409194380774 L-4.3766689380626715,-1250.6394067142635 L-4.2916018167865415,-1250.6349121010362 " />
			<path d="M1095.6980384141498,-1485.2020518527117 L1095.699866376842,-1485.3171004029982 L1095.7053478595967,-1485.431740416329 L1095.7144756496114,-1485.5458210437814 L1095.7272377360946,-1485.6591921725012 L1095.7436173260703,-1485.7717046232262 L1095.763592866475,-1485.8832103465847 L1095.787138072518,-1485.993562617907 L1095.814221962269,-1486.10261623029 L1095.844808897424,-1486.2102276856713 L1095.878858630202,-1486.3162553836478 L1095.9163263563034,-1486.4205598078022 L1095.9571627738662,-1486.523003709285 L1096.0013141483405,-1486.6234522874124 L1096.0487223831933,-1486.7217733670454 L1096.0993250963568,-1486.817837572511 L1096.1530557023123,-1486.9115184978414 L1096.2098434997074,-1487.0026928731045 L1096.2696137643877,-1487.0912407266096 L1096.3322878477234,-1487.1770455427716 L1096.3977832800979,-1487.2599944154274 L1096.466013879426,-1487.3399781964035 L1096.5368898645572,-1487.4168916391393 L1096.6103179734123,-1487.4906335371743 L1096.6862015857032,-1487.561106857322 L1096.7644408500717,-1487.62821886735 L1096.844932815476,-1487.691881258001 L1096.927571566662,-1487.752010259196 L1097.0122483635294,-1487.8085267502615 L1097.0988517842175,-1487.861356364042 L1097.1872678717211,-1487.9104295847542 L1097.2773802838385,-1487.95568183946 L1097.3690704462622,-1487.9970535830357 " />
			<path d="M-4.291603223168472,-1628.9359138602717 L67.42528031631184,-1623.8914920722264 " />
			<path d="M68.73275114180254,-1624.1731341075524 L68.65707899410492,-1624.1340147015776 L68.58025184804403,-1624.0976455627335 L68.502341740753,-1624.064060792619 L68.42342172480582,-1624.0332918820636 L68.34356579971947,-1624.0053676816003 L68.26284884256805,-1623.9803143744134 L68.18134653777413,-1623.9581554517888 L68.0991353061432,-1623.938911691086 " />
			<path d="M68.09913530614318,-1623.938911691086 L68.01629223320742,-1623.9226011362575 L67.9328949969463,-1623.9092390809287 L67.8490217949517,-1623.8988380540586 L67.76475127110575,-1623.8914078081918 L67.68016244184025,-1623.8869553103139 L67.59533462204676,-1623.8854847353182 L67.51034735070677,-1623.886997462093 L67.42528031631187,-1623.8914920722266 " />
			<path d="M-4.291603223168471,-1628.935913860272 L-4.427931772428595,-1628.9493281647822 L-4.563931893690261,-1628.9703606084347 L-4.699275950749142,-1628.9989605222304 L-4.833637887917044,-1629.0350590064722 L-4.966694015518614,-1629.0785690967493 L-5.098123789688122,-1629.1293859734433 L-5.227610584587702,-1629.1873872142473 L-5.3548424551867395,-1629.2524330890922 L-5.479512888764765,-1629.3243668967673 L-5.6013215433274475,-1629.40301534243 L-5.719974971156768,-1629.488188955086 L-5.8351873257522735,-1629.5796825440414 L-5.946681050460333,-1629.6772756932269 L-6.054187547132427,-1629.780733292198 L-6.1574478232016165,-1629.8898061025368 L-6.25621311561832,-1630.0042313582896 L-6.350245490142285,-1630.123733398993 L-6.439318414547021,-1630.2480243337636 L-6.52321730435577,-1630.3768047348533 L-6.601740039794308,-1630.5097643589954 L-6.6746974527151846,-1630.64658289481 L-6.741913782320359,-1630.7869307344602 L-6.803227098584356,-1630.9304697677073 L-6.858489692357885,-1631.0768541964476 L-6.907568431212114,-1631.2257313677708 L-6.950345080166352,-1631.3767426235306 L-6.986716586526477,-1631.5295241643853 L-7.0165953281479005,-1631.6837079262207 L-7.039909324524986,-1631.8389224668495 L-7.056602410198398,-1631.9947938608484 L-7.066634370062607,-1632.1509466003765 L-7.0699810362476025,-1632.3070044998067 " />
			<path d="M1097.8552951112856,-1866.6070175848658 L1097.7420258448894,-1866.6475579347116 L1097.630054427475,-1866.693419585238 L1097.5195787404095,-1866.7445214874926 L1097.4107940217318,-1866.8007733316938 L1097.3038925211192,-1866.86207570683 L1097.1990631601334,-1866.9283202763452 L1097.0964911983497,-1866.9993899695949 L1096.9963579059574,-1867.0751591887404 L1096.8988402434097,-1867.1554940307105 L1096.804110548691,-1867.2402525238422 L1096.712336232752,-1867.3292848787798 L1096.6236794836539,-1867.4224337531898 L1096.5382969799412,-1867.519534529824 L1096.4563396137517,-1867.6204156074396 L1096.3779522241525,-1867.7248987040607 L1096.3032733411737,-1867.832799172047 L1096.232434940991,-1867.9439263244128 L1096.1655622126907,-1868.0580837718178 L1096.1027733370297,-1868.1750697696355 L1096.0441792775814,-1868.2946775744872 L1095.989883584634,-1868.4166958096087 L1095.9399822121927,-1868.5409088384051 L1095.8945633484038,-1868.667097145535 L1095.853707259706,-1868.7950377248485 L1095.8174861489779,-1868.9245044734944 L1095.7859640279382,-1869.0552685915004 L1095.7591966040218,-1869.1870989861197 L1095.7372311819295,-1869.3197626802291 L1095.72010658003,-1869.4530252240584 L1095.7078530617575,-1869.5866511095198 L1095.700492282129,-1869.7204041864115 L1095.6980372494745,-1869.8540480797521 " />
			<path d="M-7.06998103624761,-1632.3070044998067 L-7.069978649271134,-1663.6666973436363 " />
			<path d="M1095.6980372494745,-1869.8540480797521 L1095.698039636451,-1901.2137409235818 " />
			<path d="M-7.069978649271134,-1663.666697343636 L-7.067594305615301,-1663.798065546939 L-7.060445387038408,-1663.9288728580198 L-7.048544163581999,-1664.0588947658393 L-7.031911061902873,-1664.1879081073844 L-7.010574630213801,-1664.3156914506935 L-6.984571489284827,-1664.4420254749123 L-6.953946269589224,-1664.5666933467244 L-6.918751534702021,-1664.6894810925123 L-6.879047691082542,-1664.810177965612 L-6.834902884395822,-1664.9285768080274 L-6.786392882550842,-1665.0444744059855 L-6.7336009456563275,-1665.1576718387232 L-6.676617683117317,-1665.2679748199032 L-6.615540898117775,-1665.3751940310788 L-6.550475419756163,-1665.47914544663 L-6.481532923122079,-1665.5796506496147 L-6.408831737622808,-1665.6765371379965 L-6.332496643888715,-1665.769638620717 L-6.252658659606093,-1665.858795303109 L-6.169454814645051,-1665.9438541611617 L-6.083027915868387,-1666.0246692041615 L-5.993526302025129,-1666.1011017252642 L-5.901103589149418,-1666.1730205395645 L-5.80591840690174,-1666.240302209254 L-5.7081341263050085,-1666.3028312554848 L-5.607918579342824,-1666.3605003565706 L-5.505443770901164,-1666.4132105321892 L-5.400885583547908,-1666.4608713132664 L-5.294423475656922,-1666.5034008972527 L-5.1862401733947925,-1666.540726288526 L-5.076521357098891,-1666.572783423676 L-4.965455342585088,-1666.5995172814603 " />
			<path d="M-4.965455342585064,-1666.5995172814603 L-4.8826122696493,-1666.6158278362889 L-4.799215033388174,-1666.6291898916177 L-4.715341831393567,-1666.6395909184878 L-4.631071307547619,-1666.6470211643546 L-4.546482478282129,-1666.6514736622325 L-4.461654658488636,-1666.6529442372282 L-4.376667387148643,-1666.6514315104534 L-4.291600352753728,-1666.6469369003198 " />
			<path d="M1095.698039636451,-1901.2137409235816 L1095.7004239801067,-1901.3451091268844 L1095.7075728986838,-1901.4759164379652 L1095.7194741221401,-1901.6059383457848 L1095.7361072238193,-1901.7349516873298 L1095.7574436555083,-1901.862735030639 L1095.7834467964374,-1901.9890690548577 L1095.814072016133,-1902.1137369266698 L1095.8492667510202,-1902.2365246724578 L1095.8889705946397,-1902.3572215455574 L1095.9331154013264,-1902.4756203879729 L1095.9816254031712,-1902.591517985931 L1096.0344173400658,-1902.7047154186687 L1096.0914006026048,-1902.8150183998487 L1096.1524773876044,-1902.9222376110242 L1096.217542865966,-1903.0261890265754 L1096.2864853626,-1903.1266942295601 L1096.3591865480994,-1903.223580717942 L1096.4355216418335,-1903.3166822006624 L1096.515359626116,-1903.4058388830545 L1096.5985634710771,-1903.4908977411071 L1096.6849903698537,-1903.571712784107 L1096.774491983697,-1903.6481453052097 L1096.8669146965726,-1903.72006411951 L1096.9620998788205,-1903.7873457891994 L1097.0598841594172,-1903.8498748354302 L1097.1600997063792,-1903.907543936516 L1097.262574514821,-1903.9602541121346 L1097.367132702174,-1904.0079148932118 L1097.4735948100652,-1904.0504444771982 L1097.5817781123274,-1904.0877698684715 L1097.6914969286233,-1904.1198270036214 L1097.802562943137,-1904.1465608614058 " />
			<path d="M1097.802562943137,-1904.1465608614058 L1097.9035297641828,-1904.1660340453727 " />
			<path d="M-48.57200206513403,-6.110101689607353 L-48.57200206513394,-1669.7616277009893 " />
			<path d="M67.42528172269371,2.048914659533503 L67.42528172269371,2.0488754373483427 " />
			<path d="M67.42528172269371,-56.25287044221591 L67.42528172269374,-401.2605461917105 " />
			<path d="M67.42528172269374,-459.56226767232556 L67.42528172269375,-804.5700070429546 " />
			<path d="M67.42528172269375,-862.8717285235696 L67.42528172269378,-1207.8794678941986 " />
			<path d="M67.42528172269378,-1266.1811893748134 L67.4252817226938,-1623.8914923751747 " />
			<path d="M-52.93802472267417,-5.963532533634764 L-52.93802472267408,-1669.6150585450168 " />
			<path d="M-68.61601517475012,-2.586334898099667 L-68.61601517475003,-1666.2378609094817 " />
			<path d="M1116.1056185930565,-244.56352411961873 L1118.2422542174922,-1908.3037558382453 " />
			<path d="M1187.994489601546,-239.48306115784865 L1190.1311252259818,-1903.2232928764752 " />
			<path d="M1111.7446556484103,-244.42073259648328 L1113.881291272846,-1908.1609643151098 " />
			<path d="M1096.1824265200082,-241.0670509351581 L1098.319062144444,-1904.8072826537846 " />
			<path d="M-4.2915999236924325,-2.9955461832389174 L1098.476418262504,-240.54330576463687 " />
			<path d="M67.42528361790127,2.0488755706534425 L1169.8248550826022,-235.4195167351498 " />
			<path d="M-7.0699782533398015,-6.366636710520579 L1095.6980399328568,-243.9143962919185 " />
			<path d="M-7.069980966666163,-37.72632845891615 L1095.6980372195303,-275.2740880403141 " />
			<path d="M-4.291601816786596,-406.30496797643383 L1096.2843827604916,-643.3801610123463 " />
			<path d="M67.42528172269373,-401.2605461917105 L1096.258057670054,-622.8815268213016 " />
			<path d="M-7.069979871584868,-409.6760585638034 L1095.6980384141498,-647.2234378202548 " />
			<path d="M-7.069979871584868,-441.03575089377216 L1095.6980384141498,-678.5831301502236 " />
			<path d="M-4.291601816786571,-809.6144288276778 L1096.8024707388881,-1046.801223251599 " />
			<path d="M67.42528172269375,-804.5700070429546 L1096.7761456484504,-1026.3025890605543 " />
			<path d="M-7.069979871584843,-812.9855194150475 L1095.6980384141498,-1050.532898671499 " />
			<path d="M-7.069979871584843,-844.3452117450162 L1095.6980384141498,-1081.8925910014677 " />
			<path d="M-4.291601816786541,-1212.923889678922 L1097.3205587172847,-1450.222285490852 " />
			<path d="M67.42528172269378,-1207.8794678941986 L1097.294233626847,-1429.7236512998072 " />
			<path d="M-7.069979871584813,-1216.2949802662915 L1095.6980384141498,-1453.842359522743 " />
			<path d="M-7.069979871584813,-1247.6546725962603 L1095.6980384141498,-1485.2020518527117 " />
			<path d="M-4.291603223168472,-1628.935913860272 L1097.8549638722911,-1866.3490907606183 " />
			<path d="M67.42528031631184,-1623.8914920722264 L1097.8286388099023,-1845.8504784105305 " />
			<path d="M-7.069981036247604,-1632.3070044998067 L1095.6980372494743,-1869.8540480797521 " />
			<path d="M-7.069978649271137,-1663.666697343636 L1095.6980396364506,-1901.2137409235816 " />
			<path d="M69.03763711995194,-1624.141074183621 L69.03763711995192,-1266.5285070270284 " />
			<path d="M69.03763711995192,-1208.1290499883512 L69.0376371199519,-863.2190461757843 " />
			<path d="M69.0376371199519,-804.8195891371073 L69.03763711995188,-459.90958532454044 " />
			<path d="M69.03763711995188,-401.5101282858631 L69.03763711995185,-56.60018865053465 " />
			<path d="M69.03763711995185,1.7992935607642435 L69.03763711995185,2.39090935680288 " />
			<path d="M-69.03763711995177,-1666.042435368185 L-69.03763711995185,-2.39090935680288 " />
			<path d="M1191.7552006501114,-1902.879569990864 L1189.6185650256757,-239.13933827223687 " />
			<path d="M1097.9041057908541,-1904.6145703969476 L1095.7674701664184,-240.87433867832053 " />
			<path d="M1170.2158876361236,-235.40601344489576 L68.09914003233405,2.0014556445939493 " />
			<path d="M1095.81486413544,-277.77873739726385 L-4.965459600986003,-40.65914797993359 " />
			<path d="M1096.257932119769,-622.7837642184387 L68.09913738080145,-401.3079659545556 " />
			<path d="M1096.3329515764733,-681.1993812064778 L-4.965457474894324,-443.9685706357031 " />
			<path d="M1096.7760200981659,-1026.2048264576918 L68.0991373808015,-804.6174268057997 " />
			<path d="M1096.8510395548699,-1084.6204434457306 L-4.965457474894301,-847.278031486947 " />
			<path d="M1097.2941080765625,-1429.6258886969445 L68.09913738080151,-1207.9268876570438 " />
			<path d="M1097.3691275332662,-1488.0415056849833 L-4.96545747489427,-1250.587492338191 " />
			<path d="M1097.828513259881,-1845.7527160128482 L68.09913530614318,-1623.9389116910859 " />
			<path d="M1097.802562943137,-1904.1465608614062 L-4.965455342585063,-1666.5995172814605 " />

       </g>
    </g>
    
</svg>
