<?xml version="1.0" encoding="UTF-8" standalone="no"?>
<svg
   xmlns:svg="http://www.w3.org/2000/svg"
   xmlns="http://www.w3.org/2000/svg"
   width="480.0"
   height="480.0"

>
    <g transform="scale(0.18743277325451602, -0.18743277325451602)   translate(124.64700190492294,-304.18831219477073)" stroke-width="1.0"  fill="none">
       <!-- hidden lines -->
       <g  stroke="rgb(0,0,0)" fill="none" stroke-dasharray="1.0,1.0" >
			<path d="M69.21813445179167,-1665.6929638630927 L-55.87544367143266,-1660.2397764585276 " />
			<path d="M-59.99529205273645,-1660.457468570486 L-59.93655074015617,-1660.4405352692504 L-59.870732703738184,-1660.42395742544 L-59.71851737150716,-1660.392026907464 L-59.54011197290214,-1660.3619845249016 L-59.337234649438,-1660.3341196023196 L-59.11183922064372,-1660.308700494155 L-58.866096367712274,-1660.2859720003146 L-58.60237272865408,-1660.2661530086189 L-58.3232081062793,-1660.2494343867922 L-58.03129100850829,-1660.2359771443023 L-57.729432756570716,-1660.2259108817502 L-57.420540410445234,-1660.2193325427477 L-57.10758877228276,-1660.216305480295 L-56.793591737435584,-1660.2168588466584 L-56.48157326899751,-1660.2209873126176 L-56.17453827538624,-1660.228651118788 L-55.87544367143266,-1660.2397764585273 " />
			<path d="M69.21813445179167,-1665.6929638630925 L69.53071514461884,-1665.7088477224356 L69.82697383145734,-1665.72850954478 L70.10354355933555,-1665.7517258753078 L70.35728113850577,-1665.7782328625378 L70.58530286450919,-1665.807729256977 L70.78501729121422,-1665.839879834791 L70.87353667627463,-1665.8568373254886 L70.95415468236553,-1665.874319207593 L71.02664209248401,-1665.8922757757744 L71.09079280692976,-1665.9106559750512 " />
			<path d="M-59.995292052736445,-1660.457468570486 L-71.09079280692963,-1663.8970039394335 " />
			<path d="M814.8631717903056,-1417.4592913526012 L737.6452872946661,-1413.97659844803 " />
			<path d="M733.5175850708057,-1414.192633748838 L733.5769396522708,-1414.1755755749348 L733.6433580093449,-1414.1588835363352 L733.7967293879797,-1414.1267577364508 L733.9762221564924,-1414.0965657381998 L734.1801077014019,-1414.0685983070296 L734.4064224934551,-1414.0431247845913 L734.6529869974885,-1414.020390494831 L734.9174266625423,-1414.000614381387 L735.1971947900847,-1413.9839868990425 L735.4895970601107,-1413.970668179542 L735.7918174789164,-1413.960786489435 L736.1009454986583,-1413.954436994799 L736.4140040475198,-1413.9516808447383 L736.7279782005402,-1413.9525445824852 L737.0398442149899,-1413.9570198897723 L737.3465986506668,-1413.9650636669444 L737.645287294666,-1413.97659844803 " />
			<path d="M814.8631717903055,-1417.4592913526012 L815.1722074346405,-1417.4754707457362 L815.4651362393249,-1417.49538114791 L815.7386935993239,-1417.5188006635692 L815.9898307986339,-1417.5454682891275 L816.2157489873222,-1417.5750868217717 L816.413930373883,-1417.6073261717013 L816.501916783224,-1417.6243174060005 L816.5821662852804,-1417.6418270408803 L816.6544551348439,-1417.6598062573853 L816.7185817819571,-1417.6782049273093 " />
			<path d="M802.5484011363649,-1421.651944471129 L802.2479188383,-1421.6506003112866 L801.9497225746479,-1421.6459489908627 L801.6564446907923,-1421.638031569667 L801.3706741148251,-1421.6269179392095 " />
			<path d="M802.1715473007258,243.16048869116653 L724.9536628050863,246.6431815957379 " />
			<path d="M801.3706741148251,-1421.6269179392093 L724.1527896191856,-1418.144225034638 " />
			<path d="M724.1527896191856,-1418.144225034638 L723.9304071219625,-1418.1330495684933 L723.7157635802619,-1418.1199385981402 L723.5100816685954,-1418.1049668076291 L723.3145330133207,-1418.0882194808064 L723.1302315187029,-1418.069792015509 L722.9582270217795,-1418.0497893801505 L722.7994993121714,-1418.0283255157901 L722.6549525509042,-1418.005522687089 L722.5254101200345,-1417.9815107858537 L722.4116099324159,-1417.956426591134 L722.3142002283251,-1417.930412990087 L722.2337358828887,-1417.9036181640497 L722.1706752453471,-1417.876194744453 L722.1457875033269,-1417.8622960126922 L722.1253775281583,-1417.848298943386 L722.1094743955439,-1417.8342234765207 L722.0981007608152,-1417.8200896637663 L722.0912728266584,-1417.8059176399115 L722.089000320032,-1417.7917275941797 " />
			<path d="M722.089000320032,-1417.7917275941797 L722.0923008742997,-1417.7746775795517 L722.1021793395868,-1417.7576658167554 L722.1186153887795,-1417.7407273112321 L722.1415752010938,-1417.7238969176803 L722.171011531669,-1417.7072092683343 L722.2068638087846,-1417.6906987017005 L722.2490582584995,-1417.674399191899 L722.2975080564588,-1417.6583442787542 " />
			<path d="M733.5175850708058,-1414.1926337488383 L722.2975080564588,-1417.6583442787544 " />
			<path d="M-58.871696371118055,1.7469407169805449 L-58.869414180745075,1.8708675313614727 L-58.86257110125137,1.9944065870980088 L-58.85117755709494,2.117369690015315 L-58.8352509047193,2.239569523320732 L-58.81481540611337,2.3608199329542527 L-58.789902191851795,2.4809362111677635 L-58.76054921367197,2.599735377901002 L-58.726801186659955,2.717036459525657 L-58.68870952113336,2.8326607645329416 L-58.64633224432514,2.946432155744677 L-58.59973391198723,3.058177318633229 L-58.54898551004917,3.1677260253415334 L-58.49416434648105,3.2749113940010135 L-58.43535393352587,3.3795701429523612 L-58.37264386048048,3.4815428394819268 L-58.30612965721906,3.580674142694756 L-58.23591264866694,3.6768130401543573 L-58.1620998004465,3.7698130779286583 L-58.08480355593023,3.859532583691732 L-58.00414166494931,3.9458348825414338 L-57.920237004418425,4.028588505204166 L-57.83321739115033,4.10766738830961 L-57.74321538714508,4.182951066430341 L-57.6503680976507,4.254324855593763 L-57.554816962302844,4.321680027986824 L-57.45670753966163,4.384913977587372 L-57.356189285473896,4.443930376469829 L-57.2534153249986,4.498639321547083 L-57.14854221974233,4.54895747152505 L-57.041729728960064,4.594808173861278 L-56.93314056628471,4.636121581534185 L-56.82294015185606,4.672834759445063 " />
			<path d="M-56.822940151856045,4.672834759445068 L-56.70788307613285,4.705792458939387 L-56.591479669078865,4.733753466945257 L-56.47391819356005,4.756672561251098 L-56.3553887854227,4.7745126740898325 L-56.23608314598073,4.787244952089749 L-56.1161942319712,4.794848802939958 L-55.99591594347935,4.797311928694979 L-55.875442810337965,4.794630345664599 " />
			<path d="M721.5703773547145,243.67868870349434 L721.5726595450875,243.80261551787527 L721.5795026245812,243.92615457361183 L721.5908961687377,244.0491176765291 L721.6068228211133,244.17131750983452 L721.6272583197192,244.29256791946807 L721.6521715339808,244.41268419768156 L721.6815245121606,244.5314833644148 L721.7152725391727,244.64878444603946 L721.7533642046992,244.76440875104674 L721.7957414815074,244.8781801422585 L721.8423398138453,244.98992530514704 L721.8930882157835,245.09947401185534 L721.9479093793516,245.20665938051482 L722.0067197923067,245.31131812946617 L722.0694298653522,245.41329082599572 L722.1359440686135,245.51242212920855 L722.2061610771657,245.60856102666816 L722.2799739253861,245.70156106444247 L722.3572701699023,245.79128057020554 L722.4379320608833,245.87758286905523 L722.5218367214142,245.96033649171798 L722.6088563346823,246.03941537482342 L722.6988583386875,246.11469905294413 L722.791705628182,246.18607284210756 L722.8872567635298,246.25342801450063 L722.985366186171,246.31666196410117 L723.0858844403588,246.37567836298362 L723.188658400834,246.4303873080609 L723.2935315060903,246.48070545803884 L723.4003439968726,246.5265561603751 L723.508933159548,246.567869568048 L723.6191335739766,246.60458274595888 " />
			<path d="M723.6191335739766,246.60458274595888 L723.7341906496997,246.6375404454532 L723.8505940567537,246.66550145345906 L723.9681555322726,246.6884205477649 L724.0866849404099,246.70626066060365 L724.2059905798519,246.71899293860355 L724.3258794938614,246.72659678945377 L724.4461577823532,246.72905991520878 L724.5666309154947,246.7263783321784 " />
			<path d="M21.46534725536944,1.4231237916417365 L21.612366439608877,1.412886396867722 L21.759031441292088,1.395016849996448 L21.904988931583684,1.369558200331514 L22.049887286105186,1.3365717799898773 L22.193377432028953,1.2961370561474088 L22.335113689025203,1.2483514395955098 L22.474754602036207,1.1933300500699797 L22.611963763871415,1.1312054389174895 L22.746410625641865,1.06212726976778 L22.8777712930814,0.9862619579808625 L23.00572930683632,0.9037922697378518 L23.129976404843692,0.8149168817412162 L23.250213264961655,0.719849902585203 L23.36615022606268,0.6188203569494846 L23.477507985852597,0.5120716338586382 L23.584018273734284,0.39986090033667576 L23.685424497095035,0.28245848186914957 L23.78148235946064,0.16014721116538633 L23.87196044902698,0.0332217467897129 L23.956640796151348,-0.0980121366968345 L24.035319398460402,-0.23323828537420388 L24.10780671230974,-0.3721309276058169 L24.173928109411165,-0.514355458850982 L24.23352429752751,-0.6595692477565311 L24.28645170422159,-0.8074224615857655 L24.33258282273479,-0.9575589089961585 L24.371806519162,-1.1096168981354988 L24.404028300182937,-1.263230107989243 L24.429170540704828,-1.418028470879925 L24.447172670868056,-1.5736390639926063 L24.457991321964254,-1.7296870077785997 L24.461600430915333,-1.8857963690731148 " />
			<path d="M802.8834370403631,243.13897171554413 L802.9923614444014,243.0918951581041 L803.0996595819455,243.04044868359384 L803.2051706189768,242.98470940745483 L803.3087364002419,242.9247608798027 L803.4102016863189,242.86069296019002 L803.5094143863134,242.79260168291177 L803.6062257858333,242.72058911305524 L803.7004907699046,242.64476319351016 L803.7920680404901,242.56523758316803 L803.8808203282874,242.48213148655384 L803.9666145984886,242.39556947514498 L804.0493222501915,242.30568130064546 L804.1288193091659,242.21260170049513 L804.2049866136838,242.11647019590575 L804.2777099931361,242.0174308827264 L804.3468804391688,241.9156322154515 L804.4123942690796,241.81122678469592 L804.4741532812336,241.70437108846983 L804.5320649022611,241.59522529759695 L804.5860423258209,241.48395301562707 L804.6360046427178,241.3707210336035 L804.6818769621809,241.2556990800523 L804.7235905241212,241.13905956656868 L804.7610828021989,241.02097732938134 L804.7942975975468,240.90162936728268 L804.82318512301,240.7811945763172 L804.8477020777733,240.6598534816263 L804.8678117122671,240.53778796685086 L804.8834838832531,240.4151810014977 L804.8946950990072,240.29221636667842 L804.9014285545322,240.16907837963143 L804.9036741567481,240.0459516174407 " />
			<path d="M24.461600430915336,-1.8857963690731427 L24.4615985288214,-33.271557204230376 " />
			<path d="M24.4615985288214,-33.27155720423037 L24.459316338448417,-33.3954840186113 L24.45247325895471,-33.519023074347835 L24.441079714798285,-33.64198617726514 L24.425153062422645,-33.764186010570555 L24.40471756381671,-33.88543642020408 L24.37980434955514,-34.00555269841759 L24.350451371375318,-34.12435186515083 L24.316703344363297,-34.24165294677548 L24.278611678836707,-34.35727725178277 L24.236234402028476,-34.4710486429945 L24.18963606969057,-34.58279380588306 L24.138887667752513,-34.69234251259136 L24.084066504184396,-34.79952788125084 L24.02525609122921,-34.90418663020219 L23.962546018183822,-35.006159326731755 L23.896031814922402,-35.105290629944584 L23.825814806370282,-35.20142952740419 L23.75200195814984,-35.29442956517848 L23.674705713633575,-35.384149070941554 L23.594043822652647,-35.47045136979126 L23.510139162121767,-35.55320499245399 L23.423119548853673,-35.63228387555944 L23.333117544848424,-35.70756755368017 L23.240270255354044,-35.77894134284359 L23.14471912000619,-35.84629651523665 L23.046609697364975,-35.9095304648372 L22.946091443177238,-35.96854686371965 L22.843317482701945,-36.02325580879691 L22.738444377445674,-36.07357395877488 L22.63163188666341,-36.119424661111104 L22.523042723988063,-36.16073806878401 L22.412842309559416,-36.19745124669489 " />
			<path d="M22.41284230955939,-36.1974512466949 L22.297785233836194,-36.230408946189215 L22.181381826782207,-36.25836995419508 L22.0638203512634,-36.28128904850092 L21.945290943126043,-36.29912916133966 L21.825985303684067,-36.31186143933957 L21.706096389674542,-36.31946529018978 L21.5858181011827,-36.321928415944804 L21.465344968041297,-36.31924683291442 " />
			<path d="M804.9036722546541,208.6601907822834 L804.9013900642811,208.53626396790247 L804.8945469847874,208.41272491216594 L804.883153440631,208.28976180924863 L804.8672267882554,208.16756197594322 L804.8467912896494,208.0463115663097 L804.8218780753879,207.92619528809618 L804.792525097208,207.80739612136293 L804.758777070196,207.69009503973828 L804.7206854046694,207.574470734731 L804.6783081278612,207.46069934351925 L804.6317097955233,207.3489541806307 L804.5809613935852,207.2394054739224 L804.5261402300171,207.13222010526292 L804.4673298170619,207.02756135631157 L804.4046197440165,206.92558865978202 L804.3381055407551,206.8264573565692 L804.267888532203,206.73031845910958 L804.1940756839825,206.63731842133527 L804.1167794394663,206.5475989155722 L804.0361175484853,206.4612966167225 L803.9522128879545,206.37854299405979 L803.8651932746864,206.29946411095432 L803.7751912706811,206.2241804328336 L803.6823439811867,206.15280664367017 L803.5867928458389,206.0854514712771 L803.4886834231977,206.02221752167657 L803.3881651690099,205.96320112279412 L803.2853912085346,205.90849217771685 L803.1805181032784,205.8581740277389 L803.073705612496,205.81232332540264 L802.9651164498207,205.77100991772974 L802.8549160353921,205.7342967398189 " />
			<path d="M802.8549160353921,205.73429673981886 L802.7398589596689,205.70133904032454 L802.6234555526149,205.67337803231868 L802.5058940770961,205.65045893801283 L802.3873646689588,205.6326188251741 L802.2680590295167,205.6198865471742 L802.1481701155072,205.61228269632397 L802.0278918270154,205.60981957056896 L801.907418693874,205.61250115359934 " />
			<path d="M21.465344968041286,-36.31924683291443 L-55.87544509766611,-32.94774027889157 " />
			<path d="M801.907418693874,205.61250115359937 L724.5666286281667,208.98400770762223 " />
			<path d="M-55.875445097666095,-32.94774027889157 L-56.02246428190553,-32.937502884117556 L-56.169129283588745,-32.91963333724628 L-56.31508677388034,-32.89417468758135 L-56.45998512840184,-32.86118826723971 L-56.60347527432561,-32.820753543397245 L-56.74521153132186,-32.77296792684535 L-56.88485244433286,-32.71794653731981 L-57.022061606168066,-32.65582192616732 L-57.15650846793852,-32.586743757017615 L-57.28786913537805,-32.510878445230695 L-57.41582714913297,-32.428408756987686 L-57.540074247140346,-32.33953336899105 L-57.66031110725831,-32.24446638983504 L-57.77624806835934,-32.143436844199314 L-57.887605828149255,-32.03668812110847 L-57.99411611603094,-31.92447738758651 L-58.09552233939169,-31.807074969118982 L-58.1915802017573,-31.684763698415217 L-58.28205829132364,-31.557838234039544 L-58.366738638448005,-31.426604350553 L-58.44541724075705,-31.29137820187563 L-58.51790455460639,-31.152485559644017 L-58.584025951707815,-31.01026102839885 L-58.64362213982416,-30.865047239493304 L-58.69654954651824,-30.717194025664067 L-58.74268066503144,-30.567057578253674 L-58.78190436145866,-30.414999589114334 L-58.814126142479594,-30.26138637926059 L-58.83926838300148,-30.106588016369905 L-58.85727051316471,-29.950977423257225 L-58.86808916426091,-29.79492947947123 L-58.87169827321198,-29.638820118176696 " />
			<path d="M724.5666286281667,208.9840077076222 L724.4196094439272,208.9942451023962 L724.272944442244,209.0121146492675 L724.1269869519524,209.03757329893241 L723.9820885974309,209.07055971927406 L723.8385984515071,209.1109944431165 L723.6968621945109,209.15878005966843 L723.5572212814999,209.21380144919397 L723.4200121196646,209.27592606034645 L723.2855652578942,209.34500422949614 L723.1542045904547,209.42086954128308 L723.0262465766998,209.5033392295261 L722.9019994786925,209.59221461752273 L722.7817626185745,209.68728159667873 L722.6658256574734,209.78831114231446 L722.5544678976835,209.8950598654053 L722.4479576098018,210.00727059892725 L722.3465513864411,210.1246730173948 L722.2504935240754,210.24698428809856 L722.1600154345091,210.37390975247422 L722.0753350873847,210.50514363596076 L721.9966564850757,210.64036978463812 L721.9241691712264,210.77926242686974 L721.8580477741249,210.9214869581149 L721.7984515860086,211.06670074702046 L721.7455241793145,211.21455396084968 L721.6993930608013,211.3646904082601 L721.660169364374,211.51674839739943 L721.6279475833531,211.67036160725317 L721.6028053428313,211.82515997014386 L721.584803212668,211.98077056325653 L721.5739845615718,212.13681850704253 L721.5703754526207,212.29292786833707 " />
			<path d="M-58.87169637111806,1.7469407169805447 L-58.871698273212004,-29.63882011817669 " />
			<path d="M721.5703773547147,243.67868870349432 L721.5703754526206,212.2929278683371 " />
			<path d="M21.465346395770368,-402.2215518118682 L-55.875443671432706,-398.8500452279081 " />
			<path d="M801.9074200142885,-160.28942318658102 L724.5666299470855,-156.91791660262083 " />
			<path d="M-58.87169703965363,-401.89773479532965 L-58.86941485831052,-401.7738080243382 L-58.86257179085746,-401.6502690116697 L-58.8511782617272,-401.5273059513085 L-58.83525162732884,-401.4051061598583 L-58.81481614960783,-401.2838557911918 L-58.78990295908636,-401.1637395528723 L-58.76055000744049,-401.04494042477785 L-58.726802009686196,-400.92763938035796 L-58.688710376062446,-400.8120151109462 L-58.64633313371508,-400.69824375354983 L-58.599734838300776,-400.58649862252986 L-58.548986475645705,-400.476949945582 L-58.49416535360887,-400.36976460441883 L-58.43535498431461,-400.26510588054947 L-58.37264495693386,-400.16313320654365 L-58.306130801207885,-400.06400192315897 L-58.235913841922404,-399.96786304270165 L-58.1621010445538,-399.8748630189806 L-58.084804852322556,-399.7851435242065 L-58.004143014902084,-399.69884123317405 L-57.92023840904401,-399.6160876150578 L-57.83321885139304,-399.5370087331375 L-57.743216903776585,-399.46172505275894 L-57.65036967126584,-399.39035125782203 L-57.55481859331587,-399.32299607607655 L-57.45670922830283,-399.25976211349086 L-57.356191031786636,-399.20074569794645 L-57.253417128836865,-399.14603673249616 L-57.14854408076863,-399.0957185584098 L-57.04173164664385,-399.04986782821584 L-56.93314253990123,-399.0085543889319 L-56.82294218048564,-398.97184117566314 " />
			<path d="M-56.822942180485626,-398.9718411756631 L-56.70788497286105,-398.93888338650777 L-56.59148142845318,-398.9109223011675 L-56.47391981083481,-398.8880031420954 L-56.3553902565715,-398.8701629772586 L-56.23608446770706,-398.85743066018733 L-56.11619540171695,-398.84982678330863 L-55.9959169594314,-398.84736364464175 L-55.875443671432706,-398.850045227908 " />
			<path d="M721.5703765788646,-159.9656061700424 L721.5726587602077,-159.84167939905097 L721.5795018276607,-159.71814038638246 L721.590895356791,-159.5951773260213 L721.6068219911893,-159.47297753457107 L721.6272574689103,-159.35172716590458 L721.6521706594318,-159.23161092758505 L721.6815236110778,-159.11281179949063 L721.715271608832,-158.99551075507077 L721.7533632424557,-158.87988648565903 L721.7957404848031,-158.76611512826258 L721.8423387802175,-158.65436999724264 L721.8930871428726,-158.54482132029477 L721.9479082649093,-158.4376359791316 L722.0067186342036,-158.33297725526228 L722.0694286615843,-158.23100458125646 L722.1359428173104,-158.13187329787178 L722.2061597765958,-158.0357344174144 L722.2799725739644,-157.94273439369337 L722.3572687661956,-157.85301489891927 L722.4379306036161,-157.76671260788683 L722.5218352094741,-157.68395898977056 L722.6088547671252,-157.60488010785028 L722.6988567147416,-157.5295964274717 L722.7917039472524,-157.45822263253478 L722.8872550252023,-157.39086745078933 L722.9853643902154,-157.32763348820365 L723.0858825867316,-157.26861707265923 L723.1886564896813,-157.21390810720894 L723.2935295377496,-157.1635899331226 L723.4003419718744,-157.11773920292865 L723.508931078617,-157.0764257636447 L723.6191314380326,-157.0397125503759 " />
			<path d="M723.6191314380326,-157.0397125503759 L723.7341886456571,-157.00675476122055 L723.8505921900651,-156.97879367588027 L723.9681538076834,-156.95587451680814 L724.0866833619467,-156.9380343519714 L724.2059891508112,-156.9253020349001 L724.3258782168012,-156.9176981580214 L724.4461566590868,-156.91523501935453 L724.5666299470855,-156.91791660262078 " />
			<path d="M21.46534639577036,-402.2215518118682 L21.612365580244653,-402.23178920662673 L21.759030582626192,-402.24965875333777 L21.904988074077895,-402.2751174026981 L22.049886430218493,-402.3081038225915 L22.193376578216444,-402.3485385458431 L22.335112837736972,-402.3963241616631 L22.474753753716257,-402.45134555031734 L22.61196291895661,-402.5134701604612 L22.746409784560864,-402.5825483284675 L22.877770456253618,-402.65841363897897 L23.00572847467093,-402.74088332581744 L23.129975577738637,-402.82975871228393 L23.250212443302686,-402.9248256897879 L23.366149410222427,-403.02585523365354 L23.477507176189675,-403.13260395486066 L23.58401747059242,-403.2448146863897 L23.685423700802257,-403.36221710276 L23.78148157032846,-403.4845283712672 L23.87195966734967,-403.61145383335224 L23.956640022205224,-403.7426877144597 L24.03531863250314,-403.8779138606752 L24.107805954579792,-404.01680650036815 L24.173927360127145,-404.1590310290039 L24.233523556887693,-404.3042448152356 L24.286450972403426,-404.45209802633303 L24.33258209989447,-404.6022344709602 L24.371805805434093,-404.75429245727156 L24.404027595680063,-404.9079056642595 L24.42916984551737,-405.0627040242534 L24.447171985063967,-405.2183146144452 L24.457990645588882,-405.3743625552934 L24.461599763991302,-405.5304719136402 " />
			<path d="M801.9074200142885,-160.28942318658096 L801.9774592413422,-160.29334485849765 " />
			<path d="M24.46159976399131,-405.5304719136402 L24.46159976399131,-436.916232155284 " />
			<path d="M24.461599763991302,-436.916232155284 L24.459317582648193,-437.0401589262754 L24.45247451519513,-437.1636979389439 L24.44108098606487,-437.2866609993051 L24.42515435166651,-437.40886079075534 L24.404718873945498,-437.53011115942184 L24.379805683424028,-437.65022739774133 L24.35045273177816,-437.7690265258358 L24.316704734023865,-437.8863275702557 L24.278613100400115,-438.0019518396674 L24.23623585805275,-438.1157231970638 L24.189637562638442,-438.2274683280838 L24.138889199983375,-438.3370170050316 L24.08406807794654,-438.4442023461948 L24.02525770865228,-438.54886107006416 L23.96254768127153,-438.65083374407 L23.896033525545555,-438.74996502745466 L23.825816566260073,-438.846103907912 L23.75200376889147,-438.93910393163304 L23.67470757666022,-439.02882342640714 L23.594045739239753,-439.1151257174396 L23.510141133381683,-439.19787933555585 L23.423121575730708,-439.27695821747614 L23.33311962811425,-439.3522418978547 L23.240272395603515,-439.4236156927916 L23.144721317653545,-439.4909708745371 L23.0466119526405,-439.55420483712277 L22.946093756124306,-439.6132212526672 L22.843319853174535,-439.6679302181175 L22.7384468051063,-439.7182483922038 L22.631634370981526,-439.7640991223978 L22.523045264238906,-439.80541256168175 L22.41284490482332,-439.8421257749505 " />
			<path d="M22.412844904823295,-439.84212577495055 L22.29778769719872,-439.87508356410586 L22.18138415279085,-439.90304464944614 L22.063822535172473,-439.92596380851825 L21.945292980909173,-439.94380397335505 L21.825987192044728,-439.9565362904263 L21.70609812605462,-439.964140167305 L21.585819683769067,-439.9666033059719 L21.46534639577036,-439.9639217227056 " />
			<path d="M802.8549185233414,-197.9099971496633 L802.7398613157169,-197.94295493881864 L802.623457771309,-197.97091602415892 L802.5058961536906,-197.99383518323106 L802.3873665994273,-198.0116753480678 L802.2680608105628,-198.02440766513908 L802.1481717445728,-198.03201154201778 L802.0278933022872,-198.03447468068467 L801.9074200142885,-198.03179309741842 " />
			<path d="M21.465346395770368,-439.9639217227056 L-55.875443671432706,-436.5924151387455 " />
			<path d="M801.9074200142885,-198.03179309741842 L724.5666299470855,-194.66028651345823 " />
			<path d="M-55.87544367143269,-436.5924151387454 L-56.02246285590699,-436.5821777439869 L-56.16912785828852,-436.56430819727586 L-56.31508534974023,-436.53884954791556 L-56.45998370588082,-436.50586312802216 L-56.603473853878775,-436.46542840477053 L-56.7452101133993,-436.41764278895056 L-56.88485102937859,-436.3626214002963 L-57.022060194618945,-436.3004967901524 L-57.15650706022319,-436.2314186221461 L-57.287867731915945,-436.15555331163466 L-57.41582575033326,-436.0730836247962 L-57.54007285340097,-435.9842082383297 L-57.66030971896502,-435.88914126082574 L-57.77624668588476,-435.7881117169601 L-57.887604451852006,-435.681362995753 L-57.99411474625475,-435.56915226422393 L-58.095520976464584,-435.45174984785365 L-58.19157884599079,-435.32943857934646 L-58.282056943012,-435.2025131172614 L-58.36673729786755,-435.07127923615394 L-58.44541590816547,-434.9360530899384 L-58.51790323024212,-434.7971604502455 L-58.584024635789476,-434.6549359216097 L-58.64362083255003,-434.509722135378 L-58.69654824806575,-434.3618689242806 L-58.742679375556804,-434.21173247965345 L-58.781903081096424,-434.0596744933421 L-58.81412487134239,-433.90606128635415 L-58.8392671211797,-433.75126292636025 L-58.8572692607263,-433.5956523361684 L-58.86808792125121,-433.43960439532026 L-58.87169703965363,-433.2834950369734 " />
			<path d="M724.5666299470855,-194.66028651345823 L724.4196107626112,-194.65004911869968 L724.2729457602297,-194.63217957198867 L724.126988268778,-194.60672092262834 L723.9820899126374,-194.57373450273496 L723.8385997646394,-194.5332997794833 L723.6968635051189,-194.4855141636633 L723.5572225891397,-194.4304927750091 L723.4200134238993,-194.3683681648652 L723.285566558295,-194.29928999685887 L723.1542058866023,-194.22342468634747 L723.0262478681849,-194.14095499950898 L722.9020007651172,-194.05207961304248 L722.7817638995532,-193.95701263553855 L722.6658269326334,-193.85598309167287 L722.5544691666662,-193.74923437046579 L722.4479588722635,-193.6370236389367 L722.3465526420537,-193.51962122256646 L722.2504947725274,-193.39730995405927 L722.1600166755062,-193.27038449197417 L722.0753363206506,-193.13915061086672 L721.9966577103527,-193.0039244646512 L721.9241703882761,-192.86503182495827 L721.8580489827287,-192.72280729632251 L721.7984527859682,-192.5775935100908 L721.7455253704525,-192.42974029899338 L721.6993942429614,-192.27960385436623 L721.6601705374218,-192.12754586805482 L721.6279487471758,-191.97393266106693 L721.6028064973385,-191.81913430107306 L721.5848043577919,-191.6635237108812 L721.573985697267,-191.507475770033 L721.5703765788646,-191.35136641168617 " />
			<path d="M-58.871697039653654,-401.89773479532965 L-58.871697039653654,-433.2834950369734 " />
			<path d="M721.5703765788645,-159.96560617004243 L721.5703765788645,-191.3513664116862 " />
			<path d="M21.46534639577038,-805.8662658056662 L-55.87544367143269,-802.4947592217061 " />
			<path d="M801.9074200142885,-563.934137180379 L724.5666299470855,-560.5626305964189 " />
			<path d="M-58.87169703965363,-805.5424487891277 L-58.86941485831052,-805.4185220181363 L-58.86257179085746,-805.2949830054678 L-58.8511782617272,-805.1720199451065 L-58.83525162732884,-805.0498201536564 L-58.81481614960783,-804.9285697849898 L-58.78990295908636,-804.8084535466703 L-58.76055000744049,-804.689654418576 L-58.726802009686196,-804.572353374156 L-58.688710376062446,-804.4567291047443 L-58.64633313371508,-804.3429577473479 L-58.599734838300776,-804.2312126163279 L-58.548986475645705,-804.12166393938 L-58.49416535360887,-804.0144785982169 L-58.43535498431461,-803.9098198743476 L-58.37264495693386,-803.8078472003417 L-58.306130801207885,-803.7087159169571 L-58.235913841922404,-803.6125770364997 L-58.1621010445538,-803.5195770127787 L-58.084804852322556,-803.4298575180045 L-58.004143014902084,-803.3435552269721 L-57.92023840904401,-803.2608016088559 L-57.83321885139304,-803.1817227269355 L-57.743216903776585,-803.1064390465569 L-57.65036967126584,-803.03506525162 L-57.55481859331587,-802.9677100698746 L-57.45670922830283,-802.9044761072889 L-57.356191031786636,-802.8454596917445 L-57.253417128836865,-802.7907507262942 L-57.14854408076863,-802.740432552208 L-57.04173164664385,-802.6945818220139 L-56.93314253990123,-802.65326838273 L-56.82294218048564,-802.6165551694612 " />
			<path d="M-56.822942180485626,-802.6165551694612 L-56.70788497286105,-802.5835973803058 L-56.59148142845318,-802.5556362949656 L-56.47391981083481,-802.5327171358934 L-56.3553902565715,-802.5148769710567 L-56.23608446770706,-802.5021446539854 L-56.11619540171695,-802.4945407771067 L-55.9959169594314,-802.4920776384398 L-55.875443671432706,-802.4947592217061 " />
			<path d="M721.5703765788646,-563.6103201638405 L721.5726587602077,-563.4863933928491 L721.5795018276607,-563.3628543801806 L721.590895356791,-563.2398913198193 L721.6068219911893,-563.1176915283692 L721.6272574689103,-562.9964411597026 L721.6521706594318,-562.8763249213831 L721.6815236110778,-562.7575257932888 L721.715271608832,-562.6402247488688 L721.7533632424557,-562.5246004794571 L721.7957404848031,-562.4108291220607 L721.8423387802175,-562.2990839910407 L721.8930871428726,-562.1895353140928 L721.9479082649093,-562.0823499729297 L722.0067186342036,-561.9776912490604 L722.0694286615843,-561.8757185750545 L722.1359428173104,-561.7765872916699 L722.2061597765958,-561.6804484112125 L722.2799725739644,-561.5874483874915 L722.3572687661956,-561.4977288927173 L722.4379306036161,-561.4114266016849 L722.5218352094741,-561.3286729835686 L722.6088547671252,-561.2495941016483 L722.6988567147416,-561.1743104212698 L722.7917039472524,-561.1029366263328 L722.8872550252023,-561.0355814445874 L722.9853643902154,-560.9723474820017 L723.0858825867316,-560.9133310664573 L723.1886564896813,-560.858622101007 L723.2935295377496,-560.8083039269208 L723.4003419718744,-560.7624531967267 L723.508931078617,-560.7211397574428 L723.6191314380326,-560.684426544174 " />
			<path d="M21.465346395770375,-805.8662658056662 L21.612365580244667,-805.8765032004247 L21.759030582626206,-805.8943727471358 L21.90498807407791,-805.9198313964961 L22.049886430218507,-805.9528178163895 L22.19337657821646,-805.9932525396412 L22.335112837736986,-806.0410381554611 L22.47475375371627,-806.0960595441153 L22.611962918956625,-806.1581841542593 L22.74640978456088,-806.2272623222656 L22.877770456253632,-806.303127632777 L23.005728474670946,-806.3855973196155 L23.12997557773865,-806.474472706082 L23.2502124433027,-806.5695396835858 L23.36614941022244,-806.6705692274516 L23.47750717618969,-806.7773179486586 L23.584017470592435,-806.8895286801877 L23.68542370080227,-807.006931096558 L23.781481570328474,-807.1292423650651 L23.871959667349685,-807.2561678271502 L23.95664002220524,-807.3874017082577 L24.035318632503156,-807.5226278544732 L24.107805954579806,-807.6615204941661 L24.17392736012716,-807.8037450228019 L24.233523556887707,-807.9489588090336 L24.28645097240344,-808.096812020131 L24.332582099894484,-808.2469484647581 L24.371805805434107,-808.3990064510696 L24.404027595680077,-808.5526196580576 L24.429169845517386,-808.7074180180514 L24.44717198506398,-808.8630286082432 L24.457990645588897,-809.0190765490914 L24.461599763991316,-809.1751859074382 " />
			<path d="M24.46159976399132,-809.1751859074383 L24.46159976399132,-840.560946149082 " />
			<path d="M24.461599763991316,-840.5609461490819 L24.459317582648207,-840.6848729200733 L24.452474515195146,-840.8084119327418 L24.441080986064883,-840.9313749931031 L24.425154351666524,-841.0535747845532 L24.404718873945512,-841.1748251532198 L24.379805683424042,-841.2949413915393 L24.350452731778173,-841.4137405196336 L24.31670473402388,-841.5310415640536 L24.27861310040013,-841.6466658334652 L24.236235858052765,-841.7604371908617 L24.189637562638456,-841.8721823218817 L24.13888919998339,-841.9817309988296 L24.084068077946554,-842.0889163399927 L24.025257708652294,-842.193575063862 L23.962547681271545,-842.2955477378679 L23.89603352554557,-842.3946790212525 L23.825816566260087,-842.4908179017099 L23.752003768891484,-842.5838179254309 L23.674707576660236,-842.6735374202051 L23.594045739239768,-842.7598397112375 L23.510141133381698,-842.8425933293538 L23.423121575730722,-842.9216722112741 L23.333119628114265,-842.9969558916526 L23.24027239560353,-843.0683296865895 L23.14472131765356,-843.135684868335 L23.046611952640514,-843.1989188309207 L22.94609375612432,-843.2579352464651 L22.84331985317455,-843.3126442119154 L22.738446805106314,-843.3629623860016 L22.63163437098154,-843.4088131161957 L22.52304526423892,-843.4501265554796 L22.412844904823334,-843.4868397687484 " />
			<path d="M22.41284490482331,-843.4868397687484 L22.297787697198736,-843.5197975579038 L22.181384152790866,-843.547758643244 L22.063822535172488,-843.5706778023161 L21.945292980909187,-843.5885179671529 L21.825987192044742,-843.6012502842242 L21.706098126054634,-843.608854161103 L21.58581968376908,-843.6113172997698 L21.465346395770375,-843.6086357165035 " />
			<path d="M802.8549185233414,-601.5547111434612 L802.7398613157169,-601.5876689326166 L802.623457771309,-601.6156300179568 L802.5058961536906,-601.638549177029 L802.3873665994273,-601.6563893418657 L802.2680608105628,-601.669121658937 L802.1481717445728,-601.6767255358156 L802.0278933022872,-601.6791886744826 L801.9074200142885,-601.6765070912163 " />
			<path d="M21.46534639577038,-843.6086357165036 L-55.87544367143269,-840.2371291325435 " />
			<path d="M801.9074200142885,-601.6765070912164 L724.5666299470855,-598.3050005072563 " />
			<path d="M-55.87544367143269,-840.2371291325434 L-56.02246285590699,-840.2268917377849 L-56.16912785828852,-840.2090221910738 L-56.31508534974023,-840.1835635417135 L-56.45998370588082,-840.1505771218201 L-56.603473853878775,-840.1101423985684 L-56.7452101133993,-840.0623567827485 L-56.88485102937859,-840.0073353940943 L-57.022060194618945,-839.9452107839503 L-57.15650706022319,-839.876132615944 L-57.287867731915945,-839.8002673054326 L-57.41582575033326,-839.7177976185941 L-57.54007285340097,-839.6289222321276 L-57.66030971896502,-839.5338552546237 L-57.77624668588476,-839.432825710758 L-57.887604451852006,-839.326076989551 L-57.99411474625475,-839.2138662580219 L-58.095520976464584,-839.0964638416516 L-58.19157884599079,-838.9741525731445 L-58.282056943012,-838.8472271110594 L-58.36673729786755,-838.7159932299519 L-58.44541590816547,-838.5807670837364 L-58.51790323024212,-838.4418744440435 L-58.584024635789476,-838.2996499154077 L-58.64362083255003,-838.1544361291759 L-58.69654824806575,-838.0065829180786 L-58.742679375556804,-837.8564464734513 L-58.781903081096424,-837.70438848714 L-58.81412487134239,-837.550775280152 L-58.8392671211797,-837.3959769201582 L-58.8572692607263,-837.2403663299664 L-58.86808792125121,-837.0843183891182 L-58.87169703965363,-836.9282090307713 " />
			<path d="M724.5666299470855,-598.3050005072562 L724.4196107626112,-598.2947631124977 L724.2729457602297,-598.2768935657866 L724.126988268778,-598.2514349164263 L723.9820899126374,-598.2184484965329 L723.8385997646394,-598.1780137732812 L723.6968635051189,-598.1302281574613 L723.5572225891397,-598.0752067688071 L723.4200134238993,-598.0130821586631 L723.285566558295,-597.9440039906568 L723.1542058866023,-597.8681386801454 L723.0262478681849,-597.7856689933069 L722.9020007651172,-597.6967936068404 L722.7817638995532,-597.6017266293366 L722.6658269326334,-597.5006970854708 L722.5544691666662,-597.3939483642638 L722.4479588722635,-597.2817376327347 L722.3465526420537,-597.1643352163644 L722.2504947725274,-597.0420239478573 L722.1600166755062,-596.9150984857722 L722.0753363206506,-596.7838646046647 L721.9966577103527,-596.6486384584492 L721.9241703882761,-596.5097458187563 L721.8580489827287,-596.3675212901205 L721.7984527859682,-596.2223075038887 L721.7455253704525,-596.0744542927914 L721.6993942429614,-595.9243178481642 L721.6601705374218,-595.7722598618528 L721.6279487471758,-595.6186466548648 L721.6028064973385,-595.463848294871 L721.5848043577919,-595.3082377046792 L721.573985697267,-595.152189763831 L721.5703765788646,-594.9960804054841 " />
			<path d="M-58.87169703965363,-805.5424487891277 L-58.87169703965363,-836.9282090307714 " />
			<path d="M721.5703765788645,-563.6103201638405 L721.5703765788645,-594.9960804054842 " />
			<path d="M21.46534639577039,-1209.5109797994642 L-55.875443671432684,-1206.139473215504 " />
			<path d="M-58.87169703965362,-1209.1871627829257 L-58.869414858310506,-1209.0632360119344 L-58.862571790857444,-1208.9396969992658 L-58.851178261727185,-1208.8167339389047 L-58.83525162732882,-1208.6945341474543 L-58.814816149607815,-1208.573283778788 L-58.78990295908635,-1208.4531675404685 L-58.76055000744048,-1208.334368412374 L-58.72680200968618,-1208.217067367954 L-58.68871037606243,-1208.1014430985424 L-58.64633313371507,-1207.987671741146 L-58.59973483830076,-1207.875926610126 L-58.54898647564569,-1207.766377933178 L-58.49416535360886,-1207.659192592015 L-58.43535498431459,-1207.5545338681457 L-58.37264495693385,-1207.45256119414 L-58.30613080120787,-1207.353429910755 L-58.23591384192239,-1207.2572910302977 L-58.162101044553786,-1207.1642910065768 L-58.08480485232254,-1207.0745715118026 L-58.00414301490207,-1206.9882692207702 L-57.920238409043996,-1206.9055156026538 L-57.83321885139303,-1206.8264367207337 L-57.74321690377657,-1206.7511530403551 L-57.65036967126583,-1206.679779245418 L-57.55481859331586,-1206.6124240636727 L-57.45670922830281,-1206.5491901010869 L-57.35619103178662,-1206.4901736855425 L-57.25341712883685,-1206.4354647200923 L-57.148544080768616,-1206.385146546006 L-57.04173164664384,-1206.339295815812 L-56.93314253990122,-1206.2979823765281 L-56.822942180485626,-1206.2612691632592 " />
			<path d="M-56.82294218048561,-1206.2612691632592 L-56.70788497286104,-1206.228311374104 L-56.591481428453164,-1206.2003502887637 L-56.47391981083479,-1206.1774311296915 L-56.35539025657149,-1206.1595909648547 L-56.236084467707045,-1206.1468586477833 L-56.116195401716936,-1206.1392547709047 L-55.99591695943138,-1206.1367916322379 L-55.87544367143269,-1206.139473215504 " />
			<path d="M721.5703765788646,-967.2550341576384 L721.5726587602077,-967.131107386647 L721.5795018276607,-967.0075683739785 L721.590895356791,-966.8846053136173 L721.6068219911893,-966.7624055221671 L721.6272574689103,-966.6411551535006 L721.6521706594318,-966.5210389151811 L721.6815236110778,-966.4022397870867 L721.715271608832,-966.2849387426668 L721.7533632424557,-966.1693144732551 L721.7957404848031,-966.0555431158587 L721.8423387802175,-965.9437979848386 L721.8930871428726,-965.8342493078908 L721.9479082649093,-965.7270639667277 L722.0067186342036,-965.6224052428583 L722.0694286615843,-965.5204325688525 L722.1359428173104,-965.4213012854678 L722.2061597765958,-965.3251624050105 L722.2799725739644,-965.2321623812894 L722.3572687661956,-965.1424428865153 L722.4379306036161,-965.0561405954828 L722.5218352094741,-964.9733869773665 L722.6088547671252,-964.8943080954463 L722.6988567147416,-964.8190244150677 L722.7917039472524,-964.7476506201308 L722.8872550252023,-964.6802954383853 L722.9853643902154,-964.6170614757997 L723.0858825867316,-964.5580450602553 L723.1886564896813,-964.5033360948049 L723.2935295377496,-964.4530179207187 L723.4003419718744,-964.4071671905247 L723.508931078617,-964.3658537512407 L723.6191314380326,-964.329140537972 " />
			<path d="M21.465346395770386,-1209.5109797994642 L21.612365580244678,-1209.5212171942228 L21.759030582626217,-1209.5390867409337 L21.90498807407792,-1209.5645453902941 L22.049886430218518,-1209.5975318101875 L22.19337657821647,-1209.637966533439 L22.335112837736997,-1209.685752149259 L22.474753753716282,-1209.7407735379134 L22.611962918956635,-1209.8028981480572 L22.74640978456089,-1209.8719763160636 L22.877770456253643,-1209.947841626575 L23.005728474670956,-1210.0303113134134 L23.129975577738662,-1210.11918669988 L23.25021244330271,-1210.214253677384 L23.36614941022245,-1210.3152832212495 L23.477507176189697,-1210.4220319424567 L23.584017470592446,-1210.5342426739858 L23.685423700802282,-1210.651645090356 L23.781481570328484,-1210.7739563588632 L23.871959667349696,-1210.9008818209484 L23.95664002220525,-1211.0321157020558 L24.035318632503166,-1211.1673418482712 L24.107805954579817,-1211.3062344879643 L24.17392736012717,-1211.4484590166 L24.233523556887718,-1211.5936728028316 L24.28645097240345,-1211.7415260139292 L24.332582099894495,-1211.8916624585563 L24.371805805434118,-1212.0437204448676 L24.404027595680088,-1212.1973336518556 L24.429169845517396,-1212.3521320118493 L24.447171985063996,-1212.5077426020414 L24.457990645588907,-1212.6637905428895 L24.461599763991327,-1212.8198999012363 " />
			<path d="M24.46159976399133,-1212.8198999012363 L24.46159976399133,-1244.20566014288 " />
			<path d="M24.46159976399133,-1244.20566014288 L24.459317582648218,-1244.3295869138715 L24.452474515195156,-1244.45312592654 L24.441080986064893,-1244.5760889869011 L24.425154351666535,-1244.6982887783515 L24.404718873945523,-1244.8195391470178 L24.379805683424053,-1244.9396553853373 L24.350452731778184,-1245.0584545134318 L24.31670473402389,-1245.1757555578517 L24.27861310040014,-1245.2913798272634 L24.23623585805278,-1245.4051511846599 L24.189637562638467,-1245.5168963156798 L24.1388891999834,-1245.6264449926277 L24.08406807794656,-1245.7336303337909 L24.025257708652305,-1245.8382890576602 L23.962547681271555,-1245.940261731666 L23.896033525545576,-1246.0393930150508 L23.825816566260094,-1246.1355318955082 L23.752003768891495,-1246.228531919229 L23.674707576660246,-1246.3182514140033 L23.594045739239778,-1246.4045537050356 L23.51014113338171,-1246.487307323152 L23.423121575730733,-1246.5663862050721 L23.333119628114275,-1246.6416698854507 L23.24027239560354,-1246.7130436803877 L23.14472131765357,-1246.780398862133 L23.046611952640525,-1246.843632824719 L22.94609375612433,-1246.9026492402634 L22.84331985317456,-1246.9573582057135 L22.738446805106324,-1247.0076763798 L22.63163437098155,-1247.0535271099939 L22.52304526423893,-1247.0948405492777 L22.412844904823345,-1247.1315537625467 " />
			<path d="M22.41284490482332,-1247.1315537625467 L22.297787697198746,-1247.164511551702 L22.181384152790876,-1247.192472637042 L22.0638225351725,-1247.2153917961143 L21.945292980909198,-1247.2332319609511 L21.825987192044753,-1247.2459642780225 L21.706098126054645,-1247.2535681549011 L21.585819683769092,-1247.256031293568 L21.46534639577039,-1247.2533497103018 " />
			<path d="M802.8549185233414,-1005.1994251372593 L802.7398613157169,-1005.2323829264146 L802.623457771309,-1005.2603440117549 L802.5058961536906,-1005.283263170827 L802.3873665994273,-1005.3011033356638 L802.2680608105628,-1005.3138356527351 L802.1481717445728,-1005.3214395296138 L802.0278933022872,-1005.3239026682807 L801.9074200142885,-1005.3212210850144 " />
			<path d="M21.46534639577039,-1247.2533497103016 L-55.875443671432684,-1243.8818431263414 " />
			<path d="M801.9074200142885,-1005.3212210850143 L724.5666299470855,-1001.9497145010541 " />
			<path d="M-55.87544367143268,-1243.8818431263417 L-56.02246285590697,-1243.871605731583 L-56.169127858288505,-1243.853736184872 L-56.315085349740215,-1243.8282775355117 L-56.45998370588081,-1243.7952911156183 L-56.60347385387876,-1243.7548563923667 L-56.74521011339929,-1243.7070707765467 L-56.884851029378574,-1243.6520493878925 L-57.02206019461893,-1243.5899247777486 L-57.15650706022318,-1243.5208466097422 L-57.28786773191593,-1243.444981299231 L-57.41582575033325,-1243.3625116123924 L-57.54007285340096,-1243.2736362259259 L-57.660309718965,-1243.1785692484218 L-57.77624668588474,-1243.0775397045563 L-57.88760445185199,-1242.9707909833492 L-57.99411474625474,-1242.85858025182 L-58.09552097646457,-1242.74117783545 L-58.191578845990776,-1242.6188665669426 L-58.28205694301199,-1242.4919411048575 L-58.36673729786754,-1242.36070722375 L-58.44541590816546,-1242.2254810775346 L-58.517903230242105,-1242.0865884378416 L-58.58402463578946,-1241.9443639092058 L-58.64362083255001,-1241.7991501229742 L-58.69654824806574,-1241.6512969118767 L-58.74267937555679,-1241.5011604672495 L-58.78190308109641,-1241.3491024809382 L-58.81412487134238,-1241.1954892739502 L-58.83926712117969,-1241.0406909139565 L-58.857269260726284,-1240.8850803237644 L-58.868087921251195,-1240.7290323829163 L-58.87169703965362,-1240.5729230245695 " />
			<path d="M724.5666299470855,-1001.9497145010542 L724.4196107626112,-1001.9394771062957 L724.2729457602297,-1001.9216075595847 L724.126988268778,-1001.8961489102244 L723.9820899126374,-1001.863162490331 L723.8385997646394,-1001.8227277670793 L723.6968635051189,-1001.7749421512593 L723.5572225891397,-1001.7199207626052 L723.4200134238993,-1001.6577961524612 L723.285566558295,-1001.5887179844549 L723.1542058866023,-1001.5128526739435 L723.0262478681849,-1001.430382987105 L722.9020007651172,-1001.3415076006385 L722.7817638995532,-1001.2464406231346 L722.6658269326334,-1001.1454110792689 L722.5544691666662,-1001.0386623580619 L722.4479588722635,-1000.9264516265328 L722.3465526420537,-1000.8090492101625 L722.2504947725274,-1000.6867379416553 L722.1600166755062,-1000.5598124795703 L722.0753363206506,-1000.4285785984628 L721.9966577103527,-1000.2933524522473 L721.9241703882761,-1000.1544598125544 L721.8580489827287,-1000.0122352839186 L721.7984527859682,-999.8670214976868 L721.7455253704525,-999.7191682865895 L721.6993942429614,-999.5690318419622 L721.6601705374218,-999.4169738556509 L721.6279487471758,-999.2633606486629 L721.6028064973385,-999.1085622886691 L721.5848043577919,-998.9529516984772 L721.573985697267,-998.796903757629 L721.5703765788646,-998.6407943992822 " />
			<path d="M-58.87169703965362,-1209.1871627829257 L-58.87169703965362,-1240.5729230245695 " />
			<path d="M721.5703765788645,-967.2550341576384 L721.5703765788645,-998.6407943992822 " />
			<path d="M21.46534535016341,-1625.868816821602 L-55.87544471703966,-1622.4973102343167 " />
			<path d="M-58.87169791439421,-1625.5449997485994 L-58.86941574105341,-1625.4210730158702 L-58.8625726842577,-1625.297534041179 L-58.851179168417495,-1625.1745710183427 L-58.8352525499115,-1625.0523712637976 L-58.81481709064678,-1624.9311209312518 L-58.78990392109918,-1624.8110047281054 L-58.760550992890636,-1624.692205634076 L-58.72680302097527,-1624.574904622455 L-58.688711415522604,-1624.4592803844218 L-58.646334203601654,-1624.3455090568327 L-58.59973594078497,-1624.2337639539023 L-58.54898761280757,-1624.1242153031837 L-58.494166527430416,-1624.0170299862518 L-58.43535619667317,-1623.9123712844837 L-58.37264620959565,-1623.8103986303217 L-58.30613209582188,-1623.7112673644028 L-58.235915180014395,-1623.615128498918 L-58.162102427520814,-1623.5221284875681 L-58.08480628142748,-1623.4324090024618 L-58.00414449126868,-1623.346106718299 L-57.92023993365218,-1623.2633531041674 L-57.83322042507443,-1623.1842742232664 L-57.74321852721058,-1623.1089905408703 L-57.65037134497586,-1623.0376167408147 L-57.55482031766602,-1622.9702615507936 L-57.45671100349494,-1622.907027576728 L-57.3561928578577,-1622.8480111464605 L-57.25341900565682,-1622.793302163014 L-57.148546008038544,-1622.742983967637 L-57.041733623894515,-1622.697133212845 L-56.93314456649213,-1622.6558197456532 L-56.82294425560436,-1622.6191065011715 " />
			<path d="M-56.82294425560435,-1622.6191065011715 L-56.70788693167783,-1622.5861486329152 L-56.591483266158214,-1622.5581874793436 L-56.47392152324157,-1622.5352682631228 L-56.355391840127794,-1622.5174280523966 L-56.23608591950426,-1622.504695700835 L-56.1161967194976,-1622.4970918009676 L-55.995918141594984,-1622.4946286508787 L-55.87544471703967,-1622.497310234317 " />
			<path d="M721.570375704115,-1383.6125351677788 L721.5726578774558,-1383.4886084350496 L721.5795009342514,-1383.3650694603584 L721.5908944500917,-1383.2421064375221 L721.6068210685977,-1383.119906682977 L721.6272565278624,-1382.9986563504312 L721.6521696974099,-1382.8785401472849 L721.6815226256185,-1382.7597410532553 L721.715270597534,-1382.6424400416345 L721.7533622029865,-1382.5268158036013 L721.7957394149075,-1382.4130444760121 L721.8423376777242,-1382.3012993730817 L721.8930860057015,-1382.1917507223632 L721.9479070910787,-1382.0845654054312 L722.006717421836,-1381.9799067036631 L722.0694274089135,-1381.8779340495012 L722.1359415226873,-1381.7788027835823 L722.2061584384948,-1381.6826639180974 L722.2799711909884,-1381.5896639067475 L722.3572673370817,-1381.4999444216412 L722.4379291272405,-1381.4136421374785 L722.521833684857,-1381.3308885233469 L722.6088531934347,-1381.2518096424458 L722.6988550912986,-1381.1765259600497 L722.7917022735334,-1381.105152159994 L722.8872533008431,-1381.037796969973 L722.9853626150142,-1380.9745629959075 L723.0858807606514,-1380.91554656564 L723.1886546128524,-1380.8608375821934 L723.2935276104706,-1380.8105193868164 L723.4003399946147,-1380.7646686320245 L723.508929052017,-1380.7233551648326 L723.6191293629048,-1380.686641920351 " />
			<path d="M21.465345350163403,-1625.868816821602 L21.612364534843515,-1625.8790542163028 L21.759029537842004,-1625.896923762829 L21.904987030320306,-1625.922382411877 L22.049885387894683,-1625.9553688313317 L22.193375537730137,-1625.9958035540196 L22.335111799487464,-1626.0435891691516 L22.474752718097456,-1626.0986105569957 L22.611961886356085,-1626.1607351662092 L22.746408755358907,-1626.2298133331667 L22.877769430822347,-1626.305678642514 L23.005727453373375,-1626.3881483280757 L23.12997456092786,-1626.4770237131554 L23.25021143132095,-1626.5720906891663 L23.366148403400356,-1626.6731202314363 L23.477506174845463,-1626.7798689509486 L23.58401647503107,-1626.892079680688 L23.685422711314832,-1627.0094820951783 L23.7814805871914,-1627.1317933617195 L23.871958690824112,-1627.2587188217574 L23.956639052536374,-1627.389952700741 L24.035317669919696,-1627.5251788447617 L24.107804999293364,-1627.664071482194 L24.173926412331785,-1627.8062960085085 L24.233522616759387,-1627.951509792364 L24.286450040099705,-1628.0993630010362 L24.332581175554008,-1628.249499443195 L24.37180488917638,-1628.4015574270004 L24.404026687605114,-1628.555170631451 L24.4291689457055,-1628.7099689888823 L24.447171093575566,-1628.8655795764926 L24.457989762464297,-1629.0216275147463 L24.461598889250737,-1629.1777368704923 " />
			<path d="M24.461598889250737,-1629.1777368704925 L24.461600576556343,-1660.563496588658 " />
			<path d="M24.461600576556343,-1660.5634965886575 L24.45931840321554,-1660.6874233213866 L24.45247534641983,-1660.8109622960776 L24.441081830579627,-1660.9339253189141 L24.425155212073633,-1661.0561250734593 L24.404719752808905,-1661.177375406005 L24.379806583261313,-1661.2974916091514 L24.35045365505277,-1661.416290703181 L24.316705683137396,-1661.5335917148018 L24.278614077684736,-1661.649215952835 L24.236236865763786,-1661.762987280424 L24.1896386029471,-1661.8747323833545 L24.138890274969704,-1661.984281034073 L24.08406918959255,-1662.091466351005 L24.0252588588353,-1662.1961250527731 L23.962548871757782,-1662.298097706935 L23.896034757984008,-1662.397228972854 L23.82581784217653,-1662.4933678383388 L23.752005089682946,-1662.5863678496887 L23.674708943589614,-1662.676087334795 L23.59404715343081,-1662.7623896189577 L23.510142595814308,-1662.8451432330894 L23.423123087236558,-1662.9242221139905 L23.33312118937271,-1662.9995057963865 L23.24027400713799,-1663.0708795964422 L23.14472297982815,-1663.1382347864633 L23.046613665657073,-1663.2014687605288 L22.94609552001984,-1663.2604851907963 L22.843321667818955,-1663.3151941742428 L22.73844867020068,-1663.3655123696199 L22.631636286056647,-1663.4113631244118 L22.523047228654264,-1663.4526765916037 L22.412846917766508,-1663.4893898360854 " />
			<path d="M22.412846917766483,-1663.4893898360854 L22.29778959383996,-1663.5223477043417 L22.181385928320346,-1663.5503088579133 L22.063824185403707,-1663.573228074134 L21.94529450228993,-1663.5910682848603 L21.825988581666394,-1663.6038006364217 L21.706099381659733,-1663.6114045362892 L21.585820803757116,-1663.6138676863782 L21.465347379201795,-1663.6111861029399 " />
			<path d="M802.8549205362759,-1421.5569252552648 L802.7398632123494,-1421.589883123521 L802.6234595468297,-1421.6178442770927 L802.5058978039132,-1421.6407634933134 L802.3873681207994,-1421.6586037040397 L802.2680622001758,-1421.6713360556012 L802.1481730001692,-1421.6789399554686 L802.0278944222665,-1421.6814031055576 L801.9074209977113,-1421.6787215221193 " />
			<path d="M21.46534737920179,-1663.61118610294 L-55.875442688001286,-1660.2396795156549 " />
			<path d="M801.9074209977111,-1421.6787215221195 L724.5666309305082,-1418.3072149348343 " />
			<path d="M-55.87544268800127,-1660.2396795156549 L-56.02246187268138,-1660.229442120954 L-56.16912687567987,-1660.211572574428 L-56.31508436815818,-1660.18611392538 L-56.45998272573256,-1660.153127505925 L-56.60347287556801,-1660.1126927832372 L-56.74520913732533,-1660.0649071681053 L-56.88485005593533,-1660.0098857802611 L-57.02205922419395,-1659.9477611710477 L-57.15650609319678,-1659.8786830040901 L-57.287866768660216,-1659.8028176947428 L-57.41582479121124,-1659.7203480091812 L-57.54007189876573,-1659.6314726241014 L-57.66030876915882,-1659.5364056480905 L-57.77624574123823,-1659.4353761058205 L-57.887603512683334,-1659.3286273863082 L-57.994113812868946,-1659.2164166565688 L-58.095520049152704,-1659.0990142420785 L-58.19157792502927,-1658.9767029755374 L-58.282056028661984,-1658.8497775154995 L-58.36673639037425,-1658.7185436365157 L-58.44541500775757,-1658.583317492495 L-58.51790233713124,-1658.4444248550628 L-58.584023750169656,-1658.3022003287483 L-58.64361995459726,-1658.1569865448928 L-58.69654737793758,-1658.0091333362207 L-58.74267851339188,-1657.8589968940619 L-58.78190222701426,-1657.7069389102564 L-58.814124025442986,-1657.553325705806 L-58.83926628354337,-1657.3985273483745 L-58.85726843141344,-1657.2429167607643 L-58.86808710030217,-1657.0868688225105 L-58.871696227088606,-1656.9307594667646 " />
			<path d="M724.5666309305082,-1418.3072149348343 L724.419611745828,-1418.2969775401334 L724.2729467428295,-1418.2791079936073 L724.1269892503512,-1418.2536493445593 L723.9820908927768,-1418.2206629251045 L723.8386007429414,-1418.1802282024166 L723.6968644811841,-1418.1324425872847 L723.5572235625741,-1418.0774211994406 L723.4200143943154,-1418.015296590227 L723.2855675253126,-1417.9462184232696 L723.1542068498492,-1417.8703531139222 L723.0262488272981,-1417.7878834283606 L722.9020017197437,-1417.6990080432809 L722.7817648493506,-1417.60394106727 L722.6658278772711,-1417.502911525 L722.554470105826,-1417.3961628054876 L722.4479598056405,-1417.2839520757482 L722.3465535693567,-1417.166549661258 L722.2504956934802,-1417.0442383947168 L722.1600175898474,-1416.9173129346789 L722.0753372281351,-1416.7860790556952 L721.9966586107519,-1416.6508529116745 L721.9241712813781,-1416.5119602742423 L721.8580498683398,-1416.3697357479277 L721.7984536639121,-1416.2245219640722 L721.7455262405718,-1416.0766687554 L721.6993951051176,-1415.9265323132413 L721.6601713914952,-1415.7744743294359 L721.6279495930664,-1415.6208611249854 L721.602807334966,-1415.466062767554 L721.584805187096,-1415.3104521799437 L721.5739865182072,-1415.15440424169 L721.5703773914208,-1414.998294885944 " />
			<path d="M-58.871697914394204,-1625.5449997485991 L-58.871696227088606,-1656.9307594667646 " />
			<path d="M721.5703757041151,-1383.6125351677786 L721.5703773914208,-1414.998294885944 " />
			<path d="M722.0890003200319,-1417.7917275941804 L722.1066247714248,-1381.1555094710322 " />
			<path d="M722.2754679742582,-1030.1785474242065 L722.3069502251204,-964.7359084515854 " />
			<path d="M722.4696768216853,-626.473629910578 L722.5011590725475,-561.0309909379566 " />
			<path d="M722.6638856691125,-222.76871239694904 L722.6953679199746,-157.32607342432775 " />
			<path d="M722.8580943335563,180.93582474650913 L722.889576565803,246.37842502306648 " />
			<path d="M-56.376444942205076,4.811245245213436 L-56.82294015185605,4.672834759445067 " />
			<path d="M71.29453943870877,-21.044456771980148 L22.412842309559387,-36.1974512466949 " />
			<path d="M71.2945394387088,-359.2562285889004 L-56.822942180485626,-398.97184117566314 " />
			<path d="M71.29453943870878,-424.6891082619882 L22.412844904823295,-439.8421257749505 " />
			<path d="M71.2945394387088,-762.9009425826985 L-56.822942180485626,-802.6165551694612 " />
			<path d="M71.2945394387088,-828.3338222557863 L22.41284490482331,-843.4868397687486 " />
			<path d="M71.29453943870884,-1166.5456565764964 L-56.82294218048561,-1206.2612691632592 " />
			<path d="M71.29453943870882,-1231.9785362495843 L22.41284490482332,-1247.1315537625464 " />
			<path d="M71.29453943870885,-1582.9034381206254 L-56.82294425560436,-1622.6191065011712 " />
			<path d="M71.29453943870882,-1648.3363519051063 L22.41284691776648,-1663.4893898360856 " />

       </g>

       <!-- solid lines -->
       <g  stroke="rgb(0,0,0)" fill="none">
			<path d="M69.21813445179161,-0.6585186386750275 L-55.87544367143273,4.794668765890092 " />
			<path d="M-59.99529205273652,4.576976653931404 L-59.936550740156235,4.593909955166997 L-59.87073270373825,4.610487798977561 L-59.718517371507225,4.6424183169534015 L-59.54011197290221,4.672460699515824 L-59.33723464943807,4.700325622097914 L-59.11183922064379,4.72574473026269 L-58.86609636771233,4.748473224103027 L-58.602372728654146,4.768292215798585 L-58.32320810627937,4.785010837625172 L-58.031291008508354,4.79846808011527 L-57.72943275657078,4.8085343426672225 L-57.4205404104453,4.815112681669874 L-57.107588772282824,4.818139744122544 L-56.79359173743565,4.817586377759054 L-56.48157326899757,4.813457911799984 L-56.174538275386304,4.805794105629368 L-55.87544367143273,4.794668765890092 " />
			<path d="M69.2181344517916,-0.6585186386750275 L69.4416662154106,-0.6694023638315907 L69.65747144994711,-0.6822214032589893 L69.86431239110928,-0.6969022325624459 L70.06100268986523,-0.7133606489360107 L70.24641421682149,-0.7315022541129719 L70.41948353267888,-0.7512229957929615 L70.57921798765467,-0.7724097644403709 L70.72470141488675,-0.7949410420310994 L70.85509938516552,-0.8186875990267091 L70.96966399285425,-0.8435132355784487 L71.06773814554828,-0.8692755627099237 L71.14875933286909,-0.8958268189978914 L71.21226285277754,-0.9230147180670576 L71.23732768021394,-0.9367987963589063 L71.25788447690115,-0.9506833220380164 L71.27390375607001,-0.9646483790731795 L71.2853625395885,-0.9786739359186181 L71.29224439092175,-0.9927398742473326 L71.29453943870875,-1.0068260178089259 " />
			<path d="M71.29453943870875,-1.0068260178089274 L71.29132206814643,-1.0235029237235698 L71.28167642613028,-1.0401462947718618 L71.26562190866325,-1.0567226635212608 L71.24319079907774,-1.0731986972712384 L71.21442820311857,-1.089541265080563 L71.17939195824168,-1.1057175043888707 L71.13815251731137,-1.1216948870985617 L71.0907928069297,-1.1374412849841384 " />
			<path d="M71.09079280692976,-1665.9106559750512 L71.13815251731144,-1665.9264023729368 L71.17939195824175,-1665.9423797556465 L71.21442820311864,-1665.9585559949548 L71.24319079907781,-1665.974898562764 L71.26562190866332,-1665.991374596514 L71.28167642613035,-1666.0079509652635 L71.2913220681465,-1666.0245943363118 L71.29453943870882,-1666.0412712422265 " />
			<path d="M71.29453943870882,-1666.0412712422265 L71.2913220681465,-1666.0579481481411 L71.28167642613035,-1666.0745915191894 L71.26562190866332,-1666.0911678879388 L71.24319079907781,-1666.1076439216888 L71.21442820311864,-1666.123986489498 L71.17939195824175,-1666.1401627288064 L71.13815251731145,-1666.1561401115162 L71.09079280692977,-1666.1718865094017 " />
			<path d="M71.0907928069297,-1.1374412849841402 L59.99529205273652,-4.576976653931405 " />
			<path d="M71.09079280692977,-1666.1718865094017 L59.99529205273659,-1669.6114218783491 " />
			<path d="M59.99529205273652,-4.576976653931404 L59.936550740156235,-4.593909955166997 L59.87073270373825,-4.610487798977561 L59.718517371507225,-4.6424183169534015 L59.54011197290221,-4.672460699515824 L59.33723464943807,-4.700325622097914 L59.11183922064379,-4.72574473026269 L58.86609636771234,-4.748473224103027 L58.602372728654146,-4.768292215798585 L58.32320810627937,-4.785010837625172 L58.03129100850836,-4.79846808011527 L57.72943275657078,-4.8085343426672225 L57.42054041044529,-4.815112681669874 L57.107588772282824,-4.818139744122544 L56.79359173743565,-4.817586377759055 L56.48157326899757,-4.813457911799984 L56.174538275386304,-4.805794105629368 L55.87544367143275,-4.794668765890093 " />
			<path d="M59.99529205273658,-1669.6114218783491 L59.9365507401563,-1669.6283551795848 L59.87073270373831,-1669.6449330233952 L59.71851737150729,-1669.6768635413712 L59.540111972902274,-1669.7069059239336 L59.33723464943813,-1669.7347708465156 L59.11183922064385,-1669.7601899546803 L58.8660963677124,-1669.7829184485206 L58.60237272865421,-1669.8027374402163 L58.32320810627943,-1669.819456062043 L58.031291008508425,-1669.832913304533 L57.729432756570844,-1669.842979567085 L57.420540410445355,-1669.8495579060875 L57.10758877228289,-1669.8525849685402 L56.79359173743571,-1669.8520316021768 L56.481573268997636,-1669.8479031362176 L56.17453827538637,-1669.840239330047 L55.87544367143281,-1669.8291139903079 " />
			<path d="M55.87544367143273,-4.794668765890092 L-69.21813445179161,0.6585186386750275 " />
			<path d="M55.87544367143279,-1669.8291139903076 L-69.21813445179154,-1664.3759265857425 " />
			<path d="M-69.2181344517916,0.6585186386750275 L-69.44166621541059,0.6694023638315907 L-69.65747144994711,0.6822214032589893 L-69.86431239110928,0.6969022325624458 L-70.06100268986523,0.7133606489360105 L-70.24641421682148,0.7315022541129718 L-70.41948353267888,0.7512229957929613 L-70.57921798765467,0.7724097644403706 L-70.72470141488675,0.7949410420310992 L-70.85509938516552,0.8186875990267091 L-70.96966399285425,0.8435132355784486 L-71.06773814554828,0.8692755627099236 L-71.14875933286909,0.8958268189978914 L-71.21226285277754,0.9230147180670577 L-71.23732768021394,0.9367987963589062 L-71.25788447690115,0.9506833220380163 L-71.27390375607001,0.9646483790731795 L-71.2853625395885,0.9786739359186178 L-71.29224439092175,0.9927398742473326 L-71.29453943870875,1.0068260178089241 " />
			<path d="M-71.29453943870875,1.0068260178089274 L-71.29132206814643,1.0235029237235698 L-71.28167642613028,1.0401462947718618 L-71.26562190866325,1.0567226635212605 L-71.24319079907774,1.0731986972712384 L-71.21442820311857,1.0895412650805631 L-71.17939195824168,1.105717504388871 L-71.13815251731137,1.121694887098562 L-71.0907928069297,1.13744128498414 " />
			<path d="M-69.21813445179154,-1664.3759265857427 L-69.44166621541054,-1664.365042860586 L-69.65747144994705,-1664.3522238211588 L-69.86431239110922,-1664.3375429918551 L-70.06100268986518,-1664.3210845754816 L-70.24641421682142,-1664.3029429703047 L-70.41948353267883,-1664.2832222286247 L-70.57921798765462,-1664.2620354599774 L-70.7247014148867,-1664.2395041823866 L-70.85509938516546,-1664.215757625391 L-70.9696639928542,-1664.190931988839 L-71.06773814554822,-1664.1651696617078 L-71.14875933286903,-1664.1386184054197 L-71.21226285277749,-1664.1114305063506 L-71.23732768021388,-1664.0976464280589 L-71.2578844769011,-1664.0837619023796 L-71.27390375606996,-1664.0697968453444 L-71.28536253958845,-1664.055771288499 L-71.2922443909217,-1664.0417053501703 L-71.2945394387087,-1664.0276192066087 " />
			<path d="M-71.2945394387087,-1664.0276192066087 L-71.29132206814637,-1664.010942300694 L-71.28167642613022,-1663.9942989296458 L-71.26562190866319,-1663.9777225608964 L-71.24319079907768,-1663.9612465271464 L-71.21442820311852,-1663.9449039593371 L-71.17939195824162,-1663.9287277200287 L-71.13815251731131,-1663.912750337319 L-71.09079280692964,-1663.8970039394335 " />
			<path d="M-59.99529205273652,4.576976653931405 L-71.0907928069297,1.1374412849841402 " />
			<path d="M815.6640449762061,247.32811527777451 L738.4461604805666,250.81080818234588 " />
			<path d="M734.3184582567063,250.59477288153784 L734.3778128381714,250.61183105544106 L734.4442311952455,250.62852309404076 L734.5976025738803,250.6606488939251 L734.7770953423931,250.69084089217623 L734.9809808873025,250.7188083233463 L735.2072956793558,250.74428184578466 L735.4538601833891,250.76701613554494 L735.7182998484429,250.78679224898892 L735.9980679759854,250.80341973133343 L736.2904702460113,250.816738450834 L736.592690664817,250.82662014094106 L736.901818684559,250.83296963557703 L737.2148772334205,250.83572578563752 L737.5288513864408,250.83486204789085 L737.8407174008905,250.83038674060364 L738.1474718365674,250.82234296343154 L738.4461604805666,250.81080818234588 " />
			<path d="M815.6640449762062,247.32811527777451 L815.8864274734293,247.3169398116299 L816.10107101513,247.30382884127653 L816.3067529267964,247.2888570507657 L816.5023015820711,247.2721097239429 L816.6866030766889,247.25368225864534 L816.8586075736123,247.23367962328697 L817.0173352832204,247.21221575892667 L817.1618820444876,247.18941293022547 L817.2914244753573,247.16540102899023 L817.4052246629759,247.14031683427044 L817.5026343670667,247.1143032332235 L817.5830987125031,247.08750840718628 L817.6461593500447,247.06008498758942 L817.6710470920649,247.04618625582864 L817.6914570672335,247.0321891865225 L817.7073601998479,247.01811371965718 L817.7187338345766,247.0039799069028 L817.7255617687334,246.98980788304794 L817.7278342753598,246.97561783731618 " />
			<path d="M817.7278342753598,246.97561783731618 L817.7245337210921,246.95856782268822 L817.714655255805,246.94155605989195 L817.6982192066123,246.9246175543687 L817.675259394298,246.90778716081687 L817.6458230637228,246.8910995114707 L817.6099707866072,246.8745889448369 L817.5677763368923,246.8582894350355 L817.519326538933,246.8422345218907 " />
			<path d="M816.7185817819571,-1417.6782049273093 L816.7670161105384,-1417.6943064481463 L816.8091948584363,-1417.7106465470533 L816.8450312336055,-1417.7271916006846 L816.8744514948271,-1417.743907563956 L816.8973951034465,-1417.7607600400986 L816.9138148479459,-1417.7777143514384 L816.9236769410916,-1417.794735610753 L816.926961089459,-1417.8117887930596 " />
			<path d="M816.926961089459,-1417.8117887930596 L816.9236605351914,-1417.8288388076876 L816.9137820699043,-1417.845850570484 L816.8973460207116,-1417.8627890760072 L816.8743862083973,-1417.879619469559 L816.844949877822,-1417.896307118905 L816.8090976007064,-1417.9128176855388 L816.7669031509915,-1417.9291171953403 L816.7184533530323,-1417.9451721084852 " />
			<path d="M817.519326538933,246.84223452189073 L806.299249524586,243.3765239919746 " />
			<path d="M816.7184533530324,-1417.9451721084852 L805.4983763386854,-1421.4108826384013 " />
			<path d="M806.2992495245859,243.37652399197455 L806.2398949431208,243.35946581807133 L806.1734765860467,243.34277377947163 L806.0201052074119,243.3106479795873 L805.8406124388991,243.28045598133616 L805.6367268939897,243.25248855016608 L805.4104121019365,243.22701502772773 L805.1638475979031,243.20428073796745 L804.8994079328493,243.18450462452347 L804.6196398053069,243.16787714217895 L804.3272375352809,243.15455842267838 L804.0250171164752,243.14467673257133 L803.7158890967332,243.13832723793536 L803.4028305478718,243.13557108787487 L803.0888563948514,243.13643482562154 L802.7769903804017,243.14091013290874 L802.4702359447248,243.14895391008085 L802.1715473007256,243.1604886911665 " />
			<path d="M805.4983763386854,-1421.4108826384015 L805.4052685447673,-1421.4366908631475 L805.2960048239156,-1421.4616031550454 L805.1711942247001,-1421.4854806501098 L805.0315324557822,-1421.5081902524316 L804.877798007954,-1421.5296053760712 L804.7108478147417,-1421.5496066506616 L804.531612475759,-1421.5680825867935 L804.3410910694375,-1421.5849301974704 L804.1403455840489,-1421.600055572169 L803.9304949980593,-1421.6133744003075 L803.7127090428149,-1421.6248124412039 L803.4882016823244,-1421.6343059378999 L803.2582243464839,-1421.6418019725509 L803.0240589554622,-1421.6472587613964 L802.7870107741304,-1421.6506458876663 L802.548401136365,-1421.651944471129 " />
			<path d="M724.9536628050861,246.64318159573787 L724.731280307863,246.65435706188248 L724.5166367661624,246.66746803223586 L724.3109548544959,246.6824398227467 L724.1154061992212,246.6991871495695 L723.9311047046034,246.71761461486705 L723.75910020768,246.7376172502254 L723.6003724980719,246.7590811145857 L723.4558257368047,246.7818839432869 L723.326283305935,246.80589584452215 L723.2124831183164,246.83098003924195 L723.1150734142257,246.8569936402889 L723.0346090687892,246.8837884663261 L722.9715484312476,246.91121188592297 L722.9466606892274,246.92511061768374 L722.9262507140588,246.9391076869899 L722.9103475814444,246.9531831538552 L722.8989739467157,246.9673169666096 L722.8921460125589,246.98148899046444 L722.8898735059325,246.9956790361962 " />
			<path d="M722.8898735059325,246.9956790361962 L722.8931740602002,247.01272905082416 L722.9030525254873,247.02974081362044 L722.91948857468,247.0466793191437 L722.9424483869943,247.06350971269552 L722.9718847175695,247.08019736204167 L723.0077369946852,247.0967079286755 L723.0499314444,247.1130074384769 L723.0983812423593,247.12906235162168 " />
			<path d="M734.3184582567063,250.59477288153778 L723.0983812423593,247.12906235162166 " />
			<path d="M21.465347255369444,1.423123791641733 L-55.87544281033795,4.794630345664593 " />
			<path d="M801.9074209812021,243.35487177815548 L724.5666309154948,246.72637833217834 " />
			<path d="M801.9074209812022,243.35487177815554 L802.0316550153408,243.3467228290904 L802.1556753752496,243.33312143227928 L802.2792687545353,243.31409098117874 L802.4022225811811,243.2896642068411 L802.5243253831565,243.2598831216194 L802.6453671521342,243.22479894690898 L802.7651397046899,243.18447202505024 L802.8834370403631,243.13897171554413 " />
			<path d="M804.9036741567483,240.04595161744064 L804.9036722546542,208.66019078228342 " />
			<path d="M801.9774592413422,-160.29334485849765 L802.122170649793,-160.30695881182083 L802.2663799868317,-160.32796241433607 L802.4097501014863,-160.3563065611439 L802.5519458048262,-160.3919249856846 L802.6926346536089,-160.43473441466466 L802.8314877275087,-160.48463476274364 L802.9681803981086,-160.54150936652653 L803.1023930878575,-160.60522525731423 L803.2338120172201,-160.67563347197478 L803.3621299382698,-160.7525694012083 L803.4870468530132,-160.83585317439162 L803.6082707147623,-160.92529008010285 L803.7255181109196,-161.02067102134237 L803.8385149255756,-161.12177300438663 L803.9469969803724,-161.22835966013116 L804.0507106521329,-161.34018179670454 L804.1494134658137,-161.4569779820608 L804.2428746613947,-161.57847515518867 L804.3308757333781,-161.70438926450834 L804.4132109416396,-161.83442593196355 L804.4896877924332,-161.96828114125609 L804.560127488428,-162.10564194861377 L804.6243653467229,-162.24618721443045 L804.6822511838637,-162.38958835406703 L804.7336496669614,-162.53551010605847 L804.7784406300894,-162.6836113159309 L804.8165193552247,-162.83354573379594 L804.847796817069,-162.9849628238579 L804.872199891185,-163.13750858394098 L804.889671524955,-163.2908263731208 L804.9001708709663,-163.44455774552483 L804.9036733825094,-163.598343288353 " />
			<path d="M804.9036733825095,-163.598343288353 L804.9036733825095,-194.98410352999676 " />
			<path d="M804.9036733825094,-194.9841035299968 L804.9013912011663,-195.10803030098822 L804.8945481337133,-195.23156931365673 L804.8831546045831,-195.3545323740179 L804.8672279701847,-195.47673216546812 L804.8467924924637,-195.59798253413462 L804.8218793019422,-195.71809877245414 L804.7925263502963,-195.83689790054856 L804.758778352542,-195.95419894496843 L804.7206867189183,-196.06982321438016 L804.6783094765709,-196.1835945717766 L804.6317111811566,-196.29533970279655 L804.5809628185015,-196.40488837974442 L804.5261416964647,-196.51207372090758 L804.4673313271704,-196.61673244477691 L804.4046212997897,-196.71870511878274 L804.3381071440637,-196.81783640216742 L804.2678901847783,-196.9139752826248 L804.1940773874096,-197.00697530634582 L804.1167811951784,-197.09669480111992 L804.0361193577579,-197.18299709215236 L803.9522147518999,-197.26575071026863 L803.8651951942488,-197.34482959218892 L803.7751932466324,-197.4201132725675 L803.6823460141217,-197.4914870675044 L803.5867949361717,-197.55884224924986 L803.4886855711586,-197.62207621183555 L803.3881673746424,-197.68109262737997 L803.2853934716927,-197.73580159283026 L803.1805204236244,-197.78611976691658 L803.0737079894997,-197.83197049711055 L802.965118882757,-197.8732839363945 L802.8549185233414,-197.9099971496633 " />
			<path d="M723.6191314380326,-560.684426544174 L723.7341886456571,-560.6514687550186 L723.8505921900651,-560.6235076696784 L723.9681538076834,-560.6005885106063 L724.0866833619467,-560.5827483457695 L724.2059891508112,-560.5700160286982 L724.3258782168012,-560.5624121518194 L724.4461566590868,-560.5599490131526 L724.5666299470855,-560.5626305964189 " />
			<path d="M801.9074200142885,-563.934137180379 L802.0544391987628,-563.9443745751375 L802.2011042011443,-563.9622441218486 L802.3470616925961,-563.9877027712089 L802.4919600487366,-564.0206891911023 L802.6354501967346,-564.061123914354 L802.7771864562551,-564.108909530174 L802.9168273722344,-564.1639309188281 L803.0540365374748,-564.2260555289721 L803.188483403079,-564.2951336969784 L803.3198440747717,-564.3709990074898 L803.4478020931891,-564.4534686943283 L803.5720491962568,-564.5423440807948 L803.6922860618208,-564.6374110582987 L803.8082230287406,-564.7384406021644 L803.9195807947078,-564.8451893233714 L804.0260910891105,-564.9574000549005 L804.1274973193204,-565.0748024712708 L804.2235551888466,-565.1971137397779 L804.3140332858678,-565.324039201863 L804.3987136407234,-565.4552730829705 L804.4773922510213,-565.590499229186 L804.5498795730979,-565.7293918688789 L804.6160009786453,-565.8716163975147 L804.6755971754059,-566.0168301837464 L804.7285245909216,-566.1646833948438 L804.7746557184126,-566.3148198394709 L804.8138794239522,-566.4668778257824 L804.8461012141983,-566.6204910327704 L804.8712434640355,-566.7752893927642 L804.8892456035821,-566.930899982956 L804.9000642641071,-567.0869479238042 L804.9036733825094,-567.243057282151 " />
			<path d="M804.9036733825095,-567.2430572821511 L804.9036733825095,-598.6288175237949 " />
			<path d="M804.9036733825094,-598.6288175237947 L804.9013912011663,-598.7527442947861 L804.8945481337133,-598.8762833074546 L804.8831546045831,-598.9992463678159 L804.8672279701847,-599.121446159266 L804.8467924924637,-599.2426965279326 L804.8218793019422,-599.3628127662521 L804.7925263502963,-599.4816118943464 L804.758778352542,-599.5989129387664 L804.7206867189183,-599.7145372081781 L804.6783094765709,-599.8283085655745 L804.6317111811566,-599.9400536965945 L804.5809628185015,-600.0496023735424 L804.5261416964647,-600.1567877147055 L804.4673313271704,-600.2614464385748 L804.4046212997897,-600.3634191125807 L804.3381071440637,-600.4625503959653 L804.2678901847783,-600.5586892764227 L804.1940773874096,-600.6516893001437 L804.1167811951784,-600.7414087949179 L804.0361193577579,-600.8277110859503 L803.9522147518999,-600.9104647040665 L803.8651951942488,-600.9895435859869 L803.7751932466324,-601.0648272663655 L803.6823460141217,-601.1362010613024 L803.5867949361717,-601.2035562430478 L803.4886855711586,-601.2667902056335 L803.3881673746424,-601.3258066211779 L803.2853934716927,-601.3805155866282 L803.1805204236244,-601.4308337607144 L803.0737079894997,-601.4766844909085 L802.965118882757,-601.5179979301925 L802.8549185233414,-601.5547111434612 " />
			<path d="M801.9074200142885,-967.5788511741769 L724.5666299470855,-964.2073445902167 " />
			<path d="M723.6191314380326,-964.329140537972 L723.7341886456571,-964.2961827488166 L723.8505921900651,-964.2682216634763 L723.9681538076834,-964.2453025044042 L724.0866833619467,-964.2274623395674 L724.2059891508112,-964.2147300224962 L724.3258782168012,-964.2071261456174 L724.4461566590868,-964.2046630069506 L724.5666299470855,-964.2073445902168 " />
			<path d="M801.9074200142885,-967.578851174177 L802.0544391987628,-967.5890885689355 L802.2011042011443,-967.6069581156465 L802.3470616925961,-967.6324167650068 L802.4919600487366,-967.6654031849002 L802.6354501967346,-967.7058379081519 L802.7771864562551,-967.7536235239719 L802.9168273722344,-967.808644912626 L803.0540365374748,-967.87076952277 L803.188483403079,-967.9398476907763 L803.3198440747717,-968.0157130012877 L803.4478020931891,-968.0981826881263 L803.5720491962568,-968.1870580745928 L803.6922860618208,-968.2821250520966 L803.8082230287406,-968.3831545959623 L803.9195807947078,-968.4899033171694 L804.0260910891105,-968.6021140486985 L804.1274973193204,-968.7195164650688 L804.2235551888466,-968.8418277335759 L804.3140332858678,-968.968753195661 L804.3987136407234,-969.0999870767685 L804.4773922510213,-969.2352132229839 L804.5498795730979,-969.3741058626769 L804.6160009786453,-969.5163303913126 L804.6755971754059,-969.6615441775443 L804.7285245909216,-969.8093973886417 L804.7746557184126,-969.9595338332689 L804.8138794239522,-970.1115918195803 L804.8461012141983,-970.2652050265683 L804.8712434640355,-970.4200033865621 L804.8892456035821,-970.575613976754 L804.9000642641071,-970.7316619176022 L804.9036733825094,-970.8877712759489 " />
			<path d="M804.9036733825095,-970.887771275949 L804.9036733825095,-1002.2735315175928 " />
			<path d="M804.9036733825094,-1002.2735315175928 L804.9013912011663,-1002.3974582885842 L804.8945481337133,-1002.5209973012527 L804.8831546045831,-1002.643960361614 L804.8672279701847,-1002.7661601530641 L804.8467924924637,-1002.8874105217307 L804.8218793019422,-1003.0075267600502 L804.7925263502963,-1003.1263258881445 L804.758778352542,-1003.2436269325644 L804.7206867189183,-1003.3592512019761 L804.6783094765709,-1003.4730225593726 L804.6317111811566,-1003.5847676903926 L804.5809628185015,-1003.6943163673404 L804.5261416964647,-1003.8015017085036 L804.4673313271704,-1003.9061604323729 L804.4046212997897,-1004.0081331063788 L804.3381071440637,-1004.1072643897634 L804.2678901847783,-1004.2034032702207 L804.1940773874096,-1004.2964032939418 L804.1167811951784,-1004.386122788716 L804.0361193577579,-1004.4724250797484 L803.9522147518999,-1004.5551786978647 L803.8651951942488,-1004.634257579785 L803.7751932466324,-1004.7095412601635 L803.6823460141217,-1004.7809150551004 L803.5867949361717,-1004.8482702368459 L803.4886855711586,-1004.9115041994315 L803.3881673746424,-1004.970520614976 L803.2853934716927,-1005.0252295804263 L803.1805204236244,-1005.0755477545125 L803.0737079894997,-1005.1213984847066 L802.965118882757,-1005.1627119239905 L802.8549185233414,-1005.1994251372593 " />
			<path d="M801.9074189686727,-1383.9363522407814 L724.5666289014697,-1380.5648456534961 " />
			<path d="M723.6191293629048,-1380.686641920351 L723.7341866868313,-1380.6536840520946 L723.850590352351,-1380.625722898523 L723.9681520952676,-1380.6028036823022 L724.0866817783814,-1380.584963471576 L724.2059876990049,-1380.5722311200145 L724.3258768990115,-1380.564627220147 L724.4461554769142,-1380.562164070058 L724.5666289014695,-1380.5648456534964 " />
			<path d="M801.9074189686726,-1383.9363522407814 L802.0544381533527,-1383.9465896354823 L802.2011031563512,-1383.9644591820083 L802.3470606488295,-1383.9899178310563 L802.4919590064039,-1384.0229042505111 L802.6354491562394,-1384.063338973199 L802.7771854179966,-1384.111124588331 L802.9168263366066,-1384.1661459761751 L803.0540355048653,-1384.2282705853886 L803.1884823738682,-1384.2973487523461 L803.3198430493316,-1384.3732140616935 L803.4478010718826,-1384.455683747255 L803.572048179437,-1384.5445591323348 L803.6922850498302,-1384.6396261083457 L803.8082220219096,-1384.7406556506157 L803.9195797933547,-1384.847404370128 L804.0260900935402,-1384.9596150998675 L804.127496329824,-1385.0770175143577 L804.2235542057006,-1385.199328780899 L804.3140323093334,-1385.3262542409368 L804.3987126710456,-1385.4574881199205 L804.4773912884289,-1385.5927142639412 L804.5498786178026,-1385.7316069013734 L804.616000030841,-1385.873831427688 L804.6755962352686,-1386.0190452115435 L804.7285236586089,-1386.1668984202156 L804.7746547940632,-1386.3170348623744 L804.8138785076856,-1386.4690928461798 L804.8461003061143,-1386.6227060506303 L804.8712425642148,-1386.7775044080618 L804.8892447120847,-1386.933114995672 L804.9000633809735,-1387.0891629339258 L804.9036725077599,-1387.2452722896717 " />
			<path d="M804.90367250776,-1387.2452722896717 L804.9036741950657,-1418.6310320078371 " />
			<path d="M804.9036741950657,-1418.631032007837 L804.901392021725,-1418.754958740566 L804.8945489649293,-1418.878497715257 L804.883155449089,-1419.0014607380936 L804.867228830583,-1419.1236604926387 L804.8467933713183,-1419.2449108251844 L804.8218802017708,-1419.3650270283308 L804.7925272735622,-1419.4838261223604 L804.7587793016468,-1419.6011271339812 L804.7206876961942,-1419.7167513720144 L804.6783104842732,-1419.8305226996035 L804.6317122214565,-1419.942267802534 L804.5809638934792,-1420.0518164532525 L804.526142808102,-1420.1590017701844 L804.4673324773447,-1420.2636604719526 L804.4046224902672,-1420.3656331261145 L804.3381083764934,-1420.4647643920334 L804.267891460686,-1420.5609032575182 L804.1940787081924,-1420.6539032688681 L804.116782562099,-1420.7436227539745 L804.0361207719402,-1420.8299250381372 L803.9522162143237,-1420.9126786522688 L803.865196705746,-1420.99175753317 L803.7751948078821,-1421.067041215566 L803.6823476256474,-1421.1384150156216 L803.5867965983376,-1421.2057702056427 L803.4886872841665,-1421.2690041797082 L803.3881691385293,-1421.3280206099757 L803.2853952863284,-1421.3827295934223 L803.1805222887101,-1421.4330477887993 L803.073709904566,-1421.4788985435912 L802.9651208471637,-1421.520212010783 L802.8549205362759,-1421.5569252552648 " />
			<path d="M71.0907928069297,-1.1374412849841404 L71.09079280692977,-1666.1718865094017 " />
			<path d="M59.99529205273652,-4.576976653931405 L59.99529205273658,-1669.611421878349 " />
			<path d="M55.87544367143273,-4.794668765890092 L55.87544367143279,-1669.8291139903076 " />
			<path d="M-69.21813445179161,0.6585186386750275 L-69.21813445179154,-1664.3759265857425 " />
			<path d="M-71.0907928069297,0.8762107506337168 L-71.09079280692963,-1663.8970039394335 " />
			<path d="M817.5193265389329,246.8422345218907 L816.7184533530323,-1417.9451721084854 " />
			<path d="M806.2992495245859,243.37652399197455 L805.4983763386853,-1421.4108826384015 " />
			<path d="M802.1545403980381,207.80797855807396 L801.9754326365124,-164.50607948140797 " />
			<path d="M801.9603317517224,-195.89652090225118 L801.783262727116,-563.9726251576233 " />
			<path d="M801.7650207167567,-601.8925726007616 L801.5891080321859,-967.5649750430633 " />
			<path d="M801.5708118693295,-1005.5974901143901 L801.388816652988,-1383.913744880267 " />
			<path d="M724.9223610458889,181.5757334224225 L724.746394392289,-184.20885527087108 " />
			<path d="M724.7281523819296,-222.12880271400917 L724.5653432855923,-560.5625748002055 " />
			<path d="M724.5339435345024,-625.833720227638 L724.3711642153359,-964.2055940513628 " />
			<path d="M724.3397346870753,-1029.5386377412667 L724.1708626966557,-1380.5754409860851 " />
			<path d="M723.0982528134343,246.862095170446 L723.0980512252698,246.44305075311576 " />
			<path d="M723.0665689930231,181.0004504765584 L722.9038425794904,-157.26144759257662 " />
			<path d="M722.8723603286281,-222.70408656519803 L722.7096337320633,-560.9663651062056 " />
			<path d="M722.678151481201,-626.409004078827 L722.5154248846361,-964.6712826198346 " />
			<path d="M722.483942633774,-1030.1139215924557 L722.3150994309838,-1381.0908835495266 " />
			<path d="M21.465347255369444,1.4231237916417325 L801.9074209812023,243.35487177815557 " />
			<path d="M-55.87544281033795,4.794630345664594 L724.4024109505478,246.67547125718664 " />
			<path d="M33.450481593955615,0.9006958068744937 L804.9036741567483,240.0459516174407 " />
			<path d="M71.29453943870878,-18.75366325780727 L804.9036722546542,208.66019078228345 " />
			<path d="M71.29453943870878,-386.77481572719745 L801.9074200142884,-160.289423186581 " />
			<path d="M71.29453943870877,-359.42815121285383 L724.5666299470854,-156.9179166026208 " />
			<path d="M71.29453943870878,-391.01255550665985 L804.9036733825094,-163.598343288353 " />
			<path d="M71.29453943870878,-422.3983157483036 L804.9036733825094,-194.98410352999676 " />
			<path d="M71.2945394387088,-790.4195297209955 L801.9074200142884,-563.934137180379 " />
			<path d="M71.2945394387088,-763.0728652066518 L724.5666299470854,-560.5626305964189 " />
			<path d="M71.2945394387088,-794.6572695004579 L804.9036733825094,-567.2430572821511 " />
			<path d="M71.29453943870881,-826.0430297421016 L804.9036733825094,-598.6288175237947 " />
			<path d="M71.29453943870882,-1194.0642437147933 L801.9074200142885,-967.578851174177 " />
			<path d="M71.29453943870881,-1166.7175792004498 L724.5666299470854,-964.2073445902168 " />
			<path d="M71.29453943870882,-1198.3019834942559 L804.9036733825094,-970.8877712759491 " />
			<path d="M71.29453943870882,-1229.6877437358996 L804.9036733825094,-1002.2735315175929 " />
			<path d="M71.29453943870884,-1610.4220589629135 L801.9074189686726,-1383.9363522407814 " />
			<path d="M71.29453943870884,-1583.07536115249 L724.5666289014696,-1380.5648456534961 " />
			<path d="M71.29453943870884,-1614.659800032254 L804.9036725077599,-1387.245272289672 " />
			<path d="M71.29453943870884,-1646.045560273474 L804.9036741950655,-1418.6310320078371 " />
			<path d="M71.29453943870884,-1666.0412712422265 L71.29453943870877,-1.0068260178089279 " />
			<path d="M-71.2945394387087,-1664.0276192066087 L-71.29453943870877,1.0068260178089279 " />
			<path d="M816.9269610894592,-1417.8117887930605 L817.7278342753598,246.9756178373162 " />
			<path d="M722.1066247714248,-1381.1555094710322 L722.2754679742582,-1030.1785474242065 " />
			<path d="M722.3069502251204,-964.7359084515854 L722.4696768216853,-626.473629910578 " />
			<path d="M722.5011590725475,-561.0309909379566 L722.6638856691125,-222.76871239694904 " />
			<path d="M722.6953679199746,-157.32607342432775 L722.8580943335563,180.93582474650913 " />
			<path d="M722.889576565803,246.37842502306648 L722.8898735059325,246.9956790361962 " />
			<path d="M723.6191335739765,246.60458274595882 L-56.376444942205076,4.811245245213436 " />
			<path d="M802.8549160353922,205.73429673981892 L71.29453943870877,-21.044456771980148 " />
			<path d="M723.6191314380325,-157.03971255037592 L71.2945394387088,-359.2562285889004 " />
			<path d="M802.8549185233413,-197.90999714966327 L71.29453943870878,-424.6891082619882 " />
			<path d="M723.6191314380325,-560.684426544174 L71.2945394387088,-762.9009425826985 " />
			<path d="M802.8549185233413,-601.5547111434614 L71.2945394387088,-828.3338222557863 " />
			<path d="M723.6191314380325,-964.329140537972 L71.29453943870884,-1166.5456565764964 " />
			<path d="M802.8549185233414,-1005.1994251372593 L71.29453943870882,-1231.9785362495843 " />
			<path d="M723.619129362905,-1380.6866419203507 L71.29453943870885,-1582.9034381206254 " />
			<path d="M802.8549205362759,-1421.556925255265 L71.29453943870882,-1648.3363519051063 " />

       </g>
    </g>
    
</svg>
