<?xml version="1.0" encoding="UTF-8" standalone="no"?>
<svg
   xmlns:svg="http://www.w3.org/2000/svg"
   xmlns="http://www.w3.org/2000/svg"
   width="480.0"
   height="480.0"

>
    <g transform="scale(0.18944406351329163, -0.18944406351329163)   translate(791.3147666741932,-56.90717417951716)" stroke-width="1.0"  fill="none">
       <!-- hidden lines -->
       <g  stroke="rgb(0,0,0)" fill="none" stroke-dasharray="1.0,1.0" >
			<path d="M-69.3803718640943,-1666.8386992371895 L57.36371675545434,-1671.2674961119899 " />
			<path d="M57.86947739651478,-1671.2804872578583 L57.61407211284275,-1671.2750719024527 L57.36371675545437,-1671.2674961119899 " />
			<path d="M-69.38037186409431,-1666.8386992371895 L-69.61403911638081,-1666.8294573455119 L-69.8401193104666,-1666.8183333324032 L-70.05723536787043,-1666.8053949554094 L-70.26406481161992,-1666.790721023559 L-70.4593478215993,-1666.77440091733 L-70.64189490824761,-1666.7565340442234 L-70.81059415786602,-1666.7372292332614 L-70.96441800540222,-1666.7166040720986 L-71.1024294934584,-1666.6947841907827 L-71.22378797939827,-1666.6719024965294 L-71.32775425579064,-1666.6480983641688 L-71.41369505300047,-1666.6235167872007 L-71.48108689650148,-1666.5983074946216 L-71.50769419564189,-1666.5855153162133 L-71.5295192954151,-1666.572624038911 L-71.54652894840883,-1666.5596533007283 L-71.558697242854,-1666.5466228607263 L-71.56600564209755,-1666.5335525689134 L-71.56844301284043,-1666.5204623360062 " />
			<path d="M-71.56844301284043,-1666.5204623360062 L-71.56585527620413,-1666.5069745238068 L-71.55809625153331,-1666.4935085259233 L-71.54517848777321,-1666.4800861213912 L-71.52712287728042,-1666.4667290187401 L-71.50395862203291,-1666.453458820885 L-71.47572318640067,-1666.4402969901869 L-71.40422956660207,-1666.414383368945 " />
			<path d="M-71.40422956660207,-1666.414383368945 L-61.41143216046999,-1663.2717939697604 " />
			<path d="M-61.41143216046999,-1663.2717939697604 L-61.35812242729839,-1663.2563066018959 L-61.297627646231874,-1663.24111209798 L-61.15568284763529,-1663.2117473078386 L-60.98696477068563,-1663.1839823983175 L-60.793098262694606,-1663.158084760674 L-60.575950364112394,-1663.1343038033149 L-60.33761232790744,-1663.11286854986 L-60.08037947965724,-1663.0939854335177 L-59.80672911230821,-1663.077836309021 L-59.51929662849044,-1663.0645767012666 L-59.22085016014965,-1663.0543343075258 L-58.91426390992343,-1663.0472077676493 L-58.60249047099852,-1663.0432657141118 L-58.288532392024486,-1663.0425461110442 L-57.97541326092878,-1663.0450558886168 L-57.66614858611219,-1663.0507708763 L-57.36371675545447,-1663.0596360356383 " />
			<path d="M-57.36371675545446,-1663.0596360356383 L69.38037186409419,-1667.4884329104386 " />
			<path d="M69.38037186409419,-1667.4884329104386 L69.72467791545182,-1667.502836664653 L70.05078257162153,-1667.521318021625 L70.35430933432256,-1667.5436289516947 L70.63118471263725,-1667.5694700302904 L70.87769289143,-1667.5984944563654 L71.09052559956682,-1667.6303127066533 L71.18340230348815,-1667.6471373838324 L71.26682650867696,-1667.664497763278 L71.3405180806402,-1667.6823355496654 L71.40422956660194,-1667.7005908445608 " />
			<path d="M-737.4817354537181,-1893.0405418048222 L-727.3627063776482,-1889.9340791583973 " />
			<path d="M-727.3627063776484,-1889.9340791583973 L-727.3087745838288,-1889.918769486957 L-727.2476695790568,-1889.9037486253437 L-727.104545692148,-1889.8747172949393 L-726.9347130781921,-1889.8472647547658 L-726.7398073181016,-1889.8216553877926 L-726.5217054608926,-1889.798135826223 L-726.2825079466764,-1889.7769325762918 L-726.0245183782737,-1889.758249836887 L-725.7502213362596,-1889.742267533002 L-725.4622584510948,-1889.7291395829598 L-725.16340296278,-1889.7189924160962 L-724.8565330130385,-1889.7119237551747 L-724.5446039272385,-1889.7080016752643 L-724.2306197529944,-1889.7072639481387 L-723.9176043295449,-1889.7097176785132 L-723.6085721665297,-1889.7153392356229 L-723.3064994126129,-1889.7240744807998 " />
			<path d="M-724.184996337563,-222.34387219716865 L-645.934527523576,-225.04318388056708 " />
			<path d="M-723.3064994126128,-1889.7240744807998 L-645.0560305986257,-1892.423386164198 " />
			<path d="M-645.0560305986257,-1892.423386164198 L-644.7153941189409,-1892.4374418030059 L-644.3927458859215,-1892.4554567826945 L-644.0923367387605,-1892.4771937587695 L-643.8181245202296,-1892.5023663500258 L-643.5737219327287,-1892.5306429115742 L-643.3623489415065,-1892.5616509042102 L-643.2699368393147,-1892.578052784482 L-643.18679035213,-1892.5949818025583 L-643.1131835662671,-1892.612382153169 L-643.0493591211134,-1892.6301964773304 " />
			<path d="M-643.9276319169237,-225.67538952549498 L-644.0175751667088,-225.6165821905575 L-644.1092918704629,-225.56098933199058 L-644.2026734584158,-225.5086767579148 L-644.2976093899878,-225.4597063934096 L-644.3939872846431,-225.41413620720928 L-644.4916930549205,-225.37202014308266 L-644.5906110414835,-225.33340805597692 L-644.6906241500338,-225.2983456530017 L-644.7916139899205,-225.26687443932335 L-644.8934610142857,-225.2390316690331 L-644.9960446615781,-225.21485030104742 L-645.0992434982687,-225.194358960093 L-645.2029353625965,-225.17758190282206 L-645.3069975091785,-225.16453898909853 L-645.4113067543099,-225.15524565848895 L-645.5157396217824,-225.14971291198586 " />
			<path d="M-21.957525737789453,-1.4955698316151085 L-22.06918004140973,-1.533238603465128 L-22.179201832174456,-1.5755001951916459 L-22.287423507774957,-1.6222902273631652 L-22.393680208118035,-1.6735374221231778 L-22.4978100664665,-1.7291637117716823 L-22.599654456019795,-1.7890843576900517 L-22.699058231558993,-1.8532080794280814 L-22.795869965788143,-1.921437193756573 L-22.889942180011868,-1.9936677634736224 L-22.981131568797892,-2.0697897557379403 L-23.069299218282143,-2.149687209687993 L-23.154310817783966,-2.2332384130916276 L-23.23603686440905,-2.3203160877570808 L-23.314352860328402,-2.4107875834229207 L-23.389139502432773,-2.5045150798315623 L-23.460282864073747,-2.6013557966785283 L-23.527674568614522,-2.7011622111176212 L-23.591211954526063,-2.8037822824906717 L-23.650798231777127,-2.9090596839395277 L-23.706342629279884,-3.0168340405474394 L-23.75776053316656,-3.1269411736470896 L-23.804973615686457,-3.239213350923081 L-23.84790995452696,-3.3534795419278915 L-23.886504142376783,-3.4695656786220628 L-23.92069738656459,-3.5872949205417193 L-23.950437598621114,-3.7064879241894726 L-23.97567947362842,-3.8269631162383444 L-23.996384559235416,-3.948536970132501 L-24.012521314234444,-4.071024285663458 L-24.024065156609765,-4.194238471095852 L-24.03099850098471,-4.3179918274130005 L-24.033310785410436,-4.44209583424924 " />
			<path d="M-723.8769800394077,-222.41154954385811 L-723.9990430533338,-222.40985780334998 L-724.1209086495749,-222.4133157718263 L-724.2423797300174,-222.42191785657607 L-724.3632598346147,-222.4356501451028 L-724.4833534591286,-222.45449042762596 L-724.6024663713266,-222.4784082330014 L-724.7204059251219,-222.50736487800387 L-724.836981372147,-222.54131352989086 " />
			<path d="M-724.836981372147,-222.54131352989086 L-724.9486356757673,-222.5789823017409 L-725.0586574665319,-222.6212438934674 L-725.1668791421325,-222.66803392563892 L-725.2731358424755,-222.71928112039893 L-725.3772657008241,-222.77490741004743 L-725.4791100903773,-222.8348280559658 L-725.5785138659165,-222.89895177770384 L-725.6753256001457,-222.96718089203233 L-725.7693978143694,-223.03941146174938 L-725.8605872031554,-223.1155334540137 L-725.9487548526397,-223.19543090796375 L-726.0337664521414,-223.27898211136738 L-726.1154924987666,-223.36605978603285 L-726.1938084946859,-223.4565312816987 L-726.2685951367903,-223.55025877810732 L-726.3397384984313,-223.6470994949543 L-726.407130202972,-223.74690590939338 L-726.4706675888835,-223.84952598076643 L-726.5302538661347,-223.9548033822153 L-726.5857982636373,-224.0625777388232 L-726.6372161675241,-224.17268487192285 L-726.684429250044,-224.28495704919885 L-726.7273655888845,-224.39922324020364 L-726.7659597767343,-224.51530937689782 L-726.8001530209222,-224.63303861881747 L-726.8298932329786,-224.75223162246522 L-726.8551351079859,-224.8727068145141 L-726.8758401935929,-224.99428066840827 L-726.891976948592,-225.1167679839392 L-726.9035207909673,-225.23998216937161 L-726.9104541353422,-225.36373552568875 L-726.912766419768,-225.487839532525 " />
			<path d="M-24.03331078541044,-4.442095834249248 L-24.033309073586484,-35.86798928387043 " />
			<path d="M-726.912766419768,-225.48783953252502 L-726.9127647079441,-256.9137329821462 " />
			<path d="M-24.033309073586487,-35.86798928387042 L-24.02965232722495,-36.024268504201416 L-24.018690914574307,-36.18042678772814 L-24.00045124263774,-36.336087935467724 L-23.97497725238255,-36.49087694608096 L-23.942330312882525,-36.64442091928337 L-23.90258907347445,-36.79634995419464 L-23.855849274284978,-36.94629804046226 L-23.80222351558428,-37.09390394001251 L-23.741840986522135,-37.23881205730462 L-23.674847153899933,-37.380673295991585 L-23.601403411728427,-37.51914589992383 L-23.52168669241542,-37.65389627646971 L-23.435889040520102,-37.784599800169396 L-23.34421715010087,-37.91094159478601 L-23.246891866771257,-38.032617291870096 L-23.144147655663488,-38.14933376400984 L-23.036232036581453,-38.2608098310007 L-22.923404987703815,-38.36677693723315 L-22.8059383192738,-38.46697979866665 L-22.684115018784524,-38.56117701783127 L-22.558228569237322,-38.64914166537535 L-22.428582242115507,-38.73066182675815 L-22.295488366776794,-38.80554111277059 L-22.159267578024515,-38.87359913265401 L-22.02024804367031,-38.934671928677325 L-21.878764673949114,-38.988612371125576 L-21.73515831469106,-39.03529051274828 L-21.589774926194035,-39.07459390181375 L-21.442964749775008,-39.10642785301515 L-21.295081464008025,-39.130715675575715 L-21.146481332681542,-39.14739885800353 L-20.99752234652778,-39.15643720905085 " />
			<path d="M-726.9127647079441,-256.91373298214614 L-726.9091079615825,-257.07001220247713 L-726.8981465489319,-257.22617048600387 L-726.8799068769954,-257.38183163374345 L-726.8544328867401,-257.5366206443567 L-726.8217859472401,-257.6901646175591 L-726.782044707832,-257.8420936524704 L-726.7353049086425,-257.992041738738 L-726.6816791499418,-258.13964763828824 L-726.6212966208798,-258.28455575558036 L-726.5543027882575,-258.4264169942673 L-726.480859046086,-258.56488959819956 L-726.401142326773,-258.6996399747454 L-726.3153446748777,-258.83034349844513 L-726.2236727844585,-258.95668529306175 L-726.1263475011289,-259.0783609901458 L-726.0236032900211,-259.19507746228555 L-725.9156876709391,-259.3065535292764 L-725.8028606220614,-259.4125206355089 L-725.6853939536314,-259.5127234969424 L-725.5635706531422,-259.606920716107 L-725.4376842035949,-259.6948853636511 L-725.3080378764731,-259.7764055250339 L-725.1749440011343,-259.85128481104636 L-725.0387232123821,-259.91934283092974 L-724.8997036780279,-259.98041562695306 L-724.7582203083067,-260.0343560694013 L-724.6146139490487,-260.081034211024 L-724.4692305605516,-260.1203376000895 L-724.3224203841326,-260.1521715512909 L-724.1745370983656,-260.17645937385146 L-724.0259369670391,-260.19314255627927 L-723.8769779808854,-260.2021809073266 " />
			<path d="M-20.99752234652776,-39.15643720905085 L57.36371807109765,-41.89460057717862 " />
			<path d="M-723.8769779808854,-260.20218090732664 L-645.51573756326,-262.9403442754544 " />
			<path d="M57.36371807109765,-41.89460057717863 L57.48578108502376,-41.896292317686765 L57.60764668126475,-41.89283434921044 L57.729117761707386,-41.88423226446068 L57.84999786630466,-41.87049997593392 L57.97009149081849,-41.85165969341079 L58.08920440301653,-41.82774188803535 L58.20714395681179,-41.79878524303285 L58.323719403836854,-41.76483659114588 " />
			<path d="M-645.5157375632599,-262.9403442754543 L-645.3936745493338,-262.94203601596246 L-645.2718089530928,-262.93857804748615 L-645.1503378726502,-262.92997596273636 L-645.0294577680529,-262.9162436742096 L-644.909364143539,-262.8974033916865 L-644.790251231341,-262.87348558631106 L-644.6723116775457,-262.84452894130857 L-644.5557362305207,-262.8105802894216 " />
			<path d="M-644.5557362305207,-262.8105802894216 L-644.447313347046,-262.7740744793988 L-644.3404245886337,-262.7332379246287 L-644.2352234342989,-262.688129261345 L-644.1318609398663,-262.63881325999984 L-644.0304855210733,-262.5853607322616 L-643.9312427404619,-262.5278484293383 L-643.834275098371,-262.46635893177194 L-643.7397218283214,-262.40098053086354 " />
			<path d="M-723.8769791891439,-626.5719937849157 L-645.5157387701713,-629.3101571221799 " />
			<path d="M-643.5459703045408,-630.1398373655549 L-643.6497931054516,-630.0474745602252 L-643.7572490770989,-629.9598724990024 L-643.8681289926552,-629.8772017512933 L-643.982216958554,-629.7996232847762 L-644.0992908348547,-629.7272881519816 L-644.21912266777,-629.6603371961786 L-644.3414791335128,-629.5989007771404 L-644.4661219926003,-629.5430985173213 L-644.5928085537272,-629.4930390689402 L-644.7212921463099,-629.4488199024255 L-644.8513226007761,-629.4105271166303 L-644.982646735669,-629.3782352711903 L-645.1150088506147,-629.3520072413487 L-645.2481512241951,-629.331894095533 L-645.3818146157557,-629.3179349959192 L-645.5157387701714,-629.3101571221799 " />
			<path d="M-21.95752366351806,-405.65639477095266 L-22.06917802922754,-405.694063503302 L-22.17919988306361,-405.736325059735 L-22.287421622496502,-405.783115060826 L-22.39367838721283,-405.8343622287126 L-22.49780831025661,-405.8899884956776 L-22.599652764610422,-405.94990912307355 L-22.699056604840912,-406.0140328304106 L-22.795868403440632,-406.08226193440845 L-22.889940681506168,-406.1544924978035 L-22.981130133401095,-406.23061448768203 L-23.069297845061598,-406.31051194309964 L-23.154309505612137,-406.39406315173113 L-23.23603561196881,-406.4811408352819 L-23.314351666118775,-406.57161234337804 L-23.389138364775096,-406.6653398556402 L-23.46028178111824,-406.7621805916333 L-23.527673538347244,-406.86198702837186 L-23.591210974776242,-406.96460712505046 L-23.650797300224838,-407.06988455465574 L-23.706341743464083,-407.1776589421085 L-23.757759690493426,-407.28776610857193 L-23.804972813438027,-407.4000383215547 L-23.847909189870037,-407.51430455042737 L-23.88650341237214,-407.6303907269629 L-23.92069668817635,-407.748120010505 L-23.950436928726383,-407.8673130573589 L-23.975678829027117,-407.98778829399646 L-23.99638393666025,-408.1093621936571 L-24.012520710361045,-408.23184955592444 L-24.024064568066933,-408.35506378885276 L-24.030997924364776,-408.47881719321305 L-24.033310217279706,-408.6029212484258 " />
			<path d="M-723.8769791891439,-626.5719937849157 L-723.9990420265771,-626.5703020432211 L-724.1209074474626,-626.5737599956915 L-724.2423783545414,-626.5823620496581 L-724.3632582886158,-626.5960942927144 L-724.4833517462894,-626.6149345152177 L-724.6024644961622,-626.6388522462091 L-724.7204038929674,-626.6678088026958 L-724.8369791891438,-626.701757352214 " />
			<path d="M-724.8369791891439,-626.701757352214 L-724.9486335548534,-626.7394260845634 L-725.0586554086894,-626.7816876409964 L-725.1668771481224,-626.8284776420875 L-725.2731339128386,-626.879724809974 L-725.3772638358824,-626.935351076939 L-725.4791082902362,-626.995271704335 L-725.5785121304667,-627.059395411672 L-725.6753239290664,-627.1276245156698 L-725.769396207132,-627.199855079065 L-725.8605856590269,-627.2759770689435 L-725.9487533706874,-627.3558745243611 L-726.033765031238,-627.4394257329926 L-726.1154911375946,-627.5265034165434 L-726.1938071917446,-627.6169749246394 L-726.2685938904009,-627.7107024369017 L-726.339737306744,-627.8075431728947 L-726.407129063973,-627.9073496096333 L-726.4706665004021,-628.009969706312 L-726.5302528258507,-628.1152471359172 L-726.5857972690899,-628.2230215233699 L-726.6372152161192,-628.3331286898333 L-726.6844283390639,-628.4454009028161 L-726.7273647154958,-628.5596671316888 L-726.765958937998,-628.6757533082243 L-726.8001522138021,-628.7934825917664 L-726.8298924543521,-628.9126756386203 L-726.8551343546529,-629.0331508752579 L-726.8758394622861,-629.1547247749186 L-726.8919762359868,-629.2772121371859 L-726.9035200936927,-629.4004263701141 L-726.9104534499905,-629.5241797744744 L-726.9127657429055,-629.6482838296872 " />
			<path d="M-24.033310217279706,-408.60292124842573 L-24.033310217279706,-440.0288152402729 " />
			<path d="M-726.9127657429055,-629.6482838296872 L-726.9127657429055,-661.0741778215342 " />
			<path d="M-24.033310217279706,-440.02881524027293 L-24.02965347942395,-440.1850944632967 L-24.01869207525847,-440.3412527495069 L-24.000452411766013,-440.4969138999141 L-23.974978429893532,-440.6517029131727 L-23.942331498694614,-440.8052468889918 L-23.902590267486055,-440.95717592648487 L-23.85585047637475,-441.10712401529315 L-23.802224725611417,-441.25472991733676 L-23.7418422043267,-441.39963803706894 L-23.674848379303263,-441.5414992781368 L-23.601404644533552,-441.67997188438505 L-23.521687932407534,-441.81472226317646 L-23.435890287467082,-441.9454257890458 L-23.34421840375385,-442.071767585751 L-23.246893126865203,-442.1934432848375 L-23.144148921917857,-442.31015975888863 L-23.03623330870086,-442.42163582769535 L-22.923406265378745,-442.5276029356437 L-22.80593960218135,-442.62780579868905 L-22.68411630658919,-442.7220030193575 L-22.558229861591805,-442.80996766829384 L-22.42858353866154,-442.891487830954 L-22.295489667146015,-442.96636711812573 L-22.159268881839353,-443.03442513904764 L-22.020249350544894,-443.09549793598615 L-21.878765983490194,-443.1494383792241 L-21.735159626498973,-443.19611652150905 L-21.589776239863653,-443.2354199111077 L-21.442966064896716,-443.26725386271204 L-21.29508278016871,-443.2915416855443 L-21.14648264946559,-443.30822486811184 L-20.997523663518074,-443.31726321916665 " />
			<path d="M-726.9127657429055,-661.0741778215344 L-726.9091090050498,-661.2304570445582 L-726.8981476008843,-661.3866153307683 L-726.8799079373919,-661.5422764811756 L-726.8544339555193,-661.6970654944341 L-726.8217870243204,-661.8506094702533 L-726.7820457931118,-662.0025385077463 L-726.7353060020006,-662.1524865965546 L-726.6816802512373,-662.3000924985981 L-726.6212977299525,-662.4450006183304 L-726.554303904929,-662.5868618593983 L-726.4808601701593,-662.7253344656465 L-726.4011434580333,-662.8600848444379 L-726.3153458130929,-662.9907883703072 L-726.2236739293796,-663.1171301670124 L-726.1263486524911,-663.2388058660989 L-726.0236044475437,-663.3555223401501 L-725.9156888343267,-663.4669984089568 L-725.8028617910046,-663.5729655169051 L-725.6853951278072,-663.6731683799504 L-725.563571832215,-663.767365600619 L-725.4376853872176,-663.8553302495553 L-725.3080390642873,-663.9368504122154 L-725.1749451927718,-664.0117296993872 L-725.0387244074651,-664.0797877203091 L-724.8997048761707,-664.1408605172476 L-724.758221509116,-664.1948009604855 L-724.6146151521248,-664.2414791027704 L-724.4692317654894,-664.2807824923692 L-724.3224215905225,-664.3126164439735 L-724.1745383057945,-664.3369042668057 L-724.0259381750914,-664.3535874493733 L-723.8769791891439,-664.3626258004281 " />
			<path d="M-20.997523663518066,-443.31726321916665 L57.36371675545439,-446.0554265564309 " />
			<path d="M-723.8769791891439,-664.3626258004281 L-645.5157387701713,-667.1007891376923 " />
			<path d="M57.36371675545438,-446.0554265564309 L57.48577959288761,-446.05711829812554 L57.607645013773116,-446.0536603456551 L57.72911592085195,-446.0450582916885 L57.849995854926306,-446.0313260486322 L57.97008931259993,-446.0124858261289 L58.0892020624727,-445.98856809513745 L58.20714145927793,-445.9596115386507 L58.32371675545436,-445.9256629891325 " />
			<path d="M-645.5157387701714,-667.1007891376923 L-645.3936759327382,-667.1024808793869 L-645.2718105118527,-667.0990229269165 L-645.1503396047739,-667.09042087295 L-645.0294596706995,-667.0766886298936 L-644.9093662130259,-667.0578484073903 L-644.7902534631531,-667.0339306763989 L-644.6723140663479,-667.0049741199122 L-644.5557387701714,-666.971025570394 " />
			<path d="M-644.5557387701714,-666.971025570394 L-644.4156085718763,-666.9229176543679 L-644.2781276022736,-666.8675745937462 L-644.1436269299311,-666.805129660413 L-644.0124304465492,-666.7357332283051 L-643.8848540869948,-666.6595524112963 L-643.7612050684982,-666.5767706607696 L-643.6417811508409,-666.4875873238467 L-643.5268699193193,-666.3922171633398 " />
			<path d="M-723.8769791891439,-1030.7328582876582 L-645.5157387701713,-1033.4710216249225 " />
			<path d="M-643.3329145412682,-1034.5179877881963 L-643.4414222279389,-1034.4022697059934 L-643.5551458628188,-1034.2922121533907 L-643.6737994834823,-1034.1880918743095 L-643.7970847308663,-1034.0901706831705 L-643.9246915995053,-1033.9986948065502 L-644.0562992170519,-1033.9138942640363 L-644.191576651123,-1033.8359822898333 L-644.3301837414411,-1033.7651547965772 L-644.4717719551815,-1033.7015898827062 L-644.6159852633701,-1033.6454473846256 L-644.7624610361329,-1033.5968684747918 L-644.9108309545422,-1033.55597530673 L-645.0607219367686,-1033.5228707078738 L-645.2117570762097,-1033.497637921002 L-645.3635565892359,-1033.4803403949215 L-645.5157387701714,-1033.4710216249227 " />
			<path d="M-21.95752366351807,-809.8172592736954 L-22.06917802922755,-809.8549280060448 L-22.17919988306362,-809.8971895624778 L-22.287421622496517,-809.9439795635689 L-22.393678387212837,-809.9952267314554 L-22.497808310256623,-810.0508529984204 L-22.599652764610433,-810.1107736258164 L-22.699056604840923,-810.1748973331534 L-22.795868403440643,-810.2431264371512 L-22.88994068150618,-810.3153570005463 L-22.981130133401106,-810.3914789904248 L-23.06929784506161,-810.4713764458425 L-23.154309505612147,-810.554927654474 L-23.23603561196882,-810.6420053380248 L-23.314351666118785,-810.7324768461208 L-23.389138364775107,-810.826204358383 L-23.46028178111825,-810.9230450943761 L-23.527673538347255,-811.0228515311147 L-23.591210974776253,-811.1254716277933 L-23.65079730022485,-811.2307490573986 L-23.706341743464094,-811.3385234448513 L-23.757759690493437,-811.4486306113147 L-23.804972813438038,-811.5609028242975 L-23.847909189870048,-811.6751690531702 L-23.88650341237215,-811.7912552297057 L-23.92069668817636,-811.9089845132478 L-23.950436928726393,-812.0281775601017 L-23.97567882902713,-812.1486527967393 L-23.996383936660262,-812.2702266964 L-24.012520710361052,-812.3927140586673 L-24.024064568066944,-812.5159282915955 L-24.030997924364787,-812.6396816959558 L-24.033310217279716,-812.7637857511686 " />
			<path d="M-723.8769791891439,-1030.7328582876585 L-723.9990420265771,-1030.7311665459638 L-724.1209074474626,-1030.7346244984344 L-724.2423783545414,-1030.743226552401 L-724.3632582886158,-1030.7569587954572 L-724.4833517462894,-1030.7757990179605 L-724.6024644961622,-1030.799716748952 L-724.7204038929674,-1030.8286733054388 L-724.8369791891438,-1030.8626218549568 " />
			<path d="M-724.8369791891439,-1030.8626218549568 L-724.9486335548534,-1030.9002905873062 L-725.0586554086894,-1030.9425521437392 L-725.1668771481224,-1030.9893421448303 L-725.2731339128386,-1031.040589312717 L-725.3772638358824,-1031.0962155796817 L-725.4791082902362,-1031.156136207078 L-725.5785121304667,-1031.2202599144148 L-725.6753239290664,-1031.2884890184127 L-725.769396207132,-1031.3607195818076 L-725.8605856590269,-1031.4368415716863 L-725.9487533706874,-1031.5167390271038 L-726.033765031238,-1031.6002902357354 L-726.1154911375946,-1031.687367919286 L-726.1938071917446,-1031.7778394273823 L-726.2685938904009,-1031.8715669396445 L-726.339737306744,-1031.9684076756375 L-726.407129063973,-1032.0682141123762 L-726.4706665004021,-1032.1708342090546 L-726.5302528258507,-1032.27611163866 L-726.5857972690899,-1032.3838860261128 L-726.6372152161192,-1032.4939931925762 L-726.6844283390639,-1032.606265405559 L-726.7273647154958,-1032.7205316344316 L-726.765958937998,-1032.8366178109673 L-726.8001522138021,-1032.954347094509 L-726.8298924543521,-1033.073540141363 L-726.8551343546529,-1033.1940153780008 L-726.8758394622861,-1033.3155892776613 L-726.8919762359868,-1033.4380766399288 L-726.9035200936927,-1033.561290872857 L-726.9104534499905,-1033.6850442772172 L-726.9127657429055,-1033.80914833243 " />
			<path d="M-24.033310217279716,-812.7637857511686 L-24.033310217279716,-844.1896797430156 " />
			<path d="M-726.9127657429055,-1033.80914833243 L-726.9127657429055,-1065.2350423242772 " />
			<path d="M-24.033310217279713,-844.1896797430156 L-24.02965347942396,-844.3459589660395 L-24.018692075258482,-844.5021172522496 L-24.000452411766023,-844.6577784026568 L-23.974978429893543,-844.8125674159154 L-23.942331498694625,-844.9661113917346 L-23.902590267486065,-845.1180404292276 L-23.855850476374762,-845.2679885180358 L-23.802224725611428,-845.4155944200794 L-23.741842204326712,-845.5605025398116 L-23.674848379303274,-845.7023637808795 L-23.601404644533563,-845.8408363871278 L-23.521687932407545,-845.9755867659192 L-23.435890287467096,-846.1062902917885 L-23.34421840375386,-846.2326320884937 L-23.246893126865213,-846.3543077875802 L-23.144148921917868,-846.4710242616313 L-23.036233308700872,-846.582500330438 L-22.923406265378755,-846.6884674383864 L-22.80593960218136,-846.7886703014317 L-22.684116306589203,-846.8828675221002 L-22.558229861591816,-846.9708321710366 L-22.428583538661552,-847.0523523336967 L-22.295489667146025,-847.1272316208684 L-22.159268881839363,-847.1952896417904 L-22.0202493505449,-847.2563624387288 L-21.878765983490204,-847.3103028819668 L-21.735159626498984,-847.3569810242517 L-21.589776239863664,-847.3962844138505 L-21.442966064896726,-847.4281183654548 L-21.29508278016872,-847.452406188287 L-21.1464826494656,-847.4690893708546 L-20.997523663518084,-847.4781277219093 " />
			<path d="M-726.9127657429055,-1065.235042324277 L-726.9091090050498,-1065.3913215473008 L-726.8981476008843,-1065.547479833511 L-726.8799079373919,-1065.7031409839183 L-726.8544339555193,-1065.8579299971768 L-726.8217870243204,-1066.0114739729959 L-726.7820457931118,-1066.163403010489 L-726.7353060020006,-1066.3133510992973 L-726.6816802512373,-1066.4609570013408 L-726.6212977299525,-1066.605865121073 L-726.554303904929,-1066.7477263621408 L-726.4808601701593,-1066.8861989683892 L-726.4011434580333,-1067.0209493471807 L-726.3153458130929,-1067.15165287305 L-726.2236739293796,-1067.2779946697551 L-726.1263486524911,-1067.3996703688415 L-726.0236044475437,-1067.5163868428929 L-725.9156888343267,-1067.6278629116994 L-725.8028617910046,-1067.733830019648 L-725.6853951278072,-1067.8340328826932 L-725.563571832215,-1067.9282301033616 L-725.4376853872176,-1068.016194752298 L-725.3080390642873,-1068.097714914958 L-725.1749451927718,-1068.1725942021299 L-725.0387244074651,-1068.2406522230517 L-724.8997048761707,-1068.3017250199903 L-724.758221509116,-1068.3556654632282 L-724.6146151521248,-1068.4023436055131 L-724.4692317654894,-1068.4416469951118 L-724.3224215905225,-1068.473480946716 L-724.1745383057945,-1068.4977687695484 L-724.0259381750914,-1068.514451952116 L-723.8769791891439,-1068.5234903031708 " />
			<path d="M-20.997523663518077,-847.4781277219093 L57.36371675545438,-850.2162910591736 " />
			<path d="M-723.8769791891439,-1068.5234903031708 L-645.5157387701713,-1071.261653640435 " />
			<path d="M57.36371675545438,-850.2162910591736 L57.48577959288761,-850.2179828008682 L57.607645013773116,-850.2145248483978 L57.72911592085195,-850.2059227944312 L57.849995854926306,-850.1921905513749 L57.97008931259993,-850.1733503288716 L58.0892020624727,-850.1494325978801 L58.20714145927793,-850.1204760413934 L58.32371675545436,-850.0865274918752 " />
			<path d="M-645.5157387701714,-1071.261653640435 L-645.3936759327382,-1071.2633453821297 L-645.2718105118527,-1071.259887429659 L-645.1503396047739,-1071.2512853756925 L-645.0294596706995,-1071.2375531326363 L-644.9093662130259,-1071.218712910133 L-644.7902534631531,-1071.1947951791415 L-644.6723140663479,-1071.1658386226547 L-644.5557387701714,-1071.1318900731367 " />
			<path d="M-644.5557387701714,-1071.1318900731367 L-644.4680658057374,-1071.1027475157034 L-644.381373946853,-1071.070773601236 L-644.2957443771193,-1071.0359982720786 L-644.2112572853439,-1070.9984540939936 L-644.1279917904479,-1070.9581762256637 L-644.046025867374,-1070.9152023857678 L-643.9654362740655,-1070.8695728176588 L-643.8862984795854,-1070.821330251677 L-643.8086865934433,-1070.7705198651356 L-643.7326732961939,-1070.7171892400124 L-643.6583297713745,-1070.661388318393 L-643.585725638845,-1070.6031693556997 L-643.5149288895908,-1070.5425868717587 L-643.4460058220524,-1070.4796975997424 L-643.379020980039,-1070.4145604330422 L-643.3140370922861,-1070.3472363701162 " />
			<path d="M-723.8769791891439,-1434.893722790401 L-645.5157387701713,-1437.6318861276652 " />
			<path d="M-643.1198337450762,-1438.9436504933005 L-643.1737836792743,-1438.871177152408 L-643.2296254852623,-1438.8002734634888 L-643.2873140530645,-1438.7309967037677 L-643.346802780859,-1438.6634028362084 L-643.4080436126236,-1438.5975464643052 L-643.470987076956,-1438.533480787973 L-643.5355823270384,-1438.4712575605724 L-643.6017771817113,-1438.4109270471017 L-643.6695181676276,-1438.3525379835921 L-643.7387505624481,-1438.296137537738 L-643.809418439048,-1438.241771270794 L-643.8814647106957,-1438.1894831007703 L-643.9548311771679,-1438.1393152669539 L-644.0294585717652,-1438.0913082957877 L-644.1052866091887,-1438.0455009681327 L-644.1822540342397,-1438.0019302879398 L-644.260298671302,-1437.9606314523571 L-644.3393574745696,-1437.921637823298 L-644.419366578975,-1437.8849809004894 L-644.5002613517809,-1437.850690296027 L-644.5819764447922,-1437.818793710454 L-644.6644458471449,-1437.789316910383 L-644.7476029386306,-1437.7622837076826 L-644.8313805435139,-1437.7377159402408 L-644.915710984798,-1437.7156334543251 L-645.0005261388952,-1437.6960540885489 L-645.0857574906586,-1437.6789936594623 L-645.1713361887294,-1437.6644659487747 L-645.2571931011564,-1437.6524826922216 L-645.3432588712425,-1437.6430535700852 L-645.4294639735712,-1437.6361861993728 L-645.5157387701714,-1437.6318861276652 " />
			<path d="M-21.957523663518078,-1213.978123776438 L-22.069178029227558,-1214.0157925087874 L-22.179199883063628,-1214.0580540652204 L-22.287421622496524,-1214.1048440663114 L-22.393678387212844,-1214.1560912341981 L-22.49780831025663,-1214.2117175011629 L-22.59965276461044,-1214.271638128559 L-22.69905660484093,-1214.335761835896 L-22.79586840344065,-1214.403990939894 L-22.889940681506186,-1214.4762215032888 L-22.981130133401113,-1214.5523434931674 L-23.069297845061616,-1214.632240948585 L-23.154309505612154,-1214.7157921572166 L-23.236035611968827,-1214.8028698407672 L-23.314351666118792,-1214.8933413488635 L-23.389138364775114,-1214.9870688611256 L-23.46028178111826,-1215.0839095971187 L-23.527673538347262,-1215.1837160338573 L-23.59121097477626,-1215.2863361305358 L-23.650797300224855,-1215.3916135601412 L-23.7063417434641,-1215.499387947594 L-23.757759690493444,-1215.6094951140574 L-23.804972813438045,-1215.7217673270402 L-23.847909189870055,-1215.8360335559128 L-23.886503412372157,-1215.9521197324484 L-23.920696688176367,-1216.0698490159903 L-23.9504369287264,-1216.1890420628442 L-23.97567882902714,-1216.309517299482 L-23.99638393666027,-1216.4310911991424 L-24.01252071036106,-1216.55357856141 L-24.02406456806695,-1216.676792794338 L-24.030997924364794,-1216.8005461986984 L-24.033310217279723,-1216.924650253911 " />
			<path d="M-723.8769791891439,-1434.893722790401 L-723.9990420265771,-1434.8920310487063 L-724.1209074474626,-1434.8954890011769 L-724.2423783545414,-1434.9040910551435 L-724.3632582886158,-1434.9178232981997 L-724.4833517462894,-1434.936663520703 L-724.6024644961622,-1434.9605812516945 L-724.7204038929674,-1434.9895378081812 L-724.8369791891438,-1435.0234863576993 " />
			<path d="M-724.8369791891439,-1435.0234863576993 L-724.9486335548534,-1435.0611550900487 L-725.0586554086894,-1435.1034166464817 L-725.1668771481224,-1435.1502066475728 L-725.2731339128386,-1435.2014538154594 L-725.3772638358824,-1435.2570800824242 L-725.4791082902362,-1435.3170007098204 L-725.5785121304667,-1435.3811244171573 L-725.6753239290664,-1435.4493535211552 L-725.769396207132,-1435.52158408455 L-725.8605856590269,-1435.5977060744287 L-725.9487533706874,-1435.6776035298462 L-726.033765031238,-1435.761154738478 L-726.1154911375946,-1435.8482324220286 L-726.1938071917446,-1435.9387039301248 L-726.2685938904009,-1436.032431442387 L-726.339737306744,-1436.12927217838 L-726.407129063973,-1436.2290786151186 L-726.4706665004021,-1436.3316987117971 L-726.5302528258507,-1436.4369761414025 L-726.5857972690899,-1436.5447505288553 L-726.6372152161192,-1436.6548576953187 L-726.6844283390639,-1436.7671299083015 L-726.7273647154958,-1436.881396137174 L-726.765958937998,-1436.9974823137097 L-726.8001522138021,-1437.1152115972516 L-726.8298924543521,-1437.2344046441056 L-726.8551343546529,-1437.3548798807433 L-726.8758394622861,-1437.4764537804037 L-726.8919762359868,-1437.5989411426713 L-726.9035200936927,-1437.7221553755994 L-726.9104534499905,-1437.8459087799597 L-726.9127657429055,-1437.9700128351724 " />
			<path d="M-24.033310217279727,-1216.9246502539108 L-24.033310217279727,-1248.350544245758 " />
			<path d="M-726.9127657429055,-1437.9700128351722 L-726.9127657429055,-1469.3959068270194 " />
			<path d="M-24.03331021727972,-1248.350544245758 L-24.029653479423967,-1248.506823468782 L-24.01869207525849,-1248.6629817549922 L-24.00045241176603,-1248.8186429053994 L-23.97497842989355,-1248.973431918658 L-23.94233149869463,-1249.126975894477 L-23.902590267486072,-1249.2789049319701 L-23.85585047637477,-1249.4288530207784 L-23.802224725611435,-1249.576458922822 L-23.74184220432672,-1249.7213670425542 L-23.67484837930328,-1249.863228283622 L-23.60140464453357,-1250.0017008898703 L-23.521687932407552,-1250.1364512686619 L-23.435890287467103,-1250.267154794531 L-23.344218403753867,-1250.3934965912363 L-23.24689312686522,-1250.5151722903227 L-23.144148921917875,-1250.631888764374 L-23.03623330870088,-1250.7433648331805 L-22.923406265378762,-1250.849331941129 L-22.80593960218137,-1250.9495348041744 L-22.68411630658921,-1251.0437320248427 L-22.558229861591823,-1251.131696673779 L-22.42858353866156,-1251.2132168364392 L-22.295489667146033,-1251.288096123611 L-22.15926888183937,-1251.3561541445329 L-22.02024935054491,-1251.4172269414714 L-21.87876598349021,-1251.4711673847094 L-21.73515962649899,-1251.5178455269943 L-21.58977623986367,-1251.557148916593 L-21.442966064896734,-1251.5889828681973 L-21.295082780168727,-1251.6132706910296 L-21.146482649465607,-1251.629953873597 L-20.99752366351809,-1251.638992224652 " />
			<path d="M-726.9127657429055,-1469.3959068270194 L-726.9091090050498,-1469.5521860500432 L-726.8981476008843,-1469.7083443362535 L-726.8799079373919,-1469.8640054866607 L-726.8544339555193,-1470.0187944999193 L-726.8217870243204,-1470.1723384757383 L-726.7820457931118,-1470.3242675132315 L-726.7353060020006,-1470.4742156020397 L-726.6816802512373,-1470.6218215040833 L-726.6212977299525,-1470.7667296238155 L-726.554303904929,-1470.9085908648833 L-726.4808601701593,-1471.0470634711317 L-726.4011434580333,-1471.1818138499232 L-726.3153458130929,-1471.3125173757924 L-726.2236739293796,-1471.4388591724976 L-726.1263486524911,-1471.560534871584 L-726.0236044475437,-1471.6772513456353 L-725.9156888343267,-1471.7887274144418 L-725.8028617910046,-1471.8946945223904 L-725.6853951278072,-1471.9948973854357 L-725.563571832215,-1472.089094606104 L-725.4376853872176,-1472.1770592550404 L-725.3080390642873,-1472.2585794177005 L-725.1749451927718,-1472.3334587048723 L-725.0387244074651,-1472.4015167257942 L-724.8997048761707,-1472.4625895227327 L-724.758221509116,-1472.5165299659707 L-724.6146151521248,-1472.5632081082556 L-724.4692317654894,-1472.6025114978543 L-724.3224215905225,-1472.6343454494586 L-724.1745383057945,-1472.658633272291 L-724.0259381750914,-1472.6753164548584 L-723.8769791891439,-1472.6843548059132 " />
			<path d="M-20.997523663518088,-1251.638992224652 L57.36371675545437,-1254.3771555619162 " />
			<path d="M-723.8769791891439,-1472.6843548059132 L-645.5157387701713,-1475.4225181431775 " />
			<path d="M57.36371675545436,-1254.3771555619162 L57.485779592887596,-1254.3788473036109 L57.6076450137731,-1254.3753893511403 L57.72911592085194,-1254.3667872971737 L57.84999585492629,-1254.3530550541175 L57.97008931259992,-1254.3342148316142 L58.08920206247269,-1254.3102971006226 L58.20714145927791,-1254.281340544136 L58.32371675545435,-1254.2473919946178 " />
			<path d="M-645.5157387701714,-1475.4225181431775 L-645.3936759327382,-1475.4242098848722 L-645.2718105118527,-1475.4207519324016 L-645.1503396047739,-1475.412149878435 L-645.0294596706995,-1475.3984176353788 L-644.9093662130259,-1475.3795774128755 L-644.7902534631531,-1475.355659681884 L-644.6723140663479,-1475.3267031253972 L-644.5557387701714,-1475.2927545758791 " />
			<path d="M-644.5557387701714,-1475.2927545758791 L-644.448824092827,-1475.2567901108723 L-644.3433987682412,-1475.2166145850751 L-644.2396099642253,-1475.172284081257 L-644.1376025641005,-1475.1238604823027 L-644.037518964448,-1475.0714113848276 L-643.9394988763323,-1475.0150100048154 L-643.8436791302722,-1474.9547350754142 L-643.7501934852327,-1474.8906707370281 L-643.6591724419054,-1474.822906419863 L-643.570743060537,-1474.7515367190865 L-643.4850287835599,-1474.6766612627782 L-643.402149263274,-1474.5983845728556 L-643.3222201948187,-1474.5168159191658 L-643.2453531546685,-1474.4320691669525 L-643.1716554448794,-1474.344262617905 L-643.1012299433008,-1474.2535188450179 " />
			<path d="M-723.8769782440258,-1851.7836299218711 L-645.5157378250533,-1854.5217932558062 " />
			<path d="M-642.9000031323812,-1856.1804114351762 L-642.9513729938036,-1856.0904966660007 L-643.0054433120924,-1856.0022812003604 L-643.0621571473959,-1855.9158579353511 L-643.1214547760525,-1855.8313178807555 L-643.1832737534846,-1855.7487500632026 L-643.2475489799568,-1855.6682414324175 L-643.3142127691307,-1855.5898767696563 L-643.3831949193427,-1855.5137385984258 L-643.4544227875323,-1855.439907097581 L-643.5278213657397,-1855.3684600168897 L-643.6033133600945,-1855.2994725951582 L-643.680819272212,-1855.2330174809983 L-643.76025748291,-1855.169164656324 L-643.8415443381601,-1855.107981362655 L-643.924594237181,-1855.0495320303069 L-644.0093197225821,-1854.9938782105417 L-644.0956315724623,-1854.9410785107498 L-644.1834388943671,-1854.891188532732 L-644.2726492210049,-1854.8442608141477 L-644.363168607621,-1854.8003447731887 L-644.4549017309286,-1854.7594866565375 L-644.5477519894905,-1854.7217294906675 L-644.6416216054478,-1854.6871130365328 L-644.736411727486,-1854.6556737476965 L-644.8320225349333,-1854.627444731943 L-644.9283533428784,-1854.6024557164135 L-645.0253027081983,-1854.5807330163007 L-645.122768536386,-1854.5622995071367 L-645.2206481890627,-1854.547174600705 L-645.3188385920631,-1854.5353742245966 L-645.41723634398,-1854.526910805438 L-645.5157378250533,-1854.5217932558062 " />
			<path d="M-21.957521542841548,-1630.8683669233862 L-22.069175963330384,-1630.9060356208581 L-22.179197872813546,-1630.9482971461255 L-22.28741966856623,-1630.9950871197675 L-22.393676490080786,-1631.0463342639168 L-22.49780647020823,-1631.1019605108409 L-22.599650981739806,-1631.1618811218673 L-22.699054879052994,-1631.2260048164708 L-22.79586673445377,-1631.2942339113265 L-22.88993906885516,-1631.3664644691162 L-22.981128576440643,-1631.4425864568625 L-23.06929634297017,-1631.5224839135476 L-23.154308057396253,-1631.6060351267645 L-23.23603421646773,-1631.693112818128 L-23.314350322009535,-1631.783584337165 L-23.389137070577963,-1631.8773118633885 L-23.46028053520249,-1631.9741526162484 L-23.5276723389373,-1632.0739590726366 L-23.59120981995815,-1632.1765791916177 L-23.65079618795303,-1632.2818566460414 L-23.706340671568462,-1632.3896310606851 L-23.75775865668672,-1632.4997382565628 L-23.804971815323405,-1632.612010501028 L-23.847908224948988,-1632.7262767632903 L-23.88650247805254,-1632.842362974958 L-23.920695781780797,-1632.9600922952043 L-23.95043604750066,-1633.079285380161 L-23.97567797014885,-1633.1997606561224 L-23.996383097247737,-1633.321334596147 L-24.01251988748217,-1633.4438219996352 L-24.02406375874823,-1633.5670362744556 L-24.030997125600546,-1633.6907897211925 L-24.03330942604122,-1633.814893819077 " />
			<path d="M-723.8769782440257,-1851.7836299218711 L-723.9990409257746,-1851.7819381790928 L-724.1209061919806,-1851.7853961174073 L-724.2423769461383,-1851.7939981441832 L-724.363256729799,-1851.8077303470936 L-724.483350040309,-1851.826570516617 L-724.6024626470023,-1851.8504881819588 L-724.7204019053357,-1851.8794446603304 L-724.8369770684592,-1851.9133931195142 " />
			<path d="M-724.8369770684592,-1851.9133931195142 L-724.9486314889481,-1851.951061816986 L-725.0586533984311,-1851.9933233422535 L-725.1668751941838,-1852.0401133158955 L-725.2731320156985,-1852.0913604600448 L-725.3772619958258,-1852.1469867069688 L-725.4791065073574,-1852.2069073179953 L-725.5785104046706,-1852.2710310125988 L-725.6753222600714,-1852.3392601074545 L-725.7693945944728,-1852.4114906652442 L-725.8605841020583,-1852.4876126529905 L-725.9487518685878,-1852.5675101096756 L-726.0337635830139,-1852.6510613228925 L-726.1154897420854,-1852.738139014256 L-726.1938058476272,-1852.828610533293 L-726.2685925961956,-1852.9223380595165 L-726.3397360608202,-1853.0191788123764 L-726.4071278645549,-1853.1189852687646 L-726.4706653455758,-1853.2216053877457 L-726.5302517135707,-1853.3268828421694 L-726.5857961971861,-1853.4346572568131 L-726.6372141823044,-1853.5447644526907 L-726.684427340941,-1853.657036697156 L-726.7273637505666,-1853.7713029594183 L-726.7659580036702,-1853.887389171086 L-726.8001513073984,-1854.0051184913323 L-726.8298915731183,-1854.124311576289 L-726.8551334957665,-1854.2447868522504 L-726.8758386228654,-1854.366360792275 L-726.8919754130998,-1854.4888481957632 L-726.9035192843659,-1854.6120624705836 L-726.9104526512182,-1854.7358159173205 L-726.9127649516589,-1854.859920015205 " />
			<path d="M-24.033309426041225,-1633.814893819077 L-24.033310945522462,-1665.240788289203 " />
			<path d="M-726.912764951659,-1854.8599200152053 L-726.9127664711402,-1886.2858144853312 " />
			<path d="M-24.03331094552246,-1665.2407882892032 L-24.02965421521682,-1665.3970675146033 L-24.018692818583272,-1665.5532258031838 L-24.000453162586407,-1665.7088869559495 L-23.974979188155128,-1665.8636759715494 L-23.942332264325096,-1666.0172199496865 L-23.90259104039535,-1666.169148989469 L-23.85585125645526,-1666.3190970805326 L-23.802225512738254,-1666.4667029847917 L-23.741842998358006,-1666.6116111066947 L-23.67484918008055,-1666.7534723498832 L-23.601405451882073,-1666.8919449581967 L-23.521688746136725,-1667.026695338993 L-23.435891107370995,-1667.1573988668024 L-23.34421922961166,-1667.2837406653778 L-23.246893958441753,-1667.4054163662602 L-23.144149758964208,-1667.5221328420287 L-23.03623415095489,-1667.63360891247 L-22.92340711256579,-1667.7395760219663 L-22.80594045401487,-1667.839778886469 L-22.684117162771436,-1667.9339761085012 L-22.558230721814564,-1668.021940758704 L-22.42858440260686,-1668.1034609225305 L-22.295490534486973,-1668.1783402107653 L-22.159269752240853,-1668.2463982326449 L-22.020250223664462,-1668.307471030433 L-21.87876685897881,-1668.3614114744105 L-21.73516050400191,-1668.4080896173234 L-21.589777119021328,-1668.4473930074369 L-21.44296694534556,-1668.4792269594413 L-21.295083661542048,-1668.5035147825583 L-21.14648353139452,-1668.5201979652943 L-20.997524545632345,-1668.5292363164012 " />
			<path d="M-726.9127664711403,-1886.2858144853315 L-726.9091097408347,-1886.4420937107316 L-726.8981483442011,-1886.598251999312 L-726.8799086882043,-1886.7539131520778 L-726.854434713773,-1886.9087021676776 L-726.821787789943,-1887.0622461458147 L-726.7820465660132,-1887.2141751855972 L-726.735306782073,-1887.3641232766608 L-726.6816810383561,-1887.51172918092 L-726.6212985239758,-1887.656637302823 L-726.5543047056984,-1887.7984985460114 L-726.4808609774999,-1887.936971154325 L-726.4011442717546,-1888.0717215351212 L-726.3153466329888,-1888.2024250629306 L-726.2236747552295,-1888.328766861506 L-726.1263494840596,-1888.4504425623884 L-726.023605284582,-1888.567159038157 L-725.9156896765727,-1888.6786351085982 L-725.8028626381837,-1888.7846022180945 L-725.6853959796327,-1888.8848050825973 L-725.5635726883893,-1888.9790023046294 L-725.4376862474325,-1889.0669669548322 L-725.3080399282247,-1889.1484871186587 L-725.1749460601048,-1889.2233664068935 L-725.0387252778587,-1889.291424428773 L-724.8997057492824,-1889.3524972265611 L-724.7582223845967,-1889.4064376705387 L-724.6146160296198,-1889.4531158134516 L-724.4692326446392,-1889.492419203565 L-724.3224224709634,-1889.5242531555696 L-724.1745391871599,-1889.5485409786866 L-724.0259390570124,-1889.5652241614225 L-723.8769800712502,-1889.5742625125295 " />
			<path d="M-20.997524545632327,-1668.529236316401 L57.36371587334011,-1671.267399650336 " />
			<path d="M-723.87698007125,-1889.5742625125292 L-645.5157396522777,-1892.3124258464643 " />
			<path d="M57.36371587334011,-1671.2673996503363 L57.485778555088984,-1671.2690913931146 L57.607643821294985,-1671.2656334548 L57.729114575452705,-1671.2570314280242 L57.84999435911342,-1671.2432992251138 L57.97008766962343,-1671.2244590555904 L58.08920027631671,-1671.2005413902486 L58.20713953465014,-1671.171584911877 L58.32371469777359,-1671.1376364526932 " />
			<path d="M-645.5157396522777,-1892.3124258464645 L-645.3936769705289,-1892.3141175892429 L-645.2718117043229,-1892.3106596509283 L-645.1503409501652,-1892.3020576241524 L-645.0294611665045,-1892.288325421242 L-644.9093678559944,-1892.2694852517186 L-644.7902552493011,-1892.2455675863769 L-644.6723159909677,-1892.2166111080053 L-644.5557408278443,-1892.1826626488214 " />
			<path d="M-644.5557408278443,-1892.1826626488214 L-644.4256170859097,-1892.1382623494999 L-644.2977540693751,-1892.0876235519625 L-644.1724169440291,-1892.0308512723202 L-644.0498656373986,-1891.9680632464645 L-643.9303542997045,-1891.8993896859054 L-643.8141307767974,-1891.8249730077332 L-643.7014360961685,-1891.744967539272 L-643.5925039671006,-1891.6595391980306 L-643.4875602959946,-1891.5688651476175 L-643.3868227178798,-1891.473133430336 L-643.2905001450754,-1891.3725425772157 L-643.198792333943,-1891.2673011962931 L-643.1118894706266,-1891.1576275399964 L-643.0299717766391,-1891.043749052526 L-642.9532091351141,-1890.925901898175 L-642.8817607384979,-1890.8043304715654 " />
			<path d="M-71.56844301284042,-1666.5204623360062 L-71.56844301284042,-1646.4702561943554 " />
			<path d="M-71.5684430128404,-1295.0965864428672 L-71.5684430128404,-1229.5800361233566 " />
			<path d="M-71.56844301284039,-890.9357219401245 L-71.56844301284039,-825.4191716206138 " />
			<path d="M-71.56844301284038,-486.7748574373817 L-71.56844301284038,-421.2583071178713 " />
			<path d="M-71.56844301284036,-82.61410229639911 L-71.56844301284036,-17.097508423944646 " />
			<path d="M-724.836981372147,-222.54131352989086 L-724.2067964858475,-222.3431292100294 " />
			<path d="M-644.5557362305207,-262.81058028942164 L-643.7396412435193,-262.5539298468968 " />
			<path d="M-724.8369791891438,-626.7017573522141 L-643.5612486163774,-601.1417225663359 " />
			<path d="M-644.5557387701714,-666.971025570394 L-643.5267354604664,-666.6474190004437 " />
			<path d="M-724.8369791891438,-1030.8626218549566 L-643.3483426122971,-1005.2356312283613 " />
			<path d="M-644.5557387701714,-1071.1318900731367 L-643.3138294563862,-1070.7413276624693 " />
			<path d="M-724.8369791891438,-1435.0234863576993 L-643.1354366082169,-1409.3295398903867 " />
			<path d="M-644.5557387701714,-1475.2927545758794 L-643.100923452306,-1474.8352363244944 " />
			<path d="M-724.8369770684593,-1851.9133931195145 L-642.9158251107295,-1826.1504219042413 " />
			<path d="M-644.5557408278441,-1892.1826626488212 L-642.8813119750514,-1891.6560799372062 " />

       </g>

       <!-- solid lines -->
       <g  stroke="rgb(0,0,0)" fill="none">
			<path d="M-69.38037186409424,0.3248668366245824 L57.363716755454405,-4.1039300381758155 " />
			<path d="M61.41143216046993,-3.891772104053641 L61.358122427298326,-3.9072594719183327 L61.29762764623181,-3.922453975834235 L61.15568284763522,-3.9518187659757045 L60.98696477068557,-3.97958367549656 L60.79309826269454,-4.005481313140272 L60.57595036411233,-4.029262270499242 L60.33761232790738,-4.050697523954111 L60.08037947965718,-4.069580640296406 L59.80672911230815,-4.08572976479319 L59.519296628490366,-4.09898937254755 L59.22085016014959,-4.109231766288371 L58.91426390992336,-4.116358306164868 L58.60249047099846,-4.1203003597022665 L58.28853239202442,-4.121019962770056 L57.97541326092872,-4.118510185197319 L57.66614858611213,-4.112795197514066 L57.363716755454426,-4.103930038175816 " />
			<path d="M61.41143216046987,-1671.0553381778677 L61.31075905466674,-1671.0828943154106 L61.18737462590072,-1671.1094164111446 L61.04223359829407,-1671.1346992423778 L60.876459044195286,-1671.1585471756002 L60.691333694069115,-1671.1807756802573 L60.4882900109838,-1671.2012127566095 L60.268899106497365,-1671.2197002666323 L60.03485858370938,-1671.2360951576577 L59.78797940154654,-1671.250270569286 L59.53017186192335,-1671.2621168150065 L59.26343082820659,-1671.2715422309307 L58.98982028936008,-1671.2784738850685 L58.711457389209436,-1671.2828581416613 L58.430496044405,-1671.2846610762053 L58.14911027784403,-1671.2838687379526 L57.86947739651481,-1671.2804872578583 " />
			<path d="M-69.38037186409424,0.3248668366245824 L-69.61403911638074,0.3341087283021955 L-69.84011931046653,0.34523274141080695 L-70.05723536787036,0.3581711184047401 L-70.26406481161985,0.3728450502551323 L-70.45934782159922,0.389165156484102 L-70.64189490824754,0.40703202959073514 L-70.81059415786595,0.4263368405527359 L-70.96441800540215,0.44696200171556233 L-71.10242949345835,0.46878188303132307 L-71.2237879793982,0.4916635772847462 L-71.32775425579057,0.5154677096451483 L-71.4136950530004,0.5400492866133354 L-71.48108689650141,0.5652585791924097 L-71.50769419564182,0.578050757600612 L-71.52951929541503,0.5909420349029983 L-71.54652894840876,0.6039127730857342 L-71.55869724285392,0.616943213087719 L-71.56600564209748,0.6300135049006862 L-71.56844301284036,0.6431037378078412 " />
			<path d="M-71.56844301284036,0.6431037378078442 L-71.56585527620406,0.6565915500072846 L-71.55809625153324,0.6700575478906174 L-71.54517848777314,0.6834799524228009 L-71.52712287728035,0.6968370550738632 L-71.50395862203284,0.7101072529288761 L-71.4757231864006,0.7232690836271144 L-71.404229566602,0.7491827048689313 " />
			<path d="M-71.40422956660201,0.7491827048689315 L-61.411432160469936,3.891772104053641 " />
			<path d="M-61.41143216046993,3.891772104053641 L-61.358122427298326,3.9072594719183327 L-61.29762764623181,3.922453975834235 L-61.15568284763522,3.9518187659757045 L-60.98696477068556,3.97958367549656 L-60.79309826269454,4.005481313140272 L-60.57595036411233,4.029262270499242 L-60.33761232790738,4.050697523954111 L-60.080379479657175,4.069580640296406 L-59.80672911230815,4.08572976479319 L-59.51929662849037,4.09898937254755 L-59.22085016014959,4.109231766288371 L-58.91426390992336,4.116358306164868 L-58.602490470998454,4.1203003597022665 L-58.28853239202442,4.121019962770056 L-57.97541326092872,4.118510185197319 L-57.66614858611213,4.112795197514066 L-57.363716755454405,4.1039300381758155 " />
			<path d="M-57.363716755454405,4.1039300381758155 L69.38037186409424,-0.3248668366245824 " />
			<path d="M69.38037186409424,-0.32486683662458243 L69.61403911638072,-0.3341087283021955 L69.84011931046653,-0.34523274141080695 L70.05723536787036,-0.3581711184047402 L70.26406481161985,-0.37284505025513237 L70.45934782159922,-0.38916515648410194 L70.64189490824754,-0.4070320295907352 L70.81059415786595,-0.426336840552736 L70.96441800540215,-0.4469620017155624 L71.10242949345833,-0.46878188303132295 L71.2237879793982,-0.49166357728474624 L71.32775425579057,-0.5154677096451485 L71.4136950530004,-0.5400492866133354 L71.48108689650141,-0.5652585791924096 L71.50769419564182,-0.578050757600612 L71.52951929541503,-0.5909420349029985 L71.54652894840876,-0.6039127730857342 L71.55869724285392,-0.6169432130877193 L71.56600564209748,-0.6300135049006862 L71.56844301284036,-0.6431037378078427 " />
			<path d="M71.56844301284036,-0.6431037378078442 L71.56585527620406,-0.6565915500072846 L71.55809625153324,-0.6700575478906174 L71.54517848777314,-0.6834799524228008 L71.52712287728035,-0.6968370550738632 L71.50395862203284,-0.7101072529288761 L71.4757231864006,-0.7232690836271144 L71.40422956660201,-0.74918270486893 " />
			<path d="M71.40422956660194,-1667.7005908445608 L71.47572318640054,-1667.7265044658027 L71.50395862203278,-1667.739666296501 L71.52712287728029,-1667.752936494356 L71.54517848777309,-1667.766293597007 L71.55809625153319,-1667.779716001539 L71.565855276204,-1667.7931819994226 L71.5684430128403,-1667.806669811622 " />
			<path d="M71.5684430128403,-1667.806669811622 L71.565855276204,-1667.8201576238214 L71.55809625153319,-1667.8336236217049 L71.54517848777309,-1667.847046026237 L71.52712287728029,-1667.860403128888 L71.50395862203278,-1667.873673326743 L71.47572318640054,-1667.8868351574413 L71.40422956660196,-1667.9127487786832 " />
			<path d="M61.411432160469936,-3.891772104053641 L71.40422956660201,-0.7491827048689315 " />
			<path d="M61.41143216046988,-1671.0553381778677 L71.40422956660196,-1667.9127487786832 " />
			<path d="M-736.3534490239759,-226.0794918352746 L-658.1029802099889,-228.77880351867304 " />
			<path d="M-735.4749520990258,-1893.4596941189056 L-657.2244832850388,-1896.159005802304 " />
			<path d="M-654.0467732449536,-228.56879884107562 L-654.1007050387731,-228.58410851251605 L-654.1618100435451,-228.59912937412932 L-654.3049339304539,-228.6281607045338 L-654.4747665444098,-228.65561324470713 L-654.6696723045003,-228.68122261168037 L-654.8877741617093,-228.70474217325005 L-655.1269716759255,-228.72594542318117 L-655.3849612443282,-228.74462816258603 L-655.6592582863423,-228.7606104664711 L-655.9472211715071,-228.77373841651314 L-656.2460766598219,-228.78388558337684 L-656.5529466095634,-228.79095424429823 L-656.8648756953634,-228.7948763242086 L-657.1788598696075,-228.79561405133427 L-657.491875293057,-228.79316032095983 L-657.8009074560722,-228.78753876385008 L-658.102980209989,-228.77880351867307 " />
			<path d="M-653.1682763200032,-1895.9490011247067 L-653.2222081138227,-1895.964310796147 L-653.2833131185947,-1895.9793316577602 L-653.4264370055035,-1896.0083629881647 L-653.5962696194595,-1896.0358155283382 L-653.7911753795499,-1896.0614248953113 L-654.009277236759,-1896.084944456881 L-654.2484747509751,-1896.1061477068122 L-654.5064643193779,-1896.124830446217 L-654.7807613613919,-1896.140812750102 L-655.0687242465567,-1896.1539407001442 L-655.3675797348716,-1896.1640878670078 L-655.674449684613,-1896.1711565279293 L-655.986378770413,-1896.1750786078396 L-656.3003629446572,-1896.1758163349652 L-656.6133783681066,-1896.1733626045907 L-656.9224105311218,-1896.167741047481 L-657.2244832850387,-1896.1590058023041 " />
			<path d="M-736.353449023976,-226.0794918352746 L-736.585957694505,-226.07041281234257 L-736.8108607240741,-226.05948564952632 L-737.0267975464766,-226.04677645144213 L-737.232461837187,-226.03236210325002 L-737.4266094160605,-226.0163298055319 L-737.6080657740857,-225.99877654676558 L-737.7757331786568,-225.97980851658642 L-737.9285973143814,-225.95954046338576 L-738.0657334192513,-225.93809500013302 L-738.1863118790528,-225.91560186261978 L-738.2896032461749,-225.89219712461463 L-738.3749826524519,-225.86802237467535 L-738.4419335893457,-225.84322385959945 L-738.4683673851598,-225.83063744876253 L-738.4900510326005,-225.81795159969417 L-738.5069517250832,-225.80518550563124 L-738.5190438924636,-225.79235848121837 L-738.5263092397239,-225.77948993328562 L-738.528736774653,-225.76659933148667 " />
			<path d="M-738.528736774653,-225.76659933148667 L-738.5260870503065,-225.75309224856733 L-738.5181280456527,-225.7396047948685 L-738.5048729768205,-225.7261593666484 L-738.4863438541869,-225.7127782903808 L-738.462571445829,-225.69948378568148 L-738.4335952264324,-225.68629792841193 L-738.3602323786683,-225.66033952119108 " />
			<path d="M-735.4749520990257,-1893.4596941189059 L-735.7074607695547,-1893.4506150959737 L-735.9323637991238,-1893.4396879331575 L-736.1483006215262,-1893.4269787350734 L-736.3539649122366,-1893.4125643868813 L-736.5481124911101,-1893.3965320891632 L-736.7295688491354,-1893.3789788303968 L-736.8972362537064,-1893.3600108002177 L-737.050100389431,-1893.339742747017 L-737.1872364943009,-1893.3182972837642 L-737.3078149541025,-1893.295804146251 L-737.4111063212246,-1893.2723994082457 L-737.4964857275015,-1893.2482246583065 L-737.5634366643953,-1893.2234261432307 L-737.5898704602095,-1893.2108397323937 L-737.6115541076501,-1893.1981538833254 L-737.6284548001329,-1893.1853877892624 L-737.6405469675133,-1893.1725607648495 L-737.6478123147735,-1893.1596922169167 L-737.6502398497026,-1893.146801615118 " />
			<path d="M-737.6502398497026,-1893.146801615118 L-737.6475901253561,-1893.1332945321985 L-737.6396311207023,-1893.1198070784997 L-737.6263760518701,-1893.1063616502795 L-737.6078469292365,-1893.092980574012 L-737.5840745208786,-1893.0796860693126 L-737.5550983014821,-1893.0665002120431 L-737.481735453718,-1893.0405418048222 " />
			<path d="M-738.3602323786685,-225.6603395211911 L-728.2412033025986,-222.55387687476613 " />
			<path d="M-728.2412033025985,-222.55387687476608 L-728.187271508779,-222.53856720332564 L-728.126166504007,-222.52354634171238 L-727.9830426170981,-222.4945150113079 L-727.8132100031422,-222.46706247113457 L-727.6183042430517,-222.44145310416133 L-727.4002023858427,-222.41793354259164 L-727.1610048716266,-222.39673029266052 L-726.9030153032238,-222.37804755325567 L-726.6287182612098,-222.3620652493706 L-726.340755376045,-222.34893729932855 L-726.0418998877301,-222.33879013246485 L-725.7350299379887,-222.33172147154346 L-725.4231008521887,-222.3277993916331 L-725.1091166779445,-222.32706166450743 L-724.796101254495,-222.32951539488187 L-724.4870690914798,-222.33513695199161 L-724.184996337563,-222.34387219716862 " />
			<path d="M-645.934527523576,-225.04318388056708 L-645.702018853047,-225.05226290349913 L-645.4771158234779,-225.06319006631537 L-645.2611790010754,-225.07589926439957 L-645.0555147103651,-225.09031361259167 L-644.8613671314915,-225.10634591030978 L-644.6799107734663,-225.1238991690761 L-644.5122433688953,-225.14286719925528 L-644.3593792331707,-225.16313525245593 L-644.2222431283008,-225.18458071570868 L-644.1016646684992,-225.2070738532219 L-643.9983733013771,-225.23047859122707 L-643.9129938951002,-225.25465334116635 L-643.8460429582063,-225.27945185624225 L-643.8196091623922,-225.29203826707916 L-643.7979255149515,-225.30472411614753 L-643.7810248224688,-225.31749021021045 L-643.7689326550884,-225.33031723462332 L-643.7616673078281,-225.34318578255608 L-643.759239772899,-225.35607638435502 " />
			<path d="M-643.759239772899,-225.35607638435502 L-643.7618894972455,-225.36958346727437 L-643.7698485018993,-225.38307092097318 L-643.7831035707316,-225.3965163491933 L-643.8016326933651,-225.40989742546088 L-643.825405101723,-225.42319193016021 L-643.8543813211196,-225.43637778742976 L-643.9277441688837,-225.46233619465062 " />
			<path d="M-643.0493591211134,-1892.6301964773304 L-642.9759689605407,-1892.6560775644136 L-642.9469788627017,-1892.6692328808197 L-642.9231924585257,-1892.6825023280842 L-642.9046492459386,-1892.6958638719545 L-642.8913800164141,-1892.7092953252488 L-642.8834068038437,-1892.7227743846993 L-642.8807428479488,-1892.736278667986 " />
			<path d="M-642.8807428479488,-1892.736278667986 L-642.8833925722953,-1892.7497857509054 L-642.8913515769491,-1892.7632732046043 L-642.9046066457813,-1892.7767186328244 L-642.9231357684149,-1892.790099709092 L-642.9469081767728,-1892.8033942137913 L-642.9758843961694,-1892.8165800710608 L-643.0492472439335,-1892.8425384782818 " />
			<path d="M-654.0467732449534,-228.5687988410756 L-643.9277441688836,-225.46233619465062 " />
			<path d="M-653.1682763200033,-1895.9490011247067 L-643.0492472439335,-1892.8425384782818 " />
			<path d="M-20.99752440505024,-1.3658058455823507 L57.36371601257517,-4.103969213710123 " />
			<path d="M-723.8769800394077,-222.41154954385803 L-645.5157396217824,-225.14971291198583 " />
			<path d="M60.399502739633895,-7.39241713889055 L60.39584599327236,-7.236137918559559 L60.38488458062172,-7.079979635032839 L60.36664490868515,-6.924318487293253 L60.34117091842997,-6.769529476680012 L60.308523978929934,-6.615985503477601 L60.26878273952186,-6.464056468566331 L60.222042940332386,-6.314108382298712 L60.168417181631696,-6.166502482748465 L60.10803465256955,-6.021594365456354 L60.04104081994735,-5.87973312676939 L59.96759707777584,-5.7412605228371465 L59.88788035846284,-5.606510146291263 L59.80208270656752,-5.475806622591578 L59.71041081614828,-5.349464827974961 L59.613085532818666,-5.227789130890877 L59.5103413217109,-5.111072658751133 L59.40242570262886,-4.99959659176027 L59.28959865375123,-4.893629485527821 L59.172131985321215,-4.793426624094322 L59.05030868483193,-4.699229404929699 L58.92442223528474,-4.611264757385623 L58.79477590816292,-4.529744596002819 L58.6616820328242,-4.454865309990382 L58.52546124407193,-4.386807290106965 L58.38644170971772,-4.3257344940836475 L58.24495833999653,-4.271794051635396 L58.10135198073848,-4.225115910012691 L57.95596859224145,-4.1858125209472234 L57.80915841582242,-4.153978569745824 L57.66127513005544,-4.129690747185261 L57.512674998728954,-4.113007564757446 L57.3637160125752,-4.103969213710121 " />
			<path d="M-642.4799528947236,-228.43816083716627 L-642.4814958141054,-228.33665843937686 L-642.486122992846,-228.2351513895779 L-642.4938297274937,-228.13374286803645 L-642.5046081842775,-228.0325359548671 L-642.5184474070714,-227.9316335252528 L-642.5353333285303,-227.83113814487402 L-642.5552487843894,-227.73115196565223 L-642.5781735309113,-227.63177662191416 L-642.6040842654636,-227.53311312708226 L-642.6329546502056,-227.4352617709961 L-642.6647553388602,-227.3383220179694 L-642.6994540065442,-227.24239240568622 L-642.7370153826254,-227.14757044503892 L-642.7774012865754,-227.05395252101 L-642.8205706667788,-226.96163379469826 L-642.8664796422623,-226.87070810658915 L-642.9150815472979,-226.78126788116748 L-642.9663269788387,-226.69340403296923 L-643.0201638467362,-226.6072058741687 L-643.0765374266888,-226.52276102379386 L-643.1353904158683,-226.44015531866322 L-643.1966629911675,-226.359472726134 L-643.2602928700089,-226.2807952587507 L-643.3262153736546,-226.20420289088068 L-643.3943634929504,-226.12977347742154 L-643.4646679564404,-226.05758267466288 L-643.5370573007796,-225.98770386338285 L-643.6114579433754,-225.92020807425783 L-643.6877942571836,-225.8551639156609 L-643.7659886475811,-225.79263750392258 L-643.8459616312407,-225.73269239612455 L-643.9276319169236,-225.675389525495 " />
			<path d="M-20.997524405050235,-1.3658058455823485 L-21.119587418976348,-1.3641141050742185 L-21.24145301521734,-1.3675720735505417 L-21.362924095659974,-1.3761741583003029 L-21.48380420025725,-1.3899064468270628 L-21.603897824771074,-1.4087467293501907 L-21.723010736969115,-1.4326645347256344 L-21.840950290764383,-1.4616211797281262 L-21.957525737789428,-1.4955698316151 " />
			<path d="M58.32371940383687,-41.76483659114587 L58.435373707457146,-41.72716781929585 L58.54539549822187,-41.684906227569336 L58.65361717382237,-41.638116195397814 L58.75987387416544,-41.586869000637805 L58.864003732513915,-41.5312427109893 L58.96584812206721,-41.47132206507093 L59.06525189760641,-41.4071983433329 L59.16206363183555,-41.338969229004405 L59.25613584605928,-41.266738659287356 L59.34732523484531,-41.19061666702304 L59.435492884329555,-41.11071921307299 L59.520504483831374,-41.02716800966935 L59.60223053045647,-40.9400903350039 L59.680546526375814,-40.84961883933806 L59.755333168480185,-40.75589134292942 L59.826476530121155,-40.659050626082454 L59.89386823466193,-40.55924421164336 L59.957405620573475,-40.45662414027031 L60.01699189782454,-40.351346738821455 L60.072536295327296,-40.24357238221354 L60.12395419921397,-40.13346524911389 L60.17116728173387,-40.0211930718379 L60.21410362057437,-39.90692688083309 L60.252697808424195,-39.79084074413892 L60.286891052612006,-39.673111502219264 L60.31663126466853,-39.553918498571505 L60.34187313967583,-39.43344330652264 L60.36257822528283,-39.31186945262848 L60.378714980281856,-39.189382137097525 L60.39025882265718,-39.06616795166513 L60.39719216703212,-38.942414595347984 L60.399504451457844,-38.818310588511764 " />
			<path d="M-643.7397218283214,-262.40098053086354 L-643.6677323897313,-262.34734481136377 L-643.5973574842751,-262.2914468566116 L-643.528658595875,-262.233335502559 L-643.4616957441795,-262.17306151892177 L-643.3965274321267,-262.11067756482447 L-643.3332105948332,-262.046238142794 L-643.2718005498507,-261.97979955114243 L-643.2123509488381,-261.9114198347818 L-643.1549137306876,-261.841158734512 L-643.0995390761477,-261.76907763482774 L-643.0462753639828,-261.6952395102892 L-642.9951691287052,-261.6197088705032 L-642.9462650199208,-261.5425517037641 L-642.8996057633198,-261.46383541940185 L-642.8552321233491,-261.3836287888891 L-642.8131828675978,-261.3020018857583 L-642.7734947329275,-261.2190260243808 L-642.7362023933766,-261.13477369766247 L-642.7013384298672,-261.0493185137091 L-642.6689333017397,-260.96273513151795 L-642.6390153201422,-260.8750991957506 L-642.6116106232961,-260.7864872706456 L-642.5867431536595,-260.6969767731268 L-642.5644346370104,-260.60664590516694 L-642.5447045634654,-260.5155735854661 L-642.5275701704513,-260.4238393805027 L-642.5130464276464,-260.3315234350197 L-642.5011460239014,-260.2387064020049 L-642.4918793561538,-260.1454693722276 L-642.4852545203446,-260.05189380339243 L-642.481277304345,-259.95806144897324 L-642.4799511828996,-259.86405428678745 " />
			<path d="M60.3995027396339,-7.392417138890551 L60.39950445145786,-38.81831058851173 " />
			<path d="M-642.4799528947235,-228.43816083716627 L-642.4799511828996,-259.86405428678745 " />
			<path d="M-20.997523663518066,-405.52663120365423 L57.36371675545439,-408.2647945409185 " />
			<path d="M60.39950330921602,-411.5532425198122 L60.395846571360266,-411.39696329678844 L60.38488516719479,-411.24080501057824 L60.36664550370233,-411.08514386017106 L60.34117152182985,-410.93035484691245 L60.30852459063093,-410.77681087109335 L60.26878335942237,-410.6248818336003 L60.222043568311065,-410.474933744792 L60.168417817547734,-410.3273278427484 L60.10803529626302,-410.1824197230162 L60.04104147123958,-410.0405584819483 L59.96759773646987,-409.9020858757001 L59.887881024343855,-409.7673354969087 L59.8020833794034,-409.6366319710393 L59.71041149569017,-409.51029017433416 L59.61308621880152,-409.38861447524766 L59.51034201385418,-409.2718980011965 L59.402426400637175,-409.1604219323898 L59.28959935731506,-409.05445482444145 L59.17213269411767,-408.9542519613961 L59.050309398525506,-408.86005474072766 L58.92442295352812,-408.7720900917913 L58.79477663059786,-408.69056992913113 L58.66168275908233,-408.6156906419594 L58.52546197377567,-408.5476326210375 L58.38644244248121,-408.486559824099 L58.244959075426515,-408.43261938086107 L58.101352718435294,-408.3859412385761 L57.95596933179997,-408.3466378489774 L57.809159156833026,-408.3148038973731 L57.66127587210502,-408.29051607454085 L57.51267574140191,-408.2738328919733 L57.363716755454405,-408.2647945409185 " />
			<path d="M-642.4799522164097,-632.5986051010736 L-642.4810605507611,-632.5125807833701 L-642.4843847445322,-632.4265418221755 L-642.4899223704655,-632.3405510413638 L-642.4976693851006,-632.2546712296291 L-642.5076201317274,-632.1689650946378 L-642.5197673445161,-632.0834952172412 L-642.5341021538223,-631.9983240057802 L-642.5506140926643,-631.9135136505163 L-642.5692911043649,-631.8291260782206 L-642.5901195513555,-631.7452229069576 L-642.6130842251341,-631.6618654010913 L-642.6381683573695,-631.5791144265529 L-642.665353632146,-631.4970304063963 L-642.6946201993368,-631.4156732766796 L-642.7259466890986,-631.3351024427 L-642.7593102274748,-631.2553767356181 L-642.7946864530982,-631.1765543695002 L-642.8320495349786,-631.0986928988117 L-642.8713721913647,-631.0218491763918 L-642.9126257096642,-630.9460793119413 L-642.9557799674091,-630.8714386310515 L-643.0008034542509,-630.7979816348078 L-643.0476632949685,-630.725761959993 L-643.096325273473,-630.6548323399235 L-643.146753857792,-630.5852445659444 L-643.1989122260135,-630.5170494496126 L-643.2527622931732,-630.4502967855947 L-643.3082647390635,-630.3850353153085 L-643.3653790369433,-630.3213126913334 L-643.4240634831309,-630.2591754426144 L-643.4842752274545,-630.1986689404885 L-643.5459703045408,-630.1398373655549 " />
			<path d="M-20.99752366351806,-405.52663120365423 L-21.119586500951293,-405.5249394619596 L-21.241451921836802,-405.52839741443006 L-21.36292282891564,-405.53699946839663 L-21.48380276298999,-405.55073171145295 L-21.60389622066361,-405.56957193395624 L-21.72300897053638,-405.5934896649477 L-21.840948367341607,-405.6224462214345 L-21.95752366351803,-405.65639477095266 " />
			<path d="M58.32371675545438,-445.9256629891325 L58.435371121163854,-445.88799425678314 L58.54539297499993,-445.84573270035014 L58.65361471443282,-445.79894269925916 L58.75987147914915,-445.7476955313725 L58.864001402192926,-445.69206926440756 L58.96584585654674,-445.6321486370116 L59.06524969677723,-445.56802492967455 L59.16206149537695,-445.4997958256767 L59.256133773442485,-445.42756526228163 L59.34732322533741,-445.3514432724031 L59.435490936997915,-445.2715458169855 L59.52050259754845,-445.187994608354 L59.602228703905126,-445.10091692480324 L59.68054475805509,-445.0104454167071 L59.75533145671141,-444.91671790444497 L59.82647487305456,-444.81987716845185 L59.89386663028356,-444.7200707317133 L59.957404066712556,-444.6174506350347 L60.016990392161155,-444.5121732054294 L60.072534835400404,-444.40439881797664 L60.12395278242975,-444.2942916515132 L60.171165905374345,-444.18201943853046 L60.214102281806355,-444.0677532096578 L60.25269650430846,-443.95166703312225 L60.286889780112666,-443.8339377495802 L60.3166300206627,-443.71474470272625 L60.341871920963435,-443.5942694660887 L60.36257702859657,-443.47269556642806 L60.37871380229736,-443.3502082041607 L60.39025766000325,-443.2269939712324 L60.39719101630109,-443.1032405668721 L60.39950330921602,-442.9791365116594 " />
			<path d="M-643.5268699193193,-666.3922171633398 L-643.4662062699881,-666.3376836512524 L-643.4070105645386,-666.281417381529 L-643.3493252009192,-666.223458653958 L-643.2931914953211,-666.1638489805232 L-643.2386496525861,-666.1026310556708 L-643.1857387374102,-666.0398487257308 L-643.1344966463647,-665.9755469575126 L-643.0849600807528,-665.909771806098 L-643.0371645203235,-665.8425703818555 L-642.9911441978593,-665.7739908166976 L-642.9469320746578,-665.7040822296083 L-642.9045598169238,-665.6328946914607 L-642.8640577730888,-665.5604791891562 L-642.8254549520741,-665.4868875891051 L-642.7887790025144,-665.4121726000783 L-642.7540561929541,-665.3363877354554 L-642.7213113930333,-665.2595872748972 L-642.6905680556756,-665.1818262254678 L-642.6618482002897,-665.1031602822377 L-642.6351723969987,-665.0236457883925 L-642.6105597519072,-664.9433396948781 L-642.5880278934168,-664.8622995196107 L-642.5675929595998,-664.7805833062806 L-642.5492695866408,-664.698249582779 L-642.5330708983537,-664.6153573192788 L-642.5190084967821,-664.5319658859977 L-642.5070924538895,-664.4481350106757 L-642.4973313043453,-664.3639247357961 L-642.4897320394117,-664.2793953755805 L-642.4843001019374,-664.1946074727903 L-642.4810393824579,-664.1096217553638 L-642.4799522164097,-664.0244990929208 " />
			<path d="M60.399503309216044,-411.5532425198123 L60.399503309216044,-442.9791365116594 " />
			<path d="M-642.4799522164097,-632.5986051010738 L-642.4799522164097,-664.0244990929208 " />
			<path d="M-20.997523663518077,-809.6874957063969 L57.36371675545438,-812.4256590436612 " />
			<path d="M60.39950330921602,-815.714107022555 L60.395846571360266,-815.5578277995312 L60.38488516719479,-815.401669513321 L60.36664550370233,-815.2460083629138 L60.34117152182985,-815.0912193496553 L60.30852459063093,-814.9376753738361 L60.26878335942237,-814.7857463363431 L60.222043568311065,-814.6357982475348 L60.168417817547734,-814.4881923454913 L60.10803529626302,-814.343284225759 L60.04104147123958,-814.2014229846911 L59.96759773646987,-814.0629503784429 L59.887881024343855,-813.9281999996515 L59.8020833794034,-813.7974964737822 L59.71041149569017,-813.671154677077 L59.61308621880152,-813.5494789779905 L59.51034201385418,-813.4327625039393 L59.402426400637175,-813.3212864351326 L59.28959935731506,-813.2153193271843 L59.17213269411767,-813.115116464139 L59.050309398525506,-813.0209192434704 L58.92442295352812,-812.9329545945341 L58.79477663059786,-812.8514344318739 L58.66168275908233,-812.7765551447022 L58.52546197377567,-812.7084971237803 L58.38644244248121,-812.6474243268418 L58.244959075426515,-812.5934838836039 L58.101352718435294,-812.546805741319 L57.95596933179997,-812.5075023517202 L57.809159156833026,-812.4756684001159 L57.66127587210502,-812.4513805772837 L57.51267574140191,-812.4346973947161 L57.363716755454405,-812.4256590436613 " />
			<path d="M-642.4799522164097,-1036.7594696038166 L-642.4834523179546,-1036.606574857 L-642.4939445517249,-1036.453788062426 L-642.5114047237378,-1036.301461530302 L-642.5357925726811,-1036.1499465095196 L-642.5670518627517,-1035.9995923777103 L-642.6051105133289,-1035.8507458356185 L-642.6498807651849,-1035.7037501076459 L-642.7012593828487,-1035.5589441504126 L-642.7591278926554,-1035.4166618711586 L-642.8233528559348,-1035.2772313577889 L-642.8937861767064,-1035.1409741223376 L-642.970265443173,-1035.0082043595955 L-643.0526143022257,-1034.8792282226098 L-643.1406428660947,-1034.754343116727 L-643.2341481502114,-1034.633837013808 L-643.3329145412682,-1034.5179877881963 " />
			<path d="M-20.99752366351807,-809.687495706397 L-21.119586500951304,-809.6858039647025 L-21.241451921836813,-809.6892619171729 L-21.36292282891565,-809.6978639711394 L-21.48380276299,-809.7115962141958 L-21.60389622066362,-809.730436436699 L-21.72300897053639,-809.7543541676905 L-21.840948367341618,-809.7833107241772 L-21.957523663518042,-809.8172592736954 " />
			<path d="M58.32371675545438,-850.0865274918752 L58.435371121163854,-850.0488587595258 L58.54539297499993,-850.0065972030928 L58.65361471443282,-849.9598072020018 L58.75987147914915,-849.9085600341152 L58.864001402192926,-849.8529337671503 L58.96584585654674,-849.7930131397543 L59.06524969677723,-849.7288894324173 L59.16206149537695,-849.6606603284195 L59.256133773442485,-849.5884297650243 L59.34732322533741,-849.5123077751458 L59.435490936997915,-849.4324103197282 L59.52050259754845,-849.3488591110967 L59.602228703905126,-849.2617814275459 L59.68054475805509,-849.1713099194499 L59.75533145671141,-849.0775824071876 L59.82647487305456,-848.9807416711946 L59.89386663028356,-848.8809352344559 L59.957404066712556,-848.7783151377773 L60.016990392161155,-848.673037708172 L60.072534835400404,-848.5652633207194 L60.12395278242975,-848.455156154256 L60.171165905374345,-848.3428839412732 L60.214102281806355,-848.2286177124005 L60.25269650430846,-848.112531535865 L60.286889780112666,-847.9948022523229 L60.3166300206627,-847.875609205469 L60.341871920963435,-847.7551339688314 L60.36257702859657,-847.6335600691707 L60.37871380229736,-847.5110727069034 L60.39025766000325,-847.3878584739751 L60.39719101630109,-847.2641050696149 L60.39950330921602,-847.1400010144021 " />
			<path d="M-643.3140370922861,-1070.3472363701162 L-643.2173524534659,-1070.2386445890172 L-643.125844393379,-1070.1251893536037 L-643.0397190125725,-1070.0071261953128 L-642.959170288365,-1069.8847210238528 L-642.8843796379577,-1069.7582495283027 L-642.8155155098344,-1069.6279965561878 L-642.7527330043708,-1069.4942554719264 L-642.6961735245069,-1069.357327496096 L-642.64596445727,-1069.2175210270027 L-642.6022188868654,-1069.0751509460872 L-642.5650353399801,-1068.9305379087277 L-642.5344975638748,-1068.784007622038 L-642.5106743377626,-1068.6358901112883 L-642.4936193179,-1068.486518976601 L-642.4833709167384,-1068.3362306415936 L-642.4799522164097,-1068.1853635956636 " />
			<path d="M60.39950330921603,-815.714107022555 L60.39950330921603,-847.1400010144021 " />
			<path d="M-642.4799522164097,-1036.7594696038163 L-642.4799522164097,-1068.1853635956636 " />
			<path d="M-20.997523663518088,-1213.8483602091396 L57.36371675545437,-1216.586523546404 " />
			<path d="M60.39950330921601,-1219.8749715252977 L60.39584657136025,-1219.718692302274 L60.384885167194774,-1219.5625340160636 L60.366645503702316,-1219.4068728656564 L60.341171521829835,-1219.2520838523978 L60.30852459063092,-1219.0985398765788 L60.26878335942236,-1218.9466108390857 L60.22204356831105,-1218.7966627502774 L60.16841781754772,-1218.6490568482338 L60.108035296263004,-1218.5041487285016 L60.041041471239566,-1218.3622874874338 L59.967597736469855,-1218.2238148811855 L59.88788102434384,-1218.089064502394 L59.802083379403385,-1217.9583609765248 L59.71041149569015,-1217.8320191798196 L59.613086218801506,-1217.7103434807332 L59.510342013854164,-1217.5936270066818 L59.40242640063716,-1217.4821509378753 L59.28959935731505,-1217.3761838299267 L59.17213269411766,-1217.2759809668814 L59.05030939852549,-1217.1817837462131 L58.92442295352811,-1217.0938190972768 L58.794776630597845,-1217.0122989346166 L58.66168275908232,-1216.9374196474448 L58.525461973775656,-1216.869361626523 L58.3864424424812,-1216.8082888295844 L58.2449590754265,-1216.7543483863465 L58.10135271843528,-1216.7076702440615 L57.955969331799956,-1216.6683668544629 L57.80915915683301,-1216.6365329028586 L57.66127587210501,-1216.6122450800262 L57.51267574140189,-1216.5955618974588 L57.36371675545439,-1216.586523546404 " />
			<path d="M-642.4799522164097,-1440.920334106559 L-642.4825444903075,-1440.7887580954057 L-642.4903168848883,-1440.657225628369 L-642.5032561263762,-1440.5259613379615 L-642.521340117,-1440.3951893987016 L-642.5445379727329,-1440.265133144265 L-642.572810076036,-1440.136014686073 L-642.6061081435178,-1440.008054533969 L-642.6443753083928,-1439.8814712196295 L-642.6875462175997,-1439.756480923353 L-642.7355471434114,-1439.633297104865 L-642.7882961093485,-1439.5121301387699 L-642.8457030301793,-1439.3931869552703 L-642.9076698657684,-1439.2766706867699 L-642.9740907885105,-1439.1627803209617 L-643.0448523640642,-1439.051710360995 L-643.1198337450761,-1438.9436504933005 " />
			<path d="M-20.997523663518077,-1213.8483602091396 L-21.11958650095131,-1213.846668467445 L-21.24145192183682,-1213.8501264199156 L-21.362922828915657,-1213.8587284738821 L-21.483802762990006,-1213.8724607169383 L-21.60389622066363,-1213.8913009394416 L-21.723008970536398,-1213.9152186704332 L-21.840948367341625,-1213.94417522692 L-21.95752366351805,-1213.978123776438 " />
			<path d="M58.32371675545436,-1254.2473919946178 L58.43537112116384,-1254.2097232622684 L58.54539297499991,-1254.1674617058354 L58.653614714432805,-1254.1206717047444 L58.75987147914913,-1254.0694245368577 L58.86400140219291,-1254.013798269893 L58.96584585654673,-1253.9538776424968 L59.065249696777215,-1253.88975393516 L59.16206149537694,-1253.821524831162 L59.25613377344247,-1253.749294267767 L59.3473232253374,-1253.6731722778884 L59.4354909369979,-1253.593274822471 L59.520502597548436,-1253.5097236138392 L59.60222870390511,-1253.4226459302886 L59.68054475805508,-1253.3321744221923 L59.755331456711396,-1253.2384469099302 L59.82647487305454,-1253.1416061739371 L59.89386663028355,-1253.0417997371985 L59.95740406671254,-1252.93917964052 L60.01699039216114,-1252.8339022109146 L60.07253483540039,-1252.7261278234619 L60.12395278242973,-1252.6160206569984 L60.17116590537433,-1252.5037484440159 L60.21410228180634,-1252.389482215143 L60.252696504308446,-1252.2733960386074 L60.28688978011265,-1252.1556667550656 L60.316630020662686,-1252.0364737082116 L60.34187192096342,-1251.9159984715739 L60.362577028596554,-1251.7944245719134 L60.37871380229735,-1251.6719372096459 L60.390257660003236,-1251.5487229767177 L60.39719101630108,-1251.4249695723574 L60.39950330921601,-1251.3008655171448 " />
			<path d="M-643.1012299433008,-1474.2535188450179 L-643.0283546029964,-1474.1514785675167 L-642.9595991946486,-1474.0462724954723 L-642.8950775999843,-1473.938074884982 L-642.8348966881326,-1473.8270649471217 L-642.7791561386144,-1473.7134265511131 L-642.72794827624,-1473.597347919775 L-642.6813579181885,-1473.4790213177641 L-642.6394622335226,-1473.3586427331209 L-642.6023306153714,-1473.2364115526484 L-642.5700245659917,-1473.1125302316627 L-642.5425975949006,-1472.987203958658 L-642.5200951302454,-1472.8606403154486 L-642.50255444356,-1472.733048933343 L-642.4900045880307,-1472.604641145926 L-642.4824663503747,-1472.4756296390196 L-642.4799522164097,-1472.346228098406 " />
			<path d="M60.399503309216016,-1219.8749715252975 L60.399503309216016,-1251.3008655171448 " />
			<path d="M-642.4799522164097,-1440.9203341065588 L-642.4799522164097,-1472.346228098406 " />
			<path d="M-20.997522718408064,-1630.7386037257431 L57.36371770056438,-1633.4767670596782 " />
			<path d="M60.39950410045451,-1636.7652150868762 L60.39584737014887,-1636.608935861476 L60.384885973515324,-1636.4527775728957 L60.36664631751846,-1636.29711642013 L60.34117234308718,-1636.14232740453 L60.308525419257144,-1635.988783426393 L60.2687841953274,-1635.8368543866104 L60.22204441138731,-1635.6869062955468 L60.1684186676703,-1635.5393003912877 L60.10803615329006,-1635.3943922693848 L60.0410423350126,-1635.2525310261963 L59.96759860681412,-1635.1140584178827 L59.88788190106877,-1634.9793080370864 L59.80208426230305,-1634.848604509277 L59.71041238454371,-1634.7222627107017 L59.6130871133738,-1634.6005870098193 L59.51034291389625,-1634.4838705340508 L59.40242730588694,-1634.3723944636095 L59.28960026749784,-1634.2664273541131 L59.172133608946915,-1634.1662244896104 L59.050310317703484,-1634.0720272675783 L58.92442387674661,-1633.9840626173755 L58.79477755753891,-1633.902542453549 L58.66168368941902,-1633.827663165314 L58.5254629071729,-1633.7596051434346 L58.38644337859651,-1633.6985323456465 L58.24496001391086,-1633.644591901669 L58.10135365893396,-1633.597913758756 L57.955970273953376,-1633.5586103686426 L57.80916010027761,-1633.526776416638 L57.66127681647409,-1633.502488593521 L57.512676686326564,-1633.4858054107851 L57.36371770056441,-1633.4767670596782 " />
			<path d="M-642.4799514251631,-1857.8102412830042 L-642.4816313931794,-1857.7043252340077 L-642.4866694481107,-1857.5984090046968 L-642.4950600139413,-1857.4926098209812 L-642.5067938041649,-1857.3870447792265 L-642.5218578320633,-1857.281830716655 L-642.5402354250798,-1857.177084082032 L-642.5619062432711,-1857.072920806784 L-642.5868463018205,-1856.9694561766867 L-642.6150279975828,-1856.8668047042695 L-642.6464201396357,-1856.7650800020763 L-642.6809879837999,-1856.66439465692 L-642.7186932710953,-1856.5648601052746 L-642.7594942700832,-1856.46658650994 L-642.8033458230552,-1856.369682638115 L-642.8501993960123,-1856.2742557410165 L-642.9000031323812,-1856.1804114351762 " />
			<path d="M-20.997522718408053,-1630.7386037257431 L-21.11958540015693,-1630.7369119829648 L-21.24145066636293,-1630.7403699212794 L-21.362921420520653,-1630.7489719480552 L-21.483801204181358,-1630.7627041509656 L-21.603894514691376,-1630.781544320489 L-21.723007121384654,-1630.8054619858308 L-21.840946379718087,-1630.8344184642024 L-21.957521542841523,-1630.8683669233862 " />
			<path d="M58.3237146977736,-1671.1376364526932 L58.43536911826244,-1671.0999677552213 L58.5453910277456,-1671.057706229954 L58.653612823498285,-1671.010916256312 L58.75986964501284,-1670.9596691121626 L58.86399962514028,-1670.9040428652386 L58.96584413667186,-1670.8441222542122 L59.06524803398505,-1670.7799985596087 L59.16205988938582,-1670.711769464753 L59.25613222378722,-1670.6395389069633 L59.347321731372695,-1670.563416919217 L59.435489497902225,-1670.4835194625318 L59.52050121232831,-1670.399968249315 L59.602227371399785,-1670.3128905579515 L59.68054347694159,-1670.2224190389145 L59.755330225510015,-1670.128691512691 L59.82647369013455,-1670.031850759831 L59.893865493869356,-1669.9320443034428 L59.95740297489021,-1669.8294241844617 L60.01698934288509,-1669.724146730038 L60.07253382650052,-1669.6163723153943 L60.123951811618774,-1669.5062651195167 L60.17116497025546,-1669.3939928750515 L60.21410137988104,-1669.279726612789 L60.2526956329846,-1669.1636404011215 L60.28688893671285,-1669.0459110808752 L60.316629202432715,-1668.9267179959184 L60.34187112508091,-1668.806242719957 L60.36257625217979,-1668.6846687799325 L60.378713042414226,-1668.5621813764442 L60.39025691368028,-1668.4389671016238 L60.3971902805326,-1668.315213654887 L60.39950258097328,-1668.1911095570024 " />
			<path d="M-642.8817607384979,-1890.8043304715654 L-642.8340747168409,-1890.7153770134562 L-642.7892248173782,-1890.6247469245043 L-642.7472584732552,-1890.5325360548734 L-642.708220067976,-1890.438841926556 L-642.6721508884636,-1890.3437636302363 L-642.6390890813954,-1890.2474017204904 L-642.6090696128583,-1890.1498581094413 L-642.5821242313699,-1890.0512359589768 L-642.5582814343006,-1889.9516395716444 L-642.537566437735,-1889.8511742803432 L-642.5200011498033,-1889.7499463369222 L-642.5056041475116,-1889.64806279981 L-642.4943906570949,-1889.5456314207893 L-642.4863725379133,-1889.4427605310389 L-642.4815582699105,-1889.3395589265635 L-642.4799529446445,-1889.2361357531306 " />
			<path d="M60.39950410045451,-1636.7652150868762 L60.39950258097328,-1668.1911095570022 " />
			<path d="M-642.4799514251633,-1857.8102412830044 L-642.4799529446445,-1889.2361357531304 " />
			<path d="M-69.38037186409424,0.3248668366245826 L-69.38037186409424,-16.409390695560038 " />
			<path d="M-69.38037186409424,-81.9259845680145 L-69.38037186409426,-420.57019057580146 " />
			<path d="M-69.38037186409426,-486.08674089531195 L-69.38037186409427,-824.731055078544 " />
			<path d="M-69.38037186409427,-890.2476053980547 L-69.38037186409429,-1228.8919195812869 " />
			<path d="M-69.38037186409429,-1294.4084699007974 L-69.3803718640943,-1645.7821406994565 " />
			<path d="M57.363716755454405,-4.103930038175815 L57.363716755454405,-4.103969239668517 " />
			<path d="M57.363716755454405,-42.0667439774878 L57.36371675545439,-408.2647945409185 " />
			<path d="M57.36371675545439,-446.2275690221084 L57.36371675545438,-812.4256590436612 " />
			<path d="M57.36371675545438,-850.3884335248512 L57.36371675545436,-1216.586523546404 " />
			<path d="M57.36371675545436,-1254.5492980275937 L57.36371675545435,-1633.476767356901 " />
			<path d="M61.411432160469936,-3.891772104053641 L61.41143216046988,-1671.0553381778677 " />
			<path d="M-71.40422956660201,0.5370247707467598 L-71.40422956660201,-17.045865595209165 " />
			<path d="M-71.40422956660201,-82.56245946766363 L-71.40422956660203,-421.20666437816794 " />
			<path d="M-71.40422956660203,-486.7232146976785 L-71.40422956660204,-825.3675288809105 " />
			<path d="M-71.40422956660204,-890.8840792004212 L-71.40422956660206,-1229.528393383653 " />
			<path d="M-71.40422956660206,-1295.0449437031639 L-71.40422956660207,-1646.418613533242 " />
			<path d="M71.40422956660201,-0.7491827048689315 L71.40422956660196,-1667.912748778683 " />
			<path d="M-736.3534490239759,-226.07949183527464 L-735.4749520990257,-1893.4596941189059 " />
			<path d="M-658.1029802099889,-228.7788035186731 L-657.2244832850387,-1896.1590058023044 " />
			<path d="M-654.0467732449536,-228.56879884107562 L-653.1682763200033,-1895.949001124707 " />
			<path d="M-738.3601205014884,-225.87268152214233 L-737.4817354537181,-1893.0405418048224 " />
			<path d="M-643.9277441688837,-225.46233619465062 L-643.0492472439335,-1892.8425384782818 " />
			<path d="M-20.99752440505024,-1.3658058455823512 L-723.876980039408,-222.41154954385811 " />
			<path d="M57.363716012575175,-4.103969213710122 L-645.2776757508492,-225.0748451590927 " />
			<path d="M60.399502739633895,-7.39241713889055 L-642.4799528947237,-228.43816083716632 " />
			<path d="M60.399504451457844,-38.81831058851173 L-642.4799511828999,-259.8640542867875 " />
			<path d="M-20.99752366351806,-405.52663120365423 L-643.5611579342561,-601.3138365138057 " />
			<path d="M57.36371675545438,-408.2647945409185 L-643.5467336921816,-628.6909336721744 " />
			<path d="M60.399503309216044,-411.5532425198122 L-642.4799522164097,-632.5986051010736 " />
			<path d="M60.399503309216044,-442.97913651165936 L-642.4799522164097,-664.0244990929208 " />
			<path d="M-20.99752366351807,-809.6874957063969 L-643.3482519301759,-1005.407745175831 " />
			<path d="M57.36371675545438,-812.4256590436612 L-643.3338276881016,-1032.7848423341998 " />
			<path d="M60.39950330921603,-815.714107022555 L-642.4799522164097,-1036.7594696038163 " />
			<path d="M60.39950330921603,-847.1400010144021 L-642.4799522164097,-1068.1853635956636 " />
			<path d="M-20.997523663518077,-1213.8483602091396 L-643.1353459260956,-1409.5016538378563 " />
			<path d="M57.36371675545436,-1216.586523546404 L-643.1209216840213,-1436.878750996225 " />
			<path d="M60.399503309216016,-1219.8749715252977 L-642.4799522164097,-1440.920334106559 " />
			<path d="M60.399503309216016,-1251.3008655171448 L-642.4799522164097,-1472.3462280984063 " />
			<path d="M-20.99752271840806,-1630.7386037257434 L-642.9157344288504,-1826.3225353923497 " />
			<path d="M57.36371770056437,-1633.4767670596782 L-642.9013102065297,-1853.6995950582616 " />
			<path d="M60.39950410045451,-1636.7652150868764 L-642.4799514251631,-1857.8102412830044 " />
			<path d="M60.39950258097327,-1668.1911095570022 L-642.4799529446443,-1889.2361357531304 " />
			<path d="M-71.56844301284042,-1646.4702561943554 L-71.5684430128404,-1295.0965864428672 " />
			<path d="M-71.5684430128404,-1229.5800361233566 L-71.56844301284039,-890.9357219401245 " />
			<path d="M-71.56844301284039,-825.4191716206138 L-71.56844301284038,-486.7748574373817 " />
			<path d="M-71.56844301284038,-421.2583071178713 L-71.56844301284036,-82.61410229639911 " />
			<path d="M-71.56844301284036,-17.097508423944646 L-71.56844301284036,0.6431037378078439 " />
			<path d="M71.5684430128403,-1667.806669811622 L71.56844301284036,-0.6431037378078439 " />
			<path d="M-737.6502398497026,-1893.1468016151184 L-738.5287367746529,-225.7665993314867 " />
			<path d="M-642.8807428479487,-1892.7362786679867 L-643.7592397728989,-225.35607638435502 " />
			<path d="M-724.2067964858475,-222.3431292100294 L-21.957525737789453,-1.4955698316151083 " />
			<path d="M-643.7396412435193,-262.5539298468968 L58.323719403836854,-41.764836591145865 " />
			<path d="M-643.5612486163774,-601.1417225663359 L-21.95752366351806,-405.65639477095266 " />
			<path d="M-643.5267354604664,-666.6474190004437 L58.323716755454384,-445.9256629891325 " />
			<path d="M-643.3483426122971,-1005.2356312283613 L-21.957523663518067,-809.8172592736953 " />
			<path d="M-643.3138294563862,-1070.7413276624693 L58.323716755454384,-850.0865274918752 " />
			<path d="M-643.1354366082169,-1409.3295398903867 L-21.957523663518074,-1213.978123776438 " />
			<path d="M-643.100923452306,-1474.8352363244944 L58.32371675545437,-1254.2473919946178 " />
			<path d="M-642.9158251107295,-1826.1504219042413 L-21.957521542841548,-1630.8683669233862 " />
			<path d="M-642.8813119750514,-1891.6560799372062 L58.323714697773596,-1671.137636452693 " />

       </g>
    </g>
    
</svg>
