<?xml version="1.0" encoding="UTF-8" standalone="no"?>
<svg
   xmlns:svg="http://www.w3.org/2000/svg"
   xmlns="http://www.w3.org/2000/svg"
   width="480.0"
   height="480.0"

>
    <g transform="scale(0.15681746025482113, -0.15681746025482113)   translate(2331.142997546828,-1740.2247407708144)" stroke-width="1.0"  fill="none">
       <!-- hidden lines -->
       <g  stroke="rgb(0,0,0)" fill="none" stroke-dasharray="1.0,1.0" >
			<path d="M-25.540696936458097,-1.7541523789077474e-15 L-25.829591424578883,-1.786766043414935e-15 L-26.11222447133145,-1.819104287430642e-15 L-26.38620925714733,-1.850894016373349e-15 L-26.64923199651644,-1.8818667678392833e-15 L-26.89907147777054,-1.9117609787517364e-15 L-27.133617821086,-1.9403241942459653e-15 L-27.350890296295663,-1.9673151996357777e-15 L-27.549054050039395,-1.9925060574574654e-15 L-27.72643560099351,-2.015684032388368e-15 L-27.881536972322785,-2.036653387784246e-15 L-28.013048342007345,-2.055237038663807e-15 L-28.119859104213056,-2.0712780471810244e-15 L-28.201067248292954,-2.0846409479560836e-15 L-28.25598697621444,-2.0952128920725954e-15 " />
			<path d="M-25.540696936458282,1676.4 L-25.82959142457907,1676.4 L-26.11222447133164,1676.4 L-26.38620925714752,1676.4 L-26.649231996516633,1676.4 L-26.899071477770732,1676.4 L-27.133617821086194,1676.4 L-27.35089029629586,1676.4 L-27.54905405003959,1676.4 L-27.726435600993703,1676.4 L-27.881536972322984,1676.4 L-28.013048342007536,1676.4 L-28.119859104213244,1676.4 L-28.20106724829314,1676.4 L-28.255986976214626,1676.4 " />
			<path d="M28.255986976214444,2.1094237467877974e-15 L9.36209378290989,2.1094237467877974e-15 " />
			<path d="M28.25598697621426,1676.4 L9.362093782909705,1676.4 " />
			<path d="M9.36209378290989,2.1094237467877974e-15 L9.29150574229113,2.1071898749956272e-15 L9.181967981591722,2.100516351853025e-15 L9.03485800170775,2.089487100785578e-15 L8.852025795991452,2.0742408210247802e-15 L8.635770585511425,2.0549692433847202e-15 L8.38881190501365,2.0319147191358516e-15 L8.114255403194157,2.0053671722971513e-15 L7.815553787364712,1.975660453673361e-15 L7.49646340365509,1.9431681424874144e-15 L7.160996998780995,1.9082988484049533e-15 L6.813373257425853,1.8714910730306996e-15 L6.457963749833203,1.8332076954963537e-15 L6.099237956774417,1.7939301514869428e-15 L5.741707063234772,1.7541523789077482e-15 " />
			<path d="M9.362093782909705,1676.4 L9.291505742290946,1676.4 L9.181967981591537,1676.4 L9.034858001707569,1676.4 L8.852025795991263,1676.4 L8.63577058551124,1676.4 L8.388811905013466,1676.4 L8.114255403193972,1676.4 L7.81555378736453,1676.4 L7.496463403654909,1676.4 L7.16099699878081,1676.4 L6.813373257425669,1676.4 L6.457963749833015,1676.4 L6.099237956774234,1676.4 L5.741707063234587,1676.4 " />
			<path d="M-25.540696936458097,-1.7541523789077472e-15 L5.741707063234765,1.7541523789077472e-15 " />
			<path d="M-25.540696936458282,1676.4 L5.74170706323458,1676.4 " />
			<path d="M-2264.6404804162094,1676.3434597356359 L-2266.437328602472,1676.3420998334914 L-2267.3404911062444,1676.342406871626 " />
			<path d="M-2215.8293213016796,0.056767627850299235 L-2225.005808566906,0.00042227729192455266 " />
			<path d="M-2217.7196190864315,1676.4552458004794 L-2229.7454096922374,1676.3814051937372 " />
			<path d="M-2229.7454096922374,1676.3814051937372 L-2231.0021149340337,1676.378437477698 L-2233.3772015432223,1676.375318351721 " />
			<path d="M-2264.6404804162094,1676.3434597356359 L-2233.3772015432223,1676.375318351721 " />
			<path d="M-16.574586235705077,3.902383881904806e-05 L-28.255990265123707,3.905444729656457e-05 " />
			<path d="M-2225.0059094477956,0.0004216578643690248 L-2228.6167298095556,0.00042228675352786057 " />
			<path d="M-28.708538058888095,3.2000390556330456 L-28.706362070024905,2.8866069600923403 L-28.699854922542094,2.57618909069881 L-28.68907919463264,2.2717706862819433 L-28.674138514742403,1.9762792897794328 L-28.65517656499198,1.692556594526596 L-28.632375699408826,1.423331116147647 L-28.605955190257834,1.1711919528588557 L-28.576169119335155,0.9385638865265333 L-28.54330393450434,0.7276840639289919 L-28.507675694973212,0.5405804824750273 L-28.488931552426408,0.45651649820516704 L-28.4696270318032,0.37905248727832097 L-28.44980857315243,0.3083748015092378 L-28.42952385288139,0.24465346714426905 L-28.40882166906274,0.18804177583659865 L-28.387751824043118,0.1386759158791513 L-28.366365004635778,0.09667464458231523 L-28.34471266018553,0.062139002584630454 L-28.322846878799265,0.03515207078370297 L-28.300820262039878,0.01577877047208265 L-28.278685798384934,0.004065707158929399 L-28.256496735754627,4.105845315427459e-05 " />
			<path d="M-2229.0692776033197,3.200422287939278 L-2229.0670985129204,2.8867674388789784 L-2229.06058212045,2.576133257464892 L-2229.0497911823286,2.271511320673952 L-2229.034829621191,1.975835304280745 L-2229.0158415250485,1.69195272995609 L-2228.9930097596475,1.4225975420767332 L-2228.96655420737,1.170363778346478 L-2228.936729649646,0.9376805877950467 L-2228.903823313271,0.726788836745019 L-2228.868152104252,0.5397195280441673 L-2228.8493860753615,0.4556907353622712 L-2228.830059555832,0.37827424139776555 L-2228.810219104942,0.3076565492654959 L-2228.7899125200756,0.24400778317118998 L-2228.7691887215747,0.18748127856733987 L-2228.7480976348843,0.1382132127546738 L-2228.72669007028,0.09632227681910832 L-2228.70501760046,0.06190938969452464 L-2228.683132436302,0.035057455040218066 L-2228.6610873010845,0.015831161518723214 L-2228.638935303468,0.004276826955157187 L-2228.6167298095556,0.00042228675352484757 " />
			<path d="M-2216.8500765711883,0.05771184891125758 L-2216.830977290057,0.0866512647862816 L-2216.812072403921,0.12139148012603229 L-2216.7933971316356,0.1618677756486142 L-2216.7749862642995,0.20800474604193164 L-2216.7568741004357,0.25971644044000586 L-2216.739094382099,0.3169065225451413 L-2216.704664091873,0.44728567335859637 L-2216.6719518417553,0.5981710916519627 L-2216.641201283352,0.7684389331649584 L-2216.6126414569444,0.9568209869693187 L-2216.5864850855196,1.1619141215212312 L-2216.5629269903425,1.3821907356469265 L-2216.542142639859,1.6160101366190358 L-2216.5242868427536,1.8616307605760687 L-2216.50949259488,2.117223144263301 L-2216.497870088667,2.3808835514772735 L-2216.4895058923653,2.6506481527196613 L-2216.4844623052622,2.9245076524457874 L-2216.4827768936557,3.200422254959171 " />
			<path d="M-2215.838009621071,38.00042206502832 L-2216.935319292131,38.00042225614449 " />
			<path d="M-2216.4827714983667,34.80042225495873 L-2216.484950588766,35.11407710401903 L-2216.4914669812365,35.42471128543312 L-2216.502257919358,35.72933322222406 L-2216.5172194804954,36.025009238617265 L-2216.536207576638,36.30889181294192 L-2216.559039342039,36.57824700082128 L-2216.5854948943165,36.83048076455154 L-2216.6153194520402,37.063163955102965 L-2216.6482257884154,37.27405570615299 L-2216.683896997434,37.46112501485385 L-2216.702663026325,37.54515380753574 L-2216.7219895458543,37.62257030150025 L-2216.7418299967444,37.69318799363252 L-2216.762136581611,37.75683675972682 L-2216.7828603801117,37.813363264330675 L-2216.803951466802,37.86263133014334 L-2216.8253590314066,37.90452226607891 L-2216.8470315012264,37.93893515320349 L-2216.8689166653844,37.9657870878578 L-2216.890961800602,37.98501338137929 L-2216.9131137982185,37.99656771594286 L-2216.9353192921308,38.00042225614449 " />
			<path d="M-16.57457974769944,38.000039023838255 L-28.255983777118068,38.00003905444673 " />
			<path d="M-2216.935319292131,38.00042225614448 L-2228.6167233215497,38.00042228675296 " />
			<path d="M-28.25598377711806,38.00003905444673 L-2228.61672332155,38.000422286752965 " />
			<path d="M-28.25598377711806,38.00003905444673 L-28.278189272346733,37.99618451436147 L-28.30034127390865,37.98463017991399 L-28.322386415691767,37.96540388650802 L-28.3442715890186,37.93855195196841 L-28.365944070589688,37.9041390649574 L-28.387351649498648,37.862248129134024 L-28.4084427530128,37.81298006343189 L-28.429166570816417,37.756453558936634 L-28.44947317741722,37.69280479294875 L-28.469313652421256,37.622187100920456 L-28.488640198386424,37.54477060705723 L-28.507406255970686,37.46074181447368 L-28.543077528868984,37.273672505959766 L-28.57598393725824,37.06278075508219 L-28.605808574437198,36.83009756468705 L-28.632264212846014,36.57786380109543 L-28.65509607022469,36.30850861333573 L-28.674084263305506,36.024626039110586 L-28.689045925409093,35.728950022795786 L-28.699836967550517,35.424328086061394 L-28.70635346609497,35.113693904681455 L-28.70853266359919,34.80003905563259 " />
			<path d="M-2228.616723321549,38.000422286752965 L-2228.638928816778,37.9965677466677 L-2228.66108081834,37.985013412220226 L-2228.683125960123,37.965787118814255 L-2228.7050111334497,37.93893518427464 L-2228.726683615021,37.90452229726363 L-2228.74809119393,37.86263136144026 L-2228.769182297444,37.81336329573812 L-2228.7899061152475,37.75683679124287 L-2228.8102127218485,37.69318802525498 L-2228.8300531968525,37.62257033322669 L-2228.8493797428177,37.545153839363465 L-2228.868145800402,37.46112504677991 L-2228.9038170733,37.274055738266 L-2228.9367234816896,37.06316398738842 L-2228.9665481188686,36.830480796993285 L-2228.993003757277,36.57824703340167 L-2229.0158356146558,36.308891845641966 L-2229.0348238077368,36.02500927141682 L-2229.0497854698406,35.72933325510202 L-2229.0605765119817,35.42471131836763 L-2229.067093010526,35.11407713698769 L-2229.0692722080303,34.80042228793882 " />
			<path d="M-28.70853805888809,3.200039055633045 L-28.70853266359919,34.80003905563258 " />
			<path d="M-2229.0692776033193,3.200422287939279 L-2229.0692722080303,34.800422287938815 " />
			<path d="M-2216.2534149767434,406.3999999999999 L-2216.9353225116874,406.3999999999999 " />
			<path d="M-2216.2534149767434,406.3999999999999 L-2228.616726536889,406.3999999999999 " />
			<path d="M-16.57458295101272,406.3999999999999 L-28.255986976214484,406.3999999999999 " />
			<path d="M-2216.935322511687,406.3999999999999 L-2228.616726536889,406.3999999999999 " />
			<path d="M-28.708535316173872,409.5999999999999 L-28.706356172222925,409.2863451509453 L-28.69983972671757,408.9757109695483 L-28.689048736590276,408.67108903278563 L-28.674087124974925,408.3754130164316 L-28.65509898037022,408.09153044215674 L-28.63226716898868,407.8221752543372 L-28.605811573655046,407.56994149067623 L-28.575986976214484,407.33725830020296 L-28.54308060384413,407.12636654923915 L-28.507409362898358,406.9392972406318 L-28.488643319667695,406.85526844799904 L-28.46931678692736,406.7778519540852 L-28.44947632398754,406.7072342620049 L-28.429169728261268,406.6435854959638 L-28.408445920116296,406.58705899141427 L-28.38735482502164,406.53779092565685 L-28.36594725327274,406.49589998977734 L-28.344274777585024,406.46148710270955 L-28.322389608850713,406.4346351681126 L-28.300344470358194,406.4154088746489 L-28.278192470777025,406.40385454014336 L-28.255986976214487,406.3999999999999 " />
			<path d="M-2229.0692748768483,409.5999999999999 L-2229.0670957328975,409.2863451509453 L-2229.060579287392,408.9757109695483 L-2229.049788297265,408.67108903278563 L-2229.0348266856495,408.3754130164316 L-2229.0158385410446,408.09153044215674 L-2228.993006729663,407.8221752543372 L-2228.9665511343296,407.56994149067623 L-2228.936726536889,407.33725830020296 L-2228.9038201645185,407.12636654923915 L-2228.868148923573,406.9392972406318 L-2228.849382880342,406.85526844799904 L-2228.830056347602,406.7778519540852 L-2228.8102158846623,406.7072342620049 L-2228.7899092889356,406.6435854959638 L-2228.769185480791,406.58705899141427 L-2228.7480943856963,406.53779092565685 L-2228.7266868139473,406.49589998977734 L-2228.7050143382594,406.46148710270955 L-2228.6831291695253,406.4346351681126 L-2228.6610840310327,406.4154088746489 L-2228.6389320314515,406.40385454014336 L-2228.616726536889,406.3999999999999 " />
			<path d="M-2216.2962635695785,444.3999999999999 L-2216.9353225116874,444.3999999999999 " />
			<path d="M-2216.482774171728,441.19999999999993 L-2216.484953315679,441.51365484905455 L-2216.4914697611844,441.82428903045155 L-2216.5022607513115,442.1289109672142 L-2216.517222362927,442.42458698356825 L-2216.536210507532,442.7084695578431 L-2216.5590423189133,442.97782474566264 L-2216.585497914247,443.2300585093236 L-2216.6153225116873,443.4627416997969 L-2216.648228884058,443.6736334507607 L-2216.6839001250037,443.86070275936805 L-2216.7026661682344,443.9447315520008 L-2216.7219927009746,444.02214804591466 L-2216.741833163914,444.09276573799497 L-2216.762139759641,444.15641450403604 L-2216.7828635677856,444.2129410085856 L-2216.80395466288,444.262209074343 L-2216.825362234629,444.3041000102225 L-2216.847034710317,444.3385128972903 L-2216.868919879051,444.36536483188723 L-2216.8909650175437,444.38459112535094 L-2216.913117017125,444.3961454598565 L-2216.9353225116874,444.3999999999999 " />
			<path d="M-2216.2962635695785,444.3999999999999 L-2228.616726536889,444.3999999999999 " />
			<path d="M-16.57458295101272,444.3999999999999 L-28.255986976214484,444.3999999999999 " />
			<path d="M-2216.935322511687,444.3999999999999 L-2228.616726536889,444.3999999999999 " />
			<path d="M-28.255986976214484,444.3999999999999 L-28.278192470777025,444.3961454598565 L-28.300344470358194,444.38459112535094 L-28.32238960885071,444.36536483188723 L-28.344274777585024,444.3385128972903 L-28.36594725327274,444.3041000102225 L-28.38735482502164,444.262209074343 L-28.408445920116296,444.2129410085856 L-28.429169728261268,444.15641450403604 L-28.44947632398754,444.09276573799497 L-28.46931678692736,444.02214804591466 L-28.488643319667695,443.9447315520008 L-28.507409362898358,443.86070275936805 L-28.54308060384413,443.6736334507607 L-28.575986976214484,443.4627416997969 L-28.605811573655046,443.2300585093236 L-28.63226716898868,442.97782474566264 L-28.65509898037022,442.7084695578431 L-28.674087124974925,442.42458698356825 L-28.689048736590276,442.1289109672142 L-28.69983972671757,441.82428903045155 L-28.706356172222925,441.51365484905455 L-28.708535316173872,441.19999999999993 " />
			<path d="M-2228.616726536889,444.3999999999999 L-2228.6389320314515,444.3961454598565 L-2228.6610840310327,444.38459112535094 L-2228.6831291695253,444.36536483188723 L-2228.7050143382594,444.3385128972903 L-2228.7266868139473,444.3041000102225 L-2228.7480943856963,444.262209074343 L-2228.769185480791,444.2129410085856 L-2228.7899092889356,444.15641450403604 L-2228.8102158846623,444.09276573799497 L-2228.830056347602,444.02214804591466 L-2228.849382880342,443.9447315520008 L-2228.868148923573,443.86070275936805 L-2228.9038201645185,443.6736334507607 L-2228.936726536889,443.4627416997969 L-2228.9665511343296,443.2300585093236 L-2228.993006729663,442.97782474566264 L-2229.0158385410446,442.7084695578431 L-2229.0348266856495,442.42458698356825 L-2229.049788297265,442.1289109672142 L-2229.060579287392,441.82428903045155 L-2229.0670957328975,441.51365484905455 L-2229.0692748768483,441.19999999999993 " />
			<path d="M-28.708535316173876,409.5999999999999 L-28.708535316173876,441.19999999999993 " />
			<path d="M-2229.0692748768483,409.5999999999999 L-2229.0692748768483,441.19999999999993 " />
			<path d="M-2216.711669401169,812.7999999999998 L-2216.9353225116874,812.7999999999998 " />
			<path d="M-28.255986976214523,812.7999999999998 L-2228.616726536889,812.7999999999998 " />
			<path d="M-16.574582951012758,812.7999999999998 L-28.255986976214523,812.7999999999998 " />
			<path d="M-2216.935322511687,812.7999999999998 L-2228.616726536889,812.7999999999998 " />
			<path d="M-28.708535316173915,815.9999999999999 L-28.706356172222964,815.6863451509453 L-28.69983972671761,815.3757109695483 L-28.689048736590316,815.0710890327856 L-28.674087124974964,814.7754130164316 L-28.65509898037026,814.4915304421567 L-28.63226716898872,814.2221752543371 L-28.605811573655085,813.9699414906762 L-28.575986976214523,813.7372583002029 L-28.543080603844167,813.5263665492391 L-28.507409362898397,813.3392972406317 L-28.488643319667734,813.255268447999 L-28.4693167869274,813.1778519540851 L-28.44947632398758,813.1072342620049 L-28.429169728261307,813.0435854959637 L-28.408445920116336,812.9870589914142 L-28.387354825021678,812.9377909256568 L-28.36594725327278,812.8958999897774 L-28.344274777585063,812.8614871027096 L-28.322389608850752,812.8346351681126 L-28.300344470358233,812.8154088746488 L-28.278192470777064,812.8038545401433 L-28.255986976214526,812.7999999999998 " />
			<path d="M-2229.0692748768483,815.9999999999999 L-2229.0670957328975,815.6863451509453 L-2229.060579287392,815.3757109695483 L-2229.049788297265,815.0710890327856 L-2229.0348266856495,814.7754130164316 L-2229.0158385410446,814.4915304421567 L-2228.993006729663,814.2221752543371 L-2228.9665511343296,813.9699414906762 L-2228.936726536889,813.7372583002029 L-2228.9038201645185,813.5263665492391 L-2228.868148923573,813.3392972406317 L-2228.849382880342,813.255268447999 L-2228.830056347602,813.1778519540851 L-2228.8102158846623,813.1072342620049 L-2228.7899092889356,813.0435854959637 L-2228.769185480791,812.9870589914142 L-2228.7480943856963,812.9377909256568 L-2228.7266868139473,812.8958999897774 L-2228.7050143382594,812.8614871027096 L-2228.6831291695253,812.8346351681126 L-2228.6610840310327,812.8154088746488 L-2228.6389320314515,812.8038545401433 L-2228.616726536889,812.7999999999998 " />
			<path d="M-2216.754517994004,850.7999999999998 L-2216.9353225116874,850.7999999999998 " />
			<path d="M-28.255986976214523,850.7999999999998 L-2228.616726536889,850.7999999999998 " />
			<path d="M-16.574582951012758,850.7999999999998 L-28.255986976214523,850.7999999999998 " />
			<path d="M-2216.935322511687,850.7999999999998 L-2228.616726536889,850.7999999999998 " />
			<path d="M-28.255986976214523,850.7999999999998 L-28.278192470777064,850.7961454598563 L-28.300344470358233,850.7845911253509 L-28.32238960885075,850.765364831887 L-28.344274777585063,850.7385128972901 L-28.36594725327278,850.7041000102223 L-28.387354825021678,850.6622090743429 L-28.408445920116336,850.6129410085855 L-28.429169728261307,850.556414504036 L-28.44947632398758,850.4927657379948 L-28.4693167869274,850.4221480459146 L-28.488643319667734,850.3447315520007 L-28.507409362898397,850.260702759368 L-28.543080603844167,850.0736334507606 L-28.575986976214523,849.8627416997967 L-28.605811573655085,849.6300585093235 L-28.63226716898872,849.3778247456626 L-28.65509898037026,849.108469557843 L-28.674087124974964,848.8245869835681 L-28.689048736590316,848.5289109672141 L-28.69983972671761,848.2242890304514 L-28.706356172222964,847.9136548490544 L-28.708535316173915,847.5999999999998 " />
			<path d="M-2228.616726536889,850.7999999999998 L-2228.6389320314515,850.7961454598563 L-2228.6610840310327,850.7845911253509 L-2228.6831291695253,850.765364831887 L-2228.7050143382594,850.7385128972901 L-2228.7266868139473,850.7041000102223 L-2228.7480943856963,850.6622090743429 L-2228.769185480791,850.6129410085855 L-2228.7899092889356,850.556414504036 L-2228.8102158846623,850.4927657379948 L-2228.830056347602,850.4221480459146 L-2228.849382880342,850.3447315520007 L-2228.868148923573,850.260702759368 L-2228.9038201645185,850.0736334507606 L-2228.936726536889,849.8627416997967 L-2228.9665511343296,849.6300585093235 L-2228.993006729663,849.3778247456626 L-2229.0158385410446,849.108469557843 L-2229.0348266856495,848.8245869835681 L-2229.049788297265,848.5289109672141 L-2229.060579287392,848.2242890304514 L-2229.0670957328975,847.9136548490544 L-2229.0692748768483,847.5999999999998 " />
			<path d="M-28.708535316173915,815.9999999999999 L-28.708535316173915,847.5999999999998 " />
			<path d="M-2229.0692748768483,815.9999999999999 L-2229.0692748768483,847.5999999999998 " />
			<path d="M-28.255986976214572,1219.1999999999996 L-2228.616726536889,1219.1999999999996 " />
			<path d="M-16.574582951012804,1219.1999999999996 L-28.25598697621457,1219.1999999999996 " />
			<path d="M-2217.1699238255947,1219.1999999999996 L-2228.616726536889,1219.1999999999996 " />
			<path d="M-28.708535316173965,1222.3999999999996 L-28.706356172223014,1222.0863451509451 L-28.69983972671766,1221.775710969548 L-28.689048736590365,1221.4710890327854 L-28.674087124975014,1221.1754130164313 L-28.65509898037031,1220.8915304421564 L-28.63226716898877,1220.622175254337 L-28.605811573655135,1220.369941490676 L-28.575986976214573,1220.1372583002026 L-28.543080603844217,1219.9263665492388 L-28.507409362898446,1219.7392972406315 L-28.488643319667784,1219.6552684479989 L-28.46931678692745,1219.577851954085 L-28.44947632398763,1219.5072342620047 L-28.429169728261357,1219.4435854959636 L-28.408445920116385,1219.387058991414 L-28.387354825021728,1219.3377909256565 L-28.36594725327283,1219.2958999897771 L-28.344274777585113,1219.2614871027092 L-28.322389608850802,1219.2346351681124 L-28.300344470358283,1219.2154088746486 L-28.278192470777114,1219.203854540143 L-28.255986976214576,1219.1999999999996 " />
			<path d="M-2229.0692748768483,1222.3999999999996 L-2229.0670957328975,1222.0863451509451 L-2229.060579287392,1221.775710969548 L-2229.049788297265,1221.4710890327854 L-2229.0348266856495,1221.1754130164313 L-2229.0158385410446,1220.8915304421564 L-2228.993006729663,1220.622175254337 L-2228.9665511343296,1220.369941490676 L-2228.936726536889,1220.1372583002026 L-2228.9038201645185,1219.9263665492388 L-2228.868148923573,1219.7392972406315 L-2228.849382880342,1219.6552684479989 L-2228.830056347602,1219.577851954085 L-2228.8102158846623,1219.5072342620047 L-2228.7899092889356,1219.4435854959636 L-2228.769185480791,1219.387058991414 L-2228.7480943856963,1219.3377909256565 L-2228.7266868139473,1219.2958999897771 L-2228.7050143382594,1219.2614871027092 L-2228.6831291695253,1219.2346351681124 L-2228.6610840310327,1219.2154088746486 L-2228.6389320314515,1219.203854540143 L-2228.616726536889,1219.1999999999996 " />
			<path d="M-28.255986976214572,1257.1999999999996 L-2228.616726536889,1257.1999999999996 " />
			<path d="M-16.574582951012804,1257.1999999999996 L-28.25598697621457,1257.1999999999996 " />
			<path d="M-2217.2127724184297,1257.1999999999996 L-2228.616726536889,1257.1999999999996 " />
			<path d="M-28.255986976214572,1257.1999999999996 L-28.278192470777114,1257.196145459856 L-28.300344470358283,1257.1845911253506 L-28.3223896088508,1257.1653648318868 L-28.344274777585113,1257.13851289729 L-28.36594725327283,1257.104100010222 L-28.387354825021728,1257.0622090743427 L-28.408445920116385,1257.0129410085851 L-28.429169728261357,1256.9564145040356 L-28.44947632398763,1256.8927657379945 L-28.46931678692745,1256.8221480459142 L-28.488643319667784,1256.7447315520003 L-28.507409362898446,1256.6607027593677 L-28.543080603844217,1256.4736334507604 L-28.575986976214573,1256.2627416997966 L-28.605811573655135,1256.0300585093232 L-28.63226716898877,1255.7778247456622 L-28.65509898037031,1255.5084695578428 L-28.674087124975014,1255.2245869835679 L-28.689048736590365,1254.9289109672138 L-28.69983972671766,1254.624289030451 L-28.706356172223014,1254.313654849054 L-28.708535316173965,1253.9999999999995 " />
			<path d="M-2228.616726536889,1257.1999999999996 L-2228.6389320314515,1257.196145459856 L-2228.6610840310327,1257.1845911253506 L-2228.6831291695253,1257.1653648318868 L-2228.7050143382594,1257.13851289729 L-2228.7266868139473,1257.104100010222 L-2228.7480943856963,1257.0622090743427 L-2228.769185480791,1257.0129410085851 L-2228.7899092889356,1256.9564145040356 L-2228.8102158846623,1256.8927657379945 L-2228.830056347602,1256.8221480459142 L-2228.849382880342,1256.7447315520003 L-2228.868148923573,1256.6607027593677 L-2228.9038201645185,1256.4736334507604 L-2228.936726536889,1256.2627416997966 L-2228.9665511343296,1256.0300585093232 L-2228.993006729663,1255.7778247456622 L-2229.0158385410446,1255.5084695578428 L-2229.0348266856495,1255.2245869835679 L-2229.049788297265,1254.9289109672138 L-2229.060579287392,1254.624289030451 L-2229.0670957328975,1254.313654849054 L-2229.0692748768483,1253.9999999999995 " />
			<path d="M-28.70853531617396,1222.3999999999996 L-28.70853531617396,1253.9999999999995 " />
			<path d="M-2229.0692748768483,1222.3999999999996 L-2229.0692748768483,1253.9999999999995 " />
			<path d="M-16.574580093251818,1638.3999027170041 L-28.255984118453583,1638.3999027136563 " />
			<path d="M-2217.642610969135,1638.3995644680267 L-2228.6167236791034,1638.3995644648817 " />
			<path d="M-28.255984118453583,1638.3999027136563 L-2228.616723679103,1638.3995644648817 " />
			<path d="M-28.70853294051052,1641.5999027135267 L-28.70635374930575,1641.2862478644727 L-28.69983725700165,1640.9756136830774 L-28.689046220981393,1640.670991746318 L-28.674084564820827,1640.3753157299682 L-28.655096377447656,1640.0914331556987 L-28.632264525486278,1639.822077967886 L-28.605808892152247,1639.5698442042324 L-28.575984259656686,1639.3371610137676 L-28.54307785551433,1639.1262692628134 L-28.507406586385542,1638.939199954216 L-28.48864053049548,1638.8551711615887 L-28.469313986091933,1638.7777546676805 L-28.449473512513165,1638.7071369756059 L-28.429166907197857,1638.6434882095707 L-28.408443090536856,1638.586961705027 L-28.387351988019695,1638.5376936392756 L-28.3659444099597,1638.4958027034022 L-28.344271929087494,1638.4613898163407 L-28.32238675630779,1638.43453788175 L-28.300341614918725,1638.4153115882925 L-28.278189613596833,1638.4037572537934 L-28.255984118453586,1638.3999027136563 " />
			<path d="M-2229.06927250116,1641.5995644647521 L-2229.0670933099555,1641.285909615698 L-2229.060576817651,1640.9752754343028 L-2229.049785781631,1640.6706534975433 L-2229.0348241254705,1640.3749774811936 L-2229.015835938097,1640.0910949069241 L-2228.993004086136,1639.8217397191113 L-2228.966548452802,1639.5695059554578 L-2228.9367238203063,1639.336822764993 L-2228.9038174161637,1639.1259310140388 L-2228.868146147035,1638.9388617054415 L-2228.849380091145,1638.8548329128141 L-2228.8300535467415,1638.777416418906 L-2228.8102130731627,1638.7067987268313 L-2228.7899064678472,1638.643149960796 L-2228.7691826511864,1638.5866234562525 L-2228.748091548669,1638.537355390501 L-2228.7266839706094,1638.4954644546276 L-2228.705011489737,1638.461051567566 L-2228.6831263169574,1638.4341996329754 L-2228.661081175568,1638.414973339518 L-2228.638929174246,1638.4034190050188 L-2228.616723679103,1638.3995644648817 " />
			<path d="M-16.574585818160184,1676.3999027170037 L-28.25598984336195,1676.3999027136558 " />
			<path d="M-2217.68545956197,1676.399564468014 L-2228.616729404012,1676.3995644648812 " />
			<path d="M-2217.685459563862,1676.3995661452823 L-2228.6167294040115,1676.3995644648812 " />
			<path d="M-28.256468834341685,1676.399900921215 L-28.278658789228142,1676.3958854957204 L-28.300794205035427,1676.3841810381837 L-28.322821827433646,1676.3648157076896 L-28.3446886614269,1676.337836094178 L-28.366342098850915,1676.3033071063571 L-28.387730044939996,1676.261311815542 L-28.40880104365887,1676.2119512557992 L-28.429504401497784,1676.1553441808744 L-28.44979030943315,1676.0916267784885 L-28.469609962760202,1676.0209523426931 L-28.488915678509443,1675.943490905068 L-28.507661010164387,1675.8594288256522 L-28.543291584604972,1675.6723270955777 L-28.57615900607613,1675.4614466188816 L-28.605947169424972,1675.228815556045 L-28.63236958451907,1674.9766712556147 L-28.655172131589083,1674.7074387363202 L-28.674135505246717,1674.4237073642528 L-28.689077323672496,1674.1282059494233 L-28.699853882688046,1673.8237765012059 L-28.706361537842934,1673.5133468950762 L-28.708537701223793,1673.1999027135264 " />
			<path d="M-2228.616729404012,1676.3995644648815 L-2228.6389348979937,1676.3957099247316 L-2228.661086895834,1676.3841555902197 L-2228.68313203143,1676.3649292967496 L-2228.705017196119,1676.3380773621464 L-2228.7266896666224,1676.3036644750723 L-2228.74809723206,1676.2617735391868 L-2228.769188319732,1676.2125054734233 L-2228.789912119361,1676.1559789688679 L-2228.8102187054983,1676.092330202821 L-2228.830059157799,1676.021712510735 L-2228.8493856788764,1675.9442960168155 L-2228.868151709448,1675.8602672241775 L-2228.9038229222106,1675.67319791556 L-2228.9367292628085,1675.4623061645866 L-2228.9665538251943,1675.2296229741048 L-2228.9930093825274,1674.9773892104363 L-2229.0158411533293,1674.7080340226103 L-2229.0348292551653,1674.42415144833 L-2229.0497908222355,1674.1284754319715 L-2229.06058176647,1673.8238534952059 L-2229.0670981651765,1673.513219313807 L-2229.0692772618736,1673.1995644647518 " />
			<path d="M-28.70853294051052,1641.5999027135267 L-28.708537701223793,1673.1999027135262 " />
			<path d="M-2229.06927250116,1641.5995644647521 L-2229.0692772618736,1673.1995644647516 " />
			<path d="M-28.288148596498893,1676.3999009163451 L-28.28814859649889,1638.3999009163447 " />
			<path d="M-28.288148596498846,1257.1999999999996 L-28.288148596498843,1219.1999999999996 " />
			<path d="M-28.2881485964988,850.7999999999998 L-28.288148596498797,812.7999999999998 " />
			<path d="M-28.288148596498758,444.3999999999999 L-28.288148596498754,406.3999999999999 " />
			<path d="M-28.28814859649871,38.00004106396646 L-28.288148596498708,4.10639658941157e-05 " />
			<path d="M-2216.754216453502,850.5325807379211 L-2216.7121387247694,813.2162166278878 " />
			<path d="M-2216.2926552670237,441.2 L-2216.2570232792978,409.59999999999997 " />
			<path d="M-2215.834401318603,34.80042214203343 L-2215.7952249940518,0.05714973914027741 " />

       </g>

       <!-- solid lines -->
       <g  stroke="rgb(0,0,0)" fill="none">
			<path d="M-9.36209378290989,-2.1094237467877974e-15 L-28.255986976214444,-2.1094237467877974e-15 " />
			<path d="M-9.36209378291007,1676.4 L-28.255986976214622,1676.4 " />
			<path d="M-28.255986976214444,-2.095212892072596e-15 L-28.260410990993584,-2.0962035958668124e-15 L-28.26450912699761,-2.0971591615741543e-15 L-28.268280963235014,-2.0980794910316877e-15 L-28.271726112234262,-2.098964489696213e-15 L-28.2748442200836,-2.0998140666539772e-15 L-28.277634966467428,-2.1006281346300123e-15 L-28.28009806469916,-2.1014066099971015e-15 L-28.28223326175075,-2.1021494127843703e-15 L-28.284040338278597,-2.1028564666855006e-15 L-28.28551910864614,-2.10352769906657e-15 L-28.28666942094292,-2.104163040973515e-15 L-28.287491157000144,-2.1047624271392104e-15 L-28.28798423240289,-2.1053257959901792e-15 L-28.288148596498708,-2.1058530896529126e-15 " />
			<path d="M-28.288148596498708,-2.105853089652913e-15 L-28.28798423240289,-2.1063442539598213e-15 L-28.287491157000147,-2.106799238454793e-15 L-28.286669420942918,-2.1072179963983813e-15 L-28.285519108646145,-2.1076004847726042e-15 L-28.284040338278594,-2.1079466642853643e-15 L-28.28223326175075,-2.1082564993744853e-15 L-28.280098064699168,-2.1085299582113644e-15 L-28.277634966467424,-2.1087670127042427e-15 L-28.2748442200836,-2.10896763850109e-15 L-28.271726112234262,-2.1091318149921083e-15 L-28.268280963235014,-2.1092595253118473e-15 L-28.26450912699761,-2.1093507563409374e-15 L-28.260410990993584,-2.1094054987074373e-15 L-28.255986976214448,-2.1094237467877974e-15 " />
			<path d="M-28.25598697621463,1676.4 L-28.26041099099377,1676.4 L-28.2645091269978,1676.4 L-28.2682809632352,1676.4 L-28.27172611223445,1676.4 L-28.274844220083786,1676.4 L-28.27763496646761,1676.4 L-28.280098064699352,1676.4 L-28.28223326175093,1676.4 L-28.284040338278782,1676.4 L-28.285519108646326,1676.4 L-28.2866694209431,1676.4 L-28.287491157000332,1676.4 L-28.287984232403073,1676.4 L-28.288148596498893,1676.4 " />
			<path d="M-28.288148596498893,1676.4 L-28.287984232403076,1676.4 L-28.287491157000332,1676.4 L-28.286669420943102,1676.4 L-28.285519108646326,1676.4 L-28.284040338278785,1676.4 L-28.282233261750935,1676.4 L-28.280098064699352,1676.4 L-28.27763496646761,1676.4 L-28.274844220083786,1676.4 L-28.271726112234447,1676.4 L-28.2682809632352,1676.4 L-28.26450912699779,1676.4 L-28.26041099099377,1676.4 L-28.255986976214633,1676.4 " />
			<path d="M-9.36209378290989,-2.1094237467877974e-15 L-9.291505742291132,-2.1071898749956272e-15 L-9.181967981591722,-2.100516351853025e-15 L-9.03485800170775,-2.089487100785578e-15 L-8.852025795991452,-2.0742408210247802e-15 L-8.635770585511425,-2.0549692433847202e-15 L-8.388811905013654,-2.031914719135852e-15 L-8.114255403194157,-2.0053671722971513e-15 L-7.815553787364712,-1.975660453673361e-15 L-7.49646340365509,-1.9431681424874144e-15 L-7.160996998780995,-1.9082988484049533e-15 L-6.813373257425853,-1.8714910730306996e-15 L-6.457963749833203,-1.8332076954963537e-15 L-6.099237956774417,-1.7939301514869428e-15 L-5.741707063234793,-1.7541523789077506e-15 " />
			<path d="M-9.362093782910074,1676.4 L-9.29150574229132,1676.4 L-9.181967981591907,1676.4 L-9.034858001707935,1676.4 L-8.852025795991633,1676.4 L-8.63577058551161,1676.4 L-8.388811905013835,1676.4 L-8.114255403194342,1676.4 L-7.8155537873649,1676.4 L-7.496463403655278,1676.4 L-7.160996998781176,1676.4 L-6.813373257426038,1676.4 L-6.457963749833384,1676.4 L-6.099237956774603,1676.4 L-5.741707063234978,1676.4 " />
			<path d="M-5.741707063234765,-1.7541523789077472e-15 L25.540696936458097,1.7541523789077472e-15 " />
			<path d="M-5.74170706323495,1676.4 L25.540696936457913,1676.4 " />
			<path d="M25.540696936458097,1.7541523789077474e-15 L25.86110380021448,1.7903499566953587e-15 L26.17346569370011,1.826170787634285e-15 L26.474531533107385,1.8612420460826373e-15 L26.76116780472693,1.8951987079999295e-15 L27.030391178771197,1.927687350142091e-15 L27.279399560073507,1.9583698285146e-15 L27.50560125248497,1.986926797798151e-15 L27.706641933424017,2.0130610351164318e-15 L27.8804291578258,2.0365005335520117e-15 L28.02515413645257,2.057001333212819e-15 L28.139310561894924,2.0743500603832675e-15 L28.221710286321677,2.0883661483323874e-15 L28.271495687803196,2.0989037166646255e-15 L28.288148596498708,2.105853089652912e-15 " />
			<path d="M28.288148596498708,2.105853089652913e-15 L28.28798423240289,2.1063442539598213e-15 L28.287491157000147,2.106799238454793e-15 L28.286669420942918,2.1072179963983813e-15 L28.28551910864615,2.1076004847726042e-15 L28.284040338278594,2.1079466642853643e-15 L28.28223326175075,2.1082564993744853e-15 L28.280098064699168,2.1085299582113644e-15 L28.277634966467424,2.1087670127042427e-15 L28.2748442200836,2.10896763850109e-15 L28.271726112234262,2.1091318149921083e-15 L28.268280963235014,2.1092595253118473e-15 L28.26450912699761,2.1093507563409374e-15 L28.260410990993584,2.1094054987074373e-15 L28.255986976214448,2.1094237467877974e-15 " />
			<path d="M25.540696936457913,1676.4 L25.861103800214295,1676.4 L26.173465693699924,1676.4 L26.4745315331072,1676.4 L26.76116780472675,1676.4 L27.030391178771012,1676.4 L27.279399560073323,1676.4 L27.505601252484784,1676.4 L27.706641933423832,1676.4 L27.88042915782562,1676.4 L28.025154136452386,1676.4 L28.139310561894742,1676.4 L28.221710286321496,1676.4 L28.271495687803014,1676.4 L28.288148596498523,1676.4 " />
			<path d="M28.288148596498523,1676.4 L28.287984232402703,1676.4 L28.287491156999963,1676.4 L28.286669420942733,1676.4 L28.285519108645957,1676.4 L28.284040338278416,1676.4 L28.282233261750566,1676.4 L28.280098064698983,1676.4 L28.27763496646724,1676.4 L28.274844220083416,1676.4 L28.271726112234077,1676.4 L28.26828096323483,1676.4 L28.26450912699742,1676.4 L28.260410990993396,1676.4 L28.255986976214263,1676.4 " />
			<path d="M-2253.424403490714,0.01845663382401789 L-2265.45019409652,-0.055383972918109405 " />
			<path d="M-2255.314701275466,1676.4169348064531 L-2267.340491881272,1676.343094199711 " />
			<path d="M-2262.7501826314574,-0.05501843699317503 L-2264.706153935708,-0.056431484688457066 L-2265.2834534276208,-0.05636268982895157 L-2265.4336807183176,-0.056127164315237524 L-2265.471612751851,-0.05596169419347008 L-2265.4811193607256,-0.0558675652775585 L-2265.484290404147,-0.055766084208087596 " />
			<path d="M-2265.484290404147,-0.05576608420808759 L-2265.482155900017,-0.055677473947461975 L-2265.47575504092,-0.055584167974498326 L-2265.45019409652,-0.05538397291810942 " />
			<path d="M-2267.3404911062444,1676.342406871626 L-2267.366052437122,1676.3425494214835 L-2267.372453490364,1676.34262829209 L-2267.374588188899,1676.342712088421 " />
			<path d="M-2267.374588188899,1676.342712088421 L-2267.372453684769,1676.3428006986815 L-2267.366052825672,1676.3428940046545 L-2267.340491881272,1676.343094199711 " />
			<path d="M-2253.424403490714,0.018456633824017885 L-2252.167698248918,0.021424349863363713 L-2249.7926116397293,0.024543475840351922 " />
			<path d="M-2255.3147012754657,1676.4169348064531 L-2254.0579960336695,1676.4199025224923 L-2251.682909424481,1676.4230216484693 " />
			<path d="M-2249.7926116397293,0.02454347584035195 L-2218.5293327667423,0.05640209192536487 " />
			<path d="M-2251.682909424481,1676.4230216484693 L-2220.419630551494,1676.4548802645545 " />
			<path d="M-2218.529332766742,0.056402091925364856 L-2216.5733614624914,0.05781513962064689 L-2215.9960619705785,0.05774634476114139 L-2215.8458346798816,0.05751081924742735 L-2215.8079026463483,0.0573453491256599 L-2215.7983960374736,0.05725122020974832 L-2215.795224994052,0.057149739140277434 " />
			<path d="M-2215.795224994052,0.05714973914027741 L-2215.7973594981822,0.0570611288796518 L-2215.8037603572793,0.05696782290668815 L-2215.829321301679,0.056767627850299235 " />
			<path d="M-2220.4196305514943,1676.4548802645545 L-2218.463659247244,1676.4562933122497 L-2217.886359755331,1676.4562245173904 L-2217.736132464634,1676.4559889918767 L-2217.6982004311008,1676.4558235217548 L-2217.688693822226,1676.455729392839 L-2217.6855227788046,1676.4556279117694 " />
			<path d="M-2217.6855227788046,1676.4556279117694 L-2217.6876572829347,1676.455539301509 L-2217.6940581420317,1676.455445995536 L-2217.7196190864315,1676.4552458004794 " />
			<path d="M-2225.005808566906,0.00042227729192455266 L-2227.8551119074855,-0.01707297889182806 " />
			<path d="M-2227.855111907485,-0.017072978891828055 L-2229.1118171492813,-0.020040694931173882 L-2231.48690375847,-0.023159820908162113 " />
			<path d="M-2262.750182631457,-0.055018436993175046 L-2231.48690375847,-0.023159820908162126 " />
			<path d="M-2216.9353257801367,0.0004222561450495446 L-2228.616729809555,0.0004222867535270611 " />
			<path d="M-28.255990265123707,3.90544472956833e-05 L-2225.0059094477956,0.0004216578643690248 " />
			<path d="M-28.256496735754624,4.105845315427459e-05 L-28.25599026512371,3.905444729257468e-05 " />
			<path d="M-16.574586235705084,3.9023838819929324e-05 L-2216.935325780137,0.0004222561450521066 " />
			<path d="M-16.574586235705087,3.90238388168207e-05 L-16.552380740476416,0.0038935639240809117 L-16.5302287389145,0.015447898371557578 L-16.50818359713138,0.034674191777523955 L-16.48629842380455,0.06152612631714005 L-16.46462594223346,0.09593901332814836 L-16.4432183633245,0.1378299491515267 L-16.42212725981035,0.1870980148536634 L-16.401403442006732,0.24362451934890972 L-16.381096835405927,0.3072732853367981 L-16.361256360401892,0.3778909773650918 L-16.341929814436725,0.45530747122831494 L-16.323163756852466,0.5393362638118679 L-16.287492483954164,0.7264055723257834 L-16.25458607556491,0.9372973232033623 L-16.22476143838595,1.1699805135984955 L-16.198305799977135,1.4222142771901105 L-16.175473942598458,1.6915694649498172 L-16.156485749517643,1.975452039174963 L-16.141524087414055,2.2711280554897617 L-16.13073304527263,2.57574999222415 L-16.124216546728178,2.886384173604086 L-16.12203734922396,3.200039022652939 " />
			<path d="M-2216.9353257801367,0.0004222561450490936 L-2216.9138933971053,0.004012919159373851 L-2216.892509110639,0.01477685027648823 L-2216.871220910593,0.03268989346516982 L-2216.8500765711883,0.05771184891125536 " />
			<path d="M-16.12203734922396,3.2000390226529696 L-16.122031953935057,34.8000390226525 " />
			<path d="M-2216.4827768936557,3.2004222549592 L-2216.4827714983667,34.80042225495873 " />
			<path d="M-16.57457974769944,38.000039023838255 L-2215.838009621071,38.00042206502832 " />
			<path d="M-16.12203195393505,34.8000390226525 L-16.124211044334302,35.1136938717128 L-16.130727436805262,35.424328053126885 L-16.14151837492622,35.72894998991782 L-16.15647993606414,36.02462600631103 L-16.175468032206442,36.30850858063569 L-16.19829979760733,36.577863768515044 L-16.22475534988488,36.830097532245304 L-16.25457990760858,37.06278072279673 L-16.287486243983793,37.27367247384676 L-16.32315745300279,37.460741782547615 L-16.341923481893406,37.54477057522951 L-16.361250001422853,37.62218706919401 L-16.381090452312787,37.692804761326286 L-16.40139703717919,37.75645352742059 L-16.422120835680477,37.81298003202444 L-16.443211922370867,37.8622480978371 L-16.46461948697516,37.90413903377267 L-16.486291956795146,37.938551920897254 L-16.50817712095274,37.965403855551564 L-16.53022225617058,37.984630149073055 L-16.55237425378699,37.996184483636625 L-16.57457974769943,38.000039023838255 " />
			<path d="M-16.57458295101272,406.3999999999999 L-2216.2534149767434,406.3999999999999 " />
			<path d="M-28.255986976214484,406.3999999999999 L-2216.2534149767434,406.3999999999999 " />
			<path d="M-16.57458295101272,406.3999999999999 L-16.552377456450177,406.40385454014336 L-16.530225456869008,406.4154088746489 L-16.508180318376493,406.4346351681126 L-16.486295149642178,406.46148710270955 L-16.464622673954462,406.49589998977734 L-16.443215102205563,406.53779092565685 L-16.422124007110906,406.58705899141427 L-16.401400198965934,406.6435854959638 L-16.381093603239663,406.7072342620049 L-16.36125314029984,406.7778519540852 L-16.341926607559508,406.85526844799904 L-16.323160564328845,406.9392972406318 L-16.287489323383074,407.12636654923915 L-16.25458295101272,407.33725830020296 L-16.224758353572156,407.56994149067623 L-16.198302758238523,407.8221752543372 L-16.175470946856983,408.09153044215674 L-16.156482802252278,408.3754130164316 L-16.141521190636926,408.67108903278563 L-16.130730200509632,408.9757109695483 L-16.124213755004277,409.2863451509453 L-16.12203461105333,409.59999999999985 " />
			<path d="M-2216.9353225116874,406.3999999999999 L-2216.913117017125,406.40385454014336 L-2216.8909650175437,406.4154088746489 L-2216.868919879051,406.4346351681126 L-2216.847034710317,406.46148710270955 L-2216.825362234629,406.49589998977734 L-2216.80395466288,406.53779092565685 L-2216.7828635677856,406.58705899141427 L-2216.762139759641,406.6435854959638 L-2216.741833163914,406.7072342620049 L-2216.7219927009746,406.7778519540852 L-2216.7026661682344,406.85526844799904 L-2216.6839001250037,406.9392972406318 L-2216.648228884058,407.12636654923915 L-2216.6153225116873,407.33725830020296 L-2216.585497914247,407.56994149067623 L-2216.5590423189133,407.8221752543372 L-2216.536210507532,408.09153044215674 L-2216.517222362927,408.3754130164316 L-2216.5022607513115,408.67108903278563 L-2216.4914697611844,408.9757109695483 L-2216.484953315679,409.2863451509453 L-2216.482774171728,409.59999999999985 " />
			<path d="M-16.122034611053326,409.5999999999999 L-16.122034611053326,441.19999999999993 " />
			<path d="M-2216.482774171728,409.5999999999999 L-2216.482774171728,441.19999999999993 " />
			<path d="M-16.57458295101272,444.3999999999999 L-2216.2962635695785,444.3999999999999 " />
			<path d="M-16.12203461105333,441.19999999999993 L-16.124213755004277,441.51365484905455 L-16.130730200509632,441.82428903045155 L-16.141521190636926,442.1289109672142 L-16.156482802252278,442.42458698356825 L-16.175470946856983,442.7084695578431 L-16.198302758238523,442.97782474566264 L-16.224758353572156,443.2300585093236 L-16.25458295101272,443.4627416997969 L-16.287489323383074,443.6736334507607 L-16.323160564328845,443.86070275936805 L-16.341926607559508,443.9447315520008 L-16.36125314029984,444.02214804591466 L-16.381093603239663,444.09276573799497 L-16.401400198965934,444.15641450403604 L-16.422124007110906,444.2129410085856 L-16.443215102205563,444.262209074343 L-16.464622673954462,444.3041000102225 L-16.486295149642178,444.3385128972903 L-16.508180318376493,444.36536483188723 L-16.530225456869008,444.38459112535094 L-16.552377456450177,444.3961454598565 L-16.574582951012715,444.3999999999999 " />
			<path d="M-28.255986976214484,444.3999999999999 L-2216.2962635695785,444.3999999999999 " />
			<path d="M-16.574582951012758,812.7999999999998 L-2216.711669401169,812.7999999999998 " />
			<path d="M-16.574582951012758,812.7999999999998 L-16.552377456450216,812.8038545401433 L-16.530225456869047,812.8154088746488 L-16.50818031837653,812.8346351681126 L-16.486295149642217,812.8614871027096 L-16.4646226739545,812.8958999897774 L-16.443215102205603,812.9377909256568 L-16.422124007110945,812.9870589914142 L-16.401400198965973,813.0435854959637 L-16.3810936032397,813.1072342620049 L-16.36125314029988,813.1778519540851 L-16.341926607559547,813.255268447999 L-16.323160564328884,813.3392972406317 L-16.287489323383113,813.5263665492391 L-16.254582951012758,813.7372583002029 L-16.224758353572195,813.9699414906762 L-16.19830275823856,814.2221752543371 L-16.175470946857022,814.4915304421567 L-16.156482802252317,814.7754130164316 L-16.141521190636965,815.0710890327856 L-16.13073020050967,815.3757109695483 L-16.124213755004316,815.6863451509453 L-16.122034611053365,815.9999999999999 " />
			<path d="M-2216.9353225116874,812.7999999999998 L-2216.913117017125,812.8038545401433 L-2216.8909650175437,812.8154088746488 L-2216.868919879051,812.8346351681126 L-2216.847034710317,812.8614871027096 L-2216.825362234629,812.8958999897774 L-2216.80395466288,812.9377909256568 L-2216.7828635677856,812.9870589914142 L-2216.762139759641,813.0435854959637 L-2216.741833163914,813.1072342620049 L-2216.7219927009746,813.1778519540851 L-2216.7026661682344,813.255268447999 L-2216.6839001250037,813.3392972406317 L-2216.648228884058,813.5263665492391 L-2216.6153225116873,813.7372583002029 L-2216.585497914247,813.9699414906762 L-2216.5590423189133,814.2221752543371 L-2216.536210507532,814.4915304421567 L-2216.517222362927,814.7754130164316 L-2216.5022607513115,815.0710890327856 L-2216.4914697611844,815.3757109695483 L-2216.484953315679,815.6863451509453 L-2216.482774171728,815.9999999999999 " />
			<path d="M-16.122034611053365,815.9999999999999 L-16.122034611053365,847.5999999999998 " />
			<path d="M-2216.482774171728,815.9999999999999 L-2216.482774171728,847.5999999999998 " />
			<path d="M-16.574582951012758,850.7999999999998 L-2216.754517994004,850.7999999999998 " />
			<path d="M-16.122034611053365,847.5999999999998 L-16.124213755004316,847.9136548490544 L-16.13073020050967,848.2242890304514 L-16.141521190636965,848.5289109672141 L-16.156482802252317,848.8245869835681 L-16.175470946857022,849.108469557843 L-16.19830275823856,849.3778247456626 L-16.224758353572195,849.6300585093235 L-16.254582951012758,849.8627416997967 L-16.287489323383113,850.0736334507606 L-16.323160564328884,850.260702759368 L-16.341926607559547,850.3447315520007 L-16.36125314029988,850.4221480459146 L-16.3810936032397,850.4927657379948 L-16.401400198965973,850.556414504036 L-16.422124007110945,850.6129410085855 L-16.443215102205603,850.6622090743429 L-16.4646226739545,850.7041000102223 L-16.486295149642217,850.7385128972901 L-16.50818031837653,850.765364831887 L-16.530225456869047,850.7845911253509 L-16.552377456450216,850.7961454598563 L-16.574582951012754,850.7999999999998 " />
			<path d="M-2216.482774171728,847.5999999999998 L-2216.484953315679,847.9136548490544 L-2216.4914697611844,848.2242890304514 L-2216.5022607513115,848.5289109672141 L-2216.517222362927,848.8245869835681 L-2216.536210507532,849.108469557843 L-2216.5590423189133,849.3778247456626 L-2216.585497914247,849.6300585093235 L-2216.6153225116873,849.8627416997967 L-2216.648228884058,850.0736334507606 L-2216.6839001250037,850.260702759368 L-2216.7026661682344,850.3447315520007 L-2216.7219927009746,850.4221480459146 L-2216.741833163914,850.4927657379948 L-2216.762139759641,850.556414504036 L-2216.7828635677856,850.6129410085855 L-2216.80395466288,850.6622090743429 L-2216.825362234629,850.7041000102223 L-2216.847034710317,850.7385128972901 L-2216.868919879051,850.765364831887 L-2216.8909650175437,850.7845911253509 L-2216.913117017125,850.7961454598563 L-2216.9353225116874,850.7999999999998 " />
			<path d="M-16.574582951012804,1219.1999999999996 L-2216.9353225116874,1219.1999999999996 " />
			<path d="M-2216.935322511687,1219.1999999999996 L-2217.1699238255947,1219.1999999999996 " />
			<path d="M-16.574582951012804,1219.1999999999996 L-16.552377456450262,1219.203854540143 L-16.530225456869093,1219.2154088746486 L-16.508180318376578,1219.2346351681124 L-16.486295149642263,1219.2614871027092 L-16.464622673954548,1219.2958999897771 L-16.44321510220565,1219.3377909256565 L-16.42212400711099,1219.387058991414 L-16.40140019896602,1219.4435854959636 L-16.381093603239748,1219.5072342620047 L-16.361253140299926,1219.577851954085 L-16.341926607559593,1219.6552684479989 L-16.32316056432893,1219.7392972406315 L-16.28748932338316,1219.9263665492388 L-16.254582951012804,1220.1372583002026 L-16.22475835357224,1220.369941490676 L-16.198302758238608,1220.622175254337 L-16.175470946857068,1220.8915304421564 L-16.156482802252363,1221.1754130164313 L-16.14152119063701,1221.4710890327854 L-16.130730200509717,1221.775710969548 L-16.124213755004362,1222.0863451509451 L-16.122034611053415,1222.3999999999996 " />
			<path d="M-2216.9353225116874,1219.1999999999996 L-2216.913117017125,1219.203854540143 L-2216.8909650175437,1219.2154088746486 L-2216.868919879051,1219.2346351681124 L-2216.847034710317,1219.2614871027092 L-2216.825362234629,1219.2958999897771 L-2216.80395466288,1219.3377909256565 L-2216.7828635677856,1219.387058991414 L-2216.762139759641,1219.4435854959636 L-2216.741833163914,1219.5072342620047 L-2216.7219927009746,1219.577851954085 L-2216.7026661682344,1219.6552684479989 L-2216.6839001250037,1219.7392972406315 L-2216.648228884058,1219.9263665492388 L-2216.6153225116873,1220.1372583002026 L-2216.585497914247,1220.369941490676 L-2216.5590423189133,1220.622175254337 L-2216.536210507532,1220.8915304421564 L-2216.517222362927,1221.1754130164313 L-2216.5022607513115,1221.4710890327854 L-2216.4914697611844,1221.775710969548 L-2216.484953315679,1222.0863451509451 L-2216.482774171728,1222.3999999999996 " />
			<path d="M-16.122034611053415,1222.3999999999996 L-16.122034611053415,1253.9999999999995 " />
			<path d="M-2216.482774171728,1222.3999999999996 L-2216.482774171728,1253.9999999999995 " />
			<path d="M-16.574582951012804,1257.1999999999996 L-2216.9353225116874,1257.1999999999996 " />
			<path d="M-16.122034611053415,1253.9999999999995 L-16.124213755004362,1254.313654849054 L-16.130730200509717,1254.624289030451 L-16.14152119063701,1254.9289109672138 L-16.156482802252363,1255.2245869835679 L-16.175470946857068,1255.5084695578428 L-16.198302758238608,1255.7778247456622 L-16.22475835357224,1256.0300585093232 L-16.254582951012804,1256.2627416997966 L-16.28748932338316,1256.4736334507604 L-16.32316056432893,1256.6607027593677 L-16.341926607559593,1256.7447315520003 L-16.361253140299926,1256.8221480459142 L-16.381093603239748,1256.8927657379945 L-16.40140019896602,1256.9564145040356 L-16.42212400711099,1257.0129410085851 L-16.44321510220565,1257.0622090743427 L-16.464622673954548,1257.104100010222 L-16.486295149642263,1257.13851289729 L-16.508180318376578,1257.1653648318868 L-16.530225456869093,1257.1845911253506 L-16.552377456450262,1257.196145459856 L-16.5745829510128,1257.1999999999996 " />
			<path d="M-2216.482774171728,1253.9999999999995 L-2216.484953315679,1254.313654849054 L-2216.4914697611844,1254.624289030451 L-2216.5022607513115,1254.9289109672138 L-2216.517222362927,1255.2245869835679 L-2216.536210507532,1255.5084695578428 L-2216.5590423189133,1255.7778247456622 L-2216.585497914247,1256.0300585093232 L-2216.6153225116873,1256.2627416997966 L-2216.648228884058,1256.4736334507604 L-2216.6839001250037,1256.6607027593677 L-2216.7026661682344,1256.7447315520003 L-2216.7219927009746,1256.8221480459142 L-2216.741833163914,1256.8927657379945 L-2216.762139759641,1256.9564145040356 L-2216.7828635677856,1257.0129410085851 L-2216.80395466288,1257.0622090743427 L-2216.825362234629,1257.104100010222 L-2216.847034710317,1257.13851289729 L-2216.868919879051,1257.1653648318868 L-2216.8909650175437,1257.1845911253506 L-2216.913117017125,1257.196145459856 L-2216.9353225116874,1257.1999999999996 " />
			<path d="M-2216.935322511687,1257.1999999999996 L-2217.2127724184297,1257.1999999999996 " />
			<path d="M-2216.9353196539014,1638.3995644682295 L-2217.642610969135,1638.3995644680267 " />
			<path d="M-16.574580093251818,1638.3999027170041 L-2216.9353196539014,1638.3995644682295 " />
			<path d="M-16.574580093251814,1638.399902717004 L-16.55237459926998,1638.4037572571538 L-16.53022260142954,1638.4153115916656 L-16.508177465833565,1638.4345378851358 L-16.486292301144644,1638.461389819739 L-16.464619830641418,1638.495802706813 L-16.44321226520362,1638.5376936426985 L-16.422121177531466,1638.586961708462 L-16.401397377902523,1638.6434882130175 L-16.381090791765285,1638.7071369790644 L-16.361250339464405,1638.7777546711504 L-16.341923818387293,1638.8551711650698 L-16.32315778781603,1638.9391999577078 L-16.287486575053276,1639.1262692663254 L-16.254580234454917,1639.3371610172987 L-16.224755672069353,1639.5698442077805 L-16.19830011473612,1639.822077971449 L-16.175468343934416,1640.091433159275 L-16.156480242098176,1640.3753157335555 L-16.14151867502804,1640.6709917499138 L-16.13072773079371,1640.9756136866795 L-16.124211332087096,1641.2862478680784 L-16.122032235389973,1641.5999027171335 " />
			<path d="M-2216.9353196539014,1638.3995644682293 L-2216.9131141599196,1638.4034190083792 L-2216.890962162079,1638.414973342891 L-2216.8689170264834,1638.4341996363612 L-2216.847031861794,1638.4610515709644 L-2216.825359391291,1638.4954644580384 L-2216.8039518258533,1638.537355393924 L-2216.782860738181,1638.5866234596874 L-2216.7621369385524,1638.6431499642429 L-2216.741830352415,1638.7067987302898 L-2216.7219899001143,1638.7774164223758 L-2216.702663379037,1638.8548329162952 L-2216.6838973484655,1638.9388617089332 L-2216.6482261357028,1639.1259310175508 L-2216.615319795105,1639.3368227685241 L-2216.585495232719,1639.569505959006 L-2216.559039675386,1639.8217397226745 L-2216.536207904584,1640.0910949105005 L-2216.517219802748,1640.3749774847809 L-2216.502258235678,1640.6706535011392 L-2216.4914672914433,1640.9752754379049 L-2216.484950892737,1641.2859096193038 L-2216.4827717960397,1641.599564468359 " />
			<path d="M-16.12203223538997,1641.5999027171338 L-16.122036996103244,1673.1999027171332 " />
			<path d="M-2216.4827717960397,1641.5995644683592 L-2216.4827765567534,1673.1995644683586 " />
			<path d="M-16.57458581816018,1676.3999027170037 L-2216.93532537881,1676.399564468229 " />
			<path d="M-16.122036996103244,1673.1999027171332 L-16.12421618730801,1673.5135575661873 L-16.130732679612112,1673.8241917475825 L-16.14152371563237,1674.128813684342 L-16.156485371792936,1674.4244897006918 L-16.175473559166107,1674.7083722749612 L-16.198305411127485,1674.977727462774 L-16.224761044461516,1675.2299612264276 L-16.254585676957078,1675.4626444168923 L-16.287492081099433,1675.6735361678466 L-16.32316335022822,1675.8606054764439 L-16.341929406118282,1675.9446342690712 L-16.361255950521834,1676.0220507629795 L-16.381096424100598,1676.092668455054 L-16.401403029415906,1676.1563172210892 L-16.422126846076903,1676.2128437256329 L-16.443217948594068,1676.2621117913843 L-16.464625526654064,1676.3040027272577 L-16.48629800752627,1676.3384156143193 L-16.508183180305974,1676.36526754891 L-16.530228321695038,1676.3844938423674 L-16.55238032301693,1676.3960481768665 L-16.574585818160177,1676.3999027170037 " />
			<path d="M-2216.4827765567534,1673.1995644683586 L-2216.484955747958,1673.5132193174127 L-2216.4914722402623,1673.823853498808 L-2216.5022632762825,1674.1284754355675 L-2216.517224932443,1674.4241514519172 L-2216.5362131198162,1674.7080340261866 L-2216.5590449717774,1674.9773892139995 L-2216.5855006051115,1675.229622977653 L-2216.615325237607,1675.4623061681177 L-2216.6482316417496,1675.673197919072 L-2216.6839029108783,1675.8602672276693 L-2216.702668966768,1675.9442960202966 L-2216.721995511172,1676.0217125142049 L-2216.7418359847507,1676.0923302062795 L-2216.762142590066,1676.1559789723146 L-2216.782866406727,1676.2125054768583 L-2216.8039575092444,1676.2617735426097 L-2216.825365087304,1676.3036644784831 L-2216.8470375681763,1676.3380773655447 L-2216.868922740956,1676.3649293001354 L-2216.890967882345,1676.3841555935928 L-2216.913119883667,1676.395709928092 L-2216.9353253788104,1676.399564468229 " />
			<path d="M-2216.93532537881,1676.399564468229 L-2217.68545956197,1676.399564468014 " />
			<path d="M-28.255989843361945,1676.3999027136558 L-2217.685459563862,1676.3995661452823 " />
			<path d="M-28.255989843361952,1676.399902713656 L-28.256468834341685,1676.399900921215 " />
			<path d="M-9.36209378290989,-2.1094237467877974e-15 L-9.362093782910074,1676.4 " />
			<path d="M-28.255986976214444,-2.1094237467877974e-15 L-28.255986976214444,4.105836437083264e-05 " />
			<path d="M-28.255986976214448,38.000041058364936 L-28.25598697621449,406.3999999999999 " />
			<path d="M-28.255986976214494,444.3999999999999 L-28.255986976214533,812.7999999999998 " />
			<path d="M-28.255986976214537,850.7999999999998 L-28.25598697621458,1219.1999999999996 " />
			<path d="M-28.255986976214583,1257.1999999999996 L-28.255986976214626,1638.3999009212887 " />
			<path d="M-28.25598697621463,1676.3999009212891 L-28.25598697621463,1676.4 " />
			<path d="M-5.741707063234765,-1.7541523789077474e-15 L-5.741707063234949,1676.4 " />
			<path d="M25.540696936458097,1.7541523789077474e-15 L25.540696936457913,1676.4 " />
			<path d="M28.255986976214444,2.1094237467877974e-15 L28.25598697621426,1676.4 " />
			<path d="M-2253.424403490714,0.01845663382401789 L-2255.314701275466,1676.4169348064531 " />
			<path d="M-2265.45019409652,-0.055383972918109405 L-2267.340491881272,1676.343094199711 " />
			<path d="M-2249.792611639729,0.024543475840351957 L-2251.682909424481,1676.4230216484696 " />
			<path d="M-2218.529332766742,0.05640209192536486 L-2220.419630551494,1676.4548802645545 " />
			<path d="M-2215.868498057104,34.800422147971986 L-2216.291120017792,409.5999999999999 " />
			<path d="M-2216.326752005518,441.2 L-2216.745766139663,812.7999999999998 " />
			<path d="M-2216.788614732498,850.8 L-2217.719619086431,1676.4552458004796 " />
			<path d="M-16.574586235705084,3.9023838819929324e-05 L-2216.935325780137,0.0004222561450521066 " />
			<path d="M-28.255990265123707,3.90544472956833e-05 L-2225.0059094477956,0.0004216578643690248 " />
			<path d="M-16.12203734922396,3.200039022652968 L-2216.4827768936557,3.2004222549592 " />
			<path d="M-16.122031953935053,34.8000390226525 L-2216.482771498367,34.80042225495873 " />
			<path d="M-16.122034611053326,409.5999999999999 L-2216.482774171728,409.5999999999999 " />
			<path d="M-16.122034611053326,441.19999999999993 L-2216.482774171728,441.19999999999993 " />
			<path d="M-16.122034611053365,815.9999999999999 L-2216.482774171728,815.9999999999999 " />
			<path d="M-16.122034611053365,847.5999999999998 L-2216.482774171728,847.5999999999998 " />
			<path d="M-16.122034611053415,1222.3999999999996 L-2216.482774171728,1222.3999999999996 " />
			<path d="M-16.122034611053415,1253.9999999999995 L-2216.482774171728,1253.9999999999995 " />
			<path d="M-16.574580093251818,1638.3999027170041 L-2216.9353196539014,1638.3995644682295 " />
			<path d="M-16.12203223538997,1641.5999027171338 L-2216.4827717960397,1641.5995644683592 " />
			<path d="M-16.12203699610324,1673.1999027171332 L-2216.482776556753,1673.1995644683586 " />
			<path d="M-28.255989843361945,1676.3999027136558 L-2217.685459563862,1676.3995661452823 " />
			<path d="M-28.288148596498893,1676.4 L-28.288148596498893,1676.3999009163451 " />
			<path d="M-28.28814859649889,1638.3999009163447 L-28.288148596498846,1257.1999999999996 " />
			<path d="M-28.288148596498843,1219.1999999999996 L-28.2881485964988,850.7999999999998 " />
			<path d="M-28.288148596498797,812.7999999999998 L-28.288148596498758,444.3999999999999 " />
			<path d="M-28.288148596498754,406.3999999999999 L-28.28814859649871,38.00004106396646 " />
			<path d="M-28.288148596498708,4.10639658941157e-05 L-28.288148596498708,-2.105853089652913e-15 " />
			<path d="M28.288148596498523,1676.4 L28.288148596498708,2.105853089652913e-15 " />
			<path d="M-2267.3745881888995,1676.3427120884216 L-2265.4842904041475,-0.05576608420808759 " />
			<path d="M-2217.6855227788037,1676.4556279117699 L-2216.754216453502,850.5325807379211 " />
			<path d="M-2216.7121387247694,813.2162166278878 L-2216.2926552670237,441.2 " />
			<path d="M-2216.2570232792978,409.59999999999997 L-2215.834401318603,34.80042214203343 " />

       </g>
    </g>
    
</svg>
