<?xml version="1.0" encoding="UTF-8" standalone="no"?>
<svg
   xmlns:svg="http://www.w3.org/2000/svg"
   xmlns="http://www.w3.org/2000/svg"
   width="480.0"
   height="480.0"

>
    <g transform="scale(0.16011577252593495, -0.16011577252593495)   translate(2274.084485364697,-1733.0267649886578)" stroke-width="1.0"  fill="none">
       <!-- hidden lines -->
       <g  stroke="rgb(0,0,0)" fill="none" stroke-dasharray="1.0,1.0" >
			<path d="M-13.865960081009288,-2.8074124043472355 L-36.620326348720496,8.030257246598074 " />
			<path d="M-34.42255732554147,8.568598514526437 L-34.66797360518267,8.557579654081112 L-34.906055707544176,8.543901821064402 L-35.13525085427861,8.527654222698263 L-35.35406422801982,8.508942826288465 L-35.56106872162495,8.487889668102778 L-35.754914245808415,8.464632057446904 L-35.934336534463256,8.439321681129217 L-36.09816539024115,8.412123614155025 L-36.24533231661336,8.383215243102612 L-36.37487748663589,8.352785109202852 L-36.485956002968614,8.321031678667865 L-36.577843408320064,8.288162048288632 L-36.61639816369777,8.271375404445244 L-36.64994041037883,8.254390594743763 L-36.67841543517621,8.237235324337007 L-36.70177679041534,8.219937576428594 L-36.719986369698304,8.202525566627507 L-36.733014470061946,8.185027696923578 L-36.74083984042852,8.16747250935894 L-36.743449716269865,8.149888639471046 " />
			<path d="M-36.743449716269865,8.149888639471044 L-36.74151364402421,8.134742980029015 L-36.735707770022096,8.119615647518792 L-36.72603911963321,8.104524946695761 L-36.7125193923611,8.089489137989322 L-36.69516494768623,8.074526415406925 L-36.67399678527027,8.059654884518517 L-36.620326348720496,8.030257246598076 " />
			<path d="M36.620326348720496,-8.030257246598074 L-0.0824163383692138,9.45088003696459 " />
			<path d="M-0.0824163383692138,9.45088003696459 L-0.12925833689477706,9.47128105549953 L-0.18339995425315436,9.491344723689998 L-0.24471075854588387,9.511022706401953 L-0.31304304667523253,9.530267597651454 L-0.3882322001738956,9.549033034809828 L-0.4700970817853012,9.567273810295303 L-0.6530495433707819,9.602006971564128 L-0.8601384992146173,9.634132582127837 L-1.0893695694656924,9.663341254795055 L-1.3385351336070395,9.68935169408091 L-1.6052355910482257,9.711913405236329 L-1.8869024705907917,9.7308091066494 L-2.1808231662099633,9.74585682238607 L-2.4841670609335322,9.75691163471788 L-2.794012787230671,9.763867079758901 L-3.107376361378233,9.766656172771151 L-3.421239920855223,9.76525205326425 L-3.7325807880086037,9.759668243676622 L-4.0384005800914515,9.749958519147013 " />
			<path d="M-34.422557325541476,8.568598514526437 L-4.038400580091457,9.749958519147013 " />
			<path d="M-2207.280849530422,-76.08339415083434 L-2207.659273908955,-76.10230226533297 L-2208.0176303260014,-76.12747265777053 L-2208.1874993015317,-76.14228566732216 L-2208.3502583657705,-76.15850774942366 L-2208.505264168102,-76.17607478176917 L-2208.651904004842,-76.19491732576166 L-2208.789598241119,-76.21496090098849 L-2208.917802602045,-76.23612627962586 L-2209.03601032411,-76.25832979960907 L-2209.1437541583105,-76.28148369533002 L-2209.2406082170783,-76.30549644455535 L-2209.326189657721,-76.33027313019356 L-2209.4001601957157,-76.35571581548137 L-2209.4622274418707,-76.38172393110601 " />
			<path d="M-2149.941996174078,-85.8655217700046 L-2172.9683539300318,-75.14383668850176 " />
			<path d="M-2172.968353930031,-75.14383668850176 L-2173.015827087442,-75.12360562457388 L-2173.0705893492277,-75.10372344930244 L-2173.1325087883033,-75.0842380605891 L-2173.2014362353157,-75.065196400442 L-2173.277205638008,-75.04664434188832 L-2173.359634461253,-75.02862657846205 L-2173.5436604916445,-74.99436617073934 L-2173.751742055218,-74.96274512372887 L-2173.981875212768,-74.93406796539918 L-2174.2318436561836,-74.90861087246151 L-2174.499240052708,-74.88661901063713 L-2174.781489228869,-74.86830417357736 L-2175.0758729708064,-74.85384274317501 L-2175.3795562021596,-74.84337399091028 L-2175.6896142874,-74.83699873659026 L-2176.003061197672,-74.83477837739913 L-2176.316878267883,-74.83673429660969 L-2176.6280432680956,-74.84284765765071 L-2176.9335595092584,-74.85305958551346 " />
			<path d="M-2207.280849530421,-76.08339415083431 L-2176.9335595092584,-74.85305958551344 " />
			<path d="M-13.928364417302742,-2.777652824327924 L-36.62032958572195,8.030295855703905 " />
			<path d="M-2151.1076428070382,-85.872490965407 L-2173.7996079754575,-75.06454228537515 " />
			<path d="M-37.499436664319184,11.619237663532923 L-37.498377766750004,11.463177401187307 L-37.49520357292596,11.30648439291647 L-37.48992172975802,11.149536125902022 L-37.482544961668985,10.992710702266244 L-37.47309103993933,10.836385928190962 L-37.46158273989455,10.680938403749355 L-37.448047786037485,10.526742615643396 L-37.43251878525748,10.374170035032591 L-37.415033148277594,10.223588222627413 L-37.39563299952888,10.075359943203349 L-37.37436507566892,9.9298422916688 L-37.35128061298915,9.787385832792152 L-37.32643522398212,9.648333756660554 L-37.299888763366155,9.513021051904925 L-37.271705183890056,9.381773698683016 L-37.24195238226539,9.254907883364654 L-37.2107020355973,9.13272923681107 L-37.17802942870812,9.015532098083396 L-37.14401327276962,8.903598805354084 L-37.108735515680934,8.797199015729522 L-37.07228114464884,8.696589055622432 L-37.034737981446185,8.602011303239106 L-36.996196470841525,8.513693604669065 L-36.95674946270973,8.431848724983883 L-36.916491988348554,8.356673835667488 L-36.87552103153986,8.288350039612784 L-36.83393529490724,8.227041934828925 L-36.79183496213272,8.172897217910291 L-36.7493214566055,8.126046328222456 L-36.70649719708415,8.086602133662332 L-36.66346535096081,8.054659658749515 L-36.62032958572195,8.030295855703905 " />
			<path d="M-2174.678715054055,-71.47560047754614 L-2174.6776561564857,-71.63166073989176 L-2174.6744819626615,-71.78835374816259 L-2174.669200119494,-71.94530201517705 L-2174.6618233514046,-72.10212743881283 L-2174.652369429675,-72.2584522128881 L-2174.64086112963,-72.41389973732971 L-2174.6273261757733,-72.56809552543567 L-2174.611797174993,-72.72066810604647 L-2174.5943115380132,-72.87124991845165 L-2174.574911389265,-73.01947819787571 L-2174.5536434654045,-73.16499584941027 L-2174.5305590027247,-73.30745230828691 L-2174.505713613718,-73.44650438441852 L-2174.479167153102,-73.58181708917414 L-2174.4509835736258,-73.71306444239605 L-2174.4212307720013,-73.83993025771441 L-2174.389980425333,-73.96210890426799 L-2174.357307818444,-74.07930604299567 L-2174.323291662505,-74.19123933572499 L-2174.288013905417,-74.29763912534955 L-2174.2515595343843,-74.39824908545664 L-2174.214016371182,-74.49282683783996 L-2174.175474860577,-74.58114453641001 L-2174.1360278524453,-74.66298941609519 L-2174.095770378084,-74.73816430541157 L-2174.0547994212757,-74.80648810146629 L-2174.013213684643,-74.86779620625015 L-2173.9711133518686,-74.92194092316878 L-2173.928599846341,-74.96879181285661 L-2173.88577558682,-75.00823600741674 L-2173.8427437406967,-75.04017848232955 L-2173.7996079754575,-75.06454228537517 " />
			<path d="M-2151.1076428070382,-85.87249096540701 L-2151.0764636625013,-85.88534673334827 L-2151.0453237497195,-85.89419725205852 L-2151.0142622517524,-85.8990313850135 L-2150.9833182529887,-85.89984304946933 " />
			<path d="M-2150.9833182529887,-85.89984304946933 L-2150.944594734406,-85.89514533590622 L-2150.9061962622495,-85.88408238512625 L-2150.8681993864993,-85.86667625187842 L-2150.830679856526,-85.84296163647984 L-2150.793712470079,-85.81298581563826 L-2150.7573709241715,-85.77680854820264 L-2150.7217276681604,-85.73450195602994 L-2150.6868537593145,-85.68615038020518 L-2150.6528187211566,-85.6318502129017 L-2150.619690404863,-85.5717097052168 L-2150.5875348539976,-85.5058487513658 L-2150.5564161728503,-85.4343986496647 L-2150.5263963986404,-85.35750184077796 L-2150.4975353778414,-85.27531162375337 L-2150.4698906468716,-85.18799185040987 L-2150.4435173173933,-85.09571659868774 L-2150.418467966442,-84.99866982561237 L-2150.3947925316133,-84.89704500056325 L-2150.3725382115044,-84.79104471957966 L-2150.351749371625,-84.68088030147148 L-2150.3324674559494,-84.56677136654076 L-2150.314730904295,-84.44894539875365 L-2150.298575075691,-84.3276372922355 L-2150.2840321778863,-84.20308888299336 L-2150.2598978704345,-83.94527030419628 L-2150.2425203395933,-83.6775445535903 L-2150.2320380894835,-83.4020454855274 L-2150.228534666775,-83.12096891002601 " />
			<path d="M-2150.2285294247986,-51.81492858542632 L-2150.229588322368,-51.65886832308071 L-2150.232762516192,-51.502175314809875 L-2150.2380443593597,-51.345227047795426 L-2150.245421127449,-51.188401624159646 L-2150.2548750491783,-51.03207685008436 L-2150.2663833492234,-50.87662932564275 L-2150.27991830308,-50.722433537536794 L-2150.2954473038603,-50.56986095692599 L-2150.3129329408403,-50.419279144520814 L-2150.3323330895887,-50.27105086509675 L-2150.353601013449,-50.1255332135622 L-2150.376685476129,-49.983076754685555 L-2150.4015308651356,-49.84402467855395 L-2150.4280773257515,-49.70871197379832 L-2150.4562609052277,-49.57746462057642 L-2150.486013706852,-49.45059880525805 L-2150.5172640535206,-49.32842015870447 L-2150.5499366604095,-49.21122301997679 L-2150.5839528163483,-49.09928972724749 L-2150.6192305734367,-48.99288993762292 L-2150.655684944469,-48.892279977515834 L-2150.6932281076715,-48.797702225132504 L-2150.7317696182763,-48.70938452656247 L-2150.771216626408,-48.62753964687728 L-2150.8114741007694,-48.55236475756089 L-2150.852445057578,-48.48404096150618 L-2150.8940307942107,-48.42273285672233 L-2150.936131126985,-48.36858813980369 L-2150.9786446325124,-48.32173725011585 L-2151.0214688920337,-48.28229305555573 L-2151.0645007381568,-48.250350580642916 L-2151.107636503396,-48.225986777597306 " />
			<path d="M-2151.107636503396,-48.225986777597306 L-2173.7996016718153,-37.41803809756548 " />
			<path d="M-36.86647335309636,45.667229578126644 L-36.90020756275033,45.64514450985831 L-36.933489106441066,45.61798331012757 L-36.96626415674185,45.58578990771073 L-36.99847970539578,45.54861637014484 L-37.03008364904791,45.50652281951702 L-37.06102487351385,45.45957733522685 L-37.091253336448574,45.407855843879126 L-37.120720148281684,45.351441996485086 L-37.149377651288255,45.290427033170616 L-37.177179496667364,45.22490963561037 L-37.20408071950366,45.15499576742637 L-37.23003781149073,45.08079850280923 L-37.255008791298636,45.002437843639306 L-37.27895327247182,44.92004052540332 L-37.32360955668918,44.74367528131011 L-37.3637178841538,44.55284327637651 L-37.3990188852704,44.348778569039155 L-37.429284278109726,44.13280079000568 L-37.454318344645415,43.90630660856348 L-37.47395919640901,43.67076070070104 L-37.48807982137845,43.42768627744846 L-37.49658890533009,43.17865523468794 L-37.49943142234289,42.92527798813257 " />
			<path d="M-2173.7996016718153,-37.41803809756547 L-2173.830780816352,-37.4051823296242 L-2173.861920729134,-37.39633181091397 L-2173.892982227101,-37.39149767795899 L-2173.9239262258648,-37.390686013503164 " />
			<path d="M-2173.9239262258648,-37.390686013503164 L-2173.9626497444474,-37.39538372706627 L-2174.001048216604,-37.40644667784623 L-2174.039045092354,-37.42385281109406 L-2174.0765646223276,-37.44756742649263 L-2174.1135320087747,-37.47754324733423 L-2174.149873554682,-37.513720514769844 L-2174.185516810693,-37.55602710694253 L-2174.220390719539,-37.6043786827673 L-2174.254425757697,-37.658678850070785 L-2174.2875540739906,-37.71881935775568 L-2174.319709624856,-37.78468031160667 L-2174.350828306003,-37.85613041330778 L-2174.380848080213,-37.933027222194525 L-2174.409709101012,-38.015217439219114 L-2174.437353831982,-38.102537212562616 L-2174.46372716146,-38.19481246428474 L-2174.4887765124113,-38.291859237360114 L-2174.51245194724,-38.39348406240922 L-2174.534706267349,-38.49948434339282 L-2174.5554951072286,-38.609648761501006 L-2174.574777022904,-38.72375769643172 L-2174.5925135745583,-38.84158366421883 L-2174.6086694031624,-38.96289177073698 L-2174.623212300967,-39.087440179979126 L-2174.647346608419,-39.3452587587762 L-2174.66472413926,-39.61298450938219 L-2174.67520638937,-39.888483577445086 L-2174.6787098120785,-40.1695601529465 " />
			<path d="M-37.499436664319184,11.619237663532921 L-37.49943142234289,42.925277988132564 " />
			<path d="M-2174.6787150540545,-71.47560047754614 L-2174.678709812078,-40.1695601529465 " />
			<path d="M-13.928361184397104,399.84176131070933 L-36.62032634872053,410.6497099605766 " />
			<path d="M-2151.107639605654,316.74654351735023 L-2173.799604769978,327.5544921672175 " />
			<path d="M-37.49943395799214,414.23865174676575 L-37.49837503437641,414.082591485426 L-37.495200814568946,413.92589847816146 L-37.48991894554331,413.76895021215125 L-37.4825421517846,413.6121247895153 L-37.47308820463513,413.45580001643293 L-37.46157987948165,413.300352492975 L-37.44804490088745,413.1461567058411 L-37.4325158758015,412.9935841261884 L-37.415030215005416,412.843002314725 L-37.39563004298761,412.69477403622426 L-37.37436209646173,412.54925638559223 L-37.35127761177382,412.40679992759516 L-37.32643220146943,412.2677478523181 L-37.29988572031821,412.1324351483899 L-37.27170212111844,412.00118779596625 L-37.24194930062918,411.87432198141516 L-37.21069893600104,411.752143335596 L-37.1780263120996,411.634946197568 L-37.14401014013764,411.52301290550207 L-37.10873236805286,411.416613116503 L-37.072277983088206,411.31600315698194 L-37.03473480705007,411.22142540514375 L-36.99619328473793,411.1331077070767 L-36.95674626605486,411.05126282785113 L-36.91648878232403,410.9760879389499 L-36.87551781734988,410.90776414326484 L-36.83393207377568,410.8464560388042 L-36.79183173530016,410.7923113221617 L-36.74931822532628,410.74546043270215 L-36.70649396262329,410.706016238322 L-36.66346211459103,410.67407376354026 L-36.62032634872054,410.6497099605767 " />
			<path d="M-2174.6787123792496,331.14343395340666 L-2174.677653455634,330.9873736920669 L-2174.6744792358263,330.83068068480236 L-2174.6691973668007,330.67373241879216 L-2174.661820573042,330.5169069961562 L-2174.6523666258927,330.36058222307383 L-2174.640858300739,330.2051346996159 L-2174.627323322145,330.050938912482 L-2174.611794297059,329.8983663328293 L-2174.594308636263,329.74778452136593 L-2174.5749084642453,329.59955624286516 L-2174.553640517719,329.45403859223313 L-2174.530556033031,329.31158213423606 L-2174.505710622727,329.172530058959 L-2174.479164141576,329.0372173550308 L-2174.450980542376,328.90597000260715 L-2174.4212277218867,328.77910418805607 L-2174.3899773572584,328.6569255422369 L-2174.357304733357,328.5397284042089 L-2174.323288561395,328.427795112143 L-2174.28801078931,328.3213953231439 L-2174.2515564043456,328.22078536362284 L-2174.2140132283075,328.12620761178465 L-2174.1754717059953,328.0378899137176 L-2174.1360246873123,327.95604503449204 L-2174.0957672035815,327.8808701455908 L-2174.054796238607,327.81254634990574 L-2174.013210495033,327.7512382454451 L-2173.9711101565576,327.6970935288026 L-2173.9285966465836,327.65024263934305 L-2173.885772383881,327.6107984449629 L-2173.8427405358484,327.57885597018117 L-2173.799604769978,327.5544921672176 " />
			<path d="M-2151.1076396056546,316.74654351735023 L-2151.0764604509354,316.7336877457727 L-2151.045320528679,316.7248372261092 L-2151.0142590219825,316.72000309489243 L-2150.983315015273,316.7191914348683 " />
			<path d="M-2150.228531996383,350.80410567587376 L-2150.229590919999,350.9601659372135 L-2150.2327651398064,351.11685894447805 L-2150.238047008832,351.27380721048826 L-2150.2454238025907,351.4306326331242 L-2150.25487774974,351.5869574062066 L-2150.2663860748935,351.74240492966453 L-2150.2799210534877,351.8966007167984 L-2150.2954500785736,352.0491732964511 L-2150.3129357393695,352.1997551079145 L-2150.3323359113874,352.34798338641525 L-2150.3536038579136,352.4935010370473 L-2150.3766883426015,352.63595749504435 L-2150.401533752906,352.7750095703214 L-2150.428080234057,352.91032227424967 L-2150.456263833257,353.04156962667327 L-2150.486016653746,353.16843544122435 L-2150.5172670183742,353.29061408704354 L-2150.5499396422756,353.4078112250715 L-2150.5839558142375,353.51974451713744 L-2150.6192335863225,353.6261443061365 L-2150.655687971287,353.7267542656576 L-2150.693231147325,353.82133201749576 L-2150.7317726696374,353.9096497155628 L-2150.7712196883203,353.9914945947884 L-2150.811477172051,354.0666694836896 L-2150.8524481370255,354.13499327937467 L-2150.8940338805996,354.1963013838353 L-2150.936134219075,354.2504461004778 L-2150.978647729049,354.29729698993737 L-2151.0214719917517,354.33674118431753 L-2151.0645038397843,354.36868365909925 L-2151.1076396056546,354.39304746206284 " />
			<path d="M-2151.107639605654,354.39304746206284 L-2173.799604769978,365.2009961119301 " />
			<path d="M-36.86647647931664,448.28664339385944 L-36.90021067906745,448.26455831548805 L-36.933492211983534,448.2373971065338 L-36.96626725066362,448.2052036957815 L-36.99848278687748,448.1680301507738 L-37.030086717298055,448.1259365936009 L-37.061027927769956,448.07899110366293 L-37.09125637597825,448.0272696075624 L-37.12072317238362,447.9708557563059 L-37.1493806592932,447.9098407900119 L-37.177182487938985,447.84432339034527 L-37.2040836934394,447.7744095209155 L-37.23004076752254,447.7002122558986 L-37.25501172889367,447.6218515971575 L-37.27895619113306,447.53945428015953 L-37.323612436137836,447.3630890408801 L-37.36372072284441,447.1722570437063 L-37.39902168195967,446.96819234684097 L-37.42928703185993,446.75221458072775 L-37.45432105482563,446.5257204143625 L-37.47396186269417,446.2901745234184 L-37.48808244374622,446.0471001185894 L-37.49659148405576,445.7980690954046 L-37.49943395799214,445.544691869211 " />
			<path d="M-2173.799604769978,365.2009961119302 L-2173.8307839246972,365.2138518835077 L-2173.8619238469537,365.22270240317124 L-2173.89298535365,365.227536534388 L-2173.9239293603596,365.2283481944121 " />
			<path d="M-2173.9239293603596,365.2283481944121 L-2173.9626528734602,365.22365047437523 L-2174.001051339036,365.2125875176051 L-2174.0390482071266,365.19518137886115 L-2174.0765677283803,365.1714667584692 L-2174.1135351050707,365.14149093314364 L-2174.149876640209,365.1053136617385 L-2174.185519884465,365.0630070661137 L-2174.2203937805975,365.0146554873556 L-2174.254428805114,364.9603553176368 L-2174.2875571068703,364.9002148080523 L-2174.319712642335,364.8343538528131 L-2174.350831307254,364.76290375022916 L-2174.3808510644435,364.6860069409571 L-2174.4097120674696,364.6038167240353 L-2174.4373567799516,364.5164969512715 L-2174.463730090269,364.42422170059314 L-2174.4887794214274,364.3271749290111 L-2174.5124548358745,364.22555010588906 L-2174.534709135056,364.11954982724876 L-2174.5554979535077,364.00938541188134 L-2174.5747798473003,363.8952764800686 L-2174.592516376663,363.77745051575533 L-2174.608672182613,363.65614241304405 L-2174.623215057449,363.5315940079181 L-2174.6473493182107,363.2737754381809 L-2174.664726801679,363.00604969756176 L-2174.6752090041205,362.73055064019013 L-2174.6787123792496,362.4494740758519 " />
			<path d="M-37.499433957992146,414.2386517467657 L-37.499433957992146,445.5446918692109 " />
			<path d="M-2174.6787123792496,331.1434339534066 L-2174.6787123792496,362.4494740758518 " />
			<path d="M-13.92836118439715,802.461214024688 L-36.62032634872058,813.2691626745553 " />
			<path d="M-2151.107639605654,719.3659962313288 L-2173.799604769978,730.1739448811961 " />
			<path d="M-37.49943395799219,816.8581044607445 L-37.49837503437646,816.7020441994048 L-37.495200814568996,816.5453511921402 L-37.48991894554335,816.38840292613 L-37.48254215178465,816.231577503494 L-37.47308820463518,816.0752527304116 L-37.4615798794817,815.9198052069538 L-37.4480449008875,815.7656094198198 L-37.43251587580155,815.6130368401672 L-37.415030215005466,815.4624550287039 L-37.39563004298766,815.314226750203 L-37.37436209646178,815.1687090995711 L-37.35127761177387,815.0262526415739 L-37.32643220146948,814.8872005662969 L-37.29988572031826,814.7518878623687 L-37.27170212111849,814.620640509945 L-37.24194930062923,814.4937746953939 L-37.21069893600109,814.3715960495747 L-37.17802631209965,814.2543989115468 L-37.14401014013769,814.1424656194808 L-37.10873236805291,814.0360658304818 L-37.072277983088256,813.9354558709607 L-37.03473480705012,813.8408781191225 L-36.99619328473798,813.7525604210555 L-36.95674626605491,813.67071554183 L-36.91648878232408,813.5955406529287 L-36.87551781734993,813.5272168572436 L-36.83393207377573,813.465908752783 L-36.79183173530021,813.4117640361404 L-36.74931822532633,813.3649131466809 L-36.70649396262334,813.3254689523008 L-36.66346211459108,813.293526477519 L-36.62032634872059,813.2691626745554 " />
			<path d="M-2174.6787123792496,733.7628866673854 L-2174.677653455634,733.6068264060457 L-2174.6744792358263,733.4501333987811 L-2174.6691973668007,733.2931851327709 L-2174.661820573042,733.1363597101349 L-2174.6523666258927,732.9800349370526 L-2174.640858300739,732.8245874135947 L-2174.627323322145,732.6703916264607 L-2174.611794297059,732.5178190468081 L-2174.594308636263,732.3672372353448 L-2174.5749084642453,732.2190089568439 L-2174.553640517719,732.073491306212 L-2174.530556033031,731.9310348482148 L-2174.505710622727,731.7919827729378 L-2174.479164141576,731.6566700690096 L-2174.450980542376,731.5254227165859 L-2174.4212277218867,731.3985569020348 L-2174.3899773572584,731.2763782562156 L-2174.357304733357,731.1591811181877 L-2174.323288561395,731.0472478261217 L-2174.28801078931,730.9408480371227 L-2174.2515564043456,730.8402380776016 L-2174.2140132283075,730.7456603257634 L-2174.1754717059953,730.6573426276964 L-2174.1360246873123,730.5754977484709 L-2174.0957672035815,730.5003228595696 L-2174.054796238607,730.4319990638845 L-2174.013210495033,730.3706909594239 L-2173.9711101565576,730.3165462427813 L-2173.9285966465836,730.2696953533218 L-2173.885772383881,730.2302511589417 L-2173.8427405358484,730.1983086841599 L-2173.799604769978,730.1739448811963 " />
			<path d="M-2151.1076396056546,719.3659962313288 L-2151.0764604509354,719.3531404597513 L-2151.045320528679,719.3442899400877 L-2151.0142590219825,719.339455808871 L-2150.983315015273,719.3386441488469 " />
			<path d="M-2151.107639605654,757.0125001760414 L-2173.799604769978,767.8204488259087 " />
			<path d="M-36.86647647931669,850.906096107838 L-36.9002106790675,850.8840110294666 L-36.933492211983584,850.8568498205125 L-36.96626725066367,850.8246564097601 L-36.99848278687753,850.7874828647524 L-37.030086717298104,850.7453893075796 L-37.061027927770006,850.6984438176415 L-37.0912563759783,850.646722321541 L-37.12072317238367,850.5903084702845 L-37.14938065929325,850.5292935039905 L-37.177182487939035,850.4637761043239 L-37.20408369343945,850.3938622348942 L-37.23004076752259,850.3196649698772 L-37.25501172889372,850.2413043111361 L-37.27895619113311,850.1589069941381 L-37.323612436137886,849.9825417548586 L-37.36372072284446,849.7917097576849 L-37.39902168195972,849.5876450608196 L-37.42928703185998,849.3716672947063 L-37.45432105482568,849.1451731283412 L-37.47396186269422,848.909627237397 L-37.48808244374627,848.666552832568 L-37.49659148405581,848.4175218093833 L-37.49943395799219,848.1641445831896 " />
			<path d="M-2173.799604769978,767.8204488259087 L-2173.8307839246972,767.8333045974862 L-2173.8619238469537,767.8421551171498 L-2173.89298535365,767.8469892483665 L-2173.9239293603596,767.8478009083906 " />
			<path d="M-2173.9239293603596,767.8478009083906 L-2173.9626528734602,767.8431031883537 L-2174.001051339036,767.8320402315836 L-2174.0390482071266,767.8146340928397 L-2174.0765677283803,767.7909194724476 L-2174.1135351050707,767.7609436471221 L-2174.149876640209,767.724766375717 L-2174.185519884465,767.6824597800922 L-2174.2203937805975,767.634108201334 L-2174.254428805114,767.5798080316154 L-2174.2875571068703,767.5196675220308 L-2174.319712642335,767.4538065667916 L-2174.350831307254,767.3823564642076 L-2174.3808510644435,767.3054596549356 L-2174.4097120674696,767.2232694380139 L-2174.4373567799516,767.13594966525 L-2174.463730090269,767.0436744145716 L-2174.4887794214274,766.9466276429896 L-2174.5124548358745,766.8450028198675 L-2174.534709135056,766.7390025412273 L-2174.5554979535077,766.6288381258598 L-2174.5747798473003,766.5147291940472 L-2174.592516376663,766.3969032297338 L-2174.608672182613,766.2755951270225 L-2174.623215057449,766.1510467218966 L-2174.6473493182107,765.8932281521594 L-2174.664726801679,765.6255024115403 L-2174.6752090041205,765.3500033541686 L-2174.6787123792496,765.0689267898304 " />
			<path d="M-37.49943395799219,816.8581044607444 L-37.49943395799219,848.1641445831896 " />
			<path d="M-2174.6787123792496,733.7628866673851 L-2174.6787123792496,765.0689267898304 " />
			<path d="M-13.928361184397193,1205.0806667386664 L-36.620326348720624,1215.8886153885337 " />
			<path d="M-2151.299561690216,1122.0768594520523 L-2173.799604769978,1132.7933975951746 " />
			<path d="M-37.49943395799223,1219.4775571747227 L-37.4983750343765,1219.321496913383 L-37.49520081456904,1219.1648039061186 L-37.489918945543394,1219.0078556401083 L-37.48254215178469,1218.8510302174723 L-37.473088204635225,1218.69470544439 L-37.46157987948174,1218.539257920932 L-37.448044900887545,1218.385062133798 L-37.43251587580159,1218.2324895541453 L-37.41503021500551,1218.081907742682 L-37.395630042987705,1217.9336794641813 L-37.37436209646182,1217.7881618135493 L-37.35127761177391,1217.6457053555523 L-37.32643220146952,1217.506653280275 L-37.2998857203183,1217.371340576347 L-37.27170212111853,1217.2400932239234 L-37.24194930062927,1217.1132274093723 L-37.21069893600113,1216.991048763553 L-37.17802631209969,1216.873851625525 L-37.14401014013773,1216.761918333459 L-37.108732368052955,1216.65551854446 L-37.0722779830883,1216.5549085849389 L-37.034734807050164,1216.460330833101 L-36.99619328473802,1216.3720131350337 L-36.95674626605495,1216.290168255808 L-36.91648878232412,1216.2149933669068 L-36.87551781734997,1216.1466695712218 L-36.83393207377577,1216.0853614667612 L-36.79183173530025,1216.0312167501188 L-36.74931822532637,1215.9843658606592 L-36.706493962623384,1215.944921666279 L-36.66346211459112,1215.9129791914972 L-36.62032634872063,1215.8886153885337 " />
			<path d="M-2174.6787123792496,1136.3823393813636 L-2174.677653455634,1136.226279120024 L-2174.6744792358263,1136.0695861127595 L-2174.6691973668007,1135.9126378467492 L-2174.661820573042,1135.7558124241132 L-2174.6523666258927,1135.5994876510308 L-2174.640858300739,1135.4440401275729 L-2174.627323322145,1135.289844340439 L-2174.611794297059,1135.1372717607862 L-2174.594308636263,1134.986689949323 L-2174.5749084642453,1134.8384616708222 L-2174.553640517719,1134.6929440201902 L-2174.530556033031,1134.5504875621932 L-2174.505710622727,1134.411435486916 L-2174.479164141576,1134.2761227829878 L-2174.450980542376,1134.1448754305643 L-2174.4212277218867,1134.0180096160132 L-2174.3899773572584,1133.8958309701939 L-2174.357304733357,1133.778633832166 L-2174.323288561395,1133.6667005401 L-2174.28801078931,1133.5603007511008 L-2174.2515564043456,1133.4596907915798 L-2174.2140132283075,1133.3651130397418 L-2174.1754717059953,1133.2767953416746 L-2174.1360246873123,1133.194950462449 L-2174.0957672035815,1133.1197755735477 L-2174.054796238607,1133.0514517778627 L-2174.013210495033,1132.9901436734021 L-2173.9711101565576,1132.9359989567597 L-2173.9285966465836,1132.8891480673 L-2173.885772383881,1132.84970387292 L-2173.8427405358484,1132.8177613981381 L-2173.799604769978,1132.7933975951746 " />
			<path d="M-2151.3458473051546,1159.7454087571323 L-2173.799604769978,1170.4399015398872 " />
			<path d="M-36.86647647931673,1253.5255488218163 L-36.90021067906754,1253.503463743445 L-36.933492211983626,1253.4763025344907 L-36.96626725066371,1253.4441091237384 L-36.998482786877574,1253.4069355787308 L-37.03008671729815,1253.364842021558 L-37.06102792777005,1253.31789653162 L-37.09125637597834,1253.2661750355194 L-37.12072317238371,1253.2097611842628 L-37.14938065929329,1253.148746217969 L-37.17718248793908,1253.0832288183021 L-37.20408369343949,1253.0133149488724 L-37.23004076752263,1252.9391176838556 L-37.25501172889376,1252.8607570251145 L-37.278956191133155,1252.7783597081166 L-37.32361243613793,1252.6019944688371 L-37.363720722844505,1252.4111624716631 L-37.39902168195976,1252.207097774798 L-37.42928703186002,1251.9911200086847 L-37.45432105482572,1251.7646258423194 L-37.47396186269426,1251.5290799513755 L-37.488082443746315,1251.2860055465464 L-37.496591484055855,1251.0369745233616 L-37.49943395799223,1250.783597297168 " />
			<path d="M-2173.799604769978,1170.4399015398872 L-2173.8307839246972,1170.4527573114647 L-2173.8619238469537,1170.4616078311283 L-2173.89298535365,1170.466441962345 L-2173.9239293603596,1170.467253622369 " />
			<path d="M-2173.9239293603596,1170.467253622369 L-2173.9626528734602,1170.4625559023323 L-2174.001051339036,1170.451492945562 L-2174.0390482071266,1170.4340868068182 L-2174.0765677283803,1170.4103721864262 L-2174.1135351050707,1170.3803963611006 L-2174.149876640209,1170.3442190896953 L-2174.185519884465,1170.3019124940706 L-2174.2203937805975,1170.2535609153126 L-2174.254428805114,1170.1992607455938 L-2174.2875571068703,1170.1391202360094 L-2174.319712642335,1170.0732592807701 L-2174.350831307254,1170.001809178186 L-2174.3808510644435,1169.9249123689142 L-2174.4097120674696,1169.8427221519923 L-2174.4373567799516,1169.7554023792284 L-2174.463730090269,1169.66312712855 L-2174.4887794214274,1169.566080356968 L-2174.5124548358745,1169.464455533846 L-2174.534709135056,1169.3584552552059 L-2174.5554979535077,1169.2482908398383 L-2174.5747798473003,1169.1341819080255 L-2174.592516376663,1169.0163559437124 L-2174.608672182613,1168.895047841001 L-2174.623215057449,1168.770499435875 L-2174.6473493182107,1168.512680866138 L-2174.664726801679,1168.2449551255188 L-2174.6752090041205,1167.969456068147 L-2174.6787123792496,1167.6883795038088 " />
			<path d="M-37.49943395799223,1219.477557174723 L-37.49943395799223,1250.7835972971682 " />
			<path d="M-2174.6787123792496,1136.3823393813639 L-2174.6787123792496,1167.688379503809 " />
			<path d="M-13.92835841314908,1620.3809508315 L-36.620323577472504,1631.1888994780509 " />
			<path d="M-2151.810164576807,1537.6200046439897 L-2173.799601998706,1548.0933465824867 " />
			<path d="M-37.49943165501646,1634.7778412459231 L-37.498372708423695,1634.621780985476 L-37.49519846569455,1634.4650879791022 L-37.489916573857805,1634.3081397139788 L-37.482539757453516,1634.1513142922236 L-37.47308578787855,1633.9949895200136 L-37.46157744057368,1633.8395419974179 L-37.44804244015557,1633.6853462111335 L-37.432513393625754,1633.532773632316 L-37.41502771181751,1633.3821918216713 L-37.39562751926987,1633.2339635439707 L-37.37435955274596,1633.0884458941186 L-37.351275048639955,1632.9459894368792 L-37.32642961954424,1632.8069373623357 L-37.2998831202737,1632.6716246591152 L-37.27169950367027,1632.5403773073715 L-37.24194666653495,1632.4135114934713 L-37.210696286058436,1632.2913328482723 L-37.1780236471445,1632.1741357108324 L-37.14400746104208,1632.0622024193206 L-37.10872967572296,1631.9558026308407 L-37.072275278461944,1631.8551926718026 L-37.03473209109505,1631.7606149204098 L-36.99619055844906,1631.6722972227499 L-36.956743530451945,1631.590452343892 L-36.9164860384493,1631.5152774553178 L-36.87551506626551,1631.4469536599188 L-36.83392931656118,1631.3856455557022 L-36.79182897304985,1631.3315008392615 L-36.74931545914659,1631.2846499499608 L-36.70649119363013,1631.2452057556961 L-36.66345934390706,1631.2132632809864 L-36.62032357747251,1631.188899478051 " />
			<path d="M-2174.6787100762494,1551.682288350359 L-2174.6776511296566,1551.526228089912 L-2174.6744768869276,1551.369535083538 L-2174.669194995091,1551.2125868184146 L-2174.6618181786866,1551.0557613966594 L-2174.6523642091115,1550.8994366244494 L-2174.640855861807,1550.7439891018537 L-2174.6273208613884,1550.5897933155693 L-2174.611791814859,1550.437220736752 L-2174.5943061330504,1550.2866389261071 L-2174.574905940503,1550.1384106484065 L-2174.5536379739788,1549.9928929985545 L-2174.5305534698728,1549.850436541315 L-2174.5057080407773,1549.7113844667715 L-2174.4791615415065,1549.576071763551 L-2174.4509779249033,1549.4448244118073 L-2174.421225087768,1549.3179585979071 L-2174.3899747072915,1549.195779952708 L-2174.3573020683775,1549.0785828152682 L-2174.3232858822753,1548.9666495237564 L-2174.2880080969558,1548.8602497352765 L-2174.251553699695,1548.7596397762384 L-2174.214010512328,1548.6650620248456 L-2174.175468979682,1548.5767443271857 L-2174.136021951685,1548.4948994483277 L-2174.0957644596824,1548.4197245597536 L-2174.0547934874985,1548.3514007643546 L-2174.0132077377943,1548.290092660138 L-2173.9711073942826,1548.2359479436973 L-2173.9285938803796,1548.1890970543966 L-2173.885769614863,1548.149652860132 L-2173.84273776514,1548.1177103854222 L-2173.7996019987054,1548.093346582487 " />
			<path d="M-36.86647932192472,1668.8258326546847 L-36.900213512922086,1668.8037475673702 L-36.933495036315485,1668.776586350254 L-36.96627006472618,1668.7443929321282 L-36.99848558994757,1668.7072193805407 L-37.03008950867725,1668.6651258175843 L-37.061030706785516,1668.6181803226593 L-37.09125914198405,1668.5664588223667 L-37.12072592476104,1668.5100449677082 L-37.149383397451956,1668.449029998796 L-37.17718521131794,1668.3835125972862 L-37.204086401507254,1668.3135987267774 L-37.23004345977853,1668.239401461432 L-37.25501440486814,1668.1610408030976 L-37.27895885038804,1668.0786434872246 L-37.323615060769,1667.9022782522688 L-37.36372331149104,1667.711446262032 L-37.399024233528046,1667.5073815745088 L-37.4292895455263,1667.2914038199083 L-37.45432353003723,1667.0649096669667 L-37.4739642991683,1666.829363791077 L-37.48808484146751,1666.5862894026343 L-37.49659384327149,1666.337258396854 L-37.499436279205874,1666.0838811887572 " />
			<path d="M-2174.280588260104,1585.4523523969492 L-2174.3252524568106,1585.3610712801346 L-2174.3678972411412,1585.2590660233839 L-2174.408358781335,1585.1467285081662 L-2174.4464816331706,1585.0244903101852 L-2174.4821193371445,1584.8928210413617 L-2174.515134981139,1584.7522265456894 L-2174.545401726406,1584.6032469558952 L-2174.572803294854,1584.4464546183692 L-2174.5972344157617,1584.2824518943376 L-2174.618601230207,1584.1118688457245 L-2174.6368216516485,1583.935360814596 L-2174.6518256812874,1583.7536059054794 L-2174.6635556769843,1583.5673023802394 L-2174.67196657471,1583.3771659755103 L-2174.6770260616686,1583.1839271529946 L-2174.6787147004393,1582.988328293193 " />
			<path d="M-37.499431655016465,1634.7778412459231 L-37.49943627920588,1666.0838811887572 " />
			<path d="M-2174.6787100762494,1551.682288350359 L-2174.678714700439,1582.988328293193 " />
			<path d="M-36.74344971627004,1668.8627990380337 L-36.743449716270035,1619.461692550049 " />
			<path d="M-36.74344971627,1253.5625150702222 L-36.74344971626999,1204.1614121617654 " />
			<path d="M-36.74344971626996,850.9430623562437 L-36.74344971626995,801.5419594477867 " />
			<path d="M-36.743449716269915,448.3236096422651 L-36.74344971626991,398.92250673380795 " />
			<path d="M-36.74344971626987,45.70419567694705 L-36.743449716269865,8.149888639471044 " />
			<path d="M-2150.850664590644,756.7516379892678 L-2150.8047878123757,719.415811589804 " />
			<path d="M-2150.3539308803206,352.4956227352759 L-2150.3117788749646,318.19112242433636 " />
			<path d="M-2149.857147900981,-51.800489044521996 L-2149.8151418831194,-85.98618058232614 " />
			<path d="M-2150.9833182529887,-85.8998430494693 L-2149.815303773078,-85.85442993175101 " />
			<path d="M-2173.9239262258643,-37.39068601350316 L-2149.8760029820396,-36.45568804221445 " />
			<path d="M-2150.983315015273,316.7191914348683 L-2150.310002392341,316.74537036127396 " />
			<path d="M-2173.9239293603596,365.228348194412 L-2150.3707016062626,366.14411628636594 " />
			<path d="M-2150.983315015273,719.338644148847 L-2150.8047015253837,719.3455887823613 " />
			<path d="M-2173.92392936036,767.8478009083906 L-2150.8654007393043,768.7443347074532 " />
			<path d="M-2173.92392936036,1170.467253622369 L-2151.3600998723464,1171.3445531285404 " />

       </g>

       <!-- solid lines -->
       <g  stroke="rgb(0,0,0)" fill="none">
			<path d="M0.0824163383692138,-9.45088003696459 L-13.865960081009288,-2.8074124043472355 " />
			<path d="M0.08241633836903617,1651.3543624081979 L-36.620326348720674,1668.8354996917603 " />
			<path d="M-34.422557325541646,1669.3738409596886 L-34.667973605182844,1669.3628220992432 L-34.906055707544354,1669.3491442662266 L-35.135250854278794,1669.3328966678605 L-35.35406422802,1669.3141852714507 L-35.561068721625126,1669.2931321132648 L-35.75491424580859,1669.2698745026091 L-35.934336534463434,1669.2445641262914 L-36.09816539024133,1669.217366059317 L-36.24533231661353,1669.1884576882649 L-36.374877486636066,1669.158027554365 L-36.48595600296879,1669.12627412383 L-36.57784340832024,1669.0934044934509 L-36.616398163697944,1669.0766178496074 L-36.64994041037901,1669.059633039906 L-36.67841543517639,1669.042477769499 L-36.701776790415515,1669.0251800215908 L-36.71998636969848,1669.0077680117897 L-36.73301447006212,1668.9902701420858 L-36.7408398404287,1668.972714954521 L-36.74344971627004,1668.9551310846332 " />
			<path d="M-36.74344971627004,1668.9551310846332 L-36.74151364402439,1668.9399854251913 L-36.73570777002227,1668.924858092681 L-36.726039119633384,1668.909767391858 L-36.71251939236127,1668.8947315831515 L-36.69516494768641,1668.8797688605691 L-36.67399678527045,1668.8648973296806 L-36.62032634872068,1668.8354996917603 " />
			<path d="M0.0824163383692138,-9.45088003696459 L0.12925833689477662,-9.47128105549953 L0.18339995425315436,-9.491344723689998 L0.2447107585458843,-9.511022706401953 L0.31304304667523297,-9.530267597651454 L0.38823220017389515,-9.549033034809828 L0.4700970817853012,-9.567273810295303 L0.6530495433707819,-9.602006971564128 L0.8601384992146173,-9.634132582127837 L1.0893695694656915,-9.663341254795055 L1.3385351336070404,-9.68935169408091 L1.6052355910482252,-9.711913405236329 L1.8869024705907902,-9.7308091066494 L2.1808231662099637,-9.74585682238607 L2.484167060933535,-9.75691163471788 L2.7940127872306717,-9.763867079758901 L3.1073763613782326,-9.766656172771151 L3.421239920855222,-9.76525205326425 L3.732580788008602,-9.759668243676622 L4.03840058009143,-9.749958519147015 " />
			<path d="M0.08241633836903439,1651.3543624081979 L0.1292583368945972,1651.3339613896628 L0.18339995425297495,1651.3138977214724 L0.2447107585457049,1651.2942197387604 L0.31304304667505356,1651.274974847511 L0.38823220017371574,1651.2562094103525 L0.4700970817851218,1651.237968634867 L0.6530495433706025,1651.2032354735982 L0.8601384992144379,1651.1711098630344 L1.089369569465512,1651.1419011903672 L1.338535133606861,1651.1158907510815 L1.6052355910480458,1651.093329039926 L1.8869024705906108,1651.074433338513 L2.1808231662097843,1651.0593856227763 L2.4841670609333555,1651.0483308104444 L2.7940127872304923,1651.0413753654034 L3.107376361378053,1651.0385862723913 L3.421239920855043,1651.039990391898 L3.7325807880084225,1651.0455742014858 L4.038400580091251,1651.0552839260154 " />
			<path d="M4.038400580091457,-9.749958519147013 L34.422557325541476,-8.568598514526437 " />
			<path d="M4.038400580091279,1651.0552839260151 L34.4225573255413,1652.2366439306359 " />
			<path d="M34.42255732554147,-8.568598514526437 L34.66797360518267,-8.557579654081112 L34.906055707544176,-8.543901821064402 L35.13525085427862,-8.527654222698263 L35.35406422801982,-8.508942826288465 L35.56106872162495,-8.487889668102778 L35.754914245808415,-8.464632057446902 L35.934336534463256,-8.439321681129217 L36.09816539024115,-8.412123614155025 L36.24533231661336,-8.383215243102612 L36.37487748663589,-8.352785109202852 L36.485956002968614,-8.321031678667865 L36.577843408320064,-8.288162048288632 L36.61639816369777,-8.271375404445244 L36.64994041037883,-8.254390594743763 L36.67841543517621,-8.237235324337007 L36.70177679041534,-8.219937576428594 L36.719986369698304,-8.202525566627507 L36.733014470061946,-8.185027696923578 L36.74083984042852,-8.16747250935894 L36.743449716269865,-8.149888639471047 " />
			<path d="M36.743449716269865,-8.149888639471044 L36.74151364402421,-8.134742980029015 L36.735707770022096,-8.119615647518792 L36.72603911963321,-8.104524946695761 L36.7125193923611,-8.089489137989322 L36.69516494768623,-8.074526415406925 L36.67399678527027,-8.059654884518517 L36.620326348720496,-8.030257246598074 " />
			<path d="M34.42255732554129,1652.236643930636 L34.66797360518249,1652.2476627910814 L34.906055707544,1652.261340624098 L35.13525085427844,1652.2775882224641 L35.354064228019645,1652.296299618874 L35.56106872162477,1652.3173527770598 L35.75491424580824,1652.3406103877155 L35.93433653446308,1652.3659207640333 L36.09816539024097,1652.3931188310075 L36.24533231661317,1652.4220272020598 L36.37487748663571,1652.4524573359597 L36.485956002968436,1652.4842107664947 L36.577843408319886,1652.5170803968738 L36.61639816369759,1652.5338670407173 L36.649940410378655,1652.5508518504187 L36.678415435176035,1652.5680071208255 L36.70177679041516,1652.5853048687338 L36.71998636969813,1652.602716878535 L36.73301447006177,1652.6202147482388 L36.74083984042834,1652.6377699358036 L36.74344971626969,1652.6553538056914 " />
			<path d="M36.74344971626969,1652.6553538056914 L36.74151364402403,1652.6704994651334 L36.73570777002192,1652.6856267976436 L36.72603911963303,1652.7007174984667 L36.71251939236092,1652.7157533071731 L36.69516494768605,1652.7307160297555 L36.67399678527009,1652.745587560644 L36.62032634872032,1652.7749851985643 " />
			<path d="M36.62032634872032,1652.7749851985643 L-0.08241633836939144,1670.2561224821268 " />
			<path d="M-0.08241633836939322,1670.2561224821268 L-0.12925833689495647,1670.2765235006618 L-0.18339995425333377,1670.2965871688523 L-0.24471075854606328,1670.3162651515643 L-0.31304304667541194,1670.3355100428137 L-0.388232200174075,1670.354275479972 L-0.4700970817854806,1670.3725162554576 L-0.6530495433709613,1670.4072494167265 L-0.8601384992147967,1670.4393750272902 L-1.0893695694658718,1670.4685836999574 L-1.3385351336072189,1670.4945941392432 L-1.605235591048405,1670.5171558503987 L-1.8869024705909712,1670.5360515518116 L-2.1808231662101427,1670.5510992675484 L-2.4841670609337116,1670.5621540798802 L-2.7940127872308502,1670.5691095249213 L-3.1073763613784124,1670.5718986179334 L-3.4212399208554025,1670.5704944984266 L-3.732580788008783,1670.5649106888388 L-4.038400580091631,1670.5552009643093 " />
			<path d="M-34.42255732554165,1669.3738409596888 L-4.0384005800916345,1670.5552009643095 " />
			<path d="M-2186.435572781805,-87.34503801944108 L-2209.4619305377587,-76.62335293793824 " />
			<path d="M-2188.476464217182,1573.590433209468 L-2211.5028219731357,1584.312118290971 " />
			<path d="M-2209.4622274418707,-76.38172393110601 L-2209.5174171202357,-76.411464960115 L-2209.5391829417517,-76.42650786586653 L-2209.557024988363,-76.4416407632768 L-2209.5709210380446,-76.45684480452833 L-2209.580853783455,-76.47210105319495 L-2209.5868108534955,-76.48739050782686 L-2209.588784828717,-76.50269412561673 " />
			<path d="M-2209.588784828717,-76.50269412561673 L-2209.58677325056,-76.51799284611711 L-2209.5807786244172,-76.53326761498018 L-2209.5708084165144,-76.54849940768948 L-2209.556875044609,-76.56366925325479 L-2209.5389958625265,-76.5787582578402 L-2209.5171931385444,-76.59374762829617 L-2209.4619305377596,-76.62335293793826 " />
			<path d="M-2209.321740965798,1584.852077078075 L-2209.5660572147917,1584.8407087935561 L-2209.803008280716,1584.8267220756823 L-2210.0310584182826,1584.810207576234 L-2210.2487295715805,1584.7912723302422 L-2210.45461095376,1584.770039062265 L-2210.6473681907337,1584.7466453909747 L-2210.825751969623,1584.721242937215 L-2210.9886061359,1584.6939963413026 L-2211.134875186746,1584.6650821959497 L-2211.2636111120523,1584.634687901716 L-2211.37397953874,1584.603010452415 L-2211.4652651385595,1584.570255158343 L-2211.50356204691,1584.5535394265203 L-2211.536876264333,1584.536634315605 L-2211.5651537892854,1584.5195672283746 L-2211.58834878458,1584.5023658301666 L-2211.6064236516872,1584.4850580040336 L-2211.619349091683,1584.4676718055446 L-2211.627104152741,1584.4502354173092 L-2211.629676264093,1584.4327771032924 " />
			<path d="M-2211.629676264093,1584.4327771032924 L-2211.627664685936,1584.417478382792 L-2211.6216700597934,1584.402203613929 L-2211.6116998518905,1584.3869718212197 L-2211.5977664799852,1584.3718019756543 L-2211.5798872979026,1584.3567129710689 L-2211.5580845739205,1584.341723600613 L-2211.5028219731357,1584.3121182909708 " />
			<path d="M-2186.4355727818056,-87.3450380194411 L-2186.3880996243943,-87.36526908336899 L-2186.3333373626087,-87.38515125864043 L-2186.271417923533,-87.40463664735377 L-2186.202490476521,-87.42367830750086 L-2186.1267210738283,-87.44223036605455 L-2186.0442922505836,-87.46024812948082 L-2185.860266220192,-87.49450853720353 L-2185.6521846566184,-87.526129584214 L-2185.4220514990684,-87.55480674254369 L-2185.172083055653,-87.58026383548136 L-2184.9046866591284,-87.60225569730574 L-2184.6224374829676,-87.62057053436551 L-2184.32805374103,-87.63503196476786 L-2184.024370509677,-87.64550071703259 L-2183.7143124244362,-87.65187597135261 L-2183.4008655141643,-87.65409633054374 L-2183.0870484439533,-87.65214041133318 L-2182.775883443741,-87.64602705029216 L-2182.470367202578,-87.6358151224294 " />
			<path d="M-2188.476464217182,1573.590433209468 L-2188.428991059771,1573.5702021455402 L-2188.3742287979853,1573.5503199702687 L-2188.3123093589097,1573.5308345815554 L-2188.2433819118974,1573.5117929214084 L-2188.167612509205,1573.4932408628547 L-2188.08518368596,1573.4752230994284 L-2187.9011576555686,1573.4409626917056 L-2187.693076091995,1573.4093416446951 L-2187.462942934445,1573.3806644863655 L-2187.2129744910294,1573.355207393428 L-2186.945578094505,1573.3332155316034 L-2186.663328918344,1573.3149006945437 L-2186.3689451764067,1573.3004392641415 L-2186.0652619450534,1573.2899705118766 L-2185.755203859813,1573.2835952575565 L-2185.441756949541,1573.2813748983656 L-2185.12793987933,1573.283330817576 L-2184.8167748791175,1573.289444178617 L-2184.5112586379546,1573.2996561064797 " />
			<path d="M-2182.470367202578,-87.63581512242942 L-2152.1230771814153,-86.40548055710855 " />
			<path d="M-2184.511258637954,1573.2996561064797 L-2154.1639686167914,1574.5299906718005 " />
			<path d="M-2152.123077181415,-86.40548055710853 L-2151.8787609324213,-86.39411227258988 L-2151.641809866497,-86.38012555471609 L-2151.4137597289305,-86.36361105526781 L-2151.1960885756325,-86.34467580927605 L-2150.990207193453,-86.32344254129866 L-2150.7974499564793,-86.30004887000845 L-2150.61906617759,-86.27464641624869 L-2150.456212011313,-86.2473998203365 L-2150.309942960467,-86.2184856749835 L-2150.1812070351607,-86.18809138074973 L-2150.070838608473,-86.15641393144877 L-2149.9795530086535,-86.12365863737658 L-2149.9412561003032,-86.10694290555399 L-2149.90794188288,-86.09003779463865 L-2149.8796643579276,-86.07297070740827 L-2149.856469362633,-86.05576930920037 L-2149.838394495526,-86.03846148306727 L-2149.82546905553,-86.02107528457836 L-2149.817713994472,-86.00363889634282 L-2149.81514188312,-85.98618058232616 " />
			<path d="M-2149.81514188312,-85.98618058232614 L-2149.817153461277,-85.97088186182576 L-2149.8231480874197,-85.9556070929627 L-2149.8331182953225,-85.9403753002534 L-2149.847051667228,-85.92520545468808 L-2149.8649308493104,-85.91011645010266 L-2149.8867335732925,-85.8951270796467 L-2149.9419961740773,-85.8655217700046 " />
			<path d="M-2154.1639686167914,1574.5299906718008 L-2153.919652367798,1574.5413589563195 L-2153.6827013018737,1574.5553456741934 L-2153.454651164307,1574.5718601736417 L-2153.236980011009,1574.5907954196334 L-2153.0310986288296,1574.6120286876107 L-2152.838341391856,1574.635422358901 L-2152.6599576129665,1574.6608248126606 L-2152.4971034466894,1574.688071408573 L-2152.350834395844,1574.716985553926 L-2152.2220984705373,1574.7473798481597 L-2152.1117300438495,1574.7790572974607 L-2152.02044444403,1574.8118125915328 L-2151.98214753568,1574.8285283233554 L-2151.9488333182567,1574.8454334342707 L-2151.920555793304,1574.862500521501 L-2151.8973607980097,1574.879701919709 L-2151.8792859309024,1574.897009745842 L-2151.8663604909066,1574.914395944331 L-2151.8586054298485,1574.9318323325665 L-2151.8560333184964,1574.9492906465832 " />
			<path d="M-2151.8560333184964,1574.9492906465832 L-2151.8580448966536,1574.9645893670836 L-2151.8640395227962,1574.9798641359466 L-2151.874009730699,1574.995095928656 L-2151.8879431026044,1575.0102657742214 L-2151.905822284687,1575.0253547788068 L-2151.927625008669,1575.0403441492626 L-2151.982887609454,1575.0699494589048 " />
			<path d="M-2151.9828876094543,1575.0699494589044 L-2175.009245365408,1585.7916345404074 " />
			<path d="M-2175.009245365408,1585.7916345404074 L-2175.056718522819,1585.8118656043353 L-2175.1114807846047,1585.8317477796068 L-2175.1734002236803,1585.85123316832 L-2175.2423276706927,1585.870274828467 L-2175.318097073385,1585.8888268870207 L-2175.40052589663,1585.906844650447 L-2175.5845519270215,1585.9411050581698 L-2175.792633490595,1585.9727261051803 L-2176.022766648145,1586.00140326351 L-2176.2727350915607,1586.0268603564475 L-2176.540131488085,1586.048852218272 L-2176.822380664246,1586.0671670553318 L-2177.1167644061834,1586.081628485734 L-2177.4204476375367,1586.0920972379988 L-2177.7305057227773,1586.098472492319 L-2178.0439526330492,1586.1006928515098 L-2178.35776970326,1586.0987369322995 L-2178.6689347034726,1586.0926235712584 L-2178.9744509446355,1586.0824116433957 " />
			<path d="M-2209.321740965798,1584.852077078075 L-2178.9744509446355,1586.0824116433957 " />
			<path d="M-13.928364417302742,-2.777652824327925 L-13.897185272765606,-2.790508592269195 L-13.866045359984035,-2.799359110979431 L-13.834983862016582,-2.8041932439344124 L-13.804039863253188,-2.805004908390236 " />
			<path d="M-13.804039863253184,-2.805004908390236 L-13.765316344670476,-2.8003071948271354 L-13.726917872513786,-2.789244244047165 L-13.688920996763574,-2.7718381107993415 L-13.651401466790402,-2.7481234954007667 L-13.61443408034337,-2.71814767455917 L-13.578092534435706,-2.681970407123559 L-13.542449278424709,-2.6396638149508673 L-13.507575369579016,-2.5913122391261005 L-13.47354033142107,-2.5370120718226135 L-13.440412015127224,-2.4768715641377184 L-13.408256464261783,-2.4110106102867257 L-13.377137783114634,-2.339560508585616 L-13.347118008904971,-2.2626636996988765 L-13.31825698810585,-2.180473482674286 L-13.290612257136143,-2.0931537093307844 L-13.264238927657772,-2.000878457608664 L-13.239189576706819,-1.9038316845332863 L-13.21551414187763,-1.8022068594841771 L-13.193259821768788,-1.6962065785005778 L-13.172470981889484,-1.5860421603923909 L-13.153189066213852,-1.4719332254616777 L-13.13545251455955,-1.354107257674571 L-13.119296685955371,-1.2327991511564158 L-13.104753788150598,-1.1082507419142766 L-13.080619480699019,-0.8504321631172015 L-13.063241949857641,-0.5827064125112115 L-13.052759699747673,-0.307207344448314 L-13.049256277039415,-0.026130768946919847 " />
			<path d="M-13.049256277039415,-0.026130768946892147 L-13.049251035063115,31.27990955565275 " />
			<path d="M-2150.2285346667754,-83.12096891002598 L-2150.228529424799,-51.81492858542633 " />
			<path d="M-13.049251035063115,31.27990955565275 L-13.050309932632297,31.435969817998362 L-13.053484126456336,31.5926628262692 L-13.058765969624284,31.74961109328365 L-13.066142737713314,31.906436516919428 L-13.075596659442972,32.062761290994715 L-13.087104959487744,32.21820881543632 L-13.100639913344816,32.37240460354228 L-13.116168914124822,32.52497718415308 L-13.133654551104705,32.67555899655826 L-13.153054699853419,32.823787275982326 L-13.174322623713374,32.96930492751687 L-13.197407086393145,33.11176138639352 L-13.222252475400174,33.250813462525116 L-13.248798936016145,33.38612616728075 L-13.276982515492238,33.51737352050265 L-13.306735317116905,33.64423933582102 L-13.337985663784997,33.766417982374605 L-13.370658270674179,33.88361512110228 L-13.404674426612674,33.995548413831585 L-13.439952183701365,34.10194820345615 L-13.476406554733458,34.20255816356324 L-13.51394971793611,34.29713591594657 L-13.552491228540774,34.38545361451661 L-13.591938236672565,34.467298494201785 L-13.632195711033743,34.542473383518185 L-13.673166667842436,34.610797179572884 L-13.714752404475057,34.672105284356746 L-13.75685273724958,34.72625000127538 L-13.799366242776797,34.77310089096322 L-13.842190502298148,34.81254508552334 L-13.885222348421486,34.84448756043616 L-13.928358113660348,34.86885136348177 " />
			<path d="M-13.928358113660359,34.868851363481774 L-36.62032328207956,45.6768000435136 " />
			<path d="M-36.62032328207956,45.676800043513595 L-36.651502426616695,45.68965581145487 L-36.682642339398264,45.6985063301651 L-36.71370383736572,45.703340463120085 L-36.74464783612911,45.70415212757591 " />
			<path d="M-36.74464783612912,45.70415212757591 L-36.77543539914666,45.70094030222285 L-36.80602778671818,45.693709028470444 L-36.83638650473093,45.68246740536227 L-36.86647335309636,45.667229578126644 " />
			<path d="M-13.928361184397104,399.84176131070933 L-13.897182029677941,399.8289055391318 L-13.866042107421581,399.82005501946827 L-13.834980600724956,399.81522088825153 L-13.804036594015379,399.8144092282274 " />
			<path d="M-13.804036594015376,399.8144092282274 L-13.765313080915114,399.8191069482643 L-13.726914615338831,399.83016990503444 L-13.68891774724874,399.84757604377836 L-13.651398225995049,399.8712906641703 L-13.614430849304465,399.90126648949587 L-13.578089314165823,399.93744376090103 L-13.542446069910097,399.9797503565258 L-13.507572173777724,400.0281019352839 L-13.473537149261144,400.0824021050027 L-13.440408847504964,400.1425426145872 L-13.40825331204008,400.20840356982643 L-13.37713464712138,400.27985367241035 L-13.347114889931548,400.3567504816824 L-13.318253886905694,400.4389406986042 L-13.290609174423404,400.526260471368 L-13.264235864106046,400.6185357220464 L-13.239186532947985,400.7155824936284 L-13.215511118500752,400.81720731675045 L-13.193256819319137,400.92320759539075 L-13.17246800086764,401.03337201075817 L-13.153186107074895,401.1474809425709 L-13.135449577712357,401.2653069068842 L-13.119293771762013,401.38661500959546 L-13.104750896925822,401.5111634147214 L-13.080616636164402,401.7689819844586 L-13.063239152695903,402.03670772507775 L-13.052756950254679,402.3122067824494 L-13.049253575125494,402.5932833467876 " />
			<path d="M-2150.983315015273,316.7191914348683 L-2150.9445915021724,316.7238891549052 L-2150.9061930365965,316.73495211167534 L-2150.868196168506,316.75235825041926 L-2150.8306766472524,316.7760728708112 L-2150.793709270562,316.80604869613677 L-2150.7573677354235,316.84222596754194 L-2150.7217244911676,316.8845325631667 L-2150.686850595035,316.93288414192483 L-2150.6528155705187,316.9871843116436 L-2150.6196872687624,317.04732482122813 L-2150.5875317332975,317.11318577646733 L-2150.556413068379,317.18463587905126 L-2150.526393311189,317.2615326883233 L-2150.497532308163,317.3437229052451 L-2150.469887595681,317.4310426780089 L-2150.4435142853636,317.5233179286873 L-2150.4184649542053,317.6203647002693 L-2150.394789539758,317.72198952339136 L-2150.372535240577,317.82798980203165 L-2150.351746422125,317.9381542173991 L-2150.3324645283324,318.0522631492118 L-2150.31472799897,318.1700891135251 L-2150.2985721930195,318.29139721623636 L-2150.2840293181835,318.4159456213623 L-2150.259895057422,318.6737641910995 L-2150.2425175739536,318.94148993171865 L-2150.232035371512,319.2169889890903 L-2150.228531996383,319.4980655534285 " />
			<path d="M-13.049253575125494,402.5932833467876 L-13.049253575125494,433.8993234692328 " />
			<path d="M-2150.228531996383,319.4980655534285 L-2150.228531996383,350.8041056758737 " />
			<path d="M-13.049253575125494,433.89932346923285 L-13.050312498741228,434.0553837305726 L-13.053486718548688,434.21207673783715 L-13.058768587574331,434.36902500384736 L-13.066145381333035,434.5258504264833 L-13.075599328482506,434.6821751995657 L-13.087107653635991,434.8376227230236 L-13.100642632230187,434.9918185101575 L-13.116171657316134,435.1443910898102 L-13.13365731811222,435.2949729012736 L-13.153057490130026,435.44320117977435 L-13.174325436655904,435.5887188304064 L-13.197409921343821,435.73117528840345 L-13.222255331648203,435.8702273636805 L-13.248801812799426,436.00554006760876 L-13.276985411999197,436.13678742003236 L-13.306738232488454,436.26365323458344 L-13.3379885971166,436.38583188040263 L-13.370661221018036,436.5030290184306 L-13.40467739298,436.61496231049654 L-13.43995516506477,436.7213620994956 L-13.476409550029429,436.8219720590167 L-13.513952726067563,436.91654981085486 L-13.552494248379709,437.0048675089219 L-13.591941267062777,437.0867123881475 L-13.632198750793608,437.1618872770487 L-13.673169715767752,437.23021107273377 L-13.71475545934196,437.2915191771944 L-13.756855797817478,437.3456638938369 L-13.79936930779136,437.39251478329646 L-13.842193570494343,437.43195897767663 L-13.885225418526609,437.46390145245834 L-13.928361184397096,437.48826525542194 " />
			<path d="M-13.928361184397104,437.48826525542194 L-36.62032634872053,448.2962139052892 " />
			<path d="M-36.62032634872053,448.2962139052893 L-36.651505503439694,448.3090696768668 L-36.68264542569606,448.31792019653034 L-36.71370693239268,448.3227543277471 L-36.74465093910226,448.3235659877712 " />
			<path d="M-36.744650939102264,448.3235659877712 L-36.77543850924673,448.3203541552977 L-36.806030903090786,448.313122871748 L-36.836389626487794,448.30188123618404 L-36.86647647931664,448.28664339385944 " />
			<path d="M-13.928361184397149,802.461214024688 L-13.897182029677985,802.4483582531105 L-13.866042107421626,802.4395077334469 L-13.834980600725,802.4346736022302 L-13.804036594015423,802.4338619422061 " />
			<path d="M-13.80403659401542,802.4338619422061 L-13.765313080915158,802.438559662243 L-13.726914615338876,802.4496226190131 L-13.688917747248784,802.467028757757 L-13.651398225995093,802.4907433781491 L-13.61443084930451,802.5207192034746 L-13.578089314165867,802.5568964748797 L-13.542446069910142,802.5992030705045 L-13.507572173777769,802.6475546492627 L-13.473537149261189,802.7018548189814 L-13.440408847505008,802.761995328566 L-13.408253312040124,802.8278562838051 L-13.377134647121427,802.8993063863891 L-13.347114889931593,802.9762031956611 L-13.318253886905739,803.0583934125829 L-13.290609174423448,803.1457131853467 L-13.264235864106091,803.2379884360251 L-13.239186532948029,803.3350352076071 L-13.215511118500796,803.4366600307292 L-13.193256819319181,803.5426603093695 L-13.172468000867685,803.6528247247369 L-13.153186107074939,803.7669336565496 L-13.135449577712402,803.884759620863 L-13.119293771762058,804.0060677235742 L-13.104750896925866,804.1306161287001 L-13.080616636164446,804.3884346984373 L-13.063239152695948,804.6561604390564 L-13.052756950254723,804.9316594964281 L-13.049253575125539,805.2127360607662 " />
			<path d="M-2150.983315015273,719.3386441488469 L-2150.9445915021724,719.3433418688838 L-2150.9061930365965,719.3544048256539 L-2150.868196168506,719.3718109643978 L-2150.8306766472524,719.3955255847899 L-2150.793709270562,719.4255014101154 L-2150.7573677354235,719.4616786815205 L-2150.7217244911676,719.5039852771453 L-2150.686850595035,719.5523368559035 L-2150.6528155705187,719.6066370256221 L-2150.6196872687624,719.6667775352067 L-2150.5875317332975,719.7326384904459 L-2150.556413068379,719.8040885930299 L-2150.526393311189,719.8809854023019 L-2150.497532308163,719.9631756192236 L-2150.469887595681,720.0504953919875 L-2150.4435142853636,720.1427706426659 L-2150.4184649542053,720.2398174142479 L-2150.394789539758,720.34144223737 L-2150.372535240577,720.4474425160103 L-2150.351746422125,720.5576069313777 L-2150.3324645283324,720.6717158631903 L-2150.31472799897,720.7895418275037 L-2150.2985721930195,720.910849930215 L-2150.2840293181835,721.0353983353409 L-2150.259895057422,721.2932169050781 L-2150.2425175739536,721.5609426456972 L-2150.232035371512,721.8364417030689 L-2150.228531996383,722.117518267407 " />
			<path d="M-13.049253575125539,805.2127360607662 L-13.049253575125539,836.5187761832115 " />
			<path d="M-2150.228531996383,722.1175182674071 L-2150.228531996383,753.4235583898524 " />
			<path d="M-13.049253575125539,836.5187761832115 L-13.050312498741272,836.6748364445511 L-13.053486718548733,836.8315294518158 L-13.058768587574376,836.988477717826 L-13.06614538133308,837.1453031404619 L-13.07559932848255,837.3016279135443 L-13.087107653636036,837.4570754370021 L-13.100642632230231,837.6112712241361 L-13.11617165731618,837.7638438037887 L-13.133657318112267,837.9144256152521 L-13.15305749013007,838.0626538937529 L-13.174325436655948,838.2081715443849 L-13.197409921343866,838.350628002382 L-13.222255331648247,838.489680077659 L-13.24880181279947,838.6249927815873 L-13.276985411999242,838.7562401340109 L-13.306738232488499,838.883105948562 L-13.337988597116645,839.0052845943812 L-13.37066122101808,839.1224817324091 L-13.404677392980044,839.2344150244751 L-13.439955165064815,839.3408148134741 L-13.476409550029473,839.4414247729952 L-13.513952726067608,839.5360025248334 L-13.552494248379753,839.6243202229005 L-13.591941267062822,839.706165102126 L-13.632198750793652,839.7813399910273 L-13.673169715767797,839.8496637867123 L-13.714755459342005,839.910971891173 L-13.756855797817522,839.9651166078155 L-13.799369307791405,840.011967497275 L-13.842193570494388,840.0514116916552 L-13.885225418526653,840.083354166437 L-13.92836118439714,840.1077179694005 " />
			<path d="M-2150.228531996383,753.4235583898524 L-2150.229590919999,753.579618651192 L-2150.2327651398064,753.7363116584567 L-2150.238047008832,753.8932599244669 L-2150.2454238025907,754.0500853471028 L-2150.25487774974,754.2064101201852 L-2150.2663860748935,754.361857643643 L-2150.2799210534877,754.516053430777 L-2150.2954500785736,754.6686260104296 L-2150.3129357393695,754.819207821893 L-2150.3323359113874,754.9674361003938 L-2150.3536038579136,755.1129537510258 L-2150.3766883426015,755.2554102090229 L-2150.401533752906,755.3944622843 L-2150.428080234057,755.5297749882282 L-2150.456263833257,755.6610223406518 L-2150.486016653746,755.787888155203 L-2150.5172670183742,755.9100668010221 L-2150.5499396422756,756.02726393905 L-2150.5839558142375,756.139197231116 L-2150.6192335863225,756.245597020115 L-2150.655687971287,756.3462069796361 L-2150.693231147325,756.4407847314743 L-2150.7317726696374,756.5291024295414 L-2150.7712196883203,756.6109473087669 L-2150.811477172051,756.6861221976682 L-2150.8524481370255,756.7544459933532 L-2150.8940338805996,756.8157540978139 L-2150.936134219075,756.8698988144564 L-2150.978647729049,756.9167497039159 L-2151.0214719917517,756.9561938982961 L-2151.0645038397843,756.9881363730779 L-2151.1076396056546,757.0125001760414 " />
			<path d="M-13.92836118439715,840.1077179694006 L-36.62032634872058,850.9156666192679 " />
			<path d="M-36.62032634872058,850.9156666192679 L-36.65150550343974,850.9285223908454 L-36.68264542569611,850.937372910509 L-36.71370693239273,850.9422070417257 L-36.74465093910231,850.9430187017498 " />
			<path d="M-36.744650939102314,850.9430187017498 L-36.77543850924678,850.9398068692764 L-36.806030903090836,850.9325755857266 L-36.83638962648784,850.9213339501626 L-36.86647647931669,850.906096107838 " />
			<path d="M-2151.107639605654,1121.9854489453073 L-2151.299561690216,1122.0768594520523 " />
			<path d="M-13.928361184397193,1205.0806667386664 L-13.89718202967803,1205.067810967089 L-13.86604210742167,1205.0589604474253 L-13.834980600725045,1205.0541263162086 L-13.804036594015468,1205.0533146561845 " />
			<path d="M-13.804036594015464,1205.0533146561845 L-13.765313080915202,1205.0580123762213 L-13.72691461533892,1205.0690753329916 L-13.688917747248828,1205.0864814717354 L-13.651398225995138,1205.1101960921274 L-13.614430849304554,1205.140171917453 L-13.578089314165911,1205.1763491888582 L-13.542446069910186,1205.218655784483 L-13.507572173777813,1205.267007363241 L-13.473537149261233,1205.3213075329597 L-13.440408847505052,1205.3814480425442 L-13.408253312040168,1205.4473089977835 L-13.37713464712147,1205.5187591003676 L-13.347114889931637,1205.5956559096394 L-13.318253886905783,1205.6778461265612 L-13.290609174423492,1205.7651658993252 L-13.264235864106135,1205.8574411500035 L-13.239186532948073,1205.9544879215855 L-13.21551111850084,1206.0561127447077 L-13.193256819319226,1206.1621130233477 L-13.17246800086773,1206.2722774387153 L-13.153186107074983,1206.386386370528 L-13.135449577712446,1206.5042123348412 L-13.119293771762102,1206.6255204375525 L-13.10475089692591,1206.7500688426785 L-13.08061663616449,1207.0078874124156 L-13.063239152695992,1207.2756131530348 L-13.052756950254768,1207.5511122104065 L-13.049253575125583,1207.8321887747447 " />
			<path d="M-2151.1076396056546,1121.9854489453073 L-2151.0764604509354,1121.9725931737298 L-2151.045320528679,1121.9637426540662 L-2151.0142590219825,1121.9589085228495 L-2150.983315015273,1121.9580968628254 " />
			<path d="M-2150.983315015273,1121.9580968628254 L-2150.9445915021724,1121.9627945828622 L-2150.9061930365965,1121.9738575396325 L-2150.868196168506,1121.9912636783763 L-2150.8306766472524,1122.0149782987683 L-2150.793709270562,1122.044954124094 L-2150.7573677354235,1122.0811313954991 L-2150.7217244911676,1122.1234379911239 L-2150.686850595035,1122.1717895698819 L-2150.6528155705187,1122.2260897396006 L-2150.6196872687624,1122.286230249185 L-2150.5875317332975,1122.3520912044244 L-2150.556413068379,1122.4235413070085 L-2150.526393311189,1122.5004381162803 L-2150.497532308163,1122.5826283332021 L-2150.469887595681,1122.6699481059661 L-2150.4435142853636,1122.7622233566444 L-2150.4184649542053,1122.8592701282264 L-2150.394789539758,1122.9608949513486 L-2150.372535240577,1123.0668952299886 L-2150.351746422125,1123.1770596453562 L-2150.3324645283324,1123.291168577169 L-2150.31472799897,1123.4089945414821 L-2150.2985721930195,1123.5303026441934 L-2150.2840293181835,1123.6548510493194 L-2150.259895057422,1123.9126696190565 L-2150.2425175739536,1124.1803953596757 L-2150.232035371512,1124.4558944170474 L-2150.228531996383,1124.7369709813856 " />
			<path d="M-13.049253575125583,1207.8321887747447 L-13.049253575125583,1239.13822889719 " />
			<path d="M-2150.228531996383,1124.7369709813856 L-2150.228531996383,1156.0430111038308 " />
			<path d="M-13.049253575125583,1239.13822889719 L-13.050312498741317,1239.2942891585296 L-13.053486718548777,1239.4509821657941 L-13.05876858757442,1239.6079304318043 L-13.066145381333124,1239.7647558544404 L-13.075599328482594,1239.9210806275228 L-13.08710765363608,1240.0765281509807 L-13.100642632230276,1240.2307239381146 L-13.116171657316222,1240.3832965177673 L-13.13365731811231,1240.5338783292307 L-13.153057490130115,1240.6821066077314 L-13.174325436655993,1240.8276242583634 L-13.19740992134391,1240.9700807163604 L-13.222255331648292,1241.1091327916376 L-13.248801812799515,1241.2444454955657 L-13.276985411999286,1241.3756928479893 L-13.306738232488543,1241.5025586625404 L-13.33798859711669,1241.6247373083597 L-13.370661221018125,1241.7419344463876 L-13.404677392980089,1241.8538677384536 L-13.439955165064859,1241.9602675274527 L-13.476409550029517,1242.0608774869738 L-13.513952726067652,1242.155455238812 L-13.552494248379798,1242.243772936879 L-13.591941267062866,1242.3256178161046 L-13.632198750793696,1242.4007927050059 L-13.673169715767841,1242.469116500691 L-13.714755459342049,1242.5304246051514 L-13.756855797817567,1242.5845693217939 L-13.79936930779145,1242.6314202112535 L-13.842193570494432,1242.6708644056337 L-13.885225418526698,1242.7028068804154 L-13.928361184397184,1242.727170683379 " />
			<path d="M-2150.228531996383,1156.0430111038308 L-2150.229590919999,1156.1990713651705 L-2150.2327651398064,1156.355764372435 L-2150.238047008832,1156.5127126384452 L-2150.2454238025907,1156.6695380610813 L-2150.25487774974,1156.8258628341637 L-2150.2663860748935,1156.9813103576216 L-2150.2799210534877,1157.1355061447555 L-2150.2954500785736,1157.2880787244083 L-2150.3129357393695,1157.4386605358716 L-2150.3323359113874,1157.5868888143723 L-2150.3536038579136,1157.7324064650043 L-2150.3766883426015,1157.8748629230013 L-2150.401533752906,1158.0139149982786 L-2150.428080234057,1158.1492277022066 L-2150.456263833257,1158.2804750546302 L-2150.486016653746,1158.4073408691813 L-2150.5172670183742,1158.5295195150006 L-2150.5499396422756,1158.6467166530285 L-2150.5839558142375,1158.7586499450945 L-2150.6192335863225,1158.8650497340936 L-2150.655687971287,1158.9656596936147 L-2150.693231147325,1159.060237445453 L-2150.7317726696374,1159.1485551435198 L-2150.7712196883203,1159.2304000227455 L-2150.811477172051,1159.3055749116468 L-2150.8524481370255,1159.3738987073318 L-2150.8940338805996,1159.4352068117923 L-2150.936134219075,1159.4893515284348 L-2150.978647729049,1159.5362024178944 L-2151.0214719917517,1159.5756466122746 L-2151.0645038397843,1159.6075890870563 L-2151.1076396056546,1159.6319528900199 " />
			<path d="M-13.928361184397193,1242.727170683379 L-36.620326348720624,1253.5351193332463 " />
			<path d="M-2151.107639605654,1159.6319528900199 L-2151.3458473051546,1159.7454087571323 " />
			<path d="M-36.620326348720624,1253.5351193332463 L-36.651505503439786,1253.5479751048238 L-36.68264542569615,1253.5568256244874 L-36.713706932392775,1253.561659755704 L-36.74465093910235,1253.5624714157282 " />
			<path d="M-36.74465093910236,1253.5624714157282 L-36.775438509246825,1253.5592595832547 L-36.80603090309088,1253.552028299705 L-36.836389626487886,1253.540786664141 L-36.86647647931673,1253.5255488218163 " />
			<path d="M-2151.107636834382,1537.2853979359359 L-2151.810164576807,1537.6200046439897 " />
			<path d="M-13.928358413149079,1620.3809508315003 L-13.897179249374586,1620.3680950566593 L-13.86603931868705,1620.3592445361162 L-13.834977804217525,1620.354410406412 L-13.804033790426546,1620.3535987502942 " />
			<path d="M-13.804033790426542,1620.3535987502942 L-13.76531028216683,1620.3582964760437 L-13.726911822400089,1620.3693594380973 L-13.688914961072388,1620.386765581686 L-13.651395447515945,1620.4104802064764 L-13.614428079437666,1620.4404560357484 L-13.57808655380482,1620.4766333106436 L-13.542443319925122,1620.5189399092992 L-13.507569435014085,1620.567291490628 L-13.473534422537641,1620.6215916624578 L-13.44040613361235,1620.6817321736962 L-13.408250611739593,1620.7475931301358 L-13.377131961143347,1620.8190432334723 L-13.34711221897404,1620.8959400430556 L-13.318251231633276,1620.9781302598562 L-13.290606535465948,1621.0654500320763 L-13.26423324205761,1621.1577252818001 L-13.239183928365787,1621.2547720520292 L-13.215508531904216,1621.3563968734145 L-13.19325425118902,1621.4623971499495 L-13.172465451645241,1621.5725615628598 L-13.153183577161348,1621.686670491882 L-13.135447067468018,1621.8044964530902 L-13.119291281505914,1621.9258045524018 L-13.10474842693523,1622.050352953855 L-13.080614207367844,1622.3081715155165 L-13.063236765693881,1622.5758972472433 L-13.052754605306335,1622.8513962951038 L-13.049251272149814,1623.1324728495185 " />
			<path d="M-2151.107636834382,1537.285397935936 L-2151.0764576706074,1537.272542161095 L-2151.04531773992,1537.263691640552 L-2151.0142562254505,1537.2588575108477 L-2150.9833122116597,1537.25804585473 " />
			<path d="M-2150.9833122116597,1537.25804585473 L-2150.9445887034,1537.2627435804795 L-2150.9061902436333,1537.273806542533 L-2150.8681933823054,1537.2912126861218 L-2150.830673868749,1537.3149273109123 L-2150.793706500671,1537.3449031401842 L-2150.757364975038,1537.3810804150794 L-2150.721721741158,1537.423387013735 L-2150.686847856247,1537.4717385950637 L-2150.652812843771,1537.5260387668936 L-2150.619684554845,1537.586179278132 L-2150.5875290329727,1537.6520402345716 L-2150.5564103823763,1537.723490337908 L-2150.526390640207,1537.8003871474914 L-2150.4975296528664,1537.882577364292 L-2150.469884956699,1537.9698971365121 L-2150.443511663291,1538.062172386236 L-2150.418462349599,1538.159219156465 L-2150.394786953137,1538.2608439778503 L-2150.372532672422,1538.3668442543853 L-2150.351743872878,1538.4770086672956 L-2150.332461998394,1538.5911175963179 L-2150.3147254887012,1538.708943557526 L-2150.298569702739,1538.8302516568376 L-2150.284026848168,1538.9548000582909 L-2150.259892628601,1539.2126186199523 L-2150.242515186927,1539.4803443516792 L-2150.2320330265393,1539.7558433995396 L-2150.228529693383,1540.0369199539543 " />
			<path d="M-13.049251272149814,1623.1324728495183 L-13.049255896339229,1654.4385127923524 " />
			<path d="M-2150.228529693383,1540.0369199539543 L-2150.228534317572,1571.3429598967884 " />
			<path d="M-13.049255896339224,1654.4385127923526 L-13.050314842931993,1654.5945730527997 L-13.053489085661134,1654.7512660591735 L-13.058770977497884,1654.908214324297 L-13.066147793902168,1655.0650397460522 L-13.075601763477135,1655.2213645182621 L-13.087110110782007,1655.3768120408579 L-13.100645111200118,1655.5310078271423 L-13.116174157729933,1655.6835804059597 L-13.133659839538177,1655.8341622166045 L-13.153060032085811,1655.982390494305 L-13.174327998609732,1656.1279081441571 L-13.197412502715727,1656.2703646013965 L-13.222257931811443,1656.40941667594 L-13.248804431081986,1656.5447293791606 L-13.276988047685414,1656.6759767309043 L-13.306740884820735,1656.8028425448044 L-13.337991265297253,1656.9250211900035 L-13.370663904211185,1657.0422183274434 L-13.404680090313605,1657.1541516189552 L-13.439957875632727,1657.260551407435 L-13.476412272893745,1657.3611613664732 L-13.513955460260632,1657.455739117866 L-13.552496992906626,1657.544056815526 L-13.591944020903743,1657.6259016943839 L-13.632201512906384,1657.701076582958 L-13.673172485090177,1657.769400378357 L-13.7147582347945,1657.8307084825735 L-13.756858578305831,1657.8848531990143 L-13.799372092209097,1657.931704088315 L-13.84219635772556,1657.9711482825796 L-13.88522820744863,1658.0030907572893 L-13.928363973883172,1658.0274545602247 " />
			<path d="M-2150.2285343175727,1571.3429598967884 L-2150.2295932641655,1571.4990201572355 L-2150.2327675068946,1571.6557131636093 L-2150.238049398731,1571.8126614287328 L-2150.2454262151355,1571.969486850488 L-2150.2548801847106,1572.125811622698 L-2150.2663885320153,1572.2812591452937 L-2150.2799235324337,1572.435454931578 L-2150.2954525789632,1572.5880275103955 L-2150.3129382607717,1572.7386093210403 L-2150.332338453319,1572.8868375987408 L-2150.3536064198433,1573.032355248593 L-2150.3766909239494,1573.1748117058323 L-2150.401536353045,1573.3138637803759 L-2150.4280828523156,1573.4491764835964 L-2150.456266468919,1573.58042383534 L-2150.486019306054,1573.7072896492402 L-2150.5172696865307,1573.8294682944393 L-2150.5499423254446,1573.9466654318792 L-2150.583958511547,1574.058598723391 L-2150.6192362968663,1574.1649985118709 L-2150.6556906941273,1574.265608470909 L-2150.693233881494,1574.3601862223018 L-2150.73177541414,1574.4485039199617 L-2150.771222442137,1574.5303487988197 L-2150.8114799341397,1574.6055236873938 L-2150.8524509063236,1574.6738474827928 L-2150.8940366560278,1574.7351555870093 L-2150.9361369995395,1574.78930030345 L-2150.9786505134425,1574.8361511927508 L-2151.021474778959,1574.8755953870154 L-2151.064506628682,1574.9075378617251 L-2151.1076423951167,1574.9319016646605 " />
			<path d="M-13.928363973883183,1658.0274545602247 L-36.620329138206614,1668.8354032067755 " />
			<path d="M-2151.1076423951163,1574.9319016646605 L-2173.79960755944,1585.7398503112113 " />
			<path d="M-36.620329138206614,1668.8354032067755 L-36.6515083019811,1668.8482589816165 L-36.68264823266864,1668.8571095021596 L-36.71370974713817,1668.8619436318638 L-36.74465376092914,1668.8627552879816 " />
			<path d="M-36.74465376092915,1668.8627552879816 L-36.775441337431296,1668.8595434492127 L-36.80603373687801,1668.8523121569883 L-36.836392465092516,1668.841070510387 L-36.86647932192472,1668.8258326546847 " />
			<path d="M-2173.79960755944,1585.7398503112113 L-2173.8307867232147,1585.7527060860523 L-2173.861926653902,1585.7615566065954 L-2173.8929881683716,1585.7663907362996 L-2173.9239321821624,1585.7672023924174 " />
			<path d="M-2173.9239321821624,1585.7672023924174 L-2173.9476536409284,1585.7650855467718 L-2173.9712646540997,1585.7605848207409 L-2173.994747607404,1585.753703571953 L-2174.018084982102,1585.744446933954 L-2174.041259368061,1585.7328218123744 L-2174.06425347674,1585.7188368797802 L-2174.109632393342,1585.6838310663525 L-2174.1540863429605,1585.6395339342487 L-2174.197482696305,1585.5860776448906 L-2174.2396919794464,1585.523621686237 L-2174.280588260104,1585.4523523969492 " />
			<path d="M0.0824163383692138,-9.45088003696459 L0.08241633836903485,1651.3543624081976 " />
			<path d="M-36.6203263487205,45.67679992428073 L-36.62032634872054,398.9272938675525 " />
			<path d="M-36.620326348720546,448.2962139052892 L-36.62032634872058,801.5467465815312 " />
			<path d="M-36.62032634872059,850.9156666192679 L-36.620326348720624,1204.1661992955098 " />
			<path d="M-36.62032634872063,1253.5351193332463 L-36.62032634872067,1619.466479703099 " />
			<path d="M-36.620326348720674,1668.835401878172 L-36.620326348720674,1668.8354996917603 " />
			<path d="M4.038400580091459,-9.749958519147013 L4.03840058009128,1651.0552839260154 " />
			<path d="M34.422557325541476,-8.568598514526437 L34.4225573255413,1652.2366439306359 " />
			<path d="M36.620326348720496,-8.030257246598074 L36.62032634872032,1652.5357224128186 " />
			<path d="M-2186.435572781805,-87.3450380194411 L-2188.4764642171813,1573.5904332094685 " />
			<path d="M-2209.461930537759,-76.62335293793825 L-2211.5028219731353,1584.3121182909713 " />
			<path d="M-2182.470367202578,-87.6358151224294 L-2184.511258637954,1573.2996561064801 " />
			<path d="M-2152.123077181415,-86.40548055710853 L-2154.163968616791,1574.529990671801 " />
			<path d="M-2149.9838478781057,-51.805415217163706 L-2150.436702369438,316.7404441661263 " />
			<path d="M-2150.4814405300003,353.149631106407 L-2150.93140150248,719.3406625872138 " />
			<path d="M-2150.9776973659436,757.0175524329197 L-2151.9825907053423,1574.8283204520728 " />
			<path d="M-13.928364417302742,-2.777652824327923 L-2149.81534331994,-85.82224557055594 " />
			<path d="M-13.049256277039413,-0.026130768946893146 L-2150.2285346667754,-83.120968910026 " />
			<path d="M-13.049251035063113,31.27990955565275 L-2150.228529424799,-51.814928585426344 " />
			<path d="M-13.928358113660355,34.868851363481774 L-2149.8615996365215,-48.17754010172987 " />
			<path d="M-36.62032328207956,45.6768000435136 L-2149.8759634351773,-36.487872403409504 " />
			<path d="M-13.928361184397104,399.84176131070933 L-2150.3100419392313,316.77755474437834 " />
			<path d="M-13.049253575125494,402.5932833467876 L-2150.228531996383,319.49806555342843 " />
			<path d="M-13.049253575125494,433.89932346923285 L-2150.228531996383,350.80410567587376 " />
			<path d="M-13.928361184397104,437.48826525542194 L-2150.3562982558046,354.42226020698 " />
			<path d="M-36.62032634872053,448.2962139052893 L-2150.370662059372,366.1119319032616 " />
			<path d="M-13.928361184397149,802.4612140246879 L-2150.804741072273,719.3777731654657 " />
			<path d="M-13.049253575125539,805.2127360607664 L-2150.228531996383,722.1175182674073 " />
			<path d="M-13.049253575125539,836.5187761832115 L-2150.228531996383,753.4235583898524 " />
			<path d="M-13.928361184397149,840.1077179694005 L-2150.850997388847,757.0224786280673 " />
			<path d="M-36.62032634872058,850.9156666192679 L-2150.8653611924146,768.712150324349 " />
			<path d="M-13.928361184397193,1205.0806667386664 L-2150.861489475059,1121.995019456737 " />
			<path d="M-13.049253575125583,1207.8321887747447 L-2150.228531996383,1124.7369709813856 " />
			<path d="M-13.049253575125583,1239.13822889719 L-2150.228531996383,1156.0430111038308 " />
			<path d="M-13.928361184397193,1242.727170683379 L-2151.1076396056546,1159.6319528900199 " />
			<path d="M-36.620326348720624,1253.5351193332463 L-2151.3600603254567,1171.312368745436 " />
			<path d="M-13.92835841314908,1620.3809508315003 L-2150.861486650664,1537.2949684880268 " />
			<path d="M-13.049251272149814,1623.1324728495188 L-2150.228529693383,1540.0369199539546 " />
			<path d="M-13.049255896339224,1654.4385127923524 L-2150.228534317572,1571.3429598967882 " />
			<path d="M-13.928363973883185,1658.027454560225 L-2151.1076423951163,1574.9319016646607 " />
			<path d="M-36.620329138206614,1668.8354032067755 L-2173.7996075594397,1585.7398503112113 " />
			<path d="M-36.74344971627004,1668.9551310846334 L-36.74344971627004,1668.8627990380337 " />
			<path d="M-36.743449716270035,1619.461692550049 L-36.74344971627,1253.5625150702222 " />
			<path d="M-36.74344971626999,1204.1614121617654 L-36.74344971626996,850.9430623562437 " />
			<path d="M-36.74344971626995,801.5419594477867 L-36.743449716269915,448.3236096422651 " />
			<path d="M-36.74344971626991,398.92250673380795 L-36.74344971626987,45.70419567694705 " />
			<path d="M36.74344971626969,1652.6553538056912 L36.743449716269865,-8.149888639471044 " />
			<path d="M-2211.629676264093,1584.4327771032933 L-2209.588784828717,-76.50269412561673 " />
			<path d="M-2151.8560333184955,1574.949290646584 L-2150.850664590644,756.7516379892678 " />
			<path d="M-2150.8047878123757,719.415811589804 L-2150.3539308803206,352.4956227352759 " />
			<path d="M-2150.3117788749646,318.19112242433636 L-2149.857147900981,-51.800489044521996 " />
			<path d="M-2149.815303773078,-85.85442993175101 L-13.804039863253186,-2.805004908390237 " />
			<path d="M-2149.8760029820396,-36.45568804221445 L-36.74464783612912,45.70415212757591 " />
			<path d="M-2150.310002392341,316.74537036127396 L-13.804036594015376,399.8144092282274 " />
			<path d="M-2150.3707016062626,366.14411628636594 L-36.74465093910226,448.32356598777113 " />
			<path d="M-2150.8047015253837,719.3455887823613 L-13.80403659401542,802.4338619422061 " />
			<path d="M-2150.8654007393043,768.7443347074532 L-36.74465093910231,850.9430187017497 " />
			<path d="M-2150.983315015273,1121.9580968628256 L-13.804036594015464,1205.0533146561847 " />
			<path d="M-2151.3600998723464,1171.3445531285404 L-36.74465093910235,1253.5624714157282 " />
			<path d="M-2150.98331221166,1537.25804585473 L-13.804033790426544,1620.3535987502942 " />
			<path d="M-2173.9239321821624,1585.7672023924174 L-36.74465376092915,1668.8627552879816 " />

       </g>
    </g>
    
</svg>
