<?xml version="1.0" encoding="UTF-8" standalone="no"?>
<svg
   xmlns:svg="http://www.w3.org/2000/svg"
   xmlns="http://www.w3.org/2000/svg"
   width="480.0"
   height="480.0"

>
    <g transform="scale(0.18475327757743693, -0.18475327757743693)   translate(336.8595388665325,-124.93807432124268)" stroke-width="1.0"  fill="none">
       <!-- hidden lines -->
       <g  stroke="rgb(0,0,0)" fill="none" stroke-dasharray="1.0,1.0" >
			<path d="M-2.356659957194963,-19.561086485241603 L-2.356659957194963,66.8 " />
			<path d="M-1.9597488065094957,70.0 L32.17598356725003,70.0 " />
			<path d="M479.5351641072816,70.0 L1657.92304831835,70.0 " />
			<path d="M-1.9597488065094957,70.0 L-1.9792243135882508,69.99614545985655 L-1.9986529024646005,69.98459112535103 L-2.017987767966198,69.9653648318873 L-2.0371823307085157,69.93851289729034 L-2.056190349308662,69.90410001022254 L-2.074966031784924,69.86220907434307 L-2.09346414587366,69.81294100858567 L-2.111640127997788,69.75641450403612 L-2.1294501906243415,69.69276573799502 L-2.146851427752477,69.62214804591473 L-2.1802608269838992,69.46070275936815 L-2.2115465749140206,69.27363345076076 L-2.2404073726877454,69.06274169979694 L-2.2665652750455947,68.83005850932366 L-2.2897683670884983,68.57782474566272 L-2.3097931903559834,68.3084695578432 L-2.3264468948533024,68.02458698356828 L-2.339569096302304,67.72891096721428 L-2.3490334207297106,67.4242890304516 L-2.3547487215175598,67.1136548490546 L-2.356659957194963,66.80000000000003 " />
			<path d="M1.9597488065094957,-70.0 L1665.4143813293022,-70.0 " />
			<path d="M-1.9597488065094957,-70.0 L1.9597488065094957,-70.0 " />
			<path d="M1.9597488065094957,-70.0 L1.979224313588251,-69.99614545985655 L1.9986529024646005,-69.98459112535103 L2.017987767966198,-69.9653648318873 L2.0371823307085157,-69.93851289729034 L2.056190349308662,-69.90410001022254 L2.074966031784924,-69.86220907434307 L2.0934641458736603,-69.81294100858567 L2.111640127997788,-69.75641450403612 L2.1294501906243415,-69.69276573799502 L2.146851427752477,-69.62214804591473 L2.1802608269838992,-69.46070275936815 L2.211546574914021,-69.27363345076076 L2.2404073726877454,-69.06274169979694 L2.2665652750455942,-68.83005850932366 L2.2897683670884983,-68.57782474566272 L2.3097931903559834,-68.3084695578432 L2.3264468948533024,-68.02458698356828 L2.3395690963023044,-67.72891096721428 L2.3490334207297106,-67.4242890304516 L2.3547487215175598,-67.1136548490546 L2.356659957194963,-66.80000000000001 " />
			<path d="M2.356659957194963,-66.8 L2.356659957194963,66.8 " />
			<path d="M1.9597488065094957,70.0 L1665.4143813293022,70.0 " />
			<path d="M2.356659957194963,66.8 L2.3547487215175598,67.1136548490546 L2.3490334207297106,67.4242890304516 L2.3395690963023044,67.72891096721428 L2.3264468948533024,68.02458698356828 L2.3097931903559834,68.3084695578432 L2.2897683670884987,68.57782474566272 L2.2665652750455947,68.83005850932366 L2.2404073726877454,69.06274169979694 L2.211546574914021,69.27363345076076 L2.1802608269838992,69.46070275936815 L2.146851427752477,69.62214804591473 L2.1294501906243415,69.69276573799502 L2.111640127997788,69.75641450403612 L2.0934641458736603,69.81294100858567 L2.074966031784924,69.86220907434307 L2.056190349308662,69.90410001022254 L2.0371823307085157,69.93851289729034 L2.017987767966198,69.9653648318873 L1.9986529024646007,69.98459112535103 L1.979224313588251,69.99614545985655 L1.9597488065094975,70.0 " />
			<path d="M-1.9597488065094957,70.0 L1.9597488065094957,70.0 " />
			<path d="M-282.2122217644814,-19.81201620527807 L-278.2611483425732,-19.678857469060034 " />
			<path d="M-278.26114834257316,-19.678857469060038 L-278.24152137252645,-19.674341315094612 L-278.22195255234413,-19.662127032148575 L-278.202489025028,-19.64224404549939 L-278.18317767992016,-19.614740255003433 L-278.1640650397425,-19.579681919701063 L-278.1451971485193,-19.537153498192765 L-278.12661946065305,-19.487257445171007 L-278.1083767314211,-19.430113964597897 L-278.0905129091561,-19.365860720123308 L-278.0730710293704,-19.294652503441103 L-278.039620055578,-19.132073682644094 L-278.0083459612076,-18.943943225125768 L-277.9795499328842,-18.732072930034594 L-277.95350929210207,-18.49850322413239 L-277.93047482446724,-18.245483511369176 L-277.9106683644949,-17.975450509893513 L-277.89428065922186,-17.691004785124658 L-277.8814695312084,-17.394885704885994 L-277.87235835862055,-17.08994505779537 L-277.867034887031,-16.779119588981782 L-277.86555038438127,-16.4654027176244 " />
			<path d="M-277.8655503843813,-16.465402717624386 L-277.981983931895,66.13383123065589 " />
			<path d="M-277.98198393189494,66.13383123065589 L-277.98433033776166,66.44578608137624 L-277.99046753655585,66.75463939900747 L-278.0003370389483,67.05744771961002 L-278.01384478564717,67.35132518986325 L-278.0308620438104,67.63347107010544 L-278.05122663390847,67.90119642621553 L-278.0747444753434,68.1519497559547 L-278.1011914360943,68.38334130554121 L-278.13031546876266,68.59316584471446 L-278.1618390126584,68.77942368323504 L-278.19546163903624,68.9403397285271 L-278.2129606717632,69.01080548547309 L-278.2308629142708,69.07438040283847 L-278.24912568769906,69.1309129183265 L-278.26770545368413,69.1802682586925 L-278.2865579181534,69.22232876104276 L-278.30563813692237,69.25699415334226 L-278.3249006228414,69.28418179346272 L-278.3442994542369,69.30382686620105 L-278.36378838438804,69.31588253779844 L-278.3833209517794,69.32032006759188 " />
			<path d="M-2.3566216407689593,-15.79999969037419 L-2.356621610925192,66.8000003096258 " />
			<path d="M-278.04824593925935,-15.799999804998684 L-278.0482459094155,66.8000001950013 " />
			<path d="M0.8182727665318342,70.00000028369315 L0.6624815090304679,69.99612682789176 L0.5070664580877913,69.98455484230065 L0.3524019629018635,69.96531220043337 L0.19886056480243242,69.93844525216083 L0.04681209990832158,69.90401871206815 L-0.10337719169912607,69.86211550357618 L-0.2513455481408049,69.81283655920335 L-0.39673655711793177,69.7563005774489 L-0.5392000144045612,69.69264373688307 L-0.6783927673866805,69.62201936813295 L-0.8139795416160402,69.54459758455398 L-0.9456337483877992,69.46056487247694 L-1.0730382713967659,69.37012364201708 L-1.195886230577412,69.27349173952771 L-1.313881721287789,69.17090192287225 L-1.4267405270568791,69.062601300779 L-1.5341908041785728,68.94885073762873 L-1.6359737365032898,68.82992422510911 L-1.731844158850048,68.70610822224917 L-1.8215711475373535,68.57770096542366 L-1.9049385766105091,68.44501174998929 L-1.9817456384255419,68.30836018528305 L-2.0518073273358213,68.16807542477719 L-2.114954885316311,68.02449537324529 L-2.1710362084520662,67.87796587284882 L-2.2199162133118855,67.7288398701051 L-2.2614771623246033,67.57747656574276 L-2.2956189473743134,67.42424054949268 L-2.322259330931406,67.26950092189855 L-2.3413341441386173,67.11363040526201 L-2.3527974413749533,66.95700444586419 L-2.356621610925196,66.80000030962582 " />
			<path d="M-276.8277235761802,69.32174194743587 L-276.89790043363575,69.26486004476087 L-276.96644837966653,69.20599535205703 L-277.033312272726,69.14519522143878 L-277.09843832595874,69.0825085619314 L-277.1617741504677,69.01798580012745 L-277.223268797457,68.95167883962245 L-277.28287279921653,68.88364101926246 L-277.34053820891455,68.81392707023706 L-277.3962186391675,68.74259307205232 L-277.449869299355,68.66969640741918 L-277.50144703165034,68.59529571609346 L-277.550910345738,68.51945084770469 L-277.59821945218886,68.44222281361165 L-277.64333629446827,68.3636737378235 L-277.6862245795492,68.28386680702579 L-277.7268498071076,68.20286621975154 L-277.7651792972747,68.12073713473858 L-277.8011822169259,68.03754561851429 L-277.8348296044835,67.9533585922502 L-277.86609439321415,67.86824377792902 L-277.89495143300167,67.78226964386755 L-277.92137751057874,67.69550534963918 L-277.94535136819997,67.60802069044034 L-277.9668537207422,67.51988604094562 L-277.98586727121784,67.4311722986968 L-278.002376724689,67.34195082707114 L-278.0163688005711,67.2522933978752 L-278.0278322433161,67.16227213360979 L-278.0367578314666,67.07195944945302 L-278.043138385074,66.98142799500789 L-278.046968771474,66.89075059586128 L-278.0482459094156,66.80000019500133 " />
			<path d="M0.8186676319929678,-18.99999969155999 L-274.87295666649743,-18.999999806184483 " />
			<path d="M-2.3566216407689615,-15.799999690374184 L-2.3527968658340117,-15.95701624822335 L-2.3413317551335293,-16.11365453943449 L-2.322253929123417,-16.269537208644177 L-2.2956093479575537,-16.42428872084858 L-2.261462200765757,-16.577536266100168 L-2.2198947510165503,-16.728910657639524 L-2.1710071383372553,-16.878047221298605 L-2.1149171372688675,-17.024586674032737 L-2.0517598735368643,-17.168175989464938 L-1.9816874985214992,-17.308469248357394 L-1.9048688227117987,-17.445128471961198 L-1.821488909026311,-17.577824436236753 L-1.731748626980321,-17.706237464983328 L-1.6358641687735975,-17.830058199967013 L-1.534066528464447,-17.948988346191825 L-1.4266009454847968,-18.06274139051845 L-1.3137263138369168,-18.17104329189952 L-1.195714558395096,-18.27363314156848 L-1.0728499798148032,-18.370263791591668 L-0.945428569627506,-18.460702450269334 L-0.8137572971711415,-18.544731242951233 L-0.6781533700740987,-18.62214773691574 L-0.5389434700742555,-18.69276542904801 L-0.3964629660140577,-18.756414195142316 L-0.25105510590760516,-18.812940699746168 L-0.1030701900261205,-18.862208765558833 L0.04713527300609144,-18.904099701494403 L0.1991994250721415,-18.938512588618984 L0.35275593031045577,-18.96536452327329 L0.5074348576499553,-18.984590816794785 L0.6628635720064038,-18.996145151358352 L0.8186676319929538,-18.999999691559985 " />
			<path d="M-278.04824593925935,-15.799999804998675 L-278.0444211643244,-15.957016362847842 L-278.03295605362393,-16.11365465405898 L-278.0138782276138,-16.26953732326867 L-277.9872336464479,-16.42428883547307 L-277.95308649925613,-16.57753638072466 L-277.9115190495069,-16.728910772264015 L-277.86263143682766,-16.878047335923096 L-277.80654143575924,-17.024586788657228 L-277.7433841720272,-17.16817610408943 L-277.6733117970119,-17.308469362981885 L-277.5964931212022,-17.44512858658569 L-277.5131132075167,-17.577824550861244 L-277.4233729254707,-17.70623757960782 L-277.327488467264,-17.830058314591504 L-277.2256908269548,-17.948988460816317 L-277.1182252439752,-18.06274150514294 L-277.0053506123273,-18.17104340652401 L-276.8873388568855,-18.273633256192973 L-276.76447427830516,-18.37026390621616 L-276.6370528681179,-18.460702564893825 L-276.5053815956615,-18.544731357575724 L-276.3697776685645,-18.62214785154023 L-276.23056776856464,-18.6927655436725 L-276.08808726450445,-18.756414309766807 L-275.942679404398,-18.81294081437066 L-275.7946944885165,-18.862208880183324 L-275.6444890254843,-18.904099816118894 L-275.49242487341826,-18.938512703243475 L-275.33886836817993,-18.965364637897782 L-275.18418944084044,-18.984590931419277 L-275.028760726484,-18.996145265982843 L-274.87295666649743,-18.999999806184476 " />
			<path d="M0.8186676319929678,-18.999999691559992 L32.17464921193426,-18.999999703269772 " />
			<path d="M-274.87295666649743,-18.999999806184483 L-243.51697508655616,-18.999999817894263 " />
			<path d="M32.17464921193426,-18.999999703269776 L-243.51697508655616,-18.99999981789427 " />
			<path d="M32.17464921193426,-18.999999703269772 L32.33045327192361,-18.996145163184508 L32.485881986288405,-18.984590828737034 L32.6405609136418,-18.965364535331066 L32.79411741889952,-18.938512600791448 L32.94618157099043,-18.90409971378044 L33.09638703405292,-18.86220877795706 L33.24437194997,-18.812940712254925 L33.3897798101173,-18.756414207759676 L33.53226031422349,-18.692765441771787 L33.671470214274365,-18.62214774974349 L33.80707414142735,-18.54473125588027 L33.93874541394443,-18.460702463296712 L34.06616682419708,-18.37026380471422 L34.1890314028472,-18.273633154782797 L34.30704315836316,-18.171043305201977 L34.41991779008929,-18.062741403905214 L34.527383373151146,-17.948988359658852 L34.62918101354624,-17.830058213510075 L34.725065471842434,-17.706237478598005 L34.81480575398121,-17.577824449918456 L34.89818566776259,-17.44512848570518 L34.97500434367104,-17.30846926215875 L35.04507671878778,-17.168176003318628 L35.108233982623545,-17.0245866879336 L35.16432398379782,-16.878047235241365 L35.213211596584884,-16.728910671618795 L35.25477904644348,-16.577536280110486 L35.288926193746015,-16.4242887348844 L35.3155707750237,-16.269537222699896 L35.334648601146455,-16.113654553504457 L35.34611371196013,-15.957016262301883 L35.34993848700854,-15.799999704455603 " />
			<path d="M-243.51697508655613,-18.999999817894263 L-243.36117102656678,-18.996145277809 L-243.205742312202,-18.984590943361525 L-243.0510633848486,-18.965364649955557 L-242.89750687959088,-18.93851271541594 L-242.74544272749998,-18.90409982840493 L-242.5952372644375,-18.862208892581553 L-242.4472523485204,-18.812940826879416 L-242.3018444883731,-18.756414322384167 L-242.15936398426692,-18.692765556396278 L-242.02015408421605,-18.62214786436798 L-241.88455015706305,-18.54473137050476 L-241.75287888454596,-18.460702577921204 L-241.6254574742933,-18.37026391933871 L-241.5025928956432,-18.273633269407288 L-241.38458114012724,-18.171043419826468 L-241.2717065084011,-18.062741518529705 L-241.16424092533924,-17.948988474283343 L-241.06244328494415,-17.830058328134566 L-240.96655882664797,-17.706237593222497 L-240.87681854450918,-17.577824564542947 L-240.79343863072782,-17.44512860032967 L-240.71661995481935,-17.30846937678324 L-240.6465475797026,-17.16817611794312 L-240.58339031586684,-17.02458680255809 L-240.52730031469258,-16.878047349865856 L-240.4784127019055,-16.728910786243286 L-240.4368452520469,-16.577536394734977 L-240.4026981047444,-16.42428884950889 L-240.37605352346668,-16.269537337324387 L-240.35697569734393,-16.113654668128948 L-240.34551058653028,-15.957016376926374 L-240.34168581148185,-15.799999819080094 " />
			<path d="M35.34993848700854,-15.79999970445557 L35.3499385168523,66.80000029554442 " />
			<path d="M-240.34168581148188,-15.799999819080064 L-240.34168578163812,66.80000018091994 " />
			<path d="M35.349938516852305,66.80000029554442 L35.348178243494885,66.90653796511887 L35.34289937501814,67.01295751290527 L35.334107764275736,67.11914094807972 L35.321813158813264,67.22497054160405 L35.30602919006085,67.3303289567559 L35.28677335821949,67.43509937922376 L35.26406701285805,67.53916564662275 L35.23793532924229,67.64241237728768 L35.208407280422215,67.74472509820052 L35.175515605108714,67.84599037191026 L35.13929677137509,67.94609592230482 L35.09979093622373,68.04493075909514 L35.05704190106267,68.14238530087381 L35.01109706314163,68.23835149661153 L34.962007363001064,68.33272294545678 L34.909827227992764,68.42539501470597 L34.85461451193447,68.51626495581306 L34.79643043096544,68.60523201831029 L34.73533949567412,68.6921975615135 L34.67140943957319,68.7770651638882 L34.604711144001165,68.85974072995539 L34.53531855953394,68.94013259461819 L34.463308623993434,69.01815162479399 L34.38876117714404,69.09371131823913 L34.311758872171715,69.16672789945683 L34.23238708404371,69.2371204125818 L34.15073381485052,69.30481081113864 L34.06688959623512,69.36972404457445 L33.98094738901759,69.43178814146998 L33.893002480126384,69.49093428933654 L33.80315237695065,69.5470969109107 L33.71149669923059,69.60021373686196 " />
			<path d="M-240.34168578163803,66.80000018091994 L-240.3430089226551,66.89237022534948 L-240.3469772430689,66.98466328870079 L-240.3535874356862,67.07680245405051 L-240.36283399158077,67.16871093273376 L-240.3747092046845,67.26031212833959 L-240.38920317820973,67.3515297005464 L-240.406303832897,67.44228762874386 L-240.4259969170822,67.53251027538836 L-240.44826601857363,67.62212244903928 L-240.47309257833,67.71104946702343 L-240.50045590592757,67.79921721767548 L-240.53033319680338,67.88655222210255 L-240.5626995512607,67.97298169542142 L-240.59752799522025,68.05843360741736 L-240.63478950270053,68.14283674257402 L-240.6744530200079,68.22612075942436 L-240.71648549161674,68.30821624917314 L-240.7608518877179,68.38905479354209 L-240.8075152334125,68.46856902178965 L-240.8564366395267,68.5466926668577 L-240.90757533502196,68.62336062059832 L-240.96088870097358,68.698508988035 L-241.01633230608923,68.77207514061249 L-241.07385994373783,68.84399776839145 L-241.1334236704583,68.91421693114404 L-241.19497384591548,68.98267410830805 L-241.25845917427026,69.04931224775781 L-241.32382674692957,69.11407581335145 L-241.3910220866403,69.17691083121458 L-241.4599891928906,69.23776493472208 L-241.53067058858045,69.29658740814035 L-241.60300736792337,69.35332922889377 " />
			<path d="M0.8186676641490838,70.00000030844001 L32.174649244090375,70.00000029673024 " />
			<path d="M400.9050691392395,-15.800000000000004 L400.9050691392395,66.79999999999998 " />
			<path d="M125.21306456780587,-15.800000000000004 L125.21306456780587,66.79999999999998 " />
			<path d="M404.08035834472327,70.0 L128.38835377328962,70.0 " />
			<path d="M404.08035834472327,69.99999999999999 L403.92455428809325,69.99614545985654 L403.76912557708243,69.98459112535102 L403.61444665306965,69.96536483188729 L403.4608901511311,69.93851289729032 L403.3088260023299,69.90410001022252 L403.1586205425198,69.86220907434306 L403.01063562980994,69.81294100858565 L402.8652277728169,69.7564145040361 L402.7227472718045,69.692765737995 L402.58353737477944,69.62214804591471 L402.44793345057695,69.54473155200085 L402.31626218092805,69.46070275936813 L402.1888407734543,69.37026410073804 L402.0659761974871,69.27363345076074 L401.9479644445516,69.17104360113585 L401.8350898152973,69.06274169979693 L401.7276242345926,68.94898865551045 L401.6258265964345,68.83005850932365 L401.52994214024955,68.70623777437577 L401.44020186009124,68.57782474566271 L401.35682194815485,68.44512878141829 L401.28000327395137,68.30846955784318 L401.20993090039553,68.16817629897689 L401.14677363797284,68.02458698356827 L401.09068363806034,67.87804753085508 L401.0417960263808,67.72891096721426 L401.00022857747274,67.57753657569043 L400.96608143096154,67.42428903045159 L400.939436850314,67.26953751825714 L400.92035902465875,67.11365484905458 L400.9088939141488,66.95701655784772 L400.9050691392395,66.8 " />
			<path d="M127.01225479720064,69.68387991287464 L126.91273680339904,69.63346642350713 L126.81503452434004,69.57956641503418 L126.71926818056332,69.52224621024959 L126.62555561048208,69.4615763404247 L126.53401212538544,69.39763145852115 L126.44475036755045,69.33049024733208 L126.35788017163807,69.26023532266461 L126.27350842954414,69.18695313168294 L126.1917389588711,69.11073384653693 L126.1126723751828,69.0316712534072 L126.03640596819908,68.94986263710335 L125.96303358208303,68.86540866135705 L125.89264549996763,68.77841324495749 L125.82532833286444,68.68898343388159 L125.76116491309052,68.59722926957622 L125.70023419234515,68.50326365355458 L125.64261114456139,68.4072022084734 L125.58836667365229,68.30916313586161 L125.53756752626525,68.20926707067608 L125.49027620965161,68.10763693286283 L125.44655091475285,68.00439777610673 L125.40644544459795,67.8996766339556 L125.37000914809987,67.79360236350821 L125.3372868593328,67.68630548685849 L125.30831884236484,67.57791803049072 L125.28314074171385,67.46857336282402 L125.26178353848773,67.35840603010523 L125.24427351226278,67.24755159085277 L125.23063220874728,67.13614644905475 L125.22087641326993,67.02432768632686 L125.21501813012594,66.91223289323638 L125.21306456780589,66.8 " />
			<path d="M404.08035834472327,-19.000000000000007 L128.38835377328962,-19.000000000000007 " />
			<path d="M400.9050691392395,-15.800000000000004 L400.9088939141488,-15.957016557847743 L400.92035902465875,-16.113654849054598 L400.939436850314,-16.269537518257163 L400.96608143096154,-16.424289030451614 L401.00022857747274,-16.57753657569045 L401.0417960263808,-16.728910967214283 L401.09068363806034,-16.87804753085511 L401.14677363797284,-17.02458698356829 L401.20993090039553,-17.168176298976906 L401.28000327395137,-17.308469557843196 L401.35682194815485,-17.445128781418312 L401.44020186009124,-17.57782474566273 L401.52994214024955,-17.70623777437579 L401.6258265964345,-17.83005850932367 L401.7276242345926,-17.948988655510462 L401.8350898152973,-18.062741699796955 L401.9479644445516,-18.17104360113587 L402.0659761974871,-18.273633450760762 L402.1888407734543,-18.37026410073807 L402.31626218092805,-18.46070275936815 L402.44793345057695,-18.544731552000876 L402.58353737477944,-18.62214804591474 L402.7227472718045,-18.69276573799502 L402.8652277728169,-18.756414504036123 L403.01063562980994,-18.81294100858567 L403.1586205425198,-18.862209074343074 L403.3088260023299,-18.904100010222546 L403.4608901511311,-18.93851289729034 L403.61444665306965,-18.965364831887303 L403.76912557708243,-18.984591125351034 L403.92455428809325,-18.996145459856557 L404.08035834472327,-19.000000000000004 " />
			<path d="M125.21306456780589,-15.800000000000004 L125.21688934271513,-15.957016557847743 L125.22835445322511,-16.113654849054598 L125.24743227888038,-16.269537518257163 L125.27407685952791,-16.424289030451614 L125.30822400603913,-16.57753657569045 L125.34979145494715,-16.728910967214283 L125.3986790666267,-16.87804753085511 L125.45476906653917,-17.02458698356829 L125.51792632896188,-17.168176298976906 L125.58799870251772,-17.308469557843196 L125.66481737672119,-17.445128781418312 L125.74819728865761,-17.57782474566273 L125.83793756881589,-17.70623777437579 L125.93382202500084,-17.83005850932367 L126.035619663159,-17.948988655510462 L126.14308524386362,-18.062741699796955 L126.25595987311794,-18.17104360113587 L126.37397162605342,-18.273633450760762 L126.49683620202063,-18.37026410073807 L126.62425760949439,-18.46070275936815 L126.75592887914331,-18.544731552000876 L126.89153280334577,-18.62214804591474 L127.03074270037085,-18.69276573799502 L127.1732232013833,-18.756414504036123 L127.31863105837631,-18.81294100858567 L127.4666159710862,-18.862209074343074 L127.6168214308963,-18.904100010222546 L127.76888557969747,-18.93851289729034 L127.922442081636,-18.965364831887303 L128.0771210056488,-18.984591125351034 L128.23254971665958,-18.996145459856557 L128.3883537732896,-19.000000000000004 " />
			<path d="M435.4363392488752,-19.000000000000007 L159.74433467744154,-19.000000000000007 " />
			<path d="M404.08035834472327,-19.000000000000007 L435.4363392488752,-19.000000000000007 " />
			<path d="M128.38835377328962,-19.000000000000007 L159.74433467744154,-19.000000000000007 " />
			<path d="M435.4363392488752,-19.000000000000004 L435.5921433055052,-18.996145459856557 L435.747572016516,-18.984591125351034 L435.9022509405288,-18.965364831887303 L436.05580744246737,-18.93851289729034 L436.20787159126854,-18.904100010222546 L436.3580770510786,-18.862209074343074 L436.5060619637885,-18.81294100858567 L436.65146982078153,-18.756414504036123 L436.79395032179394,-18.692765737995025 L436.933160218819,-18.62214804591474 L437.0687641430215,-18.544731552000876 L437.2004354126704,-18.46070275936815 L437.3278568201442,-18.37026410073807 L437.45072139611136,-18.273633450760762 L437.56873314904686,-18.171043601135874 L437.68160777830116,-18.062741699796955 L437.78907335900584,-17.948988655510462 L437.890870997164,-17.83005850932367 L437.9867554533489,-17.70623777437579 L438.0764957335072,-17.57782474566273 L438.1598756454436,-17.445128781418315 L438.2366943196471,-17.308469557843196 L438.3067666932029,-17.16817629897691 L438.3699239556256,-17.024586983568295 L438.4260139555381,-16.87804753085511 L438.47490156721767,-16.728910967214286 L438.51646901612565,-16.577536575690452 L438.5506161626369,-16.424289030451614 L438.57726074328446,-16.26953751825716 L438.5963385689397,-16.113654849054598 L438.60780367944966,-15.957016557847743 L438.61162845435894,-15.800000000000033 " />
			<path d="M159.74433467744154,-19.000000000000004 L159.9001387340716,-18.996145459856557 L160.05556744508237,-18.984591125351034 L160.21024636909516,-18.965364831887303 L160.3638028710337,-18.93851289729034 L160.51586701983487,-18.904100010222546 L160.66607247964498,-18.862209074343074 L160.81405739235487,-18.81294100858567 L160.9594652493479,-18.756414504036123 L161.1019457503603,-18.692765737995025 L161.2411556473854,-18.62214804591474 L161.37675957158785,-18.544731552000876 L161.50843084123676,-18.46070275936815 L161.63585224871053,-18.37026410073807 L161.75871682467775,-18.273633450760762 L161.87672857761322,-18.171043601135874 L161.98960320686754,-18.062741699796955 L162.09706878757217,-17.948988655510462 L162.19886642573033,-17.83005850932367 L162.29475088191526,-17.70623777437579 L162.38449116207357,-17.57782474566273 L162.46787107400996,-17.445128781418315 L162.54468974821344,-17.308469557843196 L162.61476212176927,-17.16817629897691 L162.677919384192,-17.024586983568295 L162.73400938410447,-16.87804753085511 L162.782896995784,-16.728910967214286 L162.82446444469204,-16.577536575690452 L162.85861159120327,-16.424289030451614 L162.88525617185078,-16.26953751825716 L162.90433399750606,-16.113654849054598 L162.91579910801602,-15.957016557847743 L162.9196238829253,-15.800000000000033 " />
			<path d="M438.61162845435894,-15.800000000000004 L438.61162845435894,66.79999999999998 " />
			<path d="M162.9196238829253,-15.800000000000004 L162.9196238829253,66.79999999999998 " />
			<path d="M438.61162845435894,66.79999999999998 L438.60852767129546,66.9413848815669 L438.59923137815537,67.08249362838338 L438.5837577312617,67.22305064500978 L438.5621369517497,67.36278141357488 L438.5344112665427,67.50141302992883 L438.50063482588,67.63867473664433 L438.46087359755745,67.7742984518253 L438.4152052380879,67.90801929268983 L438.3637189410322,68.0395760929052 L438.30651526279803,68.16871191266426 L438.24370592624604,68.29517454050732 L438.17541360248697,68.41871698590896 L438.10177167129655,68.5390979616682 L438.0229239606149,68.65608235515964 L437.9390244656406,68.76944168752509 L437.8502370480671,68.8789545599091 L437.7567351160488,68.98440708586676 L437.6587012855231,69.08559330909904 L437.5563270235481,69.18231560570027 L437.4498122743537,69.27438507013159 L437.33936506883674,69.36162188416702 L437.2252011182612,69.44385566809123 L437.10754339295937,69.52092581346325 L436.9866216868544,69.59268179679626 L436.86267216865656,69.6589834735406 L436.73593692060905,69.71970135179618 L436.606663465684,69.77471684521926 L436.47510428415234,69.82392250463016 L436.3415163204721,69.86722222786906 L436.20616048145746,69.90453144749043 L436.06930112670904,69.93577729592924 L435.93120555230087,69.96089874781656 " />
			<path d="M162.9196238829253,66.79999999999998 L162.91759107792615,66.9144858131855 L162.91149526571286,67.02882503982829 L162.90134425130523,67.14287128107368 L162.8871510319652,67.25647851320267 L162.8689337805554,67.3695012745993 L162.84671582227074,67.48179485199847 L162.82052560477288,67.5932154657752 L162.7903966617665,67.70362045403888 L162.75636757006262,67.81286845529607 L162.7184819001856,67.92081958944848 L162.67678816058557,68.02733563689405 L162.63133973552888,68.13228021550209 L162.5821948167453,68.23551895523559 L162.52941632891984,68.33691967019735 L162.47307184912466,68.43635252787955 L162.41323352029406,68.53369021540007 L162.3499779588532,68.62880810251266 L162.2833861566194,68.72158440118234 L162.21354337710073,68.81190032152159 L162.1405390463256,68.89964022388789 L162.06446663834257,68.98469176694748 L161.98542355553678,69.06694605151627 L161.90351100391726,69.14629775999319 L161.81883386353343,69.22264529120793 L161.73150055418776,69.29589089051008 L161.64162289661618,69.36594077493325 L161.54931596931382,69.43270525327388 L161.45469796118948,69.496098840931 L161.3578900202379,69.5560403693599 L161.2590160984229,69.61245308999962 L161.15820279297043,69.66526477254092 L161.0555791842748,69.71440779740946 " />
			<path d="M404.08035834472327,70.0 L435.4363392488752,70.0 " />
			<path d="M804.1667982356739,-15.8 L804.1667982356739,66.8 " />
			<path d="M528.4747936642403,-15.8 L528.4747936642403,66.8 " />
			<path d="M807.3420874411578,70.0 L531.6500828697242,70.0 " />
			<path d="M807.3420874411578,70.0 L807.1862833845278,69.99614545985655 L807.030854673517,69.98459112535103 L806.8761757495041,69.9653648318873 L806.7226192475656,69.93851289729034 L806.5705550987644,69.90410001022254 L806.4203496389543,69.86220907434307 L806.2723647262445,69.81294100858567 L806.1269568692514,69.75641450403612 L805.984476368239,69.69276573799502 L805.8452664712139,69.62214804591473 L805.7096625470115,69.54473155200087 L805.5779912773626,69.46070275936815 L805.4505698698888,69.37026410073805 L805.3277052939216,69.27363345076076 L805.2096935409861,69.17104360113586 L805.0968189117318,69.06274169979694 L804.9893533310271,68.94898865551046 L804.887555692869,68.83005850932366 L804.791671236684,68.70623777437578 L804.7019309565258,68.57782474566272 L804.6185510445894,68.4451287814183 L804.5417323703858,68.3084695578432 L804.47165999683,68.1681762989769 L804.4085027344073,68.02458698356828 L804.3524127344949,67.8780475308551 L804.3035251228154,67.72891096721428 L804.2619576739073,67.57753657569044 L804.2278105273961,67.4242890304516 L804.2011659467486,67.26953751825715 L804.1820881210933,67.1136548490546 L804.1706230105833,66.95701655784774 L804.166798235674,66.80000000000001 " />
			<path d="M531.6500828697242,70.0 L531.4942788130942,69.99614545985655 L531.3388501020834,69.98459112535103 L531.1841711780705,69.9653648318873 L531.030614676132,69.93851289729034 L530.8785505273308,69.90410001022254 L530.7283450675208,69.86220907434307 L530.5803601548109,69.81294100858567 L530.4349522978179,69.75641450403612 L530.2924717968054,69.69276573799502 L530.1532618997803,69.62214804591473 L530.0176579755779,69.54473155200087 L529.885986705929,69.46070275936815 L529.7585652984552,69.37026410073805 L529.635700722488,69.27363345076076 L529.5176889695525,69.17104360113586 L529.4048143402982,69.06274169979694 L529.2973487595935,68.94898865551046 L529.1955511214354,68.83005850932366 L529.0996666652504,68.70623777437578 L529.0099263850922,68.57782474566272 L528.9265464731558,68.4451287814183 L528.8497277989522,68.3084695578432 L528.7796554253964,68.1681762989769 L528.7164981629737,68.02458698356828 L528.6604081630613,67.8780475308551 L528.6115205513818,67.72891096721428 L528.5699531024737,67.57753657569044 L528.5358059559625,67.4242890304516 L528.509161375315,67.26953751825715 L528.4900835496597,67.1136548490546 L528.4786184391497,66.95701655784774 L528.4747936642405,66.80000000000001 " />
			<path d="M807.3420874411578,-19.000000000000004 L531.6500828697242,-19.000000000000004 " />
			<path d="M804.166798235674,-15.8 L804.1706230105833,-15.957016557847739 L804.1820881210933,-16.113654849054594 L804.2011659467486,-16.26953751825716 L804.2278105273961,-16.42428903045161 L804.2619576739073,-16.577536575690445 L804.3035251228154,-16.72891096721428 L804.3524127344949,-16.878047530855106 L804.4085027344073,-17.024586983568287 L804.47165999683,-17.168176298976903 L804.5417323703858,-17.308469557843193 L804.6185510445894,-17.445128781418312 L804.7019309565258,-17.577824745662728 L804.791671236684,-17.706237774375786 L804.887555692869,-17.830058509323667 L804.9893533310271,-17.94898865551046 L805.0968189117318,-18.062741699796952 L805.2096935409861,-18.17104360113587 L805.3277052939216,-18.27363345076076 L805.4505698698888,-18.370264100738066 L805.5779912773626,-18.460702759368147 L805.7096625470115,-18.544731552000872 L805.8452664712139,-18.622148045914738 L805.984476368239,-18.692765737995018 L806.1269568692514,-18.75641450403612 L806.2723647262445,-18.812941008585668 L806.4203496389543,-18.86220907434307 L806.5705550987644,-18.904100010222542 L806.7226192475656,-18.938512897290337 L806.8761757495041,-18.9653648318873 L807.030854673517,-18.98459112535103 L807.1862833845278,-18.996145459856553 L807.3420874411578,-19.0 " />
			<path d="M528.4747936642405,-15.8 L528.4786184391497,-15.957016557847739 L528.4900835496597,-16.113654849054594 L528.509161375315,-16.26953751825716 L528.5358059559625,-16.42428903045161 L528.5699531024737,-16.577536575690445 L528.6115205513818,-16.72891096721428 L528.6604081630613,-16.878047530855106 L528.7164981629737,-17.024586983568287 L528.7796554253964,-17.168176298976903 L528.8497277989522,-17.308469557843193 L528.9265464731558,-17.445128781418312 L529.0099263850922,-17.577824745662728 L529.0996666652504,-17.706237774375786 L529.1955511214354,-17.830058509323667 L529.2973487595935,-17.94898865551046 L529.4048143402982,-18.062741699796952 L529.5176889695525,-18.17104360113587 L529.635700722488,-18.27363345076076 L529.7585652984552,-18.370264100738066 L529.885986705929,-18.460702759368147 L530.0176579755779,-18.544731552000872 L530.1532618997803,-18.622148045914738 L530.2924717968054,-18.692765737995018 L530.4349522978179,-18.75641450403612 L530.5803601548109,-18.812941008585668 L530.7283450675208,-18.86220907434307 L530.8785505273308,-18.904100010222542 L531.030614676132,-18.938512897290337 L531.1841711780705,-18.9653648318873 L531.3388501020834,-18.98459112535103 L531.4942788130942,-18.996145459856553 L531.6500828697242,-19.0 " />
			<path d="M623.3417635457497,-19.000000000000004 L563.0060637738759,-19.000000000000004 " />
			<path d="M807.3420874411577,-19.000000000000004 L838.6980683453096,-19.000000000000004 " />
			<path d="M531.6500828697241,-19.000000000000004 L563.006063773876,-19.000000000000004 " />
			<path d="M839.7871047213755,-18.805905606973827 L839.9000668507533,-18.761861675796226 L840.0112800144989,-18.71350809343796 L840.1205823921107,-18.66091521668678 L840.2278149433726,-18.604159570707676 L840.3328216397655,-18.543323737695047 L840.435449691496,-18.47849623671165 L840.5355497698134,-18.409771394889116 L840.6329762242897,-18.337249210177422 L840.7275872947481,-18.26103520584308 L840.8192453175311,-18.18124027692768 L840.9078169258075,-18.097980528890318 L840.9931732436277,-18.01137710866853 L841.0751900734442,-17.921556028403682 L841.1537480768252,-17.82864798208725 L841.228732948098,-17.732788155394783 L841.3000355806685,-17.634116028984216 L841.3675522257773,-17.532775175544838 L841.4311846434587,-17.42891305089211 L841.4908402454847,-17.322680779412355 L841.5464322300857,-17.214232934169516 L841.59787970825,-17.103727311993914 L841.6451078214232,-16.991324703880274 L841.688047850429,-16.877188661029084 L841.7266373154603,-16.76148525687175 L841.7608200669895,-16.64438284542575 L841.7905463674692,-16.526051816331435 L841.8157729637027,-16.406664346926945 L841.8364631497792,-16.28639415172187 L841.852586820483,-16.16541622963428 L841.8641205150977,-16.043906609358906 L841.8710474515431,-15.92204209323692 L841.8733575507933,-15.80000000000003 " />
			<path d="M563.006063773876,-19.0 L563.161867830506,-18.996145459856553 L563.3172965415168,-18.98459112535103 L563.4719754655297,-18.9653648318873 L563.6255319674682,-18.938512897290337 L563.7775961162694,-18.904100010222542 L563.9278015760794,-18.86220907434307 L564.0757864887893,-18.812941008585668 L564.2211943457824,-18.75641450403612 L564.3636748467948,-18.692765737995018 L564.5028847438199,-18.622148045914738 L564.6384886680223,-18.544731552000872 L564.7701599376712,-18.460702759368147 L564.897581345145,-18.370264100738066 L565.0204459211122,-18.27363345076076 L565.1384576740477,-18.17104360113587 L565.251332303302,-18.062741699796952 L565.3587978840067,-17.94898865551046 L565.4605955221648,-17.830058509323663 L565.5564799783498,-17.706237774375786 L565.646220258508,-17.577824745662728 L565.7296001704444,-17.445128781418312 L565.806418844648,-17.308469557843193 L565.8764912182038,-17.168176298976906 L565.9396484806265,-17.02458698356829 L565.9957384805389,-16.878047530855106 L566.0446260922184,-16.728910967214283 L566.0861935411265,-16.57753657569045 L566.1203406876377,-16.42428903045161 L566.1469852682852,-16.269537518257156 L566.1660630939405,-16.113654849054594 L566.1775282044505,-15.957016557847739 L566.1813529793598,-15.80000000000003 " />
			<path d="M841.8733575507933,-15.8 L841.8733575507933,66.8 " />
			<path d="M566.1813529793598,-15.8 L566.1813529793598,66.8 " />
			<path d="M838.6980683453096,70.0 L563.0060637738759,70.0 " />
			<path d="M841.8733575507933,66.8 L841.8695327758841,66.95701655784774 L841.858067665374,67.11365484905458 L841.8389898397188,67.26953751825715 L841.8123452590713,67.4242890304516 L841.7781981125601,67.57753657569044 L841.736630663652,67.72891096721428 L841.6877430519725,67.8780475308551 L841.6316530520601,68.02458698356828 L841.5684957896374,68.1681762989769 L841.4984234160816,68.3084695578432 L841.421604741878,68.4451287814183 L841.3382248299416,68.57782474566272 L841.2484845497834,68.70623777437578 L841.1526000935984,68.83005850932366 L841.0508024554402,68.94898865551045 L840.9433368747356,69.06274169979694 L840.8304622454813,69.17104360113586 L840.7124504925458,69.27363345076076 L840.5895859165786,69.37026410073805 L840.4621645091048,69.46070275936815 L840.3304932394559,69.54473155200087 L840.1948893152535,69.62214804591473 L840.0556794182284,69.69276573799502 L839.9131989172159,69.75641450403612 L839.7677910602229,69.81294100858567 L839.619806147513,69.86220907434307 L839.469600687703,69.90410001022254 L839.3175365389018,69.93851289729034 L839.1639800369633,69.9653648318873 L839.0093011129504,69.98459112535103 L838.8538724019396,69.99614545985655 L838.6980683453096,70.0 " />
			<path d="M566.1813529793598,66.8 L566.1775282044505,66.95701655784774 L566.1660630939405,67.11365484905458 L566.1469852682852,67.26953751825715 L566.1203406876377,67.4242890304516 L566.0861935411265,67.57753657569044 L566.0446260922184,67.72891096721428 L565.9957384805389,67.8780475308551 L565.9396484806265,68.02458698356828 L565.8764912182038,68.1681762989769 L565.806418844648,68.3084695578432 L565.7296001704444,68.4451287814183 L565.646220258508,68.57782474566272 L565.5564799783498,68.70623777437578 L565.4605955221648,68.83005850932366 L565.3587978840067,68.94898865551045 L565.251332303302,69.06274169979694 L565.1384576740477,69.17104360113586 L565.0204459211122,69.27363345076076 L564.897581345145,69.37026410073805 L564.7701599376712,69.46070275936815 L564.6384886680223,69.54473155200087 L564.5028847438199,69.62214804591473 L564.3636748467948,69.69276573799502 L564.2211943457824,69.75641450403612 L564.0757864887893,69.81294100858567 L563.9278015760794,69.86220907434307 L563.7775961162694,69.90410001022254 L563.6255319674682,69.93851289729034 L563.4719754655297,69.9653648318873 L563.3172965415168,69.98459112535103 L563.161867830506,69.99614545985655 L563.006063773876,70.0 " />
			<path d="M807.3420874411577,70.0 L838.6980683453096,70.0 " />
			<path d="M531.6500828697241,70.0 L563.006063773876,70.0 " />
			<path d="M1207.4285273321084,-15.799999999999994 L1207.4285273321084,66.8 " />
			<path d="M931.7365227606748,-15.799999999999994 L931.7365227606748,66.8 " />
			<path d="M1210.6038165375921,70.0 L934.9118119661584,70.0 " />
			<path d="M1210.6038165375921,70.0 L1210.448012480962,69.99614545985655 L1210.2925837699513,69.98459112535103 L1210.1379048459385,69.9653648318873 L1209.984348344,69.93851289729034 L1209.8322841951988,69.90410001022254 L1209.6820787353888,69.86220907434307 L1209.5340938226789,69.81294100858567 L1209.388685965686,69.75641450403612 L1209.2462054646733,69.69276573799502 L1209.1069955676483,69.62214804591473 L1208.971391643446,69.54473155200087 L1208.8397203737968,69.46070275936815 L1208.712298966323,69.37026410073805 L1208.589434390356,69.27363345076076 L1208.4714226374206,69.17104360113586 L1208.358548008166,69.06274169979694 L1208.2510824274616,68.94898865551046 L1208.1492847893032,68.83005850932366 L1208.0534003331184,68.70623777437578 L1207.9636600529602,68.57782474566272 L1207.8802801410236,68.4451287814183 L1207.8034614668202,68.3084695578432 L1207.7333890932643,68.1681762989769 L1207.6702318308417,68.02458698356828 L1207.6141418309292,67.8780475308551 L1207.5652542192497,67.72891096721428 L1207.5236867703416,67.57753657569044 L1207.4895396238305,67.4242890304516 L1207.462895043183,67.26953751825715 L1207.4438172175276,67.1136548490546 L1207.4323521070176,66.95701655784774 L1207.4285273321084,66.80000000000001 " />
			<path d="M934.9118119661586,70.0 L934.7560079095285,69.99614545985655 L934.6005791985177,69.98459112535103 L934.4459002745049,69.9653648318873 L934.2923437725664,69.93851289729034 L934.1402796237652,69.90410001022254 L933.9900741639551,69.86220907434307 L933.8420892512453,69.81294100858567 L933.6966813942522,69.75641450403612 L933.5542008932398,69.69276573799502 L933.4149909962147,69.62214804591473 L933.2793870720122,69.54473155200087 L933.1477158023633,69.46070275936815 L933.0202943948896,69.37026410073805 L932.8974298189223,69.27363345076076 L932.7794180659869,69.17104360113586 L932.6665434367326,69.06274169979694 L932.5590778560279,68.94898865551046 L932.4572802178698,68.83005850932366 L932.3613957616848,68.70623777437578 L932.2716554815265,68.57782474566272 L932.1882755695901,68.4451287814183 L932.1114568953866,68.3084695578432 L932.0413845218308,68.1681762989769 L931.9782272594081,68.02458698356828 L931.9221372594957,67.8780475308551 L931.8732496478161,67.72891096721428 L931.8316821989081,67.57753657569044 L931.7975350523968,67.4242890304516 L931.7708904717493,67.26953751825715 L931.7518126460941,67.1136548490546 L931.7403475355841,66.95701655784774 L931.7365227606748,66.80000000000001 " />
			<path d="M1207.4285273321084,-15.799999999999994 L1207.4323521070176,-15.957016557847732 L1207.4438172175276,-16.113654849054587 L1207.462895043183,-16.269537518257152 L1207.4895396238305,-16.424289030451604 L1207.5236867703416,-16.577536575690438 L1207.5652542192497,-16.728910967214272 L1207.6141418309292,-16.8780475308551 L1207.6702318308417,-17.02458698356828 L1207.7333890932643,-17.168176298976896 L1207.8034614668202,-17.308469557843186 L1207.8802801410236,-17.445128781418305 L1207.9636600529602,-17.57782474566272 L1208.0534003331184,-17.70623777437578 L1208.1492847893032,-17.83005850932366 L1208.2510824274616,-17.94898865551045 L1208.358548008166,-18.062741699796945 L1208.4714226374203,-18.171043601135864 L1208.589434390356,-18.27363345076075 L1208.712298966323,-18.37026410073806 L1208.8397203737968,-18.46070275936814 L1208.971391643446,-18.544731552000865 L1209.1069955676483,-18.62214804591473 L1209.2462054646733,-18.69276573799501 L1209.388685965686,-18.756414504036112 L1209.5340938226789,-18.81294100858566 L1209.6820787353888,-18.862209074343063 L1209.8322841951988,-18.904100010222535 L1209.984348344,-18.93851289729033 L1210.1379048459385,-18.965364831887292 L1210.2925837699513,-18.984591125351024 L1210.448012480962,-18.996145459856546 L1210.6038165375921,-18.999999999999993 " />
			<path d="M931.7365227606748,-15.799999999999994 L931.738575502629,-15.91504567871537 L931.744731074403,-16.029942609347618 L931.7549815171624,-16.144542236137145 L931.7693135776174,-16.25869638772278 L931.7877087251587,-16.372257468719635 L931.8101431758168,-16.485078650552268 L931.836587923013,-16.597014061296402 L931.8670087750635,-16.707918974283743 L931.9013663993877,-16.817649995226024 L931.9396163733633,-16.9260652476164 L931.9817092417616,-17.033024556168357 L932.0275905806918,-17.1383896280551 L932.0772010679673,-17.242024231714993 L932.1304765598065,-17.34379437299186 L932.1873481737674,-17.443568468382487 L932.247742377809,-17.541217515167258 L932.3115810853645,-17.63661525820394 L932.3787817563029,-17.729638353169044 L932.4492575036497,-17.820166526035614 L932.5229172059262,-17.9080827285813 L932.599665624966,-17.99327328972561 L932.679403529052,-18.075628062500737 L932.7620278212188,-18.15504056646583 L932.847431672551,-18.23140812538069 L932.9355046603075,-18.30463199996081 L933.0261329106927,-18.37461751554215 L933.1191992460894,-18.441274184490513 L933.2145833365627,-18.504515823197412 L933.3121618554414,-18.56426066351095 L933.4118086387722,-18.620431458457816 L933.5133948484432,-18.672955582119595 L933.6167891387654,-18.721765123534308 " />
			<path d="M1210.6038165375921,-18.999999999999996 L1241.9597974417438,-18.999999999999996 " />
			<path d="M1243.7489464000037,-18.443658362286655 L1243.8278081750561,-18.387665554833376 L1243.9049457709605,-18.329284324812463 L1243.980287989499,-18.268568558263024 L1244.053765289593,-18.205574296007946 L1244.125309851488,-18.14035968192804 L1244.194855639353,-18.072984909295087 L1244.2623384622302,-18.00351216521326 L1244.327696033285,-17.93200557322028 L1244.390868027296,-17.85853113410119 L1244.4517961363354,-17.783156664969457 L1244.5104241235874,-17.705951736671572 L1244.5666978752556,-17.626987609572982 L1244.6205654505093,-17.546337167784554 L1244.6719771294252,-17.464074851890345 L1244.7208854588794,-17.38027659023875 L1244.7672452963466,-17.29501972886039 L1244.8110138515667,-17.208382960077532 L1244.852150726041,-17.120446249870852 L1244.890617950318,-17.0312907640706 L1244.9263800190424,-16.940998793440336 L1244.9594039237243,-16.849653677722284 L1244.9896591832069,-16.757339728714552 L1245.0171178718008,-16.664142152451095 L1245.0417546450597,-16.570146970556298 L1245.0635467631723,-16.475440940846777 L1245.0824741119527,-16.380111477253696 L1245.0985192214048,-16.284246569139412 L1245.1116672818478,-16.187934700083108 L1245.1219061575846,-16.091264766210152 L1245.1292263981043,-15.994325994140745 L1245.1336212468045,-15.897207858633502 L1245.1350866472276,-15.800000000000022 " />
			<path d="M967.6285468849242,-18.69126554595173 L967.7288031929518,-18.64114351542034 L967.8272445670079,-18.587492086222866 L967.923748718707,-18.53037790662315 L968.0181957661692,-18.46987192647227 L968.1104683829448,-18.40604930907136 L968.2004519437604,-18.338989337800342 L968.2880346669139,-18.268775317628446 L968.373107753133,-18.195494471628987 L968.4555655207317,-18.11923783262685 L968.5353055368926,-18.040100130113355 L968.6122287449135,-17.958179672568935 L968.6862395872607,-17.873578225339834 L968.7572461242745,-17.786400884220537 L968.8251601483805,-17.696755944898957 L968.8898972936661,-17.604754768426563 L968.951377140683,-17.510511642880594 L969.0095233163479,-17.414143641390154 L969.0642635888169,-17.315770476702617 L969.1155299572152,-17.21551435247096 L969.1632587361108,-17.113499811446797 L969.2073906346275,-17.009853580767654 L969.2478708300986,-16.90470441453072 L969.2846490361703,-16.79818293384859 L969.3176795652697,-16.69042146458577 L969.3469213853601,-16.581553872977384 L969.3723381709126,-16.471715399334425 L969.3938983480315,-16.361042490042045 L969.4115751336767,-16.24967262805958 L969.4253465689352,-16.137744162132957 L969.4351955462989,-16.0253961349315 L969.441109830917,-15.912768110322785 L969.443082075794,-15.800000000000022 " />
			<path d="M1245.1350866472276,-15.799999999999994 L1245.1350866472276,66.8 " />
			<path d="M969.443082075794,-15.799999999999994 L969.443082075794,66.8 " />
			<path d="M1241.9597974417438,70.0 L966.2677928703101,70.0 " />
			<path d="M1245.1350866472276,66.8 L1245.1312618723184,66.95701655784774 L1245.1197967618084,67.11365484905458 L1245.100718936153,67.26953751825715 L1245.0740743555054,67.4242890304516 L1245.0399272089944,67.57753657569044 L1244.9983597600863,67.72891096721428 L1244.9494721484068,67.8780475308551 L1244.8933821484943,68.02458698356828 L1244.8302248860716,68.1681762989769 L1244.7601525125158,68.3084695578432 L1244.6833338383124,68.4451287814183 L1244.5999539263757,68.57782474566272 L1244.5102136462176,68.70623777437578 L1244.4143291900327,68.83005850932366 L1244.3125315518744,68.94898865551045 L1244.20506597117,69.06274169979694 L1244.0921913419154,69.17104360113586 L1243.97417958898,69.27363345076076 L1243.851315013013,69.37026410073805 L1243.7238936055392,69.46070275936815 L1243.59222233589,69.54473155200087 L1243.4566184116877,69.62214804591473 L1243.3174085146627,69.69276573799502 L1243.17492801365,69.75641450403612 L1243.029520156657,69.81294100858567 L1242.8815352439472,69.86220907434307 L1242.7313297841372,69.90410001022254 L1242.579265635336,69.93851289729034 L1242.4257091333975,69.9653648318873 L1242.2710302093847,69.98459112535103 L1242.115601498374,69.99614545985655 L1241.9597974417438,70.0 " />
			<path d="M969.443082075794,66.8 L969.4392573008847,66.95701655784774 L969.4277921903747,67.11365484905458 L969.4087143647195,67.26953751825715 L969.382069784072,67.4242890304516 L969.3479226375607,67.57753657569044 L969.3063551886527,67.72891096721428 L969.2574675769731,67.8780475308551 L969.2013775770607,68.02458698356828 L969.138220314638,68.1681762989769 L969.0681479410822,68.3084695578432 L968.9913292668787,68.4451287814183 L968.9079493549423,68.57782474566272 L968.818209074784,68.70623777437578 L968.722324618599,68.83005850932366 L968.6205269804409,68.94898865551045 L968.5130613997362,69.06274169979694 L968.4001867704819,69.17104360113586 L968.2821750175465,69.27363345076076 L968.1593104415792,69.37026410073805 L968.0318890341055,69.46070275936815 L967.9002177644566,69.54473155200087 L967.7646138402541,69.62214804591473 L967.625403943229,69.69276573799502 L967.4829234422166,69.75641450403612 L967.3375155852235,69.81294100858567 L967.1895306725137,69.86220907434307 L967.0393252127036,69.90410001022254 L966.8872610639024,69.93851289729034 L966.7337045619639,69.9653648318873 L966.5790256379511,69.98459112535103 L966.4235969269403,69.99614545985655 L966.2677928703102,70.0 " />
			<path d="M1210.6038165375921,70.0 L1241.9597974417438,70.0 " />
			<path d="M934.9118119661584,70.0 L966.2677928703104,70.0 " />
			<path d="M1623.3913170773485,-15.799999967569072 L1623.3913170740266,66.80000003243092 " />
			<path d="M1347.6989768691421,-15.799999967569093 L1347.6989768658202,66.8000000324309 " />
			<path d="M1626.56660621898,70.00000003256062 L1350.8742660107737,70.00000003256059 " />
			<path d="M1626.56660621898,70.00000003256062 L1626.410802165314,69.9961454924108 L1626.2553734572602,69.98459115789893 L1626.1006945361905,69.96536486442889 L1625.9471380371742,69.93851292982565 L1625.795073891267,69.90410004275165 L1625.6448684343159,69.86220910686603 L1625.4968835244229,69.81294104110259 L1625.3514756701982,69.75641453654711 L1625.2089951718988,69.69276577050019 L1625.0697852775245,69.62214807841421 L1624.9341813559047,69.54473158449481 L1624.802510088764,69.4607027918567 L1624.6750886837176,69.37026413322143 L1624.5522241100914,69.2736334832391 L1624.434212359405,69.17104363360939 L1624.3213377323023,69.06274173226586 L1624.2138721536464,68.94898868797499 L1624.1120745174294,68.83005854178403 L1624.0161900630735,68.70623780683223 L1623.9264497846273,68.57782477811551 L1623.8430698742825,68.44512881386768 L1623.7662512015456,68.30846959028943 L1623.6961788293283,68.16817633142028 L1623.633021568113,68.0245870160091 L1623.5769315692733,67.8780475632936 L1623.5280439585297,67.7289109996508 L1623.4864765104185,67.57753660812526 L1623.452329364563,67.42428906288502 L1623.4256847844285,67.26953755068949 L1623.4066069591424,67.11365488148614 L1623.3951418488568,66.95701659027883 L1623.3913170740266,66.80000003243093 " />
			<path d="M1350.8742660107737,70.0000000325606 L1350.7184619571076,69.99614549241079 L1350.563033249054,69.98459115789892 L1350.4083543279842,69.96536486442888 L1350.2547978289679,69.93851292982563 L1350.1027336830607,69.90410004275164 L1349.9525282261095,69.86220910686603 L1349.8045433162165,69.81294104110258 L1349.6591354619918,69.75641453654708 L1349.5166549636924,69.69276577050017 L1349.3774450693181,69.6221480784142 L1349.2418411476983,69.5447315844948 L1349.1101698805576,69.46070279185669 L1348.9827484755112,69.37026413322141 L1348.859883901885,69.27363348323908 L1348.7418721511985,69.17104363360937 L1348.628997524096,69.06274173226585 L1348.52153194544,68.94898868797497 L1348.419734309223,68.83005854178401 L1348.3238498548671,68.70623780683222 L1348.234109576421,68.5778247781155 L1348.1507296660761,68.44512881386767 L1348.0739109933393,68.30846959028942 L1348.003838621122,68.16817633142027 L1347.9406813599066,68.02458701600908 L1347.884591361067,67.87804756329359 L1347.8357037503233,67.72891099965078 L1347.794136302212,67.57753660812524 L1347.7599891563566,67.42428906288501 L1347.7333445762222,67.26953755068948 L1347.714266750936,67.11365488148613 L1347.7028016406505,66.95701659027881 L1347.6989768658202,66.80000003243092 " />
			<path d="M1623.3913170773483,-15.799999967569068 L1623.3951417144424,-15.957013699628652 L1623.4066064121578,-16.113649185477595 L1623.4256835520284,-16.26952909010101 L1623.4523271772084,-16.424277898679794 L1623.4864731031828,-16.577522821206163 L1623.5280390723876,-16.728894690535068 L1623.5769249523687,-16.878028851708166 L1623.6330129770008,-17.02456604040791 L1623.696168030186,-17.168153248425586 L1623.7662379713495,-17.308444574058385 L1623.8430540019447,-17.445102055386883 L1623.9264310720903,-17.577796484425598 L1624.0161683263557,-17.706208200185277 L1624.112049587621,-17.830027858736504 L1624.2138438778486,-17.94895717841948 L1624.3213059745094,-18.06270965840477 L1624.4341770013234,-18.17101126887406 L1624.5521850518937,-18.273601111158197 L1624.675045844729,-18.370232046242318 L1624.802463408078,-18.460671290123923 L1624.934130792925,-18.54470097458974 L1625.0697308124313,-18.62211867206043 L1625.2089368060376,-18.692737883238784 L1625.3514134263903,-18.7563884863867 L1625.4968174471933,-18.81291714714858 L1625.6447985900402,-18.86218768793391 L1625.7950003682354,-18.904081415969216 L1625.9470609455711,-18.938497409229033 L1626.100614007991,-18.96535275955714 L1626.2552896460409,-18.9845827723924 L1626.4107152459803,-18.996141122618 L1626.5665163874112,-18.999999966158683 " />
			<path d="M1347.698976869142,-15.79999996756909 L1347.700294066222,-15.892162345530078 L1347.7042445646357,-15.984248260523811 L1347.7108250868325,-16.076181313021014 L1347.7200301732503,-16.167885230315523 L1347.7318521868442,-16.25928392980433 L1347.7462813194225,-16.350301582109854 L1347.7633055997853,-16.44086267399218 L1347.782910903655,-16.53089207099898 L1347.8050809653953,-16.62031507980117 L1347.8297973915066,-16.709057510162612 L1347.8570396758848,-16.79704573649239 L1347.886785216836,-16.88420675892865 L1347.9190093358263,-16.970468263903282 L1347.9536852979581,-17.055758684137245 L1347.9907843341505,-17.140007258016695 L1348.0302756650062,-17.223144088300696 L1348.07212652635,-17.305100200111834 L1348.11630219641,-17.385807598161524 L1348.1627660246263,-17.465199323162675 L1348.211479462056,-17.543209507382752 L1348.2624020933586,-17.619773429291293 L1348.3154916703236,-17.694827567256414 L1348.3707041469243,-17.768309652245865 L1348.4279937158599,-17.84015871948883 L1348.4873128465592,-17.910315159055642 L1348.5486123246162,-17.978720765313444 L1348.611841292619,-18.045318785216807 L1348.6769472923454,-18.110053965393142 L1348.743876308285,-18.17287259798394 L1348.8125728124523,-18.233722565203763 L1348.8829798104573,-18.29255338258001 L1348.9550388887899,-18.349316240837616 " />
			<path d="M1626.5666062225591,-18.999999967439383 L1657.9225865302446,-18.99999996615868 " />
			<path d="M1384.3195632277202,-18.20967789966407 L1384.4130764906593,-18.12396276489064 L1384.503130383153,-18.03456459130949 L1384.589582186918,-17.941625058014115 L1384.6722948922963,-17.845291456479263 L1384.7511374153898,-17.745716457131998 L1384.8259848058017,-17.64305786739809 L1384.8967184446615,-17.537478381607308 L1384.963226232611,-17.429145323153847 L1385.0254027674625,-17.31823037932059 L1385.08314951124,-17.204909329187444 L1385.136374946343,-17.08936176505494 L1385.184994720585,-16.971770807824612 L1385.228931780876,-16.852322816787222 L1385.2681164953365,-16.731207094278723 L1385.30248676365,-16.608615585672116 L1385.3319881154819,-16.484742575180558 " />
			<path d="M1385.1248328105132,70.00000003384129 L1382.2302463184592,70.00000003384129 " />
			<path d="M1385.2601987149244,67.75704813406273 L1385.220231010199,67.87717391319752 L1385.1755761015393,67.99561107711645 L1385.126303991532,68.11217395960448 L1385.0724919208496,68.22667983263527 L1385.0142242471645,68.33894919282204 L1384.9515923129075,68.44880604281329 L1384.8846943020758,68.55607816719233 L1384.8136350863163,68.66059740244819 L1384.738526060526,68.76219990059462 L1384.6594849682242,68.86072638602381 L1384.576635716975,68.95602240519241 L1384.4901081841442,69.0479385687483 L1384.4000380133002,69.13633078571844 L1384.3065664015735,69.22106048939104 L1384.2098398783119,69.30199485453738 L1384.1100100753752,69.3790070056334 L1384.0072334894328,69.45197621575407 L1383.901671236633,69.52078809582923 L1383.7934888000334,69.58533477396374 L1383.682855770181,69.64551506454133 L1383.5699455792599,69.70123462684661 L1383.4549352292097,69.7524061129569 L1383.338005014253,69.79894930467186 L1383.219338238259,69.84079123926632 L1383.0991209273914,69.87786632386916 L1382.9775415384845,69.91011643828904 L1382.854790663615,69.93749102612557 L1382.7310607313211,69.95994717402333 L1382.6065457049453,69.9774496789443 L1382.4814407785714,69.98997110335335 L1382.3559420710305,69.99749181823037 L1382.230246318459,70.00000003384129 " />
			<path d="M1626.56660621898,70.0000000325606 L1657.9225865266656,70.00000003384132 " />
			<path d="M1350.8742660107737,70.00000003256059 L1382.2302463184592,70.0000000338413 " />

       </g>

       <!-- solid lines -->
       <g  stroke="rgb(0,0,0)" fill="none">
			<path d="M-2.356659957194963,-66.8 L-2.356659957194963,-19.561086485241603 " />
			<path d="M1661.0979725655977,-66.8 L1661.0979725655977,66.8 " />
			<path d="M32.17598356725003,70.0 L479.5351641072816,70.0 " />
			<path d="M1657.92304831835,70.0 L1661.4948837162833,70.0 " />
			<path d="M1661.4948837162833,70.0 L1661.4754082092045,69.99614545985655 L1661.4559796203282,69.98459112535103 L1661.4366447548266,69.9653648318873 L1661.4174501920843,69.93851289729034 L1661.3984421734842,69.90410001022254 L1661.3796664910078,69.86220907434307 L1661.361168376919,69.81294100858567 L1661.342992394795,69.75641450403612 L1661.3251823321684,69.69276573799502 L1661.3077810950404,69.62214804591473 L1661.274371695809,69.46070275936815 L1661.2430859478789,69.27363345076076 L1661.214225150105,69.06274169979694 L1661.1880672477473,68.83005850932366 L1661.1648641557042,68.57782474566272 L1661.1448393324367,68.3084695578432 L1661.1281856279395,68.02458698356828 L1661.1150634264905,67.72891096721428 L1661.105599102063,67.4242890304516 L1661.0998838012752,67.1136548490546 L1661.097972565598,66.80000000000003 " />
			<path d="M-1.9597488065094957,-70.0 L1661.4948837162833,-70.0 " />
			<path d="M-2.356659957194963,-66.8 L-2.3547487215175598,-67.11365484905458 L-2.3490334207297106,-67.4242890304516 L-2.3395690963023044,-67.72891096721428 L-2.3264468948533024,-68.02458698356828 L-2.3097931903559834,-68.3084695578432 L-2.2897683670884987,-68.57782474566272 L-2.2665652750455947,-68.83005850932366 L-2.2404073726877454,-69.06274169979694 L-2.2115465749140206,-69.27363345076076 L-2.1802608269838992,-69.46070275936815 L-2.146851427752477,-69.62214804591473 L-2.1294501906243415,-69.69276573799502 L-2.111640127997788,-69.75641450403612 L-2.0934641458736607,-69.81294100858567 L-2.0749660317849243,-69.86220907434307 L-2.0561903493086624,-69.90410001022254 L-2.0371823307085157,-69.93851289729034 L-2.017987767966198,-69.9653648318873 L-1.9986529024646005,-69.98459112535103 L-1.979224313588251,-69.99614545985655 L-1.9597488065094992,-70.0 " />
			<path d="M1661.097972565598,-66.8 L1661.0998838012752,-67.11365484905458 L1661.105599102063,-67.4242890304516 L1661.1150634264905,-67.72891096721428 L1661.1281856279395,-68.02458698356828 L1661.1448393324367,-68.3084695578432 L1661.1648641557042,-68.57782474566272 L1661.1880672477473,-68.83005850932366 L1661.214225150105,-69.06274169979694 L1661.2430859478789,-69.27363345076076 L1661.274371695809,-69.46070275936815 L1661.3077810950404,-69.62214804591473 L1661.3251823321684,-69.69276573799502 L1661.342992394795,-69.75641450403612 L1661.361168376919,-69.81294100858567 L1661.3796664910078,-69.86220907434307 L1661.3984421734842,-69.90410001022254 L1661.4174501920843,-69.93851289729034 L1661.4366447548266,-69.9653648318873 L1661.4559796203282,-69.98459112535103 L1661.4754082092045,-69.99614545985655 L1661.4948837162833,-70.0 " />
			<path d="M1661.4948837162833,-70.0 L1665.4143813293022,-70.0 " />
			<path d="M1665.4143813293022,-70.0 L1665.433856836381,-69.99614545985655 L1665.4532854252573,-69.98459112535103 L1665.4726202907589,-69.9653648318873 L1665.4918148535012,-69.93851289729034 L1665.5108228721012,-69.90410001022254 L1665.5295985545777,-69.86220907434307 L1665.5480966686664,-69.81294100858567 L1665.5662726507906,-69.75641450403612 L1665.584082713417,-69.69276573799502 L1665.6014839505451,-69.62214804591473 L1665.6348933497766,-69.46070275936815 L1665.6661790977066,-69.27363345076076 L1665.6950398954805,-69.06274169979694 L1665.7211977978382,-68.83005850932366 L1665.7444008898813,-68.57782474566272 L1665.7644257131487,-68.3084695578432 L1665.781079417646,-68.02458698356828 L1665.794201619095,-67.72891096721428 L1665.8036659435224,-67.4242890304516 L1665.8093812443103,-67.1136548490546 L1665.8112924799875,-66.80000000000001 " />
			<path d="M1665.8112924799877,-66.8 L1665.8112924799877,66.8 " />
			<path d="M1665.8112924799875,66.8 L1665.8093812443103,67.1136548490546 L1665.8036659435224,67.4242890304516 L1665.794201619095,67.72891096721428 L1665.781079417646,68.02458698356828 L1665.7644257131487,68.3084695578432 L1665.7444008898813,68.57782474566272 L1665.7211977978382,68.83005850932366 L1665.6950398954805,69.06274169979694 L1665.6661790977066,69.27363345076076 L1665.6348933497766,69.46070275936815 L1665.6014839505451,69.62214804591473 L1665.584082713417,69.69276573799502 L1665.5662726507906,69.75641450403612 L1665.5480966686664,69.81294100858567 L1665.5295985545777,69.86220907434307 L1665.5108228721012,69.90410001022254 L1665.4918148535012,69.93851289729034 L1665.4726202907589,69.9653648318873 L1665.4532854252573,69.98459112535103 L1665.433856836381,69.99614545985655 L1665.4143813293022,70.0 " />
			<path d="M1661.4948837162833,70.0 L1665.4143813293022,70.0 " />
			<path d="M-282.6168412081949,-16.625530311810635 L-282.7332747557086,65.97370363646964 " />
			<path d="M1380.6258663457982,-15.13404021077988 L1380.5094327982845,67.46519373750039 " />
			<path d="M-282.3376767975168,69.18715838790528 L-282.3573037675635,69.18264223393986 L-282.3768725877458,69.17042795099383 L-282.39633611506196,69.15054496434463 L-282.4156474601698,69.12304117384869 L-282.43476010034743,69.08798283854631 L-282.45362799157067,69.04545441703802 L-282.4722056794369,68.99555836401626 L-282.49044840866884,68.93841488344314 L-282.5083122309339,68.87416163896856 L-282.52575411071956,68.80295342228635 L-282.559205084512,68.64037460148934 L-282.59047917888233,68.45224414397101 L-282.61927520720576,68.24037384887984 L-282.6453158479879,68.00680414297764 L-282.6683503156227,67.75378443021442 L-282.6881567755951,67.48375142873876 L-282.7045444808681,67.19930570396991 L-282.7173556088816,66.90318662373124 L-282.7264667814694,66.59824597664063 L-282.73179025305893,66.28742050782704 L-282.7332747557087,65.97370363646968 " />
			<path d="M1380.905030756476,70.67864848893605 L1380.8854037864294,70.67413233497062 L1380.865834966247,70.66191805202459 L1380.8463714389309,70.6420350653754 L1380.827060093823,70.61453127487945 L1380.8079474536453,70.57947293957707 L1380.789079562422,70.53694451806878 L1380.770501874556,70.48704846504702 L1380.752259145324,70.42990498447391 L1380.7343953230588,70.36565173999932 L1380.7169534432733,70.29444352331711 L1380.6835024694808,70.1318647025201 L1380.6522283751106,69.94373424500178 L1380.623432346787,69.7318639499106 L1380.597391706005,69.4982942440084 L1380.57435723837,69.24527453124519 L1380.5545507783977,68.97524152976952 L1380.5381630731247,68.69079580500068 L1380.5253519451112,68.39467672476201 L1380.5162407725234,68.08973607767139 L1380.510917300934,67.7789106088578 L1380.509432798284,67.46519373750044 " />
			<path d="M-282.61684120819496,-16.625530311810643 L-282.6144836369008,-16.938301252359295 L-282.6083154679574,-17.24794655013413 L-282.59839579462266,-17.551499692771472 L-282.5848196509042,-17.846052532926155 L-282.5677171010997,-18.128783149360054 L-282.5472519937345,-18.396982881953765 L-282.52362039183464,-18.648082281636395 L-282.4970486945726,-18.879675726623848 L-282.4677914682829,-19.089544469133294 L-282.43612900762565,-19.275677891778063 L-282.402364650264,-19.436292769999163 L-282.3847946430755,-19.50653992663037 L-282.3668218707809,-19.56985035599239 L-282.34848940557794,-19.62607233306 L-282.32984118167735,-19.675071120460963 L-282.31092189001345,-19.716729291377465 L-282.2917768711413,-19.750947010962445 L-282.27245200657666,-19.777642275596296 L-282.25299360884026,-19.79675110941058 L-282.23344831046825,-19.80822771760779 L-282.21386295225625,-19.812044596209745 " />
			<path d="M-282.21386295225625,-19.812044596209745 L-282.2122217644814,-19.812016205278073 " />
			<path d="M1380.6258663457977,-15.134040210779885 L1380.6282239170919,-15.44681115132854 L1380.6343920860354,-15.756456449103377 L1380.64431175937,-16.060009591740716 L1380.6578879030885,-16.3545624318954 L1380.674990452893,-16.637293048329298 L1380.6954555602583,-16.90549278092301 L1380.719087162158,-17.15659218060564 L1380.7456588594202,-17.388185625593092 L1380.77491608571,-17.598054368102538 L1380.806578546367,-17.784187790747307 L1380.8403429037287,-17.944802668968407 L1380.8579129109173,-18.015049825599615 L1380.875885683212,-18.078360254961634 L1380.894218148415,-18.134582232029246 L1380.9128663723154,-18.183581019430207 L1380.9317856639793,-18.22523919034671 L1380.9509306828515,-18.25945690993169 L1380.9702555474162,-18.28615217456554 L1380.9897139451525,-18.305261008379823 L1381.0092592435246,-18.316737616577033 L1381.0288446017364,-18.32055449517899 " />
			<path d="M1381.0288446017364,-18.32055449517899 L1381.0304857895114,-18.320526104247318 " />
			<path d="M1381.0304857895114,-18.320526104247314 L1384.9815592114198,-18.18736736802928 " />
			<path d="M1384.9815592114198,-18.187367368029282 L1385.0011861814664,-18.182851214063856 L1385.020755001649,-18.17063693111782 L1385.040218528965,-18.150753944468633 L1385.0595298740727,-18.123250153972677 L1385.0786425142505,-18.088191818670307 L1385.0975104054737,-18.04566339716201 L1385.1160880933398,-17.99576734414025 L1385.1343308225719,-17.93862386356714 L1385.152194644837,-17.874370619092552 L1385.1696365246225,-17.803162402410347 L1385.203087498415,-17.64058358161334 L1385.2343615927853,-17.452453124095012 L1385.2631576211088,-17.240582829003838 L1385.2891982618908,-17.007013123101633 L1385.3122327295257,-16.75399341033842 L1385.3320391894981,-16.483960408862757 L1385.3484268947711,-16.199514684093902 L1385.3612380227846,-15.903395603855238 L1385.3703491953725,-15.598454956764614 L1385.375672666962,-15.287629487951028 L1385.3771571696118,-14.973912616593646 " />
			<path d="M1385.3771571696116,-14.973912616593633 L1385.2607236220979,67.62532133168664 " />
			<path d="M-278.3833209517794,69.32032006759188 L-278.38496218783365,69.320345515055 " />
			<path d="M-278.38496218783365,69.320345515055 L-278.3866033756085,69.32031712412332 " />
			<path d="M1385.260723622098,67.62532133168665 L1385.258366050804,67.93809227223531 L1385.2521978818604,68.24773757001014 L1385.2422782085257,68.55129071264749 L1385.2287020648073,68.84584355280217 L1385.2115995150027,69.12857416923606 L1385.1911344076375,69.39677390182977 L1385.1675028057377,69.6478733015124 L1385.1409311084756,69.87946674649986 L1385.1116738821859,70.0893354890093 L1385.0800114215288,70.27546891165407 L1385.0462470641671,70.43608378987517 L1385.0286770569785,70.50633094650638 L1385.010704284684,70.5696413758684 L1384.992371819481,70.62586335293602 L1384.9737235955804,70.67486214033697 L1384.9548043039165,70.71652031125348 L1384.9356592850443,70.75073803083846 L1384.9163344204796,70.7774332954723 L1384.8968760227433,70.79654212928659 L1384.8773307243712,70.8080187374838 L1384.8577453661594,70.81183561608576 " />
			<path d="M1384.8577453661594,70.81183561608576 L1384.8561041783844,70.81180722515408 " />
			<path d="M-282.3376767975167,69.18715838790528 L-278.3866033756085,69.32031712412332 " />
			<path d="M1380.9050307564762,70.67864848893603 L1384.8561041783846,70.81180722515407 " />
			<path d="M0.818667664149086,70.00000030844001 L-274.87295663434134,70.00000019381551 " />
			<path d="M0.8186676641490851,70.00000030844001 L0.8182727665318342,70.00000028369315 " />
			<path d="M-274.8729566343413,70.00000019381552 L-275.00452886594724,69.99725186683534 L-275.13587509535495,69.98901160660984 L-275.26676970856903,69.97529356747022 L-275.3969878673374,69.95612131295259 L-275.52630589535653,69.93152777532273 L-275.65450166248166,69.90155519900833 L-275.7813549662804,69.86625506803534 L-275.9066479102754,69.82568801759386 L-276.0301652782264,69.77992372988466 L-276.15169490380777,69.72904081442577 L-276.2710280350478,69.67312667302463 L-276.38795969290254,69.61227734964757 L-276.50228902334976,69.5465973654447 L-276.61381964239615,69.47619953921343 L-276.72235997340744,69.40120479360914 L-276.8277235761802,69.32174194743587 " />
			<path d="M32.17464924409038,70.00000029673022 L-243.51697505440004,70.00000018210572 " />
			<path d="M33.711496699230565,69.60021373686197 L33.62300724833083,69.6477155174357 L33.53307380267936,69.69237816167863 L33.44178602479265,69.73415714149505 L33.349234927439404,69.77301080376651 L33.255512782901995,69.80890041187939 L33.16071303098213,69.8417901843449 L33.06493018584257,69.87164733047271 L32.96825974177764,69.89844208306292 L32.8707980780067,69.92214772808349 L32.77264236258518,69.94274063130389 L32.67389045552932,69.9602002618581 L32.57464081125093,69.97450921271363 L32.474992380399584,69.98565321802603 L32.37504451121007,69.99362116736192 L32.27489685045342,69.99840511677583 L32.1746492440904,70.00000029673022 " />
			<path d="M-241.6030073679234,69.35332922889378 L-241.7069917317914,69.42921534861357 L-241.81393506484747,69.50080321510399 L-241.92366253563142,69.56797579618666 L-242.03599476116176,69.63062327781242 L-242.1507481001917,69.68864324358582 L-242.26773495342684,69.74194084219593 L-242.38676407021336,69.79042894247972 L-242.5076408611954,69.83402827586447 L-242.63016771643072,69.87266756595639 L-242.75414432844434,69.90628364506364 L-242.8793680196921,69.93482155746317 L-243.00563407389893,69.95823464924254 L-243.1327360707299,69.97648464457 L-243.26046622324716,69.98954170826798 L-243.38861571760108,69.99738449458779 L-243.51697505439995,70.00000018210574 " />
			<path d="M-274.8729566343413,70.00000019381551 L-243.5169750544,70.00000018210574 " />
			<path d="M128.38835377328962,69.99999999999999 L128.29941024298455,69.99874435361725 L128.21053651369326,69.99497839987397 L128.12180233165125,69.98870509421151 L128.03327733358017,69.97992935978833 L127.94503099203853,69.96865808361645 L127.85713256090105,69.95490011115655 L127.76965102100968,69.93866623937639 L127.68265502603886,69.91996920827744 L127.59621284861758,69.89882369089686 L127.51039232675048,69.87524628179243 L127.42526081057996,69.84925548401941 L127.34088510953123,69.82087169460982 L127.25733143988165,69.7901171885652 L127.17466537279566,69.75701610137575 L127.09295178286582,69.7215944100792 L127.01225479720064,69.68387991287464 " />
			<path d="M435.4363392488752,70.0 L159.74433467744154,70.0 " />
			<path d="M435.9312055523008,69.96089874781657 L435.80815314140665,69.977985893971 L435.68453173694047,69.99020971042758 L435.5605305189892,69.99755149085735 L435.43633924887524,69.99999999999999 " />
			<path d="M161.05557918427476,69.71440779740948 L160.9781826311699,69.74853048610717 L160.8999127231782,69.78056611577853 L160.82082486210706,69.81049201063628 L160.74097502873573,69.83828698822725 L160.66041974319054,69.8639313744259 L160.57921602493812,69.88740701736036 L160.49742135242548,69.90869730026074 L160.41509362239486,69.92778715322112 L160.33229110890272,69.94466306386639 L160.24907242207163,69.95931308691677 L160.16549646660425,69.97172685264297 L160.08162240008875,69.9818955742063 L159.99750959112535,69.98981205387821 L159.91321757730333,69.99547068813501 L159.82880602305863,69.99886747162428 L159.74433467744157,69.99999999999999 " />
			<path d="M128.38835377328962,70.0 L159.74433467744154,70.0 " />
			<path d="M838.6980683453096,-19.000000000000004 L623.3417635457497,-19.000000000000004 " />
			<path d="M838.6980683453096,-19.0 L838.8369743990473,-18.996936600176987 L838.9756144997972,-18.987752265969498 L839.1137232037718,-18.972464581932396 L839.2510360846089,-18.95110281824604 L839.3872902396495,-18.923707874674864 L839.5222247932967,-18.890332202259675 L839.6555813964959,-18.85103970289358 L839.7871047213754,-18.80590560697383 " />
			<path d="M1210.6038165375921,-18.999999999999996 L934.9118119661584,-18.999999999999996 " />
			<path d="M933.6167891387654,-18.721765123534315 L933.6933474050228,-18.755020535466013 L933.7707455873775,-18.78623898268426 L933.8489303334536,-18.815398945583823 L933.9278477486785,-18.842480323520807 L934.0074434334335,-18.867464448668514 L934.0876625205532,-18.890334098885603 L934.168449713146,-18.91107350958772 L934.249749322712,-18.929668384614395 L934.3315053075304,-18.94610590608371 L934.4136613112903,-18.96037474322797 L934.4961607019383,-18.97246506020428 L934.5789466107165,-18.98236852287459 L934.6619619713631,-18.990078304550646 L934.74514955945,-18.99558909069976 L934.8284520318289,-18.998897082608252 L934.9118119661586,-18.999999999999993 " />
			<path d="M1241.9597974417438,-18.999999999999996 L966.2677928703101,-18.999999999999996 " />
			<path d="M934.9118119661584,-18.999999999999996 L966.2677928703104,-18.999999999999996 " />
			<path d="M1241.9597974417438,-18.999999999999993 L1242.0785589266004,-18.997760987031228 L1242.1971542186413,-18.991047081361845 L1242.3154173576188,-18.97986767831802 L1242.433182848094,-18.964238422167494 L1242.5502858910293,-18.944181184227276 L1242.6665626144045,-18.91972403225729 L1242.7818503025378,-18.8909011911828 L1242.8959876237857,-18.857752995200663 L1243.0088148563093,-18.820325831336312 L1243.1201741115856,-18.778672074530547 L1243.2299095553542,-18.73285001434692 L1243.337867625689,-18.68292377340231 L1243.4438972478902,-18.62896321763482 L1243.5478500458958,-18.571043858534544 L1243.6495805499164,-18.509246747474094 L1243.7489464000037,-18.443658362286662 " />
			<path d="M966.2677928703102,-18.999999999999993 L966.3556739875302,-18.9987741770783 L966.4434877755701,-18.99509764746437 L966.5311669568338,-18.98897322789212 L966.6186443568522,-18.980405610520236 L966.7058529557493,-18.96940135933732 L966.7927259395877,-18.955968905132952 L966.8791967515582,-18.940118539038544 L966.9651991429712,-18.921862404642898 L967.0506672240124,-18.90121448868851 L967.135535514224,-18.8781906103558 L967.2197389926711,-18.852808409143393 L967.3032131477576,-18.82508733135382 L967.3858940266505,-18.795048615194936 L967.467718284277,-18.762715274508498 L967.5486232318556,-18.728112081138345 L967.6285468849242,-18.691265545951733 " />
			<path d="M1626.5666062225594,-18.99999996743938 L1350.874266014353,-18.9999999674394 " />
			<path d="M1626.5665163874112,-18.999999966158683 L1626.5666062225591,-18.999999967439376 " />
			<path d="M1348.9550388887899,-18.349316240837624 L1349.059204867913,-18.425657442060057 L1349.1663572023235,-18.49767859814363 L1349.2763195922082,-18.565261211284174 L1349.388911114316,-18.628294086498272 L1349.5039465196326,-18.686673514574494 L1349.621236538176,-18.740303442708207 L1349.740588190405,-18.789095632539077 L1349.861805104733,-18.83296980533139 L1349.984687840621,-18.87185377405819 L1350.1090342167217,-18.90568356217201 L1350.2346396435319,-18.934403508866694 L1350.3612974600085,-18.957966360657245 L1350.4887992735908,-18.97633334912687 L1350.6169353030732,-18.98947425471341 L1350.745494723763,-18.997367456430183 L1350.8742660143528,-18.999999967439397 " />
			<path d="M1350.8742660143528,-18.999999967439404 L1382.2302463220383,-18.9999999661587 " />
			<path d="M1657.9225865302444,-18.999999966158683 L1382.230246322038,-18.999999966158704 " />
			<path d="M1657.9225865302446,-18.99999996615868 L1658.0783905839107,-18.99614542600887 L1658.2338192919644,-18.984591091497 L1658.3884982130342,-18.96536479802695 L1658.5420547120505,-18.938512863423718 L1658.6941188579576,-18.90409997634971 L1658.8443243149088,-18.8622090404641 L1658.9923092248018,-18.812940974700656 L1659.1377170790265,-18.756414470145167 L1659.280197577326,-18.69276570409825 L1659.4194074717002,-18.622148012012282 L1659.55501139332,-18.544731518092878 L1659.6866826604607,-18.460702725454773 L1659.814104065507,-18.370264066819487 L1659.9369686391333,-18.273633416837164 L1660.0549803898198,-18.171043567207455 L1660.1678550169224,-18.06274166586393 L1660.2753205955783,-17.948988621573044 L1660.3771182317953,-17.830058475382096 L1660.4730026861512,-17.7062377404303 L1660.5627429645974,-17.57782471171357 L1660.6461228749422,-17.44512874746575 L1660.722941547679,-17.308469523887492 L1660.7930139198963,-17.168176265018342 L1660.8561711811117,-17.024586949607148 L1660.9122611799514,-16.878047496891675 L1660.961148790695,-16.72891093324885 L1661.0027162388062,-16.57753654172332 L1661.0368633846617,-16.424288996483092 L1661.0635079647961,-16.26953748428755 L1661.0825857900822,-16.11365481508421 L1661.0940509003678,-15.957016523876884 L1661.097875675198,-15.799999966029018 " />
			<path d="M1382.2302463220383,-18.9999999661587 L1382.3727193263815,-18.996777136569435 L1382.5149053518412,-18.987115139457355 L1382.6565179975867,-18.9710334366788 L1382.7972720177277,-18.948564421100926 L1382.936883895877,-18.919753351353815 L1383.0750724162272,-18.884658260667408 L1383.2115592299965,-18.843349839977016 L1383.3460694160965,-18.795911295532797 L1383.478332034898,-18.742438181300013 L1383.6080806739753,-18.683038206487712 L1383.7350539847332,-18.617831018593442 L1383.858996208833,-18.54694796240108 L1383.979657693358,-18.470531815417164 L1384.096795393682,-18.38873650027866 L1384.2101733630266,-18.301726774711465 L1384.3195632277202,-18.20967789966408 " />
			<path d="M1385.3319881154819,-16.484742575180533 L1385.3491745718175,-16.400242145401016 L1385.364094836771,-16.31530558386579 L1385.3767380693832,-16.22999460488449 L1385.38709508317,-16.144371194815843 L1385.3951583527971,-16.0584975670288 L1385.40092201955,-15.972436116698775 L1385.4043818955888,-15.886249375471705 L1385.4055354669918,-15.79999996602904 " />
			<path d="M1661.097875675198,-15.799999966028984 L1661.0978756718762,66.800000033971 " />
			<path d="M1385.4055354669918,-15.79999996602901 L1385.4055354636698,66.80000003397099 " />
			<path d="M1657.9225865266653,70.00000003384132 L1385.1248328105132,70.00000003384129 " />
			<path d="M1661.0978756718764,66.800000033971 L1661.0940508970334,66.95701659181859 L1661.0825857867353,67.11365488302498 L1661.0635079614367,67.26953755222677 L1661.0368633812898,67.42428906442012 L1661.002716235422,67.57753660965756 L1660.9611487872985,67.7289110011797 L1660.9122611765429,67.87804756481853 L1660.8561711776915,68.02458701752941 L1660.7930139164646,68.16817633293546 L1660.722941544236,68.30846959179888 L1660.6461228714884,68.44512881537086 L1660.5627429611327,68.57782477961187 L1660.4730026826762,68.70623780832128 L1660.3771182283103,68.83005854326524 L1660.2753205920837,68.94898868944787 L1660.1678550134188,69.06274173372996 L1660.0549803863073,69.17104363506428 L1659.9369686356126,69.27363348468435 L1659.8141040619787,69.37026413465664 L1659.686682656925,69.46070279328151 L1659.5550113897775,69.54473158590886 L1659.4194074681513,69.6221480798172 L1659.2801975737716,69.69276577189179 L1659.137717075467,69.75641453792706 L1658.9923092212377,69.81294104247067 L1658.8443243113409,69.86220910822203 L1658.6941188543863,69.90410004409537 L1658.5420547084764,69.93851293115695 L1658.3884982094578,69.96536486574765 L1658.2338192883867,69.98459115920505 L1658.078390580332,69.99614549370423 L1657.9225865266656,70.00000003384132 " />
			<path d="M1385.4055354636698,66.80000003397097 L1385.4032473136936,66.92146116648298 L1385.3963861615098,67.04274724640958 L1385.3849618955687,67.16368347345534 L1385.368990980786,67.28409555154089 L1385.3484964348124,67.40380994000242 L1385.3235077948605,67.52265410370252 L1385.2940610751339,67.64045676169175 L1385.2601987149244,67.7570481340627 " />
			<path d="M-2.356659957194963,-66.8 L1661.0979725655977,-66.8 " />
			<path d="M1661.0978756718762,66.8 L1661.0979725655977,66.8 " />
			<path d="M-282.6168412081949,-16.625530311810643 L1380.6258663457984,-15.134040210779888 " />
			<path d="M-282.73327475570863,65.97370363646965 L1380.5094327982847,67.4651937375004 " />
			<path d="M-282.33767679751674,69.18715838790528 L1380.9050307564767,70.67864848893603 " />
			<path d="M-282.2122217644814,-19.81201620527807 L1381.0272033656827,-18.320529047715894 " />
			<path d="M-278.38660337560856,69.32031712412332 L1384.8561041783848,70.81180722515407 " />
			<path d="M1657.9225865302444,-18.999999966158683 L1382.230246322038,-18.999999966158704 " />
			<path d="M1661.097875675198,-15.799999966028984 L1385.4055354669918,-15.799999966029008 " />
			<path d="M1661.0978756718762,66.800000033971 L1385.4055354636698,66.80000003397097 " />
			<path d="M1381.0288446017375,-18.32055449517899 L-282.21386295225625,-19.812044596209745 " />
			<path d="M1384.85774536616,70.81183561608574 L-278.38496218783365,69.320345515055 " />

       </g>
    </g>
    
</svg>
