<?xml version="1.0" encoding="UTF-8" standalone="no"?>
<svg
   xmlns:svg="http://www.w3.org/2000/svg"
   xmlns="http://www.w3.org/2000/svg"
   width="480.0"
   height="480.0"

>
    <g transform="scale(0.17440323441833655, -0.17440323441833655)   translate(2071.4599646339007,-1701.0439864958983)" stroke-width="1.0"  fill="none">
       <!-- hidden lines -->
       <g  stroke="rgb(0,0,0)" fill="none" stroke-dasharray="1.0,1.0" >
			<path d="M-8.435334988513803,-5.666294384551952 L-49.638700782601234,11.694763809389805 " />
			<path d="M-48.44796733054483,12.745978533829337 L-48.62702525829849,12.719426904114645 L-48.79845344611302,12.690100970730395 L-48.961511558550704,12.658127381621748 L-49.11549540745794,12.62364421898738 L-49.25973999309557,12.586800402953138 L-49.39362237602865,12.547755048440669 L-49.516564367373334,12.506676778008448 L-49.62803502578247,12.463742993632835 L-49.72755295038644,12.419139110574028 L-49.81468835978692,12.373057756635598 L-49.88906494812497,12.325697940275694 L-49.92136611581833,12.301602332542796 L-49.950361510208,12.277264191162523 L-49.97601981772257,12.252709800106656 L-49.998313328677085,12.227965676885779 L-50.01721796719802,12.2030585439117 L-50.032713317224136,12.178015299638576 L-50.044782644554715,12.152862989513945 L-50.05341291492168,12.127628776770992 L-50.05859480806598,12.10233991309362 L-50.06032272780296,12.077023709186001 " />
			<path d="M-50.06032272780296,12.077023709185998 L-50.0586384212787,12.0520289562679 L-50.05358727476122,12.027060515115686 L-50.04517460554991,12.002144669797062 L-50.0334092695908,11.977307649012545 L-50.01830365215395,11.952575598484732 L-49.999873654795636,11.92797455343491 L-49.978138678618826,11.903530411176003 L-49.9531216038499,11.879268903850694 L-49.924848765752756,11.855215571343402 L-49.89334992690594,11.831395734394674 L-49.82081024229081,11.784556574744869 L-49.735807917279125,11.73894860175149 L-49.638700782601234,11.694763809389807 " />
			<path d="M49.638700782601234,-11.694763809389805 L-16.645461381871783,16.234100119469613 " />
			<path d="M-16.645461381871772,16.23410011946961 L-16.726710088232387,16.266463728154655 L-16.814456415434016,16.297828472491037 L-16.908488974888762,16.328118792062423 L-17.00858123392462,16.35726171483585 L-17.114492061522522,16.385187032957734 L-17.2259663092221,16.411827471890753 L-17.342735425796644,16.437118852484094 L-17.464518104216566,16.461000245586636 L-17.59102095934265,16.483414118830638 L-17.721939234716555,16.50430647523223 L-17.856957536745817,16.523626983274887 L-17.99575059451464,16.541329098162457 L-18.137984043390027,16.55737017394965 L-18.283315230535454,16.57171156627987 L-18.581863738135297,16.59516127980776 L-18.88852093198276,16.61145240518593 L-19.20033353566523,16.620428049971352 L-19.514298623355128,16.62200177379816 L-19.827392539627226,16.61615842084562 L-20.13660001891328,16.602954265796956 L-20.438943224157764,16.58251647188342 L-20.731510425016566,16.555041866232834 L-20.873243102406,16.538745863205342 L-21.0114840394119,16.520795044316756 " />
			<path d="M-48.44796733054483,12.745978533829337 L-21.01148403941191,16.520795044316756 " />
			<path d="M-2010.3080258482405,-257.45305460831855 L-2010.4862537502252,-257.479928426028 L-2010.6568368903604,-257.50954474661376 L-2010.8190416420734,-257.5417761992246 L-2010.9721704117098,-257.5764841661161 L-2011.1155646386728,-257.61351937880374 L-2011.2486076276948,-257.65272256002174 L-2011.3707272010563,-257.6939251087262 L-2011.4813981593502,-257.73694982519754 " />
			<path d="M-1937.2840300953346,-271.04986876223415 L-1978.5668683648048,-253.89587069852132 " />
			<path d="M-1978.5668683648048,-253.89587069852126 L-1978.6486826085866,-253.86372981472786 L-1978.736976930794,-253.83260158457583 L-1978.8315386226711,-253.80256099869817 L-1978.9321398768193,-253.7736804274975 L-1979.038538336006,-253.74602944679947 L-1979.1504776770234,-253.71967467023853 L-1979.2676882281946,-253.69467958877982 L-1979.389887619035,-253.67110441776387 L-1979.5167814605088,-253.6490059518426 L-1979.6480640542375,-253.62843742815605 L-1979.7834191289535,-253.60944839807934 L-1979.9225206024262,-253.59208460784916 L-1980.0650333670224,-253.57638788835706 L-1980.210614097009,-253.5623960543752 L-1980.5095700401453,-253.53965768473353 L-1980.8165093226764,-253.5240884818539 L-1981.1284759515215,-253.515838385671 L-1981.442465517507,-253.51498684912107 L-1981.7554541294676,-253.52154207296653 L-1982.0644275359737,-253.53544092681832 L-1982.3664101542183,-253.556549557116 L-1982.6584937265075,-253.5846646762106 L-1982.7999398593884,-253.60126762414953 L-1982.9378653283704,-253.61951552013596 " />
			<path d="M-2010.3080258482405,-257.4530546083185 L-1982.9378653283702,-253.61951552013593 " />
			<path d="M-8.657627470405632,-5.572595052239535 L-49.63870378237854,11.694801388065844 " />
			<path d="M-1938.501659413542,-271.0875603919674 L-1979.482735725515,-253.820163951662 " />
			<path d="M-51.226347905634455,15.46961796534481 L-51.22443554171395,15.316414767031599 L-51.218703009936036,15.161969077873328 L-51.20916412047188,15.006652971063023 L-51.19584185334171,14.850840616706073 L-51.178768303053936,14.694907380411673 L-51.157984601286664,14.539228919004199 L-51.13354081779789,14.384180275533 L-51.10549583980307,14.230134975760858 L-51.073917230110624,14.077464128307698 L-51.03888106435728,13.926535530617421 L-51.000471747735126,13.777712782901649 L-50.95878181165217,13.63135441219496 L-50.91391169081606,13.487813008631866 L-50.86596948127802,13.347434376026293 L-50.81507068002009,13.210556698799905 L-50.7613379067127,13.077509727266206 L-50.70490060831318,12.94861398323316 L-50.645894747216715,12.824179987838079 L-50.584462473710964,12.704507513474999 L-50.52075178352366,12.589884861616731 L-50.454916161287834,12.480588168271359 L-50.38711421078399,12.376880738746411 L-50.31750927284964,12.279012413323315 L-50.246269031876935,12.187218965370267 L-50.17356511184629,12.10172153334354 L-50.09957266286917,12.022726088045575 L-50.02446993923613,11.950422936423283 L-49.94843786998663,11.884986263101931 L-49.87165962303511,11.82657371075912 L-49.79432016390346,11.775326000349786 L-49.71660581012286,11.73136659209707 L-49.63870378237854,11.694801388065846 " />
			<path d="M-1981.0703798487712,-250.04534737438314 L-1981.0684674848508,-250.19855057269635 L-1981.0627349530728,-250.35299626185463 L-1981.0531960636085,-250.50831236866492 L-1981.0398737964783,-250.66412472302187 L-1981.0228002461906,-250.82005795931627 L-1981.0020165444234,-250.97573642072373 L-1980.9775727609347,-251.13078506419495 L-1980.9495277829399,-251.28483036396707 L-1980.9179491732473,-251.43750121142025 L-1980.882913007494,-251.58842980911052 L-1980.8445036908718,-251.7372525568263 L-1980.802813754789,-251.88361092753297 L-1980.757943633953,-252.02715233109606 L-1980.7100014244147,-252.16753096370164 L-1980.6591026231567,-252.30440864092805 L-1980.6053698498495,-252.43745561246175 L-1980.54893255145,-252.56635135649478 L-1980.4899266903535,-252.69078535188987 L-1980.4284944168478,-252.81045782625296 L-1980.3647837266603,-252.9250804781112 L-1980.2989481044247,-253.03437717145658 L-1980.2311461539207,-253.13808460098153 L-1980.1615412159863,-253.23595292640462 L-1980.0903009750136,-253.32774637435767 L-1980.017597054983,-253.4132438063844 L-1979.943604606006,-253.49223925168238 L-1979.8685018823728,-253.56454240330467 L-1979.7924698131233,-253.629979076626 L-1979.715691566172,-253.68839162896882 L-1979.6383521070402,-253.73963933937816 L-1979.5606377532595,-253.78359874763086 L-1979.4827357255153,-253.8201639516621 " />
			<path d="M-1938.5016594135423,-271.0875603919675 L-1938.4464404512314,-271.1089478132223 L-1938.3912883057346,-271.12655112423835 L-1938.3362697135942,-271.14034902422827 L-1938.2814512497482,-271.150324817121 L-1938.2268992469692,-271.15646643176444 L-1938.1726797156011,-271.15876643653246 L-1938.1188582636823,-271.1572220483173 L-1938.0655000175575,-271.1518351358972 " />
			<path d="M-1938.0655000175575,-271.1518351358972 L-1938.0042140099576,-271.1407687220133 L-1937.9437394209024,-271.1245493194769 L-1937.8841748948864,-271.1032033849334 L-1937.8256175919344,-271.0767657372871 L-1937.7681630291158,-271.0452795009051 L-1937.7119049247412,-271.00879603527454 L-1937.6569350454909,-270.96737485122594 L-1937.6033430567268,-270.92108351386094 L-1937.5512163762344,-270.86999753234215 L-1937.5006400316283,-270.8142002367244 L-1937.4516965216576,-270.75378264202897 L-1937.404465681636,-270.68884329978283 L-1937.359024553217,-270.6194881372636 L-1937.3154472587257,-270.5458302847141 L-1937.273804880252,-270.4679898908074 L-1937.2341653437043,-270.3860939266635 L-1937.196593308009,-270.3002759787376 L-1937.1611500596428,-270.21067603091757 L-1937.1278934126622,-270.1174402361858 L-1937.0968776143998,-270.0207206782189 L-1937.0681532569763,-269.9206751233125 L-1937.0417671947778,-269.8174667630375 L-1937.0177624680266,-269.71126394804634 L-1936.9961782325759,-269.60223991346413 L-1936.97704969604,-269.4905724963119 L-1936.9604080603638,-269.3764438454244 L-1936.9462804709283,-269.26004012433293 L-1936.9346899722705,-269.14155120760154 L-1936.9256554704946,-269.02117037110804 L-1936.9191917024325,-268.89909397677815 L-1936.915309211606,-268.77552115228497 L-1936.9140143310278,-268.6506534662376 " />
			<path d="M-1936.914009594689,-237.98026867013138 L-1936.9159219586095,-237.82706547181817 L-1936.9216544903875,-237.67261978265992 L-1936.9311933798517,-237.5173036758496 L-1936.944515646982,-237.36149132149265 L-1936.9615891972696,-237.20555808519825 L-1936.9823728990368,-237.0498796237908 L-1937.0068166825256,-236.89483098031957 L-1937.0348616605204,-236.74078568054745 L-1937.066440270213,-236.58811483309427 L-1937.1014764359663,-236.437186235404 L-1937.1398857525885,-236.28836348768823 L-1937.1815756886713,-236.14200511698155 L-1937.2264458095074,-235.99846371341846 L-1937.2743880190455,-235.85808508081288 L-1937.3252868203035,-235.72120740358648 L-1937.3790195936108,-235.58816043205277 L-1937.4354568920103,-235.45926468801974 L-1937.4944627531067,-235.33483069262465 L-1937.5558950266125,-235.21515821826156 L-1937.6196057168,-235.1005355664033 L-1937.6854413390356,-234.99123887305794 L-1937.7532432895396,-234.887531443533 L-1937.822848227474,-234.7896631181099 L-1937.8940884684466,-234.69786967015685 L-1937.9667923884772,-234.61237223813012 L-1938.0407848374543,-234.53337679283214 L-1938.1158875610874,-234.46107364120985 L-1938.191919630337,-234.39563696788852 L-1938.2686978772883,-234.3372244155457 L-1938.34603733642,-234.28597670513636 L-1938.4237516902008,-234.24201729688366 L-1938.501653717945,-234.20545209285243 " />
			<path d="M-1938.5016537179451,-234.20545209285243 L-1979.4827300299182,-216.93805565254704 " />
			<path d="M-50.477453553883755,48.46151065747175 L-50.51974825103457,48.426011937951756 L-50.561158018231936,48.387545240345375 L-50.60164126333412,48.34614920076306 L-50.641157324802016,48.301865397558466 L-50.67966651253977,48.254738309567 L-50.71713014775967,48.2048152714311 L-50.75351060183129,48.152146426057094 L-50.78877133407584,48.09678467425148 L-50.822876928467764,48.038785621587145 L-50.85579312920675,47.97820752255288 L-50.88748687512442,47.91511122204231 L-50.91792633289104,47.849560094241106 L-50.94708092898914,47.781619978973595 L-50.97492138042159,47.71135911557303 L-51.00141972412365,47.638848074341716 L-51.02654934504911,47.564159685669864 L-51.07260285749104,47.408553046901716 L-51.11289693885265,47.245164210098956 L-51.147269743614686,47.07464944412884 L-51.17558320970335,46.89769363992089 L-51.19772361303147,46.71500755952872 L-51.213602024283574,46.52732498127764 L-51.22315466611006,46.33539975246492 L-51.226343169295795,46.140002761451 " />
			<path d="M-1979.482730029918,-216.93805565254706 L-1979.5379489922288,-216.91666823129222 L-1979.5931011377256,-216.89906492027617 L-1979.648119729866,-216.88526702028625 L-1979.702938193712,-216.87529122739357 L-1979.757490196491,-216.8691496127501 L-1979.8117097278591,-216.86684960798206 L-1979.865531179778,-216.8683939961972 L-1979.9188894259028,-216.8737809086173 " />
			<path d="M-1979.9188894259028,-216.8737809086173 L-1979.9801754335026,-216.8848473225012 L-1980.0406500225579,-216.90106672503765 L-1980.1002145485738,-216.9224126595811 L-1980.158771851526,-216.94885030722745 L-1980.2162264143444,-216.9803365436094 L-1980.272484518719,-217.01682000923998 L-1980.3274543979694,-217.0582411932886 L-1980.3810463867335,-217.10453253065356 L-1980.4331730672259,-217.15561851217234 L-1980.483749411832,-217.21141580779013 L-1980.5326929218027,-217.27183340248553 L-1980.5799237618241,-217.33677274473166 L-1980.6253648902432,-217.40612790725092 L-1980.6689421847345,-217.47978575980042 L-1980.7105845632082,-217.55762615370713 L-1980.750224099756,-217.63952211785102 L-1980.7877961354513,-217.72534006577692 L-1980.8232393838175,-217.81494001359698 L-1980.856496030798,-217.9081758083287 L-1980.8875118290605,-218.00489536629564 L-1980.916236186484,-218.10494092120206 L-1980.9426222486825,-218.20814928147703 L-1980.9666269754337,-218.31435209646816 L-1980.9882112108844,-218.42337613105042 L-1981.0073397474202,-218.53504354820257 L-1981.0239813830965,-218.64917219909017 L-1981.038108972532,-218.7655759201816 L-1981.0496994711898,-218.88406483691298 L-1981.0587339729657,-219.00444567340645 L-1981.0651977410278,-219.12652206773637 L-1981.0690802318543,-219.25009489222958 L-1981.0703751124324,-219.37496257827692 " />
			<path d="M-51.22634790563446,15.469617965344812 L-51.22634316929581,46.140002761451 " />
			<path d="M-1981.070379848771,-250.04534737438308 L-1981.0703751124322,-219.3749625782769 " />
			<path d="M-8.657624474326784,388.8718015004811 L-49.63870078260126,406.13919791158736 " />
			<path d="M-1938.5016564743619,123.35646422641857 L-1979.4827327826365,140.62386063752476 " />
			<path d="M-51.22634538534312,409.91401442207473 L-51.2244329978885,409.7608112269847 L-51.21870044263351,409.60636554104457 L-51.209161529805876,409.45104943743956 L-51.19583923948211,409.29523708626743 L-51.178765666226504,409.13930385312966 L-51.15798194177249,408.98362539484305 L-51.13353813593272,408.8285767544494 L-51.10549313597648,408.674531457704 L-51.07391450476513,408.52186061321964 L-51.038878317987205,408.370932018433 L-51.00046898088547,408.2221092735487 L-50.95877902491726,408.0757509055945 L-50.91390888483812,407.9322095046982 L-50.86596665674565,407.7918308746675 L-50.81506783766657,407.65495319991766 L-50.761335047314255,407.5219062307563 L-50.704897732687094,407.39301048898574 L-50.64589185621936,407.2685764957377 L-50.58445956823575,407.14890402340114 L-50.52074886449887,407.034281373444 L-50.45491322967441,406.9249846818697 L-50.38711126757318,406.8212772539816 L-50.31750631906064,406.7234089300571 L-50.24626606855443,406.6316154834608 L-50.17356214005791,406.5461180526457 L-50.09956968370297,406.4671226084114 L-50.02446695379792,406.39481945770217 L-49.94843487939733,406.3293827851411 L-49.87165662842806,406.27097023340394 L-49.79431716642168,406.2197225234442 L-49.71660281091628,406.17576311548396 L-49.63870078260126,406.13919791158736 " />
			<path d="M-1981.0703773853784,144.39867714801218 L-1981.0684649979237,144.24547395292214 L-1981.0627324426687,144.09102826698197 L-1981.053193529841,143.935712163377 L-1981.0398712395174,143.77989981220486 L-1981.0227976662618,143.6239665790671 L-1981.0020139418077,143.46828812078047 L-1980.9775701359679,143.31323948038678 L-1980.9495251360117,143.15919418364146 L-1980.9179465048003,143.0065233391571 L-1980.8829103180224,142.85559474437042 L-1980.8445009809207,142.7067719994861 L-1980.8028110249525,142.5604136315319 L-1980.7579408848733,142.41687223063568 L-1980.709998656781,142.2764936006049 L-1980.659099837702,142.1396159258551 L-1980.6053670473495,142.00656895669377 L-1980.5489297327224,141.87767321492316 L-1980.4899238562546,141.75323922167516 L-1980.428491568271,141.6335667493386 L-1980.3647808645342,141.51894409938143 L-1980.2989452297097,141.40964740780714 L-1980.2311432676083,141.305939979919 L-1980.1615383190958,141.20807165599447 L-1980.0902980685896,141.1162782093982 L-1980.0175941400933,141.03078077858314 L-1979.9436016837383,140.9517853343488 L-1979.868498953833,140.87948218363957 L-1979.7924668794326,140.81404551107852 L-1979.7156886284633,140.75563295934137 L-1979.638349166457,140.70438524938166 L-1979.5606348109516,140.6604258414214 L-1979.4827327826365,140.62386063752476 " />
			<path d="M-1938.501656474362,123.35646422641858 L-1938.4464374943555,123.33507679880766 L-1938.3912853318081,123.31747348383037 L-1938.3362667233268,123.30367558229268 L-1938.281448243912,123.29369979027847 L-1938.2268962263995,123.28755817894653 L-1938.1726766811935,123.28525817992386 L-1938.1188552163915,123.28680257631316 L-1938.0654969583966,123.29218949932506 " />
			<path d="M-1936.9140118716202,156.46375523532961 L-1936.915924259075,156.6169584304197 L-1936.92165681433,156.77140411635983 L-1936.9311957271575,156.9267202199648 L-1936.9445180174812,157.08253257113694 L-1936.9615915907368,157.2384658042747 L-1936.982375315191,157.39414426256133 L-1937.0068191210307,157.549192902955 L-1937.0348641209869,157.70323819970034 L-1937.0664427521983,157.8559090441847 L-1937.1014789389762,158.00683763897138 L-1937.139888276078,158.1556603838557 L-1937.1815782320461,158.3020187518099 L-1937.2264483721253,158.44556015270612 L-1937.2743906002177,158.5859387827369 L-1937.3252894192967,158.7228164574867 L-1937.379022209649,158.85586342664803 L-1937.4354595242762,158.98475916841863 L-1937.494465400744,159.10919316166664 L-1937.5558976887276,159.2288656340032 L-1937.6196083924644,159.34348828396037 L-1937.685444027289,159.45278497553468 L-1937.7532459893903,159.55649240342282 L-1937.8228509379028,159.65436072734732 L-1937.894091188409,159.7461541739436 L-1937.9667951169054,159.83165160475866 L-1938.0407875732603,159.91064704899298 L-1938.1158903031655,159.98295019970223 L-1938.191922377566,160.04838687226328 L-1938.2687006285353,160.10679942400043 L-1938.3460400905417,160.15804713396014 L-1938.423754446047,160.2020065419204 L-1938.501656474362,160.23857174581704 " />
			<path d="M-1938.5016564743619,160.23857174581698 L-1979.4827327826365,177.50596815692316 " />
			<path d="M-50.47745642178562,442.905906215953 L-50.51975109826607,442.87040748705255 L-50.56116084447582,442.83194078138894 L-50.6016440683091,442.79054473506693 L-50.6411601082627,442.74626092643206 L-50.679669274276584,442.6991338343093 L-50.717132887598694,442.6492107933282 L-50.75351331963406,442.59654194638017 L-50.78877402973909,442.54118019425425 L-50.822879601923134,442.4831811425038 L-50.85579578042045,442.42260304559585 L-50.88748950409681,442.3595067484001 L-50.91792893965624,442.29395562507625 L-50.94708351361448,442.2260155154206 L-50.97492394300713,442.15575465873627 L-51.001422264801576,442.0832436252936 L-51.026551863983144,442.00855524544903 L-51.072605333551216,441.8529486273065 L-51.112899373054994,441.6895598148326 L-51.14727213720122,441.5190450765622 L-51.17558556412862,441.34208930306863 L-51.19772592994798,441.15940325602793 L-51.213604305526296,440.971720713369 L-51.22315691368007,440.77979552197655 L-51.22634538534312,440.58439856978504 " />
			<path d="M-1979.4827327826365,177.50596815692322 L-1979.5379517626432,177.52735558453412 L-1979.5931039251905,177.5449588995114 L-1979.6481225336718,177.55875680104913 L-1979.7029410130865,177.56873259306332 L-1979.757493030599,177.5748742043953 L-1979.8117125758051,177.57717420341794 L-1979.8655340406071,177.57562980702863 L-1979.918892298602,177.57024288401672 " />
			<path d="M-1979.918892298602,177.57024288401672 L-1979.9801782945153,177.55917646023065 L-1980.0406528710387,177.54295704866593 L-1980.1002173837119,177.5216111059791 L-1980.158774672546,177.49517345108276 L-1980.2162292205076,177.46368720834988 L-1980.2724873093234,177.42720373727062 L-1980.3274571723518,177.3857825486761 L-1980.3810491442696,177.339491207666 L-1980.433175807331,177.2884052233981 L-1980.4837521339618,177.23260792592006 L-1980.5326956254544,177.17219033024355 L-1980.5799264465356,177.10725098788316 L-1980.6253675555938,177.03789582610187 L-1980.6689448303464,176.96423797512549 L-1980.710587188745,176.88639758360753 L-1980.7502267049242,176.80450162264643 L-1980.787798719999,176.71868367867333 L-1980.8232419475357,176.62908373555004 L-1980.8564985735195,176.53584794623083 L-1980.88751435066,176.43912839436203 L-1980.9162386868775,176.33908284620728 L-1980.9426247278275,176.23587449330353 L-1980.9666294333283,176.12967168626759 L-1980.988213647567,176.0206476601872 L-1981.0073421629686,175.9089802520447 L-1981.023983777627,175.79485161063434 L-1981.0381113461997,175.67844789944616 L-1981.0497018241867,175.55995899300115 L-1981.0587363055201,175.43957816713336 L-1981.0652000534033,175.31750178372351 L-1981.0690825243491,175.193928970399 L-1981.0703773853784,175.0690612957225 " />
			<path d="M-51.22634538534313,409.9140144220748 L-51.22634538534313,440.58439856978504 " />
			<path d="M-1981.0703773853784,144.3986771480122 L-1981.0703773853784,175.06906129572246 " />
			<path d="M-8.657624474326827,783.3162356026787 L-49.638700782601305,800.5836320137848 " />
			<path d="M-1938.5016564743619,517.8008983286162 L-1979.4827327826365,535.0682947397223 " />
			<path d="M-51.22634538534317,804.3584485242725 L-51.22443299788855,804.2052453291824 L-51.21870044263356,804.0507996432423 L-51.209161529805925,803.8954835396373 L-51.19583923948216,803.7396711884652 L-51.17876566622655,803.5837379553274 L-51.15798194177254,803.4280594970407 L-51.13353813593277,803.273010856647 L-51.10549313597653,803.1189655599018 L-51.07391450476518,802.9662947154173 L-51.038878317987255,802.8153661206308 L-51.00046898088552,802.6665433757464 L-50.95877902491731,802.5201850077922 L-50.91390888483817,802.376643606896 L-50.8659666567457,802.2362649768652 L-50.81506783766662,802.0993873021154 L-50.761335047314304,801.966340332954 L-50.704897732687144,801.8374445911835 L-50.64589185621941,801.7130105979354 L-50.5844595682358,801.5933381255988 L-50.52074886449892,801.4787154756417 L-50.45491322967446,801.3694187840674 L-50.38711126757323,801.2657113561793 L-50.31750631906069,801.1678430322547 L-50.246266068554476,801.0760495856584 L-50.17356214005796,800.9905521548434 L-50.09956968370302,800.911556710609 L-50.02446695379797,800.8392535598998 L-49.94843487939738,800.7738168873387 L-49.87165662842811,800.7154043356016 L-49.79431716642173,800.6641566256419 L-49.71660281091633,800.6201972176817 L-49.63870078260131,800.5836320137851 " />
			<path d="M-1981.0703773853784,538.8431112502099 L-1981.0684649979237,538.6899080551198 L-1981.0627324426687,538.5354623691796 L-1981.053193529841,538.3801462655747 L-1981.0398712395174,538.2243339144026 L-1981.0227976662618,538.0684006812647 L-1981.0020139418077,537.9127222229781 L-1980.9775701359679,537.7576735825844 L-1980.9495251360117,537.6036282858391 L-1980.9179465048003,537.4509574413547 L-1980.8829103180224,537.3000288465681 L-1980.8445009809207,537.1512061016838 L-1980.8028110249525,537.0048477337295 L-1980.7579408848733,536.8613063328334 L-1980.709998656781,536.7209277028026 L-1980.659099837702,536.5840500280527 L-1980.6053670473495,536.4510030588914 L-1980.5489297327224,536.3221073171209 L-1980.4899238562546,536.1976733238728 L-1980.428491568271,536.0780008515362 L-1980.3647808645342,535.9633782015791 L-1980.2989452297097,535.8540815100048 L-1980.2311432676083,535.7503740821167 L-1980.1615383190958,535.6525057581921 L-1980.0902980685896,535.5607123115958 L-1980.0175941400933,535.4752148807808 L-1979.9436016837383,535.3962194365464 L-1979.868498953833,535.3239162858372 L-1979.7924668794326,535.2584796132761 L-1979.7156886284633,535.200067061539 L-1979.638349166457,535.1488193515793 L-1979.5606348109516,535.1048599436191 L-1979.4827327826365,535.0682947397224 " />
			<path d="M-1938.501656474362,517.8008983286163 L-1938.4464374943555,517.7795109010053 L-1938.3912853318081,517.7619075860281 L-1938.3362667233268,517.7481096844904 L-1938.281448243912,517.7381338924762 L-1938.2268962263995,517.7319922811442 L-1938.1726766811935,517.7296922821216 L-1938.1188552163915,517.7312366785109 L-1938.0654969583966,517.7366236015228 " />
			<path d="M-1938.0654969583966,517.7366236015228 L-1937.996712381495,517.7494109303278 L-1937.9289669370207,517.768695817703 " />
			<path d="M-1937.9786328988853,554.2892564471474 L-1938.0419781946562,554.3562883718251 L-1938.1061328146034,554.4184272469573 L-1938.1709838060654,554.4755636688674 L-1938.2364169903274,554.5275970413563 L-1938.3023171636476,554.5744357528165 L-1938.3685683000883,554.615997337525 L-1938.4350537557946,554.6522086208362 L-1938.501656474362,554.6830058480145 " />
			<path d="M-1938.5016564743619,554.6830058480147 L-1979.4827327826365,571.9504022591208 " />
			<path d="M-50.47745642178567,837.3503403181505 L-50.51975109826612,837.31484158925 L-50.56116084447588,837.2763748835864 L-50.60164406830915,837.2349788372644 L-50.64116010826275,837.1906950286295 L-50.679669274276634,837.1435679365068 L-50.717132887598744,837.0936448955257 L-50.75351331963411,837.0409760485777 L-50.78877402973914,836.9856142964518 L-50.822879601923184,836.9276152447013 L-50.8557957804205,836.8670371477933 L-50.88748950409686,836.8039408505977 L-50.91792893965629,836.7383897272738 L-50.94708351361453,836.6704496176181 L-50.97492394300718,836.6001887609339 L-51.001422264801626,836.5276777274912 L-51.026551863983194,836.4529893476466 L-51.072605333551266,836.297382729504 L-51.11289937305504,836.1339939170301 L-51.14727213720127,835.9634791787597 L-51.17558556412867,835.7865234052662 L-51.19772592994803,835.6038373582255 L-51.213604305526346,835.4161548155665 L-51.22315691368012,835.2242296241741 L-51.22634538534317,835.0288326719826 " />
			<path d="M-1979.4827327826365,571.9504022591207 L-1979.5379517626432,571.9717896867317 L-1979.5931039251905,571.9893930017089 L-1979.6481225336718,572.0031909032466 L-1979.7029410130865,572.0131666952608 L-1979.757493030599,572.0193083065927 L-1979.8117125758051,572.0216083056154 L-1979.8655340406071,572.0200639092261 L-1979.918892298602,572.0146769862142 " />
			<path d="M-1979.918892298602,572.0146769862142 L-1979.9801782945153,572.0036105624281 L-1980.0406528710387,571.9873911508635 L-1980.1002173837119,571.9660452081766 L-1980.158774672546,571.9396075532802 L-1980.2162292205076,571.9081213105474 L-1980.2724873093234,571.8716378394681 L-1980.3274571723518,571.8302166508736 L-1980.3810491442696,571.7839253098634 L-1980.433175807331,571.7328393255956 L-1980.4837521339618,571.6770420281175 L-1980.5326956254544,571.616624432441 L-1980.5799264465356,571.5516850900806 L-1980.6253675555938,571.4823299282994 L-1980.6689448303464,571.408672077323 L-1980.710587188745,571.330831685805 L-1980.7502267049242,571.2489357248439 L-1980.787798719999,571.1631177808708 L-1980.8232419475357,571.0735178377475 L-1980.8564985735195,570.9802820484283 L-1980.88751435066,570.8835624965595 L-1980.9162386868775,570.7835169484048 L-1980.9426247278275,570.680308595501 L-1980.9666294333283,570.5741057884651 L-1980.988213647567,570.4650817623847 L-1981.0073421629686,570.3534143542422 L-1981.023983777627,570.2392857128318 L-1981.0381113461997,570.1228820016436 L-1981.0497018241867,570.0043930951987 L-1981.0587363055201,569.8840122693308 L-1981.0652000534033,569.761935885921 L-1981.0690825243491,569.6383630725965 L-1981.0703773853784,569.51349539792 " />
			<path d="M-51.226345385343166,804.3584485242724 L-51.226345385343166,835.0288326719825 " />
			<path d="M-1981.0703773853784,538.8431112502099 L-1981.0703773853784,569.51349539792 " />
			<path d="M-8.65762447432687,1177.7606697048761 L-49.63870078260135,1195.0280661159825 " />
			<path d="M-1938.5016564743619,912.2453324308136 L-1979.4827327826365,929.5127288419197 " />
			<path d="M-51.22634538534321,1198.8028826264697 L-51.224432997888584,1198.6496794313796 L-51.2187004426336,1198.4952337454395 L-51.20916152980596,1198.3399176418345 L-51.1958392394822,1198.1841052906623 L-51.17876566622659,1198.0281720575247 L-51.157981941772576,1197.872493599238 L-51.1335381359328,1197.7174449588442 L-51.105493135976566,1197.5633996620988 L-51.07391450476521,1197.4107288176147 L-51.03887831798729,1197.2598002228278 L-51.00046898088556,1197.1109774779436 L-50.95877902491735,1196.9646191099894 L-50.91390888483821,1196.821077709093 L-50.865966656745734,1196.6806990790624 L-50.81506783766665,1196.5438214043127 L-50.76133504731434,1196.4107744351513 L-50.70489773268718,1196.2818786933806 L-50.64589185621944,1196.1574447001326 L-50.584459568235836,1196.037772227796 L-50.520748864498955,1195.9231495778388 L-50.454913229674496,1195.8138528862646 L-50.38711126757327,1195.7101454583765 L-50.317506319060726,1195.612277134452 L-50.24626606855451,1195.5204836878556 L-50.173562140057996,1195.4349862570407 L-50.09956968370305,1195.3559908128063 L-50.024466953798004,1195.283687662097 L-49.94843487939742,1195.218250989536 L-49.87165662842815,1195.159838437799 L-49.79431716642176,1195.108590727839 L-49.71660281091636,1195.0646313198788 L-49.63870078260135,1195.0280661159823 " />
			<path d="M-1981.0703773853784,933.287545352407 L-1981.0684649979237,933.134342157317 L-1981.0627324426687,932.9798964713768 L-1981.053193529841,932.8245803677719 L-1981.0398712395174,932.6687680165998 L-1981.0227976662618,932.5128347834619 L-1981.0020139418077,932.3571563251753 L-1980.9775701359679,932.2021076847816 L-1980.9495251360117,932.0480623880363 L-1980.9179465048003,931.8953915435519 L-1980.8829103180224,931.7444629487653 L-1980.8445009809207,931.595640203881 L-1980.8028110249525,931.4492818359267 L-1980.7579408848733,931.3057404350305 L-1980.709998656781,931.1653618049997 L-1980.659099837702,931.0284841302499 L-1980.6053670473495,930.8954371610886 L-1980.5489297327224,930.7665414193181 L-1980.4899238562546,930.64210742607 L-1980.428491568271,930.5224349537334 L-1980.3647808645342,930.4078123037763 L-1980.2989452297097,930.298515612202 L-1980.2311432676083,930.1948081843138 L-1980.1615383190958,930.0969398603893 L-1980.0902980685896,930.005146413793 L-1980.0175941400933,929.919648982978 L-1979.9436016837383,929.8406535387436 L-1979.868498953833,929.7683503880344 L-1979.7924668794326,929.7029137154733 L-1979.7156886284633,929.6445011637362 L-1979.638349166457,929.5932534537765 L-1979.5606348109516,929.5492940458163 L-1979.4827327826365,929.5127288419196 " />
			<path d="M-1938.501656474362,912.2453324308135 L-1938.4654138866224,912.2308709565966 " />
			<path d="M-1938.515599188629,949.1333147196418 L-1979.4827327826365,966.3948363613182 " />
			<path d="M-50.477456421785355,1231.794774420348 L-50.51975109826583,1231.7592756914476 L-50.561160844475594,1231.720808985784 L-50.601644068308886,1231.679412939462 L-50.64116010826251,1231.6351291308272 L-50.67966927427641,1231.5880020387044 L-50.71713288759853,1231.5380789977232 L-50.75351331963391,1231.4854101507751 L-50.78877402973896,1231.4300483986494 L-50.82287960192302,1231.3720493468988 L-50.85579578042036,1231.311471249991 L-50.887489504096735,1231.2483749527953 L-50.91792893965617,1231.1828238294713 L-50.94708351361442,1231.1148837198157 L-50.97492394300709,1231.0446228631313 L-51.00142226480155,1230.9721118296886 L-51.02655186398313,1230.8974234498442 L-51.07260533355123,1230.7418168317015 L-51.11289937305502,1230.5784280192277 L-51.14727213720127,1230.4079132809572 L-51.175585564128674,1230.2309575074635 L-51.19772592994805,1230.0482714604227 L-51.213604305526374,1229.8605889177638 L-51.22315691368015,1229.6686637263713 L-51.22634538534321,1229.4732667741798 " />
			<path d="M-1979.4827327826365,966.3948363613179 L-1979.5379517626432,966.4162237889288 L-1979.5931039251905,966.4338271039061 L-1979.6481225336718,966.4476250054438 L-1979.7029410130865,966.457600797458 L-1979.757493030599,966.4637424087899 L-1979.8117125758051,966.4660424078126 L-1979.8655340406071,966.4644980114233 L-1979.918892298602,966.4591110884114 " />
			<path d="M-1979.918892298602,966.4591110884114 L-1979.9801782945153,966.4480446646253 L-1980.0406528710387,966.4318252530607 L-1980.1002173837119,966.4104793103738 L-1980.158774672546,966.3840416554774 L-1980.2162292205076,966.3525554127446 L-1980.2724873093234,966.3160719416653 L-1980.3274571723518,966.2746507530708 L-1980.3810491442696,966.2283594120606 L-1980.433175807331,966.1772734277928 L-1980.4837521339618,966.1214761303147 L-1980.5326956254544,966.0610585346382 L-1980.5799264465356,965.9961191922778 L-1980.6253675555938,965.9267640304965 L-1980.6689448303464,965.8531061795202 L-1980.710587188745,965.7752657880022 L-1980.7502267049242,965.6933698270411 L-1980.787798719999,965.607551883068 L-1980.8232419475357,965.5179519399447 L-1980.8564985735195,965.4247161506255 L-1980.88751435066,965.3279965987567 L-1980.9162386868775,965.227951050602 L-1980.9426247278275,965.1247426976981 L-1980.9666294333283,965.0185398906623 L-1980.988213647567,964.9095158645819 L-1981.0073421629686,964.7978484564394 L-1981.023983777627,964.683719815029 L-1981.0381113461997,964.5673161038408 L-1981.0497018241867,964.4488271973959 L-1981.0587363055201,964.328446371528 L-1981.0652000534033,964.2063699881182 L-1981.0690825243491,964.0827971747937 L-1981.0703773853784,963.9579295001172 " />
			<path d="M-51.22634538534321,1198.8028826264697 L-51.22634538534321,1229.4732667741798 " />
			<path d="M-1981.0703773853784,933.287545352407 L-1981.0703773853784,963.9579295001172 " />
			<path d="M-8.657621979972358,1584.6284564815235 L-49.63869828824683,1601.8958528893806 " />
			<path d="M-1939.0190474823214,1319.3307949128853 L-1979.4827302882602,1336.3801873172245 " />
			<path d="M-51.22634331386448,1605.6706693415972 L-51.22443090566033,1605.5174661493604 L-51.218698329705795,1605.3630204662668 L-51.20915939627847,1605.2077043654951 L-51.1958370855045,1605.051892017136 L-51.17876349199743,1604.895958786784 L-51.157979747539486,1604.7402803312496 L-51.133535921991516,1604.5852316935677 L-51.10549090267028,1604.4311863994872 L-51.073912252483794,1604.2785155576144 L-51.038876047166305,1604.1275869653798 L-51.00046669200523,1603.9787642229817 L-50.95877671850143,1603.8324058574417 L-50.91390656145267,1603.6888644588823 L-50.865964316997456,1603.5484858311054 L-50.815065482201916,1603.4116081585205 L-50.76133267681728,1603.2785611914303 L-50.70489534787817,1603.1496654516322 L-50.645889457853315,1603.0252314602528 L-50.584457157100104,1602.905558989677 L-50.520746441411866,1602.7909363413683 L-50.454910795483116,1602.681639651326 L-50.3871088231514,1602.57793222485 L-50.317503865306826,1602.480063902214 L-50.246263606389505,1602.38827045678 L-50.173559670423096,1602.3027730269978 L-50.09956720755744,1602.2237775836645 L-50.02446447211656,1602.1514744337223 L-49.94843239316835,1602.0860377617926 L-49.87165413865064,1602.0276252105496 L-49.79431467410352,1601.9763775009453 L-49.71660031707123,1601.932418093201 L-49.63869828824684,1601.8958528893806 " />
			<path d="M-1981.0703753138778,1340.1550037694408 L-1981.0684629056736,1340.001800577204 L-1981.062730329719,1339.8473548941104 L-1981.0531913962918,1339.6920387933387 L-1981.0398690855177,1339.5362264449795 L-1981.0227954920108,1339.3802932146275 L-1981.0020117475528,1339.2246147590931 L-1980.9775679220047,1339.0695661214113 L-1980.9495229026836,1338.9155208273307 L-1980.9179442524971,1338.762849985458 L-1980.8829080471796,1338.6119213932234 L-1980.8444986920185,1338.4630986508253 L-1980.8028087185148,1338.3167402852853 L-1980.757938561466,1338.173198886726 L-1980.7099963170108,1338.032820258949 L-1980.6590974822152,1337.895942586364 L-1980.6053646768305,1337.7628956192739 L-1980.5489273478915,1337.6339998794758 L-1980.4899214578666,1337.5095658880964 L-1980.4284891571133,1337.3898934175206 L-1980.3647784414252,1337.2752707692118 L-1980.2989427954965,1337.1659740791695 L-1980.2311408231647,1337.0622666526936 L-1980.16153586532,1336.9643983300575 L-1980.0902956064028,1336.8726048846236 L-1980.0175916704363,1336.7871074548414 L-1979.9435992075707,1336.708112011508 L-1979.86849647213,1336.635808861566 L-1979.7924643931817,1336.5703721896361 L-1979.7156861386638,1336.5119596383931 L-1979.6383466741167,1336.460711928789 L-1979.5606323170846,1336.4167525210446 L-1979.4827302882602,1336.3801873172242 " />
			<path d="M-50.47745910189092,1638.6625603395646 L-50.51975376009824,1638.6270616023774 L-50.561163487755415,1638.5885948895987 L-50.6016466927885,1638.547198837328 L-50.64116271372606,1638.5029150239043 L-50.67967186053973,1638.4557879281426 L-50.717135454508984,1638.4058648846615 L-50.753515867070234,1638.3531960363387 L-50.788776557611016,1638.2978342839479 L-50.82288211017157,1638.2398352330254 L-50.855798269016695,1638.1792571380188 L-50.887491973042394,1638.1161608437765 L-50.91793138898251,1638.0506097244352 L-50.94708594338218,1637.9826696197663 L-50.97492635330593,1637.9124087690464 L-51.00142465574957,1637.8398977425175 L-51.02655423572628,1637.765209370506 L-51.07260766743105,1637.609602770659 L-51.11290166997457,1637.4462139797579 L-51.14727439826331,1637.2756992660434 L-51.175587790623766,1637.0987435197726 L-51.197728123341605,1636.9160575022875 L-51.21360646744495,1636.7283749911655 L-51.22315904589691,1636.536449832926 L-51.22634748976279,1636.341052915126 " />
			<path d="M-1980.3553794553018,1373.1187489630686 L-1980.3959416578357,1373.0818563777616 L-1980.4356318944908,1373.0421704822556 L-1980.474412267462,1372.9997291702105 L-1980.5122457477178,1372.9545729662664 L-1980.5490962103581,1372.9067449873496 L-1980.584928469106,1372.8562909015031 L-1980.6197083099064,1372.8032588842798 L-1980.6534025235937,1372.7476995727434 L-1980.6859789376028,1372.6896660171183 L-1980.7174064466874,1372.6292136301342 L-1980.7476550426209,1372.5664001341174 L-1980.7766958428497,1372.5012855058735 L-1980.8310443187108,1372.364403686622 L-1980.8802443475397,1372.2190908482426 L-1980.9241080616725,1372.0659018599918 L-1980.962467969877,1371.9054216657803 L-1980.9951775969068,1371.738263050597 L-1981.0221120428112,1371.565064300621 L-1981.0431684598568,1371.3864867659624 L-1981.0582664452484,1371.2032123353308 L-1981.0673483481407,1371.0159408322797 L-1981.0703794897763,1370.8253873429696 " />
			<path d="M-51.226343313864476,1605.6706693415972 L-51.22634748976279,1636.341052915126 " />
			<path d="M-1981.070375313878,1340.155003769441 L-1981.070379489776,1370.8253873429699 " />
			<path d="M-50.060322727803126,1638.8440888011653 L-50.06032272780312,1578.8078239112833 " />
			<path d="M-50.06032272780308,1231.9763024209792 L-50.060322727803076,1171.9400445952588 " />
			<path d="M-50.06032272780305,837.531868318782 L-50.06032272780304,777.4956104930615 " />
			<path d="M-50.060322727803005,443.08743421658454 L-50.060322727803,383.05117639086376 " />
			<path d="M-50.06032272780297,48.64303815594851 L-50.06032272780296,12.077023709186 " />
			<path d="M-1937.4410570777122,158.99699524693006 L-1937.3931527173415,123.77178200920957 " />
			<path d="M-1936.9011921433735,-237.97850519853182 L-1936.855694879249,-271.4337234314965 " />
			<path d="M-1938.0655000175575,-271.1518351358972 L-1936.8563044798868,-270.98546961310916 " />
			<path d="M-1979.9188894259032,-216.8737809086174 L-1936.9379354158182,-210.9603048321256 " />
			<path d="M-1938.0654969583968,123.29218949932505 L-1937.3926263962392,123.38476560977261 " />
			<path d="M-1979.918892298602,177.57024288401675 L-1937.4742573430801,183.4099384131991 " />
			<path d="M-1938.0654969583968,517.7366236015228 L-1937.928948869595,517.7554104108457 " />
			<path d="M-1979.9188922986023,572.0146769862142 L-1938.0105798164366,577.7805832142719 " />
			<path d="M-1979.9188922986023,966.4591110884114 L-1938.5469022897926,972.1512280153446 " />

       </g>

       <!-- solid lines -->
       <g  stroke="rgb(0,0,0)" fill="none">
			<path d="M16.645461381871783,-16.234100119469613 L-8.435334988513803,-5.666294384551952 " />
			<path d="M16.645461381871623,1610.8491905520957 L-49.63870078260139,1638.778054480955 " />
			<path d="M-48.44796733054499,1639.8292692053944 L-48.62702525829865,1639.8027175756797 L-48.798453446113186,1639.7733916422956 L-48.96151155855087,1639.7414180531869 L-49.115495407458106,1639.7069348905525 L-49.259739993095735,1639.6700910745183 L-49.393622376028816,1639.6310457200057 L-49.5165643673735,1639.5899674495736 L-49.62803502578263,1639.547033665198 L-49.7275529503866,1639.5024297821392 L-49.814688359787084,1639.4563484282007 L-49.88906494812514,1639.4089886118409 L-49.92136611581849,1639.3848930041079 L-49.95036151020816,1639.3605548627277 L-49.97601981772274,1639.3360004716717 L-49.99831332867724,1639.3112563484508 L-50.017217967198185,1639.2863492154768 L-50.0327133172243,1639.2613059712037 L-50.04478264455488,1639.236153661079 L-50.05341291492185,1639.210919448336 L-50.05859480806615,1639.1856305846586 L-50.060322727803126,1639.160314380751 " />
			<path d="M-50.060322727803126,1639.160314380751 L-50.058638421278864,1639.135319627833 L-50.053587274761384,1639.1103511866806 L-50.04517460555007,1639.0854353413622 L-50.03340926959096,1639.0605983205776 L-50.01830365215412,1639.0358662700498 L-49.9998736547958,1639.011265225 L-49.97813867861899,1638.986821082741 L-49.953121603850065,1638.9625595754158 L-49.92484876575293,1638.9385062429085 L-49.89334992690611,1638.9146864059596 L-49.820810242290975,1638.86784724631 L-49.73580791727929,1638.8222392733167 L-49.6387007826014,1638.7780544809548 " />
			<path d="M16.645461381871772,-16.23410011946961 L16.726710088232387,-16.266463728154655 L16.814456415434016,-16.297828472491037 L16.908488974888762,-16.328118792062423 L17.00858123392462,-16.35726171483585 L17.114492061522522,-16.385187032957734 L17.2259663092221,-16.411827471890753 L17.342735425796644,-16.437118852484094 L17.464518104216566,-16.461000245586636 L17.59102095934265,-16.483414118830638 L17.721939234716555,-16.50430647523223 L17.856957536745814,-16.523626983274887 L17.99575059451464,-16.541329098162453 L18.137984043390023,-16.55737017394965 L18.28331523053545,-16.57171156627987 L18.581863738135294,-16.59516127980776 L18.88852093198276,-16.61145240518593 L19.20033353566523,-16.620428049971352 L19.514298623355124,-16.62200177379816 L19.827392539627223,-16.61615842084562 L20.136600018913274,-16.602954265796956 L20.43894322415776,-16.58251647188342 L20.731510425016562,-16.555041866232834 L20.873243102406,-16.538745863205342 L21.011484039411886,-16.52079504431676 " />
			<path d="M16.645461381871613,1610.8491905520955 L16.726710088232227,1610.8168269434104 L16.814456415433856,1610.7854621990741 L16.908488974888602,1610.7551718795028 L17.00858123392446,1610.7260289567294 L17.114492061522363,1610.6981036386073 L17.22596630922194,1610.6714631996745 L17.342735425796484,1610.646171819081 L17.464518104216406,1610.6222904259785 L17.59102095934249,1610.5998765527345 L17.721939234716395,1610.5789841963328 L17.856957536745654,1610.5596636882904 L17.995750594514476,1610.5419615734027 L18.137984043389864,1610.5259204976155 L18.28331523053529,1610.5115791052854 L18.581863738135134,1610.4881293917574 L18.8885209319826,1610.4718382663793 L19.20033353566507,1610.4628626215938 L19.514298623354964,1610.461288897767 L19.827392539627063,1610.4671322507195 L20.136600018913114,1610.4803364057682 L20.4389432241576,1610.5007741996817 L20.731510425016403,1610.5282488053324 L20.87324310240584,1610.54454480836 L21.011484039411727,1610.5624956272484 " />
			<path d="M21.01148403941191,-16.520795044316756 L48.44796733054483,-12.745978533829337 " />
			<path d="M21.011484039411748,1610.5624956272486 L48.447967330544664,1614.3373121377358 " />
			<path d="M48.44796733054483,-12.745978533829337 L48.62702525829849,-12.719426904114645 L48.79845344611302,-12.690100970730395 L48.961511558550704,-12.658127381621748 L49.11549540745794,-12.62364421898738 L49.25973999309557,-12.58680040295314 L49.39362237602865,-12.547755048440669 L49.516564367373334,-12.506676778008448 L49.62803502578247,-12.463742993632835 L49.72755295038644,-12.419139110574028 L49.81468835978692,-12.373057756635598 L49.88906494812497,-12.325697940275694 L49.92136611581833,-12.301602332542796 L49.950361510208,-12.277264191162523 L49.97601981772257,-12.252709800106656 L49.99831332867708,-12.22796567688578 L50.01721796719802,-12.2030585439117 L50.032713317224136,-12.178015299638577 L50.044782644554715,-12.152862989513945 L50.05341291492168,-12.127628776770992 L50.05859480806598,-12.10233991309362 L50.06032272780296,-12.077023709186005 " />
			<path d="M50.06032272780296,-12.077023709185998 L50.0586384212787,-12.0520289562679 L50.05358727476122,-12.027060515115686 L50.04517460554991,-12.002144669797062 L50.0334092695908,-11.977307649012545 L50.01830365215395,-11.952575598484732 L49.999873654795636,-11.92797455343491 L49.978138678618826,-11.903530411176003 L49.9531216038499,-11.879268903850694 L49.924848765752756,-11.855215571343402 L49.89334992690594,-11.831395734394674 L49.82081024229081,-11.784556574744869 L49.735807917279125,-11.73894860175149 L49.638700782601234,-11.694763809389805 " />
			<path d="M48.447967330544664,1614.3373121377358 L48.627025258298325,1614.3638637674505 L48.79845344611286,1614.3931897008347 L48.96151155855054,1614.4251632899434 L49.11549540745778,1614.4596464525778 L49.25973999309541,1614.496490268612 L49.39362237602849,1614.5355356231246 L49.51656436737317,1614.5766138935567 L49.628035025782296,1614.6195476779324 L49.727552950386276,1614.664151560991 L49.81468835978676,1614.7102329149295 L49.88906494812481,1614.7575927312894 L49.92136611581817,1614.7816883390224 L49.950361510207834,1614.8060264804026 L49.97601981772241,1614.8305808714586 L49.998313328676915,1614.8553249946794 L50.01721796719786,1614.8802321276535 L50.03271331722397,1614.9052753719266 L50.04478264455455,1614.9304276820512 L50.05341291492152,1614.9556618947943 L50.05859480806582,1614.9809507584716 L50.0603227278028,1615.0062669623792 " />
			<path d="M50.0603227278028,1615.0062669623792 L50.05863842127854,1615.0312617152972 L50.05358727476106,1615.0562301564496 L50.04517460554975,1615.081146001768 L50.033409269590635,1615.1059830225527 L50.01830365215379,1615.1307150730804 L49.99987365479547,1615.1553161181303 L49.97813867861866,1615.1797602603892 L49.95312160384974,1615.2040217677145 L49.9248487657526,1615.2280751002218 L49.893349926905785,1615.2518949371706 L49.82081024229065,1615.2987340968202 L49.73580791727896,1615.3443420698136 L49.63870078260107,1615.3885268621755 " />
			<path d="M49.63870078260108,1615.3885268621755 L-16.645461381871943,1643.3173907910348 " />
			<path d="M-16.645461381871936,1643.3173907910348 L-16.72671008823255,1643.3497543997198 L-16.81445641543418,1643.3811191440561 L-16.908488974888925,1643.4114094636275 L-17.008581233924783,1643.440552386401 L-17.114492061522686,1643.468477704523 L-17.22596630922226,1643.4951181434558 L-17.342735425796807,1643.5204095240492 L-17.46451810421673,1643.5442909171518 L-17.591020959342814,1643.5667047903958 L-17.721939234716718,1643.5875971467974 L-17.85695753674598,1643.60691765484 L-17.995750594514803,1643.6246197697276 L-18.13798404339019,1643.6406608455147 L-18.283315230535617,1643.6550022378449 L-18.58186373813546,1643.6784519513728 L-18.888520931982924,1643.694743076751 L-19.200333535665393,1643.7037187215365 L-19.51429862335529,1643.7052924453633 L-19.82739253962739,1643.6994490924108 L-20.136600018913445,1643.686244937362 L-20.438943224157928,1643.6658071434485 L-20.73151042501673,1643.6383325377979 L-20.873243102406164,1643.6220365347704 L-21.011484039412064,1643.6040857158819 " />
			<path d="M-48.44796733054499,1639.8292692053947 L-21.011484039412075,1643.6040857158819 " />
			<path d="M-1970.1975142647982,-275.6598208303017 L-2011.4803525342684,-258.5058227665889 " />
			<path d="M-1972.410404832265,1351.5311385654577 L-2013.693243101735,1368.6851366291708 " />
			<path d="M-2011.4813981593502,-257.73694982519754 L-2011.5798444545446,-257.7814645919927 L-2011.6660226075714,-257.8274157000719 L-2011.7395643881212,-257.8746068051164 L-2011.7714962923865,-257.89860452670496 L-2011.8001555597928,-257.9228362644287 L-2011.8255115676402,-257.9472761264458 L-2011.847537222794,-257.9718979985314 L-2011.866208990632,-257.99667557198137 L-2011.881506920193,-258.02158237172307 L-2011.893414665494,-258.04659178460446 L-2011.9019195029962,-258.07167708783027 L-2011.9070123451997,-258.09681147751564 L-2011.9086877503541,-258.12196809732654 " />
			<path d="M-2011.9086877503541,-258.1219680973266 L-2011.9069439282737,-258.14712006717576 L-2011.9017827422483,-258.1722405119445 L-2011.8932097070544,-258.19730259019894 L-2011.8812339830615,-258.2222795228704 L-2011.8658683664448,-258.24714462186904 L-2011.8471292755112,-258.27187131860046 L-2011.8250367331575,-258.29643319235424 L-2011.799614345475,-258.320803998535 L-2011.7708892765265,-258.3449576967048 L-2011.738892219321,-258.36886847840776 L-2011.6652223563967,-258.4158593836814 L-2011.5789195403854,-258.46157592709125 L-2011.4803525342686,-258.50582276658895 " />
			<path d="M-2012.520916415707,1369.7379047874408 L-2012.6988616874526,1369.7110767366319 L-2012.8691881386035,1369.6815148583466 L-2013.0311656161314,1369.6493458780283 L-2013.1840997572706,1369.6147076972077 L-2013.3273349661017,1369.5777488023498 L-2013.4602572239519,1369.5386276283236 L-2013.5822967215615,1369.4975118792265 L-2013.6929303017332,1369.4545778094716 L-2013.7916837019964,1369.4100094682237 L-2013.8781335876674,1369.363997910419 L-2013.951909366596,1369.3167403777547 L-2013.9839434734772,1369.2927074929783 L-2014.0126947778137,1369.2684394531552 L-2014.0381324586738,1369.2439622732304 L-2014.0602292472768,1369.219302192343 L-2014.0789614562243,1369.1944856456994 L-2014.0943090048925,1369.1695392362344 L-2014.1062554409582,1369.1444897060942 L-2014.1147879580362,1369.119363907968 L-2014.1198974094068,1369.0941887763033 L-2014.1215783178206,1369.0689912984328 " />
			<path d="M-2014.1215783178206,1369.0689912984328 L-2014.1198344957402,1369.0438393285835 L-2014.1146733097148,1369.018718883815 L-2014.106100274521,1368.9936568055605 L-2014.094124550528,1368.968679872889 L-2014.0787589339113,1368.9438147738902 L-2014.0600198429777,1368.919088077159 L-2014.037927300624,1368.8945262034051 L-2014.0125049129415,1368.8701553972244 L-2013.983779843993,1368.8460016990546 L-2013.9517827867876,1368.8220909173515 L-2013.8781129238632,1368.775100012078 L-2013.791810107852,1368.7293834686682 L-2013.693243101735,1368.6851366291703 " />
			<path d="M-1970.1975142647987,-275.6598208303018 L-1970.115700021017,-275.6919617140952 L-1970.0274056988094,-275.7230899442472 L-1969.9328440069323,-275.75313053012485 L-1969.8322427527842,-275.78201110132557 L-1969.7258442935974,-275.8096620820236 L-1969.61390495258,-275.8360168585845 L-1969.4966944014088,-275.8610119400432 L-1969.3744950105684,-275.88458711105915 L-1969.2476011690947,-275.9066855769804 L-1969.116318575366,-275.92725410066697 L-1968.98096350065,-275.9462431307437 L-1968.8418620271773,-275.9636069209739 L-1968.699349262581,-275.97930364046596 L-1968.5537685325944,-275.99329547444785 L-1968.2548125894582,-276.0160338440895 L-1967.947873306927,-276.03160304696917 L-1967.635906678082,-276.039853143152 L-1967.3219171120966,-276.040704679702 L-1967.0089285001359,-276.0341494558565 L-1966.6999550936298,-276.0202506020047 L-1966.3979724753851,-275.99914197170705 L-1966.105888903096,-275.97102685261245 L-1965.964442770215,-275.95442390467355 L-1965.826517301233,-275.9361760086871 " />
			<path d="M-1972.4104048322647,1351.5311385654575 L-1972.328590588483,1351.4989976816642 L-1972.2402962662754,1351.4678694515121 L-1972.1457345743984,1351.4378288656344 L-1972.0451333202502,1351.4089482944337 L-1971.9387348610635,1351.3812973137358 L-1971.826795520046,1351.3549425371748 L-1971.7095849688749,1351.3299474557161 L-1971.5873855780344,1351.3063722847 L-1971.4604917365607,1351.284273818779 L-1971.329209142832,1351.2637052950922 L-1971.193854068116,1351.2447162650155 L-1971.0547525946433,1351.2273524747854 L-1970.9122398300472,1351.2116557552934 L-1970.7666591000605,1351.1976639213115 L-1970.4677031569242,1351.1749255516697 L-1970.160763874393,1351.1593563487902 L-1969.848797245548,1351.1511062526072 L-1969.5348076795626,1351.1502547160574 L-1969.221819067602,1351.1568099399028 L-1968.9128456610958,1351.1707087937546 L-1968.6108630428512,1351.1918174240523 L-1968.3187794705623,1351.2199325431468 L-1968.1773333376811,1351.2365354910858 L-1968.039407868699,1351.2547833870722 " />
			<path d="M-1965.8265173012328,-275.9361760086871 L-1938.4563567813625,-272.10263692050455 " />
			<path d="M-1968.0394078686993,1351.2547833870724 L-1940.669247348829,1355.088322475255 " />
			<path d="M-1938.4563567813625,-272.1026369205045 L-1938.278411509617,-272.0758088696955 L-1938.108085058466,-272.0462469914104 L-1937.9461075809381,-272.01407801109195 L-1937.793173439799,-271.9794398302713 L-1937.649938230968,-271.9424809354134 L-1937.5170159731176,-271.90335976138743 L-1937.394976475508,-271.8622440122904 L-1937.2843428953363,-271.8193099425355 L-1937.1855894950731,-271.77474160128736 L-1937.099139609402,-271.7287300434827 L-1937.0253638304735,-271.6814725108185 L-1936.9933297235923,-271.65743962604205 L-1936.9645784192558,-271.6331715862191 L-1936.9391407383957,-271.6086944062942 L-1936.9170439497927,-271.5840343254068 L-1936.8983117408452,-271.5592177787631 L-1936.882964192177,-271.5342713692982 L-1936.8710177561113,-271.5092218391578 L-1936.8624852390333,-271.4840960410316 L-1936.8573757876627,-271.458920909367 L-1936.8556948792489,-271.4337234314965 " />
			<path d="M-1936.8556948792489,-271.43372343149645 L-1936.8574387013293,-271.4085714616473 L-1936.8625998873547,-271.38345101687855 L-1936.8711729225486,-271.3583889386241 L-1936.8831486465415,-271.33341200595265 L-1936.8985142631582,-271.308546906954 L-1936.9172533540918,-271.2838202102226 L-1936.9393458964455,-271.2592583364688 L-1936.964768284128,-271.23488753028806 L-1936.9934933530765,-271.21073383211825 L-1937.025490410282,-271.1868230504153 L-1937.0991602732063,-271.13983214514167 L-1937.1854630892176,-271.0941156017318 L-1937.2840300953344,-271.0498687622341 " />
			<path d="M-1940.6692473488292,1355.088322475255 L-1940.4913020770837,1355.1151505260639 L-1940.3209756259328,1355.144712404349 L-1940.1589981484049,1355.1768813846675 L-1940.0060640072656,1355.211519565488 L-1939.8628287984347,1355.248478460346 L-1939.7299065405844,1355.287599634372 L-1939.6078670429747,1355.3287153834692 L-1939.497233462803,1355.371649453224 L-1939.3984800625399,1355.416217794472 L-1939.3120301768688,1355.4622293522768 L-1939.2382543979402,1355.509486884941 L-1939.206220291059,1355.5335197697175 L-1939.1774689867225,1355.5577878095405 L-1939.1520313058625,1355.5822649894653 L-1939.1299345172595,1355.6069250703526 L-1939.111202308312,1355.6317416169964 L-1939.0958547596438,1355.6566880264613 L-1939.083908323578,1355.6817375566015 L-1939.0753758065,1355.7068633547278 L-1939.0702663551294,1355.7320384863924 L-1939.0685854467156,1355.757235964263 " />
			<path d="M-1939.0685854467156,1355.757235964263 L-1939.070329268796,1355.7823879341122 L-1939.0754904548214,1355.8075083788808 L-1939.0840634900153,1355.8325704571353 L-1939.0960392140082,1355.8575473898068 L-1939.111404830625,1355.8824124888056 L-1939.1301439215586,1355.9071391855368 L-1939.1522364639122,1355.9317010592906 L-1939.1776588515947,1355.9560718654714 L-1939.2063839205432,1355.9802255636412 L-1939.2383809777486,1356.0041363453443 L-1939.312050840673,1356.0511272506178 L-1939.3983536566843,1356.0968437940276 L-1939.4969206628011,1356.1410906335254 " />
			<path d="M-1939.496920662801,1356.1410906335252 L-1980.779758932271,1373.2950886972383 " />
			<path d="M-1980.7797589322713,1373.2950886972383 L-1980.861573176053,1373.3272295810316 L-1980.9498674982606,1373.3583578111836 L-1981.0444291901376,1373.3883983970613 L-1981.1450304442858,1373.417278968262 L-1981.2514289034725,1373.44492994896 L-1981.36336824449,1373.471284725521 L-1981.4805787956611,1373.4962798069796 L-1981.6027781865016,1373.5198549779957 L-1981.7296720279753,1373.5419534439168 L-1981.860954621704,1373.5625219676035 L-1981.99630969642,1373.5815109976802 L-1982.1354111698927,1373.5988747879103 L-1982.2779239344889,1373.6145715074024 L-1982.4235046644756,1373.6285633413843 L-1982.7224606076118,1373.651301711026 L-1983.029399890143,1373.6668709139055 L-1983.341366518988,1373.6751210100886 L-1983.6553560849734,1373.6759725466384 L-1983.968344696934,1373.669417322793 L-1984.2773181034402,1373.6555184689412 L-1984.5793007216848,1373.6344098386435 L-1984.871384293974,1373.606294719549 L-1985.0128304268549,1373.58969177161 L-1985.150755895837,1373.5714438756236 " />
			<path d="M-2012.520916415707,1369.737904787441 L-1985.1507558958367,1373.5714438756236 " />
			<path d="M-8.657627470405636,-5.572595052239537 L-8.60240850809492,-5.593982473494388 L-8.547256362598006,-5.611585784510424 L-8.49223777045776,-5.6253836845003455 L-8.437419306611556,-5.635359477393027 L-8.382867303832663,-5.64150109203649 L-8.32864777246463,-5.643801096804549 L-8.27482632054585,-5.642256708589393 L-8.22146807442093,-5.63686979616928 " />
			<path d="M-8.221468074420924,-5.636869796169279 L-8.160182066821017,-5.6258033822853815 L-8.099707477765882,-5.609583979748953 L-8.040142951749983,-5.588238045205482 L-7.981585648797859,-5.56180039755915 L-7.924131085979359,-5.530314161177197 L-7.867872981604808,-5.49383069554662 L-7.812903102354264,-5.452409511497997 L-7.759311113590223,-5.406118174133039 L-7.707184433097931,-5.355032192614252 L-7.656608088491885,-5.2992348969964524 L-7.607664578521124,-5.2388173023010705 L-7.560433738499515,-5.173877960054925 L-7.514992610080581,-5.104522797535685 L-7.471415315589266,-5.030864944986185 L-7.429772937115624,-4.953024551079469 L-7.390133400567657,-4.871128586935571 L-7.35256136487244,-4.785310639009688 L-7.317118116506244,-4.695710691189619 L-7.283861469525714,-4.602474896457879 L-7.252845671263161,-4.505755338490948 L-7.224121313839802,-4.405709783584541 L-7.197735251641275,-4.302501423309557 L-7.173730524890043,-4.196298608318434 L-7.152146289439369,-4.087274573736191 L-7.133017752903353,-3.975607156584024 L-7.116376117227242,-3.8614785056964323 L-7.102248527791665,-3.7450747846050128 L-7.090658029133833,-3.626585867873613 L-7.081623527357921,-3.5062050313801354 L-7.0751597592959525,-3.3841286370502126 L-7.071277268469473,-3.2605558125570195 L-7.069982387891255,-3.1356881265096828 " />
			<path d="M-7.069982387891253,-3.1356881265096543 L-7.069977651552593,27.534696669596535 " />
			<path d="M-1936.914014331028,-268.6506534662376 L-1936.9140095946893,-237.98026867013144 " />
			<path d="M-7.069977651552591,27.534696669596535 L-7.071890015473097,27.687899867909742 L-7.077622547251009,27.842345557068015 L-7.087161436715163,27.99766166387832 L-7.100483703845333,28.153474018235272 L-7.117557254133108,28.309407254529674 L-7.13834095590038,28.46508571593715 L-7.162784739389153,28.620134359408347 L-7.190829717383981,28.774179659180486 L-7.222408327076424,28.926850506633645 L-7.257444492829773,29.077779104323923 L-7.295853809451923,29.226601852039693 L-7.337543745534873,29.372960222746382 L-7.382413866370991,29.516501626309477 L-7.430356075909025,29.65688025891505 L-7.481254877166956,29.79375793614144 L-7.534987650474346,29.926804907675137 L-7.591424948873862,30.055700651708186 L-7.650430809970335,30.180134647103266 L-7.711863083476081,30.299807121466348 L-7.775573773663393,30.414429773324613 L-7.8414093958992135,30.523726466669984 L-7.909211346403056,30.62743389619493 L-7.978816284337407,30.725302221618026 L-8.050056525310112,30.817095669571078 L-8.122760445340756,30.902593101597805 L-8.196752894317877,30.981588546895768 L-8.271855617950916,31.053891698518058 L-8.347887687200418,31.119328371839412 L-8.424665934151939,31.177740924182224 L-8.502005393283593,31.22898863459156 L-8.579719747064193,31.272948042844273 L-8.657621774808495,31.309513246875493 " />
			<path d="M-8.657621774808511,31.309513246875504 L-49.63869808678142,48.57690968718088 " />
			<path d="M-49.63869808678142,48.57690968718087 L-49.69391704909213,48.59829710843573 L-49.74906919458904,48.61590041945176 L-49.80408778672929,48.62969831944169 L-49.858906250575494,48.63967411233437 L-49.913458253354385,48.64581572697783 L-49.96767778472242,48.64811573174589 L-50.0214992366412,48.64657134353073 L-50.07485748276611,48.64118443111062 " />
			<path d="M-50.07485748276613,48.64118443111062 L-50.127687957252164,48.631961512888566 L-50.17992673288136,48.61891374900479 L-50.23151059841766,48.60205692783246 L-50.28237713509523,48.58141144687304 L-50.33246479214803,48.55700228807442 L-50.38171296128889,48.52885898760166 L-50.430062050048264,48.4970156000969 L-50.477453553883755,48.46151065747175 " />
			<path d="M-8.657624474326784,388.8718015004811 L-8.6024054943202,388.85041407287025 L-8.547253331772755,388.83281075789296 L-8.492234723291444,388.81901285635524 L-8.437416243876822,388.80903706434106 L-8.382864226364221,388.8028954530091 L-8.328644681158051,388.80059545398643 L-8.274823216356216,388.80213985037574 L-8.221464958361361,388.8075267733876 " />
			<path d="M-8.221464958361354,388.8075267733876 L-8.160178962448073,388.81859319717375 L-8.099704385924689,388.83481260873845 L-8.040139873251377,388.85615855142527 L-7.981582584417284,388.88259620632164 L-7.924128036455819,388.9140824490545 L-7.867869947639923,388.9505659201337 L-7.812900084611393,388.99198710872827 L-7.759308112693683,389.03827844973836 L-7.707181449632287,389.08936443400626 L-7.656605123001342,389.14516173148434 L-7.607661631508982,389.2055793271608 L-7.560430810427732,389.2705186695212 L-7.514989701369407,389.3398738313025 L-7.471412426616967,389.4135316822789 L-7.429770068218291,389.4913720737968 L-7.390130552039106,389.573268034758 L-7.352558536964185,389.659085978731 L-7.317115309427563,389.74868592185436 L-7.283858683443793,389.84192171117354 L-7.252842906303325,389.93864126304237 L-7.224118570085823,390.0386868111971 L-7.197732529135756,390.14189516410084 L-7.173727823634887,390.2480979711368 L-7.152143609396323,390.3571219972172 L-7.133015093994621,390.4687894053597 L-7.116373479336175,390.58291804677003 L-7.10224591076352,390.6993217579582 L-7.090655432776602,390.8178106644032 L-7.081620951443228,390.938191490271 L-7.0751572035600026,391.06026787368086 L-7.07127473261408,391.18384068700533 L-7.069979871584916,391.30870836168185 " />
			<path d="M-1938.0654969583966,123.29218949932506 L-1938.0042109624833,123.30325592311115 L-1937.94373638596,123.31947533467586 L-1937.8841718732867,123.34082127736268 L-1937.8256145844525,123.36725893225903 L-1937.768160036491,123.39874517499192 L-1937.7119019476752,123.43522864607117 L-1937.6569320846468,123.47664983466568 L-1937.603340112729,123.52294117567581 L-1937.5512134496676,123.5740271599437 L-1937.5006371230368,123.62982445742175 L-1937.4516936315442,123.69024205309826 L-1937.404462810463,123.75518139545864 L-1937.3590217014048,123.82453655723991 L-1937.3154444266522,123.89819440821633 L-1937.2738020682536,123.97603479973425 L-1937.2341625520744,124.05793076069538 L-1937.1965905369996,124.14374870466845 L-1937.1611473094629,124.23334864779177 L-1937.127890683479,124.32658443711098 L-1937.0968749063386,124.42330398897977 L-1937.0681505701211,124.52334953713454 L-1937.0417645291711,124.62655789003828 L-1937.0177598236703,124.73276069707421 L-1936.9961756094317,124.84178472315462 L-1936.97704709403,124.9534521312971 L-1936.9604054793715,125.06758077270746 L-1936.946277910799,125.18398448389564 L-1936.9346874328119,125.30247339034064 L-1936.9256529514785,125.42285421620844 L-1936.9191892035954,125.54493059961828 L-1936.9153067326495,125.66850341294277 L-1936.9140118716202,125.79337108761929 " />
			<path d="M-7.0699798715849145,391.3087083616819 L-7.0699798715849145,421.97909250939216 " />
			<path d="M-1936.9140118716202,125.79337108761933 L-1936.9140118716202,156.4637552353296 " />
			<path d="M-7.069979871584916,421.9790925093922 L-7.07189225903954,422.13229570448226 L-7.077624814294529,422.2867413904224 L-7.087163727122162,422.4420574940274 L-7.100486017445926,422.5978698451995 L-7.117559590701536,422.7538030783373 L-7.138343315155551,422.9094815366239 L-7.162787120995323,423.06453017701756 L-7.190832120951558,423.21857547376294 L-7.2224107521629115,423.3712463182473 L-7.2574469389408325,423.52217491303395 L-7.295856276042566,423.67099765791824 L-7.337546232010774,423.81735602587247 L-7.382416372089919,423.9608974267687 L-7.43035860018239,424.10127605679946 L-7.481257419261469,424.2381537315493 L-7.534990209613786,424.37120070071063 L-7.591427524240944,424.5000964424812 L-7.650433400708684,424.62453043572924 L-7.711865688692287,424.7442029080658 L-7.77557639242917,424.85882555802294 L-7.841412027253633,424.96812224959723 L-7.9092139893548605,425.07182967748537 L-7.978818937867402,425.16969800140987 L-8.050059188373616,425.26149144800615 L-8.122763116870127,425.34698887882126 L-8.19675557322507,425.42598432305556 L-8.271858303130118,425.4982874737648 L-8.347890377530705,425.56372414632585 L-8.424668628499974,425.622136698063 L-8.502008090506363,425.67338440802274 L-8.579722446011761,425.717343815983 L-8.65762447432677,425.7539090198796 " />
			<path d="M-8.657624474326784,425.75390901987953 L-49.63870078260126,443.02130543098576 " />
			<path d="M-49.638700782601255,443.02130543098576 L-49.69391976260784,443.0426928585967 L-49.749071925155285,443.060296173574 L-49.8040905336366,443.0740940751117 L-49.85890901305122,443.0840698671259 L-49.913461030563816,443.09021147845783 L-49.96768057576999,443.0925114774805 L-50.021502040571825,443.0909670810912 L-50.07486029856667,443.0855801580793 " />
			<path d="M-50.07486029856668,443.0855801580793 L-50.12769078385308,443.0763572268649 L-50.17992956915834,443.0633094476112 L-50.23151344319347,443.04645260872024 L-50.2823799871417,443.02580710772827 L-50.33246765018805,443.00139792662367 L-50.38171582399859,442.9732546016177 L-50.43006491605929,442.94141118740447 L-50.47745642178562,442.905906215953 " />
			<path d="M-8.657624474326823,783.3162356026788 L-8.602405494320239,783.2948481750678 L-8.547253331772794,783.2772448600906 L-8.492234723291483,783.2634469585529 L-8.43741624387686,783.2534711665387 L-8.38286422636426,783.2473295552068 L-8.32864468115809,783.2450295561841 L-8.274823216356255,783.2465739525734 L-8.2214649583614,783.2519608755853 " />
			<path d="M-8.221464958361393,783.2519608755853 L-8.160178962448112,783.2630272993714 L-8.099704385924728,783.279246710936 L-8.040139873251416,783.3005926536229 L-7.981582584417323,783.3270303085193 L-7.924128036455858,783.3585165512521 L-7.867869947639962,783.3950000223314 L-7.8129000846114325,783.4364212109259 L-7.759308112693722,783.4827125519361 L-7.707181449632326,783.5337985362039 L-7.656605123001381,783.589595833682 L-7.607661631509021,783.6500134293585 L-7.560430810427771,783.7149527717189 L-7.514989701369446,783.7843079335001 L-7.471412426617006,783.8579657844765 L-7.42977006821833,783.9358061759945 L-7.390130552039145,784.0177021369556 L-7.352558536964224,784.1035200809287 L-7.317115309427602,784.193120024052 L-7.283858683443832,784.2863558133712 L-7.252842906303364,784.38307536524 L-7.224118570085862,784.4831209133947 L-7.197732529135795,784.5863292662985 L-7.173727823634926,784.6925320733344 L-7.152143609396362,784.8015560994148 L-7.13301509399466,784.9132235075573 L-7.116373479336214,785.0273521489677 L-7.102245910763559,785.1437558601559 L-7.090655432776641,785.2622447666008 L-7.081620951443267,785.3826255924687 L-7.075157203560042,785.5047019758784 L-7.071274732614119,785.628274789203 L-7.069979871584955,785.7531424638795 " />
			<path d="M-1937.9289669370207,517.768695817703 L-1937.873773958747,517.7895470753997 L-1937.8194664286495,517.8147942677535 L-1937.7661209319206,517.8444017908421 L-1937.713812697081,517.878327891747 L-1937.6626154898909,517.916524727435 L-1937.612601509325,517.9589384322263 L-1937.5638412857559,518.0055091937571 L-1937.5164035814917,518.0561713373272 L-1937.4703552938065,518.110853418516 L-1937.425761360601,518.1694783239337 L-1937.3826846688255,518.2319633799684 L-1937.3411859657972,518.2982204693728 L-1937.3013237735327,518.3681561555285 L-1937.2631543062191,518.4416718142115 L-1937.226731390941,518.5186637726741 L-1937.1921063917723,518.5990234558443 L-1937.1593281373418,518.6826375394407 L-1937.1284428519748,518.7693881097838 L-1937.0994940905068,518.8591528300789 L-1937.0725226768616,518.9518051129378 L-1937.047566646481,519.0472142988933 L-1937.0246611926873,519.1452458406576 L-1937.0038386170525,519.2457614928618 L-1936.985128283846,519.3486195070122 L-1936.9685565786262,519.4536748313853 L-1936.9541468710295,519.560779315582 L-1936.9419194818147,519.6697819194508 L-1936.9318916542068,519.7805289260872 L-1936.9240775295802,519.8928641586068 L-1936.9184881275164,520.0066292003883 L-1936.9151313302632,520.1216636184745 L-1936.9140118716202,520.237805189817 " />
			<path d="M-7.069979871584955,785.7531424638795 L-7.069979871584955,816.4235266115896 " />
			<path d="M-1936.9140118716202,520.237805189817 L-1936.9140118716202,550.9081893375271 " />
			<path d="M-7.069979871584955,816.4235266115896 L-7.071892259039579,816.5767298066797 L-7.077624814294568,816.7311754926199 L-7.087163727122201,816.8864915962248 L-7.100486017445965,817.0423039473969 L-7.117559590701575,817.1982371805348 L-7.13834331515559,817.3539156388214 L-7.162787120995362,817.5089642792151 L-7.1908321209515975,817.6630095759604 L-7.222410752162951,817.8156804204448 L-7.257446938940872,817.9666090152314 L-7.295856276042605,818.1154317601157 L-7.337546232010813,818.26179012807 L-7.382416372089958,818.4053315289661 L-7.430358600182429,818.5457101589969 L-7.4812574192615084,818.6825878337468 L-7.5349902096138255,818.8156348029081 L-7.591427524240983,818.9445305446786 L-7.650433400708723,819.0689645379267 L-7.711865688692326,819.1886370102633 L-7.775576392429209,819.3032596602204 L-7.841412027253672,819.4125563517947 L-7.9092139893549,819.5162637796828 L-7.978818937867441,819.6141321036074 L-8.050059188373655,819.7059255502037 L-8.122763116870166,819.7914229810187 L-8.19675557322511,819.8704184252531 L-8.271858303130157,819.9427215759623 L-8.347890377530744,820.0081582485234 L-8.424668628500013,820.0665708002605 L-8.502008090506402,820.1178185102202 L-8.5797224460118,820.1617779181804 L-8.65762447432681,820.1983431220771 " />
			<path d="M-1936.9140118716202,550.9081893375271 L-1936.9151942826938,551.0285336264719 L-1936.9187397546943,551.1496950796251 L-1936.9246430065843,551.2714932250552 L-1936.9328952453752,551.3937466424676 L-1936.943484179225,551.5162732334326 L-1936.9563940357457,551.6388904926241 L-1936.9716055854994,551.7614157796642 L-1936.9890961706383,551.8836665911689 L-1937.0088397386542,552.0054608325903 L-1937.0308068811858,552.1266170894486 L-1937.054964877821,552.2469548975523 L-1937.081277744836,552.3662950118027 L-1937.1097062887923,552.4844596731818 L-1937.1402081649167,552.6012728735279 L-1937.172737940175,552.716560617702 L-1937.2072471609438,552.8301511827566 L-1937.2436844251847,552.9418753737198 L-1937.2819954590068,553.0515667756138 L-1937.3221231975097,553.159062001333 L-1937.364007869782,553.2642009350113 L-1937.4075870879315,553.3668269705175 L-1937.4527959400123,553.4667872447229 L-1937.4995670867131,553.5639328651924 L-1937.547830861659,553.6581191319638 L-1937.5975153751817,553.7492057530789 L-1937.6485466214003,553.837057053552 L-1937.700848588453,553.9215421774595 L-1937.7543433717199,554.0025352828516 L-1937.8089512898616,554.0799157291965 L-1937.8645910035066,554.1535682570759 L-1937.921179636407,554.2233831598661 L-1937.9786328988853,554.2892564471474 " />
			<path d="M-8.657624474326827,820.1983431220772 L-49.638700782601305,837.4657395331833 " />
			<path d="M-49.638700782601305,837.4657395331833 L-49.69391976260789,837.4871269607943 L-49.749071925155334,837.5047302757715 L-49.804090533636646,837.5185281773092 L-49.85890901305127,837.5285039693234 L-49.913461030563866,837.5346455806554 L-49.96768057577004,837.536945579678 L-50.021502040571875,837.5354011832887 L-50.07486029856672,837.5300142602769 " />
			<path d="M-50.07486029856673,837.5300142602769 L-50.12769078385313,837.5207913290624 L-50.17992956915839,837.5077435498088 L-50.23151344319352,837.4908867109177 L-50.28237998714175,837.4702412099258 L-50.3324676501881,837.4458320288212 L-50.38171582399864,837.4176887038152 L-50.43006491605934,837.385845289602 L-50.47745642178567,837.3503403181505 " />
			<path d="M-8.657624474326866,1177.7606697048761 L-8.602405494320282,1177.7392822772651 L-8.547253331772836,1177.7216789622878 L-8.492234723291526,1177.7078810607502 L-8.437416243876903,1177.697905268736 L-8.382864226364303,1177.691763657404 L-8.328644681158133,1177.6894636583813 L-8.274823216356298,1177.6910080547707 L-8.221464958361443,1177.6963949777826 " />
			<path d="M-8.221464958361436,1177.6963949777826 L-8.160178962448155,1177.7074614015687 L-8.09970438592477,1177.7236808131333 L-8.040139873251459,1177.7450267558202 L-7.981582584417366,1177.7714644107166 L-7.924128036455901,1177.8029506534494 L-7.8678699476400045,1177.8394341245287 L-7.812900084611475,1177.8808553131232 L-7.759308112693764,1177.9271466541334 L-7.707181449632369,1177.9782326384013 L-7.656605123001424,1178.0340299358793 L-7.607661631509064,1178.0944475315557 L-7.560430810427814,1178.1593868739162 L-7.514989701369489,1178.2287420356975 L-7.471412426617048,1178.3023998866738 L-7.429770068218373,1178.3802402781919 L-7.390130552039188,1178.4621362391529 L-7.352558536964267,1178.547954183126 L-7.317115309427645,1178.6375541262494 L-7.283858683443874,1178.7307899155685 L-7.252842906303407,1178.8275094674373 L-7.2241185700859045,1178.9275550155921 L-7.197732529135838,1179.0307633684959 L-7.173727823634969,1179.1369661755318 L-7.152143609396405,1179.2459902016121 L-7.133015093994703,1179.3576576097546 L-7.116373479336256,1179.471786251165 L-7.102245910763601,1179.5881899623532 L-7.090655432776684,1179.7066788687982 L-7.08162095144331,1179.8270596946659 L-7.075157203560084,1179.9491360780758 L-7.071274732614162,1180.0727088914002 L-7.069979871584998,1180.1975765660768 " />
			<path d="M-1938.4654138866224,912.2308709565966 L-1938.414754788538,912.2133725200476 L-1938.3641843020139,912.1990736447655 L-1938.31375399256,912.1879889109696 L-1938.2635152827504,912.1801296214967 L-1938.2135193997906,912.1755037902752 L-1938.1638173232807,912.1741161341544 L-1938.1144597332332,912.1759680680934 L-1938.0654969583966,912.18105770372 " />
			<path d="M-1938.0654969583966,912.18105770372 L-1938.0042109624833,912.1921241275061 L-1937.94373638596,912.2083435390707 L-1937.8841718732867,912.2296894817575 L-1937.8256145844525,912.256127136654 L-1937.768160036491,912.2876133793868 L-1937.7119019476752,912.324096850466 L-1937.6569320846468,912.3655180390606 L-1937.603340112729,912.4118093800707 L-1937.5512134496676,912.4628953643386 L-1937.5006371230368,912.5186926618167 L-1937.4516936315442,912.5791102574932 L-1937.404462810463,912.6440495998536 L-1937.3590217014048,912.7134047616348 L-1937.3154444266522,912.7870626126112 L-1937.2738020682536,912.8649030041291 L-1937.2341625520744,912.9467989650902 L-1937.1965905369996,913.0326169090633 L-1937.1611473094629,913.1222168521866 L-1937.127890683479,913.2154526415059 L-1937.0968749063386,913.3121721933746 L-1937.0681505701211,913.4122177415294 L-1937.0417645291711,913.5154260944332 L-1937.0177598236703,913.6216289014691 L-1936.9961756094317,913.7306529275495 L-1936.97704709403,913.842320335692 L-1936.9604054793715,913.9564489771024 L-1936.946277910799,914.0728526882906 L-1936.9346874328119,914.1913415947355 L-1936.9256529514785,914.3117224206034 L-1936.9191892035954,914.4337988040131 L-1936.9153067326495,914.5573716173377 L-1936.9140118716202,914.6822392920142 " />
			<path d="M-7.069979871584998,1180.1975765660768 L-7.069979871584998,1210.867960713787 " />
			<path d="M-1936.9140118716202,914.6822392920142 L-1936.9140118716202,945.3526234397243 " />
			<path d="M-7.069979871584998,1210.867960713787 L-7.071892259039622,1211.021163908877 L-7.0776248142946105,1211.1756095948172 L-7.087163727122244,1211.330925698422 L-7.100486017446007,1211.4867380495944 L-7.117559590701617,1211.642671282732 L-7.138343315155633,1211.7983497410187 L-7.162787120995405,1211.9533983814124 L-7.19083212095164,1212.1074436781578 L-7.222410752162993,1212.260114522642 L-7.257446938940914,1212.4110431174288 L-7.295856276042648,1212.559865862313 L-7.3375462320108555,1212.7062242302673 L-7.382416372090001,1212.8497656311636 L-7.430358600182472,1212.9901442611942 L-7.481257419261551,1213.127021935944 L-7.534990209613868,1213.2600689051053 L-7.591427524241026,1213.388964646876 L-7.650433400708765,1213.513398640124 L-7.711865688692368,1213.6330711124606 L-7.775576392429252,1213.7476937624178 L-7.841412027253715,1213.856990453992 L-7.909213989354942,1213.9606978818802 L-7.978818937867484,1214.0585662058047 L-8.050059188373698,1214.150359652401 L-8.122763116870209,1214.235857083216 L-8.196755573225152,1214.3148525274503 L-8.2718583031302,1214.3871556781596 L-8.347890377530787,1214.4525923507206 L-8.424668628500056,1214.5110049024577 L-8.502008090506445,1214.5622526124175 L-8.579722446011843,1214.6062120203778 L-8.657624474326852,1214.6427772242744 " />
			<path d="M-1936.9140118716202,945.3526234397243 L-1936.915924259075,945.5058266348144 L-1936.92165681433,945.6602723207545 L-1936.9311957271575,945.8155884243595 L-1936.9445180174812,945.9714007755316 L-1936.9615915907368,946.1273340086694 L-1936.982375315191,946.283012466956 L-1937.0068191210307,946.4380611073498 L-1937.0348641209869,946.592106404095 L-1937.0664427521983,946.7447772485795 L-1937.1014789389762,946.895705843366 L-1937.139888276078,947.0445285882504 L-1937.1815782320461,947.1908869562046 L-1937.2264483721253,947.3344283571008 L-1937.2743906002177,947.4748069871316 L-1937.3252894192967,947.6116846618814 L-1937.379022209649,947.7447316310428 L-1937.4354595242762,947.8736273728133 L-1937.494465400744,947.9980613660614 L-1937.5558976887276,948.117733838398 L-1937.6196083924644,948.2323564883551 L-1937.685444027289,948.3416531799294 L-1937.7532459893903,948.4453606078175 L-1937.8228509379028,948.5432289317421 L-1937.894091188409,948.6350223783384 L-1937.9667951169054,948.7205198091534 L-1938.0407875732603,948.7995152533878 L-1938.1158903031655,948.871818404097 L-1938.191922377566,948.9372550766581 L-1938.2687006285353,948.9956676283952 L-1938.3460400905417,949.0469153383549 L-1938.423754446047,949.0908747463151 L-1938.501656474362,949.1274399502117 " />
			<path d="M-8.65762447432687,1214.6427772242746 L-49.63870078260135,1231.910173635381 " />
			<path d="M-1938.5016564743619,949.1274399502121 L-1938.515599188629,949.1333147196418 " />
			<path d="M-49.63870078260134,1231.9101736353805 L-49.693919762607926,1231.9315610629915 L-49.74907192515537,1231.9491643779688 L-49.80409053363668,1231.9629622795064 L-49.8589090130513,1231.9729380715207 L-49.9134610305639,1231.9790796828527 L-49.967680575770075,1231.9813796818753 L-50.02150204057191,1231.979835285486 L-50.074860298566755,1231.974448362474 " />
			<path d="M-50.07486029856677,1231.974448362474 L-50.12769078385312,1231.9652254312596 L-50.17992956915833,1231.952177652006 L-50.231513443193414,1231.935320813115 L-50.2823799871416,1231.914675312123 L-50.3324676501879,1231.8902661310185 L-50.381715823998405,1231.8621228060126 L-50.43006491605906,1231.8302793917994 L-50.477456421785355,1231.794774420348 " />
			<path d="M-1938.5016539799856,1319.1127909093673 L-1939.0190474823214,1319.3307949128853 " />
			<path d="M-8.657621979972356,1584.6284564815235 L-8.602402984284163,1584.6070690482516 L-8.547250806624369,1584.5894657297347 L-8.492232183656787,1584.5756678267956 L-8.43741369043794,1584.5656920355295 L-8.382861659858172,1584.5595504271012 L-8.328642102375815,1584.5572504331383 L-8.274820626141514,1584.558794836739 L-8.22146235760935,1584.5641817691046 " />
			<path d="M-8.221462357609344,1584.5641817691046 L-8.160176372019993,1584.575248201629 L-8.099701806566156,1584.5914676211582 L-8.040137305677687,1584.6128135710264 L-7.981580029312427,1584.6392512323132 L-7.924125494471576,1584.6707374806408 L-7.867867419395018,1584.707220956516 L-7.812897570690733,1584.7486421491078 L-7.759305613647658,1584.7949334933178 L-7.70717896597616,1584.8460194799927 L-7.656602655214698,1584.9018167790912 L-7.607659180035266,1584.9622343756105 L-7.560428375673851,1585.0271737180465 L-7.514987283705419,1585.0965288791497 L-7.471410026375838,1585.170186728709 L-7.42976768569573,1585.2480271180884 L-7.390128187493475,1585.3299230762088 L-7.352556190616484,1585.4157410166604 L-7.317112981461488,1585.5053409556042 L-7.283856374005869,1585.598576740111 L-7.252840615503111,1585.6952962865612 L-7.224116297996184,1585.79534182872 L-7.197730275793214,1585.8985501750801 L-7.173725589040034,1586.0047529750564 L-7.152141393514299,1586.1137769935942 L-7.133012896755668,1586.2254443937456 L-7.116371300636243,1586.3395730267523 L-7.102243750464947,1586.4559767291605 L-7.090653290708844,1586.5744656264878 L-7.081618827403652,1586.6948464429386 L-7.075155097314738,1586.816922816672 L-7.071272643898919,1586.9404956201015 L-7.069977800106265,1587.0653632847052 " />
			<path d="M-1938.5016539799856,1319.112790909367 L-1938.4464349842974,1319.0914034760951 L-1938.3912828066375,1319.0738001575783 L-1938.33626418367,1319.0600022546391 L-1938.2814456904512,1319.0500264633731 L-1938.2268936598714,1319.0438848549447 L-1938.172674102389,1319.0415848609819 L-1938.1188526261546,1319.0431292645826 L-1938.0654943576226,1319.0485161969482 " />
			<path d="M-1938.0654943576226,1319.0485161969482 L-1938.0042083720332,1319.0595826294725 L-1937.9437338065793,1319.0758020490018 L-1937.8841693056909,1319.09714799887 L-1937.8256120293256,1319.1235856601568 L-1937.7681574944847,1319.1550719084844 L-1937.7118994194082,1319.1915553843596 L-1937.6569295707038,1319.2329765769514 L-1937.6033376136609,1319.2792679211614 L-1937.5512109659894,1319.3303539078363 L-1937.500634655228,1319.3861512069348 L-1937.4516911800483,1319.446568803454 L-1937.404460375687,1319.51150814589 L-1937.3590192837185,1319.5808633069933 L-1937.315442026389,1319.6545211565526 L-1937.2737996857088,1319.732361545932 L-1937.2341601875066,1319.8142575040524 L-1937.1965881906297,1319.900075444504 L-1937.1611449814745,1319.9896753834478 L-1937.127888374019,1320.0829111679545 L-1937.0968726155163,1320.1796307144048 L-1937.0681482980094,1320.2796762565636 L-1937.0417622758064,1320.3828846029237 L-1937.0177575890532,1320.4890874029 L-1936.9961733935274,1320.5981114214378 L-1936.9770448967688,1320.7097788215892 L-1936.9604033006494,1320.8239074545959 L-1936.946275750478,1320.940311157004 L-1936.934685290722,1321.0588000543314 L-1936.9256508274168,1321.1791808707821 L-1936.919187097328,1321.3012572445157 L-1936.9153046439121,1321.424830047945 L-1936.9140098001194,1321.5496977125488 " />
			<path d="M-7.069977800106265,1587.0653632847052 L-7.0699819760045735,1617.735746858234 " />
			<path d="M-1936.9140098001199,1321.549697712549 L-1936.914013976018,1352.2200812860779 " />
			<path d="M-7.06998197600457,1617.7357468582343 L-7.071894384208725,1617.888950050471 L-7.077626960163258,1618.0433957335647 L-7.087165893590579,1618.1987118343363 L-7.1004882043645505,1618.3545241826955 L-7.117561797871622,1618.5104574130476 L-7.138345542329564,1618.666135868582 L-7.1627893678775365,1618.8211845062638 L-7.190834387198767,1618.9752298003443 L-7.222413037385259,1619.1279006422171 L-7.257449242702749,1619.2788292344517 L-7.295858597863819,1619.4276519768498 L-7.3375485713676225,1619.5740103423898 L-7.382418728416379,1619.7175517409491 L-7.430360972871597,1619.857930368726 L-7.481259807667138,1619.994808041311 L-7.53499261305177,1620.1278550084012 L-7.591429941990883,1620.2567507481992 L-7.650435832015734,1620.3811847395787 L-7.7118681327689504,1620.5008572101544 L-7.775578848457183,1620.6154798584632 L-7.841414494385939,1620.7247765485056 L-7.909216466717654,1620.8284839749815 L-7.97882142456223,1620.9263522976175 L-8.050061683479544,1621.0181457430515 L-8.122765619445959,1621.1036431728337 L-8.196758082311613,1621.182638616167 L-8.271860817752492,1621.2549417661091 L-8.347892896700696,1621.320378438039 L-8.424671151218416,1621.378790989282 L-8.502010615765535,1621.4300386988862 L-8.579724972797822,1621.4739981066305 L-8.6576270016222,1621.5105633104508 " />
			<path d="M-1936.9140139760182,1352.220081286078 L-1936.9159263842223,1352.3732844783149 L-1936.921658960177,1352.5277301614085 L-1936.9311978936041,1352.6830462621801 L-1936.9445202043783,1352.8388586105393 L-1936.9615937978851,1352.9947918408914 L-1936.982377542343,1353.1504702964257 L-1937.0068213678912,1353.3055189341076 L-1937.0348663872123,1353.4595642281881 L-1937.0664450373988,1353.612235070061 L-1937.1014812427163,1353.7631636622955 L-1937.1398905978774,1353.9119864046936 L-1937.1815805713811,1354.0583447702336 L-1937.2264507284299,1354.201886168793 L-1937.2743929728852,1354.34226479657 L-1937.3252918076807,1354.4791424691548 L-1937.3790246130654,1354.612189436245 L-1937.4354619420044,1354.741085176043 L-1937.4944678320294,1354.8655191674225 L-1937.5559001327827,1354.9851916379982 L-1937.6196108484708,1355.099814286307 L-1937.6854464943995,1355.2091109763494 L-1937.7532484667313,1355.3128184028253 L-1937.822853424576,1355.4106867254613 L-1937.894093683493,1355.5024801708953 L-1937.9667976194596,1355.5879776006775 L-1938.0407900823252,1355.6669730440108 L-1938.115892817766,1355.739276193953 L-1938.1919248967142,1355.8047128658827 L-1938.268703151232,1355.8631254171257 L-1938.3460426157792,1355.91437312673 L-1938.4237569728114,1355.9583325344743 L-1938.5016590016357,1355.9948977382946 " />
			<path d="M-8.65762700162222,1621.5105633104508 L-49.6387033098967,1638.777959718308 " />
			<path d="M-1938.5016590016357,1355.9948977382944 L-1979.4827353099104,1373.2622941461516 " />
			<path d="M-49.6387033098967,1638.7779597183078 L-49.69392230558489,1638.7993471515797 L-49.749074483244684,1638.8169504700966 L-49.804093106212264,1638.8307483730357 L-49.85891159943111,1638.8407241643017 L-49.91346363001088,1638.84686577273 L-49.967683187493236,1638.849165766693 L-50.02150466372754,1638.8476213630922 L-50.07486293225969,1638.8422344307266 " />
			<path d="M-50.074862932259705,1638.8422344307266 L-50.12769342713826,1638.8330114880318 L-50.179932221041966,1638.8199636951913 L-50.23151610263493,1638.8031068406324 L-50.28238265305519,1638.7824613219223 L-50.332470321444376,1638.758052121085 L-50.38171849942713,1638.729908774373 L-50.430067594449945,1638.6980653365263 L-50.47745910189092,1638.6625603395646 " />
			<path d="M-1979.4827353099101,1373.2622941461514 L-1979.5379543055983,1373.2836815794233 L-1979.5931064832582,1373.3012848979401 L-1979.6481251062257,1373.3150828008793 L-1979.7029435994446,1373.3250585921453 L-1979.7574956300243,1373.3312002005737 L-1979.8117151875067,1373.3335001945366 L-1979.865536663741,1373.3319557909358 L-1979.9188949322731,1373.3265688585702 " />
			<path d="M-1979.9188949322731,1373.3265688585702 L-1979.9765077853533,1373.3163158562513 L-1980.0334093941942,1373.30151126994 L-1980.0895177961338,1373.2821764245746 L-1980.144752171066,1373.258339170605 L-1980.1990329578593,1373.230033843876 L-1980.2522819689555,1373.1973012161689 L-1980.3044225029955,1373.1601884364725 L-1980.3553794553018,1373.1187489630686 " />
			<path d="M16.645461381871776,-16.23410011946961 L16.645461381871616,1610.8491905520957 " />
			<path d="M-49.638700782601234,48.57690931628018 L-49.63870078260126,383.1091847537812 " />
			<path d="M-49.63870078260127,443.02130543098576 L-49.638700782601305,777.5536188559788 " />
			<path d="M-49.63870078260131,837.4657395331833 L-49.63870078260134,1171.9980529581762 " />
			<path d="M-49.63870078260135,1231.9101736353807 L-49.63870078260138,1578.8658323459256 " />
			<path d="M-49.63870078260139,1638.7779586534307 L-49.63870078260139,1638.778054480955 " />
			<path d="M21.01148403941191,-16.520795044316756 L21.01148403941175,1610.5624956272484 " />
			<path d="M48.44796733054483,-12.745978533829337 L48.447967330544664,1614.3373121377358 " />
			<path d="M-1970.1975142647987,-275.6598208303018 L-1972.410404832265,1351.5311385654577 " />
			<path d="M-2011.4803525342686,-258.50582276658895 L-2013.6932431017349,1368.6851366291703 " />
			<path d="M-1965.8265173012328,-275.9361760086871 L-1968.039407868699,1351.2547833870722 " />
			<path d="M-1938.4563567813625,-272.10263692050444 L-1940.6692473488288,1355.088322475255 " />
			<path d="M-8.657627470405632,-5.572595052239535 L-1936.8564734665322,-270.86120972193015 " />
			<path d="M-7.069982387891253,-3.135688126509657 L-1936.9140143310283,-268.65065346623766 " />
			<path d="M-7.069977651552589,27.534696669596528 L-1936.9140095946896,-237.98026867013147 " />
			<path d="M-8.657621774808511,31.3095132468755 L-1936.9066217293043,-233.98600178693664 " />
			<path d="M-49.63869808678142,48.57690968718088 L-1936.9377664291735,-211.08456472330465 " />
			<path d="M-8.657624474326784,388.8718015004812 L-1937.3927953829977,123.50902558463292 " />
			<path d="M-7.0699798715849145,391.30870836168185 L-1936.9140118716205,125.79337108761928 " />
			<path d="M-7.0699798715849145,421.97909250939216 L-1936.9140118716205,156.4637552353296 " />
			<path d="M-8.657624474326784,425.7539090198796 L-1937.4429436457624,160.38423351386712 " />
			<path d="M-49.638700782601255,443.02130543098576 L-1937.4740883563215,183.28567843833883 " />
			<path d="M-8.657624474326823,783.3162356026787 L-1937.6629008351772,517.9162975436491 " />
			<path d="M-7.069979871584955,785.7531424638795 L-1936.9140118716205,520.237805189817 " />
			<path d="M-7.069979871584955,816.4235266115896 L-1936.9140118716205,550.9081893375271 " />
			<path d="M-8.657624474326823,820.1983431220772 L-1937.9792661191186,554.75487831494 " />
			<path d="M-49.638700782601305,837.4657395331833 L-1938.0104108296778,577.6563232394117 " />
			<path d="M-8.657624474326866,1177.7606697048761 L-1937.6629008351777,912.3607316458464 " />
			<path d="M-7.069979871584998,1180.1975765660768 L-1936.9140118716205,914.6822392920142 " />
			<path d="M-7.069979871584998,1210.867960713787 L-1936.9140118716205,945.3526234397243 " />
			<path d="M-8.657624474326866,1214.6427772242746 L-1938.5016564743623,949.127439950212 " />
			<path d="M-49.63870078260134,1231.9101736353807 L-1938.5467333030342,972.0269680404845 " />
			<path d="M-8.657621979972358,1584.6284564815235 L-1937.662898187991,1319.2281902881105 " />
			<path d="M-7.069977800106264,1587.0653632847052 L-1936.9140098001194,1321.549697712549 " />
			<path d="M-7.06998197600457,1617.735746858234 L-1936.9140139760177,1352.2200812860779 " />
			<path d="M-8.65762700162222,1621.5105633104508 L-1938.5016590016353,1355.9948977382946 " />
			<path d="M-49.63870330989669,1638.7779597183076 L-1979.48273530991,1373.2622941461514 " />
			<path d="M-50.060322727803126,1639.1603143807513 L-50.060322727803126,1638.8440888011653 " />
			<path d="M-50.06032272780312,1578.8078239112833 L-50.06032272780308,1231.9763024209792 " />
			<path d="M-50.060322727803076,1171.9400445952588 L-50.06032272780305,837.531868318782 " />
			<path d="M-50.06032272780304,777.4956104930615 L-50.060322727803005,443.08743421658454 " />
			<path d="M-50.060322727803,383.05117639086376 L-50.06032272780297,48.64303815594851 " />
			<path d="M50.0603227278028,1615.0062669623792 L50.06032272780296,-12.077023709186 " />
			<path d="M-2014.1215783178206,1369.0689912984333 L-2011.9086877503544,-258.12196809732654 " />
			<path d="M-1939.0685854467154,1355.7572359642634 L-1937.4410570777122,158.99699524693006 " />
			<path d="M-1937.3931527173415,123.77178200920957 L-1936.9011921433735,-237.97850519853182 " />
			<path d="M-1936.8563044798868,-270.98546961310916 L-8.221468074420926,-5.636869796169279 " />
			<path d="M-1936.9379354158182,-210.9603048321256 L-50.07485748276613,48.641184431110624 " />
			<path d="M-1937.3926263962392,123.38476560977261 L-8.221464958361352,388.8075267733876 " />
			<path d="M-1937.4742573430801,183.4099384131991 L-50.07486029856669,443.0855801580793 " />
			<path d="M-1937.928948869595,517.7554104108457 L-8.221464958361393,783.2519608755853 " />
			<path d="M-1938.0105798164366,577.7805832142719 L-50.07486029856673,837.5300142602767 " />
			<path d="M-1938.0654969583968,912.18105770372 L-8.221464958361436,1177.6963949777826 " />
			<path d="M-1938.5469022897926,972.1512280153446 L-50.074860298566776,1231.974448362474 " />
			<path d="M-1938.065494357623,1319.0485161969482 L-8.221462357609346,1584.5641817691044 " />
			<path d="M-1979.9188949322734,1373.3265688585707 L-50.074862932259705,1638.8422344307269 " />

       </g>
    </g>
    
</svg>
