<?xml version="1.0" encoding="UTF-8" standalone="no"?>
<svg
   xmlns:svg="http://www.w3.org/2000/svg"
   xmlns="http://www.w3.org/2000/svg"
   width="480.0"
   height="480.0"

>
    <g transform="scale(0.16618181607040983, -0.16618181607040983)   translate(130.99786839190114,-593.8707809907974)" stroke-width="1.0"  fill="none">
       <!-- hidden lines -->
       <g  stroke="rgb(0,0,0)" fill="none" stroke-dasharray="1.0,1.0" >
			<path d="M-7.928513380257664,6.113612999995425 L68.88335467821045,-2.247915855902285 " />
			<path d="M70.5640770188149,-3.315175609446398 L70.62408140992011,-3.276970853916814 L70.67639962898531,-3.2380439722899967 L70.72089769038601,-3.1984946553168543 L70.75746163572201,-3.1584241877893415 L70.78599782566197,-3.117935189152688 L70.80643317975132,-3.077131350699618 L70.81871536356954,-3.036117170019596 L70.82178836894296,-3.0155640114857243 L70.82281292275712,-2.994997683383168 " />
			<path d="M70.82281292275712,-2.9949976833831644 L70.8206891992713,-2.965390229975701 L70.81432084768977,-2.9358220753458353 L70.80371632089864,-2.9063324661088297 L70.78888969457455,-2.8769605446245117 L70.76986064850159,-2.8477452970425565 L70.74665444044979,-2.8187255015551096 L70.71930187264981,-2.78993967692544 L70.6878392509083,-2.761426031360939 L70.65230833641822,-2.7332224117983244 L70.61275629032802,-2.7053662536683794 L70.56923561114348,-2.677894531206881 L70.5218040650449,-2.650843708377696 L70.47052460921255,-2.6242496904731714 L70.41546530826184,-2.59814777645606 L70.29430441791958,-2.5475581440344843 L70.15896446112812,-2.4993433179605655 L70.0101637610579,-2.45375920068579 L69.84869208440581,-2.4110477320512684 L69.6754064496715,-2.371435605180676 L69.49122657849136,-2.3351330632958653 L69.29713001417288,-2.3023327838410994 L69.0941469333376,-2.273208855838478 L68.88335467821048,-2.2479158559022885 " />
			<path d="M-70.5640770188149,2.6748197573199266 L-70.50081776455204,2.6396615743798564 L-70.43104892157545,2.605307105141432 L-70.35492829589927,2.571834053944122 L-70.27262806025878,2.5393181315001283 L-70.18433436468311,2.5078328836488053 L-70.09024691545345,2.4774495250076844 L-69.99057852339925,2.448236777896348 L-69.88555462255407,2.4202607168974826 L-69.77541276025961,2.3935846194066963 L-69.66040205987153,2.368268822509121 L-69.54078265728197,2.344370586506537 L-69.4168251125337,2.321943965403684 L-69.28880979785632,2.301039684646711 L-69.15702626350891,2.281705026390293 L-69.02177258286349,2.2639837225529247 L-68.88335467821047,2.2479158559022863 " />
			<path d="M-68.88335467821045,2.247915855902285 L53.91442133220208,-11.119512557237721 " />
			<path d="M53.914421332202075,-11.119512557237721 L54.06026069872802,-11.1343230506611 L54.20878548094529,-11.147298078749534 L54.35963786964428,-11.158406383523882 L54.51245444820752,-11.167621204104966 L54.8225037358317,-11.180286210497096 L55.13594739968782,-11.18517112699097 L55.44976680594722,-11.182228909170384 L55.76093970217647,-11.17148789220133 L55.91459543227965,-11.163222248091508 L56.06646932328049,-11.153051517948859 L56.21619549767298,-11.141000203953151 L56.36341325198855,-11.127097338775368 L56.507767925762295,-11.111376415635473 L56.648911755941135,-11.093875307614297 L56.78650471467542,-11.07463617641398 L56.92021532847583,-11.053705370786735 L57.049721476762066,-11.031133314876637 L57.1747111678795,-11.006974386743453 L57.29488329071443,-10.981286787361128 L57.40994834009712,-10.954132400406543 L57.51962911424508,-10.925576643176313 L57.623661382566496,-10.895688308990797 L57.721794522214836,-10.864539401464954 L57.81379212186123,-10.832204961045338 L57.899432551230106,-10.798762884231083 L57.97850949502589,-10.76429373591441 L58.050832449964645,-10.728880555292761 L58.11622718371319,-10.69260865582008 " />
			<path d="M70.5640770188149,-3.3151756094463978 L58.1162271837132,-10.692608655820077 " />
			<path d="M865.81453332142,525.1379490928474 L865.8779737079748,525.1023734742179 L865.9480674917929,525.0676225113634 L866.0246528713175,525.0337764219522 L866.1075530600637,525.0009133348806 L866.1965766947054,524.9691091099231 L866.2915182768107,524.9384371626217 L866.3921586472051,524.9089682948156 L866.4982654918696,524.880770531206 L866.6095938782049,524.8539089623303 L866.7258868204239,524.8284455943096 L866.8468758727656,524.8044392057171 L866.9722817491659,524.7819452118953 L867.1018149679481,524.7610155370382 L867.2351765200517,524.7416984943312 L867.3720585592513,524.7240386744272 L867.5121451127768,524.7080768425153 " />
			<path d="M867.5121451127769,524.7080768425154 L943.5699014083219,516.5962230934857 " />
			<path d="M943.5699014083218,516.5962230934857 L943.7159850736551,516.5817083210198 L943.8647236790546,516.5690390521773 L944.0157589001916,516.5582458083366 L944.1687268799894,516.5493545913672 L944.4789832941166,516.5373592831737 L944.7925049825643,516.533168648972 L945.1062725600847,516.5368230468604 L945.4172642733832,516.5482872829893 L945.5707814011935,516.5569165021004 L945.7224851022556,516.567450950498 L945.8720099090664,516.5798652497735 L946.0189956032691,516.5941294927924 L946.1630880834523,516.610209315744 L946.3039402182098,516.6280659809262 L946.4412126824121,516.6476564700687 L946.5745747746693,516.6689335879671 L946.7037052140198,516.6918460761808 L946.8282929139249,516.7163387365189 L946.9480377317028,516.7423525640171 L947.0626511915992,516.7698248890865 L947.1718571797501,516.7986895284898 L947.2753926093649,516.8288769447825 L947.3730080545248,516.8603144138344 L947.4644683510726,516.8929262000291 L947.5495531631427,516.9266337387172 L947.6280575139704,516.9613558254856 L947.6997922796983,516.9970088117859 L947.7645846449926,517.0335068064514 " />
			<path d="M960.0899254456248,524.4550076665311 L947.7645846449926,517.0335068064513 " />
			<path d="M-7.0380232270739,6.0166398499195175 L68.88335625409564,-2.247952895197871 " />
			<path d="M868.5264016194724,524.9346373042993 L944.447781100642,516.6700445591819 " />
			<path d="M71.8246201317891,-5.663184236338677 L71.82107726109099,-5.5109314950606585 L71.81045716264684,-5.358274207301312 L71.79278542120402,-5.2055801378380515 L71.76810460953551,-5.053217140058632 L71.73647418587842,-4.9015522697701295 L71.69797035069384,-4.750950900929341 L71.65268586309325,-4.6017758454249265 L71.60072981737376,-4.454386479031787 L71.54222738020029,-4.309137875643348 L71.47731948906822,-4.166379951867447 L71.40616251277254,-4.0264566240465784 L71.32892787470176,-3.8897049797332977 L71.24580163986396,-3.756454465616785 L71.15698406663984,-3.627026093856915 L71.06268912434281,-3.5017316687378415 L70.96314397774813,-3.380873035504173 L70.85858843983306,-3.264741353189335 L70.74927439404642,-3.1536163931879586 L70.63546518749932,-3.0477658652620843 L70.5174349965388,-2.9474447726048956 L70.39546816623313,-2.8528947975156944 L70.26985852535954,-2.7643437191660705 L70.140908678545,-2.682004864859925 L70.00892927726518,-2.6060765961093155 L69.87423827145777,-2.5367418307641914 L69.7371601435533,-2.474167602347278 L69.59802512676852,-2.4185046576556863 L69.45716840954566,-2.3698870935986776 L69.3149293280541,-2.32843203414646 L69.17165054869982,-2.2942393481682886 L69.02767724261203,-2.267391408839609 L68.88335625409566,-2.2479528951978693 " />
			<path d="M947.3890449783356,513.2548132180411 L947.3855021076374,513.4070659593191 L947.3748820091934,513.5597232470785 L947.3572102677505,513.7124173165417 L947.3325294560819,513.8647803143211 L947.3008990324249,514.0164451846097 L947.2623951972403,514.1670465534504 L947.2171107096398,514.3162216089548 L947.1651546639202,514.463610975348 L947.1066522267467,514.6088595787364 L947.0417443356147,514.7516175025123 L946.970587359319,514.8915408303332 L946.8933527212482,515.0282924746465 L946.8102264864104,515.161542988763 L946.7214089131863,515.2909713605229 L946.6271139708892,515.4162657856419 L946.5275688242946,515.5371244188756 L946.4230132863795,515.6532561011904 L946.3136992405929,515.7643810611918 L946.1998900340458,515.8702315891177 L946.0818598430852,515.9705526817748 L945.9598930127796,516.065102656864 L945.834283371906,516.1536537352138 L945.7053335250915,516.2359925895198 L945.5733541238117,516.3119208582705 L945.4386631180042,516.3812556236156 L945.3015849900997,516.4438298520325 L945.162449973315,516.4994927967241 L945.0215932560922,516.5481103607812 L944.8793541746006,516.5895654202333 L944.7360753952463,516.6237581062115 L944.5921020891585,516.6506060455401 L944.4477811006421,516.6700445591819 " />
			<path d="M-7.038023227073894,6.01663984991952 L-7.146090780882865,6.02631397400096 L-7.254012398272688,6.031795408240059 L-7.361642339604874,6.033076750391892 L-7.468835259126463,6.030156270104872 L-7.575446401248005,6.023037911257449 L-7.681331796024578,6.011731286632218 L-7.786348453575849,5.996251664934606 L-7.890354557182638,5.976619950173699 L-7.993209654799223,5.952862653433014 L-8.094774848722752,5.925011857069379 L-8.19491298316365,5.893105171388233 L-8.293488829463701,5.857185683853877 L-8.39036926871169,5.817301900903248 L-8.485423471510003,5.773507682441796 L-8.578523074649418,5.725862169109929 L-8.66954235445349,5.67442970241825 " />
			<path d="M868.5264016194726,524.9346373042994 L868.4183340656637,524.9443114283808 L868.3104124482738,524.9497928626199 L868.2027825069416,524.9510742047718 L868.09558958742,524.9481537244848 L867.9889784452985,524.9410353656374 L867.8830930505219,524.9297287410121 L867.7780763929707,524.9142491193145 L867.6740702893638,524.8946174045536 L867.5712151917472,524.870860107813 L867.4696499978237,524.8430093114492 L867.3695118633829,524.8111026257682 L867.2709360170828,524.7751831382337 L867.1740555778348,524.7352993552831 L867.0790013750365,524.6915051368217 L866.985901771897,524.6438596234898 L866.894882492093,524.5924271567982 " />
			<path d="M866.894882492093,524.5924271567982 L866.8205020736438,524.5465901484444 L866.7477306116771,524.4981999675807 L866.6766367421984,524.4473022544711 L866.6072875189548,524.3939450144132 L866.5397483501919,524.3381785724621 L866.4740829369626,524.2800555259644 L866.4103532130464,524.2196306949501 L866.3486192865344,524.1569610704281 L866.2889393831375,524.0921057606336 L866.2313697912697,524.0251259352788 L866.1759648089583,523.9560847678597 L866.1227766926311,523.8850473760723 L866.0718556078303,523.8120807603957 L866.0232495818975,523.7372537408987 L865.9770044586753,523.660636892331 L865.9331638552692,523.5823024775591 L865.8917691209089,523.5023243794097 L865.8528592979486,523.4207780309857 L865.8164710850441,523.3377403445198 L865.7826388025389,523.2532896388327 L865.7513943600948,523.1675055654657 L865.7227672265948,523.080469033555 L865.6967844023497,522.9922621335203 L865.6734703936322,522.9029680596402 L865.6528471895623,522.8126710315852 L865.6349342413687,522.7214562149837 L865.6197484440424,522.6294096410969 L865.6073041204027,522.5366181256762 L865.5976130075868,522.4431691870808 L865.5906842459812,522.3491509637331 L865.5865243705997,522.254652130989 L865.5851373049204,522.1597618175019 " />
			<path d="M865.5851373049204,522.1597618175018 L865.5851361430877,505.69707141249194 " />
			<path d="M865.6033072240177,491.2506152794661 L865.6212320278488,491.1087711025706 L865.645199806686,490.9672746322234 L865.6751607056749,490.8264201921483 L865.7110524038026,490.68650077059624 L865.7528002435299,490.5478074109063 L865.8003173860856,490.41062860611294 L865.8535049920969,490.2752496988582 L865.912252427184,490.1419522878563 L865.9764374920875,490.0110136421467 L866.0459266768529,489.8827061243522 L866.1205754385414,489.75729662414415 L866.2002285018912,489.6350460030905 L866.2847201823009,489.5162085520436 L866.373874730468,489.4010314621952 L866.4675066979597,489.28975431089947 L866.5654213229615,489.1826085633335 L866.6674149353959,489.0798170910314 L866.7732753805727,488.9815937082944 L866.8827824604873,488.88814272743997 L866.9957083918495,488.7996585338167 L867.1118182798908,488.71632518146697 L867.2308706069638,488.63831601028085 L867.3526177349177,488.56579328543495 L867.4768064202052,488.49890785986855 L867.603178340649,488.43779886049765 L867.7314706327718,488.3825933988198 L867.8614164385726,488.33340630651264 L867.9927454606134,488.29033989657484 L868.1251845242577,488.253483750507 L868.2584581458959,488.2229145319752 L868.3922891059724,488.19869582734475 L868.5263990256241,488.1808780134152 " />
			<path d="M868.5263990256241,488.1808780134153 L944.4477785067937,479.9162852682979 " />
			<path d="M70.51487278762683,-38.65950203858073 L70.58925320607602,-38.61366503022693 L70.66202466804269,-38.56527484936332 L70.73311853752142,-38.51437713625363 L70.80246776076507,-38.46101989619578 L70.87000692952796,-38.405253454244665 L70.93567234275713,-38.34713040774694 L70.99940206667335,-38.286705576732686 L71.06113599318542,-38.22403595221069 L71.12081589658229,-38.159180642416146 L71.17838548845006,-38.09220081706136 L71.23379047076155,-38.023159649642274 L71.28697858708873,-37.952122257854924 L71.33789967188945,-37.879155642178276 L71.38650569782227,-37.80432862268127 L71.43275082104446,-37.72771177411362 L71.47659142445058,-37.64937735934174 L71.51798615881098,-37.56939926119235 L71.55689598177122,-37.48785291276835 L71.59328419467572,-37.404815226302375 L71.62711647718086,-37.32036452061535 L71.65836091962508,-37.234580447248355 L71.68698805312506,-37.147543915337536 L71.71297087737001,-37.059337015302894 L71.73628488608759,-36.97004294142285 L71.75690809015752,-36.87974591336775 L71.77482103835118,-36.78853109676627 L71.79000683567735,-36.69648452287951 L71.80245115931717,-36.60369300745878 L71.81214227213303,-36.51024406886337 L71.81907103373865,-36.41622584551571 L71.82323090912008,-36.32172701277167 L71.82461797479935,-36.22683669928444 " />
			<path d="M944.4477785067935,479.91628526829777 L944.5558460606024,479.90661114421636 L944.6637676779923,479.9011297099772 L944.7713976193245,479.8998483678254 L944.8785905388461,479.90276884811243 L944.9852016809676,479.90988720695987 L945.0910870757442,479.9211938315851 L945.1961037332954,479.9366734532827 L945.3001098369023,479.95630516804357 L945.4029649345189,479.9800624647843 L945.5045301284424,480.0079132611479 L945.6046682628833,480.0398199468291 L945.7032441091833,480.0757394343634 L945.8001245484313,480.11562321731407 L945.8951787512297,480.1594174357755 L945.9882783543691,480.20706294910735 L946.0792976341731,480.258495415799 " />
			<path d="M946.0792976341731,480.2584954157991 L946.1536780526224,480.30433242415285 L946.226449514589,480.3527226050165 L946.2975433840677,480.4036203181262 L946.3668926073113,480.456977558184 L946.4344317760742,480.5127440001351 L946.5000971893035,480.5708670466328 L946.5638269132197,480.63129187764713 L946.6255608397317,480.6939615021691 L946.6852407431286,480.75881681196364 L946.7428103349964,480.82579663731843 L946.7982153173078,480.8948378047375 L946.851403433635,480.96587519652485 L946.9023245184358,481.0388418122015 L946.9509305443686,481.11366883169853 L946.9971756675908,481.1902856802662 L947.0410162709969,481.26862009503805 L947.0824110053572,481.34859819318746 L947.1213208283175,481.4301445416114 L947.157709041222,481.5131822280774 L947.1915413237272,481.59763293376443 L947.2227857661713,481.6834170071314 L947.2514128996713,481.77045353904225 L947.2773957239164,481.8586604390769 L947.3007097326339,481.9479545129569 L947.3213329367038,482.038251541012 L947.3392458848974,482.1294663576135 L947.3544316822237,482.2215129315003 L947.3668760058634,482.314304446921 L947.3765671186793,482.4077533855164 L947.383495880285,482.5017716088641 L947.3876557556664,482.5962704416081 L947.3890428213457,482.6911607550953 " />
			<path d="M71.82462013178912,-5.663184236338678 L71.82461797479937,-36.22683669928443 " />
			<path d="M947.3890449783354,513.2548132180411 L947.3890428213457,482.6911607550953 " />
			<path d="M-7.0380248012811215,-387.0550903696916 L68.88335467821047,-395.3196830861988 " />
			<path d="M868.5264001506349,131.8632777371048 L944.4477796301265,123.59868502059759 " />
			<path d="M71.82461877426823,-398.73491429753994 L71.82107589285238,-398.5826615625778 L71.81045578371646,-398.43000428112185 L71.7927840316336,-398.2773102179342 L71.76810320940244,-398.1249472263876 L71.7364727752855,-397.973282362274 L71.69796892976908,-397.8226809995354 L71.65268443198956,-397.67350595004575 L71.60072837626855,-397.52611658956545 L71.5422259292951,-397.3808679919736 L71.47731802858816,-397.2381100738642 L71.4061610429658,-397.09818675156606 L71.32892639583902,-396.9614351126184 L71.24580015223768,-396.8281846036975 L71.15698257056363,-396.69875623695066 L71.0626876201506,-396.57346181664997 L70.96314246579344,-396.45260318802855 L70.85858692048808,-396.33647151010854 L70.74927286770117,-396.22534655427415 L70.63546365456064,-396.1194960302773 L70.51743345742946,-396.0191749413016 L70.39546662139075,-395.9246249696377 L70.26985697523556,-395.83607389444876 L70.14090712360357,-395.7537350430312 L70.00892771798205,-395.67780677689 L69.87423670831916,-395.6084720138689 L69.73715857705473,-395.54589778748505 L69.59802355741358,-395.49023484453056 L69.45716683784484,-395.44161728191057 L69.31492775452354,-395.40016222359185 L69.17164897386004,-395.3659695384409 L69.02767566698674,-395.3391215996311 L68.88335467821047,-395.3196830861988 " />
			<path d="M947.3890437261842,120.18345380925645 L947.3855008447683,120.33570654421855 L947.3748807356325,120.48836382567453 L947.3572089835496,120.64105788886215 L947.3325281613185,120.79342088040877 L947.3008977272015,120.94508574452236 L947.262393881685,121.09568710726096 L947.2171093839055,121.24486215675063 L947.1651533281845,121.39225151723096 L947.1066508812111,121.53750011482276 L947.0417429805042,121.68025803293216 L946.9705859948817,121.82018135523033 L946.893351347755,121.956932994178 L946.8102251041537,122.09018350309893 L946.7214075224796,122.21961186984575 L946.6271125720666,122.3449062901464 L946.5275674177094,122.46576491876785 L946.423011872404,122.58189659668781 L946.3136978196171,122.69302155252224 L946.1998886064766,122.79887207651913 L946.0818584093455,122.89919316549476 L945.9598915733068,122.99374313715869 L945.8342819271516,123.0822942123476 L945.7053320755196,123.1646330637652 L945.573352669898,123.24056132990637 L945.4386616602352,123.30989609292746 L945.3015835289707,123.37247031931135 L945.1624485093296,123.42813326226583 L945.0215917897608,123.4767508248858 L944.8793527064395,123.51820588320454 L944.736073925776,123.55239856835551 L944.5921006189027,123.57924650716527 L944.4477796301264,123.59868502059761 " />
			<path d="M-7.038024801281115,-387.0550903696915 L-7.1460924060275275,-387.0454162419792 L-7.254014073853006,-387.03993480790575 L-7.361644064913115,-387.0386534697229 L-7.468837033250273,-387.0415739577784 L-7.575448223072204,-387.0486923281797 L-7.681333664233402,-387.05999896811943 L-7.7863503666556575,-387.0754786088571 L-7.890356513425066,-387.0951103463381 L-7.993211652304779,-387.1188676694232 L-8.094776885404857,-387.14671849568964 L-8.194915056753098,-387.178625214756 L-8.293490937513544,-387.21454473907215 L-8.390371408602546,-387.2544285621056 L-8.485425640455752,-387.2982228238459 L-8.578525269703299,-387.3458683835382 L-8.66954457251458,-387.3973008995484 " />
			<path d="M868.5264001506349,131.86327773710485 L868.4183325458885,131.87295186481717 L868.3104108780631,131.87843329889063 L868.2027808870029,131.8797146370735 L868.0955879186657,131.87679414901797 L867.9889767288438,131.86967577861668 L867.8830912876826,131.85836913867695 L867.7780745852604,131.84288949793927 L867.674068438491,131.82325776045826 L867.5712132996113,131.79950043737315 L867.4696480665111,131.77164961110674 L867.3695098951629,131.73974289204037 L867.2709340144024,131.70382336772423 L867.1740535433134,131.66393954469075 L867.0789993114603,131.6201452829505 L866.9858996822127,131.57249972325823 L866.8948803794015,131.52106720724802 " />
			<path d="M866.8948803794015,131.521067207248 L866.8329187498632,131.48313156882347 L866.7720615955847,131.4434252893148 L866.7123486071238,131.40197426484545 L866.6538187288221,131.35880552944778 L866.5965101334064,131.3139472374318 L866.540460197092,131.2674286450229 L866.485705475207,131.2192800912815 L866.4322816783507,131.16953297831594 L866.3802236491034,131.11821975080227 L866.3295653393028,131.06537387482425 L866.2803397879002,131.01102981604677 L866.2325790994136,130.9552230172379 L866.1863144229883,130.89798987515323 L866.1415759320829,130.83936771679817 L866.0983928047896,130.7793947750837 L866.0567932048045,130.718110163891 " />
			<path d="M866.0995566764658,96.72009871762539 L866.1510568639532,96.63786769267257 L866.2047411868664,96.55707725828621 L866.2605602823063,96.47780170151813 L866.3184628244435,96.40011391648554 L866.3783955717132,96.32408533734467 L866.440303415771,96.24978587260684 L866.5041294321645,96.17728384085741 L866.5698149326763,96.1066459079366 L866.6372995192875,96.03793702564 L866.7065211397139,95.97122037199534 L866.7774161444637,95.90655729316991 L866.849919345363,95.84400724706269 L866.9239640754964,95.78362774863265 L866.999482250508,95.72547431701346 L867.0764044312044,95.66960042446361 L867.154659887405,95.61605744719836 L867.2341766629783,95.56489461814927 L867.3148816420055,95.51615898169435 L867.3967006160112,95.46989535040052 L867.4795583521985,95.42614626381845 L867.563378662625,95.3849519493672 L867.6480844742588,95.34635028534508 L867.7335978998466,95.31037676610036 L867.8198403095316,95.27706446939412 L867.9067324031543,95.24644402598521 L867.9941942831682,95.2185435914651 L868.0821455281069,95.19338882036878 L868.1705052665316,95.1710028425853 L868.2591922513919,95.15140624208978 L868.348124934734,95.13461703801637 L868.4372215426829,95.12065066808965 L868.5264001506349,95.10951997442952 " />
			<path d="M868.5264001506349,95.10951997442949 L944.4477796301265,86.84492725792227 " />
			<path d="M70.51487444944392,-431.73123031901724 L70.58925482900918,-431.6853933028936 L70.66202625222577,-431.6370031161942 L70.7331200831637,-431.5861053991626 L70.80246926815008,-431.5327481570731 L70.87000839901236,-431.47698171495415 L70.93567377476936,-431.4188586701228 L70.99940346171228,-431.35843384257646 L71.06113735181873,-431.2957642232884 L71.120817219445,-431.23090892045553 L71.17838677624277,-431.16392910374884 L71.23379172424868,-431.0948879466205 L71.28697980709657,-431.0238505667199 L71.33790085930433,-430.9508839644769 L71.38650685358839,-430.8760569599088 L71.43275194616182,-430.79944012771136 L71.47659251997275,-430.72110573069466 L71.5179872258429,-430.6411276516268 L71.55689702146674,-430.55958132355005 L71.59328520823526,-430.4765436586343 L71.62711746584893,-430.3920929756359 L71.6583618846877,-430.3063089260293 L71.68698899590719,-430.2192724188826 L71.71297179923289,-430.13106554454595 L71.73628578842609,-430.0417714972264 L71.75690897439736,-429.9514744965217 L71.77482190594615,-429.8602597079865 L71.7900076881065,-429.7682131628066 L71.80245199808196,-429.67542167665727 L71.81214309875446,-429.5819727678207 L71.81907184975434,-429.48795457464115 L71.82323171608134,-429.3934557723961 L71.82461877426823,-429.29856548965944 " />
			<path d="M944.4477796301264,86.84492725792227 L944.5558472348729,86.83525313020995 L944.6637689026983,86.8297716961365 L944.7713988937585,86.82849035795361 L944.8785918620956,86.83141084600915 L944.9852030519176,86.83852921641044 L945.0910884930787,86.8498358563502 L945.196105195501,86.86531549708786 L945.3001113422704,86.88494723456888 L945.4029664811501,86.90870455765398 L945.5045317142502,86.93655538392039 L945.6046698855985,86.96846210298675 L945.7032457663589,87.0043816273029 L945.8001262374479,87.04426545033637 L945.8951804693011,87.08805971207663 L945.9882800985487,87.1357052717689 L946.0792994013599,87.18713778777911 " />
			<path d="M946.0792994013599,87.18713778777912 L946.1536797809251,87.2329748039028 L946.2264512041418,87.28136499060216 L946.2975450350797,87.3322627076338 L946.3668942200661,87.38561994972326 L946.4344333509283,87.44138639184222 L946.5000987266853,87.4995094366736 L946.5638284136282,87.55993426421993 L946.6255623037347,87.62260388350796 L946.685242171361,87.68745918634087 L946.7428117281588,87.75443900304752 L946.7982166761647,87.82348016017589 L946.8514047590126,87.89451754007649 L946.9023258112203,87.96748414231949 L946.9509318055044,88.04231114688756 L946.9971768980778,88.11892797908499 L947.0410174718887,88.19726237610172 L947.0824121777589,88.27724045516956 L947.1213219733827,88.35878678324633 L947.1577101601513,88.44182444816207 L947.1915424177649,88.52627513116053 L947.2227868366036,88.61205918076708 L947.2514139478232,88.69909568791377 L947.2773967511489,88.78730256225043 L947.3007107403421,88.87659660956994 L947.3213339263134,88.96689361027467 L947.3392468578621,89.05810839880994 L947.3544326400224,89.15015494398978 L947.366876949998,89.24294643013909 L947.3765680506705,89.33639533897573 L947.3834968016703,89.4304135321552 L947.3876566679974,89.52491233440027 L947.3890437261842,89.61980261713695 " />
			<path d="M71.82461877426826,-398.7349142975399 L71.82461877426826,-429.29856548965944 " />
			<path d="M947.3890437261842,120.18345380925648 L947.3890437261842,89.61980261713695 " />
			<path d="M-7.0380248012811,-780.126857599988 L68.8833546782105,-788.3914503164953 " />
			<path d="M868.5264001506349,-261.2084894931917 L944.4477796301265,-269.4730822096989 " />
			<path d="M71.82461877426826,-791.8066815278364 L71.8210758928524,-791.6544287928743 L71.81045578371649,-791.5017715114183 L71.79278403163363,-791.3490774482307 L71.76810320940247,-791.196714456684 L71.73647277528553,-791.0450495925705 L71.6979689297691,-790.8944482298319 L71.65268443198958,-790.7452731803422 L71.60072837626858,-790.5978838198619 L71.54222592929513,-790.4526352222701 L71.47731802858819,-790.3098773041606 L71.40616104296583,-790.1699539818625 L71.32892639583905,-790.0332023429148 L71.2458001522377,-789.8999518339939 L71.15698257056366,-789.7705234672471 L71.06268762015063,-789.6452290469465 L70.96314246579347,-789.524370418325 L70.85858692048811,-789.4082387404051 L70.7492728677012,-789.2971137845706 L70.63546365456067,-789.1912632605737 L70.51743345742949,-789.090942171598 L70.39546662139078,-788.9963921999341 L70.26985697523558,-788.9078411247452 L70.1409071236036,-788.8255022733276 L70.00892771798208,-788.7495740071865 L69.87423670831919,-788.6802392441654 L69.73715857705476,-788.6176650177815 L69.59802355741361,-788.562002074827 L69.45716683784487,-788.513384512207 L69.31492775452357,-788.4719294538883 L69.17164897386007,-788.4377367687373 L69.02767566698677,-788.4108888299276 L68.8833546782105,-788.3914503164953 " />
			<path d="M947.3890437261842,-272.88831342104004 L947.3855008447683,-272.7360606860779 L947.3748807356325,-272.58340340462195 L947.3572089835496,-272.4307093414343 L947.3325281613185,-272.27834634988767 L947.3008977272015,-272.1266814857741 L947.262393881685,-271.9760801230355 L947.2171093839055,-271.82690507354584 L947.1651533281845,-271.67951571306554 L947.1066508812111,-271.5342671154737 L947.0417429805042,-271.3915091973643 L946.9705859948817,-271.25158587506616 L946.893351347755,-271.1148342361185 L946.8102251041537,-270.9815837271976 L946.7214075224796,-270.85215536045075 L946.6271125720666,-270.72686094015006 L946.5275674177094,-270.60600231152864 L946.423011872404,-270.48987063360863 L946.3136978196171,-270.37874567777425 L946.1998886064766,-270.27289515377737 L946.0818584093455,-270.1725740648017 L945.9598915733068,-270.0780240931378 L945.8342819271516,-269.98947301794885 L945.7053320755196,-269.9071341665313 L945.573352669898,-269.8312059003901 L945.4386616602352,-269.761871137369 L945.3015835289707,-269.69929691098514 L945.1624485093296,-269.64363396803066 L945.0215917897608,-269.59501640541066 L944.8793527064395,-269.55356134709194 L944.736073925776,-269.519368661941 L944.5921006189027,-269.4925207231312 L944.4477796301264,-269.4730822096989 " />
			<path d="M-7.038024801281095,-780.126857599988 L-7.146092406027507,-780.1171834722758 L-7.254014073852986,-780.1117020382023 L-7.361644064913094,-780.1104207000194 L-7.468837033250253,-780.113341188075 L-7.575448223072184,-780.1204595584762 L-7.681333664233382,-780.131766198416 L-7.786350366655637,-780.1472458391536 L-7.890356513425045,-780.1668775766346 L-7.993211652304758,-780.1906348997197 L-8.094776885404837,-780.2184857259862 L-8.194915056753077,-780.2503924450525 L-8.293490937513525,-780.2863119693686 L-8.390371408602526,-780.3261957924021 L-8.48542564045573,-780.3699900541424 L-8.57852526970328,-780.4176356138347 L-8.669544572514559,-780.4690681298449 " />
			<path d="M868.5264001506349,-261.2084894931917 L868.4183325458885,-261.19881536547933 L868.3104108780631,-261.1933339314059 L868.2027808870029,-261.192052593223 L868.0955879186657,-261.19497308127853 L867.9889767288438,-261.20209145167985 L867.8830912876826,-261.2133980916196 L867.7780745852604,-261.22887773235726 L867.674068438491,-261.24850946983827 L867.5712132996113,-261.27226679292335 L867.4696480665111,-261.3001176191898 L867.3695098951629,-261.33202433825613 L867.2709340144024,-261.3679438625723 L867.1740535433134,-261.40782768560575 L867.0789993114603,-261.45162194734604 L866.9858996822127,-261.4992675070383 L866.8948803794015,-261.55070002304853 " />
			<path d="M866.8948803794015,-261.55070002304853 L866.8051034870653,-261.6064748466216 L866.7177023015431,-261.6659721212977 L866.6327974525886,-261.7291097298661 L866.5505061245501,-261.7958005307839 " />
			<path d="M866.5947754143814,-296.9909744473167 L866.6960037622842,-297.090644326778 L866.8009018774164,-297.1858564039265 L866.9092594492313,-297.27641978778206 L867.0208592313068,-297.3621529075438 L867.1354774769038,-297.4428838766218 L867.2528843875567,-297.51845083725317 L867.372844573797,-297.5887022850109 L867.495117527086,-297.65349737255605 L867.6194581020115,-297.71270619202244 L867.7456170077809,-297.76621003546967 L867.8733413080238,-297.813901632881 L868.0023749279062,-297.85568536722917 L868.1324591675353,-297.8914774661794 L868.2633332206274,-297.92120617004474 L868.3947346973994,-297.94481187565736 L868.5264001506349,-297.96224725586694 " />
			<path d="M868.5264001506349,-297.96224725586706 L944.4477796301265,-306.22683997237425 " />
			<path d="M70.51487444944395,-824.8029975493137 L70.5892548290092,-824.75716053319 L70.6620262522258,-824.7087703464906 L70.73312008316373,-824.657872629459 L70.8024692681501,-824.6045153873696 L70.87000839901239,-824.5487489452506 L70.93567377476938,-824.4906259004192 L70.9994034617123,-824.4302010728728 L71.06113735181876,-824.3675314535849 L71.12081721944503,-824.302676150752 L71.1783867762428,-824.2356963340453 L71.2337917242487,-824.166655176917 L71.2869798070966,-824.0956177970163 L71.33790085930436,-824.0226511947733 L71.38650685358841,-823.9478241902052 L71.43275194616184,-823.8712073580078 L71.47659251997278,-823.7928729609911 L71.51798722584293,-823.7128948819233 L71.55689702146677,-823.6313485538465 L71.59328520823529,-823.5483108889307 L71.62711746584895,-823.4638602059323 L71.65836188468772,-823.3780761563257 L71.68698899590721,-823.291039649179 L71.71297179923292,-823.2028327748424 L71.73628578842612,-823.1135387275228 L71.75690897439739,-823.0232417268181 L71.77482190594618,-822.9320269382829 L71.79000768810653,-822.839980393103 L71.80245199808199,-822.7471889069537 L71.81214309875449,-822.6537399981171 L71.81907184975437,-822.5597218049376 L71.82323171608137,-822.4652230026925 L71.82461877426826,-822.3703327199559 " />
			<path d="M944.4477796301264,-306.22683997237414 L944.5558472348729,-306.2365141000865 L944.6637689026983,-306.2419955341599 L944.7713988937585,-306.2432768723428 L944.8785918620956,-306.2403563842873 L944.9852030519176,-306.23323801388597 L945.0910884930787,-306.22193137394623 L945.196105195501,-306.20645173320855 L945.3001113422704,-306.18681999572755 L945.4029664811501,-306.16306267264247 L945.5045317142502,-306.135211846376 L945.6046698855985,-306.1033051273097 L945.7032457663589,-306.0673856029935 L945.8001262374479,-306.02750177996006 L945.8951804693011,-305.9837075182198 L945.9882800985487,-305.9360619585275 L946.0792994013599,-305.8846294425173 " />
			<path d="M946.0792994013599,-305.8846294425173 L946.1536797809251,-305.83879242639364 L946.2264512041418,-305.79040223969423 L946.2975450350797,-305.7395045226626 L946.3668942200661,-305.68614728057315 L946.4344333509283,-305.6303808384542 L946.5000987266853,-305.57225779362284 L946.5638284136282,-305.5118329660765 L946.6255623037347,-305.44916334678845 L946.685242171361,-305.38430804395557 L946.7428117281588,-305.3173282272489 L946.7982166761647,-305.2482870701205 L946.8514047590126,-305.1772496902199 L946.9023258112203,-305.1042830879769 L946.9509318055044,-305.02945608340883 L946.9971768980778,-304.9528392512114 L947.0410174718887,-304.8745048541947 L947.0824121777589,-304.7945267751268 L947.1213219733827,-304.7129804470501 L947.1577101601513,-304.6299427821343 L947.1915424177649,-304.5454920991359 L947.2227868366036,-304.45970804952935 L947.2514139478232,-304.37267154238265 L947.2773967511489,-304.284464668046 L947.3007107403421,-304.19517062072646 L947.3213339263134,-304.10487362002175 L947.3392468578621,-304.0136588314865 L947.3544326400224,-303.92161228630664 L947.366876949998,-303.8288208001573 L947.3765680506705,-303.7353718913207 L947.3834968016703,-303.6413536981412 L947.3876566679974,-303.54685489589616 L947.3890437261842,-303.4519646131595 " />
			<path d="M71.82461877426827,-791.8066815278364 L71.82461877426827,-822.370332719956 " />
			<path d="M947.3890437261842,-272.88831342104004 L947.3890437261842,-303.4519646131596 " />
			<path d="M-7.038024801281075,-1173.1986248302842 L68.88335467821051,-1181.4632175467914 " />
			<path d="M868.5264001506349,-654.2802567234878 L944.4477796301265,-662.544849439995 " />
			<path d="M71.82461877426829,-1184.8784487581327 L71.82107589285243,-1184.7261960231706 L71.81045578371652,-1184.5735387417146 L71.79278403163366,-1184.420844678527 L71.7681032094025,-1184.2684816869803 L71.73647277528556,-1184.1168168228667 L71.69796892976913,-1183.966215460128 L71.65268443198961,-1183.8170404106384 L71.6007283762686,-1183.669651050158 L71.54222592929516,-1183.5244024525664 L71.47731802858821,-1183.3816445344569 L71.40616104296586,-1183.2417212121588 L71.32892639583908,-1183.104969573211 L71.24580015223773,-1182.9717190642903 L71.15698257056368,-1182.8422906975434 L71.06268762015065,-1182.7169962772427 L70.9631424657935,-1182.5961376486212 L70.85858692048814,-1182.4800059707013 L70.74927286770122,-1182.368881014867 L70.6354636545607,-1182.26303049087 L70.51743345742952,-1182.1627094018943 L70.39546662139081,-1182.0681594302305 L70.26985697523561,-1181.9796083550416 L70.14090712360363,-1181.8972695036239 L70.0089277179821,-1181.8213412374828 L69.87423670831922,-1181.7520064744617 L69.73715857705479,-1181.6894322480778 L69.59802355741364,-1181.6337693051232 L69.4571668378449,-1181.5851517425033 L69.3149277545236,-1181.5436966841846 L69.1716489738601,-1181.5095039990335 L69.0276756669868,-1181.482656060224 L68.88335467821052,-1181.4632175467914 " />
			<path d="M947.3890437261842,-665.9600806513363 L947.3855008447683,-665.8078279163742 L947.3748807356325,-665.6551706349181 L947.3572089835496,-665.5024765717305 L947.3325281613185,-665.3501135801839 L947.3008977272015,-665.1984487160704 L947.262393881685,-665.0478473533318 L947.2171093839055,-664.8986723038421 L947.1651533281845,-664.7512829433617 L947.1066508812111,-664.60603434577 L947.0417429805042,-664.4632764276605 L946.9705859948817,-664.3233531053623 L946.893351347755,-664.1866014664147 L946.8102251041537,-664.0533509574938 L946.7214075224796,-663.923922590747 L946.6271125720666,-663.7986281704464 L946.5275674177094,-663.6777695418249 L946.423011872404,-663.5616378639049 L946.3136978196171,-663.4505129080704 L946.1998886064766,-663.3446623840736 L946.0818584093455,-663.2443412950979 L945.9598915733068,-663.149791323434 L945.8342819271516,-663.0612402482451 L945.7053320755196,-662.9789013968275 L945.573352669898,-662.9029731306864 L945.4386616602352,-662.8336383676652 L945.3015835289707,-662.7710641412814 L945.1624485093296,-662.7154011983268 L945.0215917897608,-662.6667836357069 L944.8793527064395,-662.6253285773881 L944.736073925776,-662.5911358922372 L944.5921006189027,-662.5642879534274 L944.4477796301264,-662.5448494399951 " />
			<path d="M-7.038024801281069,-1173.1986248302842 L-7.146092406027481,-1173.188950702572 L-7.25401407385296,-1173.1834692684986 L-7.361644064913069,-1173.1821879303156 L-7.468837033250227,-1173.185108418371 L-7.575448223072158,-1173.1922267887724 L-7.681333664233356,-1173.2035334287123 L-7.786350366655611,-1173.2190130694498 L-7.8903565134250195,-1173.238644806931 L-7.9932116523047325,-1173.262402130016 L-8.09477688540481,-1173.2902529562825 L-8.194915056753052,-1173.3221596753488 L-8.293490937513498,-1173.3580791996649 L-8.3903714086025,-1173.3979630226984 L-8.485425640455706,-1173.4417572844386 L-8.578525269703253,-1173.4894028441308 L-8.669544572514534,-1173.540835360141 " />
			<path d="M868.5264001506349,-654.2802567234879 L868.4293515505805,-654.2713775395323 L868.3324086366656,-654.2658785448858 L868.2356769799376,-654.2637657279658 L868.1392619213841,-654.2650413896345 L868.0432684572166,-654.2697041406934 L867.9478011245295,-654.2777489033964 L867.8529638874587,-654.2891669169793 L867.7588600239648,-654.3039457472 L867.6655920133627,-654.3220692998798 L867.5732614247217,-654.3435178384296 L867.4819688062569,-654.368268005344 L867.391813575831,-654.3962928476363 L867.302893912689,-654.4275618461917 L867.2153066505402,-654.4620409490013 L867.1291471721066,-654.4996926082465 L867.0445093052502,-654.540475821187 " />
			<path d="M867.0897189741332,-690.4832742061736 L867.1722947844348,-690.5391003569799 L867.2562480005846,-690.592281627285 L867.3414932247592,-690.6427639207132 L867.4279437448953,-690.6904958863073 L867.5155116228937,-690.7354289707642 L867.6041077840705,-690.777517467823 L867.693642107765,-690.8167185647576 L867.7840235190104,-690.8529923859264 L867.8751600811764,-690.8863020333342 L867.9669590894879,-690.9166136241649 L868.0593271653244,-690.9438963252474 L868.1521703512059,-690.9681223844191 L868.245394206367,-690.9892671587563 L868.3389039028228,-691.0073091396403 L868.4326043218285,-691.0222299746365 L868.5264001506349,-691.0340144861631 " />
			<path d="M868.5264001506349,-691.0340144861632 L944.4477796301265,-699.2986072026704 " />
			<path d="M70.51487444944398,-1217.87476477961 L70.58925482900923,-1217.828927763486 L70.66202625222583,-1217.7805375767869 L70.73312008316375,-1217.729639859755 L70.80246926815013,-1217.6762826176657 L70.87000839901242,-1217.6205161755468 L70.93567377476941,-1217.5623931307152 L70.99940346171233,-1217.501968303169 L71.06113735181879,-1217.439298683881 L71.12081721944506,-1217.374443381048 L71.17838677624283,-1217.3074635643413 L71.23379172424873,-1217.238422407213 L71.28697980709663,-1217.1673850273123 L71.33790085930438,-1217.0944184250695 L71.38650685358844,-1217.0195914205015 L71.43275194616187,-1216.942974588304 L71.47659251997281,-1216.8646401912872 L71.51798722584296,-1216.7846621122194 L71.5568970214668,-1216.7031157841427 L71.59328520823532,-1216.620078119227 L71.62711746584898,-1216.5356274362284 L71.65836188468775,-1216.4498433866218 L71.68698899590724,-1216.362806879475 L71.71297179923295,-1216.2746000051384 L71.73628578842614,-1216.185305957819 L71.75690897439742,-1216.0950089571143 L71.77482190594621,-1216.003794168579 L71.79000768810656,-1215.9117476233992 L71.80245199808202,-1215.8189561372499 L71.81214309875452,-1215.725507228413 L71.8190718497544,-1215.6314890352337 L71.8232317160814,-1215.5369902329887 L71.82461877426829,-1215.442099950252 " />
			<path d="M944.4477796301264,-699.2986072026703 L944.5558472348729,-699.3082813303826 L944.6637689026983,-699.313762764456 L944.7713988937585,-699.3150441026389 L944.8785918620956,-699.3121236145834 L944.9852030519176,-699.3050052441821 L945.0910884930787,-699.2936986042423 L945.196105195501,-699.2782189635047 L945.3001113422704,-699.2585872260237 L945.4029664811501,-699.2348299029386 L945.5045317142502,-699.2069790766722 L945.6046698855985,-699.1750723576058 L945.7032457663589,-699.1391528332897 L945.8001262374479,-699.0992690102562 L945.8951804693011,-699.055474748516 L945.9882800985487,-699.0078291888236 L946.0792994013599,-698.9563966728134 " />
			<path d="M946.0792994013599,-698.9563966728134 L946.1536797809251,-698.9105596566898 L946.2264512041418,-698.8621694699904 L946.2975450350797,-698.8112717529588 L946.3668942200661,-698.7579145108693 L946.4344333509283,-698.7021480687504 L946.5000987266853,-698.644025023919 L946.5638284136282,-698.5836001963726 L946.6255623037347,-698.5209305770846 L946.685242171361,-698.4560752742517 L946.7428117281588,-698.3890954575451 L946.7982166761647,-698.3200543004167 L946.8514047590126,-698.249016920516 L946.9023258112203,-698.176050318273 L946.9509318055044,-698.101223313705 L946.9971768980778,-698.0246064815076 L947.0410174718887,-697.9462720844908 L947.0824121777589,-697.866294005423 L947.1213219733827,-697.7847476773462 L947.1577101601513,-697.7017100124305 L947.1915424177649,-697.617259329432 L947.2227868366036,-697.5314752798255 L947.2514139478232,-697.4444387726787 L947.2773967511489,-697.3562318983421 L947.3007107403421,-697.2669378510226 L947.3213339263134,-697.1766408503179 L947.3392468578621,-697.0854260617826 L947.3544326400224,-696.9933795166028 L947.366876949998,-696.9005880304535 L947.3765680506705,-696.8071391216168 L947.3834968016703,-696.7131209284373 L947.3876566679974,-696.6186221261922 L947.3890437261842,-696.5237318434556 " />
			<path d="M71.82461877426829,-1184.8784487581327 L71.82461877426829,-1215.442099950252 " />
			<path d="M947.3890437261842,-665.9600806513362 L947.3890437261842,-696.5237318434557 " />
			<path d="M-7.038025910453573,-1578.650511787457 L68.88335356903801,-1586.9151045007263 " />
			<path d="M868.5263990414525,-1059.7318165250474 L944.4477785209441,-1067.9964092383168 " />
			<path d="M71.82461785704328,-1590.3303355982648 L71.821074966209,-1590.178082868881 L71.81045484767736,-1590.0254255929897 L71.7927830862441,-1589.8727315353406 L71.76810225473038,-1589.7203685492923 L71.7364718114211,-1589.568703690624 L71.6979679568247,-1589.4181023332646 L71.65268345009945,-1589.2689272890748 L71.60072738558847,-1589.1215379338023 L71.542224930002,-1588.976289341314 L71.47731702087978,-1588.833531428191 L71.40616002706011,-1588.6936081107508 L71.32892537197374,-1588.5568564765201 L71.24579912066973,-1588.4236059721645 L71.15698153156846,-1588.2941776098203 L71.0626865740216,-1588.1688831937486 L70.96314141284111,-1588.0480245691722 L70.85858586103942,-1587.931892895104 L70.74927180209879,-1587.8207679429188 L70.63546258316201,-1587.7149174223593 L70.51743238060601,-1587.6145963366016 L70.39546553952694,-1587.520046367928 L70.26985588872803,-1587.4314952954946 L70.14090603286014,-1587.349156446591 L70.00892662342073,-1587.2732281827166 L69.87423561036718,-1587.2038934217094 L69.73715747614747,-1587.1413191970814 L69.59802245399356,-1587.0856562556212 L69.45716573236062,-1587.0370386942295 L69.31492664742863,-1586.9955836368708 L69.17164786561189,-1586.961390952409 L69.0276745580455,-1586.9345430140158 L68.88335356903802,-1586.9151045007266 " />
			<path d="M947.3890428089493,-1071.411640335855 L947.385499918115,-1071.2593876064711 L947.3748797995834,-1071.10673033058 L947.3572080381501,-1070.9540362729308 L947.3325272066363,-1070.8016732868825 L947.300896763327,-1070.6500084282143 L947.2623929087307,-1070.4994070708549 L947.2171084020055,-1070.350232026665 L947.1651523374944,-1070.2028426713925 L947.106649881908,-1070.0575940789042 L947.0417419727858,-1069.9148361657813 L946.9705849789661,-1069.774912848341 L946.8933503238798,-1069.6381612141104 L946.8102240725757,-1069.5049107097548 L946.7214064834744,-1069.3754823474105 L946.6271115259276,-1069.2501879313388 L946.5275663647471,-1069.1293293067624 L946.4230108129454,-1069.0131976326943 L946.3136967540048,-1068.902072680509 L946.199887535068,-1068.7962221599496 L946.081857332512,-1068.6959010741919 L945.9598904914329,-1068.6013511055182 L945.834280840634,-1068.5128000330849 L945.7053309847661,-1068.4304611841812 L945.5733515753267,-1068.3545329203068 L945.4386605622732,-1068.2851981592996 L945.3015824280535,-1068.2226239346717 L945.1624474058996,-1068.1669609932114 L945.0215906842666,-1068.1183434318198 L944.8793515993347,-1068.076888374461 L944.7360728175179,-1068.0426956899992 L944.5920995099515,-1068.015847751606 L944.447778520944,-1067.9964092383168 " />
			<path d="M-7.03802591045357,-1578.6505117874572 L-7.146093560222724,-1578.6408376565043 L-7.254015272628944,-1578.635356222546 L-7.361645307645765,-1578.6340748878401 L-7.4688383191347505,-1578.636995382731 L-7.575449551124343,-1578.6441137633133 L-7.681335033291748,-1578.655420416758 L-7.786351775383853,-1578.670900074294 L-7.890357960314637,-1578.690531831826 L-7.993213135678312,-1578.714289178166 L-8.094778403419557,-1578.7421400308324 L-8.194916607404746,-1578.7740467793774 L-8.293492518640807,-1578.8099663361745 L-8.390373017891656,-1578.8498501946074 L-8.48542727544555,-1578.893644494572 L-8.57852692779062,-1578.9412900952132 L-8.669546250959971,-1578.9927226547873 " />
			<path d="M868.5263990414524,-1059.7318165250476 L868.4025885723418,-1059.7210821830547 L868.2789975843934,-1059.7158535208462 L868.1558451693519,-1059.7161398073558 L868.0333496414961,-1059.7219405350793 L867.9117281506307,-1059.7332454209723 L867.7911962971403,-1059.7500344246807 L867.6719677497925,-1059.7722777840663 L867.5542538669623,-1059.7999360679657 " />
			<path d="M70.51487618892074,-1623.3266500461525 L70.58925653414003,-1623.2808130231822 L70.66202792312983,-1623.232422831345 L70.73312172002667,-1623.1815251108665 L70.80247087122339,-1623.1281678670005 L70.87000996861198,-1623.0724014247514 L70.9356753112747,-1623.0142783814106 L70.9994049655649,-1622.9538535569463 L71.06113882352112,-1622.8911839423008 L71.12081865955905,-1622.8263286456367 L71.17838818538833,-1622.7593488365887 L71.23379310310193,-1622.69030768857 L71.28698115638845,-1622.6192703191891 L71.33790217981871,-1622.5463037288323 L71.38650814616034,-1622.4714767374714 L71.43275321167566,-1622.3948599197543 L71.47659375936016,-1622.316525538441 L71.51798844008086,-1622.2365474762482 L71.55689821157549,-1622.1550011661643 L71.59328637527614,-1622.071963520304 L71.62711861092221,-1621.9875128573665 L71.65836300893032,-1621.9017288287673 L71.6869901004905,-1621.8146923435143 L71.71297288536029,-1621.7264854918958 L71.73628685733058,-1621.6371914680562 L71.75691002733926,-1621.5468944915285 L71.77482294421051,-1621.4556797278021 L71.7900087130007,-1621.3636332079968 L71.80245301093314,-1621.2708417477202 L71.81214410090698,-1621.177392865186 L71.81907284256721,-1621.08337469867 L71.82323270092567,-1620.98887592338 L71.82461975252463,-1620.8939856678198 " />
			<path d="M945.7126645986837,-1104.5870373682812 L945.8070645796505,-1104.5477907419872 L945.899716370392,-1104.5048238100242 L945.9905008104099,-1104.4581918326412 L946.0793011408269,-1104.4079547837428 " />
			<path d="M946.0793011408269,-1104.4079547837428 L946.1536814860463,-1104.3621177607724 L946.226452875036,-1104.3137275689353 L946.2975466719329,-1104.2628298484567 L946.3668958231295,-1104.2094726045907 L946.4344349205181,-1104.1537061623417 L946.5001002631809,-1104.0955831190008 L946.563829917471,-1104.0351582945366 L946.6255637754273,-1103.972488679891 L946.6852436114652,-1103.907633383227 L946.7428131372945,-1103.840653574179 L946.7982180550081,-1103.7716124261603 L946.8514061082947,-1103.7005750567794 L946.9023271317249,-1103.6276084664225 L946.9509330980666,-1103.5527814750617 L946.9971781635818,-1103.4761646573445 L947.0410187112664,-1103.3978302760313 L947.0824133919871,-1103.3178522138385 L947.1213231634816,-1103.2363059037546 L947.1577113271823,-1103.1532682578943 L947.1915435628284,-1103.0688175949567 L947.2227879608365,-1102.9830335663576 L947.2514150523966,-1102.8959970811045 L947.2773978372664,-1102.807790229486 L947.3007118092368,-1102.7184962056465 L947.3213349792454,-1102.6281992291188 L947.3392478961167,-1102.5369844653924 L947.3544336649069,-1102.444937945587 L947.3668779628393,-1102.3521464853104 L947.3765690528131,-1102.2586976027762 L947.3834977944733,-1102.1646794362603 L947.3876576528319,-1102.0701806609702 L947.3890447044308,-1101.97529040541 " />
			<path d="M71.82461785704328,-1590.3303355982646 L71.82461975252463,-1620.8939856678196 " />
			<path d="M947.3890428089494,-1071.411640335855 L947.3890447044307,-1101.97529040541 " />
			<path d="M70.8228129227572,-1623.1441459110008 L70.8228129227572,-1531.8801743028803 " />
			<path d="M70.82281292275718,-1217.6922597285882 L70.82281292275718,-1126.4283177054022 " />
			<path d="M70.82281292275717,-824.6204924982917 L70.82281292275715,-733.356550475106 " />
			<path d="M70.82281292275714,-431.5487252679952 L70.82281292275714,-340.28478324480943 " />
			<path d="M70.82281292275712,-38.4769961329923 L70.82281292275712,-2.9949976833831657 " />
			<path d="M866.8948824920928,524.5924271567982 L865.5623624885376,523.8026867422833 " />
			<path d="M946.0792976341731,480.2584954157992 L865.677070795774,432.60676202203183 " />
			<path d="M866.8948803794015,131.52106720724805 L866.0564082832703,131.0241322480058 " />
			<path d="M946.07929940136,87.18713778777908 L866.1711166325433,39.82817410780632 " />
			<path d="M866.8948803794015,-261.5507000230484 L866.5504545907736,-261.7548299112385 " />
			<path d="M946.07929940136,-305.8846294425173 L866.6651629400463,-352.95078805143794 " />
			<path d="M946.07929940136,-698.9563966728138 L867.1592092475496,-745.7297502106824 " />
			<path d="M946.0793011408269,-1104.4079547837432 L945.7683424824714,-1104.5922499157468 " />

       </g>

       <!-- solid lines -->
       <g  stroke="rgb(0,0,0)" fill="none">
			<path d="M-53.91442133220208,11.119512557237721 L-7.928513380257664,6.113612999995425 " />
			<path d="M-53.91442133220201,-1610.3015272677358 L68.88335467821052,-1623.6689556808756 " />
			<path d="M70.56407701881497,-1624.7362154344196 L70.62408140992018,-1624.69801067889 L70.6763996289854,-1624.659083797263 L70.72089769038608,-1624.61953448029 L70.75746163572208,-1624.5794640127626 L70.78599782566204,-1624.5389750141258 L70.8064331797514,-1624.4981711756727 L70.8187153635696,-1624.4571569949928 L70.82178836894303,-1624.436603836459 L70.8228129227572,-1624.4160375083563 " />
			<path d="M70.8228129227572,-1624.4160375083563 L70.82068919927138,-1624.386430054949 L70.81432084768984,-1624.356861900319 L70.80371632089872,-1624.327372291082 L70.78888969457462,-1624.2980003695977 L70.76986064850166,-1624.2687851220157 L70.74665444044986,-1624.2397653265282 L70.71930187264988,-1624.2109795018987 L70.68783925090838,-1624.1824658563341 L70.65230833641829,-1624.1542622367715 L70.6127562903281,-1624.1264060786416 L70.56923561114355,-1624.09893435618 L70.52180406504498,-1624.071883533351 L70.47052460921262,-1624.0452895154463 L70.41546530826191,-1624.0191876014292 L70.29430441791965,-1623.9685979690078 L70.15896446112819,-1623.9203831429338 L70.01016376105797,-1623.874799025659 L69.84869208440588,-1623.8320875570244 L69.67540644967157,-1623.792475430154 L69.49122657849144,-1623.756172888269 L69.29713001417295,-1623.7233726088143 L69.09414693333767,-1623.6942486808116 L68.88335467821055,-1623.6689556808756 " />
			<path d="M-53.914421332202075,11.119512557237721 L-54.06026069872802,11.1343230506611 L-54.20878548094529,11.147298078749534 L-54.35963786964428,11.158406383523882 L-54.51245444820752,11.167621204104966 L-54.8225037358317,11.180286210497096 L-55.13594739968782,11.18517112699097 L-55.44976680594721,11.182228909170384 L-55.76093970217647,11.17148789220133 L-55.91459543227965,11.163222248091508 L-56.06646932328049,11.153051517948859 L-56.21619549767298,11.141000203953151 L-56.36341325198855,11.127097338775368 L-56.507767925762295,11.111376415635473 L-56.648911755941135,11.093875307614297 L-56.78650471467541,11.074636176413982 L-56.92021532847583,11.053705370786735 L-57.049721476762066,11.031133314876637 L-57.1747111678795,11.006974386743453 L-57.29488329071443,10.981286787361128 L-57.40994834009712,10.954132400406543 L-57.51962911424508,10.925576643176313 L-57.623661382566496,10.895688308990797 L-57.721794522214836,10.864539401464954 L-57.81379212186123,10.832204961045338 L-57.899432551230106,10.798762884231083 L-57.97850949502588,10.764293735914412 L-58.050832449964645,10.728880555292761 L-58.116227183713185,10.692608655820084 " />
			<path d="M-53.914421332202004,-1610.3015272677358 L-54.06026069872795,-1610.2867167743123 L-54.20878548094522,-1610.2737417462238 L-54.35963786964421,-1610.2626334414495 L-54.51245444820745,-1610.2534186208684 L-54.82250373583163,-1610.2407536144763 L-55.13594739968775,-1610.2358686979824 L-55.44976680594714,-1610.238810915803 L-55.7609397021764,-1610.249551932772 L-55.914595432279576,-1610.257817576882 L-56.066469323280415,-1610.2679883070246 L-56.216195497672906,-1610.2800396210203 L-56.363413251988476,-1610.293942486198 L-56.507767925762224,-1610.3096634093379 L-56.648911755941064,-1610.327164517359 L-56.78650471467534,-1610.3464036485593 L-56.920215328475756,-1610.3673344541867 L-57.049721476761995,-1610.3899065100968 L-57.17471116787943,-1610.41406543823 L-57.29488329071436,-1610.4397530376123 L-57.409948340097046,-1610.466907424567 L-57.51962911424501,-1610.495463181797 L-57.623661382566425,-1610.5253515159825 L-57.721794522214765,-1610.5565004235084 L-57.81379212186116,-1610.588834863928 L-57.899432551230035,-1610.6222769407423 L-57.97850949502581,-1610.656746089059 L-58.050832449964574,-1610.6921592696806 L-58.116227183713114,-1610.7284311691533 " />
			<path d="M-58.1162271837132,10.692608655820077 L-70.5640770188149,3.3151756094463978 " />
			<path d="M-58.11622718371313,-1610.7284311691533 L-70.56407701881483,-1618.1058642155272 " />
			<path d="M-70.5640770188149,3.315175609446398 L-70.62408140992011,3.2769708539168145 L-70.67639962898531,3.2380439722899976 L-70.72089769038601,3.198494655316855 L-70.75746163572201,3.158424187789342 L-70.78599782566197,3.117935189152688 L-70.80643317975132,3.077131350699618 L-70.81871536356954,3.036117170019596 L-70.82178836894296,3.015564011485724 L-70.82281292275712,2.9949976833831715 " />
			<path d="M-70.82281292275712,2.9949976833831644 L-70.82178836894296,2.974431355280604 L-70.81871536356954,2.9538781967467322 L-70.80643317975132,2.91286401606671 L-70.78599782566197,2.8720601776136396 L-70.75746163572201,2.831571178976985 L-70.72089769038601,2.7915007114494714 L-70.67639962898531,2.7519513944763285 L-70.62408140992011,2.7130245128495107 L-70.5640770188149,2.674819757319927 " />
			<path d="M-70.56407701881483,-1618.105864215527 L-70.62408140992004,-1618.1440689710566 L-70.67639962898524,-1618.1829958526835 L-70.72089769038594,-1618.2225451696565 L-70.75746163572194,-1618.262615637184 L-70.7859978256619,-1618.3031046358208 L-70.80643317975125,-1618.3439084742738 L-70.81871536356945,-1618.3849226549537 L-70.82178836894289,-1618.4054758134876 L-70.82281292275705,-1618.4260421415902 " />
			<path d="M-70.82281292275705,-1618.4260421415902 L-70.82068919927124,-1618.4556495949976 L-70.8143208476897,-1618.4852177496275 L-70.80371632089857,-1618.5147073588646 L-70.78888969457448,-1618.5440792803488 L-70.76986064850152,-1618.5732945279308 L-70.74665444044972,-1618.6023143234183 L-70.71930187264974,-1618.6311001480478 L-70.68783925090824,-1618.6596137936124 L-70.65230833641814,-1618.687817413175 L-70.61275629032795,-1618.715673571305 L-70.56923561114341,-1618.7431452937665 L-70.52180406504483,-1618.7701961165956 L-70.47052460921248,-1618.7967901345003 L-70.41546530826177,-1618.8228920485174 L-70.2943044179195,-1618.8734816809388 L-70.15896446112805,-1618.9216965070127 L-70.01016376105781,-1618.9672806242875 L-69.84869208440574,-1619.0099920929222 L-69.67540644967143,-1619.0496042197926 L-69.4912265784913,-1619.0859067616775 L-69.29713001417281,-1619.1187070411322 L-69.09414693333753,-1619.147830969135 L-68.8833546782104,-1619.173123969071 " />
			<path d="M-68.88335467821038,-1619.1731239690712 L53.91442133220215,-1632.540552382211 " />
			<path d="M53.91442133220215,-1632.5405523822108 L54.0602606987281,-1632.5553628756343 L54.208785480945366,-1632.5683379037227 L54.35963786964436,-1632.579446208497 L54.5124544482076,-1632.5886610290781 L54.82250373583178,-1632.6013260354703 L55.1359473996879,-1632.6062109519642 L55.4497668059473,-1632.6032687341435 L55.76093970217655,-1632.5925277171746 L55.914595432279725,-1632.5842620730646 L56.066469323280565,-1632.574091342922 L56.216195497673056,-1632.5620400289263 L56.363413251988625,-1632.5481371637486 L56.50776792576237,-1632.5324162406087 L56.648911755941214,-1632.5149151325875 L56.786504714675495,-1632.4956760013872 L56.920215328475905,-1632.4747451957599 L57.049721476762144,-1632.4521731398497 L57.17471116787958,-1632.4280142117166 L57.29488329071451,-1632.4023266123343 L57.409948340097195,-1632.3751722253796 L57.519629114245156,-1632.3466164681495 L57.623661382566574,-1632.316728133964 L57.721794522214914,-1632.2855792264381 L57.81379212186131,-1632.2532447860185 L57.899432551230184,-1632.2198027092043 L57.97850949502597,-1632.1853335608876 L58.05083244996472,-1632.149920380266 L58.11622718371327,-1632.1136484807932 " />
			<path d="M70.56407701881497,-1624.7362154344196 L58.11622718371327,-1632.1136484807935 " />
			<path d="M882.3337574679673,533.6326664843834 L958.3915137635123,525.5208127353537 " />
			<path d="M884.3729054047205,-1087.5400821490264 L960.4306617002655,-1095.651935898056 " />
			<path d="M960.0899254456249,524.4550076665312 L960.1487609578182,524.4930575914416 L960.2000470478134,524.5318013485892 L960.2436548866558,524.5711416149426 L960.2794749329028,524.6109795690596 L960.3074172077879,524.6512151393227 L960.3274115212448,524.6917472553159 L960.3394076482222,524.7324741017102 L960.3433754548474,524.77329337402 " />
			<path d="M960.3433754548474,524.77329337402 L960.3412000786934,524.8030624888312 L960.3347517522863,524.8327864476914 L960.3240390919208,524.8624255332575 L960.3090764119221,524.8919401415942 L960.2898837055186,524.9212908350942 L960.2664866181267,524.9504383951736 L960.2389164130838,524.979343874677 L960.2072099298733,525.0079686499187 L960.1714095349004,525.0362744722913 L960.1315630648807,525.0642235193749 L960.0877237629212,525.0917784454747 L960.0399502073768,525.1189024315228 L959.9883062335765,525.1455592342762 L959.9328608485273,525.1717132347453 L959.810867171064,525.2223737588066 L959.6746209920897,525.2706133224985 L959.5248502803935,525.3161741799007 L959.3623552668843,525.358812897528 L959.1880041689249,525.3983016550051 L959.002728551412,525.4344294623198 L958.8075183493879,525.4670032871511 L958.6034165787775,525.495849086249 L958.3915137635125,525.5208127353538 " />
			<path d="M962.129073382378,-1096.7177409668789 L962.1879088945714,-1096.6796910419682 L962.2391949845666,-1096.6409472848209 L962.2828028234089,-1096.6016070184673 L962.3186228696559,-1096.5617690643503 L962.346565144541,-1096.5215334940872 L962.3665594579979,-1096.4810013780939 L962.3785555849753,-1096.4402745316997 L962.3825233916006,-1096.39945525939 " />
			<path d="M962.3825233916006,-1096.39945525939 L962.3803480154465,-1096.3696861445787 L962.3738996890394,-1096.3399621857186 L962.3631870286739,-1096.3103231001526 L962.3482243486752,-1096.2808084918156 L962.3290316422717,-1096.2514577983156 L962.3056345548798,-1096.2223102382363 L962.2780643498369,-1096.1934047587329 L962.2463578666265,-1096.1647799834914 L962.2105574716535,-1096.1364741611185 L962.1707110016338,-1096.108525114035 L962.1268716996743,-1096.0809701879352 L962.07909814413,-1096.0538462018872 L962.0274541703296,-1096.0271893991337 L961.9720087852804,-1096.0010353986647 L961.8500151078172,-1095.9503748746033 L961.7137689288428,-1095.9021353109115 L961.5639982171466,-1095.8565744535092 L961.4015032036374,-1095.8139357358818 L961.227152105678,-1095.7744469784047 L961.0418764881651,-1095.73831917109 L960.846666286141,-1095.7057453462587 L960.6425645155306,-1095.676899547161 L960.4306617002657,-1095.651935898056 " />
			<path d="M882.3337574679674,533.6326664843835 L882.1876738026341,533.6471812568494 L882.0389351972347,533.6598505256919 L881.8878999760976,533.6706437695327 L881.7349319962998,533.6795349865021 L881.4246755821727,533.6915302946956 L881.1111538937249,533.6957209288972 L880.7973863162046,533.6920665310089 L880.486394602906,533.6806022948799 L880.3328774750958,533.6719730757688 L880.1811737740336,533.6614386273712 L880.0316489672228,533.6490243280957 L879.8846632730201,533.6347600850769 L879.7405707928369,533.6186802621253 L879.5997186580794,533.6008235969431 L879.4624461938771,533.5812331078006 L879.32908410162,533.5599559899022 L879.1999536622694,533.5370435016885 L879.0753659623643,533.5125508413504 L878.9556211445864,533.4865370138522 L878.84100768469,533.4590646887827 L878.7318016965392,533.4302000493794 L878.6282662669244,533.4000126330868 L878.5306508217644,533.3685751640348 L878.4391905252166,533.3359633778401 L878.3541057131465,533.302255839152 L878.2756013623189,533.2675337523837 L878.203866596591,533.2318807660833 L878.1390742312966,533.1953827714178 " />
			<path d="M884.3729054047205,-1087.5400821490266 L884.2268217393872,-1087.5255673765607 L884.0780831339878,-1087.5128981077182 L883.9270479128508,-1087.5021048638773 L883.7740799330529,-1087.493213646908 L883.4638235189258,-1087.4812183387146 L883.150301830478,-1087.477027704513 L882.8365342529577,-1087.4806821024013 L882.5255425396591,-1087.4921463385303 L882.3720254118489,-1087.5007755576412 L882.2203217107867,-1087.511310006039 L882.070796903976,-1087.5237243053143 L881.9238112097732,-1087.5379885483333 L881.7797187295901,-1087.5540683712848 L881.6388665948325,-1087.571925036467 L881.5015941306302,-1087.5915155256096 L881.3682320383731,-1087.612792643508 L881.2391015990225,-1087.6357051317218 L881.1145138991175,-1087.6601977920598 L880.9947690813395,-1087.686211619558 L880.8801556214431,-1087.7136839446275 L880.7709496332923,-1087.7425485840308 L880.6674142036775,-1087.7727360003234 L880.5697987585175,-1087.8041734693752 L880.4783384619698,-1087.83678525557 L880.3932536498996,-1087.870492794258 L880.314749299072,-1087.9052148810265 L880.2430145333441,-1087.940867867327 L880.1782221680497,-1087.9773658619922 " />
			<path d="M878.1390742312966,533.1953827714178 L865.8137334306645,525.7738819113381 " />
			<path d="M880.1782221680497,-1087.9773658619922 L867.8528813674176,-1095.3988667220722 " />
			<path d="M865.8137334306645,525.773881911338 L865.7548979184711,525.7358319864276 L865.7036118284759,525.69708822928 L865.6600039896335,525.6577479629266 L865.6241839433866,525.6179100088095 L865.5962416685014,525.5776744385464 L865.5762473550445,525.5371423225532 L865.5642512280672,525.496415476159 L865.5602834214419,525.4555962038492 " />
			<path d="M865.5602834214419,525.4555962038492 L865.564353902167,525.4147870422798 L865.5764524453301,525.3740905027095 L865.5965486597929,525.3336088134937 L865.6245920645318,525.293443663291 L865.660512215446,525.2536959456248 L865.7042188823092,525.2144655054416 L865.7556022754261,525.1758508883039 L865.81453332142,525.1379490928474 " />
			<path d="M867.8528813674177,-1095.3988667220722 L867.7940458552243,-1095.4369166469828 L867.7427597652292,-1095.4756604041302 L867.6991519263868,-1095.5150006704837 L867.6633318801398,-1095.5548386246007 L867.6353896052547,-1095.5950741948639 L867.6153952917978,-1095.6356063108572 L867.6033991648204,-1095.6763331572513 L867.5994313581951,-1095.717152429561 " />
			<path d="M867.5994313581951,-1095.717152429561 L867.6016067343492,-1095.7469215443723 L867.6080550607563,-1095.7766455032324 L867.6187677211218,-1095.8062845887985 L867.6337304011205,-1095.8357991971354 L867.652923107524,-1095.8651498906354 L867.6763201949159,-1095.8942974507147 L867.7038903999588,-1095.9232029302182 L867.7355968831693,-1095.9518277054597 L867.7713972781422,-1095.9801335278325 L867.8112437481619,-1096.008082574916 L867.8550830501214,-1096.0356375010158 L867.9028566056658,-1096.0627614870639 L867.9545005794661,-1096.0894182898173 L868.0099459645153,-1096.1155722902863 L868.1319396419786,-1096.1662328143477 L868.2681858209529,-1096.2144723780395 L868.4179565326491,-1096.2600332354418 L868.5804515461583,-1096.3026719530692 L868.7548026441177,-1096.3421607105463 L868.9400782616306,-1096.378288517861 L869.1352884636547,-1096.4108623426923 L869.3393902342651,-1096.43970814179 L869.55129304953,-1096.464671790895 " />
			<path d="M869.55129304953,-1096.4646717908947 L945.609049345075,-1104.5765255399244 " />
			<path d="M945.6090493450752,-1104.5765255399242 L945.7551330104085,-1104.59104031239 L945.9038716158079,-1104.6037095812326 L946.054906836945,-1104.6145028250735 L946.2078748167428,-1104.6233940420427 L946.5181312308699,-1104.6353893502362 L946.8316529193177,-1104.639579984438 L947.145420496838,-1104.6359255865495 L947.4564122101366,-1104.6244613504205 L947.6099293379468,-1104.6158321313096 L947.761633039009,-1104.605297682912 L947.9111578458197,-1104.5928833836365 L948.0581435400225,-1104.5786191406175 L948.2022360202056,-1104.562539317666 L948.3430881549632,-1104.5446826524837 L948.4803606191655,-1104.5250921633412 L948.6137227114226,-1104.5038150454427 L948.7428531507732,-1104.480902557229 L948.8674408506782,-1104.456409896891 L948.9871856684562,-1104.4303960693928 L949.1017991283526,-1104.4029237443233 L949.2110051165034,-1104.37405910492 L949.3145405461182,-1104.3438716886274 L949.4121559912782,-1104.3124342195756 L949.5036162878259,-1104.2798224333808 L949.5887010998961,-1104.2461148946927 L949.6672054507237,-1104.2113928079243 L949.7389402164516,-1104.175739821624 L949.803732581746,-1104.1392418269586 " />
			<path d="M962.129073382378,-1096.7177409668786 L949.8037325817459,-1104.1392418269586 " />
			<path d="M-8.669542354453501,5.6744297024182435 L-8.743922772902694,5.628592694064443 L-8.816694234869365,5.580202513200833 L-8.8877881043481,5.529304800091137 L-8.957137327591747,5.475947560033289 L-9.024676496354633,5.420181118082174 L-9.090341909583799,5.362058071584447 L-9.154071633500033,5.301633240570192 L-9.215805560012093,5.238963616048202 L-9.27548546340897,5.174108306253652 L-9.333055055276738,5.107128480898872 L-9.388460037588228,5.038087313479784 L-9.441648153915397,4.96704992169243 L-9.492569238716124,4.894083306015784 L-9.541175264648952,4.819256286518778 L-9.587420387871136,4.7426394379511345 L-9.631260991277253,4.6643050231792476 L-9.672655725637657,4.5843269250298615 L-9.711565548597898,4.502780576605861 L-9.747953761502387,4.419742890139887 L-9.781786044007543,4.335292184452857 L-9.813030486451762,4.249508111085861 L-9.841657619951743,4.16247157917505 L-9.867640444196688,4.074264679140406 L-9.89095445291426,3.9849706052603553 L-9.911577656984198,3.894673577205261 L-9.92949060517785,3.8034587606037764 L-9.944676402504017,3.711412186717019 L-9.957120726143847,3.618620671296287 L-9.966811838959707,3.525171732700879 L-9.97374060056533,3.4311535093532215 L-9.977900475946766,3.3366546766091814 L-9.979287541626025,3.241764363121976 " />
			<path d="M-9.979287541626032,3.2417643631219466 L-9.97928969861577,-27.32188809982381 " />
			<path d="M865.5851361430877,505.69707141249194 L865.5851351479307,491.596109354556 " />
			<path d="M-9.97928969861577,-27.321888099823806 L-9.975746827917657,-27.47414084110183 L-9.965126729473504,-27.62679812886117 L-9.947454988030678,-27.779492198324434 L-9.922774176362175,-27.93185519610385 L-9.891143752705089,-28.083520066392353 L-9.852639917520506,-28.234121435233142 L-9.807355429919925,-28.383296490737557 L-9.755399384200427,-28.530685857130695 L-9.696896947026964,-28.675934460519134 L-9.631989055894893,-28.818692384295034 L-9.560832079599212,-28.958615712115904 L-9.483597441528433,-29.095367356429186 L-9.400471206690623,-29.2286178705457 L-9.311653633466506,-29.35804624230557 L-9.217358691169478,-29.483340667424642 L-9.117813544574794,-29.604199300658312 L-9.013258006659727,-29.72033098297315 L-8.903943960873098,-29.831455942974525 L-8.790134754325985,-29.9373064709004 L-8.672104563365467,-30.03762756355759 L-8.550137733059795,-30.132177538646793 L-8.42452809218621,-30.220728616996414 L-8.295578245371678,-30.303067471302562 L-8.16359884409185,-30.37899574005317 L-8.028907838284436,-30.448330505398292 L-7.891829710379969,-30.510904733815206 L-7.752694693595194,-30.566567678506797 L-7.6118379763723345,-30.615185242563808 L-7.469598894880772,-30.656640302016022 L-7.326320115526491,-30.690832987994195 L-7.1823468094386955,-30.717680927322874 L-7.038025820922347,-30.737119440964612 " />
			<path d="M865.5851351479306,491.59610935455606 L865.5862719963287,491.50994040876816 L865.5896816748411,491.42359056514323 L865.5953615476566,491.33712657539235 L865.6033072240177,491.25061527946616 " />
			<path d="M-7.038025820922318,-30.737119440964616 L68.88335366024724,-39.001712186082 " />
			<path d="M68.88335366024722,-39.00171218608201 L68.99142121405619,-39.01138631016345 L69.09934283144601,-39.016867744402546 L69.2069727727782,-39.01814908655438 L69.31416569229978,-39.015228606267364 L69.42077683442133,-39.00811024741994 L69.5266622291979,-38.99680362279471 L69.63167888674917,-38.9813240010971 L69.73568499035596,-38.96169228633619 L69.83854008797255,-38.937934989595504 L69.94010528189608,-38.91008419323187 L70.04024341633698,-38.878177507550724 L70.13881926263703,-38.84225802001637 L70.23569970188501,-38.802374237065735 L70.33075390468332,-38.758580018604285 L70.42385350782274,-38.71093450527242 L70.5148727876268,-38.65950203858075 " />
			<path d="M-8.66954457251459,-387.3973008995484 L-8.743924952079837,-387.443137915672 L-8.816696375296436,-387.49152810237143 L-8.887790206234357,-387.54242581940304 L-8.957139391220743,-387.5957830614925 L-9.024678522083022,-387.6515495036115 L-9.090343897840025,-387.7096725484428 L-9.154073584782935,-387.77009737598917 L-9.215807474889392,-387.8327669952772 L-9.275487342515671,-387.8976222981101 L-9.33305689931344,-387.9646021148168 L-9.388461847319336,-388.03364327194515 L-9.441649930167236,-388.10468065184574 L-9.492570982374986,-388.17764725408875 L-9.541176976659052,-388.25247425865683 L-9.587422069232474,-388.32909109085426 L-9.63126264304342,-388.40742548787097 L-9.67265734891356,-388.48740356693884 L-9.711567144537408,-388.5689498950156 L-9.747955331305926,-388.65198755993134 L-9.781787588919595,-388.73643824292975 L-9.813032007758359,-388.8222222925363 L-9.841659118977848,-388.909258799683 L-9.867641922303559,-388.9974656740197 L-9.890955911496754,-389.0867597213392 L-9.911579097468032,-389.1770567220439 L-9.929492029016812,-389.26827151057915 L-9.944677811177161,-389.360318055759 L-9.957122121152633,-389.45310954190836 L-9.966813221825127,-389.54655845074495 L-9.973741972824998,-389.6405766439245 L-9.977901839151999,-389.7350754461695 L-9.9792888973389,-389.8299657289062 " />
			<path d="M866.0567932048045,130.718110163891 L866.0010670653331,130.62985623255562 L865.9485926882189,130.539205158371 L865.8994376424511,130.44627366881062 L865.8536652228593,130.3511814277403 L865.8113343686116,130.25405088133232 L865.7724995873209,130.15500710039666 L865.7372108848581,130.05417761933285 L865.7055137009613,129.95169227190928 L865.6774488507253,129.84768302408202 L865.6530524720459,129.7422838040678 L865.6323559790865,129.6356303298906 L865.6153860218269,129.52785993462325 L865.6021644517485,129.4191113895497 L865.5927082936961,129.30952472547503 L865.5870297239559,129.19924105241415 L865.5851360545771,129.0884023778902 " />
			<path d="M-9.979288897338904,-389.82996572890625 L-9.979288897338904,-420.3936169210258 " />
			<path d="M865.5851360545771,129.0884023778901 L865.5851360545771,98.5247511857706 " />
			<path d="M-9.9792888973389,-420.3936169210257 L-9.975746015923045,-420.5458696559878 L-9.96512590678713,-420.6985269374438 L-9.947454154704271,-420.8512210006314 L-9.922773332473104,-421.00358399217805 L-9.891142898356165,-421.1552488562916 L-9.852639052839743,-421.3058502190302 L-9.807354555060225,-421.4550252685199 L-9.755398499339213,-421.6024146290002 L-9.696896052365755,-421.747663226592 L-9.631988151658819,-421.8904211447014 L-9.560831166036467,-422.03034446699957 L-9.483596518909678,-422.1670961059472 L-9.40047027530834,-422.30034661486815 L-9.311652693634285,-422.42977498161497 L-9.21735774322127,-422.55506940191566 L-9.117812588864096,-422.6759280305371 L-9.01325704355874,-422.7920597084571 L-8.903942990771828,-422.9031846642915 L-8.790133777631302,-423.0090351882884 L-8.672103580500128,-423.109356277264 L-8.550136744461417,-423.2039062489279 L-8.424527098306223,-423.29245732411687 L-8.295577246674236,-423.3747961755344 L-8.163597841052713,-423.4507244416756 L-8.028906831389824,-423.52005920469674 L-7.891828700125389,-423.5826334310806 L-7.752693680484249,-423.63829637403506 L-7.611836960915505,-423.68691393665506 L-7.469597877594193,-423.7283689949738 L-7.326319096930708,-423.76256168012475 L-7.182345790057405,-423.78940961893454 L-7.038024801281141,-423.80884813236685 " />
			<path d="M865.5851360545771,98.52475118577068 L865.5872067377231,98.40840859392036 L865.5934158715925,98.29177899731471 L865.6037547135843,98.17502661306048 L865.6182087063758,98.05831583115223 L865.6367574984183,97.9418109830074 L865.6593749725937,97.8256761100841 L865.6860292829874,97.71007473290697 L865.7166828997283,97.59516962082657 L865.7512926618315,97.48112256283645 L865.7898098379701,97.36809413977068 L865.8321801950899,97.25624349820228 L865.8783440747711,97.14572812636136 L865.9282364772281,97.03670363238807 L865.9817871528311,96.92932352523286 L866.0389207010192,96.82373899851234 L866.0995566764658,96.72009871762542 " />
			<path d="M-7.0380248012811215,-423.8088481323669 L68.88335467821047,-432.0734408488741 " />
			<path d="M68.88335467821045,-432.0734408488741 L68.99142228295686,-432.08311497658644 L69.09934395078234,-432.0885964106599 L69.20697394184245,-432.08987774884275 L69.31416691017961,-432.08695726078724 L69.42077810000154,-432.07983889038593 L69.52666354116273,-432.0685322504462 L69.631680243585,-432.0530526097085 L69.7356863903544,-432.0334208722275 L69.83854152923412,-432.00966354914243 L69.9401067623342,-431.981812722876 L70.04024493368243,-431.94990600380964 L70.13882081444288,-431.9139864794935 L70.23570128553189,-431.87410265646 L70.33075551738509,-431.83030839471974 L70.42385514663263,-431.78266283502745 L70.51487444944391,-431.73123031901724 " />
			<path d="M-8.669544572514571,-780.4690681298449 L-8.743924952079816,-780.5149051459686 L-8.816696375296415,-780.563295332668 L-8.887790206234335,-780.6141930496996 L-8.957139391220723,-780.667550291789 L-9.024678522083002,-780.723316733908 L-9.090343897840004,-780.7814397787394 L-9.154073584782914,-780.8418646062858 L-9.21580747488937,-780.9045342255737 L-9.27548734251565,-780.9693895284066 L-9.333056899313421,-781.0363693451133 L-9.388461847319315,-781.1054105022416 L-9.441649930167214,-781.1764478821423 L-9.492570982374966,-781.2494144843853 L-9.541176976659031,-781.3242414889534 L-9.587422069232453,-781.4008583211507 L-9.631262643043401,-781.4791927181675 L-9.67265734891354,-781.5591707972353 L-9.711567144537389,-781.6407171253121 L-9.747955331305906,-781.7237547902279 L-9.781787588919576,-781.8082054732263 L-9.813032007758338,-781.8939895228328 L-9.841659118977827,-781.9810260299796 L-9.86764192230354,-782.0692329043162 L-9.890955911496734,-782.1585269516357 L-9.91157909746801,-782.2488239523404 L-9.929492029016792,-782.3400387408757 L-9.94467781117714,-782.4320852860556 L-9.957122121152613,-782.5248767722048 L-9.966813221825106,-782.6183256810415 L-9.973741972824978,-782.712343874221 L-9.97790183915198,-782.8068426764661 L-9.97928889733888,-782.9017329592027 " />
			<path d="M866.5505061245501,-261.79580053078394 L866.4943882699622,-261.84466564996137 L866.4396511911461,-261.89520160482505 L866.3863320825853,-261.9473740556042 L866.3344671752359,-262.00114755051004 L866.2840917119073,-262.05648554982565 L866.2352399233145,-262.113350450735 L866.1879450048174,-262.1717036128749 L866.1422390938648,-262.231505384591 L866.0981532481562,-262.2927151298819 L866.055717424538,-262.355291256012 L866.0149604586472,-262.41919124177355 L865.9759100453176,-262.48437166638115 L865.9385927197603,-262.550788238976 L865.9030338395335,-262.61839582872244 L865.8692575673107,-262.68714849547473 L865.8372868544631,-262.756999520994 L865.8071434254626,-262.8279014406937 L865.7788477631211,-262.89980607589257 L865.7524190946712,-262.97266456655234 L865.727875378701,-263.04642740447883 L865.7052332929519,-263.12104446696344 L865.6845082229854,-263.19646505084194 L865.6657142517281,-263.2726379069479 L865.6488641499027,-263.3495112749374 L865.6339693673498,-263.42703291846016 L865.621040025248,-263.5051501606554 L865.6100849092361,-263.58380991994585 L865.601111463443,-263.66295874610785 L865.5941257854299,-263.7425428565908 L865.5891326220465,-263.82250817306345 L865.5861353662054,-263.90280035816073 L865.5851360545771,-263.98336485240634 " />
			<path d="M-9.979288897338883,-782.9017329592027 L-9.979288897338883,-813.4653841513223 " />
			<path d="M865.5851360545771,-263.98336485240634 L865.5851360545771,-294.5470160445259 " />
			<path d="M-9.979288897338881,-813.4653841513222 L-9.975746015923026,-813.6176368862842 L-9.965125906787108,-813.7702941677403 L-9.947454154704252,-813.9229882309279 L-9.922773332473085,-814.0753512224745 L-9.891142898356145,-814.227016086588 L-9.852639052839724,-814.3776174493266 L-9.807354555060204,-814.5267924988163 L-9.755398499339194,-814.6741818592967 L-9.696896052365735,-814.8194304568884 L-9.631988151658799,-814.9621883749979 L-9.560831166036445,-815.1021116972961 L-9.483596518909659,-815.2388633362438 L-9.400470275308319,-815.3721138451647 L-9.311652693634265,-815.5015422119114 L-9.217357743221248,-815.6268366322121 L-9.117812588864076,-815.7476952608336 L-9.013257043558719,-815.8638269387535 L-8.903942990771807,-815.974951894588 L-8.790133777631283,-816.0808024185849 L-8.672103580500107,-816.1811235075605 L-8.550136744461398,-816.2756734792245 L-8.424527098306203,-816.3642245544133 L-8.295577246674215,-816.446563405831 L-8.163597841052692,-816.522491671972 L-8.028906831389804,-816.5918264349932 L-7.891828700125369,-816.654400661377 L-7.752693680484229,-816.7100636043316 L-7.611836960915484,-816.7586811669515 L-7.469597877594173,-816.8001362252703 L-7.326319096930687,-816.8343289104213 L-7.182345790057385,-816.861176849231 L-7.038024801281121,-816.8806153626633 " />
			<path d="M865.5851360545771,-294.5470160445258 L865.5861841903953,-294.62975033456513 L865.5893278508318,-294.71265385332487 L865.5945647953648,-294.7956675145451 L865.6018912915657,-294.8787321534661 L865.6113021177592,-294.96178856899587 L865.6227905667448,-295.0447775659032 L865.6363484505771,-295.1276399970069 L865.6519661064015,-295.2103168053307 L865.6696324033409,-295.29274906619366 L865.6893347504291,-295.3748780292067 L865.7110591055841,-295.4566451601442 L865.7347899856164,-295.5379921826626 L865.7605104772639,-295.6188611198341 L865.788202249246,-295.69919433546767 L865.8178455653288,-295.77893457518707 L865.8494192983912,-295.8580250072364 L865.8829009454827,-295.93640926298514 L865.9182666438606,-296.0140314771023 L865.9554911879987,-296.0908363273726 L865.9945480475501,-296.1667690741248 L866.0354093862567,-296.24177559924584 L866.0780460817879,-296.31580244475094 L866.1224277464963,-296.3887968508839 L866.1685227490763,-296.4607067937196 L866.2162982371063,-296.53148102224196 L866.2657201604651,-296.60106909487104 L866.3167532955979,-296.6694214154135 L866.3693612706218,-296.73648926841025 L866.4235065912477,-296.80222485385644 L866.4791506675035,-296.86658132126917 L866.5362538412371,-296.9295128030783 L866.5947754143813,-296.9909744473167 " />
			<path d="M-7.0380248012811,-816.8806153626634 L68.8833546782105,-825.1452080791706 " />
			<path d="M68.88335467821048,-825.1452080791705 L68.99142228295689,-825.1548822068828 L69.09934395078237,-825.1603636409563 L69.20697394184248,-825.1616449791392 L69.31416691017964,-825.1587244910836 L69.42077810000157,-825.1516061206823 L69.52666354116276,-825.1402994807426 L69.63168024358502,-825.124819840005 L69.73568639035443,-825.1051881025239 L69.83854152923415,-825.0814307794388 L69.94010676233422,-825.0535799531724 L70.04024493368246,-825.0216732341061 L70.13882081444291,-824.98575370979 L70.23570128553192,-824.9458698867564 L70.33075551738511,-824.9020756250162 L70.42385514663266,-824.8544300653239 L70.51487444944394,-824.8029975493137 " />
			<path d="M-8.669544572514544,-1173.540835360141 L-8.74392495207979,-1173.586672376265 L-8.81669637529639,-1173.635062562964 L-8.88779020623431,-1173.685960279996 L-8.957139391220696,-1173.7393175220852 L-9.024678522082976,-1173.7950839642042 L-9.090343897839979,-1173.8532070090357 L-9.15407358478289,-1173.913631836582 L-9.215807474889345,-1173.97630145587 L-9.275487342515625,-1174.041156758703 L-9.333056899313394,-1174.1081365754096 L-9.38846184731929,-1174.177177732538 L-9.44164993016719,-1174.2482151124386 L-9.49257098237494,-1174.3211817146814 L-9.541176976659006,-1174.3960087192495 L-9.587422069232428,-1174.472625551447 L-9.631262643043375,-1174.5509599484637 L-9.672657348913514,-1174.6309380275316 L-9.711567144537362,-1174.7124843556082 L-9.74795533130588,-1174.795522020524 L-9.78178758891955,-1174.8799727035225 L-9.813032007758313,-1174.9657567531292 L-9.841659118977802,-1175.0527932602758 L-9.867641922303513,-1175.1410001346126 L-9.890955911496707,-1175.2302941819319 L-9.911579097467985,-1175.3205911826367 L-9.929492029016766,-1175.411805971172 L-9.944677811177115,-1175.5038525163518 L-9.957122121152587,-1175.596644002501 L-9.966813221825081,-1175.6900929113378 L-9.973741972824952,-1175.7841111045173 L-9.977901839151953,-1175.8786099067622 L-9.979288897338854,-1175.973500189499 " />
			<path d="M867.0445093052502,-654.540475821187 L866.9689945736388,-654.580214756302 L866.8948803794015,-654.6224672533448 " />
			<path d="M866.8948803794015,-654.6224672533448 L866.8204999998362,-654.6683042694684 L866.7477285766196,-654.7166944561678 L866.6766347456817,-654.7675921731994 L866.6072855606952,-654.8209494152889 L866.539746429833,-654.8767158574078 L866.474081054076,-654.9348389022392 L866.4103513671331,-654.9952637297856 L866.3486174770267,-655.0579333490736 L866.2889376094004,-655.1227886519065 L866.2313680526025,-655.1897684686131 L866.1759631045967,-655.2588096257415 L866.1227750217488,-655.3298470056421 L866.071853969541,-655.4028136078852 L866.0232479752569,-655.4776406124532 L865.9770028826836,-655.5542574446506 L865.9331623088726,-655.6325918416674 L865.8917676030024,-655.7125699207352 L865.8528578073787,-655.794116248812 L865.8164696206101,-655.8771539137277 L865.7826373629964,-655.9616045967261 L865.7513929441577,-656.0473886463327 L865.7227658329382,-656.1344251534795 L865.6967830296124,-656.2226320278161 L865.6734690404193,-656.3119260751356 L865.652845854448,-656.4022230758403 L865.6349329228992,-656.4934378643756 L865.6197471407389,-656.5854844095554 L865.6073028307634,-656.6782758957047 L865.5976117300909,-656.7717248045413 L865.5906829790911,-656.8657429977209 L865.586523112764,-656.960241799966 L865.5851360545771,-657.0551320827026 " />
			<path d="M-9.979288897338858,-1175.973500189499 L-9.979288897338858,-1206.5371513816183 " />
			<path d="M865.5851360545771,-657.0551320827025 L865.5851360545771,-687.618783274822 " />
			<path d="M-9.979288897338854,-1206.5371513816183 L-9.975746015922999,-1206.6894041165804 L-9.965125906787083,-1206.8420613980363 L-9.947454154704225,-1206.994755461224 L-9.922773332473058,-1207.1471184527707 L-9.891142898356119,-1207.2987833168843 L-9.852639052839697,-1207.4493846796229 L-9.80735455506018,-1207.5985597291126 L-9.755398499339167,-1207.7459490895928 L-9.696896052365709,-1207.8911976871846 L-9.631988151658772,-1208.033955605294 L-9.56083116603642,-1208.173878927592 L-9.483596518909632,-1208.3106305665399 L-9.400470275308294,-1208.4438810754607 L-9.311652693634239,-1208.5733094422076 L-9.217357743221223,-1208.6986038625082 L-9.11781258886405,-1208.8194624911298 L-9.013257043558694,-1208.9355941690496 L-8.903942990771782,-1209.046719124884 L-8.790133777631256,-1209.152569648881 L-8.672103580500082,-1209.2528907378567 L-8.550136744461371,-1209.3474407095205 L-8.424527098306177,-1209.4359917847094 L-8.29557724667419,-1209.518330636127 L-8.163597841052667,-1209.5942589022682 L-8.028906831389778,-1209.6635936652892 L-7.891828700125343,-1209.7261678916732 L-7.752693680484203,-1209.7818308346277 L-7.611836960915459,-1209.8304483972477 L-7.469597877594147,-1209.8719034555663 L-7.3263190969306615,-1209.9060961407174 L-7.182345790057359,-1209.932944079527 L-7.038024801281095,-1209.9523825929596 " />
			<path d="M865.5851360545771,-687.6187832748219 L865.5867510294302,-687.7215099529645 L865.5915941805041,-687.8244754252348 L865.599660189292,-687.9275666200807 L865.6109401981046,-688.0306703278876 L865.6254218197981,-688.1336733252998 L865.6430891513774,-688.236462499557 L865.6639227914585,-688.3389249727085 L865.6878998615762,-688.4409482255707 L865.7149940313063,-688.5424202212896 L865.7451755471816,-688.643229528375 L865.7784112653645,-688.7432654430672 L865.8146646880455,-688.8424181109087 L865.8538960035214,-688.9405786473789 L865.8960621299161,-689.0376392574667 L865.9411167624902,-689.1334933540454 L865.9890104244906,-689.2280356749212 L866.0396905214837,-689.3211623984272 L866.0931013991117,-689.4127712574349 L866.1491844042094,-689.5027616516588 L866.2078779492148,-689.5910347581314 L866.2691175798002,-689.6774936397243 L866.3328360456545,-689.762043351601 L866.3989633743325,-689.8445910454799 L866.4674269480962,-689.9250460715958 L866.5381515836596,-690.003320078247 L866.611059614751,-690.0793271088189 L866.6860709774028,-690.1529836961768 L866.7631032978733,-690.2242089543258 L866.8420719831058,-690.2929246672358 L866.9228903136241,-690.3590553747338 L867.0054695387636,-690.4225284553714 L867.0897189741332,-690.4832742061735 " />
			<path d="M-7.038024801281075,-1209.9523825929596 L68.88335467821051,-1218.2169753094668 " />
			<path d="M68.88335467821051,-1218.2169753094668 L68.99142228295692,-1218.226649437179 L69.0993439507824,-1218.2321308712524 L69.2069739418425,-1218.2334122094353 L69.31416691017967,-1218.2304917213798 L69.4207781000016,-1218.2233733509786 L69.52666354116279,-1218.2120667110387 L69.63168024358505,-1218.1965870703011 L69.73568639035446,-1218.17695533282 L69.83854152923418,-1218.153198009735 L69.94010676233425,-1218.1253471834684 L70.04024493368249,-1218.0934404644022 L70.13882081444294,-1218.057520940086 L70.23570128553195,-1218.0176371170526 L70.33075551738514,-1217.9738428553123 L70.42385514663269,-1217.92619729562 L70.51487444944397,-1217.87476477961 " />
			<path d="M-8.669546250959982,-1578.9927226547873 L-8.743926596179278,-1579.0385596777576 L-8.816697985169066,-1579.0869498695947 L-8.887791782065923,-1579.1378475900733 L-8.957140933262641,-1579.1912048339393 L-9.024680030651226,-1579.2469712761883 L-9.090345373313937,-1579.3050943195292 L-9.15407502760415,-1579.3655191439934 L-9.215808885560364,-1579.428188758639 L-9.275488721598299,-1579.493044055303 L-9.33305824742757,-1579.560023864351 L-9.388463165141173,-1579.6290650123697 L-9.441651218427698,-1579.7001023817506 L-9.49257224185796,-1579.7730689721075 L-9.541178208199584,-1579.8478959634683 L-9.587423273714897,-1579.9245127811855 L-9.631263821399406,-1580.0028471624987 L-9.672658502120093,-1580.0828252246915 L-9.711568273614727,-1580.1643715347755 L-9.747956437315375,-1580.2474091806357 L-9.78178867296145,-1580.3318598435733 L-9.813033070969567,-1580.4176438721724 L-9.841660162529744,-1580.5046803574255 L-9.867642947399526,-1580.592887209044 L-9.890956919369835,-1580.6821812328835 L-9.91158008937851,-1580.7724782094112 L-9.92949300624976,-1580.8636929731376 L-9.944678775039943,-1580.955739492943 L-9.957123072972387,-1581.0485309532196 L-9.966814162946214,-1581.1419798357538 L-9.97374290460645,-1581.2359980022698 L-9.977902762964922,-1581.3304967775598 L-9.979289814563877,-1581.42538703312 " />
			<path d="M867.5542538669623,-1059.799936067966 L867.4675997120197,-1059.824052095994 L867.38198898047,-1059.8511273340193 L867.2975060397862,-1059.8811350999974 L867.2142341460283,-1059.9140458219413 L867.1322553617966,-1059.9498270670663 L867.0516504753609,-1059.9884435737506 L866.9724989210449,-1060.0298572862855 L866.8948787009459,-1060.0740273923777 " />
			<path d="M866.8948787009459,-1060.0740273923777 L866.8204983557266,-1060.119864415348 L866.7477269667369,-1060.1682546071852 L866.67663316984,-1060.2191523276638 L866.6072840186433,-1060.2725095715298 L866.5397449212547,-1060.3282760137788 L866.474079578592,-1060.3863990571197 L866.4103499243018,-1060.446823881584 L866.3486160663456,-1060.5094934962294 L866.2889362303076,-1060.5743487928935 L866.2313667044783,-1060.6413286019415 L866.1759617867648,-1060.7103697499601 L866.1227737334782,-1060.781407119341 L866.071852710048,-1060.854373709698 L866.0232467437063,-1060.9292007010588 L865.9770016781911,-1061.005817518776 L865.9331611305065,-1061.0841519000892 L865.8917664497858,-1061.164129962282 L865.8528566782912,-1061.245676272366 L865.8164685145906,-1061.3287139182262 L865.7826362789444,-1061.4131645811638 L865.7513918809364,-1061.498948609763 L865.7227647893762,-1061.585985095016 L865.6967820045064,-1061.6741919466344 L865.6734680325361,-1061.763485970474 L865.6528448625274,-1061.8537829470017 L865.6349319456561,-1061.944997710728 L865.619746176866,-1062.0370442305334 L865.6073018789335,-1062.12983569081 L865.5976107889597,-1062.2232845733442 L865.5906820472995,-1062.3173027398602 L865.586522188941,-1062.4118015151503 L865.585135137342,-1062.5066917707104 " />
			<path d="M-9.979289814563879,-1581.4253870331197 L-9.979287919082525,-1611.9890371026747 " />
			<path d="M865.5851351373423,-1062.5066917707102 L865.5851370328236,-1093.0703418402652 " />
			<path d="M-9.979287919082529,-1611.989037102675 L-9.975745028248255,-1612.1412898320589 L-9.965124909716614,-1612.29394710795 L-9.947453148283355,-1612.4466411655992 L-9.922772316769636,-1612.5990041516475 L-9.891141873460361,-1612.7506690103157 L-9.85263801886396,-1612.9012703676751 L-9.807353512138695,-1613.050445411865 L-9.755397447627722,-1613.1978347671375 L-9.696894992041262,-1613.3430833596258 L-9.631987082919032,-1613.4858412727488 L-9.560830089099369,-1613.625764590189 L-9.483595434013,-1613.7625162244196 L-9.400469182708989,-1613.8957667287752 L-9.311651593607722,-1614.0251950911195 L-9.217356636060849,-1614.1504895071912 L-9.11781147488036,-1614.2713481317676 L-9.013255923078669,-1614.3874798058357 L-8.90394186413805,-1614.498604758021 L-8.790132645201272,-1614.6044552785804 L-8.672102442645262,-1614.7047763643382 L-8.550135601566202,-1614.7993263330118 L-8.424525950767288,-1614.8878774054451 L-8.295576094899399,-1614.9702162543488 L-8.163596685459995,-1615.0461445182232 L-8.028905672406443,-1615.1154792792304 L-7.8918275381867335,-1615.1780535038583 L-7.752692516032824,-1615.2337164453186 L-7.611835794399873,-1615.2823340067102 L-7.469596709467885,-1615.323789064069 L-7.326317927651138,-1615.3579817485308 L-7.1823446200847645,-1615.384829686924 L-7.038023631077291,-1615.4042682002132 " />
			<path d="M865.5851370328237,-1093.0703418402652 L865.588679923658,-1093.2225945696491 L865.5993000421896,-1093.3752518455403 L865.6169718036228,-1093.5279459031894 L865.6416526351366,-1093.6803088892377 L865.6732830784459,-1093.831973747906 L865.7117869330423,-1093.9825751052654 L865.7570714397675,-1094.1317501494552 L865.8090275042786,-1094.2791395047277 L865.867529959865,-1094.424388097216 L865.9324378689872,-1094.567146010339 L866.0035948628068,-1094.7070693277792 L866.0808295178932,-1094.8438209620099 L866.1639557691973,-1094.9770714663655 L866.2527733582986,-1095.1064998287097 L866.3470683158454,-1095.2317942447814 L866.4466134770258,-1095.3526528693578 L866.5511690288275,-1095.468784543426 L866.6604830877682,-1095.5799094956112 L866.774292306705,-1095.6857600161707 L866.892322509261,-1095.7860811019284 L867.01428935034,-1095.880631070602 L867.1398990011389,-1095.9691821430354 L867.2688488570069,-1096.051520991939 L867.4008282664463,-1096.1274492558134 L867.5355192794998,-1096.1967840168206 L867.6725974137195,-1096.2593582414486 L867.8117324358734,-1096.3150211829088 L867.9525891575064,-1096.3636387443005 L868.0948282424383,-1096.4050938016592 L868.2381070242551,-1096.439286486121 L868.3820803318215,-1096.4661344245142 L868.526401320829,-1096.4855729378035 " />
			<path d="M-7.038023631077259,-1615.4042682002132 L68.88335584841431,-1623.6688609134826 " />
			<path d="M868.5264013208289,-1096.4855729378035 L944.4477808003205,-1104.7501656510728 " />
			<path d="M68.88335584841433,-1623.6688609134826 L68.99142349818348,-1623.6785350444354 L69.0993452105897,-1623.6840164783937 L69.20697524560651,-1623.6852978130996 L69.3141682570955,-1623.6823773182089 L69.42077948908509,-1623.6752589376265 L69.5266649712525,-1623.6639522841817 L69.6316817133446,-1623.6484726266458 L69.73568789827539,-1623.6288408691137 L69.83854307363907,-1623.6050835227738 L69.94010834138031,-1623.5772326701074 L70.0402465453655,-1623.5453259215624 L70.13882245660156,-1623.5094063647653 L70.23570295585242,-1623.4695225063324 L70.3307572134063,-1623.4257282063677 L70.42385686575138,-1623.3780826057266 L70.51487618892071,-1623.3266500461525 " />
			<path d="M944.4477808003205,-1104.7501656510728 L944.5294906615039,-1104.7578658161133 L944.611137450163,-1104.7631709455652 L944.6926581426079,-1104.7660769443642 L944.7739898124828,-1104.766581569351 L944.8550696793401,-1104.7646844310023 L944.9358351571003,-1104.7603869937313 L945.0162239023631,-1104.7536925747584 L945.0961738625303,-1104.744606341549 L945.175623323705,-1104.7331353078257 L945.2545109583286,-1104.7192883281552 L945.3327758725201,-1104.7030760911111 L945.4103576530804,-1104.6845111110251 L945.4871964141258,-1104.6636077183273 L945.5632328433143,-1104.6403820484827 L945.638408247629,-1104.6148520295378 L945.7126645986837,-1104.5870373682812 " />
			<path d="M-53.91442133220208,11.119512557237723 L-53.91442133220201,-1610.3015272677358 " />
			<path d="M68.88335467821045,-39.00171158276897 L68.88335467821047,-341.4342366471981 " />
			<path d="M68.88335467821047,-432.0734408488741 L68.88335467821048,-734.5060038774944 " />
			<path d="M68.8833546782105,-825.1452080791706 L68.88335467821051,-1127.5777711077908 " />
			<path d="M68.88335467821051,-1218.2169753094668 L68.88335467821052,-1533.0296284299498 " />
			<path d="M68.88335467821052,-1623.6688607860976 L68.88335467821052,-1623.6689556808756 " />
			<path d="M-58.1162271837132,10.692608655820077 L-58.11622718371313,-1610.7284311691533 " />
			<path d="M-70.5640770188149,3.3151756094463978 L-70.56407701881483,-1618.105864215527 " />
			<path d="M882.3337574679673,533.6326664843834 L884.3729054047204,-1087.5400821490264 " />
			<path d="M958.3915137635124,525.5208127353537 L960.4306617002655,-1095.651935898056 " />
			<path d="M878.1390742312966,533.1953827714177 L880.1782221680497,-1087.977365861992 " />
			<path d="M865.8137334306643,525.773881911338 L867.8528813674175,-1095.398866722072 " />
			<path d="M-9.979287541626029,3.2417643631219493 L865.5644444227752,522.1474978325117 " />
			<path d="M-9.979289698615773,-27.321888099823806 L865.5851351479308,491.59610935455623 " />
			<path d="M-7.038025820922315,-30.737119440964626 L865.6093429865726,486.4520356400948 " />
			<path d="M68.88335366024722,-39.00171218608201 L865.6762855725678,433.23103377799873 " />
			<path d="M-9.979288897338904,-389.82996572890625 L865.5851360545771,129.08840237789013 " />
			<path d="M-9.979288897338904,-420.39361692102574 L865.5851360545771,98.52475118577064 " />
			<path d="M-7.038024801281115,-423.80884813236685 L866.1033887821588,93.67348046733912 " />
			<path d="M68.88335467821045,-432.0734408488741 L866.1703314084706,40.452446552716935 " />
			<path d="M-9.979288897338883,-782.9017329592027 L865.5851360545772,-263.98336485240634 " />
			<path d="M-9.979288897338883,-813.4653841513222 L865.5851360545772,-294.5470160445258 " />
			<path d="M-7.038024801281095,-816.8806153626634 L866.597435089662,-299.1054816919054 " />
			<path d="M68.88335467821048,-825.1452080791706 L866.6643777159737,-352.3265156065275 " />
			<path d="M-9.979288897338858,-1175.973500189499 L865.5851360545772,-657.0551320827026 " />
			<path d="M-9.979288897338858,-1206.5371513816183 L865.5851360545772,-687.6187832748219 " />
			<path d="M-7.038024801281069,-1209.9523825929596 L867.0914813971649,-691.8844438511496 " />
			<path d="M68.88335467821051,-1218.2169753094668 L867.158424023477,-745.1054777657715 " />
			<path d="M-9.979289814563879,-1581.42538703312 L865.585135137342,-1062.5066917707104 " />
			<path d="M-9.97928791908253,-1611.9890371026747 L865.5851370328235,-1093.0703418402654 " />
			<path d="M-7.038023631077259,-1615.4042682002134 L868.5264013208287,-1096.4855729378041 " />
			<path d="M68.88335584841431,-1623.6688609134826 L944.4477808003203,-1104.750165651073 " />
			<path d="M70.8228129227572,-1624.4160375083566 L70.8228129227572,-1623.1441459110008 " />
			<path d="M70.8228129227572,-1531.8801743028803 L70.82281292275718,-1217.6922597285882 " />
			<path d="M70.82281292275718,-1126.4283177054022 L70.82281292275717,-824.6204924982917 " />
			<path d="M70.82281292275715,-733.356550475106 L70.82281292275714,-431.5487252679952 " />
			<path d="M70.82281292275714,-340.28478324480943 L70.82281292275712,-38.4769961329923 " />
			<path d="M-70.82281292275705,-1618.4260421415902 L-70.82281292275712,2.9949976833831657 " />
			<path d="M962.3825233916006,-1096.3994552593904 L960.3433754548474,524.77329337402 " />
			<path d="M867.5994313581949,-1095.7171524295613 L865.5602834214418,525.455596203849 " />
			<path d="M865.5623624885376,523.8026867422833 L-8.669542354453501,5.674429702418244 " />
			<path d="M865.677070795774,432.60676202203183 L70.51487278762683,-38.65950203858074 " />
			<path d="M866.0564082832703,131.0241322480058 L-8.669544572514592,-387.3973008995483 " />
			<path d="M866.1711166325433,39.82817410780632 L70.51487444944392,-431.7312303190173 " />
			<path d="M866.5504545907736,-261.7548299112385 L-8.669544572514571,-780.4690681298448 " />
			<path d="M866.6651629400463,-352.95078805143794 L70.51487444944397,-824.8029975493137 " />
			<path d="M866.8948803794016,-654.6224672533447 L-8.669544572514546,-1173.540835360141 " />
			<path d="M867.1592092475496,-745.7297502106824 L70.51487444944398,-1217.8747647796101 " />
			<path d="M866.8948787009462,-1060.0740273923775 L-8.669546250959984,-1578.992722654787 " />
			<path d="M945.7683424824714,-1104.5922499157468 L70.51487618892072,-1623.3266500461527 " />

       </g>
    </g>
    
</svg>
