<?xml version="1.0" encoding="UTF-8" standalone="no"?>
<svg
   xmlns:svg="http://www.w3.org/2000/svg"
   xmlns="http://www.w3.org/2000/svg"
   width="480.0"
   height="480.0"

>
    <g transform="scale(0.17477028960008453, -0.17477028960008453)   translate(114.48531957275318,-1676.8261351410613)" stroke-width="1.0"  fill="none">
       <!-- hidden lines -->
       <g  stroke="rgb(0,0,0)" fill="none" stroke-dasharray="1.0,1.0" >
			<path d="M56.56613655605312,12.013001087236741 L-26.893121797217965,-19.090428084368472 " />
			<path d="M-27.324797979571283,-19.222724834579772 L-27.208940374881475,-19.192028739991652 L-27.098204053470408,-19.159696071004475 L-26.992848805555152,-19.125802680879286 L-26.89312179721798,-19.09042808436848 " />
			<path d="M56.566136556053124,12.01300108723674 L56.64819142587281,12.04493896187817 L56.725657169005046,12.077879815896615 L56.7983960392937,12.111765075323278 L56.86627869569872,12.146534486889456 L56.929184432284664,12.182126225166243 L56.987001392854665,12.218477002499766 L57.03962676984817,12.255522181546498 L57.086966987148756,12.29319589020851 L57.12893786647711,12.331431138764332 L57.16546477707304,12.370159938987106 L57.19648276840065,12.409313425038238 L57.22193668564047,12.448821975921593 L57.24178126776336,12.488615339280464 L57.255981228011606,12.528622756317203 L57.26451131664433,12.568773087613387 L57.267356365835425,12.608994939626772 " />
			<path d="M57.267356365835425,12.60899493962678 L57.266101892726084,12.635706658564725 L57.262339456962316,12.662397434294475 L57.256072008465665,12.689046340028266 L57.24730446120214,12.715632481806328 L57.23604368932942,12.742135014878697 L57.22229852180718,12.768533160048452 L57.20607973547483,12.794806219963565 L57.187400046601944,12.820933595344556 L57.142718462130134,12.872669482564143 L57.088393870540244,12.923578600312435 L57.02459661028577,12.973501319586582 L56.95152672201736,13.022281104303278 L56.869413321341774,13.069765002128287 L56.778513880414295,13.115804124068905 L56.67911342061726,13.160254111325521 L56.57152361885614,13.202975587938466 L56.45608183027538,13.243834597810805 L56.3331500304584,13.282703024736804 L56.20311368042848,13.319458994119007 L56.06638051800958,13.35398725511433 " />
			<path d="M56.06638051800958,13.353987255114333 L31.390926139609817,19.239426547465982 " />
			<path d="M31.390926139609817,19.239426547465982 L31.265908894882198,19.267773203845383 L31.136377003370924,19.294256818905065 L31.002642518748296,19.318813591296657 L30.86502761910153,19.341384361604547 L30.72386383077751,19.361914754866095 L30.579491229706804,19.38035531156569 L30.432257622130933,19.396661606787035 L30.28251770670669,19.410794357236682 L30.130632220006,19.422719515880917 L29.97696706746992,19.43240835396804 L29.821892441910393,19.43983753023846 L29.66578193168332,19.444989147155827 L29.509011620681502,19.44785079402375 L29.351959182315603,19.44841557688428 L29.195002969665815,19.446682135126032 L29.03852110399615,19.442654644762037 L28.882890563827203,19.43634280836935 L28.72848627676186,19.427761831714687 L28.57568021625189,19.416932387122415 L28.42484050548128,19.40388056367311 L28.276330530525282,19.38863780435266 L28.1305080649215,19.37124083030338 L27.987724407762112,19.351731552359542 L27.84832353738359,19.330156970080534 L27.712641282692744,19.30656905852477 L27.581004514125492,19.28102464303725 L27.453730356187332,19.2535852623523 L27.33112542347263,19.224317020341406 L27.213485082003228,19.193290426763163 L27.101092737665795,19.160580227399112 L26.99421915346225,19.126265223984593 L26.893121797217972,19.090428084368476 " />
			<path d="M26.893121797217965,19.090428084368472 L-56.56613655605312,-12.013001087236741 " />
			<path d="M1789.7343427614178,-419.3204678643227 L1789.616004961348,-419.2783002964365 L1789.4897779367025,-419.2382357336154 L1789.356078504993,-419.20040647408496 L1789.215348158559,-419.164937434818 " />
			<path d="M1789.2153481585588,-419.16493743481794 L1764.4569417974776,-413.2801443546939 " />
			<path d="M1764.4569417974774,-413.28014435469385 L1764.3315250773821,-413.2518072145181 L1764.2016200787712,-413.22534570324416 L1764.0675397541645,-413.2008235689703 L1763.9296071148085,-413.17829988766596 L1763.7881544525123,-413.15782892085224 L1763.6435225391294,-413.1394599848812 L1763.4960598056075,-413.1232373321286 L1763.346121502588,-413.1092000443858 L1763.1940688445752,-413.09738193870845 L1763.0402681397413,-413.08781148594835 L1762.8850899074553,-413.08051174216445 L1762.7289079856707,-413.0755002930789 L1762.572098630317,-413.0727892117115 L1762.4150396088662,-413.0723850292947 L1762.2581092902578,-413.07428871953937 L1762.1016857333748,-413.078495696289 L1761.9461457762666,-413.08499582456807 L1761.7918641283136,-413.0937734449982 L1761.6392124675194,-413.104807411523 L1761.4885585451054,-413.1180711423506 L1761.3402652995665,-413.13353268399163 L1761.19468998232,-413.1511547882381 L1761.0521832970562,-413.17089500189735 L1760.913088554862,-413.1927057690656 L1760.7777408471547,-413.21653454569434 L1760.6464662384171,-413.2423239261736 L1760.5195809806798,-413.2700117816268 L1760.397390751643,-413.29953140958503 L1760.2801899182703,-413.33081169467897 L1760.1682608276355,-413.36377727996194 L1760.0618731267216,-413.3983487484516 L1759.9612831128186,-413.4344428144522 " />
			<path d="M1759.9612831128188,-413.4344428144523 L1708.6336871576368,-432.7996739721004 " />
			<path d="M1708.6336871576368,-432.7996739721003 L1708.5385571010931,-432.83744616570283 L1708.4497760192482,-432.876580118322 L1708.3675605153298,-432.91698035308053 L1708.2921111742273,-432.9585483036954 L1708.2236120731168,-433.0011825549542 L1708.1622303323584,-433.0447790901425 L1708.1081157077663,-433.08923154481835 L1708.0614002252414,-433.134431466314 " />
			<path d="M24.706691493770432,0.13972262641885358 L-26.893119430898768,-19.09039148868044 " />
			<path d="M1760.3437943143733,-413.83351645199446 L1708.743983389704,-433.0636305670937 " />
			<path d="M1707.940938695835,-433.10560921275555 L1708.0015646484803,-433.12184811781145 " />
			<path d="M1708.0015646484803,-433.12184811781145 L1708.0906506971403,-433.1393759036791 L1708.1812144784274,-433.1498236484639 L1708.2730511516163,-433.1531677210454 L1708.3659529969052,-433.14940055766874 L1708.4597098852435,-433.1385306790522 L1708.5541097536104,-433.1205826711152 L1708.6489390846687,-433.09559712936846 L1708.743983389704,-433.06363056709375 " />
			<path d="M24.70669149377043,0.13972262641884825 L24.804778959317563,0.17995690787204133 L24.902630122532617,0.227452743806011 L25.000009251392658,0.2820957125918473 L25.09668175104685,0.3437541745315871 L25.192414728976026,0.4122795889897737 L25.286977556051127,0.48750687224085976 L25.38014242213901,0.5692547951703615 L25.471684884916986,0.6573264198716702 L25.56138441057405,0.7515095740867164 L25.649024905096148,0.851577362347526 L25.734395234855572,0.957288712587276 L25.817289735250373,1.0683889569040188 L25.897508706168402,1.1846104450779622 L25.974858893082367,1.3056731893642946 L26.049153952616912,1.4312855390081878 L26.12021490146614,1.5611448828570063 L26.187870547580072,1.6949383783770835 L26.25195790258128,1.8323437053187852 L26.312322574418186,1.9730298422142227 L26.368819139309004,2.116657863836967 L26.421311492080402,2.2628817577025977 L26.469673174056766,2.4113492576430926 L26.513787677710233,2.5617026924468793 L26.553548727337525,2.7135798475201085 L26.588860535087434,2.866614837493342 L26.619638031722147,3.0204389876714517 L26.645807071556472,3.1746817222032537 L26.667304611081313,3.3289714568311943 L26.684078860840998,3.4829364940703695 L26.696089410198603,3.636205918660325 L26.70330732468872,3.788410491132409 L26.705715215723135,3.939183537339982 " />
			<path d="M1760.3437943143733,-413.83351645199446 L1760.4418817799205,-413.79328217054126 L1760.5397329431355,-413.7457863346073 L1760.6371120719957,-413.69114336582146 L1760.7337845716497,-413.62948490388175 L1760.829517549579,-413.56095948942357 L1760.924080376654,-413.48573220617243 L1761.0172452427419,-413.40398428324295 L1761.10878770552,-413.31591265854166 L1761.198487231177,-413.2217295043266 L1761.286127725699,-413.1216617160658 L1761.3714980554585,-413.01595036582603 L1761.4543925558532,-412.9048501215093 L1761.5346115267714,-412.78862863333535 L1761.6119617136853,-412.667565889049 L1761.6862567732198,-412.54195353940514 L1761.757317722069,-412.4120941955563 L1761.824973368183,-412.27830070003625 L1761.8890607231842,-412.1408953730945 L1761.949425395021,-412.0002092361991 L1762.005921959912,-411.85658121457635 L1762.0584143126835,-411.7103573207107 L1762.1067759946598,-411.5618898207702 L1762.1508904983132,-411.41153638596643 L1762.1906515479404,-411.2596592308932 L1762.2259633556903,-411.10662424092 L1762.256740852325,-410.95280009074185 L1762.2829098921595,-410.79855735621004 L1762.3044074316842,-410.6442676215821 L1762.321181681444,-410.49030258434294 L1762.3331922308016,-410.337033159753 L1762.3404101452916,-410.1848285872809 L1762.342818036326,-410.0340555410733 " />
			<path d="M26.70571521572314,3.9391835373399893 L26.70571096855881,34.10206092812042 " />
			<path d="M1762.3428180363262,-410.03405554107337 L1762.342813789162,-379.87117815029296 " />
			<path d="M26.705710968558815,34.10206092812042 L26.70315122036107,34.25563218603003 L26.69547857473822,34.40690224419561 L26.682712681151564,34.555483703628525 L26.66488623274821,34.700996050776986 L26.642044882634696,34.84306663201209 L26.6142471269605,34.98133160798485 L26.581564155110783,35.11543688541001 L26.544079667392097,35.245039023890484 L26.501889660677893,35.369806115459944 L26.455102182562854,35.48941863459117 L26.403837054655575,35.60357025649324 L26.34822556571832,35.711968641601985 L26.288410135439634,35.8143361842546 L26.22454394970095,35.910410723631074 L26.156790568271223,35.99994621514175 L26.085323505934287,36.08271336054162 " />
			<path d="M1762.3428137891615,-379.87117815029285 L1762.3414310232695,-379.7581039297961 L1762.3372846705345,-379.6462167799131 L1762.330380467124,-379.53567148811334 L1762.3207279644853,-379.42662098550653 L1762.3083405161306,-379.3192161352738 L1762.2932352591647,-379.21360552395976 L1762.2754330905761,-379.10993525591425 L1762.2549586383286,-379.00834875116794 L1762.2318402272888,-378.9089865470213 L1762.2061098400422,-378.81198610362213 L1762.177803072648,-378.7174816137995 L1762.1469590853924,-378.62560381741827 L1762.1136205486162,-378.53647982051 L1762.0778335836808,-378.4502329194315 L1762.039647699165,-378.3669824302938 L1761.9991157223726,-378.28684352389666 L1761.9562937262494,-378.2099270663991 L1761.9112409518116,-378.1363394659438 L1761.864019726189,-378.0661825254501 L1761.8146953764017,-377.9995533017764 L1761.7633361389828,-377.9365439714503 L1761.7100130655808,-377.8772417031484 L1761.6547999246636,-377.8217285371056 L1761.597773099465,-377.7700812716183 L1761.5390114823153,-377.72237135679984 L1761.478596365499,-377.6786647957345 L1761.4166113287936,-377.6390220531673 L1761.3531421238422,-377.60349797185563 L1761.288276555524,-377.5721416966982 L1761.222104360481,-377.5449966067471 L1761.1547170829763,-377.52210025519565 L1761.0862079482474,-377.50348431742685 " />
			<path d="M1761.0862079482474,-377.50348431742685 L1760.9971218995875,-377.4859565315592 L1760.9065581183004,-377.4755087867744 L1760.8147214451114,-377.4721647141929 L1760.7218195998225,-377.47593187756956 L1760.6280627114843,-377.4868017561861 L1760.5336628431173,-377.5047497641231 L1760.438833512059,-377.52973530586985 L1760.3437892070237,-377.56170186814455 " />
			<path d="M1760.343789207024,-377.56170186814467 L1708.7439782823546,-396.7918159832439 " />
			<path d="M1708.7439782823544,-396.79181598324385 L1708.6419237944115,-396.8338325074298 L1708.5401354680273,-396.88370557547205 L1708.4388787694834,-396.94130511726917 L1708.3384177785642,-397.00648091189976 L1708.2390144998299,-397.0790629794017 L1708.1409281793033,-397.1588620240841 L1708.0444146283503,-397.24566992821457 L1707.9497255565175,-397.33926029479505 " />
			<path d="M24.70668913077752,388.0571847335211 L-26.89312179721793,368.8270705899987 " />
			<path d="M1760.343791879801,-25.916420175023255 L1708.7439809518057,-45.14653431854564 " />
			<path d="M1708.0362339450683,-45.21245176060107 L1708.1215012077878,-45.22665557272802 L1708.2080420736231,-45.234445966092004 L1708.295679478634,-45.23580700142854 L1708.3842341153436,-45.23073589403844 L1708.4735247996055,-45.2192430194853 L1708.5633688413081,-45.20135189236696 L1708.6535824181628,-45.177099118204254 L1708.7439809518055,-45.14653431854559 " />
			<path d="M24.70668913077752,388.0571847335211 L24.804776596849045,388.09741901490423 L24.902627761623354,388.1449148505201 L25.00000689307376,388.1995578187405 L25.096679396343195,388.2612162798689 L25.192412378903764,388.3297416932718 L25.28697521161527,388.4049689752261 L25.38014008433098,388.4867168966206 L25.47168255471224,388.5747885195522 L25.561382088929733,388.6689716717673 L25.649022592948775,388.76903945780253 L25.734392933118784,388.87475080559665 L25.817287444812727,388.9858510472534 L25.89750642789124,389.10207253255953 L25.97485662779773,389.2231352737771 L26.049151701125545,389.34874762015863 L26.120212664535554,389.47860696055943 L26.187868325942706,389.6124004524541 L26.251955696932725,389.7498057756017 L26.312320385415514,389.89049190854354 L26.36881696756919,390.03411992606266 L26.421309338178833,390.1803438156846 L26.469671038525853,390.32881131125146 L26.513785561038127,390.4791647415623 L26.553546629966952,390.63104189203403 L26.588858457414617,390.78407687730834 L26.619635974095853,390.9379010227014 L26.645805034277178,391.09214375237354 L26.667302594400482,391.246433482079 L26.684076864960456,391.4003985143446 L26.69608743527008,391.55366793392193 L26.703305370813464,391.70587250135446 L26.705713282951677,391.85664554250764 " />
			<path d="M1760.343791879801,-25.916420175023216 L1760.4418793458726,-25.876185893640102 L1760.539730510647,-25.828690058024268 L1760.6371096420974,-25.77404708980385 L1760.7337821453668,-25.71238862867546 L1760.8295151279274,-25.64386321527259 L1760.924077960639,-25.568635933318248 L1761.0172428333544,-25.486888011923792 L1761.1087853037359,-25.398816388992138 L1761.1984848379532,-25.30463323677709 L1761.2861253419724,-25.2045654507418 L1761.3714956821423,-25.098854102947733 L1761.4543901938364,-24.987753861290944 L1761.5346091769147,-24.87153237598482 L1761.6119593768212,-24.75046963476726 L1761.6862544501491,-24.624857288385698 L1761.7573154135591,-24.494997947984917 L1761.8249710749662,-24.36120445609027 L1761.8890584459564,-24.22379913294266 L1761.949423134439,-24.083113000000836 L1762.0059197165926,-23.9394849824817 L1762.0584120872024,-23.79326109285979 L1762.1067737875494,-23.6447935972929 L1762.1508883100616,-23.494440166982073 L1762.1906493789904,-23.342563016510326 L1762.2259612064381,-23.18952803123602 L1762.2567387231195,-23.035703885842956 L1762.2829077833007,-22.881461156170793 L1762.304405343424,-22.727171426465382 L1762.321179613984,-22.57320639419976 L1762.3331901842937,-22.419936974622406 L1762.340408119837,-22.267732407189893 L1762.3428160319752,-22.116959366036717 " />
			<path d="M26.705713282951677,391.85664554250764 L26.705713282951677,422.01952191580983 " />
			<path d="M1762.3428160319752,-22.116959366036717 L1762.3428160319752,8.045917007265466 " />
			<path d="M26.705713282951677,422.01952191580983 L26.70315355802013,422.17309312357855 L26.69548093861574,422.32436313308455 L26.6827150741211,422.47294454569203 L26.664888657589543,422.61845684819326 L26.642047342019097,422.76052738729334 L26.61424962343631,422.8987923239654 L26.581566691089414,423.0328975652335 L26.54408224513448,423.16249967099554 L26.501892282281453,423.2872667335644 L26.45510484994903,423.4068792276755 L26.403839769557973,423.5210308287824 L26.348228329671503,423.62942919754636 L26.288412949768652,423.7317967285101 L26.224546815511587,423.8278712610379 L26.156793486441067,423.91740675070264 L26.085326477104605,424.0001738993991 " />
			<path d="M1762.3428160319752,8.045917007265487 L1762.3414332823545,8.158991212654103 L1762.337286946422,8.27087834768633 L1762.3303827603208,8.381423624944144 L1762.3207302754722,8.490474113368617 L1762.3083428453615,8.597878949828496 L1762.2932376070646,8.703489547827994 L1762.27543545754,8.807159803064984 L1762.2549610247197,8.908746295555312 L1762.2318426334384,9.008108488043518 L1762.206112266248,9.105108920425542 L1762.177805519172,9.199613399914423 L1762.1469615524616,9.29149118668589 L1762.1136230364195,9.380615174747076 L1762.0778360923703,9.466862067778058 L1762.0396502288536,9.550112549703035 L1761.999118273133,9.630251449755121 L1761.956296298115,9.70716790180642 L1761.9112435447735,9.780755497742964 L1761.8640223401976,9.850912434672306 L1761.8146980113643,9.91754165576016 L1761.7633387947649,9.980550984501214 L1761.7100157420045,10.039853252238366 L1761.6548026215075,10.095366418754006 L1761.5977758164647,10.147013685766467 L1761.539014219162,10.19472360317466 L1761.4785991218407,10.2384301679039 L1761.416614104234,10.278072915216187 L1761.353144917942,10.313597002358618 L1761.2882793678,10.344953284434197 L1761.2221071904073,10.372098382390098 L1761.154719929984,10.39499474302931 L1761.0862108117253,10.41361069096266 " />
			<path d="M1761.0862108117253,10.413610690962662 L1760.9971247459912,10.431138497171414 L1760.906560945338,10.441586258147689 L1760.8147242506632,10.444930342719662 L1760.7218223819475,10.441163187100479 L1760.6280654684267,10.430293311996337 L1760.5336655733104,10.412345303334016 L1760.4388362141312,10.387359756651408 L1760.343791879801,10.355393185276895 " />
			<path d="M1760.343791879801,10.355393185276832 L1708.7439809518057,-8.874720958245554 " />
			<path d="M1708.7439809518055,-8.87472095824548 L1708.6547584903935,-8.911016134721718 L1708.5657138581387,-8.953326828008526 L1708.4770245297668,-9.00156870872518 L1708.3888672718479,-9.055645626049996 L1708.3014177904836,-9.115449799358384 L1708.2148503811068,-9.180862033040249 L1708.1293375810944,-9.251751954068604 L1708.0450498258824,-9.32797827184583 " />
			<path d="M24.70668913077755,775.9746834078883 L-26.893121797217898,756.744569264366 " />
			<path d="M1760.343791879801,362.00107849934403 L1708.7439809518057,342.7709643558216 " />
			<path d="M1708.1315313803368,342.68960380638765 L1708.2060423386135,342.6831594852766 L1708.2813681594182,342.68147503964855 L1708.3573947401612,342.6845530210802 L1708.4340069167506,342.69238876708465 L1708.5110886380419,342.7049704081742 L1708.58852314163,342.72227888583984 L1708.6661931307199,342.7442879814211 L1708.7439809518055,342.7709643558216 " />
			<path d="M24.706689130777548,775.9746834078884 L24.804776596849074,776.0149176892714 L24.902627761623382,776.0624135248873 L25.000006893073788,776.1170564931077 L25.096679396343223,776.178714954236 L25.192412378903793,776.2472403676389 L25.2869752116153,776.3224676495934 L25.380140084331007,776.4042155709877 L25.471682554712267,776.4922871939194 L25.56138208892976,776.5864703461344 L25.649022592948803,776.6865381321697 L25.734392933118812,776.7922494799639 L25.817287444812756,776.9033497216207 L25.89750642789127,777.0195712069268 L25.97485662779776,777.1406339481443 L26.049151701125574,777.2662462945259 L26.120212664535583,777.3961056349267 L26.187868325942734,777.5298991268213 L26.251955696932754,777.6673044499689 L26.312320385415543,777.8079905829107 L26.36881696756922,777.9516186004299 L26.42130933817886,778.0978424900518 L26.46967103852588,778.2463099856187 L26.513785561038155,778.3966634159295 L26.55354662996698,778.5485405664012 L26.588858457414645,778.7015755516755 L26.619635974095882,778.8553996970686 L26.645805034277206,779.0096424267408 L26.66730259440051,779.1639321564462 L26.684076864960485,779.3178971887118 L26.69608743527011,779.4711666082892 L26.703305370813492,779.6233711757217 L26.705713282951706,779.7741442168749 " />
			<path d="M1760.343791879801,362.00107849934403 L1760.4418793458726,362.04131278072714 L1760.539730510647,362.088808616343 L1760.6371096420974,362.1434515845634 L1760.7337821453668,362.2051100456918 L1760.8295151279274,362.2736354590947 L1760.924077960639,362.348862741049 L1761.0172428333544,362.4306106624435 L1761.1087853037359,362.5186822853751 L1761.1984848379532,362.6128654375902 L1761.2861253419724,362.71293322362544 L1761.3714956821423,362.81864457141955 L1761.4543901938364,362.9297448130763 L1761.5346091769147,363.04596629838244 L1761.6119593768212,363.1670290396 L1761.6862544501491,363.29264138598154 L1761.7573154135591,363.42250072638234 L1761.8249710749662,363.556294218277 L1761.8890584459564,363.6936995414246 L1761.949423134439,363.83438567436644 L1762.0059197165926,363.97801369188556 L1762.0584120872024,364.1242375815075 L1762.1067737875494,364.27270507707436 L1762.1508883100616,364.4230585073852 L1762.1906493789904,364.57493565785694 L1762.2259612064381,364.72797064313124 L1762.2567387231195,364.8817947885243 L1762.2829077833007,365.03603751819645 L1762.304405343424,365.1903272479019 L1762.321179613984,365.3442922801675 L1762.3331901842937,365.49756169974484 L1762.340408119837,365.64976626717737 L1762.3428160319752,365.80053930833054 " />
			<path d="M26.705713282951706,779.7741442168748 L26.705713282951706,809.937020590177 " />
			<path d="M1762.3428160319752,365.8005393083305 L1762.3428160319752,395.9634156816327 " />
			<path d="M26.705713282951706,809.937020590177 L26.70315355802016,810.0905917979456 L26.69548093861577,810.2418618074516 L26.682715074121123,810.3904432200592 L26.66488865758956,810.5359555225605 L26.64204734201911,810.6780260616605 L26.61424962343632,810.8162909983326 L26.581566691089414,810.9503962396008 L26.54408224513447,811.0799983453627 L26.501892282281432,811.2047654079316 L26.455104849949002,811.3243779020428 L26.40383976955793,811.4385295031497 L26.34822832967145,811.5469278719136 L26.288412949768585,811.6492954028773 L26.22454681551151,811.7453699354052 L26.15679348644097,811.8349054250699 L26.085326477104495,811.9176725737664 " />
			<path d="M1762.3428160319752,395.9634156816326 L1762.3414332823545,396.07648988702124 L1762.337286946422,396.1883770220535 L1762.3303827603208,396.2989222993113 L1762.3207302754722,396.4079727877358 L1762.3083428453615,396.51537762419565 L1762.2932376070646,396.62098822219514 L1762.27543545754,396.7246584774321 L1762.2549610247197,396.82624496992247 L1762.2318426334384,396.92560716241064 L1762.206112266248,397.0226075947927 L1762.177805519172,397.1171120742816 L1762.1469615524616,397.20898986105306 L1762.1136230364195,397.2981138491142 L1762.0778360923703,397.3843607421452 L1762.0396502288536,397.4676112240702 L1761.999118273133,397.5477501241223 L1761.956296298115,397.6246665761736 L1761.9112435447735,397.6982541721101 L1761.8640223401976,397.76841110903945 L1761.8146980113643,397.8350403301273 L1761.7633387947649,397.8980496588684 L1761.7100157420045,397.9573519266055 L1761.6548026215075,398.01286509312115 L1761.5977758164647,398.0645123601336 L1761.539014219162,398.11222227754183 L1761.4785991218407,398.15592884227107 L1761.416614104234,398.1955715895833 L1761.353144917942,398.2310956767258 L1761.2882793678,398.26245195880136 L1761.2221071904073,398.28959705675726 L1761.154719929984,398.31249341739647 L1761.0862108117253,398.33110936532984 " />
			<path d="M1761.0862108117253,398.33110936532984 L1760.9971247459912,398.34863717153854 L1760.906560945338,398.35908493251486 L1760.8147242506632,398.3624290170868 L1760.7218223819475,398.3586618614676 L1760.6280654684267,398.3477919863635 L1760.5336655733104,398.32984397770116 L1760.4388362141312,398.30485843101854 L1760.343791879801,398.27289185964406 " />
			<path d="M1760.343791879801,398.2728918596442 L1708.7439809518057,379.04277771612175 " />
			<path d="M1708.7439809518055,379.04277771612163 L1708.6673523220645,379.0119749379162 L1708.5908363333822,378.97672749054186 L1708.5145454612402,378.9370871863539 L1708.4385918502066,378.8931122950338 L1708.3630871490898,378.84486745793475 L1708.288142346818,378.79242359306176 L1708.21386760929,378.7358577908246 L1708.1403721174368,378.67525320071826 " />
			<path d="M24.706689130777583,1163.8921820822554 L-26.893121797217866,1144.6620679387331 " />
			<path d="M1760.343791879801,749.918577173711 L1708.7439809518057,730.6884630301887 " />
			<path d="M1708.2268307945883,730.5997146960144 L1708.2902576564275,730.5990883267058 L1708.3541699242592,730.6018253296184 L1708.4184992229348,730.6079227766293 L1708.4831767311543,730.6173741445174 L1708.548133255093,730.6301693219426 L1708.6132993024278,730.6462946202628 L1708.6786051566808,730.6657327881785 L1708.7439809518055,730.6884630301889 " />
			<path d="M24.70668913077758,1163.8921820822557 L24.804776596849106,1163.9324163636388 L24.902627761623414,1163.9799121992546 L25.00000689307382,1164.034555167475 L25.096679396343255,1164.0962136286034 L25.192412378903825,1164.1647390420062 L25.28697521161533,1164.2399663239605 L25.38014008433104,1164.321714245355 L25.4716825547123,1164.4097858682867 L25.561382088929793,1164.5039690205017 L25.649022592948835,1164.6040368065371 L25.734392933118844,1164.709748154331 L25.817287444812788,1164.820848395988 L25.8975064278913,1164.937069881294 L25.97485662779779,1165.0581326225115 L26.049151701125606,1165.183744968893 L26.120212664535615,1165.3136043092939 L26.187868325942766,1165.4473978011886 L26.251955696932786,1165.584803124336 L26.312320385415575,1165.725489257278 L26.368816967569252,1165.8691172747972 L26.421309338178894,1166.015341164419 L26.46967103852591,1166.163808659986 L26.513785561038187,1166.3141620902968 L26.553546629967013,1166.4660392407684 L26.588858457414677,1166.6190742260428 L26.619635974095914,1166.772898371436 L26.645805034277238,1166.927141101108 L26.667302594400542,1167.0814308308134 L26.684076864960517,1167.235395863079 L26.69608743527014,1167.3886652826563 L26.703305370813524,1167.540869850089 L26.705713282951738,1167.691642891242 " />
			<path d="M1760.343791879801,749.9185771737112 L1760.4418793458726,749.9588114550943 L1760.539730510647,750.0063072907102 L1760.6371096420974,750.0609502589306 L1760.7337821453668,750.1226087200589 L1760.8295151279274,750.1911341334618 L1760.924077960639,750.2663614154162 L1761.0172428333544,750.3481093368106 L1761.1087853037359,750.4361809597423 L1761.1984848379532,750.5303641119573 L1761.2861253419724,750.6304318979926 L1761.3714956821423,750.7361432457867 L1761.4543901938364,750.8472434874435 L1761.5346091769147,750.9634649727496 L1761.6119593768212,751.0845277139672 L1761.6862544501491,751.2101400603487 L1761.7573154135591,751.3399994007495 L1761.8249710749662,751.4737928926442 L1761.8890584459564,751.6111982157918 L1761.949423134439,751.7518843487336 L1762.0059197165926,751.8955123662528 L1762.0584120872024,752.0417362558746 L1762.1067737875494,752.1902037514416 L1762.1508883100616,752.3405571817524 L1762.1906493789904,752.4924343322241 L1762.2259612064381,752.6454693174984 L1762.2567387231195,752.7992934628915 L1762.2829077833007,752.9535361925637 L1762.304405343424,753.1078259222691 L1762.321179613984,753.2617909545346 L1762.3331901842937,753.415060374112 L1762.340408119837,753.5672649415445 L1762.3428160319752,753.7180379826978 " />
			<path d="M26.70571328295174,1167.691642891242 L26.70571328295174,1197.854519264544 " />
			<path d="M1762.3428160319752,753.7180379826975 L1762.3428160319752,783.8809143559997 " />
			<path d="M26.705713282951738,1197.854519264544 L26.70315355802019,1198.008090472313 L26.695480938615802,1198.1593604818188 L26.682715074121155,1198.3079418944262 L26.664888657589593,1198.4534541969276 L26.642047342019143,1198.5955247360278 L26.61424962343635,1198.7337896726997 L26.581566691089446,1198.8678949139678 L26.5440822451345,1198.99749701973 L26.501892282281467,1199.122264082299 L26.455104849949034,1199.2418765764098 L26.403839769557962,1199.3560281775167 L26.348228329671482,1199.4644265462807 L26.288412949768617,1199.5667940772446 L26.22454681551154,1199.6628686097722 L26.156793486441003,1199.752404099437 L26.085326477104527,1199.8351712481335 " />
			<path d="M1762.3428160319752,783.8809143559997 L1762.3414332823545,783.9939885613883 L1762.337286946422,784.1058756964205 L1762.3303827603208,784.2164209736783 L1762.3207302754722,784.3254714621028 L1762.3083428453615,784.4328762985626 L1762.2932376070646,784.5384868965622 L1762.27543545754,784.6421571517992 L1762.2549610247197,784.7437436442895 L1762.2318426334384,784.8431058367777 L1762.206112266248,784.9401062691597 L1762.177805519172,785.0346107486486 L1762.1469615524616,785.1264885354201 L1762.1136230364195,785.2156125234812 L1762.0778360923703,785.3018594165122 L1762.0396502288536,785.3851098984372 L1761.999118273133,785.4652487984893 L1761.956296298115,785.5421652505406 L1761.9112435447735,785.6157528464771 L1761.8640223401976,785.6859097834065 L1761.8146980113643,785.7525390044943 L1761.7633387947649,785.8155483332354 L1761.7100157420045,785.8748506009725 L1761.6548026215075,785.9303637674882 L1761.5977758164647,785.9820110345007 L1761.539014219162,786.0297209519089 L1761.4785991218407,786.073427516638 L1761.416614104234,786.1130702639504 L1761.353144917942,786.1485943510928 L1761.2882793678,786.1799506331683 L1761.2221071904073,786.2070957311242 L1761.154719929984,786.2299920917635 L1761.0862108117253,786.2486080396968 " />
			<path d="M1761.0862108117253,786.2486080396968 L1760.9971247459912,786.2661358459056 L1760.906560945338,786.2765836068819 L1760.8147242506632,786.2799276914538 L1760.7218223819475,786.2761605358347 L1760.6280654684267,786.2652906607306 L1760.5336655733104,786.2473426520683 L1760.4388362141312,786.2223571053856 L1760.343791879801,786.190390534011 " />
			<path d="M1760.343791879801,786.190390534011 L1708.7439809518057,766.9602763904887 " />
			<path d="M1708.7439809518055,766.9602763904887 L1708.6797505980076,766.9347620396715 L1708.6155865722235,766.9061198139319 L1708.5515551339736,766.8743792909048 L1708.4877224058596,766.8395732477079 L1708.4241543052844,766.8017376270936 L1708.3609164763805,766.7609115003335 L1708.2980742222228,766.7171370268699 L1708.2356924373926,766.6704594107803 " />
			<path d="M24.706686852708195,1564.0274624028857 L-26.893124075287254,1544.7973482561679 " />
			<path d="M1760.343789601712,1150.0535346286508 L1708.7439786737166,1130.823420481933 " />
			<path d="M1708.3251336466305,1130.7351251382863 L1708.3768491370395,1130.7385532018034 L1708.4288202183448,1130.744166828481 L1708.4810107089806,1130.7519621101874 L1708.5333842746315,1130.761933619953 L1708.5859044535273,1130.7740744157472 L1708.6385346818277,1130.7883760453117 L1708.691238319078,1130.804828552045 L1708.7439786737161,1130.8234204819332 " />
			<path d="M24.706686852708188,1564.0274624028857 L24.80477431923766,1564.0676966841656 L24.902625485384704,1564.11519251946 L25.00000461911932,1564.1698354871412 L25.096677125578942,1564.2314939475143 L25.192410112227996,1564.3000193599476 L25.286972949916425,1564.37524664072 L25.38013782848551,1564.4569945607234 L25.4716803055825,1564.545066182058 L25.56137984736189,1564.639249332474 L25.649020359770788,1564.7393171165124 L25.734390709138392,1564.845028462117 L25.81728523081552,1564.9561287013964 L25.89750422463875,1565.0723501841433 L25.97485443602561,1565.1934129226258 L26.049149521541786,1565.3190252661034 L26.12021049781879,1565.448884603438 L26.18786617274056,1565.5826780921116 L26.25195355786028,1565.7200834118912 L26.3123182610538,1565.8607695413261 L26.368814858463804,1566.004397555208 L26.421307244838616,1566.1506214410708 L26.469668961421664,1566.2990889327662 L26.51378350060172,1566.449442359102 L26.553544586589915,1566.601319505505 L26.58885643144745,1566.7543544866269 L26.619633965847108,1566.9081786277934 L26.645803044012727,1567.0624213531753 L26.66730062234286,1567.2167110785372 L26.684074911288356,1567.370676106416 L26.69608550011788,1567.5239455215747 L26.703303454270944,1567.6761500845664 L26.705711385063776,1567.826923121268 " />
			<path d="M1760.3437896017117,1150.0535346286508 L1760.4418770682412,1150.0937689099308 L1760.5397282343883,1150.141264745225 L1760.637107368123,1150.1959077129063 L1760.7337798745825,1150.2575661732794 L1760.8295128612317,1150.3260915857127 L1760.92407569892,1150.401318866485 L1761.017240577489,1150.4830667864885 L1761.1087830545862,1150.5711384078231 L1761.1984825963655,1150.6653215582392 L1761.2861231087743,1150.7653893422776 L1761.371493458142,1150.871100687882 L1761.454387979819,1150.9822009271616 L1761.5346069736424,1151.0984224099084 L1761.6119571850293,1151.219485148391 L1761.6862522705453,1151.3450974918685 L1761.7573132468224,1151.4749568292032 L1761.8249689217441,1151.6087503178767 L1761.889056306864,1151.7461556376563 L1761.9494210100574,1151.8868417670913 L1762.0059176074674,1152.0304697809731 L1762.0584099938421,1152.176693666836 L1762.1067717104252,1152.3251611585313 L1762.1508862496053,1152.4755145848671 L1762.1906473355934,1152.62739173127 L1762.2259591804511,1152.780426712392 L1762.2567367148506,1152.9342508535585 L1762.2829057930164,1153.0884935789404 L1762.3044033713466,1153.2427833043023 L1762.321177660292,1153.3967483321812 L1762.3331882491216,1153.5500177473398 L1762.3404062032746,1153.7022223103315 L1762.3428141340673,1153.8529953470331 " />
			<path d="M26.70571138506378,1567.8269231212678 L26.705715139355377,1597.9897985986297 " />
			<path d="M1762.3428141340673,1153.8529953470334 L1762.3428178883591,1184.0158708243953 " />
			<path d="M26.705715139355377,1597.9897985986304 L26.703155434984385,1598.143369762268 L26.69548283873896,1598.294639728949 L26.682716999932197,1598.4432211003482 L26.66489061153469,1598.58873336356 L26.64204932644875,1598.7308038655838 L26.614251640592517,1598.8690687676765 L26.581568743093506,1599.0031739771339 L26.54408433397514,1599.1327760541137 L26.501894409803253,1599.2575430911745 L26.455107017841456,1599.377155563283 L26.403841979345,1599.4913071461074 L26.34823058270174,1599.5997055005078 L26.288415247206107,1599.7020730212073 L26.224549158327132,1599.7981475477327 L26.15679587540454,1599.8876830357997 L26.085328912777705,1599.9704501874262 " />
			<path d="M1762.3428178883594,1184.0158708243953 L1762.3417117719202,1184.117056424924 L1762.338394621416,1184.2173055865376 L1762.3328701078347,1184.3165073665912 L1762.3251443449844,1184.4145519815447 L1762.3152258827279,1184.5113309284568 L1762.3031256975205,1184.6067371050617 L1762.2888571802625,1184.7006649282957 L1762.2724361214807,1184.793010451144 L1762.2538806938526,1184.8836714776735 L1762.2332114320957,1184.972547676132 L1762.2104512102426,1185.059540689981 L1762.1856252163261,1185.1445542467438 L1762.1587609245057,1185.227494264548 L1762.1298880646618,1185.3082689562423 L1762.099038589495,1185.3867889309752 L1762.0662466391648,1185.4629672931203 L1762.0315485035078,1185.5367197384414 L1761.9949825818771,1185.60796464739 L1761.9565893406466,1185.6766231754293 L1761.9164112684284,1185.7426193402916 L1761.8744928290514,1185.8058801060633 L1761.8308804123558,1185.8663354640123 L1761.7856222828532,1185.923918510065 L1761.738768526315,1185.9785655188462 L1761.690370994344,1186.0302160142019 L1761.640483246991,1186.0788128361278 L1761.589160493482,1186.1243022040246 L1761.5364595311205,1186.1666337762165 L1761.4824386824305,1186.2057607056627 L1761.4271577306135,1186.2416396918009 L1761.3706778533885,1186.2742310284675 L1761.313061555288,1186.3034986478388 " />
			<path d="M57.26735636583557,1592.7683917521565 L57.26735636583556,1524.488591811612 " />
			<path d="M57.26735636583553,1192.633117894292 L57.267356365835525,1124.3533278313364 " />
			<path d="M57.2673563658355,804.715619219925 L57.26735636583549,736.4358291569694 " />
			<path d="M57.26735636583546,416.79812054555777 L57.267356365835454,348.51833048260215 " />
			<path d="M57.267356365835425,28.88066571381249 L57.267356365835425,12.608994939626779 " />
			<path d="M1708.0015646484799,-433.1218481178114 L1707.9409382588597,-433.1073878928923 " />
			<path d="M1761.086207948247,-377.5034843174268 L1707.957711839851,-364.8316097731369 " />
			<path d="M1761.0862108117256,10.413610690962571 L1708.0530073888372,23.06276780223226 " />
			<path d="M1761.0862108117256,398.3311093653298 L1708.1483030340682,410.95753713892515 " />
			<path d="M1761.0862108117256,786.2486080396969 L1708.2435986792996,798.852306475618 " />

       </g>

       <!-- solid lines -->
       <g  stroke="rgb(0,0,0)" fill="none">
			<path d="M56.566136556053266,1612.172683119002 L-26.89312179721782,1581.0692539473969 " />
			<path d="M-31.390926139609817,-19.239426547465982 L-31.28158042282782,-19.264375956227095 L-31.16873597620311,-19.28789982187076 L-31.05260173064457,-19.309954590081478 L-30.933392708106773,-19.330499426570064 L-30.68663847592754,-19.36691001580628 L-30.43029989051876,-19.396862058326032 L-30.16627451139988,-19.420133832599102 L-29.89651679997485,-19.436553068123427 L-29.623023651531376,-19.445998220666326 L-29.3478196131212,-19.448399372001894 L-29.072941896746723,-19.443738747484282 L-28.80042529879477,-19.432050847625405 L-28.532287137351997,-19.413422192703134 L-28.270512318904345,-19.387990682290514 L-28.017038644965016,-19.3559445744471 L-27.77374246739945,-19.317521092129017 L-27.656477067888694,-19.2960049316323 L-27.542424798634432,-19.27300466713387 L-27.431796826822882,-19.2485628835044 L-27.324797979571304,-19.22272483457978 " />
			<path d="M-31.390926139609675,1580.9202554842993 L-31.265908894882056,1580.89190882792 L-31.136377003370782,1580.8654252128601 L-31.002642518748154,1580.8408684404685 L-30.865027619101383,1580.8182976701607 L-30.723863830777365,1580.797767276899 L-30.579491229706658,1580.7793267201996 L-30.43225762213079,1580.763020424978 L-30.282517706706546,1580.7488876745285 L-30.130632220005857,1580.7369625158842 L-29.97696706746978,1580.7272736777973 L-29.82189244191025,1580.7198445015267 L-29.665781931683178,1580.7146928846093 L-29.50901162068136,1580.7118312377415 L-29.35195918231546,1580.711266454881 L-29.195002969665673,1580.7129998966393 L-29.038521103996008,1580.717027387003 L-28.882890563827058,1580.723339223396 L-28.728486276761718,1580.7319202000506 L-28.575680216251744,1580.7427496446428 L-28.424840505481136,1580.7558014680922 L-28.27633053052514,1580.7710442274126 L-28.130508064921358,1580.7884412014619 L-27.98772440776197,1580.8079504794057 L-27.848323537383447,1580.8295250616848 L-27.712641282692605,1580.8531129732405 L-27.581004514125354,1580.878657388728 L-27.453730356187194,1580.906096769413 L-27.33112542347249,1580.9353650114238 L-27.213485082003086,1580.9663916050022 L-27.101092737665653,1580.999101804366 L-26.994219153462108,1581.0334168077807 L-26.893121797217837,1581.0692539473969 " />
			<path d="M56.566136556053266,1612.172683119002 L56.64819142587295,1612.2046209936432 L56.72565716900519,1612.2375618476617 L56.79839603929384,1612.2714471070883 L56.86627869569886,1612.3062165186545 L56.929184432284806,1612.3418082569312 L56.98700139285481,1612.3781590342649 L57.03962676984831,1612.4152042133117 L57.0869669871489,1612.4528779219736 L57.12893786647725,1612.4911131705294 L57.16546477707318,1612.5298419707522 L57.19648276840079,1612.5689954568033 L57.221936685640614,1612.6085040076866 L57.2417812677635,1612.6482973710456 L57.25598122801175,1612.6883047880824 L57.26451131664447,1612.7284551193784 L57.26735636583557,1612.7686769713919 " />
			<path d="M57.26735636583557,1612.7686769713919 L57.266101892726226,1612.79538869033 L57.26233945696246,1612.8220794660594 L57.25607200846581,1612.8487283717934 L57.24730446120228,1612.8753145135713 L57.23604368932956,1612.9018170466438 L57.222298521807325,1612.9282151918135 L57.20607973547497,1612.9544882517287 L57.187400046602086,1612.9806156271097 L57.142718462130276,1613.0323515143293 L57.088393870540386,1613.0832606320776 L57.02459661028591,1613.1331833513516 L56.951526722017505,1613.1819631360684 L56.869413321341916,1613.2294470338934 L56.77851388041444,1613.275486155834 L56.679113420617405,1613.3199361430907 L56.57152361885628,1613.3626576197034 L56.45608183027552,1613.403516629576 L56.33315003045854,1613.442385056502 L56.20311368042862,1613.479141025884 L56.06638051800972,1613.5136692868793 " />
			<path d="M56.06638051800972,1613.5136692868796 L31.39092613960996,1619.3991085792313 " />
			<path d="M31.390926139609967,1619.399108579231 L31.265908894882347,1619.4274552356105 L31.136377003371074,1619.4539388506703 L31.002642518748445,1619.478495623062 L30.865027619101678,1619.5010663933697 L30.72386383077766,1619.5215967866313 L30.579491229706953,1619.5400373433308 L30.432257622131083,1619.5563436385523 L30.28251770670684,1619.570476389002 L30.13063222000615,1619.5824015476462 L29.97696706747007,1619.5920903857332 L29.821892441910542,1619.5995195620037 L29.66578193168347,1619.604671178921 L29.50901162068165,1619.607532825789 L29.351959182315753,1619.6080976086494 L29.195002969665964,1619.6063641668911 L29.0385211039963,1619.6023366765273 L28.882890563827353,1619.5960248401345 L28.72848627676201,1619.5874438634798 L28.57568021625204,1619.5766144188876 L28.42484050548143,1619.5635625954383 L28.27633053052543,1619.5483198361178 L28.13050806492165,1619.5309228620686 L27.98772440776226,1619.5114135841247 L27.848323537383738,1619.4898390018457 L27.712641282692893,1619.46625109029 L27.58100451412564,1619.4407066748024 L27.45373035618748,1619.4132672941175 L27.33112542347278,1619.3839990521067 L27.213485082003377,1619.3529724585283 L27.101092737665944,1619.3202622591643 L26.9942191534624,1619.2859472557498 L26.89312179721812,1619.2501101161336 " />
			<path d="M26.893121797218107,1619.2501101161336 L-56.566136556052975,1588.1466809445285 " />
			<path d="M-56.56613655605312,-12.01300108723674 L-56.64819142587281,-12.04493896187817 L-56.725657169005046,-12.077879815896615 L-56.798396039293706,-12.111765075323278 L-56.86627869569872,-12.146534486889456 L-56.929184432284664,-12.182126225166243 L-56.987001392854665,-12.218477002499768 L-57.03962676984817,-12.255522181546498 L-57.086966987148756,-12.29319589020851 L-57.12893786647711,-12.331431138764332 L-57.16546477707304,-12.370159938987106 L-57.19648276840065,-12.409313425038238 L-57.22193668564047,-12.448821975921593 L-57.24178126776336,-12.488615339280464 L-57.255981228011606,-12.528622756317203 L-57.26451131664433,-12.568773087613387 L-57.267356365835425,-12.608994939626776 " />
			<path d="M-57.267356365835425,-12.60899493962678 L-57.266101892726084,-12.635706658564725 L-57.262339456962316,-12.662397434294475 L-57.256072008465665,-12.689046340028266 L-57.24730446120214,-12.715632481806328 L-57.23604368932942,-12.742135014878695 L-57.22229852180718,-12.768533160048452 L-57.20607973547483,-12.794806219963565 L-57.187400046601944,-12.820933595344556 L-57.142718462130134,-12.872669482564143 L-57.088393870540244,-12.923578600312434 L-57.02459661028577,-12.973501319586582 L-56.95152672201736,-13.022281104303278 L-56.869413321341774,-13.069765002128287 L-56.778513880414295,-13.115804124068905 L-56.67911342061726,-13.160254111325521 L-56.57152361885614,-13.202975587938466 L-56.45608183027538,-13.243834597810805 L-56.3331500304584,-13.282703024736804 L-56.20311368042848,-13.319458994119007 L-56.0663805180096,-13.353987255114326 " />
			<path d="M-56.56613655605297,1588.1466809445285 L-56.64819142587265,1588.1147430698873 L-56.7256571690049,1588.0818022158687 L-56.79839603929355,1588.0479169564421 L-56.86627869569857,1588.013147544876 L-56.929184432284515,1587.9775558065992 L-56.987001392854516,1587.9412050292656 L-57.03962676984802,1587.9041598502188 L-57.086966987148614,1587.8664861415568 L-57.12893786647696,1587.828250893001 L-57.16546477707289,1587.7895220927783 L-57.1964827684005,1587.750368606727 L-57.22193668564032,1587.7108600558438 L-57.24178126776321,1587.6710666924848 L-57.25598122801146,1587.631059275448 L-57.26451131664418,1587.590908944152 L-57.267356365835276,1587.5506870921386 " />
			<path d="M-57.267356365835276,1587.5506870921386 L-57.266101892725935,1587.5239753732005 L-57.26233945696217,1587.497284597471 L-57.256072008465516,1587.470635691737 L-57.24730446120199,1587.4440495499591 L-57.23604368932927,1587.4175470168866 L-57.22229852180703,1587.391148871717 L-57.20607973547468,1587.3648758118018 L-57.187400046601795,1587.3387484364207 L-57.142718462129984,1587.287012549201 L-57.088393870540095,1587.2361034314529 L-57.02459661028562,1587.1861807121788 L-56.95152672201721,1587.137400927462 L-56.869413321341625,1587.089917029637 L-56.778513880414145,1587.0438779076965 L-56.679113420617114,1586.9994279204398 L-56.57152361885599,1586.956706443827 L-56.45608183027524,1586.9158474339545 L-56.33315003045825,1586.8769790070285 L-56.20311368042833,1586.8402230376464 L-56.06638051800945,1586.805694776651 " />
			<path d="M-31.390926139609817,-19.239426547465982 L-56.06638051800958,-13.353987255114333 " />
			<path d="M-31.390926139609675,1580.920255484299 L-56.06638051800944,1586.8056947766509 " />
			<path d="M1789.734050255891,-420.51109272093055 L1738.406454300709,-439.8763238785786 " />
			<path d="M1790.1270045414174,1178.9839479377113 L1738.7994085862354,1159.6187167800633 " />
			<path d="M1733.9107956160503,-440.03062233833714 L1734.0362123361456,-440.05895947851286 L1734.1661173347566,-440.0854209897868 L1734.3001976593632,-440.1099431240607 L1734.4381302987192,-440.132466805365 L1734.5795829610154,-440.15293777217875 L1734.7242148743983,-440.17130670814976 L1734.8716776079202,-440.1875293609024 L1735.0216159109398,-440.2015666486452 L1735.1736685689525,-440.21338475432253 L1735.3274692737864,-440.22295520708263 L1735.4826475060725,-440.23025495086654 L1735.638829427857,-440.2352663999521 L1735.7956387832107,-440.2379774813195 L1735.9526978046615,-440.2383816637363 L1736.1096281232699,-440.2364779734916 L1736.266051680153,-440.232270996742 L1736.4215916372611,-440.2257708684629 L1736.5758732852141,-440.2169932480328 L1736.7285249460083,-440.205959281508 L1736.8791788684223,-440.1926955506804 L1737.0274721139613,-440.17723400903935 L1737.1730474312078,-440.1596119047929 L1737.3155541164715,-440.13987169113364 L1737.4546488586657,-440.1180609239654 L1737.589996566373,-440.09423214733664 L1737.7212711751106,-440.0684427668574 L1737.8481564328479,-440.0407549114042 L1737.9703466618848,-440.01123528344596 L1738.0875474952575,-439.979954998352 L1738.1994765858922,-439.94698941306905 L1738.3058642868061,-439.9124179445794 L1738.4064543007091,-439.8763238785788 " />
			<path d="M1734.3037499015763,1159.4644183203047 L1734.4291666216716,1159.4360811801291 L1734.5590716202826,1159.4096196688552 L1734.6931519448892,1159.3850975345813 L1734.8310845842452,1159.362573853277 L1734.9725372465414,1159.3421028864632 L1735.1171691599243,1159.3237339504922 L1735.2646318934462,1159.3075112977397 L1735.4145701964658,1159.2934740099968 L1735.5666228544785,1159.2816559043195 L1735.7204235593124,1159.2720854515594 L1735.8756017915985,1159.2647857077754 L1736.031783713383,1159.25977425869 L1736.1885930687367,1159.2570631773224 L1736.3456520901875,1159.2566589949056 L1736.502582408796,1159.2585626851503 L1736.659005965679,1159.2627696619 L1736.8145459227871,1159.2692697901791 L1736.9688275707401,1159.2780474106091 L1737.1214792315343,1159.289081377134 L1737.2721331539483,1159.3023451079616 L1737.4204263994873,1159.3178066496025 L1737.5660017167338,1159.335428753849 L1737.7085084019975,1159.3551689675082 L1737.8476031441917,1159.3769797346765 L1737.982950851899,1159.4008085113053 L1738.1142254606366,1159.4265978917845 L1738.2411107183739,1159.4542857472377 L1738.3633009474108,1159.483805375196 L1738.4805017807835,1159.51508566029 L1738.5924308714182,1159.5480512455729 L1738.6988185723321,1159.5826227140626 L1738.7994085862351,1159.6187167800633 " />
			<path d="M1789.7340502558911,-420.51109272093066 L1789.8151489879301,-420.4791417609868 L1789.8917036429084,-420.4462006616931 L1789.9635798186866,-420.4123272556429 L1790.0306513268335,-420.37758101222096 L1790.0928004141676,-420.3420229331973 L1790.1499179694886,-420.30571544563 L1790.2019037151367,-420.2687222922662 L1790.2486663830443,-420.2311084196326 L1790.2901238749691,-420.19293986401357 L1790.326203406629,-420.15428363551484 L1790.3568416354844,-420.11520760041867 L1790.3819847719456,-420.0757803620348 L1790.4015886738066,-420.03607114025846 L1790.4156189237438,-419.996149650045 L1790.4240508897392,-419.9560859790163 L1790.4268697683265,-419.9159504644116 " />
			<path d="M1790.4268697683265,-419.9159504644116 L1790.42407061058,-419.8758135696016 L1790.415658330803,-419.8357457603802 L1790.4016476978998,-419.795817381252 L1790.3820633094476,-419.756098531933 L1790.3569395485122,-419.7166589442812 L1790.3263205232827,-419.6775678598726 L1790.2902599896347,-419.6388939084382 L1790.2488212567537,-419.6007049873751 L1790.202077075988,-419.5630681425434 L1790.1501095131232,-419.5260494505583 L1790.0930098043048,-419.489713902783 L1790.03087819586,-419.4541252912283 L1789.9638237683027,-419.4193460965562 L1789.8919642448277,-419.38543737838705 L1789.8154257846304,-419.3524586681011 L1789.7343427614178,-419.3204678643227 " />
			<path d="M1790.127004541417,1178.9839479377113 L1790.208103273456,1179.015898897655 L1790.2846579284342,1179.0488399969486 L1790.3565341042124,1179.082713402999 L1790.4236056123593,1179.117459646421 L1790.4857546996934,1179.1530177254444 L1790.5428722550143,1179.1893252130117 L1790.5948580006625,1179.2263183663756 L1790.64162066857,1179.2639322390091 L1790.683078160495,1179.3021007946284 L1790.7191576921548,1179.340757023127 L1790.7497959210102,1179.379833058223 L1790.7749390574713,1179.419260296607 L1790.7945429593324,1179.4589695183834 L1790.8085732092695,1179.4988910085967 L1790.817005175265,1179.5389546796255 L1790.8198240538522,1179.5790901942303 " />
			<path d="M1790.8198240538522,1179.5790901942303 L1790.8185641714924,1179.6060439755133 L1790.81477227816,1179.6329770434181 L1790.8084513753854,1179.6598680786676 L1790.7996064665747,1179.686695795257 L1790.788244553049,1179.713438957302 L1790.7743746285028,1179.7400763958487 L1790.7580076718841,1179.7665870256303 L1790.7391566387046,1179.7929498617577 L1790.6940639844402,1179.8451488149515 L1790.6392394125414,1179.8965080126577 L1790.5748564775283,1179.9468648704622 L1790.5011189921984,1179.9960599769922 L1790.4182603824297,1180.043937598554 L1790.3265429482412,1180.090346172129 L1790.2262570334456,1180.1351387851664 L1790.117720106528,1180.1781736406547 L1790.0012757556565,1180.2193145059994 L1789.8772926010079,1180.258431144285 L1789.7461631278516,1180.2953997265581 L1789.6083024440848,1180.330103223824 " />
			<path d="M1789.6083024440848,1180.330103223824 L1764.8498960830036,1186.2148963039479 " />
			<path d="M1764.8498960830036,1186.2148963039483 L1764.7244793629084,1186.243233444124 L1764.5945743642974,1186.2696949553979 L1764.4604940396907,1186.2942170896717 L1764.3225614003347,1186.3167407709761 L1764.1811087380386,1186.3372117377899 L1764.0364768246557,1186.3555806737609 L1763.8890140911337,1186.3718033265134 L1763.7390757881142,1186.3858406142563 L1763.5870231301014,1186.3976587199336 L1763.4332224252676,1186.4072291726936 L1763.2780441929815,1186.4145289164776 L1763.121862271197,1186.419540365563 L1762.9650529158432,1186.4222514469307 L1762.8079938943924,1186.4226556293474 L1762.651063575784,1186.4207519391027 L1762.494640018901,1186.416544962353 L1762.3391000617928,1186.410044834074 L1762.1848184138398,1186.401267213644 L1762.0321667530457,1186.390233247119 L1761.8815128306317,1186.3769695162914 L1761.7332195850927,1186.3615079746505 L1761.5876442678461,1186.343885870404 L1761.4451375825824,1186.3241456567448 L1761.3060428403883,1186.3023348895765 L1761.170695132681,1186.2785061129478 L1761.0394205239434,1186.2527167324686 L1760.912535266206,1186.2250288770153 L1760.7903450371691,1186.195509249057 L1760.6731442037965,1186.164228963963 L1760.5612151131618,1186.1312633786802 L1760.4548274122478,1186.0966919101904 L1760.3542373983448,1186.0605978441897 " />
			<path d="M1760.3542373983448,1186.0605978441895 L1709.0266414431628,1166.6953666865415 " />
			<path d="M1708.0614002252414,-433.134431466314 L1708.0332943150047,-433.1662979025317 L1708.0088671219444,-433.1984357873287 L1707.9881475627515,-433.23080707616674 L1707.9711601650533,-433.2633734482059 L1707.957925038378,-433.29609635166867 L1707.9484578503498,-433.32893704947685 L1707.9427698081397,-433.36185666510846 L1707.9408676452015,-433.3948162286194 " />
			<path d="M1707.9408676452015,-433.3948162286194 L1707.9421275275613,-433.42177000990256 L1707.9459194208937,-433.4487030778073 L1707.9522403236683,-433.47559411305684 L1707.961085232479,-433.5024218296462 L1707.9724471460047,-433.5291649916912 L1707.986317070551,-433.55580243023786 L1708.0026840271696,-433.58231306001954 L1708.0215350603492,-433.6086758961469 L1708.0666277146136,-433.66087484934064 L1708.1214522865123,-433.71223404704676 L1708.1858352215254,-433.7625909048513 L1708.2595727068554,-433.8117860113814 L1708.342431316624,-433.8596636329433 L1708.4341487508125,-433.9060722065183 L1708.5344346656082,-433.95086481955553 L1708.6429715925258,-433.99389967504385 L1708.7594159433972,-434.0350405403885 L1708.8833990980459,-434.0741571786742 L1709.0145285712022,-434.11112576094735 L1709.152389254969,-434.145829258213 " />
			<path d="M1709.026641443163,1166.6953666865418 L1708.945542711124,1166.663415726598 L1708.8689880561458,1166.6304746273045 L1708.7971118803675,1166.596601221254 L1708.7300403722206,1166.5618549778321 L1708.6678912848865,1166.5262968988086 L1708.6107737295656,1166.4899894112414 L1708.5587879839175,1166.4529962578774 L1708.5120253160098,1166.415382385244 L1708.470567824085,1166.3772138296247 L1708.4344882924252,1166.338557601126 L1708.4038500635697,1166.29948156603 L1708.3787069271086,1166.260054327646 L1708.3591030252476,1166.2203451058697 L1708.3450727753104,1166.1804236156563 L1708.336640809315,1166.1403599446276 L1708.3338219307277,1166.1002244300228 " />
			<path d="M1708.3338219307277,1166.1002244300228 L1708.3350818130875,1166.0732706487397 L1708.33887370642,1166.046337580835 L1708.3451946091946,1166.0194465455854 L1708.3540395180053,1165.992618828996 L1708.365401431531,1165.965875666951 L1708.3792713560772,1165.9392382284043 L1708.3956383126958,1165.9127275986227 L1708.4144893458754,1165.8863647624953 L1708.4595820001398,1165.8341658093016 L1708.5144065720385,1165.7828066115953 L1708.5787895070516,1165.732449753791 L1708.6525269923816,1165.6832546472608 L1708.7353856021502,1165.635377025699 L1708.8271030363387,1165.588968452124 L1708.9273889511344,1165.5441758390866 L1709.035925878052,1165.5011409835984 L1709.1523702289235,1165.4600001182537 L1709.276353383572,1165.420883479968 L1709.4074828567284,1165.383914897695 L1709.5453435404952,1165.349211400429 " />
			<path d="M1733.91079561605,-440.030622338337 L1709.152389254969,-434.145829258213 " />
			<path d="M1734.3037499015766,1159.464418320305 L1709.5453435404954,1165.3492114004289 " />
			<path d="M-28.89214401303665,-16.78091520653213 L-28.890761247144514,-16.893989427028853 L-28.886614894409433,-17.005876576911895 L-28.87971069099904,-17.11642186871167 L-28.87005818836028,-17.225472371318467 L-28.857670740005684,-17.332877221551193 L-28.842565483039806,-17.438487832865217 L-28.824763314451317,-17.542158100910715 L-28.804288862203585,-17.64374460565707 L-28.781170451163746,-17.74310680980369 L-28.755440063917376,-17.840107253202852 L-28.727133296522982,-17.934611743025446 L-28.696289309267527,-18.02648953940671 L-28.662950772491126,-18.115613536315003 L-28.627163807555817,-18.201860437393453 L-28.588977923040126,-18.28511092653121 L-28.548445946247686,-18.36524983292833 L-28.505623950124594,-18.44216629042592 L-28.460571175686727,-18.51575389088115 L-28.41334995006424,-18.585910831374918 L-28.364025600276662,-18.652540055048554 L-28.312666362857858,-18.715549385374693 L-28.25934328945593,-18.774851653676578 L-28.20413014853858,-18.830364819719364 L-28.147103323339987,-18.882012085206654 L-28.088341706190327,-18.929722000025144 L-28.027926589374168,-18.973428561090504 L-27.96594155266869,-19.01307130365769 L-27.902472347717346,-19.048595384969364 L-27.837606779398918,-19.079951660126753 L-27.771434584356022,-19.1070967500779 L-27.704047306851237,-19.12999310162935 L-27.6355381721225,-19.148609039398146 " />
			<path d="M-27.635538172122484,-19.148609039398153 L-27.546452123462576,-19.166136825265784 L-27.455888342175484,-19.176584570050565 L-27.364051668986413,-19.179928642632106 L-27.27114982369759,-19.17616147925542 L-27.17739293535941,-19.165291600638902 L-27.0829930669923,-19.14734359270187 L-26.988163735934226,-19.12235805095512 L-26.893119430898768,-19.090391488680446 " />
			<path d="M1706.7449588075663,-430.75415428494546 L1706.7462662294718,-430.8641196363837 L1706.7501867539172,-430.97296666508163 L1706.7567152526817,-431.0805529942734 L1706.765843186198,-431.18673789624427 L1706.777558614722,-431.2913824764088 L1706.791846213951,-431.3943498549911 L1706.8086872950682,-431.4955053460699 L1706.828059829189,-431.5947166337533 L1706.8499384761747,-431.69185394525437 L1706.8742946177802,-431.7867902206392 L1706.901096395086,-431.87940127902755 L1706.9303087501728,-431.9695659810264 L1706.961893471978,-432.05716638718604 L1706.9958092462773,-432.14208791227014 L1707.0320117097262,-432.22421947513806 L1707.0704535078883,-432.3034536440443 L1707.1110843571782,-432.37968677716356 L1707.1538511106335,-432.45281915815946 L1707.1986978274342,-432.5227551266174 L1707.2455658460756,-432.589403203173 L1707.2943938611,-432.65267620917086 L1707.3451180032869,-432.71249138069857 L1707.397671923197,-432.76877047684525 L1707.4519868779605,-432.8214398820443 L1707.507991821195,-432.8704307023656 L1707.5656134959384,-432.91567885563234 L1707.6247765304709,-432.9571251552428 L1707.6854035369063,-432.99471538758957 L1707.7474152124173,-433.0284003829729 L1707.8107304429682,-433.0581360799172 L1707.8752664094143,-433.0838835828053 L1707.940938695835,-433.10560921275555 " />
			<path d="M26.08532350593428,36.082713360541625 L26.014939162775537,36.1541369229104 L25.94159576296566,36.219233966081575 L25.865459197493223,36.2778572510006 L25.786701675038834,36.32987418121415 L25.705501332466774,36.375167102782044 L25.622041831908014,36.41363357039148 L25.536511945345975,36.44518657907195 L25.449105127644653,36.46975476098644 " />
			<path d="M25.449105127644646,36.46975476098644 L25.36001907898474,36.487282546854075 L25.269455297697647,36.49773029163885 L25.177618624508575,36.5010743642204 L25.084716779219754,36.49730720084371 L24.990959890881573,36.4864373222272 L24.896560022514464,36.46848931429016 L24.801730691456388,36.443503772543416 L24.706686386420937,36.41153721026874 " />
			<path d="M24.706686386420927,36.41153721026874 L-26.893124538248273,17.181423095169443 " />
			<path d="M-26.893124538248266,17.18142309516944 L-26.9912120037954,17.141188813716244 L-27.089063167010455,17.093692977782275 L-27.186442295870496,17.039050008996437 L-27.28311479552469,16.977391547056698 L-27.378847773453863,16.90886613259851 L-27.473410600528965,16.833638849347427 L-27.566575466616847,16.751890926417925 L-27.658117929394823,16.663819301716615 L-27.747817455051887,16.56963614750157 L-27.835457949573986,16.46956835924076 L-27.92082827933341,16.36385700900101 L-28.00372277972821,16.252756764684268 L-28.08394175064624,16.136535276510326 L-28.161291937560204,16.015472532223992 L-28.23558699709475,15.889860182580101 L-28.30664794594398,15.76000083873128 L-28.37430359205791,15.6262073432112 L-28.43839094705912,15.4888020162695 L-28.498755618896023,15.348115879374062 L-28.55525218378684,15.20448785775132 L-28.60774453655824,15.058263963885688 L-28.656106218534603,14.909796463945193 L-28.70022072218807,14.759443029141407 L-28.739981771815362,14.607565874068179 L-28.775293579565272,14.454530884094947 L-28.806071076199984,14.300706733916837 L-28.83224011603431,14.146463999385036 L-28.85373765555915,13.992174264757093 L-28.870511905318835,13.838209227517915 L-28.88252245467644,13.68493980292796 L-28.889740369166557,13.532735230455877 L-28.892148260200972,13.381962184248325 " />
			<path d="M1707.9497255565175,-397.33926029479505 L1707.883638439784,-397.4098048618816 L1707.8186860344115,-397.48356292635407 L1707.754954006775,-397.5604372079661 L1707.6925264136812,-397.6403263164614 L1707.6314855915048,-397.7231248852985 L1707.5719120475944,-397.8087237106196 L1707.5138843540913,-397.8970098952807 L1707.4574790442985,-397.9878669977529 L1707.4027705117414,-398.0811751856982 L1707.3498309120491,-398.1768113940174 L1707.298730067787,-398.27464948716204 L1707.2495353763682,-398.3745604254959 L1707.2023117211613,-398.47641243548645 L1707.157121385916,-398.5800711835026 L1707.1140239726162,-398.68539995298823 L1707.0730763228696,-398.7922598247795 L1707.0343324429393,-398.9005098603263 L1706.9978434325153,-399.01000728757776 L1706.9636574173169,-399.12060768928563 L1706.9318194856203,-399.23216519347767 L1706.9023716287911,-399.34453266584967 L1706.875352685901,-399.4575619038223 L1706.850798292503,-399.5711038320068 L1706.8287408336314,-399.6850086988225 L1706.8092094010888,-399.7991262740052 L1706.792229755076,-399.9133060467473 L1706.7778242902177,-400.0273974242087 L1706.7660120060248,-400.1412499301343 L1706.7568084818365,-400.2547134033191 L1706.750225856273,-400.3676381956575 L1706.7462728112246,-400.47987536951524 L1706.7449545604018,-400.59127689416493 " />
			<path d="M-28.892144013036653,-16.780915206532132 L-28.89214826020098,13.381962184248298 " />
			<path d="M1706.744958807566,-430.7541542849454 L1706.7449545604018,-400.591276894165 " />
			<path d="M-28.89214594939208,371.1365467680102 L-28.890763199771264,371.0234725626216 L-28.886616863838697,370.91158542758933 L-28.87971267773762,370.8010401503315 L-28.870060192889106,370.69198966190703 L-28.85767276277841,370.58458482544717 L-28.84256752448141,370.4789742274477 L-28.824765374956755,370.3753039722107 L-28.80429094213651,370.27371747972035 L-28.78117255085526,370.1743552872322 L-28.75544218366483,370.0773548548501 L-28.72713543658885,369.98285037536124 L-28.696291469878325,369.89097258858976 L-28.662952953836395,369.8018486005286 L-28.62716600978717,369.7156017074976 L-28.588980146270366,369.6323512255726 L-28.548448190549966,369.55221232552054 L-28.50562621553168,369.47529587346924 L-28.46057346219032,369.4017082775327 L-28.413352257614367,369.33155134060337 L-28.364027928781127,369.2649221195155 L-28.312668712181814,369.20191279077443 L-28.25934565942148,369.1426105230373 L-28.204132538924494,369.08709735652167 L-28.14710573388146,369.0354500895092 L-28.088344136578876,368.987740172101 L-28.02792903925755,368.94403360737175 L-27.965944021650945,368.9043908600595 L-27.902474835358912,368.86886677291704 L-27.837609285216807,368.83751049084145 L-27.771437107824124,368.81036539288556 L-27.70404984740068,368.78746903224635 L-27.63554072914209,368.768853084313 " />
			<path d="M-27.635540729142072,368.768853084313 L-27.54645466340799,368.7513252781043 L-27.455890862754803,368.74087751712796 L-27.364054168079946,368.737533432556 L-27.271152299364456,368.7413005881752 L-27.17739538584345,368.7521704632793 L-27.082995490727257,368.77011847194166 L-26.988166131548198,368.7951040186243 L-26.893121797217923,368.82707058999875 " />
			<path d="M1706.7449567996314,-42.83705814053418 L1706.746339549252,-42.950132345922796 L1706.7504858851846,-43.06201948095502 L1706.7573900712857,-43.172564758212836 L1706.7670425561344,-43.28161524663731 L1706.779429986245,-43.38902008309719 L1706.794535224542,-43.49463068109669 L1706.8123373740666,-43.59830093633368 L1706.8328118068869,-43.699887428824006 L1706.8559301981682,-43.799249621312214 L1706.8816605653585,-43.89625005369424 L1706.9099673124347,-43.990754533183114 L1706.940811279145,-44.082632319954584 L1706.974149795187,-44.17175630801577 L1707.0099367392363,-44.258003201046755 L1707.048122602753,-44.34125368297173 L1707.0886545584735,-44.42139258302382 L1707.1314765334917,-44.49830903507512 L1707.176529286833,-44.57189663101166 L1707.223750491409,-44.642053567941005 L1707.2730748202423,-44.708682789028856 L1707.3244340368417,-44.77169211776991 L1707.377757089602,-44.83099438550706 L1707.432970210099,-44.8865075520227 L1707.4899970151419,-44.93815481903516 L1707.5487586124445,-44.985864736443354 L1707.6091737097659,-45.029571301172595 L1707.6711587273726,-45.06921404848488 L1707.7346279136646,-45.104738135627315 L1707.7994934638066,-45.13609441770289 L1707.8656656411993,-45.163239515658795 L1707.9330529016227,-45.186135876298 L1708.0015620198812,-45.20475182423135 " />
			<path d="M1708.0015620198812,-45.20475182423136 L1708.0362339450683,-45.21245176060107 " />
			<path d="M26.0853264771046,424.0001738993991 L26.01494214040133,424.0715975111852 L25.94159874369146,424.13669460070844 L25.865462178060543,424.1953179287172 L25.78670465229751,424.24733489857755 L25.70550430338579,424.29262785618585 L25.62204479358584,424.3310943560836 L25.53651489502033,424.36264739317267 L25.449108062701676,424.38721559950704 " />
			<path d="M25.44910806270167,424.38721559950704 L25.360021996967586,424.40474340571575 L25.269458196314403,424.41519116669207 L25.177621501639546,424.418535251264 L25.084719632924052,424.41476809564483 L24.990962719403047,424.4038982205407 L24.896562824286853,424.38595021187837 L24.801733465107795,424.36096466519575 L24.70668913077753,424.32899809382127 " />
			<path d="M24.70668913077752,424.3289980938212 L-26.89312179721793,405.0988839502988 " />
			<path d="M-26.893121797217923,405.0988839502989 L-26.991209263289445,405.0586496689158 L-27.089060428063757,405.01115383329994 L-27.186439559514163,404.9565108650795 L-27.283112062783598,404.8948524039511 L-27.378845045344168,404.82632699054824 L-27.473407878055674,404.7510997085939 L-27.566572750771382,404.66935178719945 L-27.65811522115264,404.5812801642678 L-27.747814755370136,404.48709701205274 L-27.835455259389178,404.3870292260175 L-27.920825599559187,404.2813178782234 L-28.00372011125313,404.17021763656663 L-28.083939094331644,404.0539961512605 L-28.16128929423813,403.93293341004295 L-28.235584367565945,403.8073210636614 L-28.306645330975957,403.6774617232606 L-28.37430099238311,403.5436682313659 L-28.43838836337313,403.4062629082183 L-28.498753051855918,403.2655767752765 L-28.555249634009595,403.12194875775737 L-28.607742004619237,402.97572486813544 L-28.656103704966252,402.82725737256857 L-28.70021822747853,402.67690394225775 L-28.739979296407355,402.525026791786 L-28.77529112385502,402.3719918065117 L-28.806068640536253,402.2181676611186 L-28.83223770071758,402.0639249314465 L-28.853735260840885,401.909635201741 L-28.870509531400863,401.7556701694754 L-28.882520101710483,401.6024007498981 L-28.889738037253867,401.45019618246556 L-28.89214594939208,401.2994231413124 " />
			<path d="M1708.0450498258824,-9.327978271845838 L1707.9745405484173,-9.396806166950118 L1707.905137853576,-9.46927604826593 L1707.8369415539182,-9.545283692111937 L1707.7700497270075,-9.624719786918867 L1707.7045585743601,-9.707470090437639 L1707.6405622830905,-9.793415594038628 L1707.5781528904556,-9.882432693865757 L1707.5174201514894,-9.974393368599307 L1707.45845140992,-10.069165363571749 L1707.4013314725557,-10.166612380971847 L1707.3461424873185,-10.266594275863461 L1707.2929638251017,-10.36896725773716 L1707.241871965621,-10.47358409730476 L1707.192940387425,-10.580294338239424 L1707.1462394622206,-10.688944513556725 L1707.1018363536652,-10.79937836632559 L1707.0597949207772,-10.911437074391612 L1707.020175626094,-11.024959478789595 L1706.9830354487167,-11.139782315516813 L1706.948427802367,-11.255740450333654 L1706.9164024585664,-11.372667116253997 L1706.8870054750591,-11.49039415338372 L1706.8602791295716,-11.608752250762466 L1706.8362618590118,-11.727571189860805 L1706.8149882041882,-11.846680089382666 L1706.7964887601374,-11.965907651020899 L1706.780790132121,-12.085082405812603 L1706.7679148973637,-12.20403296073985 L1706.7578815725838,-12.32258824522123 L1706.7507045873622,-12.440577757139636 L1706.7463942633917,-12.557831808052526 L1706.7449567996314,-12.674181767231957 " />
			<path d="M-28.892145949392088,371.13654676801013 L-28.892145949392088,401.29942314131233 " />
			<path d="M1706.7449567996314,-42.83705814053422 L1706.7449567996314,-12.674181767232035 " />
			<path d="M-28.892145949392056,759.0540454423773 L-28.89076319977124,758.9409712369887 L-28.88661686383867,758.8290841019565 L-28.879712677737594,758.7185388246987 L-28.87006019288908,758.6094883362742 L-28.857672762778385,758.5020834998144 L-28.842567524481385,758.3964729018148 L-28.82476537495673,758.2928026465778 L-28.804290942136486,758.1912161540876 L-28.781172550855235,758.0918539615993 L-28.755442183664805,757.9948535292173 L-28.727135436588824,757.9003490497284 L-28.6962914698783,757.8084712629569 L-28.66295295383637,757.7193472748958 L-28.627166009787146,757.6331003818648 L-28.58898014627034,757.5498498999398 L-28.54844819054994,757.4697109998878 L-28.505626215531656,757.3927945478364 L-28.460573462190297,757.3192069518999 L-28.413352257614342,757.2490500149705 L-28.364027928781102,757.1824207938827 L-28.31266871218179,757.1194114651416 L-28.259345659421456,757.0601091974045 L-28.20413253892447,757.0045960308888 L-28.14710573388144,756.9529487638763 L-28.08834413657885,756.9052388464681 L-28.027929039257526,756.861532281739 L-27.96594402165092,756.8218895344266 L-27.902474835358888,756.7863654472842 L-27.837609285216782,756.7550091652087 L-27.7714371078241,756.7278640672528 L-27.704049847400654,756.7049677066135 L-27.635540729142065,756.6863517586802 " />
			<path d="M-27.635540729142047,756.6863517586802 L-27.546454663407964,756.6688239524714 L-27.455890862754778,756.6583761914951 L-27.36405416807992,756.6550321069232 L-27.27115229936443,756.6587992625423 L-27.177395385843425,756.6696691376465 L-27.08299549072723,756.6876171463088 L-26.988166131548173,756.7126026929914 L-26.893121797217898,756.744569264366 " />
			<path d="M1706.7449567996314,345.08044053383304 L1706.746339549252,344.9673663284444 L1706.7504858851846,344.8554791934122 L1706.7573900712857,344.74493391615437 L1706.7670425561344,344.6358834277299 L1706.779429986245,344.52847859127 L1706.794535224542,344.42286799327053 L1706.8123373740666,344.31919773803355 L1706.8328118068869,344.2176112455432 L1706.8559301981682,344.118249053055 L1706.8816605653585,344.02124862067296 L1706.9099673124347,343.9267441411841 L1706.940811279145,343.8348663544126 L1706.974149795187,343.74574236635146 L1707.0099367392363,343.6594954733205 L1707.048122602753,343.57624499139547 L1707.0886545584735,343.4961060913434 L1707.1314765334917,343.4191896392921 L1707.176529286833,343.34560204335554 L1707.223750491409,343.2754451064262 L1707.2730748202423,343.20881588533837 L1707.3244340368417,343.1458065565973 L1707.377757089602,343.08650428886017 L1707.432970210099,343.0309911223445 L1707.4899970151419,342.97934385533205 L1707.5487586124445,342.93163393792383 L1707.6091737097659,342.8879273731946 L1707.6711587273726,342.84828462588234 L1707.7346279136646,342.8127605387399 L1707.7994934638066,342.7814042566643 L1707.8656656411993,342.7542591587084 L1707.9330529016227,342.7313627980692 L1708.0015620198812,342.71274685013583 " />
			<path d="M1708.0015620198812,342.71274685013583 L1708.066141883396,342.6993083549624 L1708.1315313803368,342.68960380638765 " />
			<path d="M26.085326477104488,811.9176725737664 L26.014942140401235,811.9890961855524 L25.941598743691376,812.0541932750756 L25.865462178060472,812.1128166030844 L25.786704652297455,812.1648335729448 L25.70550430338576,812.210126530553 L25.622044793585825,812.2485930304507 L25.536514895020336,812.2801460675397 L25.449108062701704,812.3047142738741 " />
			<path d="M25.449108062701697,812.3047142738741 L25.360021996967614,812.3222420800829 L25.26945819631443,812.3326898410592 L25.177621501639575,812.3360339256311 L25.08471963292408,812.332266770012 L24.990962719403075,812.3213968949078 L24.89656282428688,812.3034488862455 L24.801733465107823,812.2784633395629 L24.70668913077756,812.2464967681883 " />
			<path d="M24.70668913077755,812.2464967681884 L-26.893121797217898,793.0163826246661 " />
			<path d="M-26.893121797217898,793.0163826246659 L-26.99120926328942,792.9761483432828 L-27.089060428063732,792.9286525076669 L-27.186439559514138,792.8740095394465 L-27.283112062783573,792.8123510783182 L-27.378845045344143,792.7438256649153 L-27.47340787805565,792.6685983829609 L-27.566572750771357,792.5868504615665 L-27.658115221152617,792.4987788386348 L-27.74781475537011,792.4045956864198 L-27.835455259389153,792.3045279003845 L-27.92082559955916,792.1988165525904 L-28.003720111253106,792.0877163109336 L-28.08393909433162,791.9714948256275 L-28.16128929423811,791.8504320844099 L-28.23558436756592,791.7248197380284 L-28.306645330975932,791.5949603976276 L-28.374300992383084,791.461166905733 L-28.438388363373104,791.3237615825853 L-28.498753051855893,791.1830754496435 L-28.55524963400957,791.0394474321243 L-28.60774200461921,790.8932235425025 L-28.656103704966227,790.7447560469355 L-28.700218227478505,790.5944026166247 L-28.73997929640733,790.442525466153 L-28.775291123854995,790.2894904808787 L-28.806068640536232,790.1356663354857 L-28.832237700717556,789.9814236058135 L-28.85373526084086,789.8271338761081 L-28.870509531400835,789.6731688438425 L-28.88252010171046,789.5198994242651 L-28.889738037253842,789.3676948568326 L-28.892145949392056,789.2169218156795 " />
			<path d="M1708.1403721174368,378.67525320071826 L1708.065583382075,378.60868643013697 L1707.9918530743898,378.5380313787543 L1707.9192962275151,378.46339828172626 L1707.8480260437652,378.3849035807074 L1707.7781537180178,378.30266974218006 L1707.70978826423,378.2168250663838 L1707.643036345355,378.1275034871428 L1707.5780021069288,378.0348443629037 L1707.5147870145834,377.9389922593105 L1707.45348969574,377.8400967236552 L1707.394205785734,377.73831205155534 L1707.337027778604,377.6337970462243 L1707.2820448827845,377.52671477070834 L1707.2293428819241,377.4172322934775 L1707.1790040010471,377.3055204277677 L1707.1311067782656,377.19175346507956 L1707.0857259422469,377.0761089032511 L1707.042932295622,376.958767169528 L1707.0027926045207,376.8399113390629 L1706.965369494403,376.7197268492837 L1706.930721352352,376.5984012105767 L1706.8989022359801,376.4761237137348 L1706.8699617890873,376.35308513462854 L1706.8439451642084,376.2294774365597 L1706.8208929521666,376.10549347076267 L1706.8008411187445,375.9813266755201 L1706.7838209485694,375.857170774363 L1706.7698589963052,375.73321947382556 L1706.7589770452205,375.60966616122647 L1706.7511920732036,375.48670360294864 L1706.746516226274,375.364523643687 L1706.7449567996314,375.2433169071351 " />
			<path d="M-28.892145949392056,759.0540454423773 L-28.892145949392056,789.2169218156795 " />
			<path d="M1706.7449567996314,345.080440533833 L1706.7449567996314,375.2433169071352 " />
			<path d="M-28.892145949392017,1146.9715441167448 L-28.8907631997712,1146.858469911356 L-28.886616863838633,1146.746582776324 L-28.879712677737555,1146.636037499066 L-28.870060192889042,1146.5269870106415 L-28.857672762778346,1146.4195821741816 L-28.842567524481346,1146.3139715761822 L-28.82476537495669,1146.2103013209453 L-28.804290942136447,1146.1087148284548 L-28.781172550855196,1146.0093526359667 L-28.755442183664766,1145.9123522035848 L-28.727135436588785,1145.8178477240958 L-28.69629146987826,1145.7259699373244 L-28.66295295383633,1145.636845949263 L-28.627166009787107,1145.5505990562322 L-28.588980146270302,1145.4673485743072 L-28.5484481905499,1145.387209674255 L-28.505626215531617,1145.3102932222039 L-28.460573462190258,1145.2367056262672 L-28.413352257614303,1145.1665486893378 L-28.364027928781063,1145.09991946825 L-28.31266871218175,1145.036910139509 L-28.259345659421417,1144.9776078717719 L-28.20413253892443,1144.922094705256 L-28.147105733881396,1144.8704474382437 L-28.08834413657881,1144.8227375208355 L-28.027929039257486,1144.7790309561062 L-27.96594402165088,1144.739388208794 L-27.90247483535885,1144.7038641216516 L-27.837609285216743,1144.672507839576 L-27.77143710782406,1144.6453627416201 L-27.704049847400615,1144.622466380981 L-27.635540729142026,1144.6038504330475 " />
			<path d="M-27.635540729142008,1144.6038504330475 L-27.546454663407925,1144.5863226268389 L-27.45589086275474,1144.5758748658625 L-27.364054168079882,1144.5725307812904 L-27.271152299364392,1144.5762979369097 L-27.177395385843386,1144.5871678120138 L-27.082995490727193,1144.6051158206762 L-26.988166131548134,1144.6301013673587 L-26.89312179721786,1144.6620679387333 " />
			<path d="M1706.7449567996314,732.9979392082003 L1706.746339549252,732.8848650028117 L1706.7504858851846,732.7729778677794 L1706.7573900712857,732.6624325905217 L1706.7670425561344,732.5533821020972 L1706.779429986245,732.4459772656373 L1706.794535224542,732.3403666676378 L1706.8123373740666,732.2366964124008 L1706.8328118068869,732.1351099199105 L1706.8559301981682,732.0357477274223 L1706.8816605653585,731.9387472950402 L1706.9099673124347,731.8442428155514 L1706.940811279145,731.7523650287799 L1706.974149795187,731.6632410407187 L1707.0099367392363,731.5769941476877 L1707.048122602753,731.4937436657627 L1707.0886545584735,731.4136047657107 L1707.1314765334917,731.3366883136594 L1707.176529286833,731.2631007177229 L1707.223750491409,731.1929437807935 L1707.2730748202423,731.1263145597056 L1707.3244340368417,731.0633052309646 L1707.377757089602,731.0040029632274 L1707.432970210099,730.9484897967118 L1707.4899970151419,730.8968425296993 L1707.5487586124445,730.8491326122911 L1707.6091737097659,730.8054260475619 L1707.6711587273726,730.7657833002496 L1707.7346279136646,730.7302592131072 L1707.7994934638066,730.6989029310316 L1707.8656656411993,730.6717578330757 L1707.9330529016227,730.6488614724365 L1708.0015620198812,730.6302455245032 " />
			<path d="M1708.0015620198812,730.6302455245032 L1708.0570194921445,730.6184696779491 L1708.1130831763153,730.6094510253388 L1708.16970359877,730.6031975252184 L1708.2268307945883,730.5997146960144 " />
			<path d="M26.08532647710452,1199.8351712481335 L26.014942140401267,1199.9065948599196 L25.941598743691408,1199.9716919494429 L25.865462178060504,1200.0303152774516 L25.786704652297487,1200.0823322473118 L25.705504303385787,1200.1276252049202 L25.622044793585857,1200.1660917048177 L25.536514895020368,1200.197644741907 L25.449108062701736,1200.2222129482413 " />
			<path d="M25.44910806270173,1200.2222129482413 L25.360021996967646,1200.23974075445 L25.269458196314464,1200.2501885154263 L25.177621501639607,1200.2535325999984 L25.084719632924113,1200.2497654443791 L24.990962719403107,1200.238895569275 L24.896562824286914,1200.2209475606126 L24.801733465107855,1200.19596201393 L24.70668913077759,1200.1639954425555 " />
			<path d="M24.706689130777583,1200.1639954425555 L-26.893121797217866,1180.9338812990331 " />
			<path d="M-26.89312179721786,1180.9338812990331 L-26.99120926328938,1180.89364701765 L-27.089060428063693,1180.8461511820342 L-27.1864395595141,1180.7915082138138 L-27.283112062783534,1180.7298497526854 L-27.378845045344104,1180.6613243392826 L-27.47340787805561,1180.5860970573283 L-27.566572750771318,1180.5043491359338 L-27.658115221152578,1180.4162775130021 L-27.747814755370072,1180.322094360787 L-27.835455259389114,1180.2220265747517 L-27.920825599559123,1180.1163152269578 L-28.003720111253067,1180.0052149853009 L-28.08393909433158,1179.8889934999947 L-28.161289294238067,1179.7679307587773 L-28.23558436756588,1179.6423184123958 L-28.306645330975893,1179.512459071995 L-28.374300992383045,1179.3786655801002 L-28.438388363373065,1179.2412602569527 L-28.498753051855854,1179.1005741240108 L-28.55524963400953,1178.9569461064916 L-28.607742004619173,1178.8107222168699 L-28.65610370496619,1178.6622547213028 L-28.700218227478466,1178.511901290992 L-28.73997929640729,1178.3600241405204 L-28.775291123854956,1178.206989155246 L-28.80606864053619,1178.0531650098528 L-28.832237700717517,1177.8989222801808 L-28.85373526084082,1177.7446325504754 L-28.8705095314008,1177.5906675182098 L-28.88252010171042,1177.4373980986325 L-28.889738037253803,1177.2851935311999 L-28.892145949392017,1177.1344204900468 " />
			<path d="M1708.2356924373926,766.6704594107803 L1708.1567737032317,766.6066838532845 L1708.0788444930458,766.538356952939 L1708.0020361281393,766.4655938498519 L1707.92647804104,766.3885171597353 L1707.8522975573874,766.3072567672816 L1707.779619681373,766.2219496072896 L1707.7085668850898,766.1327394339115 L1707.6392589021507,766.0397765784068 L1707.5718125259207,765.9432176958143 L1707.5063414127055,765.8432255009669 L1707.4429558902239,765.739968494295 L1707.3817627716908,765.6336206778803 L1707.322865175823,765.5243612622389 L1707.2663623530696,765.412374364327 L1707.2123495183619,765.2978486972788 L1707.1609176906627,765.1809772523995 L1707.1121535395882,765.0619569739486 L1707.0661392393563,764.9409884272618 L1707.0229523303133,764.8182754607716 L1706.9826655882669,764.6940248624949 L1706.9453469018495,764.5684460115668 L1706.911059158117,764.4417505254088 L1706.8798601365752,764.3141519031241 L1706.8518024118125,764.1858651657232 L1706.8269332649068,764.057106493784 L1706.8052946037485,763.928092863158 L1706.7869228924208,763.799041679337 L1706.7718490897528,763.6701704110951 L1706.7600985971494,763.5416962240238 L1706.7516912157866,763.4138356145792 L1706.7466411132446,763.2868040452556 L1706.7449567996314,763.1608155815023 " />
			<path d="M-28.892145949392017,1146.9715441167446 L-28.892145949392017,1177.1344204900465 " />
			<path d="M1706.7449567996314,732.9979392082 L1706.7449567996314,763.1608155815022 " />
			<path d="M-28.89214784727998,1547.1068243433276 L-28.89076511204125,1546.993750151237 L-28.88661879095835,1546.881863029275 L-28.879714620152967,1546.7713177648145 L-28.870062151023333,1546.6622672888698 L-28.857674737030596,1546.554862464528 L-28.84256951522531,1546.449251878242 L-28.82476738253963,1546.345581634272 L-28.804292966877977,1546.2439951525614 L-28.781174593046202,1546.1446329703256 L-28.75544424356635,1546.0476325476307 L-28.72713751443127,1545.9531280772262 L-28.696293565860245,1545.8612502989008 L-28.662955068123786,1545.7721263186136 L-28.627168142512545,1545.6858794326515 L-28.588982297531995,1545.60262895706 L-28.548450360411163,1545.5224900625765 L-28.50562840402014,1545.4455736153018 L-28.460575669297512,1545.3719860233246 L-28.413354483295002,1545.3018290895136 L-28.364030172952713,1545.235199870682 L-28.312670974724234,1545.1721905433155 L-28.259347940176667,1545.1128882760538 L-28.204134837696174,1545.0573751091 L-28.14710805043497,1545.005727840722 L-28.08834647064102,1544.9580179210109 L-28.027931390516585,1544.9143113530324 L-27.96594638975659,1544.8746686015186 L-27.902477219922453,1544.8391445092184 L-27.837611685811275,1544.8077882210275 L-27.771439523984547,1544.7806431159993 L-27.704052278624392,1544.757746747334 L-27.63554317488915,1544.7391307904263 " />
			<path d="M-27.635543174889136,1544.7391307904263 L-27.54645709416033,1544.7216029662782 L-27.455893276491828,1544.7111551910139 L-27.364056562932568,1544.7078110958507 L-27.27115467362091,1544.7115782446035 L-27.177397737954497,1544.7224481165772 L-27.08299781931075,1544.740396125838 L-26.98816843539302,1544.765381676825 L-26.89312407528725,1544.797348256168 " />
			<path d="M1706.7449549017235,1133.1328965690927 L1706.7463376369622,1133.0198223770021 L1706.7504839580452,1132.9079352550402 L1706.7573881288506,1132.7973899905796 L1706.7670405979802,1132.688339514635 L1706.7794280119729,1132.5809346902931 L1706.794533233778,1132.475324104007 L1706.812335366464,1132.3716538600372 L1706.8328097821254,1132.2700673783265 L1706.8559281559574,1132.1707051960907 L1706.8816585054371,1132.0737047733958 L1706.9099652345722,1131.9792003029913 L1706.9408091831433,1131.887322524666 L1706.9741476808797,1131.7981985443787 L1707.009934606491,1131.7119516584166 L1707.0481204514715,1131.6287011828251 L1707.0886523885922,1131.5485622883416 L1707.1314743449834,1131.471645841067 L1707.176527079706,1131.3980582490897 L1707.2237482657085,1131.3279013152787 L1707.2730725760507,1131.261272096447 L1707.3244317742792,1131.1982627690807 L1707.3777548088267,1131.138960501819 L1707.4329679113073,1131.083447334865 L1707.4899946985686,1131.0318000664872 L1707.5487562783624,1130.984090146776 L1707.609171358487,1130.9403835787975 L1707.6711563592469,1130.9007408272837 L1707.734625529081,1130.8652167349835 L1707.7994910631921,1130.8338604467926 L1707.865663225019,1130.8067153417644 L1707.9330504703792,1130.7838189730992 L1708.0015595741143,1130.7652030161914 " />
			<path d="M1708.0015595741143,1130.7652030161914 L1708.0808136397497,1130.7492501075756 L1708.161257176613,1130.7389088091668 L1708.242745899024,1130.734197669395 L1708.3251336466305,1130.7351251382863 " />
			<path d="M26.085328912777697,1599.9704501874262 L26.014944581812784,1600.0418738427334 L25.941601187885407,1600.1069709730816 L25.86546462216637,1600.1655943390451 L25.786707093539814,1600.2176113438313 L25.705506739093934,1600.2629043331924 L25.62204722120304,1600.3013708615417 L25.536517312112252,1600.332923923669 L25.44911046696454,1600.3574921515317 " />
			<path d="M25.449110466964534,1600.3574921515317 L25.36002438623573,1600.3750199756798 L25.269460568567226,1600.3854677509441 L25.177623855007965,1600.3888118461073 L25.08472196569631,1600.3850446973545 L24.990965030029894,1600.3741748253808 L24.89656511138615,1600.35622681612 L24.80173572746842,1600.331241265133 L24.706691367362655,1600.29927468579 " />
			<path d="M1761.313061555288,1186.3034986478388 L1761.257647401457,1186.3280644386373 L1761.2013307427071,1186.349611009352 L1761.144167196325,1186.3681170809894 L1761.0862132159687,1186.3835643772966 " />
			<path d="M1761.0862132159687,1186.3835643772966 L1760.9971271352397,1186.4010922014447 L1760.9065633175712,1186.411539976709 L1760.814726604012,1186.4148840718722 L1760.7218247147005,1186.4111169231194 L1760.628067779034,1186.4002470511457 L1760.53366786039,1186.3822990418848 L1760.4388384764725,1186.357313490898 L1760.3437941163668,1186.3253469115548 " />
			<path d="M24.70669136736265,1600.2992746857897 L-26.893119560632798,1581.0691605390718 " />
			<path d="M1760.3437941163663,1186.3253469115548 L1708.743983188371,1167.095232764837 " />
			<path d="M-26.893119560632787,1581.0691605390718 L-26.991207027162258,1581.028926257792 L-27.089058193309302,1580.9814304224976 L-27.18643732704392,1580.9267874548163 L-27.28310983350354,1580.8651289944432 L-27.378842820152595,1580.79660358201 L-27.473405657841024,1580.7213763012376 L-27.566570536410108,1580.6396283812342 L-27.658113013507098,1580.5515567598995 L-27.74781255528649,1580.4573736094835 L-27.835453067695386,1580.357305825445 L-27.92082341706299,1580.2515944798406 L-28.00371793874012,1580.140494240561 L-28.08393693256335,1580.0242727578143 L-28.161287143950208,1579.9032100193317 L-28.23558222946638,1579.7775976758542 L-28.306643205743384,1579.6477383385195 L-28.374298880665158,1579.513944849846 L-28.438386265784878,1579.3765395300663 L-28.4987509689784,1579.2358534006314 L-28.555247566388402,1579.0922253867495 L-28.607739952763215,1578.9460015008867 L-28.656101669346263,1578.7975340091914 L-28.700216208526317,1578.6471805828555 L-28.739977294514514,1578.4953034364526 L-28.77528913937205,1578.3422684553307 L-28.806066673771706,1578.1884443141641 L-28.832235751937322,1578.0342015887823 L-28.85373333026746,1577.8799118634204 L-28.870507619212955,1577.7259468355414 L-28.88251820804248,1577.572677420383 L-28.889736162195543,1577.4204728573911 L-28.892144092988374,1577.2696998206895 " />
			<path d="M1708.7439831883714,1167.0952327648367 L1708.645895721842,1167.0549984835568 L1708.5480445556948,1167.0075026482625 L1708.4506654219601,1166.9528596805812 L1708.3539929155006,1166.8912012202081 L1708.2582599288514,1166.8226758077749 L1708.1636970911632,1166.7474485270025 L1708.0705322125941,1166.665700606999 L1707.978989735497,1166.5776289856644 L1707.8892901937177,1166.4834458352484 L1707.8016496813088,1166.38337805121 L1707.7162793319412,1166.2776667056055 L1707.633384810264,1166.166566466326 L1707.5531658164407,1166.0503449835792 L1707.4758156050539,1165.9292822450966 L1707.4015205195378,1165.803669901619 L1707.3304595432608,1165.6738105642844 L1707.262803868339,1165.5400170756109 L1707.1987164832192,1165.4026117558312 L1707.1383517800257,1165.2619256263963 L1707.0818551826158,1165.1182976125144 L1707.029362796241,1164.9720737266516 L1706.981001079658,1164.8236062349563 L1706.9368865404779,1164.6732528086204 L1706.8971254544897,1164.5213756622175 L1706.861813609632,1164.3683406810956 L1706.8310360752325,1164.214516539929 L1706.8048669970667,1164.0602738145471 L1706.7833694187366,1163.9059840891853 L1706.766595129791,1163.7520190613063 L1706.7545845409616,1163.5987496461478 L1706.7473665868085,1163.446545083156 L1706.7449586560158,1163.2957720464544 " />
			<path d="M-28.89214784727998,1547.1068243433276 L-28.89214409298838,1577.2696998206895 " />
			<path d="M1706.7449549017238,1133.1328965690927 L1706.7449586560156,1163.2957720464547 " />
			<path d="M56.56613655605312,29.04791624993538 L56.566136556053145,348.685581166532 " />
			<path d="M56.56613655605315,416.96537122948763 L56.56613655605318,736.6030798408993 " />
			<path d="M56.56613655605319,804.882869903855 L56.566136556053216,1124.5205785152664 " />
			<path d="M56.56613655605322,1192.8003685782219 L56.56613655605325,1524.6558426259837 " />
			<path d="M56.56613655605326,1592.9356425665283 L56.56613655605326,1612.172683119002 " />
			<path d="M-26.89312179721796,17.181422441396144 L-26.89312179721793,368.59177583635943 " />
			<path d="M-26.893121797217926,405.09888395029884 L-26.893121797217894,756.5092745107265 " />
			<path d="M-26.89312179721789,793.016382624666 L-26.89312179721786,1144.4267731850937 " />
			<path d="M-26.893121797217855,1180.9338812990331 L-26.893121797217823,1544.5620528210218 " />
			<path d="M-26.89312179721782,1581.0691597055438 L-26.89312179721782,1581.0692539473966 " />
			<path d="M-31.390926139609817,-19.239426547465982 L-31.39092613960967,1580.9202554842993 " />
			<path d="M-56.06638051800958,-13.353987255114335 L-56.06638051800944,1586.8056947766509 " />
			<path d="M1789.734050255891,-420.5110927209306 L1790.127004541417,1178.9839479377115 " />
			<path d="M1738.4064543007091,-439.8763238785787 L1738.7994085862351,1159.6187167800633 " />
			<path d="M1733.9107956160503,-440.03062233833714 L1734.3037499015763,1159.464418320305 " />
			<path d="M1709.152389254969,-434.14582925821304 L1709.545343540495,1165.3492114004289 " />
			<path d="M-28.89214401303665,-16.78091520653213 L1706.7449588075663,-430.7541542849455 " />
			<path d="M24.706686386420927,36.41153721026874 L1707.9576540374821,-365.0668905831751 " />
			<path d="M-26.89312453824827,17.181423095169446 L1707.9499065792393,-396.6024189978574 " />
			<path d="M-28.892148260200976,13.381962184248309 L1706.744954560402,-400.59127689416505 " />
			<path d="M-28.892145949392088,371.13654676801013 L1706.7449567996318,-42.83705814053428 " />
			<path d="M24.70668913077752,424.3289980938212 L1708.0529495864293,22.827486835271543 " />
			<path d="M-26.893121797217923,405.09888395029884 L1708.045202125508,-8.708052482849325 " />
			<path d="M-28.892145949392088,401.29942314131233 L1706.7449567996318,-12.674181767232085 " />
			<path d="M-28.892145949392056,759.0540454423774 L1706.7449567996318,345.080440533833 " />
			<path d="M24.706689130777548,812.2464967681884 L1708.1482452316607,410.7222561719644 " />
			<path d="M-26.893121797217898,793.016382624666 L1708.1404977707396,379.1867168538434 " />
			<path d="M-28.892145949392056,789.2169218156795 L1706.7449567996318,375.24331690713507 " />
			<path d="M-28.892145949392017,1146.9715441167446 L1706.7449567996318,732.9979392082001 " />
			<path d="M24.70668913077758,1200.1639954425555 L1708.243540876892,798.6170255086571 " />
			<path d="M-26.89312179721786,1180.9338812990331 L1708.2357934159709,767.0814861905362 " />
			<path d="M-28.892145949392017,1177.1344204900465 L1706.7449567996318,763.1608155815021 " />
			<path d="M-28.89214784727998,1547.1068243433276 L1706.7449549017235,1133.1328965690927 " />
			<path d="M24.706691367362644,1600.2992746857897 L1760.3437941163663,1186.3253469115548 " />
			<path d="M-26.89311956063279,1581.0691605390716 L1708.7439831883707,1167.0952327648367 " />
			<path d="M-28.892144092988374,1577.2696998206895 L1706.7449586560151,1163.2957720464547 " />
			<path d="M57.26735636583557,1612.768676971392 L57.26735636583557,1592.7683917521565 " />
			<path d="M57.26735636583556,1524.488591811612 L57.26735636583553,1192.633117894292 " />
			<path d="M57.267356365835525,1124.3533278313364 L57.2673563658355,804.715619219925 " />
			<path d="M57.26735636583549,736.4358291569694 L57.26735636583546,416.79812054555777 " />
			<path d="M57.267356365835454,348.51833048260215 L57.267356365835425,28.88066571381249 " />
			<path d="M-57.26735636583528,1587.5506870921383 L-57.267356365835425,-12.608994939626779 " />
			<path d="M1790.8198240538525,1179.579090194231 L1790.4268697683265,-419.9159504644116 " />
			<path d="M1708.3338219307273,1166.100224430023 L1707.9408676452013,-433.3948162286194 " />
			<path d="M1707.9409382588597,-433.1073878928923 L-27.635538172122487,-19.148609039398153 " />
			<path d="M1707.957711839851,-364.8316097731369 L25.449105127644643,36.46975476098645 " />
			<path d="M1708.0015620198817,-45.20475182423144 L-27.635540729142072,368.768853084313 " />
			<path d="M1708.0530073888372,23.06276780223226 L25.44910806270167,424.387215599507 " />
			<path d="M1708.0015620198817,342.7127468501358 L-27.635540729142047,756.6863517586802 " />
			<path d="M1708.1483030340682,410.95753713892515 L25.449108062701697,812.3047142738742 " />
			<path d="M1708.001562019882,730.6302455245028 L-27.635540729142008,1144.6038504330472 " />
			<path d="M1708.2435986792996,798.852306475618 L25.449108062701733,1200.2222129482413 " />
			<path d="M1708.001559574115,1130.7652030161914 L-27.635543174889143,1544.7391307904263 " />
			<path d="M1761.0862132159687,1186.3835643772964 L25.449110466964534,1600.3574921515312 " />

       </g>
    </g>
    
</svg>
