<?xml version="1.0" encoding="UTF-8" standalone="no"?>
<svg
   xmlns:svg="http://www.w3.org/2000/svg"
   xmlns="http://www.w3.org/2000/svg"
   width="480.0"
   height="480.0"

>
    <g transform="scale(0.17440323441833655, -0.17440323441833655)   translate(2071.459964633901,-1652.5677426983207)" stroke-width="1.0"  fill="none">
       <!-- hidden lines -->
       <g  stroke="rgb(0,0,0)" fill="none" stroke-dasharray="1.0,1.0" >
			<path d="M-8.331793589776243,-8.270468083728709 L-49.63870078260123,16.93914164739524 " />
			<path d="M-48.44796733054483,18.461761121318403 L-48.62702525829849,18.423302728824385 L-48.79845344611302,18.380825929152806 L-48.961511558550704,18.33451416401462 L-49.11549540745794,18.2845674369294 L-49.25973999309557,18.231201449483507 L-49.39362237602866,18.174646669794118 L-49.516564367373334,18.11514733720198 L-49.62803502578247,18.052960407491323 L-49.67931617383877,18.020942597511652 L-49.72755295038644,17.988354443192126 L-49.772693262126566,17.955231138104644 L-49.81468835978692,17.921608453757088 L-49.85349289076867,17.887522700961895 L-49.889064948124975,17.85301069062219 L-49.92136611581833,17.818109693977874 L-49.950361510208,17.782857402354526 L-49.97601981772257,17.747291886458694 L-49.998313328677085,17.71145155526342 L-50.01721796719802,17.675375114528492 L-50.032713317224136,17.639101525000147 L-50.044782644554715,17.602669960335433 L-50.05341291492169,17.56611976479662 L-50.05859480806598,17.52949041076138 L-50.06032272780296,17.492821456094575 " />
			<path d="M-50.06032272780296,17.49282145609457 L-50.0586384212787,17.456618103293092 L-50.05358727476122,17.42045286145619 L-50.04517460554991,17.384363801429355 L-50.0334092695908,17.348388913862117 L-50.01830365215395,17.312566069215624 L-49.999873654795636,17.276932977896728 L-49.978138678618826,17.241527150560547 L-49.9531216038499,17.206385858623314 L-49.924848765752756,17.171546095027082 L-49.89334992690594,17.13704453529756 L-49.858658245871815,17.10291749893608 L-49.82081024229081,17.069200911186403 L-49.77984575843754,17.03593026521647 L-49.735807917279125,17.003140584755087 L-49.68874307708006,16.970866387222703 L-49.638700782601234,16.939141647395243 " />
			<path d="M49.63870078260123,-16.93914164739524 L-16.645461381871776,23.514089375699825 " />
			<path d="M-16.645461381871772,23.514089375699825 L-16.726710088232387,23.560966060058057 L-16.814456415434016,23.606395951221977 L-16.908488974888762,23.65026960460458 L-17.00858123392462,23.692481324731993 L-17.114492061522522,23.73292941987312 L-17.2259663092221,23.771516447023927 L-17.342735425796644,23.808149446656184 L-17.464518104216566,23.84274016666511 L-17.59102095934265,23.87520527497641 L-17.721939234716555,23.905466560300553 L-17.856957536745817,23.933451120550625 L-17.99575059451464,23.959091538469817 L-18.137984043390027,23.98232604404553 L-18.283315230535454,24.00309866331873 L-18.43139404039158,24.02135935323012 L-18.581863738135297,24.037064122178258 L-18.73436182908514,24.050175135999172 L-18.88852093198276,24.06066080911218 L-19.04396966404654,24.068495880612307 L-19.20033353566523,24.07366147512605 L-19.357235852576245,24.076145148283768 L-19.514298623355128,24.075940916699277 L-19.671143470029996,24.073049272384356 L-19.827392539627226,24.06747718156344 L-19.982669414452353,24.059238067891368 L-20.13660001891328,24.04835178011464 L-20.28881352070113,24.03484454425404 L-20.438943224157764,24.018748900423844 L-20.58662745367775,24.000103624439856 L-20.731510425016566,23.978953634405052 L-20.873243102406,23.955349882497945 L-21.0114840394119,23.92934923222433 " />
			<path d="M-48.44796733054483,18.461761121318403 L-21.01148403941191,23.929349232224325 " />
			<path d="M-2010.3080258482407,-372.87903497035313 L-2010.4863626460328,-372.91788931055214 L-2010.6570446737107,-372.96072703018814 L-2010.8193369634448,-373.0073636672751 L-2010.972540674159,-373.0575984014431 L-2011.1159961007852,-373.111214918684 L-2011.2490855149956,-373.16798234281345 L-2011.3712358251814,-373.2276562296385 L-2011.4819210442215,-373.28997961955037 " />
			<path d="M-1937.2245399867945,-392.66306997795994 L-1937.2840300953346,-392.62556281328153 " />
			<path d="M-1937.2840300953349,-392.6255628132816 L-1978.566868364805,-367.74445580461384 " />
			<path d="M-1978.566868364805,-367.7444558046137 L-1978.6486826085868,-367.6978341258124 L-1978.7369769307943,-367.65267573387996 L-1978.8315386226714,-367.60908941933803 L-1978.9321398768195,-367.5671801854359 L-1979.0385383360062,-367.52704899518903 L-1979.1504776770237,-367.48879252814976 L-1979.2676882281949,-367.452502947498 L-1979.3898876190353,-367.41826767801217 L-1979.516781460509,-367.38616919545507 L-1979.6480640542377,-367.35628482788275 L-1979.7834191289537,-367.3286865693542 L-1979.9225206024264,-367.3034409064916 L-1980.0650333670226,-367.2806086583079 L-1980.2106140970093,-367.26024482968904 L-1980.358912075657,-367.2423984788817 L-1980.5095700401455,-367.22711259930816 L-1980.6622250422424,-367.2144240159912 L-1980.8165093226767,-367.20436329683935 L-1980.972051197103,-367.1969546790064 L-1981.1284759515218,-367.1922160105015 L-1981.285406744999,-367.19015870719227 L-1981.4424655175071,-367.1907877253024 L-1981.5992739007067,-367.19410154947235 L-1981.7554541294678,-367.20009219640934 L-1981.9106299519397,-367.20874523412016 L-1982.064427535974,-367.2200398166791 L-1982.2164763697197,-367.2339487344475 L-1982.3664101542186,-367.2504384796241 L-1982.513867685851,-367.26946932696853 L-1982.6584937265077,-367.2909954295026 L-1982.7999398593886,-367.3149649289598 L-1982.9378653283707,-367.34132008071646 " />
			<path d="M-2010.3080258482407,-372.8790349703531 L-1982.9378653283704,-367.34132008071646 " />
			<path d="M-8.657627470405636,-8.0715773600319 L-49.638703782378535,16.93917777650811 " />
			<path d="M-1938.5016594135425,-392.65375284610747 L-1979.4827357255156,-367.6429977095675 " />
			<path d="M-51.226347905634455,20.90721650170777 L-51.22443554171395,20.758890555547726 L-51.218703009936036,20.60858767905858 L-51.20916412047188,20.456669965034767 L-51.19584185334171,20.30350339655579 L-51.178768303053936,20.149456965300924 L-51.157984601286664,19.994901782615933 L-51.13354081779789,19.840210185473346 L-51.10549583980307,19.685754839480055 L-51.073917230110624,19.531907841093254 L-51.03888106435727,19.37903982120746 L-51.000471747735126,19.227519052272235 L-50.95878181165217,19.0777105610916 L-50.91391169081606,18.929975249442474 L-50.86596948127802,18.784669024630716 L-50.81507068002009,18.642141942079213 L-50.7613379067127,18.502737362013733 L-50.70490060831319,18.366791122278048 L-50.645894747216715,18.234630729271167 L-50.584462473710964,18.10657456895573 L-50.52075178352365,17.98293113983833 L-50.454916161287834,17.863998309769595 L-50.38711421078399,17.75006259835445 L-50.31750927284964,17.64139848670128 L-50.246269031876935,17.538267756172907 L-50.17356511184629,17.440918857732367 L-50.09957266286917,17.349586313402753 L-50.02446993923613,17.264490151283145 L-49.94843786998663,17.18583537548163 L-49.87165962303511,17.11381147224246 L-49.79432016390346,17.048591953457084 L-49.71660581012286,16.990333938658818 L-49.63870378237854,16.939177776508107 " />
			<path d="M-1981.0703798487714,-363.67495898436783 L-1981.068467484851,-363.8232849305279 L-1981.062734953073,-363.97358780701705 L-1981.0531960636088,-364.12550552104085 L-1981.0398737964786,-364.27867208951983 L-1981.0228002461909,-364.4327185207747 L-1981.0020165444237,-364.5872737034597 L-1980.977572760935,-364.74196530060226 L-1980.94952778294,-364.8964206465956 L-1980.9179491732475,-365.05026764498234 L-1980.8829130074942,-365.20313566486817 L-1980.844503690872,-365.35465643380337 L-1980.8028137547892,-365.504464924984 L-1980.7579436339531,-365.6522002366331 L-1980.710001424415,-365.7975064614449 L-1980.659102623157,-365.9400335439964 L-1980.6053698498497,-366.0794381240619 L-1980.5489325514502,-366.21538436379757 L-1980.4899266903537,-366.34754475680444 L-1980.428494416848,-366.4756009171199 L-1980.3647837266606,-366.5992443462373 L-1980.2989481044249,-366.718177176306 L-1980.231146153921,-366.83211288772117 L-1980.1615412159865,-366.94077699937435 L-1980.0903009750139,-367.0439077299027 L-1980.0175970549833,-367.1412566283432 L-1979.9436046060061,-367.2325891726729 L-1979.868501882373,-367.3176853347925 L-1979.7924698131235,-367.396340110594 L-1979.7156915661722,-367.46836401383314 L-1979.6383521070404,-367.53358353261854 L-1979.5606377532597,-367.5918415474168 L-1979.4827357255156,-367.6429977095675 " />
			<path d="M-1938.5016594135425,-392.6537528461075 L-1938.421340696884,-392.6989310603417 L-1938.3412276730976,-392.7363129613222 L-1938.2615255095097,-392.76580281499326 L-1938.1824383212452,-392.78732509862283 L-1938.1041686484923,-392.80082469421404 L-1938.0269169378048,-392.80626702966106 L-1937.9887347588444,-392.8059615619364 L-1937.9508810287623,-392.8036381672874 L-1937.9133799870378,-392.79929833349024 L-1937.8762556473084,-392.79294483953964 " />
			<path d="M-1937.8762556473084,-392.79294483953964 L-1937.8235144514424,-392.7802690128903 L-1937.7716733753068,-392.76344447161233 L-1937.720801228981,-392.74249354737987 L-1937.6709655364566,-392.71744404892803 L-1937.6222324460127,-392.6883292251416 L-1937.5746666424136,-392.6551877209231 L-1937.5283312610522,-392.61806352589787 L-1937.4832878041486,-392.5770059160261 L-1937.4395960591153,-392.532069388197 L-1937.3973140192015,-392.4833135878937 L-1937.356497806516,-392.43080323002425 L-1937.3172015975347,-392.37460801302376 L-1937.2794775511913,-392.3148025263417 L-1937.243375739645,-392.2514661514371 L-1937.2089440818183,-392.1846829564139 L-1937.176228279793,-392.1145415844344 L-1937.145271758148,-392.04113513606126 L-1937.1161156063222,-391.96456104568233 L-1937.0887985240736,-391.88492095218334 L-1937.063356770113,-391.80232056404003 L-1937.039824113977,-391.71686951900807 L-1937.0182317912036,-391.62868123859806 L-1936.9986084618743,-391.53787277752815 L-1936.980980172571,-391.4445646683538 L-1936.9653703218044,-391.34888076148195 L-1936.9517996289565,-391.2509480607808 L-1936.9402861067797,-391.1508965550041 L-1936.9308450374867,-391.0488590452537 L-1936.9234889524673,-390.94497096870873 L-1936.9182276156546,-390.8393702188563 L-1936.9150680105647,-390.73219696246167 L-1936.914014331028,-390.62359345352115 " />
			<path d="M-1936.9140095946893,-361.00749024695244 L-1936.9159219586097,-360.8591643007924 L-1936.9216544903877,-360.7088614243032 L-1936.931193379852,-360.5569437102794 L-1936.9445156469822,-360.40377714180045 L-1936.9615891972699,-360.2497307105456 L-1936.982372899037,-360.0951755278606 L-1937.0068166825258,-359.940483930718 L-1937.0348616605206,-359.7860285847247 L-1937.0664402702132,-359.63218158633794 L-1937.1014764359666,-359.4793135664521 L-1937.1398857525887,-359.3277927975169 L-1937.1815756886715,-359.17798430633627 L-1937.2264458095076,-359.03024899468716 L-1937.2743880190458,-358.88494276987535 L-1937.3252868203037,-358.74241568732384 L-1937.379019593611,-358.6030111072584 L-1937.4354568920105,-358.4670648675227 L-1937.494462753107,-358.33490447451584 L-1937.5558950266127,-358.2068483142004 L-1937.6196057168002,-358.083204885083 L-1937.6854413390358,-357.96427205501425 L-1937.7532432895398,-357.8503363435991 L-1937.8228482274742,-357.7416722319459 L-1937.8940884684469,-357.6385415014176 L-1937.9667923884774,-357.54119260297705 L-1938.0407848374546,-357.4498600586474 L-1938.1158875610877,-357.3647638965278 L-1938.1919196303372,-357.2861091207263 L-1938.2686978772886,-357.21408521748714 L-1938.3460373364203,-357.14886569870174 L-1938.423751690201,-357.0906076839035 L-1938.5016537179451,-357.03945152175277 " />
			<path d="M-1938.5016537179454,-357.03945152175277 L-1979.4827300299185,-332.0286963852128 " />
			<path d="M-50.78837173214314,52.324370434922095 L-50.839130299115574,52.24975205376836 L-50.88717367946016,52.169037167628865 L-50.93239320665276,52.08240834080406 L-50.97468660127822,51.990061513992416 L-51.01395820237023,51.89220556110359 L-51.050119183781305,51.78906181681868 L-51.083087755093466,51.6808635759662 L-51.112789346615216,51.56785556584611 L-51.1391567780464,51.45029339269535 L-51.162130410429384,51.328442963547026 L-51.18165828104299,51.202579884790744 L-51.1976962209339,51.07298883879458 L-51.21020795481985,50.9399629399986 L-51.2191651831386,50.8038030719364 L-51.22454764605706,50.664817206684134 L-51.226343169295795,50.523319708276446 " />
			<path d="M-1979.482730029918,-332.02869638521275 L-1979.5630487465764,-331.9835181709786 L-1979.643161770363,-331.9461362699981 L-1979.7228639339507,-331.916646416327 L-1979.8019511222153,-331.89512413269745 L-1979.8802207949682,-331.88162453710623 L-1979.9574725056557,-331.8761822016592 L-1979.995654684616,-331.8764876693839 L-1980.0335084146982,-331.8788110640329 L-1980.0710094564226,-331.88315089783003 L-1980.108133796152,-331.88950439178063 " />
			<path d="M-1980.108133796152,-331.88950439178063 L-1980.160874992018,-331.90218021843 L-1980.2127160681537,-331.91900475970795 L-1980.2635882144796,-331.9399556839404 L-1980.3134239070039,-331.96500518239225 L-1980.3621569974478,-331.99412000617866 L-1980.4097228010469,-332.0272615103972 L-1980.4560581824082,-332.0643857054224 L-1980.5011016393119,-332.10544331529417 L-1980.5447933843452,-332.1503798431233 L-1980.587075424259,-332.1991356434266 L-1980.6278916369445,-332.251646001296 L-1980.6671878459258,-332.3078412182965 L-1980.7049118922691,-332.3676467049786 L-1980.7410137038155,-332.43098307988316 L-1980.7754453616421,-332.4977662749064 L-1980.8081611636676,-332.5679076468859 L-1980.8391176853124,-332.641314095259 L-1980.8682738371383,-332.71788818563795 L-1980.895590919387,-332.79752827913694 L-1980.9210326733476,-332.88012866728025 L-1980.9445653294836,-332.9655797123122 L-1980.966157652257,-333.0537679927222 L-1980.9857809815862,-333.1445764537921 L-1981.0034092708895,-333.2378845629665 L-1981.0190191216561,-333.3335684698383 L-1981.032589814504,-333.4315011705395 L-1981.0441033366808,-333.53155267631615 L-1981.0535444059738,-333.63359018606656 L-1981.0609004909932,-333.73747826261155 L-1981.066161827806,-333.843079012464 L-1981.0693214328958,-333.9502522688586 L-1981.0703751124324,-334.0588557777991 " />
			<path d="M-51.22634790563446,20.907216501707772 L-51.22634316929581,50.52331970827645 " />
			<path d="M-1981.0703798487712,-363.67495898436783 L-1981.0703751124324,-334.0588557777991 " />
			<path d="M-8.657624474326788,372.8139549398882 L-49.63870078260126,397.8247100484784 " />
			<path d="M-1938.501656474362,-11.76857968386454 L-1979.4827327826367,13.242175424725668 " />
			<path d="M-51.22634538534313,401.79274867749035 L-51.224432997888506,401.6444227359982 L-51.21870044263352,401.4941198641683 L-51.20916152980588,401.3422021547839 L-51.19583923948212,401.18903559091325 L-51.17876566622651,401.03498916422456 L-51.1579819417725,400.88043398605265 L-51.133538135932724,400.7257423933591 L-51.10549313597649,400.57128705174017 L-51.073914504765135,400.4174400576424 L-51.03887831798721,400.2645720419501 L-51.00046898088548,400.1130512771026 L-50.95877902491727,399.96324278989414 L-50.91390888483813,399.81550748209213 L-50.865966656745655,399.67020126099305 L-50.815067837666575,399.52767418201086 L-50.76133504731426,399.38826960536284 L-50.7048977326871,399.2523233688844 L-50.645891856219365,399.12016297896673 L-50.58445956823576,398.99210682156513 L-50.52074886449888,398.86846339517905 L-50.45491322967442,398.7495305676526 L-50.38711126757319,398.6355948585845 L-50.31750631906065,398.52693074907756 L-50.24626606855443,398.42380002048947 L-50.17356214005792,398.3264511237785 L-50.099569683702974,398.2351185809636 L-50.024466953797926,398.1500224201402 L-49.94843487939734,398.0713676454133 L-49.87165662842807,397.99934374302455 L-49.794317166421685,397.93412422486335 L-49.716602810916285,397.8758662104615 L-49.63870078260127,397.82471004847844 " />
			<path d="M-1981.0703773853786,17.210214053737605 L-1981.068464997924,17.061888112245448 L-1981.062732442669,16.91158524041555 L-1981.0531935298413,16.759667531031123 L-1981.0398712395177,16.606500967160493 L-1981.022797666262,16.452454540471837 L-1981.002013941808,16.297899362299916 L-1980.977570135968,16.14320776960638 L-1980.949525136012,15.988752427987414 L-1980.9179465048005,15.834905433889666 L-1980.8829103180226,15.682037418197327 L-1980.8445009809209,15.530516653349853 L-1980.8028110249527,15.380708166141414 L-1980.7579408848735,15.232972858339368 L-1980.7099986567812,15.087666637240297 L-1980.6590998377021,14.945139558258147 L-1980.6053670473498,14.805734981610087 L-1980.5489297327226,14.669788745131658 L-1980.4899238562548,14.537628355214023 L-1980.4284915682713,14.409572197812375 L-1980.3647808645344,14.285928771426292 L-1980.29894522971,14.16699594389982 L-1980.2311432676086,14.053060234831758 L-1980.161538319096,13.94439612532484 L-1980.0902980685898,13.841265396736716 L-1980.0175941400935,13.743916500025744 L-1979.9436016837385,13.652583957210856 L-1979.8684989538333,13.567487796387482 L-1979.7924668794328,13.488833021660584 L-1979.7156886284636,13.416809119271825 L-1979.6383491664571,13.351589601110609 L-1979.5606348109518,13.29333158670874 L-1979.4827327826367,13.24217542472572 " />
			<path d="M-1938.5016564743623,-11.768579683864502 L-1938.4213377419032,-11.81375790661661 L-1938.3412247036695,-11.851139813146672 L-1938.261522527108,-11.88062966934559 L-1938.18243532746,-11.902151952443859 L-1938.104165645027,-11.91565154442345 L-1938.0269139264685,-11.92109387317365 L-1937.9887317442833,-11.920788400946513 L-1937.9508780114656,-11.918465001029348 L-1937.9133769675075,-11.914125161202309 L-1937.8762526260573,-11.907771660465052 " />
			<path d="M-1936.9140118716205,19.877681882106806 L-1936.9159242590752,20.026007823598967 L-1936.9216568143302,20.176310695428867 L-1936.9311957271577,20.32822840481329 L-1936.9445180174814,20.481394968683922 L-1936.961591590737,20.635441395372577 L-1936.9823753151911,20.7899965735445 L-1937.006819121031,20.944688166238034 L-1937.034864120987,21.099143507857 L-1937.0664427521986,21.252990501954745 L-1937.1014789389765,21.405858517647086 L-1937.1398882760782,21.55737928249456 L-1937.1815782320464,21.707187769703 L-1937.2264483721256,21.85492307750505 L-1937.2743906002179,22.00022929860412 L-1937.325289419297,22.142756377586267 L-1937.3790222096493,22.282160954234328 L-1937.4354595242764,22.418107190712757 L-1937.4944654007443,22.55026758063039 L-1937.5558976887278,22.678323738032038 L-1937.6196083924647,22.801967164418123 L-1937.6854440272891,22.920899991944594 L-1937.7532459893905,23.034835701012657 L-1937.822850937903,23.14349981051958 L-1937.8940911884092,23.2466305391077 L-1937.9667951169056,23.34397943581867 L-1938.0407875732606,23.435311978633557 L-1938.1158903031658,23.520408139456933 L-1938.1919223775662,23.599062914183833 L-1938.2687006285355,23.67108681657259 L-1938.346040090542,23.736306334733804 L-1938.4237544460473,23.794564349135673 L-1938.5016564743623,23.84572051111869 " />
			<path d="M-1938.501656474362,23.845720511118635 L-1979.4827327826367,48.85647561970884 " />
			<path d="M-50.78837446044885,433.20990135710326 L-50.83913299050506,433.13528297463944 L-50.88717633404083,433.054568090561 L-50.9323958246626,432.9679392690843 L-50.974689183082454,432.8755924508103 L-51.01396074845764,432.7777365095384 L-51.05012169476013,432.6745927798271 L-51.08309023168696,432.56639455637037 L-51.11279178965688,432.4533865663222 L-51.13915918847488,432.3358244157629 L-51.16213278928306,432.2139740115587 L-51.181660629454285,432.08811095992274 L-51.19769854012331,431.95851994303786 L-51.21021024608979,431.82549407515063 L-51.21916744786693,431.6893342395937 L-51.2245498856905,431.55034840823555 L-51.22634538534313,431.40885094489744 " />
			<path d="M-1979.4827327826367,48.85647561970892 L-1979.5630515150958,48.90165384246102 L-1979.6431645533296,48.93903574899109 L-1979.7228667298912,48.96852560519 L-1979.801953929539,48.990047888288274 L-1979.880223611972,49.00354748026787 L-1979.9574753305305,49.00898980901807 L-1979.9956575127158,49.00868433679093 L-1980.0335112455334,49.00636093687376 L-1980.0710122894916,49.00202109704672 L-1980.1081366309418,48.99566759630947 " />
			<path d="M-1980.1081366309418,48.99566759630947 L-1980.1608778139437,48.982991762639564 L-1980.2127188766144,48.96616721508856 L-1980.2635910089027,48.9452162853357 L-1980.3134266868444,48.92016678211945 L-1980.36215976219,48.89105195432625 L-1980.409725550204,48.85791044685833 L-1980.4560609155235,48.82078624933928 L-1980.5011043559582,48.77972863772547 L-1980.5447960841257,48.73479210890067 L-1980.5870781068077,48.68603630834092 L-1980.6278943019263,48.6335259509454 L-1980.6671904930365,48.577330735138645 L-1980.7049145212359,48.51752525035792 L-1980.7410163143961,48.45418887804858 L-1980.7754479536263,48.38740568629902 L-1980.808163736876,48.31726431825469 L-1980.8391202395965,48.24385787445977 L-1980.8682763723807,48.16728378928219 L-1980.895593435501,48.087643701586366 L-1980.9210351702773,48.005043319825226 L-1980.9445678072032,47.91959228173044 L-1980.9661601107705,47.83140400878731 L-1980.9857834209274,47.74059555568736 L-1981.0034116911213,47.64728745495843 L-1981.0190215228702,47.551603556978606 L-1981.0325921968197,47.45367086558624 L-1981.0441057002458,47.35361936950429 L-1981.0535467509624,47.25158186980276 L-1981.0609028176063,47.14769380362826 L-1981.0661641362703,47.042093064434546 L-1981.069323723463,46.93491981895284 L-1981.0703773853786,46.8263163211447 " />
			<path d="M-51.22634538534314,401.7927486774903 L-51.22634538534314,431.4088509448974 " />
			<path d="M-1981.0703773853786,17.21021405373757 L-1981.0703773853786,46.82631632114463 " />
			<path d="M-8.657624474326827,753.6995233409714 L-49.638700782601305,778.7102784495617 " />
			<path d="M-1938.501656474362,369.1169887172187 L-1979.4827327826367,394.12774382580886 " />
			<path d="M-51.22634538534317,782.6783170785735 L-51.22443299788855,782.5299911370813 L-51.21870044263356,782.3796882652515 L-51.209161529805925,782.227770555867 L-51.19583923948216,782.0746039919964 L-51.17876566622655,781.9205575653077 L-51.15798194177254,781.7660023871358 L-51.13353813593277,781.6113107944423 L-51.10549313597653,781.4568554528233 L-51.07391450476518,781.3030084587256 L-51.038878317987255,781.1501404430333 L-51.00046898088552,780.9986196781857 L-50.95877902491731,780.8488111909774 L-50.91390888483817,780.7010758831752 L-50.8659666567457,780.5557696620762 L-50.81506783766662,780.4132425830941 L-50.761335047314304,780.273838006446 L-50.704897732687144,780.1378917699676 L-50.64589185621941,780.00573138005 L-50.5844595682358,779.8776752226482 L-50.52074886449892,779.7540317962622 L-50.45491322967446,779.6350989687357 L-50.38711126757323,779.5211632596677 L-50.31750631906069,779.4124991501608 L-50.24626606855447,779.3093684215726 L-50.17356214005796,779.2120195248616 L-50.09956968370302,779.1206869820468 L-50.02446695379797,779.0355908212234 L-49.94843487939738,778.9569360464965 L-49.87165662842811,778.8849121441077 L-49.79431716642173,778.8196926259465 L-49.71660281091633,778.7614346115446 L-49.63870078260131,778.7102784495617 " />
			<path d="M-1981.0703773853786,398.0957824548208 L-1981.068464997924,397.94745651332863 L-1981.062732442669,397.7971536414987 L-1981.0531935298413,397.6452359321143 L-1981.0398712395177,397.4920693682437 L-1981.022797666262,397.338022941555 L-1981.002013941808,397.1834677633831 L-1980.977570135968,397.0287761706895 L-1980.949525136012,396.8743208290706 L-1980.9179465048005,396.72047383497284 L-1980.8829103180226,396.5676058192805 L-1980.8445009809209,396.41608505443304 L-1980.8028110249527,396.26627656722457 L-1980.7579408848735,396.11854125942256 L-1980.7099986567812,395.9732350383235 L-1980.6590998377021,395.8307079593413 L-1980.6053670473498,395.69130338269326 L-1980.5489297327226,395.5553571462148 L-1980.4899238562548,395.42319675629716 L-1980.4284915682713,395.29514059889556 L-1980.3647808645344,395.1714971725095 L-1980.29894522971,395.052564344983 L-1980.2311432676086,394.93862863591494 L-1980.161538319096,394.829964526408 L-1980.0902980685898,394.7268337978199 L-1980.0175941400935,394.6294849011089 L-1979.9436016837385,394.53815235829404 L-1979.8684989538333,394.45305619747063 L-1979.7924668794328,394.37440142274374 L-1979.7156886284636,394.302377520355 L-1979.6383491664571,394.2371580021938 L-1979.5606348109518,394.1788999877919 L-1979.4827327826367,394.12774382580886 " />
			<path d="M-1938.5016564743623,369.1169887172187 L-1938.4284549886522,369.0755033605394 L-1938.3554092013242,369.0404852777842 L-1938.2826744795927,369.01200895185184 L-1938.2104055290404,368.9901349514292 L-1938.1387560645626,368.97490980216327 L-1938.0678784834167,368.9663658877015 L-1937.997923541078,368.9645213808126 L-1937.9290400305829,368.96938020473294 " />
			<path d="M-1937.978718721755,404.24478297650245 L-1938.042054322543,404.3223782721602 L-1938.1061988375338,404.3954147551264 L-1938.1710393703688,404.4637638789002 L-1938.2364617996768,404.52730534688 L-1938.3023509799302,404.5859273240891 L-1938.368590944105,404.63952663400903 L-1938.4350651077868,404.68800894017306 L-1938.5016564743623,404.7312889122018 " />
			<path d="M-1938.501656474362,404.73128891220193 L-1979.4827327826367,429.7420440207921 " />
			<path d="M-50.78837446044885,814.0954697581864 L-50.83913299050506,814.0208513757226 L-50.88717633404084,813.9401364916441 L-50.932395824662606,813.8535076701675 L-50.97468918308247,813.7611608518934 L-51.013960748457656,813.6633049106215 L-51.05012169476015,813.5601611809102 L-51.08309023168698,813.4519629574535 L-51.11279178965691,813.3389549674052 L-51.13915918847491,813.221392816846 L-51.1621327892831,813.0995424126418 L-51.18166062945432,812.9736793610059 L-51.197698540123355,812.8440883441209 L-51.21021024608982,812.7110624762337 L-51.21916744786697,812.5749026406768 L-51.224549885690536,812.4359168093187 L-51.22634538534317,812.2944193459805 " />
			<path d="M-1979.4827327826367,429.742044020792 L-1979.5630515150958,429.7872222435441 L-1979.6431645533296,429.82460415007415 L-1979.7228667298912,429.85409400627304 L-1979.801953929539,429.87561628937135 L-1979.880223611972,429.8891158813509 L-1979.9574753305305,429.89455821010114 L-1979.9956575127158,429.89425273787396 L-1980.0335112455334,429.8919293379568 L-1980.0710122894916,429.8875894981298 L-1980.1081366309418,429.88123599739254 " />
			<path d="M-1980.1081366309418,429.88123599739254 L-1980.1608778139437,429.86856016372263 L-1980.2127188766144,429.8517356161716 L-1980.2635910089027,429.8307846864187 L-1980.3134266868444,429.8057351832025 L-1980.36215976219,429.7766203554093 L-1980.409725550204,429.7434788479414 L-1980.4560609155235,429.7063546504223 L-1980.5011043559582,429.6652970388085 L-1980.5447960841257,429.6203605099837 L-1980.5870781068077,429.571604709424 L-1980.6278943019263,429.51909435202845 L-1980.6671904930365,429.4628991362217 L-1980.7049145212359,429.40309365144094 L-1980.7410163143961,429.3397572791316 L-1980.7754479536263,429.27297408738207 L-1980.808163736876,429.2028327193377 L-1980.8391202395965,429.1294262755428 L-1980.8682763723807,429.05285219036523 L-1980.895593435501,428.97321210266944 L-1980.9210351702773,428.8906117209083 L-1980.9445678072032,428.8051606828135 L-1980.9661601107705,428.7169724098704 L-1980.9857834209274,428.6261639567704 L-1981.0034116911213,428.53285585604146 L-1981.0190215228702,428.43717195806164 L-1981.0325921968197,428.33923926666927 L-1981.0441057002458,428.2391877705873 L-1981.0535467509624,428.1371502708858 L-1981.0609028176063,428.0332622047113 L-1981.0661641362703,427.9276614655176 L-1981.069323723463,427.8204882200359 L-1981.0703773853786,427.71188472222775 " />
			<path d="M-51.226345385343166,782.6783170785734 L-51.226345385343166,812.2944193459805 " />
			<path d="M-1981.0703773853786,398.09578245482066 L-1981.0703773853786,427.71188472222775 " />
			<path d="M-8.65762447432687,1134.5850917420544 L-49.63870078260135,1159.5958468506446 " />
			<path d="M-1938.501656474362,750.0025571183018 L-1979.4827327826367,775.013312226892 " />
			<path d="M-51.226345385343215,1163.5638854796566 L-51.22443299788859,1163.4155595381644 L-51.218700442633605,1163.2652566663346 L-51.20916152980597,1163.1133389569502 L-51.195839239482204,1162.9601723930796 L-51.178765666226596,1162.806125966391 L-51.15798194177258,1162.6515707882188 L-51.13353813593281,1162.4968791955255 L-51.10549313597657,1162.3424238539064 L-51.07391450476522,1162.1885768598086 L-51.0388783179873,1162.0357088441162 L-51.000468980885564,1161.8841880792688 L-50.958779024917355,1161.7343795920603 L-50.913908884838214,1161.5866442842585 L-50.86596665674574,1161.4413380631593 L-50.81506783766666,1161.2988109841772 L-50.76133504731435,1161.159406407529 L-50.704897732687186,1161.0234601710506 L-50.64589185621945,1160.891299781133 L-50.58445956823584,1160.7632436237313 L-50.52074886449896,1160.6396001973453 L-50.4549132296745,1160.5206673698187 L-50.387111267573275,1160.4067316607507 L-50.31750631906073,1160.2980675512438 L-50.24626606855451,1160.1949368226558 L-50.173562140058,1160.0975879259447 L-50.09956968370306,1160.0062553831299 L-50.02446695379801,1159.9211592223064 L-49.948434879397425,1159.8425044475796 L-49.871656628428155,1159.7704805451908 L-49.79431716642177,1159.7052610270296 L-49.71660281091637,1159.6470030126277 L-49.638700782601354,1159.5958468506446 " />
			<path d="M-1981.0703773853786,778.981350855904 L-1981.068464997924,778.8330249144118 L-1981.062732442669,778.682722042582 L-1981.0531935298413,778.5308043331975 L-1981.0398712395177,778.3776377693268 L-1981.022797666262,778.2235913426382 L-1981.002013941808,778.0690361644663 L-1980.977570135968,777.9143445717727 L-1980.949525136012,777.7598892301538 L-1980.9179465048005,777.606042236056 L-1980.8829103180226,777.4531742203637 L-1980.8445009809209,777.3016534555162 L-1980.8028110249527,777.1518449683078 L-1980.7579408848735,777.0041096605057 L-1980.7099986567812,776.8588034394066 L-1980.6590998377021,776.7162763604246 L-1980.6053670473498,776.5768717837765 L-1980.5489297327226,776.4409255472981 L-1980.4899238562548,776.3087651573804 L-1980.4284915682713,776.1807089999787 L-1980.3647808645344,776.0570655735927 L-1980.29894522971,775.9381327460662 L-1980.2311432676086,775.8241970369982 L-1980.161538319096,775.7155329274913 L-1980.0902980685898,775.612402198903 L-1980.0175941400935,775.5150533021921 L-1979.9436016837385,775.4237207593773 L-1979.8684989538333,775.3386245985539 L-1979.7924668794328,775.259969823827 L-1979.7156886284636,775.1879459214382 L-1979.6383491664571,775.1227264032769 L-1979.5606348109518,775.0644683888751 L-1979.4827327826367,775.0133122268921 " />
			<path d="M-1938.5016564743623,750.0025571183019 L-1938.4656228592455,749.9813383479035 " />
			<path d="M-1938.5158208797254,785.6255018513427 L-1979.4827327826367,810.6276124218751 " />
			<path d="M-50.788374460448985,1194.9810381592692 L-50.83913299050519,1194.9064197768055 L-50.88717633404096,1194.8257048927271 L-50.93239582466272,1194.7390760712503 L-50.97468918308257,1194.6467292529762 L-51.01396074845775,1194.5488733117043 L-51.050121694760236,1194.445729581993 L-51.08309023168706,1194.3375313585364 L-51.11279178965698,1194.2245233684882 L-51.13915918847498,1194.106961217929 L-51.162132789283156,1193.9851108137248 L-51.18166062945438,1193.8592477620887 L-51.197698540123405,1193.7296567452038 L-51.21021024608987,1193.5966308773166 L-51.219167447867015,1193.4604710417598 L-51.22454988569058,1193.3214852104015 L-51.226345385343215,1193.1799877470635 " />
			<path d="M-1979.4827327826367,810.627612421875 L-1979.5630515150958,810.6727906446272 L-1979.6431645533296,810.7101725511573 L-1979.7228667298912,810.7396624073561 L-1979.801953929539,810.7611846904545 L-1979.880223611972,810.774684282434 L-1979.9574753305305,810.7801266111842 L-1979.9956575127158,810.7798211389571 L-1980.0335112455334,810.77749773904 L-1980.0710122894916,810.7731578992128 L-1980.1081366309418,810.7668043984756 " />
			<path d="M-1980.1081366309418,810.7668043984756 L-1980.1608778139437,810.7541285648057 L-1980.2127188766144,810.7373040172547 L-1980.2635910089027,810.7163530875018 L-1980.3134266868444,810.6913035842856 L-1980.36215976219,810.6621887564924 L-1980.409725550204,810.6290472490244 L-1980.4560609155235,810.5919230515054 L-1980.5011043559582,810.5508654398916 L-1980.5447960841257,810.5059289110668 L-1980.5870781068077,810.457173110507 L-1980.6278943019263,810.4046627531116 L-1980.6671904930365,810.3484675373048 L-1980.7049145212359,810.288662052524 L-1980.7410163143961,810.2253256802147 L-1980.7754479536263,810.1585424884652 L-1980.808163736876,810.0884011204208 L-1980.8391202395965,810.014994676626 L-1980.8682763723807,809.9384205914483 L-1980.895593435501,809.8587805037525 L-1980.9210351702773,809.7761801219914 L-1980.9445678072032,809.6907290838966 L-1980.9661601107705,809.6025408109534 L-1980.9857834209274,809.5117323578535 L-1981.0034116911213,809.4184242571246 L-1981.0190215228702,809.3227403591447 L-1981.0325921968197,809.2248076677524 L-1981.0441057002458,809.1247561716705 L-1981.0535467509624,809.022718671969 L-1981.0609028176063,808.9188306057944 L-1981.0661641362703,808.8132298666008 L-1981.069323723463,808.706056621119 L-1981.0703773853786,808.5974531233109 " />
			<path d="M-51.22634538534321,1163.5638854796566 L-51.22634538534321,1193.1799877470635 " />
			<path d="M-1981.0703773853786,778.9813508559039 L-1981.0703773853786,808.597453123311 " />
			<path d="M-8.657621979972355,1527.4669653329795 L-49.638698288246836,1552.477720438432 " />
			<path d="M-1939.0193966363097,1143.2000920928988 L-1979.4827302882604,1167.8948688016994 " />
			<path d="M-51.22634331386448,1556.4457589831031 L-51.22443090566033,1556.2974330457437 L-51.218698329705795,1556.1471301780366 L-51.20915939627847,1555.9952124727556 L-51.1958370855045,1555.8420459129588 L-51.17876349199743,1555.6879994903047 L-51.15797974753949,1555.5334443161184 L-51.133535921991516,1555.3787527273516 L-51.10549090267028,1555.2242973895916 L-51.073912252483794,1555.0704503992754 L-51.038876047166305,1554.9175823872781 L-51.00046669200523,1554.7660616260303 L-50.95877671850143,1554.6162531423172 L-50.91390656145267,1554.4685178378984 L-50.865964316997456,1554.3232116200618 L-50.815065482201916,1554.1806845442136 L-50.76133267681728,1554.0412799705634 L-50.70489534787817,1553.9053337369396 L-50.645889457853315,1553.7731733497264 L-50.584457157100104,1553.6451171948727 L-50.52074644141187,1553.5214737708718 L-50.454910795483116,1553.402540945562 L-50.3871088231514,1553.2886052385365 L-50.31750386530682,1553.1799411308934 L-50.246263606389505,1553.076810403986 L-50.173559670423096,1552.9794615087683 L-50.099567207557435,1552.8881289672556 L-50.024464472116556,1552.8030328075406 L-49.94843239316835,1552.724378033725 L-49.87165413865064,1552.652354132049 L-49.79431467410352,1552.5871346143997 L-49.71660031707123,1552.5288766003077 L-49.63869828824684,1552.4777204384322 " />
			<path d="M-1981.070375313878,1171.8629073463705 L-1981.0684629056739,1171.714581409011 L-1981.0627303297192,1171.564278541304 L-1981.053191396292,1171.412360836023 L-1981.039869085518,1171.2591942762263 L-1981.022795492011,1171.1051478535721 L-1981.002011747553,1170.9505926793859 L-1980.977567922005,1170.795901090619 L-1980.9495229026838,1170.641445752859 L-1980.9179442524974,1170.4875987625428 L-1980.8829080471799,1170.3347307505455 L-1980.8444986920188,1170.1832099892977 L-1980.802808718515,1170.0334015055846 L-1980.7579385614663,1169.8856662011658 L-1980.709996317011,1169.7403599833292 L-1980.6590974822154,1169.597832907481 L-1980.6053646768307,1169.4584283338309 L-1980.5489273478918,1169.322482100207 L-1980.4899214578668,1169.1903217129939 L-1980.4284891571135,1169.06226555814 L-1980.3647784414254,1168.9386221341392 L-1980.2989427954967,1168.8196893088293 L-1980.2311408231649,1168.705753601804 L-1980.1615358653203,1168.5970894941609 L-1980.090295606403,1168.4939587672534 L-1980.0175916704366,1168.3966098720357 L-1979.943599207571,1168.305277330523 L-1979.8684964721301,1168.220181170808 L-1979.792464393182,1168.1415263969925 L-1979.715686138664,1168.0695024953163 L-1979.638346674117,1168.0042829776671 L-1979.5606323170848,1167.9460249635752 L-1979.4827302882604,1167.8948688016997 " />
			<path d="M-50.78837701729788,1587.862910552207 L-50.83913551471959,1587.788292168607 L-50.88717882571904,1587.7075772863782 L-50.932398284018184,1587.6209484696624 L-50.97469161044169,1587.5286016589741 L-51.01396314425609,1587.4307457280154 L-51.05012405953901,1587.3276020112355 L-51.083092566089206,1587.2194038032096 L-51.112794094422924,1587.1063958309621 L-51.13916146443809,1586.9888337004343 L-51.162135037364976,1586.8669833183449 L-51.18166285065955,1586.7411202907501 L-51.19770073553441,1586.611529299669 L-51.21021241686154,1586.4785034591766 L-51.219169595220805,1586.3423436524274 L-51.22455201090876,1586.203357851106 L-51.226347489762794,1586.0618604188442 " />
			<path d="M-1980.5230813092935,1203.4104792433955 L-1980.5857418561895,1203.3403571702256 L-1980.6452442470354,1203.2621313483128 L-1980.701418113156,1203.1760257557096 L-1980.7541026161884,1203.0822869320173 L-1980.8031469085981,1202.9811832724874 L-1980.848410565589,1202.8730042595469 L-1980.889763987171,1202.758059633944 L-1980.9270887692337,1202.6366785078922 L-1980.960278042565,1202.5092084227472 L-1980.98923677884,1202.376014353919 L-1981.0138820627094,1202.2374776658646 L-1981.0341433292042,1202.0939950201578 L-1981.0499625657797,1201.9459772397563 L-1981.0612944784177,1201.7938481327244 L-1981.0681066213137,1201.638043278776 L-1981.0703794897765,1201.4790087821114 " />
			<path d="M-51.226343313864476,1556.445758983103 L-51.22634748976279,1586.0618604188442 " />
			<path d="M-1981.0703753138782,1171.8629073463703 L-1981.0703794897763,1201.4790087821116 " />
			<path d="M-50.060322727803126,1588.24164701827 L-50.06032272780312,1518.9523357322214 " />
			<path d="M-50.06032272780308,1195.3597746535856 L-50.060322727803076,1126.0704695422264 " />
			<path d="M-50.06032272780305,814.4742062525025 L-50.06032272780304,745.1849011411431 " />
			<path d="M-50.060322727803005,433.58863785141955 L-50.060322727803,364.2993327400598 " />
			<path d="M-50.06032272780297,52.7031069466481 L-50.06032272780296,17.492821456094568 " />
			<path d="M-1937.4410065979205,22.430944970825237 L-1937.3930903917546,-11.592968137810033 " />
			<path d="M-1936.9010101863912,-361.0048997056234 L-1936.8556950934644,-393.18183748142286 " />
			<path d="M-1937.8762556473082,-392.79294483953953 L-1936.8565289610697,-392.58973219597686 " />
			<path d="M-1980.1081337961527,-331.88950439178075 L-1936.9541248536707,-323.2897096076734 " />
			<path d="M-1937.876252626057,-11.907771660465073 L-1937.3927827368757,-11.811424975286059 " />
			<path d="M-1980.1081366309418,48.99566759630949 L-1937.4903786404825,57.488605427646235 " />
			<path d="M-1980.1081366309418,429.8812359973926 L-1938.0266329733086,438.26730817165986 " />
			<path d="M-1980.1081366309418,810.7668043984754 L-1938.5628873061346,819.0460109156734 " />

       </g>

       <!-- solid lines -->
       <g  stroke="rgb(0,0,0)" fill="none">
			<path d="M16.645461381871776,-23.514089375699825 L-8.331793589776243,-8.270468083728709 " />
			<path d="M16.645461381871613,1547.6388802787685 L-49.63870078260139,1588.0921113018637 " />
			<path d="M-48.44796733054499,1589.614730775787 L-48.62702525829865,1589.576272383293 L-48.798453446113186,1589.5337955836214 L-48.96151155855087,1589.487483818483 L-49.115495407458106,1589.4375370913979 L-49.259739993095735,1589.384171103952 L-49.393622376028816,1589.3276163242626 L-49.5165643673735,1589.2681169916705 L-49.62803502578263,1589.2059300619599 L-49.679316173838934,1589.1739122519803 L-49.7275529503866,1589.1413240976606 L-49.77269326212673,1589.1082007925731 L-49.814688359787084,1589.0745781082255 L-49.853492890768834,1589.0404923554304 L-49.88906494812514,1589.0059803450906 L-49.92136611581849,1588.9710793484464 L-49.95036151020816,1588.935827056823 L-49.97601981772274,1588.9002615409272 L-49.99831332867724,1588.864421209732 L-50.017217967198185,1588.828344768997 L-50.03271331722431,1588.7920711794686 L-50.04478264455488,1588.755639614804 L-50.05341291492185,1588.7190894192652 L-50.05859480806615,1588.6824600652299 L-50.060322727803126,1588.645791110563 " />
			<path d="M-50.060322727803126,1588.645791110563 L-50.058638421278864,1588.6095877577616 L-50.053587274761384,1588.5734225159247 L-50.04517460555007,1588.5373334558979 L-50.03340926959096,1588.5013585683307 L-50.01830365215412,1588.465535723684 L-49.9998736547958,1588.4299026323652 L-49.97813867861899,1588.3944968050291 L-49.953121603850065,1588.359355513092 L-49.92484876575293,1588.3245157494955 L-49.89334992690611,1588.290014189766 L-49.85865824587198,1588.2558871534045 L-49.820810242290975,1588.222170565655 L-49.7798457584377,1588.188899919685 L-49.73580791727929,1588.1561102392236 L-49.688743077080225,1588.1238360416912 L-49.6387007826014,1588.0921113018637 " />
			<path d="M16.645461381871772,-23.514089375699825 L16.726710088232387,-23.560966060058057 L16.814456415434016,-23.606395951221977 L16.908488974888762,-23.65026960460458 L17.00858123392462,-23.692481324731993 L17.114492061522522,-23.73292941987312 L17.2259663092221,-23.771516447023927 L17.342735425796644,-23.808149446656184 L17.464518104216566,-23.84274016666511 L17.59102095934265,-23.87520527497641 L17.721939234716555,-23.905466560300553 L17.856957536745814,-23.93345112055062 L17.99575059451464,-23.959091538469817 L18.137984043390023,-23.98232604404553 L18.28331523053545,-24.00309866331873 L18.431394040391577,-24.02135935323012 L18.581863738135294,-24.037064122178258 L18.73436182908514,-24.050175135999172 L18.88852093198276,-24.06066080911218 L19.04396966404654,-24.068495880612307 L19.20033353566523,-24.07366147512605 L19.357235852576242,-24.076145148283768 L19.514298623355124,-24.075940916699277 L19.671143470029993,-24.073049272384356 L19.827392539627223,-24.06747718156344 L19.98266941445235,-24.059238067891368 L20.136600018913274,-24.048351780114643 L20.288813520701122,-24.03484454425404 L20.43894322415776,-24.018748900423844 L20.58662745367775,-24.000103624439856 L20.731510425016562,-23.978953634405052 L20.873243102406,-23.955349882497945 L21.011484039411886,-23.929349232224332 " />
			<path d="M16.64546138187161,1547.6388802787685 L16.726710088232224,1547.5920035944102 L16.814456415433852,1547.5465737032464 L16.9084889748886,1547.5027000498637 L17.008581233924456,1547.4604883297363 L17.11449206152236,1547.4200402345953 L17.225966309221935,1547.3814532074443 L17.34273542579648,1547.3448202078123 L17.464518104216403,1547.3102294878033 L17.591020959342487,1547.277764379492 L17.72193923471639,1547.2475030941678 L17.85695753674565,1547.2195185339178 L17.995750594514476,1547.1938781159986 L18.13798404338986,1547.1706436104228 L18.283315230535287,1547.1498709911496 L18.431394040391414,1547.1316103012382 L18.58186373813513,1547.11590553229 L18.73436182908498,1547.1027945184692 L18.888520931982598,1547.0923088453562 L19.043969664046376,1547.084473773856 L19.200333535665067,1547.0793081793424 L19.35723585257608,1547.0768245061847 L19.51429862335496,1547.077028737769 L19.67114347002983,1547.079920382084 L19.82739253962706,1547.085492472905 L19.982669414452186,1547.093731586577 L20.13660001891311,1547.1046178743538 L20.28881352070096,1547.1181251102144 L20.438943224157597,1547.1342207540445 L20.586627453677586,1547.1528660300285 L20.7315104250164,1547.1740160200634 L20.873243102405837,1547.1976197719705 L21.011484039411723,1547.223620422244 " />
			<path d="M21.01148403941191,-23.929349232224325 L48.44796733054483,-18.461761121318403 " />
			<path d="M21.011484039411748,1547.223620422244 L48.447967330544664,1552.69120853315 " />
			<path d="M48.44796733054483,-18.461761121318407 L48.62702525829849,-18.423302728824385 L48.79845344611302,-18.380825929152806 L48.961511558550704,-18.334514164014625 L49.11549540745794,-18.2845674369294 L49.25973999309557,-18.231201449483507 L49.39362237602865,-18.174646669794118 L49.516564367373334,-18.11514733720198 L49.62803502578247,-18.052960407491323 L49.67931617383877,-18.020942597511652 L49.72755295038644,-17.988354443192126 L49.772693262126566,-17.955231138104644 L49.81468835978692,-17.921608453757088 L49.85349289076867,-17.887522700961895 L49.88906494812497,-17.85301069062219 L49.92136611581833,-17.818109693977874 L49.950361510208,-17.782857402354526 L49.97601981772257,-17.747291886458694 L49.99831332867708,-17.711451555263423 L50.01721796719802,-17.675375114528492 L50.032713317224136,-17.639101525000147 L50.044782644554715,-17.602669960335433 L50.05341291492168,-17.56611976479662 L50.05859480806598,-17.52949041076138 L50.06032272780296,-17.492821456094582 " />
			<path d="M50.06032272780296,-17.49282145609457 L50.0586384212787,-17.456618103293092 L50.05358727476122,-17.42045286145619 L50.04517460554991,-17.384363801429355 L50.0334092695908,-17.348388913862117 L50.01830365215395,-17.312566069215624 L49.999873654795636,-17.27693297789673 L49.978138678618826,-17.241527150560547 L49.9531216038499,-17.206385858623314 L49.924848765752756,-17.171546095027082 L49.89334992690594,-17.13704453529756 L49.858658245871815,-17.10291749893608 L49.82081024229081,-17.069200911186403 L49.77984575843754,-17.03593026521647 L49.735807917279125,-17.003140584755087 L49.68874307708006,-16.970866387222703 L49.638700782601234,-16.93914164739524 " />
			<path d="M48.447967330544664,1552.69120853315 L48.627025258298325,1552.729666925644 L48.79845344611286,1552.7721437253156 L48.96151155855054,1552.818455490454 L49.11549540745778,1552.8684022175391 L49.25973999309541,1552.921768204985 L49.39362237602849,1552.9783229846744 L49.51656436737317,1553.0378223172665 L49.628035025782296,1553.1000092469772 L49.67931617383861,1553.1320270569568 L49.727552950386276,1553.1646152112764 L49.7726932621264,1553.1977385163639 L49.81468835978676,1553.2313612007115 L49.85349289076851,1553.2654469535066 L49.88906494812481,1553.2999589638464 L49.92136611581817,1553.3348599604906 L49.950361510207834,1553.370112252114 L49.97601981772241,1553.4056777680098 L49.998313328676915,1553.441518099205 L50.01721796719786,1553.47759453994 L50.03271331722397,1553.5138681294684 L50.04478264455455,1553.550299694133 L50.05341291492152,1553.5868498896718 L50.05859480806582,1553.6234792437072 L50.0603227278028,1553.660148198374 " />
			<path d="M50.0603227278028,1553.660148198374 L50.05863842127854,1553.6963515511754 L50.05358727476106,1553.7325167930123 L50.04517460554975,1553.7686058530392 L50.033409269590635,1553.8045807406063 L50.01830365215379,1553.840403585253 L49.99987365479547,1553.8760366765719 L49.97813867861866,1553.911442503908 L49.95312160384974,1553.946583795845 L49.9248487657526,1553.9814235594415 L49.893349926905785,1554.015925119171 L49.85865824587165,1554.0500521555325 L49.82081024229065,1554.083768743282 L49.779845758437375,1554.117039389252 L49.73580791727896,1554.1498290697134 L49.6887430770799,1554.1821032672458 L49.63870078260107,1554.2138280070733 " />
			<path d="M49.63870078260106,1554.213828007073 L-16.645461381871936,1594.6670590301683 " />
			<path d="M-16.645461381871936,1594.6670590301685 L-16.72671008823255,1594.7139357145268 L-16.81445641543418,1594.7593656056906 L-16.908488974888925,1594.8032392590733 L-17.008581233924783,1594.8454509792007 L-17.114492061522686,1594.8858990743418 L-17.22596630922226,1594.9244861014927 L-17.342735425796807,1594.9611191011247 L-17.46451810421673,1594.9957098211337 L-17.591020959342814,1595.028174929445 L-17.721939234716718,1595.0584362147692 L-17.85695753674598,1595.0864207750192 L-17.995750594514803,1595.1120611929384 L-18.13798404339019,1595.1352956985143 L-18.283315230535617,1595.1560683177875 L-18.431394040391744,1595.1743290076988 L-18.58186373813546,1595.190033776647 L-18.734361829085305,1595.2031447904678 L-18.888520931982924,1595.2136304635808 L-19.043969664046703,1595.221465535081 L-19.200333535665393,1595.2266311295946 L-19.35723585257641,1595.2291148027523 L-19.51429862335529,1595.228910571168 L-19.67114347003016,1595.226018926853 L-19.82739253962739,1595.2204468360321 L-19.982669414452516,1595.21220772236 L-20.136600018913445,1595.2013214345832 L-20.288813520701293,1595.1878141987227 L-20.438943224157928,1595.1717185548925 L-20.586627453677913,1595.1530732789086 L-20.73151042501673,1595.1319232888736 L-20.873243102406164,1595.1083195369665 L-21.011484039412064,1595.082318886693 " />
			<path d="M-48.44796733054499,1589.614730775787 L-21.011484039412075,1595.082318886693 " />
			<path d="M-1970.1975142647984,-399.28484021221163 L-2011.4803525342686,-374.4037332035439 " />
			<path d="M-1972.4104048322654,1172.0247940684994 L-2013.6932431017356,1196.905901077167 " />
			<path d="M-2011.4819210442215,-373.28997961955037 L-2011.5326072757873,-373.32191643619916 L-2011.5802780140073,-373.3544096358304 L-2011.6248823541218,-373.3874245208797 L-2011.6663726657962,-373.4209258367054 L-2011.7047046439825,-373.4548778092355 L-2011.7398373562303,-373.4892441831681 L-2011.7717332863958,-373.5239882606869 L-2011.8003583747031,-373.55907294064804 L-2011.825682054115,-373.59446075819847 L-2011.8476772829729,-373.6301139247826 L-2011.8663205738742,-373.66599436849424 L-2011.881592018752,-373.70206377473136 L-2011.893475310134,-373.73828362711015 L-2011.901957758557,-373.77461524859416 L-2011.9070303061164,-373.81101984279536 L-2011.9086875361388,-373.84745853540255 " />
			<path d="M-2011.9086875361388,-373.84745853540255 L-2011.9069276789667,-373.8838924156928 L-2011.9017526138468,-373.92028257808187 L-2011.8931678669255,-373.95659016366943 L-2011.8811826053454,-373.99277640173403 L-2011.865809627458,-374.02880265113396 L-2011.8470653491565,-374.06463044157 L-2011.8249697863462,-374.1002215146654 L-2011.7995465335707,-374.13553786482004 L-2011.7708227388166,-374.170541779794 L-2011.7388290745243,-374.20519588097847 L-2011.703599704834,-374.23946316331006 L-2011.6651722491044,-374.27330703478634 L-2011.6235877417407,-374.3066913555403 L-2011.5788905883767,-374.3395804764319 L-2011.531128518457,-374.3719392771157 L-2011.4803525342688,-374.4037332035439 " />
			<path d="M-2012.5209164157072,1198.4305993103576 L-2012.6988889136153,1198.3918302263653 L-2012.869240094132,1198.349093992515 L-2013.0312394700934,1198.3025738671215 L-2013.1841923679183,1198.2524693342996 L-2013.327442906454,1198.1989952485515 L-2013.4603768094792,1198.1423809134437 L-2013.5824240397942,1198.0828690983242 L-2013.693061243614,1198.0207149972982 L-2013.7439508590749,1197.9887299668387 L-2013.7918139947742,1197.956185134923 L-2013.8365993261755,1197.923115399984 L-2013.878258829129,1197.8895562233176 L-2013.9167478313693,1197.8555435910578 L-2013.952025060419,1197.821113975587 L-2013.984052687844,1197.7863042964264 L-2014.01279636982,1197.7511518806473 L-2014.0382252839586,1197.7156944228432 L-2014.0603121623587,1197.6799699447104 L-2014.079033320847,1197.6440167542758 L-2014.0943686843748,1197.6078734048187 L-2014.1063018085442,1197.5715786535297 L-2014.114819897243,1197.5351714199505 L-2014.119913816365,1197.4986907442394 L-2014.1215781036053,1197.4621757453083 " />
			<path d="M-2014.1215781036053,1197.4621757453083 L-2014.1198182464332,1197.4257418650182 L-2014.1146431813133,1197.389351702629 L-2014.106058434392,1197.3530441170415 L-2014.094073172812,1197.3168578789769 L-2014.0787001949245,1197.2808316295768 L-2014.059955916623,1197.245003839141 L-2014.0378603538127,1197.2094127660455 L-2014.0124371010372,1197.1740964158907 L-2013.983713306283,1197.1390925009168 L-2013.9517196419908,1197.1044383997323 L-2013.9164902723005,1197.0701711174008 L-2013.878062816571,1197.0363272459244 L-2013.8364783092072,1197.0029429251706 L-2013.7917811558432,1196.970053804279 L-2013.7440190859236,1196.937695003595 L-2013.6932431017353,1196.9059010771668 " />
			<path d="M-1970.1975142647989,-399.2848402122117 L-1970.1157000210171,-399.331461891013 L-1970.0274056988096,-399.37662028294545 L-1969.9328440069326,-399.4202065974874 L-1969.8322427527844,-399.4621158313895 L-1969.7258442935977,-399.5022470216364 L-1969.6139049525802,-399.54050348867565 L-1969.496694401409,-399.57679306932744 L-1969.3744950105686,-399.61102833881324 L-1969.2476011690949,-399.64312682137034 L-1969.1163185753662,-399.67301118894267 L-1968.9809635006502,-399.7006094474712 L-1968.8418620271775,-399.72585511033384 L-1968.6993492625813,-399.7486873585175 L-1968.5537685325946,-399.76905118713637 L-1968.405470553947,-399.78689753794373 L-1968.2548125894584,-399.80218341751726 L-1968.1021575873615,-399.8148720008342 L-1967.9478733069272,-399.82493271998607 L-1967.792331432501,-399.832341337819 L-1967.6359066780822,-399.8370800063239 L-1967.478975884605,-399.83913730963314 L-1967.3219171120968,-399.838508291523 L-1967.1651087288972,-399.83519446735306 L-1967.008928500136,-399.82920382041607 L-1966.8537526776643,-399.82055078270525 L-1966.69995509363,-399.8092562001463 L-1966.5479062598843,-399.7953472823779 L-1966.3979724753854,-399.7788575372013 L-1966.250514943753,-399.7598266898569 L-1966.1058889030965,-399.73830058732284 L-1965.9644427702153,-399.7143310878657 L-1965.8265173012333,-399.68797593610896 " />
			<path d="M-1972.410404832265,1172.0247940684992 L-1972.3285905884832,1171.9781723896979 L-1972.2402962662757,1171.9330139977656 L-1972.1457345743986,1171.8894276832236 L-1972.0451333202504,1171.8475184493216 L-1971.9387348610637,1171.8073872590746 L-1971.8267955200463,1171.7691307920352 L-1971.709584968875,1171.7328412113836 L-1971.5873855780346,1171.6986059418978 L-1971.460491736561,1171.6665074593407 L-1971.3292091428323,1171.6366230917683 L-1971.1938540681163,1171.6090248332398 L-1971.0547525946436,1171.583779170377 L-1970.9122398300474,1171.5609469221936 L-1970.7666591000607,1171.5405830935745 L-1970.618361121413,1171.5227367427672 L-1970.4677031569245,1171.5074508631938 L-1970.3150481548275,1171.4947622798768 L-1970.1607638743933,1171.484701560725 L-1970.005221999967,1171.4772929428918 L-1969.8487972455482,1171.472554274387 L-1969.691866452071,1171.4704969710779 L-1969.5348076795628,1171.471125989188 L-1969.3779992963632,1171.4744398133578 L-1969.2218190676022,1171.4804304602949 L-1969.0666432451303,1171.4890834980058 L-1968.912845661096,1171.5003780805646 L-1968.7607968273503,1171.514286998333 L-1968.6108630428514,1171.5307767435097 L-1968.463405511219,1171.549807590854 L-1968.3187794705625,1171.5713336933882 L-1968.1773333376814,1171.5953031928452 L-1968.0394078686993,1171.6216583446019 " />
			<path d="M-1965.8265173012333,-399.68797593610896 L-1938.456356781363,-394.15026104647234 " />
			<path d="M-1968.0394078686995,1171.6216583446023 L-1940.6692473488292,1177.1593732342387 " />
			<path d="M-1938.4563567813627,-394.15026104647234 L-1938.2783842834547,-394.11149196248 L-1938.108033102938,-394.0687557286297 L-1937.9460337269766,-394.0222356032362 L-1937.7930808291517,-393.9721310704143 L-1937.649830290616,-393.9186569846662 L-1937.5168963875908,-393.86204264955825 L-1937.3948491572758,-393.8025308344388 L-1937.284211953456,-393.74037673341286 L-1937.233322337995,-393.7083917029533 L-1937.1854592022958,-393.67584687103766 L-1937.1406738708945,-393.64277713609863 L-1937.099014367941,-393.6092179594323 L-1937.0605253657006,-393.5752053271724 L-1937.025248136651,-393.5407757117015 L-1936.993220509226,-393.50596603254104 L-1936.9644768272499,-393.47081361676186 L-1936.9390479131114,-393.43535615895786 L-1936.9169610347112,-393.39963168082505 L-1936.898239876223,-393.36367849039044 L-1936.8829045126952,-393.3275351409334 L-1936.8709713885257,-393.2912403896445 L-1936.862453299827,-393.2548331560653 L-1936.857359380705,-393.21835248035416 L-1936.8556950934646,-393.1818374814229 " />
			<path d="M-1936.8556950934646,-393.1818374814229 L-1936.8572089100198,-393.1480845845535 L-1936.8616538975068,-393.1143667496447 L-1936.8690259824261,-393.0807148765755 L-1936.8793184088122,-393.04715980477556 L-1936.8925217444246,-393.01373228496357 L-1936.908623889392,-392.9804629509663 L-1936.9276100873,-392.9473822916449 L-1936.949462938716,-392.91452062295446 L-1936.9741624171322,-392.8819080601614 L-1937.0016858873207,-392.8495744902452 L-1937.0320081260757,-392.81754954450906 L-1937.0651013453282,-392.78586257142547 L-1937.1009352176134,-392.75454260973993 L-1937.139476903862,-392.7236183618595 L-1937.2245399867945,-392.66306997795994 " />
			<path d="M-1940.6692473488295,1177.1593732342387 L-1940.4912748509214,1177.198142318231 L-1940.3209236704047,1177.2408785520813 L-1940.1589242944433,1177.2873986774748 L-1940.0059713966184,1177.3375032102967 L-1939.8627208580826,1177.3909772960449 L-1939.7297869550575,1177.4475916311526 L-1939.6077397247425,1177.5071034462721 L-1939.4971025209227,1177.569257547298 L-1939.4462129054618,1177.6012425777576 L-1939.3983497697625,1177.6337874096732 L-1939.3535644383612,1177.6668571446123 L-1939.3119049354077,1177.7004163212787 L-1939.2734159331674,1177.7344289535386 L-1939.2381387041178,1177.7688585690094 L-1939.2061110766927,1177.80366824817 L-1939.1773673947166,1177.838820663949 L-1939.151938480578,1177.8742781217532 L-1939.129851602178,1177.910002599886 L-1939.1111304436897,1177.9459557903206 L-1939.095795080162,1177.9820991397776 L-1939.0838619559925,1178.0183938910666 L-1939.0753438672937,1178.0548011246458 L-1939.0702499481717,1178.091281800357 L-1939.0685856609314,1178.127796799288 " />
			<path d="M-1939.0685856609314,1178.127796799288 L-1939.0703455181035,1178.1642306795782 L-1939.0755205832234,1178.2006208419673 L-1939.0841053301447,1178.2369284275549 L-1939.0960905917248,1178.2731146656195 L-1939.1114635696122,1178.3091409150195 L-1939.1302078479137,1178.3449687054554 L-1939.152303410724,1178.3805597785508 L-1939.1777266634995,1178.4158761287056 L-1939.2064504582536,1178.4508800436795 L-1939.2384441225458,1178.485534144864 L-1939.2736734922362,1178.5198014271955 L-1939.3121009479657,1178.5536452986719 L-1939.3536854553295,1178.5870296194257 L-1939.3983826086935,1178.6199187403174 L-1939.446144678613,1178.6522775410012 L-1939.4969206628014,1178.6840714674295 " />
			<path d="M-1939.4969206628011,1178.6840714674295 L-1980.7797589322713,1203.5651784760971 " />
			<path d="M-1980.7797589322715,1203.5651784760971 L-1980.8615731760533,1203.6118001548984 L-1980.9498674982608,1203.6569585468308 L-1981.0444291901379,1203.7005448613727 L-1981.145030444286,1203.7424540952748 L-1981.2514289034727,1203.7825852855217 L-1981.3633682444902,1203.8208417525611 L-1981.4805787956614,1203.8571313332127 L-1981.6027781865018,1203.8913666026986 L-1981.7296720279755,1203.9234650852557 L-1981.8609546217042,1203.953349452828 L-1981.9963096964202,1203.9809477113565 L-1982.135411169893,1204.0061933742193 L-1982.277923934489,1204.0290256224027 L-1982.4235046644758,1204.0493894510219 L-1982.5718026431234,1204.0672358018292 L-1982.722460607612,1204.0825216814026 L-1982.875115609709,1204.0952102647195 L-1983.0293998901432,1204.1052709838714 L-1983.1849417645694,1204.1126796017045 L-1983.3413665189883,1204.1174182702093 L-1983.4982973124654,1204.1194755735185 L-1983.6553560849736,1204.1188465554083 L-1983.8121644681733,1204.1155327312385 L-1983.9683446969343,1204.1095420843014 L-1984.1235205194062,1204.1008890465905 L-1984.2773181034404,1204.0895944640317 L-1984.4293669371862,1204.0756855462632 L-1984.579300721685,1204.0591958010866 L-1984.7267582533175,1204.0401649537423 L-1984.8713842939742,1204.0186388512082 L-1985.012830426855,1203.994669351751 L-1985.1507558958372,1203.9683141999942 " />
			<path d="M-2012.5209164157072,1198.4305993103578 L-1985.150755895837,1203.9683141999942 " />
			<path d="M-8.65762747040564,-8.0715773600319 L-8.577308753747163,-8.116755574266078 L-8.497195729960815,-8.154137475246568 L-8.417493566373057,-8.18362732891766 L-8.338406378108294,-8.205149612547228 L-8.26013670535546,-8.21864920813843 L-8.182884994667974,-8.224091543585452 L-8.14470281570768,-8.223786075860744 L-8.106849085625434,-8.221462681211737 L-8.069348043901027,-8.21712284741461 L-8.032223704171722,-8.210769353464014 " />
			<path d="M-8.032223704171715,-8.210769353464013 L-7.9794825083056145,-8.19809352681465 L-7.927641432170057,-8.181268985536708 L-7.876769285844146,-8.160318061304263 L-7.826933593319932,-8.13526856285242 L-7.778200502875969,-8.106153739066015 L-7.730634699276894,-8.073012234847445 L-7.6842993179155705,-8.035888039822257 L-7.639255861011751,-7.994830429950493 L-7.595564115978501,-7.949893902121372 L-7.553282076064727,-7.90113810181807 L-7.512465863379151,-7.848627743948644 L-7.473169654397897,-7.792432526948158 L-7.435445608054577,-7.7326270402660455 L-7.399343796508305,-7.669290665361493 L-7.3649121386815555,-7.6025074703382565 L-7.332196336656062,-7.532366098358762 L-7.301239815011194,-7.458959649985616 L-7.272083663185327,-7.382385559606675 L-7.244766580936705,-7.3027454661077265 L-7.219324826976187,-7.220145077964401 L-7.195792170840079,-7.134694032932428 L-7.174199848066895,-7.046505752522442 L-7.154576518737571,-6.955697291452501 L-7.136948229434166,-6.862389182278162 L-7.121338378667511,-6.766705275406322 L-7.107767685819725,-6.6687725747051765 L-7.096254163642819,-6.568721068928518 L-7.086813094349872,-6.466683559178099 L-7.0794570093305325,-6.3627954826331 L-7.074195672517763,-6.257194732780651 L-7.071036067427903,-6.150021476386035 L-7.069982387891258,-6.041417967445533 " />
			<path d="M-7.069982387891256,-6.041417967445508 L-7.0699776515525965,23.57468523912317 " />
			<path d="M-1936.9140143310283,-390.62359345352115 L-1936.9140095946896,-361.00749024695244 " />
			<path d="M-7.069977651552595,23.574685239123166 L-7.071890015473101,23.72301118528321 L-7.077622547251012,23.873314061772355 L-7.087161436715167,24.02523177579617 L-7.100483703845336,24.178398344275145 L-7.117557254133112,24.33244477553001 L-7.138340955900383,24.486999958215 L-7.162784739389156,24.64169155535759 L-7.190829717383984,24.79614690135088 L-7.222408327076426,24.94999389973768 L-7.257444492829776,25.10286191962347 L-7.295853809451926,25.254382688558696 L-7.337543745534877,25.404191179739335 L-7.382413866370995,25.55192649138846 L-7.430356075909029,25.69723271620022 L-7.48125487716696,25.83975979875172 L-7.534987650474349,25.979164378817202 L-7.591424948873865,26.115110618552887 L-7.650430809970337,26.247271011559768 L-7.711863083476083,26.375327171875202 L-7.775573773663397,26.498970600992607 L-7.841409395899218,26.61790343106134 L-7.90921134640306,26.73183914247649 L-7.9788162843374115,26.840503254129658 L-8.050056525310115,26.943633984658028 L-8.12276044534076,27.040982883098568 L-8.196752894317882,27.132315427428182 L-8.27185561795092,27.21741158954779 L-8.347887687200421,27.296066365349304 L-8.42466593415194,27.368090268588475 L-8.502005393283593,27.433309787373847 L-8.579719747064194,27.491567802172117 L-8.657621774808497,27.542723964322825 " />
			<path d="M-8.657621774808518,27.542723964322832 L-49.63869808678142,52.553479100862845 " />
			<path d="M-49.63869808678142,52.55347910086284 L-49.71901680343989,52.598657315097014 L-49.79912982722624,52.636039216077506 L-49.878831990814,52.6655290697486 L-49.95791917907876,52.687051353378166 L-50.03618885183159,52.700550948969365 L-50.11344056251908,52.70599328441639 L-50.15162274147937,52.70568781669168 L-50.18947647156162,52.703364422042675 L-50.22697751328603,52.69902458824554 L-50.264101853015326,52.69267109429495 " />
			<path d="M-50.26410185301534,52.69267109429495 L-50.300825718331865,52.68430800862451 L-50.337125593260055,52.67394068650161 L-50.37297823332486,52.661575766598176 L-50.4083606804362,52.64722116673962 L-50.47762468337722,52.612580962989526 L-50.54474021881092,52.57010878789325 L-50.60953540563336,52.51991341156332 L-50.67184430509176,52.46212338302557 L-50.731507345749264,52.39688670100841 L-50.78837173214314,52.324370434922095 " />
			<path d="M-8.657624474326788,372.8139549398882 L-8.577305741867777,372.7687767171361 L-8.497192703633845,372.73139481060605 L-8.4174905270724,372.70190495440715 L-8.338403327424599,372.68038267130885 L-8.260133644991397,372.6668830793293 L-8.182881926433025,372.66144075057906 L-8.144699744247674,372.66174622280624 L-8.10684601143019,372.6640696227234 L-8.06934496747203,372.6684094625504 L-8.032220626021717,372.67476296328766 " />
			<path d="M-8.03222062602171,372.67476296328766 L-7.979479443019843,372.68743879695757 L-7.927638380349085,372.7042633445086 L-7.876766248060887,372.7252142742615 L-7.826930570119073,372.7502637774777 L-7.778197494773439,372.7793786052709 L-7.7306317067593895,372.8125201127388 L-7.684296341440129,372.8496443102579 L-7.639252901005378,372.8907019218717 L-7.5955611728378445,372.9356384506965 L-7.553279150155806,372.9843942512562 L-7.512462955037138,373.03690460865175 L-7.4731667639269475,373.0930998244585 L-7.435442735727713,373.15290530923926 L-7.39934094256735,373.2162416815486 L-7.36490930333712,373.28302487329813 L-7.332193520087576,373.3531662413425 L-7.301237017366995,373.4265726851374 L-7.272080884582796,373.50314677031497 L-7.2447638214624455,373.58278685801076 L-7.2193220866862635,373.6653872397719 L-7.195789449760291,373.7508382778667 L-7.174197146193103,373.8390265508098 L-7.154573836036076,373.9298350039098 L-7.136945565842114,374.02314310463873 L-7.12133573409336,374.11882700261856 L-7.107765060143746,374.21675969401093 L-7.096251556717638,374.3168111900929 L-7.086810506001055,374.4188486897944 L-7.0794544393572085,374.5227367559689 L-7.074193120693282,374.6283374951626 L-7.071033533500534,374.7355107406443 L-7.069979871584919,374.84411423845245 " />
			<path d="M-1937.8762526260573,-11.90777166046505 L-1937.8235114430554,-11.895095826795146 L-1937.7716703803846,-11.878271279244146 L-1937.7207982480963,-11.857320349491282 L-1937.6709625701546,-11.832270846275035 L-1937.622229494809,-11.803156018481832 L-1937.574663706795,-11.770014511013908 L-1937.5283283414756,-11.732890313494863 L-1937.4832849010409,-11.69183270188105 L-1937.4395931728734,-11.646896173056255 L-1937.3973111501914,-11.598140372496498 L-1937.3564949550728,-11.54563001510098 L-1937.3171987639626,-11.489434799294232 L-1937.2794747357632,-11.429629314513502 L-1937.243372942603,-11.366292942204172 L-1937.2089413033727,-11.299509750454602 L-1937.1762255201231,-11.229368382410282 L-1937.1452690174026,-11.15596193861536 L-1937.1161128846184,-11.079387853437773 L-1937.088795821498,-10.999747765741953 L-1937.0633540867218,-10.917147383980812 L-1937.039821449796,-10.831696345886025 L-1937.0182291462286,-10.743508072942898 L-1936.9986058360716,-10.652699619842945 L-1936.9809775658778,-10.559391519114014 L-1936.965367734129,-10.463707621134192 L-1936.9517970601794,-10.365774929741825 L-1936.9402835567532,-10.265723433659872 L-1936.9308425060367,-10.163685933958346 L-1936.9234864393927,-10.059797867783844 L-1936.9182251207287,-9.954197128590133 L-1936.915065533536,-9.847023883108427 L-1936.9140118716205,-9.738420385300305 " />
			<path d="M-7.069979871584918,374.84411423845245 L-7.069979871584918,404.46021650585953 " />
			<path d="M-1936.9140118716205,-9.738420385300277 L-1936.9140118716205,19.87768188210679 " />
			<path d="M-7.06997987158492,404.46021650585953 L-7.071892259039544,404.6085424473517 L-7.077624814294532,404.7588453191816 L-7.0871637271221655,404.910763028566 L-7.100486017445929,405.06392959243664 L-7.117559590701539,405.21797601912533 L-7.138343315155554,405.37253119729723 L-7.162787120995326,405.5272227899908 L-7.190832120951562,405.6816781316097 L-7.222410752162915,405.8355251257075 L-7.257446938940836,405.9883931413998 L-7.29585627604257,406.1399139062473 L-7.337546232010777,406.28972239345575 L-7.3824163720899225,406.43745770125776 L-7.430358600182394,406.58276392235683 L-7.481257419261473,406.72529100133903 L-7.53499020961379,406.86469557798705 L-7.591427524240949,407.0006418144655 L-7.650433400708687,407.13280220438315 L-7.71186568869229,407.26085836178476 L-7.7755763924291745,407.38450178817084 L-7.841412027253637,407.50343461569736 L-7.909213989354864,407.6173703247654 L-7.9788189378674055,407.7260344342723 L-8.05005918837362,407.8291651628604 L-8.12276311687013,407.9265140595714 L-8.196755573225076,408.01784660238627 L-8.271858303130122,408.1029427632097 L-8.347890377530709,408.18159753793657 L-8.424668628499978,408.25362144032533 L-8.502008090506367,408.31884095848653 L-8.579722446011765,408.3770989728884 L-8.657624474326774,408.42825513487145 " />
			<path d="M-8.657624474326788,408.4282551348714 L-49.63870078260126,433.43901024346155 " />
			<path d="M-49.63870078260126,433.43901024346167 L-49.719019515060275,433.48418846621377 L-49.79913255329421,433.52157037274384 L-49.87883472985565,433.55106022894273 L-49.95792192950345,433.57258251204104 L-50.03619161193665,433.5860821040206 L-50.11344333049502,433.5915244327708 L-50.151625512680376,433.59121896054364 L-50.18947924549786,433.5888955606265 L-50.22698028945602,433.5845557207995 L-50.264104630906324,433.5782022200622 " />
			<path d="M-50.26410463090634,433.5782022200622 L-50.300828497420305,433.56983912685433 L-50.337128373011964,433.55947179645034 L-50.37298101319633,433.54710686753003 L-50.40836345987387,433.532752257928 L-50.47762746025164,433.4981120325518 L-50.544742990807094,433.4556398330553 L-50.60953817037843,433.405444429658 L-50.67184706016356,433.34765437150776 L-50.73151008868509,433.2824176574693 L-50.78837446044885,433.20990135710326 " />
			<path d="M-8.657624474326823,753.6995233409715 L-8.577305741867812,753.6543451182193 L-8.49719270363388,753.6169632116893 L-8.417490527072436,753.5874733554904 L-8.338403327424635,753.5659510723921 L-8.260133644991432,753.5524514804125 L-8.18288192643306,753.5470091516623 L-8.14469974424771,753.5473146238894 L-8.106846011430225,753.5496380238066 L-8.069344967472066,753.5539778636337 L-8.032220626021752,753.5603313643709 " />
			<path d="M-8.032220626021745,753.5603313643709 L-7.979479443019878,753.5730071980408 L-7.92763838034912,753.5898317455918 L-7.876766248060923,753.6107826753447 L-7.826930570119108,753.6358321785609 L-7.778197494773474,753.6649470063542 L-7.730631706759425,753.6980885138221 L-7.684296341440165,753.7352127113411 L-7.639252901005413,753.7762703229549 L-7.59556117283788,753.8212068517797 L-7.553279150155841,753.8699626523395 L-7.512462955037173,753.922473009735 L-7.473166763926983,753.9786682255417 L-7.435442735727748,754.0384737103225 L-7.3993409425673855,754.1018100826318 L-7.364909303337155,754.1685932743814 L-7.332193520087611,754.2387346424257 L-7.301237017367031,754.3121410862205 L-7.272080884582832,754.3887151713982 L-7.244763821462481,754.468355259094 L-7.219322086686299,754.5509556408551 L-7.195789449760326,754.6364066789499 L-7.174197146193139,754.7245949518931 L-7.1545738360361115,754.815403404993 L-7.13694556584215,754.908711505722 L-7.121335734093395,755.0043954037018 L-7.107765060143781,755.1023280950941 L-7.096251556717673,755.202379591176 L-7.086810506001091,755.3044170908776 L-7.079454439357244,755.4083051570522 L-7.074193120693318,755.5139058962458 L-7.07103353350057,755.6210791417275 L-7.0699798715849544,755.7296826395357 " />
			<path d="M-1937.9290400305829,368.96938020473294 L-1937.8762526260573,368.97779674061815 " />
			<path d="M-1937.8762526260573,368.97779674061815 L-1937.8235114430554,368.99047257428805 L-1937.7716703803846,369.0072971218391 L-1937.7207982480963,369.02824805159196 L-1937.6709625701546,369.0532975548082 L-1937.622229494809,369.0824123826014 L-1937.574663706795,369.1155538900693 L-1937.5283283414756,369.15267808758836 L-1937.4832849010409,369.1937356992022 L-1937.4395931728734,369.238672228027 L-1937.3973111501914,369.2874280285867 L-1937.3564949550728,369.33993838598224 L-1937.3171987639626,369.39613360178896 L-1937.2794747357632,369.45593908656974 L-1937.243372942603,369.51927545887906 L-1937.2089413033727,369.5860586506286 L-1937.1762255201231,369.65620001867296 L-1937.1452690174026,369.72960646246787 L-1937.1161128846184,369.80618054764545 L-1937.088795821498,369.88582063534125 L-1937.0633540867218,369.9684210171024 L-1937.039821449796,370.0538720551972 L-1937.0182291462286,370.1420603281403 L-1936.9986058360716,370.23286878124026 L-1936.9809775658778,370.3261768819692 L-1936.965367734129,370.42186077994904 L-1936.9517970601794,370.5197934713414 L-1936.9402835567532,370.6198449674234 L-1936.9308425060367,370.7218824671249 L-1936.9234864393927,370.82577053329936 L-1936.9182251207287,370.9313712724931 L-1936.915065533536,371.0385445179748 L-1936.9140118716205,371.14714801578293 " />
			<path d="M-7.069979871584955,755.7296826395356 L-7.069979871584955,785.3457849069426 " />
			<path d="M-1936.9140118716205,371.1471480157828 L-1936.9140118716205,400.7632502831899 " />
			<path d="M-7.069979871584955,785.3457849069426 L-7.071892259039579,785.4941108484348 L-7.077624814294568,785.6444137202647 L-7.087163727122201,785.7963314296492 L-7.100486017445965,785.9494979935198 L-7.117559590701575,786.1035444202084 L-7.1383433151555895,786.2580995983803 L-7.162787120995362,786.4127911910739 L-7.1908321209515975,786.5672465326928 L-7.222410752162951,786.7210935267906 L-7.257446938940872,786.8739615424829 L-7.295856276042605,787.0254823073304 L-7.337546232010813,787.1752907945388 L-7.382416372089958,787.3230261023409 L-7.430358600182429,787.46833232344 L-7.4812574192615084,787.6108594024221 L-7.5349902096138255,787.7502639790702 L-7.591427524240984,787.8862102155485 L-7.650433400708723,788.0183706054662 L-7.711865688692326,788.1464267628679 L-7.77557639242921,788.2700701892539 L-7.841412027253672,788.3890030167804 L-7.9092139893549,788.5029387258485 L-7.978818937867441,788.6116028353554 L-8.050059188373655,788.7147335639436 L-8.122763116870166,788.8120824606546 L-8.196755573225111,788.9034150034694 L-8.271858303130157,788.9885111642927 L-8.347890377530744,789.0671659390197 L-8.424668628500013,789.1391898414084 L-8.502008090506402,789.2044093595697 L-8.5797224460118,789.2626673739716 L-8.65762447432681,789.3138235359545 " />
			<path d="M-1936.9140118716205,400.7632502831899 L-1936.9151943923032,400.8797037570773 L-1936.918740192804,400.9974271405543 L-1936.9246439911074,401.1162450664945 L-1936.9328969925948,401.235980537282 L-1936.9434869031488,401.35645518847616 L-1936.9563979474651,401.4774895545134 L-1936.9716108925531,401.5989033360484 L-1936.989103076386,401.7205156685382 L-1937.00884844166,401.84214539166743 L-1937.030817574609,401.9636113192147 L-1937.0549777488238,402.0847325089574 L-1937.0812929740002,402.20532853221306 L-1937.1097240495544,402.3252197426156 L-1937.1402286230164,402.44422754372636 L-1937.172761253122,402.5621746550809 L-1937.207273477504,402.6788853762759 L-1937.2437138848838,402.7941858487015 L-1937.2820281916581,402.9079043145309 L-1937.3221593227606,403.01987137258 L-1937.3640474966855,403.1299202306565 L-1937.4076303145407,403.2378869540227 L-1937.4528428530011,403.3436107096015 L-1937.4996177610212,403.44693400556196 L-1937.5478853601655,403.54770292592787 L-1937.5975737484046,403.6457673598593 L-1937.6486089072248,403.7409812252655 L-1937.7009148118905,403.83320268641717 L-1937.7544135446938,403.9222943652323 L-1937.8090254110255,404.0081235459221 L-1937.8646690580924,404.0905623726918 L-1937.9212615961053,404.1694880402012 L-1937.978718721755,404.24478297650245 " />
			<path d="M-8.657624474326827,789.3138235359546 L-49.638700782601305,814.3245786445449 " />
			<path d="M-49.638700782601305,814.3245786445447 L-49.71901951506032,814.3697568672968 L-49.79913255329425,814.4071387738269 L-49.87883472985569,814.4366286300258 L-49.95792192950349,814.4581509131241 L-50.036191611936694,814.4716505051036 L-50.113443330495066,814.4770928338538 L-50.15162551268042,814.4767873616267 L-50.1894792454979,814.4744639617096 L-50.226980289456066,814.4701241218825 L-50.26410463090637,814.4637706211453 " />
			<path d="M-50.26410463090638,814.4637706211453 L-50.30082849742034,814.4554075279374 L-50.337128373012,814.4450401975333 L-50.37298101319636,814.4326752686131 L-50.4083634598739,814.418320659011 L-50.47762746025166,814.3836804336348 L-50.54474299080711,814.3412082341383 L-50.60953817037844,814.2910128307411 L-50.67184706016356,814.2332227725908 L-50.731510088685084,814.1679860585524 L-50.78837446044884,814.0954697581864 " />
			<path d="M-8.65762447432687,1134.5850917420544 L-8.577305741867859,1134.5399135193024 L-8.497192703633926,1134.5025316127724 L-8.417490527072482,1134.4730417565734 L-8.33840332742468,1134.4515194734752 L-8.260133644991479,1134.4380198814954 L-8.182881926433106,1134.4325775527452 L-8.144699744247756,1134.4328830249724 L-8.106846011430271,1134.4352064248897 L-8.069344967472112,1134.4395462647167 L-8.032220626021799,1134.445899765454 " />
			<path d="M-8.032220626021791,1134.445899765454 L-7.979479443019924,1134.4585755991238 L-7.927638380349166,1134.4754001466747 L-7.876766248060969,1134.4963510764276 L-7.8269305701191545,1134.521400579644 L-7.77819749477352,1134.5505154074372 L-7.730631706759471,1134.583656914905 L-7.684296341440211,1134.620781112424 L-7.6392529010054595,1134.6618387240378 L-7.595561172837926,1134.7067752528626 L-7.553279150155888,1134.7555310534224 L-7.512462955037219,1134.808041410818 L-7.473166763927029,1134.8642366266247 L-7.435442735727794,1134.9240421114055 L-7.399340942567432,1134.9873784837148 L-7.3649093033372015,1135.0541616754645 L-7.332193520087658,1135.1243030435087 L-7.301237017367077,1135.1977094873037 L-7.272080884582878,1135.2742835724812 L-7.244763821462527,1135.353923660177 L-7.219322086686345,1135.4365240419381 L-7.1957894497603725,1135.521975080033 L-7.174197146193185,1135.610163352976 L-7.154573836036158,1135.700971806076 L-7.136945565842196,1135.7942799068048 L-7.121335734093441,1135.8899638047847 L-7.107765060143827,1135.9878964961772 L-7.09625155671772,1136.0879479922592 L-7.086810506001137,1136.1899854919607 L-7.07945443935729,1136.2938735581351 L-7.074193120693364,1136.3994742973289 L-7.071033533500616,1136.5066475428105 L-7.069979871585001,1136.6152510406187 " />
			<path d="M-1938.4656228592455,749.9813383479034 L-1938.38986390856,749.9417743271658 L-1938.314360061768,749.9091927720549 L-1938.2392836140937,749.8836680317147 L-1938.164805885463,749.865258352063 L-1938.0910968295611,749.8540057428788 L-1938.0183246460085,749.8499358819374 L-1937.9466553965387,749.8530580564162 L-1937.8762526260573,749.8633651417013 " />
			<path d="M-1937.8762526260573,749.8633651417013 L-1937.8235114430554,749.8760409753712 L-1937.7716703803846,749.8928655229222 L-1937.7207982480963,749.9138164526751 L-1937.6709625701546,749.9388659558913 L-1937.622229494809,749.9679807836845 L-1937.574663706795,750.0011222911525 L-1937.5283283414756,750.0382464886715 L-1937.4832849010409,750.0793041002853 L-1937.4395931728734,750.1242406291101 L-1937.3973111501914,750.1729964296699 L-1937.3564949550728,750.2255067870653 L-1937.3171987639626,750.2817020028721 L-1937.2794747357632,750.3415074876528 L-1937.243372942603,750.4048438599622 L-1937.2089413033727,750.4716270517117 L-1937.1762255201231,750.5417684197561 L-1937.1452690174026,750.6151748635509 L-1937.1161128846184,750.6917489487286 L-1937.088795821498,750.7713890364244 L-1937.0633540867218,750.8539894181855 L-1937.039821449796,750.9394404562803 L-1937.0182291462286,751.0276287292235 L-1936.9986058360716,751.1184371823234 L-1936.9809775658778,751.2117452830523 L-1936.965367734129,751.3074291810321 L-1936.9517970601794,751.4053618724245 L-1936.9402835567532,751.5054133685064 L-1936.9308425060367,751.6074508682079 L-1936.9234864393927,751.7113389343825 L-1936.9182251207287,751.8169396735761 L-1936.915065533536,751.9241129190578 L-1936.9140118716205,752.032716416866 " />
			<path d="M-7.0699798715850015,1136.6152510406187 L-7.0699798715850015,1166.2313533080255 " />
			<path d="M-1936.9140118716205,752.0327164168659 L-1936.9140118716205,781.648818684273 " />
			<path d="M-7.0699798715850015,1166.2313533080255 L-7.071892259039625,1166.3796792495177 L-7.077624814294614,1166.5299821213475 L-7.087163727122247,1166.681899830732 L-7.100486017446011,1166.8350663946026 L-7.117559590701621,1166.9891128212912 L-7.138343315155636,1167.1436679994633 L-7.162787120995408,1167.2983595921567 L-7.190832120951644,1167.4528149337757 L-7.222410752162997,1167.6066619278736 L-7.257446938940918,1167.759529943566 L-7.2958562760426515,1167.9110507084133 L-7.337546232010859,1168.0608591956218 L-7.382416372090004,1168.2085945034237 L-7.430358600182475,1168.3539007245229 L-7.481257419261555,1168.496427803505 L-7.534990209613872,1168.635832380153 L-7.5914275242410305,1168.7717786166315 L-7.650433400708769,1168.903939006549 L-7.711865688692372,1169.0319951639508 L-7.775576392429256,1169.1556385903368 L-7.841412027253718,1169.2745714178634 L-7.909213989354946,1169.3885071269315 L-7.978818937867487,1169.4971712364384 L-8.050059188373702,1169.6003019650263 L-8.122763116870212,1169.6976508617374 L-8.196755573225158,1169.7889834045523 L-8.271858303130204,1169.8740795653757 L-8.34789037753079,1169.9527343401026 L-8.42466862850006,1170.0247582424913 L-8.502008090506449,1170.0899777606526 L-8.579722446011846,1170.1482357750544 L-8.657624474326855,1170.1993919370375 " />
			<path d="M-1936.9140118716205,781.6488186842729 L-1936.9159242590752,781.7971446257651 L-1936.9216568143302,781.9474474975949 L-1936.9311957271577,782.0993652069794 L-1936.9445180174814,782.25253177085 L-1936.961591590737,782.4065781975387 L-1936.9823753151911,782.5611333757106 L-1937.006819121031,782.7158249684041 L-1937.034864120987,782.8702803100231 L-1937.0664427521986,783.0241273041208 L-1937.1014789389765,783.1769953198132 L-1937.1398882760782,783.3285160846607 L-1937.1815782320464,783.478324571869 L-1937.2264483721256,783.6260598796712 L-1937.2743906002179,783.7713661007703 L-1937.325289419297,783.9138931797523 L-1937.3790222096493,784.0532977564004 L-1937.4354595242764,784.1892439928788 L-1937.4944654007443,784.3214043827965 L-1937.5558976887278,784.4494605401982 L-1937.6196083924647,784.5731039665842 L-1937.6854440272891,784.6920367941107 L-1937.7532459893905,784.8059725031787 L-1937.822850937903,784.9146366126856 L-1937.8940911884092,785.0177673412738 L-1937.9667951169056,785.1151162379848 L-1938.0407875732606,785.2064487807996 L-1938.1158903031658,785.291544941623 L-1938.1919223775662,785.3701997163499 L-1938.2687006285355,785.4422236187387 L-1938.346040090542,785.5074431369 L-1938.4237544460473,785.5657011513018 L-1938.5016564743623,785.6168573132848 " />
			<path d="M-8.65762447432687,1170.1993919370375 L-49.63870078260135,1195.2101470456278 " />
			<path d="M-1938.501656474362,785.6168573132849 L-1938.5158208797254,785.6255018513427 " />
			<path d="M-49.63870078260135,1195.2101470456278 L-49.71901951506036,1195.2553252683797 L-49.79913255329429,1195.2927071749098 L-49.87883472985573,1195.3221970311088 L-49.957921929503534,1195.343719314207 L-50.03619161193674,1195.3572189061867 L-50.11344333049511,1195.362661234937 L-50.15162551268046,1195.3623557627097 L-50.18947924549794,1195.3600323627925 L-50.22698028945611,1195.3556925229655 L-50.26410463090641,1195.3493390222282 " />
			<path d="M-50.264104630906424,1195.3493390222282 L-50.30082849742039,1195.3409759290205 L-50.33712837301206,1195.3306085986164 L-50.37298101319642,1195.3182436696961 L-50.40836345987397,1195.303889060094 L-50.47762746025175,1195.2692488347177 L-50.54474299080721,1195.2267766352213 L-50.609538170378556,1195.176581231824 L-50.671847060163685,1195.1187911736738 L-50.73151008868522,1195.0535544596353 L-50.788374460448985,1194.9810381592692 " />
			<path d="M-1938.5016539799858,1142.884113696247 L-1939.0193966363097,1143.2000920928988 " />
			<path d="M-8.65762197997236,1527.4669653329795 L-8.577303233501835,1527.4217871026365 L-8.497190182449833,1527.3844051911465 L-8.417487994370989,1527.3549153326658 L-8.338400784609965,1527.333393049997 L-8.260131093567063,1527.3198934611773 L-8.182879367997248,1527.314451138322 L-8.144697182933763,1527.3147566145194 L-8.106843447670924,1527.3170800190858 L-8.069342401710552,1527.3214198642372 L-8.032218058711157,1527.32777337097 " />
			<path d="M-8.03221805871115,1527.32777337097 L-7.979476887072822,1527.3404492108343 L-7.9276358362952895,1527.357273763918 L-7.876763716405552,1527.3782246985375 L-7.826928051342471,1527.4032742059508 L-7.7781949893304185,1527.4323890372702 L-7.730629215078956,1527.4655305475937 L-7.684293863925067,1527.5026547472999 L-7.639250438031925,1527.543712360435 L-7.595558724755406,1527.5886488901206 L-7.553276717286722,1527.6374046908868 L-7.512460537676483,1527.6899150478425 L-7.473164362342391,1527.7461102625723 L-7.435440350159416,1527.8059157456498 L-7.399338573227907,1527.869252115642 L-7.364906950411549,1527.936035304474 L-7.332191183733354,1528.0061766690155 L-7.3012346977141345,1528.079583108739 L-7.2720785817339655,1528.1561571892937 L-7.2447615354931365,1528.2357972718344 L-7.219319817644997,1528.3183976479284 L-7.195787197668863,1528.403848679865 L-7.174194911046881,1528.4920369461818 L-7.154571617804324,1528.5828453922106 L-7.136943364468365,1528.6761534854481 L-7.121333549495825,1528.7718373755417 L-7.107762892215758,1528.8697700586797 L-7.0962494053281375,1528.9698215461665 L-7.086808370995104,1529.07185903696 L-7.079452320556546,1529.1757470939426 L-7.074191017896905,1529.28134782369 L-7.07103144648532,1529.3885210595015 L-7.069977800106269,1529.4971245474458 " />
			<path d="M-1938.5016539799858,1142.884113696247 L-1938.4213352335153,1142.838935465904 L-1938.3412221824633,1142.8015535544139 L-1938.2615199943843,1142.7720636959332 L-1938.1824327846234,1142.7505414132645 L-1938.1041630935804,1142.7370418244448 L-1938.0269113680106,1142.7315995015895 L-1937.988729182947,1142.7319049777868 L-1937.9508754476842,1142.7342283823532 L-1937.913374401724,1142.7385682275046 L-1937.8762500587245,1142.7449217342373 " />
			<path d="M-1937.8762500587245,1142.7449217342373 L-1937.8235088870863,1142.7575975741017 L-1937.7716678363086,1142.7744221271855 L-1937.720795716419,1142.7953730618049 L-1937.670960051356,1142.8204225692182 L-1937.6222269893437,1142.8495374005377 L-1937.5746612150924,1142.8826789108612 L-1937.5283258639383,1142.9198031105673 L-1937.4832824380453,1142.9608607237024 L-1937.4395907247688,1143.005797253388 L-1937.3973087173001,1143.0545530541542 L-1937.3564925376897,1143.10706341111 L-1937.3171963623558,1143.1632586258397 L-1937.2794723501727,1143.2230641089172 L-1937.2433705732412,1143.2864004789094 L-1937.208938950425,1143.3531836677414 L-1937.1762231837467,1143.423325032283 L-1937.1452666977275,1143.4967314720063 L-1937.1161105817473,1143.5733055525611 L-1937.0887935355065,1143.6529456351018 L-1937.0633518176583,1143.7355460111958 L-1937.0398191976822,1143.8209970431324 L-1937.0182269110603,1143.9091853094492 L-1936.9986036178177,1143.999993755478 L-1936.9809753644818,1144.0933018487156 L-1936.9653655495092,1144.1889857388092 L-1936.9517948922291,1144.2869184219471 L-1936.9402814053415,1144.386969909434 L-1936.9308403710086,1144.4890074002274 L-1936.92348432057,1144.59289545721 L-1936.9182230179103,1144.6984961869575 L-1936.9150634464986,1144.805669422769 L-1936.9140098001196,1144.9142729107132 " />
			<path d="M-7.069977800106265,1529.4971245474458 L-7.0699819760045735,1559.113225983187 " />
			<path d="M-1936.91400980012,1144.9142729107132 L-1936.9140139760182,1174.5303743464544 " />
			<path d="M-7.069981976004573,1559.1132259831868 L-7.071894384208728,1559.2615519205463 L-7.07762696016326,1559.4118547882533 L-7.087165893590582,1559.5637724935343 L-7.100488204364554,1559.716939053331 L-7.117561797871625,1559.8709854759852 L-7.138345542329567,1560.0255406501715 L-7.162789367877539,1560.1802322389383 L-7.1908343871987705,1560.3346875766983 L-7.222413037385262,1560.4885345670145 L-7.257449242702752,1560.6414025790118 L-7.2958585978638215,1560.7929233402597 L-7.337548571367625,1560.9427318239727 L-7.382418728416382,1561.0904671283915 L-7.4303609728716,1561.2357733462281 L-7.481259807667141,1561.3783004220763 L-7.534992613051774,1561.5177049957265 L-7.591429941990886,1561.6536512293503 L-7.650435832015738,1561.7858116165635 L-7.711868132768954,1561.9138677714172 L-7.775578848457187,1562.0375111954181 L-7.841414494385942,1562.156444020728 L-7.909216466717657,1562.2703797277534 L-7.978821424562233,1562.3790438353965 L-8.050061683479548,1562.482174562304 L-8.12276561944596,1562.5795234575216 L-8.196758082311616,1562.6708559990343 L-8.271860817752495,1562.7559521587493 L-8.3478928967007,1562.8346069325648 L-8.42467115121842,1562.906630834241 L-8.502010615765537,1562.9718503518902 L-8.579724972797825,1563.0301083659822 L-8.657627001622204,1563.0812645278577 " />
			<path d="M-1936.9140139760184,1174.5303743464544 L-1936.9159263842225,1174.678700283814 L-1936.9216589601772,1174.829003151521 L-1936.9311978936043,1174.980920856802 L-1936.9445202043785,1175.1340874165987 L-1936.9615937978854,1175.2881338392529 L-1936.9823775423433,1175.4426890134391 L-1937.0068213678915,1175.597380602206 L-1937.0348663872126,1175.751835939966 L-1937.066445037399,1175.9056829302822 L-1937.1014812427165,1176.0585509422795 L-1937.1398905978776,1176.2100717035273 L-1937.1815805713813,1176.3598801872404 L-1937.22645072843,1176.5076154916592 L-1937.2743929728854,1176.6529217094958 L-1937.325291807681,1176.795448785344 L-1937.3790246130657,1176.9348533589941 L-1937.4354619420046,1177.070799592618 L-1937.4944678320296,1177.2029599798311 L-1937.5559001327829,1177.331016134685 L-1937.619610848471,1177.4546595586858 L-1937.6854464943997,1177.5735923839957 L-1937.7532484667315,1177.687528091021 L-1937.8228534245761,1177.7961921986641 L-1937.8940936834933,1177.8993229255716 L-1937.9667976194598,1177.9966718207893 L-1938.0407900823254,1178.088004362302 L-1938.1158928177663,1178.173100522017 L-1938.1919248967145,1178.2517552958325 L-1938.2687031512323,1178.3237791975087 L-1938.3460426157794,1178.3889987151579 L-1938.4237569728116,1178.4472567292498 L-1938.501659001636,1178.4984128911253 " />
			<path d="M-8.657627001622217,1563.081264527858 L-49.6387033098967,1588.0920196333104 " />
			<path d="M-1938.501659001636,1178.4984128911253 L-1979.4827353099106,1203.5091679965778 " />
			<path d="M-49.638703309896705,1588.0920196333107 L-49.71902205636723,1588.1371978636537 L-49.79913510741923,1588.1745797751437 L-49.87883729549807,1588.2040696336244 L-49.9579245052591,1588.225591916293 L-50.036194196302,1588.2390915051128 L-50.113445921871815,1588.244533827968 L-50.1516281069353,1588.2442283517707 L-50.18948184219814,1588.2419049472044 L-50.22698288815851,1588.237565102053 L-50.2641072311579,1588.2312115953202 " />
			<path d="M-50.264107231157915,1588.2312115953202 L-50.30083109875823,1588.2228484954517 L-50.337130974964275,1588.2124811577273 L-50.37298361528223,1588.2001162208346 L-50.408366061604156,1588.185761602616 L-50.47763005977156,1588.1511213581098 L-50.544745586069645,1588.1086491370236 L-50.60954075928518,1588.0584537096718 L-50.67184964057218,1588.00066362531 L-50.73151265841716,1587.9354268829238 L-50.78837701729788,1587.862910552207 " />
			<path d="M-1979.4827353099104,1203.5091679965778 L-1979.563054056381,1203.5543462269209 L-1979.6431671074329,1203.5917281384109 L-1979.7228692955118,1203.6212179968916 L-1979.8019565052728,1203.6427402795603 L-1979.8802261963158,1203.65623986838 L-1979.9574779218856,1203.6616821912353 L-1979.9956601069491,1203.661376715038 L-1980.033513842212,1203.6590533104716 L-1980.0710148881722,1203.6547134653201 L-1980.1081392311717,1203.6483599585874 " />
			<path d="M-1980.1081392311717,1203.6483599585874 L-1980.1641409783686,1203.6347558153868 L-1980.2191219443669,1203.6164707315925 L-1980.2729997648655,1203.5935320991957 L-1980.3256937281317,1203.5659742814423 L-1980.377124895912,1203.5338385613534 L-1980.4272162216846,1203.497173079882 L-1980.4758926660802,1203.4560327637964 L-1980.5230813092935,1203.4104792433955 " />
			<path d="M16.645461381871776,-23.51408937569983 L16.645461381871616,1547.6388802787687 " />
			<path d="M-49.638700782601234,52.55347856363588 L-49.63870078260126,364.38335426389796 " />
			<path d="M-49.63870078260127,433.43901024346155 L-49.638700782601305,745.2689226649813 " />
			<path d="M-49.63870078260131,814.3245786445448 L-49.63870078260134,1126.1544910660643 " />
			<path d="M-49.63870078260135,1195.2101470456278 L-49.63870078260138,1519.0363573253192 " />
			<path d="M-49.63870078260139,1588.0920180909018 L-49.63870078260139,1588.0921113018637 " />
			<path d="M21.01148403941191,-23.929349232224325 L21.01148403941175,1547.2236204222443 " />
			<path d="M48.44796733054483,-18.461761121318403 L48.447967330544664,1552.69120853315 " />
			<path d="M-1970.1975142647989,-399.28484021221163 L-1972.4104048322652,1172.0247940684994 " />
			<path d="M-2011.4803525342688,-374.4037332035439 L-2013.693243101735,1196.9059010771673 " />
			<path d="M-1965.826517301233,-399.68797593610896 L-1968.0394078686993,1171.621658344602 " />
			<path d="M-1938.4563567813627,-394.1502610464723 L-1940.669247348829,1177.159373234239 " />
			<path d="M-7.069982387891256,-6.041417967445508 L-1936.9140143310287,-390.6235934535212 " />
			<path d="M-7.069977651552593,23.574685239123166 L-1936.91400959469,-361.00749024695256 " />
			<path d="M-8.657621774808515,27.542723964322835 L-1936.9070422932084,-356.72167499648464 " />
			<path d="M-49.63869808678142,52.553479100862845 L-1936.953753412893,-323.55345896817477 " />
			<path d="M-7.069979871584918,374.84411423845245 L-1936.9140118716205,-9.73842038530023 " />
			<path d="M-7.069979871584918,404.46021650585953 L-1936.9140118716205,19.877681882106856 " />
			<path d="M-8.657624474326788,408.4282551348714 L-1937.4432960691731,24.05663233633561 " />
			<path d="M-49.63870078260126,433.4390102434616 L-1937.490007199542,57.22485595134077 " />
			<path d="M-7.069979871584955,755.7296826395357 L-1936.9140118716205,371.147148015783 " />
			<path d="M-7.069979871584955,785.3457849069426 L-1936.9140118716205,400.76325028318996 " />
			<path d="M-8.657624474326823,789.3138235359546 L-1937.979550401999,404.83533508034947 " />
			<path d="M-49.638700782601305,814.3245786445448 L-1938.026261532368,438.00355869535457 " />
			<path d="M-7.0699798715850015,1136.6152510406187 L-1936.9140118716205,752.0327164168659 " />
			<path d="M-7.0699798715850015,1166.2313533080255 L-1936.9140118716205,781.6488186842728 " />
			<path d="M-8.65762447432687,1170.1993919370375 L-1938.5016564743623,785.6168573132848 " />
			<path d="M-49.63870078260135,1195.2101470456278 L-1938.5625158651944,818.7822614393681 " />
			<path d="M-7.069977800106267,1529.497124547446 L-1936.9140098001196,1144.9142729107136 " />
			<path d="M-7.0699819760045735,1559.1132259831866 L-1936.914013976018,1174.5303743464542 " />
			<path d="M-8.65762700162222,1563.081264527858 L-1938.5016590016355,1178.4984128911256 " />
			<path d="M-49.63870330989669,1588.0920196333104 L-1979.4827353099101,1203.509167996578 " />
			<path d="M-50.060322727803126,1588.645791110563 L-50.060322727803126,1588.24164701827 " />
			<path d="M-50.06032272780312,1518.9523357322214 L-50.06032272780308,1195.3597746535856 " />
			<path d="M-50.060322727803076,1126.0704695422264 L-50.06032272780305,814.4742062525025 " />
			<path d="M-50.06032272780304,745.1849011411431 L-50.060322727803005,433.58863785141955 " />
			<path d="M-50.060322727803,364.2993327400598 L-50.06032272780297,52.7031069466481 " />
			<path d="M50.0603227278028,1553.660148198374 L50.06032272780296,-17.492821456094568 " />
			<path d="M-2014.1215781036053,1197.462175745309 L-2011.908687536139,-373.8474585354026 " />
			<path d="M-1939.0685856609307,1178.1277967992887 L-1937.4410065979205,22.430944970825237 " />
			<path d="M-1937.3930903917546,-11.592968137810033 L-1936.9010101863912,-361.0048997056234 " />
			<path d="M-1936.8565289610697,-392.58973219597686 L-8.032223704171717,-8.210769353464013 " />
			<path d="M-1936.9541248536707,-323.2897096076734 L-50.26410185301534,52.69267109429495 " />
			<path d="M-1937.3927827368757,-11.811424975286059 L-8.03222062602171,372.6747629632876 " />
			<path d="M-1937.4903786404825,57.488605427646235 L-50.26410463090633,433.57820222006217 " />
			<path d="M-1937.8762526260573,368.9777967406182 L-8.032220626021747,753.5603313643709 " />
			<path d="M-1938.0266329733086,438.26730817165986 L-50.264104630906374,814.4637706211453 " />
			<path d="M-1937.8762526260573,749.8633651417013 L-8.032220626021793,1134.445899765454 " />
			<path d="M-1938.5628873061346,819.0460109156734 L-50.26410463090642,1195.3493390222282 " />
			<path d="M-1937.876250058725,1142.744921734237 L-8.032218058711152,1527.3277733709697 " />
			<path d="M-1980.1081392311717,1203.6483599585877 L-50.26410723115791,1588.2312115953202 " />

       </g>
    </g>
    
</svg>
