<?xml version="1.0" encoding="UTF-8" standalone="no"?>
<svg
   xmlns:svg="http://www.w3.org/2000/svg"
   xmlns="http://www.w3.org/2000/svg"
   width="480.0"
   height="480.0"

>
    <g transform="scale(0.14854212543568499, -0.14854212543568499)   translate(94.89532110121219,-101.38207085687085)" stroke-width="1.0"  fill="none">
       <!-- hidden lines -->
       <g  stroke="rgb(0,0,0)" fill="none" stroke-dasharray="1.0,1.0" >
			<path d="M26.313809145088403,-2.781545732674344 L-26.31380914508841,-33.97221203000102 " />
			<path d="M26.313809145088403,-2.7815457326743456 L26.3756609974211,-2.7411600376381386 L26.43736384322394,-2.693415380819759 L26.498769034936863,-2.6384267832794195 L26.55972864207457,-2.5763267173650273 L26.62009580760403,-2.507264787574693 L26.679725101735947,-2.431407370146393 L26.73847287227785,-2.3489372122430368 L26.7961975907048,-2.2600529916985455 L26.852760193114026,-2.16496883838555 L26.90802441524202,-2.063913818357769 L26.961857120737104,-1.9571313820098237 L27.01412862189655,-1.8448787775839133 L27.064712992095625,-1.727426431436267 L27.113488369155853,-1.605057296556365 L27.16033724892167,-1.4780661709084029 L27.205146768338253,-1.3467589872371752 L27.24780897734847,-1.2114520760492977 L27.288221098954047,-1.0724714035453071 L27.326285776814355,-0.9301517863385353 L27.361911309786358,-0.7848360848525591 L27.395011872840698,-0.6368743773404104 L27.425507723821703,-0.4866231165154018 L27.45332539555325,-0.33444427082531525 L27.47839787282759,-0.1807044524387118 L27.500664753850877,-0.02577403404410239 L27.520072395756387,0.12997374341029855 L27.536574043834854,0.28616366988670844 L27.550129944170685,0.4424194701716253 L27.560707439412614,0.5983647103557703 L27.568281047448124,0.7536237046963492 L27.572832522792087,0.9078224206769154 L27.574350900541738,1.060589380084452 " />
			<path d="M27.57435090054174,1.0605893800844584 L27.57435090054174,31.624240572203973 " />
			<path d="M27.574350900541738,31.624240572203977 L27.571819350558563,31.818795964920326 L27.564234868848665,32.00956917163826 L27.55162791928913,32.1957939314923 L27.53404913903307,32.3767222529373 L27.511569135120155,32.551627418136086 L27.484278200875902,32.71980690189882 L27.45228595323895,32.880585193450166 L27.415720892472955,33.0333165096901 L27.374729886031645,33.177387389050395 L27.329477578650057,33.31221915552822 L27.280145731031467,33.43727024299983 L27.226932489786204,33.552038370478485 L27.198936553329418,33.60542060329581 L27.170051591554717,33.656062559579404 L27.140306616627004,33.70391337435676 L27.109731504511643,33.74892498608846 L27.07835696496693,33.79105218494138 L27.046214510699095,33.83025265819757 L27.013336425710825,33.8664870327534 L26.979755732875084,33.89971891466594 " />
			<path d="M6.566081562185351,-2200.0667094498613 L-26.039220964598343,-2219.6797718207154 " />
			<path d="M6.566081562185349,-2200.0667094498617 L6.628059030834535,-2200.025702541615 L6.689881537550668,-2199.9773465998696 L6.751400146500055,-2199.9217581183243 L6.812466653965346,-2199.859071014501 L6.87293394538126,-2199.7894363071227 L6.932656349746468,-2199.713021752299 L6.99148999055779,-2199.6300114393857 L7.049293132421292,-2199.5406053474976 L7.1059265225052695,-2199.4450188637406 L7.161253726012508,-2199.3434822643267 L7.215141454863671,-2199.236240159818 L7.267459888799946,-2199.1235509058365 L7.3180829881314295,-2199.0056859806664 L7.3668887973777695,-2198.8829293312356 L7.41375973906961,-2198.755576689065 L7.458582897003003,-2198.623934857824 L7.501250288264444,-2198.4883209742156 L7.541659123371161,-2198.3490617439625 L7.579712053899988,-2198.2064926547487 L7.615317407008236,-2198.060957167998 L7.648389406281607,-2197.912805891445 L7.6788483783770864,-2197.762395734491 L7.7066209449630065,-2197.6100890483785 L7.731640199493871,-2197.4562527532557 L7.7538458683940865,-2197.3012574542317 L7.773184456262287,-2197.145476548558 L7.789609374746437,-2196.9892853260803 L7.803081054779256,-2196.8330600651348 L7.813567041903565,-2196.677177126059 L7.8210420744579165,-2196.522012044507 L7.825488144434153,-2196.3679386267504 L7.826894540860271,-2196.2153280491484 " />
			<path d="M7.82689454086027,-2196.215328049149 L7.803723433527365,-2165.6862390284755 " />
			<path d="M7.803723433527367,-2165.6862390284755 L7.802606318048319,-2165.562473929591 L7.79944558599089,-2165.4401396271755 L7.794246355507151,-2165.3194342163392 L7.787017045675903,-2165.200553154538 L7.77776936286972,-2165.083688945072 L7.766518281798902,-2164.969030825367 L7.753282021263025,-2164.856764460541 L7.738082014649361,-2164.7470716427606 L7.720942875225945,-2164.6401299968643 L7.701892356285467,-2164.5361126927373 L7.680961306204559,-2164.435188164897 L7.658183618491227,-2164.3375198397503 L7.63359617690132,-2164.2432658709554 L7.607238795712913,-2164.152578883328 L7.57915415525532,-2164.0656057256942 L7.5493877327971175,-2163.9824872331014 L7.517987728905118,-2163.903357998762 L7.485004989393515,-2163.8283461561114 L7.450492922989596,-2163.7575731713196 L7.414507414849361,-2163.6911536466027 L7.377106736063052,-2163.6291951346484 L7.338351449297184,-2163.571797964457 L7.298304310725822,-2163.5190550788775 L7.257030168409933,-2163.471051884109 L7.214595857289359,-2163.4278661114004 L7.171070090957448,-2163.3895676911816 L7.126523350393602,-2163.356218639826 L7.081027769833899,-2163.3278729592266 L7.034657019964613,-2163.304576549353 L6.987486188627768,-2163.2863671339246 L6.939591659231906,-2163.273274199324 L6.89105098706495,-2163.2653189468524 " />
			<path d="M6.891050987064944,-2163.2653189468524 L6.847908523408698,-2163.2625794250507 L6.804381450359161,-2163.2638237039296 L6.760524237479391,-2163.2690502264045 L6.7163917674677895,-2163.2782524520308 L6.672039267478166,-2163.29141886519 L6.627522240008753,-2163.308532989497 L6.582896393446654,-2163.3295734084227 L6.538217572354647,-2163.35451379209 " />
			<path d="M6.53821757235464,-2163.3545137920905 L-26.067084954429056,-2182.9675761629446 " />
			<path d="M-26.067084954429056,-2182.967576162944 L-26.132030200814096,-2183.010733880752 L-26.196797427254033,-2183.061956119403 L-26.261215292257805,-2183.121107370628 L-26.325113378568915,-2183.188031149981 L-26.38832264400374,-2183.262550410816 L-26.450675868652084,-2183.344468012667 L-26.512008097256935,-2183.4335672427796 L-26.57215707560304,-2183.5296123894236 " />
			<path d="M6.223960664150772,-14.688169501431538 L-26.313773370354852,-33.972219180464236 " />
			<path d="M6.224312955373186,-2164.492875690192 L-26.31342107913244,-2183.776925369224 " />
			<path d="M-26.461325487846217,-34.08000452535352 L-26.430051983123164,-34.05258096663223 L-26.395005866795575,-34.02545330930106 L-26.356230381230837,-33.99865502537483 L-26.31377337035486,-33.97221918046424 " />
			<path d="M-26.57215698260755,-2184.0971032857574 L-26.57113243195485,-2184.076536960707 L-26.568059429323473,-2184.0559838048907 L-26.555777249726216,-2184.014969628644 L-26.53534189817085,-2183.974165793298 L-26.506805709082105,-2183.933676796456 L-26.470241762927234,-2183.8936063294263 L-26.425743699058756,-2183.8540570116747 L-26.3734254759064,-2183.815130128015 L-26.313421079132446,-2183.776925369224 " />
			<path d="M6.223960664150767,-14.688169501431542 L6.289355397846402,-14.651897601302077 L6.361678352733497,-14.616484418738972 L6.440755296478988,-14.58201526720085 L6.5263957257990715,-14.548573185892907 L6.618393325398297,-14.516238739718196 L6.716526465001193,-14.485089825189714 L6.820558733279007,-14.455201482770882 L6.930239507385309,-14.426645716096495 L7.045304556728375,-14.399491318509666 L7.165476679525831,-14.373803707332621 L7.29046637060802,-14.349644766270659 L7.419972518861324,-14.327072696328868 L7.553683132631201,-14.306141875600819 L7.691276091337411,-14.28690272826697 L7.832419921490714,-14.269401603118398 L7.976774595241529,-14.253680661898503 L8.123992349536815,-14.239777777731675 L8.273718523911723,-14.227726443883622 L8.425592414897718,-14.217555693073155 L8.579248144988835,-14.20929002752983 L8.890421041202412,-14.198548965604987 L9.204240447457511,-14.195606700407087 L9.517684111320756,-14.200491567558393 L9.827733398963408,-14.213156523117897 L9.98054997754009,-14.222371317876451 L10.131402366255289,-14.233479596640196 L10.279927148491483,-14.246454598592619 L10.425766515039026,-14.261265065817541 " />
			<path d="M6.224312955373182,-2164.492875690192 L6.289707689068816,-2164.456603790062 L6.362030643955912,-2164.4211906074993 L6.441107587701403,-2164.386721455961 L6.526748017021486,-2164.353279374653 L6.6187456166207115,-2164.320944928478 L6.716878756223608,-2164.28979601395 L6.820911024501422,-2164.259907671531 L6.930591798607724,-2164.2313519048566 L7.04565684795079,-2164.20419750727 L7.165828970748246,-2164.1785098960927 L7.290818661830435,-2164.1543509550306 L7.420324810083739,-2164.1317788850893 L7.554035423853615,-2164.110848064361 L7.691628382559825,-2164.0916089170273 L7.832772212713128,-2164.0741077918788 L7.977126886463943,-2164.0583868506587 L8.12434464075923,-2164.044483966492 L8.274070815134138,-2164.032432632644 L8.425944706120132,-2164.0222618818334 L8.57960043621125,-2164.01399621629 L8.890773332424827,-2164.003255154365 L9.204592738679926,-2164.000312889167 L9.51803640254317,-2164.0051977563185 L9.828085690185823,-2164.017862711878 L9.980902268762504,-2164.0270775066365 L10.131754657477703,-2164.0381857854004 L10.280279439713897,-2164.0511607873527 L10.42611880626144,-2164.0659712545776 " />
			<path d="M10.425766515039038,-14.26126506581754 L39.470749468221946,-17.423016813250772 " />
			<path d="M10.426118806261451,-2164.0659712545776 L39.47110175944436,-2167.227723002011 " />
			<path d="M39.470749468221946,-17.423016813250772 L39.68154171605927,-17.44830977335247 L39.88452479020158,-17.477433661462523 L40.07862134853568,-17.510233901189306 L40.26280121454464,-17.5465364037339 L40.43608684501756,-17.58614849187446 L40.597558518405734,-17.628859922609575 L40.74635921628747,-17.674444003032754 L40.881699172033336,-17.722658793515592 L41.002860062529265,-17.773248391813606 L41.05791936402095,-17.79935028938209 L41.109198820709906,-17.825944291279303 L41.1566303679844,-17.852995098566236 L41.200151048667045,-17.88046680597371 L41.239703096579646,-17.90832294956043 L41.275234013217734,-17.93652655511253 L41.30669663743331,-17.96504018722047 L41.334049208033115,-17.993825998968077 L41.357255419209345,-18.022845782167764 L41.37628446872937,-18.05206101807529 L41.39111109882036,-18.08143292851675 L41.401715629694635,-18.110922527359893 L41.408083985671134,-18.14049067226145 L41.41020771385849,-18.170098116621848 " />
			<path d="M41.41020771385849,-18.17009811662185 L41.40918316320579,-18.190664441672 L41.40611016057441,-18.211217597488517 L41.39382798097716,-18.25223177373504 L41.37339262942179,-18.293035609080835 L41.34485644033305,-18.333524605923103 L41.308292494178176,-18.373595072952593 L41.263794430309694,-18.413144390704442 L41.21147620715734,-18.452071274364066 L41.151471810383384,-18.49027603315504 " />
			<path d="M39.471101759444366,-2167.2277230020104 L39.68189400728169,-2167.2530159621124 L39.884877081424,-2167.2821398502224 L40.0789736397581,-2167.3149400899492 L40.26315350576705,-2167.3512425924937 L40.43643913623998,-2167.390854680634 L40.597910809628154,-2167.4335661113696 L40.74671150750989,-2167.4791501917925 L40.882051463255756,-2167.5273649822752 L41.003212353751685,-2167.5779545805735 L41.05827165524337,-2167.604056478142 L41.109551111932326,-2167.630650480039 L41.15698265920682,-2167.657701287326 L41.200503339889465,-2167.6851729947334 L41.24005538780206,-2167.71302913832 L41.275586304440154,-2167.7412327438724 L41.30704892865573,-2167.76974637598 L41.334401499255534,-2167.7985321877277 L41.357607710431765,-2167.8275519709277 L41.376636759951786,-2167.8567672068352 L41.39146339004278,-2167.8861391172763 L41.402067920917055,-2167.9156287161195 L41.40843627689355,-2167.945196861021 L41.41056000508091,-2167.9748043053814 " />
			<path d="M41.41056000508091,-2167.9748043053814 L41.40953545442821,-2167.995370630432 L41.40646245179683,-2168.015923786248 L41.39418027219958,-2168.056937962495 L41.37374492064421,-2168.0977417978406 L41.345208731555466,-2168.138230794683 L41.308644785400595,-2168.1783012617125 L41.264146721532114,-2168.217850579464 L41.21182849837976,-2168.256777463124 L41.151824101605804,-2168.294982221915 " />
			<path d="M41.151471810383384,-18.490276033155045 L8.613737775877759,-37.774325712187746 " />
			<path d="M41.1518241016058,-2168.2949822219152 L8.614090067100168,-2187.5790319009475 " />
			<path d="M8.613737775877759,-37.774325712187746 L8.567649162446514,-37.800367828840095 L8.517987909952039,-37.82598271151344 L8.40819694820801,-37.8758049063377 " />
			<path d="M379.76446511688954,-55.350758968181566 L347.22673105425025,-74.63480864003174 " />
			<path d="M379.76446511688954,-2205.1554268391956 L347.22673105425025,-2224.4394765110455 " />
			<path d="M347.0791758320049,-74.74259690307008 L347.1104498122681,-74.7151725917073 L347.1454966067308,-74.6880441953573 L347.1842729699038,-74.66124518871554 L347.22673105425025,-74.63480864003172 " />
			<path d="M346.96799515030807,-2224.759654437109 L346.9690197041222,-2224.7390881090064 L346.97209270949566,-2224.7185349504725 L346.9843748933139,-2224.6775207697924 L347.0048102474032,-2224.6367169313394 L347.03334643734314,-2224.5962279327027 L347.06991038267915,-2224.556157465175 L347.11440844407986,-2224.516608148202 L347.1667266631451,-2224.4776812665755 L347.22673105425025,-2224.439476511046 " />
			<path d="M379.7644651168895,-55.35075896818156 L379.82985985063806,-55.31448706870887 L379.90218280557684,-55.27907388808722 L379.9812597493726,-55.24460473977055 L380.0669001787415,-55.21116266295629 L380.1588977783879,-55.17882822253668 L380.2570309180362,-55.14767931501083 L380.3610631863576,-55.11779098082532 L380.4707439605056,-55.08923522359509 L380.5858090098883,-55.062080836640504 L380.7059811327232,-55.03639323725818 L380.83097082384063,-55.012234309125 L380.96047697212686,-54.989662253214895 L381.0941875859273,-54.96873144758765 L381.23178054466155,-54.949492316387335 L381.3729243748404,-54.93199120836616 L381.51727904861417,-54.91627028522626 L381.6644968029297,-54.902367420048485 L381.81422297732223,-54.89031610605277 L381.96609686832306,-54.880145375910125 L382.11975259842626,-54.871879731800306 L382.43092549465547,-54.86113871483125 L382.7447449009149,-54.85819649701067 L383.058188564771,-54.86308141350454 L383.36823785239517,-54.875746419896664 L383.52105443095843,-54.88496124047775 L383.6719068196574,-54.8960695452521 L383.8204316018747,-54.90904457334053 L383.96627096840064,-54.92385506676391 " />
			<path d="M379.7644651168895,-2205.1554268391956 L379.82985985063806,-2205.1191549397226 L379.90218280557684,-2205.083741759101 L379.9812597493726,-2205.0492726107846 L380.0669001787415,-2205.01583053397 L380.1588977783879,-2204.9834960935505 L380.2570309180362,-2204.952347186025 L380.3610631863576,-2204.922458851839 L380.4707439605056,-2204.893903094609 L380.5858090098883,-2204.866748707654 L380.7059811327232,-2204.841061108272 L380.83097082384063,-2204.8169021801386 L380.96047697212686,-2204.7943301242285 L381.0941875859273,-2204.7733993186016 L381.23178054466155,-2204.7541601874013 L381.3729243748404,-2204.73665907938 L381.51727904861417,-2204.72093815624 L381.6644968029297,-2204.7070352910623 L381.81422297732223,-2204.6949839770664 L381.96609686832306,-2204.684813246924 L382.11975259842626,-2204.676547602814 L382.43092549465547,-2204.665806585845 L382.7447449009149,-2204.6628643680247 L383.058188564771,-2204.6677492845183 L383.36823785239517,-2204.6804142909104 L383.52105443095843,-2204.6896291114917 L383.6719068196574,-2204.700737416266 L383.8204316018747,-2204.7137124443543 L383.96627096840064,-2204.7285229377776 " />
			<path d="M383.96627096840064,-54.92385506676392 L413.0112539169713,-58.08561208663835 " />
			<path d="M383.96627096840064,-2204.728522937778 L413.0112539169713,-2207.890279957652 " />
			<path d="M413.01125391697127,-58.08561208663835 L413.22204617209843,-58.11090508657454 L413.42502925293365,-58.14002901457716 L413.61912581725215,-58.17282929403193 L413.8033056884323,-58.209131835916736 L413.97659132316664,-58.24874396278733 L414.1380629998187,-58.29145543142185 L414.2868636998889,-58.33703954869663 L414.4222036566804,-58.38525437477055 L414.54336454702263,-58.435844007192124 L414.5984238479733,-58.461945921209235 L414.6497033038057,-58.48853993911376 L414.6971348499043,-58.51559076194294 L414.7406555290888,-58.54306248440444 L414.780207575179,-58.57091864253439 L414.8157384896691,-58.599122262097 L414.84720111141064,-58.6276359076615 L414.8745536792106,-58.65642173229117 L414.8977598872624,-58.685441527778615 L414.91678893333534,-58.714656775360574 L414.93161555965946,-58.74402869684489 L414.94222008645056,-58.7735183060819 L414.9485884380321,-58.80308646071176 L414.9507121615179,-58.83269391411922 " />
			<path d="M414.9507121615179,-58.832693914119226 L414.94968760770377,-58.853260242221786 L414.9466146023303,-58.87381340075566 L414.9343324185121,-58.91482758143568 L414.91389706442277,-58.955631419888746 L414.88536087448284,-58.9961204185254 L414.84879692914683,-59.036190886052914 L414.8042988677461,-59.07574020302606 L414.7519806486809,-59.11466708465287 L414.69197625757573,-59.152871840182456 " />
			<path d="M413.01125391697127,-2207.890279957652 L413.22204617209843,-2207.9155729575887 L413.42502925293365,-2207.944696885591 L413.61912581725215,-2207.977497165046 L413.8033056884323,-2208.0137997069305 L413.97659132316664,-2208.0534118338014 L414.1380629998187,-2208.096123302436 L414.2868636998889,-2208.1417074197107 L414.4222036566804,-2208.1899222457846 L414.54336454702263,-2208.2405118782062 L414.5984238479733,-2208.2666137922233 L414.6497033038057,-2208.2932078101276 L414.6971348499043,-2208.320258632957 L414.7406555290888,-2208.347730355418 L414.780207575179,-2208.375586513548 L414.8157384896691,-2208.4037901331108 L414.84720111141064,-2208.4323037786753 L414.8745536792106,-2208.461089603305 L414.8977598872624,-2208.4901093987924 L414.91678893333534,-2208.5193246463746 L414.93161555965946,-2208.5486965678588 L414.94222008645056,-2208.5781861770956 L414.9485884380321,-2208.6077543317256 L414.9507121615179,-2208.637361785133 " />
			<path d="M414.9507121615179,-2208.637361785133 L414.94968760770377,-2208.657928113236 L414.9466146023303,-2208.6784812717697 L414.9343324185121,-2208.71949545245 L414.91389706442277,-2208.760299290903 L414.88536087448284,-2208.8007882895395 L414.84879692914683,-2208.840858757067 L414.8042988677461,-2208.88040807404 L414.7519806486809,-2208.9193349556667 L414.69197625757573,-2208.957539711196 " />
			<path d="M414.69197625757573,-59.15287184018247 L382.15424219493644,-78.43692151203264 " />
			<path d="M414.69197625757573,-2208.957539711196 L382.15424219493644,-2228.241589383046 " />
			<path d="M382.1542421949365,-78.43692151203264 L382.1081547799606,-78.46296298175857 L382.05849490325977,-78.4885772390287 L381.9487072056283,-78.53839825697348 " />
			<path d="M753.3050053162282,-96.01335557821227 L720.767271253589,-115.29740525006244 " />
			<path d="M753.3050053162282,-2245.818023449226 L720.767271253589,-2265.102073121076 " />
			<path d="M720.6197160313436,-115.4051935131008 L720.6509900116068,-115.37776920173802 L720.6860368060695,-115.35064080538804 L720.7248131692426,-115.32384179874627 L720.767271253589,-115.29740525006245 " />
			<path d="M753.3050053162283,-96.01335557821227 L753.3704000499769,-95.97708367873959 L753.4427230049156,-95.94167049811794 L753.5217999487114,-95.90720134980127 L753.6074403780802,-95.87375927298702 L753.6994379777267,-95.8414248325674 L753.797571117375,-95.81027592504155 L753.9016033856965,-95.78038759085604 L754.0112841598444,-95.7518318336258 L754.1263492092271,-95.72467744667122 L754.246521332062,-95.6989898472889 L754.3715110231794,-95.67483091915571 L754.5010171714657,-95.65225886324562 L754.6347277852661,-95.63132805761838 L754.7723207440004,-95.61208892641805 L754.9134645741792,-95.59458781839687 L755.0578192479529,-95.57886689525698 L755.2050370022686,-95.5649640300792 L755.354763176661,-95.5529127160835 L755.5066370676618,-95.54274198594085 L755.660292797765,-95.53447634183102 L755.9714656939943,-95.52373532486197 L756.2852851002536,-95.52079310704138 L756.5987287641099,-95.52567802353525 L756.908778051734,-95.53834302992739 L757.0615946302972,-95.54755785050847 L757.2124470189963,-95.55866615528282 L757.3609718012135,-95.57164118337126 L757.5068111677394,-95.58645167679462 " />
			<path d="M753.3050053162283,-2245.818023449226 L753.3704000499769,-2245.781751549753 L753.4427230049156,-2245.7463383691315 L753.5217999487114,-2245.711869220815 L753.6074403780802,-2245.6784271440006 L753.6994379777267,-2245.646092703581 L753.797571117375,-2245.6149437960553 L753.9016033856965,-2245.5850554618696 L754.0112841598444,-2245.5564997046395 L754.1263492092271,-2245.5293453176846 L754.246521332062,-2245.5036577183023 L754.3715110231794,-2245.479498790169 L754.5010171714657,-2245.456926734259 L754.6347277852661,-2245.435995928632 L754.7723207440004,-2245.416756797432 L754.9134645741792,-2245.3992556894104 L755.0578192479529,-2245.3835347662707 L755.2050370022686,-2245.369631901093 L755.354763176661,-2245.357580587097 L755.5066370676618,-2245.3474098569545 L755.660292797765,-2245.3391442128445 L755.9714656939943,-2245.3284031958756 L756.2852851002536,-2245.325460978055 L756.5987287641099,-2245.330345894549 L756.908778051734,-2245.343010900941 L757.0615946302972,-2245.3522257215222 L757.2124470189963,-2245.3633340262963 L757.3609718012135,-2245.376309054385 L757.5068111677394,-2245.391119547808 " />
			<path d="M757.5068111677393,-95.58645167679461 L786.5517941163099,-98.74820869666905 " />
			<path d="M757.5068111677393,-2245.3911195478086 L786.5517941163099,-2248.5528765676827 " />
			<path d="M786.5517941163099,-98.74820869666905 L786.762586371437,-98.77350169660525 L786.9655694522723,-98.80262562460787 L787.1596660165908,-98.83542590406263 L787.343845887771,-98.87172844594745 L787.5171315225052,-98.91134057281803 L787.6786031991574,-98.95405204145256 L787.8274038992275,-98.99963615872734 L787.962743856019,-99.04785098480126 L788.0839047463613,-99.09844061722283 L788.138964047312,-99.12454253123994 L788.1902435031443,-99.15113654914447 L788.237675049243,-99.17818737197365 L788.2811957284275,-99.20565909443515 L788.3207477745176,-99.2335152525651 L788.3562786890077,-99.26171887212772 L788.3877413107492,-99.29023251769222 L788.4150938785492,-99.31901834232188 L788.438300086601,-99.34803813780933 L788.457329132674,-99.37725338539128 L788.472155758998,-99.4066253068756 L788.4827602857893,-99.4361149161126 L788.4891286373708,-99.46568307074247 L788.4912523608566,-99.49529052414994 " />
			<path d="M788.4912523608566,-99.49529052414994 L788.4902278070424,-99.5158568522525 L788.487154801669,-99.53641001078637 L788.4748726178508,-99.57742419146639 L788.4544372637614,-99.61822802991946 L788.4259010738215,-99.65871702855611 L788.3893371284854,-99.69878749608363 L788.3448390670848,-99.73833681305676 L788.2925208480195,-99.77726369468358 L788.2325164569144,-99.81546845021316 " />
			<path d="M786.5517941163099,-2248.5528765676827 L786.6902120209629,-2248.5689444343334 L786.8254657016083,-2248.5866657381707 L786.9572492359558,-2248.606000396427 L787.0852645506332,-2248.626904677184 L787.2092220953814,-2248.649331298287 L787.328841497971,-2248.6732295342895 L787.4438521983591,-2248.6985453311872 L787.5539940606535,-2248.725221428678 L787.6590179614988,-2248.753197489677 L787.7586863535529,-2248.782410236788 L787.8527738027826,-2248.8127935954294 L787.9410674983583,-2248.844278843281 L788.0233677339987,-2248.8767947657248 L788.0994883596749,-2248.910267816922 L788.1692572026515,-2248.94462228616 L788.2325164569144,-2248.9797804691007 " />
			<path d="M788.4724846597627,-2249.387859021018 L788.4574748905658,-2249.4177430243053 L788.4381153918246,-2249.4474652160725 L788.4144327594537,-2249.4769847642256 L788.3864595284516,-2249.50626111506 L788.3542341282049,-2249.5352540489753 L788.317800829694,-2249.5639237357254 L788.2772096846741,-2249.592230789139 L788.2325164569144,-2249.6201363212267 " />
			<path d="M788.2325164569144,-99.81546845021317 L755.6947823942752,-119.09951812206334 " />
			<path d="M755.6947823942751,-119.09951812206336 L755.6486949792992,-119.12555959178928 L755.5990351025984,-119.15117384905942 L755.4892474049668,-119.2009948670042 " />
			<path d="M1126.8455455155668,-136.67595218824297 L1094.3078114529276,-155.96000186009317 " />
			<path d="M1126.8455455155668,-2286.480620059257 L1094.3078114529276,-2305.764669731107 " />
			<path d="M1094.160256230682,-156.0677901231315 L1094.1915302109453,-156.0403658117687 L1094.226577005408,-156.01323741541873 L1094.2653533685811,-155.98643840877696 L1094.3078114529276,-155.96000186009317 " />
			<path d="M1126.845545515567,-136.675952188243 L1126.9109402493154,-136.6396802887703 L1126.9832632042542,-136.60426710814866 L1127.06234014805,-136.569797959832 L1127.1479805774188,-136.53635588301773 L1127.2399781770653,-136.50402144259812 L1127.3381113167136,-136.47287253507227 L1127.442143585035,-136.44298420088674 L1127.551824359183,-136.41442844365653 L1127.6668894085656,-136.38727405670193 L1127.7870615314007,-136.36158645731962 L1127.9120512225181,-136.33742752918644 L1128.0415573708042,-136.31485547327634 L1128.1752679846047,-136.2939246676491 L1128.312860943339,-136.27468553644877 L1128.4540047735177,-136.2571844284276 L1128.5983594472916,-136.2414635052877 L1128.7455772016071,-136.2275606401099 L1128.8953033759997,-136.21550932611422 L1129.0471772670005,-136.20533859597157 L1129.2008329971036,-136.19707295186174 L1129.5120058933328,-136.18633193489268 L1129.8258252995922,-136.1833897170721 L1130.1392689634483,-136.18827463356598 L1130.4493182510726,-136.2009396399581 L1130.6021348296358,-136.2101544605392 L1130.7529872183347,-136.22126276531353 L1130.901512000552,-136.23423779340197 L1131.047351367078,-136.24904828682534 " />
			<path d="M1126.845545515567,-2286.480620059257 L1126.9109402493154,-2286.444348159784 L1126.9832632042542,-2286.4089349791625 L1127.06234014805,-2286.374465830846 L1127.1479805774188,-2286.3410237540315 L1127.2399781770653,-2286.308689313612 L1127.3381113167136,-2286.2775404060862 L1127.442143585035,-2286.2476520719006 L1127.551824359183,-2286.2190963146704 L1127.6668894085656,-2286.1919419277156 L1127.7870615314007,-2286.1662543283333 L1127.9120512225181,-2286.1420954002 L1128.0415573708042,-2286.11952334429 L1128.1752679846047,-2286.098592538663 L1128.312860943339,-2286.079353407463 L1128.4540047735177,-2286.0618522994414 L1128.5983594472916,-2286.0461313763017 L1128.7455772016071,-2286.032228511124 L1128.8953033759997,-2286.020177197128 L1129.0471772670005,-2286.0100064669855 L1129.2008329971036,-2286.0017408228755 L1129.5120058933328,-2285.9909998059065 L1129.8258252995922,-2285.988057588086 L1130.1392689634483,-2285.99294250458 L1130.4493182510726,-2286.005607510972 L1130.6021348296358,-2286.014822331553 L1130.7529872183347,-2286.0259306363273 L1130.901512000552,-2286.038905664416 L1131.047351367078,-2286.053716157839 " />
			<path d="M1131.0473513670777,-136.24904828682534 L1160.0923343156483,-139.41080530669976 " />
			<path d="M1131.0473513670777,-2286.053716157839 L1160.0923343156483,-2289.215473177713 " />
			<path d="M1160.0923343156483,-139.41080530669976 L1160.3031265707755,-139.43609830663596 L1160.5061096516108,-139.4652222346386 L1160.7002062159293,-139.49802251409335 L1160.8843860871093,-139.53432505597814 L1161.0576717218437,-139.57393718284874 L1161.2191433984958,-139.61664865148327 L1161.367944098566,-139.66223276875803 L1161.5032840553574,-139.71044759483195 L1161.6244449456997,-139.76103722725352 L1161.6795042466504,-139.78713914127064 L1161.7307837024828,-139.81373315917517 L1161.7782152485813,-139.84078398200435 L1161.821735927766,-139.86825570446587 L1161.8612879738562,-139.8961118625958 L1161.8968188883462,-139.92431548215842 L1161.9282815100878,-139.9528291277229 L1161.9556340778877,-139.98161495235257 L1161.9788402859394,-140.01063474784004 L1161.9978693320124,-140.03984999542197 L1162.0126959583365,-140.06922191690632 L1162.0233004851277,-140.09871152614332 L1162.029668836709,-140.12827968077318 L1162.031792560195,-140.15788713418064 " />
			<path d="M1162.031792560195,-140.15788713418064 L1162.0307680063809,-140.1784534622832 L1162.0276950010075,-140.19900662081707 L1162.0154128171891,-140.24002080149708 L1161.9949774630998,-140.28082463995017 L1161.96644127316,-140.32131363858682 L1161.929877327824,-140.36138410611434 L1161.8853792664231,-140.40093342308748 L1161.8330610473581,-140.4398603047143 L1161.7730566562527,-140.47806506024386 " />
			<path d="M1160.0923343156483,-2289.215473177713 L1160.2307522203014,-2289.231541044364 L1160.366005900947,-2289.2492623482012 L1160.4977894352942,-2289.2685970064576 L1160.6258047499716,-2289.2895012872145 L1160.7497622947199,-2289.3119279083176 L1160.8693816973096,-2289.33582614432 L1160.9843923976975,-2289.3611419412177 L1161.094534259992,-2289.3878180387087 L1161.1995581608373,-2289.4157940997075 L1161.2992265528915,-2289.4450068468186 L1161.393314002121,-2289.47539020546 L1161.4816076976967,-2289.5068754533113 L1161.5639079333373,-2289.5393913757553 L1161.6400285590134,-2289.5728644269525 L1161.70979740199,-2289.607218896191 L1161.773056656253,-2289.642377079131 " />
			<path d="M1161.773056656253,-140.47806506024386 L1129.2353225936138,-159.76211473209406 " />
			<path d="M1129.2353225936133,-159.76211473209403 L1129.1892351786375,-159.78815620181996 L1129.1395753019367,-159.8137704590901 L1129.0297876043053,-159.86359147703484 " />
			<path d="M1512.1510526691798,-178.619247979808 L1479.6133186034633,-197.90329765132321 " />
			<path d="M1512.1507417694995,-2328.4238820071128 L1479.613007703783,-2347.707931678628 " />
			<path d="M1479.4657607234883,-198.01108841266776 L1479.4970351108013,-197.98366345692358 L1479.5320824857536,-197.9565344278714 L1479.5708596001837,-197.92973480250157 L1479.613318603463,-197.90329765132321 " />
			<path d="M1512.1510526691793,-178.619247979808 L1512.2164474029337,-178.5829760809033 L1512.288770357878,-178.54756290198307 L1512.3678473016794,-178.5130937564971 L1512.4534877310537,-178.47965168363604 L1512.545485330705,-178.44731724828253 L1512.6436184703584,-178.41616834692357 L1512.7476507386848,-178.3862800199908 L1512.8573315128372,-178.35772427108174 L1512.9723965622243,-178.33056989349672 L1513.0925686850633,-178.30488230450973 L1513.2175583761846,-178.28072338777264 L1513.3470645244745,-178.25815134423192 L1513.4807751382782,-178.23722055191757 L1513.6183680970155,-178.21798143494158 L1513.759511927197,-178.2004803420219 L1513.9038666009733,-178.1847594348243 L1514.051084355291,-178.17085658639112 L1514.2008105296857,-178.1588052899021 L1514.352684420688,-178.148634577986 L1514.5063401507925,-178.14036895277866 L1514.8175130470236,-178.12962797545876 L1515.1313324532834,-178.12668579942562 L1515.4447761171386,-178.1315707594428 L1515.7548254047608,-178.14423581067493 L1515.9076419833227,-178.1534506540352 L1516.0584943720198,-178.16455898175522 L1516.207019154235,-178.17753403290052 L1516.3528585207587,-178.19234454943643 " />
			<path d="M1512.1507417694993,-2328.4238820071128 L1512.2161365032537,-2328.387610108208 L1512.288459458198,-2328.352196929288 L1512.3675364019994,-2328.3177277838017 L1512.4531768313736,-2328.284285710941 L1512.545174431025,-2328.251951275587 L1512.6433075706784,-2328.2208023742282 L1512.7473398390048,-2328.1909140472953 L1512.8570206131571,-2328.1623582983866 L1512.9720856625443,-2328.1352039208014 L1513.0922577853833,-2328.1095163318146 L1513.2172474765046,-2328.0853574150774 L1513.3467536247945,-2328.0627853715364 L1513.4804642385982,-2328.041854579222 L1513.6180571973355,-2328.0226154622464 L1513.759201027517,-2328.0051143693267 L1513.9035557012933,-2327.989393462129 L1514.050773455611,-2327.975490613696 L1514.2004996300057,-2327.963439317207 L1514.352373521008,-2327.9532686052908 L1514.5060292511125,-2327.9450029800832 L1514.8172021473436,-2327.9342620027633 L1515.1310215536034,-2327.9313198267305 L1515.4444652174586,-2327.9362047867476 L1515.7545145050808,-2327.9488698379796 L1515.9073310836427,-2327.95808468134 L1516.0581834723398,-2327.96919300906 L1516.206708254555,-2327.9821680602054 L1516.3525476210787,-2327.996978576741 " />
			<path d="M1516.3528585207587,-178.19234454943643 L1545.3978414688245,-181.35410622076273 " />
			<path d="M1516.3525476210787,-2327.996978576741 L1545.3975305691445,-2331.1587402480677 " />
			<path d="M1545.3978414688247,-181.35410622076273 L1545.6086337304646,-181.37939925584928 L1545.811616817286,-181.40852321905666 L1546.0057133869645,-181.441323533574 L1546.1898932627855,-181.47762611018214 L1546.3631789013552,-181.51723827124042 L1546.5246505809591,-181.55994977333228 L1546.6734512830278,-181.60553392314225 L1546.808791240804,-181.65374878064125 L1546.9299521310672,-181.70433844319496 L1546.9850114315664,-181.73044037173776 L1547.036290886667,-181.75703440377896 L1547.0837224317506,-181.7840852403348 L1547.127243109634,-181.81155697609248 L1547.166795154135,-181.83941314706817 L1547.2023260667465,-181.86761677900674 L1547.23378868632,-181.8961304364586 L1547.2611412516624,-181.9249162724689 L1547.2843474569681,-181.9539360788127 L1547.3033765000084,-181.9831513367099 L1547.3182031230153,-182.01252326795225 L1547.3288076462084,-182.04201288637466 L1547.3351759939144,-182.07158104960266 L1547.3372997132522,-182.10118851100708 " />
			<path d="M1547.3372997132522,-182.10118851100708 L1547.3362751566494,-182.12175484179275 L1547.3332021488604,-182.14230800271406 L1547.3209199613345,-182.18332218728554 L1547.3004846050378,-182.22412602846012 L1547.2719484143868,-182.26461502866022 L1547.2353844698248,-182.30468549660793 L1547.190886410664,-182.34423481287558 L1547.1385681952784,-182.38316169269132 L1547.0785638092589,-182.42136644532695 " />
			<path d="M1545.3975305691447,-2331.1587402480677 L1545.5359484869953,-2331.1748081387436 L1545.671202180198,-2331.1925294668704 L1545.802985726375,-2331.211864149618 L1545.93100105207,-2331.2327684550046 L1546.0549586069435,-2331.25519510081 L1546.1745780186884,-2331.2790933615224 L1546.2895887271895,-2331.3044091830716 L1546.399730596486,-2331.3310853050875 L1546.5047545031584,-2331.3590613904194 L1546.604422899806,-2331.3882741616035 L1546.6985103523411,-2331.4186575439903 L1546.7868040498863,-2331.450142815193 L1546.869104286117,-2331.482658760528 L1546.945224910967,-2331.5161318340893 L1547.0149937516696,-2331.5504863251003 L1547.0782530021854,-2331.5856445291565 " />
			<path d="M1546.007327739547,-2332.8607027580356 L1479.3542750554095,-2325.516195898551 " />
			<path d="M1161.4327952512385,-2290.4843947256245 L1094.0490755489855,-2283.059375590851 " />
			<path d="M788.2325164569145,-2249.3614168996014 L720.5085353496468,-2241.898904324955 " />
			<path d="M414.69197625757573,-2208.200945633705 L346.967995150308,-2200.738433059059 " />
			<path d="M41.151823896035,-2167.040517103697 L6.8910509870649435,-2163.265318946853 " />
			<path d="M41.4105600050809,-2167.9748043053814 L41.41055987763765,-2167.197100844797 " />
			<path d="M41.410211531766585,-41.46831351494406 L41.41020771385849,-18.170098116621855 " />
			<path d="M414.95071216151797,-2208.637361785133 L414.95071216151797,-2208.3575293662484 " />
			<path d="M414.95071216151797,-82.13090581753826 L414.95071216151797,-58.832693914119226 " />
			<path d="M788.4912523608566,-122.79350242756898 L788.4912523608566,-99.49529052414994 " />
			<path d="M1162.0317925601948,-163.45609903759964 L1162.0317925601948,-140.15788713418064 " />
			<path d="M1547.3372996891162,-182.26808209228864 L1547.337299713252,-182.10118851100708 " />

       </g>

       <!-- solid lines -->
       <g  stroke="rgb(0,0,0)" fill="none">
			<path d="M1567.168537467361,-170.5147567490511 L1514.540919177184,-201.70542304637777 " />
			<path d="M-27.574350900541738,-31.624240572203973 L-27.57332282008094,-31.748608089336226 L-27.570240255675017,-31.87155412234882 L-27.56510823551795,-31.992878125065907 L-27.557935130819384,-32.1123821971227 L-27.54873264214973,-32.229871406775075 L-27.53751578035452,-32.34515410886685 L-27.524302842069147,-32.45804225743607 L-27.50911537987387,-32.56835171245042 L-27.491978167137862,-32.67590254017132 L-27.472919157609567,-32.780519306656906 L-27.45196943981931,-32.88203136392503 L-27.429163186368566,-32.98027312830951 L-27.40453759818852,-33.07508435055569 L-27.378132843858968,-33.166310377214536 L-27.349991994086427,-33.25380240290914 L-27.32016095144838,-33.337417713061875 L-27.288688375518262,-33.41701991668655 L-27.25562560349332,-33.49247916886556 L-27.221026566454775,-33.563672382549356 L-27.18494770139694,-33.63048342933266 L-27.147447859168746,-33.69280332887989 L-27.108588208477876,-33.75053042669088 L-27.06843213611404,-33.80357055991689 L-27.02704514355421,-33.851837210956475 L-26.984494740118397,-33.895251648580576 L-26.94085033285033,-33.93374305635675 L-26.8961831133026,-33.96724864816294 L-26.850565941410952,-33.99571377060254 L-26.804073226647184,-34.01909199215344 L-26.756780806644453,-34.03734517890585 L-26.70876582349304,-34.05044355676533 L-26.660106597908296,-34.058365760019406 " />
			<path d="M-26.660106597908285,-34.058365760019406 L-26.617741756252528,-34.061029970656335 L-26.57500914241363,-34.05984155334685 L-26.531960464783868,-34.05480194612956 L-26.488647814206974,-34.04591724715675 L-26.44512360094586,-34.03319820731536 L-26.40144049126385,-34.016660217217904 L-26.357651343696098,-33.99632328857914 L-26.313809145088403,-33.972212030001025 " />
			<path d="M1513.2803774217307,-199.35745158858074 L1513.2814055021913,-199.481819105713 L1513.2844880665973,-199.60476513872558 L1513.2896200867544,-199.72608914144269 L1513.296793191453,-199.84559321349946 L1513.3059956801226,-199.96308242315183 L1513.3172125419178,-200.0783651252436 L1513.330425480203,-200.19125327381283 L1513.3456129423985,-200.30156272882718 L1513.3627501551346,-200.40911355654808 L1513.3818091646629,-200.51373032303368 L1513.402758882453,-200.6152423803018 L1513.4255651359038,-200.71348414468628 L1513.4501907240838,-200.80829536693244 L1513.4765954784134,-200.8995213935913 L1513.5047363281858,-200.9870134192859 L1513.5345673708239,-201.07062872943862 L1513.566039946754,-201.1502309330633 L1513.599102718779,-201.2256901852423 L1513.6337017558176,-201.29688339892613 L1513.6697806208754,-201.36369444570943 L1513.7072804631036,-201.42601434525665 L1513.7461401137944,-201.48374144306763 L1513.7862961861583,-201.53678157629366 L1513.8276831787182,-201.58504822733323 L1513.870233582154,-201.62846266495734 L1513.913877989422,-201.66695407273352 L1513.9585452089698,-201.7004596645397 L1514.0041623808613,-201.72892478697932 L1514.0506550956252,-201.7523030085302 L1514.0979475156278,-201.7705561952826 L1514.1459624987792,-201.7836545731421 L1514.194621724364,-201.79157677639617 " />
			<path d="M1514.194621724364,-201.79157677639617 L1514.2369865660198,-201.7942409870331 L1514.2797191798586,-201.7930525697236 L1514.3227678574885,-201.78801296250631 L1514.3660805080654,-201.77912826353352 L1514.4096047213266,-201.76640922369214 L1514.4532878310085,-201.74987123359466 L1514.4970769785762,-201.7295343049559 L1514.540919177184,-201.70542304637777 " />
			<path d="M1567.168537467361,-170.5147567490511 L1567.2303893196936,-170.47437105401488 L1567.2920921654966,-170.42662639719651 L1567.3534973572093,-170.37163779965618 L1567.414456964347,-170.3095377337418 L1567.4748241298767,-170.24047580395145 L1567.5344534240085,-170.16461838652316 L1567.5932011945504,-170.0821482286198 L1567.6509259129773,-169.9932640080753 L1567.7074885153866,-169.8981798547623 L1567.7627527375146,-169.79712483473452 L1567.8165854430097,-169.69034239838658 L1567.868856944169,-169.57808979396066 L1567.9194413143682,-169.460637447813 L1567.9682166914283,-169.3382683129331 L1568.015065571194,-169.21127718728516 L1568.0598750906108,-169.07997000361394 L1568.102537299621,-168.94466309242605 L1568.1429494212266,-168.80568241992205 L1568.181014099087,-168.66336280271528 L1568.2166396320588,-168.5180471012293 L1568.2497401951132,-168.37008539371718 L1568.2802360460942,-168.21983413289215 L1568.3080537178257,-168.06765528720206 L1568.3331261951,-167.91391546881547 L1568.3553930761234,-167.75898505042085 L1568.3748007180288,-167.60323727296645 L1568.3913023661073,-167.44704734649005 L1568.4048582664432,-167.29079154620513 L1568.415435761685,-167.134846306021 L1568.4230093697206,-166.9795873116804 L1568.4275608450646,-166.82538859569985 L1568.4290792228142,-166.6726216362923 " />
			<path d="M1568.4290792228142,-166.67262163629226 L1568.4290792228142,-136.10897044417277 " />
			<path d="M26.97975573287508,33.89971891466594 L26.94212831190273,33.93269873212977 L26.903740596367708,33.96198120824042 L26.864639037139145,33.98753090987957 L26.82487094886929,34.00931692075459 L26.78448445274061,34.027312878808615 L26.74352841823702,34.041497008119805 L26.702052404009578,34.05185214525124 L26.66010659790829,34.058365760019406 " />
			<path d="M26.660106597908285,34.058365760019406 L26.617741756252528,34.061029970656335 L26.57500914241363,34.05984155334685 L26.531960464783868,34.05480194612956 L26.488647814206974,34.04591724715675 L26.44512360094586,34.033198207315365 L26.40144049126385,34.016660217217904 L26.357651343696098,33.99632328857914 L26.31380914508841,33.972212030001025 " />
			<path d="M1568.4290792228142,-136.10897044417277 L1568.4280511423535,-135.98460292704053 L1568.4249685779475,-135.86165689402793 L1568.4198365577904,-135.74033289131083 L1568.412663453092,-135.62082881925406 L1568.4034609644223,-135.50333960960168 L1568.392244102627,-135.3880569075099 L1568.3790311643418,-135.27516875894068 L1568.3638437021464,-135.16485930392633 L1568.3467064894103,-135.05730847620543 L1568.327647479882,-134.95269170971983 L1568.3066977620917,-134.85117965245172 L1568.283891508641,-134.75293788806724 L1568.259265920461,-134.65812666582107 L1568.2328611661314,-134.5669006391622 L1568.204720316359,-134.47940861346763 L1568.174889273721,-134.3957933033149 L1568.1434166977908,-134.3161910996902 L1568.1103539257658,-134.2407318475112 L1568.0757548887273,-134.1695386338274 L1568.0396760236695,-134.1027275870441 L1568.0021761814412,-134.04040768749687 L1567.9633165307505,-133.98268058968588 L1567.9231604583865,-133.92964045645985 L1567.8817734658267,-133.88137380542028 L1567.8392230623908,-133.83795936779617 L1567.7955786551229,-133.79946796002 L1567.750911435575,-133.76596236821382 L1567.7052942636835,-133.7374972457742 L1567.6588015489197,-133.71411902422332 L1567.611509128917,-133.6958658374709 L1567.5634941457656,-133.68276745961143 L1567.5148349201809,-133.67484525635734 " />
			<path d="M1567.5148349201809,-133.67484525635734 L1567.472470078525,-133.6721810457204 L1567.4297374646862,-133.6733694630299 L1567.3866887870563,-133.6784090702472 L1567.3433761364795,-133.68729376922 L1567.2998519232183,-133.70001280906138 L1567.2561688135363,-133.71655079915885 L1567.2123796659687,-133.7368877277976 L1567.168537467361,-133.7609989863757 " />
			<path d="M26.31380914508841,33.97221203000102 L-26.313809145088403,2.781545732674344 " />
			<path d="M1567.168537467361,-133.7609989863757 L1514.540919177184,-164.9516652837024 " />
			<path d="M-26.313809145088403,2.7815457326743456 L-26.375660997421097,2.741160037638139 L-26.43736384322394,2.693415380819759 L-26.498769034936867,2.638426783279419 L-26.55972864207457,2.576326717365027 L-26.62009580760403,2.5072647875746936 L-26.679725101735947,2.431407370146393 L-26.73847287227785,2.348937212243037 L-26.7961975907048,2.2600529916985455 L-26.852760193114026,2.1649688383855494 L-26.90802441524202,2.063913818357769 L-26.961857120737104,1.9571313820098242 L-27.01412862189655,1.8448787775839137 L-27.064712992095625,1.7274264314362666 L-27.113488369155853,1.605057296556364 L-27.16033724892167,1.4780661709084024 L-27.205146768338253,1.3467589872371757 L-27.247808977348466,1.2114520760492986 L-27.288221098954047,1.0724714035453087 L-27.326285776814355,0.9301517863385371 L-27.361911309786358,0.7848360848525591 L-27.395011872840698,0.6368743773404081 L-27.425507723821706,0.48662311651539947 L-27.45332539555325,0.3344442708253137 L-27.47839787282759,0.1807044524387108 L-27.500664753850877,0.025774034044102057 L-27.520072395756387,-0.12997374341029816 L-27.536574043834854,-0.28616366988670805 L-27.550129944170685,-0.4424194701716242 L-27.560707439412614,-0.5983647103557684 L-27.568281047448124,-0.7536237046963474 L-27.572832522792087,-0.907822420676913 L-27.574350900541738,-1.0605893800844308 " />
			<path d="M1514.540919177184,-164.95166528370243 L1514.4790673248513,-164.99205097873863 L1514.4173644790483,-165.039795635557 L1514.3559592873355,-165.09478423309733 L1514.2949996801979,-165.15688429901172 L1514.2346325146682,-165.22594622880206 L1514.1750032205364,-165.30180364623035 L1514.1162554499945,-165.38427380413373 L1514.0585307315675,-165.4731580246782 L1514.0019681291583,-165.5682421779912 L1513.9467039070303,-165.669297198019 L1513.8928712015352,-165.77607963436694 L1513.8405997003758,-165.88833223879286 L1513.7900153301766,-166.0057845849405 L1513.7412399531165,-166.1281537198204 L1513.6943910733507,-166.25514484546835 L1513.649581553934,-166.38645202913958 L1513.6069193449239,-166.52175894032746 L1513.5665072233182,-166.66073961283146 L1513.528442545458,-166.80305923003823 L1513.492817012486,-166.9483749315242 L1513.4597164494317,-167.09633663903634 L1513.4292205984507,-167.24658789986137 L1513.4014029267191,-167.39876674555146 L1513.3763304494448,-167.55250656393804 L1513.3540635684215,-167.70743698233267 L1513.334655926516,-167.86318475978706 L1513.3181542784375,-168.01937468626346 L1513.3045983781017,-168.17563048654839 L1513.2940208828597,-168.33157572673252 L1513.2864472748242,-168.4868347210731 L1513.2818957994803,-168.64103343705366 L1513.2803774217307,-168.7938003964612 " />
			<path d="M-27.57435090054174,-31.624240572203973 L-27.57435090054174,-1.0605893800844584 " />
			<path d="M1513.2803774217307,-199.35745158858072 L1513.2803774217307,-168.79380039646122 " />
			<path d="M1546.8318843699574,-2369.7887596575297 L1514.2265818431736,-2389.401822028384 " />
			<path d="M-27.30472682577107,-2217.348046584331 L-27.303609710292022,-2217.4718116832155 L-27.300448978234595,-2217.594145985631 L-27.295249747750855,-2217.714851396467 L-27.288020437919606,-2217.8337324582685 L-27.278772755113422,-2217.9505966677343 L-27.267521674042605,-2218.0652547874392 L-27.25428541350673,-2218.1775211522654 L-27.239085406893064,-2218.2872139700457 L-27.221946267469647,-2218.394155615942 L-27.20289574852917,-2218.498172920069 L-27.18196469844826,-2218.599097447909 L-27.159187010734932,-2218.696765773056 L-27.134599569145024,-2218.791019741851 L-27.108242187956616,-2218.8817067294785 L-27.080157547499024,-2218.968679887112 L-27.05039112504082,-2219.051798379705 L-27.018991121148822,-2219.130927614044 L-26.98600838163722,-2219.205939456695 L-26.9514963152333,-2219.276712441487 L-26.915510807093064,-2219.3431319662036 L-26.878110128306755,-2219.405090478158 L-26.83935484154089,-2219.4624876483495 L-26.799307702969525,-2219.515230533929 L-26.758033560653637,-2219.5632337286975 L-26.715599249533064,-2219.606419501406 L-26.67207348320115,-2219.6447179216248 L-26.627526742637304,-2219.6780669729806 L-26.5820311620776,-2219.7064126535797 L-26.535660412208316,-2219.7297090634534 L-26.488489580871473,-2219.7479184788817 L-26.440595051475608,-2219.7610114134823 L-26.392054379308657,-2219.768966665954 " />
			<path d="M-26.392054379308647,-2219.768966665954 L-26.3489119156524,-2219.7717061877556 L-26.305384842602862,-2219.7704619088768 L-26.261527629723094,-2219.765235386402 L-26.21739515971149,-2219.7560331607756 L-26.17304265972187,-2219.7428667476165 L-26.128525632252455,-2219.7257526233093 L-26.083899785690356,-2219.7047122043837 L-26.039220964598346,-2219.6797718207163 " />
			<path d="M1512.9610759820007,-2387.0700967919984 L1512.9621930974797,-2387.193861890883 L1512.9653538295372,-2387.3161961932983 L1512.9705530600208,-2387.4369016041346 L1512.977782369852,-2387.555782665936 L1512.9870300526584,-2387.672646875402 L1512.998281133729,-2387.7873049951068 L1513.011517394265,-2387.899571359933 L1513.0267174008786,-2388.0092641777132 L1513.0438565403022,-2388.1162058236096 L1513.0629070592427,-2388.2202231277365 L1513.0838381093236,-2388.3211476555766 L1513.1066157970367,-2388.4188159807236 L1513.1312032386268,-2388.5130699495185 L1513.157560619815,-2388.603756937146 L1513.1856452602726,-2388.6907300947796 L1513.215411682731,-2388.7738485873724 L1513.246811686623,-2388.8529778217116 L1513.2797944261345,-2388.9279896643625 L1513.3143064925384,-2388.9987626491543 L1513.3502920006786,-2389.065182173871 L1513.387692679465,-2389.1271406858255 L1513.4264479662309,-2389.184537856017 L1513.466495104802,-2389.2372807415964 L1513.5077692471182,-2389.285283936365 L1513.5502035582388,-2389.3284697090735 L1513.5937293245706,-2389.3667681292923 L1513.6382760651345,-2389.400117180648 L1513.6837716456942,-2389.428462861247 L1513.7301423955635,-2389.451759271121 L1513.7773132269003,-2389.4699686865492 L1513.825207756296,-2389.48306162115 L1513.8737484284632,-2389.4910168736214 " />
			<path d="M1513.8737484284632,-2389.4910168736214 L1513.9168908921192,-2389.493756395423 L1513.960417965169,-2389.4925121165443 L1514.0042751780486,-2389.4872855940694 L1514.0484076480602,-2389.478083368443 L1514.0927601480498,-2389.464916955284 L1514.1372771755193,-2389.447802830977 L1514.1819030220813,-2389.426762412051 L1514.2265818431733,-2389.401822028384 " />
			<path d="M1546.8318843699574,-2369.7887596575297 L1546.8938618386067,-2369.747752749283 L1546.9556843453227,-2369.6993968075376 L1547.017202954272,-2369.6438083259923 L1547.0782694617374,-2369.581121222169 L1547.1387367531534,-2369.5114865147907 L1547.1984591575185,-2369.435071959967 L1547.25729279833,-2369.3520616470537 L1547.3150959401935,-2369.2626555551656 L1547.3717293302773,-2369.1670690714086 L1547.4270565337847,-2369.0655324719946 L1547.4809442626358,-2368.958290367486 L1547.5332626965721,-2368.8456011135045 L1547.5838857959036,-2368.7277361883343 L1547.6326916051498,-2368.6049795389035 L1547.6795625468417,-2368.477626896733 L1547.7243857047752,-2368.345985065492 L1547.7670530960365,-2368.2103711818836 L1547.8074619311433,-2368.0711119516304 L1547.845514861672,-2367.9285428624166 L1547.8811202147804,-2367.783007375666 L1547.9141922140536,-2367.6348560991128 L1547.9446511861493,-2367.484445942159 L1547.972423752735,-2367.3321392560465 L1547.997443007266,-2367.1783029609237 L1548.019648676166,-2367.0233076618997 L1548.0389872640344,-2366.8675267562257 L1548.0554121825185,-2366.7113355337483 L1548.0688838625513,-2366.5551102728027 L1548.0793698496757,-2366.399227333727 L1548.08684488223,-2366.244062252175 L1548.0912909522062,-2366.0899888344184 L1548.0926973486323,-2365.9373782568164 " />
			<path d="M1548.0926973486323,-2365.937378256817 L1548.0695262412994,-2335.4082892361434 " />
			<path d="M1548.0695262412992,-2335.4082892361434 L1548.0684091258202,-2335.284524137259 L1548.0652483937627,-2335.1621898348435 L1548.060049163279,-2335.041484424007 L1548.0528198534478,-2334.922603362206 L1548.0435721706415,-2334.80573915274 L1548.0323210895708,-2334.691081033035 L1548.019084829035,-2334.578814668209 L1548.0038848224212,-2334.4691218504286 L1547.9867456829977,-2334.3621802045323 L1547.9676951640572,-2334.2581629004053 L1547.9467641139763,-2334.157238372565 L1547.9239864262631,-2334.059570047418 L1547.899398984673,-2333.9653160786233 L1547.8730416034848,-2333.8746290909958 L1547.8449569630272,-2333.787655933362 L1547.815190540569,-2333.7045374407694 L1547.7837905366769,-2333.62540820643 L1547.7508077971654,-2333.5503963637793 L1547.7162957307614,-2333.4796233789875 L1547.6803102226213,-2333.4132038542707 L1547.6429095438348,-2333.3512453423164 L1547.604154257069,-2333.293848172125 L1547.5641071184978,-2333.2411052865455 L1547.5228329761817,-2333.193102091777 L1547.480398665061,-2333.1499163190683 L1547.4368728987292,-2333.1116178988495 L1547.3923261581654,-2333.0782688474937 L1547.3468305776057,-2333.0499231668946 L1547.3004598277364,-2333.026626757021 L1547.2532889963995,-2333.0084173415926 L1547.2053944670038,-2332.995324406992 L1547.1568537948367,-2332.9873691545204 " />
			<path d="M1547.1568537948367,-2332.9873691545204 L1547.1137113311806,-2332.9846296327187 L1547.070184258131,-2332.9858739115975 L1547.0263270452513,-2332.9911004340725 L1546.9821945752396,-2333.0003026596987 L1546.93784207525,-2333.013469072858 L1546.8933250477805,-2333.030583197165 L1546.8486992012186,-2333.0516236160906 L1546.8040203801265,-2333.076563999758 " />
			<path d="M1546.8040203801265,-2333.0765639997585 L1514.1987178533427,-2352.6896263706126 " />
			<path d="M-26.572157075603045,-2183.5296123894236 L-26.613721499362413,-2183.6012851822434 L-26.654565504420916,-2183.6761833518813 L-26.694635492059096,-2183.7542086110607 L-26.733878879284106,-2183.835258568894 L-26.80968101175402,-2184.0060033103014 L-26.881574138260394,-2184.1875216113626 L-26.949181007323023,-2184.3788609742373 L-27.012146859138504,-2184.5790173661144 L-27.0701412871443,-2184.7869404877683 L-27.122859971791762,-2185.001539284891 L-27.170026277430402,-2185.2216876732814 L-27.211392703923796,-2185.4462304478548 L-27.246742185380064,-2185.6739893444537 L-27.27588922918188,-2185.9037692226657 L-27.298680889339103,-2186.1343643371943 L-27.314997569056487,-2186.364564664876 L-27.32475364830504,-2186.5931622541516 L-27.327897933103976,-2186.8189575636575 " />
			<path d="M1514.198717853343,-2352.6896263706126 L1514.1367403846937,-2352.7306332788594 L1514.0749178779777,-2352.7789892206047 L1514.0133992690282,-2352.83457770215 L1513.952332761563,-2352.8972648059735 L1513.891865470147,-2352.9668995133516 L1513.8321430657818,-2353.0433140681753 L1513.7733094249704,-2353.1263243810886 L1513.7155062831068,-2353.2157304729767 L1513.658872893023,-2353.3113169567337 L1513.6035456895156,-2353.4128535561476 L1513.5496579606645,-2353.5200956606564 L1513.4973395267282,-2353.632784914638 L1513.4467164273967,-2353.750649839808 L1513.3979106181505,-2353.8734064892387 L1513.3510396764586,-2354.0007591314093 L1513.3062165185252,-2354.13240096265 L1513.2635491272638,-2354.2680148462587 L1513.223140292157,-2354.407274076512 L1513.1850873616283,-2354.5498431657256 L1513.14948200852,-2354.6953786524764 L1513.1164100092467,-2354.84352992903 L1513.085951037151,-2354.9939400859835 L1513.0581784705653,-2355.1462467720958 L1513.0331592160344,-2355.3000830672186 L1513.0109535471342,-2355.4550783662426 L1512.991614959266,-2355.6108592719165 L1512.9751900407819,-2355.767050494394 L1512.961718360749,-2355.9232757553395 L1512.9512323736246,-2356.079158694415 L1512.9437573410703,-2356.2343237759674 L1512.939311271094,-2356.388397193724 L1512.937904874668,-2356.541007771326 " />
			<path d="M-27.30472682577107,-2217.3480465843304 L-27.327897933103976,-2186.818957563657 " />
			<path d="M1512.961075982001,-2387.070096791999 L1512.937904874668,-2356.5410077713254 " />
			<path d="M-24.633051028193417,-35.039478400368516 L-24.843843276030746,-35.014185440266814 L-25.04682635017305,-34.985061552156765 L-25.24092290850715,-34.952261312429975 L-25.425102774516105,-34.91595880988539 L-25.598388404989038,-34.876346721744824 L-25.75986007837721,-34.83363529100971 L-25.908660776258944,-34.78805121058653 L-26.04400073200481,-34.73983642010369 L-26.165161622500737,-34.68924682180568 L-26.22022092399242,-34.663144924237194 L-26.27150038068138,-34.636550922339985 L-26.318931927955873,-34.60950011505305 L-26.362452608638524,-34.58202840764557 L-26.402004656551117,-34.554172264058856 L-26.437535573189205,-34.525968658506756 L-26.46899819740479,-34.49745502639881 L-26.496350768004593,-34.46866921465121 L-26.51955697918082,-34.43964943145152 L-26.53858602870084,-34.410434195544 L-26.553412658791835,-34.38106228510253 L-26.56401718966611,-34.35157268625939 L-26.57038554564261,-34.322004541357835 L-26.57250927382996,-34.29239709699744 " />
			<path d="M-26.57250927382996,-34.29239709699743 L-26.57076203570042,-34.26554109652845 L-26.565522220540412,-34.23871442295321 L-26.556795550367386,-34.211946371712344 L-26.54459155493713,-34.185266174229355 L-26.528923561337066,-34.158702965989086 L-26.509808679432673,-34.132285754721025 L-26.4872677831831,-34.10604338872209 L-26.46132548784622,-34.08000452535352 " />
			<path d="M-24.632698736971005,-2184.8441845891284 L-24.843490984808334,-2184.8188916290264 L-25.046474058950636,-2184.7897677409164 L-25.24057061728474,-2184.7569675011896 L-25.424750483293693,-2184.720664998645 L-25.598036113766625,-2184.6810529105046 L-25.759507787154796,-2184.638341479769 L-25.90830848503653,-2184.5927573993463 L-26.0436484407824,-2184.5445426088636 L-26.164809331278324,-2184.4939530105653 L-26.21986863277001,-2184.467851112997 L-26.27114808945897,-2184.4412571110997 L-26.31857963673346,-2184.414206303813 L-26.36210031741611,-2184.3867345964054 L-26.401652365328705,-2184.3588784528188 L-26.437183281966792,-2184.3306748472664 L-26.468645906182378,-2184.302161215159 L-26.49599847678218,-2184.273375403411 L-26.519204687958407,-2184.244355620211 L-26.53823373747843,-2184.2151403843036 L-26.553060367569422,-2184.1857684738625 L-26.563664898443697,-2184.1562788750193 L-26.570033254420196,-2184.126710730118 L-26.57215698260755,-2184.0971032857574 " />
			<path d="M8.408196948208001,-37.875804906337706 L8.331290969164847,-37.90643165014748 L8.24907423985402,-37.93615499836643 L8.161710980855425,-37.964915581258964 L8.069375692482753,-37.99265595212729 L7.9722528062346685,-38.01932070205611 L7.870536316409357,-38.04485657058697 L7.764429392618223,-38.069212552101256 L7.654143973972722,-38.092339997699376 L7.421926699417195,-38.13472704727351 L7.175738899410046,-38.17167923102297 L6.91754654439257,-38.2029014616161 L6.64941146902155,-38.228144409141116 L6.373474907072334,-38.247206492168374 L6.091940392288059,-38.25993548750981 L5.807056161722932,-38.26622974582053 L5.521097202100363,-38.266039003335294 L5.23634708255751,-38.25936478325746 L4.955079718853641,-38.24626038359528 L4.679541214667033,-38.226830451542405 L4.4119319249895215,-38.201230147801745 " />
			<path d="M8.614090067100172,-2187.5790319009475 L8.548695333404538,-2187.615303801077 L8.476372378517443,-2187.65071698364 L8.39729543477195,-2187.6851861351784 L8.311655005451868,-2187.718628216486 L8.219657405852644,-2187.750962662661 L8.121524266249748,-2187.7821115771894 L8.017491997971934,-2187.8119999196083 L7.907811223865631,-2187.8405556862826 L7.792746174522564,-2187.8677100838695 L7.672574051725109,-2187.8933976950466 L7.54758436064292,-2187.9175566361087 L7.4180782123896165,-2187.94012870605 L7.284367598619738,-2187.961059526778 L7.146774639913528,-2187.980298674112 L7.005630809760226,-2187.9977997992605 L6.861276136009411,-2188.0135207404805 L6.714058381714126,-2188.0274236246473 L6.564332207339219,-2188.0394749584952 L6.412458316353224,-2188.049645709306 L6.258802586262105,-2188.0579113748495 L5.947629690048525,-2188.0686524367743 L5.633810283793427,-2188.071594701972 L5.320366619930184,-2188.066709834821 L5.010317332287531,-2188.0540448792613 L4.857500753710852,-2188.044830084503 L4.706648364995653,-2188.033721805739 L4.558123582759459,-2188.0207468037866 L4.412284216211934,-2188.0059363365617 " />
			<path d="M-24.63305102819342,-35.039478400368516 L4.411931924989487,-38.201230147801745 " />
			<path d="M-24.632698736971,-2184.844184589128 L4.412284216211907,-2188.0059363365613 " />
			<path d="M348.9074533948547,-75.70206839357584 L348.69666113972755,-75.67677539363964 L348.4936780588923,-75.64765146563703 L348.29958149457383,-75.61485118618226 L348.11540162339367,-75.57854864429744 L347.9421159886594,-75.53893651742686 L347.78064431200727,-75.49622504879234 L347.6318436119371,-75.45064093151755 L347.4965036551456,-75.40242610544364 L347.37534276480335,-75.35183647302206 L347.32028346385266,-75.32573455900496 L347.26900400802026,-75.29914054110043 L347.2215724619217,-75.27208971827125 L347.17805178273716,-75.24461799580975 L347.13849973664696,-75.2167618376798 L347.10296882215687,-75.18855821811718 L347.07150620041534,-75.16004457255268 L347.0441536326154,-75.13125874792301 L347.0209474245636,-75.10223895243557 L347.00191837849064,-75.07302370485361 L346.9870917521665,-75.0436517833693 L346.9764872253754,-75.0141621741323 L346.97011887379387,-74.98459401950242 L346.96799515030807,-74.95498656609497 " />
			<path d="M346.96799515030807,-74.95498656609496 L346.9697423432232,-74.92813094017662 L346.97498201404164,-74.90130464048286 L346.9837084410661,-74.87453696121418 L346.99591209507685,-74.84785713255778 L347.01157964973777,-74.82129428876843 L347.0306939961486,-74.79487743635393 L347.0532342615276,-74.76863542240012 L347.0791758320049,-74.74259690307008 " />
			<path d="M348.9074533948547,-2225.50673626459 L348.69666113972755,-2225.4814432646535 L348.4936780588923,-2225.4523193366513 L348.29958149457383,-2225.4195190571963 L348.11540162339367,-2225.3832165153117 L347.9421159886594,-2225.343604388441 L347.78064431200727,-2225.3008929198063 L347.6318436119371,-2225.2553088025315 L347.4965036551456,-2225.2070939764576 L347.37534276480335,-2225.156504344036 L347.32028346385266,-2225.130402430019 L347.26900400802026,-2225.1038084121146 L347.2215724619217,-2225.076757589285 L347.17805178273716,-2225.049285866824 L347.13849973664696,-2225.021429708694 L347.10296882215687,-2224.9932260891314 L347.07150620041534,-2224.964712443567 L347.0441536326154,-2224.935926618937 L347.0209474245636,-2224.90690682345 L347.00191837849064,-2224.8776915758676 L346.9870917521665,-2224.8483196543834 L346.9764872253754,-2224.8188300451466 L346.97011887379387,-2224.7892618905166 L346.96799515030807,-2224.759654437109 " />
			<path d="M381.9487072056283,-78.53839825697348 L381.87180145491243,-78.56902513982926 L381.78958491569824,-78.59874862619998 L381.70222180899333,-78.62750934578214 L381.60988663566525,-78.65524985132247 L381.5127638278898,-78.6819147333642 L381.4110473807623,-78.7074507309231 L381.3049404648078,-78.73180683787203 L381.1946550201645,-78.75493440482165 L380.96243759675406,-78.79732168299279 L380.7162495275009,-78.83427407366102 L380.45805679465866,-78.86549648639202 L380.1899212460346,-78.89073958859412 L379.91398412970693,-78.90980179661176 L379.6324489946756,-78.9225308855106 L379.3475640939975,-78.92882520469905 L379.0616044309282,-78.92863448967869 L378.7768535914455,-78.92196026344104 L378.49558550823355,-78.90885582430546 L378.2200463017554,-78.88942582029519 L377.9524363434254,-78.86382541345029 " />
			<path d="M382.1542421949365,-2228.241589383046 L382.0888474611879,-2228.277861282519 L382.01652450624914,-2228.3132744631407 L381.93744756245337,-2228.347743611457 L381.8518071330845,-2228.3811856882717 L381.7598095334381,-2228.4135201286913 L381.6616763937898,-2228.444669036217 L381.55764412546836,-2228.4745573704026 L381.44796335132037,-2228.503113127633 L381.3328983019377,-2228.5302675145876 L381.2127261791028,-2228.55595511397 L381.08773648798535,-2228.580114042103 L380.9582303396991,-2228.6026860980132 L380.8245197258987,-2228.62361690364 L380.68692676716444,-2228.6428560348404 L380.5457829369856,-2228.660357142862 L380.4014282632118,-2228.6760780660015 L380.2542105088963,-2228.6899809311794 L380.10448433450375,-2228.7020322451754 L379.9526104435029,-2228.7122029753177 L379.7989547133997,-2228.7204686194277 L379.4877818171705,-2228.7312096363967 L379.1739624109111,-2228.734151854217 L378.860518747055,-2228.7292669377234 L378.5504694594308,-2228.7166019313313 L378.39765288086755,-2228.70738711075 L378.2468004921686,-2228.696278805976 L378.0982757099513,-2228.6833037778874 L377.9524363434254,-2228.668493284464 " />
			<path d="M348.90745339485477,-75.70206839357586 L377.95243634342535,-78.8638254134503 " />
			<path d="M348.90745339485477,-2225.50673626459 L377.95243634342535,-2228.668493284464 " />
			<path d="M722.4479935941935,-116.36466500360658 L722.2372013390664,-116.33937200367038 L722.034218258231,-116.31024807566776 L721.8401216939126,-116.277447796213 L721.6559418227324,-116.24114525432817 L721.4826561879981,-116.2015331274576 L721.321184511346,-116.15882165882307 L721.1723838112758,-116.11323754154829 L721.0370438544844,-116.06502271547437 L720.915882964142,-116.0144330830528 L720.8608236631914,-115.98833116903569 L720.8095442073591,-115.96173715113116 L720.7621126612604,-115.93468632830198 L720.7185919820758,-115.90721460584048 L720.6790399359858,-115.87935844771053 L720.6435090214957,-115.85115482814791 L720.6120463997541,-115.82264118258341 L720.5846938319542,-115.79385535795375 L720.5614876239024,-115.7648355624663 L720.5424585778294,-115.73562031488434 L720.5276319515053,-115.70624839340003 L720.5170274247141,-115.67675878416303 L720.5106590731326,-115.64719062953316 L720.5085353496468,-115.6175831761257 " />
			<path d="M720.5085353496468,-115.61758317612569 L720.510282542562,-115.59072755020735 L720.5155222133803,-115.5639012505136 L720.5242486404048,-115.53713357124491 L720.5364522944155,-115.51045374258851 L720.5521198490766,-115.48389089879916 L720.5712341954874,-115.45747404638465 L720.5937744608664,-115.43123203243086 L720.6197160313436,-115.4051935131008 " />
			<path d="M722.4479935941935,-2266.1693328746205 L722.2372013390664,-2266.144039874684 L722.034218258231,-2266.114915946682 L721.8401216939126,-2266.082115667227 L721.6559418227324,-2266.045813125342 L721.4826561879981,-2266.0062009984713 L721.321184511346,-2265.963489529837 L721.1723838112758,-2265.917905412562 L721.0370438544844,-2265.869690586488 L720.915882964142,-2265.8191009540665 L720.8608236631914,-2265.7929990400494 L720.8095442073591,-2265.766405022145 L720.7621126612604,-2265.7393541993156 L720.7185919820758,-2265.7118824768545 L720.6790399359858,-2265.6840263187246 L720.6435090214957,-2265.655822699162 L720.6120463997541,-2265.6273090535974 L720.5846938319542,-2265.5985232289677 L720.5614876239024,-2265.5695034334803 L720.5424585778294,-2265.540288185898 L720.5276319515053,-2265.510916264414 L720.5170274247141,-2265.481426655177 L720.5106590731326,-2265.451858500547 L720.5085353496468,-2265.4222510471395 " />
			<path d="M720.5085353496468,-2265.4222510471395 L720.509559903461,-2265.401684719037 L720.5126329088343,-2265.381131560503 L720.5249150926526,-2265.340117379823 L720.545350446742,-2265.29931354137 L720.5738866366819,-2265.2588245427332 L720.610450582018,-2265.2187540752057 L720.6549486434186,-2265.1792047582326 L720.7072668624838,-2265.140277876606 L720.767271253589,-2265.1020731210765 " />
			<path d="M788.2325164569144,-2248.9797804691007 L788.2925208480195,-2249.01798522463 L788.3448390670848,-2249.0569121062567 L788.3893371284855,-2249.09646142323 L788.4259010738215,-2249.1365318907574 L788.4544372637614,-2249.177020889394 L788.4748726178508,-2249.217824727847 L788.487154801669,-2249.258838908527 L788.4902278070424,-2249.279392067061 L788.4912523608566,-2249.2999583951637 " />
			<path d="M788.4912523608566,-2249.2999583951637 L788.4900783029699,-2249.321973920569 L788.4865569908175,-2249.343973291286 L788.4806910082895,-2249.3659403644806 L788.4724846597627,-2249.387859021018 " />
			<path d="M788.2325164569144,-2249.620136321227 L755.6947823942752,-2268.904185993077 " />
			<path d="M755.4892474049668,-119.2009948670042 L755.412341654251,-119.23162174985998 L755.3301251150368,-119.2613452362307 L755.2427620083319,-119.29010595581286 L755.1504268350038,-119.31784646135318 L755.0533040272284,-119.34451134339491 L754.9515875801009,-119.37004734095382 L754.8454806641464,-119.39440344790275 L754.7351952195031,-119.41753101485237 L754.5029777960926,-119.4599182930235 L754.2567897268395,-119.49687068369174 L753.9985969939972,-119.52809309642274 L753.7304614453732,-119.55333619862483 L753.4545243290455,-119.57239840664248 L753.1729891940142,-119.58512749554131 L752.888104293336,-119.59142181472977 L752.6021446302667,-119.5912310997094 L752.3173937907841,-119.58455687347175 L752.0361257075722,-119.57145243433618 L751.760586501094,-119.5520224303259 L751.4929765427639,-119.526422023481 " />
			<path d="M755.6947823942751,-2268.904185993077 L755.6293876605265,-2268.94045789255 L755.5570647055878,-2268.9758710731717 L755.477987761792,-2269.010340221488 L755.3923473324231,-2269.0437822983026 L755.3003497327767,-2269.0761167387222 L755.2022165931284,-2269.107265646248 L755.098184324807,-2269.1371539804336 L754.988503550659,-2269.1657097376637 L754.8734385012763,-2269.1928641246186 L754.7532663784414,-2269.218551724001 L754.6282766873239,-2269.242710652134 L754.4987705390377,-2269.265282708044 L754.3650599252372,-2269.286213513671 L754.227466966503,-2269.3054526448714 L754.0863231363242,-2269.3229537528928 L753.9419684625504,-2269.3386746760325 L753.7947507082348,-2269.3525775412104 L753.6450245338424,-2269.3646288552063 L753.4931506428416,-2269.3747995853487 L753.3394949127384,-2269.3830652294587 L753.028322016509,-2269.3938062464276 L752.7145026102497,-2269.396748464248 L752.4010589463935,-2269.3918635477544 L752.0910096587694,-2269.3791985413623 L751.9381930802061,-2269.369983720781 L751.7873406915071,-2269.358875416007 L751.6388159092899,-2269.3459003879184 L751.4929765427639,-2269.331089894495 " />
			<path d="M722.4479935941935,-116.36466500360655 L751.492976542764,-119.52642202348099 " />
			<path d="M722.4479935941935,-2266.1693328746205 L751.492976542764,-2269.3310898944947 " />
			<path d="M1095.988533793532,-157.02726161363728 L1095.7777415384048,-157.00196861370108 L1095.5747584575695,-156.97284468569845 L1095.380661893251,-156.9400444062437 L1095.196482022071,-156.9037418643589 L1095.0231963873366,-156.8641297374883 L1094.8617247106845,-156.82141826885376 L1094.7129240106142,-156.775834151579 L1094.5775840538229,-156.7276193255051 L1094.4564231634806,-156.6770296930835 L1094.40136386253,-156.6509277790664 L1094.3500844066975,-156.62433376116186 L1094.302652860599,-156.59728293833268 L1094.2591321814143,-156.56981121587117 L1094.2195801353241,-156.54195505774123 L1094.1840492208341,-156.51375143817862 L1094.1525865990925,-156.48523779261413 L1094.1252340312926,-156.45645196798446 L1094.1020278232409,-156.427432172497 L1094.0829987771679,-156.39821692491506 L1094.0681721508438,-156.36884500343072 L1094.0575676240526,-156.33935539419372 L1094.0511992724712,-156.30978723956386 L1094.0490755489852,-156.2801797861564 " />
			<path d="M1094.0490755489852,-156.2801797861564 L1094.0508227419004,-156.25332416023807 L1094.0560624127188,-156.2264978605443 L1094.0647888397432,-156.1997301812756 L1094.076992493754,-156.1730503526192 L1094.092660048415,-156.14648750882986 L1094.1117743948257,-156.12007065641535 L1094.1343146602048,-156.09382864246155 L1094.160256230682,-156.0677901231315 " />
			<path d="M1095.988533793532,-2306.831929484651 L1095.7777415384048,-2306.8066364847145 L1095.5747584575695,-2306.7775125567123 L1095.380661893251,-2306.7447122772573 L1095.196482022071,-2306.7084097353727 L1095.0231963873366,-2306.668797608502 L1094.8617247106845,-2306.6260861398673 L1094.7129240106142,-2306.5805020225926 L1094.5775840538229,-2306.5322871965186 L1094.4564231634806,-2306.481697564097 L1094.40136386253,-2306.45559565008 L1094.3500844066975,-2306.4290016321756 L1094.302652860599,-2306.401950809346 L1094.2591321814143,-2306.374479086885 L1094.2195801353241,-2306.346622928755 L1094.1840492208341,-2306.3184193091924 L1094.1525865990925,-2306.289905663628 L1094.1252340312926,-2306.261119838998 L1094.1020278232409,-2306.232100043511 L1094.0829987771679,-2306.2028847959286 L1094.0681721508438,-2306.1735128744444 L1094.0575676240526,-2306.1440232652076 L1094.0511992724712,-2306.1144551105776 L1094.0490755489852,-2306.08484765717 " />
			<path d="M1094.0490755489852,-2306.08484765717 L1094.0501001027994,-2306.0642813290674 L1094.0531731081728,-2306.0437281705335 L1094.0654552919912,-2306.0027139898534 L1094.0858906460805,-2305.9619101514004 L1094.1144268360204,-2305.9214211527637 L1094.1509907813563,-2305.881350685236 L1094.1954888427572,-2305.841801368263 L1094.2478070618222,-2305.8028744866365 L1094.3078114529276,-2305.764669731107 " />
			<path d="M1161.773056656253,-2289.642377079131 L1161.8330610473581,-2289.6805818346606 L1161.8853792664233,-2289.7195087162872 L1161.929877327824,-2289.7590580332608 L1161.96644127316,-2289.799128500788 L1161.9949774631,-2289.8396174994245 L1162.0154128171891,-2289.8804213378776 L1162.0276950010075,-2289.9214355185577 L1162.0307680063809,-2289.9419886770916 L1162.031792560195,-2289.962555005194 " />
			<path d="M1162.031792560195,-2289.962555005194 L1162.0307680063809,-2289.983121333297 L1162.0276950010075,-2290.0036744918307 L1162.0154128171891,-2290.044688672511 L1161.9949774630998,-2290.085492510964 L1161.96644127316,-2290.1259815096005 L1161.929877327824,-2290.166051977128 L1161.8853792664231,-2290.205601294101 L1161.8330610473581,-2290.2445281757277 L1161.7730566562527,-2290.282732931257 " />
			<path d="M1161.773056656253,-2290.2827329312577 L1129.2353225936138,-2309.5667826031076 " />
			<path d="M1129.0297876043053,-159.86359147703487 L1128.9528818535894,-159.89421835989066 L1128.8706653143752,-159.92394184626136 L1128.7833022076702,-159.95270256584354 L1128.6909670343423,-159.98044307138386 L1128.5938442265667,-160.0071079534256 L1128.4921277794392,-160.0326439509845 L1128.3860208634849,-160.05700005793344 L1128.2757354188416,-160.08012762488306 L1128.043517995431,-160.1225149030542 L1127.797329926178,-160.15946729372243 L1127.5391371933356,-160.1906897064534 L1127.2710016447115,-160.21593280865554 L1126.9950645283839,-160.23499501667317 L1126.7135293933525,-160.24772410557202 L1126.4286444926745,-160.25401842476046 L1126.142684829605,-160.2538277097401 L1125.8579339901223,-160.24715348350244 L1125.5766659069104,-160.23404904436688 L1125.3011267004324,-160.21461904035658 L1125.0335167421024,-160.1890186335117 " />
			<path d="M1129.2353225936133,-2309.5667826031076 L1129.1699278598649,-2309.6030545025806 L1129.0976049049261,-2309.638467683202 L1129.0185279611303,-2309.6729368315187 L1128.9328875317615,-2309.706378908333 L1128.840889932115,-2309.7387133487528 L1128.7427567924667,-2309.7698622562784 L1128.6387245241453,-2309.799750590464 L1128.5290437499973,-2309.8283063476943 L1128.4139787006147,-2309.855460734649 L1128.2938065777796,-2309.8811483340314 L1128.1688168866622,-2309.9053072621646 L1128.0393107383761,-2309.9278793180747 L1127.9056001245756,-2309.9488101237016 L1127.7680071658413,-2309.968049254902 L1127.6268633356626,-2309.9855503629233 L1127.4825086618887,-2310.001271286063 L1127.3352909075732,-2310.015174151241 L1127.1855647331806,-2310.027225465237 L1127.0336908421798,-2310.037396195379 L1126.8800351120767,-2310.045661839489 L1126.5688622158475,-2310.056402856458 L1126.255042809588,-2310.0593450742786 L1125.941599145732,-2310.054460157785 L1125.6315498581077,-2310.0417951513928 L1125.4787332795445,-2310.0325803308115 L1125.3278808908456,-2310.0214720260374 L1125.1793561086283,-2310.008496997949 L1125.0335167421024,-2309.9936865045256 " />
			<path d="M1095.9885337935318,-157.02726161363728 L1125.0335167421024,-160.1890186335117 " />
			<path d="M1095.9885337935318,-2306.831929484651 L1125.0335167421024,-2309.993686504525 " />
			<path d="M1481.2940409438972,-198.97055787588744 L1481.0832486822574,-198.9452648408009 L1480.880265595436,-198.9161408775935 L1480.6861690257574,-198.88334056307616 L1480.5019891499364,-198.84703798646802 L1480.3287035113667,-198.80742582540975 L1480.1672318317628,-198.7647143233179 L1480.0184311296941,-198.71913017350792 L1479.8830911719178,-198.67091531600892 L1479.7619302816547,-198.6203256534552 L1479.7068709811556,-198.5942237249124 L1479.6555915260549,-198.5676296928712 L1479.6081599809713,-198.54057885631536 L1479.564639303088,-198.5131071205577 L1479.525087258587,-198.485250949582 L1479.4895563459754,-198.45704731764343 L1479.458093726402,-198.42853366019156 L1479.4307411610596,-198.39974782418128 L1479.4075349557538,-198.37072801783748 L1479.3885059127135,-198.34151275994026 L1479.3736792897066,-198.31214082869792 L1479.3630747665136,-198.2826512102755 L1479.3567064188076,-198.2530830470475 L1479.3545826994698,-198.2234755856431 " />
			<path d="M1479.3545826994698,-198.2234755856431 L1479.356329853777,-198.1966202803246 L1479.3615694010925,-198.16979430067272 L1479.370295619993,-198.14302693982603 L1479.382498981718,-198.1163474269132 L1479.3981661605744,-198.0897848951356 L1479.4172800484887,-198.06336834995494 L1479.439819773687,-198.03712663742 L1479.4657607234883,-198.01108841266776 " />
			<path d="M1481.2937300442172,-2348.775191903192 L1481.0829377825773,-2348.7498988681054 L1480.879954695756,-2348.7207749048985 L1480.6858581260774,-2348.6879745903807 L1480.5016782502564,-2348.651672013773 L1480.3283926116867,-2348.6120598527145 L1480.1669209320828,-2348.5693483506225 L1480.0181202300141,-2348.523764200813 L1479.8827802722378,-2348.4755493433136 L1479.7616193819747,-2348.42495968076 L1479.7065600814756,-2348.3988577522173 L1479.6552806263749,-2348.372263720176 L1479.6078490812913,-2348.34521288362 L1479.564328403408,-2348.3177411478623 L1479.524776358907,-2348.2898849768867 L1479.4892454462954,-2348.261681344948 L1479.457782826722,-2348.2331676874965 L1479.4304302613796,-2348.2043818514862 L1479.4072240560738,-2348.1753620451423 L1479.3881950130335,-2348.146146787245 L1479.3733683900266,-2348.116774856003 L1479.3627638668336,-2348.08728523758 L1479.3563955191275,-2348.0577170743522 L1479.3542717997898,-2348.028109612948 " />
			<path d="M1479.3542717997898,-2348.028109612948 L1479.3552963563925,-2348.0075432821623 L1479.3583693641815,-2347.986990121241 L1479.3706515517074,-2347.945975936669 L1479.3910869080041,-2347.905172095495 L1479.4196230986552,-2347.864683095295 L1479.4561870432171,-2347.824612627347 L1479.500685102378,-2347.7850633110793 L1479.5530033177636,-2347.7461364312635 L1479.613007703783,-2347.707931678628 " />
			<path d="M1547.0782530021854,-2331.5856445291565 L1547.138257377155,-2331.6238492991474 L1547.1905755812816,-2331.6627761940954 L1547.2350736290032,-2331.702325523234 L1547.2716375619755,-2331.742396001757 L1547.3001737409156,-2331.7828850102105 L1547.3206090854105,-2331.823688857296 L1547.3328912610737,-2331.86470304542 L1547.3359642629177,-2331.8852562072298 L1547.3369888135721,-2331.905822538312 " />
			<path d="M1547.3369888135721,-2331.905822538312 L1547.3359642569694,-2331.9263888690975 L1547.3328912491804,-2331.946942030019 L1547.3206090616545,-2331.9879562145907 L1547.3001737053578,-2332.028760055765 L1547.2716375147068,-2332.069249055965 L1547.2350735701448,-2332.1093195239127 L1547.190575510984,-2332.1488688401805 L1547.1382572955984,-2332.1877957199963 L1547.0782529095789,-2332.2260004726318 " />
			<path d="M1547.0785638092589,-182.42136644532695 L1514.5408297435424,-201.70541611684217 " />
			<path d="M1547.0782529095789,-2332.2260004726318 L1514.5405188438624,-2351.510050144147 " />
			<path d="M1514.5408297435424,-201.70541611684217 L1514.475435009788,-201.74168801574686 L1514.4031120548436,-201.7771011946671 L1514.3240351110423,-201.81157034015305 L1514.238394681668,-201.84501241301413 L1514.1463970820166,-201.87734684836764 L1514.0482639423633,-201.9084957497266 L1513.944231674037,-201.93838407665936 L1513.8345508998846,-201.96693982556843 L1513.7194858504974,-201.99409420315345 L1513.5993137276585,-202.01978179214044 L1513.4743240365372,-202.04394070887753 L1513.3448178882472,-202.06651275241825 L1513.2111072744435,-202.0874435447326 L1513.0735143157062,-202.1066826617086 L1512.9323704855246,-202.12418375462826 L1512.7880158117484,-202.13990466182588 L1512.6407980574306,-202.15380751025904 L1512.491071883036,-202.16585880674808 L1512.3391979920336,-202.17602951866417 L1512.1855422619292,-202.1842951438715 L1511.8743693656982,-202.1950361211914 L1511.5605499594383,-202.19797829722455 L1511.247106295583,-202.19309333720736 L1510.937057007961,-202.18042828597524 L1510.784240429399,-202.17121344261497 L1510.633388040702,-202.16010511489495 L1510.4848632584867,-202.14713006374964 L1510.339023891963,-202.13231954721374 " />
			<path d="M1514.5405188438624,-2351.510050144147 L1514.475124110108,-2351.546322043052 L1514.4028011551636,-2351.581735221972 L1514.3237242113623,-2351.616204367458 L1514.238083781988,-2351.649646440319 L1514.1460861823366,-2351.6819808756727 L1514.0479530426833,-2351.7131297770316 L1513.943920774357,-2351.7430181039645 L1513.8342400002045,-2351.771573852873 L1513.7191749508174,-2351.7987282304584 L1513.5990028279784,-2351.824415819445 L1513.4740131368571,-2351.8485747361824 L1513.3445069885672,-2351.8711467797234 L1513.2107963747635,-2351.8920775720376 L1513.0732034160262,-2351.9113166890133 L1512.9320595858446,-2351.928817781933 L1512.7877049120684,-2351.9445386891307 L1512.6404871577506,-2351.958441537564 L1512.490760983356,-2351.970492834053 L1512.3388870923536,-2351.980663545969 L1512.1852313622492,-2351.9889291711766 L1511.8740584660181,-2351.9996701484965 L1511.5602390597583,-2352.0026123245293 L1511.246795395903,-2351.9977273645122 L1510.9367461082809,-2351.98506231328 L1510.783929529719,-2351.9758474699197 L1510.6330771410219,-2351.9647391422 L1510.4845523588067,-2351.9517640910544 L1510.338712992283,-2351.9369535745186 " />
			<path d="M1481.2940409438975,-198.97055787588744 L1510.3390238919633,-202.13231954721374 " />
			<path d="M1481.2937300442172,-2348.775191903192 L1510.338712992283,-2351.9369535745186 " />
			<path d="M-26.313809145088406,-33.97221203000102 L1513.8749725893974,-201.63292993104272 " />
			<path d="M-27.57435090054174,-31.624240572203973 L1513.2803774217307,-199.35745158858074 " />
			<path d="M26.313809145088406,33.97221203000102 L1567.168537467361,-133.76099898637574 " />
			<path d="M-26.3138091450884,2.781545732674344 L1514.540919177184,-164.95166528370243 " />
			<path d="M-27.57435090054174,-1.0605893800844584 L1513.2803774217307,-168.79380039646122 " />
			<path d="M-26.03922096459835,-2219.6797718207163 L1513.5488013082575,-2389.3271373202206 " />
			<path d="M-27.30472682577107,-2217.348046584331 L1512.961075982001,-2387.070096791999 " />
			<path d="M41.15182391702259,-2167.168590702185 L346.967995150308,-2200.8665066552344 " />
			<path d="M414.69197625757573,-2208.329019229881 L720.5085353496468,-2242.0269779211303 " />
			<path d="M755.6947823942752,-2245.904154169958 L1094.0490755489855,-2283.1874491870267 " />
			<path d="M1161.2505767774574,-2290.5923896490804 L1479.3542750368879,-2325.6442694926855 " />
			<path d="M1545.8251092657486,-2332.9686976814896 L1546.8040203801265,-2333.076563999758 " />
			<path d="M8.614089937652775,-2186.7890984583596 L346.967995150308,-2224.072350728052 " />
			<path d="M382.1542421949365,-2227.9495269768795 L720.5085353496468,-2265.232821993948 " />
			<path d="M755.3217377467929,-2269.0688924139804 L1094.3442627955606,-2306.425819973475 " />
			<path d="M1127.0887736368707,-2310.033941054203 L1514.198717853343,-2352.6896263706126 " />
			<path d="M-27.327897933103976,-2186.818957563658 L1512.937904874668,-2356.541007771326 " />
			<path d="M-26.313773265418945,-34.61257492873185 L-26.313421079132436,-2183.7769253692245 " />
			<path d="M-24.63305102819342,-35.03947840036851 L-24.632698736971005,-2184.8441845891284 " />
			<path d="M41.151475571208024,-41.44014822935796 L41.15182410160579,-2168.2949822219152 " />
			<path d="M8.613737796173838,-37.89817951816232 L8.614090067100175,-2187.579031900948 " />
			<path d="M4.411931924989492,-38.20123014780174 L4.4122842162119085,-2188.0059363365617 " />
			<path d="M347.2267310542503,-75.27516449215821 L347.2267310542503,-2224.4394765110455 " />
			<path d="M348.9074533948547,-75.70206839357584 L348.9074533948547,-2225.5067362645896 " />
			<path d="M414.69197625757573,-82.10274053811526 L414.69197625757573,-2208.957539711196 " />
			<path d="M382.1542421949365,-78.56077223104073 L382.1542421949365,-2228.2415893830466 " />
			<path d="M377.95243634342535,-78.86382541345029 L377.95243634342535,-2228.668493284464 " />
			<path d="M720.767271253589,-115.93776110218892 L720.767271253589,-2265.1020731210765 " />
			<path d="M722.4479935941935,-116.36466500360656 L722.4479935941935,-2266.1693328746205 " />
			<path d="M788.2325164569145,-122.76533714814599 L788.2325164569145,-2249.489490495777 " />
			<path d="M755.6947823942752,-119.22336884107145 L755.6947823942752,-2268.904185993077 " />
			<path d="M751.4929765427639,-119.52642202348099 L751.4929765427639,-2269.3310898944947 " />
			<path d="M1094.3078114529274,-156.60035771221956 L1094.3078114529274,-2305.764669731107 " />
			<path d="M1095.988533793532,-157.02726161363728 L1095.988533793532,-2306.831929484651 " />
			<path d="M1161.773056656253,-163.42793375817666 L1161.773056656253,-2290.2827329312577 " />
			<path d="M1129.2353225936135,-159.88596545110212 L1129.2353225936135,-2309.566782603108 " />
			<path d="M1125.0335167421024,-160.1890186335117 L1125.0335167421024,-2309.9936865045256 " />
			<path d="M1479.6133185108565,-198.5436535947985 L1479.6130077037833,-2347.7079316786276 " />
			<path d="M1481.2940409438975,-198.97055787588747 L1481.2937300442175,-2348.775191903192 " />
			<path d="M1547.0785638092589,-182.42136644532695 L1547.0782529095789,-2332.2260004726313 " />
			<path d="M1514.5408297435422,-201.70541611684214 L1514.5405188438622,-2351.5100501441466 " />
			<path d="M1510.3390238919633,-202.13231954721374 L1510.3387129922833,-2351.936953574518 " />
			<path d="M1514.1946217243642,-201.7915767763962 L-26.660106597908293,-34.05836576001941 " />
			<path d="M1567.5148349201806,-133.67484525635734 L26.660106597908293,34.05836576001941 " />
			<path d="M1513.8737484284638,-2389.491016873622 L-26.39205437930865,-2219.768966665954 " />
			<path d="M1547.1568537948374,-2332.987369154521 L1546.007327739547,-2332.8607027580356 " />
			<path d="M1479.3542750554095,-2325.516195898551 L1161.4327952512385,-2290.4843947256245 " />
			<path d="M1094.0490755489855,-2283.059375590851 L788.2325164569145,-2249.3614168996014 " />
			<path d="M720.5085353496468,-2241.898904324955 L414.69197625757573,-2208.200945633705 " />
			<path d="M346.967995150308,-2200.738433059059 L41.151823896035,-2167.040517103697 " />
			<path d="M-26.572156982607545,-2184.0971032857565 L-26.57250927382996,-34.292397096997426 " />
			<path d="M41.41055987763765,-2167.197100844797 L41.410211531766585,-41.46831351494406 " />
			<path d="M346.967995150308,-2224.759654437109 L346.967995150308,-74.95498656609496 " />
			<path d="M414.95071216151797,-2208.3575293662484 L414.95071216151797,-82.13090581753826 " />
			<path d="M720.5085353496468,-2265.4222510471395 L720.5085353496468,-115.61758317612569 " />
			<path d="M788.4912523608566,-2249.2999583951637 L788.4912523608566,-122.79350242756898 " />
			<path d="M1094.0490755489855,-2306.08484765717 L1094.0490755489855,-156.2801797861564 " />
			<path d="M1162.0317925601948,-2289.9625550051946 L1162.0317925601948,-163.45609903759964 " />
			<path d="M1479.3542717997898,-2348.028109612948 L1479.3545826994698,-198.2234755856431 " />
			<path d="M1547.336988813572,-2331.905822538312 L1547.3372996891162,-182.26808209228864 " />

       </g>
    </g>
    
</svg>
