<?xml version="1.0" encoding="UTF-8" standalone="no"?>
<svg
   xmlns:svg="http://www.w3.org/2000/svg"
   xmlns="http://www.w3.org/2000/svg"
   width="480.0"
   height="480.0"

>
    <g transform="scale(0.15006278412019905, -0.15006278412019905)   translate(101.36849997287965,-92.65178681803899)" stroke-width="1.0"  fill="none">
       <!-- hidden lines -->
       <g  stroke="rgb(0,0,0)" fill="none" stroke-dasharray="1.0,1.0" >
			<path d="M33.14208108223651,-11.716371905558931 L-33.14208108223651,-25.99465051655543 " />
			<path d="M33.1420810822365,-11.716371905558935 L33.219983110551524,-11.695765793505918 L33.29769746605692,-11.667558868130326 L33.37503692806331,-11.63181908238602 L33.45181517903258,-11.588632536547294 L33.527847253433166,-11.538103270785767 L33.60294998333821,-11.480353014528502 L33.67694243969316,-11.415520893201148 L33.749646368189666,-11.343763093062604 L33.82088661869589,-11.265252484938644 L33.89049156720843,-11.180178207760958 L33.95829352930965,-11.088745212914892 L34.024129164134116,-10.991173770493615 L34.087839867871,-10.887698938648171 L34.149272155854604,-10.778569997311799 L34.20827803232234,-10.664049847662742 L34.2647153469495,-10.544414378772288 L34.318448137301814,-10.419951802963823 L34.369346956380895,-10.290961961484104 L34.41728918447337,-10.157755602159432 L34.46215932455251,-10.020653630776916 L34.50384928052072,-9.879986337994334 L34.54225861762245,-9.736092603640998 L34.577294804400374,-9.589319080326568 L34.60887343561173,-9.440019358324552 L34.636918435567964,-9.28855311374236 L34.66136224140774,-9.13528524203007 L34.68214596586175,-8.980584978915317 L34.69921953911736,-8.824825010882085 L34.71254182944112,-8.66838057733633 L34.72208074226876,-8.511628566621377 L34.727813297523745,-8.354946608060894 L34.72972568497837,-8.198712162216776 " />
			<path d="M34.72972568497837,-8.198712162216768 L34.72972568497837,23.16098016775202 " />
			<path d="M34.72972568497837,23.16098016775202 L34.72844180807089,23.288390676391273 L34.72459225380803,23.415041999375156 L34.718183248210146,23.540729299035835 L34.70922515678887,23.665249296854537 L34.697732467782544,23.78840060223107 L34.68372376872392,23.909984038199973 L34.66722171637786,24.029802963566485 L34.64825300009775,24.147663590941296 L34.626848298659894,24.26337530015976 L34.60304223064559,24.376750946578632 L34.576873298451325,24.487607163751722 L34.54838382601745,24.595764659994945 L34.5176198903762,24.7010485083611 L34.484631247129656,24.803288429555423 L34.44947124997827,24.902319067334304 L34.41219676443,24.997980255941812 L34.372868075829764,25.09011727915143 L34.331548791857784,25.178581120494076 L34.28830573965463,25.26322870426774 L34.24320885773933,25.34392312693885 L34.19633108289535,25.420533878561226 L34.147748232207285,25.49293705385443 L34.09753888043928,25.56101555260015 L34.04578423295325,25.624659269032545 L33.99256799437258,25.68376526991619 L33.93797623320363,25.73823796102364 L33.88209724263418,25.78798924174336 L33.82502139773366,25.83293864756796 L33.76684100928638,25.873013480232295 L33.70765017449403,25.908148925290945 L33.647544624788935,25.938288156944896 L33.58662157100424,25.96338242994794 " />
			<path d="M8.264597804265499,-2259.5731747830137 L-32.78021003633619,-2268.741667602448 " />
			<path d="M8.264597804265497,-2259.573174783014 L8.34261629704997,-2259.5519229303404 L8.420437467428572,-2259.5230758382513 L8.497873837385534,-2259.486703001918 L8.574738855923002,-2259.4428920466894 L8.65084734847874,-2259.391748516994 L8.726015963027864,-2259.333395622075 L8.800063611793934,-2259.267973939166 L8.872811907505262,-2259.1956410748326 L8.944085593145484,-2259.1165712852803 L9.013712964163052,-2259.0309550565576 L9.08152628212255,-2258.9389986456586 L9.147362178801266,-2258.840923583632 L9.21106204975756,-2258.736966141892 L9.272472436422845,-2258.627376763022 L9.331445395796734,-2258.5124194574337 L9.387838856854671,-2258.3923711673465 L9.441516962809487,-2258.2675210996053 L9.492350398402285,-2258.138170028959 L9.540216701434243,-2258.004629573467 L9.585000557788764,-2257.867221443783 L9.626594079233286,-2257.726276668127 L9.664897063331484,-2257.5821347948086 L9.699817234839726,-2257.4351430742267 L9.7312704680062,-2257.2856556223105 L9.75918098923723,-2257.1340325674255 L9.783481559642498,-2256.980639182791 L9.804113637019418,-2256.8258450065073 L9.821027516886435,-2256.6700229513026 L9.834182452225464,-2256.5135484061566 L9.843546751645043,-2256.3567983319535 L9.849097855727651,-2256.200150353353 L9.850822391377333,-2256.043981849055 " />
			<path d="M9.850822391377333,-2256.0439818490554 L9.812418182290566,-2224.7007606225066 " />
			<path d="M9.81241818229057,-2224.700760622506 L9.810670915689542,-2224.5599113323974 L9.805778596837222,-2224.4200442387905 L9.797750912792505,-2224.281436286181 L9.786603758808843,-2224.1443619258953 L9.772359206860774,-2224.0090925726636 L9.755045461940208,-2223.875896067203 L9.734696806208996,-2223.7450361458796 L9.71135353111838,-2223.6167719184946 L9.685061857629714,-2223.491357355232 L9.655873844694424,-2223.3690407837876 L9.623847286174454,-2223.250064397662 L9.589045596407246,-2223.134663776606 L9.55153768464188,-2223.023067420161 L9.511397818595011,-2222.915496295217 L9.468705477396707,-2222.812163398484 L9.42354519421744,-2222.713273334748 L9.37600638888777,-2222.619021911745 L9.32618319084221,-2222.5295957524468 L9.27417425273778,-2222.4451719255394 L9.22008255511636,-2222.3659175948173 L9.16401520249758,-2222.2919896881904 L9.10608321130602,-2222.2235345869567 L9.046401290052607,-2222.1606878359603 L8.985087612205502,-2222.1035738752053 L8.922263582200161,-2222.0523057934583 L8.858053595051919,-2222.0069851043245 L8.792584790047048,-2221.967701545247 L8.725986799000033,-2221.9345328998215 L8.658391489575466,-2221.9075448437798 L8.589932704182884,-2221.886790814949 L8.520745994961453,-2221.872311907441 L8.450968355379347,-2221.864136790285 " />
			<path d="M8.45096835537934,-2221.864136790285 L8.393096683251327,-2221.8621496359187 L8.334995158361723,-2221.8644607203278 L8.276741973988996,-2221.8710669332445 L8.218415527515598,-2221.881959384 " />
			<path d="M8.218415527515589,-2221.881959384 L-32.8263923130861,-2231.0504522034344 " />
			<path d="M-32.8263923130861,-2231.0504522034344 L-32.87430570639071,-2231.0625967134883 L-32.92217205200737,-2231.0776128622188 L-32.96994787705239,-2231.09548701175 L-33.01758979085409,-2231.1162029285288 L-33.06505452436087,-2231.139741798071 L-33.11229896943873,-2231.166082242046 L-33.15928021802273,-2231.195200337695 L-33.20595560108663,-2231.2270696395562 L-33.25228272739554,-2231.2616612034853 L-33.29821952200622,-2231.29894361294 L-33.34372426448014,-2231.338883007516 L-33.38875562677454,-2231.3814431136966 L-33.43327271077716,-2231.426585277799 L-33.47723508545047,-2231.474268501079 L-33.520602823551684,-2231.524449476968 L-33.56333653789528,-2231.577082630402 " />
			<path d="M7.839028954600989,-17.1669180584969 L-33.142047327097885,-25.994656187859253 " />
			<path d="M7.8393617502923885,-2222.9640345460157 L-33.141714531406485,-2231.7917726753776 " />
			<path d="M-33.247842492683134,-26.019452551875748 L-33.14204732709789,-25.994656187859256 " />
			<path d="M-33.5633364760199,-2231.987198151802 L-33.56165217130545,-2231.974419908459 L-33.556601026359814,-2231.9616551161575 L-33.54818835848111,-2231.9489172122885 L-33.53642302361458,-2231.9362196059365 L-33.52131740703002,-2231.9235756637663 L-33.50288741028388,-2231.9109986959493 L-33.45613535984563,-2231.8860985576125 L-33.39636368246382,-2231.861624012004 L-33.32382399648499,-2231.837678088601 L-33.23882166921089,-2231.814361591563 L-33.14171453140649,-2231.791772675378 " />
			<path d="M7.839028954600984,-17.166918058496904 L8.008023988065144,-17.134337740998948 L8.202148806464276,-17.103953239287534 L8.419533881677774,-17.076057172724006 L8.658085676596562,-17.050918195678904 L8.915506807029896,-17.02877841024354 L9.189318166770999,-17.009851034654496 L9.476882802745049,-16.994318349885447 L9.775431310308798,-16.982329944181746 L10.082088504131189,-16.974001272443857 L10.393901107799838,-16.969412544333522 L10.70786619548731,-16.968607951810903 L11.020960111768398,-16.971595243541827 L11.33016759107477,-16.978345650273905 L11.632510796350706,-16.98879416190016 L11.925077997251789,-17.00284015354189 L12.205051611699828,-17.020348354621266 " />
			<path d="M7.839361750292383,-2222.964034546016 L8.008356783756543,-2222.931454228518 L8.202481602155675,-2222.901069726807 L8.419866677369173,-2222.873173660243 L8.658418472287961,-2222.848034683198 L8.915839602721295,-2222.8258948977627 L9.189650962462398,-2222.8069675221736 L9.477215598436448,-2222.7914348374047 L9.775764106000198,-2222.7794464317008 L10.082421299822588,-2222.771117759963 L10.394233903491237,-2222.7665290318528 L10.708198991178708,-2222.76572443933 L11.021292907459797,-2222.768711731061 L11.33050038676617,-2222.775462137793 L11.632843592042105,-2222.7859106494193 L11.925410792943188,-2222.799956641061 L12.205384407391227,-2222.8174648421405 " />
			<path d="M12.205051611699846,-17.02034835462127 L39.64153490864203,-18.950170166716795 " />
			<path d="M12.205384407391245,-2222.8174648421405 L39.64186770433343,-2224.747286654236 " />
			<path d="M39.64153490864202,-18.950170166716795 L39.82059283340148,-18.963744315528515 L39.99202101850317,-18.978736792127314 L40.155079128546724,-18.995082849510474 L40.30906297541325,-19.012711895056775 L40.45330755939539,-19.031547795390097 L40.587189941086926,-19.051509205171538 L40.71013193162936,-19.072509918400055 L40.82160258969739,-19.09445924070455 L40.92112051443954,-19.11726238101955 L41.00825592447173,-19.140820860953045 L41.08263251394534,-19.165032940078483 L41.14392907767397,-19.189794055314344 L41.19188089830075,-19.214997272493694 L41.210785538092075,-19.22773071751178 L41.226280889515465,-19.2405337481736 L41.23835021836926,-19.253392537848786 L41.246980490384225,-19.26629319969001 L41.25216238529982,-19.279221801630133 L41.25389030692968,-19.292164381428083 " />
			<path d="M41.25389030692968,-19.292164381428087 L41.252206002215225,-19.304942624771222 L41.24715485726959,-19.3177074170725 L41.23874218939089,-19.330445320941642 L41.22697685452436,-19.343142927293577 L41.211871237939796,-19.35578686946411 L41.19344124119366,-19.368363837280874 L41.14668919075541,-19.39326397561765 L41.0869175133736,-19.41773852122624 L41.01437782739477,-19.44168444462901 L40.92937550012067,-19.465000941667256 L40.83226836231627,-19.48758985785228 " />
			<path d="M39.64186770433343,-2224.7472866542353 L39.82092562909288,-2224.760860803047 L39.99235381419458,-2224.7758532796456 L40.15541192423813,-2224.7921993370287 L40.309395771104654,-2224.8098283825752 L40.4536403550868,-2224.8286642829084 L40.58752273677833,-2224.84862569269 L40.71046472732077,-2224.8696264059186 L40.8219353853888,-2224.891575728223 L40.92145331013094,-2224.914378868538 L41.00858872016314,-2224.937937348471 L41.08296530963675,-2224.962149427597 L41.14426187336537,-2224.986910542833 L41.19221369399216,-2225.012113760012 L41.21111833378348,-2225.0248472050303 L41.22661368520687,-2225.037650235692 L41.23868301406067,-2225.0505090253673 L41.24731328607563,-2225.0634096872086 L41.252495180991225,-2225.0763382891487 L41.25422310262108,-2225.0892808689464 " />
			<path d="M41.25422310262108,-2225.0892808689464 L41.25253879790663,-2225.1020591122897 L41.247487652961,-2225.114823904591 L41.2390749850823,-2225.12756180846 L41.227309650215766,-2225.140259414812 L41.2122040336312,-2225.1529033569823 L41.19377403688507,-2225.1654803247993 L41.147021986446816,-2225.190380463136 L41.087250309065006,-2225.2148550087445 L41.014710623086174,-2225.2388009321476 L40.92970829581208,-2225.2621174291858 L40.83260115800768,-2225.2847063453705 " />
			<path d="M40.83226836231627,-19.48758985785229 L-0.1488079193826053,-28.31532798721464 " />
			<path d="M40.83260115800766,-2225.2847063453714 L-0.14847512369121318,-2234.1124444747334 " />
			<path d="M-0.1488079193826053,-28.315327987214637 L-0.26867613112900246,-28.339140985418126 " />
			<path d="M360.69300818541814,-41.98595613798161 L319.7119318771436,-50.81369426124741 " />
			<path d="M360.69300818541814,-2247.7830492336025 L319.7119318771436,-2256.610787356868 " />
			<path d="M319.60612661599384,-50.83849321219721 L319.7119318771436,-50.813694261247406 " />
			<path d="M319.2903099319419,-2256.8062128981646 L319.29199423846615,-2256.7934346467155 L319.2970453849837,-2256.7806698468235 L319.30545805419496,-2256.7679319358867 L319.3172233901541,-2256.755234322997 L319.3323290075909,-2256.7425903748235 L319.3507590049492,-2256.7300134015445 L319.39751105589494,-2256.7051132539245 L319.4572827328389,-2256.6806387012457 L319.52982241745406,-2256.6566927730087 L319.6148247424657,-2256.6333762733852 L319.7119318771436,-2256.610787356868 " />
			<path d="M360.6930081854181,-41.98595613798162 L360.86200321898036,-41.95337582314397 L361.05612803747096,-41.92299132934159 L361.2735131127684,-41.895095275859624 L361.51206490776286,-41.869956316942655 L361.76948603826287,-41.847816554507396 L362.043297398061,-41.82888920656893 L362.33086203408175,-41.813356553834645 L362.62941054168164,-41.801368184241376 L362.9360677355291,-41.793039552341824 L363.2478803392115,-41.78845086741407 L363.56184542690147,-41.7876463210024 L363.87493934317354,-41.79063366132857 L364.1841468224596,-41.79738411867219 L364.48649002770406,-41.80783268243887 L364.77905722856286,-41.82187872724777 L365.05903084295824,-41.839386982009025 " />
			<path d="M360.6930081854181,-2247.7830492336025 L360.86200321898036,-2247.7504689187645 L361.05612803747096,-2247.7200844249624 L361.2735131127684,-2247.6921883714804 L361.51206490776286,-2247.6670494125633 L361.76948603826287,-2247.644909650128 L362.043297398061,-2247.6259823021896 L362.33086203408175,-2247.6104496494554 L362.62941054168164,-2247.598461279862 L362.9360677355291,-2247.5901326479625 L363.2478803392115,-2247.5855439630345 L363.56184542690147,-2247.584739416623 L363.87493934317354,-2247.587726756949 L364.1841468224596,-2247.594477214293 L364.48649002770406,-2247.6049257780596 L364.77905722856286,-2247.6189718228684 L365.05903084295824,-2247.6364800776296 " />
			<path d="M365.05903084295824,-41.839386982009025 L392.4955141340912,-43.76921420231479 " />
			<path d="M365.05903084295824,-2247.6364800776296 L392.4955141340912,-2249.5663072979355 " />
			<path d="M392.4955141340912,-43.76921420231479 L392.67457206184486,-43.78278838734459 L392.84600024965937,-43.797780900053105 L393.00905836209705,-43.814126993279444 L393.1630422110043,-43.83175607424514 L393.30728679664196,-43.850592009418484 L393.441169179575,-43.870553453307295 L393.5641111709197,-43.89155419976026 L393.67558182932885,-43.913503554259634 L393.7750997539328,-43.93630672559765 L393.86223516333325,-43.959865235244905 L393.9366117516713,-43.984077342643 L393.99790831375435,-44.0088384845847 L394.0458601322234,-44.03404172678405 L394.0647647707444,-44.04677518364469 L394.0802601207705,-44.05957822568628 L394.09232944810105,-44.07243702626565 L394.10095971846806,-44.08533769852324 L394.1061416116123,-44.09826631038016 L394.1078695313493,-44.11120889958417 " />
			<path d="M394.1078695313493,-44.11120889958417 L394.1061852248251,-44.12398715103352 L394.10113407830755,-44.13675195092519 L394.09272140909627,-44.149489861861845 L394.08095607313714,-44.16218747475193 L394.06585045570034,-44.17483142292529 L394.047420458342,-44.187408396204184 L394.0006684073963,-44.21230854382438 L393.9408967304523,-44.236783096503125 L393.8683570458372,-44.26072902474025 L393.7833547208255,-44.28404552436376 L393.6862475861476,-44.306634440880956 " />
			<path d="M392.4955141340912,-2249.5663072979355 L392.67457206184486,-2249.5798814829654 L392.84600024965937,-2249.594873995674 L393.00905836209705,-2249.6112200889 L393.1630422110043,-2249.628849169866 L393.30728679664196,-2249.6476851050393 L393.441169179575,-2249.667646548928 L393.5641111709197,-2249.688647295381 L393.67558182932885,-2249.7105966498802 L393.7750997539328,-2249.7333998212184 L393.86223516333325,-2249.7569583308655 L393.9366117516713,-2249.781170438264 L393.99790831375435,-2249.8059315802057 L394.0458601322234,-2249.8311348224047 L394.0647647707444,-2249.8438682792653 L394.0802601207705,-2249.856671321307 L394.09232944810105,-2249.8695301218863 L394.10095971846806,-2249.882430794144 L394.1061416116123,-2249.895359406001 L394.1078695313493,-2249.908301995205 " />
			<path d="M394.1078695313493,-2249.908301995205 L394.1061852248251,-2249.921080246654 L394.10113407830755,-2249.933845046546 L394.09272140909627,-2249.946582957483 L394.08095607313714,-2249.959280570373 L394.06585045570034,-2249.971924518546 L394.047420458342,-2249.984501491825 L394.0006684073963,-2250.009401639445 L393.9408967304523,-2250.033876192124 L393.8683570458372,-2250.057822120361 L393.7833547208255,-2250.0811386199844 L393.6862475861476,-2250.1037275365015 " />
			<path d="M393.6862475861476,-44.306634440880956 L352.7051712778731,-53.13437256414676 " />
			<path d="M393.6862475861476,-2250.1037275365015 L352.7051712778731,-2258.931465659767 " />
			<path d="M352.70517127787315,-53.13437256414676 L352.5853156831491,-53.15818324280603 " />
			<path d="M713.5470211447982,-66.8049998826736 L672.5659448365238,-75.63273800593939 " />
			<path d="M713.5470211447982,-2272.6020929782944 L672.5659448365238,-2281.42983110156 " />
			<path d="M672.4601395753741,-75.65753695688919 L672.5659448365238,-75.6327380059394 " />
			<path d="M713.5470211447982,-66.8049998826736 L713.7160161783605,-66.77241956783595 L713.910140996851,-66.74203507403357 L714.1275260721486,-66.71413902055161 L714.3660778671431,-66.68900006163464 L714.6234989976431,-66.66686029919939 L714.8973103574411,-66.64793295126091 L715.1848749934619,-66.63240029852662 L715.4834235010618,-66.62041192893335 L715.7900806949092,-66.6120832970338 L716.1018932985917,-66.60749461210605 L716.4158583862816,-66.60669006569438 L716.7289523025537,-66.60967740602055 L717.0381597818398,-66.61642786336418 L717.3405029870843,-66.62687642713085 L717.6330701879431,-66.64092247193975 L717.9130438023384,-66.658430726701 " />
			<path d="M713.5470211447982,-2272.6020929782944 L713.7160161783605,-2272.5695126634564 L713.910140996851,-2272.5391281696543 L714.1275260721486,-2272.5112321161723 L714.3660778671431,-2272.4860931572553 L714.6234989976431,-2272.46395339482 L714.8973103574411,-2272.4450260468816 L715.1848749934619,-2272.4294933941474 L715.4834235010618,-2272.417505024554 L715.7900806949092,-2272.4091763926544 L716.1018932985917,-2272.4045877077265 L716.4158583862816,-2272.403783161315 L716.7289523025537,-2272.406770501641 L717.0381597818398,-2272.413520958985 L717.3405029870843,-2272.4239695227516 L717.6330701879431,-2272.4380155675603 L717.9130438023384,-2272.4555238223215 " />
			<path d="M717.9130438023384,-66.658430726701 L745.3495270934712,-68.58825794700678 " />
			<path d="M717.9130438023384,-2272.4555238223215 L745.3495270934712,-2274.3853510426275 " />
			<path d="M745.3495270934712,-68.58825794700678 L745.5285850212249,-68.60183213203658 L745.7000132090394,-68.6168246447451 L745.8630713214772,-68.63317073797143 L746.0170551703843,-68.65079981893712 L746.161299756022,-68.66963575411047 L746.295182138955,-68.68959719799928 L746.4181241302997,-68.71059794445223 L746.5295947887089,-68.73254729895162 L746.6291127133128,-68.75535047028963 L746.7162481227133,-68.77890897993689 L746.7906247110514,-68.80312108733499 L746.8519212731344,-68.82788222927668 L746.8998730916035,-68.85308547147602 L746.9187777301245,-68.86581892833668 L746.9342730801505,-68.87862197037826 L746.9463424074811,-68.89148077095763 L746.9549726778481,-68.90438144321523 L746.9601545709924,-68.91731005507215 L746.9618824907294,-68.93025264427615 " />
			<path d="M746.9618824907294,-68.93025264427615 L746.9601981842051,-68.9430308957255 L746.9551470376877,-68.95579569561717 L746.9467343684763,-68.96853360655383 L746.9349690325172,-68.98123121944391 L746.9198634150804,-68.99387516761728 L746.901433417722,-69.00645214089616 L746.8546813667763,-69.03135228851636 L746.7949096898324,-69.05582684119511 L746.7223700052173,-69.07977276943224 L746.6373676802056,-69.10308926905574 L746.5402605455276,-69.12567818557294 " />
			<path d="M745.3495270934712,-2274.3853510426275 L745.5308119332993,-2274.399106898844 L745.7042621864491,-2274.4143165245487 L745.8691096419283,-2274.430912556326 L746.0246241905263,-2274.4488214903677 L746.1701170584678,-2274.4679640080235 L746.3049438579905,-2274.4882553271027 L746.4285074413382,-2274.509605577374 L746.5402605455276,-2274.5319201986003 " />
			<path d="M746.942952671125,-2274.77012645408 L746.9209512001318,-2274.790144708388 L746.8906410458385,-2274.8099977947973 L746.8521019271421,-2274.8296334976003 L746.8054352059823,-2274.8490001728314 L746.750763620749,-2274.868046884096 L746.6882309634673,-2274.8867235365383 L746.6180017016093,-2274.9049810085953 L746.5402605455276,-2274.9227712811935 " />
			<path d="M746.5402605455276,-69.12567818557295 L705.5591842372532,-77.95341630883874 " />
			<path d="M705.5591842372532,-77.95341630883874 L705.4393286425292,-77.97722698749801 " />
			<path d="M1066.4010341041785,-91.6240436273656 L1025.4199577959039,-100.45178175063138 " />
			<path d="M1066.4010341041785,-2297.4211367229864 L1025.4199577959039,-2306.248874846252 " />
			<path d="M1025.3141525347542,-100.47658070158117 L1025.4199577959039,-100.45178175063138 " />
			<path d="M1066.4010341041783,-91.62404362736557 L1066.5700291377404,-91.59146331252792 L1066.764153956231,-91.56107881872553 L1066.9815390315284,-91.53318276524358 L1067.220090826523,-91.50804380632661 L1067.477511957023,-91.48590404389135 L1067.751323316821,-91.46697669595288 L1068.0388879528418,-91.45144404321859 L1068.3374364604417,-91.43945567362532 L1068.6440936542892,-91.43112704172577 L1068.9559062579717,-91.42653835679802 L1069.2698713456616,-91.42573381038635 L1069.5829652619336,-91.42872115071252 L1069.8921727412196,-91.43547160805615 L1070.1945159464642,-91.44592017182282 L1070.487083147323,-91.45996621663171 L1070.7670567617183,-91.47747447139297 " />
			<path d="M1066.4010341041783,-2297.4211367229864 L1066.5700291377404,-2297.3885564081484 L1066.764153956231,-2297.3581719143463 L1066.9815390315284,-2297.3302758608643 L1067.220090826523,-2297.305136901947 L1067.477511957023,-2297.2829971395117 L1067.751323316821,-2297.2640697915735 L1068.0388879528418,-2297.2485371388393 L1068.3374364604417,-2297.236548769246 L1068.6440936542892,-2297.2282201373464 L1068.9559062579717,-2297.2236314524184 L1069.2698713456616,-2297.222826906007 L1069.5829652619336,-2297.225814246333 L1069.8921727412196,-2297.232564703677 L1070.1945159464642,-2297.2430132674435 L1070.487083147323,-2297.2570593122523 L1070.7670567617183,-2297.2745675670135 " />
			<path d="M1070.7670567617183,-91.47747447139297 L1098.2035400528512,-93.40730169169875 " />
			<path d="M1070.7670567617183,-2297.2745675670135 L1098.2035400528512,-2299.2043947873194 " />
			<path d="M1098.2035400528512,-93.40730169169876 L1098.3825979806047,-93.42087587672856 L1098.5540261684193,-93.43586838943708 L1098.717084280857,-93.45221448266341 L1098.8710681297644,-93.4698435636291 L1099.015312715402,-93.48867949880245 L1099.149195098335,-93.50864094269126 L1099.2721370896797,-93.52964168914421 L1099.3836077480887,-93.5515910436436 L1099.4831256726927,-93.57439421498161 L1099.5702610820933,-93.59795272462887 L1099.6446376704314,-93.62216483202697 L1099.7059342325144,-93.64692597396866 L1099.7538860509835,-93.672129216168 L1099.7727906895043,-93.68486267302866 L1099.7882860395305,-93.69766571507024 L1099.8003553668611,-93.71052451564961 L1099.808985637228,-93.72342518790721 L1099.8141675303723,-93.73635379976413 L1099.8158954501093,-93.74929638896813 " />
			<path d="M1099.8158954501093,-93.74929638896813 L1099.814211143585,-93.76207464041748 L1099.8091599970676,-93.77483944030915 L1099.8007473278562,-93.78757735124582 L1099.7889819918971,-93.8002749641359 L1099.7738763744603,-93.81291891230926 L1099.7554463771019,-93.82549588558814 L1099.7086943261563,-93.85039603320834 L1099.6489226492122,-93.8748705858871 L1099.576382964597,-93.89881651412422 L1099.4913806395855,-93.92213301374773 L1099.3942735049075,-93.94472193026492 " />
			<path d="M1098.2035400528512,-2299.2043947873194 L1098.3848248926793,-2299.218150643536 L1098.5582751458292,-2299.2333602692406 L1098.7231226013082,-2299.249956301018 L1098.8786371499064,-2299.2678652350596 L1099.0241300178477,-2299.2870077527155 L1099.1589568173704,-2299.3072990717947 L1099.282520400718,-2299.3286493220658 L1099.3942735049077,-2299.3509639432923 " />
			<path d="M1099.394273504908,-93.94472193026492 L1058.4131971966333,-102.77246005353071 " />
			<path d="M1058.413197196633,-102.77246005353071 L1058.293341601909,-102.79627073219 " />
			<path d="M1430.3684748013675,-117.22478073017197 L1389.3873984901866,-126.05251885323332 " />
			<path d="M1430.3681811191886,-2323.021853168752 L1389.3871048080077,-2331.849591291813 " />
			<path d="M1389.2815844571817,-126.07732005201002 L1389.3873984901866,-126.05251885323331 " />
			<path d="M1430.3684748013677,-117.22478073017194 L1430.5374698349406,-117.19220041766224 L1430.731594653441,-117.16181593081963 L1430.9489797287479,-117.13391988886231 L1431.1875315237505,-117.10878094592383 L1431.4449526542578,-117.08664120376704 L1431.7187640140621,-117.06771388021173 L1432.006328650088,-117.05218125573045 L1432.3048771576919,-117.04019291798795 L1432.611534351542,-117.0318643212302 L1432.9233469552262,-117.02727567439683 L1433.2373120429163,-117.02647116866528 L1433.5504059591874,-117.02945855186552 L1433.8596134384711,-117.03620905386425 L1434.1619566437123,-117.04665766363703 L1434.4545238445664,-117.06070375535998 L1434.734497458956,-117.0782120574914 " />
			<path d="M1430.3681811191889,-2323.021853168752 L1430.5371761527617,-2322.9892728562418 L1430.7313009712623,-2322.9588883693996 L1430.948686046569,-2322.9309923274423 L1431.1872378415717,-2322.9058533845036 L1431.444658972079,-2322.8837136423467 L1431.7184703318833,-2322.8647863187916 L1432.0060349679093,-2322.8492536943104 L1432.304583475513,-2322.8372653565675 L1432.6112406693633,-2322.82893675981 L1432.9230532730473,-2322.8243481129766 L1433.2370183607375,-2322.823543607245 L1433.5501122770086,-2322.8265309904455 L1433.8593197562923,-2322.833281492444 L1434.1616629615335,-2322.843730102217 L1434.4542301623876,-2322.8577761939396 L1434.7342037767771,-2322.8752844960713 " />
			<path d="M1434.734497458956,-117.0782120574914 L1462.170980749453,-119.00804405022787 " />
			<path d="M1434.7342037767771,-2322.8752844960713 L1462.1706870672742,-2324.805116488808 " />
			<path d="M1462.170980749453,-119.00804405022787 L1462.3500386799285,-119.02161826722234 L1462.5214668702154,-119.03661081180154 L1462.6845249848423,-119.0529569366649 L1462.8385088356242,-119.07058604889517 L1462.9827534227936,-119.08942201482321 L1463.1166358068892,-119.10938348882154 L1463.2395777990043,-119.13038426460608 L1463.351048457772,-119.15233364752963 L1463.450566382306,-119.17513684625872 L1463.537701791195,-119.1986953821426 L1463.6120783785707,-119.22290751450639 L1463.6733749392345,-119.2476686800318 L1463.7213267558252,-119.27287194432768 L1463.7402313932353,-119.28560541164777 L1463.7557267420368,-119.29840846374046 L1463.7677960680298,-119.31126727395134 L1463.776426336947,-119.32416795541 L1463.781608228531,-119.33709657602718 L1463.7833361465987,-119.35003917354074 " />
			<path d="M1463.7833361465987,-119.35003917354074 L1463.781651838479,-119.36281743214192 L1463.7766006905802,-119.37558223873026 L1463.7681880202022,-119.38832015590218 L1463.7564226832917,-119.40101777456043 L1463.7413170651193,-119.41366172802962 L1463.7228870672411,-119.42623870612726 L1463.6761350158986,-119.45113886193731 L1463.616363339406,-119.47561342085329 L1463.5438236560726,-119.49955935335525 L1463.4588213331485,-119.5228758552596 L1463.3617142013325,-119.54546477207023 " />
			<path d="M1462.1706870672742,-2324.805116488808 L1462.3519719179963,-2324.818872378059 L1462.5254221810296,-2324.834082036831 L1462.6902696452437,-2324.8506781015526 L1462.8457842012997,-2324.8685870682616 L1462.9912770753049,-2324.887729618152 L1463.1261038793907,-2324.9080209688814 L1463.2496674657075,-2324.9293712500657 L1463.361420571192,-2324.9516859013206 " />
			<path d="M1460.7409093659478,-2325.9070218043057 L1388.965484364577,-2320.7649891568485 " />
			<path d="M1098.4253631965737,-2299.950528101222 L1024.9983358507022,-2294.690173713756 " />
			<path d="M746.5402605455278,-2274.74127735905 L672.1443228913223,-2269.4115096809232 " />
			<path d="M393.68624758614766,-2249.4626133262173 L319.2903099319419,-2244.1328456480906 " />
			<path d="M40.83260099193689,-2224.1839755399956 L8.45096835537934,-2221.8641367902846 " />
			<path d="M41.254223102621076,-2225.089280868947 L41.25422297579445,-2224.24866359273 " />
			<path d="M41.253892112518514,-31.259755176504804 L41.25389030692968,-19.292164381428087 " />
			<path d="M394.1078695313493,-2249.908301995205 L394.1078695313493,-2249.527301376182 " />
			<path d="M394.1078695313493,-56.078796421345814 L394.1078695313493,-44.11120889958417 " />
			<path d="M746.9618824907294,-80.8978401660378 L746.9618824907294,-68.93025264427615 " />
			<path d="M1099.8158954501093,-105.71688391072976 L1099.8158954501093,-93.74929638896813 " />
			<path d="M1463.7833361326689,-119.45466441217691 L1463.7833361465987,-119.35003917354074 " />

       </g>

       <!-- solid lines -->
       <g  stroke="rgb(0,0,0)" fill="none">
			<path d="M1488.6648845396799,-114.0949273524134 L1422.380722375207,-128.3732059634099 " />
			<path d="M-34.72972568497837,-23.16098016775202 L-34.72814314603416,-23.302395450008124 L-34.72339868410093,-23.442847021472407 L-34.7155017575874,-23.582054882349908 L-34.70446810955563,-23.71974151226762 L-34.690319736336114,-23.855632423530288 L-34.673084843676655,-23.98945670833038 L-34.65279779051221,-24.120947578821276 L-34.629499020468074,-24.249842898977068 L-34.60323498123269,-24.375885707178615 L-34.57405803196107,-24.49882472848406 L-34.54202633889322,-24.618414875562593 L-34.50720375939574,-24.73441773729278 L-34.46965971465787,-24.84660205405138 L-34.42946905129555,-24.954744178745223 L-34.38671189213961,-25.058628522666933 L-34.341473476505435,-25.158047985285734 L-34.29384399026258,-25.252804367116518 L-34.24391838604307,-25.342708764844012 L-34.191796193946836,-25.42758194791446 L-34.137581323121694,-25.507254715843963 L-34.08138185461335,-25.58156823553117 L-34.02330982589846,-25.65037435790193 L-33.96348100753028,-25.71353591325459 L-33.902014672342126,-25.77092698471713 L-33.83903335766893,-25.822433159271068 L-33.774662621060585,-25.86795175584161 L-33.709030789974484,-25.90739202999939 L-33.64226870594593,-25.94067535486567 L-33.57450946374664,-25.967735377860414 L-33.50588814605117,-25.98851815298065 L-33.43654155414046,-26.002982248345543 L-33.36660793517912,-26.011098828793667 " />
			<path d="M-33.366607935179104,-26.011098828793667 L-33.31072389467992,-26.013011359771596 L-33.25462765237713,-26.010904875384156 L-33.19838979369101,-26.004782026202573 L-33.1420810822365,-25.99465051655543 " />
			<path d="M1420.793077772465,-125.53953561460648 L1420.7946603114092,-125.68095089686258 L1420.7994047733425,-125.82140246832688 L1420.807301699856,-125.96061032920437 L1420.8183353478878,-126.09829695912208 L1420.8324837211073,-126.23418787038476 L1420.8497186137668,-126.36801215518484 L1420.870005666931,-126.49950302567575 L1420.8933044369753,-126.62839834583154 L1420.9195684762108,-126.75444115403307 L1420.9487454254822,-126.87738017533853 L1420.9807771185501,-126.99697032241706 L1421.0155996980477,-127.11297318414725 L1421.0531437427856,-127.22515750090585 L1421.093334406148,-127.3332996255997 L1421.1360915653038,-127.4371839695214 L1421.181329980938,-127.5366034321402 L1421.2289594671809,-127.63135981397099 L1421.2788850714003,-127.72126421169848 L1421.3310072634965,-127.80613739476892 L1421.3852221343218,-127.88581016269843 L1421.4414216028301,-127.96012368238564 L1421.499493631545,-128.0289298047564 L1421.5593224499132,-128.09209136010907 L1421.6207887851012,-128.14948243157158 L1421.6837700997744,-128.20098860612552 L1421.7481408363828,-128.24650720269608 L1421.813772667469,-128.28594747685386 L1421.8805347514974,-128.31923080172015 L1421.9482939936968,-128.34629082471488 L1422.0169153113923,-128.36707359983512 L1422.086261903303,-128.38153769520002 L1422.1561955222644,-128.38965427564813 " />
			<path d="M1422.1561955222644,-128.38965427564813 L1422.2120795627634,-128.39156680662606 L1422.2681758050662,-128.38946032223862 L1422.3244136637525,-128.38333747305705 L1422.380722375207,-128.3732059634099 " />
			<path d="M1488.6648845396799,-114.09492735241341 L1488.742786567995,-114.07432124036039 L1488.8205009235003,-114.04611431498479 L1488.8978403855067,-114.01037452924048 L1488.974618636476,-113.96718798340176 L1489.0506507108764,-113.91665871764023 L1489.1257534407816,-113.85890846138297 L1489.1997458971366,-113.79407634005561 L1489.272449825633,-113.72231853991707 L1489.3436900761392,-113.6438079317931 L1489.4132950246517,-113.55873365461542 L1489.481096986753,-113.46730065976936 L1489.5469326215775,-113.36972921734808 L1489.6106433253144,-113.26625438550263 L1489.672075613298,-113.15712544416627 L1489.7310814897658,-113.0426052945172 L1489.787518804393,-112.92296982562675 L1489.8412515947452,-112.79850724981829 L1489.8921504138243,-112.66951740833856 L1489.9400926419166,-112.5363110490139 L1489.9849627819958,-112.39920907763138 L1490.026652737964,-112.2585417848488 L1490.0650620750657,-112.11464805049546 L1490.1000982618436,-111.96787452718104 L1490.131676893055,-111.81857480517901 L1490.1597218930112,-111.66710856059683 L1490.184165698851,-111.51384068888454 L1490.2049494233052,-111.35914042576978 L1490.2220229965608,-111.20338045773656 L1490.2353452868845,-111.0469360241908 L1490.244884199712,-110.89018401347585 L1490.250616754967,-110.73350205491536 L1490.2525291424217,-110.57726760907124 " />
			<path d="M1490.2525291424217,-110.57726760907124 L1490.2525291424217,-79.21757527910245 " />
			<path d="M33.58662157100423,25.96338242994794 L33.53228552726692,25.981296469815433 L33.47745849262516,25.995231400891406 L33.42220945546612,26.005169688971687 L33.36660793517911,26.011098828793667 " />
			<path d="M33.366607935179104,26.011098828793667 L33.31072389467992,26.013011359771596 L33.25462765237713,26.010904875384156 L33.19838979369101,26.004782026202573 L33.14208108223651,25.99465051655543 " />
			<path d="M1490.2525291424217,-79.21757527910245 L1490.2509466034776,-79.07615999684633 L1490.2462021415442,-78.93570842538205 L1490.2383052150308,-78.79650056450454 L1490.227271566999,-78.65881393458683 L1490.2131231937794,-78.52292302332417 L1490.19588830112,-78.38909873852408 L1490.1756012479557,-78.25760786803318 L1490.1523024779115,-78.12871254787738 L1490.126038438676,-78.00266973967584 L1490.0968614894045,-77.8797307183704 L1490.0648297963367,-77.76014057129186 L1490.030007216839,-77.64413770956168 L1489.9924631721012,-77.53195339280308 L1489.9522725087388,-77.42381126810923 L1489.909515349583,-77.31992692418753 L1489.8642769339488,-77.22050746156873 L1489.816647447706,-77.12575107973794 L1489.7667218434865,-77.03584668201044 L1489.7145996513902,-76.95097349894 L1489.660384780565,-76.87130073101049 L1489.6041853120566,-76.79698721132328 L1489.5461132833418,-76.72818108895252 L1489.4862844649736,-76.66501953359987 L1489.4248181297855,-76.60762846213733 L1489.3618368151124,-76.55612228758339 L1489.297466078504,-76.51060369101285 L1489.2318342474177,-76.47116341685506 L1489.1650721633894,-76.43788009198879 L1489.09731292119,-76.41082006899404 L1489.0286916034945,-76.39003729387382 L1488.9593450115838,-76.37557319850892 L1488.8894113926224,-76.3674566180608 " />
			<path d="M1488.8894113926224,-76.3674566180608 L1488.8335273521234,-76.36554408708287 L1488.7774311098206,-76.3676505714703 L1488.7211932511343,-76.37377342065189 L1488.6648845396799,-76.38390493029902 " />
			<path d="M33.14208108223651,25.99465051655543 L-33.14208108223651,11.716371905558931 " />
			<path d="M1488.6648845396799,-76.38390493029904 L1422.380722375207,-90.66218354129553 " />
			<path d="M-33.1420810822365,11.716371905558935 L-33.219983110551524,11.695765793505918 L-33.29769746605692,11.667558868130326 L-33.37503692806331,11.63181908238602 L-33.45181517903258,11.588632536547294 L-33.527847253433166,11.538103270785767 L-33.60294998333821,11.480353014528504 L-33.67694243969316,11.415520893201148 L-33.749646368189666,11.343763093062604 L-33.82088661869589,11.265252484938644 L-33.89049156720843,11.180178207760958 L-33.95829352930965,11.088745212914892 L-34.024129164134116,10.991173770493617 L-34.087839867871,10.887698938648171 L-34.149272155854604,10.778569997311799 L-34.20827803232234,10.664049847662742 L-34.2647153469495,10.544414378772288 L-34.318448137301814,10.419951802963825 L-34.369346956380895,10.290961961484106 L-34.41728918447337,10.157755602159433 L-34.46215932455251,10.020653630776916 L-34.50384928052072,9.879986337994332 L-34.54225861762245,9.736092603640996 L-34.577294804400374,9.589319080326566 L-34.60887343561173,9.44001935832455 L-34.636918435567964,9.28855311374236 L-34.66136224140774,9.13528524203007 L-34.68214596586175,8.980584978915317 L-34.69921953911736,8.824825010882087 L-34.71254182944112,8.668380577336332 L-34.72208074226876,8.51162856662138 L-34.727813297523745,8.354946608060896 L-34.72972568497837,8.198712162216799 " />
			<path d="M1422.380722375207,-90.66218354129552 L1422.3028203468918,-90.68278965334854 L1422.2251059913865,-90.71099657872414 L1422.14776652938,-90.74673636446845 L1422.0709882784108,-90.78992291030717 L1421.9949562040104,-90.8404521760687 L1421.9198534741051,-90.89820243232596 L1421.8458610177502,-90.96303455365332 L1421.7731570892538,-91.03479235379186 L1421.7019168387476,-91.11330296191582 L1421.632311890235,-91.1983772390935 L1421.5645099281337,-91.28981023393956 L1421.4986742933093,-91.38738167636085 L1421.4349635895724,-91.49085650820629 L1421.3735313015889,-91.59998544954266 L1421.314525425121,-91.71450559919172 L1421.2580881104939,-91.83414106808218 L1421.2043553201415,-91.95860364389064 L1421.1534565010625,-92.08759348537035 L1421.1055142729701,-92.22079984469502 L1421.060644132891,-92.35790181607754 L1421.0189541769228,-92.49856910886012 L1420.980544839821,-92.64246284321347 L1420.9455086530431,-92.78923636652789 L1420.9139300218317,-92.93853608852991 L1420.8858850218755,-93.0900023331121 L1420.8614412160357,-93.24327020482438 L1420.8406574915816,-93.39797046793915 L1420.823583918326,-93.55373043597237 L1420.8102616280023,-93.71017486951813 L1420.8007227151747,-93.86692688023308 L1420.7949901599197,-94.02360883879356 L1420.793077772465,-94.17984328463766 " />
			<path d="M-34.72972568497837,-23.16098016775202 L-34.72972568497837,8.198712162216768 " />
			<path d="M1420.793077772465,-125.53953561460648 L1420.793077772465,-94.17984328463768 " />
			<path d="M1463.0460936302354,-2363.7945562142068 L1422.0012857896338,-2372.9630490336413 " />
			<path d="M-34.37421269111117,-2265.9228663639424 L-34.37246542451014,-2266.063715654051 L-34.367573105657826,-2266.203582747658 L-34.359545421613106,-2266.3421907002676 L-34.34839826762944,-2266.479265060553 L-34.334153715681374,-2266.614534413785 L-34.31683997076081,-2266.7477309192454 L-34.2964913150296,-2266.878590840569 L-34.27314803993898,-2267.006855067954 L-34.24685636645032,-2267.1322696312163 L-34.21766835351502,-2267.254586202661 L-34.18564179499506,-2267.3735625887866 L-34.15084010522784,-2267.4889632098425 L-34.11333219346248,-2267.6005595662873 L-34.07319232741561,-2267.7081306912314 L-34.03049998621731,-2267.8114635879647 L-33.985339703038036,-2267.9103536517005 L-33.93780089770837,-2268.0046050747032 L-33.88797769966281,-2268.0940312340017 L-33.835968761558384,-2268.178455060909 L-33.78187706393696,-2268.257709391631 L-33.725809711318185,-2268.331637298258 L-33.66787772012662,-2268.4000923994918 L-33.608195798873204,-2268.462939150488 L-33.5468821210261,-2268.520053111243 L-33.48405809102076,-2268.57132119299 L-33.41984810387252,-2268.616641882124 L-33.35437929886765,-2268.6559254412014 L-33.28778130782063,-2268.689094086627 L-33.22018599839607,-2268.7160821426687 L-33.15172721300348,-2268.7368361714994 L-33.082540503782056,-2268.7513150790073 L-33.012762864199956,-2268.7594901961634 " />
			<path d="M-33.01276286419994,-2268.7594901961634 L-32.954891192071926,-2268.7614773505297 L-32.896789667182325,-2268.7591662661207 L-32.838536482809594,-2268.752560053204 L-32.78021003633619,-2268.7416676024486 " />
			<path d="M1420.4072831348587,-2370.144247795135 L1420.4090304014599,-2370.2850970852437 L1420.413922720312,-2370.4249641788506 L1420.4219504043567,-2370.56357213146 L1420.4330975583405,-2370.700646491746 L1420.4473421102884,-2370.8359158449775 L1420.464655855209,-2370.969112350438 L1420.4850045109404,-2371.0999722717615 L1420.508347786031,-2371.2282364991465 L1420.5346394595197,-2371.353651062409 L1420.563827472455,-2371.4759676338535 L1420.5958540309748,-2371.5949440199793 L1420.630655720742,-2371.710344641035 L1420.6681636325075,-2371.82194099748 L1420.7083034985542,-2371.929512122424 L1420.7509958397525,-2372.0328450191573 L1420.796156122932,-2372.131735082893 L1420.8436949282616,-2372.225986505896 L1420.893518126307,-2372.3154126651943 L1420.9455270644114,-2372.3998364921017 L1420.999618762033,-2372.4790908228238 L1421.0556861146517,-2372.5530187294507 L1421.1136181058432,-2372.6214738306844 L1421.1733000270967,-2372.684320581681 L1421.2346137049437,-2372.741434542436 L1421.2974377349492,-2372.7927026241828 L1421.3616477220974,-2372.8380233133166 L1421.4271165271023,-2372.877306872394 L1421.4937145181493,-2372.9104755178196 L1421.5613098275737,-2372.9374635738614 L1421.6297686129665,-2372.958217602692 L1421.6989553221879,-2372.9726965102 L1421.76873296177,-2372.980871627356 " />
			<path d="M1421.76873296177,-2372.980871627356 L1421.826604633898,-2372.9828587817224 L1421.8847061587876,-2372.9805476973133 L1421.9429593431603,-2372.9739414843966 L1422.0012857896338,-2372.9630490336413 " />
			<path d="M1463.0460936302354,-2363.7945562142068 L1463.1241121230198,-2363.773304361533 L1463.2019332933983,-2363.744457269444 L1463.2793696633553,-2363.708084433111 L1463.3562346818928,-2363.664273477882 L1463.4323431744485,-2363.6131299481867 L1463.5075117889976,-2363.5547770532676 L1463.5815594377636,-2363.4893553703587 L1463.654307733475,-2363.417022506025 L1463.7255814191153,-2363.337952716473 L1463.7952087901328,-2363.25233648775 L1463.8630221080923,-2363.160380076851 L1463.928858004771,-2363.0623050148247 L1463.9925578757275,-2362.9583475730847 L1464.0539682623926,-2362.8487581942145 L1464.1129412217665,-2362.7338008886263 L1464.1693346828245,-2362.613752598539 L1464.2230127887792,-2362.488902530798 L1464.2738462243722,-2362.3595514601516 L1464.321712527404,-2362.2260110046595 L1464.3664963837587,-2362.0886028749755 L1464.408089905203,-2361.9476580993196 L1464.4463928893013,-2361.803516226001 L1464.4813130608095,-2361.6565245054194 L1464.512766293976,-2361.507037053503 L1464.540676815207,-2361.355413998618 L1464.5649773856123,-2361.2020206139837 L1464.5856094629892,-2361.0472264377 L1464.6025233428563,-2360.8914043824952 L1464.6156782781952,-2360.7349298373492 L1464.6250425776147,-2360.578179763146 L1464.6305936816975,-2360.4215317845456 L1464.6323182173471,-2360.2653632802476 " />
			<path d="M1464.6323182173473,-2360.265363280248 L1464.5939140082605,-2328.922142053699 " />
			<path d="M1464.5939140082605,-2328.9221420536987 L1464.5921667416594,-2328.78129276359 L1464.5872744228072,-2328.641425669983 L1464.5792467387625,-2328.5028177173735 L1464.5680995847788,-2328.365743357088 L1464.5538550328308,-2328.230474003856 L1464.5365412879103,-2328.0972774983957 L1464.516192632179,-2327.966417577072 L1464.4928493570883,-2327.838153349687 L1464.4665576835996,-2327.712738786425 L1464.4373696706643,-2327.59042221498 L1464.4053431121445,-2327.4714458288545 L1464.3705414223773,-2327.3560452077986 L1464.3330335106118,-2327.244448851354 L1464.292893644565,-2327.1368777264097 L1464.2502013033668,-2327.0335448296764 L1464.2050410201873,-2326.9346547659406 L1464.1575022148577,-2326.840403342938 L1464.1076790168122,-2326.7509771836394 L1464.0556700787079,-2326.666553356732 L1464.0015783810863,-2326.58729902601 L1463.9455110284675,-2326.513371119383 L1463.887579037276,-2326.4449160181493 L1463.8278971160225,-2326.382069267153 L1463.7665834381755,-2326.324955306398 L1463.70375940817,-2326.273687224651 L1463.639549421022,-2326.228366535517 L1463.574080616017,-2326.1890829764397 L1463.50748262497,-2326.155914331014 L1463.4398873155455,-2326.1289262749724 L1463.3714285301528,-2326.1081722461417 L1463.3022418209314,-2326.093693338634 L1463.2324641813493,-2326.0855182214777 " />
			<path d="M1463.2324641813493,-2326.0855182214777 L1463.1745925092214,-2326.0835310671114 L1463.1164909843317,-2326.0858421515204 L1463.058237799959,-2326.092448364437 L1462.9999113534857,-2326.1033408151925 " />
			<path d="M1462.9999113534857,-2326.1033408151925 L1421.955103512884,-2335.271833634627 " />
			<path d="M-33.56333653789529,-2231.577082630402 L-33.61076266009329,-2231.639379446137 L-33.65727664940819,-2231.7046675706547 L-33.702824682263355,-2231.772871455924 L-33.747354052836904,-2231.843912179944 L-33.79081323405013,-2231.9177075380735 L-33.83315193719193,-2231.9941721381497 L-33.87432117011038,-2232.0732174993027 L-33.91427329390381,-2232.154752154339 L-33.952962078046156,-2232.2386817555835 L-33.99034275388247,-2232.3249091840535 L-34.02637206643292,-2232.4133346618396 L-34.0610083244452,-2232.5038558675647 L-34.094211448637466,-2232.596368054782 L-34.12594301807604,-2232.690764173186 L-34.18484636547999,-2232.8847692287877 L-34.23744580593057,-2233.0849733237774 L-34.28349794847748,-2233.2904500630343 L-34.32278969817822,-2233.5002486535777 L-34.35513924214244,-2233.7133983041235 L-34.38039689082631,-2233.928912717183 L-34.39844577068396,-2234.1457946529117 L-34.409202364971065,-2234.363040543592 L-34.41261690019794,-2234.5796451373935 " />
			<path d="M1421.9551035128839,-2335.271833634627 L1421.8770850200995,-2335.2930854873007 L1421.799263849721,-2335.32193257939 L1421.721827479764,-2335.358305415723 L1421.6449624612264,-2335.4021163709517 L1421.5688539686707,-2335.453259900647 L1421.4936853541217,-2335.511612795566 L1421.4196377053556,-2335.577034478475 L1421.3468894096443,-2335.6493673428085 L1421.275615724004,-2335.728437132361 L1421.2059883529864,-2335.8140533610836 L1421.138175035027,-2335.9060097719826 L1421.0723391383483,-2336.004084834009 L1421.0086392673918,-2336.108042275749 L1420.9472288807267,-2336.2176316546193 L1420.8882559213528,-2336.3325889602074 L1420.8318624602948,-2336.4526372502946 L1420.77818435434,-2336.5774873180358 L1420.727350918747,-2336.706838388682 L1420.6794846157152,-2336.840378844174 L1420.6347007593606,-2336.977786973858 L1420.5931072379162,-2337.118731749514 L1420.554804253818,-2337.2628736228326 L1420.5198840823098,-2337.4098653434144 L1420.4884308491432,-2337.5593527953306 L1420.4605203279123,-2337.7109758502156 L1420.436219757507,-2337.86436923485 L1420.41558768013,-2338.019163411134 L1420.398673800263,-2338.1749854663385 L1420.385518864924,-2338.3314600114845 L1420.3761545655045,-2338.4882100856876 L1420.3706034614218,-2338.644858064288 L1420.3688789257722,-2338.801026568586 " />
			<path d="M-34.374212691111175,-2265.922866363942 L-34.41261690019794,-2234.579645137393 " />
			<path d="M1420.407283134859,-2370.144247795135 L1420.3688789257722,-2338.801026568586 " />
			<path d="M-31.951313873423643,-26.532075878994746 L-32.1303717981831,-26.518501730183026 L-32.3017999832848,-26.503509253584227 L-32.464858093328345,-26.487163196201067 L-32.61884194019487,-26.469534150654766 L-32.76308652417701,-26.450698250321445 L-32.89696890586855,-26.430736840540003 L-33.01991089641099,-26.409736127311486 L-33.13138155447902,-26.387786805006993 L-33.230899479221165,-26.36498366469199 L-33.31803488925336,-26.341425184758496 L-33.39241147872696,-26.31721310563306 L-33.453708042455595,-26.292451990397197 L-33.50165986308238,-26.267248773217847 L-33.520564502873704,-26.254515328199766 L-33.536059854297086,-26.24171229753794 L-33.54812918315089,-26.228853507862755 L-33.556759455165846,-26.21595284602153 L-33.56194135008144,-26.20302424408141 L-33.563669271711305,-26.190081664283458 " />
			<path d="M-33.563669271711305,-26.190081664283454 L-33.56241481173424,-26.179053484100834 L-33.55865241202029,-26.16803395005781 L-33.552385022435764,-26.157031701893615 L-33.543617556855565,-26.14605536579467 L-33.51861184859768,-26.124214826210633 L-33.48371369362973,-26.10258081317778 L-33.439032516491125,-26.081221160996048 L-33.38470841677259,-26.060202843696118 L-33.32091172982839,-26.039591765039713 L-33.247842492683134,-26.019452551875748 " />
			<path d="M-31.95098107773224,-2232.3291923665133 L-32.13003900249169,-2232.3156182177017 L-32.301467187593396,-2232.300625741103 L-32.464525297636946,-2232.28427968372 L-32.61850914450347,-2232.2666506381734 L-32.76275372848561,-2232.24781473784 L-32.89663611017715,-2232.2278533280587 L-33.019578100719585,-2232.20685261483 L-33.131048758787614,-2232.1849032925256 L-33.23056668352976,-2232.1621001522108 L-33.317702093561955,-2232.1385416722774 L-33.392078683035564,-2232.1143295931515 L-33.45337524676419,-2232.0895684779157 L-33.501327067390974,-2232.0643652607364 L-33.5202317071823,-2232.0516318157183 L-33.53572705860569,-2232.0388287850565 L-33.547796387459485,-2232.0259699953813 L-33.55642665947445,-2232.01306933354 L-33.56160855439004,-2232.0001407316 L-33.5633364760199,-2231.987198151802 " />
			<path d="M-0.26867613112901045,-28.33914098541813 L-0.4470415483796435,-28.368805611743216 L-0.6471793257027079,-28.39628520506464 L-0.8673325203550242,-28.421338531205034 L-1.1055684809256257,-28.443745655376762 L-1.35979581343739,-28.463309872915985 L-1.62778274099668,-28.479859436087263 L-1.9071766958177487,-28.493249061799588 L-2.1955249716300664,-28.503361206998157 L-2.4902962551679826,-28.5101071005356 L-2.7889028477249567,-28.51342752246426 L-3.0887233816967585,-28.513293323908346 L-3.387125832692677,-28.50970568295219 L-3.681490625199106,-28.502696094298233 L-3.9692336289585883,-28.492326092785532 L-4.247828844186791,-28.478686713195966 L-4.514830576481435,-28.461897691090275 " />
			<path d="M-0.14847512369120253,-2234.112444474733 L-0.31747015715536353,-2234.145024792231 L-0.5115949755544937,-2234.1754092939423 L-0.7289800507679915,-2234.203305360506 L-0.9675318456867792,-2234.228444337551 L-1.2249529761201128,-2234.2505841229863 L-1.4987643358612153,-2234.2695114985754 L-1.786328971835265,-2234.2850441833443 L-2.084877479399015,-2234.2970325890483 L-2.3915346732214076,-2234.305361260786 L-2.703347276890056,-2234.3099499888963 L-3.017312364577527,-2234.310754581419 L-3.3304062808586137,-2234.307767289688 L-3.6396137601649854,-2234.301016882956 L-3.941956965440922,-2234.2905683713298 L-4.234524166342006,-2234.2765223796882 L-4.514497780790032,-2234.2590141786086 " />
			<path d="M-31.95131387342365,-26.532075878994746 L-4.5148305764814705,-28.46189769109027 " />
			<path d="M-31.950981077732244,-2232.3291923665133 L-4.514497780790061,-2234.259014178609 " />
			<path d="M320.90266532920003,-51.35111449981357 L320.7236074014464,-51.33754031478377 L320.55217921363186,-51.322547802075256 L320.3891211011942,-51.30620170884892 L320.2351372522869,-51.28857262788322 L320.0908926666493,-51.26973669270988 L319.9570102837162,-51.24977524882107 L319.8340682923715,-51.228774502368104 L319.7225976339624,-51.20682514786873 L319.6230797093584,-51.18402197653071 L319.535944299958,-51.160463466883456 L319.4615677116199,-51.136251359485364 L319.4002711495369,-51.11149021754366 L319.3523193310678,-51.086286975344315 L319.33341469254685,-51.07355351848367 L319.3179193425207,-51.06075047644209 L319.3058500151902,-51.04789167586271 L319.29721974482317,-51.03499100360512 L319.2920378516789,-51.0220623917482 L319.2903099319419,-51.0091198025442 " />
			<path d="M319.2903099319419,-51.00911980254419 L319.2915643526999,-50.99809179461966 L319.2953266314917,-50.987072432796424 L319.301593818642,-50.9760703563971 L319.3103610005947,-50.965094191192335 L319.33536589993037,-50.94325398912865 L319.3702629282067,-50.92162030518779 L319.4149426679825,-50.900260970427546 L319.4692650287386,-50.8792429557011 L319.53305968612347,-50.85863216167409 L319.60612661599384,-50.83849321219721 " />
			<path d="M320.90266532920003,-2257.148207595434 L320.7236074014464,-2257.134633410404 L320.55217921363186,-2257.1196408976957 L320.3891211011942,-2257.1032948044694 L320.2351372522869,-2257.0856657235036 L320.0908926666493,-2257.0668297883303 L319.9570102837162,-2257.0468683444415 L319.8340682923715,-2257.0258675979885 L319.7225976339624,-2257.0039182434894 L319.6230797093584,-2256.981115072151 L319.535944299958,-2256.957556562504 L319.4615677116199,-2256.9333444551057 L319.4002711495369,-2256.908583313164 L319.3523193310678,-2256.883380070965 L319.33341469254685,-2256.8706466141043 L319.3179193425207,-2256.8578435720624 L319.3058500151902,-2256.8449847714833 L319.29721974482317,-2256.8320840992255 L319.2920378516789,-2256.819155487369 L319.2903099319419,-2256.8062128981646 " />
			<path d="M352.5853156831491,-53.15818324280603 L352.40695107774536,-53.18784815376027 L352.206813788845,-53.215328024139346 L351.98666077148965,-53.24038161505631 L351.74842469377904,-53.26278898732283 L351.4941969704622,-53.282353432240136 L351.22620940293257,-53.298903198455314 L350.9468145868033,-53.312292999723354 L350.65846525906085,-53.32240529033862 L350.36369276610213,-53.32915129703914 L350.0650848416799,-53.332471798324754 L349.76526288983746,-53.33233764434785 L349.46685897226007,-53.32875001281253 L349.17249270206605,-53.321740398635846 L348.88474824688046,-53.31137033746183 L348.60615164307586,-53.29773086545554 L348.33914862033305,-53.28094172011935 " />
			<path d="M352.70517127787315,-2258.931465659767 L352.53617624431087,-2258.964045974605 L352.3420514258203,-2258.9944304684072 L352.12466635052283,-2259.022326521889 L351.88611455552837,-2259.0474654808063 L351.62869342502836,-2259.0696052432418 L351.3548820652303,-2259.08853259118 L351.0673174292095,-2259.104065243914 L350.7687689216096,-2259.1160536135076 L350.46211172776214,-2259.124382245407 L350.1502991240797,-2259.128970930335 L349.83633403638976,-2259.1297754767465 L349.5232401201177,-2259.1267881364206 L349.21403264083165,-2259.1200376790766 L348.91168943558716,-2259.10958911531 L348.61912223472837,-2259.095543070501 L348.33914862033305,-2259.07803481574 " />
			<path d="M320.90266532920003,-51.35111449981358 L348.339148620333,-53.28094172011935 " />
			<path d="M320.90266532920003,-2257.148207595434 L348.339148620333,-2259.07803481574 " />
			<path d="M673.7566782885802,-76.17015824450556 L673.5776203608266,-76.15658405947576 L673.4061921730121,-76.14159154676724 L673.2431340605743,-76.12524545354091 L673.0891502116672,-76.10761637257522 L672.9449056260295,-76.08878043740187 L672.8110232430964,-76.06881899351306 L672.6880812517518,-76.0478182470601 L672.5766105933426,-76.02586889256072 L672.4770926687387,-76.00306572122271 L672.3899572593382,-75.97950721157545 L672.3155806710001,-75.95529510417735 L672.2542841089171,-75.93053396223566 L672.206332290448,-75.90533072003632 L672.187427651927,-75.89259726317566 L672.1719323019009,-75.87979422113408 L672.1598629745704,-75.86693542055471 L672.1512327042034,-75.85403474829711 L672.1460508110591,-75.84110613644019 L672.1443228913221,-75.82816354723619 " />
			<path d="M672.1443228913221,-75.82816354723619 L672.1455773120801,-75.81713553931166 L672.1493395908719,-75.80611617748842 L672.1556067780222,-75.7951141010891 L672.1643739599749,-75.78413793588433 L672.1893788593106,-75.76229773382065 L672.2242758875869,-75.74066404987978 L672.2689556273627,-75.71930471511953 L672.3232779881189,-75.69828670039308 L672.3870726455037,-75.67767590636608 L672.4601395753741,-75.65753695688919 " />
			<path d="M673.7566782885802,-2281.967251340126 L673.5776203608266,-2281.953677155096 L673.4061921730121,-2281.9386846423877 L673.2431340605743,-2281.9223385491614 L673.0891502116672,-2281.9047094681955 L672.9449056260295,-2281.8858735330223 L672.8110232430964,-2281.8659120891334 L672.6880812517518,-2281.8449113426805 L672.5766105933426,-2281.8229619881813 L672.4770926687387,-2281.800158816843 L672.3899572593382,-2281.776600307196 L672.3155806710001,-2281.7523881997977 L672.2542841089171,-2281.727627057856 L672.206332290448,-2281.702423815657 L672.187427651927,-2281.6896903587963 L672.1719323019009,-2281.6768873167543 L672.1598629745704,-2281.664028516175 L672.1512327042034,-2281.6511278439175 L672.1460508110591,-2281.6381992320607 L672.1443228913221,-2281.6252566428566 " />
			<path d="M672.1443228913221,-2281.6252566428566 L672.1460071978464,-2281.6124783914074 L672.1510583443638,-2281.5997135915154 L672.1594710135752,-2281.5869756805787 L672.1712363495343,-2281.5742780676887 L672.1863419669711,-2281.5616341195155 L672.2047719643294,-2281.5490571462365 L672.2515240152752,-2281.5241569986165 L672.3112956922191,-2281.4996824459377 L672.3838353768342,-2281.4757365177006 L672.4688377018459,-2281.452420018077 L672.5659448365238,-2281.42983110156 " />
			<path d="M746.5402605455276,-2274.5319201986003 L746.6373676802056,-2274.5545091151175 L746.7223700052173,-2274.577825614741 L746.7949096898324,-2274.601771542978 L746.8546813667763,-2274.626246095657 L746.901433417722,-2274.651146243277 L746.9198634150804,-2274.663723216556 L746.9349690325172,-2274.676367164729 L746.9467343684763,-2274.689064777619 L746.9551470376877,-2274.7018026885557 L746.9601981842051,-2274.7145674884478 L746.9618824907294,-2274.727345739897 " />
			<path d="M746.9618824907294,-2274.727345739897 L746.9606982817418,-2274.738060735881 L746.9571465312482,-2274.748767801368 L746.942952671125,-2274.77012645408 " />
			<path d="M746.5402605455276,-2274.9227712811935 L705.5591842372532,-2283.750509404459 " />
			<path d="M705.4393286425292,-77.97722698749801 L705.2609640371255,-78.00689189845225 L705.0608267482252,-78.03437176883132 L704.8406737308698,-78.05942535974829 L704.6024376531591,-78.08183273201482 L704.3482099298423,-78.10139717693212 L704.0802223623127,-78.1179469431473 L703.8008275461834,-78.13133674441534 L703.512478218441,-78.1414490350306 L703.2177057254822,-78.14819504173111 L702.91909780106,-78.15151554301674 L702.6192758492175,-78.15138138903984 L702.3208719316401,-78.14779375750452 L702.0265056614461,-78.14078414332782 L701.7387612062605,-78.13041408215382 L701.460164602456,-78.11677461014752 L701.1931615797131,-78.09998546481134 " />
			<path d="M705.5591842372532,-2283.750509404459 L705.390189203691,-2283.783089719297 L705.1960643852004,-2283.813474213099 L704.9786793099029,-2283.841370266581 L704.7401275149084,-2283.8665092254982 L704.4827063844084,-2283.8886489879337 L704.2088950246103,-2283.907576335872 L703.9213303885896,-2283.923108988606 L703.6227818809897,-2283.9350973581995 L703.3161246871423,-2283.943425990099 L703.0043120834598,-2283.948014675027 L702.6903469957699,-2283.9488192214385 L702.3772530794978,-2283.9458318811126 L702.0680456002117,-2283.9390814237686 L701.7657023949672,-2283.928632860002 L701.4731351941084,-2283.914586815193 L701.1931615797131,-2283.897078560432 " />
			<path d="M673.7566782885802,-76.17015824450556 L701.1931615797131,-78.09998546481134 " />
			<path d="M673.7566782885802,-2281.967251340126 L701.1931615797131,-2283.897078560432 " />
			<path d="M1026.6106912479602,-100.98920198919754 L1026.4316333202066,-100.97562780416774 L1026.260205132392,-100.96063529145923 L1026.0971470199543,-100.9442891982329 L1025.943163171047,-100.9266601172672 L1025.7989185854094,-100.90782418209385 L1025.6650362024764,-100.88786273820504 L1025.5420942111316,-100.86686199175209 L1025.4306235527226,-100.8449126372527 L1025.3311056281186,-100.82210946591469 L1025.243970218718,-100.79855095626743 L1025.16959363038,-100.77433884886933 L1025.108297068297,-100.74957770692764 L1025.0603452498278,-100.7243744647283 L1025.041440611307,-100.71164100786764 L1025.0259452612809,-100.69883796582606 L1025.0138759339502,-100.68597916524669 L1025.0052456635833,-100.67307849298909 L1025.000063770439,-100.66014988113217 L1024.998335850702,-100.64720729192817 " />
			<path d="M1024.998335850702,-100.64720729192817 L1024.99959027146,-100.63617928400365 L1025.003352550252,-100.6251599221804 L1025.009619737402,-100.61415784578108 L1025.018386919355,-100.60318168057631 L1025.0433918186905,-100.58134147851263 L1025.0782888469669,-100.55970779457175 L1025.1229685867427,-100.53834845981152 L1025.177290947499,-100.51733044508507 L1025.2410856048837,-100.49671965105806 L1025.3141525347542,-100.47658070158117 " />
			<path d="M1026.6106912479602,-2306.786295084818 L1026.4316333202066,-2306.772720899788 L1026.260205132392,-2306.7577283870796 L1026.0971470199543,-2306.7413822938533 L1025.943163171047,-2306.7237532128875 L1025.7989185854094,-2306.7049172777142 L1025.6650362024764,-2306.6849558338254 L1025.5420942111316,-2306.6639550873724 L1025.4306235527226,-2306.6420057328733 L1025.3311056281186,-2306.619202561535 L1025.243970218718,-2306.595644051888 L1025.16959363038,-2306.5714319444896 L1025.108297068297,-2306.546670802548 L1025.0603452498278,-2306.521467560349 L1025.041440611307,-2306.508734103488 L1025.0259452612809,-2306.4959310614463 L1025.0138759339502,-2306.483072260867 L1025.0052456635833,-2306.4701715886094 L1025.000063770439,-2306.4572429767527 L1024.998335850702,-2306.4443003875485 " />
			<path d="M1024.998335850702,-2306.4443003875485 L1025.0000201572263,-2306.4315221360994 L1025.0050713037438,-2306.4187573362074 L1025.013483972955,-2306.4060194252706 L1025.0252493089142,-2306.3933218123807 L1025.040354926351,-2306.3806778642074 L1025.0587849237095,-2306.3681008909284 L1025.105536974655,-2306.3432007433084 L1025.1653086515992,-2306.3187261906296 L1025.2378483362143,-2306.2947802623926 L1025.3228506612259,-2306.271463762769 L1025.4199577959039,-2306.248874846252 " />
			<path d="M1099.3942735049077,-2299.3509639432923 L1099.4913806395855,-2299.3735528598095 L1099.5763829645973,-2299.396869359433 L1099.6489226492124,-2299.42081528767 L1099.7086943261563,-2299.445289840349 L1099.755446377102,-2299.4701899879688 L1099.7738763744603,-2299.4827669612478 L1099.7889819918971,-2299.495410909421 L1099.8007473278562,-2299.508108522311 L1099.8091599970676,-2299.5208464332477 L1099.814211143585,-2299.5336112331397 L1099.8158954501093,-2299.546389484589 " />
			<path d="M1099.8158954501093,-2299.546389484589 L1099.814211143585,-2299.559167736038 L1099.8091599970676,-2299.57193253593 L1099.8007473278562,-2299.5846704468668 L1099.7889819918971,-2299.5973680597567 L1099.7738763744603,-2299.61001200793 L1099.7554463771019,-2299.622588981209 L1099.7086943261563,-2299.647489128829 L1099.6489226492122,-2299.671963681508 L1099.576382964597,-2299.695909609745 L1099.4913806395855,-2299.7192261093683 L1099.3942735049075,-2299.7418150258854 " />
			<path d="M1099.394273504908,-2299.7418150258854 L1058.4131971966333,-2308.569553149151 " />
			<path d="M1058.293341601909,-102.79627073219 L1058.1149769965054,-102.82593564314423 L1057.9148397076049,-102.8534155135233 L1057.6946866902497,-102.87846910444026 L1057.456450612539,-102.90087647670678 L1057.2022228892222,-102.92044092162409 L1056.9342353216925,-102.93699068783927 L1056.6548405055632,-102.9503804891073 L1056.3664911778208,-102.96049277972257 L1056.0717186848622,-102.9672387864231 L1055.77311076044,-102.97055928770871 L1055.4732888085975,-102.97042513373181 L1055.1748848910202,-102.96683750219648 L1054.880518620826,-102.95982788801979 L1054.5927741656405,-102.94945782684579 L1054.314177561836,-102.93581835483948 L1054.047174539093,-102.91902920950331 " />
			<path d="M1058.413197196633,-2308.569553149151 L1058.244202163071,-2308.602133463989 L1058.0500773445804,-2308.632517957791 L1057.832692269283,-2308.660414011273 L1057.5941404742885,-2308.68555297019 L1057.3367193437884,-2308.7076927326257 L1057.0629079839903,-2308.726620080564 L1056.7753433479695,-2308.742152733298 L1056.4767948403696,-2308.7541411028915 L1056.170137646522,-2308.762469734791 L1055.8583250428396,-2308.767058419719 L1055.5443599551497,-2308.7678629661305 L1055.2312660388777,-2308.7648756258045 L1054.9220585595917,-2308.7581251684605 L1054.6197153543471,-2308.747676604694 L1054.3271481534885,-2308.733630559885 L1054.047174539093,-2308.716122305124 " />
			<path d="M1026.6106912479602,-100.98920198919753 L1054.047174539093,-102.91902920950331 " />
			<path d="M1026.6106912479602,-2306.786295084818 L1054.047174539093,-2308.716122305124 " />
			<path d="M1390.578131942066,-126.58993957507568 L1390.3990740115905,-126.5763653580812 L1390.2276458213037,-126.561372813502 L1390.0645877066768,-126.54502668863864 L1389.9106038558948,-126.52739757640838 L1389.7663592687254,-126.50856161048033 L1389.6324768846298,-126.48860013648202 L1389.5095348925147,-126.46759936069746 L1389.398064233747,-126.44564997777391 L1389.298546309213,-126.42284677904482 L1389.211410900324,-126.39928824316094 L1389.1370343129483,-126.37507611079715 L1389.0757377522846,-126.35031494527175 L1389.0277859356938,-126.32511168097588 L1389.0088812982838,-126.31237821365578 L1388.9933859494822,-126.29957516156308 L1388.9813166234892,-126.2867163513522 L1388.972686354572,-126.27381566989354 L1388.967504462988,-126.26088704927636 L1388.9657765449203,-126.2479444517628 " />
			<path d="M1388.9657765449203,-126.2479444517628 L1388.9670309316211,-126.23691659342141 L1388.9707931053588,-126.22589738115319 L1388.9770601166242,-126.21489545391886 L1388.9858270521383,-126.20391943712782 L1389.0108312485975,-126.18207952819921 L1389.0457272978676,-126.16044613009171 L1389.0904057886755,-126.13908707104635 L1389.1447266383846,-126.11806931915555 L1389.2085195322031,-126.0974587723949 L1389.2815844571817,-126.07732005201002 " />
			<path d="M1390.5778382598871,-2332.3870120136553 L1390.3987803294117,-2332.373437796661 L1390.2273521391248,-2332.3584452520818 L1390.064294024498,-2332.3420991272183 L1389.910310173716,-2332.324470014988 L1389.7660655865466,-2332.3056340490602 L1389.632183202451,-2332.2856725750617 L1389.5092412103359,-2332.2646717992775 L1389.397770551568,-2332.242722416354 L1389.2982526270341,-2332.2199192176245 L1389.211117218145,-2332.1963606817408 L1389.1367406307695,-2332.1721485493767 L1389.0754440701057,-2332.1473873838518 L1389.027492253515,-2332.1221841195556 L1389.008587616105,-2332.1094506522354 L1388.9930922673034,-2332.0966476001427 L1388.9810229413104,-2332.083788789932 L1388.9723926723932,-2332.0708881084734 L1388.9672107808092,-2332.0579594878564 L1388.9654828627415,-2332.0450168903426 " />
			<path d="M1388.9654828627415,-2332.0450168903426 L1388.967167170861,-2332.0322386317416 L1388.97221831876,-2332.019473825153 L1388.980630989138,-2332.0067359079812 L1388.9923963260485,-2331.994038289323 L1389.0075019442208,-2331.9813943358536 L1389.025931942099,-2331.968817357756 L1389.0726839934416,-2331.943917201946 L1389.1324556699342,-2331.91944264303 L1389.2049953532676,-2331.8954967105283 L1389.2899976761917,-2331.872180208624 L1389.3871048080077,-2331.8495912918133 " />
			<path d="M1463.361420571192,-2324.9516859013206 L1463.458527696993,-2324.9742748439894 L1463.5435300137085,-2324.997591368528 L1463.6160696906654,-2325.0215373203464 L1463.6758413606408,-2325.0460118951783 L1463.7225934053529,-2325.0709120634374 L1463.7410233998821,-2325.083489046443 L1463.7561290146875,-2325.0961330039345 L1463.7678943482167,-2325.1088306257257 L1463.776307015203,-2325.1215685451375 L1463.781358159703,-2325.134333353071 L1463.7830424644199,-2325.1471116121206 " />
			<path d="M1463.7830424644199,-2325.1471116121206 L1463.7813581563003,-2325.1598898707216 L1463.7763070084013,-2325.17265467731 L1463.7678943380233,-2325.185392594482 L1463.7561290011129,-2325.1980902131404 L1463.7410233829405,-2325.2107341666097 L1463.7225933850623,-2325.223311144707 L1463.6758413337197,-2325.248211300517 L1463.6160696572272,-2325.2726858594333 L1463.5435299738938,-2325.296631791935 L1463.4585276509697,-2325.3199482938394 L1463.3614205191536,-2325.34253721065 " />
			<path d="M1463.3617142013325,-119.54546477207022 L1422.3806378901515,-128.37320289513158 " />
			<path d="M1463.3614205191534,-2325.342537210651 L1422.3803442079725,-2334.1702753337117 " />
			<path d="M1422.3806378901515,-128.37320289513158 L1422.2116428565787,-128.4057832076413 L1422.0175180380782,-128.43616769448388 L1421.8001329627714,-128.4640637364412 L1421.5615811677687,-128.4892026793797 L1421.3041600372615,-128.51134242153648 L1421.0303486774571,-128.5302697450918 L1420.7427840414312,-128.5458023695731 L1420.4442355338274,-128.55779070731558 L1420.1375783399772,-128.56611930407334 L1419.825765736293,-128.5707079509067 L1419.511800648603,-128.57151245663826 L1419.1987067323319,-128.56852507343802 L1418.8894992530481,-128.5617745714393 L1418.587156047807,-128.5513259616665 L1418.2945888469528,-128.53727986994355 L1418.0146152325633,-128.51977156781214 " />
			<path d="M1422.3803442079727,-2334.1702753337113 L1422.2113491743999,-2334.2028556462215 L1422.0172243558993,-2334.2332401330636 L1421.7998392805926,-2334.261136175021 L1421.56128748559,-2334.2862751179596 L1421.3038663550826,-2334.3084148601165 L1421.0300549952783,-2334.3273421836716 L1420.7424903592523,-2334.342874808153 L1420.4439418516486,-2334.3548631458957 L1420.1372846577983,-2334.3631917426533 L1419.8254720541142,-2334.3677803894866 L1419.5115069664241,-2334.368584895218 L1419.198413050153,-2334.3655975120178 L1418.8892055708693,-2334.3588470100194 L1418.5868623656281,-2334.3483984002464 L1418.294295164774,-2334.3343523085236 L1418.0143215503845,-2334.316844006392 " />
			<path d="M1390.578131942066,-126.58993957507568 L1418.014615232563,-128.51977156781214 " />
			<path d="M1390.5778382598871,-2332.3870120136553 L1418.0143215503842,-2334.316844006392 " />
			<path d="M-33.1420810822365,-25.994650516555428 L1421.9361818864393,-128.34193787680243 " />
			<path d="M-34.72972568497837,-23.16098016775202 L1420.7930777724653,-125.5395356146065 " />
			<path d="M33.1420810822365,25.994650516555428 L1488.66488453968,-76.38390493029907 " />
			<path d="M-33.1420810822365,11.716371905558933 L1422.3807223752071,-90.66218354129556 " />
			<path d="M-34.72972568497837,8.198712162216768 L1420.7930777724653,-94.17984328463773 " />
			<path d="M-32.78021003633619,-2268.7416676024486 L1421.5410956425508,-2372.930080747347 " />
			<path d="M-34.37421269111117,-2265.9228663639424 L1420.407283134859,-2370.144247795135 " />
			<path d="M40.83260099713942,-2224.2184583521607 L319.2903099319419,-2244.167328459883 " />
			<path d="M393.68624758614766,-2249.4970961380095 L672.1443228913223,-2269.4459924927155 " />
			<path d="M705.5591842372534,-2271.8398523402575 L1024.9983358507025,-2294.724656525548 " />
			<path d="M1098.3052352407572,-2299.976404877304 L1388.9654843599856,-2320.7994719683115 " />
			<path d="M1460.620781410123,-2325.9328985803872 L1462.9999113534857,-2326.103340815192 " />
			<path d="M-0.14847523245985172,-2233.391516940791 L319.2903099319419,-2256.2762948734617 " />
			<path d="M352.7051712778732,-2258.6701547210037 L672.1443228913223,-2281.5549589062944 " />
			<path d="M704.5938086407416,-2283.8796586919593 L1421.9551035128839,-2335.271833634627 " />
			<path d="M-34.41261690019794,-2234.5796451373935 L1420.3688789257722,-2338.801026568586 " />
			<path d="M-31.951313873423643,-26.532075878994746 L-31.95098107773224,-2232.3291923665142 " />
			<path d="M40.83227013394634,-31.230099131949313 L40.83260115800767,-2225.2847063453714 " />
			<path d="M-0.14880791451780603,-28.347572275420248 L-0.1484751236912036,-2234.112444474734 " />
			<path d="M-4.514830576481458,-28.46189769109027 L-4.514497780790056,-2234.2590141786095 " />
			<path d="M320.90266532920003,-51.351114499813576 L320.90266532920003,-2257.1482075954345 " />
			<path d="M393.6862475861476,-56.04914037913754 L393.6862475861476,-2250.1037275365015 " />
			<path d="M352.70517127787315,-53.166613645009924 L352.70517127787315,-2258.9314656597676 " />
			<path d="M348.339148620333,-53.280941720119344 L348.339148620333,-2259.07803481574 " />
			<path d="M673.7566782885802,-76.17015824450556 L673.7566782885802,-2281.9672513401265 " />
			<path d="M746.5402605455276,-80.86818412382951 L746.5402605455276,-2274.7757601708427 " />
			<path d="M705.5591842372532,-77.9856573897019 L705.5591842372532,-2283.7505094044595 " />
			<path d="M701.1931615797131,-78.09998546481133 L701.1931615797131,-2283.897078560432 " />
			<path d="M1026.6106912479602,-100.98920198919754 L1026.6106912479602,-2306.7862950848184 " />
			<path d="M1099.3942735049077,-105.6872278685215 L1099.3942735049077,-2299.7418150258854 " />
			<path d="M1058.4131971966333,-102.80470113439387 L1058.4131971966333,-2308.5695531491515 " />
			<path d="M1054.047174539093,-102.91902920950332 L1054.047174539093,-2308.716122305124 " />
			<path d="M1390.578131942066,-126.58993957507568 L1390.5778382598871,-2332.3870120136553 " />
			<path d="M1463.3617142013327,-119.54546477207023 L1463.3614205191539,-2325.34253721065 " />
			<path d="M1422.3806378901515,-128.37320289513156 L1422.3803442079727,-2334.1702753337113 " />
			<path d="M1418.014615232563,-128.51977156781214 L1418.0143215503842,-2334.316844006392 " />
			<path d="M1422.1561955222646,-128.38965427564816 L-33.366607935179104,-26.011098828793667 " />
			<path d="M1488.8894113926226,-76.36745661806083 L33.366607935179104,26.011098828793667 " />
			<path d="M1421.7687329617706,-2372.980871627356 L-33.01276286419994,-2268.7594901961634 " />
			<path d="M1463.2324641813495,-2326.0855182214773 L1460.7409093659478,-2325.9070218043057 " />
			<path d="M1388.965484364577,-2320.7649891568485 L1098.4253631965737,-2299.950528101222 " />
			<path d="M1024.9983358507022,-2294.690173713756 L746.5402605455278,-2274.74127735905 " />
			<path d="M672.1443228913223,-2269.4115096809232 L393.68624758614766,-2249.4626133262173 " />
			<path d="M319.2903099319419,-2244.1328456480906 L40.83260099193689,-2224.1839755399956 " />
			<path d="M-33.563336476019906,-2231.987198151802 L-33.563669271711305,-26.190081664283454 " />
			<path d="M41.25422297579445,-2224.24866359273 L41.253892112518514,-31.259755176504804 " />
			<path d="M319.29030993194186,-2256.806212898165 L319.29030993194186,-51.00911980254419 " />
			<path d="M394.1078695313493,-2249.527301376182 L394.1078695313493,-56.078796421345814 " />
			<path d="M672.1443228913222,-2281.625256642857 L672.1443228913222,-75.82816354723619 " />
			<path d="M746.9618824907294,-2274.727345739897 L746.9618824907294,-80.8978401660378 " />
			<path d="M1024.9983358507022,-2306.444300387549 L1024.9983358507022,-100.64720729192817 " />
			<path d="M1099.8158954501093,-2299.546389484589 L1099.8158954501093,-105.71688391072976 " />
			<path d="M1388.9654828627415,-2332.0450168903426 L1388.9657765449203,-126.2479444517628 " />
			<path d="M1463.7830424644199,-2325.1471116121206 L1463.7833361326689,-119.45466441217691 " />

       </g>
    </g>
    
</svg>
