<?xml version="1.0" encoding="UTF-8" standalone="no"?>
<svg
   xmlns:svg="http://www.w3.org/2000/svg"
   xmlns="http://www.w3.org/2000/svg"
   width="480.0"
   height="480.0"

>
    <g transform="scale(0.15654066620243318, -0.15654066620243318)   translate(1522.974802630644,-82.88116418942752)" stroke-width="1.0"  fill="none">
       <!-- hidden lines -->
       <g  stroke="rgb(0,0,0)" fill="none" stroke-dasharray="1.0,1.0" >
			<path d="M-35.40392919221242,-19.0 L-1456.9882860263422,-19.000000000000185 " />
			<path d="M35.40392919221242,-19.0 L-35.40392919221242,-19.0 " />
			<path d="M-37.0999258002226,-15.8 L-37.097882898032374,-15.957016557847739 L-37.091759112992,-16.113654849054594 L-37.08156919783604,-16.26953751825716 L-37.06733770096261,-16.42428903045161 L-37.04909890729423,-16.577536575690445 L-37.02689675568237,-16.72891096721428 L-37.00078473305494,-16.878047530855106 L-36.97082574556159,-17.024586983568287 L-36.9370919670273,-17.168176298976903 L-36.89966466507928,-17.308469557843193 L-36.85863400536617,-17.445128781418312 L-36.814098834341074,-17.577824745662728 L-36.76616644113182,-17.706237774375786 L-36.71495229907203,-17.830058509323667 L-36.66057978751576,-17.94898865551046 L-36.6031798946058,-18.062741699796952 L-36.54289090171183,-18.17104360113587 L-36.479858050298404,-18.27363345076076 L-36.41423319202561,-18.370264100738066 L-36.34617442292509,-18.460702759368147 L-36.27584570253285,-18.544731552000872 L-36.203416458896385,-18.622148045914738 L-36.12906118040765,-18.692765737995018 L-36.05295899544531,-18.75641450403612 L-35.975293240838674,-18.812941008585668 L-35.89625102019332,-18.86220907434307 L-35.816022753142065,-18.904100010222542 L-35.73480171660739,-18.938512897290337 L-35.65278357918044,-18.9653648318873 L-35.57016592973822,-18.98459112535103 L-35.48714780143467,-18.996145459856553 L-35.40392919221243,-19.0 " />
			<path d="M-35.40392919221242,19.0 L-1456.9882860263422,18.999999999999815 " />
			<path d="M35.40392919221242,19.0 L-35.40392919221242,19.0 " />
			<path d="M-35.40392919221242,19.0 L-35.48714780143467,18.996145459856553 L-35.57016592973822,18.98459112535103 L-35.65278357918044,18.9653648318873 L-35.73480171660739,18.938512897290337 L-35.816022753142065,18.904100010222542 L-35.89625102019332,18.86220907434307 L-35.975293240838674,18.812941008585668 L-36.05295899544531,18.75641450403612 L-36.12906118040765,18.692765737995018 L-36.203416458896385,18.622148045914738 L-36.27584570253285,18.544731552000872 L-36.346174422925095,18.460702759368147 L-36.41423319202561,18.370264100738066 L-36.479858050298404,18.27363345076076 L-36.54289090171183,18.17104360113587 L-36.6031798946058,18.062741699796952 L-36.66057978751576,17.94898865551046 L-36.71495229907203,17.830058509323667 L-36.76616644113182,17.706237774375786 L-36.814098834341074,17.577824745662728 L-36.85863400536617,17.44512878141831 L-36.89966466507928,17.308469557843193 L-36.9370919670273,17.168176298976903 L-36.97082574556159,17.024586983568287 L-37.00078473305494,16.878047530855106 L-37.02689675568237,16.72891096721428 L-37.04909890729423,16.577536575690445 L-37.06733770096261,16.42428903045161 L-37.08156919783604,16.26953751825716 L-37.091759112992,16.113654849054594 L-37.097882898032374,15.957016557847739 L-37.0999258002226,15.800000000000008 " />
			<path d="M-37.0999258002226,-15.8 L-37.0999258002226,15.8 " />
			<path d="M-36.622465066162704,-2275.8389749014455 L-36.6199609618016,-2275.9952584025923 L-36.61342003320365,-2276.151136645896 L-36.60285789467024,-2276.3062375236614 L-36.58829975981003,-2276.460190783895 L-36.56978038134992,-2276.6126289141616 L-36.54734396817433,-2276.7631880188965 L-36.521044079791174,-2276.9115086880856 L-36.490943498476234,-2277.05723685524 L-36.45711407940131,-2277.2000246426096 L-36.41963657910373,-2277.3395311916283 L-36.378600462706906,-2277.4754234766006 L-36.33410369035195,-2277.607377099688 L-36.28625248335026,-2277.7350770653056 L-36.23516107061534,-2277.8582185320656 L-36.18095141597906,-2277.9765075404875 L-36.1237529270434,-2278.089661714728 L-36.06370214626264,-2278.1974109366615 L-36.0009424249935,-2278.299497990695 L-35.93562358129115,-2278.3956791777873 L-35.86790154226831,-2278.4857248972 L-35.79793797187081,-2278.5694201945907 L-35.725899884958494,-2278.646565275148 L-35.65195924861253,-2278.716975980535 L-35.57629257162093,-2278.7804842285045 L-35.499080483122285,-2278.8369384141415 L-35.42050730141345,-2278.8862037717695 L-35.3407605939507,-2278.928162696659 L-35.26003072959448,-2278.962715025769 L-35.178510424166824,-2278.989778276853 L-35.09639428040609,-2279.0092878453606 L-35.013878323417394,-2279.021197158656 L-34.93115953272756,-2279.025477787197 " />
			<path d="M8.860030650959198,-2240.6948061309236 L8.816265849389636,-2240.687330323588 L8.772414980957793,-2240.6820018552403 L8.728507559422175,-2240.6788243121982 L8.68457313660428,-2240.6777998331017 " />
			<path d="M8.684573136604264,-2240.6777998331017 L8.678507134926964,-2240.677827594521 " />
			<path d="M8.678507134926962,-2240.6778275945217 L-35.036382593452245,-2241.0258200111884 " />
			<path d="M-35.036382593452245,-2241.0258200111884 L-35.119469497154455,-2241.0303360232792 L-35.20233242933364,-2241.0425501638256 L-35.284771765928234,-2241.062433007893 L-35.36658890335556,-2241.089936655969 L-35.44758673696523,-2241.124994849356 L-35.527570135881476,-2241.1675231297954 L-35.60634641309061,-2241.2174190429346 L-35.68372578964085,-2241.2745623851483 L-35.75952185183645,-2241.338815493121 L-35.83355200032463,-2241.410023575486 L-35.9056378899934,-2241.488015085737 L-35.97560585962058,-2241.572602135494 L-36.04328735023886,-2241.6635809471454 L-36.10851931120915,-2241.7607323447655 L-36.17114459302382,-2241.8638222821273 L-36.23101232589365,-2241.972602406542 L-36.28797828320637,-2242.086810657163 L-36.34190522898119,-2242.20617189631 L-36.39266324848228,-2242.3303985723032 L-36.44013006119479,-2242.4591914121997 L-36.484191315409305,-2242.592240142767 L-36.5247408637051,-2242.7292242379594 L-36.56168101866861,-2242.869813691093 L-36.59492278823096,-2243.0136698098613 L-36.62438609005763,-2243.1604460322737 L-36.64999994447385,-2243.3097887615545 L-36.671702645460805,-2243.461338217988 L-36.68944190931091,-2243.6147293056597 L-36.70317500058375,-2243.7695924920035 L-36.71286883505959,-2243.925554698039 L-36.718500059442086,-2244.0822401971514 L-36.72005510761847,-2244.2392715202495 " />
			<path d="M-36.622465066162704,-2275.838974901445 L-36.720055107618464,-2244.2392715202495 " />
			<path d="M8.373949995799757,-19.000003273808137 L-35.40396247441885,-19.000003278067805 " />
			<path d="M8.373625076204895,-2241.700003273774 L-35.40428739401371,-2241.7000032780343 " />
			<path d="M-39.81355365562234,-19.000002726496934 L-35.40396247441885,-19.00000327806781 " />
			<path d="M-39.813878575217224,-2241.7000027264635 L-35.40428739401373,-2241.7000032780343 " />
			<path d="M8.373625076204892,-2241.7000032737747 L8.736026491579565,-2241.700003252349 L8.828877862300532,-2241.7000032259916 L8.85223284303846,-2241.7000032090937 L8.858080494626085,-2241.700003199749 L8.860030504017091,-2241.7000031898224 " />
			<path d="M8.860030504017091,-2241.7000031898224 L8.858429789379175,-2241.700003180336 L8.853629246895016,-2241.700003170391 L8.834451085586752,-2241.7000031491657 L8.758121771950243,-2241.700003101681 L8.458886444294347,-2241.700002989359 L7.356027113032884,-2241.7000027218737 " />
			<path d="M-6.030764272963411,-19.000000000000007 L-19.440394367726487,-18.999997273515227 " />
			<path d="M-19.440394367726483,-18.999997273515223 L-23.849985548929972,-18.99999672194435 " />
			<path d="M-19.44071928732135,-2241.6999972734816 L-23.85031046852484,-2241.699996721911 " />
			<path d="M-23.849985548929997,-18.999996721944353 L-67.6278980191486,-18.99999672620402 " />
			<path d="M-23.85031046852485,-2241.699996721911 L-67.62822293874345,-2241.699996726171 " />
			<path d="M-67.62789801914859,-18.99999672620402 L-67.99029943452325,-18.99999674762997 L-68.08315080524422,-18.999996773987043 L-68.10650578598215,-18.99999679088482 L-68.11235343756978,-18.99999680022944 L-68.11430344696078,-18.999996810156276 " />
			<path d="M-68.11430344696078,-18.999996810156276 L-68.11270273232286,-18.99999681964272 L-68.10790218983871,-18.999996829587666 L-68.08872402853044,-18.99999685081282 L-68.01239471489393,-18.999996898297905 L-67.71315938723804,-18.999997010620053 L-66.61030005597655,-18.999997278104942 " />
			<path d="M-67.62822293874346,-2241.6999967261704 L-67.99062435411813,-2241.6999967475963 L-68.08347572483909,-2241.6999967739534 L-68.10683070557702,-2241.6999967908514 L-68.11267835716465,-2241.699996800196 L-68.11462836655565,-2241.6999968101227 " />
			<path d="M-68.11462836655565,-2241.6999968101227 L-68.11302765191773,-2241.699996819609 L-68.10822710943359,-2241.699996829554 L-68.08904894812531,-2241.6999968507794 L-68.0127196344888,-2241.699996898264 L-67.71348430683291,-2241.6999970105862 L-66.61062497557143,-2241.6999972780714 " />
			<path d="M-39.81355365562234,-19.00000272649693 L-66.61030005597655,-18.999997278104942 " />
			<path d="M-39.81387857521722,-2241.700002726463 L-66.61062497557143,-2241.6999972780714 " />
			<path d="M-336.2525274956174,-19.000000000000043 L-380.0304399398801,-19.000000000000043 " />
			<path d="M-336.2525274956174,-2241.7 L-380.0304399398801,-2241.7 " />
			<path d="M-384.4400311207066,-19.000000000000043 L-384.12554085531144,-19.000000000000043 L-383.79367734608934,-19.000000000000043 L-383.4486139692204,-19.000000000000043 L-383.09469009687905,-19.000000000000043 L-382.7363565271115,-19.000000000000043 L-382.3781195124676,-19.000000000000043 L-382.02448409126043,-19.000000000000043 L-381.67989743409566,-19.000000000000043 L-381.34869291812095,-19.000000000000043 L-381.03503563229407,-19.000000000000043 L-380.7428699989726,-19.000000000000043 L-380.4758701705139,-19.000000000000043 L-380.23739382467767,-19.000000000000043 L-380.0304399398801,-19.000000000000043 " />
			<path d="M-384.4400311207066,-2241.7 L-384.12554085531144,-2241.7 L-383.79367734608934,-2241.7 L-383.4486139692204,-2241.7 L-383.09469009687905,-2241.7 L-382.7363565271115,-2241.7 L-382.3781195124676,-2241.7 L-382.02448409126043,-2241.7 L-381.67989743409566,-2241.7 L-381.34869291812095,-2241.7 L-381.03503563229407,-2241.7 L-380.7428699989726,-2241.7 L-380.4758701705139,-2241.7 L-380.23739382467767,-2241.7 L-380.0304399398801,-2241.7 " />
			<path d="M-336.2525274956174,-2241.7 L-336.18703501069655,-2241.7 L-336.1259662623856,-2241.7 L-336.06941845960677,-2241.7 L-336.01748161486427,-2241.7 L-335.9702384009628,-2241.7 L-335.92776401940927,-2241.7 L-335.89012608070783,-2241.7 L-335.8573844967373,-2241.7 L-335.8295913853842,-2241.7 L-335.8067909875815,-2241.7 L-335.789019596886,-2241.7 L-335.77630550170716,-2241.7 L-335.7686689402765,-2241.7 L-335.76612206843373,-2241.7 " />
			<path d="M-364.06687186698434,-2241.7 L-364.3813621323795,-2241.7 L-364.7132256416015,-2241.7 L-365.05828901847053,-2241.7 L-365.4122128908119,-2241.7 L-365.7705464605794,-2241.7 L-366.1287834752233,-2241.7 L-366.48241889643054,-2241.7 L-366.82700555359537,-2241.7 L-367.15821006957,-2241.7 L-367.47186735539685,-2241.7 L-367.7640329887183,-2241.7 L-368.03103281717705,-2241.7 L-368.26950916301325,-2241.7 L-368.4764630478108,-2241.7 " />
			<path d="M-368.4764630478108,-19.000000000000043 L-412.2543754920735,-19.000000000000043 " />
			<path d="M-368.4764630478108,-2241.7 L-412.2543754920735,-2241.7 " />
			<path d="M-412.74078091925713,-19.000000000000043 L-412.732420947242,-19.000000000000043 L-412.70738471190407,-19.000000000000043 L-412.66580302713504,-19.000000000000043 L-412.60789315651056,-19.000000000000043 L-412.5339576780919,-19.000000000000043 L-412.4443829034604,-19.000000000000043 L-412.339636859247,-19.000000000000043 L-412.2202668417006,-19.000000000000043 L-412.08689655707497,-19.000000000000043 L-411.94022286277465,-19.000000000000043 L-411.78101212628695,-19.000000000000043 L-411.61009622092524,-19.000000000000043 L-411.4283681793057,-19.000000000000043 L-411.23677752726735,-19.000000000000043 " />
			<path d="M-412.25437549207345,-2241.7 L-412.3198679769944,-2241.7 L-412.38093672530533,-2241.7 L-412.43748452808416,-2241.7 L-412.4894213728267,-2241.7 L-412.53666458672814,-2241.7 L-412.57913896828165,-2241.7 L-412.61677690698315,-2241.7 L-412.64951849095365,-2241.7 L-412.67731160230676,-2241.7 L-412.70011200010947,-2241.7 L-412.71788339080484,-2241.7 L-412.7305974859838,-2241.7 L-412.73823404741444,-2241.7 L-412.74078091925713,-2241.7 " />
			<path d="M-412.74078091925713,-2241.7 L-412.732420947242,-2241.7 L-412.70738471190407,-2241.7 L-412.66580302713504,-2241.7 L-412.60789315651056,-2241.7 L-412.5339576780919,-2241.7 L-412.4443829034604,-2241.7 L-412.339636859247,-2241.7 L-412.2202668417006,-2241.7 L-412.08689655707497,-2241.7 L-411.94022286277465,-2241.7 L-411.78101212628695,-2241.7 L-411.61009622092524,-2241.7 L-411.4283681793057,-2241.7 L-411.23677752726735,-2241.7 " />
			<path d="M-384.4400311207066,-19.000000000000043 L-411.2367775272674,-19.000000000000043 " />
			<path d="M-384.4400311207066,-2241.7 L-411.2367775272674,-2241.7 " />
			<path d="M-680.8790382432851,-19.000000000000085 L-724.6569506875478,-19.000000000000085 " />
			<path d="M-680.8790382432851,-2241.7 L-724.6569506875478,-2241.7 " />
			<path d="M-729.0665418683744,-19.000000000000085 L-728.7520516029792,-19.000000000000085 L-728.420188093757,-19.000000000000085 L-728.0751247168881,-19.000000000000085 L-727.7212008445467,-19.000000000000085 L-727.3628672747792,-19.000000000000085 L-727.0046302601353,-19.000000000000085 L-726.6509948389281,-19.000000000000085 L-726.3064081817633,-19.000000000000085 L-725.9752036657887,-19.000000000000085 L-725.6615463799619,-19.000000000000085 L-725.3693807466402,-19.000000000000085 L-725.1023809181816,-19.000000000000085 L-724.8639045723454,-19.000000000000085 L-724.6569506875478,-19.000000000000085 " />
			<path d="M-729.0665418683744,-2241.7 L-728.7520516029792,-2241.7 L-728.420188093757,-2241.7 L-728.0751247168881,-2241.7 L-727.7212008445467,-2241.7 L-727.3628672747792,-2241.7 L-727.0046302601353,-2241.7 L-726.6509948389281,-2241.7 L-726.3064081817633,-2241.7 L-725.9752036657887,-2241.7 L-725.6615463799619,-2241.7 L-725.3693807466402,-2241.7 L-725.1023809181816,-2241.7 L-724.8639045723454,-2241.7 L-724.6569506875478,-2241.7 " />
			<path d="M-680.8790382432851,-19.000000000000085 L-680.8135457583642,-19.000000000000085 L-680.7524770100532,-19.000000000000085 L-680.6959292072745,-19.000000000000085 L-680.643992362532,-19.000000000000085 L-680.5967491486304,-19.000000000000085 L-680.554274767077,-19.000000000000085 L-680.5166368283756,-19.000000000000085 L-680.4838952444051,-19.000000000000085 L-680.4561021330519,-19.000000000000085 L-680.4333017352492,-19.000000000000085 L-680.4155303445538,-19.000000000000085 L-680.4028162493748,-19.000000000000085 L-680.3951796879442,-19.000000000000085 L-680.3926328161015,-19.000000000000085 " />
			<path d="M-680.3926328161015,-19.000000000000085 L-680.4009927881167,-19.000000000000085 L-680.4260290234546,-19.000000000000085 L-680.4676107082237,-19.000000000000085 L-680.525520578848,-19.000000000000085 L-680.5994560572668,-19.000000000000085 L-680.6890308318982,-19.000000000000085 L-680.7937768761117,-19.000000000000085 L-680.913146893658,-19.000000000000085 L-681.0465171782837,-19.000000000000085 L-681.1931908725841,-19.000000000000085 L-681.3524016090718,-19.000000000000085 L-681.5233175144334,-19.000000000000085 L-681.7050455560528,-19.000000000000085 L-681.8966362080913,-19.000000000000085 " />
			<path d="M-680.8790382432851,-2241.7 L-680.8135457583642,-2241.7 L-680.7524770100532,-2241.7 L-680.6959292072745,-2241.7 L-680.643992362532,-2241.7 L-680.5967491486304,-2241.7 L-680.554274767077,-2241.7 L-680.5166368283756,-2241.7 L-680.4838952444051,-2241.7 L-680.4561021330519,-2241.7 L-680.4333017352492,-2241.7 L-680.4155303445538,-2241.7 L-680.4028162493748,-2241.7 L-680.3951796879442,-2241.7 L-680.3926328161015,-2241.7 " />
			<path d="M-713.1029737954785,-19.000000000000085 L-756.8808862397412,-19.000000000000085 " />
			<path d="M-713.1029737954785,-2241.7 L-756.8808862397412,-2241.7 " />
			<path d="M-756.8808862397412,-19.000000000000085 L-756.9463787246622,-19.000000000000085 L-757.0074474729731,-19.000000000000085 L-757.0639952757518,-19.000000000000085 L-757.1159321204943,-19.000000000000085 L-757.163175334396,-19.000000000000085 L-757.2056497159494,-19.000000000000085 L-757.2432876546508,-19.000000000000085 L-757.2760292386213,-19.000000000000085 L-757.3038223499744,-19.000000000000085 L-757.3266227477772,-19.000000000000085 L-757.3443941384726,-19.000000000000085 L-757.3571082336515,-19.000000000000085 L-757.3647447950821,-19.000000000000085 L-757.3672916669249,-19.000000000000085 " />
			<path d="M-756.8808862397412,-19.000000000000085 L-756.8245216697339,-19.000000000000085 L-756.7653679183026,-19.000000000000085 L-756.7034870766267,-19.000000000000085 L-756.6389440983965,-19.000000000000085 L-756.5718067316333,-19.000000000000085 L-756.5021454475785,-19.000000000000085 L-756.4300333667219,-19.000000000000085 L-756.3555461820506,-19.000000000000085 L-756.2787620795973,-19.000000000000085 L-756.1997616563715,-19.000000000000085 L-756.1186278357609,-19.000000000000085 L-756.0354457804892,-19.000000000000085 L-755.9503028032256,-19.000000000000085 L-755.863288274935,-19.000000000000085 " />
			<path d="M-756.8808862397412,-2241.7 L-756.9463787246622,-2241.7 L-757.0074474729731,-2241.7 L-757.0639952757518,-2241.7 L-757.1159321204943,-2241.7 L-757.163175334396,-2241.7 L-757.2056497159494,-2241.7 L-757.2432876546508,-2241.7 L-757.2760292386213,-2241.7 L-757.3038223499744,-2241.7 L-757.3266227477772,-2241.7 L-757.3443941384726,-2241.7 L-757.3571082336515,-2241.7 L-757.3647447950821,-2241.7 L-757.3672916669249,-2241.7 " />
			<path d="M-757.3672916669249,-2241.7 L-757.3589316949096,-2241.7 L-757.3338954595717,-2241.7 L-757.2923137748027,-2241.7 L-757.2344039041783,-2241.7 L-757.1604684257595,-2241.7 L-757.0708936511281,-2241.7 L-756.9661476069147,-2241.7 L-756.8467775893683,-2241.7 L-756.7134073047428,-2241.7 L-756.5667336104423,-2241.7 L-756.4075228739546,-2241.7 L-756.2366069685928,-2241.7 L-756.0548789269735,-2241.7 L-755.863288274935,-2241.7 " />
			<path d="M-729.0665418683744,-19.000000000000085 L-755.8632882749351,-19.000000000000085 " />
			<path d="M-729.0665418683744,-2241.7 L-755.8632882749351,-2241.7 " />
			<path d="M-1025.5055489909528,-19.00000000000013 L-1069.2834614352155,-19.00000000000013 " />
			<path d="M-1025.5055489909528,-2241.7 L-1069.2834614352155,-2241.7 " />
			<path d="M-1073.6930526160418,-19.00000000000013 L-1073.3785623506467,-19.00000000000013 L-1073.0466988414246,-19.00000000000013 L-1072.7016354645555,-19.00000000000013 L-1072.3477115922142,-19.00000000000013 L-1071.989378022447,-19.00000000000013 L-1071.6311410078029,-19.00000000000013 L-1071.2775055865955,-19.00000000000013 L-1070.9329189294308,-19.00000000000013 L-1070.601714413456,-19.00000000000013 L-1070.2880571276294,-19.00000000000013 L-1069.995891494308,-19.00000000000013 L-1069.728891665849,-19.00000000000013 L-1069.490415320013,-19.00000000000013 L-1069.2834614352155,-19.00000000000013 " />
			<path d="M-1073.6930526160418,-2241.7 L-1073.3785623506467,-2241.7 L-1073.0466988414246,-2241.7 L-1072.7016354645555,-2241.7 L-1072.3477115922142,-2241.7 L-1071.989378022447,-2241.7 L-1071.6311410078029,-2241.7 L-1071.2775055865955,-2241.7 L-1070.9329189294308,-2241.7 L-1070.601714413456,-2241.7 L-1070.2880571276294,-2241.7 L-1069.995891494308,-2241.7 L-1069.728891665849,-2241.7 L-1069.490415320013,-2241.7 L-1069.2834614352155,-2241.7 " />
			<path d="M-1101.9938024145924,-19.00000000000013 L-1101.985442442577,-19.00000000000013 L-1101.9604062072392,-19.00000000000013 L-1101.9188245224705,-19.00000000000013 L-1101.8609146518459,-19.00000000000013 L-1101.7869791734272,-19.00000000000013 L-1101.6974043987957,-19.00000000000013 L-1101.5926583545822,-19.00000000000013 L-1101.473288337036,-19.00000000000013 L-1101.3399180524102,-19.00000000000013 L-1101.19324435811,-19.00000000000013 L-1101.034033621622,-19.00000000000013 L-1100.8631177162606,-19.00000000000013 L-1100.681389674641,-19.00000000000013 L-1100.4897990226025,-19.00000000000013 " />
			<path d="M-1101.5073969874086,-2241.7 L-1101.4510324174014,-2241.7 L-1101.3918786659701,-2241.7 L-1101.3299978242942,-2241.7 L-1101.265454846064,-2241.7 L-1101.1983174793008,-2241.7 L-1101.128656195246,-2241.7 L-1101.0565441143892,-2241.7 L-1100.9820569297183,-2241.7 L-1100.9052728272648,-2241.7 L-1100.8262724040392,-2241.7 L-1100.7451385834283,-2241.7 L-1100.6619565281567,-2241.7 L-1100.5768135508931,-2241.7 L-1100.4897990226025,-2241.7 " />
			<path d="M-1073.6930526160418,-19.00000000000013 L-1100.4897990226027,-19.00000000000013 " />
			<path d="M-1073.6930526160418,-2241.7 L-1100.4897990226027,-2241.7 " />
			<path d="M-1380.9863555512588,-18.99999710859261 L-1424.7642679926826,-18.99999710859261 " />
			<path d="M-1380.9860687168716,-2241.699997108567 L-1424.7639811582953,-2241.699997108567 " />
			<path d="M-1429.1738591734677,-18.999997595566146 L-1424.7642679926823,-18.99999710859261 " />
			<path d="M-1429.1735723390805,-2241.6999975955405 L-1424.763981158295,-2241.699997108567 " />
			<path d="M-1380.9863555512586,-18.999997108592606 L-1380.6239541364,-18.99999712746344 L-1380.5311027658145,-18.99999715070764 L-1380.507747785111,-18.99999716561283 L-1380.5019001335318,-18.999997173856137 L-1380.4999501241437,-18.99999718261341 " />
			<path d="M-1380.4999501241437,-18.99999718261341 L-1380.501550838783,-18.999997190982477 L-1380.506351381271,-18.999997199756304 L-1380.5255295425948,-18.99999721848275 L-1380.601858856293,-18.999997260380574 L-1380.9010941841852,-18.999997359496696 L-1382.0039535162434,-18.999997595566143 " />
			<path d="M-1382.0039535162434,-18.999997595566143 L-1395.4023390138123,-19.000000000000185 " />
			<path d="M-1456.9879167113047,-2241.7000026177975 L-1455.9703187463201,-2241.7000024044046 " />
			<path d="M-1429.1738591734677,-18.999997595566143 L-1455.9706055807071,-19.000002404429814 " />
			<path d="M-1429.1735723390805,-2241.6999975955405 L-1455.97031874632,-2241.7000024044046 " />
			<path d="M-713.1029737954785,-2241.538652580892 L-680.3926328161015,-2241.499640011289 " />
			<path d="M-364.06687186698434,-2241.1223684697293 L-335.7661220684337,-2241.0886150774295 " />
			<path d="M-19.440719142797647,-2240.7113439628724 L8.684573136604264,-2240.6777998331017 " />
			<path d="M-68.11462836655565,-2241.6999968101227 L-68.11462823051816,-2240.7693957657357 " />
			<path d="M-68.11430344696126,-19.000000000000014 L-68.11430344696079,-18.999996810156276 " />
			<path d="M-412.7407809192572,-2241.7 L-412.7407809192572,-2241.1804202725502 " />
			<path d="M-757.3672916669249,-2241.7 L-757.3672916669249,-2241.59144520641 " />
			<path d="M-1380.4999501241432,-19.000000000000185 L-1380.4999501241437,-18.99999718261341 " />

       </g>

       <!-- solid lines -->
       <g  stroke="rgb(0,0,0)" fill="none">
			<path d="M35.40392919221242,-19.0 L-1386.1804276419173,-19.000000000000185 " />
			<path d="M-1386.1804276419173,-19.000000000000185 L-1456.9882860263422,-19.000000000000185 " />
			<path d="M-1458.6842826343523,-15.800000000000187 L-1458.682239732162,-15.957016557847925 L-1458.6761159471218,-16.113654849054782 L-1458.6659260319657,-16.269537518257344 L-1458.6516945350922,-16.4242890304518 L-1458.633455741424,-16.577536575690633 L-1458.6112535898121,-16.728910967214468 L-1458.5851415671848,-16.87804753085529 L-1458.5551825796913,-17.024586983568476 L-1458.521448801157,-17.16817629897709 L-1458.4840214992091,-17.30846955784338 L-1458.442990839496,-17.445128781418497 L-1458.398455668471,-17.577824745662912 L-1458.3505232752616,-17.70623777437597 L-1458.2993091332019,-17.83005850932385 L-1458.2449366216456,-17.948988655510647 L-1458.1875367287355,-18.06274169979714 L-1458.1272477358416,-18.171043601136056 L-1458.064214884428,-18.273633450760947 L-1457.9985900261554,-18.37026410073825 L-1457.9305312570548,-18.46070275936833 L-1457.8602025366627,-18.544731552001057 L-1457.787773293026,-18.622148045914923 L-1457.7134180145374,-18.692765737995206 L-1457.637315829575,-18.756414504036304 L-1457.5596500749684,-18.812941008585852 L-1457.4806078543231,-18.862209074343255 L-1457.4003795872718,-18.904100010222727 L-1457.319158550737,-18.938512897290526 L-1457.2371404133103,-18.965364831887484 L-1457.154522763868,-18.984591125351216 L-1457.0715046355645,-18.996145459856738 L-1456.9882860263422,-19.00000000000019 " />
			<path d="M35.40392919221242,-19.0 L35.48714780143467,-18.996145459856553 L35.57016592973822,-18.98459112535103 L35.65278357918044,-18.9653648318873 L35.73480171660739,-18.938512897290337 L35.816022753142065,-18.904100010222542 L35.89625102019332,-18.86220907434307 L35.975293240838674,-18.812941008585668 L36.05295899544531,-18.75641450403612 L36.12906118040765,-18.692765737995018 L36.203416458896385,-18.622148045914738 L36.27584570253285,-18.544731552000872 L36.346174422925095,-18.460702759368147 L36.41423319202561,-18.370264100738066 L36.479858050298404,-18.27363345076076 L36.54289090171183,-18.17104360113587 L36.6031798946058,-18.062741699796952 L36.66057978751576,-17.94898865551046 L36.71495229907203,-17.830058509323663 L36.76616644113182,-17.706237774375786 L36.814098834341074,-17.577824745662728 L36.85863400536617,-17.445128781418312 L36.89966466507928,-17.308469557843193 L36.9370919670273,-17.168176298976903 L36.97082574556159,-17.02458698356829 L37.00078473305494,-16.878047530855106 L37.026896755682365,-16.728910967214283 L37.04909890729423,-16.57753657569045 L37.06733770096261,-16.42428903045161 L37.08156919783604,-16.269537518257156 L37.091759112992,-16.113654849054594 L37.097882898032374,-15.957016557847739 L37.0999258002226,-15.80000000000003 " />
			<path d="M-1386.1804276419173,-19.00000000000019 L-1386.097209032695,-18.996145459856738 L-1386.0141909043914,-18.984591125351216 L-1385.9315732549492,-18.965364831887484 L-1385.8495551175224,-18.938512897290526 L-1385.7683340809876,-18.904100010222727 L-1385.6881058139363,-18.862209074343255 L-1385.609063593291,-18.812941008585852 L-1385.5313978386844,-18.756414504036307 L-1385.455295653722,-18.692765737995206 L-1385.3809403752334,-18.622148045914923 L-1385.3085111315968,-18.544731552001057 L-1385.2381824112047,-18.46070275936833 L-1385.170123642104,-18.370264100738254 L-1385.1044987838313,-18.273633450760947 L-1385.0414659324179,-18.171043601136056 L-1384.981176939524,-18.06274169979714 L-1384.9237770466138,-17.948988655510647 L-1384.8694045350576,-17.83005850932385 L-1384.8181903929978,-17.706237774375975 L-1384.7702579997886,-17.577824745662912 L-1384.7257228287635,-17.445128781418497 L-1384.6846921690503,-17.30846955784338 L-1384.6472648671024,-17.16817629897709 L-1384.6135310885682,-17.024586983568476 L-1384.5835721010747,-16.878047530855294 L-1384.5574600784473,-16.72891096721447 L-1384.5352579268354,-16.577536575690637 L-1384.5170191331672,-16.4242890304518 L-1384.5027876362938,-16.269537518257344 L-1384.4925977211376,-16.11365484905478 L-1384.4864739360974,-15.957016557847925 L-1384.4844310339072,-15.800000000000216 " />
			<path d="M37.0999258002226,-15.8 L37.0999258002226,15.8 " />
			<path d="M-1384.4844310339072,-15.800000000000187 L-1384.4844310339072,15.799999999999814 " />
			<path d="M35.40392919221242,19.0 L-1386.1804276419173,18.999999999999815 " />
			<path d="M37.0999258002226,15.8 L37.097882898032374,15.957016557847737 L37.091759112992,16.113654849054594 L37.08156919783604,16.269537518257156 L37.06733770096261,16.42428903045161 L37.04909890729423,16.57753657569045 L37.026896755682365,16.728910967214283 L37.000784733054935,16.878047530855106 L36.97082574556159,17.024586983568287 L36.9370919670273,17.168176298976903 L36.89966466507928,17.308469557843193 L36.85863400536617,17.445128781418312 L36.814098834341074,17.577824745662728 L36.76616644113182,17.706237774375786 L36.71495229907203,17.830058509323663 L36.66057978751576,17.94898865551046 L36.6031798946058,18.062741699796952 L36.54289090171182,18.17104360113587 L36.479858050298404,18.27363345076076 L36.41423319202561,18.370264100738066 L36.34617442292509,18.460702759368147 L36.27584570253285,18.544731552000872 L36.203416458896385,18.622148045914734 L36.12906118040765,18.692765737995018 L36.05295899544531,18.75641450403612 L35.975293240838674,18.812941008585668 L35.89625102019332,18.86220907434307 L35.816022753142065,18.904100010222542 L35.73480171660739,18.938512897290337 L35.65278357918044,18.9653648318873 L35.57016592973822,18.98459112535103 L35.48714780143467,18.996145459856553 L35.40392919221244,19.0 " />
			<path d="M-1384.4844310339072,15.799999999999814 L-1384.4864739360974,15.95701655784755 L-1384.4925977211376,16.113654849054406 L-1384.5027876362938,16.26953751825697 L-1384.5170191331672,16.424289030451426 L-1384.5352579268354,16.57753657569026 L-1384.5574600784473,16.728910967214095 L-1384.5835721010747,16.87804753085492 L-1384.6135310885682,17.024586983568103 L-1384.6472648671024,17.168176298976718 L-1384.6846921690503,17.308469557843008 L-1384.7257228287635,17.445128781418124 L-1384.7702579997886,17.57782474566254 L-1384.8181903929978,17.7062377743756 L-1384.8694045350576,17.83005850932348 L-1384.9237770466138,17.94898865551027 L-1384.981176939524,18.062741699796767 L-1385.0414659324179,18.171043601135686 L-1385.1044987838313,18.273633450760574 L-1385.170123642104,18.370264100737877 L-1385.2381824112047,18.46070275936796 L-1385.3085111315968,18.544731552000684 L-1385.3809403752334,18.62214804591455 L-1385.455295653722,18.692765737994833 L-1385.5313978386844,18.75641450403593 L-1385.609063593291,18.81294100858548 L-1385.6881058139363,18.862209074342882 L-1385.7683340809876,18.904100010222354 L-1385.8495551175224,18.938512897290153 L-1385.9315732549492,18.965364831887115 L-1386.0141909043914,18.984591125350846 L-1386.097209032695,18.996145459856365 L-1386.1804276419173,18.999999999999815 " />
			<path d="M-1386.1804276419173,18.999999999999815 L-1456.9882860263422,18.999999999999815 " />
			<path d="M-1456.9882860263422,18.999999999999815 L-1457.0715046355645,18.996145459856365 L-1457.154522763868,18.984591125350846 L-1457.2371404133103,18.965364831887115 L-1457.319158550737,18.938512897290153 L-1457.4003795872718,18.904100010222354 L-1457.4806078543231,18.862209074342882 L-1457.5596500749684,18.812941008585483 L-1457.637315829575,18.75641450403593 L-1457.7134180145374,18.692765737994833 L-1457.787773293026,18.62214804591455 L-1457.8602025366627,18.544731552000684 L-1457.9305312570548,18.46070275936796 L-1457.9985900261554,18.370264100737877 L-1458.064214884428,18.273633450760574 L-1458.1272477358416,18.171043601135683 L-1458.1875367287355,18.062741699796767 L-1458.2449366216456,17.948988655510274 L-1458.2993091332019,17.83005850932348 L-1458.3505232752616,17.7062377743756 L-1458.398455668471,17.577824745662543 L-1458.442990839496,17.445128781418124 L-1458.4840214992091,17.308469557843008 L-1458.521448801157,17.168176298976718 L-1458.5551825796913,17.024586983568103 L-1458.5851415671848,16.878047530854918 L-1458.6112535898121,16.728910967214095 L-1458.633455741424,16.57753657569026 L-1458.6516945350922,16.424289030451426 L-1458.6659260319657,16.26953751825697 L-1458.6761159471218,16.11365484905441 L-1458.682239732162,15.957016557847552 L-1458.6842826343523,15.799999999999821 " />
			<path d="M-1458.6842826343523,-15.800000000000187 L-1458.6842826343523,15.799999999999814 " />
			<path d="M8.795862248069971,-2278.6774709010224 L-34.91902748030923,-2279.025463317689 " />
			<path d="M-1413.5776922516018,-2280.3738900038184 L-1457.292581979981,-2280.721882420485 " />
			<path d="M-34.931159532727555,-2279.025477787197 L-34.92509348198654,-2279.025491079109 " />
			<path d="M-34.925093481986536,-2279.025491079109 L-34.91902748030924,-2279.0254633176896 " />
			<path d="M-1458.996019565834,-2277.535394004241 L-1458.9935050871081,-2277.6920351783187 L-1458.9869352973801,-2277.848268378424 L-1458.976325951766,-2278.003718939261 L-1458.961702492705,-2278.1580140723936 L-1458.9430999889437,-2278.3107837602356 L-1458.9205630514396,-2278.4616616433946 L-1458.8941457263766,-2278.610285899245 L-1458.8639113655581,-2278.75630010962 L-1458.8299324744805,-2278.899354115545 L-1458.7922905384569,-2279.039104856957 L-1458.7510758272063,-2279.1752171954035 L-1458.7063871783764,-2279.307364717745 L-1458.6583317605193,-2279.435230518928 L-1458.6070248160884,-2279.5585079619636 L-1458.5525893850745,-2279.6769014132756 L-1458.4951560099414,-2279.7901269516656 L-1458.4348624225697,-2279.8979130491875 L-1458.3718532139596,-2280.0000012223063 L-1458.3062794874863,-2280.0961466517665 L-1458.2382984965345,-2280.186118769702 L-1458.1680732673885,-2280.2697018125596 L-1458.0957722082753,-2280.3466953385305 L-1458.0215687055024,-2280.416914708228 L-1457.9456407076573,-2280.4801915274766 L-1457.8681702988663,-2280.536374051141 L-1457.7893432621358,-2280.5853275470267 L-1457.709348633823,-2280.6269346189847 L-1457.6283782503046,-2280.661095488442 L-1457.5466262879313,-2280.687728233679 L-1457.4642887973705,-2280.706768986291 L-1457.381563233454,-2280.718172084349 L-1457.298647981658,-2280.7219101819046 " />
			<path d="M-1457.298647981658,-2280.7219101819046 L-1457.2925819799807,-2280.721882420485 " />
			<path d="M8.79586224806997,-2278.6774709010224 L8.87894915177218,-2278.6729548889316 L8.961812083951362,-2278.6607407483853 L9.044251420545963,-2278.6408579043177 L9.12606855797329,-2278.613354256242 L9.20706639158295,-2278.578296062855 L9.287049790499202,-2278.5357677824154 L9.36582606770834,-2278.4858718692763 L9.443205444258579,-2278.4287285270625 L9.519001506454178,-2278.36447541909 L9.593031654942354,-2278.293267336725 L9.665117544611128,-2278.2152758264738 L9.735085514238305,-2278.130688776717 L9.802767004856587,-2278.0397099650654 L9.867998965826875,-2277.9425585674453 L9.930624247641544,-2277.8394686300835 L9.99049198051138,-2277.7306885056687 L10.0474579378241,-2277.616480255048 L10.101384883598914,-2277.497119015901 L10.152142903100007,-2277.3728923399076 L10.199609715812521,-2277.244099500011 L10.243670970027031,-2277.111050769444 L10.284220518322824,-2276.9740666742514 L10.321160673286336,-2276.833477221118 L10.354402442848684,-2276.6896211023495 L10.383865744675354,-2276.542844879937 L10.409479599091572,-2276.3935021506563 L10.431182300078532,-2276.2419526942226 L10.448921563928632,-2276.088561606551 L10.462654655201478,-2275.9336984202073 L10.472348489677314,-2275.777736214172 L10.477979714059812,-2275.6210507150595 L10.479534762236197,-2275.4640193919613 " />
			<path d="M-1413.5776922516015,-2280.373890003818 L-1413.4946053478993,-2280.369373991727 L-1413.4117424157203,-2280.3571598511808 L-1413.3293030791256,-2280.3372770071132 L-1413.2474859416982,-2280.3097733590375 L-1413.1664881080885,-2280.2747151656504 L-1413.0865047091722,-2280.232186885211 L-1413.0077284319632,-2280.1822909720718 L-1412.930349055413,-2280.125147629858 L-1412.8545529932173,-2280.0608945218855 L-1412.7805228447291,-2279.9896864395205 L-1412.7084369550605,-2279.9116949292693 L-1412.6384689854333,-2279.8271078795124 L-1412.570787494815,-2279.736129067861 L-1412.5055555338447,-2279.638977670241 L-1412.44293025203,-2279.535887732879 L-1412.3830625191601,-2279.427107608464 L-1412.3260965618474,-2279.3128993578434 L-1412.2721696160727,-2279.1935381186963 L-1412.2214115965714,-2279.069311442703 L-1412.173944783859,-2278.9405186028066 L-1412.1298835296445,-2278.8074698722394 L-1412.0893339813488,-2278.670485777047 L-1412.0523938263852,-2278.5298963239134 L-1412.0191520568228,-2278.386040205145 L-1411.9896887549962,-2278.2392639827326 L-1411.96407490058,-2278.089921253452 L-1411.942372199593,-2277.938371797018 L-1411.924632935743,-2277.7849807093467 L-1411.9108998444701,-2277.630117523003 L-1411.9012060099942,-2277.4741553169674 L-1411.8955747856116,-2277.317469817855 L-1411.8940197374354,-2277.160438494757 " />
			<path d="M10.479534762236195,-2275.4640193919613 L10.381944720780432,-2243.864316010766 " />
			<path d="M-1411.8940197374352,-2277.160438494757 L-1411.9916097788912,-2245.5607351135613 " />
			<path d="M10.381944720780433,-2243.8643160107654 L10.379722234177395,-2243.718038594023 L10.373963012224761,-2243.5720952482866 L10.364679097996914,-2243.42679115481 L10.351889905031049,-2243.2824301581086 L10.335622176731649,-2243.139314130594 L10.315909930447505,-2242.99774234133 L10.292794386338251,-2242.858010830235 L10.266323881179124,-2242.7204117890296 L10.23655376728424,-2242.5852329502427 L10.20354629675969,-2242.45275698553 L10.16737049132854,-2242.323260914585 L10.128101997999924,-2242.1970155258623 L10.085822930884028,-2242.074284810335 L10.040621699483784,-2241.955325409464 L9.992592823822275,-2241.840386078537 L9.941836736792494,-2241.7297071664975 L9.888459574142718,-2241.6235201133527 L9.83257295253669,-2241.5220469662104 L9.774293736152682,-2241.425499914959 L9.713743792309508,-2241.334080848556 L9.651049736630517,-2241.247980932861 L9.586342668278423,-2241.1673802108903 L9.519757895814628,-2241.092447226329 L9.451434654256309,-2241.0233386710897 L9.38151581392291,-2240.960199057657 L9.310147581680873,-2240.9031604168968 L9.237479195211346,-2240.852342021967 L9.163662610940158,-2240.8078501389086 L9.088852186282653,-2240.76977780443 L9.013204356867833,-2240.7382046313605 L8.936877309416747,-2240.7131966421734 L8.860030650959212,-2240.6948061309236 " />
			<path d="M-1411.9916097788912,-2245.5607351135613 L-1411.9941242576172,-2245.4040939394836 L-1412.0006940473452,-2245.247860739378 L-1412.0113033929592,-2245.0924101785413 L-1412.0259268520203,-2244.9381150454087 L-1412.0445293557816,-2244.7853453575667 L-1412.0670662932857,-2244.6344674744078 L-1412.0934836183487,-2244.4858432185574 L-1412.1237179791672,-2244.3398290081823 L-1412.1576968702448,-2244.1967750022573 L-1412.1953388062684,-2244.0570242608455 L-1412.236553517519,-2243.920911922399 L-1412.2812421663489,-2243.7887644000575 L-1412.329297584206,-2243.660898598874 L-1412.380604528637,-2243.5376211558387 L-1412.4350399596508,-2243.4192277045267 L-1412.4924733347839,-2243.3060021661368 L-1412.5527669221556,-2243.198216068615 L-1412.6157761307657,-2243.096127895496 L-1412.681349857239,-2242.999982466036 L-1412.7493308481908,-2242.9100103481005 L-1412.8195560773368,-2242.8264273052428 L-1412.89185713645,-2242.749433779272 L-1412.9660606392229,-2242.6792144095743 L-1413.041988637068,-2242.6159375903258 L-1413.119459045859,-2242.559755066661 L-1413.1982860825894,-2242.5108015707756 L-1413.2782807109022,-2242.4691944988176 L-1413.3592510944206,-2242.4350336293605 L-1413.441003056794,-2242.4084008841232 L-1413.5233405473548,-2242.3893601315112 L-1413.6060661112713,-2242.377957033453 L-1413.6889813630673,-2242.3742189358977 " />
			<path d="M-1413.6889813630673,-2242.3742189358977 L-1413.6950473647446,-2242.374246697317 " />
			<path d="M-1413.6950473647446,-2242.374246697317 L-1457.4099370931237,-2242.722239113984 " />
			<path d="M-1457.409937093124,-2242.7222391139844 L-1457.4930239968262,-2242.726755126075 L-1457.5758869290053,-2242.7389692666216 L-1457.6583262656,-2242.758852110689 L-1457.7401434030273,-2242.786355758765 L-1457.821141236637,-2242.821413952152 L-1457.9011246355533,-2242.8639422325914 L-1457.9799009127623,-2242.9138381457306 L-1458.0572802893125,-2242.9709814879443 L-1458.1330763515082,-2243.035234595917 L-1458.2071064999964,-2243.106442678282 L-1458.279192389665,-2243.184434188533 L-1458.3491603592922,-2243.26902123829 L-1458.4168418499105,-2243.3600000499414 L-1458.4820738108808,-2243.4571514475615 L-1458.5446990926955,-2243.5602413849233 L-1458.6045668255654,-2243.669021509338 L-1458.661532782878,-2243.783229759959 L-1458.7154597286528,-2243.902590999106 L-1458.766217748154,-2244.026817675099 L-1458.8136845608665,-2244.1556105149957 L-1458.857745815081,-2244.288659245563 L-1458.8982953633767,-2244.4256433407554 L-1458.9352355183403,-2244.566232793889 L-1458.9684772879027,-2244.7100889126573 L-1458.9979405897293,-2244.8568651350697 L-1459.0235544441455,-2245.0062078643505 L-1459.0452571451326,-2245.157757320784 L-1459.0629964089826,-2245.3111484084557 L-1459.0767295002554,-2245.4660115947995 L-1459.0864233347313,-2245.621973800835 L-1459.0920545591139,-2245.7786592999473 L-1459.09360960729,-2245.9356906230455 " />
			<path d="M-1458.996019565834,-2277.535394004241 L-1459.09360960729,-2245.9356906230455 " />
			<path d="M8.373949995799759,-19.000003273808137 L8.736351411174432,-19.000003252382186 L8.829202781895397,-19.000003226025115 L8.852557762633325,-19.00000320912734 L8.85840541422095,-19.000003199782718 L8.860355423611956,-19.00000318985588 " />
			<path d="M8.860355423611956,-19.00000318985588 L8.85875470897404,-19.000003180369436 L8.853954166489881,-19.000003170424492 L8.834776005181617,-19.000003149199337 L8.758446691545108,-19.000003101714253 L8.459211363889214,-19.000002989392105 L7.35635203262775,-19.000002721907215 " />
			<path d="M7.356352032627726,-19.000002721907215 L-6.030764272963411,-19.000000000000007 " />
			<path d="M7.3560271130328605,-2241.7000027218737 L-19.44071928732135,-2241.699997273482 " />
			<path d="M-336.2525274956174,-19.000000000000043 L-336.18703501069655,-19.000000000000043 L-336.1259662623856,-19.000000000000043 L-336.06941845960677,-19.000000000000043 L-336.01748161486427,-19.000000000000043 L-335.9702384009628,-19.000000000000043 L-335.92776401940927,-19.000000000000043 L-335.89012608070783,-19.000000000000043 L-335.8573844967373,-19.000000000000043 L-335.8295913853842,-19.000000000000043 L-335.8067909875815,-19.000000000000043 L-335.789019596886,-19.000000000000043 L-335.77630550170716,-19.000000000000043 L-335.7686689402765,-19.000000000000043 L-335.76612206843373,-19.000000000000043 " />
			<path d="M-335.76612206843373,-19.000000000000043 L-335.7744820404489,-19.000000000000043 L-335.79951827578685,-19.000000000000043 L-335.84109996055594,-19.000000000000043 L-335.89900983118036,-19.000000000000043 L-335.9729453095991,-19.000000000000043 L-336.0625200842305,-19.000000000000043 L-336.16726612844394,-19.000000000000043 L-336.2866361459903,-19.000000000000043 L-336.42000643061596,-19.000000000000043 L-336.5666801249163,-19.000000000000043 L-336.725890861404,-19.000000000000043 L-336.8968067667657,-19.000000000000043 L-337.0785348083852,-19.000000000000043 L-337.27012546042357,-19.000000000000043 " />
			<path d="M-335.76612206843373,-2241.7 L-335.7744820404489,-2241.7 L-335.79951827578685,-2241.7 L-335.84109996055594,-2241.7 L-335.89900983118036,-2241.7 L-335.9729453095991,-2241.7 L-336.0625200842305,-2241.7 L-336.16726612844394,-2241.7 L-336.2866361459903,-2241.7 L-336.42000643061596,-2241.7 L-336.5666801249163,-2241.7 L-336.725890861404,-2241.7 L-336.8968067667657,-2241.7 L-337.0785348083852,-2241.7 L-337.27012546042357,-2241.7 " />
			<path d="M-337.27012546042357,-19.000000000000043 L-364.0668718669844,-19.000000000000043 " />
			<path d="M-337.27012546042357,-2241.7 L-364.0668718669844,-2241.7 " />
			<path d="M-364.06687186698434,-19.000000000000043 L-364.3813621323795,-19.000000000000043 L-364.7132256416015,-19.000000000000043 L-365.05828901847053,-19.000000000000043 L-365.4122128908119,-19.000000000000043 L-365.7705464605794,-19.000000000000043 L-366.1287834752233,-19.000000000000043 L-366.48241889643054,-19.000000000000043 L-366.82700555359537,-19.000000000000043 L-367.15821006957,-19.000000000000043 L-367.47186735539685,-19.000000000000043 L-367.7640329887183,-19.000000000000043 L-368.03103281717705,-19.000000000000043 L-368.26950916301325,-19.000000000000043 L-368.4764630478108,-19.000000000000043 " />
			<path d="M-412.25437549207345,-19.000000000000043 L-412.3198679769944,-19.000000000000043 L-412.38093672530533,-19.000000000000043 L-412.43748452808416,-19.000000000000043 L-412.4894213728267,-19.000000000000043 L-412.53666458672814,-19.000000000000043 L-412.57913896828165,-19.000000000000043 L-412.61677690698315,-19.000000000000043 L-412.64951849095365,-19.000000000000043 L-412.67731160230676,-19.000000000000043 L-412.70011200010947,-19.000000000000043 L-412.71788339080484,-19.000000000000043 L-412.7305974859838,-19.000000000000043 L-412.73823404741444,-19.000000000000043 L-412.74078091925713,-19.000000000000043 " />
			<path d="M-680.3926328161015,-2241.7 L-680.4009927881167,-2241.7 L-680.4260290234546,-2241.7 L-680.4676107082237,-2241.7 L-680.525520578848,-2241.7 L-680.5994560572668,-2241.7 L-680.6890308318982,-2241.7 L-680.7937768761117,-2241.7 L-680.913146893658,-2241.7 L-681.0465171782837,-2241.7 L-681.1931908725841,-2241.7 L-681.3524016090718,-2241.7 L-681.5233175144334,-2241.7 L-681.7050455560528,-2241.7 L-681.8966362080913,-2241.7 " />
			<path d="M-681.8966362080913,-19.000000000000085 L-708.693382614652,-19.000000000000085 " />
			<path d="M-681.8966362080913,-2241.7 L-708.693382614652,-2241.7 " />
			<path d="M-708.6933826146519,-19.000000000000085 L-709.0078728800471,-19.000000000000085 L-709.3397363892693,-19.000000000000085 L-709.6847997661382,-19.000000000000085 L-710.0387236384796,-19.000000000000085 L-710.3970572082471,-19.000000000000085 L-710.755294222891,-19.000000000000085 L-711.1089296440982,-19.000000000000085 L-711.453516301263,-19.000000000000085 L-711.7847208172376,-19.000000000000085 L-712.0983781030644,-19.000000000000085 L-712.3905437363861,-19.000000000000085 L-712.6575435648448,-19.000000000000085 L-712.8960199106809,-19.000000000000085 L-713.1029737954785,-19.000000000000085 " />
			<path d="M-708.6933826146519,-2241.7 L-709.0078728800471,-2241.7 L-709.3397363892693,-2241.7 L-709.6847997661382,-2241.7 L-710.0387236384796,-2241.7 L-710.3970572082471,-2241.7 L-710.755294222891,-2241.7 L-711.1089296440982,-2241.7 L-711.453516301263,-2241.7 L-711.7847208172376,-2241.7 L-712.0983781030644,-2241.7 L-712.3905437363861,-2241.7 L-712.6575435648448,-2241.7 L-712.8960199106809,-2241.7 L-713.1029737954785,-2241.7 " />
			<path d="M-757.3672916669249,-19.000000000000085 L-757.3647447950822,-19.000000000000085 L-757.3571082336515,-19.000000000000085 L-757.3443941384726,-19.000000000000085 L-757.3266227477772,-19.000000000000085 L-757.3038223499744,-19.000000000000085 L-757.2760292386213,-19.000000000000085 L-757.2432876546509,-19.000000000000085 L-757.2056497159494,-19.000000000000085 L-757.1631753343959,-19.000000000000085 L-757.1159321204943,-19.000000000000085 L-757.063995275752,-19.000000000000085 L-757.0074474729731,-19.000000000000085 L-756.9463787246622,-19.000000000000085 L-756.8808862397412,-19.000000000000085 " />
			<path d="M-1025.5055489909528,-19.00000000000013 L-1025.4400565060316,-19.00000000000013 L-1025.378987757721,-19.00000000000013 L-1025.3224399549422,-19.00000000000013 L-1025.2705031101993,-19.00000000000013 L-1025.223259896298,-19.00000000000013 L-1025.1807855147445,-19.00000000000013 L-1025.143147576043,-19.00000000000013 L-1025.1104059920724,-19.00000000000013 L-1025.0826128807196,-19.00000000000013 L-1025.0598124829166,-19.00000000000013 L-1025.0420410922213,-19.00000000000013 L-1025.0293269970423,-19.00000000000013 L-1025.0216904356116,-19.00000000000013 L-1025.019143563769,-19.00000000000013 " />
			<path d="M-1025.019143563769,-19.00000000000013 L-1025.0275035357843,-19.00000000000013 L-1025.0525397711222,-19.00000000000013 L-1025.0941214558911,-19.00000000000013 L-1025.1520313265157,-19.00000000000013 L-1025.2259668049342,-19.00000000000013 L-1025.315541579566,-19.00000000000013 L-1025.4202876237791,-19.00000000000013 L-1025.5396576413257,-19.00000000000013 L-1025.6730279259511,-19.00000000000013 L-1025.8197016202516,-19.00000000000013 L-1025.9789123567393,-19.00000000000013 L-1026.1498282621008,-19.00000000000013 L-1026.3315563037206,-19.00000000000013 L-1026.5231469557589,-19.00000000000013 " />
			<path d="M-1025.5055489909528,-2241.7 L-1025.4400565060316,-2241.7 L-1025.378987757721,-2241.7 L-1025.3224399549422,-2241.7 L-1025.2705031101993,-2241.7 L-1025.223259896298,-2241.7 L-1025.1807855147445,-2241.7 L-1025.143147576043,-2241.7 L-1025.1104059920724,-2241.7 L-1025.0826128807196,-2241.7 L-1025.0598124829166,-2241.7 L-1025.0420410922213,-2241.7 L-1025.0293269970423,-2241.7 L-1025.0216904356116,-2241.7 L-1025.019143563769,-2241.7 " />
			<path d="M-1025.019143563769,-2241.7 L-1025.0275035357843,-2241.7 L-1025.0525397711222,-2241.7 L-1025.0941214558911,-2241.7 L-1025.1520313265157,-2241.7 L-1025.2259668049342,-2241.7 L-1025.315541579566,-2241.7 L-1025.4202876237791,-2241.7 L-1025.5396576413257,-2241.7 L-1025.6730279259511,-2241.7 L-1025.8197016202516,-2241.7 L-1025.9789123567393,-2241.7 L-1026.1498282621008,-2241.7 L-1026.3315563037206,-2241.7 L-1026.5231469557589,-2241.7 " />
			<path d="M-1026.5231469557589,-19.00000000000013 L-1053.3198933623198,-19.00000000000013 " />
			<path d="M-1026.5231469557589,-2241.7 L-1053.3198933623198,-2241.7 " />
			<path d="M-1053.3198933623196,-19.00000000000013 L-1053.6343836277147,-19.00000000000013 L-1053.966247136937,-19.00000000000013 L-1054.311310513806,-19.00000000000013 L-1054.6652343861474,-19.00000000000013 L-1055.0235679559148,-19.00000000000013 L-1055.3818049705585,-19.00000000000013 L-1055.735440391766,-19.00000000000013 L-1056.0800270489306,-19.00000000000013 L-1056.4112315649054,-19.00000000000013 L-1056.7248888507322,-19.00000000000013 L-1057.0170544840535,-19.00000000000013 L-1057.2840543125124,-19.00000000000013 L-1057.5225306583484,-19.00000000000013 L-1057.729484543146,-19.00000000000013 " />
			<path d="M-1053.3198933623196,-2241.7 L-1053.6343836277147,-2241.7 L-1053.966247136937,-2241.7 L-1054.311310513806,-2241.7 L-1054.6652343861474,-2241.7 L-1055.0235679559148,-2241.7 L-1055.3818049705585,-2241.7 L-1055.735440391766,-2241.7 L-1056.0800270489306,-2241.7 L-1056.4112315649054,-2241.7 L-1056.7248888507322,-2241.7 L-1057.0170544840535,-2241.7 L-1057.2840543125124,-2241.7 L-1057.5225306583484,-2241.7 L-1057.729484543146,-2241.7 " />
			<path d="M-1057.729484543146,-19.00000000000013 L-1101.5073969874088,-19.00000000000013 " />
			<path d="M-1057.729484543146,-2241.7 L-1101.5073969874088,-2241.7 " />
			<path d="M-1101.5073969874088,-19.00000000000013 L-1101.5728894723297,-19.00000000000013 L-1101.6339582206406,-19.00000000000013 L-1101.6905060234194,-19.00000000000013 L-1101.742442868162,-19.00000000000013 L-1101.7896860820636,-19.00000000000013 L-1101.832160463617,-19.00000000000013 L-1101.8697984023186,-19.00000000000013 L-1101.902539986289,-19.00000000000013 L-1101.930333097642,-19.00000000000013 L-1101.953133495445,-19.00000000000013 L-1101.9709048861403,-19.00000000000013 L-1101.983618981319,-19.00000000000013 L-1101.99125554275,-19.00000000000013 L-1101.9938024145924,-19.00000000000013 " />
			<path d="M-1101.5073969874088,-2241.7 L-1101.5728894723297,-2241.7 L-1101.6339582206406,-2241.7 L-1101.6905060234194,-2241.7 L-1101.742442868162,-2241.7 L-1101.7896860820636,-2241.7 L-1101.832160463617,-2241.7 L-1101.8697984023186,-2241.7 L-1101.902539986289,-2241.7 L-1101.930333097642,-2241.7 L-1101.953133495445,-2241.7 L-1101.9709048861403,-2241.7 L-1101.983618981319,-2241.7 L-1101.9912555427497,-2241.7 L-1101.9938024145924,-2241.7 " />
			<path d="M-1101.9938024145924,-2241.7 L-1101.9912555427497,-2241.7 L-1101.983618981319,-2241.7 L-1101.97090488614,-2241.7 L-1101.9531334954447,-2241.7 L-1101.9303330976422,-2241.7 L-1101.902539986289,-2241.7 L-1101.8697984023183,-2241.7 L-1101.832160463617,-2241.7 L-1101.7896860820633,-2241.7 L-1101.7424428681618,-2241.7 L-1101.6905060234194,-2241.7 L-1101.6339582206408,-2241.7 L-1101.5728894723297,-2241.7 L-1101.5073969874086,-2241.7 " />
			<path d="M-1380.9860687168714,-2241.699997108567 L-1380.6236673020128,-2241.6999971274377 L-1380.5308159314272,-2241.699997150682 L-1380.5074609507237,-2241.6999971655873 L-1380.5016132991445,-2241.6999971738305 L-1380.4996632897564,-2241.6999971825876 " />
			<path d="M-1380.4996632897564,-2241.6999971825876 L-1380.5012640043958,-2241.6999971909568 L-1380.5060645468839,-2241.6999971997307 L-1380.5252427082075,-2241.699997218457 L-1380.6015720219057,-2241.699997260355 L-1380.900807349798,-2241.699997359471 L-1382.0036666818562,-2241.6999975955405 " />
			<path d="M-1395.4023390138123,-19.000000000000185 L-1408.8006999234829,-19.000002404429814 " />
			<path d="M-1382.0036666818562,-2241.6999975955405 L-1408.8004130890956,-2241.7000024044046 " />
			<path d="M-1408.8006999234826,-19.00000240442981 L-1413.2102911042678,-19.000002891403348 " />
			<path d="M-1408.8004130890956,-2241.7000024044046 L-1413.2100042698808,-2241.700002891378 " />
			<path d="M-1413.210291104268,-19.000002891403348 L-1456.9882035456917,-19.000002891403348 " />
			<path d="M-1413.2100042698808,-2241.700002891378 L-1456.9879167113045,-2241.700002891378 " />
			<path d="M-1456.988203545692,-19.00000289140335 L-1457.3506049605505,-19.000002872532516 L-1457.443456331136,-19.000002849288318 L-1457.4668113118396,-19.000002834383128 L-1457.4726589634188,-19.00000282613982 L-1457.474608972807,-19.000002817382548 " />
			<path d="M-1457.474608972807,-19.000002817382548 L-1457.4730082581675,-19.00000280901348 L-1457.4682077156795,-19.000002800239653 L-1457.4490295543558,-19.000002781513206 L-1457.3727002406577,-19.000002739615383 L-1457.0734649127653,-19.00000264049926 L-1455.9706055807071,-19.000002404429814 " />
			<path d="M-1456.987916711305,-2241.700002891378 L-1457.3503181261635,-2241.7000028725074 L-1457.443169496749,-2241.700002849263 L-1457.4665244774526,-2241.7000028343577 L-1457.4723721290318,-2241.7000028261145 L-1457.47432213842,-2241.7000028173575 " />
			<path d="M-1457.47432213842,-2241.7000028173575 L-1457.4723721290318,-2241.7000028080965 L-1457.4665244774526,-2241.700002798344 L-1457.443169496749,-2241.700002777411 L-1457.3503181261635,-2241.7000027302024 L-1456.9879167113047,-2241.7000026177975 " />
			<path d="M37.0999258002226,-15.8 L-1384.4844310339072,-15.800000000000187 " />
			<path d="M37.0999258002226,15.8 L-1384.4844310339072,15.799999999999814 " />
			<path d="M8.79586224806997,-2278.6774709010224 L-1413.5776922516015,-2280.373890003818 " />
			<path d="M-34.91902748030924,-2279.0254633176896 L-1457.292581979981,-2280.721882420485 " />
			<path d="M10.479534762236195,-2275.4640193919613 L-1411.8940197374354,-2277.160438494757 " />
			<path d="M10.381944720780432,-2243.8643160107654 L-1411.9916097788912,-2245.560735113561 " />
			<path d="M-19.44071914280065,-2240.711364489567 L-335.76612206843373,-2241.088635604124 " />
			<path d="M-364.06687186698434,-2241.122388996424 L-680.3926328161016,-2241.499660537984 " />
			<path d="M-713.1029737954785,-2241.538673107587 L-1413.6950473647446,-2242.3742466973167 " />
			<path d="M7.356352032627726,-19.000002721907215 L7.356027113032861,-2241.7000027218737 " />
			<path d="M-19.44039436772688,-19.000000000000007 L-19.440719287321347,-2241.699997273482 " />
			<path d="M-23.849985548930473,-19.000000000000007 L-23.850310324770035,-2240.716603140177 " />
			<path d="M-67.62789801914909,-19.000000000000014 L-67.6282228026212,-2240.768815645656 " />
			<path d="M-337.27012546042357,-19.000000000000043 L-337.27012546042357,-2241.7 " />
			<path d="M-364.06687186698434,-19.000000000000043 L-364.06687186698434,-2241.7 " />
			<path d="M-368.4764630478108,-19.000000000000043 L-368.4764630478108,-2241.127627647032 " />
			<path d="M-412.25437549207345,-19.000000000000043 L-412.25437549207345,-2241.1798401524716 " />
			<path d="M-681.8966362080913,-19.000000000000085 L-681.8966362080913,-2241.7 " />
			<path d="M-708.6933826146519,-19.000000000000085 L-708.6933826146519,-2241.7 " />
			<path d="M-713.1029737954785,-19.000000000000085 L-713.1029737954785,-2241.7 " />
			<path d="M-756.8808862397412,-19.000000000000085 L-756.8808862397412,-2241.590865086331 " />
			<path d="M-1026.5231469557589,-19.00000000000013 L-1026.5231469557589,-2241.7 " />
			<path d="M-1053.3198933623196,-19.00000000000013 L-1053.3198933623196,-2241.7 " />
			<path d="M-1057.729484543146,-19.00000000000013 L-1057.729484543146,-2241.7 " />
			<path d="M-1101.5073969874088,-19.00000000000013 L-1101.5073969874088,-2241.7 " />
			<path d="M-1382.0039535162434,-19.000000000000185 L-1382.0036666818564,-2241.69999759554 " />
			<path d="M-1408.8006999234826,-19.00000240442981 L-1408.8004130890954,-2241.7000024044037 " />
			<path d="M-1413.210291104268,-19.000002891403348 L-1413.2100042698808,-2241.700002891377 " />
			<path d="M-1456.9882035456917,-19.000002891403348 L-1456.9879167113045,-2241.700002891377 " />
			<path d="M-1455.970605580707,-19.000002404429814 L-1455.970605580707,-19.000002891403348 " />
			<path d="M-1457.2986479816584,-2280.7219101819046 L-34.925093481986536,-2279.025491079109 " />
			<path d="M-1413.6889813630676,-2242.3742189358973 L-713.1029737954785,-2241.538652580892 " />
			<path d="M-680.3926328161015,-2241.499640011289 L-364.06687186698434,-2241.1223684697293 " />
			<path d="M-335.7661220684337,-2241.0886150774295 L-19.440719142797647,-2240.7113439628724 " />
			<path d="M8.860030504017093,-2241.700003189822 L8.860355423611956,-19.00000318985588 " />
			<path d="M-68.11462823051816,-2240.7693957657357 L-68.11430344696126,-19.000000000000014 " />
			<path d="M-335.7661220684337,-2241.7 L-335.7661220684337,-19.000000000000043 " />
			<path d="M-412.7407809192572,-2241.1804202725502 L-412.7407809192572,-19.000000000000043 " />
			<path d="M-680.3926328161015,-2241.7 L-680.3926328161015,-19.000000000000085 " />
			<path d="M-757.3672916669249,-2241.59144520641 L-757.3672916669249,-19.000000000000085 " />
			<path d="M-1025.0191435637691,-2241.7 L-1025.0191435637691,-19.00000000000013 " />
			<path d="M-1101.9938024145922,-2241.7 L-1101.9938024145922,-19.00000000000013 " />
			<path d="M-1380.4996632897564,-2241.6999971825876 L-1380.4999501241432,-19.000000000000185 " />
			<path d="M-1457.4743221384197,-2241.700002817357 L-1457.474608972807,-19.000002817382548 " />

       </g>
    </g>
    
</svg>
