<?xml version="1.0" encoding="UTF-8" standalone="no"?>
<svg
   xmlns:svg="http://www.w3.org/2000/svg"
   xmlns="http://www.w3.org/2000/svg"
   width="480.0"
   height="480.0"

>
    <g transform="scale(0.14024822926228364, -0.14024822926228364)   translate(1404.4619846137484,-492.38442216665595)" stroke-width="1.0"  fill="none">
       <!-- hidden lines -->
       <g  stroke="rgb(0,0,0)" fill="none" stroke-dasharray="1.0,1.0" >
			<path d="M10.85657518465294,-13.065172197876464 L-42.76431789758726,-36.13729336705996 " />
			<path d="M-44.81290797651359,-34.03155458188699 L-44.8116819673603,-34.134359141044655 L-44.8080054073472,-34.23598559029725 L-44.80188269705817,-34.33631228992945 L-44.793321164946974,-34.43521915593486 L-44.782331058565674,-34.53258780374813 L-44.768925532299,-34.62830168994293 L-44.75312063161947,-34.72224625172627 L-44.73493527388208,-34.814309044062085 L-44.71439122568161,-34.90437987426006 L-44.69151307679949,-34.992350933868515 L-44.66632821077157,-35.078116927713545 L-44.63886677211196,-35.16157519992996 L-44.60916163023217,-35.242625856833115 L-44.57724834009875,-35.32117188648463 L-44.54316509967642,-35.39711927480888 L-44.50695270420791,-35.47037711812122 L-44.46865449738481,-35.5408577319333 L-44.4283163194683,-35.60847675590524 L-44.38598645242152,-35.673153254819034 L-44.341715562119504,-35.73480981545231 L-44.295556637705644,-35.793372639236495 L-44.247564928167456,-35.848771630588544 L-44.19779787620739,-35.90094048081042 L-44.14631504948797,-35.94981674745593 L-44.09317806933348,-35.99534192906994 L-44.03845053697359,-36.037461535210525 L-43.982197957417135,-36.07612515167019 L-43.92448766104722,-36.111286500818125 L-43.865388723031536,-36.142903496991266 L-43.804971880644146,-36.17093829686791 L-43.74330944859804,-36.19535734476347 L-43.68047523248945,-36.21613141279431 " />
			<path d="M-43.68047523248944,-36.21613141279431 L-43.62700126124265,-36.23070766107613 L-43.57280292556619,-36.24269721839062 L-43.51792573386808,-36.252090017534435 L-43.462415764567545,-36.25887817170939 L-43.406319627404535,-36.263055981144696 L-43.34968442430325,-36.264619937882884 L-43.29255770982232,-36.26356872872531 L-43.23498745122493,-36.25990323633478 L-43.17702198820243,-36.25362653849443 L-43.11870999228524,-36.24474390552339 L-43.060100425975044,-36.23326279585156 L-43.0012425016328,-36.219192849756915 L-42.94218564015683,-36.202545881271035 L-42.88297942948586,-36.18333586825918 L-42.8236735829618,-36.16157894068364 L-42.76431789758726,-36.13729336705996 " />
			<path d="M42.76431789758726,36.13729336705996 L-42.76431789758726,-0.6641647040443814 " />
			<path d="M-42.764317897587254,-0.6641647040443819 L-42.86483744841039,-0.7110147137781109 L-42.96511483883112,-0.7649483102845669 L-43.06490849183266,-0.8258355628057421 L-43.163977995764036,-0.8935297886172195 L-43.26208468351282,-0.9678679063997042 L-43.35899220747508,-1.04867082911621 L-43.45446710893751,-1.1357438954484107 L-43.54827938049986,-1.2288773387528131 L-43.64020302018295,-1.3278467924069712 L-43.73001657588724,-1.4324138303283305 L-43.81750367889029,-1.5423265413635487 L-43.90245356509801,-1.6573201361645251 L-43.98466158279377,-1.7771175850891352 L-44.063929685662394,-1.9014302855899015 L-44.140066909900995,-2.029958757482812 L-44.21288983426755,-2.162393364421312 L-44.28222302195873,-2.298415059837385 L-44.34789944325251,-2.43769615555268 L-44.40976087789742,-2.5799011112080357 L-44.46765829627898,-2.7246873426095957 L-44.52145221844509,-2.871706047044137 L-44.571013050125465,-3.0206030435753597 L-44.61622139493557,-3.171019626296783 L-44.65696834201298,-3.3225934284856953 L-44.693155728393165,-3.4749592955763258 L-44.7246963754927,-3.6277501648491794 L-44.75151429913008,-3.7805979497172775 L-44.7735448925783,-3.9331344264789894 L-44.79073508220808,-4.084992121401179 L-44.80304345534694,-4.235805195995613 L-44.810440360045874,-4.385210328355931 L-44.81290797651359,-4.532847588431918 " />
			<path d="M-44.81290797651359,-34.031554581886994 L-44.81290797651359,-4.532847588431931 " />
			<path d="M-44.25027312298408,-2143.5743139677625 L-44.24820922190982,-2143.692385309515 L-44.24290528704313,-2143.8088514973347 L-44.23436972461001,-2143.923527943529 L-44.22261606265495,-2144.036232896974 L-44.20766292960027,-2144.1467877311725 L-44.18953402472187,-2144.2550172273586 L-44.168258080588174,-2144.3607498522033 L-44.14386881752176,-2144.463818029678 L-44.11640489015591,-2144.564058406647 L-44.08590982617073,-2144.661312111766 L-44.05243195730594,-2144.755425007278 L-44.0160243427598,-2144.8462479333066 L-43.9767446850953,-2144.93363694426 L-43.93465523878722,-2145.017453536972 L-43.88982271155474,-2145.0975648702142 L-43.842318158636175,-2145.173843975238 " />
			<path d="M10.856280984442487,-2087.0210990050314 L10.767110849417927,-2087.039854274637 L10.677438451922324,-2087.064581383822 L10.587437878876338,-2087.0952323282236 L10.497283854309405,-2087.1317476031477 " />
			<path d="M10.497283854309403,-2087.131747603148 L-42.32473121821866,-2110.2263360784646 " />
			<path d="M-42.324731218218666,-2110.2263360784646 L-42.42512862134169,-2110.2738318121656 L-42.525257391079656,-2110.3284023452193 L-42.624876308456024,-2110.3899162124317 L-42.723745382773245,-2110.4582252215096 L-42.82162642977138,-2110.533164810066 L-42.91828364543484,-2110.6145544420688 L-43.01348417406492,-2110.7021980427653 L-43.10699866924958,-2110.7958844710447 L-43.198601846379006,-2110.8953880280956 L-43.28807302537601,-2111.0004690011333 L-43.37519666233362,-2111.1108742408896 L-43.45976286877931,-2111.226337771472 L-43.541567917314595,-2111.346581431122 L-43.62041473241229,-2111.471315542331 L-43.696113365188666,-2111.6002396096997 L-43.768481451006934,-2111.7330430438574 L-43.837344648809676,-2111.8694059096993 L-43.90253706112167,-2112.0089996971374 L-43.96390163371149,-2112.1514881125104 L-44.02129053394884,-2112.296527888746 L-44.0745655069464,-2112.4437696123186 L-44.12359820862787,-2112.59285856502 L-44.16827051492014,-2112.7434355785035 L-44.20847480632453,-2112.8951378995553 L-44.244114227181555,-2113.047600063996 L-44.27510291900474,-2113.200454777118 L-44.301366227321175,-2113.353333798528 L-44.32284088152075,-2113.505868829274 L-44.33947514728053,-2113.657692399105 L-44.351228951197314,-2113.8084387517442 L-44.358073977327955,-2113.957744726024 L-44.35999373540495,-2114.105250630774 " />
			<path d="M-44.25027312298409,-2143.5743139677625 L-44.35999373540495,-2114.105250630774 " />
			<path d="M10.11488333753778,-13.384290270049599 L-42.764348098262346,-36.13728754748801 " />
			<path d="M10.114589003705916,-2088.2821780381137 L-42.76464243209421,-2111.035175315552 " />
			<path d="M-47.27124627205207,-36.28419904026378 L-47.14815519463274,-36.31918044674683 L-47.0204254214628,-36.351954036582605 L-46.88836466475361,-36.38244085532256 L-46.75229107043524,-36.41056745755001 L-46.61253245171505,-36.436266083816605 L-46.46942549934693,-36.45947482388073 L-46.32331497051385,-36.48013776585473 L-46.174552858277515,-36.49820513090151 L-46.02349754359634,-36.513633393156184 L-45.870512931954266,-36.526385384583605 L-45.71596757668061,-36.53643038451949 L-45.560233791072804,-36.54374419367916 L-45.403686751461045,-36.54830919245572 L-45.246703593375656,-36.55011438336729 L-45.089662502994564,-36.54915541755083 L-44.932941806059674,-36.545434605239 L-44.77691905645702,-36.53896091019456 L-44.621970126656365,-36.5297499281159 L-44.46846830220153,-36.51782384906563 L-44.31678338243279,-36.50321140401279 L-44.1672807896079,-36.48594779561741 L-44.020320688567864,-36.466074613424226 L-43.87625711906826,-36.443639733669826 L-43.7354371428665,-36.41869720394461 L-43.598200007619624,-36.39130711298738 L-43.464876329606994,-36.36153544592635 L-43.33578729724672,-36.32945392531516 L-43.211243897324614,-36.29513983834696 L-43.09154616579981,-36.25867585066283 L-42.976982464991835,-36.22014980720297 L-42.86782878889052,-36.17965452058055 L-42.76434809826235,-36.13728754748801 " />
			<path d="M-47.27154060588394,-2111.1820868083278 L-47.14844952846462,-2111.2170682148108 L-47.02071975529467,-2111.2498418046466 L-46.888658998585484,-2111.2803286233866 L-46.752585404267116,-2111.3084552256137 L-46.61282678554692,-2111.3341538518803 L-46.46971983317881,-2111.3573625919444 L-46.32360930434572,-2111.3780255339184 L-46.17484719210939,-2111.3960928989654 L-46.023791877428216,-2111.41152116122 L-45.87080726578614,-2111.4242731526474 L-45.716261910512486,-2111.4343181525833 L-45.56052812490468,-2111.441631961743 L-45.40398108529292,-2111.4461969605195 L-45.24699792720753,-2111.448002151431 L-45.08995683682644,-2111.447043185615 L-44.93323613989155,-2111.4433223733026 L-44.77721339028889,-2111.4368486782582 L-44.62226446048824,-2111.4276376961798 L-44.468762636033404,-2111.4157116171295 L-44.31707771626466,-2111.4010991720766 L-44.167575123439775,-2111.3838355636813 L-44.02061502239974,-2111.363962381488 L-43.87655145290014,-2111.3415275017337 L-43.735731476698376,-2111.3165849720085 L-43.5984943414515,-2111.289194881051 L-43.46517066343887,-2111.2594232139904 L-43.33608163107859,-2111.227341693379 L-43.21153823115649,-2111.193027606411 L-43.09184049963169,-2111.1565636187265 L-42.97727679882371,-2111.118037575267 L-42.868123122722395,-2111.0775422886445 L-42.76464243209423,-2111.035175315552 " />
			<path d="M10.114589003705909,-2088.2821780381137 L10.20119609231478,-2088.243223183874 L10.283005763568761,-2088.202957043941 L10.359863798129085,-2088.161455523979 L10.431625310982934,-2088.1187968584677 L10.498155024566026,-2088.075061463219 L10.559327523774263,-2088.030331783787 L10.615027492383604,-2087.984692140052 L10.6651499304326,-2087.9382285672655 L10.709600352157707,-2087.8910286538667 L10.748294964108336,-2087.843181376372 L10.781160823105795,-2087.7947769316397 L10.808135973748419,-2087.7459065668477 L10.829169565203642,-2087.696662407476 L10.844221947066854,-2087.6471372836468 L10.853264744106351,-2087.597424555126 L10.856280909753444,-2087.547617935335 " />
			<path d="M10.856280909753444,-2087.547617935335 L10.855081805048078,-2087.5162091587295 L10.851485380681925,-2087.4848239208786 L10.845494331970858,-2087.4534857432363 L10.83711314886575,-2087.4222181119876 L10.8263481125875,-2087.3910444604467 L10.813207290919618,-2087.3599881514956 L10.797700532161883,-2087.3290724600747 L10.779839457749596,-2087.2983205557393 L10.759637453543972,-2087.267755485296 L10.73710965980021,-2087.23740015553 L10.68514596730203,-2087.177409542176 L10.624104126418125,-2087.1185285202173 L10.554167092439918,-2087.060933568515 L10.475544481431529,-2087.0047973113046 L10.388471941966147,-2086.950288000808 L10.293210448837492,-2086.8975690129428 L10.190045520863219,-2086.846798357652 L10.079286365124712,-2086.798128205314 L9.961264950208147,-2086.751704430656 L9.836335011224515,-2086.7076661755373 L9.704870989590791,-2086.666145431911 " />
			<path d="M-14.570921438189524,-2079.412359934366 L-14.69401251560885,-2079.377378527883 L-14.821742288778797,-2079.3446049380473 L-14.953803045487987,-2079.3141181193073 L-15.089876639806358,-2079.28599151708 L-15.229635258526553,-2079.2602928908136 L-15.372742210894664,-2079.2370841507495 L-15.51885273972775,-2079.2164212087755 L-15.66761485196408,-2079.1983538437285 L-15.818670166645257,-2079.1829255814737 L-15.97165477828733,-2079.1701735900465 L-16.126200133560985,-2079.1601285901106 L-16.28193391916879,-2079.152814780951 L-16.438480958780552,-2079.1482497821744 L-16.59546411686594,-2079.146444591263 L-16.75250520724703,-2079.147403557079 L-16.90922590418192,-2079.1511243693913 L-17.06524865378458,-2079.1575980644357 L-17.220197583585232,-2079.166809046514 L-17.373699408040068,-2079.1787351255643 L-17.52538432780881,-2079.1933475706173 L-17.674886920633696,-2079.2106111790126 L-17.821847021673733,-2079.230484361206 L-17.965910591173333,-2079.25291924096 L-18.106730567375095,-2079.2778617706854 L-18.243967702621973,-2079.305251861643 L-18.377291380634603,-2079.3350235287035 L-18.50638041299488,-2079.367105049315 L-18.630923812916983,-2079.401419136283 L-18.75062154444179,-2079.4378831239674 L-18.865185245249766,-2079.476409167427 L-18.974338921351073,-2079.5169044540494 L-19.077819611979237,-2079.559271427142 " />
			<path d="M-19.077819611979248,-2079.5592714271424 L-71.95705104777937,-2102.3122687045807 " />
			<path d="M-71.95675692234902,-28.8835013524988 L-71.86140096736057,-28.922690236957816 L-71.7611904348855,-28.960289490023804 L-71.65633120287791,-28.996221865751604 L-71.54703869983237,-29.030413542719277 " />
			<path d="M-71.95705104777939,-2102.31226870458 L-72.04365813638825,-2102.35122355882 L-72.12546780764224,-2102.391489698753 L-72.20232584220255,-2102.432991218715 L-72.27408735505641,-2102.475649884226 L-72.3406170686395,-2102.519385279475 L-72.40178956784773,-2102.564114958907 L-72.45748953645708,-2102.6097546026417 L-72.50761197450608,-2102.6562181754284 L-72.55206239623118,-2102.703418088827 L-72.59075700818181,-2102.751265366322 L-72.62362286717926,-2102.799669811054 L-72.65059801782189,-2102.848540175846 L-72.67163160927711,-2102.8977843352177 L-72.68668399114033,-2102.947309459047 L-72.69572678817983,-2102.997022187568 L-72.69874295382692,-2103.046828807359 " />
			<path d="M-72.69874295382692,-2103.046828807359 L-72.69754384912156,-2103.0782375839644 L-72.6939474247554,-2103.1096228218153 L-72.68795637604433,-2103.1409609994575 L-72.67957519293923,-2103.1722286307063 L-72.66881015666097,-2103.203402282247 L-72.65566933499309,-2103.2344585911983 L-72.64016257623535,-2103.265374282619 L-72.62230150182307,-2103.2961261869546 L-72.60209949761744,-2103.3266912573977 L-72.57957170387368,-2103.357046587164 L-72.5276080113755,-2103.417037200518 L-72.4665661704916,-2103.4759182224766 L-72.3966291365134,-2103.533513174179 L-72.318006525505,-2103.5896494313893 L-72.23093398603962,-2103.644158741886 L-72.13567249291097,-2103.696877729751 L-72.0325075649367,-2103.747648385042 L-71.92174840919819,-2103.79631853738 L-71.80372699428162,-2103.842742312038 L-71.67879705529799,-2103.8867805671566 L-71.54733303366424,-2103.928301310783 " />
			<path d="M-47.271246272052075,-36.284199040263786 L-71.54703869983237,-29.03041354271929 " />
			<path d="M-47.271540605883935,-2111.1820868083278 L-71.54733303366423,-2103.9283013107834 " />
			<path d="M-302.09021451367477,79.90482916353298 L-354.96944592596077,57.15183188304482 " />
			<path d="M-302.09021451367477,-1994.9931466071173 L-354.96944592596077,-2017.7461438876055 " />
			<path d="M-359.4763440995987,57.00491987477693 L-359.35325302214324,56.96993849358222 L-359.2255232489394,56.937164928974155 L-359.0934624921987,56.9066781353405 L-358.9573888978513,56.87855155803744 L-358.8176302791045,56.8528529564533 L-358.6745233267124,56.82964424077023 L-358.528412797858,56.80898132281715 L-358.37965068560294,56.790913981373265 L-358.22859537090585,56.77548574224663 L-358.0756107592506,56.762733773416656 L-357.92106540396657,56.75268879549319 L-357.7653316183512,56.74537500770789 L-357.6087845787347,56.74081002961615 L-357.4518014206474,56.73900485865002 L-357.2947603302673,56.73996384362448 L-357.1380396333363,56.743684674260734 L-356.9820168837403,56.75015838675187 L-356.8270679539492,56.759369385357466 L-356.6735661295067,56.771295479975095 L-356.521881209753,56.78590793959821 L-356.372378616946,56.8031715615317 L-356.2254185159265,56.823044756198186 L-356.08135494645006,56.845479647331054 L-355.9405349702741,56.870422187312485 L-355.8032978350555,56.89781228737897 L-355.6699741570736,56.92758396238034 L-355.5408851247465,56.95966548974384 L-355.4163417248599,56.99397958226004 L-355.29664399337275,57.0304435742745 L-355.1820802926046,57.0689696208366 L-355.07292661654515,57.10946490932569 L-354.96944592596077,57.15183188304481 " />
			<path d="M-359.4763440995987,-2017.8930558958734 L-359.35325302214324,-2017.9280372770681 L-359.2255232489394,-2017.9608108416762 L-359.0934624921987,-2017.9912976353098 L-358.9573888978513,-2018.0194242126129 L-358.8176302791045,-2018.0451228141972 L-358.6745233267124,-2018.0683315298802 L-358.528412797858,-2018.0889944478333 L-358.37965068560294,-2018.1070617892772 L-358.22859537090585,-2018.1224900284037 L-358.0756107592506,-2018.1352419972336 L-357.92106540396657,-2018.1452869751572 L-357.7653316183512,-2018.1526007629425 L-357.6087845787347,-2018.1571657410343 L-357.4518014206474,-2018.1589709120003 L-357.2947603302673,-2018.1580119270259 L-357.1380396333363,-2018.1542910963897 L-356.9820168837403,-2018.1478173838984 L-356.8270679539492,-2018.1386063852929 L-356.6735661295067,-2018.1266802906753 L-356.521881209753,-2018.1120678310522 L-356.372378616946,-2018.0948042091186 L-356.2254185159265,-2018.0749310144522 L-356.08135494645006,-2018.0524961233193 L-355.9405349702741,-2018.027553583338 L-355.8032978350555,-2018.0001634832713 L-355.6699741570736,-2017.97039180827 L-355.5408851247465,-2017.9383102809065 L-355.4163417248599,-2017.9039961883902 L-355.29664399337275,-2017.8675321963758 L-355.1820802926046,-2017.8290061498137 L-355.07292661654515,-2017.7885108613248 L-354.96944592596077,-2017.7461438876055 " />
			<path d="M-302.0902145136747,-1994.9931466071173 L-302.00360741898385,-1994.9541917504782 L-301.921797742358,-1994.9139256089315 L-301.8449397031685,-1994.8724240881559 L-301.773178186458,-1994.8297654226426 L-301.7066484698176,-1994.7860300282161 L-301.6454759683755,-1994.7413003504416 L-301.58977599837664,-1994.6956607092072 L-301.53965355980034,-1994.6491971397727 L-301.4952031384249,-1994.6019972305844 L-301.45650852771246,-1994.554149958162 L-301.4236426708499,-1994.5057455193698 L-301.396667523244,-1994.4568751613856 L-301.3756339357288,-1994.4076310096912 L-301.3605815587074,-1994.3581058944067 L-301.35153876740645,-1994.308393175297 L-301.3485226083863,-1994.258586565778 " />
			<path d="M-326.77572496473704,-1986.123334107944 L-326.89881604219255,-1986.0883527267492 L-327.02654581539633,-1986.0555791621412 L-327.15860657213705,-1986.0250923685076 L-327.29468016648445,-1985.9969657912045 L-327.43443878523124,-1985.9712671896202 L-327.5775457376233,-1985.9480584739372 L-327.72365626647775,-1985.927395555984 L-327.8724183787328,-1985.9093282145402 L-328.0234736934299,-1985.8938999754137 L-328.17645830508513,-1985.8811480065838 L-328.33100366036916,-1985.8711030286602 L-328.48673744598455,-1985.863789240875 L-328.64328448560104,-1985.859224262783 L-328.8002676436883,-1985.857419091817 L-328.9573087340684,-1985.8583780767915 L-329.11402943099944,-1985.8620989074277 L-329.2700521805954,-1985.868572619919 L-329.4250011103865,-1985.8777836185245 L-329.57850293482903,-1985.889709713142 L-329.7301878545827,-1985.9043221727652 L-329.87969044738975,-1985.9215857946988 L-330.02665054840924,-1985.9414589893652 L-330.17071411788567,-1985.963893880498 L-330.31153409406164,-1985.9888364204794 L-330.4487712292802,-1986.016226520546 L-330.5820949072621,-1986.0459981955473 L-330.7111839395892,-1986.0780797229108 L-330.83572733947585,-1986.1123938154271 L-330.955425070963,-1986.1488578074416 L-331.0699887717311,-1986.1873838540037 L-331.1791424477906,-1986.2278791424926 L-331.28262313837496,-1986.2702461162119 " />
			<path d="M-331.282623138375,-1986.2702461162119 L-384.161854550661,-2009.0232433967 " />
			<path d="M-384.161854550661,64.40561229127144 L-384.06649863907495,64.36642345472235 L-383.9662881557464,64.32882424807148 L-383.86142897829916,64.29289191708261 L-383.7521365348758,64.25870028300358 " />
			<path d="M-384.161854550661,-2009.0232433967 L-384.2484616453519,-2009.0621982533391 L-384.3302713219777,-2009.1024643948858 L-384.4071293611672,-2009.1439659156615 L-384.47889087787775,-2009.1866245811748 L-384.54542059451813,-2009.2303599756012 L-384.60659309596025,-2009.2750896533757 L-384.6622930659591,-2009.3207292946101 L-384.7124155045354,-2009.3671928640447 L-384.7568659259108,-2009.414392773233 L-384.79556053662327,-2009.4622400456553 L-384.8284263934858,-2009.5106444844475 L-384.85540154109174,-2009.5595148424318 L-384.87643512860694,-2009.6087589941262 L-384.89148750562833,-2009.6582841094107 L-384.9005302969293,-2009.7079968285204 L-384.9035464559494,-2009.7578034380394 " />
			<path d="M-384.9035464559494,-2009.7578034380394 L-384.90234734692683,-2009.789212203636 L-384.898750918523,-2009.8205974301488 L-384.8927598660565,-2009.8519355961348 L-384.88437867948056,-2009.883203215421 L-384.87361364001794,-2009.9143768547042 L-384.86047281545365,-2009.9454331511147 L-384.8449660540884,-2009.976348829724 L-384.8271049773582,-2010.0071007209888 L-384.80690297112443,-2010.0376657781153 L-384.784375175642,-2010.068021094331 L-384.7324114805322,-2010.1280116799353 L-384.67136963818166,-2010.1868926733648 L-384.6014326038652,-2010.2444875958647 L-384.52280999362375,-2010.3006238233058 L-384.43573745600105,-2010.3551331035765 L-384.3404759657552,-2010.4078520608675 L-384.2373110416624,-2010.4586226853462 L-384.1265518907566,-2010.5072928067436 L-384.00853048157137,-2010.5537165504425 L-383.8836005491597,-2010.5977547746918 L-383.7521365348758,-2010.6392754876467 " />
			<path d="M-359.4763440995987,57.00491987477692 L-383.7521365348757,64.25870028300358 " />
			<path d="M-359.4763440995987,-2017.8930558958734 L-383.7521365348757,-2010.6392754876467 " />
			<path d="M-614.2953425420482,173.19395441363773 L-667.1745739543343,150.44095713314957 " />
			<path d="M-614.2953425420482,-1901.7040213570124 L-667.1745739543343,-1924.4570186375006 " />
			<path d="M-671.6814721279721,150.2940451248817 L-671.5583810505167,150.259063743687 L-671.4306512773129,150.22629017907892 L-671.2985905205722,150.19580338544526 L-671.1625169262247,150.1676768081422 L-671.0227583074781,150.14197820655806 L-670.8796513550859,150.118769490875 L-670.7335408262314,150.09810657292192 L-670.5847787139764,150.08003923147803 L-670.4337233992793,150.0646109923514 L-670.280738787624,150.05185902352142 L-670.1261934323401,150.04181404559796 L-669.9704596467246,150.03450025781265 L-669.8139126071083,150.02993527972092 L-669.6569294490209,150.0281301087548 L-669.4998883586409,150.02908909372925 L-669.3431676617098,150.0328099243655 L-669.1871449121138,150.03928363685662 L-669.0321959823227,150.04849463546222 L-668.8786941578802,150.06042073007987 L-668.7270092381266,150.075033189703 L-668.5775066453195,150.09229681163646 L-668.4305465443,150.11217000630296 L-668.2864829748236,150.13460489743582 L-668.1456629986476,150.15954743741725 L-668.008425863429,150.18693753748374 L-667.8751021854472,150.2167092124851 L-667.7460131531201,150.2487907398486 L-667.6214697532334,150.2831048323648 L-667.5017720217463,150.31956882437927 L-667.3872083209781,150.35809487094136 L-667.2780546449186,150.39859015943046 L-667.1745739543343,150.44095713314957 " />
			<path d="M-671.6814721279721,-1924.6039306457685 L-671.5583810505167,-1924.6389120269632 L-671.4306512773129,-1924.6716855915713 L-671.2985905205722,-1924.702172385205 L-671.1625169262247,-1924.730298962508 L-671.0227583074781,-1924.7559975640922 L-670.8796513550859,-1924.7792062797753 L-670.7335408262314,-1924.7998691977284 L-670.5847787139764,-1924.8179365391723 L-670.4337233992793,-1924.8333647782988 L-670.280738787624,-1924.8461167471287 L-670.1261934323401,-1924.8561617250523 L-669.9704596467246,-1924.8634755128376 L-669.8139126071083,-1924.8680404909294 L-669.6569294490209,-1924.8698456618954 L-669.4998883586409,-1924.868886676921 L-669.3431676617098,-1924.8651658462848 L-669.1871449121138,-1924.8586921337935 L-669.0321959823227,-1924.849481135188 L-668.8786941578802,-1924.8375550405704 L-668.7270092381266,-1924.8229425809473 L-668.5775066453195,-1924.8056789590137 L-668.4305465443,-1924.7858057643473 L-668.2864829748236,-1924.7633708732144 L-668.1456629986476,-1924.738428333233 L-668.008425863429,-1924.7110382331664 L-667.8751021854472,-1924.6812665581651 L-667.7460131531201,-1924.6491850308016 L-667.6214697532334,-1924.6148709382853 L-667.5017720217463,-1924.578406946271 L-667.3872083209781,-1924.5398808997088 L-667.2780546449186,-1924.4993856112199 L-667.1745739543343,-1924.4570186375006 " />
			<path d="M-614.2953425420483,-1901.7040213570124 L-614.2071142881323,-1901.6643032671377 L-614.1238731363384,-1901.6232244082432 L-614.0457821050052,-1901.5808652286073 L-613.9729941265455,-1901.5373086838706 L-613.9056517479455,-1901.4926400745774 L-613.843886851603,-1901.4469468791242 L-613.7878203970499,-1901.400318582443 L-613.737562184068,-1901.3528465007555 " />
			<path d="M-642.7248008587786,-1892.742528021393 L-642.8312133841439,-1892.7674297827687 L-642.934784847145,-1892.7938267627992 L-643.0353519345209,-1892.8216773382728 L-643.1327560703614,-1892.8509375939243 L-643.226843666153,-1892.8815613916797 L-643.3174663629587,-1892.9135004434095 L-643.4044812653547,-1892.9467043870682 L-643.4877511667485,-1892.9811208661072 " />
			<path d="M-643.4877511667484,-1892.981120866107 L-696.3669825790345,-1915.7341181465952 " />
			<path d="M-696.3669825790345,157.69473754137618 L-696.2716266674483,157.65554870482708 L-696.1714161841198,157.61794949817622 L-696.0665570066726,157.58201716718736 L-695.9572645632493,157.54782553310832 " />
			<path d="M-696.3669825790345,-1915.7341181465952 L-696.4535896737253,-1915.7730730032342 L-696.5353993503512,-1915.813339144781 L-696.6122573895407,-1915.8548406655566 L-696.6840189062511,-1915.8974993310699 L-696.7505486228915,-1915.9412347254963 L-696.8117211243336,-1915.9859644032708 L-696.8674210943326,-1916.0316040445052 L-696.9175435329089,-1916.0780676139398 L-696.9619939542843,-1916.125267523128 L-697.0006885649967,-1916.1731147955504 L-697.0335544218592,-1916.2215192343426 L-697.0605295694652,-1916.2703895923269 L-697.0815631569803,-1916.3196337440213 L-697.0966155340018,-1916.3691588593058 L-697.1056583253028,-1916.4188715784155 L-697.1086744843229,-1916.4686781879345 " />
			<path d="M-697.1086744843229,-1916.4686781879345 L-697.1074753753003,-1916.500086953531 L-697.1038789468964,-1916.531472180044 L-697.09788789443,-1916.56281034603 L-697.0895067078541,-1916.594077965316 L-697.0787416683914,-1916.6252516045993 L-697.065600843827,-1916.6563079010098 L-697.0500940824619,-1916.687223579619 L-697.0322330057317,-1916.7179754708839 L-697.0120309994978,-1916.7485405280104 L-696.9895032040155,-1916.778895844226 L-696.9375395089056,-1916.8388864298304 L-696.8764976665551,-1916.89776742326 L-696.8065606322386,-1916.9553623457598 L-696.7279380219973,-1917.011498573201 L-696.6408654843746,-1917.0660078534715 L-696.5456039941287,-1917.1187268107626 L-696.4424390700358,-1917.1694974352413 L-696.3316799191301,-1917.2181675566387 L-696.2136585099448,-1917.2645913003375 L-696.0887285775332,-1917.3086295245869 L-695.9572645632493,-1917.3501502375418 " />
			<path d="M-671.6814721279721,150.29404512488165 L-695.9572645632492,157.5478255331083 " />
			<path d="M-671.6814721279721,-1924.6039306457685 L-695.9572645632492,-1917.3501502375418 " />
			<path d="M-926.5004705704215,266.4830796637424 L-979.3797019827076,243.73008238325426 " />
			<path d="M-926.5491495808111,-1808.4358418234287 L-979.3797019827076,-1831.167893387396 " />
			<path d="M-983.8866001563455,243.58317037498642 L-983.76350907889,243.5481889937917 L-983.6357793056862,243.51541542918363 L-983.5037185489456,243.48492863554998 L-983.3676449545981,243.45680205824692 L-983.2278863358514,243.43110345666278 L-983.0847793834592,243.4078947409797 L-982.9386688546048,243.38723182302664 L-982.7899067423498,243.36916448158274 L-982.6388514276526,243.3537362424561 L-982.4858668159974,243.34098427362613 L-982.3313214607134,243.33093929570268 L-982.175587675098,243.32362550791737 L-982.0190406354816,243.31906052982563 L-981.8620574773943,243.3172553588595 L-981.7050163870142,243.31821434383397 L-981.5482956900831,243.3219351744702 L-981.3922729404871,243.32840888696134 L-981.237324010696,243.33761988556694 L-981.0838221862535,243.3495459801846 L-980.9321372664999,243.3641584398077 L-980.7826346736929,243.38142206174118 L-980.6356745726733,243.40129525640768 L-980.4916110031969,243.42373014754054 L-980.3507910270209,243.44867268752196 L-980.2135538918023,243.47606278758846 L-980.0802302138205,243.50583446258983 L-979.9511411814934,243.53791598995332 L-979.8265977816068,243.57223008246953 L-979.7069000501197,243.608694074484 L-979.5923363493514,243.64722012104608 L-979.4831826732919,243.68771540953517 L-979.3797019827076,243.73008238325428 " />
			<path d="M-983.8866001563455,-1831.3148053956638 L-983.76350907889,-1831.3497867768585 L-983.6357793056862,-1831.3825603414666 L-983.5037185489456,-1831.4130471351002 L-983.3676449545981,-1831.4411737124033 L-983.2278863358514,-1831.4668723139876 L-983.0847793834592,-1831.4900810296706 L-982.9386688546048,-1831.5107439476237 L-982.7899067423498,-1831.5288112890676 L-982.6388514276526,-1831.544239528194 L-982.4858668159974,-1831.556991497024 L-982.3313214607134,-1831.5670364749476 L-982.175587675098,-1831.5743502627329 L-982.0190406354816,-1831.5789152408247 L-981.8620574773943,-1831.5807204117907 L-981.7050163870142,-1831.5797614268163 L-981.5482956900831,-1831.57604059618 L-981.3922729404871,-1831.5695668836888 L-981.237324010696,-1831.5603558850833 L-981.0838221862535,-1831.5484297904657 L-980.9321372664999,-1831.5338173308426 L-980.7826346736929,-1831.516553708909 L-980.6356745726733,-1831.4966805142426 L-980.4916110031969,-1831.4742456231097 L-980.3507910270209,-1831.4493030831284 L-980.2135538918023,-1831.4219129830617 L-980.0802302138205,-1831.3921413080604 L-979.9511411814934,-1831.360059780697 L-979.8265977816068,-1831.3257456881806 L-979.7069000501197,-1831.2892816961662 L-979.5923363493514,-1831.2507556496041 L-979.4831826732919,-1831.2102603611152 L-979.3797019827076,-1831.167893387396 " />
			<path d="M-955.8125567360769,-1799.7434907435063 L-1008.5721106074079,-1822.4449928964905 " />
			<path d="M-1008.5721106074079,250.983862791481 L-1008.4767546958218,250.9446739549319 L-1008.3765442124932,250.907074748281 L-1008.271685035046,250.87114241729213 L-1008.1623925916226,250.83695078321307 " />
			<path d="M-1008.5721106074078,-1822.4449928964905 L-1008.6587177020987,-1822.4839477531295 L-1008.7405273787246,-1822.5242138946762 L-1008.817385417914,-1822.565715415452 L-1008.8891469346245,-1822.6083740809652 L-1008.9556766512649,-1822.6521094753916 L-1009.016849152707,-1822.6968391531661 L-1009.0725491227059,-1822.7424787944005 L-1009.1226715612822,-1822.788942363835 L-1009.1671219826576,-1822.8361422730234 L-1009.2058165933701,-1822.8839895454457 L-1009.2386824502325,-1822.932393984238 L-1009.2656575978385,-1822.9812643422222 L-1009.2866911853537,-1823.0305084939166 L-1009.3017435623751,-1823.080033609201 L-1009.3107863536761,-1823.1297463283108 L-1009.3138025126963,-1823.1795529378298 " />
			<path d="M-1009.3138025126963,-1823.1795529378298 L-1009.3126034036736,-1823.2109617034264 L-1009.3090069752698,-1823.2423469299392 L-1009.3030159228033,-1823.2736850959252 L-1009.2946347362274,-1823.3049527152114 L-1009.2838696967648,-1823.3361263544946 L-1009.2707288722004,-1823.367182650905 L-1009.2552221108352,-1823.3980983295144 L-1009.237361034105,-1823.4288502207792 L-1009.2171590278712,-1823.4594152779057 L-1009.1946312323888,-1823.4897705941214 L-1009.142667537279,-1823.5497611797257 L-1009.0816256949284,-1823.6086421731552 L-1009.011688660612,-1823.666237095655 L-1008.9330660503706,-1823.7223733230962 L-1008.8459935127479,-1823.7768826033669 L-1008.750732022502,-1823.829601560658 L-1008.6475670984091,-1823.8803721851366 L-1008.5368079475035,-1823.929042306534 L-1008.4187865383182,-1823.9754660502329 L-1008.2938566059065,-1824.0195042744822 L-1008.1623925916226,-1824.0610249874371 " />
			<path d="M-983.8866001563455,243.5831703749864 L-1008.1623925916225,250.83695078321304 " />
			<path d="M-983.8866001563455,-1831.3148053956638 L-1008.1623925916225,-1824.0610249874371 " />
			<path d="M-1248.5387562635358,362.7104254380973 L-1301.4179876732503,339.95742815684065 " />
			<path d="M-1249.3704041956616,-1712.5455831708784 L-1301.4177278233437,-1734.940625258797 " />
			<path d="M-1305.9248858468713,339.8105156939158 L-1305.801794769412,339.7755343350286 L-1305.6740649962044,339.74276079267446 L-1305.5420042394603,339.7122740211874 L-1305.4059306451097,339.6841474658703 L-1305.26617202636,339.65844888605847 L-1305.1230650739653,339.63524019188173 L-1304.9769545451086,339.61457729511704 L-1304.8281924328514,339.59650997449273 L-1304.6771371181526,339.58108175576655 L-1304.524152506496,339.56832980686886 L-1304.3696071512106,339.5582848483614 L-1304.2138733655945,339.55097107942913 L-1304.0573263259776,339.546406119582 L-1303.90034316789,339.5446009662081 L-1303.7433020775102,339.54555996808006 L-1303.5865813805794,339.54928081487833 L-1303.4305586309843,339.5557545427571 L-1303.275609701194,339.5649655559388 L-1303.122107876753,339.576891664286 L-1302.970422957001,339.591504136759 L-1302.820920364196,339.6087677706318 L-1302.6739602631787,339.6286409762982 L-1302.5298966937048,339.6510758774651 L-1302.3890767175317,339.6760184264905 L-1302.251839582316,339.70340853458913 L-1302.1185159043375,339.73318021659145 L-1301.989426872014,339.76526174990784 L-1301.8648834721314,339.79957584731454 L-1301.7451857406484,339.83603984314533 L-1301.6306220398847,339.8745658924404 L-1301.5214683638296,339.91506118257246 L-1301.41798767325,339.95742815684065 " />
			<path d="M-1305.924625996965,-1735.0875377217217 L-1305.8015349195057,-1735.1225190806088 L-1305.673805146298,-1735.155292622963 L-1305.541744389554,-1735.18577939445 L-1305.4056707952034,-1735.2139059497672 L-1305.2659121764536,-1735.239604529579 L-1305.122805224059,-1735.2628132237558 L-1304.9766946952022,-1735.2834761205204 L-1304.827932582945,-1735.3015434411448 L-1304.6768772682462,-1735.316971659871 L-1304.5238926565896,-1735.3297236087687 L-1304.3693473013043,-1735.339768567276 L-1304.2136135156882,-1735.3470823362084 L-1304.0570664760712,-1735.3516472960555 L-1303.9000833179837,-1735.3534524494294 L-1303.7430422276038,-1735.3524934475574 L-1303.586321530673,-1735.3487726007593 L-1303.430298781078,-1735.3422988728805 L-1303.2753498512877,-1735.3330878596987 L-1303.1218480268467,-1735.3211617513514 L-1302.9701631070945,-1735.3065492788785 L-1302.8206605142896,-1735.2892856450057 L-1302.6737004132724,-1735.2694124393392 L-1302.5296368437985,-1735.2469775381724 L-1302.3888168676253,-1735.222034989147 L-1302.2515797324097,-1735.1946448810484 L-1302.1182560544312,-1735.164873199046 L-1301.9891670221077,-1735.1327916657297 L-1301.864623622225,-1735.098477568323 L-1301.744925890742,-1735.062013572492 L-1301.6303621899783,-1735.0234875231972 L-1301.5212085139233,-1734.982992233065 L-1301.4177278233437,-1734.940625258797 " />
			<path d="M-1330.6103961149508,347.21120345989135 L-1330.5150402419602,347.17201466576427 L-1330.4148298023292,347.13441550020616 L-1330.3099706733888,347.09848320881997 L-1330.2006782829683,347.0642916126991 " />
			<path d="M-1331.1044038260202,-1727.394697060114 L-1331.0250648100007,-1727.4574152474386 L-1330.9353750874,-1727.5183137426295 L-1330.8356577614559,-1727.5771731615657 L-1330.7262720594013,-1727.6337814658073 L-1330.6076120383646,-1727.6879347264553 L-1330.4801051657953,-1727.7394378587958 L-1330.344210779533,-1727.7881053250849 L-1330.2004184330617,-1727.8337618029386 " />
			<path d="M-1305.9248858468716,339.8105156939158 L-1330.2006782829683,347.0642916126991 " />
			<path d="M-1305.924625996965,-1735.0875377217214 L-1330.2004184330617,-1727.8337618029384 " />
			<path d="M-1331.024519905944,348.4514766496972 L-1247.7970593661532,323.5825161698454 " />
			<path d="M-1008.9862368402005,252.22413434442115 L-925.7587786651331,227.3551745711656 " />
			<path d="M-696.781108811827,158.93500909431637 L-613.5536506367598,134.0660493210609 " />
			<path d="M-384.5759807834536,65.64588384421165 L-301.34852260838636,40.77692407095614 " />
			<path d="M-72.3708857684365,-27.643231541266104 L-43.68047523248944,-36.21613141279431 " />
			<path d="M-329.2178081353049,-1985.8660946759603 L-301.3485226083863,-1994.1443383152348 " />
			<path d="M-14.570921426258629,-2079.3282534385457 L11.419569512656775,-2087.048423232238 " />
			<path d="M10.856280909753444,-2087.547617935335 L10.856281004301376,-2086.881105002753 " />
			<path d="M-72.69874295382691,-2103.04682880736 L-72.69873713994978,-2062.062069121334 " />
			<path d="M-384.9035464559494,-2009.75780343804 L-384.9035464559494,-1969.3253007397138 " />
			<path d="M-697.1086744843228,-1916.468678187935 L-697.1086744843228,-1876.58843768833 " />
			<path d="M-1009.3138025126962,-1823.1795529378303 L-1009.3138025126962,-1783.8515746369455 " />

       </g>

       <!-- solid lines -->
       <g  stroke="rgb(0,0,0)" fill="none">
			<path d="M42.76431789758726,0.6641647040443814 L10.85657518465294,-13.065172197876464 " />
			<path d="M-1245.0818352194538,385.4818063607266 L-1330.6104710146283,348.68034828962226 " />
			<path d="M-1332.6590610935546,350.78608707479526 L-1332.6578350844013,350.6832825156376 L-1332.6541585243883,350.581656066385 L-1332.648035814099,350.4813293667528 L-1332.639474281988,350.3824225007474 L-1332.6284841756067,350.28505385293414 L-1332.61507864934,350.18933996673934 L-1332.5992737486604,350.095395404956 L-1332.581088390923,350.00333261262017 L-1332.5605443427226,349.9132617824222 L-1332.5376661938406,349.82529072281375 L-1332.5124813278126,349.7395247289687 L-1332.485019889153,349.6560664567523 L-1332.4553147472732,349.57501579984915 L-1332.4234014571398,349.4964697701976 L-1332.3893182167174,349.42052238187335 L-1332.3531058212488,349.34726453856103 L-1332.314807614426,349.27678392474894 L-1332.2744694365092,349.209164900777 L-1332.2321395694626,349.1444884018632 L-1332.1878686791606,349.08283184122996 L-1332.1417097547467,349.02426901744576 L-1332.0937180452086,348.96887002609367 L-1332.0439509932485,348.9167011758718 L-1331.992468166529,348.86782490922633 L-1331.9393311863746,348.8222997276123 L-1331.8846036540147,348.7801801214717 L-1331.8283510744582,348.74151650501204 L-1331.7706407780881,348.7063551558641 L-1331.7115418400726,348.67473815969095 L-1331.6511249976852,348.64670335981435 L-1331.589462565639,348.62228431191875 L-1331.5266283495305,348.60151024388796 " />
			<path d="M-1331.5266283495305,348.6015102438879 L-1331.4731543782837,348.5869339956061 L-1331.4189560426073,348.5749444382916 L-1331.3640788509092,348.5655516391478 L-1331.3085688816086,348.55876348497287 L-1331.2524727444456,348.55458567553757 L-1331.1958375413442,348.55302171879936 L-1331.1387108268634,348.55407292795695 L-1331.081140568266,348.55773842034745 L-1331.0231751052434,348.5640151181878 L-1330.9648631093262,348.57289775115885 L-1330.906253543016,348.58437886083067 L-1330.8473956186738,348.5984488069253 L-1330.7883387571978,348.6150957754112 L-1330.729132546527,348.63430578842303 L-1330.669826700003,348.6560627159986 L-1330.6104710146283,348.68034828962226 " />
			<path d="M42.764317897587254,0.6641647040443819 L42.86483744841039,0.7110147137781104 L42.96511483883112,0.7649483102845669 L43.06490849183266,0.8258355628057426 L43.16397799576404,0.8935297886172195 L43.26208468351282,0.9678679063997047 L43.35899220747508,1.04867082911621 L43.45446710893751,1.1357438954484098 L43.54827938049986,1.2288773387528131 L43.64020302018295,1.3278467924069712 L43.73001657588724,1.4324138303283305 L43.81750367889029,1.5423265413635483 L43.90245356509801,1.6573201361645244 L43.98466158279377,1.7771175850891359 L44.063929685662394,1.9014302855899023 L44.140066909900995,2.029958757482812 L44.21288983426755,2.162393364421312 L44.28222302195873,2.2984150598373843 L44.34789944325251,2.4376961555526786 L44.40976087789741,2.579901111208034 L44.46765829627898,2.724687342609596 L44.52145221844509,2.8717060470441393 L44.571013050125465,3.020603043575362 L44.61622139493557,3.171019626296785 L44.65696834201298,3.322593428485696 L44.693155728393165,3.474959295576326 L44.7246963754927,3.627750164849179 L44.75151429913008,3.780597949717277 L44.7735448925783,3.933134426478988 L44.79073508220808,4.084992121401176 L44.80304345534694,4.235805195995611 L44.810440360045874,4.385210328355928 L44.81290797651359,4.532847588431904 " />
			<path d="M-1245.0818352194538,385.4818063607266 L-1244.9813156686307,385.52865637046034 L-1244.8810382782099,385.5825899669668 L-1244.7812446252083,385.643477219488 L-1244.682175121277,385.71117144529944 L-1244.5840684335283,385.7855095630819 L-1244.487160909566,385.86631248579846 L-1244.3916860081035,385.9533855521306 L-1244.297873736541,386.046518995435 L-1244.205950096858,386.1454884490892 L-1244.1161365411538,386.25005548701057 L-1244.0286494381508,386.35996819804575 L-1243.943699551943,386.4749617928467 L-1243.8614915342473,386.5947592417714 L-1243.7822234313785,386.71907194227214 L-1243.70608620714,386.847600414165 L-1243.6332632827734,386.98003502110356 L-1243.5639300950822,387.1160567165196 L-1243.4982536737884,387.2553378122349 L-1243.4363922391435,387.39754276789023 L-1243.378494820762,387.54232899929184 L-1243.324700898596,387.68934770372636 L-1243.2751400669156,387.8382447002576 L-1243.2299317221054,387.988661282979 L-1243.189184775028,388.14023508516794 L-1243.152997388648,388.29260095225857 L-1243.1214567415484,388.4453918215314 L-1243.094638817911,388.5982396063995 L-1243.0726082244628,388.7507760831612 L-1243.0554180348329,388.9026337780834 L-1243.043109661694,389.05344685267784 L-1243.035712756995,389.20285198503814 L-1243.0332451405275,389.35048924511415 " />
			<path d="M44.81290797651359,4.532847588431931 L44.81290797651359,34.031554581886994 " />
			<path d="M-1243.0332451405275,389.35048924511415 L-1243.0332451405275,418.84919623856916 " />
			<path d="M44.81290797651359,34.03155458188699 L44.8116819673603,34.134359141044655 L44.8080054073472,34.23598559029725 L44.80188269705817,34.33631228992945 L44.793321164946974,34.43521915593487 L44.782331058565674,34.53258780374813 L44.768925532299,34.62830168994293 L44.75312063161947,34.72224625172627 L44.73493527388208,34.814309044062085 L44.71439122568161,34.90437987426006 L44.69151307679949,34.992350933868515 L44.66632821077157,35.07811692771355 L44.63886677211196,35.16157519992996 L44.60916163023217,35.242625856833115 L44.57724834009875,35.32117188648463 L44.54316509967642,35.39711927480888 L44.50695270420791,35.47037711812122 L44.46865449738482,35.54085773193329 L44.4283163194683,35.60847675590524 L44.38598645242152,35.673153254819034 L44.341715562119504,35.73480981545231 L44.295556637705644,35.79337263923649 L44.247564928167456,35.848771630588544 L44.19779787620739,35.90094048081042 L44.14631504948797,35.94981674745593 L44.09317806933348,35.99534192906994 L44.03845053697359,36.037461535210525 L43.982197957417135,36.07612515167019 L43.92448766104722,36.111286500818125 L43.865388723031536,36.142903496991266 L43.804971880644146,36.17093829686791 L43.74330944859804,36.19535734476347 L43.680475232489464,36.216131412794304 " />
			<path d="M43.68047523248944,36.21613141279431 L43.62700126124265,36.230707661076124 L43.57280292556619,36.24269721839062 L43.51792573386808,36.252090017534435 L43.462415764567545,36.25887817170939 L43.406319627404535,36.263055981144696 L43.34968442430325,36.26461993788289 L43.29255770982232,36.26356872872531 L43.23498745122493,36.259903236334786 L43.17702198820243,36.25362653849443 L43.11870999228524,36.24474390552339 L43.060100425975044,36.23326279585156 L43.0012425016328,36.219192849756915 L42.94218564015683,36.202545881271035 L42.88297942948586,36.18333586825918 L42.8236735829618,36.16157894068364 L42.764317897587254,36.137293367059954 " />
			<path d="M-1243.0332451405275,418.84919623856916 L-1243.0344711496807,418.95200079772684 L-1243.0381477096937,419.05362724697943 L-1243.044270419983,419.15395394661164 L-1243.052831952094,419.25286081261703 L-1243.0638220584754,419.3502294604303 L-1243.077227584742,419.4459433466251 L-1243.0930324854216,419.53988790840845 L-1243.111217843159,419.63195070074426 L-1243.1317618913595,419.72202153094224 L-1243.1546400402415,419.8099925905507 L-1243.1798249062695,419.8957585843957 L-1243.2072863449291,419.97921685661214 L-1243.2369914868088,420.06026751351527 L-1243.2689047769422,420.1388135431668 L-1243.3029880173647,420.21476093149107 L-1243.3392004128332,420.2880187748034 L-1243.377498619656,420.3584993886155 L-1243.4178367975728,420.4261184125874 L-1243.4601666646195,420.4907949115012 L-1243.5044375549214,420.55245147213446 L-1243.5505964793354,420.61101429591866 L-1243.5985881888735,420.66641328727076 L-1243.6483552408336,420.7185821374926 L-1243.699838067553,420.7674584041381 L-1243.7529750477074,420.81298358575214 L-1243.8077025800674,420.85510319189274 L-1243.8639551596239,420.8937668083524 L-1243.921665455994,420.9289281575003 L-1243.9807643940094,420.9605451536735 L-1244.0411812363968,420.9885799535501 L-1244.102843668443,421.0129990014457 L-1244.1656778845515,421.03377306947647 " />
			<path d="M-1244.1656778845515,421.0337730694765 L-1244.2191518557984,421.0483493177583 L-1244.2733501914747,421.06033887507283 L-1244.3282273831728,421.0697316742166 L-1244.3837373524734,421.07651982839155 L-1244.4398334896364,421.08069763782686 L-1244.4964686927378,421.08226159456507 L-1244.5535954072186,421.0812103854075 L-1244.611165665816,421.077544893017 L-1244.6691311288387,421.07126819517663 L-1244.7274431247558,421.0623855622056 L-1244.786052691066,421.05090445253376 L-1244.8449106154083,421.0368345064391 L-1244.9039674768842,421.02018753795323 L-1244.9631736875551,421.0009775249414 L-1245.0224795340791,420.97922059736584 L-1245.0818352194538,420.95493502374217 " />
			<path d="M-1245.0818352194538,420.95493502374217 L-1330.6104710146283,384.15347695263785 " />
			<path d="M-1330.6104710146283,384.15347695263785 L-1330.7109905654513,384.1066269429041 L-1330.8112679558722,384.05269334639763 L-1330.9110616088738,383.99180609387645 L-1331.010131112805,383.924111868065 L-1331.1082378005538,383.8497737502825 L-1331.205145324516,383.76897082756597 L-1331.3006202259785,383.6818977612338 L-1331.394432497541,383.5887643179294 L-1331.486356137224,383.4897948642752 L-1331.5761696929283,383.38522782635386 L-1331.6636567959313,383.2753151153187 L-1331.748606682139,383.1603215205177 L-1331.8308146998347,383.04052407159304 L-1331.9100828027035,382.9162113710923 L-1331.986220026942,382.7876828991994 L-1332.0590429513086,382.65524829226086 L-1332.1283761389998,382.5192265968448 L-1332.1940525602936,382.3799455011295 L-1332.2559139949385,382.23774054547414 L-1332.31381141332,382.0929543140726 L-1332.3676053354861,381.94593560963807 L-1332.4171661671664,381.79703861310685 L-1332.4623745119766,381.6466220303854 L-1332.503121459054,381.4950482281965 L-1332.539308845434,381.34268236110586 L-1332.5708494925336,381.189891491833 L-1332.5976674161711,381.03704370696494 L-1332.6196980096192,380.8845072302032 L-1332.6368881992491,380.73264953528104 L-1332.649196572388,380.5818364606866 L-1332.656593477087,380.4324313283263 L-1332.6590610935546,380.2847940682503 " />
			<path d="M-1332.6590610935546,350.78608707479526 L-1332.6590610935546,380.2847940682503 " />
			<path d="M10.629226362916762,-2122.569228831171 L-42.1927887096113,-2145.6638173064875 " />
			<path d="M-1278.1705863488878,-1739.7463953726453 L-1330.9926014214157,-1762.8409838479622 " />
			<path d="M-43.84231815863617,-2145.173843975238 L-43.805846956751914,-2145.227247625619 L-43.768011777356065,-2145.278482089369 L-43.728844835199915,-2145.3275037429203 L-43.68837947896376,-2145.3742708468017 L-43.64665016286211,-2145.4187435811778 L-43.60369241730773,-2145.460884079753 L-43.55954281865922,-2145.5006564620144 L-43.514238958078124,-2145.5380268637787 L-43.467819409521944,-2145.5729634660297 L-43.42032369690033,-2145.605436522009 L-43.3717922604225,-2145.635418382543 L-43.3222664221644,-2145.6628835195866 L-43.27178835088505,-2145.687808547958 L-43.220401026122,-2145.7101722452494 L-43.16814820159633,-2145.729955569898 L-43.11507436795868,-2145.7471416773983 " />
			<path d="M-43.11507436795867,-2145.7471416773983 L-43.06122471490756,-2145.7617159346446 L-43.006645092712745,-2145.773665932391 L-42.95138197317595,-2145.7829814958145 L-42.8954824100625,-2145.7896546931825 L-42.83899399903739,-2145.7936798426035 L-42.781964837139995,-2145.7950535168643 L-42.72444348183183,-2145.7937745463514 L-42.66647890965234,-2145.789844020043 L-42.60812047451783,-2145.783265284585 L-42.5494178656991,-2145.7740439414397 L-42.490421065513495,-2145.762187842116 L-42.43118030676753,-2145.7477070814866 L-42.37174602998616,-2145.7306139891903 L-42.3121688404652,-2145.710923119135 L-42.252499465183455,-2145.688651237105 L-42.19278870961131,-2145.6638173064885 " />
			<path d="M-1333.0500858347887,-1760.751480509236 L-1333.0484850958776,-1760.8538742154358 L-1333.0444512220085,-1760.9550814439583 L-1333.0379890132062,-1761.054981765358 L-1333.0291061590424,-1761.1534563053162 L-1333.017813229485,-1761.250387886094 L-1333.0041236623222,-1761.3456611659637 L-1332.9880537471704,-1761.4391627764596 L-1332.9696226060926,-1761.5307814572766 L-1332.9488521708433,-1761.6204081886629 L-1332.9257671567718,-1761.7079363211453 L-1332.9003950334127,-1761.793261702436 L-1332.8727659917986,-1761.8762828013641 L-1332.8429129085353,-1761.9569008286926 L-1332.8108713066808,-1762.0350198546691 L-1332.7766793134758,-1762.1105469231773 L-1332.7403776149747,-1762.1833921623454 L-1332.7020094076315,-1762.25346889149 L-1332.6616203469,-1762.3206937242587 L-1332.6192584929067,-1762.3849866678538 L-1332.5749742532623,-1762.4462712182187 L-1332.5288203230805,-1762.504474451072 L-1332.480851622275,-1762.559527108682 L-1332.4311252302075,-1762.6113636822788 L-1332.3797003177685,-1762.6599224900056 L-1332.3266380769676,-1762.7051457503146 L-1332.2720016481194,-1762.7469796507237 L-1332.2158560447108,-1762.7853744118497 L-1332.1582680760398,-1762.8202843466418 L-1332.0993062677169,-1762.8516679147456 L-1332.0390407801249,-1762.8794877719347 L-1331.9775433249326,-1762.903710814546 L-1331.9148870797633,-1762.9243082188718 " />
			<path d="M-1331.9148870797633,-1762.9243082188718 L-1331.8610374267123,-1762.9388824761184 L-1331.8064578045173,-1762.9508324738642 L-1331.7511946849806,-1762.960148037288 L-1331.6952951218673,-1762.9668212346562 L-1331.6388067108421,-1762.9708463840768 L-1331.5817775489447,-1762.9722200583378 L-1331.5242561936366,-1762.9709410878247 L-1331.466291621457,-1762.9670105615164 L-1331.4079331863225,-1762.9604318260585 L-1331.3492305775037,-1762.951210482913 L-1331.2902337773182,-1762.9393543835895 L-1331.2309930185722,-1762.9248736229601 L-1331.171558741791,-1762.9077805306638 L-1331.11198155227,-1762.8880896606083 L-1331.0523121769882,-1762.8658177785787 L-1330.9926014214159,-1762.840983847962 " />
			<path d="M10.62922636291676,-2122.5692288311716 L10.729623766039786,-2122.5217330974706 L10.829752535777756,-2122.467162564417 L10.929371453154122,-2122.4056486972045 L11.028240527471342,-2122.3373396881266 L11.126121574469474,-2122.26240009957 L11.222778790132937,-2122.1810104675674 L11.317979318763022,-2122.093366866871 L11.411493813947677,-2121.9996804385914 L11.503096991077102,-2121.9001768815406 L11.592568170074102,-2121.795095908503 L11.679691807031723,-2121.6846906687465 L11.764258013477402,-2121.569227138164 L11.846063062012691,-2121.448983478514 L11.92490987711039,-2121.324249367305 L12.000608509886762,-2121.1953252999365 L12.072976595705034,-2121.0625218657788 L12.141839793507774,-2120.926158999937 L12.207032205819772,-2120.7865652124988 L12.268396778409583,-2120.6440767971258 L12.325785678646941,-2120.4990370208902 L12.379060651644497,-2120.3517952973175 L12.428093353325966,-2120.202706344616 L12.47276565961824,-2120.0521293311326 L12.512969951022626,-2119.900427010081 L12.548609371879655,-2119.74796484564 L12.579598063702836,-2119.595110132518 L12.605861372019275,-2119.442231111108 L12.627336026218849,-2119.2896960803623 L12.64397029197863,-2119.137872510531 L12.655724095895415,-2118.987126157892 L12.662569122026055,-2118.837820183612 L12.664488880103049,-2118.690314278862 " />
			<path d="M-1278.1705863488876,-1739.7463953726453 L-1278.0701889457646,-1739.6988996389446 L-1277.9700601760267,-1739.6443291058908 L-1277.8704412586503,-1739.582815238678 L-1277.771572184333,-1739.5145062296003 L-1277.673691137335,-1739.4395666410437 L-1277.5770339216715,-1739.358177009041 L-1277.4818333930414,-1739.2705334083446 L-1277.3883188978568,-1739.176846980065 L-1277.2967157207274,-1739.0773434230143 L-1277.2072445417302,-1738.9722624499766 L-1277.1201209047726,-1738.86185721022 L-1277.0355546983271,-1738.7463936796375 L-1276.9537496497917,-1738.6261500199878 L-1276.874902834694,-1738.5014159087789 L-1276.7992042019177,-1738.3724918414102 L-1276.7268361160993,-1738.2396884072525 L-1276.6579729182968,-1738.1033255414106 L-1276.5927805059846,-1737.9637317539728 L-1276.5314159333948,-1737.8212433385993 L-1276.4740270331574,-1737.6762035623638 L-1276.4207520601599,-1737.528961838791 L-1276.3717193584785,-1737.37987288609 L-1276.3270470521861,-1737.2292958726064 L-1276.2868427607818,-1737.0775935515546 L-1276.2512033399248,-1736.9251313871139 L-1276.2202146481015,-1736.772276673992 L-1276.1939513397851,-1736.6193976525817 L-1276.1724766855855,-1736.4668626218363 L-1276.1558424198258,-1736.315039052005 L-1276.144088615909,-1736.1642926993657 L-1276.1372435897783,-1736.0149867250861 L-1276.1353238317015,-1735.8674808203357 " />
			<path d="M12.664488880103047,-2118.690314278862 L12.554768267682192,-2089.2212509418737 " />
			<path d="M-1276.1353238317013,-1735.8674808203355 L-1276.2450444441222,-1706.3984174833477 " />
			<path d="M12.554768267682194,-2089.2212509418737 L12.553167528771034,-2089.1188572356737 L12.549133654901992,-2089.0176500071516 L12.54267144609973,-2088.917749685752 L12.533788591935782,-2088.8192751457937 L12.522495662378493,-2088.7223435650158 L12.508806095215508,-2088.627070285146 L12.492736180063758,-2088.5335686746503 L12.474305038985966,-2088.441949993833 L12.453534603736742,-2088.352323262447 L12.43044958966535,-2088.264795129964 L12.405077466306187,-2088.179469748674 L12.377448424691979,-2088.0964486497455 L12.347595341428589,-2088.015830622417 L12.31555373957418,-2087.9377115964403 L12.281361746369289,-2087.8621845279326 L12.245060047868101,-2087.7893392887645 L12.206691840524929,-2087.71926255962 L12.166302779793487,-2087.652037726851 L12.123940925800119,-2087.587744783256 L12.07965668615566,-2087.526460232891 L12.033502755973934,-2087.4682570000377 L11.9855340551683,-2087.413204342428 L11.935807663100835,-2087.361367768831 L11.884382750661928,-2087.312808961104 L11.831320509861115,-2087.2675857007953 L11.776684081012899,-2087.2257518003858 L11.720538477604254,-2087.18735703926 L11.662950508933163,-2087.152447104468 L11.60398870061028,-2087.121063536364 L11.543723213018303,-2087.093243679175 L11.482225757826077,-2087.0690206365634 L11.419569512656793,-2087.048423232238 " />
			<path d="M11.419569512656777,-2087.048423232238 L11.35241519645194,-2087.0306784584195 L11.284147065151869,-2087.017005184928 L11.214855209085782,-2087.0074214557562 L11.144631069545625,-2087.001939918113 L11.073567318115192,-2087.000567805733 L11.00175773437567,-2087.00330692933 L10.929297082149017,-2087.010153674208 L10.856280984442488,-2087.0210990050314 " />
			<path d="M-1276.2450444441226,-1706.3984174833479 L-1276.2466451830337,-1706.296023777148 L-1276.2506790569028,-1706.1948165486256 L-1276.257141265705,-1706.094916227226 L-1276.266024119869,-1705.9964416872676 L-1276.2773170494263,-1705.89951010649 L-1276.2910066165891,-1705.8042368266201 L-1276.307076531741,-1705.7107352161242 L-1276.3255076728187,-1705.6191165353073 L-1276.346278108068,-1705.529489803921 L-1276.3693631221395,-1705.4419616714385 L-1276.3947352454986,-1705.356636290148 L-1276.4223642871127,-1705.2736151912197 L-1276.452217370376,-1705.1929971638913 L-1276.4842589722305,-1705.1148781379147 L-1276.5184509654355,-1705.0393510694066 L-1276.5547526639366,-1704.9665058302385 L-1276.5931208712798,-1704.8964291010939 L-1276.6335099320113,-1704.8292042683252 L-1276.6758717860046,-1704.76491132473 L-1276.720156025649,-1704.7036267743651 L-1276.7663099558308,-1704.645423541512 L-1276.8142786566364,-1704.5903708839019 L-1276.8640050487038,-1704.538534310305 L-1276.9154299611428,-1704.4899755025783 L-1276.9684922019437,-1704.4447522422693 L-1277.023128630792,-1704.4029183418602 L-1277.0792742342005,-1704.3645235807342 L-1277.1368622028715,-1704.3296136459421 L-1277.1958240111944,-1704.2982300778383 L-1277.2560894987864,-1704.2704102206492 L-1277.3175869539787,-1704.2461871780379 L-1277.380243199148,-1704.225589773712 " />
			<path d="M-1277.380243199148,-1704.225589773712 L-1277.434092852199,-1704.2110155164655 L-1277.488672474394,-1704.1990655187196 L-1277.5439355939307,-1704.1897499552958 L-1277.599835157044,-1704.1830767579277 L-1277.6563235680692,-1704.179051608507 L-1277.7133527299666,-1704.177677934246 L-1277.7708740852747,-1704.1789569047592 L-1277.8288386574543,-1704.1828874310675 L-1277.8871970925888,-1704.1894661665253 L-1277.9458997014076,-1704.198687509671 L-1278.004896501593,-1704.2105436089944 L-1278.064137260339,-1704.2250243696237 L-1278.1235715371204,-1704.24211746192 L-1278.1831487266413,-1704.2618083319755 L-1278.2428181019231,-1704.2840802140051 L-1278.3025288574954,-1704.308914144622 " />
			<path d="M-1278.3025288574952,-1704.308914144622 L-1331.124543930023,-1727.4035026199388 " />
			<path d="M-1331.1245439300233,-1727.4035026199385 L-1331.2249413331463,-1727.4509983536393 L-1331.3250701028842,-1727.505568886693 L-1331.4246890202605,-1727.5670827539059 L-1331.5235580945778,-1727.6353917629835 L-1331.6214391415758,-1727.7103313515402 L-1331.7180963572393,-1727.791720983543 L-1331.8132968858695,-1727.8793645842393 L-1331.906811381054,-1727.973051012519 L-1331.9984145581834,-1728.0725545695695 L-1332.0878857371806,-1728.1776355426073 L-1332.1750093741382,-1728.2880407823639 L-1332.2595755805837,-1728.4035043129463 L-1332.3413806291192,-1728.523747972596 L-1332.4202274442168,-1728.648482083805 L-1332.495926076993,-1728.7774061511736 L-1332.5682941628115,-1728.9102095853314 L-1332.637157360614,-1729.0465724511732 L-1332.7023497729263,-1729.1861662386111 L-1332.763714345516,-1729.3286546539846 L-1332.8211032457534,-1729.4736944302201 L-1332.874378218751,-1729.6209361537929 L-1332.9234109204324,-1729.770025106494 L-1332.9680832267247,-1729.9206021199775 L-1333.008287518129,-1730.0723044410292 L-1333.043926938986,-1730.22476660547 L-1333.0749156308093,-1730.3776213185918 L-1333.1011789391257,-1730.5305003400022 L-1333.1226535933254,-1730.6830353707476 L-1333.139287859085,-1730.834858940579 L-1333.151041663002,-1730.9856052932182 L-1333.1578866891325,-1731.1349112674977 L-1333.1598064472093,-1731.2824171722482 " />
			<path d="M-1333.0500858347887,-1760.7514805092362 L-1333.1598064472096,-1731.2824171722484 " />
			<path d="M10.114883337537774,-13.384290270049606 L10.201490426146645,-13.345335415809705 L10.283300097400627,-13.30506927587664 L10.36015813196095,-13.26356775591511 L10.431919644814798,-13.220909090403607 L10.498449358397892,-13.177173695154675 L10.559621857606128,-13.132444015723133 L10.615321826215471,-13.086804371988027 L10.665444264264465,-13.040340799201312 L10.709894685989575,-12.99314088580286 L10.748589297940203,-12.945293608307585 L10.78145515693766,-12.896889163575882 L10.808430307580284,-12.848018798783606 L10.829463899035506,-12.798774639412112 L10.84451628089872,-12.749249515582585 L10.853559077938215,-12.699536787062055 L10.856575243585308,-12.649730167270999 " />
			<path d="M10.856575243585308,-12.649730167270993 L10.855376138879944,-12.618321390665477 L10.85177971451379,-12.586936152814612 L10.845788665802724,-12.555597975172287 L10.837407482697616,-12.524330343923435 L10.826642446419365,-12.493156692382476 L10.813501624751483,-12.46210038343137 L10.797994865993749,-12.431184692010472 L10.78013379158146,-12.40043278767528 L10.759931787375837,-12.369867717232168 L10.737403993632075,-12.33951238746612 L10.685440301133896,-12.27952177411196 L10.62439846024999,-12.220640752153253 L10.554461426271784,-12.16304580045066 L10.475838815263394,-12.106909543240619 L10.388766275798012,-12.052400232744036 L10.293504782669357,-11.999681244878852 L10.190339854695084,-11.948910589587898 L10.079580698956578,-11.900240437249721 L9.961559284040014,-11.853816662591813 L9.83662934505638,-11.809778407473239 L9.705165323422657,-11.768257663847105 " />
			<path d="M9.705165323422637,-11.768257663847098 L-14.570627104357662,-4.514472166302604 " />
			<path d="M9.704870989590772,-2086.6661454319114 L-14.570921438189528,-2079.412359934367 " />
			<path d="M-14.570627104357657,-4.5144721663026015 L-14.693718181776983,-4.479490759819549 L-14.82144795494693,-4.446717169983776 L-14.95350871165612,-4.416230351243824 L-15.08958230597449,-4.388103749016367 L-15.229340924694686,-4.362405122749772 L-15.372447877062797,-4.339196382685647 L-15.518558405895883,-4.318533440711653 L-15.667320518132213,-4.300466075664866 L-15.81837583281339,-4.285037813410197 L-15.971360444455463,-4.2722858219827735 L-16.125905799729118,-4.262240822046888 L-16.281639585336922,-4.254927012887221 L-16.438186624948685,-4.250362014110657 L-16.595169783034073,-4.248556823199091 L-16.752210873415162,-4.249515789015548 L-16.908931570350052,-4.253236601327378 L-17.06495431995271,-4.2597102963718205 L-17.219903249753365,-4.268921278450482 L-17.3734050742082,-4.280847357500749 L-17.52508999397694,-4.295459802553588 L-17.67459258680183,-4.312723410948968 L-17.821552687841866,-4.332596593142151 L-17.965616257341466,-4.355031472896549 L-18.106436233543228,-4.37997400262177 L-18.243673368790105,-4.407364093578997 L-18.376997046802735,-4.437135760640028 L-18.506086079163012,-4.46921728125122 L-18.630629479085115,-4.503531368219415 L-18.75032721060992,-4.539995355903544 L-18.8648909114179,-4.578521399363409 L-18.974044587519206,-4.619016685985833 L-19.07752527814737,-4.661383659078365 " />
			<path d="M-19.077525278147387,-4.661383659078377 L-71.95675671394751,-27.414380936516785 " />
			<path d="M-71.95675671394751,-27.41438093651677 L-72.04336380255637,-27.453335790756675 L-72.12517347381036,-27.49360193068974 L-72.20203150837068,-27.535103450651267 L-72.27379302122453,-27.57776211616277 L-72.34032273480763,-27.621497511411704 L-72.40149523401585,-27.666227190843244 L-72.4571952026252,-27.711866834578352 L-72.5073176406742,-27.758330407365065 L-72.5517680623993,-27.80553032076352 L-72.59046267434994,-27.853377598258795 L-72.62332853334739,-27.901782042990497 L-72.65030368399002,-27.950652407782773 L-72.67133727544524,-27.999896567154266 L-72.68638965730845,-28.04942169098379 L-72.69543245434795,-28.099134419504324 L-72.69844861999505,-28.148941039295376 " />
			<path d="M-72.69844861999505,-28.148941039295387 L-72.69543246847854,-28.19874765994216 L-72.686389685543,-28.248460391028214 L-72.67133731773053,-28.29798551912824 L-72.65030374024633,-28.347229684467152 L-72.62332860346868,-28.396100056912523 L-72.59046275820401,-28.444504510968574 L-72.5517681598281,-28.492351799441867 L-72.50731775149404,-28.539551725451307 L-72.4571953266272,-28.58601531245822 L-72.40149537096624,-28.631654971995918 L-72.34032288444824,-28.67638466878266 L-72.27379318327328,-28.720120082906686 L-72.20203168252209,-28.762778768777586 L-72.12517365973613,-28.80428031054445 L-72.04336399990603,-28.84454647368767 L-71.95675692234903,-28.883501352498797 " />
			<path d="M-302.0902145136747,79.90482916353297 L-302.00360741898385,79.94378402017205 L-301.921797742358,79.98405016171883 L-301.8449397031685,80.02555168249452 L-301.773178186458,80.06821034800774 L-301.7066484698176,80.11194574243424 L-301.6454759683755,80.15667542020877 L-301.58977599837664,80.20231506144317 L-301.53965355980034,80.24877863087767 L-301.4952031384249,80.295978540066 L-301.45650852771246,80.34382581248826 L-301.4236426708499,80.3922302512805 L-301.396667523244,80.44110060926478 L-301.3756339357288,80.49034476095922 L-301.3605815587074,80.5398698762436 L-301.35153876740645,80.58958259535343 L-301.3485226083863,80.63938920487237 " />
			<path d="M-301.3485226083863,80.63938920487237 L-301.3497217174089,80.67079797046897 L-301.35331814581275,80.70218319698168 L-301.3593091982792,80.73352136296783 L-301.36769038485517,80.76478898225392 L-301.3784554243178,80.7959626215372 L-301.3915962488821,80.8270189179476 L-301.40710301024734,80.85793459655682 L-301.4249640869775,80.88868648782166 L-301.4451660932113,80.91925154494818 L-301.4676938886937,80.94960686116404 L-301.5196575838035,81.00959744676824 L-301.58069942615407,81.06847844019768 L-301.65063646047054,81.12607336269755 L-301.729259070712,81.18220959013887 L-301.8163316083347,81.2367188704093 L-301.9115930985805,81.28943782770035 L-302.01475802267333,81.34020845217903 L-302.1255171735791,81.38887857357668 L-302.24353858276436,81.43530231727534 L-302.368468515176,81.47934054152479 L-302.49993252945995,81.52086125447966 " />
			<path d="M-301.3485226083863,-1994.258586565778 L-301.3497217174089,-1994.2271778001814 L-301.35331814581275,-1994.1957925736685 L-301.3593091982792,-1994.1644544076826 L-301.36769038485517,-1994.1331867883964 L-301.3784554243178,-1994.1020131491132 L-301.3915962488821,-1994.0709568527027 L-301.40710301024734,-1994.0400411740934 L-301.4249640869775,-1994.0092892828286 L-301.4451660932113,-1993.978724225702 L-301.4676938886937,-1993.9483689094864 L-301.5196575838035,-1993.888378323882 L-301.58069942615407,-1993.8294973304526 L-301.65063646047054,-1993.7719024079527 L-301.729259070712,-1993.7157661805115 L-301.8163316083347,-1993.661256900241 L-301.9115930985805,-1993.6085379429499 L-302.01475802267333,-1993.5577673184712 L-302.1255171735791,-1993.5090971970737 L-302.24353858276436,-1993.462673453375 L-302.368468515176,-1993.4186352291256 L-302.49993252945995,-1993.3771145161706 " />
			<path d="M-302.49993252945995,81.52086125447966 L-326.775724964737,88.7746416627063 " />
			<path d="M-302.49993252945995,-1993.3771145161706 L-326.775724964737,-1986.123334107944 " />
			<path d="M-326.77572496473704,88.77464166270632 L-326.89881604219255,88.80962304390101 L-327.02654581539633,88.84239660850908 L-327.15860657213705,88.87288340214275 L-327.29468016648445,88.9010099794458 L-327.43443878523124,88.92670858102994 L-327.5775457376233,88.94991729671301 L-327.72365626647775,88.97058021466609 L-327.8724183787328,88.98864755610998 L-328.0234736934299,89.0040757952366 L-328.17645830508513,89.01682776406658 L-328.33100366036916,89.02687274199005 L-328.48673744598455,89.03418652977534 L-328.64328448560104,89.03875150786709 L-328.8002676436883,89.04055667883323 L-328.9573087340684,89.03959769385875 L-329.11402943099944,89.0358768632225 L-329.2700521805954,89.02940315073137 L-329.4250011103865,89.02019215212577 L-329.57850293482903,89.00826605750815 L-329.7301878545827,88.99365359788503 L-329.87969044738975,88.97638997595155 L-330.02665054840924,88.95651678128505 L-330.17071411788567,88.93408189015219 L-330.31153409406164,88.90913935017075 L-330.4487712292802,88.88174925010428 L-330.5820949072621,88.8519775751029 L-330.7111839395892,88.8198960477394 L-330.83572733947585,88.78558195522321 L-330.955425070963,88.74911796320873 L-331.0699887717311,88.71059191664664 L-331.1791424477906,88.67009662815755 L-331.28262313837496,88.62772965443844 " />
			<path d="M-331.282623138375,88.62772965443844 L-384.161854550661,65.87473237395028 " />
			<path d="M-384.161854550661,65.87473237395027 L-384.2484616453519,65.83577751731119 L-384.3302713219777,65.7955113757644 L-384.4071293611672,65.75400985498871 L-384.47889087787775,65.7113511894755 L-384.54542059451813,65.66761579504899 L-384.60659309596025,65.62288611727446 L-384.6622930659591,65.57724647604006 L-384.7124155045354,65.53078290660557 L-384.7568659259108,65.48358299741723 L-384.79556053662327,65.43573572499497 L-384.8284263934858,65.38733128620274 L-384.85540154109174,65.33846092821845 L-384.87643512860694,65.28921677652401 L-384.89148750562833,65.23969166123963 L-384.9005302969293,65.1899789421298 L-384.9035464559494,65.14017233261087 " />
			<path d="M-384.9035464559494,65.14017233261086 L-384.9005302969293,65.09036572309192 L-384.89148750562833,65.04065300398209 L-384.8764351286069,64.9911278886977 L-384.85540154109174,64.94188373700327 L-384.8284263934858,64.89301337901897 L-384.79556053662327,64.84460894022673 L-384.7568659259108,64.79676166780449 L-384.7124155045354,64.74956175861615 L-384.6622930659591,64.70309818918165 L-384.60659309596025,64.65745854794726 L-384.5454205945181,64.61272887017272 L-384.47889087787775,64.56899347574623 L-384.40712936116716,64.52633481023301 L-384.3302713219777,64.48483328945731 L-384.2484616453519,64.44456714791053 L-384.161854550661,64.40561229127144 " />
			<path d="M-614.2953425420483,173.19395441363773 L-614.2087354473574,173.23290927027682 L-614.1269257707315,173.27317541182362 L-614.0500677315421,173.3146769325993 L-613.9783062148316,173.3573355981125 L-613.9117764981912,173.40107099253902 L-613.8506039967491,173.44580067031356 L-613.7949040267501,173.49144031154793 L-613.7447815881739,173.53790388098244 L-613.7003311667985,173.5851037901708 L-613.661636556086,173.63295106259304 L-613.6287706992235,173.68135550138527 L-613.6017955516176,173.73022585936957 L-613.5807619641024,173.77947001106398 L-613.565709587081,173.82899512634836 L-613.55666679578,173.87870784545822 L-613.5536506367598,173.92851445497715 " />
			<path d="M-613.5536506367598,173.92851445497715 L-613.5548497457825,173.95992322057376 L-613.5584461741863,173.99130844708645 L-613.5644372266528,174.0226466130726 L-613.5728184132287,174.0539142323587 L-613.5835834526913,174.08508787164197 L-613.5967242772557,174.11614416805236 L-613.6122310386208,174.1470598466616 L-613.6300921153511,174.17781173792645 L-613.6502941215849,174.20837679505297 L-613.6728219170673,174.2387321112688 L-613.7247856121771,174.298722696873 L-613.7858274545276,174.35760369030245 L-613.8557644888441,174.41519861280233 L-613.9343870990855,174.47133484024363 L-614.0214596367082,174.52584412051408 L-614.1167211269541,174.57856307780511 L-614.219886051047,174.6293337022838 L-614.3306452019526,174.67800382368145 L-614.4486666111379,174.7244275673801 L-614.5735965435496,174.76846579162955 L-614.7050605578335,174.80998650458443 " />
			<path d="M-613.737562184068,-1901.3528465007555 L-613.6947780144468,-1901.3064582322374 L-613.657540221091,-1901.2594589177784 L-613.6259163239137,-1901.2119337769723 L-613.5999636636589,-1901.163968982846 L-613.5797292979315,-1901.11565150561 L-613.5652499158715,-1901.0670689549631 L-613.556551771629,-1901.0183094212375 L-613.5536506367598,-1900.969461315673 " />
			<path d="M-613.5536506367598,-1900.969461315673 L-613.5548497457825,-1900.9380525500765 L-613.5584461741863,-1900.9066673235636 L-613.5644372266528,-1900.8753291575777 L-613.5728184132287,-1900.8440615382915 L-613.5835834526913,-1900.8128878990083 L-613.5967242772557,-1900.7818316025978 L-613.6122310386208,-1900.7509159239885 L-613.6300921153511,-1900.7201640327237 L-613.6502941215849,-1900.6895989755972 L-613.6728219170673,-1900.6592436593814 L-613.7247856121771,-1900.5992530737772 L-613.7858274545276,-1900.5403720803477 L-613.8557644888441,-1900.4827771578477 L-613.9343870990855,-1900.4266409304066 L-614.0214596367082,-1900.372131650136 L-614.1167211269541,-1900.319412692845 L-614.219886051047,-1900.2686420683663 L-614.3306452019526,-1900.2199719469688 L-614.4486666111379,-1900.17354820327 L-614.5735965435496,-1900.1295099790207 L-614.7050605578335,-1900.0879892660657 " />
			<path d="M-614.7050605578335,174.8099865045844 L-638.9808529931105,182.06376691281105 " />
			<path d="M-614.7050605578335,-1900.087989266066 L-638.9808529931105,-1892.8342088578393 " />
			<path d="M-638.9808529931106,182.06376691281105 L-639.1039440705661,182.09874829400576 L-639.2316738437698,182.13152185861384 L-639.3637346005105,182.1620086522475 L-639.499808194858,182.19013522955055 L-639.6395668136047,182.2158338311347 L-639.7826737659968,182.23904254681776 L-639.9287842948513,182.25970546477083 L-640.0775464071063,182.27777280621473 L-640.2286017218034,182.29320104534136 L-640.3815863334587,182.30595301417134 L-640.5361316887427,182.3159979920948 L-640.6918654743581,182.3233117798801 L-640.8484125139745,182.32787675797184 L-641.0053956720618,182.32968192893796 L-641.1624367624419,182.3287229439635 L-641.319157459373,182.32500211332726 L-641.4751802089689,182.31852840083613 L-641.63012913876,182.30931740223053 L-641.7836309632025,182.29739130761288 L-641.9353158829562,182.28277884798976 L-642.0848184757632,182.2655152260563 L-642.2317785767827,182.2456420313898 L-642.3758421462592,182.22320714025693 L-642.5166621224352,182.1982646002755 L-642.6538992576537,182.170874500209 L-642.7872229356356,182.14110282520764 L-642.9163119679627,182.10902129784415 L-643.0408553678493,182.07470720532794 L-643.1605530993364,182.03824321331348 L-643.2751168001047,181.9997171667514 L-643.384270476164,181.9592218782623 L-643.4877511667485,181.9168549045432 " />
			<path d="M-638.9808529931106,-1892.8342088578393 L-639.0786648855288,-1892.806127012056 L-639.1794678399517,-1892.7794397544 L-639.2831072986294,-1892.754188003538 L-639.3894243546964,-1892.7304104771226 L-639.6094353541309,-1892.6874216104527 L-639.838152013878,-1892.6507367068107 L-640.0741721376519,-1892.6205806708258 L-640.3160487537225,-1892.5971383805113 L-640.5622989858838,-1892.5805535538302 L-640.8114131445434,-1892.5709278676013 L-641.0618639821961,-1892.5683203341475 L-641.3121160565413,-1892.5727469395097 L-641.5606351438389,-1892.5841805454386 L-641.8058976447958,-1892.6025510557736 L-642.0463999253163,-1892.6277458461814 L-642.2806675348521,-1892.6596104546231 L-642.5072642458354,-1892.6979495283176 L-642.7248008587786,-1892.742528021393 " />
			<path d="M-643.4877511667484,181.9168549045432 L-696.3669825790345,159.16385762405503 " />
			<path d="M-696.3669825790345,159.16385762405503 L-696.4535896737253,159.12490276741593 L-696.5353993503512,159.08463662586914 L-696.6122573895407,159.04313510509346 L-696.6840189062511,159.00047643958024 L-696.7505486228915,158.95674104515373 L-696.8117211243336,158.9120113673792 L-696.8674210943326,158.86637172614482 L-696.9175435329089,158.8199081567103 L-696.9619939542843,158.77270824752196 L-697.0006885649967,158.72486097509972 L-697.0335544218592,158.67645653630748 L-697.0605295694652,158.62758617832318 L-697.0815631569803,158.57834202662877 L-697.0966155340018,158.5288169113444 L-697.1056583253028,158.47910419223453 L-697.1086744843229,158.4292975827156 " />
			<path d="M-697.1086744843229,158.4292975827156 L-697.1056583253028,158.37949097319668 L-697.0966155340018,158.32977825408682 L-697.0815631569803,158.28025313880244 L-697.0605295694652,158.231008987108 L-697.0335544218592,158.18213862912373 L-697.0006885649967,158.1337341903315 L-696.9619939542843,158.08588691790922 L-696.9175435329089,158.0386870087209 L-696.8674210943326,157.9922234392864 L-696.8117211243336,157.946583798052 L-696.7505486228915,157.90185412027748 L-696.6840189062511,157.85811872585097 L-696.6122573895407,157.81546006033776 L-696.5353993503512,157.77395853956205 L-696.4535896737253,157.73369239801528 L-696.3669825790345,157.69473754137618 " />
			<path d="M-926.5004705704215,-1808.4148961069077 L-926.5491495808111,-1808.4358418234287 " />
			<path d="M-926.5004705704216,266.48307966374244 L-926.4138634757307,266.52203452038157 L-926.3320537991049,266.5623006619283 L-926.2551957599154,266.60380218270404 L-926.1834342432049,266.64646084821726 L-926.1169045265646,266.6901962426437 L-926.0557320251224,266.7349259204183 L-926.0000320551235,266.7805655616527 L-925.9499096165472,266.82702913108716 L-925.9054591951718,266.8742290402755 L-925.8667645844594,266.92207631269775 L-925.8338987275969,266.97048075148996 L-925.8069235799909,267.01935110947426 L-925.7858899924757,267.0685952611687 L-925.7708376154543,267.1181203764531 L-925.7617948241533,267.1678330955629 L-925.7587786651331,267.21763970508187 " />
			<path d="M-925.7587786651331,267.21763970508187 L-925.7599777741558,267.2490484706785 L-925.7635742025597,267.2804336971912 L-925.7695652550261,267.31177186317734 L-925.777946441602,267.34303948246344 L-925.7887114810646,267.3742131217467 L-925.801852305629,267.4052694181571 L-925.8173590669942,267.43618509676634 L-925.8352201437244,267.46693698803114 L-925.8554221499583,267.49750204515766 L-925.8779499454406,267.52785736137355 L-925.9299136405505,267.5878479469777 L-925.990955482901,267.6467289404072 L-926.0608925172174,267.7043238629071 L-926.1395151274588,267.7604600903484 L-926.2265876650815,267.81496937061877 L-926.3218491553274,267.86768832790983 L-926.4250140794203,267.9184589523885 L-926.535773230326,267.96712907378617 L-926.6537946395113,268.0135528174848 L-926.7787245719229,268.05759104173427 L-926.9101885862068,268.09911175468915 " />
			<path d="M-926.5004705704216,-1808.4148961069077 L-926.4138634757307,-1808.3759412502686 L-926.3320537991049,-1808.335675108722 L-926.2551957599154,-1808.2941735879463 L-926.1834342432049,-1808.251514922433 L-926.1169045265646,-1808.2077795280065 L-926.0557320251224,-1808.163049850232 L-926.0000320551235,-1808.1174102089976 L-925.9499096165472,-1808.070946639563 L-925.9054591951718,-1808.0237467303748 L-925.8667645844594,-1807.9758994579524 L-925.8338987275969,-1807.9274950191602 L-925.8069235799909,-1807.878624661176 L-925.7858899924757,-1807.8293805094816 L-925.7708376154543,-1807.779855394197 L-925.7617948241533,-1807.7301426750873 L-925.7587786651331,-1807.6803360655683 " />
			<path d="M-925.7587786651331,-1807.6803360655683 L-925.7599777741558,-1807.6489272999718 L-925.7635742025597,-1807.617542073459 L-925.7695652550261,-1807.586203907473 L-925.777946441602,-1807.5549362881868 L-925.7887114810646,-1807.5237626489036 L-925.801852305629,-1807.492706352493 L-925.8173590669942,-1807.4617906738838 L-925.8352201437244,-1807.431038782619 L-925.8554221499583,-1807.4004737254925 L-925.8779499454406,-1807.3701184092768 L-925.9299136405505,-1807.3101278236725 L-925.990955482901,-1807.251246830243 L-926.0608925172174,-1807.193651907743 L-926.1395151274588,-1807.137515680302 L-926.2265876650815,-1807.0830064000313 L-926.3218491553274,-1807.0302874427402 L-926.4250140794203,-1806.9795168182616 L-926.535773230326,-1806.9308466968641 L-926.6537946395113,-1806.8844229531653 L-926.7787245719229,-1806.840384728916 L-926.9101885862068,-1806.798864015961 " />
			<path d="M-926.9101885862068,268.0991117546891 L-951.1859810214838,275.3528921629158 " />
			<path d="M-926.9101885862068,-1806.798864015961 L-951.1859810214838,-1799.5450836077343 " />
			<path d="M-951.1859810214839,275.3528921629158 L-951.3090720989394,275.3878735441105 L-951.4368018721432,275.4206471087186 L-951.5688626288838,275.45113390235224 L-951.7049362232314,275.4792604796553 L-951.844694841978,275.5049590812394 L-951.9878017943702,275.5281677969225 L-952.1339123232246,275.5488307148756 L-952.2826744354796,275.5668980563195 L-952.4337297501768,275.5823262954461 L-952.586714361832,275.5950782642761 L-952.741259717116,275.6051232421995 L-952.8969935027314,275.61243702998485 L-953.0535405423478,275.6170020080766 L-953.2105237004351,275.61880717904273 L-953.3675647908152,275.61784819406824 L-953.5242854877463,275.614127363432 L-953.6803082373423,275.60765365094085 L-953.8352571671334,275.5984426523353 L-953.9887589915759,275.58651655771763 L-954.1404439113295,275.57190409809454 L-954.2899465041365,275.554640476161 L-954.4369066051561,275.53476728149457 L-954.5809701746325,275.5123323903617 L-954.7217901508085,275.4873898503802 L-954.8590272860271,275.4599997503138 L-954.9923509640089,275.4302280753124 L-955.121439996336,275.3981465479489 L-955.2459833962226,275.3638324554327 L-955.3656811277098,275.3273684634182 L-955.480244828478,275.28884241685614 L-955.5893985045374,275.2483471283671 L-955.6928791951218,275.20598015464793 " />
			<path d="M-951.1859810214839,-1799.5450836077343 L-951.3090720989394,-1799.5101022265396 L-951.4368018721432,-1799.4773286619316 L-951.5688626288838,-1799.446841868298 L-951.7049362232314,-1799.418715290995 L-951.844694841978,-1799.3930166894106 L-951.9878017943702,-1799.3698079737276 L-952.1339123232246,-1799.3491450557744 L-952.2826744354796,-1799.3310777143306 L-952.4337297501768,-1799.315649475204 L-952.586714361832,-1799.3028975063742 L-952.741259717116,-1799.2928525284506 L-952.8969935027314,-1799.2855387406653 L-953.0535405423478,-1799.2809737625735 L-953.2105237004351,-1799.2791685916075 L-953.3675647908152,-1799.280127576582 L-953.5242854877463,-1799.283848407218 L-953.6803082373423,-1799.2903221197093 L-953.8352571671334,-1799.299533118315 L-953.9887589915759,-1799.3114592129325 L-954.1404439113295,-1799.3260716725556 L-954.2899465041365,-1799.3433352944892 L-954.4369066051561,-1799.3632084891556 L-954.5809701746325,-1799.3856433802885 L-954.7217901508085,-1799.4105859202698 L-954.8590272860271,-1799.4379760203365 L-954.9923509640089,-1799.4677476953377 L-955.121439996336,-1799.4998292227012 L-955.2459833962226,-1799.5341433152175 L-955.3656811277098,-1799.570607307232 L-955.480244828478,-1799.609133353794 L-955.5893985045374,-1799.649628642283 L-955.6928791951218,-1799.6919956160023 " />
			<path d="M-955.6928791951218,275.20598015464793 L-1008.5721106074079,252.45298287415974 " />
			<path d="M-955.6928791951218,-1799.6919956160023 L-955.8125567360769,-1799.7434907435063 " />
			<path d="M-1008.5721106074078,252.45298287415977 L-1008.6587177020987,252.41402801752068 L-1008.7405273787246,252.37376187597388 L-1008.817385417914,252.3322603551982 L-1008.8891469346245,252.28960168968499 L-1008.9556766512649,252.24586629525848 L-1009.016849152707,252.20113661748394 L-1009.0725491227059,252.15549697624957 L-1009.1226715612822,252.10903340681506 L-1009.1671219826576,252.0618334976267 L-1009.2058165933701,252.01398622520446 L-1009.2386824502325,251.96558178641223 L-1009.2656575978385,251.91671142842793 L-1009.2866911853537,251.86746727673352 L-1009.3017435623751,251.81794216144914 L-1009.3107863536761,251.76822944233928 L-1009.3138025126963,251.71842283282035 " />
			<path d="M-1009.3138025126963,251.71842283282035 L-1009.3107863536761,251.66861622330143 L-1009.3017435623751,251.6189035041916 L-1009.2866911853537,251.5693783889072 L-1009.2656575978385,251.52013423721277 L-1009.2386824502325,251.47126387922847 L-1009.2058165933701,251.42285944043624 L-1009.1671219826576,251.375012168014 L-1009.1226715612822,251.32781225882567 L-1009.0725491227059,251.28134868939117 L-1009.0168491527071,251.2357090481568 L-1008.955676651265,251.19097937038225 L-1008.8891469346246,251.14724397595575 L-1008.817385417914,251.10458531044253 L-1008.7405273787246,251.06308378966685 L-1008.6587177020988,251.02281764812008 L-1008.5721106074079,250.983862791481 " />
			<path d="M-1248.5384964136292,-1712.1876279775402 L-1249.3704041956616,-1712.5455831708784 " />
			<path d="M-1248.538756263536,362.7104254380973 L-1248.4521491634098,362.7493802968679 L-1248.3703394819786,362.78964643985455 L-1248.2934814386426,362.8311479613659 L-1248.221719918471,362.873806626899 L-1248.155190199079,362.9175420206193 L-1248.094017695616,362.9622716969522 L-1248.0383177243457,363.0079113360013 L-1247.9881952852636,363.05437490249994 L-1247.9437448641609,363.10157480799603 L-1247.90505025451,363.1494220759651 L-1247.8721843995054,363.19782650954 L-1247.845209254558,363.24669686154084 L-1247.8241756705042,363.2959410064851 L-1247.809123297745,363.3454661142533 L-1247.8000805115028,363.39517882508306 L-1247.7970643583305,363.4449854255616 " />
			<path d="M-1247.7970643583305,363.4449854255616 L-1247.7982634711639,363.47639418143365 L-1247.80185990313,363.50777939793113 L-1247.807850958908,363.5391175536214 L-1247.8162321485427,363.570385162341 L-1247.8269971908096,363.6015587907974 L-1247.8401380179223,363.63261507613123 L-1247.8556447815795,363.66353074342476 L-1247.8735058603445,363.6942826231457 L-1247.8937078683557,363.7248476685111 L-1247.9162356653585,363.75520297275966 L-1247.9681993627405,363.81519353385653 L-1248.0292412063466,363.87407450209156 L-1248.0991782409174,363.93166939880354 L-1248.177800850432,363.9878055999584 L-1248.2648733863737,364.04231485353984 L-1248.3601348740156,364.09503378383613 L-1248.463299794619,364.1458043811113 L-1248.5740589411914,364.1944744751939 L-1248.692080345247,364.2408981915627 L-1248.8170102717838,364.2849363885636 L-1248.948474279504,364.3264570744466 " />
			<path d="M-1248.5384964136294,-1712.1876279775402 L-1248.4518893135032,-1712.1486731187695 L-1248.370079632072,-1712.1084069757828 L-1248.293221588736,-1712.0669054542716 L-1248.2214600685645,-1712.0242467887383 L-1248.1549303491724,-1711.980511395018 L-1248.0937578457094,-1711.9357817186851 L-1248.0380578744391,-1711.890142079636 L-1247.987935435357,-1711.8436785131373 L-1247.9434850142543,-1711.7964786076413 L-1247.9047904046033,-1711.7486313396723 L-1247.8719245495988,-1711.7002269060974 L-1247.8449494046515,-1711.6513565540965 L-1247.8239158205977,-1711.6021124091524 L-1247.8088634478383,-1711.5525873013842 L-1247.7998206615962,-1711.5028745905543 L-1247.796804508424,-1711.4530679900759 " />
			<path d="M-1247.796804508424,-1711.4530679900759 L-1247.7980036212573,-1711.4216592342038 L-1247.8016000532234,-1711.3902740177061 L-1247.8075911090014,-1711.358935862016 L-1247.815972298636,-1711.3276682532965 L-1247.826737340903,-1711.2964946248399 L-1247.8398781680157,-1711.265438339506 L-1247.855384931673,-1711.2345226722125 L-1247.873246010438,-1711.2037707924917 L-1247.8934480184491,-1711.1732057471263 L-1247.915975815452,-1711.1428504428777 L-1247.967939512834,-1711.082859881781 L-1248.02898135644,-1711.0239789135458 L-1248.0989183910108,-1710.966384016834 L-1248.1775410005255,-1710.910247815679 L-1248.264613536467,-1710.8557385620975 L-1248.359875024109,-1710.8030196318014 L-1248.4630399447124,-1710.7522490345261 L-1248.5737990912849,-1710.7035789404435 L-1248.6918204953404,-1710.6571552240748 L-1248.8167504218773,-1710.6131170270737 L-1248.9482144295973,-1710.5715963411908 " />
			<path d="M-1248.9484742795037,364.3264570744466 L-1273.2242667156004,371.58023299322986 " />
			<path d="M-1248.9482144295973,-1710.5715963411906 L-1273.224006865694,-1703.3178204224075 " />
			<path d="M-1273.2242667156006,371.5802329932299 L-1273.34735779306,371.6152143521171 L-1273.4750875662676,371.64798789447127 L-1273.6071483230116,371.67847466595833 L-1273.7432219173622,371.7066012212755 L-1273.882980536112,371.73229980108727 L-1274.0260874885066,371.755508495264 L-1274.1721980173634,371.7761713920287 L-1274.3209601296205,371.794238712653 L-1274.4720154443194,371.8096669313792 L-1274.625000055976,371.82241888027687 L-1274.7795454112613,371.83246383878435 L-1274.9352791968774,371.8397776077166 L-1275.0918262364944,371.84434256756373 L-1275.248809394582,371.8461477209376 L-1275.4058504849618,371.8451887190657 L-1275.5625711818925,371.8414678722674 L-1275.7185939314877,371.83499414438865 L-1275.8735428612779,371.82578313120695 L-1276.027044685719,371.81385702285974 L-1276.178729605471,371.79924455038673 L-1276.328232198276,371.78198091651393 L-1276.4751922992934,371.76210771084754 L-1276.6192558687671,371.73967280968066 L-1276.7600758449403,371.71473026065524 L-1276.897312980156,371.6873401525566 L-1277.0306366581344,371.6575684705543 L-1277.159725690458,371.6254869372379 L-1277.2842690903406,371.5911728398312 L-1277.4039668218236,371.5547088440004 L-1277.5185305225873,371.51618279470534 L-1277.6276841986423,371.4756875045733 L-1277.7311648892219,371.4333205303051 " />
			<path d="M-1273.2240068656943,-1703.3178204224077 L-1273.3470979431536,-1703.2828390635207 L-1273.4748277163612,-1703.2500655211663 L-1273.6068884731053,-1703.2195787496794 L-1273.742962067456,-1703.1914521943622 L-1273.8827206862056,-1703.1657536145503 L-1274.0258276386003,-1703.1425449203737 L-1274.171938167457,-1703.121882023609 L-1274.3207002797142,-1703.1038147029847 L-1274.471755594413,-1703.0883864842585 L-1274.6247402060696,-1703.0756345353607 L-1274.779285561355,-1703.0655895768534 L-1274.935019346971,-1703.058275807921 L-1275.091566386588,-1703.053710848074 L-1275.2485495446756,-1703.0519056947 L-1275.4055906350554,-1703.052864696572 L-1275.5623113319862,-1703.0565855433701 L-1275.7183340815814,-1703.063059271249 L-1275.8732830113715,-1703.0722702844307 L-1276.0267848358126,-1703.084196392778 L-1276.1784697555647,-1703.098808865251 L-1276.3279723483697,-1703.1160724991237 L-1276.474932449387,-1703.1359457047902 L-1276.6189960188608,-1703.158380605957 L-1276.759815995034,-1703.1833231549824 L-1276.8970531302496,-1703.210713263081 L-1277.030376808228,-1703.2404849450834 L-1277.1594658405515,-1703.2725664783998 L-1277.2840092404342,-1703.3068805758064 L-1277.4037069719172,-1703.3433445716373 L-1277.518270672681,-1703.3818706209322 L-1277.627424348736,-1703.4223659110644 L-1277.7309050393155,-1703.4647328853325 " />
			<path d="M-1277.7311648892219,371.433320530305 L-1330.6103962989364,348.6803232490484 " />
			<path d="M-1277.7309050393153,-1703.4647328853325 L-1330.6101364490298,-1726.2177301665893 " />
			<path d="M-1330.6103962989362,348.6803232490484 L-1330.6970033990624,348.64136839027776 L-1330.7788130804936,348.6011022472911 L-1330.8556711238296,348.5596007257798 L-1330.927432644001,348.51694206024666 L-1330.9939623633932,348.4732066665264 L-1331.0551348668562,348.4284769901935 L-1331.1108348381265,348.38283735114436 L-1331.1609572772086,348.33637378464573 L-1331.2054076983113,348.28917387914964 L-1331.2441023079623,348.24132661118057 L-1331.2769681629668,348.1929221776057 L-1331.303943307914,348.14405182560483 L-1331.324976891968,348.09480768066055 L-1331.3400292647273,348.04528257289235 L-1331.3490720509694,347.9955698620626 L-1331.3520882041416,347.9457632615841 " />
			<path d="M-1331.3520882041416,347.9457632615841 L-1331.3490720384943,347.895956661861 L-1331.3400292398007,347.8462439532962 L-1331.3249768546368,347.7967188492982 L-1331.3039432582486,347.7474747096222 L-1331.276968101061,347.69860436437784 L-1331.2441022339324,347.65019993903485 L-1331.2054076122972,347.6023526807576 L-1331.1609571793724,347.555152786395 L-1331.1108347286524,347.50868923245054 L-1331.055134745951,347.4630496073526 L-1330.9939622312845,347.4183199463416 L-1330.927432500938,347.374584569285 L-1330.8556709700815,347.331925921726 L-1330.7788129163507,347.2904244194653 L-1330.6970032248341,347.2501582969695 L-1330.6103961149508,347.21120345989135 " />
			<path d="M-1330.6101364490296,-1726.2177301665893 L-1330.6967435491558,-1726.25668502536 L-1330.778553230587,-1726.2969511683466 L-1330.855411273923,-1726.3384526898578 L-1330.9271727940945,-1726.381111355391 L-1330.9937025134866,-1726.4248467491113 L-1331.0548750169496,-1726.4695764254443 L-1331.11057498822,-1726.5152160644934 L-1331.160697427302,-1726.561679630992 L-1331.2051478484047,-1726.608879536488 L-1331.2438424580557,-1726.656726804457 L-1331.2767083130602,-1726.705131238032 L-1331.3036834580075,-1726.7540015900329 L-1331.3247170420614,-1726.803245734977 L-1331.3397694148207,-1726.8527708427453 L-1331.3488122010629,-1726.9024835535752 L-1331.351828354235,-1726.9522901540536 " />
			<path d="M-1331.351828354235,-1726.9522901540536 L-1331.3479122652143,-1727.0090387448113 L-1331.3361735971944,-1727.065648439507 L-1331.3166410811662,-1727.1219806830145 L-1331.2893625239626,-1727.177897599284 L-1331.2544046912492,-1727.2332623288005 L-1331.2118531441108,-1727.2879393635535 L-1331.161812029638,-1727.3417948787016 L-1331.1044038260202,-1727.394697060114 " />
			<path d="M42.764317897587254,0.6641647040443814 L-1245.0818352194538,385.48180636072664 " />
			<path d="M-71.95675671394793,-27.41438385467043 L-301.3485226083863,41.12951648102213 " />
			<path d="M-384.161854550661,65.87473237395025 L-613.5536506367598,134.4186417311269 " />
			<path d="M-696.3669825790345,159.16385762405503 L-925.7587786651333,227.70776698123166 " />
			<path d="M-1008.5721106074078,252.45298287415972 L-1247.79705941031,323.9351085931058 " />
			<path d="M-1330.610392575126,348.680324851338 L-1330.6104710146283,348.6803482896223 " />
			<path d="M44.81290797651359,4.532847588431931 L-1243.0332451405275,389.3504892451142 " />
			<path d="M44.81290797651359,34.031554581886994 L-1243.0332451405275,418.8491962385693 " />
			<path d="M10.629226362916762,-2122.569228831171 L-1278.1705863488878,-1739.746395372645 " />
			<path d="M-42.19278870961131,-2145.663817306488 L-1330.9926014214159,-1762.840983847962 " />
			<path d="M12.664488880103047,-2118.6903142788615 L-1276.1353238317015,-1735.8674808203355 " />
			<path d="M12.554768267682192,-2089.221250941873 L-1276.2450444441224,-1706.3984174833472 " />
			<path d="M9.705165323422637,-11.768257663847098 L9.704870989590773,-2086.6661454319114 " />
			<path d="M-14.570627104357657,-4.514472166302603 L-14.57092143818952,-2079.412359934367 " />
			<path d="M-19.077525278147395,-4.661383659078375 L-19.077819389304537,-2077.989532380935 " />
			<path d="M-71.95675671394751,-27.41438093651678 L-71.9570453693551,-2062.282379942589 " />
			<path d="M-302.49993252945995,81.52086125447966 L-302.49993252945995,-1993.3771145161709 " />
			<path d="M-326.77572496473704,88.7746416627063 L-326.77572496473704,-1986.1233341079444 " />
			<path d="M-331.28262313837496,88.62772965443844 L-331.28262313837496,-1985.2527656529064 " />
			<path d="M-384.161854550661,65.87473237395028 L-384.161854550661,-1969.5456116009784 " />
			<path d="M-614.7050605578335,174.80998650458443 L-614.7050605578335,-1900.0879892660662 " />
			<path d="M-638.9808529931105,182.06376691281105 L-638.9808529931105,-1892.8342088578397 " />
			<path d="M-643.4877511667485,181.9168549045432 L-643.4877511667485,-1892.515902601522 " />
			<path d="M-696.3669825790345,159.16385762405503 L-696.3669825790345,-1876.808748549594 " />
			<path d="M-926.9101885862068,268.09911175468915 L-926.9101885862068,-1806.7988640159615 " />
			<path d="M-951.1859810214838,275.3528921629158 L-951.1859810214838,-1799.5450836077348 " />
			<path d="M-955.6928791951219,275.20598015464793 L-955.6928791951219,-1799.6919956160027 " />
			<path d="M-1008.5721106074079,252.45298287415977 L-1008.5721106074079,-1784.0718854982103 " />
			<path d="M-1248.948474279504,364.3264570744466 L-1248.9482144295976,-1710.571596341191 " />
			<path d="M-1273.2242667156004,371.58023299322986 L-1273.224006865694,-1703.3178204224077 " />
			<path d="M-1277.7311648892219,371.433320530305 L-1277.7309050393155,-1703.4647328853325 " />
			<path d="M-1330.610396298936,348.68032324904834 L-1330.6101364490296,-1726.2177301665893 " />
			<path d="M-1331.5266283495305,348.60151024388796 L-1331.024519905944,348.4514766496972 " />
			<path d="M-1247.7970593661532,323.5825161698454 L-1008.9862368402005,252.22413434442115 " />
			<path d="M-925.7587786651331,227.3551745711656 L-696.781108811827,158.93500909431637 " />
			<path d="M-613.5536506367598,134.0660493210609 L-384.5759807834536,65.64588384421165 " />
			<path d="M-301.34852260838636,40.77692407095614 L-72.3708857684365,-27.643231541266104 " />
			<path d="M-1244.1656778845515,421.0337730694766 L43.68047523248944,36.21613141279431 " />
			<path d="M-1331.9148870797635,-1762.9243082188718 L-43.11507436795868,-2145.747141677398 " />
			<path d="M-1277.380243199148,-1704.2255897737118 L-329.2178081353049,-1985.8660946759603 " />
			<path d="M-301.3485226083863,-1994.1443383152348 L-14.570921426258629,-2079.3282534385457 " />
			<path d="M10.856281004301376,-2086.881105002753 L10.856575243585308,-12.649730167270992 " />
			<path d="M-72.69873713994978,-2062.062069121334 L-72.69844861999505,-28.14894103929539 " />
			<path d="M-301.3485226083863,-1994.2585865657784 L-301.3485226083863,80.63938920487237 " />
			<path d="M-384.9035464559494,-1969.3253007397138 L-384.9035464559494,65.14017233261086 " />
			<path d="M-613.5536506367598,-1900.9694613156735 L-613.5536506367598,173.92851445497712 " />
			<path d="M-697.1086744843228,-1876.58843768833 L-697.1086744843228,158.42929758271558 " />
			<path d="M-925.7587786651331,-1807.6803360655688 L-925.7587786651331,267.21763970508187 " />
			<path d="M-1009.3138025126962,-1783.8515746369455 L-1009.3138025126962,251.7184228328203 " />
			<path d="M-1247.7968045084242,-1711.4530679900765 L-1247.7970643583305,363.4449854255616 " />
			<path d="M-1331.351828354235,-1726.952290154054 L-1331.3520882041414,347.94576326158415 " />

       </g>
    </g>
    
</svg>
