<?xml version="1.0" encoding="UTF-8" standalone="no"?>
<svg
   xmlns:svg="http://www.w3.org/2000/svg"
   xmlns="http://www.w3.org/2000/svg"
   width="480.0"
   height="480.0"

>
    <g transform="scale(0.13634368745526826, -0.13634368745526826)   translate(2703.6603504963773,-144.155898618808)" stroke-width="1.0"  fill="none">
       <!-- hidden lines -->
       <g  stroke="rgb(0,0,0)" fill="none" stroke-dasharray="1.0,1.0" >
			<path d="M-10.06997986006042,-66.8 L-10.06997986006042,66.8 " />
			<path d="M-8.373983252050243,70.0 L-1429.95834008618,70.0 " />
			<path d="M-8.373983252050243,70.0 L-8.457201861272491,69.99614545985655 L-8.540219989576036,69.98459112535103 L-8.62283763901826,69.9653648318873 L-8.704855776445209,69.93851289729034 L-8.78607681297988,69.90410001022254 L-8.86630508003114,69.86220907434307 L-8.945347300676493,69.81294100858567 L-9.023013055283126,69.75641450403612 L-9.099115240245474,69.69276573799502 L-9.1734705187342,69.62214804591473 L-9.24589976237067,69.54473155200087 L-9.316228482762911,69.46070275936815 L-9.38428725186343,69.37026410073805 L-9.449912110136221,69.27363345076076 L-9.512944961549644,69.17104360113586 L-9.573233954443621,69.06274169979694 L-9.630633847353575,68.94898865551046 L-9.685006358909853,68.83005850932366 L-9.736220500969644,68.70623777437578 L-9.784152894178895,68.57782474566272 L-9.828688065203988,68.4451287814183 L-9.869718724917098,68.3084695578432 L-9.907146026865119,68.1681762989769 L-9.940879805399412,68.02458698356828 L-9.970838792892758,67.8780475308551 L-9.996950815520188,67.72891096721428 L-10.01915296713205,67.57753657569044 L-10.03739176080043,67.4242890304516 L-10.051623257673855,67.26953751825715 L-10.061813172829822,67.1136548490546 L-10.067936957870192,66.95701655784774 L-10.06997986006042,66.80000000000001 " />
			<path d="M-10.06997986006042,-66.8 L-10.067936957870192,-66.95701655784774 L-10.061813172829822,-67.1136548490546 L-10.051623257673855,-67.26953751825715 L-10.03739176080043,-67.4242890304516 L-10.01915296713205,-67.57753657569044 L-9.996950815520188,-67.72891096721428 L-9.970838792892758,-67.8780475308551 L-9.940879805399412,-68.02458698356828 L-9.907146026865119,-68.1681762989769 L-9.8697187249171,-68.3084695578432 L-9.828688065203988,-68.4451287814183 L-9.784152894178895,-68.57782474566272 L-9.736220500969644,-68.70623777437578 L-9.685006358909853,-68.83005850932366 L-9.630633847353575,-68.94898865551046 L-9.573233954443621,-69.06274169979694 L-9.512944961549644,-69.17104360113586 L-9.449912110136221,-69.27363345076076 L-9.38428725186343,-69.37026410073805 L-9.316228482762911,-69.46070275936815 L-9.24589976237067,-69.54473155200087 L-9.1734705187342,-69.62214804591473 L-9.099115240245476,-69.69276573799502 L-9.023013055283126,-69.75641450403612 L-8.945347300676493,-69.81294100858567 L-8.86630508003114,-69.86220907434307 L-8.78607681297988,-69.90410001022254 L-8.70485577644521,-69.93851289729034 L-8.622837639018261,-69.9653648318873 L-8.540219989576036,-69.98459112535103 L-8.457201861272491,-69.99614545985655 L-8.37398325205025,-70.0 " />
			<path d="M-8.373983252050243,-70.0 L8.373983252050243,-70.0 " />
			<path d="M-8.373983252050243,70.0 L8.373983252050243,70.0 " />
			<path d="M-1207.7122953808494,-16.625530311810643 L-1207.834114283528,65.97370363646965 " />
			<path d="M-1206.1455887744305,69.18715838790528 L-1206.228666678332,69.18264223393986 L-1206.3115330708952,69.17042795099383 L-1206.393988319722,69.15054496434463 L-1206.475833782896,69.12304117384869 L-1206.5568722875273,69.08798283854631 L-1206.6369086047605,69.04545441703802 L-1206.7157499200969,68.99555836401626 L-1206.7932062979019,68.93841488344314 L-1206.8690911389774,68.87416163896856 L-1206.9432216300943,68.80295342228635 L-1207.0154191844063,68.72496178022762 L-1207.0855098716816,68.64037460148934 L-1207.1533248373153,68.54939566399406 L-1207.218700709115,68.45224414397101 L-1207.2814799908797,68.34915408794141 L-1207.3415114418203,68.24037384887984 L-1207.3986504409138,68.12616548791024 L-1207.4527593353066,68.00680414297764 L-1207.5037077719323,67.8825773660168 L-1207.5513730115451,67.75378443021442 L-1207.5956402244074,67.62073560903377 L-1207.636402766926,67.48375142873877 L-1207.6735624385658,67.34316189621813 L-1207.707029718423,67.19930570396991 L-1207.7367239808889,67.05252941416154 L-1207.7625736898844,66.90318662373124 L-1207.7845165711965,66.75163711254207 L-1207.8024997625018,66.59824597664063 L-1207.8164799407177,66.44338274870877 L-1207.8264234263702,66.28742050782704 L-1207.8323062647312,66.13073498069436 L-1207.8341142835282,65.97370363646965 " />
			<path d="M-1207.7122953808496,-16.62553031181064 L-1207.7100372893685,-16.782052975572338 L-1207.7037301546445,-16.938168559827222 L-1207.6933890790197,-17.09350324808317 L-1207.6790388240493,-17.247685093692162 L-1207.6607137512094,-17.400344910471098 L-1207.6384577396202,-17.55111715671274 L-1207.612324080977,-17.699640810469994 L-1207.5823753519448,-17.84556023401772 L-1207.5486832643192,-17.98852602542208 L-1207.511328493313,-18.128195855178355 L-1207.4704004843807,-18.264235285913987 L-1207.4259972390441,-18.396318573193984 L-1207.3782250802271,-18.524129445511218 L-1207.3271983976679,-18.64736186159395 L-1207.2730393740144,-18.76572074321719 L-1207.2158776922597,-18.87892268176321 L-1207.1558502252185,-18.98669661683936 L-1207.0931007077854,-19.08878448532821 L-1207.0277793927664,-19.184941839315933 L-1206.9600426910981,-19.27493843141929 L-1206.8900527973262,-19.35855876610961 L-1206.8179773012316,-19.435602615713705 L-1206.7439887865394,-19.50588549985612 L-1206.6682644176706,-19.569239127194695 L-1206.5909855155228,-19.62551179839174 L-1206.5123371233017,-19.674568769355893 L-1206.4325075634363,-19.716292573884864 L-1206.3516879866452,-19.750583304936566 L-1206.270071914227,-19.777358853855066 L-1206.1878547746785,-19.79655510697856 L-1206.1052334357425,-19.8081260991586 L-1206.0224057330115,-19.812044123822993 " />
			<path d="M-1206.0224057330115,-19.812044123822993 L-1206.0143311190022,-19.812016205278073 " />
			<path d="M-1206.014331119002,-19.81201620527807 L-1189.2935378749614,-19.678857469060034 " />
			<path d="M-1189.2935378749614,-19.678857469060038 L-1189.21045997106,-19.674341315094612 L-1189.1275935784968,-19.662127032148575 L-1189.04513832967,-19.64224404549939 L-1188.963292866496,-19.614740255003433 L-1188.8822543618646,-19.579681919701063 L-1188.8022180446314,-19.537153498192765 L-1188.723376729295,-19.48725744517101 L-1188.64592035149,-19.430113964597897 L-1188.5700355104145,-19.365860720123308 L-1188.4959050192977,-19.294652503441103 L-1188.4237074649857,-19.216660861382373 L-1188.3536167777104,-19.132073682644094 L-1188.2858018120767,-19.041094745148815 L-1188.220425940277,-18.943943225125768 L-1188.1576466585122,-18.840853169096164 L-1188.0976152075716,-18.732072930034597 L-1188.0404762084781,-18.617864569064988 L-1187.9863673140853,-18.498503224132392 L-1187.9354188774596,-18.37427644717156 L-1187.8877536378468,-18.245483511369176 L-1187.8434864249846,-18.11243469018852 L-1187.802723882466,-17.97545050989351 L-1187.7655642108261,-17.83486097737288 L-1187.732096930969,-17.69100478512466 L-1187.702402668503,-17.544228495316286 L-1187.6765529595075,-17.394885704885997 L-1187.6546100781954,-17.243336193696816 L-1187.63662688689,-17.089945057795372 L-1187.6226467086742,-16.935081829863528 L-1187.6127032230218,-16.779119588981786 L-1187.6068203846608,-16.622434061849113 L-1187.6050123658638,-16.465402717624425 " />
			<path d="M-1187.6050123658642,-16.465402717624393 L-1187.7268312685428,66.13383123065589 " />
			<path d="M-1187.7268312685426,66.13383123065589 L-1187.7290893600236,66.29035389441759 L-1187.7353964947476,66.44646947867247 L-1187.7457375703725,66.60180416692842 L-1187.760087825343,66.7559860125374 L-1187.7784128981828,66.90864582931636 L-1187.800668909772,67.05941807555799 L-1187.8268025684151,67.20794172931524 L-1187.8567512974473,67.35386115286298 L-1187.890443385073,67.49682694426733 L-1187.9277981560792,67.63649677402361 L-1187.9687261650115,67.77253620475923 L-1188.013129410348,67.90461949203923 L-1188.060901569165,68.03243036435647 L-1188.1119282517243,68.1556627804392 L-1188.1660872753778,68.27402166206244 L-1188.2232489571325,68.38722360060846 L-1188.2832764241737,68.49499753568462 L-1188.3460259416067,68.59708540417346 L-1188.4113472566257,68.69324275816119 L-1188.479083958294,68.78323935026454 L-1188.549073852066,68.86685968495486 L-1188.6211493481605,68.94390353455896 L-1188.6951378628528,69.01418641870137 L-1188.7708622317216,69.07754004603994 L-1188.8481411338694,69.13381271723699 L-1188.9267895260905,69.18286968820114 L-1189.006619085956,69.22459349273011 L-1189.087438662747,69.25888422378182 L-1189.1690547351652,69.28565977270031 L-1189.2512718747137,69.30485602582381 L-1189.3338932136496,69.31642701800385 L-1189.4167209163807,69.32034504266824 " />
			<path d="M-1189.4167209163807,69.32034504266824 L-1189.42479553039,69.32031712412332 " />
			<path d="M-1206.1455887744305,69.18715838790528 L-1189.42479553039,69.32031712412332 " />
			<path d="M-10.070014687324397,-15.79999969037419 L-10.070014715537956,66.8000003096258 " />
			<path d="M-1188.0989836127205,-15.799999804998684 L-1188.098983640934,66.8000001950013 " />
			<path d="M-12.782413591987078,69.99999999794143 L-12.64930259502879,69.99607846920509 L-12.51651497253565,69.9844616254365 L-12.384370442154124,69.96517743693802 L-12.253187173134123,69.93827233496012 L-12.123281020261198,69.90381109990719 L-11.99496476336134,69.86187670536333 L-11.868547354209486,69.81257011831389 L-11.744333172654954,69.75601005604341 L-11.62262129375488,69.69233270029574 L-11.503704767680187,69.62169136938422 L-11.387869914127908,69.54425614904152 L-11.27539563293871,69.46021348289798 L-11.166552732579486,69.36976572357442 L-11.06160327810783,69.27313064547023 L-10.960799960188362,69.17054092042002 L-10.864385486680114,69.06224355748103 L-10.77259199825987,68.94849930820031 L-10.685640509488534,68.82958203879369 L-10.603740376666222,68.70577807074794 L-10.527088793757393,68.57738549143403 L-10.45587031759969,68.44471343639118 L-10.390256423539638,68.30808134500987 L-10.330405092565154,68.16781819140577 L-10.276460430928893,68.02426169233681 L-10.228552323178329,67.87775749406994 L-10.186796119427944,67.72865834015603 L-10.151292357626513,67.57732322211614 L-10.122126521488187,67.42411651508448 L-10.099368834670198,67.26940710048898 L-10.083074091692792,67.11356747788183 L-10.073281526008424,66.95697286805873 L-10.070014715537951,66.80000030962582 " />
			<path d="M-1190.8123732473273,70.00000018471312 L-1190.6792301222067,69.99613417219119 L-1190.5464082127698,69.9845691322491 L-1190.4142274679084,69.96533292340598 L-1190.2830062920402,69.9384718829244 L-1190.1530607781194,69.90405071519055 L-1190.0247039462138,69.86215233585062 L-1189.8982449894845,69.81287767207901 L-1189.7739885293843,69.75634541945921 L-1189.652233881868,69.69269175606324 L-1189.5332743363833,69.6220700144182 L-1189.4173964493793,69.54465031215027 L-1189.304879354032,69.46061914219582 L-1189.195994087854,69.3701789235667 L-1189.0910029398026,69.27354751375191 L-1188.9901588184648,69.1709576839303 L-1188.8937046428364,69.06265655825814 L-1188.801872757164,68.94890501858266 L-1188.7148843712625,68.82997707601507 L-1188.6329490276526,68.70615921087725 L-1188.556264096801,68.57774968261177 L-1188.4850143016859,68.4450578113178 L-1188.4193712728236,68.3084032326434 L-1188.3594931348368,68.16811512782924 L-1188.3055241255545,68.02453143075826 L-1188.2575942485641,67.87799801392151 L-1188.2158189600507,67.72886785526103 L-1188.180298890681,67.57750018789673 L-1188.1511196031965,67.42425963478544 L-1188.1283513863082,67.26951533039654 L-1188.112049085378,67.1136400315202 L-1188.1022519703058,66.95700921934971 L-1188.0989836409342,66.80000019500133 " />
			<path d="M-12.783608966628176,-18.99999969155999 L-1190.8125778920246,-18.999999806184483 " />
			<path d="M-10.070014687324395,-15.799999690374184 L-10.073283330422896,-15.95701624822335 L-10.083081385378136,-16.11365453943449 L-10.09938524781752,-16.269537208644177 L-10.122155640308382,-16.42428872084858 L-10.151337706980758,-16.577536266100168 L-10.186861145679993,-16.728910657639524 L-10.228640377330771,-16.878047221298605 L-10.276574752104619,-17.024586674032737 L-10.330548791894147,-17.168175989464938 L-10.390432468509939,-17.308469248357397 L-10.456081516929837,-17.4451284719612 L-10.527337782846015,-17.577824436236757 L-10.604029603672574,-17.706237464983328 L-10.685972222095732,-17.830058199967013 L-10.77296823117038,-17.948988346191825 L-10.864808049890708,-18.06274139051845 L-10.9612704280892,-18.17104329189952 L-11.06212297944767,-18.27363314156848 L-11.167122741336255,-18.370263791591668 L-11.276016760131673,-18.460702450269334 L-11.388542700604656,-18.544731242951233 L-11.504429477908495,-18.62214773691574 L-11.623397910646187,-18.69276542904801 L-11.745161393442855,-18.756414195142316 L-11.869426587403225,-18.812940699746168 L-11.995894126790702,-18.862208765558833 L-12.124259340225652,-18.904099701494403 L-12.254212984665443,-18.938512588618984 L-12.385441990398029,-18.965364523273294 L-12.517630215254293,-18.984590816794785 L-12.650459206222239,-18.996145151358352 L-12.783608966628165,-18.999999691559985 " />
			<path d="M-1188.0989836127208,-15.799999804998675 L-1188.1022522558192,-15.957016362847842 L-1188.1120503107745,-16.11365465405898 L-1188.128354173214,-16.26953732326867 L-1188.1511245657048,-16.42428883547307 L-1188.180306632377,-16.57753638072466 L-1188.2158300710764,-16.728910772264015 L-1188.2576093027271,-16.878047335923096 L-1188.305543677501,-17.024586788657228 L-1188.3595177172906,-17.16817610408943 L-1188.4194013939064,-17.30846936298189 L-1188.4850504423262,-17.445128586585692 L-1188.5563067082423,-17.577824550861248 L-1188.632998529069,-17.70623757960782 L-1188.714941147492,-17.830058314591504 L-1188.8019371565667,-17.948988460816317 L-1188.893776975287,-18.06274150514294 L-1188.9902393534855,-18.17104340652401 L-1189.091091904844,-18.273633256192973 L-1189.1960916667326,-18.37026390621616 L-1189.304985685528,-18.460702564893825 L-1189.417511626001,-18.544731357575724 L-1189.5333984033048,-18.62214785154023 L-1189.6523668360426,-18.6927655436725 L-1189.7741303188393,-18.756414309766807 L-1189.8983955127997,-18.81294081437066 L-1190.0248630521871,-18.862208880183324 L-1190.153228265622,-18.904099816118894 L-1190.2831819100618,-18.938512703243475 L-1190.4144109157944,-18.965364637897785 L-1190.5465991406506,-18.984590931419277 L-1190.6794281316186,-18.996145265982843 L-1190.8125778920246,-18.999999806184476 " />
			<path d="M-12.78360896662818,-18.999999691559992 L-39.580352485546584,-18.999999703269772 " />
			<path d="M-1190.8125778920244,-18.999999806184483 L-1217.6093214109428,-18.999999817894263 " />
			<path d="M-39.58035248554658,-18.999999703269776 L-1217.609321410943,-18.99999981789427 " />
			<path d="M-39.58035248554658,-18.999999703269772 L-39.71350224595515,-18.996145163184508 L-39.846331236930986,-18.984590828737034 L-39.97851946180039,-18.965364535331066 L-40.10974846755131,-18.938512600791448 L-40.23970211201461,-18.90409971378044 L-40.36806732547818,-18.86220877795706 L-40.494534864899315,-18.812940712254925 L-40.6188000588983,-18.756414207759676 L-40.74056354173845,-18.692765441771787 L-40.85953197452438,-18.62214774974349 L-40.97541875188111,-18.544731255880265 L-41.0879446924115,-18.460702463296712 L-41.1968387112687,-18.370263804714217 L-41.30183847322329,-18.273633154782793 L-41.402691024651844,-18.171043305201977 L-41.49915340292432,-18.062741403905214 L-41.590993221722364,-17.948988359658852 L-41.677989230878254,-17.830058213510075 L-41.759931849386,-17.706237478598002 L-41.836623670300284,-17.577824449918456 L-41.90787993630711,-17.445128485705176 L-41.97352898482036,-17.30846926215875 L-42.033412661532,-17.168176003318628 L-42.08738670141962,-17.0245866879336 L-42.135321076293565,-16.87804723524136 L-42.17710030804623,-16.728910671618795 L-42.21262374684887,-16.577536280110483 L-42.24180581362594,-16.4242887348844 L-42.264576206222515,-16.269537222699896 L-42.28088006876839,-16.113654553504457 L-42.29067812383063,-15.957016262301881 L-42.293946767036395,-15.799999704455601 " />
			<path d="M-1217.609321410943,-18.999999817894263 L-1217.7424711713516,-18.996145277809 L-1217.8753001623274,-18.984590943361525 L-1218.0074883871969,-18.965364649955557 L-1218.1387173929477,-18.93851271541594 L-1218.268671037411,-18.90409982840493 L-1218.3970362508746,-18.862208892581553 L-1218.5235037902958,-18.812940826879416 L-1218.6477689842948,-18.756414322384167 L-1218.769532467135,-18.692765556396278 L-1218.8885008999207,-18.62214786436798 L-1219.0043876772775,-18.544731370504756 L-1219.116913617808,-18.460702577921204 L-1219.2258076366652,-18.370263919338708 L-1219.3308073986198,-18.273633269407284 L-1219.4316599500482,-18.171043419826468 L-1219.5281223283207,-18.062741518529705 L-1219.6199621471187,-17.948988474283343 L-1219.7069581562746,-17.830058328134566 L-1219.7889007747824,-17.706237593222493 L-1219.8655925956966,-17.577824564542947 L-1219.9368488617035,-17.445128600329667 L-1220.0024979102168,-17.30846937678324 L-1220.0623815869285,-17.16817611794312 L-1220.1163556268161,-17.02458680255809 L-1220.16429000169,-16.878047349865852 L-1220.2060692334426,-16.728910786243286 L-1220.2415926722454,-16.577536394734974 L-1220.2707747390223,-16.42428884950889 L-1220.2935451316189,-16.269537337324387 L-1220.309848994165,-16.113654668128948 L-1220.3196470492271,-15.957016376926372 L-1220.3229156924328,-15.799999819080092 " />
			<path d="M-42.2939467670364,-15.79999970445557 L-42.293946795249965,66.80000029554442 " />
			<path d="M-1220.3229156924326,-15.799999819080064 L-1220.322915720646,66.80000018091994 " />
			<path d="M-42.29394679524996,66.80000029554442 L-42.29067995782449,66.95697350376696 L-42.28088731119072,67.11356875868996 L-42.26459243365973,67.26940901703061 L-42.241834559332965,67.42411905335423 L-42.21266848363606,67.57732636352586 L-42.177164431384774,67.72866206160953 L-42.13540788770074,67.87776176805598 L-42.087499392184064,68.02426648703987 L-42.033554296838446,68.16782347083448 L-41.97370248833157,68.30808706914237 L-41.90808807525966,68.44471956133731 L-41.836869041169,68.57739196961329 L-41.760216864169976,68.7057848510831 L-41.67831610405953,68.82958906691914 L-41.59136395794603,68.94850652668448 L-41.49956978544662,69.06225090606209 L-41.403154604600175,69.17054833625424 L-41.30235055970964,69.27313806339185 L-41.19740036239499,69.36977307636644 L-41.088556707202734,69.4602207015728 L-40.97608166317886,69.54426316313035 L-40.86024604287036,69.62169810723464 L-40.741328750274455,69.6923390893759 L-40.61961610930565,69.75601602325227 L-40.49540117439739,69.81257559029608 L-40.368983024898206,69.8618816088277 L-40.24066604496149,69.903815361948 L-40.11075919066244,69.93827588337965 L-39.979575246106954,69.96518020056938 L-39.84743007032366,69.98446353446576 L-39.71464183675215,69.99607945549135 L-39.581530267158776,69.99999999533384 " />
			<path d="M-1220.3229157206463,66.80000018091994 L-1220.3196485341994,66.95698176919898 L-1220.3098548421817,67.11358534361949 L-1220.293558227941,67.26943380058279 L-1220.2707979339525,67.42415185482352 L-1220.2416287673223,67.57736694310198 L-1220.206120967812,67.72871012134149 L-1220.1643600387,67.87781695305095 L-1220.1164465408874,68.02432838689302 L-1220.0624958507478,68.16789162128472 L-1220.0026378822981,68.3081609539486 L-1219.9370167743639,68.44479861436868 L-1219.8657905434914,68.57747557714657 L-1219.7891307034413,68.70587235429922 L-1219.707221852181,68.82967976459045 L-1219.620261227371,68.94859967804373 L-1219.5284582314123,69.06234573384329 L-1219.4320339272042,69.17064402989502 L-1219.3312205058205,69.27323378238647 L-1219.2262607273906,69.36986795375803 L-1219.1174073365298,69.46031384757273 L-1219.0049224537265,69.54435366885257 L-1218.889076944153,69.62178504853183 L-1218.770149765417,69.6924215307647 L-1218.6484272958294,69.75609302191346 L-1218.5242026448004,69.8126462001364 L-1218.397774947028,69.86194488458898 L-1218.2694486421774,69.90387036334911 L-1218.139532741787,69.93832167927727 L-1218.0083400851627,69.96521587312257 L-1217.8761865860574,69.98448818328988 L-1217.7433904719467,69.99609220178662 L-1217.6102715177315,69.99999998597389 " />
			<path d="M-1190.812577922424,70.00000019381551 L-1217.6093214413424,70.00000018210574 " />
			<path d="M-354.69649060772815,-15.800000000000004 L-354.69649060772815,66.79999999999998 " />
			<path d="M-1532.7251345527964,-15.800000000000004 L-1532.7251345527964,66.79999999999998 " />
			<path d="M-357.41008518054446,70.0 L-1535.4387291256126,70.0 " />
			<path d="M-357.41008518054446,69.99999999999999 L-357.27693540578883,69.99614545985654 L-357.1441064005032,69.98459112535102 L-357.0119181613956,69.96536483188729 L-356.8806891415125,69.93851289729032 L-356.75073548305704,69.90410001022252 L-356.622370255775,69.86220907434306 L-356.49590270274246,69.81294100858565 L-356.37163749537183,69.7564145040361 L-356.2498739994321,69.692765737995 L-356.13090555385014,69.62214804591471 L-356.01501876403177,69.54473155200085 L-355.90249281140416,69.46070275936813 L-355.79359878084335,69.37026410073804 L-355.6885990076069,69.27363345076074 L-355.58774644534543,69.17104360113585 L-355.4912840567151,69.06274169979693 L-355.3994442280591,68.94898865551045 L-355.3124482095691,68.83005850932365 L-355.2305055822734,68.70623777437577 L-355.1538137531386,68.57782474566271 L-355.08255747949846,68.44512878141829 L-355.0169084239575,68.30846955784318 L-354.95702474084067,68.16817629897689 L-354.9030506951858,68.02458698356827 L-354.8551163151964,67.87804753085508 L-354.81333707899256,67.72891096721426 L-354.77781363641355,67.57753657569043 L-354.74863156654413,67.42428903045159 L-354.7258611715467,67.26953751825714 L-354.70955730729713,67.11365484905458 L-354.69975925123254,66.95701655784772 L-354.69649060772815,66.8 " />
			<path d="M-1535.4387291256126,69.99999999999999 L-1535.305579350857,69.99614545985654 L-1535.1727503455713,69.98459112535102 L-1535.0405621064638,69.96536483188729 L-1534.9093330865805,69.93851289729032 L-1534.7793794281251,69.90410001022252 L-1534.651014200843,69.86220907434306 L-1534.5245466478104,69.81294100858565 L-1534.40028144044,69.7564145040361 L-1534.2785179445002,69.692765737995 L-1534.1595494989183,69.62214804591471 L-1534.0436627090999,69.54473155200085 L-1533.9311367564724,69.46070275936813 L-1533.8222427259116,69.37026410073804 L-1533.717242952675,69.27363345076074 L-1533.6163903904135,69.17104360113585 L-1533.5199280017832,69.06274169979693 L-1533.4280881731272,68.94898865551045 L-1533.3410921546372,68.83005850932365 L-1533.2591495273416,68.70623777437577 L-1533.1824576982067,68.57782474566271 L-1533.1112014245666,68.44512878141829 L-1533.0455523690255,68.30846955784318 L-1532.9856686859086,68.16817629897689 L-1532.931694640254,68.02458698356827 L-1532.8837602602646,67.87804753085508 L-1532.8419810240607,67.72891096721426 L-1532.8064575814817,67.57753657569043 L-1532.7772755116123,67.42428903045159 L-1532.7545051166148,67.26953751825714 L-1532.7382012523651,67.11365484905458 L-1532.7284031963006,66.95701655784772 L-1532.7251345527964,66.8 " />
			<path d="M-357.41008518054446,-19.000000000000007 L-1535.4387291256126,-19.000000000000007 " />
			<path d="M-354.69649060772815,-15.800000000000004 L-354.69975925123254,-15.957016557847743 L-354.70955730729713,-16.113654849054598 L-354.7258611715467,-16.269537518257163 L-354.74863156654413,-16.424289030451614 L-354.77781363641355,-16.57753657569045 L-354.81333707899256,-16.728910967214283 L-354.8551163151964,-16.87804753085511 L-354.9030506951858,-17.02458698356829 L-354.95702474084067,-17.168176298976906 L-355.0169084239575,-17.308469557843196 L-355.08255747949846,-17.445128781418312 L-355.1538137531386,-17.57782474566273 L-355.2305055822734,-17.70623777437579 L-355.3124482095691,-17.83005850932367 L-355.3994442280591,-17.948988655510462 L-355.4912840567151,-18.062741699796955 L-355.58774644534543,-18.17104360113587 L-355.6885990076069,-18.273633450760762 L-355.79359878084335,-18.37026410073807 L-355.90249281140416,-18.46070275936815 L-356.01501876403177,-18.544731552000876 L-356.13090555385014,-18.62214804591474 L-356.2498739994321,-18.69276573799502 L-356.37163749537183,-18.756414504036123 L-356.49590270274246,-18.81294100858567 L-356.622370255775,-18.862209074343074 L-356.75073548305704,-18.904100010222546 L-356.8806891415125,-18.93851289729034 L-357.0119181613956,-18.965364831887303 L-357.1441064005032,-18.984591125351034 L-357.27693540578883,-18.996145459856557 L-357.41008518054446,-19.000000000000004 " />
			<path d="M-1532.7251345527964,-15.800000000000004 L-1532.7284031963006,-15.957016557847743 L-1532.7382012523651,-16.113654849054598 L-1532.7545051166148,-16.269537518257163 L-1532.7772755116123,-16.424289030451614 L-1532.8064575814817,-16.57753657569045 L-1532.8419810240607,-16.728910967214283 L-1532.8837602602646,-16.87804753085511 L-1532.931694640254,-17.02458698356829 L-1532.9856686859086,-17.168176298976906 L-1533.0455523690255,-17.308469557843196 L-1533.1112014245666,-17.445128781418312 L-1533.1824576982067,-17.57782474566273 L-1533.2591495273416,-17.70623777437579 L-1533.3410921546372,-17.83005850932367 L-1533.4280881731272,-17.948988655510462 L-1533.5199280017832,-18.062741699796955 L-1533.6163903904135,-18.17104360113587 L-1533.717242952675,-18.273633450760762 L-1533.8222427259116,-18.37026410073807 L-1533.9311367564724,-18.46070275936815 L-1534.0436627090999,-18.544731552000876 L-1534.1595494989183,-18.62214804591474 L-1534.2785179445002,-18.69276573799502 L-1534.40028144044,-18.756414504036123 L-1534.5245466478107,-18.81294100858567 L-1534.651014200843,-18.862209074343074 L-1534.7793794281251,-18.904100010222546 L-1534.9093330865805,-18.93851289729034 L-1535.0405621064638,-18.965364831887303 L-1535.1727503455713,-18.984591125351034 L-1535.305579350857,-18.996145459856557 L-1535.4387291256126,-19.000000000000004 " />
			<path d="M-384.2068315871052,-19.000000000000007 L-1431.6543366941903,-19.000000000000007 " />
			<path d="M-357.41008518054446,-19.000000000000007 L-384.2068315871053,-19.000000000000007 " />
			<path d="M-1535.4387291256126,-19.000000000000007 L-1562.2354755321735,-19.000000000000007 " />
			<path d="M-384.2068315871052,-19.000000000000004 L-384.33998136186085,-18.996145459856557 L-384.4728103671465,-18.984591125351034 L-384.60499860625407,-18.965364831887303 L-384.7362276261372,-18.93851289729034 L-384.86618128459264,-18.904100010222546 L-384.99454651187466,-18.862209074343074 L-385.12101406490723,-18.81294100858567 L-385.24527927227786,-18.756414504036123 L-385.3670427682176,-18.692765737995025 L-385.48601121379954,-18.62214804591474 L-385.6018980036179,-18.544731552000876 L-385.71442395624547,-18.46070275936815 L-385.82331798680633,-18.37026410073807 L-385.9283177600428,-18.273633450760762 L-386.02917032230425,-18.171043601135874 L-386.1256327109346,-18.062741699796955 L-386.2174725395906,-17.948988655510462 L-386.3044685580806,-17.83005850932367 L-386.3864111853763,-17.70623777437579 L-386.4631030145111,-17.57782474566273 L-386.5343592881512,-17.445128781418315 L-386.6000083436922,-17.308469557843196 L-386.659892026809,-17.16817629897691 L-386.7138660724639,-17.024586983568295 L-386.76180045245326,-16.87804753085511 L-386.8035796886571,-16.728910967214286 L-386.83910313123613,-16.577536575690452 L-386.86828520110555,-16.424289030451614 L-386.891055596103,-16.26953751825716 L-386.90735946035255,-16.113654849054598 L-386.91715751641715,-15.957016557847743 L-386.92042615992153,-15.800000000000033 " />
			<path d="M-1562.2354755321735,-19.000000000000004 L-1562.368625306929,-18.996145459856557 L-1562.5014543122147,-18.984591125351034 L-1562.6336425513223,-18.965364831887303 L-1562.7648715712055,-18.93851289729034 L-1562.894825229661,-18.904100010222546 L-1563.023190456943,-18.862209074343074 L-1563.1496580099754,-18.81294100858567 L-1563.273923217346,-18.756414504036123 L-1563.3956867132858,-18.692765737995025 L-1563.5146551588678,-18.62214804591474 L-1563.6305419486862,-18.544731552000876 L-1563.7430679013137,-18.46070275936815 L-1563.8519619318745,-18.37026410073807 L-1563.956961705111,-18.273633450760762 L-1564.0578142673726,-18.171043601135874 L-1564.1542766560028,-18.062741699796955 L-1564.2461164846588,-17.948988655510462 L-1564.3331125031489,-17.83005850932367 L-1564.4150551304444,-17.70623777437579 L-1564.4917469595794,-17.57782474566273 L-1564.5630032332194,-17.445128781418315 L-1564.6286522887606,-17.308469557843196 L-1564.6885359718774,-17.16817629897691 L-1564.7425100175321,-17.024586983568295 L-1564.7904443975215,-16.87804753085511 L-1564.8322236337253,-16.728910967214286 L-1564.8677470763043,-16.577536575690452 L-1564.8969291461738,-16.424289030451614 L-1564.9196995411712,-16.26953751825716 L-1564.936003405421,-16.113654849054598 L-1564.9458014614854,-15.957016557847743 L-1564.9490701049897,-15.800000000000033 " />
			<path d="M-386.92042615992153,-15.800000000000004 L-386.92042615992153,66.79999999999998 " />
			<path d="M-1564.9490701049897,-15.800000000000004 L-1564.9490701049897,66.79999999999998 " />
			<path d="M-384.2068315871052,70.0 L-1562.2354755321733,70.0 " />
			<path d="M-386.92042615992153,66.79999999999998 L-386.91715751641715,66.95701655784772 L-386.90735946035255,67.11365484905457 L-386.891055596103,67.26953751825714 L-386.86828520110555,67.42428903045159 L-386.83910313123613,67.57753657569043 L-386.8035796886571,67.72891096721426 L-386.76180045245326,67.87804753085508 L-386.7138660724639,68.02458698356827 L-386.659892026809,68.16817629897689 L-386.6000083436922,68.30846955784318 L-386.5343592881512,68.44512878141829 L-386.4631030145111,68.57782474566271 L-386.3864111853763,68.70623777437577 L-386.3044685580806,68.83005850932365 L-386.2174725395906,68.94898865551043 L-386.1256327109346,69.06274169979693 L-386.02917032230425,69.17104360113585 L-385.9283177600428,69.27363345076074 L-385.82331798680633,69.37026410073804 L-385.7144239562455,69.46070275936813 L-385.6018980036179,69.54473155200085 L-385.48601121379954,69.62214804591471 L-385.3670427682176,69.692765737995 L-385.24527927227786,69.7564145040361 L-385.12101406490723,69.81294100858565 L-384.99454651187466,69.86220907434306 L-384.86618128459264,69.90410001022252 L-384.7362276261372,69.93851289729032 L-384.60499860625407,69.96536483188729 L-384.4728103671465,69.98459112535102 L-384.33998136186085,69.99614545985654 L-384.2068315871052,69.99999999999999 " />
			<path d="M-1564.9490701049897,66.79999999999998 L-1564.9458014614854,66.95701655784772 L-1564.936003405421,67.11365484905457 L-1564.9196995411712,67.26953751825714 L-1564.8969291461738,67.42428903045159 L-1564.8677470763043,67.57753657569043 L-1564.8322236337253,67.72891096721426 L-1564.7904443975215,67.87804753085508 L-1564.7425100175321,68.02458698356827 L-1564.6885359718774,68.16817629897689 L-1564.6286522887606,68.30846955784318 L-1564.5630032332194,68.44512878141829 L-1564.4917469595794,68.57782474566271 L-1564.4150551304444,68.70623777437577 L-1564.3331125031489,68.83005850932365 L-1564.2461164846588,68.94898865551043 L-1564.1542766560028,69.06274169979693 L-1564.0578142673726,69.17104360113585 L-1563.956961705111,69.27363345076074 L-1563.8519619318745,69.37026410073804 L-1563.7430679013137,69.46070275936813 L-1563.6305419486862,69.54473155200085 L-1563.5146551588678,69.62214804591471 L-1563.3956867132858,69.692765737995 L-1563.273923217346,69.7564145040361 L-1563.1496580099756,69.81294100858565 L-1563.023190456943,69.86220907434306 L-1562.894825229661,69.90410001022252 L-1562.7648715712055,69.93851289729032 L-1562.6336425513223,69.96536483188729 L-1562.5014543122147,69.98459112535102 L-1562.368625306929,69.99614545985654 L-1562.2354755321735,69.99999999999999 " />
			<path d="M-357.41008518054446,70.0 L-384.2068315871053,70.0 " />
			<path d="M-1535.4387291256126,70.0 L-1562.2354755321735,70.0 " />
			<path d="M-699.3230013553958,-15.8 L-699.3230013553958,66.8 " />
			<path d="M-1877.351645300464,-15.8 L-1877.351645300464,66.8 " />
			<path d="M-702.0365959282123,70.0 L-1880.0652398732805,70.0 " />
			<path d="M-702.0365959282123,70.0 L-701.9034461534567,69.99614545985655 L-701.770617148171,69.98459112535103 L-701.6384289090635,69.9653648318873 L-701.5071998891804,69.93851289729034 L-701.3772462307248,69.90410001022254 L-701.2488810034428,69.86220907434307 L-701.1224134504102,69.81294100858567 L-700.9981482430396,69.75641450403612 L-700.8763847470999,69.69276573799502 L-700.7574163015179,69.62214804591473 L-700.6415295116996,69.54473155200087 L-700.529003559072,69.46070275936815 L-700.4201095285111,69.37026410073805 L-700.3151097552746,69.27363345076076 L-700.2142571930132,69.17104360113586 L-700.1177948043828,69.06274169979694 L-700.0259549757269,68.94898865551046 L-699.9389589572369,68.83005850932366 L-699.8570163299412,68.70623777437578 L-699.7803245008064,68.57782474566272 L-699.7090682271663,68.4451287814183 L-699.6434191716253,68.3084695578432 L-699.5835354885085,68.1681762989769 L-699.5295614428536,68.02458698356828 L-699.4816270628643,67.8780475308551 L-699.4398478266603,67.72891096721428 L-699.4043243840814,67.57753657569044 L-699.375142314212,67.4242890304516 L-699.3523719192144,67.26953751825715 L-699.3360680549649,67.1136548490546 L-699.3262699989003,66.95701655784774 L-699.323001355396,66.80000000000001 " />
			<path d="M-1880.0652398732805,70.0 L-1879.932090098525,69.99614545985655 L-1879.7992610932392,69.98459112535103 L-1879.6670728541317,69.9653648318873 L-1879.5358438342485,69.93851289729034 L-1879.405890175793,69.90410001022254 L-1879.277524948511,69.86220907434307 L-1879.1510573954783,69.81294100858567 L-1879.026792188108,69.75641450403612 L-1878.9050286921681,69.69276573799502 L-1878.7860602465862,69.62214804591473 L-1878.6701734567678,69.54473155200087 L-1878.5576475041403,69.46070275936815 L-1878.4487534735795,69.37026410073805 L-1878.3437537003429,69.27363345076076 L-1878.2429011380814,69.17104360113586 L-1878.1464387494511,69.06274169979694 L-1878.0545989207951,68.94898865551046 L-1877.967602902305,68.83005850932366 L-1877.8856602750095,68.70623777437578 L-1877.8089684458746,68.57782474566272 L-1877.7377121722345,68.4451287814183 L-1877.6720631166934,68.3084695578432 L-1877.6121794335766,68.1681762989769 L-1877.5582053879218,68.02458698356828 L-1877.5102710079325,67.8780475308551 L-1877.4684917717286,67.72891096721428 L-1877.4329683291496,67.57753657569044 L-1877.4037862592802,67.4242890304516 L-1877.3810158642827,67.26953751825715 L-1877.364712000033,67.1136548490546 L-1877.3549139439685,66.95701655784774 L-1877.3516453004643,66.80000000000001 " />
			<path d="M-702.0365959282123,-19.000000000000004 L-1880.0652398732805,-19.000000000000004 " />
			<path d="M-699.323001355396,-15.8 L-699.3262699989003,-15.957016557847739 L-699.3360680549649,-16.113654849054594 L-699.3523719192144,-16.26953751825716 L-699.375142314212,-16.42428903045161 L-699.4043243840814,-16.577536575690445 L-699.4398478266603,-16.72891096721428 L-699.4816270628643,-16.878047530855106 L-699.5295614428536,-17.024586983568287 L-699.5835354885085,-17.168176298976903 L-699.6434191716253,-17.308469557843193 L-699.7090682271663,-17.445128781418312 L-699.7803245008064,-17.577824745662728 L-699.8570163299412,-17.706237774375786 L-699.9389589572369,-17.830058509323667 L-700.0259549757269,-17.94898865551046 L-700.1177948043828,-18.062741699796952 L-700.2142571930132,-18.17104360113587 L-700.3151097552746,-18.27363345076076 L-700.4201095285111,-18.370264100738066 L-700.529003559072,-18.460702759368147 L-700.6415295116996,-18.544731552000872 L-700.7574163015179,-18.622148045914738 L-700.8763847470999,-18.692765737995018 L-700.9981482430396,-18.75641450403612 L-701.1224134504102,-18.812941008585668 L-701.2488810034428,-18.86220907434307 L-701.3772462307248,-18.904100010222542 L-701.5071998891804,-18.938512897290337 L-701.6384289090635,-18.9653648318873 L-701.770617148171,-18.98459112535103 L-701.9034461534567,-18.996145459856553 L-702.0365959282123,-19.0 " />
			<path d="M-1877.3516453004643,-15.8 L-1877.3549139439685,-15.957016557847739 L-1877.364712000033,-16.113654849054594 L-1877.3810158642827,-16.26953751825716 L-1877.4037862592802,-16.42428903045161 L-1877.4329683291496,-16.577536575690445 L-1877.4684917717286,-16.72891096721428 L-1877.5102710079325,-16.878047530855106 L-1877.5582053879218,-17.024586983568287 L-1877.6121794335766,-17.168176298976903 L-1877.6720631166934,-17.308469557843193 L-1877.7377121722345,-17.445128781418312 L-1877.8089684458746,-17.577824745662728 L-1877.8856602750095,-17.706237774375786 L-1877.967602902305,-17.830058509323667 L-1878.0545989207951,-17.94898865551046 L-1878.1464387494511,-18.062741699796952 L-1878.2429011380814,-18.17104360113587 L-1878.3437537003429,-18.27363345076076 L-1878.4487534735795,-18.370264100738066 L-1878.5576475041403,-18.460702759368147 L-1878.6701734567678,-18.544731552000872 L-1878.7860602465862,-18.622148045914738 L-1878.9050286921681,-18.692765737995018 L-1879.026792188108,-18.75641450403612 L-1879.1510573954786,-18.812941008585668 L-1879.277524948511,-18.86220907434307 L-1879.405890175793,-18.904100010222542 L-1879.5358438342485,-18.938512897290337 L-1879.6670728541317,-18.9653648318873 L-1879.7992610932392,-18.98459112535103 L-1879.932090098525,-18.996145459856553 L-1880.0652398732805,-19.0 " />
			<path d="M-728.8333423347729,-19.000000000000004 L-1906.861986279841,-19.000000000000004 " />
			<path d="M-702.0365959282123,-19.000000000000004 L-728.833342334773,-19.000000000000004 " />
			<path d="M-1880.0652398732802,-19.000000000000004 L-1906.8619862798412,-19.000000000000004 " />
			<path d="M-728.8333423347729,-19.0 L-728.9664921095284,-18.996145459856553 L-729.0993211148141,-18.98459112535103 L-729.2315093539216,-18.9653648318873 L-729.3627383738047,-18.938512897290337 L-729.4926920322603,-18.904100010222542 L-729.6210572595423,-18.86220907434307 L-729.7475248125749,-18.812941008585668 L-729.8717900199455,-18.75641450403612 L-729.9935535158852,-18.692765737995018 L-730.1125219614672,-18.622148045914738 L-730.2284087512855,-18.544731552000872 L-730.3409347039131,-18.460702759368147 L-730.449828734474,-18.370264100738066 L-730.5548285077105,-18.27363345076076 L-730.6556810699719,-18.17104360113587 L-730.7521434586023,-18.062741699796952 L-730.8439832872582,-17.94898865551046 L-730.9309793057482,-17.830058509323663 L-731.0129219330439,-17.706237774375786 L-731.0896137621787,-17.577824745662728 L-731.1608700358188,-17.445128781418312 L-731.2265190913598,-17.308469557843193 L-731.2864027744766,-17.168176298976906 L-731.3403768201315,-17.02458698356829 L-731.3883112001208,-16.878047530855106 L-731.4300904363248,-16.728910967214283 L-731.4656138789037,-16.57753657569045 L-731.4947959487731,-16.42428903045161 L-731.5175663437707,-16.269537518257156 L-731.5338702080202,-16.113654849054594 L-731.5436682640848,-15.957016557847739 L-731.5469369075892,-15.80000000000003 " />
			<path d="M-1906.861986279841,-19.0 L-1906.9951360545965,-18.996145459856553 L-1907.1279650598822,-18.98459112535103 L-1907.2601532989897,-18.9653648318873 L-1907.391382318873,-18.938512897290337 L-1907.5213359773284,-18.904100010222542 L-1907.6497012046104,-18.86220907434307 L-1907.7761687576428,-18.812941008585668 L-1907.9004339650135,-18.75641450403612 L-1908.0221974609533,-18.692765737995018 L-1908.1411659065352,-18.622148045914738 L-1908.2570526963536,-18.544731552000872 L-1908.3695786489811,-18.460702759368147 L-1908.478472679542,-18.370264100738066 L-1908.5834724527786,-18.27363345076076 L-1908.68432501504,-18.17104360113587 L-1908.7807874036703,-18.062741699796952 L-1908.8726272323263,-17.94898865551046 L-1908.9596232508163,-17.830058509323663 L-1909.041565878112,-17.706237774375786 L-1909.1182577072468,-17.577824745662728 L-1909.1895139808869,-17.445128781418312 L-1909.255163036428,-17.308469557843193 L-1909.3150467195449,-17.168176298976906 L-1909.3690207651996,-17.02458698356829 L-1909.416955145189,-16.878047530855106 L-1909.4587343813928,-16.728910967214283 L-1909.4942578239718,-16.57753657569045 L-1909.5234398938412,-16.42428903045161 L-1909.5462102888387,-16.269537518257156 L-1909.5625141530884,-16.113654849054594 L-1909.5723122091529,-15.957016557847739 L-1909.5755808526571,-15.80000000000003 " />
			<path d="M-731.5469369075893,-15.8 L-731.5469369075893,66.8 " />
			<path d="M-1909.5755808526574,-15.8 L-1909.5755808526574,66.8 " />
			<path d="M-728.8333423347729,70.0 L-1906.861986279841,70.0 " />
			<path d="M-731.5469369075892,66.8 L-731.5436682640848,66.95701655784774 L-731.5338702080202,67.11365484905458 L-731.5175663437707,67.26953751825715 L-731.4947959487731,67.4242890304516 L-731.4656138789037,67.57753657569044 L-731.4300904363248,67.72891096721428 L-731.3883112001208,67.8780475308551 L-731.3403768201315,68.02458698356828 L-731.2864027744766,68.1681762989769 L-731.2265190913598,68.3084695578432 L-731.1608700358188,68.4451287814183 L-731.0896137621787,68.57782474566272 L-731.0129219330439,68.70623777437578 L-730.9309793057482,68.83005850932366 L-730.8439832872582,68.94898865551045 L-730.7521434586023,69.06274169979694 L-730.6556810699719,69.17104360113586 L-730.5548285077105,69.27363345076076 L-730.449828734474,69.37026410073805 L-730.3409347039131,69.46070275936815 L-730.2284087512855,69.54473155200087 L-730.1125219614672,69.62214804591473 L-729.9935535158852,69.69276573799502 L-729.8717900199455,69.75641450403612 L-729.7475248125749,69.81294100858567 L-729.6210572595423,69.86220907434307 L-729.4926920322603,69.90410001022254 L-729.3627383738047,69.93851289729034 L-729.2315093539216,69.9653648318873 L-729.0993211148141,69.98459112535103 L-728.9664921095284,69.99614545985655 L-728.8333423347729,70.0 " />
			<path d="M-1909.5755808526571,66.8 L-1909.5723122091529,66.95701655784774 L-1909.5625141530884,67.11365484905458 L-1909.5462102888387,67.26953751825715 L-1909.5234398938412,67.4242890304516 L-1909.4942578239718,67.57753657569044 L-1909.4587343813928,67.72891096721428 L-1909.416955145189,67.8780475308551 L-1909.3690207651996,68.02458698356828 L-1909.3150467195449,68.1681762989769 L-1909.255163036428,68.3084695578432 L-1909.1895139808869,68.4451287814183 L-1909.1182577072468,68.57782474566272 L-1909.041565878112,68.70623777437578 L-1908.9596232508163,68.83005850932366 L-1908.8726272323263,68.94898865551045 L-1908.7807874036703,69.06274169979694 L-1908.68432501504,69.17104360113586 L-1908.5834724527786,69.27363345076076 L-1908.478472679542,69.37026410073805 L-1908.3695786489811,69.46070275936815 L-1908.2570526963536,69.54473155200087 L-1908.1411659065352,69.62214804591473 L-1908.0221974609533,69.69276573799502 L-1907.9004339650135,69.75641450403612 L-1907.776168757643,69.81294100858567 L-1907.6497012046104,69.86220907434307 L-1907.5213359773284,69.90410001022254 L-1907.391382318873,69.93851289729034 L-1907.2601532989897,69.9653648318873 L-1907.1279650598822,69.98459112535103 L-1906.9951360545965,69.99614545985655 L-1906.861986279841,70.0 " />
			<path d="M-702.0365959282123,70.0 L-728.833342334773,70.0 " />
			<path d="M-1880.0652398732802,70.0 L-1906.8619862798412,70.0 " />
			<path d="M-1043.9495121030636,-15.799999999999994 L-1043.9495121030636,66.8 " />
			<path d="M-2221.9781560481315,-15.799999999999994 L-2221.9781560481315,66.8 " />
			<path d="M-1046.6631066758798,70.0 L-2224.691750620948,70.0 " />
			<path d="M-1046.6631066758798,70.0 L-1046.5299569011243,69.99614545985655 L-1046.3971278958386,69.98459112535103 L-1046.264939656731,69.9653648318873 L-1046.1337106368478,69.93851289729034 L-1046.0037569783924,69.90410001022254 L-1045.8753917511103,69.86220907434307 L-1045.7489241980777,69.81294100858567 L-1045.6246589907073,69.75641450403612 L-1045.5028954947675,69.69276573799502 L-1045.3839270491856,69.62214804591473 L-1045.2680402593671,69.54473155200087 L-1045.1555143067396,69.46070275936815 L-1045.0466202761788,69.37026410073805 L-1044.9416205029422,69.27363345076076 L-1044.8407679406807,69.17104360113586 L-1044.7443055520505,69.06274169979694 L-1044.6524657233945,68.94898865551046 L-1044.5654697049044,68.83005850932366 L-1044.4835270776089,68.70623777437578 L-1044.406835248474,68.57782474566272 L-1044.3355789748339,68.4451287814183 L-1044.2699299192927,68.3084695578432 L-1044.210046236176,68.1681762989769 L-1044.1560721905212,68.02458698356828 L-1044.1081378105318,67.8780475308551 L-1044.066358574328,67.72891096721428 L-1044.030835131749,67.57753657569044 L-1044.0016530618796,67.4242890304516 L-1043.978882666882,67.26953751825715 L-1043.9625788026324,67.1136548490546 L-1043.952780746568,66.95701655784774 L-1043.9495121030636,66.80000000000001 " />
			<path d="M-2224.691750620948,70.0 L-2224.5586008461923,69.99614545985655 L-2224.4257718409067,69.98459112535103 L-2224.293583601799,69.9653648318873 L-2224.162354581916,69.93851289729034 L-2224.0324009234605,69.90410001022254 L-2223.9040356961787,69.86220907434307 L-2223.777568143146,69.81294100858567 L-2223.653302935775,69.75641450403612 L-2223.5315394398353,69.69276573799502 L-2223.4125709942537,69.62214804591473 L-2223.296684204435,69.54473155200087 L-2223.1841582518077,69.46070275936815 L-2223.075264221247,69.37026410073805 L-2222.9702644480103,69.27363345076076 L-2222.869411885749,69.17104360113586 L-2222.7729494971186,69.06274169979694 L-2222.681109668463,68.94898865551046 L-2222.5941136499723,68.83005850932366 L-2222.5121710226767,68.70623777437578 L-2222.435479193542,68.57782474566272 L-2222.3642229199017,68.4451287814183 L-2222.298573864361,68.3084695578432 L-2222.2386901812442,68.1681762989769 L-2222.184716135589,68.02458698356828 L-2222.1367817555997,67.8780475308551 L-2222.095002519396,67.72891096721428 L-2222.059479076817,67.57753657569044 L-2222.0302970069474,67.4242890304516 L-2222.00752661195,67.26953751825715 L-2221.9912227477007,67.1136548490546 L-2221.981424691636,66.95701655784774 L-2221.9781560481315,66.80000000000001 " />
			<path d="M-1046.6631066758798,-18.999999999999996 L-2224.691750620948,-18.999999999999996 " />
			<path d="M-1043.9495121030636,-15.799999999999994 L-1043.952780746568,-15.957016557847732 L-1043.9625788026324,-16.113654849054587 L-1043.978882666882,-16.269537518257152 L-1044.0016530618796,-16.424289030451604 L-1044.030835131749,-16.577536575690438 L-1044.066358574328,-16.728910967214272 L-1044.1081378105318,-16.8780475308551 L-1044.1560721905212,-17.02458698356828 L-1044.210046236176,-17.168176298976896 L-1044.2699299192927,-17.308469557843186 L-1044.3355789748339,-17.445128781418305 L-1044.406835248474,-17.57782474566272 L-1044.4835270776089,-17.70623777437578 L-1044.5654697049044,-17.83005850932366 L-1044.6524657233945,-17.94898865551045 L-1044.7443055520505,-18.062741699796945 L-1044.8407679406807,-18.171043601135864 L-1044.9416205029422,-18.27363345076075 L-1045.0466202761788,-18.37026410073806 L-1045.1555143067396,-18.46070275936814 L-1045.2680402593671,-18.544731552000865 L-1045.3839270491856,-18.62214804591473 L-1045.5028954947675,-18.69276573799501 L-1045.6246589907073,-18.756414504036112 L-1045.748924198078,-18.81294100858566 L-1045.8753917511103,-18.862209074343063 L-1046.0037569783924,-18.904100010222535 L-1046.1337106368478,-18.93851289729033 L-1046.264939656731,-18.965364831887292 L-1046.3971278958386,-18.984591125351024 L-1046.5299569011243,-18.996145459856546 L-1046.6631066758798,-18.999999999999993 " />
			<path d="M-2221.9781560481315,-15.799999999999994 L-2221.981424691636,-15.957016557847732 L-2221.9912227477007,-16.113654849054587 L-2222.00752661195,-16.269537518257152 L-2222.0302970069474,-16.424289030451604 L-2222.059479076817,-16.577536575690438 L-2222.095002519396,-16.728910967214272 L-2222.1367817555997,-16.8780475308551 L-2222.184716135589,-17.02458698356828 L-2222.2386901812442,-17.168176298976896 L-2222.298573864361,-17.308469557843186 L-2222.3642229199017,-17.445128781418305 L-2222.435479193542,-17.57782474566272 L-2222.5121710226767,-17.70623777437578 L-2222.5941136499723,-17.83005850932366 L-2222.681109668463,-17.94898865551045 L-2222.7729494971186,-18.062741699796945 L-2222.869411885749,-18.171043601135864 L-2222.9702644480103,-18.27363345076075 L-2223.075264221247,-18.37026410073806 L-2223.1841582518077,-18.46070275936814 L-2223.296684204435,-18.544731552000865 L-2223.4125709942537,-18.62214804591473 L-2223.5315394398353,-18.69276573799501 L-2223.653302935775,-18.756414504036112 L-2223.777568143146,-18.81294100858566 L-2223.9040356961787,-18.862209074343063 L-2224.0324009234605,-18.904100010222535 L-2224.162354581916,-18.93851289729033 L-2224.293583601799,-18.965364831887292 L-2224.4257718409067,-18.984591125351024 L-2224.5586008461923,-18.996145459856546 L-2224.691750620948,-18.999999999999993 " />
			<path d="M-1073.4598530824405,-18.999999999999996 L-1431.6543366941903,-18.999999999999996 " />
			<path d="M-1046.6631066758798,-18.999999999999996 L-1073.4598530824408,-18.999999999999996 " />
			<path d="M-2224.6917506209484,-18.999999999999996 L-2251.488497027509,-18.999999999999996 " />
			<path d="M-1073.4598530824405,-18.999999999999993 L-1073.593002857196,-18.996145459856546 L-1073.7258318624818,-18.984591125351024 L-1073.8580201015893,-18.965364831887292 L-1073.9892491214725,-18.93851289729033 L-1074.119202779928,-18.904100010222535 L-1074.24756800721,-18.862209074343063 L-1074.3740355602424,-18.81294100858566 L-1074.498300767613,-18.756414504036112 L-1074.6200642635529,-18.69276573799501 L-1074.7390327091348,-18.62214804591473 L-1074.8549194989532,-18.544731552000865 L-1074.9674454515807,-18.46070275936814 L-1075.0763394821415,-18.37026410073806 L-1075.1813392553781,-18.27363345076075 L-1075.2821918176396,-18.171043601135864 L-1075.3786542062699,-18.062741699796945 L-1075.4704940349259,-17.94898865551045 L-1075.557490053416,-17.830058509323656 L-1075.6394326807115,-17.70623777437578 L-1075.7161245098464,-17.57782474566272 L-1075.7873807834865,-17.445128781418305 L-1075.8530298390276,-17.308469557843186 L-1075.9129135221444,-17.1681762989769 L-1075.9668875677992,-17.024586983568284 L-1076.0148219477885,-16.8780475308551 L-1076.0566011839924,-16.728910967214276 L-1076.0921246265714,-16.57753657569044 L-1076.1213066964408,-16.424289030451604 L-1076.1440770914382,-16.26953751825715 L-1076.160380955688,-16.113654849054587 L-1076.1701790117525,-15.957016557847732 L-1076.1734476552567,-15.800000000000022 " />
			<path d="M-2251.488891674286,-18.999999966158683 L-2251.6220286544944,-18.996123306319976 L-2251.7548440048704,-18.984548330907963 L-2251.887017820835,-18.96530291989 L-2252.0182317430363,-18.93843342856379 L-2252.148169724161,-18.904004575904075 L-2252.2765187901828,-18.86209928867782 L-2252.4029697942005,-18.812818501703333 L-2252.527218161065,-18.75628091473451 L-2252.64896462099,-18.69262270655561 L-2252.7679159303866,-18.621997206975426 L-2252.883785578183,-18.544574527510672 L-2252.9962944759236,-18.46054115164836 L-2253.1051716299967,-18.37009948567388 L-2253.210154794359,-18.2734673711468 L-2253.310991102193,-18.170877560198647 L-2253.407437674972,-18.06257715491642 L-2253.499262207468,-17.94882701216221 L-2253.586243527292,-17.82990111526254 L-2253.6681721276177,-17.706085914080713 L-2253.74485067181,-17.577679635061735 L-2253.8160944687374,-17.444991562911717 L-2253.8817319176255,-17.308341295641856 L-2253.9416049213846,-17.168057974771354 L-2253.9955692674066,-17.024479492543485 L-2254.0434949749224,-16.87795167806426 L-2254.085266608079,-16.728827464324052 L-2254.1207835539826,-16.577466038108536 L-2254.14996026504,-16.42423197484643 L-2254.1727264650112,-16.26949436047795 L-2254.189027318279,-16.113625902459074 L-2254.19882356193,-15.957002032042833 L-2254.2020916003253,-15.800000000000022 " />
			<path d="M-1076.173447655257,-15.799999999999994 L-1076.173447655257,66.8 " />
			<path d="M-2254.202091600325,-15.799999999999994 L-2254.202091600325,66.8 " />
			<path d="M-1402.1435248344528,70.0 L-2251.488497027509,70.0 " />
			<path d="M-1076.1734476552567,66.8 L-1076.1701790117525,66.95701655784774 L-1076.160380955688,67.11365484905458 L-1076.1440770914382,67.26953751825715 L-1076.1213066964408,67.4242890304516 L-1076.0921246265714,67.57753657569044 L-1076.0566011839924,67.72891096721428 L-1076.0148219477885,67.8780475308551 L-1075.9668875677992,68.02458698356828 L-1075.9129135221444,68.1681762989769 L-1075.8530298390276,68.3084695578432 L-1075.7873807834865,68.4451287814183 L-1075.7161245098464,68.57782474566272 L-1075.6394326807115,68.70623777437578 L-1075.557490053416,68.83005850932366 L-1075.4704940349259,68.94898865551045 L-1075.3786542062699,69.06274169979694 L-1075.2821918176396,69.17104360113586 L-1075.1813392553781,69.27363345076076 L-1075.0763394821415,69.37026410073805 L-1074.9674454515807,69.46070275936815 L-1074.8549194989532,69.54473155200087 L-1074.7390327091348,69.62214804591473 L-1074.6200642635529,69.69276573799502 L-1074.498300767613,69.75641450403612 L-1074.3740355602426,69.81294100858567 L-1074.24756800721,69.86220907434307 L-1074.119202779928,69.90410001022254 L-1073.9892491214725,69.93851289729034 L-1073.8580201015893,69.9653648318873 L-1073.7258318624818,69.98459112535103 L-1073.593002857196,69.99614545985655 L-1073.4598530824405,70.0 " />
			<path d="M-2254.2020916003253,66.8 L-2254.1988229568205,66.95701655784774 L-2254.189024900756,67.11365484905458 L-2254.1727210365066,67.26953751825715 L-2254.1499506415093,67.4242890304516 L-2254.12076857164,67.57753657569044 L-2254.0852451290607,67.72891096721428 L-2254.043465892857,67.8780475308551 L-2253.9955315128677,68.02458698356828 L-2253.9415574672125,68.1681762989769 L-2253.8816737840957,68.3084695578432 L-2253.816024728555,68.4451287814183 L-2253.7447684549147,68.57782474566272 L-2253.66807662578,68.70623777437578 L-2253.5861339984845,68.83005850932366 L-2253.499137979994,68.94898865551045 L-2253.407298151338,69.06274169979694 L-2253.310835762708,69.17104360113586 L-2253.2099832004465,69.27363345076076 L-2253.10498342721,69.37026410073805 L-2252.996089396649,69.46070275936815 L-2252.8835634440215,69.54473155200087 L-2252.767676654203,69.62214804591473 L-2252.6487082086214,69.69276573799502 L-2252.5269447126816,69.75641450403612 L-2252.402679505311,69.81294100858567 L-2252.276211952278,69.86220907434307 L-2252.1478467249963,69.90410001022254 L-2252.0178930665406,69.93851289729034 L-2251.8866640466576,69.9653648318873 L-2251.75447580755,69.98459112535103 L-2251.6216468022644,69.99614545985655 L-2251.488497027509,70.0 " />
			<path d="M-1046.6631066758798,70.0 L-1073.4598530824408,70.0 " />
			<path d="M-2224.6917506209484,70.0 L-2251.488497027509,70.0 " />
			<path d="M-1399.4303171137383,-15.799999967569072 L-1399.4303171108993,66.80000003243092 " />
			<path d="M-2577.4586742244055,-15.799999967569093 L-2577.458674221567,66.8000000324309 " />
			<path d="M-1402.1439119417012,70.00000003256062 L-2580.1722690523684,70.00000003256059 " />
			<path d="M-1402.1435248343673,69.99999999999997 L-1402.0103875970394,69.99612376269815 L-1401.8775719731416,69.98454918157168 L-1401.7453978690426,69.96530413573686 L-1401.614183645915,69.93843497977575 L-1401.4842453529143,69.90400643208423 L-1401.3558959659258,69.86210141898805 L-1401.2294446337166,69.81282087500226 L-1401.1051959333042,69.75628349971532 L-1400.9834491363363,69.69262547188336 L-1400.864497488251,69.62200012142308 L-1400.7486275019498,69.5445775600938 L-1400.6361182676906,69.46054427175757 L-1400.5272407808538,69.37010266320492 L-1400.4222572892127,69.27347057662767 L-1400.3214206612668,69.17088076491332 L-1400.224973777173,69.06258033102473 L-1400.1331489437312,68.94883013281564 L-1400.0461673348373,68.82990415471527 L-1399.964238458755,68.70608884779573 L-1399.887559653482,68.57768243981158 L-1399.816315611432,68.4449942168736 L-1399.7506779345758,68.30834377848664 L-1399.6908047211123,68.16806026774633 L-1399.6368401846646,68.02448157854843 L-1399.58891430692,67.87795354172077 L-1399.5471425245503,67.72882909203767 L-1399.5116254511638,67.57746741812362 L-1399.4824486349644,67.42423309729354 L-1399.4596823526936,67.26949521741356 L-1399.4433814403606,67.11362648789752 L-1399.4335851611593,66.9570023419804 L-1399.4303171108993,66.80000003243093 " />
			<path d="M-2580.1722690523684,70.0000000325606 L-2580.039119264949,69.99614549241079 L-2579.90629024703,69.98459115789892 L-2579.7741019953505,69.96536486442888 L-2579.6428729629865,69.93851292982563 L-2579.5129192921722,69.90410004275164 L-2579.3845540526827,69.86220910686603 L-2579.258086487623,69.81294104110258 L-2579.1338212684354,69.75641453654708 L-2579.012057760917,69.69276577050017 L-2578.893089304022,69.6221480784142 L-2578.777202503184,69.5447315844948 L-2578.6646765398564,69.46070279185669 L-2578.555782498942,69.37026413322141 L-2578.4507827157217,69.27363348323908 L-2578.3499301438715,69.17104363360937 L-2578.2534677460703,69.06274173226585 L-2578.161627908683,68.94898868797497 L-2578.074631881923,68.83005854178401 L-2577.9926892468375,68.70623780683222 L-2577.915997410413,68.5778247781155 L-2577.84474113,68.44512881386767 L-2577.7790920682196,68.30846959028942 L-2577.719208379412,68.16817633142027 L-2577.6652343286287,68.02458701600908 L-2577.617299944085,67.87804756329359 L-2577.575520703913,67.72891099965078 L-2577.5399972579603,67.57753660812524 L-2577.5108151853206,67.42428906288501 L-2577.4880447881624,67.26953755068948 L-2577.4717409223676,67.11365488148613 L-2577.4619428653764,66.95701659027881 L-2577.4586742215665,66.80000003243092 " />
			<path d="M-1402.14391194476,-18.99999996743938 L-1431.6543366941903,-18.99999996743938 " />
			<path d="M-1399.430317113738,-15.799999967569066 L-1399.4335857575586,-15.957016525416648 L-1399.4433838145605,-16.113654816623036 L-1399.4596876803662,-16.26953748582482 L-1399.4824580775346,-16.424288998018184 L-1399.511640150185,-16.577536543255626 L-1399.5471635961478,-16.728910934777762 L-1399.5889428363305,-16.87804749841659 L-1399.6368772208841,-17.024586951127482 L-1399.6908512716775,-17.168176266533518 L-1399.7507349604948,-17.308469525396948 L-1399.8163840222844,-17.445128748968926 L-1399.8876403027066,-17.577824713209935 L-1399.96433213914,-17.70623774191933 L-1400.0462747742338,-17.830058476863293 L-1400.1332708010023,-17.94898862304593 L-1400.2251106383972,-18.062741667328034 L-1400.3215730362058,-18.17104356866234 L-1400.4224256080631,-18.273633418282408 L-1400.5274253912896,-18.3702640682547 L-1400.6363194322107,-18.460702726879575 L-1400.7488453955439,-18.54473151950692 L-1400.864732196387,-18.62214801341525 L-1400.9837006532869,-18.692765705489844 L-1401.1054641608098,-18.756414471525126 L-1401.2297293800016,-18.812940976068734 L-1401.3561969450643,-18.862209041820094 L-1401.484562184557,-18.90409997769343 L-1401.6145158553738,-18.938512864755015 L-1401.7457448877392,-18.965364799345707 L-1401.87793313942,-18.984591092803118 L-1402.0107621573397,-18.99614542730229 L-1402.1439119447598,-18.999999967439376 " />
			<path d="M-2577.458674224405,-15.799999967569088 L-2577.461942750506,-15.957013699626712 L-2577.4717404549156,-16.11364918547371 L-2577.488043734955,-16.269529090095205 L-2577.5108133160106,-16.424277898672116 L-2577.539994346142,-16.577522821196666 L-2577.575516528224,-16.728894690523823 L-2577.6172942892895,-16.878028851695255 L-2577.6652269866786,-17.02456604039343 L-2577.7191991504833,-17.168153248409645 L-2577.7790807617166,-17.308444574041104 L-2577.844727565527,-17.445102055368395 L-2577.9159814187105,-17.57779648440604 L-2577.9926706706756,-17.70620820016481 L-2578.074610576951,-17.83002785871529 L-2578.161603744234,-17.94895717839769 L-2578.2534406059144,-18.06270965838259 L-2578.349899926915,-18.17101126885168 L-2578.4507493366523,-18.27360111113581 L-2578.5557458888147,-18.37023204622013 L-2578.6646366466216,-18.46067129010214 L-2578.777159292147,-18.544700974568578 L-2578.8930427582454,-18.622118672040102 L-2579.0120078815507,-18.692737883219507 L-2579.1337680749825,-18.7563884863687 L-2579.258030018135,-18.812917147132072 L-2579.384494363883,-18.86218768791912 L-2579.512856459514,-18.904081415956366 L-2579.6428070806337,-18.938497409218336 L-2579.7740331760874,-18.96535275954881 L-2579.906218622104,-18.984582772386652 L-2580.0390449838337,-18.996141122615033 L-2580.172192282462,-18.999999966158704 " />
			<path d="M-1402.14391194476,-18.999999967439383 L-1428.940660900013,-18.99999996615868 " />
			<path d="M-2580.1722690554275,-18.999999967439404 L-2606.9690180106804,-18.9999999661587 " />
			<path d="M-1428.940660900013,-18.999999966158683 L-1431.6543366941903,-18.999999966158683 " />
			<path d="M-1428.940660900013,-18.99999996615868 L-1429.0738106874326,-18.99614542600887 L-1429.2066397053513,-18.984591091497 L-1429.338827957031,-18.96536479802695 L-1429.4700569893946,-18.938512863423718 L-1429.6000106602091,-18.90409997634971 L-1429.7283758996987,-18.8622090404641 L-1429.8548434647582,-18.812940974700656 L-1429.979108683946,-18.756414470145167 L-1430.1008721914648,-18.69276570409825 L-1430.2198406483597,-18.622148012012282 L-1430.3357274491975,-18.544731518092878 L-1430.4482534125248,-18.460702725454773 L-1430.5571474534397,-18.370264066819487 L-1430.6621472366596,-18.273633416837164 L-1430.7629998085097,-18.171043567207455 L-1430.859462206311,-18.06274166586393 L-1430.9513020436982,-17.948988621573044 L-1431.0382980704585,-17.830058475382096 L-1431.1202407055437,-17.7062377404303 L-1431.1969325419684,-17.57782471171357 L-1431.2681888223813,-17.44512874746575 L-1431.3338378841615,-17.308469523887492 L-1431.3937215729693,-17.168176265018342 L-1431.4476956237527,-17.024586949607148 L-1431.4956300082963,-16.878047496891675 L-1431.5374092484687,-16.72891093324885 L-1431.572932694421,-16.57753654172332 L-1431.6021147670608,-16.424288996483092 L-1431.6248851642188,-16.269537484287554 L-1431.6411890300137,-16.11365481508421 L-1431.6509870870048,-15.957016523876886 L-1431.6542557308146,-15.799999966029018 " />
			<path d="M-1431.6542557279759,66.800000033971 L-1431.6509876892649,66.95700206600891 L-1431.6411914446771,67.11362593641995 L-1431.6248905898544,67.26949439443338 L-1431.6021243877144,67.4242320087962 L-1431.5729476738784,67.57746607205249 L-1431.5374307245934,67.72882749826205 L-1431.495659087461,67.87795171199619 L-1431.4477333753848,68.0244795264693 L-1431.3937690242283,68.16805800869103 L-1431.3338960147732,68.30834132955542 L-1431.2682585596415,68.4449915968192 L-1431.1970147559377,68.57767966896321 L-1431.1203362044523,68.7060859479763 L-1431.0384075963345,68.8299011491524 L-1430.9514262682383,68.94882704604652 L-1430.8596017270095,69.06257718879539 L-1430.7631551450588,69.17087759407252 L-1430.662318827636,69.27346740501584 L-1430.5573356532907,69.37009951953837 L-1430.4484584888644,69.46054118550865 L-1430.3359495804254,69.54457456136709 L-1430.2200799216118,69.62199724082834 L-1430.1011286009043,69.6926227404054 L-1429.9793821294031,69.75628094858158 L-1429.855133750725,69.8128185355481 L-1429.7286827346838,69.86209932252072 L-1429.6003336564586,69.90400460974556 L-1429.470395662979,69.9384334624043 L-1429.339181728302,69.96530295373002 L-1429.2070078997701,69.98454836474794 L-1429.074192536766,69.9961233401604 L-1428.9410555438988,70.0 " />
			<path d="M-2580.172269052369,70.00000003256059 L-2606.969018007622,70.0000000338413 " />
			<path d="M-2608.6179897747356,-18.341405350003182 L-1980.495051495523,-18.999999999999996 " />
			<path d="M-1431.6543366941903,-19.575466260568096 L-1206.0224057330115,-19.812044123822993 " />
			<path d="M-1837.6255851606113,70.0000000338413 L-1189.4167209163804,69.32034504266824 " />

       </g>

       <!-- solid lines -->
       <g  stroke="rgb(0,0,0)" fill="none">
			<path d="M-1431.6543366941903,-66.8 L-1431.6543366941903,66.8 " />
			<path d="M-1429.95834008618,70.0 L-1430.0415586954023,69.99614545985655 L-1430.1245768237059,69.98459112535103 L-1430.207194473148,69.9653648318873 L-1430.2892126105749,69.93851289729034 L-1430.3704336471096,69.90410001022254 L-1430.450661914161,69.86220907434307 L-1430.5297041348063,69.81294100858567 L-1430.607369889413,69.75641450403612 L-1430.6834720743752,69.69276573799502 L-1430.7578273528638,69.62214804591473 L-1430.8302565965005,69.54473155200087 L-1430.9005853168926,69.46070275936815 L-1430.9686440859932,69.37026410073805 L-1431.034268944266,69.27363345076076 L-1431.0973017956794,69.17104360113586 L-1431.1575907885733,69.06274169979694 L-1431.2149906814834,68.94898865551046 L-1431.2693631930397,68.83005850932366 L-1431.3205773350994,68.70623777437578 L-1431.3685097283087,68.57782474566272 L-1431.4130448993337,68.4451287814183 L-1431.454075559047,68.3084695578432 L-1431.4915028609948,68.1681762989769 L-1431.525236639529,68.02458698356828 L-1431.5551956270226,67.8780475308551 L-1431.58130764965,67.72891096721428 L-1431.603509801262,67.57753657569044 L-1431.62174859493,67.4242890304516 L-1431.6359800918035,67.26953751825715 L-1431.6461700069597,67.1136548490546 L-1431.652293792,66.95701655784774 L-1431.65433669419,66.80000000000001 " />
			<path d="M-8.373983252050243,-70.0 L-1429.95834008618,-70.0 " />
			<path d="M-1431.65433669419,-66.8 L-1431.652293792,-66.95701655784774 L-1431.6461700069597,-67.1136548490546 L-1431.6359800918035,-67.26953751825715 L-1431.62174859493,-67.4242890304516 L-1431.603509801262,-67.57753657569044 L-1431.58130764965,-67.72891096721428 L-1431.5551956270226,-67.8780475308551 L-1431.525236639529,-68.02458698356828 L-1431.4915028609948,-68.1681762989769 L-1431.454075559047,-68.3084695578432 L-1431.4130448993337,-68.4451287814183 L-1431.3685097283087,-68.57782474566272 L-1431.3205773350994,-68.70623777437578 L-1431.2693631930397,-68.83005850932366 L-1431.2149906814834,-68.94898865551046 L-1431.1575907885733,-69.06274169979694 L-1431.0973017956794,-69.17104360113586 L-1431.034268944266,-69.27363345076076 L-1430.9686440859932,-69.37026410073805 L-1430.9005853168926,-69.46070275936815 L-1430.8302565965005,-69.54473155200087 L-1430.7578273528638,-69.62214804591473 L-1430.6834720743752,-69.69276573799502 L-1430.607369889413,-69.75641450403612 L-1430.5297041348063,-69.81294100858567 L-1430.450661914161,-69.86220907434307 L-1430.3704336471096,-69.90410001022254 L-1430.2892126105749,-69.93851289729034 L-1430.207194473148,-69.9653648318873 L-1430.1245768237059,-69.98459112535103 L-1430.0415586954023,-69.99614545985655 L-1429.95834008618,-70.0 " />
			<path d="M8.373983252050243,-70.0 L-1413.2103735820795,-70.0 " />
			<path d="M-1429.95834008618,-70.0 L-1413.2103735820795,-70.0 " />
			<path d="M8.373983252050243,-70.0 L8.457201861272491,-69.99614545985655 L8.540219989576036,-69.98459112535103 L8.622837639018261,-69.9653648318873 L8.704855776445209,-69.93851289729034 L8.78607681297988,-69.90410001022254 L8.86630508003114,-69.86220907434307 L8.945347300676493,-69.81294100858567 L9.023013055283126,-69.75641450403612 L9.099115240245474,-69.69276573799502 L9.1734705187342,-69.62214804591473 L9.24589976237067,-69.54473155200087 L9.316228482762911,-69.46070275936815 L9.38428725186343,-69.37026410073807 L9.449912110136221,-69.27363345076076 L9.512944961549644,-69.17104360113586 L9.573233954443621,-69.06274169979694 L9.630633847353575,-68.94898865551046 L9.685006358909853,-68.83005850932366 L9.736220500969644,-68.70623777437578 L9.784152894178895,-68.57782474566272 L9.828688065203988,-68.4451287814183 L9.869718724917098,-68.3084695578432 L9.907146026865119,-68.1681762989769 L9.940879805399412,-68.02458698356828 L9.970838792892758,-67.8780475308551 L9.996950815520186,-67.72891096721428 L10.01915296713205,-67.57753657569044 L10.03739176080043,-67.4242890304516 L10.051623257673855,-67.26953751825715 L10.061813172829822,-67.1136548490546 L10.067936957870192,-66.95701655784774 L10.06997986006042,-66.80000000000003 " />
			<path d="M-1413.2103735820797,-70.0 L-1413.1271549728574,-69.99614545985655 L-1413.0441368445538,-69.98459112535103 L-1412.9615191951116,-69.9653648318873 L-1412.8795010576848,-69.93851289729034 L-1412.79828002115,-69.90410001022254 L-1412.7180517540987,-69.86220907434307 L-1412.6390095334534,-69.81294100858567 L-1412.5613437788468,-69.75641450403612 L-1412.4852415938844,-69.69276573799502 L-1412.4108863153958,-69.62214804591473 L-1412.3384570717592,-69.54473155200087 L-1412.268128351367,-69.46070275936815 L-1412.2000695822665,-69.37026410073807 L-1412.1344447239937,-69.27363345076076 L-1412.0714118725803,-69.17104360113586 L-1412.0111228796864,-69.06274169979694 L-1411.9537229867763,-68.94898865551046 L-1411.89935047522,-68.83005850932366 L-1411.8481363331603,-68.70623777437578 L-1411.800203939951,-68.57782474566272 L-1411.755668768926,-68.4451287814183 L-1411.7146381092127,-68.3084695578432 L-1411.6772108072648,-68.1681762989769 L-1411.6434770287306,-68.02458698356828 L-1411.613518041237,-67.8780475308551 L-1411.5874060186097,-67.72891096721428 L-1411.5652038669978,-67.57753657569044 L-1411.5469650733296,-67.4242890304516 L-1411.5327335764562,-67.26953751825715 L-1411.5225436613,-67.1136548490546 L-1411.5164198762598,-66.95701655784774 L-1411.5143769740696,-66.80000000000003 " />
			<path d="M10.06997986006042,-66.8 L10.06997986006042,66.8 " />
			<path d="M-1411.5143769740694,-66.8 L-1411.5143769740694,66.8 " />
			<path d="M8.373983252050243,70.0 L-1413.2103735820795,70.0 " />
			<path d="M10.06997986006042,66.8 L10.067936957870192,66.95701655784774 L10.061813172829822,67.11365484905458 L10.051623257673855,67.26953751825715 L10.03739176080043,67.4242890304516 L10.01915296713205,67.57753657569044 L9.996950815520188,67.72891096721428 L9.970838792892758,67.8780475308551 L9.940879805399412,68.02458698356828 L9.907146026865119,68.1681762989769 L9.8697187249171,68.3084695578432 L9.828688065203988,68.4451287814183 L9.784152894178895,68.57782474566272 L9.736220500969644,68.70623777437578 L9.685006358909854,68.83005850932366 L9.630633847353577,68.94898865551045 L9.573233954443621,69.06274169979694 L9.512944961549644,69.17104360113586 L9.449912110136221,69.27363345076076 L9.38428725186343,69.37026410073805 L9.316228482762911,69.46070275936815 L9.24589976237067,69.54473155200087 L9.1734705187342,69.62214804591473 L9.099115240245476,69.69276573799502 L9.023013055283128,69.75641450403612 L8.945347300676495,69.81294100858567 L8.866305080031141,69.86220907434307 L8.786076812979882,69.90410001022254 L8.70485577644521,69.93851289729034 L8.62283763901826,69.9653648318873 L8.540219989576034,69.98459112535103 L8.457201861272491,69.99614545985655 L8.373983252050259,70.0 " />
			<path d="M-1411.5143769740696,66.8 L-1411.5164198762598,66.95701655784774 L-1411.5225436613,67.11365484905458 L-1411.5327335764562,67.26953751825715 L-1411.5469650733296,67.4242890304516 L-1411.5652038669978,67.57753657569044 L-1411.5874060186097,67.72891096721428 L-1411.613518041237,67.8780475308551 L-1411.6434770287306,68.02458698356828 L-1411.6772108072648,68.1681762989769 L-1411.7146381092127,68.3084695578432 L-1411.755668768926,68.4451287814183 L-1411.800203939951,68.57782474566272 L-1411.8481363331603,68.70623777437578 L-1411.89935047522,68.83005850932366 L-1411.9537229867763,68.94898865551045 L-1412.0111228796864,69.06274169979694 L-1412.0714118725803,69.17104360113586 L-1412.1344447239937,69.27363345076076 L-1412.2000695822665,69.37026410073805 L-1412.268128351367,69.46070275936815 L-1412.3384570717592,69.54473155200087 L-1412.4108863153958,69.62214804591473 L-1412.4852415938844,69.69276573799502 L-1412.5613437788468,69.75641450403612 L-1412.6390095334534,69.81294100858567 L-1412.7180517540987,69.86220907434307 L-1412.79828002115,69.90410001022254 L-1412.8795010576848,69.93851289729034 L-1412.9615191951116,69.9653648318873 L-1413.0441368445538,69.98459112535103 L-1413.1271549728574,69.99614545985655 L-1413.2103735820797,70.0 " />
			<path d="M-1429.95834008618,70.0 L-1413.2103735820795,70.0 " />
			<path d="M-2630.194462034233,-15.134040210779887 L-2630.3162809369114,67.4651937375004 " />
			<path d="M-2628.627755427813,70.67864848893605 L-2628.7108333317146,70.67413233497062 L-2628.7936997242778,70.66191805202459 L-2628.8761549731043,70.6420350653754 L-2628.9580004362783,70.61453127487945 L-2629.03903894091,70.57947293957707 L-2629.1190752581433,70.53694451806878 L-2629.1979165734792,70.48704846504702 L-2629.2753729512847,70.42990498447391 L-2629.35125779236,70.36565173999932 L-2629.425388283477,70.29444352331711 L-2629.497585837789,70.21645188125838 L-2629.567676525064,70.1318647025201 L-2629.635491490698,70.04088576502483 L-2629.700867362498,69.94373424500178 L-2629.7636466442623,69.84064418897218 L-2629.823678095203,69.7318639499106 L-2629.8808170942966,69.617655588941 L-2629.934925988689,69.4982942440084 L-2629.985874425315,69.37406746704757 L-2630.0335396649275,69.24527453124519 L-2630.07780687779,69.11222571006454 L-2630.1185694203086,68.97524152976953 L-2630.155729091948,68.8346519972489 L-2630.1891963718053,68.69079580500068 L-2630.2188906342712,68.5440195151923 L-2630.244740343267,68.39467672476201 L-2630.266683224579,68.24312721357283 L-2630.284666415884,68.08973607767139 L-2630.2986465941003,67.93487284973953 L-2630.308590079753,67.7789106088578 L-2630.314472918114,67.62222508172512 L-2630.3162809369105,67.46519373750041 " />
			<path d="M-2630.194462034232,-15.134040210779885 L-2630.192203942751,-15.290562874541584 L-2630.185896808027,-15.446678458796464 L-2630.1755557324022,-15.602013147052412 L-2630.161205477432,-15.756194992661404 L-2630.142880404592,-15.908854809440342 L-2630.120624393003,-16.059627055681982 L-2630.0944907343596,-16.208150709439238 L-2630.0645420053274,-16.354070132986966 L-2630.0308499177017,-16.497035924391323 L-2629.9934951466953,-16.6367057541476 L-2629.9525671377633,-16.77274518488323 L-2629.9081638924267,-16.904828472163228 L-2629.8603917336095,-17.03263934448046 L-2629.8093650510505,-17.155871760563194 L-2629.755206027397,-17.274230642186435 L-2629.6980443456423,-17.387432580732455 L-2629.638016878601,-17.495206515808604 L-2629.5752673611682,-17.597294384297452 L-2629.509946046149,-17.693451738285177 L-2629.442209344481,-17.783448330388534 L-2629.3722194507086,-17.867068665078854 L-2629.300143954614,-17.94411251468295 L-2629.226155439922,-18.014395398825364 L-2629.150431071053,-18.07774902616394 L-2629.0731521689054,-18.134021697360986 L-2628.9945037766843,-18.183078668325138 L-2628.914674216819,-18.22480247285411 L-2628.8338546400278,-18.25909320390581 L-2628.7522385676098,-18.28586875282431 L-2628.6700214280613,-18.305065005947803 L-2628.5874000891254,-18.316635998127843 L-2628.504572386394,-18.320554022792237 " />
			<path d="M-2628.504572386394,-18.320554022792237 L-2628.496497772385,-18.320526104247318 " />
			<path d="M-2628.496497772385,-18.320526104247314 L-2611.7757045283442,-18.18736736802928 " />
			<path d="M-2611.7757045283442,-18.187367368029282 L-2611.6926266244427,-18.182851214063856 L-2611.6097602318796,-18.17063693111782 L-2611.527304983053,-18.150753944468633 L-2611.445459519879,-18.123250153972677 L-2611.3644210152474,-18.088191818670307 L-2611.284384698014,-18.04566339716201 L-2611.205543382678,-17.995767344140255 L-2611.1280870048727,-17.93862386356714 L-2611.0522021637976,-17.874370619092552 L-2610.9780716726805,-17.803162402410347 L-2610.9058741183685,-17.725170760351617 L-2610.835783431093,-17.64058358161334 L-2610.7679684654595,-17.54960464411806 L-2610.7025925936596,-17.452453124095012 L-2610.639813311895,-17.349363068065408 L-2610.5797818609544,-17.24058282900384 L-2610.5226428618607,-17.126374468034232 L-2610.4685339674684,-17.007013123101636 L-2610.417585530842,-16.882786346140804 L-2610.36992029123,-16.75399341033842 L-2610.3256530783674,-16.620944589157762 L-2610.2848905358487,-16.483960408862753 L-2610.247730864209,-16.343370876342124 L-2610.214263584352,-16.199514684093906 L-2610.184569321886,-16.05273839428553 L-2610.1587196128903,-15.90339560385524 L-2610.1367767315783,-15.75184609266606 L-2610.118793540273,-15.598454956764616 L-2610.104813362057,-15.443591728832772 L-2610.0948698764046,-15.287629487951031 L-2610.0889870380433,-15.130943960818357 L-2610.087179019247,-14.973912616593669 " />
			<path d="M-2610.087179019247,-14.97391261659364 L-2610.2089979219254,67.62532133168665 " />
			<path d="M-2610.208997921926,67.62532133168665 L-2610.211256013407,67.78184399544836 L-2610.217563148131,67.93795957970323 L-2610.2279042237556,68.09329426795918 L-2610.242254478726,68.24747611356817 L-2610.260579551566,68.40013593034712 L-2610.282835563155,68.55090817658875 L-2610.308969221798,68.699431830346 L-2610.3389179508304,68.84535125389374 L-2610.372610038456,68.98831704529809 L-2610.4099648094625,69.12798687505438 L-2610.4508928183945,69.26402630579 L-2610.495296063731,69.39610959307 L-2610.5430682225483,69.52392046538723 L-2610.5940949051073,69.64715288146996 L-2610.648253928761,69.7655117630932 L-2610.7054156105155,69.87871370163923 L-2610.765443077557,69.98648763671538 L-2610.8281925949896,70.08857550520422 L-2610.893513910009,70.18473285919195 L-2610.961250611677,70.2747294512953 L-2611.031240505449,70.35834978598562 L-2611.1033160015436,70.43539363558972 L-2611.177304516236,70.50567651973213 L-2611.253028885105,70.5690301470707 L-2611.3303077872524,70.62530281826776 L-2611.4089561794735,70.6743597892319 L-2611.4887857393387,70.71608359376087 L-2611.56960531613,70.75037432481258 L-2611.651221388548,70.77714987373108 L-2611.7334385280965,70.79634612685457 L-2611.8160598670324,70.80791711903461 L-2611.8988875697637,70.811835143699 " />
			<path d="M-2611.8988875697637,70.811835143699 L-2611.906962183773,70.81180722515408 " />
			<path d="M-2628.6277554278136,70.67864848893603 L-2611.906962183773,70.81180722515407 " />
			<path d="M-12.783608997027773,70.00000030844001 L-1190.8125779224242,70.00000019381551 " />
			<path d="M-12.783608997027772,70.00000030844001 L-12.782413591987078,69.99999999794143 " />
			<path d="M-1190.812577922424,70.00000019381552 L-1190.8123732473273,70.00000018471312 " />
			<path d="M-39.58035251594618,70.00000029673022 L-1217.6093214413427,70.00000018210572 " />
			<path d="M-39.581530267158755,69.99999999533384 L-39.5803525159462,70.00000029673022 " />
			<path d="M-1217.6102715177315,69.99999998597389 L-1217.6093214413424,70.00000018210574 " />
			<path d="M-12.78360899702777,70.00000030844001 L-39.580352515946174,70.00000029673024 " />
			<path d="M-1431.6543366941903,-19.000000000000007 L-1562.2354755321733,-19.000000000000007 " />
			<path d="M-1431.6543366941903,-18.999999999999996 L-2251.488497027509,-18.999999999999996 " />
			<path d="M-2251.488497027509,-18.999999999999993 L-2251.488891674286,-18.999999966158683 " />
			<path d="M-1073.4598530824405,70.0 L-1402.1435248344528,70.0 " />
			<path d="M-1402.143911941701,70.00000003256062 L-1402.1435248343673,69.99999999999997 " />
			<path d="M-1431.6543366941903,-18.99999996743938 L-2580.1722690554275,-18.9999999674394 " />
			<path d="M-2580.172192282462,-18.999999966158704 L-2580.172269055427,-18.999999967439397 " />
			<path d="M-1431.6543366941903,-18.999999966158683 L-2606.9690180106804,-18.999999966158704 " />
			<path d="M-2606.969018010681,-18.9999999661587 L-2607.1021677981003,-18.99614542600889 L-2607.2349968160192,-18.98459109149702 L-2607.3671850676988,-18.96536479802697 L-2607.4984141000627,-18.93851286342374 L-2607.628367770877,-18.90409997634973 L-2607.7567330103666,-18.862209040464123 L-2607.883200575426,-18.812940974700677 L-2608.007465794614,-18.756414470145188 L-2608.1292293021324,-18.69276570409827 L-2608.2481977590273,-18.622148012012303 L-2608.364084559865,-18.5447315180929 L-2608.476610523193,-18.460702725454794 L-2608.5855045641074,-18.37026406681951 L-2608.6905043473275,-18.273633416837185 L-2608.791356919178,-18.171043567207477 L-2608.887819316979,-18.06274166586395 L-2608.9796591543663,-17.948988621573065 L-2609.0666551811264,-17.830058475382117 L-2609.148597816212,-17.70623774043032 L-2609.225289652636,-17.577824711713593 L-2609.2965459330494,-17.44512874746577 L-2609.3621949948297,-17.308469523887513 L-2609.422078683637,-17.168176265018364 L-2609.4760527344206,-17.02458694960717 L-2609.523987118964,-16.878047496891696 L-2609.5657663591364,-16.728910933248873 L-2609.601289805089,-16.57753654172334 L-2609.6304718777287,-16.424288996483114 L-2609.653242274887,-16.269537484287575 L-2609.6695461406816,-16.11365481508423 L-2609.679344197673,-15.957016523876907 L-2609.6826128414828,-15.79999996602904 " />
			<path d="M-1431.6542557308148,-15.799999966028984 L-1431.6542557279759,66.800000033971 " />
			<path d="M-2609.6826128414823,-15.79999996602901 L-2609.6826128386438,66.80000003397099 " />
			<path d="M-1428.9406608969541,70.00000003384132 L-2606.9690180076213,70.00000003384129 " />
			<path d="M-1428.9410555438988,70.0 L-1428.9406608969541,70.00000003384132 " />
			<path d="M-2609.682612838644,66.80000003397097 L-2609.6793441948234,66.95701659181856 L-2609.6695461378213,67.11365488302495 L-2609.653242272016,67.26953755222674 L-2609.6304718748474,67.4242890644201 L-2609.6012898021972,67.57753660965753 L-2609.5657663562342,67.72891100117967 L-2609.5239871160516,67.8780475648185 L-2609.476052731498,68.02458701752938 L-2609.4220786807045,68.16817633293543 L-2609.3621949918875,68.30846959179885 L-2609.2965459300976,68.44512881537084 L-2609.2252896496757,68.57782477961184 L-2609.148597813242,68.70623780832125 L-2609.0666551781483,68.83005854326521 L-2608.97965915138,68.94898868944784 L-2608.887819313985,69.06274173372994 L-2608.791356916176,69.17104363506425 L-2608.690504344319,69.27363348468432 L-2608.5855045610924,69.37026413465661 L-2608.476610520171,69.46070279328148 L-2608.3640845568384,69.54473158590883 L-2608.248197755995,69.62214807981717 L-2608.129229299095,69.69276577189176 L-2608.007465791572,69.75641453792703 L-2607.8832005723807,69.81294104247064 L-2607.7567330073175,69.862209108222 L-2607.6283677678252,69.90410004409534 L-2607.498414097008,69.93851293115692 L-2607.367185064643,69.96536486574762 L-2607.234996812962,69.98459115920502 L-2607.102167795042,69.9961454937042 L-2606.9690180076223,70.00000003384129 " />
			<path d="M-1402.1439119417014,70.0000000325606 L-1428.9406608969543,70.00000003384132 " />
			<path d="M10.06997986006042,-66.8 L-1411.5143769740694,-66.8 " />
			<path d="M10.06997986006042,66.8 L-1411.5143769740694,66.8 " />
			<path d="M-1431.6543366941903,-19.575429875690766 L-1980.460350065657,-18.999999999999996 " />
			<path d="M-2608.618030145616,-18.341368922796484 L-2628.496497772385,-18.320526104247314 " />
			<path d="M-1431.6543366941903,-19.424739181470375 L-1836.7417795830252,-19.000000000000004 " />
			<path d="M-2608.772970733329,-18.190515771458358 L-2611.7757045283442,-18.18736736802928 " />
			<path d="M-2609.682612841454,-14.974336809222224 L-2610.087179019247,-14.973912616593639 " />
			<path d="M-2609.5909535912433,67.62467330458105 L-2610.2089979219254,67.62532133168664 " />
			<path d="M-1837.6602865904704,70.0000000338413 L-2611.8908130320533,70.81179029256927 " />
			<path d="M-1431.6543366941903,-18.999999966158683 L-2606.9690180106804,-18.999999966158704 " />
			<path d="M-1431.6542557308148,-15.799999966028984 L-2609.6826128414823,-15.799999966029008 " />
			<path d="M-1431.6542557279759,66.800000033971 L-2609.6826128386433,66.80000003397097 " />
			<path d="M-2628.504572386395,-18.320554022792237 L-2608.6179897747356,-18.341405350003182 " />
			<path d="M-1980.495051495523,-18.999999999999996 L-1431.6543366941903,-19.575466260568096 " />
			<path d="M-2611.8988875697637,70.81183514369899 L-1837.6255851606113,70.0000000338413 " />

       </g>
    </g>
    
</svg>
