<?xml version="1.0" encoding="UTF-8" standalone="no"?>
<svg
   xmlns:svg="http://www.w3.org/2000/svg"
   xmlns="http://www.w3.org/2000/svg"
   width="480.0"
   height="480.0"

>
    <g transform="scale(0.14668234082408327, -0.14668234082408327)   translate(102.16953760282499,-330.6042790123415)" stroke-width="1.0"  fill="none">
       <!-- hidden lines -->
       <g  stroke="rgb(0,0,0)" fill="none" stroke-dasharray="1.0,1.0" >
			<path d="M32.44094780273262,-34.57710025699258 L-32.44094780273262,-1.9056532622776743 " />
			<path d="M-32.8436105092541,-1.597972816078789 L-32.79422821700142,-1.6473217375094298 L-32.744466769791,-1.6936506662504556 L-32.694379573638734,-1.7369098802048875 L-32.64402038416755,-1.7770529518189306 L-32.5934432489147,-1.8140367979099152 L-32.54270244932578,-1.8478217259049305 L-32.49185244249759,-1.8783714764405128 L-32.44094780273264,-1.905653262277664 " />
			<path d="M32.44094780273262,-34.57710025699259 L32.503433306884396,-34.60608058016777 L32.56581775101847,-34.630045203078616 L32.628000238565065,-34.6489553668922 L32.68988019958597,-34.662780487531215 L32.75135755342981,-34.67149820513867 L32.812332870596066,-34.67509442024129 L32.87270753354589,-34.67356331655309 L32.932383896199774,-34.66690737038227 " />
			<path d="M32.93238389619978,-34.66690737038226 L32.98954117255689,-34.65555749926693 L33.04586274552065,-34.63940800472965 L33.10126281724474,-34.61848348821138 L33.155656993657914,-34.59281582521483 L33.20896241302633,-34.562444116746775 L33.26109787218146,-34.52741462975324 L33.311983950221574,-34.48778072663843 L33.361543129498,-34.44360278397476 L33.409699913702255,-34.39494810052782 L33.45638094287377,-34.34189079473632 L33.50151510515333,-34.28451169180329 L33.545033645111786,-34.22289820057043 L33.58687026848908,-34.1571441803633 L33.6269612431841,-34.08734979801008 L33.66524549634136,-34.01362137525175 L33.70166470738676,-33.93607122677615 L33.73616339687062,-33.85481748912266 L33.76868901098269,-33.76998394071809 L33.799192001610315,-33.681699813318005 L33.827625901817925,-33.59009959514064 L33.85394739663272,-33.4953228259934 L33.87811638902884,-33.397513884703905 L33.90009606100945,-33.29682176917961 L33.919852929693654,-33.19339986943075 L33.93735689832289,-33.087405733902735 L33.95258130210902,-32.97900082947359 L33.96550294885431,-32.86835029548234 L33.976102154281435,-32.75562269216287 L33.984362772019644,-32.64098974386661 L33.99027221820144,-32.52462607746501 L33.99382149063231,-32.40670895633058 L33.995005182504244,-32.28741801030155 " />
			<path d="M33.99500518250425,-32.287418010301536 L33.99500518250425,-1.949128241645223 " />
			<path d="M33.995005182504244,-1.9491282416452242 L33.99313325233064,-1.797438353230055 L33.98752197145355,-1.6442286684439549 L33.97818485794013,-1.489868282837158 L33.965144405714646,-1.3347290640989629 L33.94843203036872,-1.1791847561959006 L33.9280879934784,-1.0236100789897828 L33.90416130561047,-0.8683798255047304 L33.876709608251744,-0.7138679590179536 L33.84579903494564,-0.5604467121494602 L33.8115040519707,-0.4084856901210705 L33.773907278944804,-0.2583509803450651 L33.73309928978724,-0.11040427048754053 L33.689178394518265,0.03499802286885423 L33.642250402421595,0.1775056128636867 L33.592428367140585,0.3167751862304695 L33.53983231432213,0.45247123036838777 L33.48458895246435,0.5842668416215429 L33.42683136766469,0.7118445128184954 L33.36669870300391,0.834896898174847 L33.30433582333818,0.9531275537161559 L33.23989296630694,1.0662516514374438 L33.17352538039733,1.1739966654787977 L33.1053929509369,1.276103028664044 L33.035659814915924,1.3723247578208095 L32.96449396556698,1.4624300463755255 L32.89206684765455,1.5462018227957732 L32.81855294444953,1.6234382735346151 L32.74412935738381,1.6939533292171074 L32.668975379397374,1.7575771128977218 L32.59327206300589,1.814156349308786 L32.51720178412938,1.8635547341140302 L32.44094780273263,1.9056532622776676 " />
			<path d="M32.44094780273262,1.9056532622776743 L-32.44094780273262,34.57710025699258 " />
			<path d="M9.011981407275185,-2191.616163909205 L9.04820381972625,-2191.57969634014 L9.083602701902686,-2191.5407481144703 L9.118147741613859,-2191.499352583702 L9.151809357817523,-2191.4555451949777 L9.184558725950172,-2191.409363460723 L9.216367802609616,-2191.360846926523 L9.27705695709924,-2191.2569776015453 L9.333668992418527,-2191.1442929185937 L9.386010041717507,-2191.0231787642447 L9.43390086405749,-2190.894049891642 L9.477177458218293,-2190.757348500181 L9.515691624317327,-2190.613542721204 L9.54931147131731,-2190.463125014897 L9.577921868684648,-2190.306610483865 L9.60142484065177,-2190.144535109175 L9.619739901733315,-2189.9774539149 L9.632804332347144,-2189.805939067445 L9.640573393596393,-2189.6305779161794 L9.643020480476961,-2189.4519709820665 " />
			<path d="M9.643020480476958,-2189.4519709820665 L9.606202322565865,-2159.077074161973 " />
			<path d="M9.606202322565867,-2159.0770741619726 L9.60414445264763,-2158.925218445179 L9.598341690381893,-2158.7718754667267 L9.58880801513122,-2158.6174146432827 L9.575566394354336,-2158.4622080844997 L9.558648728275525,-2158.306629696572 L9.538095773034183,-2158.151054281464 L9.51395704249971,-2157.995856633977 L9.486290688988271,-2157.8414106388373 L9.455163363168758,-2157.6880883699755 L9.420650053495503,-2157.536259194166 L9.382833905554518,-2157.386288881193 L9.341806021758497,-2157.2385387226755 L9.297665241873121,-2157.0933646616872 L9.250517904903411,-2156.9511164352566 L9.200477592913746,-2156.8121367318204 L9.14766485739872,-2156.6767603656576 L9.092206928864043,-2156.545313470292 L9.03423741031709,-2156.418112712808 L8.973895955405576,-2156.2954645309715 L8.911327931979667,-2156.177664394995 L8.84668407188811,-2156.0649960957253 L8.780120107851996,-2155.9577310609625 L8.711796398291003,-2155.8561277015715 L8.641877541005917,-2155.7604307889446 L8.570531976648104,-2155.670870865326 L8.497931582931233,-2155.587663688416 L8.424251260562817,-2155.511009711592 L8.349668511893071,-2155.4410936009986 L8.27436301329622,-2155.3780837906697 L8.198516182314364,-2155.322132076758 L8.12231074060674,-2155.2733732518427 L8.045930273757232,-2155.231924780204 " />
			<path d="M8.045930273757227,-2155.2319247802047 L-32.132352117652054,-2135.3766796968325 " />
			<path d="M-32.13235211765205,-2135.376679696832 L-32.19404585174943,-2135.3486077658104 L-32.255636761420426,-2135.3254144288117 L-32.31702804383206,-2135.3071361389552 L-32.378123209906825,-2135.293801624347 L-32.438826235975185,-2135.2854318429304 L-32.499041714696595,-2135.282039949546 L-32.55867500501185,-2135.283631275254 L-32.61763238089103,-2135.290203318957 " />
			<path d="M-32.61763238089104,-2135.290203318957 L-32.67540136084398,-2135.3016439941794 L-32.73232340852532,-2135.317965377353 L-32.788310354424326,-2135.339142187442 L-32.84327547745787,-2135.3651416225866 " />
			<path d="M7.67319227522745,-22.10521331654947 L-32.44091381337094,-1.9056510278320253 " />
			<path d="M7.673527336202962,-2156.058220417871 L-32.440578752395425,-2135.858658129154 " />
			<path d="M-32.843275468230644,-2135.4239083085067 L-32.84166841800331,-2135.4522758718394 L-32.83684889035658,-2135.4806149421843 L-32.828821726041404,-2135.508897055677 L-32.8175949875706,-2135.5370938056612 L-32.80317995112078,-2135.5651768712187 L-32.785591095206584,-2135.5931180456173 L-32.76484608613834,-2135.6208892646405 L-32.74096576027802,-2135.6484626347765 L-32.71397410311109,-2135.675810461232 L-32.68389822515539,-2135.7029052757516 L-32.65076833473127,-2135.729719864206 L-32.614617707620205,-2135.756227293926 L-32.533402480187604,-2135.808214515782 L-32.44057875239544,-2135.8586581291534 " />
			<path d="M7.673192275227443,-22.10521331654947 L7.752815730886526,-22.14308753106759 L7.83898631529312,-22.179823151677585 L7.931496435961734,-22.21533167905175 L8.030123227908751,-22.249527570037458 L8.134629090553684,-22.282328443738116 L8.244762260119785,-22.313655279975965 L8.360257416155047,-22.3434326096586 L8.480836320712399,-22.37158869659063 L8.606208488649296,-22.398055710292454 L8.736071887431876,-22.422769889409828 L8.87011366475778,-22.445671695320552 L9.008010902244754,-22.466705955568223 L9.149431393369325,-22.485821996777524 L9.294034443781399,-22.50297376673081 L9.441471692066804,-22.518119945311955 L9.591387948980442,-22.5312240440501 L9.743422053128294,-22.542254494023602 L9.897207741036853,-22.551184721912325 L10.052374529513912,-22.557993214015085 L10.208548608175025,-22.562663568078058 L10.365353739985464,-22.56518453280923 L10.522412167648188,-22.56555003498375 L10.679345523654266,-22.563759194074873 L10.835775741803342,-22.5598163243752 L10.991325967998224,-22.55373092460319 L11.145621468119417,-22.54551765501992 L11.298290530792439,-22.535196302111213 L11.448965362873084,-22.522791730920265 L11.59728297549331,-22.508333825145588 L11.742886058533228,-22.491857415148555 L11.88542384141247,-22.473402194044017 L12.024552938127233,-22.453012622076102 " />
			<path d="M7.673527336202955,-2156.058220417871 L7.753150791862039,-2156.096094632389 L7.839321376268632,-2156.132830252999 L7.931831496937247,-2156.1683387803732 L8.030458288884263,-2156.202534671359 L8.134964151529196,-2156.2353355450596 L8.245097321095297,-2156.2666623812975 L8.36059247713056,-2156.29643971098 L8.481171381687911,-2156.324595797912 L8.606543549624808,-2156.3510628116137 L8.736406948407389,-2156.375776990731 L8.870448725733292,-2156.398678796642 L9.008345963220266,-2156.4197130568896 L9.149766454344837,-2156.4388290980987 L9.294369504756911,-2156.4559808680524 L9.441806753042316,-2156.4711270466332 L9.591723009955954,-2156.4842311453713 L9.743757114103806,-2156.495261595345 L9.897542802012365,-2156.5041918232337 L10.052709590489425,-2156.5110003153363 L10.208883669150538,-2156.5156706693992 L10.365688800960976,-2156.5181916341307 L10.5227472286237,-2156.518557136305 L10.679680584629779,-2156.5167662953963 L10.836110802778855,-2156.5128234256968 L10.991661028973736,-2156.5067380259247 L11.14595652909493,-2156.4985247563413 L11.298625591767951,-2156.4882034034326 L11.449300423848596,-2156.4757988322417 L11.597618036468823,-2156.461340926467 L11.74322111950874,-2156.44486451647 L11.885758902387982,-2156.4264092953654 L12.024887999102745,-2156.4060197233975 " />
			<path d="M12.024552938127249,-22.4530126220761 L39.64792286925421,-18.15985318154294 " />
			<path d="M12.024887999102758,-2156.4060197233985 L39.64825793022972,-2152.112860282865 " />
			<path d="M39.64792286925421,-18.15985318154294 L39.838628236138184,-18.127736588898248 L40.02089118821596,-18.091988862456212 L40.1938298064707,-18.052782975382243 L40.35660728970695,-18.01030863390566 L40.5084360035956,-17.96477135938474 L40.64858129181427,-17.916391493846866 L40.776365030842,-17.865403133815565 L40.89116891120775,-17.812052997583482 " />
			<path d="M39.64825793022972,-2152.112860282865 L39.83065581906013,-2152.0822501859298 L40.005381855299,-2152.0483179364737 L40.17166407987606,-2152.01121345095 L40.328767839420514,-2151.971100661105 L40.47599903204139,-2151.928156789708 L40.612707173946944,-2151.8825715675603 L40.738288273354385,-2151.8345463952464 L40.85218749899284,-2151.7842934533214 L40.9539016314096,-2151.7320347648742 L41.000046696160354,-2151.7052250986617 L41.042981286249685,-2151.678001214605 L41.08265796612638,-2151.6503931905504 L41.119032899685905,-2151.6224315287527 L41.152065898701935,-2151.5941471221777 L41.181720467227656,-2151.565571220371 L41.2079638419177,-2151.536735394932 L41.230767028226154,-2151.5076715046307 L41.25010483244068,-2151.4784116602123 L41.26595588951738,-2151.448988188918 L41.27830268668559,-2151.419433598769 L41.2871315827966,-2151.3897805426514 L41.29243282339476,-2151.36006178224 L41.29420055149463,-2151.330310151801 " />
			<path d="M41.29420055149463,-2151.330310151801 L41.2925935012673,-2151.301942588468 L41.28777397362057,-2151.2736035181233 L41.2797468093054,-2151.2453214046304 L41.26852007083459,-2151.2171246546463 L41.25410503438477,-2151.189041589089 L41.23651617847057,-2151.1611004146903 L41.21577116940233,-2151.133329195667 L41.19189084354202,-2151.105755825531 L41.16489918637508,-2151.078407999076 L41.134823308419385,-2151.051313184556 L41.101693417995264,-2151.0244985961017 L41.065542790884194,-2150.997991166382 L40.9843275634516,-2150.9460039445257 L40.891503835659435,-2150.8955603311542 " />
			<path d="M40.89150383565943,-2150.895560331154 L0.7773977470610376,-2130.6959980424367 " />
			<path d="M362.9306753284153,33.10800824586402 L322.81656921306035,53.307570534512614 " />
			<path d="M362.9306753284153,-2100.8450508931355 L322.81656921306035,-2080.6454886044867 " />
			<path d="M322.4138724966492,-2080.2107388108116 L322.41547954270317,-2080.239106368726 L322.4202990667419,-2080.267445434158 L322.42832622801717,-2080.295727543243 L322.43955296401793,-2080.323924289324 L322.453967998568,-2080.352007351482 L322.4715568531521,-2080.379948522983 L322.4923018614582,-2080.4077197396086 L322.51618218712144,-2080.4352931078442 L322.54317384465236,-2080.4626409328944 L322.573249723528,-2080.4897357464997 L322.6063796154218,-2080.5165503345274 L322.64253024454507,-2080.5430577643033 L322.72374547759495,-2080.5950449877023 L322.8165692130603,-2080.645488604487 " />
			<path d="M362.9306753284153,33.10800824586401 L363.01029878412453,33.07013403070832 L363.0964693685798,33.033398408186876 L363.18897948929543,32.99788987763199 L363.28760628128776,32.96369398220396 L363.39211214397614,32.93089310281007 L363.5022453135837,32.8995662596418 L363.61774046965843,32.86978892180825 L363.7383193742531,32.84163282552445 L363.86369154222507,32.81516580129252 L363.9935549410404,32.79045161049209 L364.1275967183966,32.76754979177349 L364.26549395591144,32.74651551762398 L364.40691444706135,32.72739946145238 L364.55151749749615,32.71024767551236 L364.69895474580164,32.69510147995859 L364.8488710027326,32.681997363302784 L365.00090510689506,32.67096689450977 L365.15469079481545,32.66203664694501 L365.30985758330155,32.6552281343571 L365.4660316619688,32.650557759049214 L365.62283679378265,32.64803677236454 L365.7798952214458,32.647671247580824 L365.93682857744955,32.64946206527927 L366.0932587955934,32.653404911223205 L366.24880902178023,32.659490286751385 L366.40310452189055,32.66770353166115 L366.5557735845499,32.67802485952611 L366.7064484166141,32.69042940536341 L366.85476602921517,32.70488728553561 L367.0003691122333,32.72136366974302 L367.14290689508806,32.739818864932914 L367.28203599177584,32.7602084109236 " />
			<path d="M362.9306753284153,-2100.8450508931355 L363.01029878412453,-2100.882925108291 L363.0964693685798,-2100.9196607308127 L363.18897948929543,-2100.9551692613677 L363.28760628128776,-2100.9893651567954 L363.39211214397614,-2101.0221660361894 L363.5022453135837,-2101.0534928793577 L363.61774046965843,-2101.083270217191 L363.7383193742531,-2101.111426313475 L363.86369154222507,-2101.137893337707 L363.9935549410404,-2101.1626075285076 L364.1275967183966,-2101.185509347226 L364.26549395591144,-2101.2065436213757 L364.40691444706135,-2101.225659677547 L364.55151749749615,-2101.242811463487 L364.69895474580164,-2101.257957659041 L364.8488710027326,-2101.2710617756966 L365.00090510689506,-2101.28209224449 L365.15469079481545,-2101.2910224920543 L365.30985758330155,-2101.2978310046424 L365.4660316619688,-2101.30250137995 L365.62283679378265,-2101.305022366635 L365.7798952214458,-2101.305387891419 L365.93682857744955,-2101.30359707372 L366.0932587955934,-2101.2996542277765 L366.24880902178023,-2101.293568852248 L366.40310452189055,-2101.2853556073383 L366.5557735845499,-2101.2750342794734 L366.7064484166141,-2101.262629733636 L366.85476602921517,-2101.248171853464 L367.0003691122333,-2101.2316954692565 L367.14290689508806,-2101.2132402740667 L367.28203599177584,-2101.192850728076 " />
			<path d="M367.2820359917759,32.76020841092361 L394.90540591721646,37.05336262346931 " />
			<path d="M367.2820359917759,-2101.1928507280763 L394.90540591721646,-2096.89969651553 " />
			<path d="M394.90540591721646,37.05336262346931 L395.0961112543522,37.08547917390444 L395.27837417950707,37.1212268571857 L395.4513127740751,37.160432700411576 L395.6140902372418,37.20290699762528 L395.7659189350257,37.2484442277481 L395.9060642114161,37.29682404903761 L396.0338479431652,37.34781236525887 L396.14865182103375,37.401162458409715 " />
			<path d="M394.90540591721646,-2096.89969651553 L395.087803798565,-2096.8690864551104 L395.26252982798917,-2096.8351542422843 L395.42881204651314,-2096.7980497933327 L395.58591580085397,-2096.757937039825 L395.73314698920154,-2096.714993204355 L395.869855127837,-2096.6694080175507 L395.9954362250424,-2096.621382879823 L396.1093354496028,-2096.5711299715567 L396.2110495821121,-2096.518871315674 L396.25719464736005,-2096.4920616652817 L396.30012923825234,-2096.4648377967114 L396.3398059192408,-2096.4372297877885 L396.3761808542233,-2096.409268140749 L396.40921385497535,-2096.380983748541 L396.4388684255513,-2096.35240786069 L396.4651118026061,-2096.323572048778 L396.4879149915937,-2096.294508171557 L396.50725279880095,-2096.265248339756 L396.52310385918236,-2096.2358248805986 L396.53545065996514,-2096.2062703020906 L396.5442795599976,-2096.176617257102 L396.5495808048207,-2096.1468985072925 L396.5513485374448,-2096.1171468869143 " />
			<path d="M396.5513485374448,-2096.1171468869143 L396.5497414913909,-2096.088779329 L396.54492196735214,-2096.0604402635677 L396.5368948060769,-2096.0321581544827 L396.5256680700761,-2096.0039614084017 L396.51125303552607,-2095.975878346244 L396.49366418094195,-2095.947937174743 L396.47291917263584,-2095.920165958117 L396.4490388469726,-2095.8925925898816 L396.4220471894417,-2095.8652447648315 L396.391971310566,-2095.838149951226 L396.3588414186722,-2095.8113353631984 L396.322690789549,-2095.7848279334225 L396.2414755564991,-2095.7328407100235 L396.14865182103375,-2095.6823970932387 " />
			<path d="M396.1486518210338,-2095.682397093239 L356.03454570567874,-2075.4828348045903 " />
			<path d="M718.1881923442082,88.3212320426543 L678.0740862288532,108.5207943313029 " />
			<path d="M718.1881923442082,-2045.6318270963452 L678.0740862288532,-2025.4322648076968 " />
			<path d="M678.019260277875,-2025.4034302917946 L678.0740862288534,-2025.4322648076968 " />
			<path d="M718.1881923442083,88.32123204265432 L718.2678157999176,88.28335782749862 L718.3539863843729,88.24662220497717 L718.4464965050885,88.2111136744223 L718.5451232970809,88.17691777899425 L718.6496291597692,88.14411689960036 L718.7597623293768,88.11279005643209 L718.8752574854515,88.08301271859854 L718.9958363900462,88.05485662231474 L719.1212085580181,88.02838959808281 L719.2510719568335,88.00367540728239 L719.3851137341896,87.98077358856378 L719.5230109717045,87.95973931441428 L719.6644314628544,87.94062325824268 L719.8090345132891,87.92347147230267 L719.9564717615947,87.90832527674888 L720.1063880185256,87.89522116009307 L720.2584221226881,87.88419069130006 L720.4122078106085,87.87526044373531 L720.5673745990946,87.86845193114739 L720.7235486777619,87.86378155583951 L720.8803538095757,87.86126056915484 L721.0374122372389,87.86089504437112 L721.1943455932426,87.86268586206957 L721.3507758113865,87.8666287080135 L721.5063260375732,87.87271408354168 L721.6606215376836,87.88092732845145 L721.813290600343,87.8912486563164 L721.9639654324071,87.9036532021537 L722.1122830450082,87.91811108232591 L722.2578861280264,87.93458746653332 L722.4004239108812,87.9530426617232 L722.5395530075689,87.9734322077139 " />
			<path d="M718.1881923442083,-2045.6318270963452 L718.2678157999176,-2045.6697013115008 L718.3539863843729,-2045.7064369340223 L718.4464965050885,-2045.7419454645772 L718.5451232970809,-2045.776141360005 L718.6496291597692,-2045.8089422393991 L718.7597623293768,-2045.8402690825674 L718.8752574854515,-2045.870046420401 L718.9958363900462,-2045.8982025166847 L719.1212085580181,-2045.9246695409167 L719.2510719568335,-2045.949383731717 L719.3851137341896,-2045.9722855504356 L719.5230109717045,-2045.9933198245851 L719.6644314628544,-2046.0124358807568 L719.8090345132891,-2046.029587666697 L719.9564717615947,-2046.0447338622505 L720.1063880185256,-2046.0578379789065 L720.2584221226881,-2046.0688684476995 L720.4122078106085,-2046.0777986952642 L720.5673745990946,-2046.084607207852 L720.7235486777619,-2046.0892775831599 L720.8803538095757,-2046.0917985698445 L721.0374122372389,-2046.0921640946283 L721.1943455932426,-2046.09037327693 L721.3507758113865,-2046.086430430986 L721.5063260375732,-2046.0803450554579 L721.6606215376836,-2046.072131810548 L721.813290600343,-2046.061810482683 L721.9639654324071,-2046.0494059368457 L722.1122830450082,-2046.0349480566736 L722.2578861280264,-2046.0184716724661 L722.4004239108812,-2046.0000164772762 L722.5395530075689,-2045.9796269312856 " />
			<path d="M722.5395530075689,87.97343220771388 L750.1629229330094,92.2665864202596 " />
			<path d="M722.5395530075689,-2045.9796269312856 L750.1629229330094,-2041.6864727187399 " />
			<path d="M750.1629229330093,92.26658642025959 L750.3536282701451,92.29870297069472 L750.5358911953,92.33445065397598 L750.7088297898681,92.37365649720186 L750.8716072530348,92.41613079441558 L751.0234359508187,92.4616680245384 L751.1635812272091,92.51004784582793 L751.2913649589582,92.56103616204919 L751.4061688368267,92.61438625520005 " />
			<path d="M750.1629229330093,-2041.6864727187399 L750.3453208143578,-2041.6558626583198 L750.5200468437821,-2041.6219304454942 L750.6863290623061,-2041.5848259965421 L750.8434328166469,-2041.5447132430343 L750.9906640049944,-2041.5017694075646 L751.1273721436298,-2041.4561842207604 L751.2529532408353,-2041.4081590830328 L751.3668524653957,-2041.3579061747666 L751.468566597905,-2041.3056475188837 L751.5147116631529,-2041.2788378684916 L751.5576462540452,-2041.2516139999213 L751.5973229350336,-2041.2240059909984 L751.6336978700161,-2041.196044343959 L751.6667308707682,-2041.1677599517507 L751.6963854413441,-2041.1391840638998 L751.7226288183989,-2041.1103482519875 L751.7454320073866,-2041.081284374767 L751.7647698145938,-2041.0520245429657 L751.7806208749753,-2041.0226010838082 L751.792967675758,-2040.9930465053 L751.8017965757905,-2040.9633934603116 L751.8070978206136,-2040.9336747105021 L751.8088655532378,-2040.903923090124 " />
			<path d="M751.8088655532378,-2040.903923090124 L751.8072585071837,-2040.8755555322093 L751.8024389831451,-2040.8472164667771 L751.7944118218697,-2040.8189343576921 L751.783185085869,-2040.7907376116116 L751.7687700513189,-2040.7626545494538 L751.7511811967348,-2040.7347133779529 L751.7304361884287,-2040.7069421613269 L751.7065558627655,-2040.6793687930913 L751.6795642052346,-2040.6520209680414 L751.6494883263589,-2040.6249261544358 L751.616358434465,-2040.598111566408 L751.5802078053418,-2040.571604136632 L751.498992572292,-2040.519616913233 L751.4061688368266,-2040.4691732964484 " />
			<path d="M751.4061688368267,-2040.4691732964484 L711.2920627214717,-2020.2696110078 " />
			<path d="M711.2920627214717,-2020.2696110078 L711.2748774858348,-2020.261067859221 " />
			<path d="M1073.445709360001,143.53445583944458 L1033.3316032446462,163.73401812809314 " />
			<path d="M1073.445709360001,-1990.418603299555 L1033.6992003640612,-1970.4041454948353 " />
			<path d="M1073.4457093600013,143.53445583944458 L1073.5253328157105,143.49658162428886 L1073.6115034001657,143.45984600176743 L1073.7040135208815,143.42433747121254 L1073.8026403128738,143.39014157578453 L1073.907146175562,143.35734069639062 L1074.0172793451698,143.32601385322235 L1074.1327745012445,143.2962365153888 L1074.253353405839,143.268080419105 L1074.378725573811,143.24161339487307 L1074.5085889726263,143.21689920407263 L1074.6426307499826,143.19399738535404 L1074.7805279874974,143.17296311120455 L1074.9219484786472,143.15384705503294 L1075.066551529082,143.1366952690929 L1075.2139887773876,143.12154907353914 L1075.3639050343186,143.10844495688335 L1075.5159391384811,143.09741448809032 L1075.6697248264015,143.08848424052556 L1075.8248916148875,143.08167572793766 L1075.981065693555,143.07700535262978 L1076.1378708253685,143.0744843659451 L1076.2949292530318,143.07411884116138 L1076.4518626090355,143.07590965885984 L1076.6082928271794,143.07985250480377 L1076.7638430533661,143.08593788033193 L1076.9181385534764,143.0941511252417 L1077.0708076161359,143.10447245310667 L1077.2214824482,143.11687699894398 L1077.3698000608013,143.13133487911617 L1077.5154031438192,143.14781126332358 L1077.657940926674,143.16626645851346 L1077.7970700233618,143.18665600450416 " />
			<path d="M1073.4457093600013,-1990.418603299555 L1073.5253328157105,-1990.4564775147105 L1073.6115034001657,-1990.493213137232 L1073.7040135208815,-1990.5287216677868 L1073.8026403128738,-1990.5629175632148 L1073.907146175562,-1990.5957184426088 L1074.0172793451698,-1990.627045285777 L1074.1327745012445,-1990.6568226236107 L1074.253353405839,-1990.6849787198944 L1074.378725573811,-1990.7114457441264 L1074.5085889726263,-1990.7361599349267 L1074.6426307499826,-1990.7590617536453 L1074.7805279874974,-1990.7800960277948 L1074.9219484786472,-1990.7992120839665 L1075.066551529082,-1990.8163638699066 L1075.2139887773876,-1990.8315100654602 L1075.3639050343186,-1990.8446141821162 L1075.5159391384811,-1990.8556446509092 L1075.6697248264015,-1990.8645748984738 L1075.8248916148875,-1990.8713834110617 L1075.981065693555,-1990.8760537863695 L1076.1378708253685,-1990.8785747730542 L1076.2949292530318,-1990.878940297838 L1076.4518626090355,-1990.8771494801397 L1076.6082928271794,-1990.8732066341956 L1076.7638430533661,-1990.8671212586676 L1076.9181385534764,-1990.8589080137576 L1077.0708076161359,-1990.8485866858928 L1077.2214824482,-1990.8361821400554 L1077.3698000608013,-1990.8217242598832 L1077.5154031438192,-1990.8052478756758 L1077.657940926674,-1990.7867926804859 L1077.7970700233618,-1990.7664031344952 " />
			<path d="M1077.7970700233616,143.18665600450416 L1105.4204399488024,147.47981021704985 " />
			<path d="M1077.7970700233616,-1990.7664031344955 L1105.4204399488024,-1986.4732489219498 " />
			<path d="M1105.4204399488024,147.47981021704985 L1105.6111452859382,147.51192676748497 L1105.793408211093,147.54767445076624 L1105.966346805661,147.58688029399212 L1106.1291242688278,147.6293545912058 L1106.2809529666115,147.67489182132863 L1106.421098243002,147.72327164261813 L1106.548881974751,147.7742599588394 L1106.6636858526197,147.82761005199026 " />
			<path d="M1105.4204399488024,-1986.4732489219496 L1105.602837830151,-1986.4426388615295 L1105.7775638595751,-1986.4087066487039 L1105.943846078099,-1986.3716021997518 L1106.10094983244,-1986.331489446244 L1106.2481810207873,-1986.2885456107742 L1106.384889159423,-1986.24296042397 L1106.5104702566284,-1986.1949352862425 L1106.6243694811888,-1986.1446823779763 L1106.726083613698,-1986.0924237220934 L1106.772228678946,-1986.0656140717012 L1106.8151632698382,-1986.038390203131 L1106.8548399508268,-1986.010782194208 L1106.8912148858092,-1985.9828205471688 L1106.9242478865613,-1985.9545361549604 L1106.9539024571372,-1985.9259602671095 L1106.980145834192,-1985.8971244551972 L1107.0029490231796,-1985.8680605779766 L1107.0222868303867,-1985.8388007461754 L1107.0381378907682,-1985.809377287018 L1107.050484691551,-1985.7798227085098 L1107.0593135915835,-1985.7501696635213 L1107.0646148364067,-1985.7204509137118 L1107.0663825690308,-1985.6906992933336 " />
			<path d="M1107.0663825690308,-1985.6906992933336 L1107.0647755229768,-1985.662331735419 L1107.059955998938,-1985.6339926699868 L1107.0519288376627,-1985.6057105609018 L1107.040702101662,-1985.5775138148213 L1107.026287067112,-1985.5494307526635 L1107.0086982125279,-1985.5214895811625 L1106.9879532042219,-1985.4937183645366 L1106.9640728785585,-1985.466144996301 L1106.9370812210277,-1985.438797171251 L1106.907005342152,-1985.4117023576455 L1106.873875450258,-1985.3848877696178 L1106.8377248211348,-1985.3583803398417 L1106.756509588085,-1985.3063931164427 L1106.6636858526197,-1985.255949499658 " />
			<path d="M1106.6636858526194,-1985.255949499658 L1066.9568493555362,-1965.2614688847455 " />
			<path d="M1439.8923544537618,200.48666837802784 L1399.7782483354802,220.6862306662216 " />
			<path d="M1439.8920587711343,-1933.4664367151925 L1400.583203854189,-1913.672360760187 " />
			<path d="M1439.8923544537615,200.48666837802784 L1439.9719779094762,200.4487941623099 L1440.0581484939369,200.41205853810132 L1440.1506586146577,200.37655000473845 L1440.249285406655,200.34235410538838 L1440.353791269348,200.30955322096784 L1440.4639244389602,200.27822637168043 L1440.5794195950393,200.24844902664998 L1440.699998499638,200.22029292210885 L1440.8253706676137,200.19382588857906 L1440.9552340664327,200.16911168746265 L1441.0892758437922,200.14620985743477 L1441.2271730813102,200.12517557100998 L1441.3685935724627,200.1060595016266 L1441.5131966229,200.08890770157018 L1441.6606338712077,200.0737614910294 L1441.8105501281407,200.06065735855205 L1441.9625842323046,200.04962687314108 L1442.1163699202264,200.040696608202 L1442.2715367087135,200.03388807752526 L1442.4277107873813,200.0292176834576 L1442.5845159191956,200.0266966773874 L1442.7415743468587,200.02633113263914 L1442.8985077028622,200.0281219298421 L1443.0549379210056,200.03206475480897 L1443.2104881471914,200.03815010892905 L1443.3647836473006,200.04636333205124 L1443.5174527099584,200.05668463780165 L1443.6681275420208,200.06908916125073 L1443.8164451546197,200.08354701881493 L1443.9620482376356,200.10002338024907 L1444.1045860204877,200.11847855255522 L1444.2437151171725,200.1388680756069 " />
			<path d="M1439.892058771134,-1933.4664367151925 L1439.9716822268488,-1933.5043109309104 L1440.0578528113094,-1933.541046555119 L1440.1503629320302,-1933.5765550884819 L1440.2489897240275,-1933.610750987832 L1440.3534955867206,-1933.6435518722524 L1440.4636287563328,-1933.67487872154 L1440.579123912412,-1933.7046560665704 L1440.6997028170106,-1933.7328121711114 L1440.8250749849863,-1933.7592792046412 L1440.9549383838053,-1933.7839934057577 L1441.0889801611647,-1933.8068952357855 L1441.2268773986827,-1933.8279295222103 L1441.3682978898353,-1933.8470455915938 L1441.5129009402726,-1933.8641973916501 L1441.6603381885802,-1933.879343602191 L1441.8102544455132,-1933.8924477346684 L1441.9622885496772,-1933.9034782200793 L1442.116074237599,-1933.9124084850184 L1442.271241026086,-1933.919217015695 L1442.427415104754,-1933.9238874097628 L1442.5842202365682,-1933.9264084158328 L1442.7412786642312,-1933.9267739605812 L1442.8982120202347,-1933.9249831633783 L1443.0546422383782,-1933.9210403384113 L1443.210192464564,-1933.9149549842914 L1443.3644879646731,-1933.906741761169 L1443.517157027331,-1933.8964204554186 L1443.6678318593933,-1933.8840159319695 L1443.8161494719923,-1933.8695580744054 L1443.9617525550082,-1933.8530817129713 L1444.1042903378602,-1933.834626540665 L1444.243419434545,-1933.8142370176136 " />
			<path d="M1444.2437151171723,200.13886807560687 L1471.8670850419905,204.43201767160815 " />
			<path d="M1444.2434194345449,-1933.8142370176136 L1471.866789359363,-1929.5210874216125 " />
			<path d="M1471.867085041991,204.43201767160815 L1472.0577903530996,204.46413418480836 L1472.240053254706,204.49988183002264 L1472.4129918285644,204.53908763458185 L1472.575769274193,204.5815618927692 L1472.7275979579151,204.6270990837521 L1472.867743223993,204.67547886603893 L1472.9955269494178,204.7264671436487 L1473.110330825153,204.7798171988349 " />
			<path d="M1471.8667893593636,-1929.5210874216127 L1472.0834617508774,-1929.4841956644434 L1472.2890087132882,-1929.442618966682 L1472.4821388026983,-1929.3966185531697 L1472.6616385899597,-1929.3464834427884 L1472.7459211428697,-1929.319962851126 L1472.826380284605,-1929.292528632567 L1472.9028895850518,-1929.264223896089 L1472.9753288207114,-1929.2350931185651 L1473.043584163614,-1929.205182074875 L1473.1075483601828,-1929.1745377659752 L1473.167120899768,-1929.1432083450445 L1473.2222081725847,-1929.1112430418184 " />
			<path d="M1473.513025446505,189.2244884468801 L1399.3755456028616,177.70222904271063 " />
			<path d="M1107.0663825690306,132.27227903908582 L1032.928906528235,120.75002022594535 " />
			<path d="M751.8088655532378,77.05905524229556 L677.6713895124423,65.53679642915509 " />
			<path d="M396.5513485374449,21.84583144550529 L322.4138724966493,10.323572632364808 " />
			<path d="M41.2938680011897,-33.36738668172759 L32.93238389619979,-34.66690737038226 " />
			<path d="M355.47787509609424,-2075.2784541633123 L322.4730071679571,-2080.382042885313 " />
			<path d="M-0.5635191479179369,-2130.3336311204043 L-32.617632380891045,-2135.2902033189575 " />
			<path d="M41.29420055149464,-2151.3303101518 L41.29419623844016,-2123.861114258963 " />
			<path d="M396.5513485374449,-2096.1171468869143 L396.5513485374449,-2068.927205726716 " />
			<path d="M751.8088655532378,-2040.903923090124 L751.8088655532378,-2013.993240797803 " />
			<path d="M1107.0663825690306,-1985.6906992933336 L1107.0663825690306,-1959.0592758688908 " />

       </g>

       <!-- solid lines -->
       <g  stroke="rgb(0,0,0)" fill="none">
			<path d="M1497.8782054928788,193.17744790476738 L1432.9963098874136,225.8488948994823 " />
			<path d="M-33.995005182504244,1.9491282416452247 L-33.993705737374924,1.8228640714206128 L-33.98980957508258,1.6955023780884866 L-33.98332321127995,1.5672561518951704 L-33.97425749328062,1.4383398623141277 L-33.96262758191872,1.3089690993831067 L-33.94845292619514,1.1793602131673666 L-33.931757230752424,1.0497299519518892 L-33.91256841623289,0.9202950997676115 L-33.89091857258622,0.7912721138579075 L-33.86684390540464,0.6628767626915525 L-33.84038467537531,0.535323765127544 L-33.811585130951386,0.40882643133521335 L-33.780493434354185,0.28359630607012565 L-33.74716158103025,0.159842814902325 L-33.71164531269801,0.037772913988547874 L-33.674004024129516,-0.08240925602588889 L-33.634300663822955,-0.20050271139677145 L-33.592601628732325,-0.31630996139128387 L-33.54897665323004,-0.4296373385568495 L-33.50349869248839,-0.540295322596223 L-33.45624380047468,-0.6480988573071669 L-33.407291002764225,-0.752867660056713 L-33.356722164383875,-0.8544265232724646 L-33.30462185290697,-0.9526056074467388 L-33.25107719702885,-1.0472407251635611 L-33.19617774085926,-1.1381736156735132 L-33.140015294175434,-1.2252522095572735 L-33.08268377888623,-1.3083308830352238 L-33.0242790719641,-1.3872707014978638 L-32.964898845107584,-1.4619396518497374 L-32.904642401402334,-1.5322128632783363 L-32.84361050925411,-1.5979728160787747 " />
			<path d="M1431.442252507642,229.70367640340518 L1431.4441244378156,229.55198651499 L1431.4497357186926,229.39877683020393 L1431.4590728322062,229.2444164445971 L1431.4721132844315,229.08927722585892 L1431.4888256597776,228.93373291795587 L1431.5091696966679,228.77815824074975 L1431.5330963845358,228.6229279872647 L1431.5605480818945,228.4684161207779 L1431.5914586552005,228.31499487390943 L1431.6257536381756,228.16303385188104 L1431.6633504112015,228.01289914210503 L1431.7041584003591,227.8649524322475 L1431.748079295628,227.7195501388911 L1431.7950072877247,227.5770425488963 L1431.8448293230056,227.4377729755295 L1431.8974253758242,227.30207693139158 L1431.952668737682,227.17028132013843 L1432.0104263224816,227.04270364894145 L1432.0705589871422,226.9196512635851 L1432.1329218668081,226.8014206080438 L1432.1973647238394,226.68829651032252 L1432.263732309749,226.58055149628117 L1432.3318647392093,226.4784451330959 L1432.4015978752304,226.38222340393915 L1432.4727637245792,226.29211811538443 L1432.5451908424918,226.2083463389642 L1432.6187047456967,226.13110988822535 L1432.6931283327624,226.06059483254285 L1432.7682823107489,225.99697104886224 L1432.8439856271405,225.94039181245117 L1432.9200559060168,225.89099342764592 L1432.9963098874136,225.8488948994823 " />
			<path d="M1497.8782054928788,193.17744790476735 L1497.9406909970305,193.14846758159217 L1498.0030754411646,193.12450295868132 L1498.0652579287112,193.10559279486773 L1498.1271378897322,193.09176767422872 L1498.188615243576,193.08304995662127 L1498.2495905607423,193.07945374151865 L1498.3099652236922,193.08098484520684 L1498.369641586346,193.08764079137768 " />
			<path d="M1498.369641586346,193.08764079137768 L1498.426798862703,193.098990662493 L1498.483120435667,193.11514015703028 L1498.538520507391,193.13606467354856 L1498.592914683804,193.16173233654513 L1498.6462201031725,193.19210404501317 L1498.6983555623276,193.22713353200672 L1498.7492416403677,193.26676743512152 L1498.7988008196442,193.31094537778517 L1498.8469576038485,193.35960006123213 L1498.89363863302,193.41265736702363 L1498.9387727952994,193.47003646995665 L1498.982291335258,193.53164996118952 L1499.0241279586353,193.59740398139664 L1499.0642189333303,193.66719836374986 L1499.1025031864876,193.7409267865082 L1499.138922397533,193.8184769349838 L1499.1734210870168,193.89973067263728 L1499.2059467011288,193.98456422104186 L1499.2364496917564,194.07284834844194 L1499.264883591964,194.1644485666193 L1499.291205086779,194.25922533576656 L1499.315374079175,194.35703427705604 L1499.3373537511557,194.45772639258033 L1499.35711061984,194.5611482923292 L1499.374614588469,194.66714242785721 L1499.3898389922551,194.77554733228635 L1499.4027606390005,194.8861978662776 L1499.4133598444275,194.99892546959705 L1499.4216204621657,195.11355841789333 L1499.4275299083477,195.22992208429494 L1499.4310791807784,195.34783920542935 L1499.4322628726504,195.4671301514584 " />
			<path d="M1499.4322628726504,195.46713015145843 L1499.4322628726504,225.80541992011473 " />
			<path d="M1499.4322628726504,225.80541992011473 L1499.4303909424768,225.9571098085299 L1499.4247796615998,226.11031949331598 L1499.4154425480863,226.2646798789228 L1499.402402095861,226.419819097661 L1499.3856897205148,226.57536340556405 L1499.3653456836246,226.73093808277017 L1499.3414189957566,226.88616833625522 L1499.313967298398,227.040680202742 L1499.283056725092,227.19410144961049 L1499.2487617421168,227.34606247163887 L1499.211164969091,227.49619718141489 L1499.1703569799333,227.64414389127242 L1499.1264360846644,227.78954618462882 L1499.0795080925677,227.93205377462363 L1499.0296860572869,228.07132334799041 L1498.9770900044682,228.20701939212833 L1498.9218466426105,228.33881500338148 L1498.8640890578108,228.46639267457846 L1498.8039563931502,228.5894450599348 L1498.7415935134843,228.7076757154761 L1498.677150656453,228.8207998131974 L1498.6107830705434,228.92854482723874 L1498.5426506410831,229.030651190424 L1498.472917505062,229.12687291958076 L1498.4017516557133,229.2169782081355 L1498.3293245378006,229.30074998455572 L1498.2558106345957,229.37798643529456 L1498.18138704753,229.44850149097707 L1498.1062330695436,229.51212527465768 L1498.030529753152,229.56870451106874 L1497.9544594742756,229.618102895874 L1497.8782054928788,229.6602014240376 " />
			<path d="M1497.8782054928788,229.66020142403764 L1432.9963098874136,262.33164841875254 " />
			<path d="M-32.44094780273262,34.57710025699259 L-32.503433306884396,34.60608058016777 L-32.565817751018464,34.630045203078616 L-32.628000238565065,34.6489553668922 L-32.68988019958597,34.662780487531215 L-32.75135755342981,34.67149820513867 L-32.812332870596066,34.67509442024129 L-32.87270753354589,34.67356331655309 L-32.932383896199774,34.66690737038227 " />
			<path d="M-32.93238389619978,34.66690737038226 L-32.98954117255689,34.65555749926693 L-33.04586274552065,34.63940800472965 L-33.10126281724474,34.61848348821138 L-33.155656993657914,34.59281582521483 L-33.20896241302633,34.562444116746775 L-33.26109787218146,34.52741462975324 L-33.311983950221574,34.48778072663843 L-33.361543129498,34.44360278397476 L-33.40969991370226,34.39494810052782 L-33.45638094287377,34.34189079473632 L-33.50151510515333,34.28451169180329 L-33.545033645111786,34.22289820057043 L-33.58687026848908,34.1571441803633 L-33.6269612431841,34.08734979801008 L-33.66524549634136,34.01362137525175 L-33.70166470738676,33.93607122677615 L-33.73616339687062,33.85481748912266 L-33.76868901098269,33.76998394071809 L-33.799192001610315,33.681699813318005 L-33.827625901817925,33.59009959514064 L-33.85394739663272,33.4953228259934 L-33.87811638902884,33.39751388470391 L-33.90009606100945,33.29682176917961 L-33.919852929693654,33.19339986943075 L-33.93735689832289,33.087405733902735 L-33.95258130210902,32.97900082947359 L-33.96550294885431,32.86835029548234 L-33.976102154281435,32.75562269216287 L-33.984362772019644,32.64098974386661 L-33.99027221820144,32.52462607746501 L-33.99382149063231,32.40670895633058 L-33.995005182504244,32.28741801030157 " />
			<path d="M1432.9963098874136,262.33164841875254 L1432.933824383262,262.3606287419277 L1432.8714399391279,262.38459336483857 L1432.8092574515813,262.40350352865215 L1432.7473774905602,262.41732864929116 L1432.6859001367166,262.4260463668986 L1432.6249248195502,262.42964258200124 L1432.5645501566003,262.42811147831304 L1432.5048737939464,262.42145553214226 " />
			<path d="M1432.5048737939464,262.4214555321422 L1432.4477165175895,262.4101056610269 L1432.3913949446255,262.3939561664896 L1432.3359948729014,262.3730316499713 L1432.2816006964883,262.3473639869748 L1432.22829527712,262.31699227850675 L1432.1761598179648,262.2819627915132 L1432.1252737399248,262.2423288883984 L1432.0757145606483,262.1981509457347 L1432.027557776444,262.1494962622878 L1431.9808767472725,262.0964389564963 L1431.935742584993,262.03905985356323 L1431.8922240450345,261.9774463623304 L1431.8503874216572,261.9116923421233 L1431.8102964469622,261.84189795977005 L1431.7720121938048,261.7681695370117 L1431.7355929827595,261.6906193885361 L1431.7010942932757,261.60936565088264 L1431.6685686791636,261.5245321024781 L1431.638065688536,261.43624797507795 L1431.6096317883284,261.3446477569006 L1431.5833102935135,261.24987098775335 L1431.5591413011175,261.15206204646387 L1431.5371616291368,261.0513699309396 L1431.5174047604526,260.9479480311907 L1431.4999007918234,260.8419538956627 L1431.4846763880373,260.73354899123353 L1431.471754741292,260.6228984572423 L1431.461155535865,260.51017085392283 L1431.4528949181267,260.39553790562655 L1431.4469854719448,260.279174239225 L1431.443436199514,260.16125711809053 L1431.442252507642,260.04196617206156 " />
			<path d="M-33.99500518250425,1.949128241645223 L-33.99500518250425,32.287418010301536 " />
			<path d="M1431.442252507642,229.7036764034052 L1431.442252507642,260.0419661720615 " />
			<path d="M8.090205273776899,-2191.7586994372787 L-32.08807711763238,-2171.9034543539065 " />
			<path d="M1472.8018010229653,-1965.2683042226993 L1432.6235186315562,-1945.413059139327 " />
			<path d="M-33.64834916644102,-2168.058304972138 L-33.64629129652279,-2168.210160688932 L-33.64048853425705,-2168.363503667384 L-33.63095485900638,-2168.517964490828 L-33.61771323822949,-2168.673171049611 L-33.60079557215068,-2168.8287494375386 L-33.58024261690934,-2168.9843248526468 L-33.55610388637487,-2169.139522500134 L-33.52843753286343,-2169.2939684952735 L-33.49731020704392,-2169.4472907641352 L-33.462796897370666,-2169.5991199399446 L-33.42498074942968,-2169.7490902529175 L-33.38395286563366,-2169.8968404114353 L-33.33981208574828,-2170.0420144724235 L-33.29266474877857,-2170.184262698854 L-33.24262443678891,-2170.3232424022904 L-33.18981170127388,-2170.458618768453 L-33.1343537727392,-2170.5900656638187 L-33.07638425419225,-2170.7172664213026 L-33.01604279928073,-2170.8399146031393 L-32.95347477585482,-2170.9577147391155 L-32.888830915763265,-2171.0703830383854 L-32.82226695172715,-2171.1776480731482 L-32.753943242166166,-2171.2792514325392 L-32.68402438488108,-2171.374948345166 L-32.612678820523264,-2171.464508268785 L-32.540078426806396,-2171.547715445695 L-32.46639810443798,-2171.6243694225186 L-32.39181535576823,-2171.694285533112 L-32.316509857171376,-2171.757295343441 L-32.24066302618952,-2171.813247057353 L-32.164457584481895,-2171.862005882268 L-32.088077117632395,-2171.903454353907 " />
			<path d="M1431.0632465827475,-1941.5679097575585 L1431.0653044526657,-1941.7197654743525 L1431.0711072149315,-1941.8731084528047 L1431.0806408901822,-1942.0275692762486 L1431.093882510959,-1942.1827758350316 L1431.1108001770378,-1942.3383542229587 L1431.1313531322792,-1942.493929638067 L1431.1554918628137,-1942.6491272855542 L1431.1831582163252,-1942.8035732806936 L1431.2142855421446,-1942.9568955495556 L1431.2487988518178,-1943.108724725365 L1431.2866149997587,-1943.2586950383381 L1431.3276428835547,-1943.4064451968554 L1431.3717836634403,-1943.5516192578439 L1431.4189310004099,-1943.6938674842745 L1431.4689713123996,-1943.8328471877107 L1431.5217840479147,-1943.9682235538733 L1431.5772419764494,-1944.0996704492388 L1431.6352114949962,-1944.226871206723 L1431.6955529499078,-1944.3495193885597 L1431.7581209733337,-1944.4673195245357 L1431.8227648334253,-1944.5799878238058 L1431.8893287974613,-1944.6872528585684 L1431.9576525070224,-1944.7888562179594 L1432.0275713643075,-1944.8845531305865 L1432.0989169286652,-1944.9741130542054 L1432.1715173223822,-1945.0573202311155 L1432.2451976447505,-1945.1339742079392 L1432.3197803934202,-1945.2038903185326 L1432.395085892017,-1945.2669001288612 L1432.470932722999,-1945.322851842773 L1432.5471381647067,-1945.3716106676884 L1432.6235186315562,-1945.4130591393273 " />
			<path d="M8.090205273776894,-2191.7586994372787 L8.15189900787428,-2191.7867713683004 L8.213489917545274,-2191.809964705299 L8.274881199956909,-2191.8282429951555 L8.335976366031677,-2191.8415775097637 L8.396679392100037,-2191.8499472911803 L8.456894870821447,-2191.853339184565 L8.516528161136701,-2191.851747858857 L8.575485537015878,-2191.8451758151537 " />
			<path d="M8.57548553701589,-2191.8451758151537 L8.633674334768193,-2191.8336333827783 L8.691003098682076,-2191.817138703047 L8.74738172476675,-2191.795717700755 L8.802721602369235,-2191.7694040434317 L8.85693575344428,-2191.738239088422 L8.909938969258336,-2191.7022718178887 L8.961647944312677,-2191.661558761825 L9.011981407275185,-2191.616163909205 " />
			<path d="M1472.8018010229653,-1965.268304222699 L1472.8634947570627,-1965.2963761537208 L1472.9250856667336,-1965.3195694907192 L1472.9864769491453,-1965.337847780576 L1473.04757211522,-1965.3511822951843 L1473.1082751412885,-1965.3595520766007 L1473.1684906200098,-1965.3629439699855 L1473.228123910325,-1965.3613526442775 L1473.2870812862043,-1965.354780600574 " />
			<path d="M1473.2870812862043,-1965.354780600574 L1473.3445825144127,-1965.343404681808 L1473.401245108263,-1965.3271934072238 L1473.456982117461,-1965.3061716534642 L1473.511708012046,-1965.2803716789833 L1473.5653388136418,-1965.2498330745454 L1473.6177922243207,-1965.2146027024712 L1473.6689877528945,-1965.1747346247273 L1473.7188468384293,-1965.1302900199655 L1473.767292970799,-1965.0813370896433 L1473.8142518080929,-1965.0279509533668 L1473.8596512906952,-1964.9702135336172 L1473.9034217518624,-1964.9082134300393 L1473.9454960246287,-1964.8420457834816 L1473.9858095448753,-1964.7718121300018 L1474.024300450407,-1964.6976202450553 L1474.0609096758797,-1964.6195839781121 L1474.095581043439,-1964.537823077951 L1474.1282613489266,-1964.4524630089022 L1474.1589004435225,-1964.3636347583179 L1474.1874513107014,-1964.2714746355705 L1474.2138701383785,-1964.1761240628803 L1474.2381163861435,-1964.0777293583 L1474.2601528474677,-1963.9764415111865 L1474.2799457068008,-1963.8724159505016 L1474.2974645914603,-1963.765812306304 L1474.3126826182406,-1963.6567941647916 L1474.3255764346645,-1963.5455288172743 L1474.3361262548192,-1963.4321870034605 L1474.3443158897182,-1963.3169426494535 L1474.3501327721435,-1963.1999726008555 L1474.3535679759304,-1963.081456351395 L1474.3546162296652,-1962.961575767487 " />
			<path d="M1474.3546162296652,-1962.9615757674871 L1474.3177980717542,-1932.5866789473937 " />
			<path d="M1474.3177980717544,-1932.5866789473937 L1474.3157402018362,-1932.4348232305997 L1474.3099374395704,-1932.2814802521475 L1474.3004037643198,-1932.1270194287035 L1474.287162143543,-1931.9718128699205 L1474.270244477464,-1931.8162344819934 L1474.2496915222227,-1931.6606590668853 L1474.2255527916882,-1931.505461419398 L1474.1978864381767,-1931.3510154242585 L1474.1667591123573,-1931.1976931553966 L1474.132245802684,-1931.0458639795872 L1474.0944296547432,-1930.895893666614 L1474.0534017709472,-1930.7481435080967 L1474.0092609910616,-1930.6029694471083 L1473.962113654092,-1930.4607212206777 L1473.9120733421023,-1930.3217415172414 L1473.8592606065872,-1930.186365151079 L1473.8038026780525,-1930.0549182557133 L1473.7458331595058,-1929.9277174982292 L1473.6854917045941,-1929.8050693163925 L1473.6229236811682,-1929.6872691804165 L1473.5582798210767,-1929.5746008811464 L1473.4917158570406,-1929.4673358463838 L1473.4233921474795,-1929.3657324869928 L1473.3534732901944,-1929.2700355743657 L1473.2821277258367,-1929.1804756507468 L1473.2095273321197,-1929.0972684738367 L1473.1358470097514,-1929.020614497013 L1473.0612642610818,-1928.9506983864196 L1472.9859587624849,-1928.887688576091 L1472.910111931503,-1928.8317368621792 L1472.8339064897953,-1928.7829780372638 L1472.7575260229457,-1928.741529565625 " />
			<path d="M1472.7575260229455,-1928.741529565625 L1432.5792436315364,-1908.8862844822527 " />
			<path d="M-32.84327547745788,-2135.3651416225866 L-32.89021538874292,-2135.391663756542 L-32.93626169853815,-2135.4217774131603 L-32.9813603791389,-2135.4554472590617 L-33.02545851472611,-2135.4926337882675 L-33.0685043634543,-2135.533293368557 L-33.110447418162025,-2135.577378292658 L-33.15123846563364,-2135.6248368342267 L-33.190829644342855,-2135.6756133085387 L-33.22917450061031,-2135.729648137826 L-33.26622804310924,-2135.786877921182 L-33.30194679565531,-2135.8472355089516 L-33.33628884821877,-2135.9106500815187 L-33.369213906098864,-2135.977047232405 L-33.400683337202985,-2136.04634905557 L-33.43066021737505,-2136.1184742368227 L-33.45910937371984,-2136.1933381492295 L-33.48599742587258,-2136.27085295241 L-33.51129282516526,-2136.3509276956047 L-33.53496589164374,-2136.4334684243877 L-33.556988848892274,-2136.5183782909085 L-33.5773358566245,-2136.6055576675267 L-33.59598304100276,-2136.6949042637084 L-33.61290852265007,-2136.7863132460475 L-33.62809244232196,-2136.879677361269 L-33.65316639683545,-2137.0718306356775 L-33.67108725856118,-2137.2704625115293 L-33.68177094353957,-2137.4746410160847 L-33.68516732435211,-2137.683408152044 " />
			<path d="M1432.5792436315364,-1908.8862844822531 L1432.517549897439,-1908.8582125512314 L1432.455958987768,-1908.835019214233 L1432.3945677053564,-1908.816740924376 L1432.3334725392817,-1908.8034064097678 L1432.2727695132132,-1908.7950366283515 L1432.2125540344919,-1908.7916447349667 L1432.1529207441768,-1908.7932360606746 L1432.0939633682974,-1908.7998081043781 " />
			<path d="M1432.0939633682974,-1908.7998081043781 L1432.036462140089,-1908.8111840231443 L1431.9797995462386,-1908.8273952977283 L1431.9240625370408,-1908.848417051488 L1431.8693366424557,-1908.8742170259688 L1431.81570584086,-1908.9047556304067 L1431.763252430181,-1908.939986002481 L1431.7120569016072,-1908.9798540802249 L1431.6621978160724,-1909.0242986849867 L1431.6137516837027,-1909.073251615309 L1431.5667928464088,-1909.1266377515853 L1431.5213933638065,-1909.184375171335 L1431.4776229026393,-1909.246375274913 L1431.435548629873,-1909.3125429214706 L1431.3952351096264,-1909.3827765749504 L1431.3567442040946,-1909.4569684598969 L1431.320134978622,-1909.53500472684 L1431.2854636110626,-1909.616765627001 L1431.2527833055751,-1909.70212569605 L1431.2221442109792,-1909.7909539466343 L1431.1935933438003,-1909.8831140693817 L1431.1671745161232,-1909.978464642072 L1431.1429282683582,-1910.076859346652 L1431.120891807034,-1910.1781471937657 L1431.1010989477008,-1910.2821727544506 L1431.0835800630414,-1910.3887763986481 L1431.068362036261,-1910.4977945401606 L1431.0554682198372,-1910.6090598876779 L1431.0449183996825,-1910.7224017014917 L1431.0367287647834,-1910.8376460554987 L1431.0309118823582,-1910.9546161040967 L1431.0274766785712,-1911.0731323535572 L1431.0264284248365,-1911.1930129374653 " />
			<path d="M-33.64834916644102,-2168.0583049721376 L-33.68516732435212,-2137.683408152044 " />
			<path d="M1431.0632465827473,-1941.5679097575585 L1431.0264284248362,-1911.193012937465 " />
			<path d="M-31.19766790794123,-0.6883510761214704 L-31.38006579677164,-0.7189611730565775 L-31.554791833010512,-0.7528934225127291 L-31.721074057587572,-0.7899979080361071 L-31.878177817132027,-0.8301106978809669 L-32.025409009752906,-0.8730545692783299 L-32.16211715165846,-0.9186397914258988 L-32.2876982510659,-0.9666649637398504 L-32.40159747670435,-1.0169179056650286 L-32.50331160912111,-1.0691765941122457 L-32.549456673871866,-1.0959862603248 L-32.5923912639612,-1.123210144380997 L-32.632067943837896,-1.1508181684358307 L-32.66844287739742,-1.1787798302337549 L-32.70147587641344,-1.2070642368085829 L-32.73113044493917,-1.2356401386150526 L-32.757373819629215,-1.264475964054356 L-32.78017700593767,-1.2935398543554828 L-32.79951481015219,-1.3227996987738413 L-32.81536586722889,-1.3522231700682688 L-32.827712664397104,-1.3817777602172316 L-32.83654156050811,-1.411430816334761 L-32.841842801106274,-1.4411495767464404 L-32.843610529206146,-1.4709012071855727 " />
			<path d="M-32.843610529206146,-1.470901207185581 L-32.84200347897881,-1.499268770518148 L-32.83718395133208,-1.527607840863088 L-32.82915678701691,-1.5558899543558917 L-32.8179300485461,-1.5840867043397178 L-32.803515012096284,-1.612169769897141 L-32.785926156182086,-1.6401109442957842 L-32.76518114711385,-1.6678821633192626 L-32.74130082125353,-1.6954555334549828 L-32.71430916408659,-1.7228033599104886 L-32.6842332861309,-1.74989817443021 L-32.65110339570678,-1.7767127628846782 L-32.61495276859571,-1.803220192604495 L-32.53373754116311,-1.855207414460692 L-32.44091381337094,-1.9056510278320284 " />
			<path d="M-31.197332846965725,-2134.6413581774427 L-31.379730735796137,-2134.671968274378 L-31.554456772035007,-2134.705900523834 L-31.720738996612067,-2134.7430050093576 L-31.87784275615652,-2134.7831177992025 L-32.0250739487774,-2134.8260616705998 L-32.16178209068295,-2134.8716468927473 L-32.287363190090396,-2134.919672065061 L-32.401262415728844,-2134.969925006986 L-32.50297654814561,-2135.0221836954333 L-32.549121612896364,-2135.048993361646 L-32.59205620298569,-2135.0762172457025 L-32.63173288286239,-2135.103825269757 L-32.66810781642191,-2135.131786931555 L-32.70114081543794,-2135.16007133813 L-32.73079538396366,-2135.1886472399365 L-32.75703875865371,-2135.2174830653757 L-32.77984194496216,-2135.246546955677 L-32.79917974917668,-2135.2758068000953 L-32.81503080625338,-2135.3052302713895 L-32.8273776034216,-2135.3347848615385 L-32.8362064995326,-2135.3644379176562 L-32.841507740130766,-2135.3941566780677 L-32.843275468230644,-2135.4239083085067 " />
			<path d="M40.89116891120776,-17.81205299758348 L40.98399262315919,-17.761609355062852 L41.06520783426632,-17.709622107702767 L41.101358453053294,-17.683114666630626 L41.13448833505687,-17.65630006777243 L41.164564204504025,-17.62920524380803 L41.19155585308296,-17.601857408876377 L41.215436170284455,-17.574284031241557 L41.23618117063174,-17.546512805703557 L41.253770017771615,-17.518571625781515 L41.26818504540255,-17.49048855569736 L41.27941177501877,-17.462291802188023 L41.28743893045256,-17.434009686174463 L41.29225844920001,-17.405670614316055 L41.293865490519124,-17.377303050478833 " />
			<path d="M41.293865490519124,-17.37730305047883 L41.29225844029179,-17.34893548714626 L41.28743891264506,-17.320596416801322 L41.27941174832989,-17.29231430330852 L41.26818500985908,-17.26411755332469 L41.25376997340926,-17.23603448776727 L41.236181117495065,-17.208093313368625 L41.21543610842683,-17.180322094345147 L41.19155578256651,-17.152748724209427 L41.16456412539958,-17.12540089775392 L41.134488247443876,-17.0983060832342 L41.101358357019755,-17.071491494779732 L41.065207729908686,-17.044984065059914 L40.98399250247609,-16.992996843203716 L40.891168774683926,-16.942553229832384 " />
			<path d="M40.89116877468392,-16.942553229832384 L0.7770626860855288,3.257009058885062 " />
			<path d="M0.7770626860855288,3.2570090588850573 L0.6974392304264461,3.2948832734031765 L0.6112686460198526,3.3316188940131726 L0.5187585253512381,3.367127421387336 L0.4201317334042205,3.401323312373043 L0.3156258707592885,3.4341241860737024 L0.20549270119318663,3.4654510223115516 L0.08999754515792535,3.4952283519941867 L-0.0305813593994253,3.523384438926217 L-0.15595352733632262,3.549851452628041 L-0.28581692611890164,3.574565631745415 L-0.41985870344480425,3.5974674376561375 L-0.5577559409317816,3.6185016979038096 L-0.6991764320563545,3.637617739113111 L-0.8437794824684288,3.654769509066399 L-0.9912167307538329,3.669915687647541 L-1.1411329876674698,3.683019786385685 L-1.2931670918153209,3.694050236359188 L-1.4469527797238795,3.70298046424791 L-1.6021195682009384,3.709788956350672 L-1.7582936468620538,3.714459310413645 L-1.9150987786724945,3.7169802751448167 L-2.072157206335219,3.717345777319338 L-2.229090562341297,3.715554936410458 L-2.385520780490371,3.711612066710784 L-2.5410710066852515,3.7055266669387783 L-2.6953665068064443,3.697313397355509 L-2.848035569479468,3.686992044446799 L-2.9987104015601114,3.6745874732558503 L-3.1470280141803375,3.6601295674811736 L-3.2926310972202546,3.6436531574841435 L-3.4351688800994955,3.625197936379605 L-3.5742979768142478,3.6048083644116895 " />
			<path d="M0.7773977470610447,-2130.6959980424367 L0.697774291401962,-2130.6581238279186 L0.6116037069953686,-2130.6213882073084 L0.5190935863267541,-2130.5858796799344 L0.42046679437973644,-2130.5516837889486 L0.31596093173480444,-2130.518882915248 L0.20582776216870258,-2130.48755607901 L0.0903326061334413,-2130.4577787493276 L-0.030246298423909357,-2130.4296226623956 L-0.15561846636080667,-2130.403155648694 L-0.2854818651433857,-2130.3784414695765 L-0.4195236424692883,-2130.3555396636657 L-0.5574208799562657,-2130.334505403418 L-0.6988413710808385,-2130.315389362209 L-0.8434444214929129,-2130.298237592255 L-0.9908816697783169,-2130.2830914136744 L-1.140797926691954,-2130.2699873149363 L-1.292832030839805,-2130.258956864963 L-1.4466177187483635,-2130.250026637074 L-1.6017845072254224,-2130.2432181449713 L-1.7579585858865379,-2130.2385477909083 L-1.9147637176969785,-2130.236026826177 L-2.071822145359703,-2130.2356613240026 L-2.228755501365781,-2130.2374521649112 L-2.385185719514855,-2130.241395034611 L-2.5407359457097356,-2130.247480434383 L-2.6950314458309284,-2130.2556937039662 L-2.847700508503952,-2130.266015056875 L-2.9983753405845954,-2130.278419628066 L-3.1466929532048216,-2130.2928775338405 L-3.2922960362447387,-2130.309353943838 L-3.4348338191239796,-2130.327809164942 L-3.573962915838732,-2130.34819873691 " />
			<path d="M-31.197667907941238,-0.6883510761214637 L-3.574297976814277,3.6048083644116957 " />
			<path d="M-31.197332846965715,-2134.641358177443 L-3.573962915838754,-2130.3481987369096 " />
			<path d="M324.0598151168776,54.52486995680405 L323.87741723552904,54.49425989638408 L323.7026912061049,54.46032768355833 L323.5364089875809,54.42322323460632 L323.3793052332401,54.38311048109855 L323.2320740448925,54.3401666456287 L323.09536590625703,54.29458145882456 L322.96978480905165,54.24655632109701 L322.85588558449126,54.19630341283076 L322.75417145198196,54.14404475694778 L322.708026386734,54.11723510655569 L322.6650917958417,54.09001123798549 L322.62541511485324,54.062403229062575 L322.5890401798707,54.034441582023234 L322.5560071791187,54.006157189814765 L322.52635260854277,53.977581301963966 L322.50010923148795,53.94874549005159 L322.47730604250035,53.91968161283106 L322.4579682352931,53.89042178102983 L322.4421171749117,53.86099832187244 L322.4297703741289,53.83144374336429 L322.4209414740964,53.80179069837579 L322.4156402292733,53.77207194856632 L322.4138724966492,53.74232032818813 " />
			<path d="M322.4138724966492,53.74232032818812 L322.41547954270317,53.7139527702735 L322.4202990667419,53.68561370484139 L322.42832622801717,53.657331595756325 L322.43955296401793,53.629134849675694 L322.453967998568,53.60105178751794 L322.4715568531521,53.573110616016955 L322.4923018614582,53.54533939939112 L322.51618218712144,53.51776603115548 L322.54317384465236,53.49041820610544 L322.573249723528,53.463323392499944 L322.6063796154218,53.436508804472304 L322.64253024454507,53.410001374696186 L322.72374547759495,53.35801415129726 L322.8165692130603,53.30757053451261 " />
			<path d="M324.0598151168776,-2079.4281891821956 L323.87741723552904,-2079.4587992426154 L323.7026912061049,-2079.4927314554416 L323.5364089875809,-2079.529835904393 L323.3793052332401,-2079.569948657901 L323.2320740448925,-2079.612892493371 L323.09536590625703,-2079.658477680175 L322.96978480905165,-2079.7065028179027 L322.85588558449126,-2079.756755726169 L322.75417145198196,-2079.809014382052 L322.708026386734,-2079.835824032444 L322.6650917958417,-2079.8630479010144 L322.62541511485324,-2079.8906559099373 L322.5890401798707,-2079.9186175569766 L322.5560071791187,-2079.946901949185 L322.52635260854277,-2079.9754778370357 L322.50010923148795,-2080.004313648948 L322.47730604250035,-2080.033377526169 L322.4579682352931,-2080.06263735797 L322.4421171749117,-2080.0920608171273 L322.4297703741289,-2080.121615395635 L322.4209414740964,-2080.151268440624 L322.4156402292733,-2080.1809871904334 L322.4138724966492,-2080.2107388108116 " />
			<path d="M396.14865182103375,37.40116245840972 L396.24147555649904,37.45160607519437 L396.322690789549,37.503593298593294 L396.3588414186722,37.53010072836941 L396.391971310566,37.55691531639706 L396.4220471894417,37.584010130002554 L396.4490388469726,37.6113579550526 L396.47291917263584,37.63893132328823 L396.49366418094195,37.66670253991407 L396.51125303552607,37.694643711415054 L396.5256680700761,37.72272677357281 L396.5368948060769,37.75092351965344 L396.54492196735214,37.7792056287385 L396.5497414913909,37.807544694170616 L396.5513485374448,37.83591225208523 " />
			<path d="M396.5513485374448,37.83591225208524 L396.5497414913909,37.86427980999986 L396.54492196735214,37.89261887543197 L396.5368948060769,37.92090098451703 L396.5256680700761,37.949097730597664 L396.51125303552607,37.97718079275542 L396.49366418094195,38.0051219642564 L396.47291917263584,38.03289318088224 L396.4490388469726,38.060466549117876 L396.4220471894417,38.08781437416792 L396.391971310566,38.114909187773414 L396.3588414186722,38.141723775801054 L396.322690789549,38.16823120557717 L396.2414755564991,38.2202184289761 L396.14865182103375,38.270662045760744 " />
			<path d="M396.1486518210338,38.27066204576075 L356.03454570567874,58.470224334409345 " />
			<path d="M356.03454570567874,58.47022433440934 L355.9549222499695,58.508098549565034 L355.86875166551425,58.544834172086475 L355.7762415447986,58.58034270264136 L355.6776147528063,58.614538598069394 L355.5731088901179,58.647339477463284 L355.4629757205103,58.67866632063155 L355.3474805644356,58.7084436584651 L355.22690165984096,58.7365997547489 L355.101529491869,58.76306677898083 L354.97166609305367,58.78778096978126 L354.83762431569744,58.81068278849986 L354.6997270781826,58.83171706264937 L354.5583065870327,58.85083311882097 L354.4137035365979,58.86798490476099 L354.26626628829246,58.88313110031476 L354.11635003136143,58.89623521697057 L353.964315927199,58.90726568576358 L353.8105302392786,58.91619593332834 L353.6553634507925,58.92300444591625 L353.4991893721252,58.92767482122414 L353.3423842403114,58.93019580790881 L353.1853258126482,58.93056133269253 L353.0283924566445,58.92877051499408 L352.87196223850066,58.924827669050146 L352.7164120123138,58.918742293521966 L352.5621165122035,58.910529048612204 L352.40944744954413,58.90020772074724 L352.25877261747996,58.88780317490994 L352.1104550048789,58.87334529473774 L351.96485192186077,58.85686891053033 L351.822314139006,58.83841371534044 L351.6831850423182,58.818024169349755 " />
			<path d="M356.03454570567874,-2075.4828348045903 L355.9549222499695,-2075.4449605894347 L355.86875166551425,-2075.408224966913 L355.7762415447986,-2075.372716436358 L355.6776147528063,-2075.3385205409304 L355.5731088901179,-2075.3057196615364 L355.4629757205103,-2075.274392818368 L355.3474805644356,-2075.244615480535 L355.22690165984096,-2075.216459384251 L355.101529491869,-2075.189992360019 L354.97166609305367,-2075.1652781692183 L354.83762431569744,-2075.1423763505 L354.6997270781826,-2075.12134207635 L354.5583065870327,-2075.102226020179 L354.4137035365979,-2075.0850742342386 L354.26626628829246,-2075.069928038685 L354.11635003136143,-2075.0568239220293 L353.964315927199,-2075.045793453236 L353.8105302392786,-2075.0368632056716 L353.6553634507925,-2075.0300546930835 L353.4991893721252,-2075.0253843177757 L353.3423842403114,-2075.022863331091 L353.1853258126482,-2075.022497806307 L353.0283924566445,-2075.0242886240057 L352.87196223850066,-2075.0282314699493 L352.7164120123138,-2075.034316845478 L352.5621165122035,-2075.0425300903876 L352.40944744954413,-2075.0528514182524 L352.25877261747996,-2075.06525596409 L352.1104550048789,-2075.0797138442617 L351.96485192186077,-2075.0961902284694 L351.822314139006,-2075.114645423659 L351.6831850423182,-2075.13503496965 " />
			<path d="M324.05981511687764,54.524869956804054 L351.6831850423182,58.818024169349755 " />
			<path d="M324.05981511687764,-2079.4281891821956 L351.6831850423182,-2075.1350349696495 " />
			<path d="M679.3173321326707,109.73809375359434 L679.1349342513222,109.70748369317437 L678.9602082218979,109.67355148034864 L678.7939260033739,109.63644703139661 L678.6368222490331,109.59633427788884 L678.4895910606856,109.553390442419 L678.3528829220502,109.50780525561485 L678.2273018248447,109.4597801178873 L678.1134026002843,109.40952720962105 L678.011688467775,109.35726855373807 L677.9655434025271,109.33045890334598 L677.9226088116349,109.30323503477578 L677.8829321306464,109.27562702585287 L677.8465571956639,109.24766537881352 L677.8135241949118,109.21938098660506 L677.7838696243359,109.19080509875427 L677.7576262472811,109.1619692868419 L677.7348230582934,109.13290540962136 L677.7154852510862,109.10364557782013 L677.6996341907047,109.07422211866273 L677.6872873899221,109.04466754015459 L677.6784584898895,109.01501449516608 L677.6731572450664,108.98529574535661 L677.6713895124423,108.95554412497843 " />
			<path d="M677.6713895124423,108.95554412497842 L677.6729965584963,108.9271765670638 L677.677816082535,108.89883750163169 L677.6858432438103,108.87055539254662 L677.697069979811,108.84235864646598 L677.7114850143611,108.81427558430823 L677.7290738689452,108.78633441280725 L677.7498188772513,108.75856319618141 L677.7736992029145,108.73098982794578 L677.8006908604455,108.70364200289573 L677.8307667393211,108.67654718929025 L677.863896631215,108.6497326012626 L677.9000472603382,108.62322517148648 L677.981262493388,108.57123794808756 L678.0740862288534,108.52079433130291 " />
			<path d="M679.3173321326707,-2024.2149653854053 L679.1349342513222,-2024.2455754458254 L678.9602082218979,-2024.279507658651 L678.7939260033739,-2024.316612107603 L678.6368222490331,-2024.356724861111 L678.4895910606856,-2024.3996686965806 L678.3528829220502,-2024.4452538833848 L678.2273018248447,-2024.4932790211124 L678.1134026002843,-2024.5435319293786 L678.011688467775,-2024.5957905852615 L677.9655434025271,-2024.6226002356536 L677.9226088116349,-2024.6498241042239 L677.8829321306464,-2024.6774321131468 L677.8465571956639,-2024.705393760186 L677.8135241949118,-2024.7336781523945 L677.7838696243359,-2024.7622540402454 L677.7576262472811,-2024.7910898521577 L677.7348230582934,-2024.8201537293783 L677.7154852510862,-2024.8494135611795 L677.6996341907047,-2024.878837020337 L677.6872873899221,-2024.9083915988451 L677.6784584898895,-2024.9380446438336 L677.6731572450664,-2024.967763393643 L677.6713895124423,-2024.9975150140212 " />
			<path d="M677.6713895124423,-2024.9975150140212 L677.672773642872,-2025.0238421648933 L677.6769248367756,-2025.0501465406335 L677.6838395030318,-2025.076405385813 L677.6935116598908,-2025.1025959843896 L677.7059329401482,-2025.1286956793608 L677.7210925983842,-2025.154681892363 L677.7389775202587,-2025.1805321432032 L677.759572233856,-2025.2062240693076 L677.7828589230704,-2025.2317354450654 L677.8088174430172,-2025.257044201057 L677.8686578582398,-2025.3069664714162 L677.9388864569572,-2025.3558181704118 L678.019260277875,-2025.4034302917946 " />
			<path d="M751.4061688368267,92.61438625520005 L751.4989925722921,92.6648298719847 L751.5802078053418,92.71681709538362 L751.6163584344652,92.74332452515974 L751.649488326359,92.77013911318737 L751.6795642052346,92.79723392679287 L751.7065558627655,92.8245817518429 L751.7304361884287,92.85215512007854 L751.7511811967348,92.87992633670437 L751.7687700513189,92.90786750820534 L751.783185085869,92.93595057036309 L751.7944118218697,92.96414731644373 L751.8024389831451,92.99242942552878 L751.8072585071837,93.02076849096089 L751.8088655532378,93.04913604887551 " />
			<path d="M751.8088655532378,93.04913604887551 L751.8072585071837,93.07750360679013 L751.8024389831451,93.10584267222224 L751.7944118218697,93.1341247813073 L751.783185085869,93.16232152738795 L751.7687700513189,93.1904045895457 L751.7511811967348,93.21834576104668 L751.7304361884287,93.24611697767251 L751.7065558627655,93.27369034590815 L751.6795642052346,93.3010381709582 L751.6494883263589,93.32813298456368 L751.616358434465,93.35494757259133 L751.5802078053418,93.38145500236745 L751.498992572292,93.43344222576637 L751.4061688368266,93.48388584255102 " />
			<path d="M751.4061688368267,93.48388584255103 L711.2920627214717,113.68344813119963 " />
			<path d="M711.2920627214717,113.68344813119961 L711.2124392657624,113.72132234635531 L711.1262686813071,113.75805796887676 L711.0337585605915,113.79356649943163 L710.9351317685991,113.82776239485968 L710.8306259059108,113.86056327425356 L710.7204927363032,113.89189011742184 L710.6049975802285,113.92166745525539 L710.4844186756338,113.94982355153918 L710.3590465076619,113.97629057577112 L710.2291831088465,114.00100476657154 L710.0951413314904,114.02390658529015 L709.9572440939755,114.04494085943965 L709.8158236028256,114.06405691561125 L709.6712205523909,114.08120870155126 L709.5237833040853,114.09635489710504 L709.3738670471544,114.10945901376085 L709.2218329429919,114.12048948255386 L709.0680472550715,114.12941973011861 L708.9128804665854,114.13622824270654 L708.7567063879181,114.14089861801442 L708.5999012561043,114.14341960469909 L708.4428428284411,114.14378512948281 L708.2859094724374,114.14199431178436 L708.1294792542935,114.13805146584043 L707.9739290281068,114.13196609031225 L707.8196335279964,114.12375284540248 L707.6669644653371,114.11343151753752 L707.5162896332729,114.10102697170022 L707.3679720206718,114.08656909152802 L707.2223689376536,114.07009270732061 L707.0798311547989,114.05163751213072 L706.9407020581111,114.03124796614003 " />
			<path d="M711.2748774858348,-2020.261067859221 L711.1943644134094,-2020.2236982443915 L711.1074380999279,-2020.187470502122 L711.0143050494555,-2020.152470695836 L710.915186510919,-2020.1187819718436 L710.8103179525023,-2020.08648436182 L710.6999485022629,-2020.0556545926793 L710.5843403562988,-2020.0263659043 L710.4637681558681,-2019.998687875536 L710.3385183349469,-2019.9726862589216 L710.2088884397691,-2019.9484228244705 L710.0751864219696,-2019.925955212932 L709.9377299070076,-2019.905336798859 L709.7968454396083,-2019.8866165638103 L709.6528677080165,-2019.8698389799888 L709.5061387489033,-2019.855043904592 L709.3570071348166,-2019.8422664851273 L709.2058271461045,-2019.8315370759137 L709.0529579292789,-2019.8228811659721 L708.8987626438192,-2019.816319318473 L708.7436075994426,-2019.8118671218858 L708.5878613858911,-2019.8095351529466 L708.4318939973006,-2019.8093289515325 L708.2760759532357,-2019.8112490075 L708.120777418475,-2019.815290759522 L707.9663673236389,-2019.821444605923 L707.8132124887507,-2019.82969592749 L707.6616767518102,-2019.840025122202 L707.512120104453,-2019.8524076517963 L707.3648978367452,-2019.8668141000626 L707.2203596931495,-2019.8832102427255 L707.0788490416644,-2019.9015571287466 L706.9407020581111,-2019.9218111728596 " />
			<path d="M679.3173321326707,109.73809375359433 L706.9407020581112,114.03124796614004 " />
			<path d="M679.3173321326707,-2024.214965385405 L706.9407020581112,-2019.9218111728594 " />
			<path d="M1033.6992003640612,-1970.4041454948353 L1033.3316032446462,-1970.2190410109065 " />
			<path d="M1034.5748491484635,164.9513175503846 L1034.392451267115,164.92070748996463 L1034.2177252376907,164.8867752771389 L1034.0514430191668,164.84967082818687 L1033.894339264826,164.8095580746791 L1033.7471080764785,164.76661423920925 L1033.6103999378429,164.7210290524051 L1033.4848188406374,164.67300391467757 L1033.3709196160771,164.6227510064113 L1033.269205483568,164.57049235052833 L1033.2230604183198,164.54368270013623 L1033.1801258274277,164.51645883156604 L1033.140449146439,164.48885082264314 L1033.1040742114567,164.4608891756038 L1033.0710412107046,164.43260478339533 L1033.0413866401286,164.4040288955445 L1033.015143263074,164.37519308363215 L1032.9923400740863,164.3461292064116 L1032.9730022668791,164.31686937461038 L1032.9571512064977,164.287445915453 L1032.9448044057149,164.25789133694485 L1032.9359755056823,164.22823829195633 L1032.9306742608592,164.19851954214687 L1032.928906528235,164.16876792176868 " />
			<path d="M1032.928906528235,164.16876792176868 L1032.930513574289,164.14040036385407 L1032.9353330983279,164.11206129842193 L1032.9433602596032,164.0837791893369 L1032.954586995604,164.05558244325624 L1032.969002030154,164.0274993810985 L1032.986590884738,163.9995582095975 L1033.0073358930442,163.97178699297166 L1033.0312162187074,163.94421362473605 L1033.0582078762382,163.916865799686 L1033.088283755114,163.8897709860805 L1033.1214136470078,163.86295639805286 L1033.157564276131,163.83644896827673 L1033.2387795091809,163.7844617448778 L1033.3316032446462,163.73401812809317 " />
			<path d="M1034.5748491484635,-1969.001741588615 L1034.392451267115,-1969.032351649035 L1034.2177252376907,-1969.0662838618607 L1034.0514430191668,-1969.1033883108128 L1033.894339264826,-1969.1435010643206 L1033.7471080764785,-1969.1864448997903 L1033.6103999378429,-1969.2320300865945 L1033.4848188406374,-1969.280055224322 L1033.3709196160771,-1969.3303081325882 L1033.269205483568,-1969.3825667884712 L1033.2230604183198,-1969.4093764388633 L1033.1801258274277,-1969.4366003074335 L1033.140449146439,-1969.4642083163565 L1033.1040742114567,-1969.4921699633958 L1033.0710412107046,-1969.5204543556042 L1033.0413866401286,-1969.549030243455 L1033.015143263074,-1969.5778660553674 L1032.9923400740863,-1969.606929932588 L1032.9730022668791,-1969.6361897643892 L1032.9571512064977,-1969.6656132235466 L1032.9448044057149,-1969.6951678020548 L1032.9359755056823,-1969.7248208470432 L1032.9306742608592,-1969.7545395968527 L1032.928906528235,-1969.784291217231 " />
			<path d="M1032.928906528235,-1969.784291217231 L1032.930513574289,-1969.8126587751456 L1032.9353330983279,-1969.8409978405778 L1032.9433602596032,-1969.8692799496628 L1032.954586995604,-1969.8974766957433 L1032.969002030154,-1969.925559757901 L1032.986590884738,-1969.953500929402 L1033.0073358930442,-1969.981272146028 L1033.0312162187074,-1970.0088455142636 L1033.0582078762382,-1970.0361933393135 L1033.088283755114,-1970.063288152919 L1033.1214136470078,-1970.0901027409468 L1033.157564276131,-1970.1166101707229 L1033.2387795091809,-1970.168597394122 L1033.3316032446462,-1970.2190410109065 " />
			<path d="M1106.6636858526197,147.82761005199026 L1106.756509588085,147.8780536687749 L1106.8377248211348,147.93004089217382 L1106.873875450258,147.95654832194995 L1106.907005342152,147.9833629099776 L1106.9370812210277,148.0104577235831 L1106.9640728785585,148.03780554863314 L1106.9879532042216,148.06537891686875 L1107.0086982125279,148.0931501334946 L1107.026287067112,148.1210913049956 L1107.040702101662,148.14917436715334 L1107.0519288376627,148.177371113234 L1107.059955998938,148.20565322231903 L1107.0647755229768,148.23399228775116 L1107.0663825690308,148.26235984566577 " />
			<path d="M1107.0663825690308,148.26235984566577 L1107.0647755229768,148.29072740358038 L1107.059955998938,148.3190664690125 L1107.0519288376627,148.34734857809755 L1107.040702101662,148.3755453241782 L1107.026287067112,148.40362838633595 L1107.0086982125279,148.43156955783695 L1106.9879532042219,148.4593407744628 L1106.9640728785585,148.4869141426984 L1106.9370812210277,148.51426196774844 L1106.907005342152,148.54135678135395 L1106.873875450258,148.5681713693816 L1106.8377248211348,148.59467879915772 L1106.756509588085,148.64666602255664 L1106.6636858526197,148.69710963934128 " />
			<path d="M1106.6636858526194,148.6971096393413 L1066.5495797372646,168.89667192798987 " />
			<path d="M1066.9568493555362,-1965.2614688847455 L1066.5495797372646,-1965.0563872110097 " />
			<path d="M1066.5495797372646,168.89667192798987 L1066.4699562815554,168.93454614314558 L1066.3837856971002,168.97128176566702 L1066.2912755763844,169.0067902962219 L1066.192648784392,169.04098619164992 L1066.0881429217038,169.07378707104382 L1065.978009752096,169.1051139142121 L1065.8625145960214,169.13489125204563 L1065.7419356914268,169.16304734832946 L1065.616563523455,169.18951437256138 L1065.4867001246396,169.21422856336181 L1065.3526583472833,169.2371303820804 L1065.2147611097685,169.2581646562299 L1065.0733406186187,169.2772807124015 L1064.9287375681838,169.29443249834154 L1064.7813003198783,169.3095786938953 L1064.6313840629473,169.3226828105511 L1064.4793499587847,169.33371327934412 L1064.3255642708643,169.3426435269089 L1064.1703974823783,169.34945203949678 L1064.014223403711,169.3541224148047 L1063.8574182718974,169.35664340148935 L1063.700359844234,169.35700892627307 L1063.5434264882304,169.3552181085746 L1063.3869962700865,169.35127526263068 L1063.2314460438997,169.34518988710252 L1063.0771505437895,169.33697664219275 L1062.92448148113,169.32665531432778 L1062.7738066490658,169.31425076849047 L1062.6254890364646,169.29979288831828 L1062.4798859534467,169.28331650411087 L1062.337348170592,169.26486130892098 L1062.198219073904,169.2444717629303 " />
			<path d="M1066.5495797372646,-1965.0563872110097 L1066.4699562815554,-1965.018512995854 L1066.3837856971002,-1964.9817773733325 L1066.2912755763844,-1964.9462688427777 L1066.192648784392,-1964.9120729473498 L1066.0881429217038,-1964.8792720679558 L1065.978009752096,-1964.8479452247875 L1065.8625145960214,-1964.818167886954 L1065.7419356914268,-1964.7900117906702 L1065.616563523455,-1964.7635447664381 L1065.4867001246396,-1964.7388305756378 L1065.3526583472833,-1964.7159287569193 L1065.2147611097685,-1964.6948944827698 L1065.0733406186187,-1964.675778426598 L1064.9287375681838,-1964.658626640658 L1064.7813003198783,-1964.6434804451044 L1064.6313840629473,-1964.6303763284484 L1064.4793499587847,-1964.6193458596554 L1064.3255642708643,-1964.6104156120907 L1064.1703974823783,-1964.6036070995028 L1064.014223403711,-1964.598936724195 L1063.8574182718974,-1964.5964157375104 L1063.700359844234,-1964.5960502127266 L1063.5434264882304,-1964.597841030425 L1063.3869962700865,-1964.601783876369 L1063.2314460438997,-1964.607869251897 L1063.0771505437895,-1964.616082496807 L1062.92448148113,-1964.6264038246718 L1062.7738066490658,-1964.6388083705092 L1062.6254890364646,-1964.6532662506813 L1062.4798859534467,-1964.6697426348887 L1062.337348170592,-1964.6881978300787 L1062.198219073904,-1964.7085873760693 " />
			<path d="M1034.5748491484633,164.9513175503846 L1062.198219073904,169.2444717629303 " />
			<path d="M1034.5748491484633,-1969.001741588615 L1062.198219073904,-1964.7085873760693 " />
			<path d="M1400.583203854189,-1913.672360760187 L1399.7779526528527,-1913.2668744269988 " />
			<path d="M1401.0214942391208,221.9035296209973 L1400.8390963642955,221.87291959281237 L1400.6643703408065,221.83898741232164 L1400.4980881275474,221.80188299565077 L1400.3409843777242,221.76177027421573 L1400.1937531930766,221.71882647045558 L1400.0570450572593,221.67324131484415 L1399.9314639619342,221.62521620763985 L1399.8175647382673,221.574963329077 L1399.7158506056237,221.52270470193022 L1399.6697055399131,221.49589506549842 L1399.6267709482897,221.46867121059307 L1399.5870942662993,221.44106321502233 L1399.5507193300418,221.4131015810055 L1399.5176863277402,221.38481720147317 L1399.4880317553395,221.35624132593594 L1399.4617883761837,221.32740552595862 L1399.4389851848198,221.2983416602791 L1399.4196473749612,221.26908183960978 L1399.4037963116548,221.2396583911605 L1399.3914495076758,221.21010382292252 L1399.3826206041779,221.18045078775245 L1399.3773193556235,221.1507320472965 L1399.3755516190058,221.1209804357941 " />
			<path d="M1399.3755516190058,221.1209804357941 L1399.3771586613752,221.09261288268178 L1399.3819781822244,221.06427382160615 L1399.390005340808,221.03599171643174 L1399.4012320746165,221.00779497381635 L1399.4156471074737,220.97971191467926 L1399.4332359608643,220.95177074575568 L1399.4539809684745,220.92399953126568 L1399.4778612939372,220.89642616472642 L1399.5048529517592,220.86907834093586 L1399.5349288314133,220.84198352815588 L1399.5680587245672,220.81516894052308 L1399.6042093554263,220.78866151071492 L1399.6854245933441,220.73667428598793 L1399.77824833548,220.68623066622163 " />
			<path d="M1401.0211985564933,-1912.049575472223 L1400.838800681668,-1912.080185500408 L1400.664074658179,-1912.1141176808987 L1400.49779244492,-1912.1512220975696 L1400.3406886950968,-1912.1913348190046 L1400.1934575104492,-1912.2342786227648 L1400.0567493746319,-1912.2798637783762 L1399.9311682793068,-1912.3278888855807 L1399.8172690556398,-1912.3781417641435 L1399.7155549229963,-1912.4304003912903 L1399.6694098572857,-1912.457210027722 L1399.6264752656623,-1912.4844338826274 L1399.586798583672,-1912.512041878198 L1399.5504236474144,-1912.540003512215 L1399.5173906451128,-1912.5682878917473 L1399.487736072712,-1912.5968637672845 L1399.4614926935562,-1912.6256995672618 L1399.4386895021923,-1912.6547634329413 L1399.4193516923337,-1912.6840232536108 L1399.4035006290273,-1912.71344670206 L1399.3911538250484,-1912.743001270298 L1399.3823249215504,-1912.772654305468 L1399.377023672996,-1912.802373045924 L1399.3752559363784,-1912.8321246574264 " />
			<path d="M1399.3752559363784,-1912.8321246574264 L1399.3768629787478,-1912.8604922105387 L1399.381682499597,-1912.8888312716142 L1399.3897096581807,-1912.9171133767886 L1399.400936391989,-1912.9453101194042 L1399.4153514248462,-1912.9733931785413 L1399.4329402782369,-1913.0013343474648 L1399.453685285847,-1913.0291055619548 L1399.4775656113097,-1913.056678928494 L1399.5045572691317,-1913.0840267522847 L1399.5346331487858,-1913.1111215650646 L1399.5677630419398,-1913.1379361526974 L1399.6039136727989,-1913.1644435825056 L1399.6851289107167,-1913.2164308072327 L1399.7779526528525,-1913.2668744269988 " />
			<path d="M1473.110330825153,204.7798171988349 L1473.2031545812679,204.8302607928777 L1473.2843698335926,204.88224799509817 L1473.3205204717974,204.90875541488822 L1473.3536503723824,204.93556999333998 L1473.383726259545,204.9626647977853 L1473.4107179249456,204.9900126140959 L1473.4345982580494,205.01758597401738 L1473.4553432733558,205.04535718275847 L1473.4729321344894,205.0732983468078 L1473.4873471751291,205.10138140195016 L1473.4985739167514,205.12957814145437 L1473.5066010831727,205.1578602444043 L1473.5114206118753,205.18619930414434 L1473.513027662106,205.21456685681133 " />
			<path d="M1473.513027662106,205.21456685681133 L1473.5114206197366,205.24293440992366 L1473.5066010988874,205.2712734709993 L1473.4985739403037,205.2995555761737 L1473.4873472064953,205.3277523187891 L1473.4729321736381,205.35583537792618 L1473.4553433202475,205.38377654684976 L1473.4345983126373,205.41154776133976 L1473.4107179871746,205.43912112787902 L1473.3837263293526,205.46646895166958 L1473.3536504496985,205.49356376444956 L1473.3205205565446,205.52037835208236 L1473.2843699256855,205.54688578189052 L1473.2031546877677,205.5988730066175 L1473.1103309456319,205.6493166263838 " />
			<path d="M1473.2222081725847,-1929.1112430418184 L1473.289494974858,-1929.067038485274 L1473.3482073447406,-1929.021887697209 L1473.3981761638822,-1928.9759207324446 L1473.4392574993394,-1928.9292699967625 L1473.4713330181664,-1928.882069865516 L1473.4839637027083,-1928.8583062122536 L1473.494310328269,-1928.8344562965679 L1473.5023654427591,-1928.810537296205 L1473.508123244535,-1928.7865664386693 L1473.5115795865775,-1928.7625609888144 L1473.5127319794785,-1928.7385382364093 " />
			<path d="M1473.5127319794785,-1928.7385382364093 L1473.5111249371091,-1928.710170683297 L1473.50630541626,-1928.6818316222216 L1473.4982782576762,-1928.6535495170472 L1473.4870515238679,-1928.6253527744316 L1473.4726364910107,-1928.5972697152945 L1473.45504763762,-1928.569328546371 L1473.4343026300098,-1928.541557331881 L1473.4104223045472,-1928.5139839653418 L1473.3834306467252,-1928.4866361415511 L1473.353354767071,-1928.4595413287711 L1473.3202248739171,-1928.4327267411384 L1473.284074243058,-1928.4062193113302 L1473.2028590051402,-1928.3542320866031 L1473.1100352630044,-1928.303788466837 " />
			<path d="M1473.1103309456316,205.6493166263838 L1432.99622482735,225.84887891457757 " />
			<path d="M1473.1100352630042,-1928.3037884668367 L1432.9959291447226,-1908.104226178643 " />
			<path d="M1432.9962248273503,225.8488789145776 L1432.9166013716356,225.88675313029555 L1432.830430787175,225.92348875450412 L1432.737920666454,225.958997287867 L1432.6392938744568,225.99319318721706 L1432.5347880117638,226.0259940716376 L1432.4246548421515,226.057320920925 L1432.3091596860725,226.08709826595546 L1432.1885807814738,226.1152543704966 L1432.063208613498,226.14172140402638 L1431.933345214679,226.1664356051428 L1431.7993034373196,226.18933743517067 L1431.6614061998016,226.21037172159546 L1431.519985708649,226.22948779097885 L1431.3753826582117,226.24663959103526 L1431.2279454099041,226.26178580157605 L1431.078029152971,226.2748899340534 L1430.9259950488072,226.28592041946436 L1430.7722093608854,226.29485068440343 L1430.6170425723983,226.30165921508018 L1430.4608684937305,226.30632960914784 L1430.3040633619162,226.30885061521803 L1430.1470049342531,226.3092161599663 L1429.9900715782496,226.30742536276335 L1429.8336413601062,226.30348253779647 L1429.6780911339204,226.2973971836764 L1429.5237956338112,226.2891839605542 L1429.3711265711534,226.2788626548038 L1429.220451739091,226.2664581313547 L1429.072134126492,226.25200027379051 L1428.9265310434762,226.23552391235637 L1428.7839932606241,226.21706874005022 L1428.6448641639392,226.19667921699855 " />
			<path d="M1432.9959291447228,-1908.104226178643 L1432.9163056890081,-1908.0663519629252 L1432.8301351045475,-1908.0296163387166 L1432.7376249838267,-1907.9941078053537 L1432.6389981918294,-1907.9599119060035 L1432.5344923291364,-1907.9271110215832 L1432.424359159524,-1907.8957841722956 L1432.308864003445,-1907.8660068272652 L1432.1882850988463,-1907.8378507227242 L1432.0629129308707,-1907.8113836891944 L1431.9330495320517,-1907.786669488078 L1431.7990077546922,-1907.76376765805 L1431.6611105171742,-1907.7427333716253 L1431.5196900260216,-1907.7236173022418 L1431.3750869755843,-1907.7064655021854 L1431.2276497272767,-1907.6913192916445 L1431.0777334703437,-1907.6782151591672 L1430.9256993661797,-1907.6671846737563 L1430.771913678258,-1907.6582544088171 L1430.6167468897709,-1907.6514458781405 L1430.460572811103,-1907.6467754840728 L1430.3037676792887,-1907.6442544780027 L1430.1467092516257,-1907.6438889332544 L1429.9897758956222,-1907.6456797304572 L1429.8333456774787,-1907.6496225554242 L1429.677795451293,-1907.6557079095442 L1429.5234999511838,-1907.6639211326665 L1429.370830888526,-1907.674242438417 L1429.2201560564636,-1907.686646961866 L1429.0718384438646,-1907.7011048194302 L1428.9262353608488,-1907.7175811808643 L1428.7836975779967,-1907.7360363531704 L1428.6445684813118,-1907.756425876222 " />
			<path d="M1401.0214942391212,221.9035296209973 L1428.6448641639395,226.19667921699858 " />
			<path d="M1401.0211985564938,-1912.049575472223 L1428.644568481312,-1907.756425876222 " />
			<path d="M41.29386797509631,-33.20120181904311 L322.4138724966493,10.489757499104648 " />
			<path d="M396.5513485374449,22.01201631224513 L677.6713895124423,65.70298129589494 " />
			<path d="M751.8088655532378,77.22524010903541 L1032.9289065282353,120.91620509268522 " />
			<path d="M1107.0663825690306,132.43846390582564 L1399.3755456258884,177.86841391302926 " />
			<path d="M1473.5130254695316,189.39067331719866 L1497.8782054928788,193.17744790476735 " />
			<path d="M0.7770626860860332,3.2570058212224184 L322.4138724966493,53.24498443045995 " />
			<path d="M356.03454570567874,58.47022433440934 L677.6713895124423,108.45820822725022 " />
			<path d="M711.2920627214718,113.68344813119961 L1032.928906528235,163.67143202404048 " />
			<path d="M1066.5495797372646,168.89667192798987 L1399.3755515500945,220.62364176510965 " />
			<path d="M1432.9962206312694,225.84888102751833 L1432.9963098874136,225.84889489948227 " />
			<path d="M-33.99500518250425,1.949128241645223 L1431.442252507642,229.70367640340515 " />
			<path d="M-32.44094780273262,34.57710025699258 L1432.063875459551,262.1867318208607 " />
			<path d="M-33.99500518250425,32.287418010301536 L1431.442252507642,260.0419661720615 " />
			<path d="M8.090205273776894,-2191.7586994372787 L1472.8018010229653,-1965.2683042226993 " />
			<path d="M-32.08807711763239,-2171.9034543539065 L1432.623518631556,-1945.413059139327 " />
			<path d="M-33.64834916644102,-2168.058304972138 L1431.0632465827473,-1941.5679097575587 " />
			<path d="M0.7773976829680223,-2130.2877992234426 L322.61334412869473,-2080.5218583267524 " />
			<path d="M356.03454570567874,-2075.353891352445 L1431.657467498039,-1909.028820010326 " />
			<path d="M-33.68516732435212,-2137.6834081520446 L1431.0264284248362,-1911.1930129374653 " />
			<path d="M-31.197667907941238,-0.6883510761214708 L-31.197332846965725,-2134.641358177443 " />
			<path d="M40.89116877468392,-16.942553229832377 L40.89149960064407,-2123.9233838012474 " />
			<path d="M0.7770626860855288,3.257009058885064 L0.7773976576077216,-2130.1262832861175 " />
			<path d="M-3.574297976814268,3.604808364411692 L-3.573962915838755,-2130.34819873691 " />
			<path d="M324.0598151168776,54.52486995680405 L324.0598151168776,-2079.428189182195 " />
			<path d="M396.14865182103375,38.27066204576075 L396.14865182103375,-2068.9894752811565 " />
			<path d="M356.03454570567874,58.470224334409345 L356.03454570567874,-2075.1923754111986 " />
			<path d="M351.6831850423182,58.81802416934976 L351.6831850423182,-2075.1350349696495 " />
			<path d="M679.3173321326707,109.73809375359434 L679.3173321326707,-2024.214965385405 " />
			<path d="M751.4061688368267,93.48388584255105 L751.4061688368267,-2014.0555103522443 " />
			<path d="M711.2920627214718,113.68344813119961 L711.2920627214718,-2020.2584104822856 " />
			<path d="M706.9407020581111,114.03124796614003 L706.9407020581111,-2019.9218111728594 " />
			<path d="M1034.5748491484635,164.9513175503846 L1034.5748491484635,-1969.0017415886148 " />
			<path d="M1106.6636858526197,148.6971096393413 L1106.6636858526197,-1959.1215454233316 " />
			<path d="M1066.5495797372646,168.8966719279899 L1066.5495797372646,-1965.0563872110095 " />
			<path d="M1062.198219073904,169.2444717629303 L1062.198219073904,-1964.708587376069 " />
			<path d="M1401.021494239121,221.90352962099732 L1401.0211985564936,-1912.0495754722228 " />
			<path d="M1473.1103309456319,205.64931662638384 L1473.1100352630044,-1928.3037884668363 " />
			<path d="M1432.9962248273503,225.8488789145776 L1432.9959291447228,-1908.1042261786424 " />
			<path d="M1428.6448641639392,226.19667921699855 L1428.6445684813118,-1907.7564258762216 " />
			<path d="M1498.369641586346,193.08764079137768 L1473.513025446505,189.2244884468801 " />
			<path d="M1399.3755456028616,177.70222904271063 L1107.0663825690306,132.27227903908582 " />
			<path d="M1032.928906528235,120.75002022594535 L751.8088655532378,77.05905524229556 " />
			<path d="M677.6713895124423,65.53679642915509 L396.5513485374449,21.84583144550529 " />
			<path d="M322.4138724966493,10.323572632364808 L41.2938680011897,-33.36738668172759 " />
			<path d="M1432.5048737939464,262.4214555321422 L-32.93238389619979,34.66690737038226 " />
			<path d="M1473.2870812862047,-1965.354780600574 L8.575485537015888,-2191.8451758151537 " />
			<path d="M1432.0939633682976,-1908.799808104378 L355.47787509609424,-2075.2784541633123 " />
			<path d="M322.4730071679571,-2080.382042885313 L-0.5635191479179369,-2130.3336311204043 " />
			<path d="M-32.84327546823063,-2135.423908308507 L-32.843610529206146,-1.4709012071855803 " />
			<path d="M41.29419623844016,-2123.861114258963 L41.293865490519124,-17.37730305047883 " />
			<path d="M322.4138724966493,-2080.210738810811 L322.4138724966493,53.74232032818812 " />
			<path d="M396.5513485374449,-2068.927205726716 L396.5513485374449,37.835912252085244 " />
			<path d="M677.6713895124423,-2024.997515014021 L677.6713895124423,108.95554412497842 " />
			<path d="M751.8088655532378,-2013.993240797803 L751.8088655532378,93.04913604887551 " />
			<path d="M1032.928906528235,-1969.7842912172307 L1032.928906528235,164.16876792176865 " />
			<path d="M1107.0663825690306,-1959.0592758688908 L1107.0663825690306,148.26235984566577 " />
			<path d="M1399.3752559363786,-1912.8321246574264 L1399.375551619006,221.1209804357941 " />
			<path d="M1473.5127319794783,-1928.738538236409 L1473.5130276621057,205.21456685681133 " />

       </g>
    </g>
    
</svg>
