<?xml version="1.0" encoding="UTF-8" standalone="no"?>
<svg
   xmlns:svg="http://www.w3.org/2000/svg"
   xmlns="http://www.w3.org/2000/svg"
   width="480.0"
   height="480.0"

>
    <g transform="scale(0.14738454778474055, -0.14738454778474055)   translate(1501.9576475257877,-96.67567898929403)" stroke-width="1.0"  fill="none">
       <!-- hidden lines -->
       <g  stroke="rgb(0,0,0)" fill="none" stroke-dasharray="1.0,1.0" >
			<path d="M37.05397310784531,-28.788940184089398 L-37.05397310784531,-8.577682125264682 " />
			<path d="M-38.82901373576604,-4.946917204517726 L-38.826875621592116,-5.101899758497037 L-38.82046642997465,-5.2576751900238134 L-38.809801601217636,-5.41386822243919 L-38.794906827827674,-5.570102573047186 L-38.775817992618485,-5.726001859612674 L-38.75258108226609,-5.88119050709915 L-38.72525207652282,-6.0352946524619036 L-38.693896813357256,-6.187943045316824 L-38.658590830344764,-6.338767942315104 L-38.61941918269086,-6.487405993069174 L-38.57647623832577,-6.633499115495611 L-38.529865450563825,-6.776695358466245 L-38.47969910887537,-6.916649749689251 L-38.426098068371594,-7.053025126777613 L-38.36919145865395,-7.185492949502856 L-38.30911637272969,-7.313734091277221 L-38.246017536742755,-7.437439607957577 L-38.180046961315846,-7.55631148211892 L-38.1113635753435,-7.670063341004447 L-38.04013284311849,-7.778421146422614 L-37.96652636571382,-7.88112385492915 L-37.89072146758071,-7.977924046703566 L-37.81290076935851,-8.068588521605182 L-37.7332517479255,-8.152898860972691 L-37.651966284750756,-8.230651953813844 L-37.569240203634834,-8.301660486117616 L-37.48527279895309,-8.365753392110076 L-37.40026635553807,-8.422776266366814 L-37.31442566135766,-8.472591735789132 L-37.22795751416289,-8.51507979054787 L-37.14107022329406,-8.550138073197603 L-37.053973107845316,-8.577682125264678 " />
			<path d="M-37.80575502084702,28.697815103725556 L-37.86222706849601,28.664233327036452 L-37.91768517283106,28.62686054862548 L-37.97205976243421,28.58574365212159 L-38.02528262514167,28.540934218097636 L-38.077286993614905,28.49248845936326 L-38.12800762909943,28.4404671504467 L-38.17738090326586,28.384935551354 L-38.2253448780308,28.325963325701252 L-38.27183938325727,28.263624453322535 L-38.31680609223732,28.197997137463275 L-38.36018859486208,28.129163706675342 L-38.40193246838743,28.05721051153705 L-38.44198534570659,27.982227816327548 L-38.48029698104394,27.904309685791542 L-38.5168193129876,27.823553867136397 L-38.55150652478185,27.74006166740962 L-38.58431510180356,27.653937826410576 L-38.61520388615074,27.56529038529589 L-38.64413412827448,27.47423055104331 L-38.67106953558979,27.380872556944105 L-38.695976318004085,27.28533351929901 L-38.71882323030642,27.187733290497437 L-38.73958161136415,27.08819430866435 L-38.75822542007794,26.986841444063327 L-38.77473126804994,26.88380184244857 L-38.78907844892422,26.77920476556232 L-38.80124896436261,26.673181428977813 L-38.811227546623314,26.565864837491173 L-38.81900167771416,26.457389618268753 L-38.824561605096186,26.347891851959222 L-38.82790035391808,26.23750890198231 L-38.82901373576604,26.1263792422083 " />
			<path d="M-38.82901373576604,-4.946917204517726 L-38.82901373576604,26.126379242208294 " />
			<path d="M9.206828078704065,-2243.213855937314 L-36.549544101886745,-2231.052834198196 " />
			<path d="M-38.33235222734292,-2227.433357058363 L-38.32971826803161,-2227.588406666863 L-38.32282019959752,-2227.7442177387156 L-38.31167464009171,-2227.900414911401 L-38.29630844014326,-2228.05662189225 L-38.27675861827377,-2228.212462364962 L-38.253072271716476,-2228.3675608961894 L-38.22530646295493,-2228.5215438399846 L-38.193528082254424,-2228.6740402379496 L-38.15781368651753,-2228.8246827129037 L-38.11824931485179,-2228.973108353931 L-38.074930281293966,-2229.1189595906603 L-38.0279609451902,-2229.2618850546887 L-37.97745445978521,-2229.401540426054 L-37.92353249962616,-2229.537589262734 L-37.8663249674381,-2229.669703811165 L-37.80596968117685,-2229.7975657958277 L-37.742612042013505,-2229.920867186002 L-37.67640468405029,-2230.0393109378388 L-37.60750710661162,-2230.152611709965 L-37.53608528999626,-2230.2604965508976 L-37.46231129561624,-2230.362705556605 L-37.38636285148587,-2230.458992496639 L-37.30842292405935,-2230.549125407328 L-37.22867927744859,-2230.6328871505957 L-37.147324021082994,-2230.7100759370655 L-37.06455314690101,-2230.7805058121903 L-36.98056605718844,-2230.8440071042314 L-36.895565084200776,-2230.9004268330145 L-36.80975500272717,-2230.9496290784714 L-36.72334253676996,-2230.991495308083 L-36.63653586152848,-2231.0259246624346 L-36.54954410188675,-2231.0528341981967 " />
			<path d="M9.301350879057793,-2205.907680088995 L9.247705650051287,-2205.8832553860307 L9.19392033927447,-2205.8616915832567 L9.140044706967291,-2205.84300863073 L9.086128596931955,-2205.827223813247 " />
			<path d="M9.086128596931935,-2205.8272238132477 L-36.67024358365887,-2193.6662020741296 " />
			<path d="M-36.67024358365887,-2193.6662020741296 L-36.71786777875399,-2193.654680258511 L-36.76545024869253,-2193.645439976006 L-36.812956637317996,-2193.638487898413 L-36.86035264340716,-2193.6338290453677 L-36.90760404543674,-2193.6314667807196 L-36.95467672629249,-2193.631402810104 L-37.00153669790291,-2193.6336371797097 L-37.048150125779756,-2193.6381682762462 " />
			<path d="M-37.04815012577977,-2193.6381682762462 L-37.121065353580754,-2193.6499698134485 L-37.193153154533604,-2193.667451477603 L-37.264284137745534,-2193.690581890751 L-37.33433062972252,-2193.719319535953 L-37.40316690353138,-2193.753612831811 L-37.47066940446788,-2193.7934002250513 L-37.53671697182596,-2193.8386103010057 L-37.60119105636989,-2193.8891619117967 L-37.66397593311916,-2193.9449643219873 L-37.72495890906399,-2194.0059173714467 L-37.784030525438844,-2194.0719116551236 L-37.841084754190696,-2194.1428287194217 L-37.896019188289536,-2194.2185412748113 L-37.94873522553942,-2194.2989134243035 L-37.999138245560296,-2194.3838009073706 L-38.04713777962272,-2194.4730513588815 L-38.09264767303083,-2194.5665045825835 L-38.13558623976201,-2194.6639928386385 L-38.175876409085696,-2194.7653411447013 L-38.21344586389813,-2194.8703675899956 L-38.24822717052489,-2194.978883661828 L-38.28015789975801,-2195.0906945839506 L-38.30918073891063,-2195.205599666165 L-38.335243594687896,-2195.323392664545 L-38.35829968668962,-2195.443862151621 L-38.378307631376714,-2195.5667918958784 L-38.39523151635079,-2195.6919612498677 L-38.4090409648136,-2195.8191455462493 L-38.419711190090524,-2195.9481165010498 L-38.42722304012038,-2196.07864262341 L-38.43156303183156,-2196.210489631089 L-38.43272337534291,-2196.343420870981 " />
			<path d="M-38.33235222734292,-2227.4333570583626 L-38.4327233753429,-2196.343420870981 " />
			<path d="M8.764230458812548,-21.073571835635107 L-37.05400577485917,-8.577689240673351 " />
			<path d="M8.763911653841546,-2206.726015951079 L-37.05432457983017,-2194.230133356117 " />
			<path d="M-41.49160734498984,-8.41632136878397 L-41.222083429781804,-8.38701897691949 L-40.9380605656217,-8.362660949899574 L-40.64227404795406,-8.343481868839874 L-40.3375724626374,-8.329666438775348 L-40.02689025250514,-8.321347709849798 L-39.71321945707703,-8.31860579597026 L-39.399580897582936,-8.321467103266274 L-39.088995084803074,-8.32990407578443 L-38.78445312989798,-8.343835460867261 L-38.48888793837296,-8.363127091660749 L-38.20514596459477,-8.387593179214473 L-37.935959798880035,-8.416998101730771 L-37.68392185115671,-8.45105867373144 L-37.451459384639335,-8.489446873288715 L-37.343276530331785,-8.510149835622636 L-37.24081113995737,-8.531793001055732 L-37.14431006161643,-8.554324229306756 L-37.05400577485917,-8.577689240673347 " />
			<path d="M-41.49192614996085,-2194.068765484228 L-41.22240223475281,-2194.039463092364 L-40.9383793705927,-2194.0151050653435 L-40.64259285292507,-2193.995925984284 L-40.337891267608406,-2193.9821105542196 L-40.02720905747615,-2193.973791825294 L-39.71353826204804,-2193.9710499114144 L-39.399899702553945,-2193.9739112187103 L-39.08931388977408,-2193.9823481912285 L-38.78477193486899,-2193.9962795763113 L-38.48920674334397,-2194.015571207105 L-38.20546476956578,-2194.0400372946588 L-37.936278603851044,-2194.069442217175 L-37.68424065612772,-2194.1035027891758 L-37.451778189610344,-2194.141890988733 L-37.343595335302794,-2194.162593951067 L-37.24112994492838,-2194.1842371165 L-37.14462886658744,-2194.206768344751 L-37.05432457983018,-2194.2301333561177 " />
			<path d="M8.764230458812545,-21.073571835635107 L8.887390353880539,-21.109992823152698 L8.995507727759694,-21.14795986340634 L9.087998761042746,-21.187267939439536 L9.128224952169255,-21.20735878690017 L9.164364014478705,-21.227704792881347 L9.196367144965116,-21.24827848167706 L9.224191125878248,-21.269052070113275 L9.24779838308584,-21.289997505066978 L9.267157036814565,-21.311086501349727 L9.282240944701188,-21.332290579904623 L9.293029737095813,-21.353581106265068 L9.299508844569512,-21.37492932922339 L9.301669517589216,-21.39630641965714 " />
			<path d="M9.301669517589216,-21.396306419657144 L9.300160440717775,-21.41417257748268 L9.295634638633635,-21.432021884018614 L9.288096379943951,-21.44983750430922 L9.277552774518847,-21.467602635170685 L9.264013766785581,-21.48530052103938 L9.247492126349247,-21.502914469775234 L9.205566076760098,-21.537824198792524 L9.151932762261366,-21.572200149843102 L9.086794476779037,-21.60591266384916 L9.010396908643685,-21.638834584082147 L8.923028213904187,-21.670841735772004 L8.825017929461861,-21.701813394469102 L8.716735730124467,-21.73163274139222 L8.598590034268225,-21.7601873040452 L8.471026463366965,-21.78736938044023 L8.334526161198795,-21.81307644532781 L8.189603979069897,-21.837211536901084 L8.036806533900359,-21.85968362251599 L7.876710146496652,-21.880407942047846 " />
			<path d="M8.763911653841543,-2206.7260159510793 L8.887071548909535,-2206.7624369385967 L8.99518892278869,-2206.80040397885 L9.087679956071742,-2206.8397120548834 L9.127906147198251,-2206.859802902344 L9.164045209507702,-2206.8801489083253 L9.19604833999411,-2206.900722597121 L9.223872320907244,-2206.9214961855573 L9.247479578114838,-2206.942441620511 L9.266838231843561,-2206.963530616794 L9.281922139730185,-2206.9847346953484 L9.292710932124809,-2207.006025221709 L9.299190039598509,-2207.0273734446673 L9.301350712618213,-2207.048750535101 " />
			<path d="M9.301350712618213,-2207.048750535101 L9.299841635746773,-2207.066616692927 L9.295315833662631,-2207.0844659994627 L9.287777574972948,-2207.1022816197533 L9.277233969547844,-2207.1200467506146 L9.263694961814577,-2207.137744636483 L9.247173321378243,-2207.1553585852193 L9.205247271789094,-2207.1902683142366 L9.151613957290362,-2207.224644265287 L9.086475671808032,-2207.258356779293 L9.010078103672681,-2207.291278699526 L8.922709408933184,-2207.323285851216 L8.824699124490856,-2207.354257509913 L8.716416925153464,-2207.384076856836 L8.598271229297222,-2207.412631419489 L8.47070765839596,-2207.439813495884 L8.334207356227793,-2207.465520560772 L8.189285174098893,-2207.489655652345 L8.036487728929355,-2207.51212773796 L7.876391341525649,-2207.5328520574917 " />
			<path d="M7.876710146496631,-21.880407942047853 L-18.416079148083423,-25.06740735000696 " />
			<path d="M-18.416079148083423,-25.067407350006953 L-18.68560306329146,-25.096709741871432 L-18.96962592745157,-25.12106776889135 L-19.265412445119207,-25.140246849951048 L-19.570114030435867,-25.154062280015577 L-19.880796240568124,-25.162381008941125 L-20.194467035996237,-25.165122922820665 L-20.508105595490328,-25.16226161552465 L-20.81869140827019,-25.153824643006494 L-21.123233363175284,-25.139893257923664 L-21.418798554700302,-25.120601627130174 L-21.702540528478497,-25.096135539576448 L-21.971726694193233,-25.066730617060152 L-22.223764641916553,-25.032670045059483 L-22.456227108433932,-24.994281845502208 L-22.564409962741482,-24.973578883168287 L-22.66687535311589,-24.95193571773519 L-22.763376431456834,-24.929404489484167 L-22.853680718214083,-24.906039478117577 " />
			<path d="M-18.416397953054428,-2210.719851465451 L-18.685921868262465,-2210.7491538573154 L-18.969944732422576,-2210.7735118843357 L-19.265731250090212,-2210.792690965395 L-19.570432835406873,-2210.8065063954596 L-19.88111504553913,-2210.814825124385 L-20.194785840967242,-2210.8175670382648 L-20.508424400461333,-2210.814705730969 L-20.819010213241196,-2210.8062687584506 L-21.12355216814629,-2210.792337373368 L-21.41911735967131,-2210.773045742574 L-21.702859333449503,-2210.7485796550204 L-21.97204549916424,-2210.719174732504 L-22.22408344688756,-2210.6851141605034 L-22.456545913404938,-2210.6467259609462 L-22.564728767712488,-2210.6260229986124 L-22.667194158086893,-2210.6043798331793 L-22.76369523642784,-2210.5818486049284 L-22.853999523185088,-2210.5584835935615 " />
			<path d="M-22.853680718214097,-24.906039478117574 L-68.67191695188582,-12.410156883155818 " />
			<path d="M-22.85399952318509,-2210.5584835935615 L-68.67223575685681,-2198.0626009986 " />
			<path d="M-68.6719169518858,-12.410156883155814 L-68.7950768469538,-12.373735895638221 L-68.90319422083296,-12.33576885538458 L-68.99568525411601,-12.296460779351383 L-69.03591144524252,-12.276369931890754 L-69.07205050755196,-12.256023925909574 L-69.10405363803838,-12.235450237113861 L-69.1318776189515,-12.214676648677644 L-69.15548487615911,-12.193731213723943 L-69.17484352988782,-12.172642217441194 L-69.18992743777446,-12.151438138886299 L-69.20071623016908,-12.130147612525853 L-69.20719533764277,-12.108799389567528 L-69.20935601066248,-12.087422299133785 " />
			<path d="M-69.20935601066248,-12.08742229913378 L-69.20784693379105,-12.069556141308238 L-69.2033211317069,-12.051706834772308 L-69.19578287301722,-12.033891214481702 L-69.18523926759211,-12.016126083620238 L-69.17170025985885,-11.998428197751542 L-69.15517861942251,-11.980814249015689 L-69.11325256983336,-11.945904519998397 L-69.05961925533462,-11.91152856894782 L-68.9944809698523,-11.87781605494176 L-68.91808340171696,-11.844894134708776 L-68.83071470697745,-11.812886983018917 L-68.73270442253512,-11.781915324321819 L-68.62442222319774,-11.752095977398698 L-68.50627652734148,-11.723541414745721 L-68.37871295644022,-11.696359338350693 L-68.24221265427207,-11.67065227346311 L-68.09729047214316,-11.646517181889838 L-67.94449302697362,-11.624045096274928 L-67.78439663956989,-11.603320776743072 " />
			<path d="M-68.67223575685682,-2198.0626009986 L-68.79539565192482,-2198.0261800110825 L-68.90351302580397,-2197.988212970829 L-68.99600405908703,-2197.9489048947958 L-69.03623025021353,-2197.928814047335 L-69.07236931252298,-2197.908468041354 L-69.1043724430094,-2197.8878943525583 L-69.13219642392252,-2197.867120764122 L-69.15580368113012,-2197.846175329168 L-69.17516233485884,-2197.8250863328853 L-69.19024624274547,-2197.803882254331 L-69.2010350351401,-2197.78259172797 L-69.20751414261379,-2197.761243505012 L-69.20967481563349,-2197.739866414578 " />
			<path d="M-69.20967481563349,-2197.739866414578 L-69.20675450848499,-2197.715015524108 L-69.19799892440363,-2197.6902099920794 L-69.18342404399134,-2197.6654950932934 L-69.16305646916975,-2197.6409159371296 L-69.13693337462666,-2197.61651738521 L-69.10510243996526,-2197.5923439695202 L-69.06762176267969,-2197.5684398111302 L-69.02455975211618,-2197.5448485396632 " />
			<path d="M-68.67223566270697,-2197.417131987341 L-68.58143350706038,-2197.393644716102 L-68.48436958683318,-2197.3710004328536 L-68.38128023501403,-2197.349254272306 L-68.27241645542146,-2197.328459182405 L-68.0384392812147,-2197.2899223046197 L-67.78471544454091,-2197.2557648921875 " />
			<path d="M-41.491607344989845,-8.416321368783969 L-67.7843966395699,-11.603320776743072 " />
			<path d="M-41.49192614996085,-2194.068765484228 L-67.7847154445409,-2197.255764892187 " />
			<path d="M-329.380976518541,-62.060866499489975 L-375.19921272674486,-49.564983897252546 " />
			<path d="M-329.38097651854105,-2247.7132719468927 L-375.1992127267449,-2235.217389344655 " />
			<path d="M-379.6368142965468,-49.40361656744157 L-379.367290381279,-49.37431412241784 L-379.08326751706926,-49.34995604275335 L-378.7874809993625,-49.33077691007073 L-378.48277941401767,-49.316961429902115 L-378.1720972038685,-49.308642652873814 L-377.85842640843475,-49.305900693356136 L-377.5447878489465,-49.30876195791814 L-377.23420203618383,-49.31719889101796 L-376.92966008130713,-49.33113024037775 L-376.6340948898214,-49.35042183948753 L-376.35035291609313,-49.37488789970201 L-376.0811667504383,-49.40429279948682 L-375.8291288027844,-49.43835335358266 L-375.59666633634527,-49.47674154023422 L-375.4884834820799,-49.4974444980307 L-375.3860180917496,-49.519087660218915 L-375.2895170134546,-49.54161888652542 L-375.1992127267449,-49.564983897252546 " />
			<path d="M-379.63681429654685,-2235.056022014844 L-379.3672903812791,-2235.02671956982 L-379.0832675170693,-2235.0023614901556 L-378.7874809993626,-2234.983182357473 L-378.4827794140177,-2234.9693668773048 L-378.17209720386853,-2234.9610481002765 L-377.8584264084348,-2234.958306140759 L-377.54478784894656,-2234.961167405321 L-377.2342020361839,-2234.9696043384206 L-376.9296600813072,-2234.98353568778 L-376.6340948898215,-2235.00282728689 L-376.3503529160932,-2235.0272933471047 L-376.08116675043834,-2235.0566982468895 L-375.82912880278445,-2235.090758800985 L-375.5966663363453,-2235.129146987637 L-375.48848348207997,-2235.1498499454333 L-375.38601809174963,-2235.1714931076212 L-375.28951701345466,-2235.1940243339277 L-375.199212726745,-2235.217389344655 " />
			<path d="M-329.380976518541,-62.06086649948998 L-329.2578166288405,-62.09728748679009 L-329.14969925892814,-62.13525452961474 L-329.0572082281364,-62.17456261101232 L-329.01698203768314,-62.19465346220022 L-328.98084297565714,-62.2149994726023 L-328.9488398450596,-62.23557316650908 L-328.92101586363685,-62.25634676074217 L-328.8974086055185,-62.277292202173285 L-328.8780499504761,-62.29838120560783 L-328.8629660408724,-62.31958529198185 L-328.85217724635766,-62.34087582682081 L-328.84569813636233,-62.362224058908225 L-328.8435374604221,-62.38360115911193 " />
			<path d="M-328.8435374604221,-62.38360115911193 L-328.8450465347701,-62.401467326891755 L-328.8495723344983,-62.41931664381189 L-328.8571105910014,-62.437132274905906 L-328.8676541944111,-62.45489741697888 L-328.8811932003014,-62.4725953144557 L-328.8977148390683,-62.49020927518443 L-328.9396408858417,-62.52511902929246 L-328.9932741982233,-62.55949500682171 L-329.0584124822839,-62.5932075485874 L-329.13481004968503,-62.626129497749304 L-329.22217874436467,-62.658136679421474 L-329.3201890294038,-62.68910836903458 L-329.42847122997216,-62.7189277476844 L-329.54661692766655,-62.74748234274895 L-329.6741805009818,-62.7746644521123 L-329.81068080610436,-62.80037155039496 L-329.9556029916888,-62.824506675658846 L-330.108400440772,-62.84697879512781 L-330.26849683250134,-62.867703148544855 " />
			<path d="M-329.38097651854105,-2247.7132719468927 L-329.25781662884054,-2247.749692934193 L-329.1496992589282,-2247.7876599770175 L-329.05720822813646,-2247.826968058415 L-329.0169820376832,-2247.8470589096028 L-328.9808429756572,-2247.867404920005 L-328.94883984505964,-2247.887978613912 L-328.9210158636369,-2247.908752208145 L-328.89740860551854,-2247.9296976495757 L-328.87804995047617,-2247.9507866530103 L-328.86296604087244,-2247.9719907393846 L-328.8521772463577,-2247.9932812742236 L-328.8456981363624,-2248.014629506311 L-328.84353746042217,-2248.0360066065145 " />
			<path d="M-330.26849683250134,-62.86770314854488 L-356.56128613357725,-66.05470791231164 " />
			<path d="M-356.5612861335772,-66.05470791231164 L-356.83081004884497,-66.08401035733536 L-357.1148329130547,-66.10836843699985 L-357.41061943076147,-66.12754756968248 L-357.7153210161063,-66.1413630498511 L-358.0260032262555,-66.14968182687939 L-358.33967402168923,-66.15242378639707 L-358.6533125811775,-66.14956252183507 L-358.96389839394016,-66.14112558873525 L-359.26844034881685,-66.12719423937546 L-359.56400554030256,-66.10790264026568 L-359.84774751403086,-66.0834365800512 L-360.1169336796857,-66.05403168026639 L-360.3689716273396,-66.01997112617055 L-360.6014340937787,-65.98158293951899 L-360.7096169480441,-65.9608799817225 L-360.8120823383744,-65.9392368195343 L-360.90858341666944,-65.91670559322779 L-360.99888770337907,-65.89334058250067 " />
			<path d="M-356.56128613357725,-2251.707113359714 L-356.830810048845,-2251.736415804738 L-357.1148329130548,-2251.7607738844026 L-357.4106194307615,-2251.779953017085 L-357.7153210161064,-2251.7937684972535 L-358.02600322625557,-2251.802087274282 L-358.3396740216893,-2251.8048292337994 L-358.65331258117754,-2251.8019679692375 L-358.9638983939402,-2251.7935310361377 L-359.2684403488169,-2251.779599686778 L-359.5640055403026,-2251.7603080876684 L-359.8477475140309,-2251.7358420274536 L-360.11693367968576,-2251.706437127669 L-360.36897162733965,-2251.6723765735733 L-360.6014340937788,-2251.6339883869214 L-360.70961694804413,-2251.613285429125 L-360.81208233837447,-2251.591642266937 L-360.90858341666944,-2251.5691110406306 L-360.9988877033791,-2251.545746029903 " />
			<path d="M-360.99888770337907,-65.89334058250066 L-406.81712391158294,-53.39745798026322 " />
			<path d="M-360.9988877033791,-2251.545746029903 L-406.817123911583,-2239.0498634276655 " />
			<path d="M-406.817123911583,-53.39745798026322 L-406.9402838012835,-53.361036992963115 L-407.04840117119585,-53.32306995013846 L-407.1408922019876,-53.28376186874088 L-407.18111839244085,-53.26367101755298 L-407.21725745446685,-53.2433250071509 L-407.2492605850644,-53.222751313244125 L-407.27708456648713,-53.20197771901103 L-407.3006918246055,-53.18103227757992 L-407.3200504796479,-53.15994327414537 L-407.3351343892516,-53.13873918777135 L-407.34592318376633,-53.11744865293239 L-407.35240229376166,-53.09610042084498 L-407.3545629697019,-53.074723320641276 " />
			<path d="M-407.3545629697019,-53.07472332064127 L-407.35305389535387,-53.05685715286145 L-407.3485280956257,-53.03900783594131 L-407.3409898391226,-53.021192204847296 L-407.3304462357129,-53.00342706277432 L-407.31690722982256,-52.9857291652975 L-407.30038559105566,-52.968115204568775 L-407.2584595442823,-52.93320545046073 L-407.2048262319007,-52.89882947293149 L-407.13968794784006,-52.8651169311658 L-407.06329038043896,-52.8321949820039 L-406.9759216857593,-52.80018780033173 L-406.87791140072017,-52.769216110718624 L-406.7696292001518,-52.739396732068805 L-406.65148350245744,-52.71084213700425 L-406.5239199291422,-52.683660027640904 L-406.3874196240196,-52.65795292935824 L-406.2424974384352,-52.633817804094356 L-406.08969998935197,-52.61134568462539 L-405.92960359762264,-52.59062133120834 " />
			<path d="M-406.81712391158305,-2239.0498634276655 L-406.9157198721254,-2239.0212031702895 L-407.0049945480777,-2238.9915501583214 L-407.0846465604563,-2238.9610044962365 L-407.15440701506134,-2238.9296693019746 " />
			<path d="M-406.81712391158305,-2238.404394108422 L-406.7263217500346,-2238.3809068081964 L-406.62925782198323,-2238.358262495691 L-406.5261684605012,-2238.336516305703 L-406.4173046694989,-2238.3157211862626 L-406.1833274676397,-2238.277184249447 L-405.9296035976227,-2238.243026778611 " />
			<path d="M-379.6368142965468,-49.403616567441574 L-405.9296035976227,-52.59062133120834 " />
			<path d="M-379.63681429654685,-2235.056022014844 L-405.92960359762276,-2238.243026778611 " />
			<path d="M-667.5262161374407,-103.04816827147783 L-713.3444523456445,-90.5522856692404 " />
			<path d="M-667.5262161374407,-2288.7005737188806 L-713.3444523456445,-2276.204691116643 " />
			<path d="M-717.7820539154463,-90.39091833942945 L-717.5125300001786,-90.36161589440573 L-717.2285071359688,-90.33725781474124 L-716.9327206182621,-90.31807868205861 L-716.6280190329173,-90.30426320189 L-716.3173368227681,-90.2959444248617 L-716.0036660273344,-90.29320246534402 L-715.6900274678461,-90.29606372990602 L-715.3794416550835,-90.30450066300584 L-715.0748997002067,-90.31843201236563 L-714.779334508721,-90.33772361147541 L-714.4955925349927,-90.36218967168989 L-714.226406369338,-90.3915945714747 L-713.974368421684,-90.42565512557054 L-713.7419059552449,-90.4640433122221 L-713.6337231009795,-90.48474627001859 L-713.5312577106492,-90.50638943220679 L-713.4347566323542,-90.5289206585133 L-713.3444523456445,-90.55228566924042 " />
			<path d="M-717.7820539154463,-2276.043323786832 L-717.5125300001786,-2276.014021341808 L-717.2285071359688,-2275.9896632621435 L-716.9327206182621,-2275.970484129461 L-716.6280190329173,-2275.9566686492926 L-716.3173368227681,-2275.9483498722643 L-716.0036660273344,-2275.9456079127467 L-715.6900274678461,-2275.9484691773087 L-715.3794416550835,-2275.9569061104085 L-715.0748997002067,-2275.970837459768 L-714.779334508721,-2275.9901290588778 L-714.4955925349927,-2276.0145951190925 L-714.226406369338,-2276.0440000188773 L-713.974368421684,-2276.078060572973 L-713.7419059552449,-2276.1164487596247 L-713.6337231009795,-2276.137151717421 L-713.5312577106492,-2276.158794879609 L-713.4347566323542,-2276.1813261059156 L-713.3444523456445,-2276.204691116643 " />
			<path d="M-667.5262161374405,-103.04816827147785 L-667.40305624774,-103.08458925877797 L-667.2949388778277,-103.12255630160261 L-667.202447847036,-103.1618643830002 L-667.1622216565827,-103.1819552341881 L-667.1260825945567,-103.20230124459017 L-667.0940794639591,-103.22287493849696 L-667.0662554825363,-103.24364853273005 L-667.042648224418,-103.26459397416116 L-667.0232895693757,-103.2856829775957 L-667.008205659772,-103.30688706396973 L-666.9974168652572,-103.3281775988087 L-666.9909377552618,-103.3495258308961 L-666.9887770793216,-103.3709029310998 " />
			<path d="M-666.9887770793216,-103.3709029310998 L-666.9902861536697,-103.38876909887962 L-666.9948119533979,-103.40661841579976 L-667.002350209901,-103.42443404689378 L-667.0128938133107,-103.44219918896675 L-667.026432819201,-103.45989708644358 L-667.0429544579679,-103.4775110471723 L-667.0848805047412,-103.51242080128034 L-667.1385138171228,-103.5467967788096 L-667.2036521011835,-103.58050932057527 L-667.2800496685845,-103.61343126973718 L-667.3674183632643,-103.64543845140935 L-667.4654286483034,-103.67641014102244 L-667.5737108488718,-103.70622951967228 L-667.6918565465661,-103.73478411473683 L-667.8194201198813,-103.76196622410016 L-667.9559204250039,-103.78767332238284 L-668.1008426105883,-103.81180844764671 L-668.2536400596716,-103.83428056711568 L-668.413736451401,-103.85500492053274 " />
			<path d="M-668.413736451401,-103.85500492053274 L-694.7065257524768,-107.0420096842995 " />
			<path d="M-694.7065257524768,-107.0420096842995 L-694.9760496677445,-107.07131212932322 L-695.2600725319543,-107.09567020898771 L-695.555859049661,-107.11484934167034 L-695.8605606350058,-107.12866482183895 L-696.171242845155,-107.13698359886725 L-696.4849136405887,-107.13972555838492 L-696.798552200077,-107.13686429382292 L-697.1091380128396,-107.12842736072311 L-697.4136799677163,-107.11449601136331 L-697.709245159202,-107.09520441225354 L-697.9929871329304,-107.07073835203906 L-698.2621732985851,-107.04133345225425 L-698.5142112462391,-107.0072728981584 L-698.7466737126782,-106.96888471150685 L-698.8548565669436,-106.94818175371036 L-698.9573219572738,-106.92653859152216 L-699.0538230355689,-106.90400736521565 L-699.1441273222786,-106.88064235448853 " />
			<path d="M-699.1441273222788,-106.88064235448851 L-744.9623635304827,-94.38475975225109 " />
			<path d="M-699.1441273222788,-2292.533047801891 L-699.5964554464139,-2292.4096855862176 " />
			<path d="M-744.9623635304825,-94.3847597522511 L-745.0855234201831,-94.34833876495098 L-745.1936407900954,-94.31037172212633 L-745.2861318208871,-94.27106364072876 L-745.3263580113404,-94.25097278954085 L-745.3624970733664,-94.23062677913877 L-745.394500203964,-94.21005308523199 L-745.4223241853867,-94.1892794909989 L-745.4459314435051,-94.16833404956779 L-745.4652900985474,-94.14724504613325 L-745.4803740081511,-94.12604095975922 L-745.4911628026659,-94.10475042492025 L-745.4976419126613,-94.08340219283285 L-745.4998025886015,-94.06202509262914 " />
			<path d="M-745.4998025886015,-94.06202509262914 L-745.4982935142534,-94.04415892484933 L-745.4937677145252,-94.02630960792919 L-745.4862294580221,-94.00849397683517 L-745.4756858546124,-93.9907288347622 L-745.4621468487221,-93.97303093728537 L-745.4456252099552,-93.95541697655665 L-745.4036991631818,-93.9205072224486 L-745.3500658508003,-93.88613124491935 L-745.2849275667396,-93.85241870315367 L-745.2085299993386,-93.81949675399177 L-745.1211613046588,-93.7874895723196 L-745.0231510196197,-93.7565178827065 L-744.9148688190513,-93.72669850405667 L-744.796723121357,-93.69814390899212 L-744.6691595480418,-93.67096179962878 L-744.5326592429192,-93.6452547013461 L-744.3877370573348,-93.62111957608224 L-744.2349396082515,-93.59864745661326 L-744.0748432165221,-93.57792310319621 " />
			<path d="M-744.9623635304827,-2279.3916958804098 L-744.8715613689342,-2279.3682085801843 L-744.7744974408828,-2279.3455642676795 L-744.6714080794007,-2279.3238180776907 L-744.5625442883985,-2279.3030229582505 L-744.3285670865392,-2279.264486021435 L-744.0748432165221,-2279.2303285505986 " />
			<path d="M-717.7820539154463,-90.39091833942945 L-744.0748432165221,-93.57792310319621 " />
			<path d="M-717.7820539154463,-2276.043323786832 L-744.0748432165221,-2279.2303285505986 " />
			<path d="M-1005.67145575634,-144.0354700434657 L-1051.489691964544,-131.53958744122826 " />
			<path d="M-1005.67145575634,-2329.687875490868 L-1051.489691964544,-2317.1919928886305 " />
			<path d="M-1055.9272935343458,-131.3782201114173 L-1055.657769619078,-131.3489176663936 L-1055.3737467548683,-131.3245595867291 L-1055.0779602371615,-131.30538045404649 L-1054.7732586518166,-131.29156497387785 L-1054.4625764416674,-131.28324619684955 L-1054.1489056462337,-131.28050423733188 L-1053.8352670867455,-131.28336550189388 L-1053.5246812739829,-131.2918024349937 L-1053.2201393191062,-131.3057337843535 L-1052.9245741276204,-131.32502538346327 L-1052.640832153892,-131.34949144367775 L-1052.3716459882373,-131.37889634346254 L-1052.1196080405834,-131.41295689755842 L-1051.8871455741441,-131.45134508420995 L-1051.7789627198788,-131.47204804200643 L-1051.6764973295485,-131.49369120419465 L-1051.5799962512535,-131.51622243050116 L-1051.489691964544,-131.5395874412283 " />
			<path d="M-1055.9272935343458,-2317.03062555882 L-1055.657769619078,-2317.001323113796 L-1055.3737467548683,-2316.9769650341314 L-1055.0779602371615,-2316.957785901449 L-1054.7732586518166,-2316.9439704212805 L-1054.4625764416674,-2316.935651644252 L-1054.1489056462337,-2316.9329096847346 L-1053.8352670867455,-2316.9357709492965 L-1053.5246812739829,-2316.9442078823963 L-1053.2201393191062,-2316.958139231756 L-1052.9245741276204,-2316.9774308308656 L-1052.640832153892,-2317.0018968910804 L-1052.3716459882373,-2317.031301790865 L-1052.1196080405834,-2317.0653623449607 L-1051.8871455741441,-2317.1037505316126 L-1051.7789627198788,-2317.124453489409 L-1051.6764973295485,-2317.146096651597 L-1051.5799962512535,-2317.1686278779034 L-1051.489691964544,-2317.191992888631 " />
			<path d="M-1005.6714557563402,-144.03547004346572 L-1005.5482958666396,-144.0718910307658 L-1005.4401784967273,-144.1098580735905 L-1005.3476874659356,-144.14916615498805 L-1005.3074612754823,-144.16925700617597 L-1005.2713222134563,-144.18960301657805 L-1005.2393190828587,-144.2101767104848 L-1005.211495101436,-144.2309503047179 L-1005.1878878433176,-144.25189574614902 L-1005.1685291882753,-144.27298474958357 L-1005.1534452786716,-144.29418883595758 L-1005.1426564841568,-144.31547937079654 L-1005.1361773741614,-144.33682760288394 L-1005.1340166982212,-144.35820470308767 " />
			<path d="M-1005.1340166982212,-144.35820470308767 L-1005.1355257725693,-144.3760708708675 L-1005.1400515722975,-144.39392018778761 L-1005.1475898288006,-144.41173581888162 L-1005.1581334322103,-144.4295009609546 L-1005.1716724381006,-144.44719885843142 L-1005.1881940768675,-144.46481281916016 L-1005.2301201236409,-144.4997225732682 L-1005.2837534360224,-144.53409855079744 L-1005.3488917200831,-144.56781109256312 L-1005.4252892874841,-144.60073304172505 L-1005.5126579821639,-144.6327402233972 L-1005.610668267203,-144.6637119130103 L-1005.7189504677714,-144.69353129166012 L-1005.8370961654657,-144.7220858867247 L-1005.9646597387809,-144.74926799608804 L-1006.1011600439035,-144.7749750943707 L-1006.2460822294879,-144.79911021963457 L-1006.3988796785712,-144.82158233910354 L-1006.5589760703006,-144.8423066925206 " />
			<path d="M-1006.5589760703006,-144.8423066925206 L-1032.8517653713764,-148.02931145628736 " />
			<path d="M-1032.8517653713761,-148.02931145628736 L-1033.121289286644,-148.05861390131108 L-1033.4053121508537,-148.08297198097557 L-1033.7010986685605,-148.10215111365818 L-1034.0058002539054,-148.1159665938268 L-1034.3164824640546,-148.12428537085512 L-1034.6301532594882,-148.12702733037278 L-1034.9437918189765,-148.12416606581078 L-1035.254377631739,-148.11572913271095 L-1035.5589195866157,-148.10179778335117 L-1035.8544847781016,-148.0825061842414 L-1036.13822675183,-148.05804012402692 L-1036.4074129174846,-148.02863522424212 L-1036.6594508651385,-147.99457467014625 L-1036.8919133315778,-147.95618648349472 L-1037.0000961858432,-147.93548352569823 L-1037.1025615761735,-147.91384036351002 L-1037.1990626544684,-147.8913091372035 L-1037.289366941178,-147.86794412647637 " />
			<path d="M-1037.289366941178,-147.86794412647637 L-1083.107603149382,-135.37206152423894 " />
			<path d="M-1083.1076031493822,-135.37206152423892 L-1083.2307630390826,-135.33564053693883 L-1083.338880408995,-135.29767349411415 L-1083.4313714397867,-135.25836541271659 L-1083.47159763024,-135.23827456152867 L-1083.507736692266,-135.2179285511266 L-1083.5397398228636,-135.19735485721984 L-1083.5675638042862,-135.17658126298673 L-1083.5911710624046,-135.15563582155562 L-1083.610529717447,-135.13454681812107 L-1083.6256136270508,-135.11334273174705 L-1083.6364024215654,-135.0920521969081 L-1083.6428815315608,-135.0707039648207 L-1083.645042207501,-135.04932686461697 " />
			<path d="M-1083.645042207501,-135.04932686461697 L-1083.6435331331531,-135.03146069683714 L-1083.6390073334248,-135.01361137991702 L-1083.6314690769218,-134.995795748823 L-1083.620925473512,-134.97803060675002 L-1083.6073864676216,-134.96033270927322 L-1083.5908648288548,-134.94271874854448 L-1083.5489387820814,-134.90780899443644 L-1083.4953054696998,-134.8734330169072 L-1083.4301671856392,-134.83972047514152 L-1083.3537696182382,-134.8067985259796 L-1083.2664009235584,-134.77479134430743 L-1083.1683906385194,-134.74381965469433 L-1083.060108437951,-134.71400027604452 L-1082.9419627402567,-134.68544568097994 L-1082.8143991669415,-134.6582635716166 L-1082.677898861819,-134.63255647333395 L-1082.5329766762343,-134.60842134807007 L-1082.380179227151,-134.5859492286011 L-1082.2200828354219,-134.56522487518404 " />
			<path d="M-1083.1076031493822,-2320.3789976523976 L-1083.0168009878337,-2320.355510352172 L-1082.9197370597824,-2320.332866039667 L-1082.8166476983004,-2320.3111198496786 L-1082.707783907298,-2320.2903247302384 L-1082.4738067054388,-2320.251787793423 L-1082.2200828354219,-2320.2176303225865 " />
			<path d="M-1055.9272935343458,-131.3782201114173 L-1082.2200828354219,-134.56522487518407 " />
			<path d="M-1055.9272935343458,-2317.03062555882 L-1082.2200828354219,-2320.2176303225865 " />
			<path d="M-1354.4668582164086,-186.31369779438538 L-1400.2850944218271,-173.8178151918103 " />
			<path d="M-1354.466576776416,-2371.966069127824 L-1400.2848129818346,-2359.470186525249 " />
			<path d="M-1404.722695991593,-173.65644834082335 L-1404.4531720763187,-173.62714584886544 L-1404.1691492121035,-173.6027877227189 L-1403.8733626943924,-173.583608544454 L-1403.5686611090446,-173.56979302004186 L-1403.2579788988935,-173.5614742005349 L-1402.9443081034592,-173.55873220071246 L-1402.6306695439716,-173.56159342753182 L-1402.3200837312108,-173.5700303258146 L-1402.0155417763372,-173.5839616436182 L-1401.7199765848557,-173.6032532147366 L-1401.436234611133,-173.62771925079406 L-1401.1670484454846,-173.65712413048885 L-1400.9150104978382,-173.69118466875517 L-1400.6825480314078,-173.72957284399013 L-1400.574365177147,-173.7502757977692 L-1400.4718997868215,-173.77191895708108 L-1400.3753987085315,-173.7944501816593 L-1400.2850944218271,-173.81781519181027 " />
			<path d="M-1404.7224145516004,-2359.308819674262 L-1404.4528906363262,-2359.279517182304 L-1404.168867772111,-2359.2551590561575 L-1403.8730812544,-2359.2359798778925 L-1403.568379669052,-2359.2221643534804 L-1403.257697458901,-2359.2138455339737 L-1402.9440266634667,-2359.2111035341513 L-1402.6303881039792,-2359.2139647609706 L-1402.3198022912184,-2359.222401659253 L-1402.0152603363447,-2359.236332977057 L-1401.7196951448632,-2359.255624548175 L-1401.4359531711405,-2359.2800905842328 L-1401.1667670054921,-2359.3094954639278 L-1400.9147290578458,-2359.343556002194 L-1400.6822665914153,-2359.381944177429 L-1400.5740837371545,-2359.402647131208 L-1400.471618346829,-2359.42429029052 L-1400.375117268539,-2359.446821515098 L-1400.2848129818346,-2359.470186525249 " />
			<path d="M-1354.4668582164086,-186.31369779438532 L-1354.3436983313327,-186.3501187814944 L-1354.2355809648209,-186.3880858265914 L-1354.1430899361408,-186.42739391272883 L-1354.1028637462434,-186.44748476720977 L-1354.066724684433,-186.4678307815175 L-1354.0347215537065,-186.48840447993948 L-1354.006897571807,-186.5091780792934 L-1353.9832903128618,-186.53012352644635 L-1353.963931656641,-186.55121253619822 L-1353.9488477455068,-186.57241662947882 L-1353.9380589491097,-186.59370717180659 L-1353.931579836882,-186.61505541195717 L-1353.9294191583615,-186.63643252078987 " />
			<path d="M-1353.9294191583615,-186.63643252078987 L-1353.930928230481,-186.6542986973468 L-1353.9354540281267,-186.6721480234236 L-1353.9429922826953,-186.6899636640444 L-1353.9535358843195,-186.70772881600448 L-1353.967074888575,-186.7254267237186 L-1353.9835965258585,-186.7430406950244 L-1354.025522570122,-186.77795047126244 L-1354.0791558806036,-186.81232647214756 L-1354.1442941633718,-186.84603903840073 L-1354.2206917300814,-186.87896101308328 L-1354.308060424659,-186.91096822120707 L-1354.4060707101708,-186.94193993809722 L-1354.5143529117663,-186.97175934474112 L-1354.6324986110192,-187.00031396840578 L-1354.7600621863976,-187.02749610686223 L-1354.8965624940568,-187.05320323461646 L-1355.0414846826175,-187.07733838961448 L-1355.194282135079,-187.0998105389637 L-1355.3543785305487,-187.1205349222904 " />
			<path d="M-1355.354378530549,-187.1205349222904 L-1381.6471678323348,-190.30754441457373 " />
			<path d="M-1381.6471678323346,-190.30754441457373 L-1381.9166917476089,-190.33684690653163 L-1382.200714611824,-190.36120503267819 L-1382.496501129535,-190.38038421094308 L-1382.801202714883,-190.39419973535522 L-1383.111884925034,-190.40251855486218 L-1383.4255557204683,-190.40526055468462 L-1383.7391942799559,-190.40239932786525 L-1384.0497800927167,-190.39396242958247 L-1384.3543220475904,-190.38003111177886 L-1384.6498872390719,-190.36073954066046 L-1384.9336292127946,-190.336273504603 L-1385.202815378443,-190.30686862490822 L-1385.4548533260893,-190.2728080866419 L-1385.6873157925197,-190.23441991140695 L-1385.7954986467805,-190.21371695762787 L-1385.897964037106,-190.192073798316 L-1385.994465115396,-190.16954257373777 L-1386.0847694021004,-190.1461775635868 " />
			<path d="M-1432.4353659990443,-177.36032671328718 L-1432.4391747458972,-177.34394997836802 L-1432.4404446655662,-177.32756023460718 " />
			<path d="M-1432.4404446655662,-177.32756023460718 L-1432.4389355934468,-177.30969405805024 L-1432.434409795801,-177.29184473197344 L-1432.4268715412325,-177.27402909135265 L-1432.4163279396082,-177.25626393939257 L-1432.4027889353526,-177.23856603167843 L-1432.3862672980692,-177.22095206037264 L-1432.3443412538059,-177.1860422841346 L-1432.2907079433242,-177.15166628324948 L-1432.225569660556,-177.1179537169963 L-1432.1491720938463,-177.08503174231376 L-1432.0618033992687,-177.05302453418997 L-1431.963793113757,-177.02205281729982 L-1431.8555109121614,-176.99223341065593 L-1431.7373652129086,-176.96367878699127 L-1431.6098016375302,-176.9364966485348 L-1431.473301329871,-176.91078952078058 L-1431.3283791413103,-176.88665436578256 L-1431.1755816888488,-176.86418221643333 L-1431.015485293379,-176.84345783310664 " />
			<path d="M-1431.9027242506418,-2362.657196703233 L-1431.8119220839826,-2362.6337093774637 L-1431.7148581491429,-2362.6110650391734 L-1431.611768779267,-2362.5893188232344 L-1431.5029049783464,-2362.568523677754 L-1431.2689277524303,-2362.5299866888913 L-1431.0152038533865,-2362.4958291665457 " />
			<path d="M-1404.722695991593,-173.65644834082332 L-1431.0154852933788,-176.84345783310664 " />
			<path d="M-1404.7224145516004,-2359.308819674263 L-1431.0152038533863,-2362.495829166546 " />
			<path d="M-1430.0029569537758,-2363.820784625519 L-1353.929140005561,-2354.526555451348 " />
			<path d="M-1082.0572502371751,-2321.3109268567887 L-1005.1340166982212,-2311.9129212089847 " />
			<path d="M-744.7354964225871,-2280.0990380472613 L-666.9887770793217,-2270.600423989179 " />
			<path d="M-406.81712391158305,-2238.8142580497206 L-328.84353746042217,-2229.287926769374 " />
			<path d="M-68.67223567505745,-2197.5018037596437 L-37.04815012577977,-2193.6381682762467 " />
			<path d="M9.30166793741453,-32.229615118494436 L9.301669517589216,-21.396306419657144 " />
			<path d="M-69.20967481563348,-2197.7398664145776 L-69.20967479048652,-2197.5674647519054 " />
			<path d="M-69.20936033675513,-41.74610339415136 L-69.20935601066248,-12.087422299133781 " />
			<path d="M-328.8435374604221,-73.21691274247468 L-328.8435374604221,-62.383601159111926 " />
			<path d="M-407.35456296970193,-82.73340068299345 L-407.35456296970193,-53.074723320641276 " />
			<path d="M-666.9887770793217,-114.20421451446252 L-666.9887770793217,-103.3709029310998 " />
			<path d="M-745.4998025886015,-123.7207024549813 L-745.4998025886015,-94.06202509262914 " />
			<path d="M-1005.1340166982212,-155.1915162864504 L-1005.1340166982212,-144.35820470308767 " />
			<path d="M-1083.6450422075009,-164.7080042269691 L-1083.6450422075009,-135.049326864617 " />
			<path d="M-1353.9294177633876,-197.4697467185918 L-1353.9294191583615,-186.63643252078984 " />
			<path d="M-1432.4404446618914,-177.35609679520766 L-1432.440444665566,-177.3275602346072 " />

       </g>

       <!-- solid lines -->
       <g  stroke="rgb(0,0,0)" fill="none">
			<path d="M-1357.795140320116,-197.86155999353943 L-1431.9030865358068,-177.6503019347147 " />
			<path d="M-1433.6781271637276,-174.01953701396772 L-1433.6759890495537,-174.17451956794704 L-1433.669579857936,-174.3302949994738 L-1433.658915029179,-174.4864880318892 L-1433.6440202557892,-174.64272238249717 L-1433.62493142058,-174.79862166906267 L-1433.6016945102276,-174.95381031654915 L-1433.5743655044844,-175.1079144619119 L-1433.5430102413188,-175.26056285476682 L-1433.5077042583061,-175.4113877517651 L-1433.4685326106523,-175.56002580251916 L-1433.4255896662874,-175.7061189249456 L-1433.3789788785252,-175.84931516791625 L-1433.328812536837,-175.98926955913925 L-1433.275211496333,-176.12564493622762 L-1433.2183048866154,-176.25811275895285 L-1433.158229800691,-176.38635390072722 L-1433.0951309647041,-176.51005941740758 L-1433.0291603892774,-176.6289312915689 L-1432.960477003305,-176.74268315045444 L-1432.8892462710799,-176.8510409558726 L-1432.8156397936752,-176.95374366437915 L-1432.7398348955421,-177.05054385615355 L-1432.6620141973199,-177.14120833105517 L-1432.582365175887,-177.2255186704227 L-1432.5010797127122,-177.30327176326384 L-1432.4183536315963,-177.37428029556762 L-1432.3343862269146,-177.43837320156007 L-1432.2493797834995,-177.4953960758168 L-1432.163539089319,-177.54521154523914 L-1432.0770709421245,-177.58769959999788 L-1431.9901836512556,-177.6227578826476 L-1431.9030865358068,-177.65030193471466 " />
			<path d="M37.05397310784531,-28.788940184089395 L37.10248534939421,-28.80099539068144 L37.15096134840942,-28.810690781588736 L37.19936488943334,-28.818019113576998 L37.247659811140295,-28.822974911794716 L37.29581003335195,-28.82555447386331 L37.34377958399209,-28.82575587264311 L37.391532625960636,-28.82357895767308 L37.43903348390686,-28.819025355283237 " />
			<path d="M37.43903348390687,-28.819025355283237 L37.51188450859581,-28.807317809059374 L37.58391810041339,-28.789960243670926 L37.655005669799046,-28.76698364468517 L37.72502031596833,-28.738429028393142 L37.793837053447724,-28.704347368590096 L37.86133303519034,-28.664799505580486 L37.927387771874294,-28.619856037569914 L37.99188334699218,-28.569597194637915 L38.054704627347775,-28.514112695516594 L38.1157394685841,-28.45350158743072 L38.17487891537609,-28.387872069285223 L38.23201739593033,-28.31734129851575 L38.28705291044477,-28.24203518194702 L38.33988721319202,-28.162088151032364 L38.390425987901,-28.077642921875654 L38.43857901612407,-27.988850240464068 L38.484260338289026,-27.89586861356639 L38.52738840714832,-27.798864025777313 L38.56788623335182,-27.698009643212824 L38.60568152288303,-27.593485504385598 L38.64070680611357,-27.48547819881227 L38.672899558245405,-27.374180533926296 L38.702202310926,-27.25979119089095 L38.72856275483694,-27.142514369927028 L38.75193383307308,-27.022559425788184 L38.772273825145355,-26.900140494034844 L38.7895464214574,-26.775476108773674 L38.80372078812307,-26.648788812545067 L38.814771622009005,-26.520304759055076 L38.82267919590408,-26.390253309460903 L38.82742939373514,-26.258866622930647 L38.82901373576604,-26.126379242208323 " />
			<path d="M-1357.795140320116,-197.86155999353943 L-1357.746628078567,-197.87361520013147 L-1357.6981520795518,-197.88331059103876 L-1357.649748538528,-197.890638923027 L-1357.601453616821,-197.89559472124475 L-1357.5533033946092,-197.89817428331332 L-1357.505333843969,-197.89837568209313 L-1357.4575808020006,-197.8961987671231 L-1357.4100799440544,-197.89164516473326 " />
			<path d="M-1357.4100799440544,-197.89164516473326 L-1357.3372289193653,-197.8799376185094 L-1357.2651953275479,-197.86258005312095 L-1357.194107758162,-197.8396034541352 L-1357.1240931119928,-197.81104883784317 L-1357.0552763745136,-197.7769671780401 L-1356.987780392771,-197.7374193150305 L-1356.921725656087,-197.69247584701992 L-1356.857230080969,-197.64221700408794 L-1356.7944088006134,-197.58673250496662 L-1356.733373959377,-197.52612139688074 L-1356.6742345125851,-197.46049187873524 L-1356.617096032031,-197.38996110796577 L-1356.5620605175166,-197.31465499139705 L-1356.5092262147691,-197.23470796048238 L-1356.4586874400602,-197.15026273132568 L-1356.4105344118373,-197.06147004991408 L-1356.3648530896721,-196.96848842301642 L-1356.321725020813,-196.87148383522734 L-1356.2812271946095,-196.77062945266283 L-1356.2434319050783,-196.66610531383563 L-1356.2084066218476,-196.5580980082623 L-1356.1762138697159,-196.4468003433763 L-1356.1469111170352,-196.33241100034098 L-1356.1205506731244,-196.21513417937706 L-1356.097179594888,-196.0951792352382 L-1356.0768396028159,-195.97276030348488 L-1356.0595670065038,-195.8480959182237 L-1356.0453926398382,-195.7214086219951 L-1356.0343418059522,-195.5929245685051 L-1356.0264342320572,-195.46287311891092 L-1356.0216840342262,-195.33148643238067 L-1356.0200996921951,-195.19899905165835 " />
			<path d="M38.82901373576604,-26.126379242208294 L38.82901373576604,4.946917204517726 " />
			<path d="M-1356.0200996921953,-195.19899905165832 L-1356.0200996921953,-164.1257026049323 " />
			<path d="M38.82901373576604,4.946917204517726 L38.826875621592116,5.101899758497036 L38.82046642997465,5.257675190023812 L38.809801601217636,5.413868222439189 L38.794906827827674,5.570102573047187 L38.775817992618485,5.726001859612676 L38.75258108226608,5.881190507099153 L38.72525207652282,6.035294652461905 L38.693896813357256,6.187943045316825 L38.658590830344764,6.338767942315104 L38.61941918269086,6.487405993069173 L38.57647623832577,6.633499115495611 L38.529865450563825,6.776695358466244 L38.47969910887537,6.916649749689249 L38.426098068371594,7.053025126777611 L38.36919145865395,7.185492949502853 L38.30911637272969,7.313734091277221 L38.24601753674275,7.437439607957579 L38.18004696131584,7.556311482118921 L38.1113635753435,7.670063341004447 L38.04013284311849,7.778421146422614 L37.96652636571382,7.88112385492915 L37.89072146758071,7.977924046703566 L37.81290076935851,8.068588521605182 L37.7332517479255,8.152898860972691 L37.65196628475076,8.230651953813842 L37.56924020363484,8.301660486117614 L37.48527279895309,8.365753392110076 L37.40026635553807,8.422776266366814 L37.31442566135766,8.472591735789132 L37.22795751416289,8.51507979054787 L37.14107022329406,8.550138073197603 L37.05397310784532,8.577682125264676 " />
			<path d="M-1356.0200996921951,-164.12570260493231 L-1356.022237806369,-163.970720050953 L-1356.0286469979867,-163.81494461942623 L-1356.0393118267436,-163.65875158701084 L-1356.0542066001335,-163.50251723640287 L-1356.0732954353427,-163.34661794983737 L-1356.096532345695,-163.19142930235088 L-1356.1238613514383,-163.03732515698815 L-1356.155216614604,-162.88467676413322 L-1356.1905225976166,-162.73385186713494 L-1356.2296942452704,-162.58521381638087 L-1356.2726371896354,-162.43912069395444 L-1356.3192479773975,-162.2959244509838 L-1356.3694143190858,-162.1559700597608 L-1356.4230153595897,-162.01959468267242 L-1356.4799219693073,-161.8871268599472 L-1356.5399970552317,-161.75888571817282 L-1356.6030958912186,-161.63518020149246 L-1356.6690664666453,-161.51630832733113 L-1356.7377498526178,-161.4025564684456 L-1356.8089805848429,-161.29419866302743 L-1356.8825870622475,-161.1914959545209 L-1356.9583919603806,-161.09469576274648 L-1357.0362126586028,-161.00403128784487 L-1357.1158616800358,-160.91972094847736 L-1357.1971471432105,-160.8419678556362 L-1357.2798732243264,-160.77095932333242 L-1357.363840629008,-160.70686641733997 L-1357.4488470724232,-160.64984354308322 L-1357.5346877666036,-160.6000280736609 L-1357.6211559137982,-160.55754001890216 L-1357.708043204667,-160.52248173625244 L-1357.795140320116,-160.49493768418537 " />
			<path d="M37.05397310784531,8.577682125264682 L-37.05397310784531,28.788940184089398 " />
			<path d="M-1357.795140320116,-160.49493768418535 L-1431.9030865358068,-140.2836796253606 " />
			<path d="M-37.05397310784531,28.788940184089395 L-37.1024853493942,28.80099539068144 L-37.15096134840942,28.810690781588736 L-37.19936488943334,28.818019113576998 L-37.247659811140295,28.822974911794716 L-37.29581003335195,28.82555447386331 L-37.34377958399209,28.82575587264311 L-37.391532625960636,28.82357895767308 L-37.439033483906854,28.819025355283237 " />
			<path d="M-37.43903348390687,28.819025355283237 L-37.486246670881734,28.812098467379617 L-37.533136914849464,28.802803468902823 L-37.5796691850386,28.791147303961896 L-37.6258087181128,28.777138680646534 L-37.67152104414184,28.760788064521424 L-37.716772012353395,28.74210767080765 L-37.76152781664642,28.72111145525693 L-37.80575502084702,28.697815103725556 " />
			<path d="M-1431.9030865358068,-140.2836796253606 L-1431.9515987773557,-140.27162441876857 L-1432.0000747763709,-140.26192902786127 L-1432.0484783173947,-140.25460069587302 L-1432.0967732391018,-140.2496448976553 L-1432.1449234613135,-140.2470653355867 L-1432.1928930119536,-140.2468639368069 L-1432.240646053922,-140.24904085177693 L-1432.2881469118684,-140.25359445416677 " />
			<path d="M-1432.2881469118684,-140.25359445416677 L-1432.3609979365574,-140.26530200039065 L-1432.4330315283748,-140.28265956577908 L-1432.5041190977606,-140.30563616476485 L-1432.57413374393,-140.33419078105686 L-1432.6429504814091,-140.36827244085993 L-1432.7104464631518,-140.40782030386953 L-1432.7765011998358,-140.45276377188011 L-1432.8409967749537,-140.5030226148121 L-1432.9038180553093,-140.55850711393342 L-1432.9648528965456,-140.6191182220193 L-1433.0239923433376,-140.6847477401648 L-1433.0811308238917,-140.75527851093426 L-1433.1361663384062,-140.830584627503 L-1433.1890006411536,-140.91053165841765 L-1433.2395394158625,-140.99497688757435 L-1433.2876924440855,-141.08376956898596 L-1433.3333737662506,-141.1767511958836 L-1433.3765018351098,-141.2737557836727 L-1433.4169996613132,-141.3746101662372 L-1433.4547949508444,-141.4791343050644 L-1433.489820234075,-141.58714161063773 L-1433.5220129862068,-141.69843927552373 L-1433.5513157388875,-141.81282861855905 L-1433.5776761827983,-141.93010543952298 L-1433.6010472610346,-142.05006038366184 L-1433.6213872531068,-142.17247931541516 L-1433.638659849419,-142.29714370067634 L-1433.6528342160846,-142.42383099690494 L-1433.6638850499705,-142.55231505039492 L-1433.6717926238655,-142.68236649998912 L-1433.6765428216966,-142.81375318651936 L-1433.6781271637276,-142.94624056724172 " />
			<path d="M-1433.6781271637274,-174.01953701396772 L-1433.6781271637274,-142.9462405672417 " />
			<path d="M-1386.468348964055,-2413.728830320256 L-1432.2247211446459,-2401.567808581138 " />
			<path d="M-1434.007529270102,-2397.9483314413046 L-1434.0048953107905,-2398.1033810498047 L-1433.9979972423564,-2398.259192121657 L-1433.9868516828508,-2398.4153892943427 L-1433.9714854829022,-2398.5715962751915 L-1433.9519356610328,-2398.7274367479035 L-1433.9282493144754,-2398.882535279131 L-1433.900483505714,-2399.036518222926 L-1433.8687051250133,-2399.189014620891 L-1433.8329907292766,-2399.3396570958453 L-1433.7934263576108,-2399.4880827368725 L-1433.750107324053,-2399.633933973602 L-1433.7031379879493,-2399.7768594376303 L-1433.6526315025442,-2399.9165148089955 L-1433.5987095423852,-2400.0525636456755 L-1433.541502010197,-2400.1846781941067 L-1433.4811467239358,-2400.3125401787693 L-1433.4177890847725,-2400.4358415689435 L-1433.3515817268092,-2400.5542853207803 L-1433.2826841493707,-2400.6675860929067 L-1433.2112623327553,-2400.775470933839 L-1433.1374883383753,-2400.8776799395464 L-1433.0615398942448,-2400.9739668795805 L-1432.9835999668182,-2401.0640997902697 L-1432.9038563202075,-2401.1478615335373 L-1432.822501063842,-2401.225050320007 L-1432.73973018966,-2401.295480195132 L-1432.6557430999474,-2401.358981487173 L-1432.5707421269597,-2401.415401215956 L-1432.4849320454862,-2401.464603461413 L-1432.398519579529,-2401.5064696910244 L-1432.3117129042876,-2401.540899045376 L-1432.2247211446456,-2401.5678085811383 " />
			<path d="M9.206828078704065,-2243.2138559373143 L9.254452273799181,-2243.225377752933 L9.302034743737723,-2243.234618035438 L9.349541132363184,-2243.241570113031 L9.396937138452348,-2243.246228966076 L9.44418854048193,-2243.2485912307243 L9.491261221337682,-2243.2486552013397 L9.538121192948097,-2243.246420831734 L9.584734620824952,-2243.2418897351977 " />
			<path d="M9.584734620824959,-2243.2418897351977 L9.65764984862594,-2243.2300881979954 L9.729737649578794,-2243.2126065338407 L9.800868632790722,-2243.1894761206927 L9.870915124767711,-2243.1607384754907 L9.939751398576568,-2243.126445179633 L10.007253899513069,-2243.0866577863926 L10.073301466871145,-2243.041447710438 L10.13777555141508,-2242.990896099647 L10.200560428164348,-2242.9350936894566 L10.26154340410918,-2242.874140639997 L10.320615020484034,-2242.8081463563203 L10.377669249235886,-2242.737229292022 L10.43260368333472,-2242.6615167366326 L10.485319720584611,-2242.5811445871404 L10.535722740605486,-2242.4962571040733 L10.58372227466791,-2242.4070066525624 L10.629232168076022,-2242.3135534288604 L10.672170734807203,-2242.2160651728054 L10.71246090413088,-2242.1147168667426 L10.750030358943317,-2242.0096904214483 L10.784811665570077,-2241.9011743496158 L10.816742394803201,-2241.7893634274933 L10.845765233955818,-2241.6744583452787 L10.871828089733087,-2241.556665346899 L10.894884181734811,-2241.436195859823 L10.914892126421902,-2241.3132661155655 L10.93181601139598,-2241.188096761576 L10.945625459858789,-2241.0609124651946 L10.956295685135714,-2240.931941510394 L10.963807535165568,-2240.801415388034 L10.968147526876749,-2240.669568380355 L10.969307870388096,-2240.536637140463 " />
			<path d="M-1386.4683489640547,-2413.728830320256 L-1386.4207247689596,-2413.7403521358747 L-1386.373142299021,-2413.7495924183795 L-1386.3256359103957,-2413.7565444959723 L-1386.2782399043065,-2413.7612033490177 L-1386.230988502277,-2413.763565613666 L-1386.1839158214211,-2413.7636295842813 L-1386.1370558498108,-2413.7613952146758 L-1386.0904424219339,-2413.756864118139 " />
			<path d="M-1386.0904424219339,-2413.756864118139 L-1386.017527194133,-2413.745062580937 L-1385.94543939318,-2413.7275809167822 L-1385.874308409968,-2413.7044505036342 L-1385.8042619179912,-2413.6757128584322 L-1385.7354256441822,-2413.6414195625744 L-1385.6679231432458,-2413.601632169334 L-1385.6018755758878,-2413.5564220933798 L-1385.5374014913439,-2413.5058704825888 L-1385.4746166145944,-2413.450068072398 L-1385.4136336386498,-2413.3891150229388 L-1385.3545620222749,-2413.323120739262 L-1385.297507793523,-2413.2522036749638 L-1385.2425733594241,-2413.176491119574 L-1385.1898573221742,-2413.096118970082 L-1385.1394543021534,-2413.011231487015 L-1385.091454768091,-2412.921981035504 L-1385.0459448746828,-2412.828527811802 L-1385.0030063079516,-2412.731039555747 L-1384.962716138628,-2412.629691249684 L-1384.9251466838155,-2412.52466480439 L-1384.8903653771888,-2412.4161487325573 L-1384.8584346479556,-2412.304337810435 L-1384.8294118088031,-2412.1894327282203 L-1384.8033489530258,-2412.0716397298406 L-1384.780292861024,-2411.9511702427644 L-1384.760284916337,-2411.828240498507 L-1384.7433610313628,-2411.7030711445177 L-1384.7295515829,-2411.575886848136 L-1384.718881357623,-2411.4469158933357 L-1384.7113695075934,-2411.3163897709755 L-1384.7070295158821,-2411.1845427632966 L-1384.7058691723707,-2411.0516115234045 " />
			<path d="M10.969307870388095,-2240.536637140463 L10.868936722388115,-2209.4467009530813 " />
			<path d="M-1384.705869172371,-2411.051611523404 L-1384.8062403203708,-2379.9616753360224 " />
			<path d="M10.868936722388115,-2209.446700953081 L10.866659282032288,-2209.303693189559 L10.86075188815775,-2209.160012647012 L10.85122665326492,-2209.0159539275387 L10.838103107863187,-2208.8718124086504 L10.82140816042564,-2208.727883637629 L10.801176042216017,-2208.5844627255397 L10.777448237101035,-2208.441843742136 L10.750273396492016,-2208.3003191128983 L10.7197072395902,-2208.1601790194477 L10.685812439140266,-2208.021710804557 L10.648658492926376,-2207.885198382987 L10.608321581274133,-2207.750921659344 L10.564884410850699,-2207.6191559541676 L10.51843604508334,-2207.490171439414 L10.469071721544058,-2207.364232584496 L10.416892656674813,-2207.241597614016 L10.362005838253655,-2207.122517978302 L10.30452380602736,-2207.007237837836 L10.244564420960309,-2206.895993562628 L10.182250623572763,-2206.789013247564 L10.11771018186404,-2206.6865162447198 L10.051075429337436,-2206.588712713603 L9.98248299366407,-2206.495803190243 L9.912073516541955,-2206.407978176012 L9.839991365324744,-2206.325417747022 L9.766384337011392,-2206.248291184898 L9.691403355203695,-2206.1767566296808 L9.615202160653048,-2206.110960755581 L9.53793699603092,-2206.051038470236 L9.459766285569415,-2205.9971126380974 L9.38085031022877,-2205.949293828509 L9.301350879057809,-2205.907680088995 " />
			<path d="M-1384.806240320371,-2379.9616753360224 L-1384.8088742796824,-2379.8066257275223 L-1384.8157723481165,-2379.65081465567 L-1384.8269179076221,-2379.4946174829843 L-1384.8422841075708,-2379.3384105021355 L-1384.86183392944,-2379.1825700294235 L-1384.8855202759976,-2379.027471498196 L-1384.913286084759,-2378.873488554401 L-1384.9450644654596,-2378.720992156436 L-1384.9807788611963,-2378.5703496814817 L-1385.0203432328622,-2378.421924040455 L-1385.06366226642,-2378.276072803725 L-1385.1106316025237,-2378.1331473396967 L-1385.1611380879287,-2377.9934919683315 L-1385.2150600480877,-2377.8574431316515 L-1385.2722675802759,-2377.7253285832203 L-1385.3326228665371,-2377.5974665985577 L-1385.3959805057004,-2377.4741652083835 L-1385.4621878636638,-2377.3557214565467 L-1385.5310854411023,-2377.2424206844203 L-1385.6025072577177,-2377.134535843488 L-1385.6762812520976,-2377.0323268377806 L-1385.7522296962281,-2376.9360398977465 L-1385.8301696236547,-2376.8459069870573 L-1385.9099132702654,-2376.7621452437897 L-1385.9912685266308,-2376.68495645732 L-1386.074039400813,-2376.614526582195 L-1386.1580264905256,-2376.551025290154 L-1386.2430274635133,-2376.494605561371 L-1386.3288375449868,-2376.445403315914 L-1386.415250010944,-2376.4035370863025 L-1386.5020566861854,-2376.369107731951 L-1386.5890484458273,-2376.3421981961887 " />
			<path d="M-1386.5890484458268,-2376.3421981961887 L-1432.3454206264178,-2364.1811764570707 " />
			<path d="M-1432.345420626418,-2364.181176457071 L-1432.393044821513,-2364.1696546414523 L-1432.4406272914516,-2364.1604143589475 L-1432.488133680077,-2364.1534622813547 L-1432.5355296861662,-2364.1488034283093 L-1432.5827810881958,-2364.146441163661 L-1432.6298537690516,-2364.1463771930457 L-1432.6767137406619,-2364.1486115626512 L-1432.7233271685388,-2364.153142659188 " />
			<path d="M-1432.7233271685388,-2364.153142659188 L-1432.7962423963397,-2364.16494419639 L-1432.8683301972926,-2364.1824258605448 L-1432.9394611805046,-2364.2055562736928 L-1433.0095076724815,-2364.2342939188948 L-1433.0783439462905,-2364.2685872147526 L-1433.1458464472269,-2364.308374607993 L-1433.211894014585,-2364.3535846839472 L-1433.2763680991288,-2364.4041362947382 L-1433.3391529758783,-2364.459938704929 L-1433.400135951823,-2364.5208917543882 L-1433.4592075681978,-2364.586886038065 L-1433.5162617969497,-2364.6578031023632 L-1433.5711962310486,-2364.733515657753 L-1433.6239122682985,-2364.813887807245 L-1433.6743152883193,-2364.898775290312 L-1433.7223148223818,-2364.988025741823 L-1433.7678247157899,-2365.081478965525 L-1433.810763282521,-2365.17896722158 L-1433.8510534518448,-2365.280315527643 L-1433.8886229066572,-2365.385341972937 L-1433.923404213284,-2365.4938580447697 L-1433.955334942517,-2365.605668966892 L-1433.9843577816696,-2365.7205740491067 L-1434.010420637447,-2365.8383670474864 L-1434.0334767294487,-2365.9588365345626 L-1434.0534846741357,-2366.08176627882 L-1434.0704085591099,-2366.2069356328093 L-1434.0842180075726,-2366.334119929191 L-1434.0948882328496,-2366.4630908839913 L-1434.1024000828793,-2366.5936170063515 L-1434.1067400745906,-2366.7254640140304 L-1434.107900418102,-2366.8583952539225 " />
			<path d="M-1434.0075292701022,-2397.948331441304 L-1434.107900418102,-2366.8583952539225 " />
			<path d="M7.87639134152563,-2207.532852057492 L-18.416397953054425,-2210.719851465451 " />
			<path d="M-69.02455975211618,-2197.5448485396632 L-68.95287435935528,-2197.511500020595 L-68.87004257745244,-2197.47901636504 L-68.7763781042255,-2197.447520594037 L-68.67223566270697,-2197.417131987341 " />
			<path d="M-328.84353746042217,-2248.0360066065145 L-328.8450465347702,-2248.053872774294 L-328.84957233449836,-2248.0717220912147 L-328.85711059100146,-2248.0895377223087 L-328.86765419441116,-2248.1073028643814 L-328.8811932003015,-2248.1250007618582 L-328.8977148390684,-2248.142614722587 L-328.93964088584175,-2248.177524476695 L-328.99327419822333,-2248.211900454224 L-329.058412482284,-2248.24561299599 L-329.1348100496851,-2248.278534945152 L-329.2221787443647,-2248.310542126824 L-329.3201890294039,-2248.3415138164373 L-329.4284712299722,-2248.371333195087 L-329.5466169276666,-2248.3998877901518 L-329.67418050098183,-2248.427069899515 L-329.8106808061044,-2248.4527769977976 L-329.95560299168886,-2248.4769121230615 L-330.1084004407721,-2248.4993842425306 L-330.2684968325014,-2248.5201085959475 " />
			<path d="M-330.2684968325014,-2248.5201085959475 L-356.5612861335773,-2251.707113359714 " />
			<path d="M-407.15440701506134,-2238.9296693019746 L-407.2009389985681,-2238.9052357180612 L-407.2414542477554,-2238.8804503646397 L-407.2758727431221,-2238.855362193935 L-407.30412650653926,-2238.8300207562506 L-407.32615973551026,-2238.804476102105 L-407.3419289133833,-2238.7787786833783 L-407.3514028952988,-2238.7529792536666 L-407.35456296970193,-2238.7271287680437 " />
			<path d="M-407.35456296970193,-2238.7271287680437 L-407.3524022937617,-2238.70575166784 L-407.3459231837664,-2238.6844034357528 L-407.33513438925166,-2238.663112900914 L-407.32005047964793,-2238.6419088145394 L-407.30069182460556,-2238.620819811105 L-407.2770845664872,-2238.599874369674 L-407.24926058506446,-2238.579100775441 L-407.2172574544669,-2238.558527081534 L-407.1811183924409,-2238.538181071132 L-407.1408922019877,-2238.518090219944 L-407.0484011711959,-2238.4787821385466 L-406.94028380128356,-2238.440815095722 L-406.81712391158305,-2238.404394108422 " />
			<path d="M-667.5262161374405,-2288.7005737188806 L-667.40305624774,-2288.7369947061807 L-667.2949388778277,-2288.7749617490053 L-667.202447847036,-2288.8142698304027 L-667.1622216565827,-2288.8343606815906 L-667.1260825945567,-2288.8547066919928 L-667.0940794639591,-2288.8752803858997 L-667.0662554825363,-2288.896053980133 L-667.042648224418,-2288.9169994215636 L-667.0232895693757,-2288.938088424998 L-667.008205659772,-2288.9592925113725 L-666.9974168652572,-2288.9805830462114 L-666.9909377552618,-2289.001931278299 L-666.9887770793216,-2289.0233083785024 " />
			<path d="M-666.9887770793216,-2289.0233083785024 L-666.9902861536697,-2289.041174546282 L-666.9948119533979,-2289.0590238632026 L-667.002350209901,-2289.0768394942966 L-667.0128938133107,-2289.0946046363692 L-667.026432819201,-2289.112302533846 L-667.0429544579679,-2289.129916494575 L-667.0848805047412,-2289.164826248683 L-667.1385138171228,-2289.199202226212 L-667.2036521011835,-2289.232914767978 L-667.2800496685845,-2289.26583671714 L-667.3674183632643,-2289.297843898812 L-667.4654286483034,-2289.328815588425 L-667.5737108488718,-2289.358634967075 L-667.6918565465661,-2289.3871895621396 L-667.8194201198813,-2289.414371671503 L-667.9559204250039,-2289.4400787697855 L-668.1008426105883,-2289.4642138950494 L-668.2536400596716,-2289.4866860145185 L-668.413736451401,-2289.5074103679353 " />
			<path d="M-668.413736451401,-2289.5074103679353 L-694.7065257524768,-2292.694415131702 " />
			<path d="M-694.7065257524768,-2292.694415131702 L-694.9760496677445,-2292.723717576726 L-695.2600725319543,-2292.7480756563905 L-695.555859049661,-2292.767254789073 L-695.8605606350058,-2292.7810702692414 L-696.171242845155,-2292.7893890462697 L-696.4849136405887,-2292.7921310057873 L-696.798552200077,-2292.7892697412253 L-697.1091380128396,-2292.7808328081255 L-697.4136799677163,-2292.766901458766 L-697.709245159202,-2292.747609859656 L-697.9929871329304,-2292.7231437994415 L-698.2621732985851,-2292.6937388996566 L-698.5142112462391,-2292.659678345561 L-698.7466737126782,-2292.6212901589092 L-698.8548565669436,-2292.600587201113 L-698.9573219572738,-2292.578944038925 L-699.0538230355689,-2292.5564128126184 L-699.1441273222786,-2292.533047801891 " />
			<path d="M-699.5964554464139,-2292.4096855862176 L-744.9623635304827,-2280.0371651996534 " />
			<path d="M-744.9623635304825,-2280.0371651996534 L-745.0855234201831,-2280.0007442123533 L-745.1936407900954,-2279.9627771695286 L-745.2861318208871,-2279.9234690881312 L-745.3263580113404,-2279.9033782369434 L-745.3624970733664,-2279.883032226541 L-745.394500203964,-2279.8624585326343 L-745.4223241853867,-2279.841684938401 L-745.4459314435051,-2279.8207394969704 L-745.4652900985474,-2279.799650493536 L-745.4803740081511,-2279.7784464071615 L-745.4911628026659,-2279.7571558723225 L-745.4976419126613,-2279.735807640235 L-745.4998025886015,-2279.7144305400316 " />
			<path d="M-745.4998025886015,-2279.7144305400316 L-745.4976419126613,-2279.693053439828 L-745.4911628026659,-2279.6717052077406 L-745.4803740081511,-2279.6504146729017 L-745.4652900985474,-2279.6292105865273 L-745.4459314435051,-2279.6081215830927 L-745.4223241853867,-2279.587176141662 L-745.394500203964,-2279.566402547429 L-745.3624970733664,-2279.545828853522 L-745.3263580113405,-2279.52548284312 L-745.2861318208872,-2279.505391991932 L-745.1936407900955,-2279.4660839105345 L-745.0855234201831,-2279.42811686771 L-744.9623635304827,-2279.3916958804098 " />
			<path d="M-1005.6714557563402,-2329.6878754908685 L-1005.5482958666396,-2329.7242964781685 L-1005.4401784967273,-2329.762263520993 L-1005.3476874659356,-2329.8015716023906 L-1005.3074612754823,-2329.8216624535785 L-1005.2713222134563,-2329.8420084639806 L-1005.2393190828587,-2329.8625821578876 L-1005.211495101436,-2329.8833557521207 L-1005.1878878433176,-2329.9043011935514 L-1005.1685291882753,-2329.925390196986 L-1005.1534452786716,-2329.9465942833604 L-1005.1426564841568,-2329.9678848181993 L-1005.1361773741614,-2329.9892330502867 L-1005.1340166982212,-2330.0106101504903 " />
			<path d="M-1005.1340166982212,-2330.0106101504903 L-1005.1355257725693,-2330.02847631827 L-1005.1400515722975,-2330.0463256351904 L-1005.1475898288006,-2330.0641412662844 L-1005.1581334322103,-2330.081906408357 L-1005.1716724381006,-2330.099604305834 L-1005.1881940768675,-2330.1172182665628 L-1005.2301201236409,-2330.1521280206707 L-1005.2837534360224,-2330.1865039982 L-1005.3488917200831,-2330.220216539966 L-1005.4252892874841,-2330.2531384891277 L-1005.5126579821639,-2330.2851456708 L-1005.610668267203,-2330.316117360413 L-1005.7189504677714,-2330.345936739063 L-1005.8370961654657,-2330.3744913341275 L-1005.9646597387809,-2330.401673443491 L-1006.1011600439035,-2330.4273805417733 L-1006.2460822294879,-2330.4515156670373 L-1006.3988796785712,-2330.4739877865063 L-1006.5589760703006,-2330.494712139923 " />
			<path d="M-1006.5589760703006,-2330.494712139923 L-1032.8517653713764,-2333.68171690369 " />
			<path d="M-1032.8517653713761,-2333.68171690369 L-1033.121289286644,-2333.7110193487138 L-1033.4053121508537,-2333.7353774283783 L-1033.7010986685605,-2333.754556561061 L-1034.0058002539054,-2333.768372041229 L-1034.3164824640546,-2333.7766908182575 L-1034.6301532594882,-2333.779432777775 L-1034.9437918189765,-2333.776571513213 L-1035.254377631739,-2333.7681345801134 L-1035.5589195866157,-2333.754203230754 L-1035.8544847781016,-2333.734911631644 L-1036.13822675183,-2333.7104455714293 L-1036.4074129174846,-2333.6810406716445 L-1036.6594508651385,-2333.646980117549 L-1036.8919133315778,-2333.608591930897 L-1037.0000961858432,-2333.5878889731007 L-1037.1025615761735,-2333.5662458109127 L-1037.1990626544684,-2333.5437145846063 L-1037.289366941178,-2333.520349573879 " />
			<path d="M-1037.289366941178,-2333.520349573879 L-1083.107603149382,-2321.0244669716412 " />
			<path d="M-1083.1076031493822,-2321.0244669716412 L-1083.2307630390826,-2320.988045984341 L-1083.338880408995,-2320.9500789415165 L-1083.4313714397867,-2320.910770860119 L-1083.47159763024,-2320.890680008931 L-1083.507736692266,-2320.870333998529 L-1083.5397398228636,-2320.849760304622 L-1083.5675638042862,-2320.828986710389 L-1083.5911710624046,-2320.8080412689583 L-1083.610529717447,-2320.7869522655237 L-1083.6256136270508,-2320.7657481791493 L-1083.6364024215654,-2320.7444576443104 L-1083.6428815315608,-2320.723109412223 L-1083.645042207501,-2320.7017323120194 " />
			<path d="M-1083.645042207501,-2320.7017323120194 L-1083.6428815315608,-2320.680355211816 L-1083.6364024215654,-2320.6590069797285 L-1083.6256136270508,-2320.6377164448895 L-1083.610529717447,-2320.616512358515 L-1083.5911710624046,-2320.5954233550806 L-1083.5675638042862,-2320.57447791365 L-1083.5397398228636,-2320.5537043194167 L-1083.507736692266,-2320.53313062551 L-1083.47159763024,-2320.5127846151076 L-1083.4313714397867,-2320.4926937639198 L-1083.338880408995,-2320.4533856825224 L-1083.2307630390826,-2320.4154186396977 L-1083.1076031493822,-2320.3789976523976 " />
			<path d="M-1354.466576776416,-2371.966069127824 L-1354.3434168913402,-2372.002490114933 L-1354.2352995248284,-2372.04045716003 L-1354.1428084961483,-2372.0797652461674 L-1354.102582306251,-2372.0998561006486 L-1354.0664432444405,-2372.120202114956 L-1354.034440113714,-2372.1407758133782 L-1354.0066161318146,-2372.161549412732 L-1353.9830088728693,-2372.182494859885 L-1353.9636502166486,-2372.203583869637 L-1353.9485663055143,-2372.2247879629176 L-1353.9377775091173,-2372.2460785052454 L-1353.9312983968896,-2372.267426745396 L-1353.929137718369,-2372.2888038542283 " />
			<path d="M-1353.929137718369,-2372.2888038542283 L-1353.9306467904885,-2372.3066700307854 L-1353.9351725881343,-2372.3245193568623 L-1353.9427108427028,-2372.342334997483 L-1353.953254444327,-2372.360100149443 L-1353.9667934485826,-2372.377798057157 L-1353.983315085866,-2372.395412028463 L-1354.0252411301294,-2372.430321804701 L-1354.0788744406111,-2372.464697805586 L-1354.1440127233793,-2372.4984103718393 L-1354.220410290089,-2372.531332346522 L-1354.3077789846666,-2372.5633395546456 L-1354.4057892701783,-2372.594311271536 L-1354.5140714717738,-2372.62413067818 L-1354.6322171710267,-2372.6526853018445 L-1354.759780746405,-2372.6798674403008 L-1354.8962810540643,-2372.705574568055 L-1355.041203242625,-2372.729709723053 L-1355.1940006950865,-2372.752181872402 L-1355.3540970905563,-2372.772906255729 " />
			<path d="M-1355.3540970905565,-2372.7729062557296 L-1381.6468863923424,-2375.959915748013 " />
			<path d="M-1381.6468863923421,-2375.959915748013 L-1381.9164103076164,-2375.989218239971 L-1382.2004331718315,-2376.0135763661174 L-1382.4962196895426,-2376.0327555443823 L-1382.8009212748905,-2376.0465710687945 L-1383.1116034850415,-2376.054889888301 L-1383.4252742804758,-2376.0576318881235 L-1383.7389128399634,-2376.0547706613042 L-1384.0494986527242,-2376.0463337630217 L-1384.3540406075979,-2376.032402445218 L-1384.6496057990794,-2376.0131108740998 L-1384.933347772802,-2375.988644838042 L-1385.2025339384504,-2375.959239958347 L-1385.4545718860968,-2375.925179420081 L-1385.6870343525272,-2375.886791244846 L-1385.795217206788,-2375.8660882910667 L-1385.8976825971135,-2375.844445131755 L-1385.9941836754035,-2375.821913907177 L-1386.084487962108,-2375.7985488970257 " />
			<path d="M-1386.0847694021004,-190.1461775635868 L-1431.903005607519,-177.65029496101172 " />
			<path d="M-1386.0844879621081,-2375.7985488970257 L-1431.9027241675267,-2363.302666294451 " />
			<path d="M-1431.9030056075192,-177.65029496101172 L-1432.0150050713687,-177.61743428577225 L-1432.1147551346846,-177.58329384441302 L-1432.201815411135,-177.54802436349235 L-1432.2758015385002,-177.51178155416264 L-1432.3363868755916,-177.47472542472184 L-1432.3615683157288,-177.45594336904696 L-1432.3833039443405,-177.43701957419296 L-1432.4015697646582,-177.41797493258113 L-1432.4163456106842,-177.39883047005122 L-1432.4276151694535,-177.37960732264816 L-1432.4353659990443,-177.36032671328718 " />
			<path d="M-1431.9027241675267,-2363.302666294451 L-1432.0258840526026,-2363.2662453073417 L-1432.1340014191144,-2363.2282782622447 L-1432.2264924477945,-2363.1889701761074 L-1432.2667186376918,-2363.1688793216263 L-1432.3028576995023,-2363.1485333073188 L-1432.3348608302288,-2363.1279596088966 L-1432.3626848121282,-2363.107186009543 L-1432.3862920710735,-2363.08624056239 L-1432.4056507272942,-2363.065151552638 L-1432.4207346384285,-2363.0439474593572 L-1432.4315234348255,-2363.0226569170295 L-1432.4380025470532,-2363.001308676879 L-1432.4401632255738,-2362.9799315680466 " />
			<path d="M-1432.4401632255738,-2362.9799315680466 L-1432.4380025525586,-2362.958554458657 L-1432.4315234458286,-2362.937206216838 L-1432.420734654915,-2362.915915671732 L-1432.4056507492414,-2362.8947115745664 L-1432.3862920984516,-2362.873622559829 L-1432.3626848449005,-2362.8526771065967 L-1432.334860868351,-2362.831903500077 L-1432.302857742923,-2362.8113297934133 L-1432.2667186863523,-2362.7909837697985 L-1432.226492501629,-2362.7708929049577 L-1432.134001483072,-2362.731584795001 L-1432.025884126338,-2362.69361772206 L-1431.9027242506418,-2362.657196703233 " />
			<path d="M37.05397310784531,-28.788940184089398 L-1357.0433584071143,-197.77043491317556 " />
			<path d="M38.82901373576604,-26.126379242208294 L-1356.0200996921953,-195.19899905165832 " />
			<path d="M38.82901373576604,4.946917204517726 L-1356.0200996921953,-164.12570260493231 " />
			<path d="M37.05397310784531,8.577682125264682 L-1357.795140320116,-160.49493768418535 " />
			<path d="M-37.05397310784531,28.788940184089398 L-1431.9030865358068,-140.28367962536063 " />
			<path d="M9.206828078704067,-2243.2138559373143 L-1385.7304008137519,-2413.6386723723213 " />
			<path d="M10.969307870388095,-2240.536637140463 L-1384.7058691723712,-2411.0516115234045 " />
			<path d="M10.868936722388115,-2209.446700953081 L-1384.8062403203712,-2379.9616753360224 " />
			<path d="M-18.4163977295143,-2209.187312642768 L-328.8435374604222,-2247.1133835865403 " />
			<path d="M-356.5612861335773,-2250.499766953313 L-666.9887770793217,-2288.4258808063455 " />
			<path d="M-699.1441273222788,-2292.3544229292843 L-1005.1340166982213,-2329.7383780261507 " />
			<path d="M-1036.8595416025948,-2333.6144067435325 L-1353.949611220162,-2372.354513315098 " />
			<path d="M-1384.1388168844421,-2376.0428440349956 L-1386.5890484458273,-2376.342198196189 " />
			<path d="M-36.670243583658866,-2193.66620207413 L-328.8435374604222,-2229.3621308548777 " />
			<path d="M-360.9988877033792,-2233.2906729778165 L-666.9887770793218,-2270.6746280746834 " />
			<path d="M-744.5475909293076,-2280.150284999974 L-1005.1340166982213,-2311.9871252944886 " />
			<path d="M-1081.8693447438961,-2321.362173809501 L-1353.9291399960061,-2354.6007595356846 " />
			<path d="M-1429.8150514605084,-2363.872031578233 L-1432.3454206264182,-2364.1811764570716 " />
			<path d="M7.876708611740525,-32.40233746100037 L7.87639134152563,-2207.532852057492 " />
			<path d="M-18.416080682840306,-35.58934222397987 L-18.41639795305442,-2210.719851465451 " />
			<path d="M-22.85368235496673,-36.12723333575277 L-22.85399940226322,-2209.729471411511 " />
			<path d="M-68.67192122140145,-41.68095925895699 L-68.67223568588106,-2197.5760078464696 " />
			<path d="M-330.26849683250134,-73.38963509060548 L-330.2684968325014,-2248.5201085959475 " />
			<path d="M-356.5612861335772,-76.57663985437226 L-356.56128613357725,-2251.707113359714 " />
			<path d="M-360.99888770337907,-77.11453095374219 L-360.9988877033791,-2251.041925709479 " />
			<path d="M-406.817123911583,-82.6682565547366 L-406.81712391158305,-2238.8884621352245 " />
			<path d="M-668.413736451401,-114.37693686259335 L-668.413736451401,-2289.5074103679353 " />
			<path d="M-694.7065257524768,-117.5639416263601 L-694.7065257524768,-2292.694415131702 " />
			<path d="M-699.1441273222787,-118.10183272573005 L-699.1441273222787,-2292.533047801891 " />
			<path d="M-744.9623635304827,-123.65555832672447 L-744.9623635304827,-2280.037165199654 " />
			<path d="M-1006.5589760703004,-155.36423863458123 L-1006.5589760703004,-2330.494712139923 " />
			<path d="M-1032.8517653713764,-158.55124339834796 L-1032.8517653713764,-2333.68171690369 " />
			<path d="M-1037.289366941178,-159.08913449771788 L-1037.289366941178,-2333.520349573879 " />
			<path d="M-1083.1076031493822,-164.64286009871233 L-1083.1076031493822,-2321.0244669716417 " />
			<path d="M-1355.3543771756704,-197.6424690715958 L-1355.3540970905563,-2372.7729062557296 " />
			<path d="M-1381.6471676972687,-191.35646161795233 L-1381.6468863923421,-2375.959915748013 " />
			<path d="M-1386.0847694021006,-190.1461775635868 L-1386.0844879621081,-2375.7985488970257 " />
			<path d="M-1431.903005607519,-177.65029496101172 L-1431.9027241675265,-2363.302666294451 " />
			<path d="M-1357.4100799440546,-197.89164516473326 L37.43903348390687,-28.819025355283237 " />
			<path d="M-1432.2881469118681,-140.2535944541668 L-37.43903348390687,28.819025355283237 " />
			<path d="M-1386.0904424219345,-2413.756864118139 L9.58473462082496,-2243.2418897351977 " />
			<path d="M-1432.7233271685393,-2364.1531426591882 L-1430.0029569537758,-2363.820784625519 " />
			<path d="M-1353.929140005561,-2354.526555451348 L-1082.0572502371751,-2321.3109268567887 " />
			<path d="M-1005.1340166982212,-2311.9129212089847 L-744.7354964225871,-2280.0990380472613 " />
			<path d="M-666.9887770793217,-2270.600423989179 L-406.81712391158305,-2238.8142580497206 " />
			<path d="M-328.84353746042217,-2229.287926769374 L-68.67223567505745,-2197.5018037596437 " />
			<path d="M9.301350712618214,-2207.048750535101 L9.30166793741453,-32.229615118494436 " />
			<path d="M-69.20967479048652,-2197.5674647519054 L-69.20936033675513,-41.74610339415136 " />
			<path d="M-328.84353746042217,-2248.0360066065145 L-328.8435374604221,-73.21691274247468 " />
			<path d="M-407.354562969702,-2238.7271287680437 L-407.35456296970193,-82.73340068299345 " />
			<path d="M-666.9887770793217,-2289.0233083785024 L-666.9887770793217,-114.20421451446252 " />
			<path d="M-745.4998025886015,-2279.7144305400316 L-745.4998025886015,-123.7207024549813 " />
			<path d="M-1005.1340166982212,-2330.0106101504903 L-1005.1340166982212,-155.1915162864504 " />
			<path d="M-1083.6450422075009,-2320.7017323120194 L-1083.6450422075009,-164.7080042269691 " />
			<path d="M-1353.929137718369,-2372.288803854229 L-1353.9294177633876,-197.4697467185918 " />
			<path d="M-1432.4401632255735,-2362.979931568046 L-1432.4404446618914,-177.35609679520766 " />

       </g>
    </g>
    
</svg>
