<?xml version="1.0" encoding="UTF-8" standalone="no"?>
<svg
   xmlns:svg="http://www.w3.org/2000/svg"
   xmlns="http://www.w3.org/2000/svg"
   width="480.0"
   height="480.0"

>
    <g transform="scale(0.14481707834933807, -0.14481707834933807)   translate(133.39278121091428,-2332.0767755571765)" stroke-width="1.0"  fill="none">
       <!-- hidden lines -->
       <g  stroke="rgb(0,0,0)" fill="none" stroke-dasharray="1.0,1.0" >
			<path d="M-16.46193404428274,17.919797246289914 L61.398888005206274,22.264061088016213 " />
			<path d="M64.34015210126405,19.25540418423024 L64.33791180405942,19.37908928245194 L64.33119432521733,19.502335968274508 L64.32000989785425,19.624956493031583 L64.30437555984273,19.746764061923468 L64.28431512785653,19.867573118572235 L64.25985916108942,19.98719962769029 L64.2310449147026,20.105461355431764 L64.19791628307172,20.222178146999653 L64.16052373292024,20.337172201085853 L64.11892422644051,20.450268340725966 L64.07318113452001,20.56129428015631 L64.02336414020498,20.670080887266593 L63.969549132548174,20.776462441248448 L63.91181809100284,20.880276885047337 L63.850258960538746,20.981366072233257 L63.78496551767061,21.07957600791417 L63.71603722760301,21.17475708332514 L63.643579092709444,21.266764303735872 L63.567701492576205,21.355457509329383 L63.48852001585491,21.440701588715424 L63.40615528417978,21.5223666847533 L63.320732768417834,21.60032839237065 L63.23238259753201,21.674467948076707 L63.14123936034832,21.744672410881495 L63.04744190052912,21.81083483434523 L62.95113310506459,21.872854429495884 L62.85245968660495,21.930636718366774 L62.75157195996474,21.98409367792018 L62.64862361313972,22.03314387413784 L62.54377147318526,22.077712586074004 L62.43717526731275,22.117731919682104 L62.328997379568165,22.153140911241575 " />
			<path d="M62.32899737956815,22.15314091124158 L62.21605177978406,22.1847463631491 L62.101784552101634,22.21134866767818 L61.986380504953004,22.232904799980044 L61.87002628538866,22.249379896558885 L61.75291007720657,22.260747311657823 L61.63522129659588,22.266988660354045 L61.51715028578737,22.268093848293365 L61.39888800520628,22.264061088016216 " />
			<path d="M-62.32899737956815,-22.15314091124158 L-62.21605177978406,-22.1847463631491 L-62.101784552101634,-22.21134866767818 L-61.986380504953004,-22.232904799980044 L-61.87002628538866,-22.249379896558885 L-61.75291007720658,-22.260747311657823 L-61.63522129659588,-22.266988660354045 L-61.51715028578737,-22.268093848293365 L-61.39888800520627,-22.264061088016216 " />
			<path d="M-61.398888005206274,-22.264061088016213 L61.398888005206274,-15.412528775303606 " />
			<path d="M61.39888800520627,-15.412528775303608 L61.54320899398256,-15.400654615056363 L61.68718230085586,-15.381165590801395 L61.830461081519346,-15.354108653305172 L61.97270016484066,-15.319548985100033 L62.1135568844094,-15.27756984345375 L62.252691904050536,-15.22827235979549 L62.389770035314974,-15.171775296081332 L62.52446104497786,-15.108214758686326 L62.65644045059939,-15.037743870512298 L62.78539030223138,-14.960532402101384 L62.91099994838657,-14.87676636264391 L63.032966784425284,-14.786647551865965 L63.15099698155645,-14.690393073876193 L63.26480619469698,-14.588234814142965 L63.374120247483894,-14.480418880861986 L63.47867579278925,-14.367205012060092 L63.57822094714642,-14.248865949863587 L63.672515897559435,-14.125686783438583 L63.76133347923349,-13.997964262186217 L63.84445972283483,-13.86600608084736 L63.92169436996162,-13.730130138239023 L63.99285135558397,-13.590663771408282 L64.05775925629091,-13.447942967048643 L64.11626170326437,-13.302311552078672 L64.16821775898538,-13.154120365332837 L64.2135022567649,-13.003726412360027 L64.25200610228131,-12.851492005365904 L64.28363653639826,-12.697783890371078 L64.30831735862942,-12.542972363687813 L64.32598911071229,-12.387430379843774 L64.3366092198482,-12.231532653101915 L64.34015210126405,-12.075654754740988 " />
			<path d="M64.34015210126405,19.25540418423024 L64.34015210126405,-12.075654754740981 " />
			<path d="M63.57135994920607,2260.024552974286 L63.56973873126773,2260.1161053668943 L63.56566577923592,2260.2074330113014 L63.559144491386526,2260.2984597081004 L63.55018030876941,2260.3891095089803 L63.53878071066871,2260.479306780094 L63.52495520836244,2260.568976265163 L63.50871533718677,2260.6580431482703 L63.49007464691148,2260.7464331162782 L63.469048690434676,2260.8340724208365 L63.445655010806206,2260.920887939911 L63.41991312659059,2261.006807238797 L63.391844515581646,2261.091758630551 L63.36147259688245,2261.175671235804 L63.32882271136558,2261.258475041904 L63.29392210052989,2261.3401009613244 L63.256799883771514,2261.420480889313 L63.21748703408804,2261.4995477607113 L63.176016352236104,2261.5772356059138 L63.13242243936407,2261.6534796059077 L63.08674166814241,2261.7282161463554 L63.03901215241617,2261.801382870671 L62.98927371540454,2261.8729187320487 L62.93756785647433,2261.942764044396 L62.88393771651482,2262.0108605321334 L62.82842804194315,2262.077151378817 L62.771085147369966,2262.141581274542 L62.711956876956826,2262.2040964620946 L62.65109256449724,2262.2646447817992 L62.58854299225497,2262.323175715041 L62.52436034859374,2262.3796404264167 L62.458598184433725,2262.4339918044784 L62.39131136857131,2262.486184501042 " />
			<path d="M-16.46178323319712,2221.028502286763 L-16.360475276570913,2220.980941499704 L-16.257354059619004,2220.937709014696 L-16.15257097800282,2220.8988683027765 L-16.046279867222154,2220.8644763872767 " />
			<path d="M-16.04627986722213,2220.8644763872767 L-15.932747127543152,2220.83308799061 L-15.81789668101444,2220.8067527227386 L-15.701915979235704,2220.7855135664136 L-15.584994318537438,2220.7694051868357 L-15.467322531023491,2220.758453875078 L-15.349092673107021,2220.752677505176 L-15.230497712048233,2220.752085504954 L-15.111731211005477,2220.756678840636 " />
			<path d="M-15.111731211005473,2220.756678840637 L60.77985691584067,2225.3465583940183 " />
			<path d="M60.77985691584067,2225.346558394018 L60.924104813339056,2225.3591047504133 L61.06797228482624,2225.3792635437603 L61.211112740962115,2225.4069862097604 L61.353181343850224,2225.4422059620833 L61.49383583778247,2225.48483795326 L61.63273737376309,2225.5347794790905 L61.76955132582557,2225.591910226064 L61.9039480971759,2225.656092561208 L62.03560391422014,2225.727171863654 L62.16420160656333,2225.8049768971377 L62.289431371100804,2225.8893202225177 L62.41099151836094,2225.9799986493363 L62.52858919930159,2226.076793725321 L62.64194111080903,2226.179472262654 L62.750774178199975,2226.287786899747 L62.85482621308243,2226.401476697151 L62.95384654499048,2226.5202677661864 L63.04759662527142,2226.643873928763 L63.135850601770294,2226.771997406808 L63.218395862927586,2226.904329539642 L63.29503354997906,2227.0405515275643 L63.365579036023945,2227.180335199875 L63.42986237080729,2227.323343805464 L63.48772869014507,2227.4692328240744 L63.539038589005486,2227.6176507962823 L63.583668457347976,2227.7682401701923 L63.62151077791059,2227.9206381628123 L63.6524743852285,2228.0744776340302 L63.676484685259574,2228.229387971085 L63.693483835087996,2228.384995981406 L63.70343088227287,2228.5409267916666 L63.70630186350627,2228.6968047508876 " />
			<path d="M63.57135994920607,2260.024552974285 L63.70630186350627,2228.696804750887 " />
			<path d="M-14.522475817451074,18.02800751675207 L61.398903674097774,22.264059680711462 " />
			<path d="M-14.52232496020633,2221.811021894439 L61.399054531342514,2226.0470740583983 " />
			<path d="M65.60070952498606,22.04524772244776 L65.53531479129043,22.06383906570748 L65.46299183640333,22.08199026890146 L65.29827446333776,22.116798509418945 L65.10814372413564,22.1493372216159 L64.89443068175153,22.179293039906412 L64.659193509611,22.20637747338482 L64.40469767027551,22.230329684150867 L64.13339409779942,22.250918999321268 L63.8478955938953,22.26794713253567 L63.55095166522511,22.281250093562694 L63.24542204414799,22.290699767615507 L62.93424914793441,22.296205149167267 L62.62042974167931,22.297713218384082 L62.30698607781606,22.295209451734998 L61.99693679017341,22.288717961861547 L61.69326782288152,22.278301265359815 L61.39890367409778,22.264059680711465 " />
			<path d="M65.60086038223082,2225.828262100135 L65.53546564853518,2225.8468534433946 L65.4631426936481,2225.8650046465887 L65.29842532058251,2225.899812887106 L65.10829458138039,2225.932351599303 L64.89458153899628,2225.9623074175934 L64.65934436685576,2225.989391851072 L64.40484852752026,2226.013344061838 L64.13354495504417,2226.0339333770085 L63.84804645114006,2226.050961510223 L63.55110252246986,2226.0642644712498 L63.24557290139275,2226.0737141453023 L62.934400005179164,2226.0792195268546 L62.620580598924064,2226.080727596071 L62.30713693506082,2226.078223829422 L61.99708764741816,2226.071732339549 L61.69341868012628,2226.061315643047 L61.399054531342536,2226.0470740583987 " />
			<path d="M-14.52247581745107,18.02800751675207 L-14.796147396802285,18.010688731593547 L-15.055946240565808,17.990064085352827 L-15.299523183481295,17.966320071171122 L-15.524675742719227,17.939671388284378 L-15.7293680332742,17.910359000659813 L-15.911749176939576,17.87864795814025 L-16.070170038405,17.844824999798032 L-16.13993888195978,17.827216454387973 L-16.203198137144845,17.809195961169564 " />
			<path d="M-14.522324960206323,2221.811021894439 L-14.733117213853378,2221.7980578583465 L-14.936100293336567,2221.7831302609047 L-15.130196856453937,2221.7663183310365 L-15.314376726605381,2221.7477112988468 L-15.4876623605032,2221.727407922031 L-15.6491340365289,2221.705515961712 L-15.797934736198737,2221.6821516104947 L-15.933274692829487,2221.6574388757676 L-16.05443558326209,2221.6315089215277 L-16.160774340395484,2221.604499372222 L-16.251726566295336,2221.5765535822984 L-16.32680952776254,2221.547819875346 L-16.38562471846227,2221.5184507568597 L-16.408830927194554,2221.50357652094 L-16.427859974015025,2221.4886021048123 L-16.442686601153028,2221.4735473844266 L-16.453291128823682,2221.4584323423223 L-16.459659481349405,2221.4432770411045 L-16.46178320584292,2221.428101596817 " />
			<path d="M-3.755197478029299,2217.4826527172013 L-3.689802744333666,2217.4640613739416 L-3.6174797894465702,2217.4459101707475 L-3.452762416380997,2217.4111019302304 L-3.2626316771788773,2217.3785632180334 L-3.0489186347947603,2217.348607399743 L-2.8136814626542384,2217.321522966264 L-2.5591856233187453,2217.2975707554983 L-2.2878820508426583,2217.2769814403277 L-2.0023835469385376,2217.2599533071134 L-1.7054396182683402,2217.2466503460864 L-1.3999099971912268,2217.237200672034 L-1.088737100977647,2217.2316952904816 L-0.7749176947225462,2217.230187221265 L-0.4614740308592986,2217.2326909879143 L-0.15142474321664057,2217.2391824777874 L0.15224422407524507,2217.2495991742894 L0.44660837285896515,2217.2638407589375 " />
			<path d="M0.44660837285898936,2217.2638407589384 L76.36798786440784,2221.4998929228977 " />
			<path d="M76.36798786440785,2221.4998929228973 L76.5787801180549,2221.5128569589897 L76.78176319753808,2221.5277845564315 L76.97585976065545,2221.5445964862997 L77.1600396308069,2221.5632035184894 L77.33332526470473,2221.583506895305 L77.49479694073042,2221.605398855624 L77.64359764040026,2221.6287632068415 L77.778937597031,2221.6534759415686 L77.90009848746361,2221.6794058958085 L78.00643724459701,2221.706415445114 L78.09738947049685,2221.734361235038 L78.17247243196405,2221.7630949419904 L78.23128762266379,2221.7924640604765 L78.25449383139608,2221.807338296396 L78.27352287821655,2221.822312712524 L78.28834950535455,2221.8373674329096 L78.29895403302521,2221.852482475014 L78.30532238555092,2221.8676377762317 L78.30744611004444,2221.882813220519 " />
			<path d="M78.30744611004444,2221.882813220519 L78.30334855212674,2221.9038892145268 L78.29106636922992,2221.92491123401 L78.27063101571244,2221.9458254421106 L78.24209482599557,2221.9665782780735 L78.20553088053637,2221.987116594413 L78.16103281867048,2222.0073877930213 L78.10871459880406,2222.027339959875 L78.04871020656934,2222.0469219979814 " />
			<path d="M65.60070952498607,22.045247722447755 L78.0485593493246,18.263907620294425 " />
			<path d="M65.60086038223082,2225.828262100134 L78.04871020656935,2222.046921997981 " />
			<path d="M145.56631146828843,-30.602827211122975 L221.48769094778,-26.366775047724314 " />
			<path d="M145.56631146828846,2173.1802330310074 L221.48769094778004,2177.4162851944066 " />
			<path d="M225.6894967992911,-26.585586458908747 L225.62410206554256,-26.56699514249397 L225.5517791106038,-26.548843966080213 L225.38706173743915,-26.51403577867125 L225.1969309981444,-26.4814971185547 L224.98321795567503,-26.451541350814924 L224.74798078345742,-26.424456965870743 L224.49348494405373,-26.400504801155 L224.22218137151904,-26.3799155291075 L223.93668286756645,-26.362887435673294 L223.6397389388584,-26.349584510700655 L223.3342093177544,-26.340134868629193 L223.02303642152512,-26.334629514677754 L222.70921701526575,-26.333121468414422 L222.39577335140962,-26.335625253149097 L222.08572406378545,-26.342116756066073 L221.7820550965232,-26.35253346044365 L221.48769094778,-26.36677504772431 " />
			<path d="M225.68949679929113,2177.197473783222 L225.6241020655426,2177.2160650996366 L225.55177911060383,2177.2342162760506 L225.38706173743918,2177.2690244634596 L225.19693099814444,2177.301563123576 L224.98321795567506,2177.3315188913157 L224.74798078345745,2177.35860327626 L224.49348494405376,2177.382555440976 L224.22218137151907,2177.4031447130233 L223.93668286756647,2177.4201728064577 L223.63973893885841,2177.43347573143 L223.33420931775441,2177.4429253735016 L223.02303642152515,2177.448430727453 L222.70921701526578,2177.4499387737164 L222.39577335140964,2177.4474349889815 L222.08572406378548,2177.4409434860645 L221.78205509652324,2177.430526781687 L221.48769094778004,2177.4162851944066 " />
			<path d="M145.5663114682884,-30.60282721112297 L145.29263988298996,-30.620145994232427 L145.03284103396516,-30.640770633643886 L144.78926408662736,-30.66451463626953 L144.5641115239448,-30.691163302968267 L144.35941923104542,-30.72047566990845 L144.1770380862401,-30.752186687422395 L144.01861722492342,-30.786009616651004 L143.94884838194682,-30.803618146040378 L143.88558912768397,-30.821638622307404 " />
			<path d="M145.56631146828843,2173.180233031008 L145.3555192131613,2173.1672689962666 L145.15253613232602,2173.152341403044 L144.95843956800755,2173.1355294802415 L144.7742596968274,2173.116922457928 L144.6009740620931,2173.0966190937474 L144.43950238544102,2173.074727148758 L144.29070168537078,2173.0513628154845 L144.15536172857932,2173.026650101222 L144.03420083823707,2173.000720169861 L143.927862081454,2172.9737106457287 L143.83690985617088,2172.945764883142 L143.7618268955906,2172.9170312055467 L143.7030117060491,2172.8876621182844 L143.6798054979973,2172.8727878986256 L143.66077645192433,2172.857813499164 L143.64594982560027,2172.842758795827 L143.63534529880914,2172.827643771132 L143.62897694722759,2172.812488487661 L143.6268532237418,2172.797313061435 " />
			<path d="M156.33343896278572,2168.8518698035155 L156.39883369653427,2168.833278487101 L156.47115665147302,2168.815127310687 L156.63587402463767,2168.780319123278 L156.82600476393242,2168.7477804631612 L157.0397178064018,2168.7178246954218 L157.2749549786194,2168.6907403104774 L157.5294508180231,2168.6667881457615 L157.80075439055778,2168.646198873714 L158.08625289451038,2168.6291707802798 L158.38319682321844,2168.6158678553074 L158.68872644432244,2168.606418213236 L158.9998993405517,2168.6009128592846 L159.31371874681108,2168.599404813021 L159.6271624106672,2168.601908597756 L159.93721169829138,2168.608400100673 L160.24088066555362,2168.6188168050503 L160.53524481429682,2168.633058392331 " />
			<path d="M160.53524481429682,2168.633058392331 L236.4566242937884,2172.86911055573 " />
			<path d="M236.45662429378842,2172.8691105557295 L236.66741654891555,2172.882074590471 L236.87039962975084,2172.8970021836935 L237.0644961940693,2172.913814106496 L237.24867606524944,2172.9324211288094 L237.42196169998377,2172.95272449299 L237.58343337663584,2172.9746164379794 L237.73223407670608,2172.997980771253 L237.86757403349753,2173.0226934855154 L237.9887349238398,2173.0486234168766 L238.09507368062285,2173.0756329410087 L238.18602590590598,2173.1035787035953 L238.26110886648627,2173.132312381191 L238.31992405602776,2173.161681468453 L238.34313026407955,2173.176555688112 L238.36215931015252,2173.1915300875735 L238.3769859364766,2173.2065847909103 L238.3875904632677,2173.2216998156055 L238.39395881484927,2173.2368550990764 L238.39608253833507,2173.2520305253024 " />
			<path d="M238.39608253833507,2173.2520305253024 L238.39198497914748,2173.273106493145 L238.37970279532928,2173.294128485971 L238.35926744123992,2173.315042666994 L238.33073125129997,2173.3357954755297 L238.29416730596398,2173.356333764164 L238.24966924456328,2173.3766049348646 L238.19735102549808,2173.3965570736796 L238.13734663439286,2173.4161390836907 " />
			<path d="M225.68949679929113,-26.585586458908747 L238.13734663439283,-30.366921158439755 " />
			<path d="M225.68949679929116,2177.197473783222 L238.13734663439286,2173.416139083691 " />
			<path d="M305.65511441086215,-79.2336633468635 L381.5764938903538,-74.99761118346484 " />
			<path d="M305.65511441086215,2124.549396895267 L381.5764938903538,2128.785449058666 " />
			<path d="M385.77829974186494,-75.21642259464927 L385.71290500811637,-75.19783127823449 L385.6405820531776,-75.17968010182074 L385.47586468001293,-75.14487191441178 L385.2857339407182,-75.11233325429522 L385.0720208982488,-75.08237748655544 L384.83678372603123,-75.05529310161127 L384.58228788662757,-75.03134093689553 L384.3109843140929,-75.01075166484803 L384.02548581014025,-74.99372357141381 L383.7285418814322,-74.98042064644117 L383.42301226032816,-74.97097100436972 L383.11183936409896,-74.96546565041828 L382.79801995783953,-74.96395760415494 L382.4845762939834,-74.96646138888961 L382.17452700635926,-74.9729528918066 L381.870858039097,-74.98336959618418 L381.5764938903538,-74.99761118346484 " />
			<path d="M385.77829974186494,2128.5666376474815 L385.71290500811637,2128.585228963896 L385.6405820531776,2128.60338014031 L385.47586468001293,2128.638188327719 L385.2857339407182,2128.6707269878357 L385.0720208982488,2128.700682755575 L384.83678372603123,2128.7277671405195 L384.58228788662757,2128.7517193052354 L384.3109843140929,2128.7723085772827 L384.02548581014025,2128.789336670717 L383.7285418814322,2128.8026395956895 L383.42301226032816,2128.812089237761 L383.11183936409896,2128.8175945917123 L382.79801995783953,2128.819102637976 L382.4845762939834,2128.816598853241 L382.17452700635926,2128.810107350324 L381.870858039097,2128.7996906459466 L381.5764938903538,2128.785449058666 " />
			<path d="M305.6551144108622,-79.23366334686352 L305.38144282556374,-79.25098212997297 L305.12164397653896,-79.27160676938443 L304.87806702920113,-79.29535077201008 L304.6529144665186,-79.32199943870881 L304.44822217361923,-79.351311805649 L304.26584102881384,-79.38302282316295 L304.1074201674972,-79.41684575239155 L304.0376513245206,-79.43445428178093 L303.97439207025775,-79.45247475804796 " />
			<path d="M319.7193399090147,2119.971121383525 L319.95148805464845,2119.97563079537 L320.1804727813606,2119.9823434312784 L320.4050621219284,2119.9912231764083 L320.6240477568705,2120.0022222565904 " />
			<path d="M320.6240477568705,2120.0022222565904 L396.5454272363621,2124.2382744199895 " />
			<path d="M396.5454272363621,2124.238274419989 L396.7562194914893,2124.2512384547304 L396.9592025723245,2124.266166047953 L397.153299136643,2124.2829779707554 L397.33747900782316,2124.301584993069 L397.51076464255743,2124.3218883572495 L397.67223631920956,2124.343780302239 L397.82103701927974,2124.3671446355124 L397.9563769760712,2124.391857349775 L398.0775378664135,2124.417787281136 L398.18387662319657,2124.444796805268 L398.2748288484797,2124.4727425678548 L398.34991180905996,2124.5014762454502 L398.4087269986014,2124.5308453327125 L398.43193320665324,2124.5457195523713 L398.4509622527262,2124.560693951833 L398.4657888790503,2124.5757486551697 L398.4763934058414,2124.590863679865 L398.48276175742296,2124.606018963336 L398.48488548090876,2124.621194389562 " />
			<path d="M398.48488548090876,2124.621194389562 L398.4807879217212,2124.6422703574044 L398.46850573790294,2124.6632923502307 L398.4480703838136,2124.6842065312535 L398.4195341938737,2124.704959339789 L398.3829702485377,2124.7254976284235 L398.338472187137,2124.745768799124 L398.28615396807174,2124.765720937939 L398.2261495769666,2124.78530294795 " />
			<path d="M385.7782997418649,-75.21642259464927 L398.2261495769666,-78.99775729418029 " />
			<path d="M385.7782997418649,2128.566637647481 L398.2261495769666,2124.78530294795 " />
			<path d="M465.7439173534358,-127.86449948260397 L541.6652968329274,-123.62844731920532 " />
			<path d="M466.23231507646005,2075.945811031392 L541.6652968329274,2080.1546129229255 " />
			<path d="M545.8671026844386,-123.84725873038978 L545.80170795069,-123.828667413975 L545.7293849957513,-123.81051623756125 L545.5646676225866,-123.77570805015229 L545.3745368832919,-123.74316939003573 L545.1608238408224,-123.71321362229595 L544.9255866686049,-123.68612923735178 L544.6710908292011,-123.66217707263604 L544.3997872566665,-123.64158780058854 L544.114288752714,-123.62455970715432 L543.8173448240059,-123.61125678218168 L543.5118152029019,-123.60180714011022 L543.2006423066725,-123.59630178615879 L542.8868229004132,-123.59479373989545 L542.573379236557,-123.59729752463012 L542.2633299489329,-123.60378902754711 L541.9596609816706,-123.61420573192468 L541.6652968329274,-123.62844731920535 " />
			<path d="M545.8671026844386,2079.935801511741 L545.80170795069,2079.9543928281555 L545.7293849957513,2079.9725440045695 L545.5646676225866,2080.0073521919785 L545.3745368832919,2080.039890852095 L545.1608238408224,2080.0698466198346 L544.9255866686049,2080.096931004779 L544.6710908292011,2080.120883169495 L544.3997872566665,2080.141472441542 L544.114288752714,2080.1585005349766 L543.8173448240059,2080.171803459949 L543.5118152029019,2080.1812531020205 L543.2006423066725,2080.186758455972 L542.8868229004132,2080.1882665022354 L542.573379236557,2080.1857627175004 L542.2633299489329,2080.1792712145834 L541.9596609816706,2080.168854510206 L541.6652968329274,2080.1546129229255 " />
			<path d="M465.74391735343585,-127.864499482604 L465.4702457681374,-127.88181826571345 L465.2104469191126,-127.90244290512491 L464.96686997177477,-127.92618690775056 L464.74171740909225,-127.9528355744493 L464.53702511619286,-127.98214794138948 L464.3546439713875,-128.01385895890343 L464.19622311007083,-128.04768188813205 L464.12645426709423,-128.06529041752142 L464.0631950128314,-128.08331089378845 " />
			<path d="M481.33933546198347,2071.4063409932705 L556.6342301789358,2075.607438284249 " />
			<path d="M556.6342301789358,2075.6074382842485 L556.8450224340629,2075.62040231899 L557.0480055148983,2075.6353299122125 L557.2421020792167,2075.652141835015 L557.4262819503969,2075.6707488573284 L557.5995675851311,2075.691052221509 L557.7610392617833,2075.7129441664983 L557.9098399618534,2075.736308499772 L558.0451799186449,2075.7610212140344 L558.1663408089872,2075.7869511453955 L558.2726795657702,2075.8139606695277 L558.3636317910534,2075.8419064321142 L558.4387147516336,2075.8706401097097 L558.4975299411751,2075.900009196972 L558.5207361492269,2075.914883416631 L558.5397651952999,2075.9298578160924 L558.554591821624,2075.944912519429 L558.5651963484152,2075.9600275441244 L558.5715646999967,2075.9751828275953 L558.5736884234825,2075.9903582538213 " />
			<path d="M558.5736884234825,2075.9903582538213 L558.5695908642949,2076.011434221664 L558.5573086804767,2076.03245621449 L558.5368733263873,2076.053370395513 L558.5083371364474,2076.0741232040486 L558.4717731911113,2076.094661492683 L558.4272751297107,2076.1149326633836 L558.3749569106454,2076.1348848021985 L558.3149525195403,2076.1544668122096 " />
			<path d="M545.8671026844385,-123.84725873038975 L558.3149525195403,-127.62859342992077 " />
			<path d="M545.8671026844385,2079.9358015117405 L558.3149525195403,2076.1544668122096 " />
			<path d="M630.8748490259824,-178.02700672064623 L706.7962285041552,-173.790954556847 " />
			<path d="M632.8864380182835,2025.8683385372938 L706.7960952614352,2029.992146160949 " />
			<path d="M710.9980343557344,-174.00976548518025 L710.9326396219801,-173.99117419245712 L710.8603166670357,-173.97302303967797 L710.6955992938601,-173.93821489913964 L710.5054685545554,-173.90567628498667 L710.2917555120766,-173.87572056186082 L710.0565183398505,-173.84863621975126 L709.8020225004394,-173.82468409567826 L709.5307189278983,-173.80409486169023 L709.2452204239405,-173.78706680336572 L708.9482764952282,-173.77376391021485 L708.6427468741213,-173.7643142963708 L708.3315739778903,-173.75880896678052 L708.0177545716305,-173.7573009407775 L707.7043109077752,-173.75980474147656 L707.394261620153,-173.7662962559082 L707.090592652894,-173.77671296723983 L706.7962285041552,-173.790954556847 " />
			<path d="M710.9979011130143,2029.7733352326156 L710.9325063792601,2029.7919265253388 L710.8601834243157,2029.810077678118 L710.6954660511401,2029.8448858186564 L710.5053353118353,2029.8774244328092 L710.2916222693566,2029.9073801559352 L710.0563850971305,2029.9344644980447 L709.8018892577194,2029.9584166221177 L709.5305856851783,2029.9790058561057 L709.2450871812205,2029.9960339144302 L708.9481432525082,2030.0093368075811 L708.6426136314012,2030.0187864214251 L708.3314407351703,2030.0242917510154 L708.0176213289104,2030.0257997770184 L707.7041776650551,2030.0232959763193 L707.3941283774329,2030.016804461888 L707.0904594101739,2030.006387750556 L706.7960952614352,2029.992146160949 " />
			<path d="M630.8748490259824,-178.02700672064623 L630.6011774351916,-178.04432550196523 L630.3413785812959,-178.06495013537247 L630.097801629849,-178.08869412782676 L629.8726490639472,-178.1153427802701 L629.6679567688311,-178.1446551289899 L629.4855756229077,-178.1763661244723 L629.3271547616497,-178.21018902804565 L629.2573859191627,-178.22779754331586 L629.194126665704,-178.24581800464244 " />
			<path d="M710.9980343557344,-174.00976548518025 L723.4458841920131,-177.79109541670914 " />
			<path d="M710.9979011130143,2029.7733352326159 L721.8885661433671,2026.4650371574328 " />
			<path d="M722.2257475725421,-178.30641737937702 L628.9353890618831,-149.96722029384594 " />
			<path d="M557.0948233233073,-128.1439152524259 L463.8044591088892,-99.80471643424036 " />
			<path d="M397.00602038073384,-79.51307911668543 L303.7156561663155,-51.17388029849985 " />
			<path d="M236.91721743816007,-30.8822429809449 L143.62685322374176,-2.5430441627593225 " />
			<path d="M76.82843827131126,17.748585932345573 L62.32899737956816,22.153140911241575 " />
			<path d="M319.7193399090147,2119.971121383525 L304.7405867819902,2124.4720487201757 " />
			<path d="M157.7114104073873,2168.652471056918 L143.67589244978078,2172.8699680624245 " />
			<path d="M-3.7551974993521284,2217.1711603844406 L-16.046279867222133,2220.864476387277 " />
			<path d="M78.30744611004444,2221.882813220519 L78.30744409952678,2192.512366440918 " />
			<path d="M238.39608253833507,2173.2520305253024 L238.39608253833507,2144.4077396454827 " />
			<path d="M398.48488548090876,2124.621194389562 L398.48488548090876,2096.30306341873 " />
			<path d="M558.5736884234824,2075.9903582538213 L558.5736884234824,2048.198387191977 " />

       </g>

       <!-- solid lines -->
       <g  stroke="rgb(0,0,0)" fill="none">
			<path d="M-61.398888005206274,15.412528775303606 L-16.46193404428274,17.919797246289914 " />
			<path d="M598.9674241329107,-185.1896702846261 L721.7652001433231,-178.33813797191348 " />
			<path d="M724.7064642393809,-181.34679487569946 L724.7042239421762,-181.22310977747776 L724.6975064633342,-181.0998630916552 L724.6863220359711,-180.97724256689813 L724.6706876979596,-180.85543499800625 L724.6506272659734,-180.73462594135748 L724.6261712992062,-180.61499943223942 L724.5973570528195,-180.49673770449795 L724.5642284211885,-180.38002091293006 L724.5268358710371,-180.26502685884387 L724.4852363645574,-180.15193071920373 L724.4394932726368,-180.0409047797734 L724.3896762783219,-179.9321181726631 L724.3358612706651,-179.82573661868128 L724.2781302291197,-179.72192217488237 L724.2165710986555,-179.62083298769645 L724.1512776557875,-179.52262305201555 L724.0823493657199,-179.42744197660457 L724.0098912308263,-179.33543475619385 L723.934013630693,-179.24674155060032 L723.8548321539718,-179.1614974712143 L723.7724674222966,-179.0798323751764 L723.6870449065347,-179.00187066755905 L723.5986947356489,-178.927731111853 L723.5075514984652,-178.85752664904822 L723.413754038646,-178.7913642255845 L723.3174452431814,-178.72934463043381 L723.2187718247218,-178.67156234156295 L723.1178840980816,-178.61810538200953 L723.0149357512565,-178.56905518579188 L722.9100836113021,-178.52448647385572 L722.8034874054296,-178.4844671402476 L722.695309517685,-178.44905814868812 " />
			<path d="M722.695309517685,-178.44905814868812 L722.5823639179009,-178.4174526967806 L722.4680966902184,-178.39085039225154 L722.3526926430699,-178.36929425994967 L722.2363384235055,-178.35281916337084 L722.1192222153235,-178.34145174827188 L722.0015334347128,-178.33521039957566 L721.8834624239042,-178.33410521163634 L721.7652001433231,-178.33813797191348 " />
			<path d="M-61.39888800520627,15.412528775303608 L-61.54320899398256,15.400654615056363 L-61.68718230085586,15.381165590801395 L-61.830461081519346,15.354108653305172 L-61.97270016484066,15.319548985100033 L-62.1135568844094,15.277569843453751 L-62.252691904050536,15.22827235979549 L-62.389770035314974,15.171775296081332 L-62.52446104497786,15.108214758686326 L-62.65644045059939,15.037743870512298 L-62.78539030223138,14.960532402101384 L-62.91099994838657,14.87676636264391 L-63.032966784425284,14.786647551865965 L-63.15099698155645,14.690393073876194 L-63.26480619469698,14.588234814142966 L-63.374120247483894,14.48041888086199 L-63.47867579278925,14.367205012060092 L-63.57822094714642,14.248865949863585 L-63.672515897559435,14.125686783438582 L-63.76133347923349,13.997964262186215 L-63.84445972283483,13.866006080847358 L-63.92169436996162,13.730130138239023 L-63.99285135558397,13.590663771408282 L-64.05775925629091,13.447942967048643 L-64.11626170326437,13.302311552078672 L-64.16821775898538,13.154120365332838 L-64.2135022567649,13.003726412360027 L-64.25200610228131,12.851492005365905 L-64.28363653639826,12.697783890371078 L-64.30831735862942,12.542972363687811 L-64.32598911071229,12.387430379843774 L-64.3366092198482,12.231532653101914 L-64.34015210126405,12.07565475474101 " />
			<path d="M598.9674241329107,-185.1896702846261 L598.8231031441344,-185.20154444487335 L598.679129837261,-185.22103346912832 L598.5358510565976,-185.24809040662453 L598.3936119732763,-185.2826500748297 L598.2527552537075,-185.32462921647596 L598.1136202340664,-185.3739267001342 L597.976542102802,-185.43042376384838 L597.8418510931391,-185.4939843012434 L597.7098716875175,-185.5644551894174 L597.5809218358855,-185.64166665782832 L597.4553121897303,-185.7254326972858 L597.3333453536916,-185.81555150806375 L597.2153151565605,-185.9118059860535 L597.10150594342,-186.01396424578675 L596.9921918906331,-186.1217801790677 L596.8876363453277,-186.2349940478696 L596.7880911909705,-186.35333311006613 L596.6937962405575,-186.47651227649112 L596.6049786588834,-186.6042347977435 L596.5218524152821,-186.73619297908235 L596.4446177681554,-186.8720689216907 L596.3734607825329,-187.01153528852143 L596.308552881826,-187.15425609288107 L596.2500504348526,-187.29988750785103 L596.1980943791316,-187.44807869459686 L596.152809881352,-187.59847264756968 L596.1143060358356,-187.7507070545638 L596.0826756017186,-187.90441516955863 L596.0579947794874,-188.0592266962419 L596.0403230274046,-188.21476868008594 L596.0297029182688,-188.37066640682778 L596.0261600368528,-188.5265443051887 " />
			<path d="M-64.34015210126405,12.075654754740981 L-64.34015210126405,-19.25540418423024 " />
			<path d="M596.0261600368528,-188.52654430518874 L596.0261600368528,-219.85760324415998 " />
			<path d="M-64.34015210126405,-19.25540418423024 L-64.33791180405942,-19.37908928245194 L-64.33119432521733,-19.502335968274508 L-64.32000989785425,-19.624956493031583 L-64.30437555984273,-19.746764061923468 L-64.28431512785653,-19.867573118572235 L-64.25985916108942,-19.98719962769029 L-64.2310449147026,-20.105461355431764 L-64.19791628307172,-20.222178146999653 L-64.16052373292024,-20.337172201085853 L-64.11892422644051,-20.450268340725966 L-64.07318113452001,-20.56129428015631 L-64.02336414020498,-20.670080887266593 L-63.969549132548174,-20.776462441248448 L-63.91181809100284,-20.880276885047333 L-63.850258960538746,-20.981366072233257 L-63.78496551767061,-21.07957600791417 L-63.71603722760301,-21.17475708332514 L-63.643579092709444,-21.266764303735872 L-63.567701492576205,-21.355457509329383 L-63.48852001585491,-21.440701588715424 L-63.40615528417978,-21.5223666847533 L-63.320732768417834,-21.60032839237065 L-63.23238259753201,-21.674467948076707 L-63.14123936034832,-21.744672410881495 L-63.04744190052912,-21.81083483434523 L-62.95113310506459,-21.872854429495884 L-62.85245968660495,-21.930636718366774 L-62.75157195996474,-21.98409367792018 L-62.64862361313972,-22.03314387413784 L-62.54377147318526,-22.077712586074004 L-62.43717526731276,-22.1177319196821 L-62.32899737956818,-22.15314091124157 " />
			<path d="M596.0261600368528,-219.85760324415995 L596.0284003340576,-219.98128834238165 L596.0351178128996,-220.1045350282042 L596.0463022402627,-220.22715555296128 L596.0619365782742,-220.34896312185316 L596.0819970102604,-220.46977217850193 L596.1064529770275,-220.58939868762 L596.1352672234143,-220.70766041536146 L596.1683958550452,-220.82437720692934 L596.2057884051967,-220.93937126101554 L596.2473879116764,-221.05246740065567 L596.293131003597,-221.163493340086 L596.3429479979119,-221.2722799471963 L596.3967630055687,-221.37866150117813 L596.454494047114,-221.48247594497704 L596.5160531775782,-221.58356513216296 L596.5813466204463,-221.68177506784386 L596.6502749105139,-221.77695614325484 L596.7227330454075,-221.86896336366556 L596.7986106455407,-221.9576565692591 L596.877792122262,-222.04290064864512 L596.9601568539372,-222.124565744683 L597.0455793696991,-222.20252745230036 L597.1339295405849,-222.2766670080064 L597.2250727777686,-222.34687147081118 L597.3188702375878,-222.41303389427492 L597.4151790330524,-222.4750534894256 L597.513852451512,-222.53283577829646 L597.6147401781521,-222.58629273784987 L597.7176885249772,-222.63534293406752 L597.8225406649317,-222.6799116460037 L597.9291368708042,-222.7199309796118 L598.0373147585487,-222.75533997117125 " />
			<path d="M598.0373147585487,-222.75533997117128 L598.1502603583328,-222.7869454230788 L598.2645275860153,-222.81354772760787 L598.3799316331639,-222.83510385990974 L598.4962858527283,-222.8515789564886 L598.6134020609103,-222.86294637158753 L598.731090841521,-222.86918772028375 L598.8491618523295,-222.87029290822306 L598.9674241329107,-222.86626014794592 " />
			<path d="M598.9674241329107,-222.86626014794592 L721.7652001433231,-216.01472783523332 " />
			<path d="M721.7652001433231,-216.01472783523332 L721.9095211320994,-216.00285367498606 L722.0534944389727,-215.9833646507311 L722.1967732196362,-215.95630771323488 L722.3390123029575,-215.92174804502974 L722.4798690225263,-215.87976890338345 L722.6190040421674,-215.8304714197252 L722.7560821734319,-215.77397435601102 L722.8907731830947,-215.71041381861602 L723.0227525887162,-215.639942930442 L723.1517024403482,-215.56273146203108 L723.2773120865035,-215.4789654225736 L723.3992789225422,-215.38884661179566 L723.5173091196733,-215.2925921338059 L723.6311183328138,-215.19043387407265 L723.7404323856007,-215.0826179407917 L723.8449879309061,-214.9694040719898 L723.9445330852633,-214.85106500979327 L724.0388280356763,-214.72788584336828 L724.1276456173504,-214.60016332211592 L724.2107718609517,-214.46820514077706 L724.2880065080784,-214.3323291981687 L724.3591634937009,-214.19286283133798 L724.4240713944077,-214.05014202697834 L724.4825738413812,-213.90451061200838 L724.5345298971022,-213.75631942526255 L724.5798143948817,-213.60592547228973 L724.6183182403981,-213.4536910652956 L724.6499486745151,-213.29998295030077 L724.6746294967463,-213.1451714236175 L724.6923012488292,-212.98962943977347 L724.702921357965,-212.83373171303163 L724.7064642393809,-212.6778538146707 " />
			<path d="M724.7064642393809,-181.34679487569946 L724.7064642393809,-212.6778538146707 " />
			<path d="M-15.274003133265214,2258.4292874637104 L60.617584993580934,2263.0191670170916 " />
			<path d="M646.4626052413647,2059.5857412060136 L722.3541933682108,2064.175620759395 " />
			<path d="M62.391311368571294,2262.486184501042 L62.294748058687404,2262.5554817425955 L62.19546969298878,2262.620357942831 L62.093638307314464,2262.6807072149377 L61.98942010438044,2262.7364310606695 L61.88298518251414,2262.7874385311065 L61.77450725803075,2262.8336463750975 L61.66416338170449,2262.874979175135 L61.5521336497976,2262.9113694704515 " />
			<path d="M61.55213364979759,2262.9113694704515 L61.43860091011861,2262.9427578671184 L61.323750463589896,2262.9690931349896 L61.20776976181116,2262.9903322913146 L61.0908481011129,2263.0064406708925 L60.97317631359895,2263.01739198265 L60.85494645568248,2263.023168352552 L60.73635149462369,2263.0237603527744 L60.61758499358095,2263.019167017092 " />
			<path d="M725.3079683238359,2061.1810067165884 L725.3052015504193,2061.304523076358 L725.2979706739065,2061.427581478258 L725.286286683609,2061.5499949011087 L725.2701673365723,2061.67157730395 L725.24963713059,2061.792143908788 L725.2247272669728,2061.911511481414 L725.1954756031284,2062.0294986098793 L725.161926595028,2062.1459259801995 L725.1241312296423,2062.2606166488754 L725.0821469474532,2062.373396311803 L725.0360375551571,2062.4840935691786 L724.9858731286928,2062.5925401859895 L724.9317299067419,2062.698571347691 L724.8736901748632,2062.802025910689 L724.8118421404371,2062.902746647241 L724.7462797986097,2063.0005804844095 L724.6771027894423,2063.095378736695 L724.6044162464793,2063.186997332007 L724.5283306369705,2063.2752970306215 L724.4489615939842,2063.3601436367926 L724.3664297406717,2063.4414082027015 L724.280860506947,2063.5189672244264 L724.1923839388611,2063.5927028296433 L724.1011345009616,2063.6625029567626 L724.0072508719365,2063.7282615252398 L723.910875733854,2063.789878596794 L723.812155555317,2063.847260527291 L723.7112403688644,2063.9003201090604 L723.6082835429552,2063.9489767034333 L723.5034415488824,2063.993156363296 L723.3968737229719,2064.0327919454685 L723.2887420244274,2064.067823212754 " />
			<path d="M723.2887420244274,2064.067823212754 L723.1752092847485,2064.0992116094208 L723.0603588382197,2064.125546877292 L722.944378136441,2064.146786033617 L722.8274564757427,2064.162894413195 L722.7097846882288,2064.1738457249526 L722.5915548303124,2064.1796220948545 L722.4729598692535,2064.1802140950767 L722.3541933682108,2064.1756207593944 " />
			<path d="M-15.274003133265218,2258.429287463711 L-15.418251030763605,2258.4167411073154 L-15.562118502250792,2258.3965823139683 L-15.705258958386667,2258.3688596479683 L-15.847327561274776,2258.3336398956453 L-15.98798205520702,2258.2910079044686 L-16.12688359118764,2258.241066378638 L-16.26369754325012,2258.1839356316646 L-16.398094314600453,2258.1197532965207 L-16.52975013164469,2258.0486739940748 L-16.65834782398788,2257.970868960591 L-16.78357758852535,2257.886525635211 L-16.90513773578549,2257.7958472083924 L-17.022735416726142,2257.699052132408 L-17.13608732823358,2257.5963735950745 L-17.244920395624522,2257.4880589579816 L-17.34897243050698,2257.3743691605778 L-17.447992762415037,2257.2555780915422 L-17.541742842695967,2257.131971928966 L-17.629996819194844,2257.0038484509205 L-17.712542080352137,2256.871516318087 L-17.789179767403613,2256.7352943301644 L-17.859725253448495,2256.5955106578535 L-17.924008588231846,2256.4525020522647 L-17.98187490756962,2256.3066130336542 L-18.033184806430036,2256.1581950614463 L-18.07781467477253,2256.0076056875364 L-18.115656995335144,2255.8552076949163 L-18.146620602653048,2255.7013682236984 L-18.170630902684128,2255.5464578866436 L-18.187630052512546,2255.3908498763226 L-18.19757709969742,2255.234919066062 L-18.200448080930823,2255.079041106841 " />
			<path d="M646.4626052413646,2059.585741206013 L646.3183573438662,2059.5731948496177 L646.174489872379,2059.5530360562707 L646.0313494162432,2059.5253133902706 L645.8892808133551,2059.4900936379477 L645.7486263194228,2059.447461646771 L645.6097247834422,2059.3975201209405 L645.4729108313797,2059.340389373967 L645.3385140600294,2059.276207038823 L645.2068582429852,2059.205127736377 L645.078260550642,2059.1273227028933 L644.9530307861045,2059.0429793775133 L644.8314706388444,2058.9523009506947 L644.7138729579037,2058.85550587471 L644.6005210463962,2058.752827337377 L644.4916879790053,2058.644512700284 L644.3876359441228,2058.53082290288 L644.2886156122148,2058.4120318338446 L644.1948655319338,2058.288425671268 L644.1066115554349,2058.160302193223 L644.0240662942776,2058.027970060389 L643.9474286072262,2057.8917480724667 L643.8768831211813,2057.751964400156 L643.812599786398,2057.608955794567 L643.7547334670602,2057.4630667759566 L643.7034235681998,2057.3146488037487 L643.6587936998573,2057.1640594298387 L643.6209513792946,2057.0116614372187 L643.5899877719768,2056.8578219660008 L643.5659774719458,2056.702911628946 L643.5489783221173,2056.547303618625 L643.5390312749324,2056.3913728083644 L643.536160293699,2056.2354948491434 " />
			<path d="M-18.200448080930823,2255.079041106841 L-18.065506166630616,2223.751292883443 " />
			<path d="M643.536160293699,2056.235494849144 L643.6711022079993,2024.9077466257456 " />
			<path d="M-18.065506166630616,2223.751292883442 L-18.063319995328367,2223.6429305514616 L-18.057698458520267,2223.534902852978 L-18.048648129567336,2223.4273361066635 L-18.03617959117703,2223.32035609219 L-18.020307423028704,2223.214087903154 L-18.001050184725347,2223.108655800802 L-17.978430394091497,2223.0041830687296 L-17.95247450084277,2222.900791868724 L-17.923212855657745,2222.7986030979187 L-17.890679674688382,2222.697736247425 L-17.85491299955048,2222.5983092626097 L-17.815954652840947,2222.5004384051804 L-17.773850189233926,2222.404238117237 L-17.728648842212895,2222.3098208874544 L-17.680403466501122,2222.2172971195446 L-17.62917047625769,2222.1267750031634 L-17.575009779111465,2222.0383603873997 L-17.517984706110028,2221.952156657006 L-17.45816193766561,2221.868264611507 L-17.395611425584498,2221.7867823473343 L-17.330406311271183,2221.7078051431204 L-17.262622840202834,2221.631425348287 L-17.19234027277413,2221.5577322750605 L-17.119640791616703,2221.486812094036 L-17.04460940550156,2221.418747733418 L-16.967333849936825,2221.3536187820505 L-16.887904484577103,2221.291501396352 L-16.80641418756434,2221.2324682112644 L-16.722958246923806,2221.1765882553204 L-16.63763424914214,2221.1239268699273 L-16.550541965057764,2221.074545632961 L-16.461783233197146,2221.028502286763 " />
			<path d="M643.6711022079993,2024.9077466257456 L643.6738689814159,2024.7842302659762 L643.6810998579286,2024.6611718640754 L643.6927838482262,2024.5387584412254 L643.7089031952629,2024.4171760383838 L643.7294334012452,2024.2966094335457 L643.7543432648624,2024.1772418609196 L643.7835949287067,2024.0592547324547 L643.8171439368072,2023.942827362134 L643.8549393021929,2023.8281366934584 L643.896923584382,2023.715357030531 L643.9430329766781,2023.604659773155 L643.9931974031424,2023.496213156344 L644.0473406250933,2023.3901819946425 L644.105380356972,2023.2867274316447 L644.1672283913981,2023.1860066950926 L644.2327907332254,2023.0881728579243 L644.3019677423929,2022.993374605639 L644.3746542853559,2022.9017560103268 L644.4507398948647,2022.8134563117123 L644.530108937851,2022.728609705541 L644.6126407911635,2022.6473451396323 L644.6982100248882,2022.5697861179071 L644.7866865929741,2022.4960505126908 L644.8779360308736,2022.4262503855714 L644.9718196598986,2022.3604918170938 L645.0681947979812,2022.2988747455395 L645.1669149765182,2022.2414928150429 L645.2678301629708,2022.1884332332736 L645.37078698888,2022.1397766389005 L645.4756289829528,2022.0955969790382 L645.5821968088633,2022.055961396865 L645.6903285074077,2022.02093012958 " />
			<path d="M645.6903285074078,2022.02093012958 L645.8038612470867,2021.9895417329133 L645.9187116936155,2021.963206465042 L646.0346923953942,2021.9419673087168 L646.1516140560925,2021.9258589291387 L646.2692858436064,2021.9149076173812 L646.3875157015228,2021.9091312474795 L646.5061106625817,2021.908539247257 L646.6248771636244,2021.9131325829394 " />
			<path d="M646.6248771636244,2021.9131325829394 L722.5164652904705,2026.5030121363206 " />
			<path d="M722.5164652904706,2026.5030121363204 L722.660713187969,2026.5155584927156 L722.8045806594562,2026.5357172860627 L722.947721115592,2026.563439952063 L723.0897897184801,2026.5986597043857 L723.2304442124124,2026.6412916955628 L723.369345748393,2026.691233221393 L723.5061597004554,2026.748363968367 L723.6405564718058,2026.8125463035103 L723.77221228885,2026.8836256059567 L723.9008099811932,2026.96143063944 L724.0260397457307,2027.0457739648205 L724.1475998929908,2027.136452391639 L724.2651975739315,2027.2332474676232 L724.378549485439,2027.3359260049567 L724.4873825528299,2027.4442406420496 L724.5914345877123,2027.5579304394537 L724.6904549196204,2027.676721508489 L724.7842049999014,2027.8003276710656 L724.8724589764003,2027.928451149111 L724.9550042375575,2028.0607832819444 L725.031641924609,2028.1970052698666 L725.1021874106539,2028.3367889421775 L725.1664707454372,2028.4797975477666 L725.224337064775,2028.6256865663772 L725.2756469636354,2028.7741045385849 L725.3202768319779,2028.9246939124946 L725.3581191525406,2029.077091905115 L725.3890827598584,2029.2309313763328 L725.4130930598894,2029.3858417133877 L725.4300922097179,2029.5414497237086 L725.4400392569028,2029.6973805339694 L725.4429102381362,2029.85325849319 " />
			<path d="M725.3079683238359,2061.1810067165884 L725.4429102381362,2029.8532584931902 " />
			<path d="M-16.203198137144852,17.80919596116956 L-16.263202532060497,17.78961393127844 L-16.31552075465851,17.769661771587455 L-16.36001881929969,17.749390579070802 L-16.396582767570727,17.728852267737633 L-16.425118960128813,17.708099435681603 L-16.445554316509618,17.687185230378493 L-16.457836502284504,17.666163212576866 L-16.461934063087668,17.645087219130364 " />
			<path d="M-16.461934063087668,17.64508721913036 L-16.45783650516997,17.62401122512287 L-16.445554322273154,17.60298920563972 L-16.42511896875566,17.582074997538854 L-16.39658277903879,17.561322161576005 L-16.360018833579602,17.540783845236955 L-16.315520771713704,17.520512646628184 L-16.26320255184729,17.500560479774443 L-16.203198159612576,17.480978441668267 " />
			<path d="M-16.46178320584292,2221.428101596817 L-16.45768564792522,2221.4070256028094 L-16.445403465028406,2221.3860035833263 L-16.42496811151091,2221.3650893752256 L-16.396431921794044,2221.3443365392627 L-16.359867976334854,2221.3237982229234 L-16.315369914468956,2221.303527024315 L-16.26305169460254,2221.283574857461 L-16.20304730236783,2221.263992819355 " />
			<path d="M-16.203198159612576,17.480978441668267 L-3.7553483352740464,13.699638339514935 " />
			<path d="M-16.20304730236783,2221.2639928193553 L-3.7551974780292987,2217.482652717202 " />
			<path d="M-3.7553483352740464,13.69963833951493 L-3.6899536015784133,13.681046996255207 L-3.6176306466913175,13.662895793061228 L-3.4529132736257444,13.628087552543745 L-3.2627825344236245,13.595548840346785 L-3.0490694920395076,13.565593022056277 L-2.8138323198989856,13.53850858857787 L-2.5593364805634926,13.514556377811822 L-2.2880329080874056,13.493967062641419 L-2.002534404183285,13.476938929427016 L-1.7055904755130875,13.463635968399995 L-1.4000608544359738,13.45418629434718 L-1.0888879582223943,13.448680912795421 L-0.7750685519672934,13.447172843578606 L-0.4616248881040458,13.449676610227689 L-0.15157560046138774,13.456168100101142 L0.1520933668304979,13.466584796602874 L0.446457515614218,13.480826381251223 " />
			<path d="M0.44645751561424873,13.48082638125123 L76.3678370071631,17.716878545210623 " />
			<path d="M76.36783700716309,17.71687854521062 L76.57862926081013,17.729842581303014 L76.78161234029332,17.744770178744616 L76.97570890341069,17.761582108612814 L77.15988877356214,17.780189140802367 L77.33317440745996,17.800492517618384 L77.49464608348566,17.822384477937426 L77.6434467831555,17.845748829154687 L77.77878673978624,17.87046156388171 L77.89994763021885,17.89639151812141 L78.00628638735225,17.923401067427108 L78.09723861325209,17.95134685735076 L78.17232157471929,17.98008056430338 L78.23113676541902,18.009449682789448 L78.25434297415131,18.02432391870952 L78.27337202097179,18.03929833483697 L78.28819864810978,18.054353055222585 L78.29880317578045,18.069468097327114 L78.30517152830616,18.084623398544664 L78.30729525279968,18.099798842832325 " />
			<path d="M78.30729525279968,18.099798842832328 L78.30319769488197,18.120874836839818 L78.29091551198516,18.14189685632297 L78.27048015846768,18.162811064423835 L78.2419439687508,18.183563900386684 L78.20538002329161,18.204102216725733 L78.16088196142572,18.224373415334505 L78.1085637415593,18.244325582188246 L78.04855934932458,18.263907620294425 " />
			<path d="M143.88558912768397,-30.821638622307404 L143.82558473657878,-30.841220632318613 L143.77326651751355,-30.861172771133667 L143.72876845611285,-30.881443941834 L143.69220451077686,-30.901982230468512 L143.6636683208369,-30.9227350390039 L143.64323296674755,-30.943649220026863 L143.63095078292935,-30.964671212853276 L143.62685322374176,-30.98574718069573 " />
			<path d="M143.62685322374176,-30.985747180695732 L143.63095078292935,-31.00682314853819 L143.64323296674755,-31.0278451413646 L143.6636683208369,-31.048759322387564 L143.69220451077686,-31.069512130922952 L143.72876845611285,-31.090050419557464 L143.77326651751355,-31.110321590257794 L143.82558473657875,-31.130273729072847 L143.88558912768397,-31.149855739084057 " />
			<path d="M143.6268532237418,2172.797313061435 L143.63095078292938,2172.7762370935925 L143.64323296674758,2172.7552151007662 L143.66366832083693,2172.7343009197434 L143.6922045107769,2172.7135481112077 L143.72876845611287,2172.6930098225735 L143.77326651751358,2172.672738651873 L143.82558473657878,2172.652786513058 L143.885589127684,2172.6332045030467 " />
			<path d="M143.88558912768397,-31.149855739084064 L156.33343896278566,-34.931190438615076 " />
			<path d="M143.885589127684,2172.6332045030463 L156.3334389627857,2168.8518698035155 " />
			<path d="M156.3334389627857,-34.93119043861507 L156.39883369653424,-34.94978175502984 L156.471156651473,-34.9679329314436 L156.63587402463764,-35.00274111885256 L156.8260047639324,-35.03527977896911 L157.03971780640177,-35.06523554670889 L157.27495497861938,-35.092319931653066 L157.52945081802307,-35.11627209636881 L157.80075439055776,-35.13686136841631 L158.08625289451035,-35.15388946185052 L158.3831968232184,-35.16719238682316 L158.6887264443224,-35.17664202889462 L158.99989934055168,-35.18214738284606 L159.31371874681105,-35.18365542910939 L159.62716241066718,-35.181151644374715 L159.93721169829135,-35.174660141457736 L160.2408806655536,-35.16424343708017 L160.5352448142968,-35.1500018497995 " />
			<path d="M160.5352448142968,-35.15000184979951 L236.45662429378837,-30.913949686400844 " />
			<path d="M236.4566242937884,-30.91394968640084 L236.66741654891553,-30.900985651659656 L236.8703996297508,-30.886058058437094 L237.06449619406928,-30.86924613563454 L237.2486760652494,-30.850639113321044 L237.42196169998374,-30.830335749140513 L237.5834333766358,-30.80844380415092 L237.73223407670605,-30.785079470877392 L237.8675740334975,-30.76036675661497 L237.98873492383976,-30.734436825254058 L238.09507368062282,-30.7074273011219 L238.18602590590595,-30.67948153853504 L238.26110886648624,-30.650747860939543 L238.31992405602773,-30.621378773677346 L238.34313026407952,-30.606504554018528 L238.3621593101525,-30.591530154557006 L238.37698593647656,-30.576475451220166 L238.38759046326768,-30.561360426524914 L238.39395881484924,-30.546205143054337 L238.39608253833504,-30.531029716828083 " />
			<path d="M238.39608253833504,-30.53102971682808 L238.39198497914745,-30.509953748985623 L238.37970279532925,-30.48893175615921 L238.3592674412399,-30.468017575136248 L238.33073125129994,-30.44726476660086 L238.29416730596395,-30.426726477966348 L238.24966924456325,-30.406455307266018 L238.19735102549805,-30.386503168450965 L238.13734663439283,-30.366921158439755 " />
			<path d="M303.97439207025775,-79.45247475804796 L303.9143876791525,-79.47205676805916 L303.86206946008735,-79.49200890687422 L303.81757139868665,-79.51228007757454 L303.78100745335064,-79.53281836620906 L303.7524712634107,-79.55357117474445 L303.7320359093213,-79.57448535576741 L303.71975372550315,-79.59550734859383 L303.71565616631557,-79.61658331643628 " />
			<path d="M303.71565616631557,-79.61658331643628 L303.71975372550315,-79.63765928427873 L303.7320359093214,-79.65868127710515 L303.7524712634107,-79.6795954581281 L303.78100745335064,-79.7003482666635 L303.81757139868665,-79.72088655529801 L303.86206946008735,-79.74115772599833 L303.9143876791526,-79.76110986481339 L303.97439207025775,-79.7806918748246 " />
			<path d="M305.6551144108622,2124.5493968952674 L305.44432215573505,2124.536432860526 L305.2413390748998,2124.5215052673034 L305.0472425105813,2124.504693344501 L304.86306263940116,2124.4860863221875 L304.68977700466684,2124.465782958007 L304.52830532801477,2124.4438910130175 L304.3795046279446,2124.420526679744 L304.2441646711531,2124.3958139654815 L304.12300378081085,2124.3698840341203 L304.01666502402776,2124.342874509988 L303.92571279874466,2124.3149287474016 L303.85062983816437,2124.286195069806 L303.7918146486229,2124.256825982544 L303.7686084405711,2124.241951762885 L303.74957939449814,2124.2269773634234 L303.734752768174,2124.2119226600867 L303.7241482413829,2124.1968076353915 L303.71777988980136,2124.1816523519205 L303.71565616631557,2124.1664769256945 " />
			<path d="M303.71565616631557,2124.1664769256945 L303.71975372550315,2124.145400957852 L303.7320359093214,2124.1243789650257 L303.7524712634107,2124.103464784003 L303.78100745335064,2124.082711975467 L303.81757139868665,2124.062173686833 L303.86206946008735,2124.0419025161323 L303.9143876791526,2124.0219503773174 L303.97439207025775,2124.002368367306 " />
			<path d="M303.97439207025775,-79.78069187482457 L316.42224190535944,-83.56202657435558 " />
			<path d="M303.97439207025775,2124.0023683673057 L316.42224190535944,2120.221033667775 " />
			<path d="M316.4222419053594,-83.56202657435558 L316.48763663910796,-83.58061789077037 L316.55995959404675,-83.59876906718412 L316.7246769672114,-83.63357725459308 L316.9148077065061,-83.66611591470964 L317.1285207489755,-83.69607168244941 L317.3637579211931,-83.72315606739359 L317.61825376059676,-83.74710823210933 L317.88955733313145,-83.76769750415684 L318.1750558370841,-83.78472559759105 L318.47199976579213,-83.79802852256368 L318.77752938689616,-83.80747816463514 L319.0887022831254,-83.81298351858658 L319.4025216893848,-83.81449156484992 L319.7159653532409,-83.81198778011525 L320.02601464086507,-83.80549627719826 L320.3296836081273,-83.79507957282068 L320.6240477568705,-83.78083798554003 " />
			<path d="M316.4222419053594,2120.221033667775 L316.53213616292777,2120.1910190415397 L316.66006617374177,2120.162240975011 L316.80521702691385,2120.1348827837355 L316.9666641152325,2120.1091187386883 L317.14337902488637,2120.0851129561765 L317.33423608643375,2120.0630183524186 L317.5380195452881,2120.042975669474 L317.7534313060436,2120.0251125787186 L317.9790992013097,2120.0095428675822 L318.21358573238194,2119.9963657147264 L318.45539722607214,2119.9856650582756 L318.70299334936794,2119.977509061138 L318.95479692131494,2119.9719496768053 L319.20920395961866,2119.969022318414 L319.46459389797076,2119.968745633161 L319.71933990901465,2119.971121383525 " />
			<path d="M320.6240477568705,-83.78083798554002 L396.5454272363621,-79.54478582214136 " />
			<path d="M396.5454272363621,-79.54478582214136 L396.7562194914893,-79.53182178740019 L396.9592025723245,-79.51689419417762 L397.153299136643,-79.50008227137508 L397.33747900782316,-79.48147524906157 L397.51076464255743,-79.46117188488104 L397.67223631920956,-79.43927993989145 L397.82103701927974,-79.41591560661792 L397.9563769760712,-79.39120289235551 L398.0775378664135,-79.36527296099459 L398.18387662319657,-79.33826343686243 L398.2748288484797,-79.31031767427557 L398.34991180905996,-79.28158399668007 L398.4087269986014,-79.25221490941787 L398.43193320665324,-79.23734068975907 L398.4509622527262,-79.22236629029753 L398.4657888790503,-79.2073115869607 L398.4763934058414,-79.19219656226545 L398.48276175742296,-79.17704127879486 L398.48488548090876,-79.16186585256861 " />
			<path d="M398.48488548090876,-79.16186585256861 L398.4807879217212,-79.14078988472616 L398.46850573790294,-79.11976789189974 L398.4480703838136,-79.09885371087678 L398.4195341938737,-79.07810090234139 L398.3829702485377,-79.05756261370688 L398.338472187137,-79.03729144300655 L398.28615396807174,-79.0173393041915 L398.2261495769666,-78.99775729418029 " />
			<path d="M465.7439173534358,2075.9185607595264 L466.23231507646005,2075.945811031392 " />
			<path d="M464.0631950128314,-128.08331089378845 L464.00319062172616,-128.10289290379964 L463.950872402661,-128.1228450426147 L463.9063743412603,-128.14311621331504 L463.8698103959243,-128.16365450194954 L463.84127420598435,-128.18440731048494 L463.820838851895,-128.2053214915079 L463.8085566680768,-128.2263434843343 L463.8044591088892,-128.24741945217676 " />
			<path d="M463.8044591088892,-128.24741945217676 L463.8085566680768,-128.2684954200192 L463.820838851895,-128.2895174128456 L463.84127420598435,-128.3104315938686 L463.8698103959243,-128.33118440240398 L463.9063743412603,-128.3517226910385 L463.950872402661,-128.37199386173882 L464.0031906217262,-128.39194600055387 L464.0631950128314,-128.4115280105651 " />
			<path d="M465.74391735343585,2075.918560759527 L465.5331250983087,2075.9055967247855 L465.33014201747346,2075.890669131563 L465.13604545315496,2075.8738572087605 L464.9518655819748,2075.855250186447 L464.7785799472405,2075.8349468222664 L464.6171082705884,2075.813054877277 L464.4683075705182,2075.7896905440034 L464.33296761372674,2075.764977829741 L464.2118067233845,2075.73904789838 L464.1054679666014,2075.7120383742476 L464.0145157413183,2075.684092611661 L463.939432780738,2075.6553589340656 L463.88061759119654,2075.6259898468033 L463.8574113831447,2075.6111156271445 L463.8383823370718,2075.596141227683 L463.82355571074766,2075.581086524346 L463.81295118395656,2075.565971499651 L463.806582832375,2075.55081621618 L463.8044591088892,2075.535640789954 " />
			<path d="M463.8044591088892,2075.535640789954 L463.8085566680768,2075.5145648221114 L463.820838851895,2075.493542829285 L463.84127420598435,2075.4726286482623 L463.8698103959243,2075.4518758397267 L463.9063743412603,2075.4313375510924 L463.950872402661,2075.4110663803917 L464.0031906217262,2075.391114241577 L464.0631950128314,2075.3715322315657 " />
			<path d="M464.0631950128314,-128.4115280105651 L476.5110448479331,-132.19286271009608 " />
			<path d="M464.0631950128314,2075.371532231565 L476.5110448479331,2071.5901975320344 " />
			<path d="M476.5110448479331,-132.19286271009608 L476.57643958168165,-132.21145402651084 L476.64876253662044,-132.2296052029246 L476.8134799097851,-132.26441339033357 L477.0036106490798,-132.2969520504501 L477.2173236915492,-132.32690781818988 L477.4525608637668,-132.35399220313408 L477.70705670317045,-132.3779443678498 L477.97836027570514,-132.39853363989732 L478.26385877965777,-132.41556173333151 L478.5608027083658,-132.42886465830415 L478.86633232946986,-132.43831430037562 L479.17750522569906,-132.44381965432706 L479.4913246319585,-132.44532770059038 L479.8047682958146,-132.4428239158557 L480.11481758343876,-132.43633241293875 L480.418486550701,-132.42591570856118 L480.7128506994442,-132.4116741212805 " />
			<path d="M476.5110448479331,2071.5901975320344 L476.57643958168165,2071.57160621562 L476.64876253662044,2071.553455039206 L476.8134799097851,2071.518646851797 L477.0036106490798,2071.48610819168 L477.2173236915492,2071.4561524239407 L477.4525608637668,2071.4290680389963 L477.70705670317045,2071.4051158742805 L477.97836027570514,2071.384526602233 L478.26385877965777,2071.3674985087987 L478.5608027083658,2071.3541955838264 L478.86633232946986,2071.344745941755 L479.17750522569906,2071.3392405878035 L479.4913246319585,2071.33773254154 L479.8047682958146,2071.340236326275 L480.11481758343876,2071.346727829192 L480.418486550701,2071.357144533569 L480.7128506994442,2071.37138612085 " />
			<path d="M480.7128506994442,-132.41167412128053 L556.6342301789358,-128.17562195788187 " />
			<path d="M480.7128506994442,2071.37138612085 L481.33933546198347,2071.4063409932705 " />
			<path d="M556.6342301789358,-128.17562195788184 L556.8450224340629,-128.16265792314067 L557.0480055148983,-128.1477303299181 L557.2421020792167,-128.13091840711556 L557.4262819503969,-128.11231138480204 L557.5995675851311,-128.09200802062153 L557.7610392617833,-128.07011607563192 L557.9098399618534,-128.0467517423584 L558.0451799186449,-128.02203902809597 L558.1663408089872,-127.99610909673507 L558.2726795657702,-127.96909957260291 L558.3636317910534,-127.94115381001605 L558.4387147516336,-127.91242013242055 L558.4975299411751,-127.88305104515835 L558.5207361492269,-127.86817682549955 L558.5397651952999,-127.85320242603801 L558.554591821624,-127.83814772270118 L558.5651963484152,-127.82303269800593 L558.5715646999967,-127.80787741453534 L558.5736884234825,-127.79270198830909 " />
			<path d="M558.5736884234825,-127.79270198830909 L558.5695908642949,-127.77162602046664 L558.5573086804767,-127.75060402764022 L558.5368733263873,-127.72968984661726 L558.5083371364474,-127.70893703808187 L558.4717731911113,-127.68839874944736 L558.4272751297107,-127.66812757874703 L558.3749569106454,-127.64817543993198 L558.3149525195403,-127.62859342992077 " />
			<path d="M630.8747157832623,2025.7560939971497 L632.8864380182835,2025.8683385372938 " />
			<path d="M629.194126665704,-178.24581800464244 L629.1341222780471,-178.26539999710045 L629.081804062175,-178.28535211748215 L629.0373060036986,-178.30562326891814 L629.0007420610062,-178.32616153750865 L628.9722058734189,-178.3469143252738 L628.9517705213824,-178.3678284848555 L628.9394883393097,-178.38885045562657 L628.9353907815548,-178.40992640085824 " />
			<path d="M628.9353907815548,-178.40992640085824 L628.9394883418582,-178.4310023455944 L628.951770526473,-178.4520243148803 L628.9722058810385,-178.47293847199091 L629.0007420711353,-178.4936912563054 L629.0373060163112,-178.51422952047454 L629.0818040772388,-178.53450066652974 L629.1341222955235,-178.55445278058502 L629.1941266855482,-178.5740347657872 " />
			<path d="M630.8747157832623,2025.7560939971497 L630.6639235267484,2025.743129963595 L630.4609404446392,2025.7282023740888 L630.2668438791809,2025.7113904575142 L630.0826640070148,2025.692783443908 L629.909378371467,2025.6724800908694 L629.7479066941903,2025.6505881593985 L629.5991059936994,2025.6272238419506 L629.4637660367038,2025.6025111457382 L629.3426051463847,2025.5765812345576 L629.2362663898607,2025.5495717326307 L629.1453141650788,2025.5216259941585 L629.0702312052456,2025.4928923424607 L629.0114160166985,2025.4635232827438 L628.9882098092364,2025.4486490774311 L628.9691807638144,2025.4336746926726 L628.9543541382019,2025.418620004377 L628.9437496121824,2025.4035049950414 L628.9373812614316,2025.3883497272286 L628.9352575388348,2025.3731743169376 " />
			<path d="M628.9352575388348,2025.3731743169376 L628.9393550991382,2025.3520983722015 L628.9516372837529,2025.3310764029156 L628.9720726383184,2025.310162245805 L629.0006088284152,2025.2894094614905 L629.0371727735911,2025.2688711973215 L629.0816708345187,2025.2486000512663 L629.1339890528035,2025.228647937211 L629.1939934428282,2025.2090659520088 " />
			<path d="M629.1941266855481,-178.57403476578716 L641.6419765218268,-182.35536469731605 " />
			<path d="M629.1939934428281,2025.209065952009 L641.6418432791068,2021.42773602048 " />
			<path d="M641.6419765218269,-182.35536469731608 L641.7073712555812,-182.3739559900392 L641.7796942105256,-182.39210714281836 L641.9444115837011,-182.4269152833567 L642.1345423230059,-182.45945389750966 L642.3482553654846,-182.4894096206355 L642.5834925377108,-182.51649396274507 L642.8379883771219,-182.54044608681806 L643.109291949663,-182.5610353208061 L643.3947904536208,-182.5780633791306 L643.691734382333,-182.59136627228148 L643.99726400344,-182.60081588612553 L644.3084368996709,-182.6063212157158 L644.6222563059308,-182.60782924171883 L644.9356999697861,-182.60532544101977 L645.2457492574083,-182.59883392658813 L645.5494182246673,-182.5884172152565 L645.843782373406,-182.57417562564933 " />
			<path d="M641.6418432791069,2021.4277360204803 L641.7072380128611,2021.4091447277572 L641.7795609678055,2021.390993574978 L641.9442783409811,2021.3561854344396 L642.1344090802859,2021.3236468202867 L642.3481221227646,2021.2936910971607 L642.5833592949907,2021.2666067550513 L642.8378551344018,2021.2426546309782 L643.1091587069429,2021.2220653969903 L643.3946572109007,2021.2050373386658 L643.691601139613,2021.1917344455148 L643.99713076072,2021.1822848316708 L644.3083036569509,2021.1767795020805 L644.6221230632108,2021.1752714760776 L644.9355667270661,2021.1777752767766 L645.2456160146883,2021.184266791208 L645.5492849819473,2021.1946835025399 L645.843649130686,2021.208925092147 " />
			<path d="M645.843782373406,-182.5741756256493 L721.7651618515789,-178.33812346185007 " />
			<path d="M645.843649130686,2021.208925092147 L721.7650286088589,2025.4449772559462 " />
			<path d="M721.7651618515789,-178.33812346185007 L721.9759541080929,-178.32515942829534 L722.1789371902021,-178.31023183878924 L722.3730337556603,-178.2934199222145 L722.5572136278264,-178.2748129086083 L722.7304992633742,-178.2545095555697 L722.8919709406509,-178.23261762409894 L723.0407716411419,-178.20925330665096 L723.1761115981375,-178.1845406104385 L723.2972724884565,-178.15861069925788 L723.4036112449805,-178.13160119733112 L723.4945634697624,-178.1036554588588 L723.5696464295957,-178.07492180716105 L723.6284616181428,-178.04555274744433 L723.6516678256048,-178.03067854213145 L723.6706968710268,-178.01570415737314 L723.6855234966393,-178.0006494690775 L723.6961280226589,-177.98553445974176 L723.7024963734096,-177.9703791919289 L723.7046200960065,-177.95520378163806 " />
			<path d="M723.7046200960065,-177.95520378163806 L723.700522535703,-177.9341278369019 L723.6882403510883,-177.913105867616 L723.6678049965228,-177.8921917105054 L723.639268806426,-177.8714389261909 L723.6027048612501,-177.85090066202176 L723.5582068003225,-177.83062951596656 L723.5058885820378,-177.81067740191128 L723.4458841920131,-177.7910954167091 " />
			<path d="M721.7650286088589,2025.4449772559462 L721.9758208653728,2025.457941289501 L722.178803947482,2025.4728688790071 L722.3729005129403,2025.4896807955818 L722.5570803851064,2025.508287809188 L722.7303660206542,2025.5285911622266 L722.8918376979309,2025.5504830936975 L723.0406383984218,2025.5738474111454 L723.1759783554174,2025.5985601073578 L723.2971392457365,2025.6244900185384 L723.4034780022605,2025.6514995204652 L723.4944302270424,2025.6794452589374 L723.5695131868756,2025.7081789106353 L723.6283283754227,2025.7375479703521 L723.6515345828848,2025.7524221756648 L723.6705636283068,2025.7673965604233 L723.6853902539193,2025.7824512487189 L723.6959947799388,2025.7975662580545 L723.7023631306896,2025.8127215258673 L723.7044868532864,2025.8278969361584 " />
			<path d="M723.7044868532864,2025.8278969361584 L723.700389292983,2025.8489728808945 L723.6881071083683,2025.8699948501803 L723.6676717538028,2025.890909007291 L723.639135563706,2025.9116617916054 L723.6025716185301,2025.9322000557745 L723.5580735576025,2025.9524712018297 L723.5057553393177,2025.972423315885 L723.445750949293,2025.9920053010871 " />
			<path d="M721.8885661433671,2026.4650371574328 L723.445750949293,2025.992005301087 " />
			<path d="M-61.39888800520627,15.412528775303606 L598.9674241329107,-185.1896702846261 " />
			<path d="M76.3678370071633,17.71688169346757 L143.62685322374176,-2.714667147914227 " />
			<path d="M236.45662429378837,-30.913949686400827 L303.7156561663155,-51.34550328365474 " />
			<path d="M396.54542723636206,-79.54478582214134 L463.8044591088892,-99.97633941939523 " />
			<path d="M556.6342301789358,-128.17562195788187 L628.9353890722597,-150.138843282153 " />
			<path d="M721.7651538474981,-178.33812390843974 L721.7652001433231,-178.33813797191348 " />
			<path d="M-64.34015210126405,12.075654754740981 L596.0261600368528,-188.5265443051887 " />
			<path d="M-64.34015210126405,-19.25540418423024 L596.0261600368528,-219.85760324415992 " />
			<path d="M-15.27400313326522,2258.4292874637104 L646.4626052413647,2059.585741206013 " />
			<path d="M60.617584993580934,2263.019167017092 L722.3541933682109,2064.175620759395 " />
			<path d="M-18.200448080930823,2255.079041106841 L643.536160293699,2056.235494849144 " />
			<path d="M-18.065506166630616,2223.7512928834426 L643.6711022079993,2024.9077466257452 " />
			<path d="M-16.203198159612576,17.480978441668267 L-16.203047302367832,2221.2639928193557 " />
			<path d="M-3.7553483352740518,13.699638339514934 L-3.755197478029307,2217.482652717202 " />
			<path d="M0.44645751561424707,13.480826381251227 L0.44660828008563846,2215.9085704788863 " />
			<path d="M76.36783700716309,17.716878545210623 L76.36798591999619,2193.095149284357 " />
			<path d="M78.04855934932459,18.263907620294425 L78.04870819013988,2192.5901133346456 " />
			<path d="M143.88558912768397,-31.14985573908406 L143.885589127684,2172.6332045030463 " />
			<path d="M156.3334389627857,-34.93119043861507 L156.33343896278572,2168.8518698035155 " />
			<path d="M160.5352448142968,-35.1500018497995 L160.53524481429682,2167.8039442557583 " />
			<path d="M236.45662429378837,-30.91394968640084 L236.4566242937884,2144.990522508458 " />
			<path d="M238.13734663439283,-30.36692115843975 L238.13734663439286,2144.4854865375737 " />
			<path d="M303.97439207025775,-79.78069187482458 L303.97439207025775,2124.0023683673057 " />
			<path d="M316.4222419053594,-83.5620265743556 L316.4222419053594,2120.221033667775 " />
			<path d="M320.62404775687054,-83.78083798554005 L320.62404775687054,2119.6992680290055 " />
			<path d="M396.5454272363621,-79.54478582214136 L396.5454272363621,2096.885846281705 " />
			<path d="M398.2261495769665,-78.99775729418027 L398.2261495769665,2096.380810310821 " />
			<path d="M464.0631950128314,-128.4115280105651 L464.0631950128314,2075.371532231565 " />
			<path d="M476.5110448479331,-132.19286271009608 L476.5110448479331,2071.5901975320344 " />
			<path d="M480.71285069944423,-132.41167412128053 L480.71285069944423,2071.37138612085 " />
			<path d="M556.6342301789358,-128.17562195788187 L556.6342301789358,2048.781170054953 " />
			<path d="M558.3149525195403,-127.62859342992076 L558.3149525195403,2048.2761340840675 " />
			<path d="M629.1941266855482,-178.57403476578722 L629.1939934428282,2025.2090659520084 " />
			<path d="M641.6419765218268,-182.35536469731605 L641.6418432791068,2021.4277360204796 " />
			<path d="M645.8437823734062,-182.5741756256493 L645.8436491306861,2021.2089250921463 " />
			<path d="M721.7651618515789,-178.33812346185005 L721.7650286088589,2025.4449772559456 " />
			<path d="M723.4458841920131,-177.79109541670908 L723.4457509691373,2025.6637885399423 " />
			<path d="M722.695309517685,-178.44905814868812 L722.2257475725421,-178.30641737937702 " />
			<path d="M628.9353890618831,-149.96722029384594 L557.0948233233073,-128.1439152524259 " />
			<path d="M463.8044591088892,-99.80471643424036 L397.00602038073384,-79.51307911668543 " />
			<path d="M303.7156561663155,-51.17388029849985 L236.91721743816007,-30.8822429809449 " />
			<path d="M143.62685322374176,-2.5430441627593225 L76.82843827131126,17.748585932345573 " />
			<path d="M598.0373147585487,-222.75533997117125 L-62.32899737956816,-22.153140911241575 " />
			<path d="M723.2887420244277,2064.0678232127534 L61.5521336497976,2262.911369470451 " />
			<path d="M645.690328507408,2022.0209301295797 L319.7193399090147,2119.971121383525 " />
			<path d="M304.7405867819902,2124.4720487201757 L157.7114104073873,2168.652471056918 " />
			<path d="M143.67589244978078,2172.8699680624245 L-3.7551974993521284,2217.1711603844406 " />
			<path d="M-16.461783205842927,2221.428101596817 L-16.46193406308767,17.64508721913036 " />
			<path d="M78.30744409952678,2192.512366440918 L78.30729525279969,18.09979884283233 " />
			<path d="M143.6268532237418,2172.7973130614346 L143.62685322374176,-30.985747180695732 " />
			<path d="M238.39608253833507,2144.4077396454827 L238.39608253833504,-30.531029716828087 " />
			<path d="M303.7156561663155,2124.166476925694 L303.7156561663155,-79.61658331643625 " />
			<path d="M398.48488548090876,2096.30306341873 L398.48488548090876,-79.16186585256861 " />
			<path d="M463.8044591088892,2075.5356407899535 L463.8044591088892,-128.24741945217676 " />
			<path d="M558.5736884234824,2048.198387191977 L558.5736884234824,-127.79270198830909 " />
			<path d="M628.9352575388349,2025.3731743169378 L628.9353907815549,-178.40992640085827 " />
			<path d="M723.7044868532863,2025.827896936158 L723.7046200960064,-177.9552037816381 " />

       </g>
    </g>
    
</svg>
