<?xml version="1.0" encoding="UTF-8" standalone="no"?>
<svg
   xmlns:svg="http://www.w3.org/2000/svg"
   xmlns="http://www.w3.org/2000/svg"
   width="480.0"
   height="480.0"

>
    <g transform="scale(0.13804399736410955, -0.13804399736410955)   translate(1216.5752931007567,-2648.7182049319554)" stroke-width="1.0"  fill="none">
       <!-- hidden lines -->
       <g  stroke="rgb(0,0,0)" fill="none" stroke-dasharray="1.0,1.0" >
			<path d="M-50.71834103800182,4.6158940734837035 L50.71834103800182,31.519195256017944 " />
			<path d="M-50.71834103800182,4.61589407348371 L-50.837556896228385,4.580609960434995 L-50.95648555301041,4.538080105041576 L-51.07484049879678,4.488406965450273 L-51.19233660615643,4.431710208605212 L-51.308690816675295,4.368126421959685 L-51.42362282286879,4.297808784425001 L-51.53685574346716,4.22092669734908 L-51.64811679044664,4.137665376413763 L-51.757137926199746,4.048225405434013 L-51.86365650926132,3.952822253133937 L-51.96741592703484,3.8516857540637544 L-52.068166213994644,3.745059554908237 L-52.165664653874764,3.6332005275205024 L-52.25967636439366,3.5163781500952216 L-52.349974863106254,3.3948738579720428 L-52.436342613019924,3.268980365633211 L-52.51857154666021,3.139000961528737 L-52.596463567323575,3.0052487774279597 L-52.669831026309694,2.868046034057687 L-52.73849717498364,2.7277232648442373 L-52.80229659057883,2.5846185196294695 L-52.8610755747149,2.439076550279102 L-52.91469252367065,2.2914479801452687 L-52.963018269519765,2.142088459384159 L-53.00593639130764,1.991357808163635 L-53.043343495519714,1.8396191498249328 L-53.07514946516547,1.6872380360867276 L-53.10127767687814,1.5345815663990234 L-53.12166518550717,1.382017503568425 L-53.13626287575852,1.229913387785326 L-53.14503558051777,1.078635651187394 L-53.14796216557077,0.9285487350924718 " />
			<path d="M-53.14796216557077,0.9285487350924573 L-53.14796216557077,-29.120630812598392 " />
			<path d="M-53.14796216557077,-29.12063081259839 L-53.145997409444476,-29.242460776629848 L-53.140106318735235,-29.363051505267332 L-53.13029842131259,-29.482207962856783 L-53.1165895798362,-29.59973743344148 L-53.09900196610066,-29.71544983244837 L-53.07756402517622,-29.829158014118594 L-53.05231042940359,-29.94067807418493 L-53.02328202231714,-30.04982964730668 L-52.990525752587175,-30.156436198780916 L-52.95409459808824,-30.260325310058324 L-52.91404748021608,-30.36132895760179 L-52.870449168591996,-30.459283784636852 L-52.823370176308664,-30.554031365354376 L-52.77288664588679,-30.645418461138217 L-52.71908022612713,-30.733297268403472 L-52.66203794005699,-30.81752565764444 " />
			<path d="M-12.635055075142365,2163.5041554526615 L50.12701348028372,2180.4508960798466 " />
			<path d="M-12.635055075142368,2163.5041554526624 L-12.75435137319068,2163.468279784126 L-12.873340669490041,2163.425168234717 L-12.99173630840344,2163.3749246639345 L-13.109253064466497,2163.3176701129405 L-13.225607829520607,2163.2535425129636 L-13.340520294745279,2163.182696353009 L-13.453713625946644,2163.1053023076815 L-13.564915130475274,2163.0215468260153 L-13.673856914166656,2162.9316316823015 L-13.780276526721707,2162.8357734899973 L-13.883917593972523,2162.7342031798844 L-13.98453043551021,2162.6271654437355 L-14.081872666186865,2162.514918144833 L-14.175709780042608,2162.3977316967516 L-14.265815715251005,2162.275888411909 L-14.35197339872179,2162.1496818214505 L-14.433975269048961,2162.019415968107 L-14.511623776544385,2161.8854046737288 L-14.584731859152296,2161.747970783263 L-14.65312339309818,2161.6074453869883 L-14.716633617186375,2161.464167022894 L-14.775109529724212,2161.318480861108 L-14.828410257116499,2161.1707378723554 L-14.876407393242358,2161.0212939824364 L-14.91898530879681,2160.870509214772 L-14.9560414298519,2160.718746823074 L-14.98748648496627,2160.566372416237 L-15.013244720247894,2160.413753077554 L-15.033254081851815,2160.2612564803794 L-15.047466365473323,2160.109250002373 L-15.055847332476322,2159.958099840454 L-15.058376792377217,2159.8081701286023 " />
			<path d="M-15.058376792377214,2159.8081701286023 L-14.97800845525942,2129.7935717583428 " />
			<path d="M-14.978008455259426,2129.7935717583428 L-14.976287816561872,2129.6893506035594 L-14.971688156090762,2129.5860308728597 L-14.964214924027836,2129.483734990781 L-14.953876975477337,2129.3825841686944 L-14.940686559973507,2129.2826982611778 L-14.924659306965994,2129.1841956239987 L-14.905814207300379,2129.0871929738764 L-14.88417359071573,2128.991805250179 L-14.859763099385884,2128.8981454787345 L-14.83261165753579,2128.8063246379024 L-14.802751437168919,2128.716451527077 L-14.770217819946348,2128.6286326377676 L-14.735049355262692,2128.5429720274174 L-14.697287714568551,2128.4595711961038 L-14.656977641993619,2128.3785289662706 L-14.614166901328929,2128.299941365632 L-14.568906219431083,2128.2239015133887 L-14.52124922611551,2128.1504995098894 L-14.471252390609989,2128.079822329872 L-14.41897495464372,2128.0119537194028 L-14.364478862251222,2127.9469740966492 L-14.307828686374272,2127.884960456588 L-14.249091552348787,2127.825986279775 L-14.188337058367386,2127.7701214452777 L-14.12563719301182,2127.7174321478733 L-14.061066249953003,2127.667980819615 L-13.99470073991975,2127.6218260558544 L-13.926619300040466,2127.579022545814 L-13.85690260066526,2127.539621007783 L-13.785633249778881,2127.50366812902 L-13.712895695117723,2127.4712065104363 L-13.638776124106904,2127.442274616114 " />
			<path d="M-13.638776124106895,2127.442274616114 L-13.574608545151266,2127.4204374193996 L-13.509556862468488,2127.4012056529295 L-13.44367701872169,2127.3845958554966 L-13.377025668769804,2127.3706223110707 L-13.30966013094594,2127.3592970365166 L-13.241638337765192,2127.35062977126 L-13.173018786104262,2127.3446279689115 L-13.103860486895757,2127.341296790856 L-13.034222914380395,2127.3406391018157 L-12.964165954960798,2127.342655467385 L-12.893749855700824,2127.3473441535452 L-12.823035172514741,2127.3547011281544 L-12.752082718090811,2127.3647200644164 L-12.680953509594033,2127.3773923463204 L-12.609708716193065,2127.392707076052 L-12.538409606456428,2127.4106510833626 " />
			<path d="M-12.538409606456412,2127.4106510833626 L50.22365894896967,2144.3573917105477 " />
			<path d="M50.22365894896968,2144.3573917105473 L50.333916843571565,2144.3902924148188 L50.443931118041,2144.4293795934664 L50.55347539996762,2144.47457281821 L50.662324284027754,2144.5257790965793 L50.77025379579292,2144.582893063259 L50.87704185259386,2144.645797196896 L50.982468720492115,2144.714362061922 L51.08631746641859,2144.7884465748825 L51.18837440454893,2144.867898294743 L51.288429535997174,2144.952553736562 L51.38627698092284,2145.042238707885 L51.48171540216252,2145.136768667177 L51.57454841951408,2145.235949103545 L51.664585013821124,2145.339575936977 L51.751639920026236,2145.4474359382702 L51.83553400838422,2145.5593071677845 " />
			<path d="M-11.996279478663912,14.885879173807412 L50.71831585678986,31.519207610777507 " />
			<path d="M-11.996528969972303,2128.503417939822 L50.71806636548147,2145.1367463767924 " />
			<path d="M51.23300792984327,31.69257393093057 L51.117092617931505,31.645748049084773 L50.99237216846336,31.601140912807967 L50.85928916261035,31.558910814334634 L50.718315856789864,31.51920761077751 " />
			<path d="M51.83553396952206,2145.8885350850232 L51.834372578452076,2145.86186050665 L51.83088924196534,2145.835205290316 L51.82508648851612,2145.8085887842794 L51.816968530157126,2145.782030308701 L51.806541259482046,2145.7555491416183 L51.7938122453483,2145.729164504952 L51.77879072738303,2145.702895550556 L51.761487609276315,2145.6767613463117 L51.720088459023295,2145.624972956983 L51.66973497461088,2145.5739496765195 L51.610573330122584,2145.5238396233945 L51.54277526936644,2145.47478826502 L51.46653760730988,2145.4269379954626 L51.38208165873399,2145.3804277220756 L51.289652595765844,2145.3353924622606 L51.189518736153985,2145.2919629515145 L51.08197076435307,2145.250265263912 L50.96732088767892,2145.210420446115 L50.84590192998359,2145.1725441659837 L50.718066365481484,2145.136746376793 " />
			<path d="M-11.996279478663904,14.885879173807416 L-12.118003838327686,14.855165995137641 L-12.244451956297404,14.826337931142502 L-12.37531920798132,14.799464431153202 L-12.510290322707515,14.774610235785055 L-12.649040143238535,14.751835220971673 L-12.791234409103675,14.731194253718598 L-12.936530561861717,14.712737059923878 L-13.084578570354228,14.696508104584023 L-13.235021773961277,14.682546484673935 L-13.387497741828103,14.670885834958872 L-13.5416391459928,14.66155424696535 L-13.697074646311542,14.654574201306195 L-13.853429785049519,14.64996251352278 L-14.010327888982419,14.647730293574913 L-14.167390976835216,14.647882919075965 L-14.324240669872172,14.650420022337736 L-14.48049910344435,14.655335491256245 L-14.635789837298653,14.662617484036325 L-14.789738762455361,14.67224845771954 L-14.941975002469443,14.684205210446713 L-15.092131806904382,14.698458937353235 L-15.23984743486611,14.714975299962513 L-15.384766026468512,14.733714508910355 L-15.526538460131045,14.754631419801047 L-15.664823193643215,14.777675641964148 L-15.799287086969684,14.802791659850032 L-15.929606204813778,14.829918966771707 L-16.055466597006006,14.858992210670728 L-16.176565054837507,14.889941351556027 L-16.2926098415164,14.922691830236387 L-16.40332139498724,14.957164747940064 L-16.50843300142053,14.993277056388834 " />
			<path d="M-11.996528969972292,2128.503417939823 L-12.118253329636074,2128.472704761153 L-12.244701447605792,2128.443876697158 L-12.375568699289708,2128.417003197169 L-12.510539814015903,2128.3921490018006 L-12.649289634546923,2128.3693739869873 L-12.791483900412063,2128.348733019734 L-12.936780053170105,2128.330275825939 L-13.084828061662616,2128.3140468705997 L-13.235271265269665,2128.3000852506893 L-13.38774723313649,2128.2884246009744 L-13.541888637301188,2128.279093012981 L-13.69732413761993,2128.272112967322 L-13.853679276357907,2128.2675012795385 L-14.010577380290806,2128.2652690595905 L-14.167640468143604,2128.2654216850915 L-14.32449016118056,2128.267958788353 L-14.480748594752738,2128.2728742572717 L-14.63603932860704,2128.2801562500517 L-14.789988253763749,2128.289787223735 L-14.94222449377783,2128.301743976462 L-15.09238129821277,2128.315997703369 L-15.240096926174498,2128.332514065978 L-15.3850155177769,2128.351253274926 L-15.526787951439433,2128.3721701858167 L-15.665072684951603,2128.39521440798 L-15.799536578278072,2128.4203304258654 L-15.929855696122166,2128.4474577327874 L-16.055716088314394,2128.4765309766863 L-16.176814546145895,2128.5074801175715 L-16.292859332824786,2128.540230596252 L-16.40357088629563,2128.5747035139557 L-16.50868249272892,2128.610815822404 " />
			<path d="M-16.508433001420542,14.993277056388838 L-37.07344041151958,22.41718682010381 " />
			<path d="M-16.508682492728937,2128.6108158224047 L-37.073689902827965,2136.0347255861193 " />
			<path d="M-37.07344041151957,22.41718682010381 L-37.163261334341826,22.45110388603228 L-37.248141109054735,22.48621821680662 L-37.327913268825554,22.522460945945415 L-37.40242136391314,22.55976099394413 L-37.47151926849842,22.5980452076768 L-37.535071467267315,22.637238503864435 L-37.592953321184446,22.677264016328905 L-37.645051311936065,22.71804324674347 L-37.69126326456302,22.759496218584236 L-37.73149854784703,22.801541633980722 L-37.765678252057285,22.844097033157833 L-37.79373534370879,22.88707895615655 L-37.81561479702891,22.930403106516245 L-37.831273701874345,22.973984516597483 L-37.840681347886786,23.017737714221198 L-37.843819284722315,23.061576890297328 " />
			<path d="M-37.843819284722315,23.06157689029733 L-37.84265789365232,23.08825146867061 L-37.839174557165585,23.11490668500488 L-37.83337180371637,23.14152319104129 L-37.82525384535737,23.16808166661971 L-37.81482657468229,23.194562833702633 L-37.802097560548546,23.220947470368596 L-37.78707604258328,23.24721642476479 L-37.76977292447656,23.273350629008863 L-37.72837377422354,23.325139018337463 L-37.67802028981113,23.376162298801248 L-37.61885864532283,23.426272351926464 L-37.551060584566684,23.475323710300575 L-37.47482292251013,23.52317397985813 L-37.390366973934235,23.56968425324486 L-37.29793791096609,23.614719513059978 L-37.19780405135423,23.658149023806125 L-37.09025607955332,23.69984671140909 L-36.97560620287917,23.739691529205658 L-36.85418724518384,23.77756780933705 L-36.72635168068175,23.813365598527948 " />
			<path d="M-37.073689902827965,2136.0347255861193 L-37.16351082565022,2136.068642652048 L-37.24839060036313,2136.1037569828222 L-37.32816276013395,2136.139999711961 L-37.40267085522154,2136.1772997599596 L-37.471768759806814,2136.2155839736924 L-37.53532095857571,2136.25477726988 L-37.59320281249284,2136.2948027823445 L-37.64530080324446,2136.335582012759 L-37.691512755871415,2136.3770349846 L-37.73174803915543,2136.4190803999963 L-37.76592774336568,2136.4616357991736 L-37.793984835017184,2136.504617722172 L-37.8158642883373,2136.5479418725317 L-37.83152319318274,2136.5915232826133 L-37.84093083919518,2136.635276480237 L-37.84406877603071,2136.679115656313 " />
			<path d="M-37.84406877603071,2136.679115656313 L-37.84290738496072,2136.7057902346864 L-37.83942404847398,2136.7324454510203 L-37.83362129502476,2136.759061957057 L-37.82550333666577,2136.7856204326354 L-37.81507606599069,2136.812101599718 L-37.80234705185694,2136.838486236384 L-37.787325533891675,2136.86475519078 L-37.77002241578496,2136.8908893950247 L-37.72862326553194,2136.9426777843532 L-37.678269781119525,2136.993701064817 L-37.619108136631226,2137.043811117942 L-37.55131007587508,2137.0928624763164 L-37.47507241381852,2137.1407127458738 L-37.39061646524263,2137.1872230192607 L-37.298187402274486,2137.2322582790757 L-37.19805354266263,2137.275687789822 L-37.090505570861716,2137.3173854774245 L-36.975855694187565,2137.357230295221 L-36.85443673649223,2137.3951065753527 L-36.72660117199015,2137.4309043645435 " />
			<path d="M-36.72635168068173,23.81336559852795 L25.988243654772045,40.44669403549804 " />
			<path d="M-36.72660117199011,2137.430904364543 L25.98799416346366,2154.0642328015133 " />
			<path d="M25.988243654772038,40.44669403549805 L26.136609680539024,40.48373008210574 L26.291839502697915,40.51796681941052 L26.453382255558118,40.549282751145256 L26.620664670665914,40.577566746136036 " />
			<path d="M-276.47786848987727,110.36305146610955 L-213.76327313450375,126.99637989183806 " />
			<path d="M-276.4778684898773,2223.980500220933 L-213.7632731345038,2240.613828646662 " />
			<path d="M-213.2485769525577,127.16974799309801 L-213.36449304223277,127.12292160408515 L-213.48921444365115,127.07831399889747 L-213.6222985641019,127.0360834743524 L-213.76327313450375,126.99637989183803 " />
			<path d="M-213.4161844019939,2240.721227054576 L-213.49789452735476,2240.692850705096 L-213.5830638297659,2240.665465542872 L-213.7632731345038,2240.6138286466617 " />
			<path d="M-276.4778684898772,110.36305146610954 L-276.5995928495778,110.3323382880934 L-276.72604096758204,110.30351022601485 L-276.85690821929813,110.27663672920046 L-276.9918793340541,110.2517825382579 L-277.1306291546124,110.22900752911013 L-277.2728234205022,110.20836656874906 L-277.41811957328235,110.18990938305609 L-277.56616758179433,110.17368043700824 L-277.7166107854181,110.15971882755804 L-277.8690867532989,110.14805818944552 L-278.02322815747476,110.13872661416926 L-278.17866365780185,110.13174658231144 L-278.33501879654534,110.12713490938019 L-278.49191690048093,110.12490270529955 L-278.64897998833356,110.12505534764463 L-278.80582968136747,110.1275924686867 L-278.96208811493375,110.13250795627891 L-279.11737884877937,110.13978996858111 L-279.2713277739245,110.14942096258785 L-279.4235640139243,110.16137773639097 L-279.57372081834217,110.17563148507512 L-279.7214364462841,110.1921478701112 L-279.8663550378641,110.21088710208102 L-280.00812747150155,110.23180403653338 L-280.1464122049861,110.25484828274111 L-280.28087609828253,110.27996432509663 L-280.41119521609414,110.30709165685401 L-280.53705560825153,110.33616492589498 L-280.658154066046,110.36711409216788 L-280.77419885268563,110.39986459642037 L-280.8849104061152,110.43433753981905 L-280.9900220125053,110.47044987402386 " />
			<path d="M-276.47786848987727,2223.980500220933 L-276.59959284957785,2223.9497870429173 L-276.7260409675821,2223.920958980839 L-276.8569082192982,2223.8940854840243 L-276.99187933405415,2223.8692312930816 L-277.13062915461245,2223.846456283934 L-277.2728234205023,2223.825815323573 L-277.4181195732824,2223.80735813788 L-277.5661675817944,2223.791129191832 L-277.71661078541814,2223.777167582382 L-277.869086753299,2223.7655069442694 L-278.0232281574748,2223.756175368993 L-278.1786636578019,2223.749195337135 L-278.3350187965454,2223.744583664204 L-278.491916900481,2223.7423514601232 L-278.6489799883336,2223.7425041024685 L-278.8058296813675,2223.7450412235103 L-278.9620881149338,2223.7499567111026 L-279.1173788487794,2223.757238723405 L-279.27132777392455,2223.7668697174117 L-279.42356401392436,2223.7788264912147 L-279.5737208183422,2223.7930802398987 L-279.72143644628414,2223.809596624935 L-279.86635503786414,2223.8283358569047 L-280.0081274715016,2223.8492527913572 L-280.1464122049862,2223.8722970375647 L-280.2808760982826,2223.8974130799206 L-280.4111952160942,2223.9245404116778 L-280.5370556082516,2223.9536136807187 L-280.65815406604605,2223.9845628469916 L-280.7741988526857,2224.017313351244 L-280.88491040611524,2224.0517862946426 L-280.99002201250534,2224.0878986288476 " />
			<path d="M-280.9900220125053,110.47044987402387 L-301.5550294137139,117.89436482110042 " />
			<path d="M-280.99002201250534,2224.0878986288476 L-301.55502941371395,2231.5118135759244 " />
			<path d="M-301.5550294137139,117.89436482110042 L-301.6448503409536,117.92828191202969 L-301.72973011956964,117.96339626787709 L-301.8095022827047,117.999639022105 L-301.88401038059504,118.03693909515245 L-301.95310828740116,118.07522333383686 L-302.0166604877909,118.11441665482266 L-302.0745423427128,118.15444219187525 L-302.12664033383976,118.19522144661164 L-302.1728522862013,118.23667444245208 L-302.21308756857053,118.27871988147075 L-302.2472672712103,118.32127530383778 L-302.27532436063194,118.36425724954019 L-302.29720381106154,118.40758142206418 L-302.31286271235706,118.45116285371823 L-302.32227035416406,118.4949160722722 L-302.3254082861449,118.53875526858627 " />
			<path d="M-302.3254082861449,118.53875526858627 L-302.32424689202367,118.5654298564328 L-302.3207635526826,118.59208508196087 L-302.31496079657785,118.61870159690662 L-302.3068428357637,118.64526008110502 L-302.29641556283514,118.67174125651398 L-302.28368654665053,118.69812590120756 L-302.2686650268378,118.72439486332874 L-302.25136190708747,118.75052907499118 L-302.2099627541588,118.80231747822164 L-302.1596092678839,118.85334077131803 L-302.1004476223395,118.90345083578238 L-302.0326495613222,118.95250220418139 L-301.9564118997838,119.00035248243248 L-301.87195595248517,119.04686276316775 L-301.77952689152926,119.09189802897646 L-301.6793930346362,119.13532754435477 L-301.5718450662284,119.1770252352256 L-301.4571951935856,119.2168700549264 L-301.3357762405204,119.25474633560258 L-301.20794068120404,119.29054412398642 " />
			<path d="M-302.30586820774136,2232.2654603190113 L-302.2857792206036,2232.3115519517073 L-302.25871761929557,2232.3573008457856 L-302.2247431088672,2232.4026060670853 L-302.18393064607443,2232.4473676603056 L-302.1363702740048,2232.4914868695328 L-302.0821669234182,2232.534866356122 L-302.02144018124244,2232.577410413453 L-301.9543240267324,2232.619025178082 L-301.88096653587655,2232.659618836832 L-301.8015295547021,2232.699101829355 L-301.7161883421998,2232.737387045727 L-301.62513118365644,2232.7743900186338 L-301.5285589752475,2232.8100291097307 L-301.4266847808073,2232.8442256897565 L-301.31973336175344,2232.876904312011 L-301.2079406812041,2232.9079928788105 " />
			<path d="M-301.20794068120404,119.29054412398644 L-238.49334532583055,135.92387254971493 " />
			<path d="M-301.2079406812041,2232.90799287881 L-238.4933453258306,2249.541321304539 " />
			<path d="M-238.49334532583057,135.9238725497149 L-238.34498057501102,135.9609082960455 L-238.18975213847742,135.99514477925845 L-238.02821086775776,136.02646050602752 L-237.86093001642467,136.05474434777128 " />
			<path d="M-540.9594826623828,205.84023610192963 L-478.24488730700926,222.47356452765814 " />
			<path d="M-540.9594826623828,2319.457684856753 L-478.2448873070093,2336.091013282482 " />
			<path d="M-477.7301911250633,222.64693262891814 L-477.84610721473837,222.60010623990527 L-477.9708286161567,222.5554986347176 L-478.10391273660747,222.5132681101725 L-478.2448873070093,222.47356452765817 " />
			<path d="M-477.89779857449946,2336.1984116903964 L-477.97950869986033,2336.1700353409165 L-478.0646780022715,2336.1426501786923 L-478.2448873070094,2336.091013282482 " />
			<path d="M-540.9594826623829,205.84023610192966 L-541.0812070220834,205.8095229239135 L-541.2076551400877,205.78069486183495 L-541.3385223918037,205.75382136502057 L-541.4734935065597,205.728967174078 L-541.612243327118,205.70619216493026 L-541.7544375930079,205.68555120456915 L-541.899733745788,205.6670940188762 L-542.0477817543,205.65086507282837 L-542.1982249579238,205.63690346337813 L-542.3507009258045,205.62524282526562 L-542.5048423299804,205.61591124998935 L-542.6602778303076,205.60893121813154 L-542.816632969051,205.6043195452003 L-542.9735310729866,205.60208734111964 L-543.1305941608392,205.60223998346476 L-543.2874438538731,205.6047771045068 L-543.4437022874395,205.609692592099 L-543.598993021285,205.61697460440124 L-543.7529419464302,205.62660559840796 L-543.9051781864299,205.63856237221108 L-544.0553349908478,205.6528161208952 L-544.2030506187898,205.6693325059313 L-544.3479692103697,205.6880717379011 L-544.4897416440072,205.70898867235348 L-544.6280263774918,205.7320329185612 L-544.7624902707881,205.75714896091674 L-544.8928093885997,205.78427629267412 L-545.0186697807573,205.81334956171509 L-545.1397682385516,205.844298727988 L-545.2558130251913,205.87704923224047 L-545.3665245786209,205.91152217563916 L-545.4716361850109,205.94763450984397 " />
			<path d="M-540.959482662383,2319.4576848567535 L-541.0812070220835,2319.4269716787376 L-541.2076551400878,2319.398143616659 L-541.3385223918038,2319.3712701198447 L-541.4734935065599,2319.346415928902 L-541.6122433271181,2319.3236409197543 L-541.754437593008,2319.302999959393 L-541.8997337457881,2319.2845427737 L-542.0477817543001,2319.2683138276525 L-542.1982249579239,2319.2543522182023 L-542.3507009258046,2319.2426915800897 L-542.5048423299805,2319.233360004813 L-542.6602778303077,2319.2263799729553 L-542.8166329690512,2319.2217683000245 L-542.9735310729867,2319.2195360959436 L-543.1305941608393,2319.219688738289 L-543.2874438538732,2319.2222258593306 L-543.4437022874396,2319.227141346923 L-543.5989930212851,2319.2344233592253 L-543.7529419464303,2319.244054353232 L-543.90517818643,2319.256011127035 L-544.0553349908479,2319.270264875719 L-544.2030506187899,2319.286781260755 L-544.3479692103698,2319.305520492725 L-544.4897416440074,2319.3264374271776 L-544.6280263774919,2319.349481673385 L-544.7624902707882,2319.374597715741 L-544.8928093885999,2319.401725047498 L-545.0186697807574,2319.430798316539 L-545.1397682385517,2319.461747482812 L-545.2558130251914,2319.4944979870643 L-545.366524578621,2319.528970930463 L-545.471636185011,2319.565083264668 " />
			<path d="M-545.4716361850109,205.94763450984394 L-566.0366435862194,213.37154945692052 " />
			<path d="M-545.471636185011,2319.5650832646675 L-566.0366435862195,2326.9889982117443 " />
			<path d="M-566.0366435862194,213.3715494569205 L-566.1264645134592,213.40546654784976 L-566.2113442920752,213.44058090369714 L-566.2911164552103,213.47682365792505 L-566.3656245531006,213.5141237309725 L-566.4347224599068,213.5524079696569 L-566.4982746602964,213.59160129064273 L-566.5561565152184,213.6316268276953 L-566.6082545063452,213.6724060824317 L-566.6544664587068,213.71385907827215 L-566.6947017410761,213.75590451729082 L-566.7288814437159,213.79845993965785 L-566.7569385331375,213.84144188536024 L-566.778817983567,213.88476605788426 L-566.7944768848625,213.9283474895383 L-566.8038845266695,213.97210070809228 L-566.8070224586505,214.01593990440634 " />
			<path d="M-566.8070224586505,214.01593990440634 L-566.8058610645293,214.04261449225285 L-566.8023777251882,214.06926971778094 L-566.7965749690834,214.09588623272668 L-566.7884570082692,214.1224447169251 L-566.7780297353406,214.14892589233403 L-566.7653007191561,214.17531053702763 L-566.7502791993434,214.2015794991488 L-566.732976079593,214.22771371081123 L-566.6915769266643,214.2795021140417 L-566.6412234403895,214.3305254071381 L-566.5820617948451,214.38063547160243 L-566.5142637338278,214.42968684000147 L-566.4380260722893,214.47753711825254 L-566.3535701249907,214.52404739898782 L-566.2611410640347,214.56908266479653 L-566.1610072071418,214.61251218017483 L-566.0534592387339,214.65420987104565 L-565.9388093660912,214.69405469074647 L-565.8173904130259,214.73193097142263 L-565.6895548537096,214.7677287598065 " />
			<path d="M-565.8587732470146,2328.336925056721 L-565.6895548537098,2328.3851775146304 " />
			<path d="M-565.6895548537096,214.76772875980652 L-502.9749594983361,231.40105718553502 " />
			<path d="M-502.97495949833603,231.401057185535 L-502.8265947475165,231.43809293186558 L-502.6713663109829,231.47232941507855 L-502.5098250402632,231.5036451418476 L-502.3425441889301,231.53192898359137 " />
			<path d="M-805.4410968348882,301.31742073774967 L-742.7265014795146,317.95074916347824 " />
			<path d="M-805.4410968348883,2414.9348694925734 L-742.7265014795147,2431.5681979183023 " />
			<path d="M-742.2118052975686,318.12411726473823 L-742.3277213872437,318.07729087572534 L-742.4524427886621,318.0326832705377 L-742.5855269091129,317.99045274599257 L-742.7265014795148,317.95074916347824 " />
			<path d="M-742.3794127470048,2431.6755963262162 L-742.4611228723658,2431.6472199767363 L-742.5462921747769,2431.619834814512 L-742.7265014795149,2431.568197918302 " />
			<path d="M-805.4410968348883,301.3174207377497 L-805.5628211945888,301.2867075597336 L-805.6892693125931,301.25787949765504 L-805.8201365643091,301.23100600084064 L-805.9551076790651,301.2061518098981 L-806.0938574996234,301.1833768007503 L-806.2360517655133,301.16273584038925 L-806.3813479182934,301.1442786546963 L-806.5293959268054,301.1280497086484 L-806.6798391304292,301.1140880991982 L-806.8323150983099,301.1024274610857 L-806.9864565024858,301.0930958858094 L-807.1418920028129,301.08611585395164 L-807.2982471415564,301.08150418102036 L-807.455145245492,301.0792719769397 L-807.6122083333446,301.0794246192848 L-807.7690580263785,301.0819617403269 L-807.9253164599448,301.0868772279191 L-808.0806071937903,301.0941592402213 L-808.2345561189355,301.10379023422803 L-808.3867923589353,301.1157470080311 L-808.5369491633531,301.1300007567153 L-808.6846647912952,301.14651714175136 L-808.8295833828751,301.1652563737212 L-808.9713558165126,301.1861733081736 L-809.1096405499972,301.20921755438127 L-809.2441044432935,301.2343335967368 L-809.3744235611051,301.26146092849416 L-809.5002839532626,301.2905341975352 L-809.621382411057,301.32148336380806 L-809.7374271976967,301.35423386806053 L-809.8481387511263,301.38870681145926 L-809.9532503575163,301.424819145664 " />
			<path d="M-805.4410968348884,2414.9348694925734 L-805.5628211945889,2414.9041563145574 L-805.6892693125932,2414.875328252479 L-805.8201365643092,2414.8484547556645 L-805.9551076790652,2414.823600564722 L-806.0938574996235,2414.800825555574 L-806.2360517655134,2414.780184595213 L-806.3813479182935,2414.76172740952 L-806.5293959268055,2414.7454984634724 L-806.6798391304293,2414.731536854022 L-806.83231509831,2414.7198762159096 L-806.9864565024859,2414.710544640633 L-807.141892002813,2414.703564608775 L-807.2982471415565,2414.6989529358443 L-807.4551452454921,2414.6967207317634 L-807.6122083333447,2414.6968733741087 L-807.7690580263786,2414.6994104951505 L-807.925316459945,2414.704325982743 L-808.0806071937905,2414.711607995045 L-808.2345561189356,2414.721238989052 L-808.3867923589354,2414.733195762855 L-808.5369491633533,2414.747449511539 L-808.6846647912953,2414.763965896575 L-808.8295833828752,2414.782705128545 L-808.9713558165126,2414.8036220629974 L-809.1096405499973,2414.826666309205 L-809.2441044432936,2414.851782351561 L-809.3744235611052,2414.878909683318 L-809.5002839532627,2414.907982952359 L-809.6213824110571,2414.938932118632 L-809.7374271976968,2414.971682622884 L-809.8481387511264,2415.006155566283 L-809.9532503575164,2415.042267900488 " />
			<path d="M-809.9532503575163,301.424819145664 L-830.5182577587248,308.8487340927406 " />
			<path d="M-809.9532503575164,2415.042267900488 L-830.5182577587249,2422.4661828475646 " />
			<path d="M-830.5182577587249,308.84873409274053 L-830.6080786859646,308.8826511836698 L-830.6929584645807,308.91776553951723 L-830.7727306277158,308.9540082937451 L-830.8472387256061,308.99130836679257 L-830.9163366324123,309.029592605477 L-830.9798888328019,309.0687859264628 L-831.0377706877239,309.1088114635154 L-831.0898686788507,309.1495907182518 L-831.1360806312123,309.1910437140922 L-831.1763159135816,309.2330891531109 L-831.2104956162214,309.27564457547794 L-831.238552705643,309.3186265211803 L-831.2604321560725,309.36195069370433 L-831.276091057368,309.4055321253584 L-831.285498699175,309.4492853439123 L-831.288636631156,309.4931245402264 " />
			<path d="M-831.288636631156,309.4931245402264 L-831.2874752370348,309.5197991280729 L-831.2839918976937,309.546454353601 L-831.2781891415889,309.5730708685467 L-831.2700711807747,309.5996293527452 L-831.2596439078461,309.62611052815413 L-831.2469148916616,309.6524951728477 L-831.2318933718489,309.6787641349689 L-831.2145902520984,309.7048983466313 L-831.1731910991698,309.7566867498618 L-831.122837612895,309.80771004295815 L-831.0636759673506,309.8578201074225 L-830.9958779063332,309.9068714758215 L-830.9196402447948,309.9547217540726 L-830.8351842974962,310.0012320348079 L-830.7427552365402,310.0462673006166 L-830.6426213796473,310.0896968159949 L-830.5350734112394,310.1313945068657 L-830.4204235385967,310.17123932656654 L-830.2990045855314,310.2091156072427 L-830.1711690262151,310.24491339562655 " />
			<path d="M-830.171169026215,310.24491339562655 L-767.4565736708414,326.8782418213551 " />
			<path d="M-767.4565736708415,326.87824182135506 L-767.308208920022,326.9152775676857 L-767.1529804834884,326.94951405089864 L-766.9914392127687,326.9808297776677 L-766.8241583614357,327.00911361941144 " />
			<path d="M-1078.2527772520725,399.8017351971091 L-1015.5381818945203,416.4350636220511 " />
			<path d="M-1078.252557122688,2513.4191044857653 L-1015.5379617651357,2530.0524329107075 " />
			<path d="M-1015.0234822722213,416.60843321543985 L-1015.1393990130985,416.56160640144765 L-1015.2641212115749,416.5169984033961 L-1015.3972062652773,416.4747675219411 L-1015.5381818945204,416.43506362205113 " />
			<path d="M-1015.1908731666675,2530.159831275672 L-1015.2725832629457,2530.131454937131 L-1015.3577525332192,2530.1040697857447 L-1015.537961765136,2530.0524329107075 " />
			<path d="M-1078.2527772520723,399.80173519710905 L-1078.374501611777,399.77102201965226 L-1078.500949729785,399.7421939592473 L-1078.6318169815047,399.7153204652168 L-1078.7667880962638,399.6904662781617 L-1078.905537916825,399.6676912739956 L-1079.0477321827177,399.6470503196984 L-1079.1930283355002,399.62859314113683 L-1079.3410763440143,399.6123642032709 L-1079.4915195476399,399.5984026030332 L-1079.6439955155222,399.58674197514176 L-1079.7981369196993,399.5774104110704 L-1079.9535724200273,399.57043039137443 L-1080.1099275587715,399.5658187315326 L-1080.2668256627073,399.5635865414374 L-1080.4238887505599,399.56373919863034 L-1080.5807384435934,399.5662763353468 L-1080.736996877159,399.5711918394023 L-1080.8922876110037,399.5784738689169 L-1081.0462365361477,399.58810488084373 L-1081.1984727761458,399.60006167323155 L-1081.348629580562,399.6143154411201 L-1081.4963452085017,399.6308318459341 L-1081.641263800079,399.6495710982077 L-1081.7830362337138,399.67048805344075 L-1081.9213209671955,399.69353232085604 L-1082.0557848604885,399.7186483847949 L-1082.1861039782966,399.74577573845943 L-1082.3119643704501,399.7748490296786 L-1082.4330628282405,399.8057982183472 L-1082.549107614876,399.8385487451591 L-1082.659819168301,399.8730217112264 L-1082.7649307746863,399.90913406815446 " />
			<path d="M-1078.252557122688,2513.4191044857653 L-1078.3742814823927,2513.3883913083087 L-1078.5007296004005,2513.3595632479037 L-1078.6315968521203,2513.332689753873 L-1078.7665679668794,2513.307835566818 L-1078.9053177874407,2513.285060562652 L-1079.0475120533333,2513.2644196083547 L-1079.1928082061158,2513.245962429793 L-1079.3408562146299,2513.229733491927 L-1079.4912994182555,2513.2157718916897 L-1079.6437753861378,2513.204111263798 L-1079.797916790315,2513.1947796997265 L-1079.953352290643,2513.187799680031 L-1080.109707429387,2513.183188020189 L-1080.266605533323,2513.180955830094 L-1080.4236686211755,2513.1811084872866 L-1080.580518314209,2513.183645624003 L-1080.7367767477747,2513.1885611280586 L-1080.8920674816193,2513.195843157573 L-1081.0460164067633,2513.2054741695 L-1081.1982526467614,2513.2174309618877 L-1081.3484094511775,2513.2316847297766 L-1081.4961250791173,2513.2482011345905 L-1081.6410436706947,2513.266940386864 L-1081.7828161043294,2513.287857342097 L-1081.921100837811,2513.3109016095123 L-1082.0555647311041,2513.3360176734514 L-1082.1858838489122,2513.363145027116 L-1082.3117442410658,2513.392218318335 L-1082.4328426988561,2513.4231675070037 L-1082.5488874854916,2513.455918033815 L-1082.6595990389167,2513.4903909998825 L-1082.7647106453019,2513.5265033568107 " />
			<path d="M-1082.7649307746865,399.9091340681545 L-1103.3299381749225,407.33305358834986 " />
			<path d="M-1082.7647106453019,2513.526503356811 L-1103.329718045538,2520.9504228770065 " />
			<path d="M-1103.3299381749223,407.33305358834986 L-1103.4197591061263,407.36697070135097 L-1103.50463888825,407.40208507933556 L-1103.584411054414,407.4383278557164 L-1103.6589191548342,407.4756279508826 L-1103.7280170636532,407.51391221160156 L-1103.7915692655224,407.5531055544877 L-1103.8494511213764,407.5931311132564 L-1103.9015491128755,407.63391038947503 L-1103.9477610650397,407.6753634065144 L-1103.9879963466337,407.7174088663998 L-1104.0221760479153,407.75996430925295 L-1104.050233135392,407.80294627501297 L-1104.0721125832888,407.84627046711927 L-1104.0877714814649,407.889851917834 L-1104.0971791195689,407.93360515488206 L-1104.100317047269,407.9774443690794 " />
			<path d="M-1104.100317047269,407.9774443690794 L-1104.0991556504564,408.0041189652812 L-1104.0956723085992,408.030774198918 L-1104.0898695501553,408.05739072172145 L-1104.0817515871804,408.0839492135223 L-1104.0713243122702,408.11043039627447 L-1104.0585952942847,408.136815048048 L-1104.043573772852,408.1630840169822 L-1104.0262706516628,408.1892182351873 L-1103.9848714964005,408.24100665067846 L-1103.9345180085154,408.29202995491636 L-1103.8753563620776,408.3421400293816 L-1103.8075583008738,408.39119140662274 L-1103.7313206398412,408.4390416925422 L-1103.6468646937233,408.48555197976026 L-1103.5544356346008,408.53058725085725 L-1103.4543017801686,408.57401677032385 L-1103.3467538148204,408.6157144640805 L-1103.2321039458038,408.65555928546536 L-1103.110684996896,408.6934355666275 L-1102.9828494422297,408.7292333543061 " />
			<path d="M-1101.9207453742933,2522.628238268584 L-1014.420498320795,2490.854423734571 " />
			<path d="M-830.0344319422306,2423.8986279162264 L-741.6090338745738,2391.788864882298 " />
			<path d="M-566.345421183865,2328.1456900145645 L-477.1274197020685,2295.748110263222 " />
			<path d="M-301.2079406812041,2231.866771780696 L-212.6458055295629,2199.707355644145 " />
			<path d="M-36.726600982561074,2135.8261168308422 L-13.638776124106895,2127.4422746161135 " />
			<path d="M-37.8440687760307,2136.6791156563118 L-37.8440687232415,2136.2319009735816 " />
			<path d="M-37.843824099277356,63.84908191742186 L-37.84381928472231,23.06157689029733 " />
			<path d="M-302.325408286145,159.32625572850355 L-302.325408286145,118.53875526858627 " />
			<path d="M-566.8070224586504,254.8034403643236 L-566.8070224586504,214.01593990440634 " />
			<path d="M-831.2886366311559,350.2806250001437 L-831.2886366311559,309.49312454022646 " />
			<path d="M-1104.100316999835,408.43289259342885 L-1104.100317047269,407.9774443690794 " />

       </g>

       <!-- solid lines -->
       <g  stroke="rgb(0,0,0)" fill="none">
			<path d="M-1141.7049994995875,398.4592806962417 L-1040.2683174235838,425.362581878776 " />
			<path d="M53.14796216557077,29.12063081259839 L53.14650812272829,29.225505527010203 L53.142147734587944,29.3294834236973 L53.13488622022777,29.432440048427104 L53.124732271169975,29.534252169357757 L53.11169804097776,29.634797924537995 L53.09579913070832,29.73395696776734 L53.07705457023957,29.831610612642027 L53.0554867954926,29.92764197461428 L53.03112162157757,30.021936110894917 L53.00398821189474,30.11438015803179 L52.974119043228015,30.204863466999377 L52.94154986687245,30.293277735637908 L52.90631966584249,30.379517138283436 L52.86847060821206,30.46347845243371 L52.828047996642304,30.545061182298255 L52.78510021415754,30.624167679084763 L52.73967866623412,30.70070325787785 L52.691837719271724,30.774576310970232 L52.64163463552061,30.845698417510704 L52.589129504542704,30.913984449337683 L52.53438517128861,30.979352672871652 L52.477467160876664,31.041724846944494 L52.41844360016394,31.101026316448667 L52.357385136203185,31.157186101694123 L52.2943648516833,31.210136983366016 L52.22945817745446,31.259815582981485 L52.16274280224272,31.30616243874924 L52.094298579662045,31.34912207674116 L52.02420743263518,31.38864307729067 L51.95255325533763,31.42467813653848 L51.879421812782255,31.45718412305197 L51.80490063816461,31.48612212945048 " />
			<path d="M51.80490063816459,31.486122129450486 L51.74148068331236,31.50758824825109 L51.677201634617745,31.526509052428743 L51.612117464903704,31.54286865485951 L51.546282823024555,31.556653318969126 L51.479752987979325,31.56785147026714 L51.41258382249593,31.57645370606559 L51.344831726125236,31.582452803374107 L51.27655358788436,31.585843724964803 L51.207806738489,31.58662362360184 L51.1386489022149,31.584791844432175 L51.0691381484288,31.580349925535394 L50.99933284282968,31.573301596632255 L50.92929159844118,31.56365277595297 L50.859073226396305,31.55141156526788 L50.78873668655583,31.53658824308468 L50.71834103800182,31.51919525601794 " />
			<path d="M-1037.8386962960149,422.9640174353565 L-1037.8401503388573,423.06889214976826 L-1037.8445107269977,423.1728700464554 L-1037.8517722413578,423.27582667118514 L-1037.8619261904157,423.3776387921158 L-1037.8749604206077,423.47818454729605 L-1037.8908593308772,423.5773435905254 L-1037.909603891346,423.6749972354001 L-1037.931171666093,423.7710285973723 L-1037.955536840008,423.865322733653 L-1037.9826702496907,423.9577667807899 L-1038.0125394183576,424.04825008975746 L-1038.0451085947132,424.136664358396 L-1038.080338795743,424.2229037610415 L-1038.1181878533735,424.30686507519175 L-1038.1586104649432,424.38844780505633 L-1038.201558247428,424.4675543018428 L-1038.2469797953515,424.5440898806359 L-1038.294820742314,424.6179629337283 L-1038.345023826065,424.68908504026876 L-1038.3975289570428,424.75737107209574 L-1038.452273290297,424.82273929562973 L-1038.5091913007088,424.88511146970257 L-1038.5682148614217,424.94441293920676 L-1038.6292733253824,425.0005727244522 L-1038.6922936099022,425.0535236061241 L-1038.7572002841312,425.10320220573954 L-1038.823915659343,425.1495490615073 L-1038.8923598819235,425.19250869949923 L-1038.9624510289505,425.2320297000487 L-1039.034105206248,425.2680647592965 L-1039.1072366488033,425.30057074581003 L-1039.1817578234209,425.32950875220854 " />
			<path d="M-1039.181757823421,425.32950875220854 L-1039.2451777782733,425.35097487100916 L-1039.3094568269678,425.3698956751868 L-1039.3745409966818,425.3862552776176 L-1039.4403756385611,425.4000399417272 L-1039.5069054736064,425.4112380930252 L-1039.5740746390898,425.4198403288237 L-1039.6418267354604,425.4258394261322 L-1039.7101048737013,425.42923034772286 L-1039.7788517230965,425.4300102463599 L-1039.8480095593707,425.42817846719026 L-1039.9175203131567,425.42373654829345 L-1039.987325618756,425.4166882193903 L-1040.0573668631444,425.40703939871105 L-1040.1275852351894,425.39479818802596 L-1040.1979217750297,425.37997486584277 L-1040.2683174235838,425.362581878776 " />
			<path d="M-1141.7049994995875,398.4592806962417 L-1141.8242153578142,398.423996583193 L-1141.943144014596,398.3814667277996 L-1142.0614989603826,398.3317935882083 L-1142.178995067742,398.2750968313632 L-1142.295349278261,398.2115130447177 L-1142.4102812844544,398.14119540718303 L-1142.5235142050528,398.0643133201071 L-1142.6347752520323,397.98105199917177 L-1142.7437963877856,397.891612028192 L-1142.850314970847,397.796208875892 L-1142.9540743886205,397.69507237682177 L-1143.0548246755804,397.58844617766624 L-1143.1523231154604,397.47658715027853 L-1143.2463348259794,397.3597647728532 L-1143.336633324692,397.23826048073005 L-1143.4230010746057,397.1123669883912 L-1143.505230008246,396.98238758428676 L-1143.5831220289092,396.84863540018597 L-1143.6564894878954,396.7114326568157 L-1143.7251556365693,396.57110988760223 L-1143.7889550521645,396.42800514238746 L-1143.8477340363006,396.2824631730371 L-1143.9013509852564,396.1348346029033 L-1143.9496767311055,395.98547508214216 L-1143.9925948528933,395.83474443092166 L-1144.0300019571055,395.68300577258293 L-1144.0618079267513,395.5306246588448 L-1144.0879361384639,395.37796818915706 L-1144.108323647093,395.22540412632645 L-1144.1229213373442,395.07330001054333 L-1144.1316940421034,394.9220222739454 L-1144.1346206271564,394.7719353578505 " />
			<path d="M-1144.1346206271564,394.7719353578505 L-1144.1346206271564,364.72275581015964 " />
			<path d="M-52.66203794005698,-30.81752565764445 L-52.61898452446736,-30.875873466005267 L-52.57433520637969,-30.932206388098695 L-52.528127476232775,-30.986477123180688 L-52.480400133008374,-31.038640102052018 L-52.43119325165311,-31.088651525321122 L-52.38054814942897,-31.136469400180886 L-52.32850735122067,-31.182053575668498 L-52.27511455382904,-31.225365776378784 L-52.22041458928035,-31.266369634602704 L-52.1644533871825,-31.305030720864014 L-52.10727793615951,-31.341316572828465 L-52.04893624439693,-31.375196722561274 L-51.989477299330986,-31.406642722109957 L-51.928951026515655,-31.435628167391062 L-51.867408247701924,-31.46212872036073 L-51.8049006381646,-31.486122129450482 " />
			<path d="M-51.80490063816459,-31.486122129450486 L-51.74148068331236,-31.50758824825109 L-51.677201634617745,-31.526509052428743 L-51.612117464903704,-31.54286865485951 L-51.546282823024555,-31.556653318969126 L-51.479752987979325,-31.56785147026714 L-51.41258382249593,-31.57645370606559 L-51.344831726125236,-31.58245280337411 L-51.27655358788436,-31.585843724964803 L-51.207806738489,-31.58662362360184 L-51.1386489022149,-31.58479184443218 L-51.0691381484288,-31.580349925535394 L-50.99933284282968,-31.573301596632255 L-50.92929159844118,-31.56365277595297 L-50.859073226396305,-31.55141156526788 L-50.78873668655583,-31.53658824308468 L-50.71834103800183,-31.519195256017944 " />
			<path d="M-1144.1346206271564,364.7227558101596 L-1144.133166584314,364.6178810957478 L-1144.1288061961736,364.5139031990607 L-1144.1215446818135,364.4109465743309 L-1144.1113907327556,364.30913445340025 L-1144.0983565025635,364.20858869822 L-1144.082457592294,364.10942965499066 L-1144.0637130318253,364.01177601011597 L-1144.0421452570783,363.91574464814374 L-1144.0177800831632,363.8214505118631 L-1143.9906466734806,363.7290064647262 L-1143.9607775048137,363.6385231557586 L-1143.9282083284581,363.5501088871201 L-1143.8929781274283,363.46386948447457 L-1143.8551290697978,363.3799081703243 L-1143.814706458228,363.29832544045973 L-1143.7717586757433,363.21921894367324 L-1143.7263371278198,363.14268336488016 L-1143.6784961808573,363.0688103117878 L-1143.6282930971063,362.9976882052473 L-1143.5757879661285,362.9294021734203 L-1143.5210436328744,362.86403394988633 L-1143.4641256224625,362.8016617758135 L-1143.4051020617496,362.7423603063093 L-1143.3440435977889,362.6862005210639 L-1143.281023313269,362.633249639392 L-1143.2161166390401,362.58357103977653 L-1143.1494012638284,362.5372241840088 L-1143.0809570412478,362.49426454601684 L-1143.0108658942208,362.45474354546735 L-1142.9392117169234,362.41870848621954 L-1142.866080274368,362.38620249970603 L-1142.7915590997502,362.3572644933075 " />
			<path d="M-1142.7915590997502,362.3572644933075 L-1142.728139144898,362.3357983745069 L-1142.6638600962035,362.31687757032927 L-1142.5987759264895,362.3005179678985 L-1142.5329412846102,362.2867333037889 L-1142.466411449565,362.2755351524909 L-1142.3992422840815,362.2669329166924 L-1142.3314901877109,362.26093381938387 L-1142.26321204947,362.2575428977932 L-1142.1944652000748,362.25676299915614 L-1142.1253073638006,362.2585947783258 L-1142.0557966100146,362.2630366972226 L-1141.9859913044154,362.27008502612574 L-1141.915950060027,362.279733846805 L-1141.845731687982,362.2919750574901 L-1141.7753951481416,362.3067983796733 L-1141.7049994995875,362.3241913667401 " />
			<path d="M-50.71834103800182,-31.519195256017944 L50.71834103800182,-4.6158940734837035 " />
			<path d="M-1141.7049994995875,362.3241913667401 L-1040.2683174235838,389.22749254927436 " />
			<path d="M50.71834103800182,-4.615894073483711 L50.837556896228385,-4.580609960434995 L50.95648555301041,-4.538080105041576 L51.07484049879678,-4.488406965450272 L51.19233660615643,-4.431710208605213 L51.308690816675295,-4.368126421959685 L51.42362282286879,-4.297808784425002 L51.53685574346716,-4.220926697349081 L51.64811679044664,-4.137665376413763 L51.757137926199746,-4.048225405434013 L51.86365650926132,-3.9528222531339368 L51.96741592703484,-3.8516857540637552 L52.068166213994644,-3.745059554908238 L52.165664653874764,-3.6332005275205015 L52.25967636439366,-3.5163781500952207 L52.349974863106254,-3.3948738579720428 L52.436342613019924,-3.268980365633211 L52.51857154666021,-3.1390009615287373 L52.596463567323575,-3.0052487774279615 L52.669831026309694,-2.8680460340576888 L52.73849717498364,-2.7277232648442373 L52.80229659057883,-2.5846185196294673 L52.8610755747149,-2.4390765502790996 L52.91469252367065,-2.291447980145267 L52.963018269519765,-2.142088459384158 L53.00593639130764,-1.9913578081636345 L53.043343495519714,-1.8396191498249332 L53.07514946516547,-1.6872380360867283 L53.10127767687814,-1.5345815663990243 L53.12166518550717,-1.3820175035684268 L53.13626287575852,-1.2299133877853277 L53.14503558051777,-1.0786356511873962 L53.14796216557077,-0.9285487350924859 " />
			<path d="M-1040.2683174235838,389.22749254927436 L-1040.1491015653571,389.26277666232306 L-1040.0301729085752,389.3053065177165 L-1039.9118179627887,389.35497965730775 L-1039.7943218554292,389.41167641415285 L-1039.6779676449103,389.47526020079835 L-1039.5630356387169,389.54557783833303 L-1039.4498027181185,389.622459925409 L-1039.338541671139,389.7057212463443 L-1039.2295205353857,389.79516121732405 L-1039.1230019523243,389.8905643696241 L-1039.0192425345508,389.9917008686943 L-1038.9184922475908,390.0983270678498 L-1038.820993807711,390.21018609523753 L-1038.726982097192,390.32700847266284 L-1038.6366835984793,390.448512764786 L-1038.5503158485656,390.57440625712485 L-1038.4680869149254,390.7043856612293 L-1038.390194894262,390.8381378453301 L-1038.3168274352759,390.97534058870036 L-1038.248161286602,391.11566335791383 L-1038.1843618710068,391.2587681031286 L-1038.1255828868707,391.40431007247895 L-1038.071965937915,391.55193864261275 L-1038.0236401920658,391.7012981633739 L-1037.980722070278,391.8520288145944 L-1037.9433149660658,392.00376747293313 L-1037.91150899642,392.1561485866713 L-1037.8853807847074,392.308805056359 L-1037.8649932760784,392.4613691191896 L-1037.850395585827,392.61347323497273 L-1037.841622881068,392.76475097157066 L-1037.8386962960149,392.91483788766556 " />
			<path d="M53.14796216557077,29.120630812598392 L53.14796216557077,-0.9285487350924573 " />
			<path d="M-1037.8386962960149,422.9640174353564 L-1037.8386962960149,392.91483788766556 " />
			<path d="M-1102.488299438033,2559.260693539996 L-1039.7262308826068,2576.207434167181 " />
			<path d="M52.56661232908673,2178.067975404867 L52.564891690389175,2178.1721965596503 L52.56029202991807,2178.27551629035 L52.55281879785514,2178.3778121724285 L52.542480849304646,2178.4789629945153 L52.52929043380081,2178.578848902032 L52.5132631807933,2178.677351539211 L52.494418081127684,2178.7743541893333 L52.472777464543036,2178.869741913031 L52.44836697321319,2178.9634016844752 L52.421215531363096,2179.0552225253073 L52.391355310996225,2179.1450956361327 L52.358821693773656,2179.232914525442 L52.32365322909,2179.3185751357923 L52.285891588395856,2179.401975967106 L52.24558151582092,2179.483018196939 L52.20277077515623,2179.5616057975776 L52.15751009325839,2179.637645649821 L52.10985309994282,2179.7110476533203 L52.05985626443729,2179.7817248333376 L52.007578828471026,2179.849593443807 L51.95308273607853,2179.9145730665605 L51.896432560201575,2179.9765867066217 L51.83769542617609,2180.0355608834348 L51.77694093219469,2180.091425717932 L51.71424106683912,2180.1441150153364 L51.64967012378031,2180.1935663435947 L51.58330461374706,2180.2397211073553 L51.515223173867774,2180.2825246173957 L51.44550647449257,2180.321926155427 L51.374237123606186,2180.35787903419 L51.30149956894503,2180.3903406527734 L51.22737999793422,2180.4192725470957 " />
			<path d="M51.2273799979342,2180.4192725470957 L51.163212418978574,2180.44110974381 L51.098160736295796,2180.46034151028 L51.032280892549,2180.476951307713 L50.96562954259711,2180.490924852139 L50.898264004773246,2180.502250126693 L50.8302422115925,2180.5109173919495 L50.76162265993157,2180.516919194298 L50.69246436072306,2180.5202503723535 L50.6228267882077,2180.520908061394 L50.5527698287881,2180.5188916958245 L50.48235372952813,2180.5142030096645 L50.411639046342046,2180.5068460350553 L50.340686591918114,2180.4968270987933 L50.269557383421336,2180.4841548168893 L50.19831259002037,2180.468840087158 L50.12701348028372,2180.450896079847 " />
			<path d="M-1037.2866320338037,2573.824513492201 L-1037.288352672501,2573.928734646984 L-1037.2929523329724,2574.032054377684 L-1037.3004255650353,2574.1343502597624 L-1037.3107635135857,2574.235501081849 L-1037.3239539290896,2574.335386989366 L-1037.339981182097,2574.433889626545 L-1037.3588262817627,2574.530892276667 L-1037.3804668983473,2574.6262800003647 L-1037.4048773896773,2574.719939771809 L-1037.4320288315273,2574.811760612641 L-1037.461889051894,2574.9016337234666 L-1037.4944226691166,2574.989452612776 L-1037.5295911338003,2575.075113223126 L-1037.5673527744946,2575.15851405444 L-1037.6076628470694,2575.239556284273 L-1037.650473587734,2575.3181438849115 L-1037.6957342696319,2575.394183737155 L-1037.7433912629476,2575.467585740654 L-1037.793388098453,2575.5382629206715 L-1037.8456655344194,2575.606131531141 L-1037.9001616268117,2575.6711111538943 L-1037.9568118026887,2575.7331247939555 L-1038.0155489367144,2575.7920989707686 L-1038.0763034306956,2575.847963805266 L-1038.1390032960512,2575.9006531026703 L-1038.2035742391101,2575.9501044309286 L-1038.2699397491433,2575.996259194689 L-1038.3380211890226,2576.0390627047295 L-1038.4077378883978,2576.0784642427607 L-1038.479007239284,2576.1144171215237 L-1038.5517447939453,2576.1468787401072 L-1038.6258643649562,2576.1758106344296 " />
			<path d="M-1038.6258643649562,2576.1758106344296 L-1038.690031943912,2576.197647831144 L-1038.7550836265946,2576.216879597614 L-1038.8209634703414,2576.233489395047 L-1038.8876148202933,2576.247462939473 L-1038.9549803581172,2576.258788214027 L-1039.0230021512978,2576.2674554792834 L-1039.0916217029587,2576.273457281632 L-1039.1607800021673,2576.2767884596874 L-1039.2304175746826,2576.277446148728 L-1039.3004745341022,2576.2754297831584 L-1039.3708906333623,2576.2707410969983 L-1039.4416053165482,2576.263384122389 L-1039.5125577709723,2576.253365186127 L-1039.5836869794691,2576.240692904223 L-1039.65493177287,2576.2253781744917 L-1039.7262308826066,2576.207434167181 " />
			<path d="M-1102.4882994380328,2559.260693539996 L-1102.607595736081,2559.2248178714594 L-1102.7265850323804,2559.1817063220506 L-1102.8449806712938,2559.131462751268 L-1102.962497427357,2559.074208200274 L-1103.078852192411,2559.010080600297 L-1103.1937646576357,2558.9392344403423 L-1103.306957988837,2558.861840395015 L-1103.4181594933657,2558.7780849133487 L-1103.527101277057,2558.688169769635 L-1103.633520889612,2558.5923115773307 L-1103.737161956863,2558.490741267218 L-1103.8377747984007,2558.383703531069 L-1103.9351170290772,2558.271456232166 L-1104.0289541429331,2558.154269784085 L-1104.1190600781415,2558.0324264992423 L-1104.2052177616122,2557.906219908784 L-1104.2872196319393,2557.7759540554403 L-1104.3648681394347,2557.641942761062 L-1104.4379762220426,2557.5045088705965 L-1104.5063677559885,2557.3639834743217 L-1104.5698779800769,2557.2207051102273 L-1104.6283538926145,2557.0750189484415 L-1104.6816546200068,2556.927275959689 L-1104.7296517561329,2556.77783206977 L-1104.7722296716872,2556.6270473021054 L-1104.8092857927422,2556.4752849104075 L-1104.8407308478568,2556.3229105035703 L-1104.8664890831383,2556.170291164887 L-1104.8864984447423,2556.017794567713 L-1104.9007107283637,2555.8657880897063 L-1104.9090916953667,2555.7146379277874 L-1104.9116211552675,2555.5647082159358 " />
			<path d="M-1104.9116211552678,2555.564708215936 L-1104.83125281815,2525.5501098456766 " />
			<path d="M-1104.83125281815,2525.5501098456766 L-1104.8295321794526,2525.4458886908933 L-1104.8249325189813,2525.3425689601936 L-1104.8174592869184,2525.240273078115 L-1104.807121338368,2525.1391222560283 L-1104.793930922864,2525.0392363485116 L-1104.7779036698566,2524.9407337113325 L-1104.759058570191,2524.8437310612103 L-1104.7374179536064,2524.748343337513 L-1104.7130074622764,2524.6546835660683 L-1104.6858560204264,2524.5628627252363 L-1104.6559958000596,2524.472989614411 L-1104.623462182837,2524.3851707251015 L-1104.5882937181534,2524.2995101147512 L-1104.5505320774591,2524.2161092834376 L-1104.5102220048843,2524.1350670536044 L-1104.4674112642197,2524.056479452966 L-1104.4221505823218,2523.9804396007225 L-1104.374493589006,2523.9070375972233 L-1104.3244967535006,2523.836360417206 L-1104.2722193175343,2523.7684918067366 L-1104.217723225142,2523.703512183983 L-1104.161073049265,2523.641498543922 L-1104.1023359152393,2523.582524367109 L-1104.0415814212581,2523.5266595326116 L-1103.9788815559025,2523.473970235207 L-1103.9143106128436,2523.424518906949 L-1103.8479451028104,2523.3783641431883 L-1103.7798636629311,2523.335560633148 L-1103.7101469635559,2523.2961590951168 L-1103.6388776126696,2523.2602062163537 L-1103.5661400580084,2523.22774459777 L-1103.4920204869975,2523.198812703448 " />
			<path d="M-1103.4920204869975,2523.198812703448 L-1103.4278529080418,2523.1769755067335 L-1103.3628012253591,2523.1577437402634 L-1103.2969213816123,2523.1411339428305 L-1103.2302700316604,2523.1271603984046 L-1103.1629044938365,2523.1158351238505 L-1103.094882700656,2523.107167858594 L-1103.026263148995,2523.1011660562453 L-1102.9571048497864,2523.09783487819 L-1102.887467277271,2523.0971771891495 L-1102.8174103178515,2523.099193554719 L-1102.7469942185915,2523.103882240879 L-1102.6762795354055,2523.1112392154882 L-1102.6053270809814,2523.12125815175 L-1102.5341978724846,2523.1339304336543 L-1102.4629530790837,2523.149245163386 L-1102.391653969347,2523.1671891706965 " />
			<path d="M-1102.3916539693469,2523.1671891706965 L-1039.6295854139207,2540.1139297978816 " />
			<path d="M51.835534008384236,2145.5593071677845 L51.92898399842865,2145.694281705148 L52.01765653567044,2145.834003302401 L52.10130438471005,2145.9780823899423 L52.179694319905984,2146.1261172486843 L52.25260777565098,2146.277695130119 L52.31984145577324,2146.4323934071367 L52.38120790036368,2146.58978075239 L52.436536008448755,2146.749418340912 L52.485671515051564,2146.910861073643 L52.52847742131105,2147.073658818447 L52.56483437646017,2147.2373576651653 L52.59464101059777,2147.4015011912 L52.61781421732665,2147.5656317341063 L52.634289385469515,2147.7292916676374 L52.64402057921688,2147.8920246776934 L52.64698066620453,2148.0533770346074 " />
			<path d="M-1039.629585413921,2540.1139297978816 L-1039.5102891158726,2540.149805466418 L-1039.3912998195733,2540.192917015827 L-1039.27290418066,2540.2431605866095 L-1039.1553874245967,2540.3004151376035 L-1039.0390326595427,2540.3645427375805 L-1038.924120194318,2540.435388897535 L-1038.8109268631167,2540.5127829428625 L-1038.699725358588,2540.5965384245287 L-1038.5907835748967,2540.6864535682425 L-1038.4843639623416,2540.7823117605467 L-1038.3807228950907,2540.8838820706596 L-1038.280110053553,2540.9909198068085 L-1038.1827678228765,2541.1031671057112 L-1038.0889307090206,2541.2203535537924 L-1037.9988247738122,2541.342196838635 L-1037.9126670903415,2541.4684034290935 L-1037.8306652200145,2541.598669282437 L-1037.753016712519,2541.7326805768153 L-1037.679908629911,2541.870114467281 L-1037.6115170959652,2542.0106398635558 L-1037.5480068718769,2542.15391822765 L-1037.4895309593392,2542.299604389436 L-1037.4362302319469,2542.4473473781886 L-1037.3882330958209,2542.5967912681076 L-1037.3456551802665,2542.747576035772 L-1037.3085990592115,2542.89933842747 L-1037.277154004097,2543.051712834307 L-1037.2513957688154,2543.2043321729902 L-1037.2313864072114,2543.3568287701646 L-1037.21717412359,2543.508835248171 L-1037.208793156587,2543.65998541009 L-1037.2062636966862,2543.8099151219417 " />
			<path d="M52.56661232908673,2178.0679754048665 L52.64698066620452,2148.053377034607 " />
			<path d="M-1037.286632033804,2573.824513492201 L-1037.2062636966862,2543.8099151219412 " />
			<path d="M51.065404587627704,32.91538638920165 L51.15522551044995,32.88146932327319 L51.24010528516287,32.84635499249884 L51.31987744493369,32.81011226336005 L51.39438554002128,32.77281221536133 L51.46348344460655,32.73452800162866 L51.52703564337545,32.69533470544103 L51.58491749729258,32.65530919297655 L51.6370154880442,32.614529962561996 L51.68322744067115,32.573076990721226 L51.723462723955166,32.53103157532474 L51.75764242816542,32.48847617614763 L51.78569951981692,32.44549425314891 L51.80757897313704,32.40217010278921 L51.82323787798248,32.358588692707976 L51.83264552399492,32.31483549508427 L51.83578346083044,32.27099631900814 " />
			<path d="M51.83578346083044,32.27099631900813 L51.83335130576081,32.23239868854523 L51.826058528558114,32.193859729757186 L51.8139162149713,32.15543802570623 L51.79694282252839,32.117191981215704 L51.77516415247928,32.079179734088896 L51.74861331057521,32.041459066733765 L51.71733065674474,32.00408731832793 L51.68136374374266,31.967121297657414 L51.64076724486499,31.930617196761578 L51.59560287084019,31.894630505515657 L51.54593927602264,31.859215927280598 L51.49185195403121,31.82442729574849 L51.43342312299141,31.79031749310998 L51.37074160055562,31.75693836966809 L51.303902668891446,31.724340665020552 L51.233007929843275,31.69257393093057 " />
			<path d="M51.06515509631932,2146.532925155217 L51.15497601914157,2146.4990080892885 L51.23985579385449,2146.463893758514 L51.31962795362531,2146.4276510293753 L51.3941360487129,2146.3903509813767 L51.46323395329817,2146.352066767644 L51.52678615206707,2146.3128734714564 L51.5846680059842,2146.272847958992 L51.63676599673582,2146.2320687285774 L51.68297794936277,2146.1906157567364 L51.723213232646785,2146.14857034134 L51.75739293685704,2146.106014942163 L51.78545002850854,2146.0630330191643 L51.80732948182866,2146.0197088688046 L51.8229883866741,2145.976127458723 L51.83239603268654,2145.9323742610995 L51.83553396952206,2145.8885350850232 " />
			<path d="M26.62066467066594,40.57756674613604 L26.862977682638437,40.61183235999992 L27.11366257101252,40.63974228004288 L27.370981708915465,40.66110304814546 L27.633151484053048,40.67576660175423 L27.89835466185064,40.68363130018011 L28.164752981647784,40.68464262912261 L28.430499898635468,40.678793578536734 L28.693753383215142,40.66612469122322 L28.952688689060416,40.646723781805385 L29.205511001379517,40.62072532804046 L29.450467877706703,40.588309538684555 L29.685861394989168,40.549701104372396 L29.799459106082974,40.528156647072194 L29.910059918771623,40.5051676401701 L30.01747209206585,40.48077393811942 L30.121509412900267,40.455017830596425 L30.221991518958056,40.427943969185634 L30.318744211352698,40.39959928997047 L30.411599756624533,40.37003293216338 L30.500397177528658,40.33929615291663 " />
			<path d="M25.987994163463647,2154.0642328015133 L26.10971852312743,2154.094945980183 L26.236166641097146,2154.1237740441784 L26.367033892781063,2154.1506475441674 L26.502005007507258,2154.175501739536 L26.640754828038283,2154.198276754349 L26.782949093903422,2154.2189177216023 L26.92824524666146,2154.237374915397 L27.076293255153974,2154.2536038707367 L27.22673645876102,2154.267565490647 L27.37921242662785,2154.279226140362 L27.533353830792542,2154.2885577283555 L27.688789331111284,2154.2955377740145 L27.845144469849263,2154.300149461798 L28.00204257378216,2154.302381681746 L28.159105661634957,2154.302229056245 L28.315955354671917,2154.2996919529833 L28.472213788244098,2154.2947764840646 L28.6275045220984,2154.2874944912846 L28.781453447255107,2154.2778635176014 L28.933689687269187,2154.265906764874 L29.083846491704126,2154.2516530379676 L29.231562119665856,2154.2351366753583 L29.376480711268254,2154.2163974664104 L29.518253144930785,2154.1954805555197 L29.656537878442958,2154.1724363333565 L29.791001771769423,2154.147320315471 L29.92132088961352,2154.120193008549 L30.04718128180575,2154.09111976465 L30.168279739637253,2154.060170623765 L30.28432452631614,2154.0274201450843 L30.395036079786983,2153.9929472273807 L30.500147686220267,2153.956834918932 " />
			<path d="M51.06540458762772,32.91538638920165 L30.50039717752869,40.339296152916624 " />
			<path d="M51.065155096319316,2146.5329251552166 L30.500147686220288,2153.9568349189312 " />
			<path d="M-213.41618440199392,128.39255919472404 L-213.3263634747542,128.35864210379478 L-213.24148369613812,128.3235277479474 L-213.16171153300306,128.28728499371948 L-213.0872034351127,128.24998492067203 L-213.0181055283066,128.21170068198762 L-212.95455332791693,128.1725073610018 L-212.89667147299497,128.13248182394923 L-212.84457348186805,128.09170256921283 L-212.79836152950648,128.05024957337238 L-212.75812624713726,128.00820413435372 L-212.72394654449747,127.96564871198669 L-212.69588945507584,127.92266676628428 L-212.67401000464625,127.87934259376028 L-212.65835110335072,127.83576116210624 L-212.64894346154375,127.79200794355226 L-212.64580552956286,127.74816874723821 " />
			<path d="M-212.64580552956286,127.7481687472382 L-212.6482376717711,127.70957123969063 L-212.65553040132363,127.6710324037851 L-212.66767263262324,127.63261082197751 L-212.6846459083992,127.59436489848711 L-212.70642442776375,127.55635277051695 L-212.73297508543175,127.51863221988002 L-212.76425752204375,127.48126058516593 L-212.80022418551567,127.44429467458103 L-212.84082040332234,127.40779067959495 L-212.88598446560448,127.37180408952455 L-212.93564771897326,127.33638960718523 L-212.98973467086944,127.30160106573778 L-213.04816310431892,127.26749134685724 L-213.1108442029097,127.23411230034796 L-213.17768268580082,127.20151466532738 L-213.24857695255767,127.16974799309801 " />
			<path d="M-213.41618440199397,2242.010007949548 L-213.32636347475426,2241.9760908586186 L-213.24148369613818,2241.9409765027713 L-213.1617115330031,2241.904733748543 L-213.08720343511277,2241.8674336754957 L-213.01810552830665,2241.8291494368113 L-212.95455332791698,2241.7899561158256 L-212.89667147299502,2241.749930578773 L-212.8445734818681,2241.7091513240366 L-212.79836152950654,2241.667698328196 L-212.7581262471373,2241.6256528891777 L-212.72394654449752,2241.5830974668106 L-212.6958894550759,2241.540115521108 L-212.6740100046463,2241.496791348584 L-212.65835110335078,2241.45320991693 L-212.6489434615438,2241.409456698376 L-212.64580552956292,2241.365617502062 " />
			<path d="M-212.64580552956292,2241.365617502062 L-212.6489434615438,2241.321778305748 L-212.65835110335078,2241.278025087194 L-212.6740100046463,2241.23444365554 L-212.6958894550759,2241.191119483016 L-212.72394654449752,2241.1481375373132 L-212.7581262471373,2241.1055821149466 L-212.79836152950654,2241.063536675928 L-212.84457348186808,2241.0220836800872 L-212.896671472995,2240.981304425351 L-212.95455332791693,2240.9412788882983 L-213.01810552830662,2240.9020855673125 L-213.08720343511274,2240.863801328628 L-213.16171153300309,2240.8265012555808 L-213.24148369613812,2240.7902585013526 L-213.3263634747542,2240.7551441455053 L-213.4161844019939,2240.721227054576 " />
			<path d="M-301.55502941371395,2231.5118135759244 L-301.64485034095367,2231.5457306668536 L-301.7297301195697,2231.580845022701 L-301.8095022827048,2231.617087776929 L-301.8840103805951,2231.6543878499765 L-301.9531082874012,2231.692672088661 L-302.01666048779094,2231.7318654096466 L-302.0745423427129,2231.7718909466994 L-302.12664033383976,2231.8126702014356 L-302.17285228620136,2231.8541231972763 L-302.2130875685706,2231.8961686362945 L-302.2472672712104,2231.9387240586616 L-302.275324360632,2231.9817060043642 L-302.2972038110616,2232.0250301768883 L-302.3128627123571,2232.068611608542 L-302.3222703541641,2232.1123648270964 L-302.325408286145,2232.1562040234103 " />
			<path d="M-302.325408286145,2232.1562040234103 L-302.32418586416753,2232.183570343964 L-302.3205195321823,2232.2109157562736 L-302.31441209131737,2232.2382193680673 L-302.30586820774136,2232.2654603190113 " />
			<path d="M-237.86093001642467,136.05474434777128 L-237.61861685543684,136.08901014624863 L-237.367931754408,136.11692023323928 L-237.11061234689944,136.13828114888602 L-236.84844225242674,136.15294482916843 L-236.58323871323157,136.16080963221432 L-236.31683999799594,136.16182104283445 L-236.05109265981136,136.1559720503966 L-235.7878387367238,136.14330319742015 L-235.52890298357528,136.12390229855393 L-235.27608022364421,136.0979038318856 L-235.03112290775806,136.0654880068015 L-234.79572896711187,136.02687951485834 L-234.68213105287126,136.00533502089428 L-234.57153004399206,135.98234597232477 L-234.4641176823793,135.95795222379505 L-234.36008018198402,135.9321960651889 L-234.2595979059757,135.90512214831347 L-234.16284505405858,135.87677740948922 L-234.06998936047242,135.84721098817954 L-233.98119180320253,135.8164741418006 " />
			<path d="M-238.49334532583063,2249.541321304539 L-238.37162096613005,2249.572034482555 L-238.24517284812583,2249.6008625446334 L-238.11430559640974,2249.627736041448 L-237.97933448165375,2249.6525902323906 L-237.84058466109548,2249.675365241538 L-237.6983903952056,2249.6960062018993 L-237.55309424242546,2249.7144633875923 L-237.4050462339135,2249.73069233364 L-237.25460303028976,2249.7446539430903 L-237.10212706240895,2249.756314581203 L-236.94798565823308,2249.7656461564793 L-236.792550157906,2249.772626188337 L-236.63619501916247,2249.777237861268 L-236.4792969152269,2249.779470065349 L-236.3222338273743,2249.7793174230037 L-236.16538413434037,2249.776780301962 L-236.00912570077406,2249.7718648143696 L-235.8538349669285,2249.7645828020673 L-235.69988604178332,2249.7549518080605 L-235.54764980178356,2249.7429950342575 L-235.39749299736567,2249.7287412855735 L-235.24977736942373,2249.7122249005374 L-235.1048587778438,2249.6934856685675 L-234.9630863442063,2249.672568734115 L-234.82480161072172,2249.6495244879075 L-234.69033771742534,2249.6244084455516 L-234.56001859961373,2249.5972811137945 L-234.4341582074563,2249.5682078447535 L-234.31305974966187,2249.5372586784806 L-234.19701496302218,2249.5045081742282 L-234.08630340959263,2249.4700352308296 L-233.9811918032026,2249.4339228966246 " />
			<path d="M-213.4161844019939,128.39255919472404 L-233.9811918032025,135.81647414180063 " />
			<path d="M-213.41618440199395,2242.010007949548 L-233.98119180320256,2249.4339228966246 " />
			<path d="M-477.89779857449946,223.86974383054417 L-477.80797764725975,223.8358267396149 L-477.7230978686437,223.80071238376752 L-477.64332570550863,223.7644696295396 L-477.5688176076183,223.72716955649216 L-477.4997197008122,223.68888531780775 L-477.43616750042247,223.64969199682193 L-477.37828564550057,223.60966645976936 L-477.3261876543736,223.56888720503295 L-477.27997570201205,223.5274342091925 L-477.2397404196428,223.48538877017384 L-477.20556071700304,223.4428333478068 L-477.1775036275814,223.39985140210442 L-477.1556241771518,223.3565272295804 L-477.1399652758563,223.31294579792635 L-477.1305576340493,223.26919257937237 L-477.12741970206844,223.22535338305832 " />
			<path d="M-477.12741970206844,223.22535338305832 L-477.1298518442767,223.18675587551076 L-477.1371445738292,223.1482170396052 L-477.14928680512884,223.10979545779765 L-477.1662600809048,223.07154953430725 L-477.1880386002693,223.03353740633708 L-477.21458925793735,222.99581685570016 L-477.2458716945493,222.95844522098605 L-477.2818383580212,222.92147931040114 L-477.3224345758279,222.88497531541506 L-477.36759863811005,222.84898872534467 L-477.41726189147886,222.81357424300535 L-477.47134884337504,222.7787857015579 L-477.5297772768245,222.74467598267736 L-477.5924583754153,222.71129693616808 L-477.6592968583064,222.6786993011475 L-477.7301911250633,222.64693262891814 " />
			<path d="M-477.8977985744995,2337.487192585368 L-477.8079776472598,2337.453275494439 L-477.7230978686438,2337.4181611385916 L-477.6433257055087,2337.3819183843634 L-477.56881760761837,2337.344618311316 L-477.49971970081225,2337.3063340726317 L-477.4361675004225,2337.267140751646 L-477.3782856455006,2337.227115214593 L-477.3261876543737,2337.186335959857 L-477.2799757020121,2337.1448829640162 L-477.2397404196429,2337.102837524998 L-477.2055607170031,2337.060282102631 L-477.1775036275815,2337.0173001569283 L-477.1556241771519,2336.973975984404 L-477.13996527585635,2336.9303945527504 L-477.13055763404935,2336.886641334196 L-477.1274197020685,2336.8428021378822 " />
			<path d="M-477.1274197020685,2336.8428021378822 L-477.13055763404935,2336.7989629415683 L-477.13996527585635,2336.755209723014 L-477.1556241771519,2336.7116282913603 L-477.1775036275815,2336.668304118836 L-477.2055607170031,2336.6253221731336 L-477.2397404196429,2336.582766750767 L-477.2799757020121,2336.5407213117483 L-477.32618765437365,2336.4992683159076 L-477.37828564550057,2336.4584890611713 L-477.4361675004225,2336.4184635241186 L-477.4997197008122,2336.379270203133 L-477.5688176076183,2336.3409859644485 L-477.64332570550863,2336.303685891401 L-477.7230978686437,2336.267443137173 L-477.80797764725975,2336.2323287813256 L-477.89779857449946,2336.1984116903964 " />
			<path d="M-566.0366435862195,2326.9889982117443 L-566.1264645134593,2327.0229153026735 L-566.2113442920753,2327.058029658521 L-566.2911164552104,2327.094272412749 L-566.3656245531007,2327.1315724857964 L-566.4347224599069,2327.1698567244807 L-566.4982746602965,2327.2090500454665 L-566.5561565152185,2327.2490755825193 L-566.6082545063454,2327.2898548372555 L-566.6544664587069,2327.331307833096 L-566.6947017410762,2327.3733532721144 L-566.728881443716,2327.4159086944815 L-566.7569385331376,2327.458890640184 L-566.7788179835671,2327.502214812708 L-566.7944768848627,2327.545796244362 L-566.8038845266697,2327.5895494629162 L-566.8070224586506,2327.63338865923 " />
			<path d="M-566.8070224586506,2327.63338865923 L-566.8031202192592,2327.682273232537 L-566.7914230182549,2327.731038581277 L-566.7719593839372,2327.7795657716592 L-566.7447767861561,2327.827736450737 L-566.709941520539,2327.8754331350606 L-566.6675385468021,2327.922539497204 L-566.6176712815419,2327.9689406494786 L-566.5604613460126,2328.0145234241318 L-566.4960482695043,2328.0591766493517 L-566.4245891490447,2328.1027914204046 L-566.3462582662555,2328.145261365242 L-566.2612466622971,2328.186482903931 L-566.1697616719379,2328.2263555012773 L-566.0720264178861,2328.264781912018 L-565.9682792666158,2328.3016684179943 L-565.8587732470146,2328.336925056721 " />
			<path d="M-565.6895548537098,2328.3851775146304 L-502.9749594983362,2345.0185059403593 " />
			<path d="M-502.3425441889301,231.5319289835914 L-502.1002310279423,231.56619478206872 L-501.84954592691344,231.59410486905938 L-501.59222651940485,231.61546578470612 L-501.3300564249322,231.63012946498853 L-501.06485288573697,231.63799426803442 L-500.7984541705014,231.63900567865454 L-500.5327068323168,231.6331566862167 L-500.26945290922924,231.62048783324025 L-500.0105171560807,231.60108693437402 L-499.75769439614965,231.57508846770568 L-499.5127370802635,231.5426726426216 L-499.27734313961736,231.50406415067843 L-499.1637452253767,231.48251965671437 L-499.0531442164975,231.45953060814486 L-498.9457318548848,231.43513685961514 L-498.84169435448945,231.40938070100898 L-498.74121207848117,231.38230678413356 L-498.64445922656404,231.35396204530932 L-498.5516035329779,231.32439562399964 L-498.462805975708,231.2936587776207 " />
			<path d="M-502.9749594983361,2345.018505940359 L-502.8532351386355,2345.049219118375 L-502.72678702063126,2345.0780471804533 L-502.59591976891517,2345.1049206772677 L-502.4609486541592,2345.1297748682105 L-502.3221988336009,2345.152549877358 L-502.1800045677111,2345.173190837719 L-502.03470841493095,2345.191648023412 L-501.88666040641897,2345.20787696946 L-501.7362172027952,2345.22183857891 L-501.5837412349144,2345.2334992170227 L-501.42959983073854,2345.242830792299 L-501.27416433041145,2345.249810824157 L-501.11780919166796,2345.254422497088 L-500.96091108773237,2345.256654701169 L-500.80384799987974,2345.2565020588236 L-500.64699830684583,2345.253964937782 L-500.49073987327955,2345.2490494501894 L-500.33544913943393,2345.241767437887 L-500.1815002142888,2345.2321364438803 L-500.029263974289,2345.2201796700774 L-499.87910716987113,2345.2059259213934 L-499.7313915419292,2345.1894095363573 L-499.5864729503492,2345.1706703043874 L-499.44470051671175,2345.149753369935 L-499.3064157832272,2345.1267091237273 L-499.17195188993077,2345.1015930813714 L-499.04163277211916,2345.0744657496143 L-498.91577237996177,2345.0453924805734 L-498.7946739221673,2345.0144433143005 L-498.6786291355277,2344.981692810048 L-498.5679175820981,2344.9472198666494 L-498.4628059757081,2344.9111075324445 " />
			<path d="M-477.8977985744994,223.86974383054414 L-498.462805975708,231.29365877762072 " />
			<path d="M-477.89779857449946,2337.487192585368 L-498.4628059757081,2344.911107532445 " />
			<path d="M-742.379412747005,319.34692846636426 L-742.2895918197652,319.313011375435 L-742.2047120411492,319.27789701958756 L-742.1249398780141,319.24165426535967 L-742.0504317801237,319.2043541923122 L-741.9813338733176,319.1660699536278 L-741.917781672928,319.126876632642 L-741.8598998180059,319.0868510955894 L-741.8078018268791,319.046071840853 L-741.7615898745175,319.0046188450126 L-741.7213545921483,318.9625734059939 L-741.6871748895085,318.92001798362685 L-741.6591178000868,318.8770360379245 L-741.6372383496573,318.83371186540046 L-741.6215794483618,318.7901304337464 L-741.6121718065548,318.74637721519247 L-741.6090338745738,318.7025380188784 " />
			<path d="M-741.6090338745738,318.7025380188784 L-741.6114660167822,318.66394051133085 L-741.6187587463346,318.6254016754253 L-741.6309009776343,318.5869800936177 L-741.6478742534102,318.5487341701273 L-741.6696527727747,318.5107220421571 L-741.6962034304428,318.4730014915202 L-741.7274858670547,318.43562985680614 L-741.7634525305267,318.39866394622123 L-741.8040487483333,318.3621599512351 L-741.8492128106155,318.32617336116476 L-741.8988760639843,318.29075887882544 L-741.9529630158804,318.25597033737796 L-742.01139144933,318.22186061849743 L-742.0740725479207,318.1884815719882 L-742.1409110308118,318.1558839369676 L-742.2118052975686,318.12411726473823 " />
			<path d="M-742.3794127470051,2432.964377221188 L-742.2895918197653,2432.930460130259 L-742.2047120411493,2432.8953457744115 L-742.1249398780142,2432.8591030201833 L-742.0504317801239,2432.821802947136 L-741.9813338733177,2432.7835187084515 L-741.9177816729281,2432.744325387466 L-741.859899818006,2432.704299850413 L-741.8078018268792,2432.663520595677 L-741.7615898745177,2432.622067599836 L-741.7213545921484,2432.580022160818 L-741.6871748895086,2432.537466738451 L-741.659117800087,2432.494484792748 L-741.6372383496574,2432.451160620224 L-741.6215794483619,2432.4075791885703 L-741.6121718065549,2432.363825970016 L-741.6090338745739,2432.319986773702 " />
			<path d="M-741.6090338745739,2432.319986773702 L-741.6121718065549,2432.276147577388 L-741.6215794483619,2432.232394358834 L-741.6372383496574,2432.18881292718 L-741.659117800087,2432.145488754656 L-741.6871748895086,2432.1025068089534 L-741.7213545921484,2432.059951386587 L-741.7615898745175,2432.017905947568 L-741.8078018268791,2431.9764529517274 L-741.859899818006,2431.935673696991 L-741.917781672928,2431.8956481599384 L-741.9813338733176,2431.8564548389527 L-742.0504317801237,2431.8181706002683 L-742.1249398780141,2431.780870527221 L-742.204712041149,2431.7446277729928 L-742.2895918197652,2431.7095134171454 L-742.3794127470048,2431.6755963262162 " />
			<path d="M-830.518257758725,2422.466182847564 L-830.6080786859648,2422.5000999384933 L-830.6929584645808,2422.5352142943407 L-830.7727306277159,2422.571457048569 L-830.8472387256062,2422.6087571216162 L-830.9163366324124,2422.6470413603006 L-830.979888832802,2422.6862346812864 L-831.037770687724,2422.726260218339 L-831.0898686788508,2422.7670394730753 L-831.1360806312124,2422.808492468916 L-831.1763159135817,2422.8505379079343 L-831.2104956162215,2422.8930933303013 L-831.2385527056431,2422.936075276004 L-831.2604321560726,2422.979399448528 L-831.2760910573681,2423.022980880182 L-831.2854986991752,2423.066734098736 L-831.2886366311561,2423.11057329505 " />
			<path d="M-831.2886366311561,2423.11057329505 L-831.2874752370349,2423.1372478828966 L-831.2839918976938,2423.1639031084246 L-831.278189141589,2423.19051962337 L-831.2700711807748,2423.217078107569 L-831.2596439078462,2423.243559282978 L-831.2469148916617,2423.269943927671 L-831.231893371849,2423.2962128897925 L-831.2145902520986,2423.322347101455 L-831.1731910991699,2423.3741355046855 L-831.1228376128951,2423.425158797782 L-831.0636759673507,2423.475268862246 L-830.9958779063334,2423.524320230645 L-830.9196402447949,2423.5721705088963 L-830.8351842974963,2423.6186807896315 L-830.7427552365403,2423.66371605544 L-830.6426213796474,2423.7071455708183 L-830.5350734112395,2423.748843261689 L-830.4204235385968,2423.7886880813903 L-830.2990045855315,2423.826564362066 L-830.1711690262152,2423.8623621504503 " />
			<path d="M-830.1711690262151,2423.8623621504503 L-767.4565736708415,2440.495690576179 " />
			<path d="M-766.8241583614356,327.00911361941144 L-766.5818452004478,327.0433794178888 L-766.331160099419,327.0712895048794 L-766.0738406919104,327.0926504205262 L-765.8116705974377,327.1073141008086 L-765.5464670582426,327.1151789038545 L-765.280068343007,327.1161903144746 L-765.0143210048224,327.11034132203673 L-764.7510670817348,327.0976724690603 L-764.4921313285863,327.0782715701941 L-764.2393085686552,327.05227310352575 L-763.9943512527691,327.0198572784417 L-763.7589573121229,326.9812487864985 L-763.6453593978822,326.9597042925344 L-763.5347583890031,326.93671524396495 L-763.4273460273903,326.9123214954352 L-763.323308526995,326.88656533682905 L-763.2228262509867,326.8594914199536 L-763.1260733990696,326.8311466811294 L-763.0332177054834,326.8015802598197 L-762.9444201482136,326.7708434134408 " />
			<path d="M-767.4565736708416,2440.495690576179 L-767.3348493111412,2440.526403754195 L-767.2084011931369,2440.5552318162736 L-767.0775339414208,2440.582105313088 L-766.9425628266648,2440.606959504031 L-766.8038130061066,2440.6297345131784 L-766.6616187402167,2440.6503754735395 L-766.5163225874365,2440.6688326592325 L-766.3682745789246,2440.68506160528 L-766.2178313753008,2440.6990232147305 L-766.06535540742,2440.710683852843 L-765.9112140032441,2440.7200154281195 L-765.755778502917,2440.7269954599774 L-765.5994233641735,2440.7316071329083 L-765.442525260238,2440.733839336989 L-765.2854621723853,2440.733686694644 L-765.1286124793514,2440.731149573602 L-764.9723540457851,2440.7262340860098 L-764.8170633119396,2440.7189520737074 L-764.6631143867944,2440.7093210797007 L-764.5108781467947,2440.6973643058977 L-764.3607213423768,2440.6831105572137 L-764.2130057144348,2440.6665941721776 L-764.0680871228549,2440.6478549402077 L-763.9263146892174,2440.626938005755 L-763.7880299557328,2440.6038937595476 L-763.6535660624364,2440.5787777171918 L-763.5232469446248,2440.5516503854346 L-763.3973865524673,2440.5225771163937 L-763.276288094673,2440.491627950121 L-763.1602433080333,2440.4588774458684 L-763.0495317546037,2440.4244045024698 L-762.9444201482137,2440.388292168265 " />
			<path d="M-742.3794127470048,319.3469284663642 L-762.9444201482133,326.7708434134408 " />
			<path d="M-742.379412747005,2432.964377221188 L-762.9444201482135,2440.388292168265 " />
			<path d="M-1015.1910931618277,417.83124338800735 L-1015.1012722306237,417.79732627500624 L-1015.0163924485,417.76221189702164 L-1014.9366202823361,417.7259691206408 L-1014.8621121819158,417.6886690254746 L-1014.7930142730968,417.65038476475564 L-1014.7294620712275,417.61119142186953 L-1014.6715802153736,417.5711658631008 L-1014.6194822238746,417.5303865868822 L-1014.5732702717105,417.4889335698428 L-1014.5330349901163,417.4468881099574 L-1014.4988552888348,417.40433266710426 L-1014.4707982013581,417.36135070134424 L-1014.4489187534613,417.31802650923794 L-1014.4332598552852,417.2744450585232 L-1014.4238522171812,417.23069182147515 L-1014.4207142894811,417.1868526072778 " />
			<path d="M-1014.4207142894811,417.1868526072778 L-1014.4231464211101,417.1482552020761 L-1014.4304391109235,417.1097164685153 L-1014.4425812734512,417.071294988544 L-1014.4595544516377,417.03304916587626 L-1014.4813328448984,416.9950371372127 L-1014.5078833483385,416.95731668386867 L-1014.5391656030754,416.9199451439416 L-1014.5751320575869,416.8829793251528 L-1014.6157280399935,416.8464754184951 L-1014.6608918411645,416.810488912818 L-1014.7105548085196,416.7750745104803 L-1014.7646414503879,416.74028604419794 L-1014.8230695507598,416.70617639521436 L-1014.8857502942628,416.6727974129164 L-1014.9525884011678,416.6401998360193 L-1015.0234822722213,416.60843321543985 " />
			<path d="M-1015.1908730324432,2531.4486126766637 L-1015.1010521012392,2531.4146955636625 L-1015.0161723191155,2531.379581185678 L-1014.9364001529516,2531.3433384092973 L-1014.8618920525313,2531.306038314131 L-1014.7927941437123,2531.267754053412 L-1014.729241941843,2531.228560710526 L-1014.6713600859891,2531.188535151757 L-1014.6192620944901,2531.1477558755387 L-1014.573050142326,2531.106302858499 L-1014.5328148607318,2531.064257398614 L-1014.4986351594503,2531.021701955761 L-1014.4705780719736,2530.9787199900006 L-1014.4486986240768,2530.935395797894 L-1014.4330397259007,2530.8918143471797 L-1014.4236320877967,2530.8480611101318 L-1014.4204941600966,2530.804221895934 " />
			<path d="M-1014.4204941600966,2530.804221895934 L-1014.4236320969283,2530.7603826823906 L-1014.433039744146,2530.716629447302 L-1014.4486986513998,2530.673047999849 L-1014.4705781083209,2530.6297238123 L-1014.4986352047506,2530.586741852384 L-1014.5328149148962,2530.5441864166505 L-1014.5730502052484,2530.5021409651463 L-1014.619262166047,2530.4606879577323 L-1014.6713601660402,2530.4199086923654 L-1014.7292420302314,2530.3798831456534 L-1014.7927942402644,2530.340689816005 L-1014.8618921570578,2530.3024055696787 L-1014.9364002652477,2530.2651054900325 L-1015.0161724389608,2530.228862730268 L-1015.1010522283987,2530.1937483699635 L-1015.1908731666674,2530.159831275672 " />
			<path d="M-1103.3297180455377,2520.9504228770065 L-1103.4195389767417,2520.984339990008 L-1103.5044187588653,2521.0194543679922 L-1103.5841909250294,2521.055697144373 L-1103.6586990254496,2521.0929972395393 L-1103.7277969342686,2521.1312815002584 L-1103.7913491361378,2521.1704748431443 L-1103.8492309919918,2521.210500401913 L-1103.9013289834909,2521.2512796781316 L-1103.947540935655,2521.2927326951713 L-1103.9877762172491,2521.3347781550565 L-1104.0219559185307,2521.3773335979095 L-1104.0500130060075,2521.4203155636696 L-1104.0718924539042,2521.463639755776 L-1104.0875513520803,2521.5072212064906 L-1104.0969589901842,2521.5509744435385 L-1104.1000969178845,2521.5948136577363 " />
			<path d="M-1104.1000969178845,2521.5948136577363 L-1104.0989355210718,2521.621488253938 L-1104.0954521792146,2521.6481434875745 L-1104.0896494207707,2521.674760010378 L-1104.0815314577958,2521.701318502179 L-1104.0711041828856,2521.727799684931 L-1104.0583751649,2521.754184336705 L-1104.0433536434673,2521.7804533056387 L-1104.0260505222782,2521.806587523844 L-1103.9846513670159,2521.858375939335 L-1103.9342978791308,2521.909399243573 L-1103.875136232693,2521.9595093180383 L-1103.8073381714892,2522.0085606952794 L-1103.7311005104566,2522.056410981199 L-1103.6466445643387,2522.102921268417 L-1103.5542155052162,2522.147956539514 L-1103.454081650784,2522.1913860589807 L-1103.3465336854358,2522.233083752737 L-1103.2318838164192,2522.272928574122 L-1103.1104648675114,2522.310804855284 L-1102.9826293128451,2522.346602642963 " />
			<path d="M-1102.9828494422297,408.7292333543061 L-1040.2682540846774,425.36256177924804 " />
			<path d="M-1102.9826293128453,2522.346602642963 L-1040.268033955293,2538.979931067905 " />
			<path d="M-1040.2682540846777,425.3625617792481 L-1040.1465297249729,425.3932749567049 L-1040.020081606965,425.42210301710986 L-1039.8892143552453,425.44897651114036 L-1039.7542432404862,425.47383069819546 L-1039.6154934199249,425.49660570236153 L-1039.4732991540322,425.51724665665876 L-1039.3280030012497,425.53570383522026 L-1039.1799549927357,425.55193277308626 L-1039.02951178911,425.56589437332394 L-1038.8770358212278,425.5775550012154 L-1038.7228944170506,425.58688656528676 L-1038.5674589167227,425.5938665849827 L-1038.4111037779785,425.59847824482455 L-1038.2542056740426,425.60071043491973 L-1038.09714258619,425.6005577777268 L-1037.9402928931565,425.59802064101035 L-1037.7840344595909,425.5931051369549 L-1037.6287437257463,425.58582310744026 L-1037.4747948006022,425.5761920955134 L-1037.3225585606042,425.5642353031256 L-1037.172401756188,425.54998153523707 L-1037.0246861282483,425.53346513042305 L-1036.879767536671,425.5147258781495 L-1036.7379951030362,425.4938089229164 L-1036.5997103695545,425.4707646555011 L-1036.4652464762614,425.44564859156225 L-1036.3349273584533,425.4185212378977 L-1036.2090669662998,425.38944794667856 L-1036.0879685085094,425.35849875800994 L-1035.971923721874,425.3257482311981 L-1035.861212168449,425.29127526513076 L-1035.7561005620637,425.2551629082027 " />
			<path d="M-1040.268033955293,2538.9799310679045 L-1040.1463095955883,2539.010644245361 L-1040.0198614775804,2539.039472305766 L-1039.8889942258606,2539.0663457997966 L-1039.7540231111016,2539.0911999868517 L-1039.6152732905402,2539.113974991018 L-1039.4730790246476,2539.134615945315 L-1039.327782871865,2539.1530731238768 L-1039.179734863351,2539.1693020617427 L-1039.0292916597255,2539.18326366198 L-1038.8768156918431,2539.194924289872 L-1038.722674287666,2539.2042558539433 L-1038.567238787338,2539.211235873639 L-1038.4108836485939,2539.215847533481 L-1038.253985544658,2539.218079723576 L-1038.0969224568055,2539.2179270663833 L-1037.940072763772,2539.215389929667 L-1037.7838143302063,2539.210474425611 L-1037.6285235963617,2539.2031923960967 L-1037.4745746712176,2539.1935613841697 L-1037.3223384312196,2539.181604591782 L-1037.1721816268034,2539.1673508238932 L-1037.0244659988637,2539.1508344190793 L-1036.8795474072863,2539.132095166806 L-1036.7377749736515,2539.1111782115727 L-1036.5994902401699,2539.0881339441576 L-1036.4650263468768,2539.0630178802185 L-1036.3347072290687,2539.035890526554 L-1036.2088468369152,2539.006817235335 L-1036.0877483791248,2538.975868046666 L-1035.9717035924893,2538.9431175198547 L-1035.8609920390643,2538.9086445537873 L-1035.755880432679,2538.872532196859 " />
			<path d="M-1015.1910931618277,417.8312433880073 L-1035.7561005620637,425.25516290820264 " />
			<path d="M-1015.190873032443,2531.4486126766637 L-1035.755880432679,2538.872532196859 " />
			<path d="M53.14796216557077,29.120630812598392 L-1037.8386962960149,422.9640174353564 " />
			<path d="M-50.71834103800182,-31.519195256017937 L-1141.7049994995875,362.3241913667401 " />
			<path d="M50.71834103800182,-4.615894073483707 L-1040.2683174235838,389.2274925492743 " />
			<path d="M53.14796216557077,-0.9285487350924573 L-1037.8386962960149,392.91483788766556 " />
			<path d="M52.56661232908673,2178.067975404867 L-1037.286632033804,2573.824513492201 " />
			<path d="M-36.72660102599395,2136.194067518835 L-212.6458055295629,2200.0753063163666 " />
			<path d="M-301.2079406812041,2232.234722452917 L-477.1274197020685,2296.116060935443 " />
			<path d="M-502.97495949833615,2305.502033698983 L-741.6090338745738,2392.156815554519 " />
			<path d="M-829.4488504173863,2424.053937374377 L-1014.4204982824738,2491.2223743928766 " />
			<path d="M-1101.3351638494291,2522.783547726727 L-1102.391653969347,2523.1671891706965 " />
			<path d="M25.987994270429777,2153.158047029082 L-212.6458055295629,2239.812729178218 " />
			<path d="M-238.49334532583066,2249.198701941758 L-477.1274197020684,2335.8534837972943 " />
			<path d="M-502.6014812366122,2345.103836040663 L-741.6090338745739,2431.894238416371 " />
			<path d="M-765.9135414106918,2440.719892523621 L-1014.4700398499017,2530.977787199079 " />
			<path d="M-1036.9527025337013,2539.1418779119776 L-1039.629585413921,2540.113929797881 " />
			<path d="M52.64698066620452,2148.053377034607 L-1037.206263696686,2543.809915121941 " />
			<path d="M51.06540458762771,32.91538638920165 L51.065155096319316,2146.532925155217 " />
			<path d="M-36.726356358878,63.44567892811203 L-36.72660117199012,2137.4309043645435 " />
			<path d="M25.988243612375037,40.80586912677199 L25.987994163463654,2154.0642328015138 " />
			<path d="M30.500397177528676,40.339296152916624 L30.500147686220284,2153.956834918932 " />
			<path d="M-213.4161844019939,128.39255919472404 L-213.41618440199395,2242.010007949548 " />
			<path d="M-301.20794068120404,158.92285278809388 L-301.2079406812041,2232.90799287881 " />
			<path d="M-238.49334532583057,136.2830446530745 L-238.49334532583063,2249.5413213045385 " />
			<path d="M-233.9811918032025,135.81647414180063 L-233.98119180320256,2249.433922896624 " />
			<path d="M-477.89779857449946,223.86974383054417 L-477.8977985744995,2337.4871925853677 " />
			<path d="M-565.6895548537096,254.40003742391394 L-565.6895548537098,2328.275477071994 " />
			<path d="M-502.9749594983361,231.7602292888946 L-502.97495949833615,2345.018505940359 " />
			<path d="M-498.46280597570797,231.2936587776207 L-498.462805975708,2344.9111075324445 " />
			<path d="M-742.3794127470048,319.3469284663642 L-742.379412747005,2432.964377221188 " />
			<path d="M-830.171169026215,349.87722205973404 L-830.1711690262151,2423.8623621504503 " />
			<path d="M-767.4565736708415,327.2374139247147 L-767.4565736708416,2440.4956905761787 " />
			<path d="M-762.9444201482135,326.77084341344073 L-762.9444201482136,2440.3882921682643 " />
			<path d="M-1015.1910931618277,417.83124338800735 L-1015.1908730324432,2531.4486126766633 " />
			<path d="M-1102.9828494422297,408.7292333543061 L-1102.9826293128453,2522.346602642962 " />
			<path d="M-1040.2682540846777,425.36256177924804 L-1040.2680339552933,2538.979931067904 " />
			<path d="M-1035.7561005620637,425.25516290820264 L-1035.7558804326793,2538.8725321968586 " />
			<path d="M-1039.181757823421,425.32950875220854 L51.8049006381646,31.486122129450486 " />
			<path d="M-1142.7915590997502,362.3572644933075 L-51.8049006381646,-31.486122129450486 " />
			<path d="M-1038.625864364957,2576.1758106344296 L51.2273799979342,2180.4192725470953 " />
			<path d="M-1103.492020486998,2523.198812703448 L-1101.9207453742933,2522.628238268584 " />
			<path d="M-1014.420498320795,2490.854423734571 L-830.0344319422306,2423.8986279162264 " />
			<path d="M-741.6090338745738,2391.788864882298 L-566.345421183865,2328.1456900145645 " />
			<path d="M-477.1274197020685,2295.748110263222 L-301.2079406812041,2231.866771780696 " />
			<path d="M-212.6458055295629,2199.707355644145 L-36.726600982561074,2135.8261168308422 " />
			<path d="M51.835533969522054,2145.8885350850232 L51.83578346083045,32.27099631900813 " />
			<path d="M-37.8440687232415,2136.2319009735816 L-37.843824099277356,63.84908191742186 " />
			<path d="M-212.6458055295629,2241.365617502062 L-212.64580552956284,127.74816874723821 " />
			<path d="M-302.32540828614503,2232.15620402341 L-302.325408286145,159.32625572850355 " />
			<path d="M-477.1274197020685,2336.8428021378822 L-477.12741970206844,223.22535338305832 " />
			<path d="M-566.8070224586505,2327.63338865923 L-566.8070224586504,254.8034403643236 " />
			<path d="M-741.6090338745739,2432.319986773702 L-741.6090338745738,318.7025380188784 " />
			<path d="M-831.288636631156,2423.11057329505 L-831.2886366311559,350.2806250001437 " />
			<path d="M-1014.4204941600966,2530.804221895934 L-1014.4207142894811,417.1868526072778 " />
			<path d="M-1104.1000969178847,2521.5948136577354 L-1104.100316999835,408.43289259342885 " />

       </g>
    </g>
    
</svg>
