<?xml version="1.0" encoding="UTF-8" standalone="no"?>
<svg
   xmlns:svg="http://www.w3.org/2000/svg"
   xmlns="http://www.w3.org/2000/svg"
   width="480.0"
   height="480.0"

>
    <g transform="scale(0.1270021913501749, -0.1270021913501749)   translate(93.03775606336247,-504.83357892754896)" stroke-width="1.0"  fill="none">
       <!-- hidden lines -->
       <g  stroke="rgb(0,0,0)" fill="none" stroke-dasharray="1.0,1.0" >
			<path d="M14.298957199430676,67.68710427624993 L14.298957199430676,-60.890628798427315 " />
			<path d="M11.890711776368668,-64.5426697569365 L12.00887877848797,-64.51087697951776 L12.12676110594896,-64.47174151174308 L12.24407476989951,-64.42535763438218 L12.360537151447703,-64.37183709025838 L12.475867682515487,-64.31130881505031 L12.58978852175176,-64.2439186266746 L12.702025223876513,-64.16982887399774 L12.812307400843556,-64.08921804572341 L12.920369373228995,-64.00228034039762 L13.025950810276244,-63.90922519856731 L13.128797357055614,-63.81027679821985 L13.22866124722762,-63.70567351471851 L13.325301899933793,-63.59566734653543 L13.418486499377044,-63.48052330816515 L13.507990555695306,-63.360518791681535 L13.593598445777282,-63.23594289847595 L13.675103932717395,-63.10709574278668 L13.75231066265857,-62.97428772869747 L13.825032637825867,-62.83783880234686 L13.893094664611416,-62.69807768114995 L13.956332775631163,-62.55534106188932 L14.014594624736654,-62.40997280958303 L14.067739854030261,-62.26232312908364 L14.115640431999644,-62.11274772140406 L14.158180961956877,-61.96160692680264 L14.195258960039183,-61.809264856691954 L14.226785102101534,-61.65608851646248 L14.252683438906336,-61.5024469213345 L14.272891579091805,-61.34871020736809 L14.287360839478204,-61.195248739772936 L14.296056362349907,-61.04243222066612 L14.298957199430678,-60.89062879842732 " />
			<path d="M14.298957199430678,67.68710427624993 L14.296233665578644,67.83288276778237 L14.288069224222474,67.97703700143983 L14.274482342028563,68.11924092329812 L14.255503750361122,68.25917289072784 L14.231176375772714,68.39651639989873 L14.201555242911233,68.53096080166102 L14.166707350062907,68.66220200418428 L14.12671151761285,68.78994316076471 L14.081658209765894,68.91389534124521 L14.031649329930962,69.03377818552929 L13.976797990231782,69.14932053771102 L13.917228255665277,69.26026105938655 L13.853074863486293,69.36634882075987 L13.784482918453381,69.46734386820613 L13.711607564624938,69.56301776700855 L13.634613634448051,69.65315411804129 " />
			<path d="M11.890711776368668,-64.54266975693652 L-11.890711776368668,-70.19447568059952 " />
			<path d="M1714.8917131321377,423.548761996554 L1715.1049797350688,344.1319169032577 " />
			<path d="M1712.707143522141,340.46926887356113 L1712.8251952206244,340.50172687883213 L1712.9429426179966,340.541518685506 L1713.0601020504637,340.58854843163516 L1713.1763912706908,340.6427028184419 L1713.2915301277608,340.70385138326486 L1713.4052412420822,340.77184681385563 L1713.5172506736205,340.8465253032661 L1713.6272885818444,340.9277069444742 L1713.7350898757943,341.0151961637957 L1713.8403948527116,341.10878219203795 L1713.9429498236827,341.20823957226185 L1714.0425077247999,341.313328702927 L1714.1388287123593,341.4237964151128 L1714.231680740665,341.53937658242495 L1714.320840121048,341.6597907621166 L1714.4060920607515,341.7847488658819 L1714.4872311803856,341.9139498587039 L1714.5640620087042,342.0470824840741 L1714.636399453512,342.18382601383706 L1714.704069247569,342.3238510208522 L1714.7669083684136,342.46682017261287 L1714.8247654310999,342.6123890439099 L1714.8775010528962,342.76020694658195 L1714.9249881890703,342.90991777435426 L1714.967112438952,343.0611608607295 L1715.0037723215335,343.21357184786535 L1715.0348795199468,343.3667835643441 L1715.0603590942262,343.52042690972104 L1715.0801496618458,343.67413174371956 L1715.0942035455942,343.8275277779316 L1715.1024868884347,343.9802454678749 L1715.104979735069,344.13191690325783 " />
			<path d="M1714.8917131321382,423.5487619965541 L1714.8886701286474,423.69260994681025 L1714.8803238871121,423.8348472895066 L1714.8666928266277,423.9751601248881 L1714.8478070292138,424.1132388003428 L1714.8237081734271,424.2487785937662 L1714.794449442383,424.3814803860439 L1714.7600954063853,424.51105132117 L1714.7207218804297,424.6372054525424 L1714.6764157568887,424.7596643740114 L1714.6272748137512,424.878157834286 L1714.573407498839,424.992424333345 L1714.5149326904768,425.1022116995335 L1714.4519794351418,425.2072776460743 L1714.3846866626752,425.30739030576393 L1714.3132028796815,425.40232874267383 L1714.2376858417936,425.49188343972844 " />
			<path d="M1686.6255675362713,418.1773827990484 L1686.5889511846306,418.0816358195149 L1686.5545353283753,417.98495644106583 L1686.52235541519,417.88744424164213 L1686.49244458978,417.78919965697463 L1686.4648336597324,417.69032387713713 L1686.4395510637858,417.59091874232263 L1686.4166228425383,417.4910866379498 L1686.3960726116266,417.3909303892078 L1686.3779215374018,417.29055315514864 L1686.3621883151288,417.19005832243477 L1686.3488891497304,417.0895493988532 L1686.3380377390972,416.98912990670425 L1686.3296452599775,416.88890327617554 L1686.3237203564672,416.78897273881086 L1686.3202691311055,416.6894412211836 L1686.3192951385893,416.59041123888426 " />
			<path d="M1686.3192951385895,416.5904112388843 L1686.5325617415206,337.17356614558804 " />
			<path d="M1686.53256174152,337.17356614558804 L1686.5344456230368,337.06232638348826 L1686.5394952667696,336.9520046712889 L1686.5477040235726,336.8427462756919 L1686.5590610845218,336.7346950632717 L1686.5735514951468,336.62799331103776 L1686.5911561751223,336.5227815190905 L1686.611851943392,336.4191982256174 L1686.6356115486926,336.31737982447174 L1686.6624037054378,336.21746038557563 L1686.6921931349123,336.1195714783823 L1686.7249406117262,336.02384199863167 L1686.7606030154648,335.93039799862606 L1686.7991333874681,335.8393625212502 L1686.840480992664,335.7508554379537 L1686.8845913863724,335.66499329090993 L1686.9314064859982,335.58188913955826 L1686.980864647509,335.50165241173266 L1687.0329007466075,335.42438875957174 L1687.087446264483,335.35019992040105 L1687.1444293780346,335.27918358276963 L1687.2037750544437,335.2114332578184 L1687.265405149975,335.1470381561484 L1687.329238512872,335.0860830703529 L1687.395191090214,335.0286482633657 L1687.4631760385935,334.97480936277475 L1687.5331038384677,334.9246372612392 L1687.6048824120337,334.8781980231409 L1687.6784172444727,334.835552797594 L1687.753611508402,334.7967577379263 L1687.8303661913742,334.76186392773934 L1687.908580226252,334.7309173136435 L1687.9881506242882,334.7039586447577 " />
			<path d="M1687.9881506242882,334.7039586447577 L1688.0450346410005,334.6873612900851 L1688.102504113886,334.67277665964616 L1688.1605213919834,334.66021430852 L1688.219048465438,334.64968246689506 L1688.2780469904044,334.6411880346775 L1688.3374783141671,334.6347365769703 L1688.3973035004635,334.63033232042767 L1688.4574833549934,334.62797815048566 L1688.5179784510965,334.6276756094721 L1688.5787491555827,334.6294248955958 L1688.6397556546983,334.633224862817 L1688.700957980209,334.6390730215979 L1688.7623160355859,334.646965540534 L1688.8237896222734,334.656897248864 L1688.9469222432951,334.6828508750778 " />
			<path d="M1712.7071435221408,340.4692688735611 L1688.9469222432951,334.68285087507775 " />
			<path d="M14.298985360600062,18.604279320589633 L14.298985383961616,-60.890636493051296 " />
			<path d="M1687.0514570457913,416.1443601634649 L1687.051457069153,336.649444349824 " />
			<path d="M16.40619971482231,-64.62443966032404 L16.30280360834089,-64.5886350014836 L16.19965659213423,-64.54549731726043 L16.097007156398988,-64.49513053011427 L15.995102592616874,-64.43765597804692 L15.894188397807829,-64.37321212228854 L15.794507683106188,-64.30195421373223 L15.696300588084663,-64.22405391892117 L15.59980370223709,-64.13969890648883 L15.5052494950136,-64.04909239504877 L15.412865755781372,-63.95245266362325 L15.32287504506007,-63.85001252578991 L15.23549415835408,-63.74201876881349 L15.150933603873137,-63.628731559113675 L15.069397095399616,-63.51042381550143 L14.991081061524184,-63.38738055169365 L14.916174172432124,-63.25989818969017 L14.844856885380322,-63.12828384566718 L14.777301009959949,-62.992854590107484 L14.713669294192083,-62.85393668394994 L14.65411503245349,-62.71186479259825 L14.598781696177038,-62.566981179682706 L14.547802588216443,-62.41963488251712 L14.501300521708025,-62.27018087123739 L14.459387524203102,-62.118979193647306 L14.422164567783808,-61.96639410783188 L14.389721325812506,-61.812793204627724 L14.362135956900794,-61.65854652206451 L14.339474916618574,-61.50402565391094 L14.321792797396759,-61.34960285447283 L14.309132197009326,-61.19565014179985 L14.301523615951544,-61.04253840146152 L14.298985383961615,-60.89063649305131 " />
			<path d="M1689.1586714000139,332.91564118255127 L1689.0552752935325,332.9514458413917 L1688.952128277326,332.9945835256149 L1688.8494788415906,333.0449503127611 L1688.7475742778086,333.10242486482844 L1688.6466600829995,333.1668687205868 L1688.5469793682978,333.2381266291431 L1688.4487722732763,333.31602692395415 L1688.3522753874288,333.4003819363865 L1688.2577211802052,333.49098844782657 L1688.165337440973,333.5876281792521 L1688.0753467302518,333.69006831708543 L1687.9879658435457,333.7980620740619 L1687.9034052890647,333.91134928376164 L1687.8218687805913,334.0296570273739 L1687.7435527467157,334.1527002911817 L1687.6686458576237,334.2801826531852 L1687.597328570572,334.41179699720817 L1687.5297726951517,334.54722625276787 L1687.4661409793837,334.6861441589254 L1687.406586717645,334.8282160502771 L1687.3512533813687,334.9730996631926 L1687.3002742734081,335.1204459603582 L1687.2537722068996,335.2698999716379 L1687.2118592093948,335.42110164922804 L1687.1746362529755,335.57368673504345 L1687.142193011004,335.7272876382476 L1687.1146076420926,335.88153432081083 L1687.0919466018102,336.0360551889644 L1687.0742644825884,336.1904779884025 L1687.061603882201,336.34443070107545 L1687.0539953011432,336.4975424414138 L1687.0514570691532,336.649444349824 " />
			<path d="M14.29898536060006,18.60427932058963 L14.300496659935506,18.72042865855762 L14.305028390195085,18.83547315135933 L14.312574051042322,18.949247778600785 L14.323122818943682,19.061589341389503 L14.336659562693901,19.172336696427788 L14.353164865120265,19.2813309871575 L14.37261505093469,19.388415871624666 L14.394982220693688,19.49343774673719 L14.42023429081745,19.59624596859387 L14.448335039610715,19.696693068568777 L14.479244159219327,19.794634964840967 L14.512917313448034,19.889931169066188 L14.549306201356552,19.98244498789404 L14.588358626542663,20.07204371904162 L14.630018572013002,20.158598841642306 L14.674226280534112,20.241986200596763 L14.720918340348511,20.322086184661618 L14.770027776132842,20.398783898020426 L14.8214841450676,20.471969325090807 L14.875213637880677,20.541537488331336 L14.931139184719733,20.607388598821863 L14.989180565701597,20.669428199401228 L15.049254525980047,20.72756730015709 L15.111274895166986,20.7817225060735 L15.175152710935683,20.831816136653124 L15.240796346628763,20.877776337342546 L15.308111642687955,20.919537182600777 L15.377002041717018,20.9570387704632 L15.447368726984166,20.99022730846524 L15.519110764165271,21.01905519080254 L15.592125246124564,21.04348106661697 L15.666307440525133,21.06346989931049 " />
			<path d="M15.666307440525141,21.063469899310494 L15.755505572712028,21.08136141194359 L15.84601215709717,21.092956574211644 L15.937645197968534,21.098232069912555 L16.030220434472245,21.09717729078392 L16.12355171113466,21.089794357834723 L16.21745135219421,21.07609811708029 L16.31173053899034,21.05611610968909 L16.406199689650652,21.029888516601417 " />
			<path d="M1687.0514570457917,416.1443601634649 L1687.0529683451273,416.2605095014329 L1687.0575000753868,416.3755539942346 L1687.065045736234,416.4893286214761 L1687.0755945041353,416.6016701842648 L1687.0891312478857,416.7124175393031 L1687.105636550312,416.8214118300328 L1687.1250867361264,416.92849671449994 L1687.1474539058854,417.03351858961247 L1687.1727059760092,417.13632681146913 L1687.2008067248025,417.23677391144406 L1687.231715844411,417.33471580771624 L1687.2653889986398,417.43001201194147 L1687.3017778865483,417.5225258307693 L1687.3408303117344,417.6121245619169 L1687.3824902572046,417.6986796845176 L1687.426697965726,417.78206704347207 L1687.4733900255403,417.8621670275369 L1687.5224994613245,417.9388647408957 L1687.5739558302594,418.0120501679661 L1687.6276853230725,418.08161833120664 L1687.6836108699115,418.1474694416971 L1687.7416522508934,418.2095090422765 L1687.8017262111719,418.2676481430324 L1687.8637465803588,418.3218033489488 L1687.9276243961274,418.3718969795284 L1687.9932680318204,418.4178571802178 L1688.0605833278796,418.45961802547606 L1688.1294737269088,418.4971196133385 L1688.199840412176,418.53030815134053 L1688.271582449357,418.5591360336778 L1688.3445969313163,418.58356190949223 L1688.4187791257168,418.6035507421858 " />
			<path d="M16.406199689650663,21.029888516601417 L37.21494119796269,14.570680783500443 " />
			<path d="M37.21494119796269,14.570680783500444 L37.31833730444411,14.534876124659993 L37.42148432065077,14.491738440436826 L37.524133756386014,14.441371653290656 L37.62603832016813,14.383897101223322 L37.72695251497717,14.319453245464935 L37.82663322967881,14.248195336908628 L37.924840324700334,14.170295042097571 L38.02133721054791,14.085940029665226 L38.1158914177714,13.995333518225165 L38.20827515700363,13.898693786799642 L38.29826586772493,13.796253648966303 L38.38564675443092,13.688259891989883 L38.47020730891186,13.574972682290072 L38.551743817385386,13.45666493867783 L38.63005985126081,13.33362167487005 L38.70496674035287,13.206139312866565 L38.77628402740468,13.074524968843573 L38.84383990282505,12.939095713283882 L38.907471618592915,12.800177807126339 L38.967025880331505,12.658105915774645 L39.02235921660796,12.513222302859097 L39.07333832456855,12.365876005693515 L39.11984039107698,12.216421994413784 L39.1617533885819,12.065220316823698 L39.19897634500119,11.912635231008275 L39.23141958697249,11.759034327804121 L39.25900495588421,11.604787645240906 L39.281665996166424,11.450266777087336 L39.29934811538824,11.295843977649222 L39.312008715775676,11.141891264976252 L39.31961729683346,10.98877952463792 L39.32215552882338,10.83687761622773 " />
			<path d="M1709.9674128831543,412.11076162637573 L1710.0708089896357,412.0749569675353 L1710.1739560058422,412.0318192833121 L1710.2766054415777,411.9814524961659 L1710.3785100053597,411.92397794409857 L1710.4794242001688,411.8595340883402 L1710.5791049148704,411.7882761797839 L1710.677312009892,411.71037588497285 L1710.7738088957394,411.6260208725405 L1710.868363102963,411.53541436110044 L1710.9607468421952,411.4387746296749 L1711.0507375529164,411.33633449184157 L1711.1381184396225,411.2283407348651 L1711.2226789941035,411.11505352516537 L1711.3042155025769,410.9967457815531 L1711.3825315364525,410.8737025177453 L1711.4574384255445,410.7462201557418 L1711.5287557125962,410.61460581171883 L1711.5963115880165,410.47917655615913 L1711.6599433037845,410.3402586500016 L1711.7194975655232,410.1981867586499 L1711.7748309017995,410.0533031457344 L1711.82581000976,409.9059568485688 L1711.8723120762686,409.7565028372891 L1711.9142250737734,409.60530115969897 L1711.9514480301928,409.45271607388355 L1711.983891272164,409.2991151706794 L1712.0114766410757,409.1448684881162 L1712.034137681358,408.9903476199626 L1712.0518198005798,408.8359248205245 L1712.064480400967,408.68197210785155 L1712.072088982025,408.5288603675132 L1712.074627214015,408.376958459103 " />
			<path d="M39.32215552882339,10.836877616227703 L39.32215555218494,-68.65803819741322 " />
			<path d="M1712.074627214015,408.376958459103 L1712.0746272373767,328.8820426454621 " />
			<path d="M39.32215555218494,-68.65803819741322 L39.3206442528495,-68.77418753538122 L39.31611252258992,-68.88923202818292 L39.308566861742676,-69.00300665542439 L39.29801809384132,-69.1153482182131 L39.2844813500911,-69.22609557325138 L39.26797604766474,-69.3350898639811 L39.24852586185031,-69.44217474844827 L39.22615869209132,-69.54719662356078 L39.20090662196755,-69.65000484541747 L39.17280587317428,-69.75045194539237 L39.141896753565675,-69.84839384166456 L39.10822359933697,-69.94369004588978 L39.07183471142845,-70.03620386471763 L39.03278228624234,-70.12580259586521 L38.991122340772,-70.2123577184659 L38.94691463225089,-70.29574507742036 L38.90022257243649,-70.37584506148521 L38.85111313665216,-70.45254277484402 L38.7996567677174,-70.5257282019144 L38.745927274904325,-70.59529636515494 L38.69000172806527,-70.66114747564546 L38.63196034708341,-70.72318707622482 L38.571886386804955,-70.78132617698068 L38.509866017618016,-70.83548138289709 L38.44598820184932,-70.88557501347672 L38.38034456615624,-70.93153521416613 L38.31302927009705,-70.97329605942437 L38.24413887106798,-71.0107976472868 L38.173772185800836,-71.04398618528883 L38.10203014861973,-71.07281406762614 L38.029015666660435,-71.09723994344056 L37.95483347225988,-71.11722877613408 " />
			<path d="M37.954833472259864,-71.11722877613408 L37.86563534007298,-71.13512028876718 L37.77512875568783,-71.14671545103523 L37.683495714816466,-71.15199094673615 L37.59092047831275,-71.15093616760751 L37.49758920165034,-71.14355323465831 L37.40368956059079,-71.12985699390389 L37.30941037379466,-71.10987498651268 L37.21494122313434,-71.08364739342501 " />
			<path d="M16.406199714822307,-64.62443966032404 L37.21494122313433,-71.08364739342503 " />
			<path d="M1689.1586714000139,332.91564118255116 L1709.9674129083257,326.45643344945023 " />
			<path d="M281.9152298371964,-64.4660177778633 L281.9152298371964,-143.96093358600956 " />
			<path d="M1954.6674491621736,333.0741412894083 L1954.6674491621736,253.57922548126203 " />
			<path d="M284.02244458237567,-147.69473665553014 L283.9190484555213,-147.65893200147596 L283.8159014189929,-147.61579432202805 L283.71325196303616,-147.56542753963464 L283.6113473791815,-147.50795299228608 L283.5104331644972,-147.4435091412011 L283.4107524301655,-147.37225123726165 L283.3125453158063,-147.29435094699969 L283.2160484109601,-147.20999593903778 L283.12149418512286,-147.1193894319787 L283.02911042770654,-147.02274970483415 L282.9391196992746,-146.9203095711715 L282.8517387953741,-146.81231581824537 L282.7671782242562,-146.69902861246572 L282.6856416997433,-146.5807208726341 L282.6073256504649,-146.45767761245827 L282.53241874664315,-146.33019525392928 L282.46110144557053,-146.198580913215 L282.393545556872,-146.06315166079028 L282.32991382860064,-145.92423375758636 L282.2703595551633,-145.78216186899988 L282.21502620802096,-145.63727825865445 L282.16404709005366,-145.48993196385769 L282.11754501442175,-145.34047795473978 L282.07563200869856,-145.18927627909935 L282.038409044986,-145.03669119501666 L282.005965796664,-144.88309029332416 L281.9783804223594,-144.72884361204788 L281.9557193776552,-144.57432274495346 L281.93803725499293,-144.41989994634412 L281.92537665215485,-144.26594723426754 L281.9177680696421,-144.11283549429183 L281.9152298371964,-143.96093358600953 " />
			<path d="M1956.774663907353,249.84542241174148 L1956.6712677804985,249.88122706579566 L1956.5681207439702,249.92436474524357 L1956.4654712880135,249.97473152763698 L1956.3635667041588,250.03220607498554 L1956.2626524894745,250.0966499260705 L1956.1629717551427,250.16790783000997 L1956.0647646407836,250.24580812027193 L1955.9682677359374,250.33016312823383 L1955.8737135101003,250.4207696352929 L1955.7813297526839,250.51740936243746 L1955.6913390242519,250.61984949610013 L1955.6039581203513,250.72784324902625 L1955.5193975492334,250.8411304548059 L1955.4378610247206,250.95943819463753 L1955.359544975442,251.08248145481335 L1955.2846380716205,251.20996381334234 L1955.2133207705479,251.3415781540566 L1955.1457648818493,251.47700740648133 L1955.0821331535778,251.61592530968525 L1955.0225788801406,251.75799719827174 L1954.9672455329983,251.90288080861717 L1954.916266415031,252.05022710341393 L1954.8697643393991,252.19968111253183 L1954.8278513336759,252.35088278817227 L1954.7906283699633,252.50346787225496 L1954.7581851216412,252.65706877394746 L1954.7305997473368,252.81131545522373 L1954.7079387026324,252.96583632231815 L1954.6902565799703,253.1202591209275 L1954.6775959771321,253.27421183300407 L1954.6699873946195,253.4273235729798 L1954.6674491621736,253.57922548126209 " />
			<path d="M281.9152298371964,-64.46601777786329 L281.9167411367394,-64.34986844459667 L281.92127286755306,-64.23482395625865 L281.92881852930054,-64.12104933322321 L281.93936729844796,-64.00870777436337 L281.9529040437895,-63.8979604229579 L281.96940934815177,-63.788966135546644 L281.9888595362459,-63.681881254065935 L282.01122670862736,-63.576859381590936 L282.0364787817153,-63.474051162006646 L282.0645795338131,-63.373604063923594 L282.0954886570653,-63.27566216914814 L282.1291618152749,-63.18036596601081 L282.1655507075001,-63.08785214784918 L282.2046031373366,-62.99825341693429 L282.2462630877891,-62.911698294121805 L282.2904708016219,-62.82831093450116 L282.33716286707505,-62.74821094930682 L282.3862723088227,-62.67151323434738 L282.4377286840426,-62.598327805198466 L282.49145818345966,-62.52875963939583 L282.5473837372184,-62.46290852585508 L282.60542512543236,-62.40086892173396 L282.66549909325187,-62.34272981694256 L282.727519470285,-62.28857460649576 L282.7913972942012,-62.23848097089098 L282.85704093833886,-62.19252076468294 L282.9243562431354,-62.150759913415094 L282.99324665119,-62.11325831905576 L283.06361334576604,-62.080069774074396 L283.13535539253445,-62.051241884281445 L283.20836988435406,-62.026816000542325 L283.28255208888254,-62.00682715946356 " />
			<path d="M283.28255208888254,-62.00682715946356 L283.37175024961107,-61.98893563365977 L283.4622568633342,-61.97734045988341 L283.55388993423014,-61.972064954366196 L283.6464652013335,-61.97311972539324 L283.73979650905727,-61.98050265197125 L283.8336961815251,-61.994198888093585 L283.92797539996087,-62.014180892593416 L284.02244458237567,-62.04040848452509 " />
			<path d="M1954.6674491621736,333.0741412894083 L1954.6689604617168,333.1902906226749 L1954.6734921925304,333.30533511101294 L1954.6810378542777,333.4191097340484 L1954.6915866234253,333.53145129290823 L1954.7051233687669,333.6421986443137 L1954.721628673129,333.751192931725 L1954.7410788612233,333.8582778132057 L1954.7634460336046,333.9632996856807 L1954.7886981066927,334.06610790526497 L1954.8167988587904,334.166555003348 L1954.8477079820425,334.26449689812347 L1954.8813811402522,334.3597931012608 L1954.9177700324774,334.4523069194224 L1954.956822462314,334.5419056503373 L1954.9984824127664,334.6284607731498 L1955.0426901265992,334.71184813277046 L1955.0893821920524,334.7919481179648 L1955.1384916338,334.86864583292424 L1955.1899480090199,334.94183126207315 L1955.243677508437,335.01139942787574 L1955.2996030621957,335.0772505414165 L1955.3576444504097,335.13929014553764 L1955.4177184182292,335.19742925032904 L1955.4797387952624,335.25158446077586 L1955.5436166191785,335.3016780963806 L1955.6092602633162,335.3476383025887 L1955.6765755681126,335.3893991538565 L1955.7454659761672,335.4269007482158 L1955.8158326707435,335.4600892931972 L1955.8875747175118,335.4889171829902 L1955.9605892093314,335.51334306672925 L1956.0347714138597,335.533331907808 " />
			<path d="M284.02244458237567,-62.04040848452509 L304.8311901910208,-68.49961525442568 " />
			<path d="M304.8311901910209,-68.49961525442569 L304.93458631787524,-68.53541990847987 L305.03773335440366,-68.57855758792776 L305.1403828103604,-68.6289243703212 L305.24228739421505,-68.68639891766976 L305.34320160889934,-68.75084276875472 L305.4428823432311,-68.82210067269419 L305.54108945759026,-68.90000096295613 L305.6375863624364,-68.98435597091805 L305.7321405882737,-69.07496247797712 L305.82452434569,-69.17160220512167 L305.91451507412194,-69.27404233878434 L306.00189597802245,-69.38203609171046 L306.08645654914034,-69.4953232974901 L306.16799307365324,-69.61363103732172 L306.2463091229317,-69.73667429749757 L306.3212160267534,-69.86415665602654 L306.392533327826,-69.99577099674082 L306.4600892165245,-70.13120024916554 L306.5237209447959,-70.27011815236946 L306.58327521823327,-70.41219004095595 L306.6386085653756,-70.55707365130138 L306.6895876833429,-70.70441994609814 L306.7360897589748,-70.85387395521605 L306.778002764698,-71.0050756308565 L306.81522572841055,-71.15766071493918 L306.84766897673256,-71.31126161663167 L306.87525435103714,-71.46550829790795 L306.89791539574134,-71.62002916500238 L306.9155975184036,-71.77445196361172 L306.9282581212417,-71.92840467568828 L306.93586670375447,-72.08151641566401 L306.93840493620013,-72.23341832394627 " />
			<path d="M1979.6905629718308,325.33024848104634 L1979.6906242611774,325.3067407433254 " />
			<path d="M306.93840493620013,-72.23341832394628 L306.93840493620013,-151.72833413209253 " />
			<path d="M1979.6906242611774,325.30674074332535 L1979.6906242611774,245.81182493517906 " />
			<path d="M306.93840493620013,-151.72833413209256 L306.93689363665715,-151.84448346535916 L306.9323619058435,-151.95952795369718 L306.924816244096,-152.07330257673263 L306.9142674749486,-152.18564413559247 L306.90073072960706,-152.29639148699795 L306.8842254252448,-152.40538577440918 L306.86477523715064,-152.5124706558899 L306.8424080647692,-152.6174925283649 L306.81715599168126,-152.72030074794918 L306.78905523958343,-152.82074784603225 L306.75814611633126,-152.9186897408077 L306.7244729581216,-153.01398594394502 L306.6880840658965,-153.10649976210667 L306.64903163605993,-153.19609849302154 L306.60737168560746,-153.28265361583402 L306.56316397177466,-153.36604097545467 L306.5164719063215,-153.44614096064902 L306.46736246457385,-153.52283867560845 L306.41590608935394,-153.59602410475736 L306.3621765899369,-153.66559227056 L306.30625103617814,-153.73144338410077 L306.2482096479642,-153.79348298822188 L306.1881356801447,-153.85162209301328 L306.12611530311153,-153.90577730346007 L306.06223747919535,-153.95587093906485 L305.9965938350577,-154.00183114527292 L305.9292785302612,-154.04359199654075 L305.86038812220653,-154.08109359090008 L305.7900214276305,-154.11428213588144 L305.7182793808621,-154.1431100256744 L305.6452648890425,-154.16753590941352 L305.57108268451407,-154.1875247504923 " />
			<path d="M305.571082684514,-154.1875247504923 L305.4818845237855,-154.20541627629606 L305.3913779100624,-154.21701145007245 L305.2997448391664,-154.22228695558965 L305.20716957206304,-154.2212321845626 L305.1138382643393,-154.21384925798458 L305.01993859187144,-154.20015302186226 L304.9256593734357,-154.18017101736243 L304.8311901910209,-154.15394342543075 " />
			<path d="M284.02244458237567,-147.69473665553014 L304.8311901910208,-154.15394342543075 " />
			<path d="M1956.774663907353,249.84542241174148 L1977.583409515998,243.38621564184086 " />
			<path d="M549.5315024749622,-147.53632256544557 L549.5315024749622,-227.0312383735918 " />
			<path d="M2222.2837217999395,250.00383650182607 L2222.2837217999395,170.50892069367978 " />
			<path d="M551.6387172201414,-230.76504144311244 L551.535321093287,-230.72923678905826 L551.4321740567586,-230.68609910961035 L551.329524600802,-230.63573232721694 L551.2276200169473,-230.57825777986838 L551.1267058022629,-230.5138139287834 L551.0270250679312,-230.44255602484395 L550.9288179535721,-230.364655734582 L550.8323210487259,-230.28030072662008 L550.7377668228886,-230.189694219561 L550.6453830654723,-230.09305449241646 L550.5553923370403,-229.9906143587538 L550.4680114331398,-229.88262060582767 L550.383450862022,-229.76933340004803 L550.3019143375091,-229.6510256602164 L550.2235982882306,-229.52798240004057 L550.1486913844088,-229.40050004151158 L550.0773740833363,-229.2688857007973 L550.0098181946378,-229.13345644837258 L549.9461864663664,-228.99453854516867 L549.886632192929,-228.85246665658218 L549.8312988457867,-228.70758304623675 L549.7803197278195,-228.56023675144 L549.7338176521876,-228.41078274232208 L549.6919046464643,-228.25958106668165 L549.6546816827517,-228.10699598259896 L549.6222384344297,-227.95339508090646 L549.5946530601252,-227.79914839963018 L549.571992015421,-227.64462753253576 L549.5543098927586,-227.49020473392642 L549.5416492899205,-227.33625202184984 L549.5340407074078,-227.18314028187413 L549.5315024749622,-227.03123837359183 " />
			<path d="M2224.3909365451186,166.77511762415918 L2224.287540418264,166.81092227821335 L2224.184393381736,166.85405995766126 L2224.081743925779,166.90442674005467 L2223.9798393419246,166.96190128740324 L2223.87892512724,167.0263451384882 L2223.7792443929084,167.09760304242766 L2223.6810372785494,167.17550333268963 L2223.584540373703,167.25985834065153 L2223.4899861478657,167.3504648477106 L2223.3976023904493,167.44710457485516 L2223.3076116620177,167.54954470851783 L2223.220230758117,167.65753846144395 L2223.135670186999,167.7708256672236 L2223.0541336624865,167.88913340705523 L2222.9758176132077,168.01217666723105 L2222.900910709386,168.13965902576004 L2222.8295934083135,168.2712733664743 L2222.7620375196148,168.40670261889903 L2222.6984057913437,168.54562052210295 L2222.638851517906,168.68769241068944 L2222.583518170764,168.83257602103487 L2222.5325390527964,168.97992231583163 L2222.4860369771645,169.12937632494953 L2222.4441239714415,169.28057800058997 L2222.4069010077287,169.43316308467266 L2222.374457759407,169.58676398636516 L2222.3468723851024,169.74101066764143 L2222.324211340398,169.89553153473585 L2222.3065292177357,170.0499543333452 L2222.2938686148977,170.20390704542177 L2222.286260032385,170.35701878539749 L2222.2837217999395,170.50892069367978 " />
			<path d="M549.5315024749622,-147.53632256544554 L549.5330137745052,-147.42017323217894 L549.5375455053188,-147.30512874384092 L549.5450911670663,-147.19135412080547 L549.5556399362137,-147.07901256194563 L549.5691766815553,-146.96826521054015 L549.5856819859175,-146.85927092312892 L549.6051321740117,-146.7521860416482 L549.6274993463932,-146.64716416917318 L549.6527514194811,-146.5443559495889 L549.6808521715789,-146.44390885150585 L549.711761294831,-146.3459669567304 L549.7454344530407,-146.25067075359306 L549.7818233452658,-146.15815693543144 L549.8208757751024,-146.06855820451653 L549.8625357255548,-145.98200308170408 L549.9067434393876,-145.8986157220834 L549.9534355048409,-145.81851573688908 L550.0025449465885,-145.74181802192965 L550.0540013218083,-145.66863259278074 L550.1077308212253,-145.5990644269781 L550.1636563749842,-145.53321331343733 L550.2216977631981,-145.47117370931622 L550.2817717310176,-145.41303460452482 L550.3437921080507,-145.35887939407803 L550.4076699319669,-145.30878575847325 L550.4733135761046,-145.26282555226518 L550.5406288809012,-145.22106470099735 L550.6095192889558,-145.18356310663802 L550.6798859835318,-145.15037456165666 L550.7516280303001,-145.1215466718637 L550.8246425221198,-145.09712078812458 L550.8988247266483,-145.0771319470458 " />
			<path d="M550.8988247266483,-145.0771319470458 L550.9880228873768,-145.05924042124204 L551.0785295010999,-145.04764524746565 L551.1701625719959,-145.04236974194845 L551.2627378390993,-145.0434245129755 L551.356069146823,-145.05080743955352 L551.4499688192909,-145.06450367567584 L551.5442480377266,-145.08448568017567 L551.6387172201414,-145.11071327210735 " />
			<path d="M2222.2837217999395,250.00383650182607 L2222.2867174672338,250.16706470326136 L2222.2956959516914,250.3279690465847 L2222.3106317252523,250.48609204080716 L2222.3314823218043,250.6409841030057 L2222.358188457926,250.79220483659907 L2222.3906742014433,250.9393242835045 L2222.4288471873238,251.0819241466154 L2222.4725988802925,251.21959897912376 L2222.5218048834263,251.35195733730606 L2222.5763252918437,251.4786228934951 L2222.6360050904905,251.59923550607272 L2222.7006745948847,251.713452243442 L2222.7701499335726,251.82094835906693 L2222.8442335709206,251.9214182148073 L2222.882938172853,251.96892822326515 L2222.9227148687582,252.01457614992387 L2222.9635353798553,252.0583295419188 L2223.0053706852746,252.10015729328273 " />
			<path d="M551.6387172201414,-145.11071327210735 L572.4474628287867,-151.56992004200796 " />
			<path d="M572.4474628287866,-151.5699200420079 L572.5508589556409,-151.60572469606208 L572.6540059921693,-151.64886237551 L572.756655448126,-151.6992291579034 L572.8585600319807,-151.75670370525197 L572.9594742466651,-151.82114755633694 L573.0591549809968,-151.8924054602764 L573.1573620953559,-151.97030575053836 L573.253859000202,-152.05466075850026 L573.3484132260394,-152.14526726555934 L573.4407969834557,-152.2419069927039 L573.5307877118877,-152.34434712636656 L573.6181686157881,-152.45234087929268 L573.702729186906,-152.56562808507232 L573.7842657114189,-152.68393582490395 L573.8625817606974,-152.80697908507977 L573.9374886645192,-152.93446144360877 L574.0088059655917,-153.06607578432303 L574.0763618542902,-153.20150503674776 L574.1399935825616,-153.34042293995168 L574.199547855999,-153.48249482853817 L574.2548812031413,-153.6273784388836 L574.3058603211085,-153.77472473368036 L574.3523623967404,-153.92417874279826 L574.3942754024637,-154.0753804184387 L574.4314983661762,-154.22796550252139 L574.4639416144983,-154.38156640421388 L574.4915269888028,-154.53581308549016 L574.514188033507,-154.69033395258458 L574.5318701561694,-154.84475675119393 L574.5445307590074,-154.9987094632705 L574.5521393415202,-155.15182120324621 L574.5546775739658,-155.30372311152848 " />
			<path d="M574.5546775739658,-155.30372311152854 L574.5546775739658,-234.79863891967477 " />
			<path d="M2247.306896898943,242.2364359557431 L2247.306896898943,242.0817750663747 " />
			<path d="M574.5546775739658,-234.7986389196748 L574.5531662744228,-234.9147882529414 L574.5486345436092,-235.02983274127942 L574.5410888818617,-235.14360736431487 L574.5305401127143,-235.2559489231747 L574.5170033673727,-235.3666962745802 L574.5004980630105,-235.47569056199143 L574.4810478749164,-235.58277544347214 L574.4586807025348,-235.68779731594714 L574.4334286294469,-235.79060553553143 L574.4053278773491,-235.8910526336145 L574.374418754097,-235.98899452838995 L574.3407455958873,-236.08429073152726 L574.3043567036622,-236.1768045496889 L574.2653042738256,-236.26640328060378 L574.2236443233732,-236.35295840341627 L574.1794366095404,-236.4363457630369 L574.1327445440871,-236.51644574823126 L574.0836351023395,-236.5931434631907 L574.0321787271197,-236.6663288923396 L573.9784492277026,-236.73589705814226 L573.9225236739438,-236.80174817168302 L573.8644822857299,-236.86378777580413 L573.8044083179104,-236.92192688059552 L573.7423879408773,-236.97608209104231 L573.6785101169611,-237.0261757266471 L573.6128664728234,-237.07213593285516 L573.5455511680268,-237.113896784123 L573.4766607599722,-237.15139837848233 L573.4062940653962,-237.18458692346368 L573.3345520186278,-237.21341481325663 L573.2615375268082,-237.23784069699576 L573.1873553222797,-237.25782953807453 " />
			<path d="M573.1873553222797,-237.25782953807453 L573.0981571615512,-237.2757210638783 L573.0076505478281,-237.2873162376547 L572.9160174769321,-237.2925917431719 L572.8234422098287,-237.29153697214485 L572.730110902105,-237.28415404556682 L572.6362112296371,-237.2704578094445 L572.5419320112014,-237.25047580494467 L572.4474628287866,-237.224248213013 " />
			<path d="M551.6387172201414,-230.7650414431124 L572.4474628287867,-237.22424821301303 " />
			<path d="M2224.3909365451186,166.7751176241592 L2245.1996821537637,160.3159108542586 " />
			<path d="M817.1477751127277,-230.60662735302776 L817.1477751127277,-310.10154316117405 " />
			<path d="M2489.8999944377047,166.93353171424383 L2489.8999944377047,87.43861590609755 " />
			<path d="M819.254989857907,-313.8353462306946 L819.1515937310527,-313.7995415766404 L819.0484466945243,-313.7564038971925 L818.9457972385676,-313.7060371147991 L818.8438926547129,-313.64856256745054 L818.7429784400285,-313.5841187163656 L818.6432977056968,-313.5128608124261 L818.5450905913377,-313.43496052216415 L818.4485936864916,-313.35060551420224 L818.3540394606542,-313.25999900714316 L818.2616557032379,-313.16335927999864 L818.1716649748059,-313.06091914633595 L818.0842840709055,-312.9529253934098 L817.9997234997876,-312.8396381876302 L817.9181869752747,-312.72133044779855 L817.8398709259963,-312.5982871876227 L817.7649640221745,-312.47080482909377 L817.6936467211019,-312.3391904883795 L817.6260908324034,-312.20376123595474 L817.562459104132,-312.06484333275085 L817.5029048306947,-311.92277144416437 L817.4475714835523,-311.7778878338189 L817.3965923655851,-311.63054153902215 L817.3500902899532,-311.48108752990424 L817.3081772842299,-311.3298858542638 L817.2709543205174,-311.1773007701811 L817.2385110721954,-311.0236998684886 L817.2109256978908,-310.86945318721234 L817.1882646531866,-310.7149323201179 L817.1705825305243,-310.56050952150855 L817.1579219276862,-310.406556809432 L817.1503133451735,-310.2534450694563 L817.1477751127278,-310.101543161174 " />
			<path d="M2492.0072091828843,83.70481283657699 L2491.90381305603,83.74061749063117 L2491.8006660195015,83.78375517007906 L2491.6980165635446,83.8341219524725 L2491.5961119796902,83.89159649982106 L2491.4951977650057,83.95604035090602 L2491.395517030674,84.02729825484549 L2491.297309916315,84.10519854510743 L2491.2008130114687,84.18955355306935 L2491.1062587856313,84.28016006012842 L2491.013875028215,84.37679978727297 L2490.9238842997834,84.47923992093564 L2490.8365033958826,84.58723367386176 L2490.7519428247647,84.7005208796414 L2490.670406300252,84.81882861947302 L2490.5920902509733,84.94187187964887 L2490.517183347152,85.06935423817784 L2490.445866046079,85.20096857889212 L2490.3783101573804,85.33639783131684 L2490.3146784291093,85.47531573452076 L2490.2551241556716,85.61738762310725 L2490.1997908085295,85.76227123345268 L2490.148811690562,85.90961752824944 L2490.10230961493,86.05907153736733 L2490.060396609207,86.2102732130078 L2490.0231736454944,86.36285829709048 L2489.9907303971727,86.51645919878297 L2489.963145022868,86.67070588005924 L2489.9404839781637,86.82522674715368 L2489.9228018555013,86.97964954576302 L2489.9101412526634,87.13360225783958 L2489.902532670151,87.28671399781531 L2489.899994437705,87.43861590609758 " />
			<path d="M817.1477751127278,-230.6066273530278 L817.1492864122708,-230.49047801976118 L817.1538181430844,-230.37543353142317 L817.1613638048319,-230.26165890838772 L817.1719125739793,-230.14931734952788 L817.1854493193209,-230.0385699981224 L817.2019546236832,-229.92957571071116 L817.2214048117773,-229.82249082923045 L817.2437719841588,-229.71746895675543 L817.2690240572467,-229.61466073717114 L817.2971248093445,-229.5142136390881 L817.3280339325967,-229.41627174431264 L817.3617070908064,-229.3209755411753 L817.3980959830315,-229.22846172301368 L817.437148412868,-229.13886299209878 L817.4788083633205,-229.05230786928632 L817.5230160771532,-228.96892050966565 L817.5697081426065,-228.88882052447133 L817.6188175843541,-228.8121228095119 L817.6702739595739,-228.73893738036298 L817.724003458991,-228.66936921456033 L817.7799290127498,-228.60351810101957 L817.8379704009637,-228.54147849689846 L817.8980443687832,-228.48333939210707 L817.9600647458163,-228.42918418166028 L818.0239425697325,-228.3790905460555 L818.0895862138702,-228.33313033984743 L818.1569015186668,-228.2913694885796 L818.2257919267214,-228.25386789422026 L818.2961586212974,-228.2206793492389 L818.3679006680658,-228.19185145944596 L818.4409151598854,-228.16742557570683 L818.5150973644139,-228.14743673462806 " />
			<path d="M818.5150973644139,-228.14743673462806 L818.6042955251424,-228.12954520882428 L818.6948021388655,-228.1179500350479 L818.7864352097615,-228.1126745295307 L818.8790104768649,-228.11372930055774 L818.9723417845886,-228.12111222713577 L819.0662414570565,-228.13480846325808 L819.1605206754922,-228.15479046775792 L819.254989857907,-228.1810180596896 " />
			<path d="M2489.899994437705,166.93353171424383 L2489.9029901049994,167.09675991567912 L2489.911968589457,167.25766425900247 L2489.926904363018,167.41578725322492 L2489.94775495957,167.57067931542346 L2489.974461095692,167.72190004901682 L2490.006946839209,167.86901949592226 L2490.0451198250894,168.01161935903315 L2490.088871518058,168.14929419154151 L2490.138077521192,168.28165254972382 L2490.1925979296093,168.40831810591285 L2490.252277728256,168.52893071849047 L2490.3169472326504,168.64314745585975 L2490.3864225713382,168.7506435714847 L2490.460506208686,168.85111342722504 L2490.4992108106185,168.8986234356829 L2490.538987506524,168.94427136234162 L2490.579808017621,168.98802475433655 L2490.62164332304,169.0298525057005 " />
			<path d="M819.2549898579069,-228.18101805968956 L840.0637354665522,-234.64022482959018 " />
			<path d="M840.0637354665521,-234.64022482959015 L840.1671315934065,-234.67602948364433 L840.2702786299349,-234.71916716309224 L840.3729280858915,-234.76953394548565 L840.4748326697462,-234.8270084928342 L840.5757468844306,-234.89145234391918 L840.6754276187623,-234.96271024785864 L840.7736347331214,-235.0406105381206 L840.8701316379676,-235.1249655460825 L840.9646858638049,-235.21557205314159 L841.0570696212212,-235.31221178028613 L841.1470603496532,-235.4146519139488 L841.2344412535537,-235.52264566687492 L841.3190018246715,-235.63593287265456 L841.4005383491844,-235.7542406124862 L841.4788543984629,-235.87728387266202 L841.5537613022847,-236.004766231191 L841.6250786033572,-236.13638057190528 L841.6926344920557,-236.27180982433 L841.7562662203271,-236.41072772753392 L841.8158204937645,-236.5527996161204 L841.8711538409068,-236.69768322646584 L841.922132958874,-236.8450295212626 L841.968635034506,-236.9944835303805 L842.0105480402292,-237.14568520602094 L842.0477710039418,-237.29827029010363 L842.0802142522638,-237.45187119179613 L842.1077996265683,-237.6061178730724 L842.1304606712725,-237.76063874016683 L842.1481427939349,-237.91506153877617 L842.160803396773,-238.06901425085275 L842.1684119792857,-238.22212599082846 L842.1709502117313,-238.37402789911073 " />
			<path d="M842.1709502117315,-238.37402789911073 L842.1709502117315,-317.868943707257 " />
			<path d="M842.1709502117313,-317.86894370725696 L842.1694389121883,-317.98509304052357 L842.1649071813747,-318.1001375288616 L842.1573615196272,-318.21391215189703 L842.1468127504799,-318.3262537107569 L842.1332760051382,-318.4370010621623 L842.116770700776,-318.5459953495736 L842.0973205126818,-318.65308023105433 L842.0749533403003,-318.7581021035293 L842.0497012672124,-318.8609103231136 L842.0216005151146,-318.9613574211966 L841.9906913918625,-319.0592993159721 L841.9570182336528,-319.1545955191094 L841.9206293414277,-319.24710933727107 L841.8815769115911,-319.33670806818594 L841.8399169611387,-319.42326319099845 L841.7957092473059,-319.5066505506191 L841.7490171818527,-319.58675053581345 L841.699907740105,-319.6634482507729 L841.6484513648852,-319.7366336799218 L841.5947218654682,-319.8062018457244 L841.5387963117093,-319.87205295926515 L841.4807549234954,-319.9340925633863 L841.420680955676,-319.9922316681777 L841.3586605786428,-320.0463868786245 L841.2947827547266,-320.09648051422926 L841.2291391105889,-320.1424407204373 L841.1618238057923,-320.18420157170516 L841.0929333977377,-320.22170316606446 L841.0225667031617,-320.25489171104584 L840.9508246563934,-320.2837196008388 L840.8778101645737,-320.3081454845779 L840.8036279600452,-320.32813432565666 " />
			<path d="M840.8036279600452,-320.32813432565666 L840.7144297993167,-320.34602585146047 L840.6239231855936,-320.3576210252368 L840.5322901146976,-320.362896530754 L840.4397148475942,-320.361841759727 L840.3463835398705,-320.354458833149 L840.2524838674026,-320.34076259702664 L840.158204648967,-320.32078059252683 L840.0637354665521,-320.29455300059516 " />
			<path d="M819.2549898579069,-313.8353462306946 L840.0637354665522,-320.29455300059516 " />
			<path d="M2492.0072091828843,83.704812836577 L2512.8159547915293,77.24560606667642 " />
			<path d="M1093.192840493904,-316.29330035617045 L1093.1928404916994,-395.78821616363246 " />
			<path d="M2765.9448370804853,81.24692785093121 L2765.9448370782807,1.752012043469236 " />
			<path d="M1095.300055603278,-399.522019146154 L1095.1966594584412,-399.4862144963674 L1095.093512403974,-399.4430768211768 L1094.9908629301651,-399.39271004302026 L1094.888958328588,-399.3352354998779 L1094.7880440963536,-399.27079165295834 L1094.6883633446866,-399.19953375313344 L1094.5901562132487,-399.1216334669253 L1094.4936592916213,-399.03727846294663 L1094.399105049341,-398.94667195979065 L1094.3067212758592,-398.85003223645975 L1094.2167305317782,-398.74759210651195 L1094.1293496126827,-398.63959835719305 L1094.0447890268606,-398.5263111549043 L1093.9632524881695,-398.4080034184388 L1093.8849364252733,-398.2849601614962 L1093.8100295084266,-398.15747780605983 L1093.7387121949537,-398.02586346829 L1093.671156294509,-397.89043421865455 L1093.6075245551742,-397.751516318078 L1093.5479702713826,-397.60944443195064 L1093.4926369146203,-397.4645608238901 L1093.4416577877905,-397.31721453119854 L1093.3951557040746,-397.16776052400115 L1093.3532426910658,-397.01655885009177 L1093.3160197208833,-396.8639737675466 L1093.2835764669228,-396.71037286719445 L1093.2559910878247,-396.556126187058 L1093.2333300391833,-396.4016053209001 L1093.2156479134499,-396.2471825230219 L1093.202987308414,-396.09322981146914 L1093.1953787245823,-395.94011807180874 L1093.1928404916994,-395.7882161636325 " />
			<path d="M2768.0520521898593,-1.9817909390521624 L2767.9486560450227,-1.9459862892655706 L2767.845508990555,-1.90284861407503 L2767.742859516746,-1.8524818359184883 L2767.640954915169,-1.7950072927761327 L2767.540040682935,-1.730563445856569 L2767.4403599312677,-1.659305546031641 L2767.34215279983,-1.581405259823482 L2767.245655878203,-1.497050255844826 L2767.1511016359223,-1.4064437526888836 L2767.0587178624405,-1.30980402935795 L2766.9687271183598,-1.2073638994101699 L2766.881346199264,-1.099370150091282 L2766.796785613442,-0.9860829478025313 L2766.715249074751,-0.867775211337019 L2766.6369330118546,-0.7447319543944231 L2766.5620260950077,-0.617249598958036 L2766.490708781535,-0.4856352611882384 L2766.42315288109,-0.3502060115527732 L2766.3595211417555,-0.2112881109762137 L2766.2999668579637,-0.06921622484881884 L2766.2446335012014,0.07566738321170274 L2766.193654374372,0.22301367590322707 L2766.147152290656,0.3724676831006505 L2766.105239277647,0.5236693570100092 L2766.068016307465,0.6762544395551526 L2766.0355730535043,0.8298553399073549 L2766.0079876744057,0.9841020200438171 L2765.9853266257646,1.138622886201678 L2765.9676445000314,1.2930456840799338 L2765.954983894995,1.4469983956326549 L2765.9473753111633,1.6001101352930476 L2765.9448370782807,1.7520120434692577 " />
			<path d="M1093.1928404939038,-316.2933003561705 L1093.1943517936036,-316.17715102702266 L1093.198883524881,-316.0621065425929 L1093.2064291873994,-315.9483319232376 L1093.216977957624,-315.83599036781277 L1093.2305147043492,-315.7252430195806 L1093.2470200104005,-315.61624873506486 L1093.2664702004886,-315.50916385618643 L1093.288837375168,-315.4041419860057 L1093.3140894508567,-315.30133376839336 L1093.3421902058574,-315.2008866719466 L1093.373099332313,-315.1029447784589 L1093.4067724940253,-315.0076485762488 L1093.4431613900508,-314.9151347586427 L1093.482213823984,-314.82553602790125 L1093.5238737788272,-314.7389809048706 L1093.5680814973427,-314.6555935446314 L1093.6147735677691,-314.57549355841047 L1093.6638830147776,-314.49879584200954 L1093.7153393955439,-314.4256104109984 L1093.76906890079,-314.35604224290773 L1093.8249944606575,-314.29019112664935 L1093.8830358552575,-314.22815151937806 L1093.9431098297368,-314.170012411002 L1094.0051302137003,-314.11585719653516 L1094.069008044814,-314.0657635564751 L1094.1346516964124,-314.01980334537774 L1094.2019670089292,-313.97804248878884 L1094.270857424959,-313.94054088867995 L1094.3412241277617,-313.9073523375249 L1094.4129661830032,-313.8785244411396 L1094.4859806835377,-313.85409855039586 L1094.560162897018,-313.8341097019077 " />
			<path d="M1094.560162897018,-313.8341097019077 L1094.6493610828722,-313.81621816448506 L1094.7398677224226,-313.8046229805481 L1094.8315008197508,-313.7993474663548 L1094.9240761137935,-313.80040223021024 L1095.0174074488639,-313.807785151135 L1095.1113071489847,-313.8214813831303 L1095.2055863952783,-313.84146338503075 L1095.3000556056534,-313.86769097588615 " />
			<path d="M2765.944837080485,81.24692785093121 L2765.9478327476895,81.41015603583533 L2765.956811231871,81.57106036339901 L2765.9717470049754,81.72918334277209 L2765.992597600901,81.88407539116612 L2766.019303736239,82.03529611212949 L2766.051789478835,82.18241554770368 L2766.0899624636763,82.32501540090021 L2766.1337141555146,82.46269022502253 L2766.1829201574546,82.59504857645136 L2766.2374405646474,82.72171412761594 L2766.297120362074,82.84232673698641 L2766.361789865291,82.9565434730454 L2766.4312652028857,83.06403958932728 L2766.505348839268,83.16450944775275 L2766.54405344078,83.21201945833006 L2766.5838301363137,83.2576673876336 L2766.6246506470943,83.30142078280353 L2766.6664859522593,83.3432485378768 " />
			<path d="M1095.3000556056534,-313.86769097588615 L1116.108804833337,-320.32689688693176 " />
			<path d="M1116.108804833337,-320.32689688693176 L1116.2122009781738,-320.36270153671836 L1116.315348032641,-320.4058392119089 L1116.4179975064499,-320.4562059900655 L1116.519902108027,-320.51368053320783 L1116.6208163402614,-320.5781243801274 L1116.7204970919283,-320.6493822799523 L1116.8187042233662,-320.72728256616045 L1116.9152011449937,-320.8116375701391 L1117.009755387274,-320.9022440732951 L1117.1021391607558,-320.998883796626 L1117.1921299048367,-321.1013239265738 L1117.2795108239322,-321.2093176758927 L1117.3640714097544,-321.32260487818144 L1117.4456079484455,-321.44091261464695 L1117.5239240113417,-321.56395587158954 L1117.5988309281884,-321.6914382270259 L1117.6701482416613,-321.8230525647957 L1117.737704142106,-321.9584818144312 L1117.8013358814408,-322.0973997150077 L1117.8608901652324,-322.2394716011351 L1117.9162235219947,-322.38435520919563 L1117.9672026488245,-322.5317015018872 L1118.0137047325404,-322.6811555090846 L1118.0556177455492,-322.832357182994 L1118.0928407157317,-322.98494226553913 L1118.1252839696922,-323.1385431658913 L1118.1528693487903,-323.29278984602774 L1118.1755303974317,-323.44731071218564 L1118.1932125231651,-323.60173351006387 L1118.205873128201,-323.7556862216166 L1118.2134817120327,-323.908797961277 L1118.2160199449156,-324.0606998694532 " />
			<path d="M1118.1015055896605,-404.5214931432341 L1118.0607839240397,-404.6675856415638 L1118.0141477962748,-404.80832698881426 L1117.9617385130086,-404.94329074119133 L1117.9037148734426,-405.07206796091134 L1117.8402526881791,-405.19426845527505 L1117.8065416032155,-405.25278591301293 L1117.7715442465176,-405.30952195894486 L1117.735287133451,-405.364433607625 L1117.6977977338215,-405.4174792558421 L1117.6591044510637,-405.4686187141398 L1117.6192366007208,-405.51781323726567 L1117.5782243882345,-405.5650255535263 L1117.5360988860598,-405.61021989302566 L1117.4928920101238,-405.6533620147656 L1117.4486364956445,-405.6944192325886 L1117.4033658723288,-405.7333604399417 L1117.357114438971,-405.7701561334442 L1117.3099172374643,-405.8047784352405 L1117.2618100262537,-405.8372011141217 L1117.212829253242,-405.86739960539893 L1117.163012028178,-405.8953510295149 L1117.1123960945379,-405.9210342093783 L1117.0610198009315,-405.9444296864083 L1117.008922072047,-405.96551973527687 L1116.95614237916,-405.9842883773389 L1116.9027207102283,-406.0007213927375 L1116.848697539597,-406.01480633117797 " />
			<path d="M1116.848697539597,-406.01480633117797 L1116.7594993537427,-406.0326978686006 L1116.6689927141924,-406.04429305253757 L1116.5773596168642,-406.0495685667309 L1116.4847843228215,-406.04851380287545 L1116.391452987751,-406.04113088195066 L1116.2975532876303,-406.0274346499554 L1116.2032740413367,-406.00745264805494 L1116.1088048309616,-405.98122505719954 " />
			<path d="M1095.300055603278,-399.52201914615387 L1116.1088048309616,-405.9812250571995 " />
			<path d="M2768.0520521898593,-1.9817909390521398 L2788.860801417543,-8.44099685009774 " />
			<path d="M2790.1910673115017,-8.162670088001335 L2612.861520523885,46.99993469308589 " />
			<path d="M2514.2872007340306,77.66383894726363 L2337.1515379843086,132.76613145242428 " />
			<path d="M2246.7862930053957,160.87640627700296 L2069.859923130021,215.9135932184251 " />
			<path d="M1979.2687675102536,244.09414296121702 L1802.568308275733,299.061054984426 " />
			<path d="M1711.7376811706783,327.31609807104326 L1687.9881506242882,334.7039586447576 " />
			<path d="M103.66679271305418,41.977335292801484 L15.666307440525145,21.06346989931049 " />
			<path d="M281.5248771824537,-13.231285394502613 L37.95483347225986,-71.1172287761341 " />
			<path d="M371.28302584619064,-41.09295723221703 L283.2825520888825,-62.006827159463576 " />
			<path d="M549.1410868646748,-96.30157064016296 L305.571082684514,-154.18752475049226 " />
			<path d="M638.8992984839564,-124.16326201979928 L550.8988247266483,-145.0771319470458 " />
			<path d="M816.7573595024405,-179.3718754277452 L573.1873553222797,-237.25782953807453 " />
			<path d="M906.5155711217219,-207.2335668073815 L818.5150973644138,-228.14743673462803 " />
			<path d="M1084.373632140206,-262.4421802153274 L840.8036279600453,-320.3281343256567 " />
			<path d="M1118.2160818302145,-308.21212901956994 L1094.560162897018,-313.83410970190766 " />
			<path d="M1117.544056365437,-405.8495498515119 L1116.848697539597,-406.01480633117797 " />

       </g>

       <!-- solid lines -->
       <g  stroke="rgb(0,0,0)" fill="none">
			<path d="M1118.2160818302145,-274.9779029725269 L1118.2160818302145,-403.55563604720413 " />
			<path d="M1115.8078364071525,-407.2076770057133 L1115.9260034092717,-407.1758842282946 L1116.0438857367328,-407.1367487605199 L1116.1611994006835,-407.090364883159 L1116.2776617822315,-407.0368443390352 L1116.3929923132994,-406.97631606382714 L1116.5069131525356,-406.9089258754514 L1116.6191498546605,-406.83483612277456 L1116.7294320316273,-406.7542252945002 L1116.8374940040128,-406.6672875891744 L1116.94307544106,-406.5742324473441 L1117.0459219878394,-406.47528404699665 L1117.1457858780116,-406.37068076349533 L1117.2424265307177,-406.26067459531225 L1117.335611130161,-406.14553055694194 L1117.4251151864792,-406.0255260404583 L1117.5107230765611,-405.90095014725273 L1117.5922285635013,-405.7721029915635 L1117.6694352934423,-405.63929497747426 L1117.7421572686098,-405.5028460511237 L1117.8102192953952,-405.36308492992674 L1117.8734574064151,-405.2203483106661 L1117.9317192555204,-405.07498005835987 L1117.9848644848141,-404.92733037786047 L1118.0327650627835,-404.77775497018087 L1118.0753055927407,-404.62661417557945 L1118.1123835908231,-404.47427210546874 L1118.1439097328855,-404.3210957652393 L1118.1698080696901,-404.1674541701113 L1118.1900162098757,-404.0137174561449 L1118.2044854702622,-403.86025598854974 L1118.2131809931338,-403.70743946944293 L1118.2160818302145,-403.55563604720413 " />
			<path d="M13.634613634448044,69.6531541180413 L13.54835795556445,69.74275732647914 L13.45785708709877,69.82563032512533 L13.363342799466674,69.90156087834421 L13.314655878957762,69.93686126190985 L13.265057141347935,69.97035452992583 L13.214578346997063,70.00201923510748 L13.163251819805952,70.03183510108326 L13.111110426517852,70.05978303537864 L13.058187555672369,70.08584514164198 L13.00451709622524,70.11000473110427 L12.950133415847676,70.13224633326581 L12.89507133891915,70.15255570580264 L12.839366124227755,70.17091984368658 " />
			<path d="M12.839366124227746,70.17091984368658 L12.783053442392326,70.18732698751293 L12.726169353020993,70.2017666310306 L12.66875028162045,70.21422952786963 L12.61083299627108,70.22470769746226 L12.55245458408264,70.2331944301531 L12.493652427445674,70.23968429149568 L12.43446418009385,70.24417312573236 L12.374927742992526,70.2466580584555 L12.315081240069023,70.24713749844804 L12.254962993800115,70.24561113870244 L12.134065406531095,70.23654621337128 L12.012544596822632,70.21948649750459 L11.89071177636868,70.19447568059952 " />
			<path d="M1118.2160818302145,-274.9779029725269 L1118.214483565413,-274.86610002719243 L1118.209690892429,-274.75520515645087 L1118.2017101727079,-274.64536555407807 L1118.1905519992752,-274.5367270131636 L1118.176231182678,-274.42943373259544 L1118.1587667313258,-274.323628125661 L1118.1381818262591,-274.219450631018 L1118.114503790382,-274.1170395262865 L1118.0877640521953,-274.0165307445091 L1118.0579981040798,-273.91805769372365 L1118.0252454551876,-273.82175107988684 L1117.989549579,-273.7277387333846 L1117.9509578556233,-273.6361454393597 L1117.909521508901,-273.5470927720806 L1117.865295538422,-273.46069893357287 L1117.8183386465194,-273.37707859672645 L1117.7687131603518,-273.2963427530872 L1117.7164849491755,-273.2185985655346 L1117.661723336915,-273.14394922604174 L1117.6045010101466,-273.0724938187059 L1117.5448939216196,-273.00432718823123 L1117.482981189443,-272.93953981403905 L1117.4188449920687,-272.87821769017194 L1117.3525704592146,-272.82044221115154 L1117.2842455588693,-272.7662900639415 L1117.2139609805301,-272.7158331261585 L1117.1418100148283,-272.66913837066744 L1117.0678884297015,-272.6262677766864 L1116.9922943432784,-272.5872782475199 L1116.915128093645,-272.5522215350298 L1116.8364921056614,-272.5211441709432 L1116.7564907550116,-272.4940874050902 " />
			<path d="M1116.7564907550116,-272.4940874050902 L1116.7001780731762,-272.4776802612639 L1116.6432939838048,-272.46324061774624 L1116.5858749124043,-272.4507777209072 L1116.527957627055,-272.4402995513146 L1116.4695792148666,-272.4318128186237 L1116.4107770582295,-272.42532295728114 L1116.3515888108777,-272.4208341230445 L1116.2920523737764,-272.41834919032135 L1116.2322058708528,-272.4178697503288 L1116.172087624584,-272.4193961100744 L1116.0511900373149,-272.4284610354055 L1115.9296692276066,-272.4455207512722 L1115.8078364071525,-272.4705315681773 " />
			<path d="M11.890711776368668,70.19447568059952 L-11.890711776368668,64.54266975693652 " />
			<path d="M1115.8078364071525,-272.4705315681773 L1092.0264128544154,-278.1223374918403 " />
			<path d="M-11.890711776368668,64.5426697569365 L-12.008878778487968,64.51087697951776 L-12.12676110594896,64.47174151174308 L-12.24407476989951,64.42535763438218 L-12.360537151447703,64.37183709025838 L-12.475867682515487,64.31130881505031 L-12.589788521751759,64.2439186266746 L-12.702025223876513,64.16982887399774 L-12.812307400843556,64.08921804572341 L-12.920369373228995,64.00228034039762 L-13.025950810276244,63.90922519856731 L-13.128797357055614,63.81027679821985 L-13.228661247227619,63.70567351471852 L-13.325301899933795,63.59566734653543 L-13.418486499377044,63.48052330816515 L-13.507990555695308,63.360518791681535 L-13.59359844577728,63.23594289847595 L-13.675103932717393,63.10709574278668 L-13.752310662658568,62.97428772869747 L-13.825032637825865,62.83783880234686 L-13.893094664611416,62.69807768114995 L-13.956332775631164,62.555341061889315 L-14.014594624736656,62.40997280958303 L-14.067739854030263,62.26232312908364 L-14.115640431999644,62.112747721404055 L-14.158180961956877,61.96160692680264 L-14.195258960039183,61.809264856691954 L-14.226785102101534,61.65608851646248 L-14.252683438906338,61.5024469213345 L-14.272891579091803,61.34871020736809 L-14.287360839478204,61.19524873977294 L-14.296056362349907,61.04243222066612 L-14.298957199430678,60.890628798427336 " />
			<path d="M1092.0264128544152,-278.12233749184037 L1091.908245852296,-278.1541302692591 L1091.790363524835,-278.1932657370338 L1091.6730498608842,-278.2396496143947 L1091.5565874793363,-278.2931701585185 L1091.4412569482683,-278.35369843372655 L1091.327336109032,-278.4210886221023 L1091.2150994069073,-278.49517837477913 L1091.1048172299404,-278.5757892030535 L1090.996755257555,-278.6627269083793 L1090.8911738205077,-278.7557820502096 L1090.7883272737283,-278.85473045055704 L1090.6884633835562,-278.95933373405836 L1090.59182273085,-279.06933990224144 L1090.4986381314068,-279.18448394061176 L1090.4091340750886,-279.3044884570954 L1090.3235261850066,-279.42906435030096 L1090.2420206980664,-279.5579115059902 L1090.1648139681254,-279.6907195200794 L1090.0920919929579,-279.82716844643 L1090.0240299661725,-279.96692956762695 L1089.9607918551526,-280.1096661868876 L1089.9025300060473,-280.2550344391939 L1089.8493847767536,-280.4026841196932 L1089.8014841987842,-280.5522595273728 L1089.758943668827,-280.70340032197424 L1089.7218656707446,-280.85574239208495 L1089.6903395286822,-281.0089187323144 L1089.6644411918776,-281.1625603274424 L1089.644233051692,-281.3162970414088 L1089.6297637913055,-281.46975850900395 L1089.6210682684339,-281.62257502811076 L1089.6181674313532,-281.77437845034956 " />
			<path d="M-14.298957199430676,60.890628798427315 L-14.298957199430676,-67.68710427624993 " />
			<path d="M1089.6181674313532,-281.77437845034956 L1089.6181674313532,-410.35211152502677 " />
			<path d="M-14.298957199430678,-67.68710427624993 L-14.297358934629253,-67.79890722158439 L-14.292566261645288,-67.90980209232596 L-14.28458554192389,-68.01964169469875 L-14.273427368491253,-68.12828023561322 L-14.25910655189424,-68.23557351618138 L-14.241642100541936,-68.34137912311581 L-14.221057195475282,-68.44555661775884 L-14.197379159598245,-68.54796772249037 L-14.17063942141138,-68.64847650426772 L-14.14087347329593,-68.74694955505315 L-14.10812082440383,-68.84325616888998 L-14.072424948216122,-68.93726851539218 L-14.03383322483944,-69.02886180941712 L-13.99239687811709,-69.11791447669626 L-13.948170907638259,-69.20430831520397 L-13.901214015735565,-69.28792865205037 L-13.851588529567858,-69.36866449568964 L-13.799360318391678,-69.44640868324224 L-13.74459870613121,-69.52105802273506 L-13.687376379362755,-69.59251343007092 L-13.627769290835857,-69.6606800605456 L-13.565856558659158,-69.7254674347378 L-13.501720361284777,-69.78678955860491 L-13.435445828430625,-69.84456503762529 L-13.367120928085411,-69.89871718483535 L-13.29683634974634,-69.94917412261834 L-13.224685384044479,-69.99586887810939 L-13.150763798917572,-70.03873947209041 L-13.075169712494642,-70.07772900125688 L-12.998003462861144,-70.11278571374704 L-12.919367474877488,-70.1438630778336 L-12.839366124227766,-70.17091984368658 " />
			<path d="M-12.839366124227746,-70.17091984368658 L-12.783053442392326,-70.18732698751293 L-12.726169353020993,-70.2017666310306 L-12.66875028162045,-70.21422952786963 L-12.61083299627108,-70.22470769746226 L-12.552454584082641,-70.2331944301531 L-12.493652427445674,-70.23968429149568 L-12.43446418009385,-70.24417312573236 L-12.374927742992526,-70.2466580584555 L-12.315081240069023,-70.24713749844804 L-12.254962993800115,-70.24561113870244 L-12.134065406531093,-70.23654621337128 L-12.01254459682263,-70.21948649750459 L-11.89071177636867,-70.19447568059952 " />
			<path d="M1089.6181674313532,-410.35211152502677 L1089.6197656961547,-410.46391447036126 L1089.6245583691386,-410.5748093411028 L1089.6325390888599,-410.6846489434756 L1089.6436972622926,-410.7932874843901 L1089.6580180788897,-410.90058076495825 L1089.6754825302419,-411.0063863718927 L1089.6960674353086,-411.1105638665357 L1089.7197454711857,-411.2129749712672 L1089.7464852093724,-411.3134837530446 L1089.7762511574879,-411.41195680383 L1089.8090038063801,-411.50826341766685 L1089.8446996825678,-411.60227576416906 L1089.8832914059444,-411.69386905819397 L1089.9247277526667,-411.7829217254731 L1089.9689537231457,-411.8693155639808 L1090.0159106150484,-411.95293590082724 L1090.065536101216,-412.0336717444665 L1090.1177643123922,-412.1114159320191 L1090.1725259246527,-412.18606527151195 L1090.2297482514211,-412.2575206788478 L1090.289355339948,-412.32568730932246 L1090.3512680721246,-412.39047468351464 L1090.415404269499,-412.45179680738175 L1090.4816788023531,-412.50957228640215 L1090.5500037026984,-412.5637244336122 L1090.6202882810376,-412.6141813713952 L1090.6924392467395,-412.66087612688625 L1090.7663608318662,-412.7037467208673 L1090.8419549182893,-412.7427362500338 L1090.9191211679226,-412.7777929625239 L1090.9977571559064,-412.8088703266105 L1091.0777585065562,-412.8359270924634 " />
			<path d="M1091.0777585065562,-412.83592709246346 L1091.1340711883915,-412.8523342362898 L1091.190955277763,-412.86677387980745 L1091.2483743491634,-412.8792367766465 L1091.3062916345127,-412.8897149462391 L1091.3646700467011,-412.89820167893 L1091.4234722033382,-412.90469154027255 L1091.48266045069,-412.9091803745092 L1091.5421968877913,-412.91166530723234 L1091.602043390715,-412.9121447472249 L1091.6621616369837,-412.9106183874793 L1091.7830592242528,-412.9015534621482 L1091.904580033961,-412.88449374628146 L1092.0264128544152,-412.8594829293764 " />
			<path d="M1115.8078364071525,-407.2076770057133 L1092.0264128544154,-412.8594829293763 " />
			<path d="M2820.0845211138053,79.75205593149434 L2820.2977877167364,0.33521083819806563 " />
			<path d="M2817.899951503808,-3.327437191498653 L2818.0180032022913,-3.294979186227663 L2818.1357505996634,-3.255187379553773 L2818.252910032131,-3.2081576334246096 L2818.3691992523577,-3.1540032466179175 L2818.484338109428,-3.0928546817948783 L2818.5980492237495,-3.024859251204133 L2818.7100586552874,-2.9501807617936695 L2818.8200965635115,-2.868999120585542 L2818.9278978574616,-2.7815099012640925 L2819.0332028343787,-2.687923873021817 L2819.13575780535,-2.5884664927979193 L2819.235315706467,-2.4833773621327957 L2819.331636694026,-2.37290964994694 L2819.424488722332,-2.2573294826348365 L2819.5136481027153,-2.1369153029431667 L2819.598900042419,-2.0119571991778447 L2819.6800391620527,-1.8827562063558778 L2819.7568699903713,-1.7496235809856453 L2819.8292074351793,-1.612880051222705 L2819.896877229236,-1.4728550442075734 L2819.9597163500807,-1.3298858924468928 L2820.017573412767,-1.1843170211498735 L2820.0703090345633,-1.0364991184777965 L2820.117796170737,-0.8867882907055186 L2820.159920420619,-0.7355452043302626 L2820.196580303201,-0.5831342171944366 L2820.227687501614,-0.42992250071567734 L2820.2531670758935,-0.2762791553387418 L2820.2729576435127,-0.12257432134021184 L2820.2870115272613,0.0308217128718562 L2820.2952948701018,0.18353940281514103 L2820.297787716736,0.33521083819807207 " />
			<path d="M1714.2376858417936,425.49188343972844 L1714.151003392498,425.5831050712504 L1714.1060111750826,425.6261555191296 L1714.059957359581,425.66746107435546 L1714.0128721180195,425.7069946757111 L1713.9647862981599,425.7447304228702 L1713.9157314032902,425.7806435933655 L1713.865739571585,425.81471065878566 L1713.8148435550504,425.8469093001898 L1713.7630766980667,425.87721842272975 L1713.7104729155428,425.9056181694702 L1713.657066670697,425.9320899343979 L1713.6028929524787,425.95661637461154 L1713.5479872526444,425.9791814216836 L1713.4923855425077,425.9997702921879 L1713.43612424937,426.01836949738447 " />
			<path d="M1713.43612424937,426.01836949738447 L1713.3792402326578,426.03496685205704 L1713.3217707597723,426.049551482496 L1713.263753481675,426.06211383362216 L1713.2052264082204,426.0726456752471 L1713.146227883254,426.08114010746465 L1713.0867965594912,426.08759156517186 L1713.0269713731948,426.0919958217145 L1712.9667915186649,426.0943499916565 L1712.9062964225618,426.09465253267007 L1712.8455257180756,426.09290324654637 L1712.78451921896,426.0891032793252 L1712.7233168934492,426.08325512054427 L1712.6619588380725,426.07536260160816 L1712.600485251385,426.0654308932781 L1712.4773526303632,426.03947726706434 " />
			<path d="M2820.084521113805,79.7520559314943 L2820.082637232288,79.86329569359405 L2820.0775875885556,79.97361740579348 L2820.0693788317526,80.08287580139041 L2820.0580217708034,80.19092701381061 L2820.0435313601783,80.2976287660446 L2820.025926680203,80.40284055799184 L2820.0052309119333,80.50642385146496 L2819.9814713066326,80.60824225261058 L2819.9546791498874,80.70816169150672 L2819.924889720413,80.80605059870004 L2819.892142243599,80.90178007845064 L2819.85647983986,80.99522407845623 L2819.817949467857,81.08625955583211 L2819.776601862661,81.1747666391286 L2819.7324914689525,81.26062878617239 L2819.685676369327,81.34373293752404 L2819.6362182078165,81.42396966534967 L2819.584182108718,81.50123331751058 L2819.529636590842,81.57542215668128 L2819.4726534772904,81.64643849431268 L2819.4133078008813,81.71418881926394 L2819.35167770535,81.77858392093387 L2819.2878443424534,81.8395390067294 L2819.221891765111,81.89697381371663 L2819.1539068167317,81.95081271430757 L2819.0839790168575,82.00098481584315 L2819.0122004432915,82.04742405394144 L2818.9386656108527,82.09006927948835 L2818.8634713469232,82.128864339156 L2818.7867166639508,82.16375814934295 L2818.7085026290733,82.19470476343884 L2818.628932231037,82.22166343232468 " />
			<path d="M2818.628932231037,82.22166343232468 L2818.5720482143247,82.23826078699724 L2818.514578741439,82.25284541743616 L2818.456561463342,82.26540776856237 L2818.3980343898875,82.27593961018727 L2818.339035864921,82.28443404240485 L2818.2796045411583,82.29088550011203 L2818.2197793548617,82.29528975665467 L2818.1595995003318,82.29764392659665 L2818.0991044042285,82.29794646761023 L2818.0383336997425,82.29619718148652 L2817.977327200627,82.29239721426536 L2817.916124875116,82.28654905548443 L2817.8547668197393,82.27865653654831 L2817.793293233052,82.2687248282183 L2817.67016061203,82.24277120200455 " />
			<path d="M1712.4773526303634,426.03947726706434 L1688.7171313515178,420.253059268581 " />
			<path d="M2817.6701606120305,82.24277120200456 L2793.9099393331844,76.45635320352126 " />
			<path d="M1688.7171313515173,420.25305926858096 L1688.6376527462787,420.23202327246935 L1688.558269913991,420.2076519025143 L1688.4790695045647,420.17997176115574 L1688.4001379687877,420.1490130625054 L1688.32156146396,420.11480959936705 L1688.24342575985,420.0773987063498 L1688.1658161450716,420.03682121911606 L1688.0888173339895,419.9931214298072 L1688.012513374248,419.946347038697 L1687.9369875550312,419.8965491021246 L1687.862322316147,419.84378197676403 L1687.7885991580417,419.78810326029185 L1687.7158985528386,419.72957372851636 L1687.6442998564983,419.6682572690382 L1687.5738812221991,419.6042208115142 L1687.504719515029,419.5375342546008 L1687.4368902280826,419.4682703896562 L1687.3704674000599,419.3965048212857 L1687.3055235344468,419.3223158848157 L1687.2421295203765,419.2457845607871 L1687.1803545552496,419.1669943865618 L1687.120266069202,419.0860313651374 L1687.0619296515029,419.0029838712715 L1687.0054089789603,418.9179425550166 L1686.9507657464153,418.83100024277144 L1686.8980595993992,418.7422518359568 L1686.8473480690277,418.6517942074265 L1686.7986865092034,418.5597260957263 L1686.7521280361948,418.46614799731634 L1686.7077234706562,418.37116205687465 L1686.6655212821568,418.2748719558019 L1686.6255675362713,418.1773827990485 " />
			<path d="M2793.909939333185,76.45635320352127 L2793.7918876347017,76.42389519825028 L2793.6741402373295,76.38410339157639 L2793.556980804862,76.33707364544722 L2793.4406915846353,76.28291925864053 L2793.325552727565,76.22177069381749 L2793.2118416132435,76.15377526322675 L2793.0998321817056,76.07909677381629 L2792.9897942734815,75.99791513260816 L2792.8819929795313,75.9104259132867 L2792.7766880026143,75.81683988504443 L2792.674133031643,75.71738250482053 L2792.574575130526,75.61229337415541 L2792.4782541429668,75.50182566196956 L2792.385402114661,75.38624549465746 L2792.2962427342777,75.26583131496578 L2792.210990794574,75.14087321120046 L2792.1298516749403,75.0116722183785 L2792.0530208466216,74.87853959300826 L2791.9806834018136,74.74179606324532 L2791.913013607757,74.60177105623019 L2791.8501744869122,74.45880190446951 L2791.792317424226,74.3132330331725 L2791.7395818024297,74.1654151305004 L2791.692094666256,74.01570430272814 L2791.649970416374,73.86446121635288 L2791.613310533792,73.71205022921706 L2791.582203335379,73.55883851273829 L2791.5567237610994,73.40519516736136 L2791.5369331934803,73.25149033336282 L2791.5228793097317,73.09809429915076 L2791.514595966891,72.94537660920747 L2791.512103120257,72.79370517382456 " />
			<path d="M2791.5121031202566,72.79370517382455 L2791.7253697231877,-6.6231399194717255 " />
			<path d="M2791.7253697231877,-6.623139919471739 L2791.7272536047044,-6.734379681571503 L2791.732303248437,-6.844701393770913 L2791.74051200524,-6.953959789367864 L2791.751869066189,-7.062011001788047 L2791.766359476814,-7.168712754022035 L2791.7839641567894,-7.273924545969286 L2791.8046599250592,-7.377507839442398 L2791.82841953036,-7.479326240588018 L2791.855211687105,-7.579245679484156 L2791.8850011165796,-7.677134586677477 L2791.9177485933933,-7.772864066428089 L2791.9534109971323,-7.866308066433677 L2791.9919413691355,-7.957343543809558 L2792.0332889743313,-8.045850627106045 L2792.07739936804,-8.131712774149825 L2792.1242144676653,-8.214816925501484 L2792.173672629176,-8.295053653327116 L2792.2257087282746,-8.372317305488027 L2792.2802542461504,-8.446506144658725 L2792.337237359702,-8.517522482290111 L2792.396583036111,-8.585272807241381 L2792.4582131316424,-8.649667908911319 L2792.522046494539,-8.710622994706833 L2792.5879990718813,-8.768057801694065 L2792.655984020261,-8.821896702285017 L2792.725911820135,-8.872068803820591 L2792.797690393701,-8.918508041918878 L2792.87122522614,-8.961153267465782 L2792.9464194900693,-8.999948327133435 L2793.0231741730418,-9.0348421373204 L2793.101388207919,-9.065788751416271 L2793.1809586059553,-9.09274742030211 " />
			<path d="M2793.1809586059553,-9.092747420302118 L2793.237842622668,-9.109344774974685 L2793.2953120955535,-9.123929405413609 L2793.3533293736505,-9.136491756539804 L2793.411856447105,-9.147023598164711 L2793.4708549720717,-9.155518030382293 L2793.5302862958342,-9.161969488089474 L2793.590111482131,-9.166373744632118 L2793.6502913366608,-9.168727914574093 L2793.710786432764,-9.16903045558767 L2793.77155713725,-9.167281169463966 L2793.8325636363656,-9.163481202242801 L2793.8937659618764,-9.157633043461875 L2793.955124017253,-9.149740524525757 L2794.0165976039407,-9.139808816195744 L2794.1397302249625,-9.113855189981983 " />
			<path d="M2817.8999515038086,-3.3274371914986522 L2794.1397302249625,-9.11385518998194 " />
			<path d="M1688.4187791257168,418.6035507421858 L1688.5079772579038,418.6214422548189 L1688.598483842289,418.63303741708694 L1688.6901168831603,418.63831291278785 L1688.782692119664,418.6372581336592 L1688.8760233963264,418.62987520071 L1688.969923037386,418.61617895995556 L1689.064202224182,418.59619695256436 L1689.1586713748425,418.5699693594767 " />
			<path d="M1689.1586713748425,418.5699693594767 L1709.9674128831543,412.1107616263758 " />
			<path d="M1712.0746272373765,328.88204264546204 L1712.073115938041,328.765893307494 L1712.0685842077814,328.6508488146923 L1712.0610385469342,328.53707418745086 L1712.050489779033,328.42473262466217 L1712.0369530352825,328.31398526962386 L1712.0204477328562,328.20499097889416 L1712.0009975470418,328.097906094427 L1711.9786303772828,327.9928842193145 L1711.953378307159,327.8900759974578 L1711.9252775583657,327.7896288974829 L1711.8943684387573,327.6916870012107 L1711.8606952845284,327.5963907969855 L1711.82430639662,327.5038769781576 L1711.7852539714338,327.41427824701003 L1711.7435940259636,327.3277231244094 L1711.6993863174423,327.2443357654549 L1711.652694257628,327.16423578139006 L1711.6035848218437,327.0875380680312 L1711.5521284529088,327.01435264096085 L1711.4983989600958,326.9447844777203 L1711.4424734132567,326.8789333672298 L1711.3844320322748,326.8168937666504 L1711.3243580719964,326.75875466589457 L1711.2623377028094,326.70459945997817 L1711.1984598870408,326.65450582939854 L1711.1328162513478,326.6085456287091 L1711.0655009552886,326.5667847834509 L1710.9966105562594,326.52928319558845 L1710.9262438709923,326.4960946575864 L1710.8545018338111,326.46726677524913 L1710.7814873518519,326.4428408994347 L1710.7073051574514,326.4228520667412 " />
			<path d="M1710.7073051574514,326.42285206674114 L1710.6181070252644,326.4049605541081 L1710.5276004408793,326.39336539184 L1710.435967400008,326.3880898961391 L1710.3433921635042,326.38914467526774 L1710.2500608868418,326.39652760821696 L1710.1561612457822,326.4102238489714 L1710.0618820589862,326.4302058563626 L1709.9674129083257,326.45643344945023 " />
			<path d="M1956.0347714138597,335.533331907808 L1956.1239695745883,335.5512234336118 L1956.2144761883114,335.5628186073882 L1956.3061092592075,335.5680941129054 L1956.398684526311,335.56703934187834 L1956.4920158340346,335.55965641530037 L1956.5859155065025,335.545960179178 L1956.6801947249382,335.5259781746782 L1956.774663907353,335.4997505827465 " />
			<path d="M1956.774663907353,335.4997505827465 L1977.583409515998,329.04054381284595 " />
			<path d="M1977.583409515998,329.04054381284595 L1977.6863040029646,329.0049308017073 L1977.7889530089603,328.9620553320133 L1977.8911116386712,328.91201969410264 L1977.9925361667013,328.85494326071677 L1978.0929846190402,328.79096220220544 L1978.1922173503551,328.72022916165804 L1978.2899976157244,328.6429128907345 L1978.3860921354533,328.5591978470653 L1978.4802716516228,328.469283754181 L1978.5723114750413,328.3733851250207 L1978.6619920212986,328.2717307501572 L1978.7490993346405,328.1645631519585 L1978.8334255984144,328.0521380059894 L1978.9147696308687,327.9347235310321 L1978.9929373651232,327.81259984918233 L1979.0677423121654,327.6860583175465 L1979.139006005766,327.5554008331356 L1979.2065584282582,327.4209391126128 L1979.2702384161546,327.28299394861415 L1979.3298940446466,327.14189444441627 L1979.3853829900586,326.99797722877645 L1979.436572869397,326.85158565281967 L1979.4833415561839,326.7030689708865 L1979.525577471821,326.55278150729856 L1979.5631798517882,326.40108181102744 L1979.5960589860438,326.24833180028503 L1979.6241364330494,326.09489589907554 L1979.6473452069138,325.94114016776945 L1979.6656299372032,325.7874314297731 L1979.678947001043,325.63413639637855 L1979.68726462719,325.4816207918801 L1979.6905629718308,325.33024848104634 " />
			<path d="M1979.6906242611774,245.81182493517906 L1979.6891129616342,245.69567560191246 L1979.6845812308206,245.58063111357444 L1979.6770355690733,245.466856490539 L1979.6664867999257,245.35451493167915 L1979.6529500545842,245.24376758027367 L1979.636444750222,245.13477329286243 L1979.6169945621277,245.02768841138172 L1979.5946273897464,244.92266653890673 L1979.5693753166584,244.81985831932244 L1979.5412745645606,244.71941122123937 L1979.5103654413085,244.6214693264639 L1979.4766922830988,244.5261731233266 L1979.4403033908736,244.43365930516495 L1979.401250961037,244.34406057425008 L1979.3595910105846,244.2575054514376 L1979.3153832967519,244.17411809181695 L1979.2686912312986,244.0940181066226 L1979.219581789551,244.01732039166316 L1979.1681254143311,243.94413496251425 L1979.114395914914,243.8745667967116 L1979.0584703611553,243.80871568317085 L1979.0004289729413,243.74667607904973 L1978.9403550051218,243.68853697425834 L1978.8783346280886,243.63438176381155 L1978.8144568041726,243.58428812820677 L1978.7488131600348,243.5383279219987 L1978.6814978552384,243.49656707073086 L1978.6126074471838,243.45906547637153 L1978.5422407526075,243.42587693139018 L1978.4704987058392,243.39704904159723 L1978.3974842140196,243.3726231578581 L1978.3233020094913,243.35263431677933 " />
			<path d="M1978.3233020094913,243.35263431677933 L1978.2341038487627,243.33474279097555 L1978.1435972350396,243.32314761719917 L1978.0519641641436,243.31787211168196 L1977.95938889704,243.318926882709 L1977.8660575893164,243.32630980928704 L1977.7721579168485,243.34000604540935 L1977.6778786984128,243.3599880499092 L1977.583409515998,243.38621564184086 " />
			<path d="M2223.0053706852746,252.10015729328273 L2223.077939183811,252.16608244800253 L2223.153147931759,252.22634434114204 L2223.230845695112,252.2808217946757 L2223.3108762348083,252.3294052622564 L2223.39307862091,252.37199704949765 L2223.4772875562053,252.4085115104229 L2223.563333708602,252.43887521968736 L2223.6510440516254,252.4630271202258 " />
			<path d="M2223.6510440516254,252.4630271202258 L2223.740242212354,252.48091864602958 L2223.830748826077,252.49251381980596 L2223.922381896973,252.49778932532317 L2224.0149571640763,252.49673455429613 L2224.1082884718003,252.4893516277181 L2224.202188144268,252.47565539159578 L2224.296467362704,252.45567338709594 L2224.3909365451186,252.42944579516427 " />
			<path d="M2224.3909365451186,252.42944579516427 L2245.1996821537637,245.97023902526365 " />
			<path d="M2245.1996821537637,245.9702390252637 L2245.303078280618,245.93443437120953 L2245.4062253171464,245.89129669176162 L2245.5088747731033,245.8409299093682 L2245.6107793569577,245.78345536201965 L2245.711693571642,245.71901151093468 L2245.811374305974,245.64775360699522 L2245.909581420333,245.56985331673326 L2246.0060783251793,245.48549830877135 L2246.1006325510166,245.39489180171228 L2246.193016308433,245.29825207456773 L2246.2830070368645,245.19581194090506 L2246.3703879407653,245.08781818797894 L2246.4549485118832,244.9745309821993 L2246.536485036396,244.85622324236766 L2246.6148010856746,244.73317998219184 L2246.689707989496,244.60569762366285 L2246.761025290569,244.47408328294858 L2246.8285811792675,244.33865403052386 L2246.8922129075386,244.19973612731994 L2246.9517671809763,244.05766423873345 L2247.0071005281184,243.91278062838802 L2247.058079646086,243.76543433359126 L2247.1045817217178,243.61598032447336 L2247.1464947274408,243.46477864883292 L2247.1837176911536,243.31219356475023 L2247.2161609394752,243.15859266305773 L2247.24374631378,243.00434598178146 L2247.2664073584842,242.84982511468704 L2247.2840894811466,242.6954023160777 L2247.2967500839845,242.54144960400112 L2247.304358666497,242.3883378640254 L2247.306896898943,242.23643595574313 " />
			<path d="M2247.306896898943,242.0817750663747 L2247.306896898943,162.74152014759682 " />
			<path d="M2247.306896898943,162.74152014759682 L2247.3053855994,162.6253708143302 L2247.3008538685863,162.5103263259922 L2247.293308206839,162.39655170295674 L2247.2827594376913,162.2842101440969 L2247.26922269235,162.17346279269142 L2247.2527173879876,162.0644685052802 L2247.2332671998934,161.95738362379947 L2247.210900027512,161.85236175132448 L2247.185647954424,161.7495535317402 L2247.157547202326,161.64910643365712 L2247.126638079074,161.55116453888166 L2247.0929649208642,161.45586833574436 L2247.056576028639,161.3633545175827 L2247.0175235988027,161.27375578666783 L2246.9758636483502,161.18720066385535 L2246.9316559345175,161.1038133042347 L2246.8849638690644,161.02371331904035 L2246.8358544273165,160.94701560408092 L2246.7843980520965,160.873830174932 L2246.7306685526796,160.80426200912936 L2246.674742998921,160.7384108955886 L2246.616701610707,160.6763712914675 L2246.5566276428876,160.6182321866761 L2246.4946072658545,160.5640769762293 L2246.430729441938,160.51398334062452 L2246.3650857978005,160.46802313441646 L2246.297770493004,160.42626228314862 L2246.228880084949,160.3887606887893 L2246.158513390373,160.35557214380793 L2246.086771343605,160.32674425401498 L2246.0137568517853,160.30231837027586 L2245.939574647257,160.28232952919709 " />
			<path d="M2245.939574647257,160.28232952919709 L2245.850376486528,160.2644380033933 L2245.759869872805,160.25284282961692 L2245.668236801909,160.24756732409972 L2245.575661534806,160.24862209512676 L2245.482330227082,160.2560050217048 L2245.3884305546144,160.2697012578271 L2245.2941513361784,160.28968326232695 L2245.1996821537637,160.31591085425862 " />
			<path d="M2490.62164332304,169.0298525057005 L2490.6942118215766,169.09577766042028 L2490.7694205695248,169.1560395535598 L2490.8471183328775,169.21051700709344 L2490.927148872574,169.25910047467414 L2491.0093512586755,169.3016922619154 L2491.093560193971,169.33820672284065 L2491.1796063463676,169.36857043210512 L2491.267316689391,169.39272233264356 " />
			<path d="M2491.267316689391,169.39272233264356 L2491.3565148501198,169.41061385844733 L2491.4470214638427,169.42220903222372 L2491.5386545347387,169.42748453774092 L2491.631229801842,169.42642976671388 L2491.724561109566,169.41904684013585 L2491.8184607820335,169.40535060401353 L2491.9127400004695,169.3853685995137 L2492.0072091828843,169.35914100758202 " />
			<path d="M2492.0072091828843,169.35914100758205 L2512.8159547915293,162.89993423768144 " />
			<path d="M2512.8159547915293,162.89993423768146 L2512.9193509183838,162.8641295836273 L2513.022497954912,162.82099190417938 L2513.125147410869,162.77062512178597 L2513.2270519947233,162.7131505744374 L2513.327966209408,162.64870672335243 L2513.4276469437395,162.57744881941298 L2513.5258540580985,162.499548529151 L2513.622350962945,162.4151935211891 L2513.716905188782,162.32458701413003 L2513.8092889461986,162.22794728698548 L2513.89927967463,162.12550715332281 L2513.986660578531,162.0175134003967 L2514.071221149649,161.90422619461705 L2514.1527576741614,161.78591845478542 L2514.23107372344,161.6628751946096 L2514.3059806272618,161.5353928360806 L2514.3772979283344,161.40377849536634 L2514.444853817033,161.2683492429416 L2514.508485545304,161.1294313397377 L2514.568039818742,160.9873594511512 L2514.623373165884,160.84247584080578 L2514.6743522838515,160.695129546009 L2514.7208543594834,160.5456755368911 L2514.7627673652064,160.39447386125067 L2514.799990328919,160.241888777168 L2514.832433577241,160.0882878754755 L2514.8600189515455,159.9340411941992 L2514.88267999625,159.7795203271048 L2514.900362118912,159.62509752849544 L2514.91302272175,159.47114481641887 L2514.9206313042628,159.31803307644316 L2514.9231695367084,159.1661311681609 " />
			<path d="M2514.923169536709,159.16613116816086 L2514.923169536709,79.67121536001459 " />
			<path d="M2514.9231695367084,79.67121536001463 L2514.9216582371655,79.55506602674801 L2514.917126506352,79.44002153841 L2514.9095808446045,79.32624691537455 L2514.899032075457,79.21390535651472 L2514.8854953301156,79.10315800510925 L2514.868990025753,78.99416371769799 L2514.849539837659,78.88707883621728 L2514.8271726652774,78.78205696374228 L2514.8019205921896,78.67924874415799 L2514.7738198400916,78.57880164607494 L2514.7429107168396,78.48085975129948 L2514.70923755863,78.38556354816215 L2514.6728486664047,78.29304973000053 L2514.6337962365683,78.20345099908563 L2514.592136286116,78.11689587627315 L2514.547928572283,78.0335085166525 L2514.50123650683,77.95340853145817 L2514.452127065082,77.87671081649873 L2514.400670689862,77.80352538734981 L2514.3469411904452,77.73395722154717 L2514.2910156366866,77.66810610800641 L2514.2329742484726,77.6060665038853 L2514.1729002806533,77.54792739909391 L2514.11087990362,77.4937721886471 L2514.047002079704,77.44367855304232 L2513.981358435566,77.39771834683428 L2513.9140431307696,77.35595749556644 L2513.845152722715,77.3184559012071 L2513.774786028139,77.28526735622573 L2513.7030439813707,77.25643946643278 L2513.630029489551,77.23201358269367 L2513.5558472850225,77.21202474161491 " />
			<path d="M2513.5558472850225,77.2120247416149 L2513.466649124294,77.19413321581112 L2513.376142510571,77.18253804203475 L2513.284509439675,77.17726253651753 L2513.1919341725716,77.17831730754457 L2513.0986028648476,77.18570023412259 L2513.00470319238,77.19939647024492 L2512.910423973944,77.21937847474476 L2512.8159547915293,77.24560606667643 " />
			<path d="M2766.6664859522593,83.34324853787682 L2766.7390544671425,83.40917371424044 L2766.814263232814,83.46943562798221 L2766.8919610151934,83.52391310100549 L2766.971991575144,83.57249658689724 L2767.0541939826467,83.6150883912103 L2767.138402940407,83.65160286791287 L2767.2244491162455,83.68196659161049 L2767.3121594835993,83.706118505194 " />
			<path d="M2767.3121594835993,83.70611850519401 L2767.4013576694533,83.7240100426167 L2767.4918643090036,83.73560522655362 L2767.583497406332,83.74088074074693 L2767.6760727003743,83.73982597689151 L2767.769404035445,83.73244305596671 L2767.8633037355658,83.71874682397146 L2767.957582981859,83.698764822071 L2768.0520521922344,83.67253723121556 " />
			<path d="M2768.052052192235,83.67253723121557 L2788.8608014199185,77.21333132016998 " />
			<path d="M2788.860801419919,77.21333132017006 L2788.9641975647555,77.17752667038347 L2789.067344619223,77.13438899519292 L2789.169994093032,77.08402221703638 L2789.2718986946093,77.02654767389403 L2789.3728129268434,76.96210382697447 L2789.4724936785105,76.89084592714954 L2789.5707008099484,76.81294564094138 L2789.6671977315755,76.72859063696272 L2789.761751973856,76.63798413380678 L2789.8541357473378,76.54134441047584 L2789.9441264914185,76.43890428052806 L2790.031507410514,76.33091053120918 L2790.1160679963364,76.21762332892042 L2790.1976045350275,76.09931559245491 L2790.2759205979237,75.97627233551232 L2790.3508275147706,75.84878998007594 L2790.4221448282433,75.71717564230613 L2790.489700728688,75.58174639267067 L2790.5533324680227,75.44282849209411 L2790.6128867518146,75.30075660596671 L2790.668220108577,75.15587299790619 L2790.7191992354064,75.00852670521466 L2790.7657013191224,74.85907269801724 L2790.8076143321314,74.70787102410789 L2790.8448373023134,74.55528594156274 L2790.877280556274,74.40168504121054 L2790.9048659353725,74.24743836107407 L2790.9275269840136,74.09291749491622 L2790.945209109747,73.93849469703797 L2790.957869714783,73.78454198548525 L2790.965478298615,73.63143024582484 L2790.9680165314976,73.47952833764866 " />
			<path d="M1118.2160199449158,-324.0606998694532 L1118.2160199427112,-403.5556156769152 " />
			<path d="M2790.9680165314976,73.4795283376486 L2790.968016529293,-6.015387469813376 " />
			<path d="M1118.2160199427112,-403.5556156769152 L1118.2142144686397,-403.6825148067101 L1118.2088011403137,-403.808075612864 L1118.1997892340748,-403.93208293293014 L1118.1871941928298,-404.0543242665337 L1118.1710375995865,-404.1745901395145 L1118.1513471404696,-404.29267446288463 L1118.1281565572774,-404.40837488598464 L1118.1015055896605,-404.52149314323407 " />
			<path d="M2790.968016529293,-6.015387469813319 L2790.966505229593,-6.13153679896116 L2790.9619734983157,-6.246581283390939 L2790.9544278357976,-6.36035590274621 L2790.9438790655727,-6.472697458171044 L2790.9303423188476,-6.5834448064032385 L2790.913837012796,-6.6924390909189775 L2790.8943868227084,-6.799523969797395 L2790.872019648029,-6.904545839978169 L2790.84676757234,-7.007354057590473 L2790.8186668173394,-7.1078011540372685 L2790.7877576908836,-7.205743047524968 L2790.7540845291715,-7.301039249735042 L2790.717695633146,-7.393553067341126 L2790.6786431992127,-7.483151798082584 L2790.6369832443697,-7.569706921113272 L2790.592775525854,-7.653094281352438 L2790.546083455428,-7.733194267573365 L2790.496974008419,-7.8098919839742855 L2790.445517627653,-7.883077414985474 L2790.391788122407,-7.9526455830760945 L2790.335862562539,-8.01849669933447 L2790.2778211679392,-8.080536306605781 L2790.2177471934597,-8.138675414981853 L2790.155726809496,-8.192830629448704 L2790.0918489783826,-8.242924269508753 L2790.0262053267843,-8.288884480606093 L2789.9588900142676,-8.33064533719501 L2789.8899995982374,-8.368146937303901 L2789.819632895435,-8.40133548845894 L2789.7478908401936,-8.43016338484427 L2789.674876339659,-8.454589275588003 L2789.600694126179,-8.474578124076107 " />
			<path d="M2789.6006941261785,-8.474578124076112 L2789.5114959403245,-8.492469661498795 L2789.420989300774,-8.504064845435725 L2789.329356203446,-8.509340359629043 L2789.2367809094035,-8.508285595773614 L2789.143449574333,-8.500902674848819 L2789.049549874212,-8.487206442853564 L2788.9552706279187,-8.467224440953096 L2788.8608014175434,-8.440996850097665 " />
			<path d="M11.890711776368668,70.19447568059952 L1115.8078364071523,-272.4705315681773 " />
			<path d="M-11.890711776368668,64.54266975693652 L1092.0264128544152,-278.1223374918403 " />
			<path d="M-14.298957199430676,60.890628798427315 L1089.618167431353,-281.7743784503495 " />
			<path d="M-14.298957199430676,-67.68710427624993 L1089.618167431353,-410.35211152502677 " />
			<path d="M1712.4773526303632,426.0394772670643 L2817.6701606120305,82.24277120200446 " />
			<path d="M1688.717131351517,420.253059268581 L2793.9099393331844,76.45635320352119 " />
			<path d="M1704.7250114081485,410.86487214693295 L1950.8512001161698,334.3014233594806 " />
			<path d="M1972.016349012839,327.71749662606294 L2218.142814970458,251.15396159347966 " />
			<path d="M2247.0250446109517,242.16945197442948 L2485.4344298247456,168.0064998274789 " />
			<path d="M2514.923169536709,158.8333207172226 L2761.144392643396,82.24030920280705 " />
			<path d="M2790.9680165314835,72.96295634491742 L2791.5121031202566,72.79370517382443 " />
			<path d="M1686.5325617415203,337.173566145588 L1806.2437235292632,299.9345406971613 " />
			<path d="M1835.125953169757,290.95003107811107 L2073.535338383551,216.78707893116044 " />
			<path d="M2247.306885231376,162.7312752897895 L2340.826953237839,133.6396171651596 " />
			<path d="M2514.919223075923,79.48404495235553 L2616.536935288602,47.873420557878205 " />
			<path d="M2790.952575050096,-6.382743618342545 L2791.725369723187,-6.623139919471839 " />
			<path d="M104.04890356286153,41.85872492414464 L1689.1586713748425,418.5699693594768 " />
			<path d="M124.85764915094447,35.39951816062673 L1709.9674128831543,412.1107616263758 " />
			<path d="M132.58410406237235,33.00116264175814 L1712.0746272140152,408.37695845910304 " />
			<path d="M277.6307409074125,-12.022513281866878 L1712.0746272373767,328.8820426454621 " />
			<path d="M371.6651367507126,-41.21156761785775 L1956.774663907353,335.4997505827466 " />
			<path d="M392.47388235935784,-47.670774387758335 L1977.583409515998,329.04054381284595 " />
			<path d="M400.20033642501505,-50.06912964409274 L1979.6906242611774,325.30674074332535 " />
			<path d="M545.246951384854,-95.09279877437025 L1979.6906242611774,245.81182493517912 " />
			<path d="M639.2814093884783,-124.28187240544003 L2224.3909365451186,252.42944579516427 " />
			<path d="M660.0901549971236,-130.7410791753406 L2245.1996821537637,245.9702390252637 " />
			<path d="M667.8166090627808,-133.13943443167497 L2247.306896898943,242.23643595574313 " />
			<path d="M812.8632240226196,-178.16310356195254 L2247.306896898943,162.74152014759684 " />
			<path d="M906.897682026244,-207.35217719302224 L2492.0072091828843,169.35914100758205 " />
			<path d="M927.706427634889,-213.8113839629228 L2512.8159547915293,162.8999342376815 " />
			<path d="M935.4328817005464,-216.20973921925722 L2514.923169536709,159.1661311681609 " />
			<path d="M1080.4794966603854,-261.23340834953467 L2514.923169536709,79.67121536001468 " />
			<path d="M1118.2160818302145,-308.42155053576005 L2768.0520521922344,83.67253723121553 " />
			<path d="M1118.2160818302145,-319.8260890086905 L2788.860801419918,77.21333132016997 " />
			<path d="M1118.2160199449158,-324.0606998694532 L2790.968016531497,73.47952833764856 " />
			<path d="M1118.2160199427112,-403.5556156769152 L2790.9680165292925,-6.015387469813447 " />
			<path d="M1116.7564907550116,-272.4940874050902 L12.839366124227745,70.17091984368658 " />
			<path d="M1091.077758506556,-412.8359270924634 L-12.839366124227745,-70.17091984368658 " />
			<path d="M2818.6289322310377,82.22166343232453 L1713.4361242493703,426.0183694973844 " />
			<path d="M2793.1809586059553,-9.09274742030226 L2790.1910673115017,-8.162670088001335 " />
			<path d="M2612.861520523885,46.99993469308589 L2514.2872007340306,77.66383894726363 " />
			<path d="M2337.1515379843086,132.76613145242428 L2246.7862930053957,160.87640627700296 " />
			<path d="M2069.859923130021,215.9135932184251 L1979.2687675102536,244.09414296121702 " />
			<path d="M1802.568308275733,299.061054984426 L1711.7376811706783,327.31609807104326 " />
			<path d="M1688.4187791257164,418.6035507421858 L103.66679271305418,41.977335292801484 " />
			<path d="M1710.7073051574516,326.42285206674126 L281.5248771824537,-13.231285394502613 " />
			<path d="M1956.0347714138597,335.5333319078081 L371.28302584619064,-41.09295723221703 " />
			<path d="M1978.3233020094913,243.3526343167794 L549.1410868646748,-96.30157064016296 " />
			<path d="M2223.6510440516254,252.46302712022583 L638.8992984839564,-124.16326201979928 " />
			<path d="M2245.939574647257,160.2823295291971 L816.7573595024405,-179.3718754277452 " />
			<path d="M2491.267316689391,169.39272233264361 L906.5155711217219,-207.2335668073815 " />
			<path d="M2513.5558472850225,77.21202474161493 L1084.373632140206,-262.4421802153274 " />
			<path d="M2767.3121594835998,83.70611850519413 L1118.2160818302145,-308.21212901956994 " />
			<path d="M2789.6006941261785,-8.474578124076174 L1117.544056365437,-405.8495498515119 " />

       </g>
    </g>
    
</svg>
