<?xml version="1.0" encoding="UTF-8" standalone="no"?>
<svg
   xmlns:svg="http://www.w3.org/2000/svg"
   xmlns="http://www.w3.org/2000/svg"
   width="480.0"
   height="480.0"

>
    <g transform="scale(0.13829168766687805, -0.13829168766687805)   translate(137.85396847831953,-2651.64794386524)" stroke-width="1.0"  fill="none">
       <!-- hidden lines -->
       <g  stroke="rgb(0,0,0)" fill="none" stroke-dasharray="1.0,1.0" >
			<path d="M-62.546789061612174,23.845813352574663 L62.546789061612174,13.154011146833614 " />
			<path d="M65.54304242983312,9.78214538135041 L65.5394333114307,9.935337672257162 L65.52861465090578,10.088777855337536 L65.51061251135918,10.242096279750717 L65.48547026152187,10.39492358798319 L65.45324847127591,10.546891605663328 L65.41402476573629,10.697634228525715 L65.36789363824523,10.846788304388381 L65.31496622272951,10.993994508018218 L65.25537002596896,11.138898206776942 L65.18924862042161,11.28115031496218 L65.11676129834495,11.420408134785495 L65.03808268804704,11.556336181961393 L64.95340233319149,11.688606993918336 L64.86292423617027,11.816901918684763 L64.76686636664407,11.940911882549607 L64.66546013643423,12.060338134647923 L64.5589498420315,12.174892966677906 L64.44759207606424,12.284300406015374 L64.3316551091445,12.388296880556005 L64.21141824358045,12.486631853683615 L64.08717114051274,12.579068427834814 L63.959213122095434,12.665383915205982 L63.82785245040268,12.7453703742277 L63.69340558479843,12.8188351105142 L63.55619641955807,12.885601141081015 L63.416555503578785,12.945507620712492 L63.27481924405826,12.998410229452016 L63.131329096060306,13.04418152028141 L62.98643073991971,13.082711226151977 L62.84047324846801,13.113906525627469 L62.69380824608647,13.137692266499064 L62.54678906161219,13.154011146833616 " />
			<path d="M-62.546789061612174,23.845813352574666 L-62.656877076201205,23.853118816709458 L-62.76681642546247,23.856206803245165 L-62.8764586448292,23.855073142095407 L-62.9856556709855,23.849719364181666 L-63.0942600418144,23.840152699365895 L-63.202125095534,23.826386066687157 L-63.309105168752815,23.808438056915453 L-63.41505579317692,23.78633290744634 L-63.51983389070316,23.7601004695702 L-63.62329796663505,23.729776168160395 L-63.72530830076036,23.695400953834707 L-63.825727136032484,23.65702124765472 L-63.92441886460059,23.614688878437768 L-64.02125021093755,23.568461012766143 L-64.11609041181818,23.518400077788044 L-64.20881139290482,23.464573676914572 " />
			<path d="M64.20881139290483,-23.464573676914565 L64.28458237283847,-23.41675490783045 L64.35871431570453,-23.366402104638105 L64.43113730236969,-23.313562758664805 L64.50178302553931,-23.258286706474035 L64.570584854183,-23.20062608286106 L64.63747789637908,-23.140635271680868 L64.70239906051877,-23.078370854554876 L64.76528711481242,-23.01389155750476 L64.82608274504159,-22.94725819556374 L64.88472861050246,-22.878533615417588 L64.94116939808806,-22.80778263612941 L64.99535187445795,-22.735071988004172 L65.04722493624635,-22.660470249650565 L65.09673965826147,-22.58404778329963 L65.1438493396303,-22.50587666844112 L65.18850954784547,-22.42603063384013 L65.23067816067291,-22.344584987998307 L65.27031540588017,-22.26161654812495 L65.30738389874851,-22.177203567685265 L65.34184867733312,-22.091425662593878 L65.3736772354382,-22.004363736123416 L65.40283955327588,-21.916099902598834 L65.42930812578008,-21.826717409949524 L65.45305798854841,-21.736300561192248 L65.47406674138794,-21.644934634918936 L65.49231456944244,-21.552705804864353 L65.50778426188114,-21.459701058629484 L65.52046122813154,-21.366008115637324 L65.53033351164073,-21.27171534439841 L65.53739180115264,-21.176911679164164 L65.54162943948995,-21.08168653604665 L65.54304242983312,-20.98612972868385 " />
			<path d="M65.54304242983312,9.78214538135041 L65.54304242983312,-20.986129728683846 " />
			<path d="M-15.560488566718487,2220.0362047680933 L61.75365705593963,2213.748990156709 " />
			<path d="M64.7626368487387,2210.3892815902927 L64.75835386850626,2210.5424765347134 L64.74686545627672,2210.695889206531 L64.72819928864138,2210.8491500211812 L64.70240033403304,2211.0018897599375 L64.66953074439309,2211.1537404593914 L64.62966970544198,2211.304336297907 L64.58291324591397,2211.453314476919 L64.52937400621546,2211.6003160949444 L64.46918096706436,2211.7449870122105 L64.40247913876425,2211.886978703805 L64.32942921186192,2212.0259490993067 L64.2502071700297,2212.1615634068603 L64.16500386610537,2212.29349491972 L64.07402456231102,2212.4214258033157 L63.97748843575836,2212.5450478609437 L63.87562805043179,2212.664063276239 L63.7686887969215,2212.7781853306415 L63.65692830125595,2212.8871390941267 L63.54061580425828,2212.990662087534 L63.42003151292152,2213.088504914906 L63.29546592536543,2213.180431864301 L63.1672191310011,2213.266221475646 L63.03560008758924,2213.3456670742535 L62.9009258769339,2213.418577268717 L62.763520941004614,2213.4847764119922 L62.62371630032729,2213.544105024545 L62.48184875652675,2213.596420178551 L62.338260080942156,2213.6415958422212 L62.19329619126986,2213.6795231834258 L62.04730631821742,2213.710110831878 L61.900642164176226,2213.7332850992525 L61.75365705593964,2213.7489901567096 " />
			<path d="M-15.560488566718483,2220.0362047680933 L-15.669885425812694,2220.043022220532 L-15.779117914506703,2220.045671600371 L-15.888040244867,2220.0441493715975 L-15.99650704291515,2220.038457565865 L-16.10437354265222,2220.0286037797828 L-16.211495779271768,2220.014601164778 L-16.31773078130353,2219.996468409543 L-16.422936761431323,2219.9742297150906 L-16.526973305730504,2219.9479147624556 L-16.629701561072448,2219.9175586730807 L-16.73098442044588,2219.8832019619413 L-16.830686705947734,2219.84489048347 L-16.928675349199338,2219.8026753703602 L-17.024819568947073,2219.756612965319 L-17.11899104561054,2219.7067647458694 L-17.211064092545186,2219.6531972422986 " />
			<path d="M-16.870257614803702,2183.5536513010143 L-16.785571458502744,2183.499058139291 L-16.69946937871508,2183.447193569093 L-16.612040058952882,2183.398111009946 L-16.523373549760375,2183.3518610159567 L-16.433561175963472,2183.3084912237437 L-16.34269544260693,2183.2680463033716 L-16.25086993967593,2183.230567912343 L-16.158179245700115,2183.1960946526906 L-16.06471883033955,2183.16466203122 L-15.97058495605275,2183.1363024229354 L-15.875874578948167,2183.111045037697 L-15.78068524892125,2183.088915890133 L-15.685115009179881,2183.0699377728474 L-15.58926229526175,2183.0541302329407 L-15.493225833647589,2183.0415095518806 L-15.397104540074814,2183.032088728729 " />
			<path d="M-15.397104540074785,2183.0320887287294 L61.91704108258333,2176.7448741173453 " />
			<path d="M61.91704108258333,2176.7448741173453 L62.02643794167754,2176.7380566649067 L62.13567043037155,2176.7354072850676 L62.24459276073185,2176.736929513841 L62.35305955878,2176.7426213195736 L62.46092605851706,2176.752475105656 L62.56804829513661,2176.7664777206605 L62.67428329716837,2176.7846104758955 L62.77948927729617,2176.806849170348 L62.88352582159535,2176.833164122983 L62.98625407693729,2176.863520212358 L63.08753693631073,2176.8978769234973 L63.18723922181258,2176.9361884019686 L63.28522786506418,2176.9784035150783 L63.381372084811915,2177.0244659201194 L63.475543561475384,2177.074314139569 L63.56761660841002,2177.12788164314 " />
			<path d="M63.56761660841004,2177.12788164314 L63.6435644507217,2177.1759092106486 L63.71785938995949,2177.2264870611734 L63.790430861507,2177.2795671563604 L63.861209937680755,2177.335099081247 L63.930129393197156,2177.393030092147 L63.99712376902233,2177.453305166745 L64.06212943454454,2177.5158670563565 L64.12508464800989,2177.580656340303 L64.18592961516408,2177.647611482347 L64.24460654604438,2177.7166688891416 L64.30105970986801,2177.787762970627 L64.35523548796466,2177.860826202332 L64.40708242470305,2177.935789189503 L64.45655127636289,2178.0125807330182 L64.50359505790621,2178.0911278970107 L64.54816908760321,2178.171356078142 L64.59023102947057,2178.2531890764594 L64.62974093348176,2178.3365491677714 L64.66666127351115,2178.4213571774676 L64.70095698297602,2178.5075325557177 L64.73259548814247,2178.59499345398 L64.7615467390635,2178.6836568027366 L64.7877832381204,2178.7734383903944 L64.81128006613946,2178.864252943268 L64.83201490606018,2178.9560142065716 L64.84996806413164,2179.048635026342 L64.86512248861756,2179.142027432218 L64.87746378599176,2179.2361027209945 L64.88698023460908,2179.3307715408696 L64.89366279583845,2179.425943976312 L64.89750512264769,2179.52152963346 L64.89850356563187,2179.617437725979 " />
			<path d="M64.7626368487387,2210.3892815902923 L64.89850356563188,2179.617437725979 " />
			<path d="M-14.793987013494633,19.76437340266886 L62.5468030644558,13.154022648421817 " />
			<path d="M-14.793852558974635,2183.9620845348763 L62.546937518975795,2177.3517337806297 " />
			<path d="M66.66665144506564,13.580840563043454 L66.60791013253933,13.547640280281746 L66.54209209617419,13.515136925728692 L66.46935589738479,13.483408802812367 L66.38987676404496,13.452532347359934 L66.30384616834846,13.422581943457036 L66.2114713655357,13.393629744250017 L66.11297489459777,13.365745498122685 L66.0085940421604,13.338996380666329 L65.89858027083979,13.313446832847847 L65.78319861344714,13.28915840576581 L65.66272703450134,13.266189612368475 L65.53745576058814,13.244595786490965 L65.40768658117887,13.224428949551212 L65.27373212159314,13.205737685225815 L64.99456749927165,13.17295832672754 L64.70265040154354,13.146573394137505 L64.40079214963805,13.126836988780015 L64.09189980353354,13.113939183027686 L63.77894816538072,13.108004189800567 L63.46495113053177,13.109089166327834 L63.15293266208054,13.11718366369242 L62.84589766844484,13.132209727459804 L62.5468030644558,13.15402264842182 " />
			<path d="M66.66678589958566,2177.7785516952513 L66.60804458705935,2177.7453514124895 L66.54222655069421,2177.7128480579363 L66.46949035190481,2177.68111993502 L66.39001121856498,2177.6502434795675 L66.30398062286847,2177.620293075665 L66.21160582005572,2177.5913408764577 L66.11310934911778,2177.5634566303306 L66.0087284966804,2177.5367075128743 L65.89871472535981,2177.5111579650556 L65.78333306796716,2177.4868695379737 L65.66286148902137,2177.463900744576 L65.53759021510815,2177.4423069186987 L65.40782103569887,2177.422140081759 L65.27386657611315,2177.4034488174334 L64.99470195379166,2177.3706694589355 L64.70278485606356,2177.3442845263453 L64.40092660415807,2177.324548120988 L64.09203425805356,2177.3116503152355 L63.779082619900734,2177.3057153220084 L63.46508558505179,2177.3068002985356 L63.15306711660055,2177.3148947959003 L62.84603212296486,2177.3299208596677 L62.54693751897582,2177.3517337806297 " />
			<path d="M-14.793987013494629,19.76437340266886 L-15.01751877978437,19.78571259770336 L-15.2333240167975,19.810846267343518 L-15.440164960198297,19.839630255866624 L-15.636855260913624,19.871899470919377 L-15.8222667895117,19.907468830415326 L-15.995336106658488,19.94613432408466 L-16.155070562540036,19.987674183587792 L-16.300553990267098,20.031850154481432 L-16.43095196060723,20.07840886274174 L-16.490256678112836,20.10249878573 L-16.54551656790545,20.127083268006764 L-16.596652364928318,20.152127045470156 L-16.643590719743553,20.177594195203035 L-16.686264303744956,20.203448187001005 L-16.724611905734477,20.229651935771514 L-16.758578519723876,20.256167854728893 L-16.788115423835567,20.28295790930903 L-16.81318025018952,20.309983671726325 L-16.833737045675967,20.337206376094713 L-16.849756323526705,20.36458697403362 L-16.861215105611073,20.392086190679166 L-16.868096955395888,20.419664581020207 L-16.870392001522085,20.44728258647847 " />
			<path d="M-16.870392001522085,20.447282586478472 L-16.867174629188938,20.479980169547215 L-16.857528985926145,20.512612002070746 L-16.84147446773757,20.545112466118532 L-16.81904335795448,20.57741620792319 L-16.79028076231841,20.60945826929752 L-16.755244518279984,20.641174218256097 L-16.714005078696108,20.672500278578756 L-16.6666453701594,20.703373458055395 " />
			<path d="M-14.793852558974626,2183.962084534877 L-15.017384325264366,2183.983423729911 L-15.233189562277497,2184.008557399551 L-15.440030505678294,2184.0373413880743 L-15.63672080639362,2184.0696106031273 L-15.822132334991696,2184.105179962623 L-15.995201652138487,2184.1438454562926 L-16.15493610802003,2184.1853853157954 L-16.300419535747096,2184.229561286689 L-16.43081750608723,2184.2761199949496 L-16.49012222359283,2184.3002099179375 L-16.545382113385447,2184.3247944002146 L-16.596517910408313,2184.349838177678 L-16.64345626522355,2184.375305327411 L-16.68612984922495,2184.4011593192085 L-16.724477451214476,2184.427363067979 L-16.758444065203875,2184.4538789869366 L-16.787980969315562,2184.4806690415166 L-16.813045795669517,2184.507694803934 L-16.833602591155966,2184.5349175083024 L-16.849621869006704,2184.5622981062415 L-16.861080651091072,2184.589797322887 L-16.867962500875887,2184.617375713228 L-16.870257547002083,2184.6449937186862 " />
			<path d="M-16.6666453701594,20.7033734580554 L-5.571144626930596,27.447099684970734 " />
			<path d="M-5.5711446269306,27.447099684970734 L-5.512403314404298,27.480299967732442 L-5.446585278039155,27.512803322285496 L-5.373849079249755,27.54453144520182 L-5.294369945909921,27.575407900654252 L-5.208339350213418,27.60535830455715 L-5.115964547400669,27.63431050376417 L-5.017468076462727,27.6621947498915 L-4.913087224025352,27.68894386734786 L-4.803073452704751,27.71449341516634 L-4.687691795312103,27.738781842248375 L-4.567220216366307,27.76175063564571 L-4.441948942453106,27.78334446152322 L-4.312179763043823,27.803511298462972 L-4.178225303458097,27.822202562788373 L-3.8990606811366093,27.854981921286644 L-3.6071435834085017,27.88136685387668 L-3.3052853315030113,27.90110325923417 L-2.9963929853984967,27.9140010649865 L-2.6834413472456795,27.91993605821362 L-2.369444312396736,27.918851081686352 L-2.0574258439455013,27.910756584321764 L-1.7503908503098056,27.895730520554384 L-1.4512962463207852,27.873917599592367 " />
			<path d="M-5.571010172410593,2191.644810817178 L-5.512268859884291,2191.67801109994 L-5.446450823519147,2191.710514454493 L-5.373714624729747,2191.7422425774093 L-5.294235491389912,2191.773119032862 L-5.2082048956934095,2191.8030694367644 L-5.11583009288066,2191.8320216359716 L-5.0173336219427185,2191.8599058820987 L-4.9129527695053445,2191.886654999555 L-4.802938998184743,2191.9122045473737 L-4.687557340792095,2191.9364929744556 L-4.5670857618462986,2191.959461767853 L-4.441814487933097,2191.9810555937306 L-4.312045308523815,2192.00122243067 L-4.178090848938089,2192.019913694996 L-3.8989262266166014,2192.052693053494 L-3.6070091288884933,2192.079077986084 L-3.3051508769830034,2192.0988143914415 L-2.996258530878489,2192.111712197194 L-2.6833068927256716,2192.117647190421 L-2.369309857876728,2192.1165622138938 L-2.0572913894254934,2192.108467716529 L-1.7502563957897976,2192.0934416527616 L-1.4511617918007773,2192.0716287317996 " />
			<path d="M-1.4512962463207515,27.873917599592367 L75.88949383162968,21.263566845345323 " />
			<path d="M-1.4511617918007502,2192.0716287318 L75.88962828614967,2185.4612779775534 " />
			<path d="M75.88949383162968,21.263566845345323 L76.11302559791942,21.242227650310827 L76.32883083493255,21.21709398067067 L76.53567177833334,21.188309992147563 L76.73236207904867,21.15604077709481 L76.91777360764675,21.12047141759886 L77.09084292479353,21.081805923929526 L77.25057738067508,21.040266064426394 L77.39606080840214,20.996090093532754 L77.52645877874228,20.94953138527245 L77.58576349624788,20.925441462284187 L77.6410233860405,20.900856980007422 L77.69215918306335,20.87581320254403 L77.73909753787859,20.85034605281115 L77.78177112188,20.82449206101318 L77.82011872386953,20.798288312242672 L77.85408533785892,20.771772393285293 L77.88362224197061,20.744982338705157 L77.90868706832457,20.71795657628786 L77.92924386381101,20.690733871919473 L77.94526314166175,20.663353273980565 L77.95672192374612,20.635854057335024 L77.96360377353093,20.608275666993983 L77.96589881965713,20.58065766153572 " />
			<path d="M77.96589881965713,20.580657661535714 L77.96268144732399,20.547960078466975 L77.95303580406119,20.515328245943444 L77.93698128587262,20.482827781895654 L77.91455017608953,20.450524040090997 L77.88578758045345,20.418481978716667 L77.85075133641503,20.38676602975809 L77.80951189683115,20.35543996943543 L77.76215218829445,20.324566789958787 " />
			<path d="M75.88962828614969,2185.461277977553 L76.04177205538376,2185.4472496914896 L76.1905600350543,2185.431461936402 L76.3356008431976,2185.413956241468 L76.47651295466333,2185.3947786548524 L76.61292570470417,2185.3739796225755 L76.7444802639973,2185.3516138558184 L76.87083058253342,2185.327740187007 L76.99164429989001,2185.3024214150532 " />
			<path d="M66.66665144506565,13.580840563043452 L77.76215218829445,20.324566789958787 " />
			<path d="M66.66678589958565,2177.7785516952513 L77.76228664281444,2184.5222779221663 " />
			<path d="M127.90256565593144,106.49387122140433 L205.24335572313453,99.88352045647761 " />
			<path d="M127.90256565593141,2270.6915005591613 L205.24335572313447,2264.0811497942345 " />
			<path d="M209.3632041044383,100.3103389078046 L209.30446279185801,100.27713859868821 L209.23864475544002,100.24463521784496 L209.16590855659902,100.21290706876626 L209.086429423209,100.1820305873423 L209.0003988274638,100.15208015772129 L208.90802402460398,100.12312793311153 L208.8095275536207,100.09524366195805 L208.70514670113982,100.06849451991239 L208.5951329297777,100.04294494800071 L208.47975127234557,100.01865649737962 L208.35927969336242,99.99568768105408 L208.2340084194141,99.97409383291446 L208.10423923997203,99.9539269744323 L207.9702847803559,99.93523568933612 L207.69112015798115,99.90245629180932 L207.39920306021014,99.87607132385125 L207.09734480827254,99.85633488712683 L206.78845246214706,99.84343705431078 L206.4755008239846,99.83750203858378 L206.1615037891374,99.83858699739169 L205.84948532069933,99.84668148198809 L205.54245032708806,99.86170753806142 L205.2433557231345,99.88352045647761 " />
			<path d="M209.36320410443827,2264.5079682455616 L209.304462791858,2264.474767936445 L209.23864475544,2264.442264555602 L209.165908556599,2264.410536406523 L209.08642942320898,2264.3796599250995 L209.00039882746378,2264.3497094954782 L208.90802402460395,2264.3207572708684 L208.80952755362068,2264.292872999715 L208.7051467011398,2264.2661238576693 L208.59513292977766,2264.2405742857577 L208.47975127234554,2264.2162858351367 L208.3592796933624,2264.1933170188113 L208.23400841941407,2264.1717231706716 L208.104239239972,2264.1515563121893 L207.97028478035588,2264.132865027093 L207.69112015798112,2264.1000856295664 L207.3992030602101,2264.073700661608 L207.0973448082725,2264.0539642248837 L206.78845246214703,2264.041066392068 L206.47550082398456,2264.035131376341 L206.16150378913738,2264.0362163351488 L205.8494853206993,2264.044310819745 L205.54245032708803,2264.0593368758186 L205.24335572313447,2264.0811497942345 " />
			<path d="M127.90256565593145,106.49387122140435 L127.67903389231245,106.51521041773165 L127.46322865777594,106.54034409164696 L127.25638771661377,106.56912808740647 L127.05969741785782,106.60139731261933 L126.87428589090156,106.63696668514527 L126.70121657504417,106.67563219464462 L126.54148212006838,106.71717207269232 L126.3959986928363,106.76134806474442 L126.26560072255754,106.80790679666181 L126.20629600491412,106.83199673237573 L126.1510361148688,106.85658122795324 L126.0999003174768,106.88162501927428 L126.05296196217478,106.90709218340267 L126.01028837756802,106.93294619011424 L125.97194077485396,106.95914995429592 L125.93797416002059,106.98566588914088 L125.90843725494551,107.0124559600631 L125.88337242750912,107.03948173925446 L125.8628156308219,107.06670446080577 L125.84679635165304,107.09408507631274 L125.83533756813455,107.12158431088723 L125.8284557168013,107.14916271949333 L125.8261606690143,107.17678074352753 " />
			<path d="M125.8261606690143,107.17678074352753 L125.82937803957662,107.20947835067264 L125.83902368159278,107.24211020761857 L125.8550781990598,107.27461069638035 L125.87750930864532,107.30691446313563 L125.90627190460448,107.33895654964175 L125.94130814948137,107.37067252385756 L125.98254759041168,107.40199860950693 L126.02990730079335,107.43287181432372 " />
			<path d="M127.90256565593143,2270.6915005591613 L127.67903389231242,2270.712839755489 L127.46322865777591,2270.737973429404 L127.25638771661374,2270.7667574251636 L127.05969741785779,2270.7990266503766 L126.87428589090153,2270.834596022902 L126.70121657504414,2270.8732615324016 L126.54148212006835,2270.9148014104494 L126.39599869283627,2270.9589774025017 L126.26560072255751,2271.005536134419 L126.2062960049141,2271.029626070133 L126.15103611486877,2271.0542105657105 L126.09990031747677,2271.0792543570315 L126.05296196217475,2271.1047215211597 L126.01028837756799,2271.1305755278713 L125.97194077485393,2271.156779292053 L125.93797416002056,2271.183295226898 L125.90843725494548,2271.21008529782 L125.88337242750909,2271.2371110770114 L125.86281563082187,2271.264333798563 L125.84679635165301,2271.2917144140697 L125.83533756813452,2271.319213648644 L125.82845571680127,2271.3467920572502 L125.82616066901427,2271.3744100812846 " />
			<path d="M126.02990730079337,107.43287181432372 L137.12540805498654,114.17660334529013 " />
			<path d="M137.12540805498654,114.17660334529013 L137.18414936756682,114.20980365440653 L137.2499674039848,114.24230703524978 L137.3227036028258,114.27403518432848 L137.40218273621582,114.30491166575244 L137.48821333196102,114.33486209537345 L137.58058813482086,114.3638143199832 L137.67908460580412,114.39169859113669 L137.783465458285,114.41844773318235 L137.89347922964714,114.44399730509403 L138.00886088707927,114.46828575571512 L138.1293324660624,114.49125457204066 L138.25460374001074,114.51284842018028 L138.3843729194528,114.53301527866243 L138.51832737906892,114.55170656375861 L138.7974920014437,114.58448596128542 L139.0894090992147,114.61087092924349 L139.3912673511523,114.6306073659679 L139.70015969727777,114.64350519878396 L140.01311133544024,114.64944021451096 L140.32710837028742,114.64835525570305 L140.6391268387255,114.64026077110665 L140.94616183233674,114.62523471503332 L141.2452564362903,114.60342179661713 " />
			<path d="M137.1254080549865,2278.374232683047 L137.1841493675668,2278.4074329921636 L137.24996740398478,2278.4399363730067 L137.32270360282578,2278.4716645220856 L137.4021827362158,2278.502541003509 L137.488213331961,2278.5324914331304 L137.58058813482083,2278.5614436577403 L137.6790846058041,2278.5893279288935 L137.78346545828498,2278.6160770709394 L137.8934792296471,2278.641626642851 L138.00886088707924,2278.665915093472 L138.12933246606238,2278.6888839097974 L138.2546037400107,2278.710477757937 L138.38437291945277,2278.7306446164193 L138.5183273790689,2278.7493359015157 L138.79749200144366,2278.7821152990423 L139.08940909921466,2278.8085002670005 L139.39126735115227,2278.828236703725 L139.70015969727774,2278.8411345365407 L140.01311133544021,2278.847069552268 L140.3271083702874,2278.84598459346 L140.63912683872547,2278.8378901088636 L140.9461618323367,2278.82286405279 L141.24525643629028,2278.801051134374 " />
			<path d="M141.24525643629033,114.60342179661711 L218.58604650349338,107.99307103169039 " />
			<path d="M141.24525643629028,2278.801051134374 L218.58604650349338,2272.1907003694473 " />
			<path d="M218.5860465034934,107.99307103169039 L218.8095782671124,107.97173183536309 L219.02538350164892,107.94659816144778 L219.2322244428111,107.91781416568827 L219.42891474156704,107.88554494047541 L219.61432626852329,107.84997556794947 L219.7873955843807,107.81131005845012 L219.94713003935647,107.76977018040242 L220.09261346658855,107.72559418835031 L220.22301143686732,107.67903545643293 L220.28231615451074,107.65494552071902 L220.33757604455607,107.6303610251415 L220.38871184194807,107.60531723382046 L220.43565019725008,107.57985006969207 L220.47832378185683,107.5539960629805 L220.51667138457088,107.52779229879881 L220.55063799940427,107.50127636395386 L220.58017490447935,107.47448629303165 L220.60523973191573,107.44746051384028 L220.62579652860296,107.42023779228897 L220.64181580777182,107.392857176782 L220.6532745912903,107.36535794220751 L220.66015644262356,107.3377795336014 L220.66245149041055,107.31016150956721 " />
			<path d="M220.66245149041055,107.31016150956721 L220.65923411984824,107.2774639024221 L220.64958847783208,107.24483204547617 L220.63353396036504,107.21233155671439 L220.61110285077956,107.18002778995911 L220.58234025482037,107.14798570345299 L220.54730400994347,107.11626972923717 L220.50606456901318,107.0849436435878 L220.4587048586315,107.05407043877102 " />
			<path d="M218.58604650349338,2272.1907003694478 L218.64700170012676,2272.1853280529226 " />
			<path d="M209.36320410443835,100.3103389078046 L220.4587048586315,107.05407043877102 " />
			<path d="M209.36320410443832,2264.5079682455616 L220.45870485863148,2271.251699776528 " />
			<path d="M270.5991323174538,193.22338053104838 L347.9399223846569,186.61302976612163 " />
			<path d="M270.5991323174537,2357.4210098688054 L347.9399223846568,2350.8106591038786 " />
			<path d="M352.0597707659607,187.03984821744862 L352.0010294533804,187.00664790833224 L351.93521141696243,186.974144527489 L351.86247521812146,186.9424163784103 L351.7829960847314,186.9115398969863 L351.6969654889862,186.88158946736533 L351.6045906861264,186.85263724275558 L351.5060942151431,186.82475297160207 L351.40171336266224,186.79800382955642 L351.29169959130013,186.77245425764474 L351.17631793386795,186.74816580702364 L351.0558463548848,186.72519699069812 L350.93057508093653,186.70360314255848 L350.80080590149447,186.68343628407635 L350.66685144187835,186.66474499898015 L350.38768681950353,186.63196560145335 L350.09576972173255,186.60558063349526 L349.793911469795,186.58584419677086 L349.4850191236695,186.57294636395483 L349.172067485507,186.56701134822782 L348.85807045065985,186.56809630703572 L348.54605198222174,186.57619079163211 L348.2390169886105,186.59121684770545 L347.93992238465694,186.61302976612166 " />
			<path d="M352.05977076596065,2351.2374775552057 L352.00102945338034,2351.204277246089 L351.9352114169624,2351.171773865246 L351.8624752181214,2351.140045716167 L351.78299608473134,2351.1091692347436 L351.69696548898617,2351.0792188051223 L351.60459068612636,2351.0502665805125 L351.50609421514304,2351.0223823093593 L351.4017133626622,2350.9956331673134 L351.2916995913001,2350.970083595402 L351.1763179338679,2350.9457951447807 L351.05584635488475,2350.9228263284554 L350.9305750809365,2350.9012324803157 L350.8008059014944,2350.8810656218334 L350.6668514418783,2350.862374336737 L350.3876868195035,2350.8295949392104 L350.0957697217325,2350.8032099712523 L349.7939114697949,2350.7834735345277 L349.4850191236694,2350.770575701712 L349.17206748550694,2350.764640685985 L348.8580704506598,2350.765725644793 L348.5460519822217,2350.773820129389 L348.23901698861044,2350.7888461854627 L347.9399223846569,2350.8106591038786 " />
			<path d="M270.5991323174538,193.22338053104835 L270.37560055383483,193.24471972737564 L270.1597953192983,193.26985340129093 L269.95295437813616,193.29863739705044 L269.7562640793802,193.3309066222633 L269.5708525524239,193.36647599478925 L269.3977832365665,193.4051415042886 L269.23804878159075,193.4466813823363 L269.09256535435867,193.4908573743884 L268.9621673840799,193.5374161063058 L268.9028626664365,193.56150604201972 L268.84760277639117,193.58609053759724 L268.79646697899915,193.61113432891827 L268.74952862369713,193.63660149304664 L268.7068550390904,193.6624554997582 L268.66850743637633,193.6886592639399 L268.63454082154294,193.71517519878486 L268.60500391646787,193.7419652697071 L268.5799390890315,193.76899104889844 L268.55938229234425,193.79621377044975 L268.5433630131754,193.8235943859567 L268.5319042296569,193.85109362053123 L268.5250223783236,193.87867202913733 L268.52272733053667,193.90629005317152 " />
			<path d="M268.52272733053667,193.90629005317152 L268.525944701099,193.93898766031663 L268.53559034311513,193.97161951726255 L268.55164486058214,194.00412000602435 L268.57407597016766,194.0364237727796 L268.6028385661268,194.06846585928574 L268.6378748110037,194.10018183350155 L268.67911425193404,194.13150791915092 L268.7264739623157,194.16238112396772 " />
			<path d="M270.5991323174537,2357.4210098688054 L270.4410198648002,2357.4356311736024 L270.28655162462655,2357.452152587689 L270.1361667884829,2357.4705271365833 L269.99029293778807,2357.490702576882 L269.8493448281094,2357.5126215448 L269.71372320990986,2357.536221719271 L269.58381368911506,2357.561435999141 L269.45998563073965,2357.5881926939524 L269.3425911086911,2357.6164157277813 L269.23196390473623,2357.646024855536 L269.1284185594765,2357.6769358911165 L269.0322494780312,2357.7090609467764 L268.9437300929708,2357.7423086830076 L268.8631120868799,2357.776584568243 L268.7906246767614,2357.811791147633 L268.72647396231565,2357.8478283201325 " />
			<path d="M268.7264739623157,194.16238112396772 L279.82197471650886,200.9061126549341 " />
			<path d="M279.82197471650886,200.9061126549341 L279.88071602908917,200.9393129640505 L279.94653406550714,200.97181634489374 L280.0192702643481,201.00354449397244 L280.0987493977382,201.03442097539642 L280.18477999348335,201.0643714050174 L280.27715479634315,201.09332362962715 L280.3756512673265,201.12120790078066 L280.48003211980733,201.1479570428263 L280.59004589116944,201.173506614738 L280.7054275486016,201.1977950653591 L280.82589912758476,201.2207638816846 L280.95117040153303,201.24235772982425 L281.0809395809751,201.26252458830638 L281.2148940405912,201.28121587340257 L281.49405866296604,201.31399527092938 L281.785975760737,201.34038023888746 L282.0878340126746,201.36011667561186 L282.3967263588001,201.3730145084279 L282.70967799696257,201.3789495241549 L283.0236750318097,201.377864565347 L283.3356935002478,201.3697700807506 L283.64272849385907,201.35474402467727 L283.94182309781263,201.3329311062611 " />
			<path d="M283.9418230978127,201.33293110626116 L361.2826131650158,194.7225803413344 " />
			<path d="M283.94182309781263,2365.530560444018 L284.25362322084277,2365.5039107526977 " />
			<path d="M361.2826131650158,194.72258034133438 L361.50614492863474,194.7012411450071 L361.72195016317124,194.6761074710918 L361.9287911043334,194.64732347533229 L362.1254814030894,194.6150542501194 L362.31089293004567,194.57948487759347 L362.48396224590306,194.54081936809413 L362.6436967008788,194.49927949004643 L362.7891801281109,194.45510349799432 L362.91957809838965,194.40854476607691 L362.9788828160331,194.384454830363 L363.0341427060784,194.35987033478548 L363.0852785034704,194.33482654346446 L363.13221685877244,194.3093593793361 L363.1748904433792,194.28350537262452 L363.21323804609324,194.25730160844282 L363.2472046609266,194.23078567359786 L363.2767415660017,194.20399560267563 L363.3018063934381,194.17696982348428 L363.3223631901253,194.14974710193297 L363.3383824692942,194.12236648642602 L363.34984125281267,194.0948672518515 L363.35672310414594,194.0672888432454 L363.3590181519329,194.0396708192112 " />
			<path d="M363.3590181519329,194.0396708192112 L363.3558007813706,194.0069732120661 L363.34615513935444,193.97434135512017 L363.3301006218874,193.94184086635838 L363.3076695123019,193.9095370996031 L363.27890691634275,193.877495013097 L363.24387067146586,193.84577903888118 L363.20263123053553,193.8144529532318 L363.15527152015386,193.783579748415 " />
			<path d="M352.0597707659607,187.03984821744862 L363.15527152015386,193.783579748415 " />
			<path d="M352.05977076596065,2351.2374775552057 L363.1552715201538,2357.981209086172 " />
			<path d="M413.2956989789761,279.9528898406923 L490.6364890461792,273.3425390757656 " />
			<path d="M413.295698978976,2444.1505191784495 L490.6364890461791,2437.5401684135227 " />
			<path d="M494.756337427483,273.7693575270926 L494.6975961149027,273.7361572179762 L494.63177807848473,273.70365383713295 L494.55904187964376,273.6719256880542 L494.4795627462537,273.64104920663027 L494.3935321505085,273.61109877700926 L494.3011573476487,273.58214655239954 L494.2026608766654,273.55426228124605 L494.09828002418453,273.5275131392004 L493.9882662528224,273.5019635672887 L493.87288459539025,273.4776751166676 L493.7524130164071,273.4547063003421 L493.62714174245883,273.43311245220247 L493.49737256301677,273.4129455937203 L493.36341810340065,273.3942543086241 L493.0842534810258,273.36147491109733 L492.79233638325485,273.3350899431392 L492.4904781313173,273.31535350641485 L492.18158578519177,273.3024556735988 L491.8686341470293,273.2965206578718 L491.55463711218215,273.2976056166797 L491.24261864374404,273.3057001012761 L490.9355836501328,273.3207261573494 L490.63648904617924,273.3425390757656 " />
			<path d="M494.75633742748295,2437.96698686485 L494.69759611490264,2437.933786555733 L494.6317780784847,2437.90128317489 L494.5590418796437,2437.869555025811 L494.47956274625363,2437.8386785443877 L494.39353215050846,2437.8087281147664 L494.30115734764865,2437.7797758901565 L494.20266087666533,2437.7518916190033 L494.0982800241845,2437.7251424769574 L493.98826625282237,2437.699592905046 L493.8728845953902,2437.675304454425 L493.75241301640705,2437.6523356380994 L493.6271417424588,2437.6307417899598 L493.4973725630167,2437.6105749314775 L493.3634181034006,2437.591883646381 L493.08425348102577,2437.5591042488545 L492.7923363832548,2437.5327192808963 L492.4904781313172,2437.512982844172 L492.1815857851917,2437.500085011356 L491.86863414702924,2437.494149995629 L491.5546371121821,2437.495234954437 L491.242618643744,2437.503329439033 L490.93558365013274,2437.518355495107 L490.6364890461792,2437.5401684135227 " />
			<path d="M413.29569897897613,279.95288984069236 L413.0721672153572,279.97422903701965 L412.8563619808207,279.999362710935 L412.6495210396585,280.0281467066945 L412.4528307409025,280.06041593190736 L412.26741921394625,280.09598530443327 L412.09434989808886,280.13465081393264 L411.9346154431131,280.1761906919803 L411.789132015881,280.22036668403246 L411.6587340456023,280.2669254159498 L411.59942932795883,280.2910153516637 L411.5441694379135,280.31559984724123 L411.4930336405215,280.34064363856226 L411.4460952852195,280.3661108026907 L411.40342170061274,280.3919648094022 L411.3650740978987,280.41816857358396 L411.3311074830653,280.4446845084289 L411.3015705779902,280.4714745793511 L411.27650575055384,280.49850035854246 L411.2559489538666,280.52572308009377 L411.23992967469775,280.5531036956007 L411.22847089117926,280.58060293017525 L411.221589039846,280.6081813387813 L411.219293992059,280.63579936281553 " />
			<path d="M411.219293992059,280.63579936281553 L411.22251136262133,280.66849696996064 L411.2321570046375,280.70112882690654 L411.2482115221045,280.73362931566834 L411.27064263169,280.7659330824236 L411.2994052276492,280.7979751689298 L411.33444147252607,280.82969114314557 L411.3756809134564,280.86101722879494 L411.42304062383806,280.8918904336117 " />
			<path d="M413.2956989789761,2444.1505191784495 L413.13758652632254,2444.1651404832464 L412.9831182861489,2444.181661897333 L412.83273345000526,2444.2000364462274 L412.6868595993104,2444.220211886526 L412.54591148963175,2444.242130854444 L412.4102898714322,2444.265731028915 L412.2803803506374,2444.290945308785 L412.156552292262,2444.3177020035964 L412.0391577702135,2444.3459250374253 L411.9285305662586,2444.37553416518 L411.8249852209988,2444.4064452007606 L411.72881613955354,2444.4385702564205 L411.64029675449314,2444.4718179926517 L411.55967874840223,2444.506093877887 L411.48719133828376,2444.541300457277 L411.423040623838,2444.5773376297766 " />
			<path d="M411.42304062383806,280.8918904336117 L422.5185413780312,287.63562196457815 " />
			<path d="M422.5185413780312,287.6356219645781 L422.5772826906115,287.6688222736945 L422.6431007270295,287.70132565453775 L422.71583692587046,287.7330538036165 L422.79531605926053,287.76393028504043 L422.8813466550057,287.79388071466144 L422.9737214578655,287.82283293927117 L423.07221792884883,287.85071721042465 L423.1765987813297,287.8774663524703 L423.2866125526918,287.903015924382 L423.401994210124,287.9273043750031 L423.5224657891071,287.9502731913286 L423.6477370630554,287.97186703946824 L423.77750624249745,287.9920338979504 L423.9114607021136,288.0107251830466 L424.1906253244884,288.04350458057337 L424.48254242225937,288.0698895485315 L424.78440067419695,288.08962598525585 L425.09329302032245,288.1025238180719 L425.4062446584849,288.1084588337989 L425.72024169333207,288.107373874991 L426.0322601617702,288.0992793903946 L426.3392951553814,288.0842533343213 L426.638389759335,288.0624404159051 " />
			<path d="M426.638389759335,288.06244041590503 L503.9791798265381,281.45208965097834 " />
			<path d="M503.9791798265381,281.45208965097834 L504.20271159015704,281.43075045465105 L504.41851682469354,281.4056167807357 L504.6253577658557,281.3768327849762 L504.8220480646117,281.34456355976334 L505.00745959156797,281.30899418723743 L505.18052890742536,281.27032867773806 L505.3402633624011,281.2287887996904 L505.4857467896332,281.18461280763825 L505.61614475991195,281.1380540757209 L505.6754494775554,281.113964140007 L505.7307093676007,281.08937964442947 L505.7818451649927,281.06433585310845 L505.82878352029473,281.03886868898 L505.8714571049015,281.0130146822685 L505.90980470761554,280.98681091808675 L505.9437713224489,280.9602949832418 L505.973308227524,280.9335049123196 L505.9983730549604,280.90647913312824 L506.0189298516476,280.87925641157693 L506.03494913081647,280.85187579607 L506.04640791433496,280.82437656149546 L506.05328976566824,280.7967981528894 L506.0555848134552,280.76918012885517 " />
			<path d="M506.0555848134552,280.76918012885517 L506.0523674428929,280.73648252171006 L506.04272180087673,280.70385066476416 L506.0266672834097,280.67135017600236 L506.0042361738242,280.6390464092471 L505.97547357786505,280.6070043227409 L505.94043733298815,280.57528834852513 L505.8991978920578,280.54396226287577 L505.85183818167616,280.513089058059 " />
			<path d="M494.756337427483,273.7693575270926 L505.85183818167616,280.51308905805905 " />
			<path d="M494.75633742748295,2437.96698686485 L505.8518381816761,2444.710718395816 " />
			<path d="M560.4866115648557,369.4140136598404 L637.8274016308834,362.8036628941993 " />
			<path d="M560.4864927977818,2533.611570812164 L637.8272828638095,2527.001220046523 " />
			<path d="M641.9472500122631,363.2304818196444 L641.8885086996769,363.1972814872628 L641.8226906632532,363.1647780832105 L641.7499544644065,363.13304991103473 L641.670475331011,363.10217340668135 L641.5844447352605,363.0722229543539 L641.4920699323955,363.0432707073153 L641.3935734614073,363.01538641406455 L641.2891926089217,362.98863725030657 L641.179178837555,362.96308765711973 L641.0637971801185,362.9387991857119 L640.9433256011313,362.91583034913816 L640.8180543271791,362.8942364813376 L640.6882851477335,362.87406960382924 L640.5543306881141,362.8553783003873 L640.2751660657334,362.8225988683855 L639.9832489679577,362.7962138691815 L639.6813907160166,362.7764774047411 L639.3724983698888,362.76357954800596 L639.0595467317254,362.75764451238706 L638.7455496968784,362.75872945552186 L638.4335312284417,362.7668239288149 L638.1264962348331,362.7818499780635 L637.8274016308834,362.8036628941993 " />
			<path d="M641.9471312451892,2527.4280389719675 L641.888389932603,2527.394838639586 L641.8225718961793,2527.3623352355335 L641.7498356973326,2527.330607063358 L641.670356563937,2527.2997305590043 L641.5843259681866,2527.269780106677 L641.4919511653216,2527.2408278596386 L641.3934546943334,2527.212943566388 L641.2890738418478,2527.1861944026296 L641.1790600704811,2527.1606448094426 L641.0636784130446,2527.136356338035 L640.9432068340574,2527.113387501461 L640.8179355601052,2527.091793633661 L640.6881663806596,2527.0716267561525 L640.5542119210402,2527.0529354527102 L640.2750472986595,2527.020156020709 L639.9831302008838,2526.9937710215045 L639.6812719489427,2526.974034557064 L639.3723796028149,2526.961136700329 L639.0594279646515,2526.9552016647103 L638.7454309298045,2526.956286607845 L638.4334124613678,2526.964381081138 L638.1263774677592,2526.979407130387 L637.8272828638095,2527.0012200465226 " />
			<path d="M560.4866115648557,369.41401365984035 L560.263079803517,369.43535285728865 L560.0472745710885,369.46048653495956 L559.8404336318242,369.4892705370906 L559.6437433347207,369.52153977125784 L559.4583318091388,369.55710915527345 L559.2852624943474,369.5957746787362 L559.125528040103,369.6373145731454 L558.9800446132441,369.6814905838682 L558.8496466429613,369.7280493366637 L558.7903419251693,369.7521392836092 L558.7350820348756,369.7767237909264 L558.6839462371341,369.8017675944791 L558.6370078813806,369.8272347713143 L558.5943342962192,369.8530887911904 L558.5559866928473,369.87929256897615 L558.5220200772526,369.9058085178461 L558.4924831713128,369.9325986031947 L558.4674183429084,369.9596243971942 L558.4468615451508,369.98684713391475 L558.43084226481,370.01422776493126 L558.4193834800194,370.04172701533406 L558.4125016273151,370.06930544006536 L558.41020657806,370.09692348049936 " />
			<path d="M558.41020657806,370.09692348049936 L558.4134239470529,370.12962110886747 L558.4230695879525,370.1622529873423 L558.4391241047566,370.19475349789093 L558.4615552141319,370.2270572866426 L558.4903178103308,370.259099395306 L558.5253540558929,370.2908153917908 L558.5665934979475,370.32214149977165 L558.6139532098846,370.35301472693317 " />
			<path d="M560.4864927977818,2533.611570812164 L560.3283803497301,2533.626192117178 L560.1739121139311,2533.642713532717 L560.0235272818969,2533.661088084299 L559.8776534350093,2533.681263528515 L559.7367053288004,2533.7031825015724 L559.6010837137,2533.726782682394 L559.4711741956019,2533.751996969811 L559.3473461394914,2533.77875367335 L559.229951619249,2533.806976717065 L559.1193244166168,2533.8365858558423 L559.0157790721737,2533.867496903555 L558.9196099910197,2533.8996219724277 L558.831090605708,2533.9328697229193 L558.7504725988094,2533.967145623428 L558.6779851873155,2534.0023522190672 L558.6138344709185,2534.0383894087513 " />
			<path d="M558.6139532098846,370.3530147269332 L569.7094539652769,377.09675094008946 " />
			<path d="M569.7094539652768,377.09675094008946 L569.768195277863,377.1299512724711 L569.8340133142867,377.1624546765234 L569.9067495131334,377.19418284869914 L569.986228646529,377.22505935305253 L570.0722592422794,377.25500980538 L570.1646340451445,377.2839620524186 L570.2631305161326,377.3118463456693 L570.3675113686182,377.3385955094273 L570.4775251399849,377.36414510261415 L570.5929067974214,377.388433574022 L570.7133783764086,377.4114024105957 L570.8386496503608,377.4329962783963 L570.9684188298064,377.45316315590463 L571.1023732894258,377.47185445934656 L571.3815379118065,377.50463389134836 L571.6734550095822,377.5310188905524 L571.9753132615233,377.55075535499276 L572.2842056076511,377.5636532117279 L572.5971572458145,377.5695882473468 L572.9111542806615,377.568503304212 L573.2231727490982,377.56040883091896 L573.5302077427068,377.54538278167036 L573.8293023466565,377.5235698655346 " />
			<path d="M653.1022195541168,370.01377658459165 L653.0427507676553,369.97421803280065 " />
			<path d="M641.9472500122629,363.23048181964435 L653.0427507676552,369.9742180328006 " />
			<path d="M641.9471312451892,2527.4280389719684 L653.0426320005813,2534.1717751851243 " />
			<path d="M651.4018102606481,2535.088555275464 L558.4100908750002,2478.4613993989083 " />
			<path d="M504.44552002399064,2445.5997619802206 L411.21929399205897,2388.829803663825 " />
			<path d="M361.9688056691187,2358.838799113262 L268.5227273305366,2301.934962093249 " />
			<path d="M219.48432893442725,2272.073109357771 L125.82616066901427,2215.040120522673 " />
			<path d="M75.889628234589,2184.6313505291664 L63.56761660841004,2177.1278816431395 " />
			<path d="M-16.870390026569485,52.236380544097614 L-16.870392001522088,20.447282586478472 " />
			<path d="M77.96590436734083,109.87690736236937 L77.96589881965711,20.580657661535717 " />
			<path d="M125.8261606690143,138.96588014980793 L125.8261606690143,107.17678074352752 " />
			<path d="M220.66245149041058,196.60640479674234 L220.66245149041058,107.31016150956722 " />
			<path d="M268.52272733053667,225.695389459452 L268.52272733053667,193.90629005317157 " />
			<path d="M363.3590181519329,283.3359141063863 L363.3590181519329,194.0396708192112 " />
			<path d="M411.21929399205897,312.424898769096 L411.21929399205897,280.6357993628155 " />
			<path d="M506.0555848134552,370.0654234160303 L506.0555848134552,280.76918012885517 " />
			<path d="M558.4102060981759,378.8414675535741 L558.41020657806,370.09692348049936 " />

       </g>

       <!-- solid lines -->
       <g  stroke="rgb(0,0,0)" fill="none">
			<path d="M526.0765484171677,381.6050392548563 L651.170126540392,370.91323704911525 " />
			<path d="M654.1663799086128,367.5413712836321 L654.1627707902105,367.69456357453885 L654.1519521296856,367.8480037576192 L654.133949990139,368.00132218203237 L654.1088077403017,368.15414949026484 L654.0765859500557,368.306117507945 L654.0373622445161,368.4568601308074 L653.991231117025,368.60601420667 L653.9383037015093,368.7532204102999 L653.8787075047487,368.8981241090586 L653.8125860992013,369.0403762172438 L653.7400987771248,369.17963403706716 L653.6614201668268,369.315562084243 L653.5767398119713,369.4478328962 L653.48626171495,369.5761278209664 L653.3902038454238,369.70013778483127 L653.288797615214,369.8195640369296 L653.1822873208113,369.93411886895956 L653.070929554844,370.04352630829703 L652.9549925879243,370.14752278283765 L652.8347557223602,370.2458577559653 L652.7105086192926,370.33829433011647 L652.5825506008752,370.42460981748764 L652.4511899291824,370.50459627650935 L652.3167430635782,370.57806101279584 L652.1795338983378,370.6448270433627 L652.0398929823585,370.70473352299416 L651.898156722838,370.75763613173365 L651.75466657484,370.80340742256305 L651.6097682186995,370.84193712843364 L651.4638107272477,370.8731324279091 L651.3171457248662,370.8969181687807 L651.170126540392,370.91323704911525 " />
			<path d="M-64.20881139290483,23.464573676914565 L-64.28458237283847,23.41675490783045 L-64.35871431570453,23.366402104638105 L-64.43113730236969,23.313562758664805 L-64.50178302553931,23.258286706474035 L-64.570584854183,23.20062608286106 L-64.63747789637908,23.140635271680864 L-64.70239906051877,23.078370854554876 L-64.76528711481242,23.01389155750476 L-64.82608274504159,22.94725819556374 L-64.88472861050246,22.878533615417588 L-64.94116939808806,22.80778263612941 L-64.99535187445795,22.735071988004172 L-65.04722493624635,22.660470249650565 L-65.09673965826147,22.584047783299635 L-65.1438493396303,22.50587666844112 L-65.18850954784547,22.42603063384013 L-65.23067816067291,22.344584987998307 L-65.27031540588017,22.26161654812495 L-65.30738389874851,22.177203567685265 L-65.34184867733312,22.091425662593878 L-65.3736772354382,22.004363736123416 L-65.40283955327588,21.916099902598834 L-65.42930812578008,21.826717409949524 L-65.45305798854841,21.736300561192248 L-65.47406674138794,21.644934634918936 L-65.49231456944244,21.552705804864353 L-65.50778426188114,21.459701058629488 L-65.52046122813154,21.366008115637324 L-65.53033351164073,21.27171534439841 L-65.53739180115264,21.176911679164164 L-65.54162943948995,21.08168653604665 L-65.54304242983312,20.986129728683874 " />
			<path d="M526.0765484171677,381.6050392548563 L525.9664604025787,381.6123447189911 L525.8565210533175,381.6154327055268 L525.7468788339507,381.61429904437705 L525.6376818077944,381.6089452664633 L525.5290774369655,381.5993786016476 L525.4212123832459,381.5856119689688 L525.314232310027,381.5676639591971 L525.208281685603,381.545558809728 L525.1035035880767,381.5193263718519 L525.0000395121449,381.48900207044204 L524.8980291780196,381.45462685611636 L524.7976103427474,381.4162471499364 L524.6989186141793,381.3739147807194 L524.6020872678423,381.3276869150478 L524.5072470669617,381.27762598006973 L524.4145260858751,381.2237995791962 " />
			<path d="M524.4145260858751,381.2237995791962 L524.3387551059415,381.1759808101121 L524.2646231630754,381.1256280069198 L524.1922001764102,381.07278866094646 L524.1215544532406,381.0175126087557 L524.0527526245969,380.95985198514273 L523.9858595824008,380.8998611739625 L523.9209384182611,380.83759675683655 L523.8580503639674,380.7731174597864 L523.7972547337383,380.7064840978454 L523.7386088682774,380.63775951769924 L523.6821680806918,380.5670085384111 L523.6279856043219,380.49429789028585 L523.5761125425336,380.4196961519322 L523.5265978205184,380.3432736855813 L523.4794881391496,380.2651025707228 L523.4348279309344,380.1852565361218 L523.392659318107,380.10381089028 L523.3530220728998,380.02084245040663 L523.3159535800314,379.9364294699669 L523.2814888014468,379.85065156487553 L523.2496602433417,379.76358963840505 L523.220497925504,379.6753258048805 L523.1940293529998,379.58594331223117 L523.1702794902315,379.49552646347394 L523.1492707373919,379.4041605372006 L523.1310229093374,379.311931707146 L523.1155532168988,379.2189269609112 L523.1028762506484,379.125234017919 L523.0930039671391,379.0309412466801 L523.0859456776273,378.93613758144585 L523.0817080392899,378.8409124383283 L523.0802950489468,378.74535563096555 " />
			<path d="M-65.54304242983312,20.986129728683846 L-65.54304242983312,-9.78214538135041 " />
			<path d="M523.0802950489467,378.74535563096543 L523.0802950489467,347.9770805209312 " />
			<path d="M-65.54304242983312,-9.78214538135041 L-65.5394333114307,-9.935337672257164 L-65.52861465090578,-10.088777855337536 L-65.51061251135918,-10.242096279750719 L-65.48547026152187,-10.39492358798319 L-65.45324847127591,-10.546891605663328 L-65.41402476573629,-10.697634228525715 L-65.36789363824523,-10.84678830438838 L-65.31496622272951,-10.993994508018217 L-65.25537002596896,-11.13889820677694 L-65.18924862042161,-11.281150314962176 L-65.11676129834495,-11.420408134785491 L-65.03808268804704,-11.556336181961392 L-64.95340233319149,-11.688606993918336 L-64.86292423617027,-11.816901918684763 L-64.76686636664407,-11.940911882549607 L-64.66546013643423,-12.060338134647923 L-64.5589498420315,-12.174892966677906 L-64.44759207606424,-12.284300406015372 L-64.3316551091445,-12.388296880556004 L-64.21141824358045,-12.486631853683615 L-64.08717114051274,-12.579068427834816 L-63.95921312209543,-12.665383915205984 L-63.82785245040267,-12.745370374227702 L-63.69340558479843,-12.8188351105142 L-63.55619641955807,-12.885601141081013 L-63.416555503578785,-12.945507620712492 L-63.27481924405826,-12.998410229452016 L-63.131329096060306,-13.04418152028141 L-62.98643073991971,-13.082711226151977 L-62.84047324846801,-13.113906525627469 L-62.69380824608647,-13.137692266499062 L-62.5467890616122,-13.154011146833614 " />
			<path d="M523.0802950489468,347.9770805209312 L523.0839041673491,347.82388823002447 L523.0947228278741,347.6704480469441 L523.1127249674207,347.51712962253094 L523.137867217258,347.36430231429847 L523.170089007504,347.21233429661834 L523.2093127130436,347.0615916737559 L523.2554438405347,346.9124375978933 L523.3083712560503,346.7652313942634 L523.367967452811,346.6203276955047 L523.4340888583583,346.4780755873195 L523.5065761804349,346.33881776749615 L523.5852547907328,346.2028897203203 L523.6699351455884,346.0706189083633 L523.7604132426096,345.9423239835969 L523.8564711121359,345.81831401973204 L523.9578773423457,345.6988877676337 L524.0643876367484,345.58433293560375 L524.1757454027156,345.4749254962663 L524.2916823696354,345.37092902172566 L524.4119192351994,345.272594048598 L524.5361663382671,345.18015747444684 L524.6641243566845,345.0938419870757 L524.7954850283772,345.01385552805397 L524.9299318939815,344.94039079176747 L525.0671410592219,344.87362476120063 L525.2067819752011,344.81371828156915 L525.3485182347216,344.76081567282966 L525.4920083827196,344.71504438200026 L525.6369067388601,344.67651467612967 L525.7828642303119,344.6453193766542 L525.9295292326934,344.6215336357826 L526.0765484171677,344.60521475544806 " />
			<path d="M-62.546789061612174,-13.154011146833614 L62.546789061612174,-23.845813352574663 " />
			<path d="M526.0765484171677,344.605214755448 L651.170126540392,333.91341254970695 " />
			<path d="M62.546789061612174,-23.845813352574666 L62.656877076201205,-23.853118816709458 L62.76681642546247,-23.856206803245165 L62.8764586448292,-23.855073142095407 L62.9856556709855,-23.849719364181666 L63.0942600418144,-23.840152699365895 L63.202125095534,-23.826386066687157 L63.309105168752815,-23.808438056915453 L63.41505579317692,-23.78633290744634 L63.51983389070316,-23.7601004695702 L63.62329796663504,-23.729776168160395 L63.72530830076036,-23.695400953834707 L63.825727136032484,-23.65702124765472 L63.92441886460059,-23.614688878437768 L64.02125021093755,-23.568461012766143 L64.11609041181818,-23.518400077788044 L64.2088113929048,-23.46457367691458 " />
			<path d="M651.170126540392,333.913412549707 L651.280214554981,333.9061070855722 L651.3901539042422,333.9030190990365 L651.4997961236089,333.90415276018626 L651.6089931497653,333.9095065381 L651.7175975205942,333.91907320291574 L651.8254625743137,333.9328398355945 L651.9324426475326,333.9507878453662 L652.0383932719567,333.9728929948353 L652.143171369483,333.9991254327114 L652.2466354454148,334.0294497341213 L652.3486457795401,334.06382494844695 L652.4490646148123,334.1022046546269 L652.5477563433803,334.1445370238439 L652.6445876897174,334.1907648895155 L652.739427890598,334.2408258244936 L652.8321488716846,334.2946522253671 " />
			<path d="M652.8321488716846,334.2946522253671 L652.9079198516182,334.3424709944512 L652.9820517944843,334.39282379764353 L653.0544747811495,334.44566314361685 L653.125120504319,334.50093919580763 L653.1939223329628,334.5585998194206 L653.2608153751588,334.6185906306008 L653.3257365392985,334.68085504772677 L653.3886245935922,334.7453343447769 L653.4494202238213,334.8119677067179 L653.5080660892822,334.8806922868641 L653.5645068768679,334.95144326615224 L653.6186893532378,335.02415391427746 L653.6705624150261,335.0987556526311 L653.7200771370412,335.175178118982 L653.7671868184101,335.25334923384054 L653.8118470266253,335.3331952684415 L653.8540156394527,335.4146409142833 L653.8936528846599,335.4976093541567 L653.9307213775282,335.5820223345964 L653.9651861561128,335.6678002396878 L653.9970147142179,335.75486216615826 L654.0261770320557,335.8431259996828 L654.0526456045599,335.93250849233215 L654.0763954673282,336.0229253410894 L654.0974042201677,336.1142912673627 L654.1156520482223,336.2065200974173 L654.1311217406609,336.29952484365214 L654.1437987069113,336.3932177866443 L654.1536709904206,336.48751055788324 L654.1607292799324,336.58231422311746 L654.1649669182698,336.677539366235 L654.1663799086128,336.7730961735978 " />
			<path d="M654.166379908613,367.54137128363203 L654.166379908613,336.7730961735978 " />
			<path d="M574.4588402624479,2579.3275129030676 L651.772985885106,2573.0402982916835 " />
			<path d="M654.7819656779051,2569.680589725266 L654.7776826976727,2569.833784669687 L654.7661942854431,2569.9871973415043 L654.7475281178079,2570.1404581561546 L654.7217291631995,2570.293197894911 L654.6888595735595,2570.445048594365 L654.6489985346084,2570.5956444328804 L654.6022420750804,2570.7446226118923 L654.548702835382,2570.891624229918 L654.4885097962308,2571.036295147184 L654.4218079679307,2571.1782868387786 L654.3487580410284,2571.31725723428 L654.2695359991961,2571.4528715418337 L654.1843326952718,2571.5848030546936 L654.0933533914774,2571.712733938289 L653.9968172649249,2571.836355995917 L653.8949568795982,2571.9553714112126 L653.7880176260879,2572.069493465615 L653.6762571304224,2572.1784472291 L653.5599446334247,2572.2819702225074 L653.439360342088,2572.3798130498794 L653.3147947545318,2572.4717399992746 L653.1865479601676,2572.5575296106194 L653.0549289167557,2572.636975209227 L652.9202547061003,2572.7098854036904 L652.7828497701711,2572.7760845469656 L652.6430451294938,2572.8354131595183 L652.5011775856932,2572.8877283135243 L652.3575889101086,2572.9329039771947 L652.2126250204363,2572.970831318399 L652.0666351473839,2573.0014189668514 L651.9199709933426,2573.024593234226 L651.7729858851061,2573.040298291683 " />
			<path d="M-17.211064092545197,2219.6531972422986 L-17.287011934856853,2219.60516967479 L-17.36130687409465,2219.554591824265 L-17.433878345642153,2219.501511729078 L-17.504657421815914,2219.4459798041917 L-17.57357687733231,2219.3880487932915 L-17.640571253157486,2219.3277737186936 L-17.705576918679693,2219.265211829082 L-17.768532132145047,2219.2004225451356 L-17.829377099299236,2219.1334674030913 L-17.88805403017954,2219.064409996297 L-17.94450719400317,2218.9933159148113 L-17.99868297209982,2218.9202526831064 L-18.0505299088382,2218.8452896959357 L-18.099998760498046,2218.7684981524203 L-18.147042542041365,2218.689950988428 L-18.19161657173837,2218.6097228072967 L-18.233678513605728,2218.527889808979 L-18.273188417616907,2218.444529717667 L-18.3101087576463,2218.359721707971 L-18.344404467111183,2218.273546329721 L-18.376042972277617,2218.1860854314587 L-18.404994223198667,2218.097422082702 L-18.431230722255552,2218.007640495044 L-18.45472755027462,2217.9168259421704 L-18.475462390195332,2217.825064678867 L-18.4934155482668,2217.7324438590967 L-18.508569972752714,2217.6390514532204 L-18.520911270126913,2217.544976164444 L-18.530427718744235,2217.450307344569 L-18.537110279973607,2217.3551349091267 L-18.540952606782845,2217.2595492519786 L-18.54195104976703,2217.1636411594595 " />
			<path d="M574.4588402624479,2579.3275129030676 L574.3494434033537,2579.334330355506 L574.2402109146597,2579.3369797353453 L574.1312885842993,2579.335457506572 L574.0228217862513,2579.3297657008393 L573.9149552865141,2579.319911914757 L573.8078330498946,2579.3059092997523 L573.7015980478628,2579.2877765445173 L573.596392067735,2579.265537850065 L573.4923555234359,2579.23922289743 L573.3896272680939,2579.208866808055 L573.2883444087205,2579.1745100969156 L573.1886421232186,2579.1361986184443 L573.090653479967,2579.0939835053346 L572.9945092602193,2579.0479211002935 L572.9003377835559,2578.9980728808437 L572.8082647366211,2578.944505377273 " />
			<path d="M572.8082647366211,2578.944505377273 L572.7323168943095,2578.8964778097643 L572.6580219550717,2578.8458999592394 L572.5854504835243,2578.7928198640525 L572.5146714073504,2578.737287939166 L572.445751951834,2578.679356928266 L572.3787575760089,2578.619081853668 L572.3137519104866,2578.5565199640564 L572.2507966970213,2578.49173068011 L572.1899517298671,2578.4247755380657 L572.1312747989869,2578.3557181312713 L572.0748216351632,2578.2846240497856 L572.0206458570665,2578.2115608180807 L571.9687989203281,2578.13659783091 L571.9193300686683,2578.0598062873946 L571.872286287125,2577.981259123402 L571.827712257428,2577.901030942271 L571.7856503155606,2577.8191979439534 L571.7461404115494,2577.7358378526415 L571.70922007152,2577.6510298429453 L571.6749243620552,2577.564854464695 L571.6432858568887,2577.477393566433 L571.6143346059677,2577.3887302176763 L571.5880981069108,2577.2989486300185 L571.5646012788917,2577.2081340771447 L571.543866438971,2577.1163728138413 L571.5259132808995,2577.023751994071 L571.5107588564136,2576.9303595881947 L571.4984175590395,2576.8362842994184 L571.4889011104221,2576.7416154795433 L571.4822185491928,2576.646443044101 L571.4783762223835,2576.550857386953 L571.4773777793994,2576.454949294434 " />
			<path d="M-18.541951049767025,2217.1636411594595 L-18.406084332873842,2186.3917972951463 " />
			<path d="M571.4773777793994,2576.4549492944334 L571.6132444962925,2545.68310543012 " />
			<path d="M-18.406084332873846,2186.391797295146 L-18.40399512012375,2186.2887258382007 L-18.39863876987973,2186.1855010181 L-18.390021128837883,2186.0822355093565 L-18.378151603539198,2185.9790420308955 L-18.363043150101916,2185.8760332230186 L-18.34471226007935,2185.7733215244516 L-18.3231789424586,2185.671019049611 L-18.29846670181986,2185.569237466229 L-18.270602512680114,2185.4680878734594 L-18.23961679004924,2185.3676806806116 L-18.205543356230674,2185.2681254866316 L-18.16841940390284,2185.1695309604706 L-18.128285455521677,2185.072004722467 L-18.085185319088577,2184.975653226877 L-18.03916604033198,2184.880581645671 L-17.990277851354854,2184.786893753736 L-17.938574115804112,2184.6946918156 L-17.8841112706218,2184.6040764738063 L-17.826948764441646,2184.515146639058 L-17.767148992698218,2184.4279993822497 L-17.70477722951951,2184.3427298285146 L-17.639901556477312,2184.2594310533877 L-17.572592788273127,2184.1781939812113 L-17.50292439544075,2184.099107285886 L-17.430972424149903,2184.022257294081 L-17.35681541319842,2183.947727891002 L-17.280534308283638,2183.8756004288302 L-17.202212373646553,2183.8059536379187 L-17.12193510118517,2183.738863540858 L-17.039790117136253,2183.6744033694927 L-16.955867086427393,2183.612643484985 L-16.870257614803727,2183.5536513010143 " />
			<path d="M571.6132444962926,2545.6831054301206 L571.617527476525,2545.5299104857 L571.6290158887546,2545.3764978138825 L571.6476820563898,2545.223236999232 L571.6734810109982,2545.070497260476 L571.7063506006382,2544.918646561022 L571.7462116395893,2544.7680507225064 L571.7929680991173,2544.6190725434944 L571.8465073388159,2544.472070925469 L571.9067003779669,2544.327400008203 L571.973402206267,2544.185408316608 L572.0464521331693,2544.0464379211066 L572.1256741750016,2543.910823613553 L572.2108774789259,2543.778892100693 L572.3018567827203,2543.6509612170976 L572.3983929092728,2543.5273391594696 L572.5002532945995,2543.408323744174 L572.6071925481098,2543.294201689772 L572.7189530437753,2543.1852479262866 L572.835265540773,2543.0817249328793 L572.9558498321097,2542.9838821055073 L573.0804154196659,2542.891955156112 L573.2086622140301,2542.8061655447673 L573.340281257442,2542.72671994616 L573.4749554680974,2542.6538097516964 L573.6123604040266,2542.587610608421 L573.7521650447039,2542.5282819958684 L573.8940325885045,2542.4759668418624 L574.0376212640891,2542.430791178192 L574.1825851537614,2542.3928638369875 L574.3285750268138,2542.3622761885354 L574.475239180855,2542.339101921161 L574.6222242890916,2542.3233968637037 " />
			<path d="M574.6222242890916,2542.3233968637037 L651.9363699117497,2536.0361822523196 " />
			<path d="M651.9363699117498,2536.036182252319 L652.045766770844,2536.0293647998806 L652.154999259538,2536.0267154200415 L652.2639215898984,2536.028237648815 L652.3723883879464,2536.0339294545474 L652.4802548876836,2536.0437832406296 L652.5873771243031,2536.0577858556344 L652.6936121263349,2536.0759186108694 L652.7988181064627,2536.098157305322 L652.9028546507618,2536.1244722579568 L653.0055829061038,2536.1548283473317 L653.1068657654772,2536.189185058471 L653.2065680509791,2536.2274965369425 L653.3045566942307,2536.269711650052 L653.4007009139784,2536.3157740550932 L653.4948723906418,2536.365622274543 L653.5869454375766,2536.419189778114 " />
			<path d="M653.5869454375766,2536.419189778114 L653.6628932798882,2536.4672173456224 L653.737188219126,2536.5177951961473 L653.8097596906734,2536.5708752913342 L653.8805387668473,2536.6264072162207 L653.9494582223637,2536.684338227121 L654.0164525981888,2536.744613301719 L654.081458263711,2536.8071751913303 L654.1444134771764,2536.871964475277 L654.2052584443306,2536.938919617321 L654.2639353752108,2537.0079770241155 L654.3203885390345,2537.079071105601 L654.3745643171312,2537.152134337306 L654.4264112538696,2537.2270973244767 L654.4758801055294,2537.303888867992 L654.5229238870727,2537.3824360319845 L654.5674979167698,2537.4626642131157 L654.6095598586371,2537.5444972114333 L654.6490697626483,2537.6278573027453 L654.6859901026777,2537.7126653124415 L654.7202858121425,2537.7988406906916 L654.751924317309,2537.8863015889538 L654.78087556823,2537.9749649377104 L654.8071120672869,2538.0647465253683 L654.830608895306,2538.155561078242 L654.8513437352267,2538.2473223415454 L654.8692968932982,2538.3399431613157 L654.884451317784,2538.433335567192 L654.8967926151582,2538.5274108559684 L654.9063090637756,2538.6220796758435 L654.9129916250049,2538.7172521112857 L654.9168339518142,2538.812837768434 L654.9178323947983,2538.908745860953 " />
			<path d="M654.7819656779051,2569.680589725267 L654.9178323947982,2538.908745860954 " />
			<path d="M-16.870257547002083,2184.6449937186862 L-16.867040174668933,2184.6776913017547 L-16.85739453140614,2184.7103231342785 L-16.841340013217568,2184.742823598326 L-16.818908903434476,2184.775127340131 L-16.79014630779841,2184.8071694015052 L-16.75511006375998,2184.838885350464 L-16.713870624176106,2184.8702114107864 L-16.6665109156394,2184.901084590263 " />
			<path d="M-16.6665109156394,2184.9010845902635 L-5.5710101724105945,2191.6448108171785 " />
			<path d="M76.99164429989003,2185.3024214150532 L77.10400749638043,2185.276358055727 L77.21050246906314,2185.24904476334 L77.31086191972413,2185.2205500931864 L77.40483395006953,2185.1909455657737 L77.49218269398048,2185.1603054873076 L77.57268890952793,2185.1287067631856 L77.64615052926123,2185.096228704969 L77.71238316738958,2185.062952831312 L77.77122058258307,2185.0289626633567 L77.82251509523205,2184.9943435150935 L77.866137958117,2184.959182279231 L77.90197967955915,2184.923567209094 L77.92995029824024,2184.8875876971156 L77.94997960900194,2184.8513340504624 L77.96201733905804,2184.8148972643694 L77.96603327417714,2184.7783687937435 " />
			<path d="M77.96603327417714,2184.7783687937435 L77.962815901844,2184.745671210675 L77.9531702585812,2184.7130393781513 L77.93711574039263,2184.6805389141036 L77.91468463060954,2184.648235172299 L77.88592203497346,2184.6161931109245 L77.85088579093504,2184.584477161966 L77.80964635135116,2184.5531511016434 L77.76228664281446,2184.5222779221667 " />
			<path d="M125.82616066901427,2271.3744100812846 L125.8293780395766,2271.4071076884297 L125.83902368159275,2271.4397395453757 L125.85507819905978,2271.4722400341375 L125.87750930864529,2271.504543800893 L125.90627190460445,2271.536585887399 L125.94130814948134,2271.5683018616146 L125.98254759041166,2271.599627947264 L126.02990730079333,2271.630501152081 " />
			<path d="M126.02990730079334,2271.630501152081 L137.1254080549865,2278.374232683047 " />
			<path d="M218.6470017001268,2272.185328052922 L218.8649044713778,2272.163361408226 L219.07503206696958,2272.137760291403 L219.2762195430582,2272.1086666346137 L219.46735151967138,2272.0762417325996 L219.64736836435625,2272.04066534847 L219.81527206676378,2272.002134717099 L219.9701317716013,2271.9608634516567 L220.11108893927855,2271.917080359341 L220.23736210563663,2271.8710281728786 L220.34825121437223,2271.8229622048125 L220.397731204222,2271.798256930615 L220.4431414981378,2271.7731489320595 L220.4844191358206,2271.7476730207927 L220.52150688680152,2271.721864518563 L220.5543533297906,2271.6957592082485 L220.58291292397107,2271.6693932842454 L220.60714607214078,2271.6428033022835 L220.62701917561267,2271.6160261287446 L220.64250468079854,2271.5890988895467 L220.6535811174115,2271.5620589186706 L220.6602331282341,2271.534943706396 L220.66245149041052,2271.5077908473245 " />
			<path d="M220.66245149041052,2271.5077908473245 L220.6592341198482,2271.4750932401794 L220.64958847783205,2271.4424613832334 L220.633533960365,2271.4099608944716 L220.61110285077953,2271.3776571277162 L220.58234025482034,2271.3456150412103 L220.54730400994345,2271.3138990669945 L220.50606456901315,2271.2825729813453 L220.45870485863148,2271.2516997765283 " />
			<path d="M268.72647396231565,2357.8478283201325 L268.679114251934,2357.8787015249495 L268.63787481100366,2357.9100276105987 L268.60283856612676,2357.9417435848145 L268.5740759701676,2357.9737856713205 L268.5516448605821,2358.006089438076 L268.5355903431151,2358.0385899268376 L268.5259447010989,2358.0712217837836 L268.5227273305366,2358.1039193909287 " />
			<path d="M268.5227273305366,2358.1039193909287 L268.5259447010989,2358.136616998074 L268.5355903431151,2358.1692488550198 L268.5516448605821,2358.2017493437816 L268.5740759701676,2358.234053110537 L268.60283856612676,2358.266095197043 L268.63787481100366,2358.2978111712587 L268.679114251934,2358.329137256908 L268.72647396231565,2358.360010461725 " />
			<path d="M268.72647396231565,2358.360010461725 L279.8219747165088,2365.103741992691 " />
			<path d="M279.8219747165088,2365.103741992691 L279.8807160290891,2365.1369423018077 L279.9465340655071,2365.169445682651 L280.01927026434805,2365.2011738317296 L280.0987493977381,2365.232050313153 L280.1847799934833,2365.2620007427745 L280.2771547963431,2365.2909529673843 L280.3756512673264,2365.3188372385375 L280.4800321198073,2365.3455863805834 L280.5900458911694,2365.371135952495 L280.70542754860156,2365.395424403116 L280.8258991275847,2365.4183932194414 L280.951170401533,2365.439987067581 L281.08093958097504,2365.4601539260634 L281.21489404059116,2365.4788452111598 L281.494058662966,2365.5116246086864 L281.78597576073696,2365.5380095766445 L282.08783401267453,2365.557746013369 L282.39672635880004,2365.570643846185 L282.7096779969625,2365.576578861912 L283.02367503180966,2365.575493903104 L283.33569350024777,2365.5673994185076 L283.642728493859,2365.552373362434 L283.9418230978126,2365.530560444018 " />
			<path d="M284.25362322084277,2365.5039107526977 L361.28261316501573,2358.9202096790914 " />
			<path d="M361.28261316501573,2358.9202096790914 L361.5061449286347,2358.898870482764 L361.7219501631712,2358.8737368088487 L361.92879110433336,2358.844952813089 L362.12548140308934,2358.812683587876 L362.3108929300456,2358.7771142153506 L362.483962245903,2358.738448705851 L362.64369670087876,2358.6969088278033 L362.78918012811084,2358.652732835751 L362.9195780983896,2358.606174103834 L362.97888281603304,2358.5820841681198 L363.03414270607834,2358.5574996725422 L363.08527850347036,2358.5324558812213 L363.1322168587724,2358.506988717093 L363.1748904433791,2358.4811347103814 L363.2132380460932,2358.4549309461995 L363.24720466092657,2358.428415011355 L363.27674156600165,2358.4016249404326 L363.301806393438,2358.3745991612413 L363.32236319012526,2358.34737643969 L363.3383824692941,2358.319995824183 L363.3498412528126,2358.2924965896086 L363.3567231041459,2358.2649181810025 L363.35901815193284,2358.237300156968 " />
			<path d="M363.35901815193284,2358.237300156968 L363.35580078137053,2358.204602549823 L363.3461551393544,2358.171970692877 L363.33010062188737,2358.1394702041152 L363.30766951230186,2358.10716643736 L363.2789069163427,2358.075124350854 L363.2438706714658,2358.043408376638 L363.2026312305355,2358.012082290989 L363.1552715201538,2357.981209086172 " />
			<path d="M411.423040623838,2444.5773376297766 L411.37568091345634,2444.6082108345936 L411.334441472526,2444.639536920243 L411.2994052276491,2444.6712528944586 L411.27064263168995,2444.7032949809645 L411.24821152210444,2444.73559874772 L411.23215700463743,2444.7680992364817 L411.2225113626213,2444.8007310934277 L411.21929399205897,2444.8334287005728 " />
			<path d="M411.21929399205897,2444.8334287005728 L411.2225113626213,2444.866126307718 L411.23215700463743,2444.898758164664 L411.24821152210444,2444.9312586534256 L411.27064263168995,2444.963562420181 L411.2994052276491,2444.995604506687 L411.334441472526,2445.0273204809027 L411.37568091345634,2445.058646566552 L411.423040623838,2445.089519771369 " />
			<path d="M411.423040623838,2445.089519771369 L422.51854137803116,2451.833251302335 " />
			<path d="M422.51854137803116,2451.833251302335 L422.57728269061147,2451.866451611452 L422.64310072702943,2451.898954992295 L422.7158369258704,2451.9306831413737 L422.7953160592605,2451.9615596227973 L422.88134665500564,2451.9915100524186 L422.97372145786545,2452.0204622770284 L423.0722179288488,2452.0483465481816 L423.17659878132963,2452.0750956902275 L423.28661255269174,2452.100645262139 L423.4019942101239,2452.12493371276 L423.52246578910706,2452.1479025290855 L423.64773706305533,2452.169496377225 L423.7775062424974,2452.1896632357075 L423.9114607021135,2452.208354520804 L424.19062532448834,2452.2411339183304 L424.4825424222593,2452.2675188862886 L424.7844006741969,2452.287255323013 L425.0932930203224,2452.300153155829 L425.40624465848487,2452.306088171556 L425.720241693332,2452.305003212748 L426.0322601617701,2452.2969087281517 L426.33929515538136,2452.281882672078 L426.6383897593349,2452.2600697536623 " />
			<path d="M426.6383897593349,2452.2600697536623 L503.97917982653803,2445.6497189887355 " />
			<path d="M503.97917982653803,2445.6497189887355 L504.202711590157,2445.628379792408 L504.4185168246935,2445.6032461184927 L504.62535776585565,2445.574462122733 L504.82204806461164,2445.54219289752 L505.0074595915679,2445.5066235249947 L505.1805289074253,2445.4679580154952 L505.34026336240106,2445.4264181374474 L505.48574678963314,2445.382242145395 L505.6161447599119,2445.335683413478 L505.67544947755533,2445.311593477764 L505.73070936760064,2445.2870089821863 L505.78184516499266,2445.2619651908653 L505.8287835202947,2445.236498026737 L505.8714571049014,2445.2106440200255 L505.9098047076155,2445.1844402558436 L505.94377132244887,2445.157924320999 L505.97330822752394,2445.1311342500767 L505.9983730549603,2445.1041084708854 L506.01892985164756,2445.076885749334 L506.0349491308164,2445.049505133827 L506.0464079143349,2445.0220058992527 L506.0532897656682,2444.9944274906466 L506.05558481345514,2444.966809466612 " />
			<path d="M506.05558481345514,2444.966809466612 L506.05236744289283,2444.934111859467 L506.0427218008767,2444.901480002521 L506.02666728340967,2444.8689795137593 L506.00423617382415,2444.836675747004 L505.975473577865,2444.804633660498 L505.9404373329881,2444.772917686282 L505.89919789205777,2444.741591600633 L505.8518381816761,2444.710718395816 " />
			<path d="M558.6138344709185,2534.0383894087513 L558.5664747555928,2534.0692626307145 L558.5252353100999,2534.1005887341694 L558.4901990610567,2534.132304726809 L558.461436461341,2534.164346832315 L558.4390053484202,2534.196650618605 L558.4229508280489,2534.2291511273916 L558.4133051835679,2534.2617830048075 L558.410087810986,2534.294480632823 " />
			<path d="M558.410087810986,2534.294480632823 L558.413305179979,2534.327178261191 L558.4229508208786,2534.3598101396656 L558.4390053376827,2534.3923106502143 L558.461436447058,2534.424614438966 L558.4901990432569,2534.4566565476293 L558.525235288819,2534.488372544114 L558.5664747308736,2534.519698652095 L558.6138344428107,2534.5505718792565 " />
			<path d="M558.6138344428107,2534.550571879257 L569.709335198203,2541.294308092413 " />
			<path d="M569.7093351982029,2541.2943080924133 L569.7680765107891,2541.327508424795 L569.8338945472128,2541.3600118288473 L569.9066307460595,2541.3917400010228 L569.9861098794551,2541.4226165053765 L570.0721404752055,2541.4525669577038 L570.1645152780706,2541.481519204742 L570.2630117490587,2541.509403497993 L570.3673926015443,2541.536152661751 L570.477406372911,2541.561702254938 L570.5927880303475,2541.5859907263457 L570.7132596093347,2541.6089595629196 L570.8385308832869,2541.63055343072 L570.9683000627325,2541.6507203082283 L571.1022545223519,2541.6694116116705 L571.3814191447326,2541.702191043672 L571.6733362425083,2541.7285760428763 L571.9751944944494,2541.7483125073168 L572.2840868405772,2541.7612103640517 L572.5970384787406,2541.7671453996704 L572.9110355135876,2541.766060456536 L573.2230539820243,2541.7579659832427 L573.5300889756329,2541.742939933994 L573.8291835795826,2541.721127017858 " />
			<path d="M573.8293023466565,377.52356986553457 L651.1700924126842,370.91321909989347 " />
			<path d="M573.8291835795825,2541.721127017858 L651.1699736456102,2535.1107762522174 " />
			<path d="M651.1700924126842,370.91321909989347 L651.3936241740229,370.89187990244517 L651.6094294064515,370.86674622477426 L651.8162703457157,370.8379622226432 L652.0129606428192,370.805692988476 L652.1983721684011,370.77012360446037 L652.3714414831925,370.73145808099764 L652.531175937437,370.68991818658844 L652.6766593642958,370.6457421758656 L652.8070573345786,370.59918342307014 L652.8663620523706,370.5750934761246 L652.9216219426643,370.55050896880743 L652.9727577404058,370.52546516525473 L653.0196960961594,370.4999979884195 L653.0623696813207,370.47414396854344 L653.1007172846926,370.44794019075766 L653.1346839002873,370.42142424188773 L653.1642208062271,370.3946341565391 L653.1892856346315,370.3676083625396 L653.2098424323891,370.34038562581907 L653.2258617127299,370.31300499480255 L653.2373204975205,370.28550574439976 L653.2442023502248,370.25792731966845 L653.24649739948,370.23030927923446 " />
			<path d="M653.24649739948,370.23030927923446 L653.2442261813278,370.20283493209075 L653.2374157478781,370.1753995848711 L653.2260757666247,370.14804218238805 L653.2102223348104,370.12080155881057 L653.1898779565764,370.09371638253845 L653.1650715110176,370.0668251013123 L653.1358382111883,370.04016588763625 L653.1022195541168,370.01377658459165 " />
			<path d="M651.1699736456103,2535.110776252217 L651.393505406949,2535.089437054769 L651.6093106393776,2535.064303377098 L651.8161515786418,2535.035519374967 L652.0128418757453,2535.0032501407995 L652.1982534013272,2534.967680756784 L652.3713227161186,2534.9290152333215 L652.531057170363,2534.8874753389123 L652.6765405972219,2534.8432993281895 L652.8069385675047,2534.796740575394 L652.8662432852967,2534.7726506284484 L652.9215031755904,2534.748066121131 L652.9726389733319,2534.7230223175784 L653.0195773290855,2534.697555140743 L653.0622509142468,2534.671701120867 L653.1005985176187,2534.6454973430814 L653.1345651332134,2534.6189813942115 L653.1641020391532,2534.5921913088628 L653.1891668675576,2534.565165514863 L653.2097236653152,2534.5379427781427 L653.225742945656,2534.510562147126 L653.2372017304466,2534.4830628967234 L653.2440835831509,2534.4554844719923 L653.246378632406,2534.427866431558 " />
			<path d="M653.246378632406,2534.427866431558 L653.2431612634131,2534.39516880319 L653.2335156225136,2534.362536924715 L653.2174611057094,2534.3300364141664 L653.1950299963341,2534.297732625415 L653.1662674001352,2534.2656905167514 L653.1312311545731,2534.2339745202667 L653.0899917125186,2534.2026484122857 L653.0426320005814,2534.1717751851243 " />
			<path d="M-65.54304242983312,20.986129728683846 L523.0802950489468,378.7453556309655 " />
			<path d="M-65.54304242983312,-9.78214538135041 L523.0802950489468,347.9770805209312 " />
			<path d="M-62.546789061612174,-13.154011146833614 L526.0765484171677,344.605214755448 " />
			<path d="M62.546789061612174,-23.845813352574663 L651.1701265403922,333.91341254970695 " />
			<path d="M-18.54195104976702,2217.1636411594595 L571.4773777793994,2576.454949294434 " />
			<path d="M-18.406084332873842,2186.391797295146 L571.6132444962925,2545.68310543012 " />
			<path d="M-5.571010335750339,2189.015672770857 L125.82616066901426,2269.0297657823858 " />
			<path d="M137.1254080549865,2275.9104240521797 L268.5227273305366,2355.9246073529616 " />
			<path d="M283.94182309781263,2365.314040576237 L411.2192939920589,2442.8194489235375 " />
			<path d="M426.712102635095,2452.253769482302 L558.4100879121505,2532.4510428543986 " />
			<path d="M573.6554678124913,2541.7346920837854 L574.6222242890916,2542.3233968637032 " />
			<path d="M61.917041082583324,2176.7448741173453 L125.82616066901429,2215.6622282717067 " />
			<path d="M141.2452564362903,2225.0516614949815 L268.52272733053667,2302.5570698422825 " />
			<path d="M361.10571505031885,2358.9353292374353 L411.21929399205897,2389.4519114128584 " />
			<path d="M503.5641944645711,2445.6851879670394 L558.4100908408601,2479.0835071271526 " />
			<path d="M650.5094065029401,2535.167235211501 L651.9363699117497,2536.0361822523196 " />
			<path d="M-16.666643403423414,52.36021565143324 L-16.6665109156394,2184.9010845902635 " />
			<path d="M-5.571142660194286,59.103947175735826 L-5.5710101724106,2191.644810817179 " />
			<path d="M-1.4512941505358083,61.60794883486682 L-1.4511618257953094,2191.5244478026802 " />
			<path d="M75.88949925848144,108.6148896387995 L75.88962827323851,2185.253458301736 " />
			<path d="M77.76215774419477,109.75307225503377 L77.76228664281444,2184.5222779221667 " />
			<path d="M126.02990730079335,139.08971526239063 L126.02990730079333,2271.6305011520813 " />
			<path d="M137.12540805498654,145.83344679335704 L137.1254080549865,2278.3742326830475 " />
			<path d="M141.24525643629033,148.33744837447534 L141.2452564362903,2278.4191990056606 " />
			<path d="M218.58604650349338,195.34438714728765 L218.58604650349335,2272.148209485333 " />
			<path d="M220.4587048586315,196.48256968415964 L220.45870485863148,2271.2516997765283 " />
			<path d="M268.7264739623157,225.81922457203464 L268.72647396231565,2358.3600104617253 " />
			<path d="M279.82197471650886,232.56295610300103 L279.8219747165088,2365.1037419926915 " />
			<path d="M283.9418230978127,235.06695768411936 L283.94182309781263,2365.5305604440186 " />
			<path d="M361.2826131650158,282.07389645693166 L361.28261316501573,2358.920209679092 " />
			<path d="M363.15527152015386,283.2120789938037 L363.1552715201538,2357.9812090861724 " />
			<path d="M411.42304062383806,312.5487338816786 L411.423040623838,2445.089519771369 " />
			<path d="M422.5185413780312,319.292465412645 L422.51854137803116,2451.8332513023356 " />
			<path d="M426.63838975933504,321.7964669937634 L426.638389759335,2452.2600697536627 " />
			<path d="M503.9791798265381,368.8034057665756 L503.97917982653803,2445.649718988736 " />
			<path d="M505.85183818167616,369.94158830344765 L505.8518381816761,2444.7107183958165 " />
			<path d="M558.6139527450101,378.8240532395804 L558.6138344428108,2534.5505718792565 " />
			<path d="M569.7094539225286,377.8757159568564 L569.7093351982029,2541.294308092413 " />
			<path d="M573.8293023466565,377.5235698655347 L573.8291835795826,2541.721127017858 " />
			<path d="M651.1700924126841,370.91321909989347 L651.1699736456102,2535.110776252217 " />
			<path d="M653.0427507395476,370.4864005033059 L653.0426320005813,2534.1717751851243 " />
			<path d="M524.4145260858751,381.22379957919617 L-64.20881139290483,23.46457367691456 " />
			<path d="M652.8321488716848,334.2946522253671 L64.20881139290483,-23.46457367691456 " />
			<path d="M572.8082647366214,2578.944505377273 L-17.211064092545197,2219.6531972422986 " />
			<path d="M653.5869454375766,2536.419189778114 L651.4018102606481,2535.088555275464 " />
			<path d="M558.4100908750002,2478.4613993989083 L504.44552002399064,2445.5997619802206 " />
			<path d="M411.21929399205897,2388.829803663825 L361.9688056691187,2358.838799113262 " />
			<path d="M268.5227273305366,2301.934962093249 L219.48432893442725,2272.073109357771 " />
			<path d="M125.82616066901427,2215.040120522673 L75.889628234589,2184.6313505291664 " />
			<path d="M-16.870257547002087,2184.6449937186862 L-16.870390026569485,52.236380544097614 " />
			<path d="M77.96603327417712,2184.7783687937435 L77.96590436734083,109.87690736236937 " />
			<path d="M125.82616066901427,2271.374410081285 L125.8261606690143,138.96588014980793 " />
			<path d="M220.66245149041055,2271.5077908473245 L220.66245149041058,196.60640479674234 " />
			<path d="M268.5227273305366,2358.103919390929 L268.52272733053667,225.695389459452 " />
			<path d="M363.35901815193284,2358.2373001569686 L363.3590181519329,283.3359141063863 " />
			<path d="M411.2192939920589,2444.8334287005728 L411.21929399205897,312.424898769096 " />
			<path d="M506.05558481345514,2444.9668094666126 L506.0555848134552,370.0654234160303 " />
			<path d="M558.410087810986,2534.2944806328233 L558.4102060981759,378.8414675535741 " />
			<path d="M653.2463786324059,2534.4278664315584 L653.2464973994798,370.23030927923446 " />

       </g>
    </g>
    
</svg>
