<?xml version="1.0" encoding="UTF-8" standalone="no"?>
<svg
   xmlns:svg="http://www.w3.org/2000/svg"
   xmlns="http://www.w3.org/2000/svg"
   width="480.0"
   height="480.0"

>
    <g transform="scale(0.136656391395095, -0.136656391395095)   translate(134.3672427846395,-2270.2150643562863)" stroke-width="1.0"  fill="none">
       <!-- hidden lines -->
       <g  stroke="rgb(0,0,0)" fill="none" stroke-dasharray="1.0,1.0" >
			<path d="M-15.457608315755945,15.838994413245482 L58.39370604491874,27.31677870261149 " />
			<path d="M61.191009328507654,24.679296620980036 L61.189559341051634,24.7779778161545 L61.18521088189107,24.876106001401855 L61.177968459090046,24.97357944686068 L61.167839580895716,25.07029710144078 L61.15483474795448,25.16615869758322 L61.13896744242593,25.2610648552081 L61.1202541140058,25.354917184742245 L61.09871416287258,25.447618389120056 L61.07436991957521,25.53907236465174 L61.047246621882955,25.629184300654384 L61.017372388621276,25.717860777742533 L60.98477819052099,25.805009864676425 L60.94949781811075,25.890541213667458 L60.9115678466863,25.97436615404209 L60.87102759839272,26.056397784167057 L60.82791910145901,26.13655106154061 L60.78228704662725,26.214742890956437 L60.734178740821584,26.29089221064874 L60.683644058104896,26.364920076329287 L60.63073538797422,26.436749743029267 L60.57550758104832,26.506306744661078 L60.518017892203886,26.5735189712176 L60.45832592121915,26.638316743528918 L60.39649355098657,26.700632885498983 L60.33258488335864,26.76040279374733 L60.266666172693206,26.817564504583622 L60.19880575716737,26.87205875824567 L60.12907398793099,26.923829060334256 L60.05754315617342,26.972821740381058 L59.984287418178965,27.018986007489055 L59.90938271844873,27.06227400298764 L59.83290671096872,27.10264085004787 " />
			<path d="M59.832906710968714,27.102640850047877 L59.7510833214369,27.141799732289698 L59.66771153839004,27.177653647160124 L59.582886466063634,27.210161695220034 L59.49670486649592,27.239286793742565 L59.409265049148964,27.264995719014262 L59.320666758764695,27.287259144234202 L59.2310110615836,27.306051672967783 L59.14040023005604,27.32135186811706 L59.04893762617748,27.33314227637457 L58.95672758358101,27.341409448132755 L58.86387528852136,27.34614395282624 L58.77048665988639,27.347340389689528 L58.676668228372804,27.344997393917772 L58.58252701496398,27.33911763822366 L58.48817040884851,27.329707829788557 L58.393706044918744,27.316778702611494 " />
			<path d="M-59.832906710968714,-27.102640850047877 L-59.7510833214369,-27.141799732289698 L-59.66771153839004,-27.177653647160124 L-59.582886466063634,-27.210161695220034 L-59.49670486649592,-27.239286793742565 L-59.409265049148964,-27.264995719014262 L-59.320666758764695,-27.287259144234202 L-59.2310110615836,-27.306051672967783 L-59.14040023005604,-27.32135186811706 L-59.04893762617748,-27.33314227637457 L-58.95672758358101,-27.341409448132755 L-58.863875288521356,-27.34614395282624 L-58.77048665988639,-27.347340389689528 L-58.676668228372804,-27.344997393917772 L-58.58252701496398,-27.33911763822366 L-58.48817040884851,-27.329707829788557 L-58.39370604491873,-27.31677870261149 " />
			<path d="M-58.39370604491874,-27.31677870261149 L58.39370604491874,-9.165974816658764 " />
			<path d="M58.39370604491873,-9.165974816658764 L58.53096321143289,-9.14094201752711 L58.6678897134106,-9.108568248917832 L58.80415568291527,-9.068931502075118 L58.93943284329087,-9.022127265393882 L59.07339530000915,-8.968268294379856 L59.20572032577819,-8.907484340011699 L59.336089138020576,-8.839921836159533 L59.46418766684867,-8.765743546812912 L59.589707311686425,-8.685128173968122 L59.712345684715196,-8.598269927119421 L59.8318073393525,-8.505378055391352 L59.94780448200873,-8.406676343439273 L60.06005766540705,-8.302402572332525 L60.16829646179645,-8.192807946719011 L60.27226011443584,-8.078156489651185 L60.371698165779854,-7.958724406531409 L60.466371060853064,-7.83479941970893 L60.556050724358876,-7.706680075331553 L60.64052111013289,-7.574675024121811 L60.71957872161705,-7.439102277810346 L60.79303310210065,-7.300288443017792 L60.86070729354728,-7.15856793443082 L60.92243826290216,-7.014282169167867 L60.97807729485315,-6.867778744275391 L61.02749035009886,-6.719410599336142 L61.07055838826112,-6.569535166206795 L61.1071776546637,-6.418513507933296 L61.13725993028637,-6.26670944891836 L61.16073274429224,-6.1144886984366185 L61.17753954861641,-5.962217969608948 L61.187639854195154,-5.810264095958431 L61.191009328507654,-5.658993147676295 " />
			<path d="M61.191009328507654,24.679296620980036 L61.191009328507654,-5.658993147676281 " />
			<path d="M60.45373860395047,2194.3834997655404 L60.45186642369062,2194.481932347771 L60.447109854826145,2194.579800421852 L60.43947380777757,2194.677002954157 L60.42896616558057,2194.77343959813 L60.415597775748004,2194.8690107978746 L60.399382439071495,2194.9636178909313 L60.380336895374256,2195.057163210133 L60.358480806229856,2195.149550184427 L60.33383673466463,2195.240683438575 L60.3064301218649,2195.3304688916096 L60.276289260912854,2195.4188138539585 L60.24344526757836,2195.5056271231333 L60.20793204819672,2195.5908190778823 L60.16978626466564,2195.674301770709 L60.129047296597506,2195.7559890186653 L60.08575720066605,2195.835796492321 L60.03996066718931,2195.913641802824 L59.991704973993826,2195.989444586948 L59.94103993760761,2196.0631265900624 L59.88801786183228,2196.1346117469125 L59.83269348374751,2196.2038262601477 L59.77512391720345,2196.2706986765047 L59.715368593859544,2196.3351599605726 L59.65348920183053,2196.397143566062 L59.58954962200305,2196.456585504501 L59.52361586208848,2196.513424411297 L59.45575598848023,2196.5676016090833 L59.386040055985724,2196.6190611682955 L59.314540035505686,2196.6677499649104 L59.24132973973529,2196.7136177352877 L59.16648474696403,2196.75661712806 L59.090082323052826,2196.796703753015 " />
			<path d="M-15.811368884192607,2149.171783153653 L-15.729131293586368,2149.1326805144813 L-15.645341349152378,2149.0969133750273 L-15.560095400667311,2149.064522863805 L-15.473491472162031,2149.035546226555 L-15.385629149204082,2149.0100167834153 L-15.29660946438458,2148.987963890607 L-15.206534781141167,2148.9694129066775 L-15.115508676050649,2148.954385163342 L-15.02363581972662,2148.9428979409513 L-14.931021856459092,2148.934964448625 L-14.837773282734467,2148.9305938090583 L-14.743997324775588,2148.929791048036 L-14.649801815242668,2148.9325570886494 L-14.555295069236864,2148.938888750238 L-14.460585759749115,2148.948778752046 L-14.365782792697436,2148.9622157215927 " />
			<path d="M-14.36578279269743,2148.962215721593 L57.803078396558675,2160.536246112532 " />
			<path d="M57.80307839655867,2160.5362461125314 L57.94025003673598,2160.561946844398 L58.07705904676882,2160.5949843544067 L58.21317584176895,2160.6352790523024 L58.348272504454805,2160.682733864629 L58.48202357513289,2160.737234468586 L58.61410683575875,2160.7986495674454 L58.7442040861884,2160.866831206855 L58.87200191075038,2160.9416151312726 L58.997192433291545,2161.022821179675 L59.11947405887772,2161.1102537195775 L59.23855220036224,2161.2037021183346 L59.35413998807228,2161.302941250568 L59.46595896090293,2161.407732040516 L59.57373973715447,2161.5178220379867 L59.677222663496416,2161.632946026534 L59.77615844049519,2161.752826662385 L59.87030872319824,2161.8771751425884 L59.95944669532795,2162.005691900763 L60.04335761570189,2162.1380673287827 L60.12183933556316,2162.2739825226454 L60.19470278557442,2162.413110050745 L60.26177243130251,2162.555114742681 L60.32288669609626,2162.699654496711 L60.37789835033882,2162.846381103908 L60.42667486613664,2162.9949410870227 L60.46909873659087,2163.1449765520447 L60.50506775888169,2163.2961260503967 L60.534495280483874,2163.448025449698 L60.55731040792035,2163.600308810991 L60.57345817755074,2163.7526092703197 L60.58289968798364,2163.9045599225374 L60.58561219379343,2164.0557947052143 " />
			<path d="M60.45373860395047,2194.3834997655404 L60.58561219379344,2164.055794705214 " />
			<path d="M-13.811665740407182,16.09479329536755 L58.39372528209665,27.316772341221156 " />
			<path d="M-13.811479726546498,2150.0477587005435 L58.39391129595734,2161.2697377463974 " />
			<path d="M62.74508594499646,26.968971976281665 L62.66546248933738,27.006846217436884 L62.579291904930784,27.04358186589554 L62.48678178426217,27.079090422262826 L62.38815499231516,27.113286343316275 L62.28364912967022,27.14608724808686 L62.173515960104126,27.17741411632197 L62.05802080406886,27.207191478852113 L61.93744189951151,27.235347599402772 L61.81206973157461,27.26181464741335 L61.682206332792035,27.28652886144695 L61.54816455546613,27.309430702797258 L61.410267317979155,27.330464998922494 L61.268846826854585,27.34958107636091 L61.12424377644251,27.36673288280758 L60.976806528157105,27.38187909805846 L60.826890271243464,27.39498323355435 L60.67485616709561,27.406013720285063 L60.52107047918705,27.4149439848419 L60.36590369070999,27.421752513435354 L60.20972961204888,27.42642290372368 L60.05292448023844,27.4289439043276 L59.89586605257571,27.42930944193584 L59.738932696569634,27.427518635936288 L59.58250247842056,27.42357580053745 L59.426952252225675,27.417490434375157 L59.27265675210448,27.409277197629507 L59.119987689431454,27.398955876707216 L58.96931285735081,27.386551336574428 L58.82099524473058,27.37209346085483 L58.67539216169066,27.35561707983739 L58.532854378811415,27.337161886567145 L58.39372528209665,27.31677234122116 " />
			<path d="M62.74527195885716,2160.921937381458 L62.66564850319808,2160.959811622613 L62.57947791879148,2160.996547271072 L62.48696779812287,2161.032055827439 L62.38834100617586,2161.0662517484925 L62.28383514353092,2161.0990526532632 L62.173701973964825,2161.130379521498 L62.05820681792956,2161.1601568840283 L61.93762791337221,2161.188313004579 L61.81225574543531,2161.2147800525895 L61.68239234665273,2161.2394942666233 L61.54835056932683,2161.2623961079735 L61.410453331839854,2161.283430404099 L61.26903284071528,2161.3025464815373 L61.12442979030321,2161.319698287984 L60.976992542017804,2161.3348445032348 L60.82707628510416,2161.3479486387305 L60.67504218095631,2161.3589791254612 L60.52125649304775,2161.367909390018 L60.36608970457069,2161.3747179186116 L60.20991562590958,2161.3793883088997 L60.05311049409914,2161.381909309504 L59.89605206643641,2161.382274847112 L59.73911871043033,2161.3804840411126 L59.58268849228126,2161.3765412057137 L59.427138266086374,2161.3704558395516 L59.27284276596518,2161.3622426028055 L59.12017370329215,2161.3519212818833 L58.969498871211506,2161.3395167417507 L58.82118125859128,2161.325058866031 L58.67557817555136,2161.3085824850136 L58.53304039267211,2161.2901272917434 L58.39391129595735,2161.2697377463974 " />
			<path d="M-13.811665740407172,16.094793295367552 L-14.002371061480405,16.062676746590064 L-14.184633972111934,16.026929063020958 L-14.35757255391823,15.987723217533318 L-14.520350006290833,15.94524891606214 L-14.672178695436486,15.899711679671285 L-14.81232396551303,15.851331850095496 L-14.940107693420071,15.80034352356942 L-15.054911570043767,15.74699341810252 " />
			<path d="M-13.811479726546484,2150.047758700544 L-13.993877603901218,2150.017148639691 L-14.168603629700126,2149.983216424244 L-14.334885845018169,2149.9461119704856 L-14.491989596619785,2149.905999210001 L-14.639220782738214,2149.863055365407 L-14.775928919693945,2149.817470167363 L-14.90151001580362,2149.7694450163194 L-15.015409239882166,2149.7191920927116 L-15.117123372548376,2149.6669334195185 L-15.163268438120646,2149.640123759754 L-15.206203029503861,2149.612899881344 L-15.245879711151476,2149.5852918621244 L-15.282254646962619,2149.5573302043413 L-15.31528764871365,2149.529045800952 L-15.34494222045942,2149.5004699014953 L-15.371185598855206,2149.471634077562 L-15.393988789354719,2149.4425701879186 L-15.413326598244236,2149.4133103433037 L-15.429177660477436,2149.3838868709554 L-15.441524463280214,2149.354332278892 L-15.45035336549936,2149.3246792199975 L-15.455654612673762,2149.2949604559444 L-15.457422347811448,2149.265208821 " />
			<path d="M0.29159098303209685,2141.102775933492 L0.37121443869117954,2141.064901692337 L0.4573850230977712,2141.028166043878 L0.5498951437663853,2140.992657487511 L0.6485219357134011,2140.9584615664576 L0.7530277983583318,2140.925660661687 L0.8631609679244341,2140.894333793452 L0.9786561239596958,2140.8645564309218 L1.099235028517047,2140.836400310371 L1.2246071964539442,2140.8099332623606 L1.3544705952365224,2140.785219048327 L1.488512372562425,2140.7623172069766 L1.6264096100494005,2140.741282910851 L1.7678301011739708,2140.7221668334128 L1.9124331515860455,2140.705015026966 L2.05987039987145,2140.6898688117153 L2.2097866567850897,2140.6767646762196 L2.3618207609329445,2140.665734189489 L2.5156064488415035,2140.656803924932 L2.6707732373185635,2140.6499953963385 L2.826947315979677,2140.6453250060504 L2.9837524477901165,2140.642804005446 L3.140810875452842,2140.642438467838 L3.297744231458921,2140.6442292738375 L3.454174449607997,2140.6481721092364 L3.609724675802879,2140.6542574753985 L3.7640201759240735,2140.6624707121446 L3.9166892385970984,2140.672792033067 L4.067364070677747,2140.6851965731994 L4.215681683297977,2140.699654448919 L4.361284766337896,2140.7161308299364 L4.503822549217139,2140.7345860232067 L4.64295164593189,2140.7549755685527 " />
			<path d="M4.642951645931909,2140.7549755685527 L76.84834266843575,2151.9769546144066 " />
			<path d="M76.84834266843573,2151.976954614406 L77.03074054579047,2152.007564675259 L77.20546657158937,2152.041496890706 L77.37174878690742,2152.0786013444645 L77.52885253850903,2152.118714104949 L77.67608372462746,2152.161657949543 L77.8127918615832,2152.207243147587 L77.93837295769286,2152.2552682986307 L78.05227218177141,2152.3055212222384 L78.15398631443763,2152.3577798954316 L78.20013138000989,2152.3845895551963 L78.24306597139311,2152.411813433606 L78.28274265304073,2152.4394214528256 L78.31911758885187,2152.467383110609 L78.3521505906029,2152.495667513998 L78.38180516234867,2152.5242434134548 L78.40804854074446,2152.553079237388 L78.43085173124398,2152.5821431270315 L78.45018954013348,2152.6114029716464 L78.46604060236669,2152.6408264439947 L78.47838740516946,2152.670381036058 L78.48721630738861,2152.7000340949526 L78.49251755456301,2152.7297528590057 L78.4942852897007,2152.75950449395 " />
			<path d="M78.4942852897007,2152.75950449395 L78.49267824596731,2152.7878720680233 L78.48785872394258,2152.816211149875 L78.47983156437311,2152.8444932756224 L78.46860482976913,2152.8726900385873 L78.45418979630641,2152.9007731178326 L78.43660094250048,2152.9287143066044 L78.41585593466431,2152.9564855406643 L78.39197560916425,2152.984058926477 L78.36498395149187,2153.0114067692266 L78.33490807217282,2153.038501600634 L78.30177817953695,2153.065316206545 L78.26562754937693,2153.0918236542666 L78.1844123133878,2153.143810913658 L78.09158857386551,2153.1942545664338 " />
			<path d="M62.74508594499646,26.96897197628166 L78.09140256000482,19.241289161257516 " />
			<path d="M62.745271958857145,2160.921937381458 L78.09158857386551,2153.1942545664338 " />
			<path d="M183.55360226827574,-83.28900318086028 L255.75899327591478,-72.06702413161105 " />
			<path d="M183.55360226827574,2050.664055958139 L255.75899327591478,2061.8860350073883 " />
			<path d="M260.1103539392753,-72.41482396655147 L260.03073048356606,-72.37694975139577 L259.9445598991108,-72.34021412887432 L259.85204977839516,-72.30470559831944 L259.7534229864028,-72.2705097028914 L259.64891712371445,-72.23770882349751 L259.53878395410686,-72.20638198032924 L259.42328879803216,-72.17660464249569 L259.3027098934375,-72.1484485462119 L259.1773377254655,-72.12198152197996 L259.0474743266502,-72.09726733117954 L258.913432549294,-72.07436551246093 L258.77553531177915,-72.05333123831143 L258.63411482062924,-72.03421518213983 L258.48951177019444,-72.01706339619982 L258.34207452188895,-72.00191720064603 L258.192158264958,-71.98881308399022 L258.04012416079553,-71.97778261519721 L257.88633847287514,-71.96885236763246 L257.73117168438904,-71.96204385504454 L257.57499760572176,-71.95737347973666 L257.41819247390794,-71.95485249305199 L257.26113404624476,-71.95448696826827 L257.10420069024104,-71.95627778596672 L256.9477704720972,-71.96022063191064 L256.79222024591036,-71.96630600743883 L256.63792474580003,-71.9745192523486 L256.4852556831407,-71.98484058021356 L256.3345808510765,-71.99724512605086 L256.1862632384754,-72.01170300622306 L256.0406601554573,-72.02817939043047 L255.8981223726025,-72.04663458562035 L255.75899327591475,-72.06702413161105 " />
			<path d="M260.1103539392753,2061.5382351724484 L260.03073048356606,2061.576109387604 L259.9445598991108,2061.6128450101255 L259.85204977839516,2061.6483535406805 L259.7534229864028,2061.6825494361083 L259.64891712371445,2061.7153503155023 L259.53878395410686,2061.7466771586705 L259.42328879803216,2061.776454496504 L259.3027098934375,2061.804610592788 L259.1773377254655,2061.8310776170197 L259.0474743266502,2061.8557918078204 L258.913432549294,2061.8786936265387 L258.77553531177915,2061.8997279006885 L258.63411482062924,2061.9188439568597 L258.48951177019444,2061.9359957428 L258.34207452188895,2061.951141938354 L258.192158264958,2061.9642460550094 L258.04012416079553,2061.9752765238027 L257.88633847287514,2061.984206771367 L257.73117168438904,2061.991015283955 L257.57499760572176,2061.995685659263 L257.41819247390794,2061.998206645948 L257.26113404624476,2061.9985721707317 L257.10420069024104,2061.996781353033 L256.9477704720972,2061.9928385070893 L256.79222024591036,2061.986753131561 L256.63792474580003,2061.978539886651 L256.4852556831407,2061.9682185587862 L256.3345808510765,2061.955814012949 L256.1862632384754,2061.941356132777 L256.0406601554573,2061.9248797485693 L255.8981223726025,2061.9064245533796 L255.75899327591475,2061.8860350073887 " />
			<path d="M183.55360226827574,-83.28900318086028 L183.36289693113997,-83.3211197312954 L183.1806340059851,-83.35686741457667 L183.00769541141707,-83.39607325780254 L182.8449179482504,-83.43854755501624 L182.69308925046653,-83.48408478513906 L182.55294397407607,-83.53246460642858 L182.42516024232702,-83.58345292264983 L182.31035636445844,-83.63680301580068 " />
			<path d="M183.55360226827574,2050.664055958139 L183.3712043869272,2050.6334458977194 L183.196478357503,2050.5995136848933 L183.03019613897905,2050.5624092359417 L182.8730923846382,2050.522296482434 L182.72586119629068,2050.479352646964 L182.58915305765518,2050.4337674601597 L182.46357196044977,2050.385742322432 L182.3496727358894,2050.3354894141657 L182.2479586033801,2050.283230758283 L182.20181353813217,2050.2564211078907 L182.15887894723988,2050.2291972393205 L182.11920226625142,2050.2015892303975 L182.08282733126887,2050.173627583358 L182.04979433051682,2050.14534319115 L182.02013975994092,2050.116767303299 L181.9938963828861,2050.087931491387 L181.9710931938985,2050.058867614166 L181.95175538669127,2050.029607782365 L181.93590432630984,2050.0001843232076 L181.9235575255271,2049.9706297446996 L181.91472862549458,2049.940976699711 L181.90942738067145,2049.9112579499015 L181.90765964804737,2049.8815063295233 " />
			<path d="M197.65667298970322,2041.7190789532656 L197.73629644541248,2041.68120473811 L197.82246702986774,2041.6444691155884 L197.91497715058338,2041.6089605850336 L198.01360394257568,2041.5747646896057 L198.11810980526408,2041.5419638102117 L198.22824297487168,2041.5106369670434 L198.34373813094638,2041.4808596292098 L198.46431703554103,2041.452703532926 L198.589689203513,2041.426236508694 L198.7195526023283,2041.4015223178938 L198.85359437968455,2041.3786204991752 L198.9914916171994,2041.3575862250257 L199.13291210834927,2041.338470168854 L199.27751515878407,2041.321318382914 L199.42495240708953,2041.3061721873603 L199.57486866402053,2041.2930680707043 L199.726902768183,2041.2820376019113 L199.8806884561034,2041.2731073543466 L200.03585524458947,2041.2662988417587 L200.19202932325678,2041.261628466451 L200.34883445507054,2041.2591074797663 L200.50589288273375,2041.2587419549825 L200.66282623873747,2041.2605327726808 L200.8192564568813,2041.2644756186248 L200.97480668306815,2041.270560994153 L201.12910218317845,2041.2787742390628 L201.2817712458378,2041.2890955669277 L201.43244607790203,2041.301500112765 L201.5807636905031,2041.3159579929372 L201.7263667735212,2041.3324343771446 L201.868904556376,2041.3508895723346 L202.00803365306373,2041.3712791183252 " />
			<path d="M202.00803365306376,2041.3712791183252 L274.2134246607028,2052.5932581675743 " />
			<path d="M274.2134246607028,2052.5932581675743 L274.39582254205135,2052.623868227994 L274.5705485714755,2052.65780044082 L274.7368307899995,2052.694904889772 L274.8939345443403,2052.7350176432797 L275.0411657326879,2052.7779614787496 L275.17787387132336,2052.8235466655537 L275.30345496852874,2052.8715718032813 L275.4173541930891,2052.9218247115477 L275.5190683255984,2052.9740833674305 L275.5652133908464,2053.000893017823 L275.6081479817387,2053.028116886393 L275.64782466272715,2053.055724895316 L275.68419959770966,2053.0836865423553 L275.7172325984617,2053.1119709345635 L275.7468871690376,2053.1405468224143 L275.77313054609243,2053.1693826343267 L275.79593373508004,2053.1984465115474 L275.8152715422873,2053.2277063433485 L275.8311226026687,2053.257129802506 L275.8434694034515,2053.286684381014 L275.85229830348396,2053.3163374260025 L275.85759954830706,2053.346056175812 L275.85936728093117,2053.37580779619 " />
			<path d="M275.85936728093117,2053.37580779619 L275.8577602348772,2053.4041753541046 L275.8529407108385,2053.432514419537 L275.8449135495632,2053.460796528622 L275.83368681356245,2053.488993274703 L275.8192717790124,2053.5170763368606 L275.8016829244283,2053.5450175083615 L275.7809379161222,2053.5727887249873 L275.75705759045894,2053.600362093223 L275.730065932928,2053.627709918273 L275.69999005405236,2053.6548047318784 L275.66686016215857,2053.681619319906 L275.6307095330353,2053.708126749682 L275.54949429998544,2053.760113973081 L275.4566705645201,2053.8105575898658 " />
			<path d="M260.11035393927534,-72.41482396655147 L275.4566705645201,-80.14250154913373 " />
			<path d="M260.11035393927534,2061.538235172448 L275.4566705645201,2053.8105575898658 " />
			<path d="M380.9188894992718,-182.6728060150828 L453.12428050691085,-171.45082696583358 " />
			<path d="M380.9188894992718,1951.2802531239167 L453.12428050691085,1962.5022321731658 " />
			<path d="M457.4756411702714,-171.79862680077403 L457.39601771456216,-171.76075258561832 L457.3098471301069,-171.7240169630969 L457.21733700939126,-171.688508432542 L457.1187102173989,-171.65431253711398 L457.01420435471056,-171.62151165772008 L456.90407118510296,-171.5901848145518 L456.78857602902826,-171.56040747671827 L456.6679971244336,-171.53225138043445 L456.5426249564616,-171.50578435620253 L456.4127615576463,-171.4810701654021 L456.2787197802901,-171.4581683466835 L456.14082254277525,-171.437134072534 L455.99940205162534,-171.4180180163624 L455.85479900119054,-171.40086623042237 L455.70736175288505,-171.3857200348686 L455.5574454959541,-171.3726159182128 L455.40541139179163,-171.36158544941978 L455.25162570387124,-171.35265520185501 L455.09645891538514,-171.34584668926712 L454.94028483671786,-171.34117631395924 L454.78347970490404,-171.33865532727455 L454.62642127724087,-171.33828980249083 L454.46948792123715,-171.3400806201893 L454.3130577030933,-171.34402346613322 L454.15750747690646,-171.35010884166138 L454.00321197679614,-171.35832208657115 L453.8505429141368,-171.36864341443612 L453.6998680820726,-171.38104796027343 L453.5515504694715,-171.39550584044562 L453.4059473864534,-171.41198222465303 L453.26340960359863,-171.43043741984292 L453.12428050691085,-171.4508269658336 " />
			<path d="M457.4756411702714,1962.1544323382257 L457.39601771456216,1962.1923065533813 L457.3098471301069,1962.2290421759028 L457.21733700939126,1962.2645507064576 L457.1187102173989,1962.2987466018856 L457.01420435471056,1962.3315474812796 L456.90407118510296,1962.3628743244478 L456.78857602902826,1962.3926516622814 L456.6679971244336,1962.4208077585652 L456.5426249564616,1962.4472747827972 L456.4127615576463,1962.4719889735975 L456.2787197802901,1962.494890792316 L456.14082254277525,1962.5159250664656 L455.99940205162534,1962.5350411226373 L455.85479900119054,1962.5521929085774 L455.70736175288505,1962.567339104131 L455.5574454959541,1962.580443220787 L455.40541139179163,1962.59147368958 L455.25162570387124,1962.6004039371446 L455.09645891538514,1962.6072124497325 L454.94028483671786,1962.6118828250403 L454.78347970490404,1962.614403811725 L454.62642127724087,1962.6147693365087 L454.46948792123715,1962.6129785188105 L454.3130577030933,1962.6090356728664 L454.15750747690646,1962.6029502973383 L454.00321197679614,1962.5947370524284 L453.8505429141368,1962.5844157245635 L453.6998680820726,1962.5720111787261 L453.5515504694715,1962.557553298554 L453.4059473864534,1962.5410769143466 L453.26340960359863,1962.5226217191566 L453.12428050691085,1962.502232173166 " />
			<path d="M380.91888949927187,-182.6728060150828 L380.72818416213613,-182.70492256551793 L380.5459212369812,-182.7406702487992 L380.37298264241315,-182.7798760920251 L380.2102051792465,-182.8223503892388 L380.0583764814626,-182.86788761936162 L379.9182312050722,-182.91626744065113 L379.79044747332307,-182.9672557568724 L379.6756435954545,-183.02060585002326 " />
			<path d="M380.91888949927187,1951.2802531239167 L380.7894710437254,1951.259013476201 L380.66375384813364,1951.2361000259357 L380.5420143120811,1951.2115631502238 L380.4245200899412,1951.185456795403 L380.3115295024158,1951.1578383584397 L380.2032909685959,1951.1287685607365 L380.10004245979206,1951.0983113146326 L380.00201097633476,1951.066533582886 " />
			<path d="M398.34290065520184,1941.886888042702 L398.61113135560237,1941.9026635554915 L398.8735523695506,1941.9248026342823 L399.12823839624417,1941.9531428515859 L399.3733208840598,1941.9874762841027 " />
			<path d="M399.37332088405986,1941.9874762841027 L471.5787118916989,1953.2094553333518 " />
			<path d="M471.57871189169884,1953.2094553333518 L471.7611097730474,1953.2400653937718 L471.93583580247156,1953.2739976065975 L472.10211802099553,1953.3111020555496 L472.25922177533636,1953.3512148090574 L472.40645296368393,1953.3941586445271 L472.5431611023194,1953.4397438313313 L472.6687421995248,1953.4877689690588 L472.78264142408517,1953.538021877325 L472.88435555659447,1953.590280533208 L472.93050062184244,1953.6170901836 L472.9734352127347,1953.6443140521703 L473.0131118937232,1953.6719220610933 L473.0494868287057,1953.6998837081326 L473.08251982945774,1953.728168100341 L473.11217440003367,1953.7567439881918 L473.1384177770885,1953.7855798001042 L473.1612209660761,1953.8146436773247 L473.18055877328334,1953.843903509126 L473.19640983366475,1953.8733269682834 L473.2087566344475,1953.9028815467916 L473.21758553448,1953.93253459178 L473.2228867793031,1953.9622533415895 L473.2246545119272,1953.9920049619677 " />
			<path d="M473.2246545119272,1953.9920049619677 L473.22304746587326,1954.0203725198824 L473.2182279418345,1954.0487115853145 L473.21020078055926,1954.0769936943996 L473.1989740445585,1954.10519044048 L473.18455901000846,1954.1332735026378 L473.16697015542434,1954.1612146741388 L473.14622514711823,1954.1889858907648 L473.122344821455,1954.2165592590004 L473.0953531639241,1954.2439070840503 L473.0652772850484,1954.2710018976559 L473.0321473931546,1954.2978164856836 L472.99599676403136,1954.3243239154597 L472.9147815309815,1954.3763111388587 L472.82195779551614,1954.4267547556433 " />
			<path d="M457.4756411702714,-171.798626800774 L472.82195779551614,-179.52630438335626 " />
			<path d="M457.4756411702714,1962.1544323382254 L472.82195779551614,1954.4267547556433 " />
			<path d="M578.2841767302677,-282.0566088493053 L650.4895677379068,-270.8346298000561 " />
			<path d="M578.2841767302677,1851.8964502896943 L650.4895677379068,1863.1184293389433 " />
			<path d="M654.8409284012674,-271.1824296349965 L654.7613049455582,-271.1445554198408 L654.6751343611029,-271.10781979731934 L654.5826242403873,-271.0723112667645 L654.4839974483949,-271.0381153713364 L654.3794915857065,-271.00531449194256 L654.269358416099,-270.97398764877425 L654.1538632600243,-270.9442103109407 L654.0332843554296,-270.9160542146569 L653.9079121874577,-270.889587190425 L653.7780487886423,-270.86487299962454 L653.6440070112861,-270.84197118090594 L653.5061097737713,-270.82093690675646 L653.3646892826214,-270.8018208505848 L653.2200862321866,-270.78466906464485 L653.0726489838811,-270.769522869091 L652.9227327269501,-270.75641875243525 L652.7706986227877,-270.7453882836422 L652.6169129348673,-270.73645803607747 L652.4617461463812,-270.72964952348957 L652.3055720677139,-270.72497914818166 L652.1487669359001,-270.722458161497 L651.9917085082369,-270.7220926367133 L651.8347751522332,-270.72388345441175 L651.6783449340893,-270.7278263003557 L651.5227947079026,-270.73391167588386 L651.3684992077922,-270.74212492079363 L651.2158301451328,-270.7524462486586 L651.0651553130687,-270.7648507944959 L650.9168377004676,-270.7793086746681 L650.7712346174494,-270.7957850588755 L650.6286968345946,-270.8142402540654 L650.4895677379069,-270.83462980005606 " />
			<path d="M654.8409284012674,1862.770629504003 L654.7613049455582,1862.8085037191586 L654.6751343611029,1862.84523934168 L654.5826242403873,1862.880747872235 L654.4839974483949,1862.9149437676629 L654.3794915857065,1862.9477446470569 L654.269358416099,1862.9790714902251 L654.1538632600243,1863.0088488280587 L654.0332843554296,1863.0370049243425 L653.9079121874577,1863.0634719485745 L653.7780487886423,1863.0881861393748 L653.6440070112861,1863.1110879580933 L653.5061097737713,1863.1321222322429 L653.3646892826214,1863.1512382884146 L653.2200862321866,1863.1683900743546 L653.0726489838811,1863.1835362699082 L652.9227327269501,1863.1966403865642 L652.7706986227877,1863.2076708553573 L652.6169129348673,1863.216601102922 L652.4617461463812,1863.2234096155098 L652.3055720677139,1863.2280799908176 L652.1487669359001,1863.2306009775023 L651.9917085082369,1863.230966502286 L651.8347751522332,1863.2291756845877 L651.6783449340893,1863.2252328386437 L651.5227947079026,1863.2191474631156 L651.3684992077922,1863.2109342182057 L651.2158301451328,1863.2006128903408 L651.0651553130687,1863.1882083445034 L650.9168377004676,1863.1737504643313 L650.7712346174494,1863.157274080124 L650.6286968345946,1863.138818884934 L650.4895677379069,1863.1184293389433 " />
			<path d="M578.2841767302679,-282.0566088493053 L578.0934713931321,-282.08872539974044 L577.9112084679772,-282.12447308302166 L577.7382698734092,-282.16367892624754 L577.5754924102425,-282.2061532234613 L577.4236637124586,-282.2516904535841 L577.2835184360682,-282.3000702748736 L577.1557347043191,-282.35105859109484 L577.0409308264506,-282.4044086842457 " />
			<path d="M578.2841767302679,1851.8964502896943 L578.1778948996272,1851.8791767599178 " />
			<path d="M596.7169670492855,1842.6003405661725 L596.7386081150557,1842.60367344988 " />
			<path d="M596.7386081150559,1842.6036734498803 L668.9439991226949,1853.8256524991293 " />
			<path d="M668.9439991226948,1853.8256524991293 L669.1263970040433,1853.8562625595494 L669.3011230334675,1853.890194772375 L669.4674052519915,1853.927299221327 L669.6245090063323,1853.967411974835 L669.7717401946799,1854.0103558103046 L669.9084483333153,1854.0559409971088 L670.0340294305207,1854.1039661348364 L670.1479286550812,1854.1542190431026 L670.2496427875905,1854.2064776989855 L670.2957878528383,1854.2332873493776 L670.3387224437306,1854.2605112179479 L670.3783991247191,1854.2881192268708 L670.4147740597016,1854.31608087391 L670.4478070604537,1854.3443652661185 L670.4774616310295,1854.3729411539694 L670.5037050080844,1854.4017769658817 L670.526508197072,1854.4308408431023 L670.5458460042793,1854.4601006749035 L670.5616970646606,1854.489524134061 L670.5740438654434,1854.5190787125691 L670.5828727654759,1854.5487317575576 L670.5881740102991,1854.578450507367 L670.5899417429232,1854.6082021277452 " />
			<path d="M670.5899417429232,1854.6082021277452 L670.5883346968692,1854.6365696856599 L670.5835151728305,1854.664908751092 L670.5754880115552,1854.693190860177 L670.5642612755545,1854.7213876062576 L670.5498462410044,1854.7494706684154 L670.5322573864203,1854.7774118399163 L670.5115123781142,1854.8051830565423 L670.487632052451,1854.832756424778 L670.46064039492,1854.8601042498278 L670.4305645160443,1854.8871990634334 L670.3974346241505,1854.9140136514611 L670.3612839950273,1854.9405210812372 L670.2800687619774,1854.9925083046362 L670.1872450265121,1855.0429519214208 " />
			<path d="M654.8409284012674,-271.1824296349965 L670.1872450265122,-278.91010721757874 " />
			<path d="M654.8409284012674,1862.770629504003 L670.1872450265122,1855.0429519214208 " />
			<path d="M781.865646263901,-384.57058917930505 L854.0710372699143,-373.3486101292372 " />
			<path d="M782.7049921036935,1749.5130272126908 L854.0708730017878,1760.6045317273795 " />
			<path d="M858.4223979333251,-373.6964094965983 L858.3427744776104,-373.6585353043841 L858.2566038931498,-373.621799704749 L858.1640937724289,-373.5862911969701 L858.0654669804318,-373.55209532415284 L857.9609611177386,-373.5192944671501 L857.8508279481265,-373.4879676460993 L857.7353327920474,-373.45819033005637 L857.6147538874487,-373.4300342551838 L857.4893817194729,-373.40356725193215 L857.359518320654,-373.37885308163044 L857.2254765432945,-373.35595128287974 L857.0875793057766,-373.3349170281191 L856.9461588146239,-373.3158009907106 L856.8015557641867,-373.2986492228628 L856.654118515879,-373.28350304468677 L856.5042022589461,-373.27039894465236 L856.352168154782,-373.2593684916843 L856.1983824668604,-373.25043825910996 L856.0432156783733,-373.24362976064185 L855.8870415997053,-373.2389593985491 L855.7302364678911,-373.2364384241431 L855.5731780402278,-373.23607291067196 L855.4162446842245,-373.2378637386896 L855.2598144660811,-373.2418065939346 L855.1042642398952,-373.24789197772327 L854.9499687397861,-373.256105229833 L854.7972996771282,-373.26642656382006 L854.6466248450658,-373.2788311146869 L854.4983072324668,-373.29328899878396 L854.3527041494511,-373.30976538580205 L854.210166366599,-373.32822058268164 L854.0710372699142,-373.3486101292371 " />
			<path d="M858.4222336651987,1760.256732360018 L858.3426102094841,1760.2946065522324 L858.2564396250234,1760.3313421518674 L858.1639295043026,1760.3668506596464 L858.0653027123054,1760.4010465324636 L857.9607968496123,1760.4338473894663 L857.8506636800001,1760.465174210517 L857.7351685239211,1760.49495152656 L857.6145896193224,1760.5231076014327 L857.4892174513466,1760.5495746046843 L857.3593540525277,1760.574288774986 L857.2253122751681,1760.5971905737367 L857.0874150376502,1760.6182248284974 L856.9459945464976,1760.6373408659058 L856.8013914960603,1760.6544926337535 L856.6539542477526,1760.6696388119296 L856.5040379908197,1760.6827429119642 L856.3520038866557,1760.6937733649322 L856.198218198734,1760.7027035975063 L856.0430514102469,1760.7095120959746 L855.886877331579,1760.7141824580674 L855.7300721997648,1760.7167034324734 L855.5730137721015,1760.7170689459444 L855.4160804160981,1760.7152781179268 L855.2596501979548,1760.7113352626818 L855.1040999717688,1760.7052498788933 L854.9498044716597,1760.6970366267835 L854.7971354090018,1760.6867152927964 L854.6464605769395,1760.6743107419295 L854.4981429643404,1760.6598528578324 L854.3525398813248,1760.6433764708145 L854.2100020984726,1760.6249212739347 L854.0708730017878,1760.6045317273793 " />
			<path d="M781.865646263901,-384.570589179305 L781.6749409123553,-384.602705731234 L781.4926779741643,-384.6384534143002 L781.3197393681332,-384.67765925557654 L781.1569618952614,-384.72013354908626 L781.0051331896985,-384.7656707737369 L780.8649879076065,-384.8140505877784 L780.7372041723658,-384.8650388949748 L780.6224002933275,-384.9183889773296 " />
			<path d="M858.4223979333252,-373.6964094965984 L873.7687145596893,-381.424082462149 " />
			<path d="M858.4222336651987,1760.2567323600183 L873.7436633524719,1752.5415912697765 " />
			<path d="M873.2394700625056,-382.49034609490224 L780.2196998177218,-335.64999926698033 " />
			<path d="M669.6580040687428,-279.97637030469264 L576.6382341100394,-233.13602362082725 " />
			<path d="M472.292716837747,-180.59256747047016 L379.27294687904345,-133.75222078660477 " />
			<path d="M274.927429606751,-81.20876463624762 L181.9076596480474,-34.36841795238219 " />
			<path d="M77.56216536318087,18.175026622596903 L59.83290671096871,27.102640850047873 " />
			<path d="M199.75549993517234,2041.2802097012927 L182.04738684099388,2050.143149516985 " />
			<path d="M0.46831080090678867,2141.023776615609 L-15.457422371397243,2148.9946323401136 " />
			<path d="M78.49428528970068,2152.75950449395 L78.4942808625905,2101.9716498847806 " />
			<path d="M275.85936728093117,2053.37580779619 L275.85936728093117,2003.1900985505663 " />
			<path d="M473.2246545119272,1953.9920049619677 L473.2246545119272,1904.408446709287 " />
			<path d="M670.5899417429232,1854.6082021277452 L670.5899417429232,1805.626794868008 " />

       </g>

       <!-- solid lines -->
       <g  stroke="rgb(0,0,0)" fill="none">
			<path d="M-58.39370604491874,9.165974816658764 L-15.457608315755945,15.838994413245482 " />
			<path d="M755.7381037829401,-400.7922118745093 L872.5255158727776,-382.6414079885565 " />
			<path d="M875.3228191563666,-385.278890070188 L875.3213691689106,-385.18020887501353 L875.31702070975,-385.0820806897662 L875.3097782869489,-384.98460724430737 L875.2996494087546,-384.88788958972725 L875.2866445758134,-384.79202799358484 L875.2707772702848,-384.69712183595993 L875.2520639418648,-384.6032695064258 L875.2305239907315,-384.510568302048 L875.2061797474341,-384.4191143265163 L875.1790564497419,-384.32900239051366 L875.1491822164802,-384.2403259134255 L875.11658801838,-384.15317682649163 L875.0813076459697,-384.0676454775006 L875.0433776745452,-383.98382053712595 L875.0028374262516,-383.901788907001 L874.959728929318,-383.82163562962745 L874.9140968744862,-383.7434438002116 L874.8659885686805,-383.66729448051933 L874.8154538859638,-383.59326661483874 L874.7625452158331,-383.5214369481388 L874.7073174089072,-383.451879946507 L874.6498277200628,-383.38466771995047 L874.5901357490781,-383.3198699476391 L874.5283033788455,-383.2575538056691 L874.4643947112176,-383.1977838974207 L874.3984760005521,-383.14062218658444 L874.3306155850263,-383.0861279329224 L874.26088381579,-383.0343576308338 L874.1893529840323,-382.985364950787 L874.1160972460378,-382.939200683679 L874.0411925463077,-382.89591268818043 L873.9647165388276,-382.8555458411202 " />
			<path d="M873.9647165388276,-382.8555458411202 L873.8828931492958,-382.81638695887835 L873.799521366249,-382.78053304400794 L873.7146962939225,-382.748024995948 L873.6285146943549,-382.7188998974255 L873.5410748770079,-382.6931909721538 L873.4524765866236,-382.67092754693385 L873.3628208894426,-382.6521350182003 L873.272210057915,-382.636834823051 L873.1807474540364,-382.6250444147935 L873.0885374114399,-382.6167772430353 L872.9956851163803,-382.6120427383418 L872.9022964877453,-382.61084630147855 L872.8084780562317,-382.6131892972503 L872.714336842823,-382.6190690529444 L872.6199802367074,-382.6284788613795 L872.5255158727776,-382.6414079885566 " />
			<path d="M-58.39370604491873,9.165974816658764 L-58.53096321143288,9.14094201752711 L-58.6678897134106,9.108568248917832 L-58.80415568291527,9.068931502075117 L-58.93943284329087,9.022127265393882 L-59.07339530000915,8.968268294379856 L-59.20572032577819,8.907484340011699 L-59.336089138020576,8.839921836159531 L-59.46418766684867,8.76574354681291 L-59.589707311686425,8.685128173968122 L-59.712345684715196,8.598269927119421 L-59.8318073393525,8.505378055391352 L-59.94780448200872,8.406676343439273 L-60.06005766540705,8.302402572332527 L-60.16829646179645,8.192807946719013 L-60.27226011443584,8.078156489651187 L-60.371698165779854,7.958724406531409 L-60.466371060853064,7.834799419708929 L-60.556050724358876,7.706680075331552 L-60.64052111013289,7.574675024121811 L-60.71957872161705,7.439102277810346 L-60.79303310210065,7.300288443017792 L-60.86070729354728,7.15856793443082 L-60.92243826290216,7.014282169167868 L-60.97807729485315,6.867778744275393 L-61.02749035009885,6.719410599336145 L-61.07055838826112,6.569535166206799 L-61.1071776546637,6.4185135079333 L-61.13725993028637,6.266709448918361 L-61.16073274429224,6.1144886984366185 L-61.17753954861641,5.962217969608947 L-61.187639854195154,5.810264095958431 L-61.191009328507654,5.658993147676309 " />
			<path d="M755.7381037829401,-400.79221187450935 L755.600846616426,-400.81724467364097 L755.4639201144482,-400.8496184422503 L755.3276541449436,-400.889255189093 L755.192376984568,-400.9360594257742 L755.0584145278497,-400.98991839678825 L754.9260895020807,-401.0507023511564 L754.7957206898383,-401.1182648550086 L754.6676221610102,-401.1924431443552 L754.5421025161725,-401.27305851719996 L754.4194641431436,-401.35991676404865 L754.3000024885064,-401.45280863577676 L754.1840053458501,-401.5515103477288 L754.0717521624518,-401.6557841188356 L753.9635133660624,-401.7653787444491 L753.859549713423,-401.8800302015169 L753.760111662079,-401.9994622846367 L753.6654387670058,-402.1233872714592 L753.5757591035,-402.25150661583655 L753.491288717726,-402.38351166704626 L753.4122311062418,-402.51908441335775 L753.3387767257582,-402.65789824815033 L753.2711025343116,-402.7996187567373 L753.2093715649567,-402.94390452200025 L753.1537325330057,-403.0904079468927 L753.10431947776,-403.23877609183194 L753.0612514395978,-403.3886515249613 L753.0246321731952,-403.5396731832348 L752.9945498975725,-403.69147724224973 L752.9710770835666,-403.8436979927315 L752.9542702792425,-403.99596872155917 L752.9441699736637,-404.14792259520965 L752.9408004993512,-404.2991935434918 " />
			<path d="M-61.191009328507654,5.658993147676281 L-61.191009328507654,-24.679296620980036 " />
			<path d="M752.9408004993512,-404.2991935434918 L752.9408004993512,-434.6374833121481 " />
			<path d="M-61.19100932850765,-24.679296620980036 L-61.189559341051634,-24.7779778161545 L-61.18521088189107,-24.876106001401855 L-61.177968459090046,-24.97357944686068 L-61.167839580895716,-25.07029710144078 L-61.15483474795448,-25.166158697583217 L-61.13896744242593,-25.2610648552081 L-61.1202541140058,-25.354917184742245 L-61.09871416287258,-25.447618389120052 L-61.07436991957521,-25.53907236465174 L-61.047246621882955,-25.629184300654384 L-61.017372388621276,-25.71786077774253 L-60.98477819052099,-25.805009864676425 L-60.94949781811075,-25.890541213667458 L-60.9115678466863,-25.97436615404209 L-60.87102759839272,-26.056397784167057 L-60.82791910145901,-26.13655106154061 L-60.78228704662725,-26.214742890956437 L-60.734178740821584,-26.29089221064874 L-60.683644058104896,-26.364920076329287 L-60.63073538797422,-26.436749743029267 L-60.57550758104832,-26.506306744661078 L-60.518017892203886,-26.5735189712176 L-60.45832592121915,-26.638316743528918 L-60.39649355098657,-26.700632885498987 L-60.33258488335864,-26.76040279374733 L-60.26666617269321,-26.817564504583622 L-60.198805757167364,-26.872058758245675 L-60.12907398793099,-26.923829060334256 L-60.05754315617342,-26.972821740381058 L-59.984287418178965,-27.018986007489055 L-59.90938271844873,-27.06227400298764 L-59.832906710968736,-27.102640850047866 " />
			<path d="M752.9408004993512,-434.6374833121481 L752.9422504868072,-434.7361645073226 L752.9465989459678,-434.83429269256993 L752.9538413687688,-434.93176613802876 L752.9639702469632,-435.0284837926089 L752.9769750799044,-435.1243453887513 L752.9928423854329,-435.2192515463762 L753.011555713853,-435.3131038759103 L753.0330956649863,-435.40580508028813 L753.0574399082836,-435.4972590558198 L753.0845632059759,-435.58737099182247 L753.1144374392376,-435.6760474689106 L753.1470316373378,-435.7631965558445 L753.1823120097481,-435.8487279048355 L753.2202419811725,-435.9325528452102 L753.2607822294661,-436.01458447533514 L753.3038907263998,-436.0947377527087 L753.3495227812316,-436.17292958212454 L753.3976310870373,-436.2490789018168 L753.4481657697539,-436.3231067674974 L753.5010744398846,-436.39493643419735 L753.5563022468106,-436.4644934358291 L753.613791935655,-436.53170566238566 L753.6734839066397,-436.596503434697 L753.7353162768723,-436.65881957666704 L753.7992249445002,-436.7185894849154 L753.8651436551656,-436.7757511957517 L753.9330040706915,-436.8302454494137 L754.0027358399278,-436.8820157515023 L754.0742666716855,-436.9310084315491 L754.1475224096799,-436.9771726986571 L754.2224271094101,-437.0204606941557 L754.2989031168901,-437.06082754121593 " />
			<path d="M754.2989031168902,-437.06082754121593 L754.380726506422,-437.0999864234578 L754.4640982894688,-437.1358403383282 L754.5489233617952,-437.1683483863881 L754.6351049613629,-437.19747348491063 L754.7225447787099,-437.22318241018235 L754.8111430690942,-437.2454458354023 L754.9007987662752,-437.26423836413585 L754.9914095978028,-437.27953855928513 L755.0828722016814,-437.29132896754265 L755.1750822442779,-437.29959613930083 L755.2679345393375,-437.3043306439943 L755.3613231679725,-437.3055270808576 L755.4551415994861,-437.30318408508583 L755.5492828128948,-437.29730432939175 L755.6436394190104,-437.2878945209566 L755.7381037829401,-437.27496539377955 " />
			<path d="M755.7381037829401,-437.27496539377955 L872.5255158727776,-419.1241615078268 " />
			<path d="M872.5255158727776,-419.1241615078268 L872.6627730392918,-419.09912870869516 L872.7996995412695,-419.06675494008584 L872.9359655107742,-419.02711819324315 L873.0712426711498,-418.98031395656193 L873.2052051278681,-418.9264549855479 L873.3375301536371,-418.8656710311797 L873.4678989658795,-418.79810852732754 L873.5959974947076,-418.72393023798094 L873.7215171395453,-418.6433148651362 L873.8441555125742,-418.5564566182875 L873.9636171672114,-418.46356474655937 L874.0796143098677,-418.3648630346073 L874.1918674932659,-418.26058926350055 L874.3001062896553,-418.15099463788704 L874.4040699422948,-418.03634318081924 L874.5035079936388,-417.9169110976994 L874.598180888712,-417.79298611087694 L874.6878605522178,-417.6648667664996 L874.7723309379918,-417.53286171528987 L874.8513885494759,-417.3972889689784 L874.9248429299596,-417.2584751341858 L874.9925171214062,-417.11675462559884 L875.0542480907611,-416.9724688603359 L875.109887122712,-416.82596543544344 L875.1593001779578,-416.6775972905042 L875.20236821612,-416.52772185737484 L875.2389874825226,-416.3767001991013 L875.2690697581453,-416.2248961400864 L875.2925425721512,-416.0726753896046 L875.3093493764753,-415.92040466077697 L875.319449682054,-415.7684507871265 L875.3228191563666,-415.6171798388443 " />
			<path d="M875.3228191563666,-385.278890070188 L875.3228191563666,-415.6171798388443 " />
			<path d="M-14.524364957698467,2185.4322407941368 L57.64449623155764,2197.0062711850755 " />
			<path d="M800.9105027295345,1777.305744340664 L873.0793639187907,1788.8797747316023 " />
			<path d="M59.09008232305281,2196.796703753015 L59.00784473244657,2196.835806392187 L58.92405478801258,2196.871573531641 L58.838808839527516,2196.903964042863 L58.75220491102224,2196.932940680113 L58.66434258806429,2196.958470123253 L58.57532290324478,2196.9805230160614 L58.485248220001374,2196.9990739999907 L58.39422211491085,2197.014101743326 L58.30234925858682,2197.025588965717 L58.2097352953193,2197.033522458043 L58.116486721594676,2197.03789309761 L58.02271076363579,2197.0386958586323 L57.92851525410288,2197.0359298180188 L57.83400850809707,2197.02959815643 L57.739299198609324,2197.019708154622 L57.64449623155765,2197.0062711850755 " />
			<path d="M875.8886062911834,1786.2570033120674 L875.8867341109235,1786.355435894298 L875.8819775420591,1786.4533039683788 L875.8743414950104,1786.5505065006842 L875.8638338528135,1786.6469431446571 L875.8504654629809,1786.7425143444016 L875.8342501263044,1786.8371214374583 L875.8152045826072,1786.9306667566595 L875.7933484934628,1787.023053730954 L875.7687044218975,1787.1141869851022 L875.7412978090978,1787.2039724381366 L875.7111569481458,1787.2923174004854 L875.6783129548113,1787.3791306696605 L875.6427997354297,1787.4643226244095 L875.6046539518985,1787.5478053172362 L875.5639149838304,1787.6294925651923 L875.520624887899,1787.7093000388484 L875.4748283544222,1787.7871453493506 L875.4265726612267,1787.862948133475 L875.3759076248405,1787.9366301365894 L875.3228855490652,1788.0081152934395 L875.2675611709805,1788.0773298066745 L875.2099916044364,1788.1442022230315 L875.1502362810925,1788.2086635070998 L875.0883568890634,1788.270647112589 L875.0244173092359,1788.3300890510282 L874.9584835493214,1788.386927957824 L874.8906236757131,1788.44110515561 L874.8209077432186,1788.4925647148225 L874.7494077227386,1788.5412535114374 L874.6761974269682,1788.5871212818147 L874.6013524341969,1788.630120674587 L874.5249500102857,1788.6702072995422 " />
			<path d="M874.5249500102857,1788.6702072995422 L874.4427124196794,1788.709309938714 L874.3589224752454,1788.7450770781677 L874.2736765267604,1788.77746758939 L874.1870725982551,1788.8064442266402 L874.0992102752972,1788.8319736697802 L874.0101905904777,1788.8540265625884 L873.9201159072343,1788.8725775465175 L873.8290898021437,1788.8876052898534 L873.7372169458197,1788.8990925122437 L873.6446029825522,1788.9070260045703 L873.5513544088276,1788.9113966441366 L873.4575784508687,1788.9121994051593 L873.3633829413358,1788.9094333645457 L873.26887619533,1788.9031017029567 L873.1741668858422,1788.893211701149 L873.0793639187906,1788.8797747316025 " />
			<path d="M-14.524364957698467,2185.4322407941368 L-14.661536597875783,2185.4065400622703 L-14.798345607908615,2185.3735025522615 L-14.934462402908748,2185.333207854366 L-15.0695590655946,2185.2857530420392 L-15.203310136272691,2185.2312524380823 L-15.335393396898548,2185.169837339223 L-15.465490647328195,2185.1016556998134 L-15.593288471890173,2185.0268717753956 L-15.718478994431345,2184.9456657269934 L-15.840760620017516,2184.8582331870907 L-15.959838761502043,2184.7647847883336 L-16.07542654921208,2184.6655456561 L-16.18724552204273,2184.5607548661524 L-16.295026298294264,2184.4506648686815 L-16.398509224636214,2184.3355408801344 L-16.497445001634986,2184.2156602442833 L-16.59159528433804,2184.09131176408 L-16.680733256467747,2183.9627950059053 L-16.764644176841692,2183.8304195778856 L-16.843125896702958,2183.694504384023 L-16.91598934671422,2183.555376855923 L-16.98305899244231,2183.4133721639873 L-17.04417325723606,2183.268832409957 L-17.099184911478613,2183.1221058027604 L-17.147961427276442,2182.9735458196456 L-17.19038529773067,2182.8235103546235 L-17.226354320021485,2182.6723608562716 L-17.255781841623673,2182.52046145697 L-17.278596969060143,2182.368178095677 L-17.294744738690536,2182.2158776363485 L-17.304186249123436,2182.063926984131 L-17.30689875493323,2181.912692201454 " />
			<path d="M800.9105027295344,1777.3057443406638 L800.7733310893572,1777.2800436087973 L800.6365220793243,1777.2470060987885 L800.5004052843242,1777.2067114008926 L800.3653086216383,1777.1592565885664 L800.2315575509602,1777.1047559846093 L800.0994742903343,1777.0433408857498 L799.9693770399048,1776.9751592463404 L799.8415792153428,1776.9003753219226 L799.7163886928016,1776.8191692735204 L799.5941070672154,1776.7317367336175 L799.4750289257308,1776.6382883348604 L799.3594411380209,1776.539049202627 L799.2476221651903,1776.4342584126791 L799.1398413889386,1776.3241684152083 L799.0363584625967,1776.2090444266614 L798.937422685598,1776.0891637908103 L798.8432724028949,1775.964815310607 L798.7541344307651,1775.836298552432 L798.6702235103912,1775.7039231244128 L798.59174179053,1775.5680079305496 L798.5188783405188,1775.4288804024497 L798.4518086947907,1775.2868757105143 L798.3906944299969,1775.1423359564844 L798.3356827757543,1774.9956093492876 L798.2869062599565,1774.8470493661723 L798.2444823895023,1774.6970139011503 L798.2085133672115,1774.5458644027983 L798.1790858456093,1774.393965003497 L798.1562707181728,1774.2416816422042 L798.1401229485424,1774.0893811828755 L798.1306814381095,1773.9374305306576 L798.1279689322997,1773.7861957479809 " />
			<path d="M-17.306898754933226,2181.9126922014543 L-17.175025165090258,2151.584987141128 " />
			<path d="M798.1279689322996,1773.786195747981 L798.2598425221427,1743.458490687655 " />
			<path d="M-17.17502516509026,2151.584987141128 L-17.173152984830413,2151.4865545588973 L-17.168396415965937,2151.3886864848164 L-17.16076036891736,2151.291483952511 L-17.150252726720364,2151.195047308538 L-17.136884336887796,2151.0994761087936 L-17.120669000211286,2151.004869015737 L-17.101623456514055,2150.9113236965354 L-17.07976736736965,2150.8189367222412 L-17.055123295804425,2150.727803468093 L-17.02771668300469,2150.6380180150586 L-16.99757582205265,2150.5496730527097 L-16.964731828718154,2150.462859783535 L-16.92921860933651,2150.377667828786 L-16.89107282580543,2150.294185135959 L-16.850333857737304,2150.212497888003 L-16.807043761805847,2150.132690414347 L-16.761247228329104,2150.0548451038444 L-16.712991535133625,2149.97904231972 L-16.662326498747404,2149.9053603166058 L-16.609304422972077,2149.8338751597557 L-16.553980044887304,2149.7646606465205 L-16.496410478343243,2149.6977882301635 L-16.436655154999336,2149.6333269460956 L-16.37477576297033,2149.5713433406063 L-16.310836183142843,2149.511901402167 L-16.244902423228268,2149.4550624953713 L-16.17704254962002,2149.400885297585 L-16.10732661712552,2149.3494257383727 L-16.035826596645478,2149.300736941758 L-15.962616300875089,2149.2548691713805 L-15.887771308103828,2149.211869778608 L-15.811368884192628,2149.171783153653 " />
			<path d="M798.2598425221428,1743.458490687655 L798.2617147024026,1743.3600581054245 L798.266471271267,1743.2621900313436 L798.2741073183157,1743.1649874990383 L798.2846149605126,1743.0685508550653 L798.2979833503452,1742.9729796553208 L798.3141986870218,1742.878372562264 L798.333244230719,1742.7848272430629 L798.3551003198634,1742.6924402687685 L798.3797443914286,1742.6013070146203 L798.4071510042284,1742.5115215615858 L798.4372918651803,1742.423176599237 L798.4701358585148,1742.3363633300619 L798.5056490778965,1742.2511713753129 L798.5437948614276,1742.1676886824862 L798.5845338294957,1742.08600143453 L798.6278239254272,1742.006193960874 L798.6736204589039,1741.9283486503718 L798.7218761520994,1741.8525458662475 L798.7725411884857,1741.778863863133 L798.825563264261,1741.707378706283 L798.8808876423457,1741.638164193048 L798.9384572088898,1741.571291776691 L798.9982125322337,1741.5068304926226 L799.0600919242627,1741.4448468871335 L799.1240315040902,1741.3854049486943 L799.1899652640047,1741.3285660418985 L799.257825137613,1741.2743888441123 L799.3275410701075,1741.2229292849 L799.3990410905875,1741.174240488285 L799.4722513863579,1741.1283727179077 L799.5470963791292,1741.0853733251354 L799.6234988030404,1741.0452867001802 " />
			<path d="M799.6234988030404,1741.0452867001802 L799.7057363936467,1741.0061840610085 L799.7895263380807,1740.9704169215547 L799.8747722865658,1740.9380264103324 L799.961376215071,1740.9090497730822 L800.0492385380289,1740.8835203299423 L800.1382582228484,1740.861467437134 L800.2283329060919,1740.842916453205 L800.3193590111824,1740.827888709869 L800.4112318675064,1740.8164014874787 L800.5038458307739,1740.8084679951521 L800.5970944044985,1740.8040973555858 L800.6908703624574,1740.803294594563 L800.7850658719904,1740.8060606351767 L800.8795726179961,1740.8123922967657 L800.974281927484,1740.8222822985733 L801.0690848945355,1740.8357192681199 " />
			<path d="M801.0690848945355,1740.83571926812 L873.2379460837917,1752.4097496590584 " />
			<path d="M873.2379460837917,1752.4097496590587 L873.375117723969,1752.435450390925 L873.5119267340018,1752.468487900934 L873.6480435290019,1752.5087825988298 L873.7831401916878,1752.556237411156 L873.9168912623659,1752.6107380151132 L874.0489745229918,1752.6721531139726 L874.1790717734214,1752.740334753382 L874.3068695979833,1752.8151186777998 L874.4320601205245,1752.896324726202 L874.5543417461107,1752.983757266105 L874.6734198875953,1753.077205664862 L874.7890076753052,1753.1764447970954 L874.9008266481359,1753.2812355870433 L875.0086074243875,1753.391325584514 L875.1120903507294,1753.506449573061 L875.2110261277281,1753.6263302089121 L875.3051764104313,1753.7506786891154 L875.394314382561,1753.8791954472904 L875.4782253029349,1754.0115708753096 L875.5567070227961,1754.1474860691728 L875.6295704728074,1754.2866135972727 L875.6966401185355,1754.428618289208 L875.7577543833293,1754.573158043238 L875.8127660375718,1754.7198846504348 L875.8615425533696,1754.86844463355 L875.9039664238238,1755.0184800985721 L875.9399354461146,1755.169629596924 L875.9693629677168,1755.3215289962254 L875.9921780951533,1755.4738123575182 L876.0083258647837,1755.626112816847 L876.0177673752166,1755.7780634690648 L876.0204798810264,1755.9292982517416 " />
			<path d="M875.8886062911834,1786.2570033120674 L876.0204798810264,1755.9292982517413 " />
			<path d="M-15.054911570043775,15.746993418102516 L-15.147735318360281,15.696549781509313 L-15.228950563412724,15.644562536276979 L-15.265101198193983,15.61805509485809 L-15.298231095504642,15.591240494722413 L-15.328306979547335,15.564145668558337 L-15.355298641987469,15.536797830514358 L-15.379178972294593,15.509224448865082 L-15.399923984972322,15.481453218421994 L-15.417512843649451,15.453512032716667 L-15.4319278820081,15.425428955984408 L-15.443154621527833,15.397232194976413 L-15.451181786027927,15.368950070628811 L-15.45600131299322,15.340610989617 L-15.457608361672136,15.312243415823872 " />
			<path d="M-15.457608361672136,15.312243415823868 L-15.456001317938748,15.283875841750568 L-15.451181795914014,15.255536759898533 L-15.443154636344552,15.227254634151496 L-15.431927901740568,15.199057871186263 L-15.417512868277846,15.170974791940923 L-15.39992401447191,15.143033603169203 L-15.379179006635747,15.115262369109484 L-15.355298681135693,15.087688983296974 L-15.328307023463308,15.06034114054734 L-15.298231144144257,15.033246309139914 L-15.265101251508385,15.00643170322846 L-15.228950621348364,14.979924255507164 L-15.14773538535924,14.92793699611598 L-15.054911645836953,14.877493343340134 " />
			<path d="M-15.457422347811448,2149.265208821 L-15.45581530407806,2149.236841246927 L-15.450995782053326,2149.208502165075 L-15.442968622483864,2149.1802200393277 L-15.43174188787988,2149.152023276363 L-15.417326854417158,2149.1239401971175 L-15.399738000611222,2149.0959990083456 L-15.378992992775059,2149.068227774286 L-15.355112667275005,2149.0406543884733 L-15.32812100960262,2149.0133065457235 L-15.298045130283569,2148.986211714316 L-15.264915237647697,2148.959397108405 L-15.228764607487676,2148.9328896606835 L-15.147549371498553,2148.880902401292 L-15.054725631976265,2148.8304587485163 " />
			<path d="M-15.054911645836949,14.877493343340127 L0.2914049691714089,7.149810528315984 " />
			<path d="M-15.054725631976261,2148.830458748517 L0.2915909830320951,2141.1027759334925 " />
			<path d="M0.2914049691714071,7.1498105283159825 L0.3710284248304898,7.111936287160763 L0.45719900923708146,7.07520063870211 L0.5497091299056955,7.039692082334823 L0.6483359218527114,7.005496161281374 L0.752841784497642,6.9726952565107885 L0.8629749540637444,6.941368388275679 L0.9784701100990061,6.911591025745533 L1.0990490146563572,6.883434905194877 L1.2244211825932545,6.8569678571843 L1.3542845813758326,6.832253643150699 L1.4883263587017352,6.809351801800391 L1.6262235961887108,6.788317505675154 L1.767644087313281,6.769201428236741 L1.9122471377253558,6.75204962179007 L2.05968438601076,6.7369034065391915 L2.2096006429244,6.7237992710432986 L2.3616347470722547,6.712768784312586 L2.515420434980814,6.703838519755745 L2.670587223457874,6.697029991162293 L2.8267613021189875,6.692359600873967 L2.9835664339294268,6.68983860027005 L3.140624861592152,6.6894730626618095 L3.2975582175982314,6.691263868661363 L3.4539884357473074,6.695206704060199 L3.609538661942189,6.701292070222491 L3.7638341620633837,6.709505306968141 L3.9165032247364087,6.719826627890431 L4.067178056817057,6.73223116802322 L4.215495669437288,6.746689043742818 L4.361098752477206,6.763165424760257 L4.503636535356449,6.781620618030505 L4.6427656320712005,6.802010163376486 " />
			<path d="M4.6427656320712245,6.802010163376494 L76.84815665457506,18.023989209230102 " />
			<path d="M76.84815665457504,18.023989209230095 L77.03055453192977,18.054599270082715 L77.20528055772867,18.088531485530254 L77.37156277304672,18.1256359392884 L77.52866652464833,18.165748699772802 L77.67589771076676,18.208692544366947 L77.8126058477225,18.254277742411322 L77.93818694383216,18.30230289345445 L78.05208616791072,18.352555817062395 L78.15380030057693,18.404814490255404 L78.1999453661492,18.431624150020312 L78.24287995753241,18.458848028430005 L78.28255663918003,18.486456047649586 L78.31893157499117,18.514417705432763 L78.3519645767422,18.542702108821754 L78.38161914848797,18.571278008278828 L78.40786252688376,18.600113832211832 L78.43066571738328,18.629177721855505 L78.45000352627278,18.658437566470113 L78.46585458850599,18.68786103881842 L78.47820139130876,18.717415630881906 L78.48703029352791,18.747068689776686 L78.49233154070231,18.776787453829474 L78.49409927584,18.806539088773775 " />
			<path d="M78.49409927584,18.806539088773782 L78.49249223210661,18.834906662847082 L78.48767271008188,18.863245744699118 L78.47964555051242,18.891527870446154 L78.46841881590844,18.919724633411388 L78.45400378244571,18.947807712656726 L78.43641492863978,18.975748901428446 L78.41566992080361,19.003520135488166 L78.39178959530355,19.031093521300676 L78.36479793763117,19.05844136405031 L78.33472205831212,19.085536195457735 L78.30159216567625,19.11235080136919 L78.26544153551623,19.138858249090486 L78.1842262995271,19.190845508481672 L78.09140256000481,19.24128916125752 " />
			<path d="M182.31035636445844,-83.63680301580068 L182.21753262899313,-83.68724663258534 L182.13631739594325,-83.73923385598427 L182.10016676682,-83.76574128576038 L182.06703687492615,-83.79255587378802 L182.0369609960505,-83.81965068739352 L182.0099693385196,-83.84699851244356 L181.98608901285635,-83.8745718806792 L181.96534400455027,-83.90234309730504 L181.94775514996613,-83.93028426880602 L181.9333401154161,-83.95836733096377 L181.92211337941535,-83.9865640770444 L181.91408621814003,-84.01484618612947 L181.90926669410132,-84.04318525156158 L181.90765964804737,-84.0715528094762 " />
			<path d="M181.90765964804737,-84.0715528094762 L181.90926669410132,-84.09992036739082 L181.91408621814003,-84.12825943282293 L181.92211337941535,-84.156541541908 L181.9333401154161,-84.18473828798864 L181.94775514996613,-84.21282135014638 L181.96534400455025,-84.24076252164737 L181.98608901285635,-84.2685337382732 L182.0099693385196,-84.29610710650884 L182.0369609960505,-84.32345493155889 L182.06703687492615,-84.35054974516437 L182.10016676682,-84.37736433319202 L182.13631739594325,-84.40387176296814 L182.21753262899313,-84.45585898636706 L182.31035636445844,-84.50630260315171 " />
			<path d="M181.90765964804737,2049.8815063295233 L181.90926669410132,2049.853138771609 L181.91408621814003,2049.8247997061767 L181.92211337941535,2049.7965175970917 L181.9333401154161,2049.7683208510107 L181.94775514996613,2049.740237788853 L181.96534400455025,2049.712296617352 L181.98608901285635,2049.684525400726 L182.0099693385196,2049.6569520324906 L182.0369609960505,2049.6296042074405 L182.06703687492615,2049.602509393835 L182.10016676682,2049.5756948058074 L182.13631739594325,2049.5491873760316 L182.21753262899313,2049.4972001526326 L182.31035636445844,2049.4467565358477 " />
			<path d="M182.31035636445847,-84.50630260315171 L197.65667298970322,-92.23398018573397 " />
			<path d="M182.31035636445847,2049.4467565358477 L197.65667298970322,2041.7190789532656 " />
			<path d="M197.65667298970322,-92.23398018573397 L197.73629644541248,-92.27185440088967 L197.82246702986774,-92.30859002341111 L197.91497715058338,-92.34409855396599 L198.01360394257568,-92.37829444939403 L198.11810980526408,-92.41109532878792 L198.22824297487168,-92.4424221719562 L198.34373813094638,-92.47219950978975 L198.46431703554103,-92.50035560607354 L198.589689203513,-92.52682263030547 L198.7195526023283,-92.5515368211059 L198.85359437968455,-92.5744386398245 L198.9914916171994,-92.595472913974 L199.13291210834927,-92.6145889701456 L199.27751515878407,-92.63174075608562 L199.42495240708953,-92.6468869516394 L199.57486866402053,-92.65999106829521 L199.726902768183,-92.67102153708822 L199.8806884561034,-92.67995178465297 L200.03585524458947,-92.6867602972409 L200.19202932325678,-92.69143067254878 L200.34883445507054,-92.69395165923345 L200.50589288273375,-92.69431718401717 L200.66282623873747,-92.69252636631872 L200.8192564568813,-92.68858352037479 L200.97480668306815,-92.6824981448466 L201.12910218317845,-92.67428489993684 L201.2817712458378,-92.66396357207188 L201.43244607790203,-92.65155902623458 L201.5807636905031,-92.63710114606238 L201.7263667735212,-92.62062476185497 L201.868904556376,-92.60216956666508 L202.00803365306373,-92.58178002067439 " />
			<path d="M202.00803365306376,-92.58178002067439 L274.2134246607028,-81.35980097142516 " />
			<path d="M274.2134246607028,-81.35980097142519 L274.39582254205135,-81.32919091100521 L274.5705485714755,-81.29525869817948 L274.7368307899995,-81.25815424922746 L274.8939345443403,-81.21804149571969 L275.0411657326879,-81.17509766024985 L275.17787387132336,-81.1295124734457 L275.30345496852874,-81.08148733571815 L275.4173541930891,-81.03123442745189 L275.5190683255984,-80.97897577156891 L275.5652133908464,-80.95216612117683 L275.6081479817387,-80.92494225260663 L275.64782466272715,-80.89733424368372 L275.68419959770966,-80.86937259664437 L275.7172325984617,-80.8410882044359 L275.7468871690376,-80.81251231658511 L275.77313054609243,-80.78367650467274 L275.79593373508004,-80.7546126274522 L275.8152715422873,-80.72535279565098 L275.8311226026687,-80.69592933649358 L275.8434694034515,-80.66637475798544 L275.85229830348396,-80.63672171299693 L275.85759954830706,-80.60700296318745 L275.85936728093117,-80.57725134280928 " />
			<path d="M275.85936728093117,-80.57725134280926 L275.8577602348772,-80.54888378489464 L275.8529407108385,-80.52054471946253 L275.8449135495632,-80.49226261037747 L275.83368681356245,-80.46406586429683 L275.8192717790124,-80.43598280213908 L275.8016829244283,-80.4080416306381 L275.7809379161222,-80.38027041401226 L275.75705759045894,-80.35269704577662 L275.730065932928,-80.32534922072658 L275.69999005405236,-80.29825440712109 L275.66686016215857,-80.27143981909344 L275.6307095330353,-80.24493238931733 L275.54949429998544,-80.1929451659184 L275.4566705645201,-80.14250154913375 " />
			<path d="M379.6756435954545,-183.02060585002326 L379.58281985998923,-183.0710494668079 L379.50160462693935,-183.12303669020682 L379.4654539978161,-183.14954411998295 L379.43232410592225,-183.17635870801058 L379.40224822704664,-183.20345352161607 L379.3752565695157,-183.2308013466661 L379.3513762438525,-183.25837471490175 L379.3306312355464,-183.28614593152759 L379.31304238096226,-183.31408710302856 L379.2986273464122,-183.3421701651863 L379.28740061041145,-183.37036691126696 L379.2793734491362,-183.398649020352 L379.27455392509745,-183.42698808578413 L379.2729468790435,-183.45535564369874 " />
			<path d="M379.2729468790435,-183.45535564369874 L379.27455392509745,-183.48372320161334 L379.2793734491362,-183.51206226704548 L379.28740061041145,-183.54034437613052 L379.2986273464122,-183.56854112221117 L379.31304238096226,-183.59662418436892 L379.3306312355464,-183.62456535586992 L379.3513762438525,-183.65233657249576 L379.3752565695157,-183.67990994073136 L379.40224822704664,-183.7072577657814 L379.4323241059223,-183.73435257938692 L379.4654539978161,-183.76116716741456 L379.50160462693935,-183.7876745971907 L379.58281985998923,-183.8396618205896 L379.6756435954546,-183.89010543737425 " />
			<path d="M380.00201097633476,1951.066533582886 L379.916821967951,1951.0362686498108 L379.83636607899496,1951.0050064676636 L379.7607922878399,1950.972804923929 L379.69024053278747,1950.9397236454863 L379.6248414529474,1950.9058238882005 L379.56471614633574,1950.8711684234954 L379.5099759456402,1950.835821422121 L379.4607222120683,1950.7998483353304 L379.41704614765877,1950.7633157736855 L379.379028626405,1950.726291383715 L379.3467400445022,1950.6888437226553 L379.3202401899967,1950.651042131504 L379.29957813207733,1950.6129566066238 L379.28479213021546,1950.5746576701304 L379.27590956332057,1950.5362162393096 L379.2729468790435,1950.4977034953008 " />
			<path d="M379.2729468790435,1950.4977034953008 L379.27455392509745,1950.4693359373862 L379.2793734491362,1950.440996871954 L379.28740061041145,1950.412714762869 L379.2986273464122,1950.3845180167884 L379.31304238096226,1950.3564349546307 L379.3306312355464,1950.3284937831297 L379.3513762438525,1950.3007225665037 L379.3752565695157,1950.2731491982681 L379.40224822704664,1950.2458013732182 L379.4323241059223,1950.2187065596127 L379.4654539978161,1950.191891971585 L379.50160462693935,1950.1653845418089 L379.58281985998923,1950.1133973184099 L379.6756435954546,1950.0629537016252 " />
			<path d="M379.6756435954545,-183.89010543737427 L395.02196022069927,-191.61778301995653 " />
			<path d="M379.6756435954545,1950.0629537016252 L395.02196022069927,1942.335276119043 " />
			<path d="M395.02196022069927,-191.61778301995648 L395.1015836764085,-191.6556572351122 L395.18775426086376,-191.69239285763362 L395.2802643815794,-191.7279013881885 L395.37889117357173,-191.76209728361653 L395.4833970362601,-191.79489816301043 L395.5935302058677,-191.8262250061787 L395.7090253619424,-191.85600234401224 L395.82960426653705,-191.88415844029606 L395.95497643450904,-191.91062546452798 L396.08483983332434,-191.93533965532842 L396.21888161068057,-191.958241474047 L396.3567788481954,-191.9792757481965 L396.4981993393453,-191.9983918043681 L396.6428023897801,-192.01554359030814 L396.79023963808555,-192.0306897858619 L396.9401558950166,-192.0437939025177 L397.092189999179,-192.05482437131073 L397.2459756870994,-192.0637546188755 L397.4011424755855,-192.0705631314634 L397.5573165542528,-192.07523350677127 L397.7141216860666,-192.07775449345596 L397.8711801137298,-192.07812001823967 L398.0281134697335,-192.0763292005412 L398.18454368787735,-192.07238635459728 L398.3400939140642,-192.06630097906913 L398.4943894141745,-192.05808773415936 L398.6470584768339,-192.0477664062944 L398.79773330889805,-192.03536186045707 L398.94605092149914,-192.02090398028488 L399.09165400451724,-192.00442759607748 L399.234191787372,-191.9859724008876 L399.3733208840598,-191.9655828548969 " />
			<path d="M395.02196022069927,1942.335276119043 L395.0836458163386,1942.3055714614638 L395.1493599825232,1942.276550776477 L395.2190059461713,1942.2482568010034 L395.29248114409245,1942.2207312017852 L395.45048095398374,1942.168146081694 L395.62242904967616,1942.1191050572393 L395.80731293587706,1942.0738969004851 L396.0040439464762,1942.032787814123 L396.2114636550231,1941.9960198639706 L396.4283506959792,1941.9638095535977 L396.65342795657875,1941.93634654947 L396.8853700969515,1941.9137925641223 L397.1228113542236,1941.8962804039336 L397.3643535846453,1941.8839131871136 L397.60857449638877,1941.8767637365033 L397.8540360245396,1941.8748741507663 L398.0992927989656,1941.878255556497 L398.3429006552018,1941.886888042702 " />
			<path d="M399.37332088405986,-191.96558285489695 L471.5787118916989,-180.74360380564772 " />
			<path d="M471.57871189169884,-180.7436038056477 L471.7611097730474,-180.71299374522772 L471.93583580247156,-180.679061532402 L472.10211802099553,-180.64195708344997 L472.25922177533636,-180.6018443299422 L472.40645296368393,-180.55890049447234 L472.5431611023194,-180.5133153076682 L472.6687421995248,-180.46529016994066 L472.78264142408517,-180.4150372616744 L472.88435555659447,-180.36277860579142 L472.93050062184244,-180.33596895539932 L472.9734352127347,-180.30874508682913 L473.0131118937232,-180.28113707790624 L473.0494868287057,-180.2531754308669 L473.08251982945774,-180.22489103865843 L473.11217440003367,-180.1963151508076 L473.1384177770885,-180.16747933889525 L473.1612209660761,-180.1384154616747 L473.18055877328334,-180.10915562987347 L473.19640983366475,-180.07973217071608 L473.2087566344475,-180.05017759220794 L473.21758553448,-180.02052454721942 L473.2228867793031,-179.99080579740996 L473.2246545119272,-179.96105417703177 " />
			<path d="M473.2246545119272,-179.96105417703177 L473.22304746587326,-179.93268661911716 L473.2182279418345,-179.90434755368503 L473.21020078055926,-179.8760654446 L473.1989740445585,-179.84786869851933 L473.18455901000846,-179.8197856363616 L473.16697015542434,-179.7918444648606 L473.14622514711823,-179.76407324823475 L473.122344821455,-179.73649987999914 L473.0953531639241,-179.7091520549491 L473.0652772850484,-179.68205724134359 L473.0321473931546,-179.65524265331595 L472.99599676403136,-179.62873522353982 L472.9147815309815,-179.5767480001409 L472.82195779551614,-179.52630438335626 " />
			<path d="M577.0409308264506,-282.4044086842457 L576.9481070909852,-282.45485230103037 L576.8668918579353,-282.50683952442927 L576.8307412288121,-282.5333469542054 L576.7976113369183,-282.56016154223306 L576.7675354580426,-282.5872563558385 L576.7405438005117,-282.6146041808886 L576.7166634748485,-282.6421775491242 L576.6959184665424,-282.66994876575006 L576.6783296119582,-282.69788993725103 L576.6639145774081,-282.7259729994088 L576.6526878414074,-282.75416974548943 L576.6446606801321,-282.7824518545745 L576.6398411560934,-282.8107909200066 L576.6382341100394,-282.8391584779212 " />
			<path d="M576.6382341100394,-282.8391584779212 L576.6398411560934,-282.86752603583585 L576.6446606801321,-282.89586510126793 L576.6526878414074,-282.924147210353 L576.6639145774081,-282.95234395643365 L576.6783296119582,-282.9804270185914 L576.6959184665424,-283.00836819009237 L576.7166634748485,-283.03613940671823 L576.7405438005117,-283.06371277495384 L576.7675354580426,-283.0910606000039 L576.7976113369183,-283.1181554136094 L576.8307412288121,-283.14497000163703 L576.8668918579353,-283.17147743141317 L576.9481070909852,-283.22346465481206 L577.0409308264506,-283.2739082715967 " />
			<path d="M578.1778948996272,1851.8791767599178 L578.0061273656847,1851.8478622990735 L577.8418804003005,1851.8135350176967 L577.6858282166816,1851.7763358249747 L577.5386113894828,1851.7364174189313 L577.4008342253283,1851.6939436596201 L577.2730622822088,1851.6490888964995 L577.1558200479365,1851.6020372527507 L577.0495887871883,1851.5529818694736 L576.9548045659752,1851.5021241128682 L576.8718564616456,1851.4496727476514 L576.8349292944175,1851.422916513495 L576.8010849657712,1851.395843080103 L576.7703582163037,1851.3684802378698 L576.7427805864727,1851.340856074262 L576.7183803842211,1851.3129989449894 L576.6971826559194,1851.2849374448954 L576.6792091606557,1851.2567003786075 L576.6644783479011,1851.2283167309681 L576.6530053385708,1851.199815637283 L576.6448019095033,1851.1712263534143 L576.6398764813716,1851.1425782257495 L576.6382341100394,1851.1139006610783 " />
			<path d="M576.6382341100394,1851.1139006610783 L576.6398411560934,1851.0855331031637 L576.6446606801321,1851.0571940377315 L576.6526878414074,1851.0289119286465 L576.6639145774081,1851.000715182566 L576.6783296119582,1850.9726321204082 L576.6959184665424,1850.9446909489072 L576.7166634748485,1850.9169197322813 L576.7405438005117,1850.8893463640457 L576.7675354580426,1850.8619985389957 L576.7976113369183,1850.8349037253902 L576.8307412288121,1850.8080891373625 L576.8668918579353,1850.7815817075864 L576.9481070909852,1850.7295944841874 L577.0409308264506,1850.6791508674028 " />
			<path d="M577.0409308264506,-283.2739082715967 L592.3872474516953,-291.001585854179 " />
			<path d="M577.0409308264506,1850.6791508674028 L592.3872474516953,1842.9514732848206 " />
			<path d="M592.3872474516952,-291.001585854179 L592.4668709074044,-291.03946006933467 L592.5530414918597,-291.0761956918561 L592.6455516125753,-291.111704222411 L592.7441784045677,-291.14590011783906 L592.8486842672561,-291.1787009972329 L592.9588174368637,-291.2100278404012 L593.0743125929383,-291.23980517823475 L593.194891497533,-291.26796127451854 L593.320263665505,-291.29442829875046 L593.4501270643203,-291.3191424895509 L593.5841688416765,-291.3420443082695 L593.7220660791913,-291.363078582419 L593.8634865703413,-291.38219463859065 L594.008089620776,-291.3993464245306 L594.1555268690815,-291.41449262008445 L594.3054431260125,-291.4275967367402 L594.457477230175,-291.43862720553324 L594.6112629180953,-291.447557453098 L594.7664297065814,-291.4543659656859 L594.9226037852487,-291.4590363409938 L595.0794089170626,-291.46155732767846 L595.2364673447257,-291.4619228524622 L595.3934007007294,-291.4601320347637 L595.5498309188733,-291.4561891888198 L595.7053811450601,-291.4501038132916 L595.8596766451705,-291.44189056838184 L596.0123457078298,-291.43156924051686 L596.163020539894,-291.4191646946796 L596.3113381524951,-291.4047068145074 L596.4569412355132,-291.3882304303 L596.599479018368,-291.36977523511007 L596.7386081150557,-291.3493856891194 " />
			<path d="M592.3872474516952,1842.9514732848204 L592.4664634124185,1842.913782497944 L592.5521632910747,1842.8772187042762 L592.6441426531059,1842.8418691256784 L592.7421820844299,1842.8078180875384 L592.8460477148465,1842.7751468176134 L592.9554917759273,1842.7439332522636 L593.0702531920608,1842.7142518505373 L593.1900582032403,1842.686173416552 L593.31462101811,1842.659764930592 L593.4436444957128,1842.6350893893289 L593.5768208543107,1842.6122056555462 L593.7138324055893,1842.5911683177223 L593.8543523124943,1842.5720275598126 L593.9980453688912,1842.5548290415359 L594.1445687991903,1842.539613789455 L594.2935730760277,1842.5264180991098 L594.4447027540521,1842.5152734484343 L594.5975973178299,1842.5062064226672 L594.7518920418445,1842.4992386509334 L594.9072188605373,1842.4943867546492 L595.0632072463186,1842.4916623078714 L595.2194850934492,1842.491071809688 L595.3756796056886,1842.4926166687155 L595.531418185589,1842.4962931997377 L595.6863293233164,1842.5020926324971 L595.8400434828753,1842.5100011326165 L595.9921939836271,1842.5199998345995 L596.1424178749954,1842.5320648868346 L596.2903568022745,1842.546167508492 L596.4356578614734,1842.5622740581798 L596.5779744411586,1842.5803461141938 L596.7169670492855,1842.6003405661725 " />
			<path d="M596.7386081150559,-291.3493856891194 L668.9439991226949,-280.12740663987023 " />
			<path d="M668.9439991226948,-280.1274066398702 L669.1263970040433,-280.0967965794502 L669.3011230334675,-280.06286436662447 L669.4674052519915,-280.0257599176724 L669.6245090063323,-279.9856471641647 L669.7717401946799,-279.94270332869485 L669.9084483333153,-279.8971181418907 L670.0340294305207,-279.84909300416314 L670.1479286550812,-279.7988400958969 L670.2496427875905,-279.7465814400139 L670.2957878528383,-279.7197717896218 L670.3387224437306,-279.69254792105164 L670.3783991247191,-279.6649399121287 L670.4147740597016,-279.63697826508934 L670.4478070604537,-279.6086938728809 L670.4774616310295,-279.5801179850301 L670.5037050080844,-279.5512821731177 L670.526508197072,-279.5222182958972 L670.5458460042793,-279.492958464096 L670.5616970646606,-279.46353500493854 L670.5740438654434,-279.4339804264304 L670.5828727654759,-279.40432738144193 L670.5881740102991,-279.37460863163244 L670.5899417429232,-279.34485701125425 " />
			<path d="M670.5899417429232,-279.34485701125425 L670.5883346968692,-279.3164894533396 L670.5835151728305,-279.28815038790754 L670.5754880115552,-279.25986827882247 L670.5642612755545,-279.2316715327418 L670.5498462410044,-279.20358847058407 L670.5322573864203,-279.1756472990831 L670.5115123781142,-279.14787608245723 L670.487632052451,-279.1203027142216 L670.46064039492,-279.09295488917155 L670.4305645160443,-279.0658600755661 L670.3974346241505,-279.03904548753843 L670.3612839950273,-279.0125380577623 L670.2800687619774,-278.9605508343634 L670.1872450265121,-278.91010721757874 " />
			<path d="M781.8654819957745,1749.3825526773114 L782.7049921036935,1749.5130272126908 " />
			<path d="M780.6224002933274,-384.9183889773296 L780.5295765693119,-384.9688325766161 L780.4483613469506,-385.02081978072664 L780.4122107228638,-385.0473272002167 L780.3790808357903,-385.074141777547 L780.3490049615112,-385.1012365800569 L780.3220133083457,-385.12858439362657 L780.2981329868103,-385.15615775001083 L780.2773879823881,-385.1839289544286 L780.2597991314382,-385.21187011337946 L780.2453841002678,-385.23995316266 L780.2341573673873,-385.2681498955517 L780.2261302089688,-385.2964319911517 L780.22131068752,-385.32477104281855 L780.2197036437859,-385.353138586704 " />
			<path d="M780.2197036437859,-385.353138586704 L780.2213106918874,-385.3815061303421 L780.2261302176992,-385.4098451812669 L780.2341573804719,-385.4381272756311 L780.2453841176934,-385.4663240067943 L780.2597991531875,-385.4944070538556 L780.277388008439,-385.5223482100985 L780.2981330171368,-385.5501194113225 L780.3220133429173,-385.57769276403025 L780.3490050002932,-385.60504057344434 L780.3790808787438,-385.63213537132384 L780.4122107699455,-385.6589499435536 L780.4483613981133,-385.685457357478 L780.5295766284784,-385.73744454908496 L780.62240036026,-385.7878881340806 " />
			<path d="M781.8654819957746,1749.3825526773114 L781.6830841108197,1749.3519426172697 L781.5083580781154,1749.318010406752 L781.3420758566834,1749.2809059620333 L781.1849720998491,1749.2407932146727 L781.0377409094618,1749.1978493872437 L780.9010327692754,1749.152264210346 L780.7754516710393,1749.104239084355 L780.6615524459953,1749.053986189612 L780.5598383135721,1749.0017275489884 L780.5136932485866,1748.9749179068592 L780.4707586581053,1748.9476940469635 L780.4310819776781,1748.9200860471183 L780.3947070434081,1748.8921244095511 L780.3616740435207,1748.8638400272002 L780.3320194739622,1748.8352641495826 L780.3057760980776,1748.806428348269 L780.2829729104129,1748.7773644820027 L780.2636351046809,1748.7481046614998 L780.2477840459263,1748.718681213974 L780.2354372469207,1748.6891266474192 L780.2266083488145,1748.6594736146938 L780.221307106065,1748.629754877445 L780.2195393756596,1748.6000032699123 " />
			<path d="M780.2195393756596,1748.6000032699123 L780.2211464237611,1748.5716357262745 L780.2259659495728,1748.5432966753494 L780.2339931123455,1748.5150145809853 L780.2452198495671,1748.486817849822 L780.2596348850611,1748.4587348027608 L780.2772237403126,1748.430793646518 L780.2979687490105,1748.403022445294 L780.321849074791,1748.3754490925862 L780.3488407321669,1748.3481012831721 L780.3789166106175,1748.3210064852926 L780.4120465018192,1748.2941919130628 L780.448197129987,1748.2676844991386 L780.529412360352,1748.2156973075316 L780.6222360921337,1748.165253722536 " />
			<path d="M780.62240036026,-385.78788813408073 L795.9687169866241,-393.5155610996313 " />
			<path d="M780.6222360921336,1748.165253722536 L795.9685527184977,1740.4375807569854 " />
			<path d="M795.968716986624,-393.51556109963127 L796.0483404423387,-393.55343529184546 L796.1345110267994,-393.59017089148057 L796.2270211475202,-393.62567939925947 L796.3256479395174,-393.6598752720767 L796.4301538022105,-393.6926761290795 L796.5402869718226,-393.7240029501302 L796.6557821279017,-393.7537802661732 L796.7763610325004,-393.78193634104576 L796.9017332004762,-393.8084033442974 L797.0315965992951,-393.8331175145991 L797.1656383766547,-393.8560193133498 L797.3035356141726,-393.87705356811045 L797.4449561053252,-393.89616960551893 L797.5895591557625,-393.9133213733667 L797.7369964040702,-393.9284675515428 L797.8869126610031,-393.9415716515772 L798.0389467651671,-393.95260210454524 L798.1927324530888,-393.9615323371196 L798.3478992415759,-393.9683408355877 L798.5040733202438,-393.9730111976804 L798.660878452058,-393.97553217208645 L798.8179368797213,-393.9758976855576 L798.9748702357247,-393.97410685753994 L799.131300453868,-393.97016400229495 L799.2868506800539,-393.9640786185063 L799.4411461801631,-393.95586536639655 L799.5938152428209,-393.9455440324095 L799.7444900748833,-393.93313948154264 L799.8928076874823,-393.9186815974456 L800.038410770498,-393.9022052104275 L800.1809485533502,-393.8837500135479 L800.3200776500349,-393.86336046699245 " />
			<path d="M795.9685527184977,1740.4375807569857 L796.0481761742124,1740.3997065647713 L796.134346758673,1740.3629709651364 L796.2268568793938,1740.3274624573573 L796.325483671391,1740.29326658454 L796.4299895340841,1740.2604657275374 L796.5401227036963,1740.2291389064867 L796.6556178597754,1740.1993615904437 L796.776196764374,1740.171205515571 L796.9015689323498,1740.1447385123195 L797.0314323311687,1740.1200243420178 L797.1654741085283,1740.097122543267 L797.3033713460462,1740.0760882885063 L797.4447918371989,1740.056972251098 L797.5893948876361,1740.0398204832502 L797.7368321359438,1740.024674305074 L797.8867483928767,1740.0115702050396 L798.0387824970408,1740.0005397520715 L798.1925681849624,1739.9916095194974 L798.3477349734495,1739.9848010210292 L798.5039090521175,1739.9801306589363 L798.6607141839316,1739.9776096845303 L798.8177726115949,1739.9772441710593 L798.9747059675983,1739.979034999077 L799.1311361857416,1739.982977854322 L799.2866864119276,1739.9890632381105 L799.4409819120367,1739.9972764902202 L799.5936509746946,1740.0075978242073 L799.7443258067569,1740.0200023750742 L799.892643419356,1740.0344602591713 L800.0382465023716,1740.0509366461893 L800.1807842852238,1740.069391843069 L800.3199133819086,1740.0897813896245 " />
			<path d="M800.320077650035,-393.86336046699245 L872.5254686560484,-382.6413814169246 " />
			<path d="M800.3199133819086,1740.0897813896242 L872.5253043879219,1751.3117604396923 " />
			<path d="M872.5254686560482,-382.6413814169246 L872.7078665410032,-382.6107713568828 L872.8825925737075,-382.576839146365 L873.0488747951395,-382.5397347016466 L873.2059785519738,-382.49962195428594 L873.3532097423611,-382.45667812685684 L873.4899178825475,-382.41109294995914 L873.6154989807836,-382.36306782396815 L873.7293982058276,-382.3128149292252 L873.8311123382508,-382.2605562886016 L873.8772574032363,-382.2337466464723 L873.9201919937176,-382.20652278657656 L873.9598686741448,-382.1789147867314 L873.9962436084148,-382.15095314916437 L874.0292766083022,-382.12266876681343 L874.0589311778607,-382.0940928891958 L874.0851745537453,-382.06525708788223 L874.10797774141,-382.03619322161575 L874.127315547142,-382.0069334011129 L874.1431666058966,-381.9775099535872 L874.1555134049022,-381.9479553870323 L874.1643423030084,-381.9183023543069 L874.1696435457579,-381.8885836170581 L874.1714112761633,-381.8588320095256 " />
			<path d="M874.1714112761633,-381.8588320095256 L874.1698042280618,-381.83046446588753 L874.1649847022501,-381.8021254149627 L874.1569575394774,-381.77384332059853 L874.1457308022558,-381.7456465894353 L874.1313157667618,-381.717563542374 L874.1137269115103,-381.6896223861311 L874.0929819028124,-381.6618511849071 L874.0691015770319,-381.63427783219936 L874.042109919656,-381.60693002278526 L874.0120340412054,-381.57983522490576 L873.9789041500037,-381.553020652676 L873.9427535218359,-381.5265132387516 L873.8615382914709,-381.47452604714465 L873.7687145596892,-381.424082462149 " />
			<path d="M872.5253043879219,1751.3117604396923 L872.7077022728769,1751.342370499734 L872.8824283055811,1751.3763027102518 L873.0487105270131,1751.4134071549704 L873.2058142838474,1751.453519902331 L873.3530454742347,1751.49646372976 L873.4897536144211,1751.5420489066578 L873.6153347126573,1751.5900740326488 L873.7292339377012,1751.6403269273917 L873.8309480701245,1751.6925855680154 L873.8770931351099,1751.7193952101445 L873.9200277255912,1751.7466190700402 L873.9597044060184,1751.7742270698855 L873.9960793402885,1751.8021887074526 L874.0291123401759,1751.8304730898035 L874.0587669097343,1751.8590489674211 L874.085010285619,1751.8878847687347 L874.1078134732836,1751.916948635001 L874.1271512790156,1751.946208455504 L874.1430023377702,1751.9756319030298 L874.1553491367758,1752.0051864695845 L874.1641780348821,1752.03483950231 L874.1694792776316,1752.0645582395587 L874.171247008037,1752.0943098470912 " />
			<path d="M874.171247008037,1752.0943098470914 L874.1696399599355,1752.1226773907292 L874.1648204341237,1752.1510164416543 L874.156793271351,1752.1792985360185 L874.1455665341294,1752.2074952671817 L874.1311514986354,1752.235578314243 L874.113562643384,1752.2635194704858 L874.0928176346861,1752.2912906717097 L874.0689373089056,1752.3188640244175 L874.0419456515297,1752.3462118338316 L874.0118697730791,1752.373306631711 L873.9787398818773,1752.400121203941 L873.9425892537096,1752.4266286178652 L873.8613740233445,1752.478615809472 L873.7685502915629,1752.5290593944678 " />
			<path d="M873.7436633524719,1752.5415912697765 L873.7685502915629,1752.5290593944678 " />
			<path d="M-58.39370604491873,9.165974816658764 L755.7381037829401,-400.79221187450935 " />
			<path d="M76.8481566545753,18.023992182064895 L181.90765964804737,-34.87899333202027 " />
			<path d="M274.2134246607028,-81.35980097142517 L379.2729468790434,-134.26279616624282 " />
			<path d="M471.57871189169884,-180.74360380564772 L576.6382341100395,-233.64659900046536 " />
			<path d="M668.943999122695,-280.1274066398703 L780.219699857025,-336.1605746664097 " />
			<path d="M872.5254644137838,-382.6413820762466 L872.5255158727776,-382.64140798855664 " />
			<path d="M-61.191009328507654,5.658993147676281 L752.9408004993512,-404.29919354349187 " />
			<path d="M-61.191009328507654,-24.679296620980036 L752.9408004993512,-434.63748331214816 " />
			<path d="M-14.524364957698467,2185.432240794137 L800.9105027295345,1777.3057443406642 " />
			<path d="M57.644496231557646,2197.0062711850755 L873.0793639187907,1788.8797747316025 " />
			<path d="M-17.306898754933226,2181.912692201454 L798.1279689322998,1773.7861957479809 " />
			<path d="M-17.17502516509026,2151.584987141128 L798.2598425221428,1743.4584906876548 " />
			<path d="M-15.054911645836949,14.87749334334013 L-15.054725631976265,2148.830458748517 " />
			<path d="M0.2914049691714027,7.149810528315985 L0.29159098303208764,2141.1027759334925 " />
			<path d="M4.642765632071232,6.802010163376492 L4.642951487231443,2138.934362065439 " />
			<path d="M76.84815665457505,18.023989209230095 L76.84833838134868,2102.7954468118587 " />
			<path d="M182.31035636445844,-84.50630260315171 L182.31035636445844,2049.4467565358477 " />
			<path d="M197.65667298970322,-92.23398018573397 L197.65667298970322,2041.7190789532654 " />
			<path d="M202.00803365306376,-92.58178002067439 L202.00803365306376,2040.152812859613 " />
			<path d="M274.2134246607028,-81.35980097142519 L274.2134246607028,2004.0138955472075 " />
			<path d="M379.6756435954545,-183.89010543737427 L379.6756435954545,1950.062953701625 " />
			<path d="M395.02196022069927,-191.6177830199565 L395.02196022069927,1942.3352761190429 " />
			<path d="M399.37332088405986,-191.96558285489692 L399.37332088405986,1941.3711610183339 " />
			<path d="M471.57871189169884,-180.74360380564772 L471.57871189169884,1905.232243705928 " />
			<path d="M577.0409308264506,-283.2739082715967 L577.0409308264506,1850.6791508674028 " />
			<path d="M592.3872474516952,-291.001585854179 L592.3872474516952,1842.9514732848204 " />
			<path d="M596.7386081150559,-291.3493856891194 L596.7386081150559,1842.5895091770547 " />
			<path d="M668.9439991226949,-280.1274066398702 L668.9439991226949,1806.4505918646491 " />
			<path d="M780.62240036026,-385.7878881340807 L780.6222360921337,1748.1652537225355 " />
			<path d="M795.968716986624,-393.51556109963127 L795.9685527184977,1740.437580756985 " />
			<path d="M800.3200776500352,-393.86336046699245 L800.3199133819088,1740.0897813896238 " />
			<path d="M872.5254686560482,-382.64138141692456 L872.5253043879219,1751.3117604396916 " />
			<path d="M873.9647165388276,-382.85554584112026 L873.2394700625056,-382.49034609490224 " />
			<path d="M780.2196998177218,-335.64999926698033 L669.6580040687428,-279.97637030469264 " />
			<path d="M576.6382341100394,-233.13602362082725 L472.292716837747,-180.59256747047016 " />
			<path d="M379.27294687904345,-133.75222078660477 L274.927429606751,-81.20876463624762 " />
			<path d="M181.9076596480474,-34.36841795238219 L77.56216536318087,18.175026622596903 " />
			<path d="M754.2989031168902,-437.060827541216 L-59.83290671096871,-27.102640850047873 " />
			<path d="M874.5249500102861,1788.6702072995424 L59.09008232305281,2196.7967037530157 " />
			<path d="M799.6234988030405,1741.04528670018 L199.75549993517234,2041.2802097012927 " />
			<path d="M182.04738684099388,2050.143149516985 L0.46831080090678867,2141.023776615609 " />
			<path d="M-15.457422371397243,2148.9946323401136 L-15.811368884192607,2149.171783153653 " />
			<path d="M-15.45742234781145,2149.265208821 L-15.457608361672134,15.312243415823868 " />
			<path d="M78.4942808625905,2101.9716498847806 L78.49409927584,18.80653908877378 " />
			<path d="M181.90765964804737,2049.8815063295233 L181.90765964804737,-84.0715528094762 " />
			<path d="M275.85936728093117,2003.1900985505663 L275.85936728093117,-80.57725134280926 " />
			<path d="M379.27294687904345,1950.4977034953006 L379.27294687904345,-183.45535564369874 " />
			<path d="M473.2246545119272,1904.408446709287 L473.2246545119272,-179.96105417703177 " />
			<path d="M576.6382341100394,1851.113900661078 L576.6382341100394,-282.8391584779213 " />
			<path d="M670.5899417429232,1805.626794868008 L670.5899417429232,-279.34485701125425 " />
			<path d="M780.2195393756596,1748.6000032699126 L780.2197036437859,-385.35313858670406 " />
			<path d="M874.171247008037,1752.094309847091 L874.1714112761633,-381.85883200952566 " />

       </g>
    </g>
    
</svg>
