<?xml version="1.0" encoding="UTF-8" standalone="no"?>
<svg
   xmlns:svg="http://www.w3.org/2000/svg"
   xmlns="http://www.w3.org/2000/svg"
   width="480.0"
   height="480.0"

>
    <g transform="scale(0.14580189647747777, -0.14580189647747777)   translate(272.59741476717903,-138.35500407504333)" stroke-width="1.0"  fill="none">
       <!-- hidden lines -->
       <g  stroke="rgb(0,0,0)" fill="none" stroke-dasharray="1.0,1.0" >
			<path d="M18.88379095879876,18.32104978181169 L18.88379095879876,-66.62667818714442 " />
			<path d="M15.70336300784318,-69.76855407152891 L15.859419210762486,-69.76662608783037 L16.01509946062005,-69.75704024949854 L16.170028710057984,-69.73981964965756 L16.323833720944197,-69.71500577424081 L16.476143963535733,-69.68265840204758 L16.62659250911739,-69.64285546073081 L16.774816913965125,-69.59569283906245 L16.92046009250473,-69.54128415592905 L17.063171177562275,-69.47976048661391 L17.202606365633834,-69.41127004702527 L17.33842974513827,-69.33597783663114 L17.47031410565763,-69.25406524096117 L17.597941726215716,-69.16572959463304 L17.721005140695745,-69.07118370595603 L17.839207878553154,-68.97065534425721 L17.9522651790391,-68.86438669116518 " />
			<path d="M17.95226517903911,-68.86438669116517 L18.059904677214085,-68.75263375717321 L18.161867060098874,-68.63566576488776 L18.257906691382257,-68.5137645004474 L18.347792203180397,-68.38722363467544 L18.431307053422323,-68.25634801560122 L18.508250047518775,-68.12145293405443 L18.578435823057557,-67.98286336410195 L18.641695296357852,-67.84091318015678 L18.697876069807602,-67.69594435264541 L18.746842799002714,-67.5483061241711 L18.788477518803578,-67.39835416815784 L18.82267992752342,-67.24644973200188 L18.84936762856386,-67.09295876679519 L18.868476328915524,-66.93825104571717 L18.879959994045542,-66.78269927321868 L18.883790958798762,-66.62667818714444 " />
			<path d="M-17.95226517903911,68.86438669116517 L-18.059904677214085,68.75263375717321 L-18.161867060098874,68.63566576488776 L-18.257906691382257,68.5137645004474 L-18.347792203180397,68.38722363467544 L-18.431307053422323,68.25634801560122 L-18.508250047518775,68.12145293405443 L-18.578435823057557,67.98286336410195 L-18.641695296357852,67.84091318015678 L-18.697876069807602,67.69594435264541 L-18.746842799002714,67.5483061241711 L-18.788477518803578,67.39835416815784 L-18.82267992752342,67.24644973200188 L-18.84936762856386,67.09295876679519 L-18.868476328915524,66.93825104571717 L-18.879959994045542,66.78269927321868 L-18.88379095879876,66.62667818714442 " />
			<path d="M-18.88379095879876,66.62667818714442 L-18.88379095879876,-66.16606366705719 " />
			<path d="M-18.883790958798762,-66.16606366705719 L-18.879959994045542,-66.32217819824506 L-18.868476328915524,-66.47801008096685 L-18.84936762856386,-66.63318390256788 L-18.82267992752342,-66.78732583572024 L-18.788477518803578,-66.94006453900576 L-18.746842799002714,-67.09103205150987 L-18.697876069807602,-67.23986467927178 L-18.641695296357852,-67.386203871455 L-18.578435823057557,-67.52969708412776 L-18.50825004751877,-67.6699986295722 L-18.431307053422323,-67.80677050907642 L-18.347792203180393,-67.93968322720285 L-18.257906691382257,-68.06841658557175 L-18.161867060098874,-68.19266045424712 L-18.059904677214085,-68.31211551886683 L-17.95226517903911,-68.42649400171719 L-17.839207878553154,-68.53552035501464 L-17.721005140695745,-68.63893192472449 L-17.597941726215716,-68.73647958331755 L-17.47031410565763,-68.82792832994008 L-17.33842974513827,-68.91305785655152 L-17.202606365633834,-68.99166307866578 L-17.063171177562275,-69.06355462941781 L-16.92046009250473,-69.12855931576486 L-16.774816913965125,-69.1865205357238 L-16.62659250911739,-69.23729865563895 L-16.476143963535733,-69.28077134657178 L-16.323833720944197,-69.3168338790021 L-16.170028710057984,-69.34539937513055 L-16.01509946062005,-69.36639901817493 L-15.859419210762487,-69.3797822181558 L-15.703363007843194,-69.38551673377216 " />
			<path d="M15.703363007843182,-69.76855407152891 L-15.703363007843182,-69.38551673377216 " />
			<path d="M2261.9254156607885,-96.34953675471392 L2262.0823345971035,-96.34689831069304 L2262.238837897714,-96.33651916105151 L2262.394544346769,-96.31842458766099 L2262.549074669417,-96.2926586658742 L2262.7020524556506,-96.25928415716483 L2262.853105077183,-96.21838235625107 L2263.0018645951054,-96.17005289307524 L2263.147968656127,-96.11441349012196 L2263.291061375204,-96.05159967566588 L2263.4307942024197,-95.98176445364747 L2263.5668267719893,-95.90507793098101 L2263.6988277313385,-95.82172690320265 L2263.8264755482196,-95.7319143994677 L2263.949459293912,-95.63585918800564 L2264.0674794005913,-95.53379524323728 L2264.1802483910283,-95.42597117585221 " />
			<path d="M2227.8791851983196,-8.568622620089606 L2227.7730919652467,-8.680667277961163 L2227.6726562906924,-8.797822081804608 L2227.5781174616536,-8.919807911462495 L2227.489700715953,-9.046334136906328 L2227.407616705609,-9.177099310659711 L2227.332060994963,-9.31179188599397 L2227.263213594744,-9.450090959185138 L2227.2012385332005,-9.591667034063905 L2227.1462834653016,-9.736182807036958 L2227.098479320951,-9.883293970709449 L2227.0579399930484,-10.032650034193951 L2227.0247620661403,-10.183895158151513 L2226.9990245863078,-10.336669002575352 L2226.9807888728415,-10.490607585297349 L2226.9700983721477,-10.645344149171951 L2226.9669785542383,-10.80051003587142 " />
			<path d="M2226.9669785542387,-10.800510035871419 L2227.320996887843,-92.89681306853987 " />
			<path d="M2227.3209968878427,-92.89681306853986 L2227.3255012087384,-93.05290228902984 L2227.3376573942096,-93.20867578437976 L2227.357436158941,-93.36375828259519 L2227.3847898541553,-93.51777617635425 L2227.419652582406,-93.67035842306055 L2227.461940356326,-93.82113743871713 L2227.511551300965,-93.96974998346859 L2227.568365899211,-94.11583803667772 L2227.632247279721,-94.2590496594285 L2227.703041546654,-94.3990398423779 L2227.78057815042,-94.53547133691349 L2227.864670298549,-94.66801546761495 L2227.9551154056903,-94.79635292406194 L2228.0516955816597,-94.92017453008081 L2228.154178156353,-95.0391819885772 L2228.2623162402715,-95.15308860015975 L2228.3758493192995,-95.26161995382412 L2228.4945038823053,-95.36451458803312 L2228.6179940800534,-95.46152462060043 L2228.7460224138413,-95.55241634586052 L2228.878280452199,-95.63697079768606 L2229.0144495739273,-95.71498427699652 L2229.1542017356846,-95.78626884248705 L2229.2972002622737,-95.85065276339559 L2229.4431006577174,-95.90798093321733 L2229.5915514351846,-95.95811524336979 L2229.7421949637496,-96.00093491590857 L2229.894668329957,-96.03633679449199 L2230.048604212112,-96.06423559289367 L2230.2036317651923,-96.08456410046463 L2230.3593775142435,-96.09727334404957 L2230.515466254114,-96.10233270596748 " />
			<path d="M2261.925415660788,-96.3495367547139 L2230.515466254114,-96.10233270596747 " />
			<path d="M18.883789903121343,15.474218983320785 L18.88378990397482,-66.62668279519765 " />
			<path d="M2227.989124641212,-11.46813570535685 L2227.9891246420652,-93.56903748387529 " />
			<path d="M18.530408472207046,-70.15644458349944 L18.547748077215967,-70.13548394059758 L18.565045909597572,-70.1069112944052 L18.58226029735854,-70.0707954789296 L18.599349769530956,-70.02722350033369 L18.616273156079494,-69.97630032733032 L18.632989687083647,-69.91814863830362 L18.665641691460163,-69.78073715886273 L18.696991326008956,-69.61631240967479 L18.726736676611864,-69.42645789095819 L18.754591279282124,-69.21300200551319 L18.780286878969147,-68.97800045020351 L18.803576013001297,-68.72371641847168 L18.824234394286712,-68.45259880454907 L18.842063071320595,-68.16725861926572 L18.856890344196962,-67.87044384458873 L18.868573418172602,-67.5650129690537 L18.87699977885851,-67.25390745895753 L18.88208827579497,-66.94012343042999 L18.88378990397482,-66.62668279519765 " />
			<path d="M2227.635743210298,-97.09879927217709 L2227.653082815307,-97.07783862927523 L2227.6703806476885,-97.04926598308285 L2227.6875950354497,-97.01315016760725 L2227.704684507622,-96.96957818901134 L2227.7216078941706,-96.91865501600797 L2227.7383244251746,-96.86050332698127 L2227.770976429551,-96.72309184754039 L2227.8023260641,-96.55866709835244 L2227.832071414703,-96.36881257963584 L2227.8599260173733,-96.15535669419084 L2227.88562161706,-95.92035513888116 L2227.908910751092,-95.66607110714934 L2227.9295691323778,-95.39495349322672 L2227.9473978094115,-95.10961330794338 L2227.962225082288,-94.81279853326639 L2227.9739081562634,-94.50736765773135 L2227.9823345169493,-94.19626214763518 L2227.987423013886,-93.88247811910765 L2227.9891246420657,-93.5690374838753 " />
			<path d="M18.883789903121343,15.47421898332078 L18.88253372734651,15.740925657907594 L18.87877413076039,16.00325429799996 L18.87253784206868,16.2593398883348 L18.86386919792326,16.507361798368457 L18.852829827712505,16.74555672597872 L18.839498215409535,16.97223123359269 L18.823969141593462,17.185773787615325 L18.80635300961056,17.384666215564852 L18.786775060665956,17.56749449946098 L18.765374483426157,17.732958828730723 L18.742303424462644,17.879882841161116 L18.71772590657173,18.007221986200616 L18.691816662660887,18.1140709511506 L18.66475989349192,18.199670097450813 L18.650861017495277,18.234304785269163 L18.636747958112817,18.263410861300134 L18.622445810562027,18.286936570407693 L18.607980006288603,18.304840080217264 " />
			<path d="M2227.989124641212,-11.468135705356863 L2227.9876541555204,-11.179727802875515 L2227.9832549363778,-10.896625455305193 L2227.9759635957184,-10.621184745411792 L2227.9658408147843,-10.355697992970045 L2227.9529708391137,-10.102374677227902 L2227.9374607774193,-9.863323048800531 L2227.9194397101883,-9.64053258402655 L2227.899057615428,-9.435857427807852 L2227.8764841204925,-9.25100096272785 L2227.8519070903817,-9.087501632869674 L2227.8255310642576,-8.946720140313767 L2227.797575553195,-8.829828120870335 L2227.7830777346417,-8.780652668722958 L2227.768273213329,-8.737798393291488 L2227.753192807476,-8.70135450329655 L2227.7378679096023,-8.671396863112662 L2227.722330421182,-8.647987834843184 L2227.706612686233,-8.63117614850261 L2227.6907474239883,-8.62099680057647 L2227.674767660785,-8.61747098116998 " />
			<path d="M2224.146101570345,-12.083904504425812 L2224.1287619653363,-12.104865147327672 L2224.1114641329546,-12.133437793520065 L2224.0942497451933,-12.169553608995647 L2224.077160273021,-12.213125587591566 L2224.0602368864725,-12.264048760594928 L2224.0435203554684,-12.322200449621628 L2224.010868351092,-12.459611929062515 L2223.979518716543,-12.624036678250459 L2223.94977336594,-12.813891196967065 L2223.92191876327,-13.027347082412058 L2223.896223163583,-13.262348637721745 L2223.872934029551,-13.516632669453575 L2223.8522756482653,-13.787750283376182 L2223.8344469712315,-14.073090468659528 L2223.819619698355,-14.369905243336515 L2223.8079366243796,-14.67533611887155 L2223.7995102636937,-14.986441628967729 L2223.794421766757,-15.300225657495252 L2223.7927201385774,-15.61366629272758 " />
			<path d="M14.687385400879743,-26.510475934060135 L14.687385401339863,-70.7722133825684 " />
			<path d="M2223.792720138578,-15.613666292727608 L2223.792720139431,-97.71456807124605 " />
			<path d="M14.687385401339862,-70.7722133825684 L14.688855887031886,-71.06062128504973 L14.693255106174464,-71.34372363262005 L14.700546446833801,-71.61916434251346 L14.710669227767884,-71.88465109495522 L14.723539203438284,-72.13797441069735 L14.739049265132781,-72.37702603912473 L14.757070332363806,-72.59981650389871 L14.777452427124144,-72.8044916601174 L14.800025922059554,-72.98934812519741 L14.824602952170542,-73.15284745505558 L14.850978978294581,-73.29362894761148 L14.878934489356903,-73.41052096705492 L14.89343230791062,-73.45969641920229 L14.908236829223107,-73.50255069463377 L14.923317235076281,-73.5389945846287 L14.938642132949818,-73.56895222481259 L14.954179621370193,-73.59236125308207 L14.969897356319224,-73.60917293942265 L14.98576261856384,-73.61935228734879 L15.001742381766922,-73.62287810675528 " />
			<path d="M15.001742381766926,-73.62287810675528 L15.011472333544074,-73.62177225864895 L15.021224703376566,-73.61821859090246 L15.040766833173766,-73.6037805456288 " />
			<path d="M2223.792720139431,-97.71456807124605 L2223.7941906251226,-98.00297597372739 L2223.7985898442653,-98.28607832129771 L2223.8058811849246,-98.56151903119111 L2223.8160039658587,-98.82700578363287 L2223.8288739415293,-99.080329099375 L2223.8443840032237,-99.31938072780238 L2223.8624050704548,-99.54217119257636 L2223.882787165215,-99.74684634879506 L2223.9053606601506,-99.93170281387506 L2223.9299376902613,-100.09520214373323 L2223.9563137163855,-100.23598363628913 L2223.984269227448,-100.35287565573257 L2223.9987670460014,-100.40205110787994 L2224.013571567314,-100.44490538331142 L2224.028651973167,-100.48134927330635 L2224.0439768710407,-100.51130691349024 L2224.059514359461,-100.53471594175973 L2224.0752320944102,-100.5515276281003 L2224.0910973566547,-100.56170697602644 L2224.107077119858,-100.56523279543293 " />
			<path d="M2224.107077119858,-100.56523279543293 L2224.116807071635,-100.5641269473266 L2224.1265594414676,-100.56057327958011 L2224.146101571265,-100.54613523430645 " />
			<path d="M18.530408472207046,-70.15644458349945 L15.040766833173766,-73.60378054562881 " />
			<path d="M2227.6357432102977,-97.09879927217709 L2224.146101571265,-100.54613523430645 " />
			<path d="M-25.995581238018833,-28.861136113886907 L-25.995581238018833,-110.96203788901454 " />
			<path d="M2183.1097958210335,-55.80344910856834 L2183.1097958210335,-137.90435088369597 " />
			<path d="M-26.34896212145834,-114.49179968505145 L-26.331622543356193,-114.47083904176377 L-26.314324737816463,-114.44226639518678 L-26.297110376767804,-114.4061505793288 L-26.280020931113782,-114.36257860035354 L-26.26309757082583,-114.31165542697488 L-26.246381065761206,-114.25350373757777 L-26.2137291120515,-114.11609225741438 L-26.182379526148267,-113.95166750753408 L-26.152634221701177,-113.76181298816196 L-26.124779662252497,-113.54835710210459 L-26.099084102436567,-113.31335554623156 L-26.07579500454104,-113.05907151399086 L-26.05513665530976,-112.78795389961873 L-26.03730800593883,-112.50261371394957 L-26.022480756067818,-112.20579893895417 L-26.01079770021839,-111.9003680631712 L-26.00237135260498,-111.58926255289995 L-25.997282863561413,-111.2754785242719 L-25.99558123801883,-110.96203788901455 " />
			<path d="M2182.756414937594,-141.4341126797329 L2182.773754515696,-141.41315203644518 L2182.791052321236,-141.3845793898682 L2182.8082666822843,-141.34846357401022 L2182.8253561279384,-141.30489159503497 L2182.8422794882263,-141.2539684216563 L2182.858995993291,-141.1958167322592 L2182.891647947001,-141.0584052520958 L2182.922997532904,-140.89398050221553 L2182.9527428373513,-140.70412598284338 L2182.9805973967996,-140.490670096786 L2183.0062929566157,-140.25566854091298 L2183.029582054511,-140.0013845086723 L2183.0502404037425,-139.73026689430017 L2183.0680690531135,-139.444926708631 L2183.0828963029844,-139.1481119336356 L2183.094579358834,-138.84268105785264 L2183.103005706447,-138.53157554758138 L2183.108094195491,-138.21779151895333 L2183.1097958210335,-137.904350883696 " />
			<path d="M-25.99558123801883,-28.861136113886914 L-25.996837411848027,-28.59442943866152 L-26.00059700261659,-28.33210079801343 L-26.00683328166005,-28.07601520721921 L-26.015501912394893,-27.8279932968351 L-26.02654126552777,-27.58979836899481 L-26.03987285720657,-27.363123861281544 L-26.055401906998327,-27.14958130729929 L-26.073018011727005,-26.950688879537296 L-26.092595930380597,-26.76786059598176 L-26.113996474507235,-26.60239626720988 L-26.137067497770083,-26.455472255437105 L-26.16164497762579,-26.32813311121565 L-26.18755418143641,-26.22128414724294 L-26.21461090872429,-26.13568500207618 L-26.228509763204862,-26.101050314881647 L-26.242622800738193,-26.071944239511538 L-26.256924926145523,-26.048418531100967 L-26.271390708020398,-26.030515022023494 " />
			<path d="M2183.1097958210335,-55.80344910856834 L2183.1081248039777,-55.49615018559732 L2183.103127556145,-55.19505900825959 L2183.094851338078,-54.903023090476765 L2183.083374420574,-54.62280430773403 L2183.0688053444487,-54.35705277715542 L2183.0512818940365,-54.108281794513 L2183.030969794116,-53.87884406519864 L2183.008061142603,-53.6709094539495 " />
			<path d="M2179.007788051485,-57.69179077052457 L2178.9864665523414,-57.94001793720609 L2178.967595336458,-58.20275442184843 L2178.951339362159,-58.477703574861884 L2178.9378407272457,-58.7624619924698 L2178.9272174268813,-59.0545405255011 L2178.9195623221626,-59.351386037706135 L2178.9149423284002,-59.65040372340067 L2178.9133978301893,-59.94897978935342 " />
			<path d="M-30.191979228863,-70.84583572821856 L-30.191979228863,-115.10756856979964 " />
			<path d="M2178.9133978301893,-59.94897978935344 L2178.9133978301893,-142.04988156448107 " />
			<path d="M-30.191979228863005,-115.10756856979965 L-30.19050874545235,-115.39597647257465 L-30.186109533128906,-115.67907882035814 L-30.178818203769794,-115.95451953037694 L-30.168695438523127,-116.22000628284984 L-30.15582548279698,-116.47332959852339 L-30.140315445137844,-116.71238122677802 L-30.122294405833557,-116.93517169127186 L-30.101912342659272,-117.13984684710097 L-30.079338882706764,-117.32470331168113 L-30.054761890684826,-117.48820264092976 L-30.02838590543948,-117.62898413276825 L-30.00043043770581,-117.74587615138962 L-29.985932641623346,-117.79505160308808 L-29.971128143258156,-117.83790587804629 L-29.956047760780624,-117.87434976754437 L-29.94072288666249,-117.90430740720868 L-29.9251854223279,-117.92771643493678 L-29.909467711744977,-117.9445281207152 L-29.893602474096145,-117.9547074680595 L-29.8776227356674,-117.9582332868656 " />
			<path d="M-29.877622735667398,-117.9582332868656 L-29.867892799139202,-117.95712743842589 L-29.858140444591474,-117.95357377042207 L-29.838598345423495,-117.93913572486223 " />
			<path d="M2178.9133978301893,-142.0498815644811 L2178.9148683136,-142.33828946725606 L2178.9192675259233,-142.62139181503957 L2178.9265588552826,-142.89683252505836 L2178.9366816205293,-143.16231927753125 L2178.9495515762555,-143.4156425932048 L2178.9650616139143,-143.65469422145947 L2178.983082653219,-143.8774846859533 L2179.003464716393,-144.08215984178239 L2179.0260381763455,-144.26701630636256 L2179.0506151683676,-144.4305156356112 L2179.0769911536127,-144.5712971274497 L2179.1049466213467,-144.68818914607104 L2179.119444417429,-144.7373645977695 L2179.134248915794,-144.78021887272772 L2179.149329298272,-144.8166627622258 L2179.16465417239,-144.8466204018901 L2179.1801916367244,-144.87002942961823 L2179.1959093473074,-144.88684111539663 L2179.211774584956,-144.89702046274093 L2179.227754323385,-144.90054628154704 " />
			<path d="M2179.227754323385,-144.90054628154704 L2179.237484259913,-144.89944043310732 L2179.2472366144607,-144.89588676510348 L2179.266778713629,-144.88144871954367 " />
			<path d="M-26.34896212145834,-114.49179968505145 L-29.838598345423488,-117.93913572486223 " />
			<path d="M2182.756414937594,-141.4341126797329 L2179.266778713629,-144.88144871954364 " />
			<path d="M-70.87495343483643,-73.19649581575706 L-70.87495343483643,-155.29739759088469 " />
			<path d="M2138.2304236242157,-100.13880881043849 L2138.2304236242157,-182.23971058556612 " />
			<path d="M-71.22833431827594,-158.8271593869216 L-71.2109947401738,-158.8061987436339 L-71.19369693463406,-158.77762609705692 L-71.1764825735854,-158.74151028119894 L-71.15939312793138,-158.6979383022237 L-71.14246976764343,-158.64701512884503 L-71.12575326257881,-158.58886343944792 L-71.09310130886911,-158.45145195928453 L-71.06175172296587,-158.28702720940424 L-71.03200641851878,-158.0971726900321 L-71.0041518590701,-157.88371680397472 L-70.97845629925418,-157.6487152481017 L-70.95516720135865,-157.394431215861 L-70.93450885212737,-157.1233136014889 L-70.91668020275642,-156.8379734158197 L-70.90185295288542,-156.5411586408243 L-70.89016989703599,-156.23572776504136 L-70.88174354942258,-155.9246222547701 L-70.87665506037901,-155.61083822614205 L-70.87495343483643,-155.2973975908847 " />
			<path d="M2137.8770427407762,-185.76947238160304 L2137.8943823188783,-185.74851173831533 L2137.911680124418,-185.71993909173835 L2137.9288944854666,-185.68382327588037 L2137.9459839311207,-185.64025129690512 L2137.9629072914086,-185.58932812352646 L2137.9796237964733,-185.53117643412935 L2138.012275750183,-185.39376495396596 L2138.0436253360863,-185.22934020408567 L2138.0733706405335,-185.03948568471353 L2138.101225199982,-184.82602979865615 L2138.126920759798,-184.59102824278312 L2138.1502098576934,-184.33674421054243 L2138.1708682069248,-184.06562659617032 L2138.188696856296,-183.78028641050113 L2138.2035241061667,-183.48347163550574 L2138.215207162016,-183.1780407597228 L2138.2236335096295,-182.86693524945153 L2138.2287219986733,-182.55315122082348 L2138.2304236242157,-182.23971058556614 " />
			<path d="M-70.87495343483643,-73.19649581575707 L-70.87620960866563,-72.92978914053167 L-70.87996919943419,-72.66746049988357 L-70.88620547847765,-72.41137490908935 L-70.8948741092125,-72.16335299870524 L-70.90591346234537,-71.92515807086495 L-70.91924505402417,-71.69848356315168 L-70.93477410381593,-71.48494100916942 L-70.95239020854461,-71.28604858140743 L-70.9719681271982,-71.10322029785189 L-70.99336867132484,-70.93775596908002 L-71.01643969458769,-70.79083195730723 L-71.0410171744434,-70.66349281308578 L-71.06692637825402,-70.55664384911307 L-71.0939831055419,-70.47104470394632 L-71.10788196002247,-70.4364100167518 L-71.1219949975558,-70.40730394138168 L-71.13629712296313,-70.38377823297111 L-71.150762904838,-70.36587472389364 " />
			<path d="M2138.2304236242157,-100.1388088104385 L2138.2279191433404,-99.76327636966134 L2138.220441200227,-99.39801512047208 L2138.208095790227,-99.04820242166912 L2138.1910579021114,-98.71879665812894 " />
			<path d="M2134.069433007001,-102.8616549473488 L2134.0540912369584,-103.20798371644625 L2134.042991208943,-103.56356751504995 L2134.036274180971,-103.92388121384911 L2134.0340256333716,-104.28433949122356 " />
			<path d="M-75.07135142568059,-115.18119543008868 L-75.07135142568059,-159.44292827166979 " />
			<path d="M2134.0340256333716,-104.28433949122359 L2134.0340256333716,-186.38524126635122 " />
			<path d="M-75.07135142568059,-159.4429282716698 L-75.06988094226993,-159.73133617444478 L-75.06548172994648,-160.0144385222283 L-75.05819040058738,-160.28987923224707 L-75.04806763534071,-160.55536598471997 L-75.03519767961457,-160.80868930039352 L-75.01968764195543,-161.04774092864818 L-75.00166660265114,-161.27053139314202 L-74.98128453947686,-161.4752065489711 L-74.95871107952435,-161.66006301355128 L-74.93413408750241,-161.8235623427999 L-74.90775810225706,-161.9643438346384 L-74.87980263452339,-162.08123585325976 L-74.86530483844092,-162.13041130495822 L-74.85050034007574,-162.17326557991643 L-74.8354199575982,-162.20970946941452 L-74.82009508348007,-162.23966710907882 L-74.80455761914548,-162.26307613680694 L-74.78883990856257,-162.27988782258535 L-74.77297467091373,-162.29006716992964 L-74.75699493248499,-162.29359298873575 " />
			<path d="M-74.75699493248497,-162.29359298873575 L-74.74726499595678,-162.29248714029603 L-74.73751264140905,-162.2889334722922 L-74.71797054224108,-162.2744954267324 " />
			<path d="M2134.0340256333716,-186.38524126635124 L2134.0354961167823,-186.6736491691262 L2134.0398953291055,-186.95675151690972 L2134.047186658465,-187.23219222692853 L2134.0573094237116,-187.4976789794014 L2134.070179379438,-187.75100229507495 L2134.0856894170965,-187.9900539233296 L2134.103710456401,-188.21284438782345 L2134.1240925195752,-188.41751954365253 L2134.146665979528,-188.6023760082327 L2134.17124297155,-188.76587533748133 L2134.197618956795,-188.90665682931984 L2134.225574424529,-189.02354884794119 L2134.240072220611,-189.07272429963965 L2134.2548767189764,-189.11557857459786 L2134.269957101454,-189.15202246409595 L2134.285281975572,-189.18198010376025 L2134.3008194399067,-189.20538913148837 L2134.3165371504897,-189.22220081726678 L2134.3324023881382,-189.23238016461107 L2134.3483821265672,-189.23590598341718 " />
			<path d="M2134.3483821265672,-189.23590598341718 L2134.358112063095,-189.23480013497746 L2134.367864417643,-189.23124646697363 L2134.387406516811,-189.21680842141382 " />
			<path d="M-71.22833431827593,-158.8271593869216 L-74.71797054224109,-162.27449542673236 " />
			<path d="M2137.8770427407762,-185.76947238160304 L2134.387406516811,-189.2168084214138 " />
			<path d="M-115.75432563165398,-117.5318555176272 L-115.75432563165398,-199.63275729275483 " />
			<path d="M2093.3510514273985,-144.47416851230864 L2093.3510514273985,-226.57507028743626 " />
			<path d="M-116.1077065150935,-203.16251908879175 L-116.09036693699136,-203.14155844550405 L-116.07306913145162,-203.11298579892707 L-116.05585477040296,-203.0768699830691 L-116.03876532474894,-203.03329800409384 L-116.02184196446099,-202.98237483071517 L-116.00512545939637,-202.92422314131807 L-115.97247350568666,-202.78681166115467 L-115.94112391978342,-202.6223869112744 L-115.91137861533633,-202.43253239190224 L-115.88352405588766,-202.21907650584487 L-115.85782849607173,-201.98407494997184 L-115.8345393981762,-201.72979091773115 L-115.81388104894492,-201.45867330335903 L-115.79605239957398,-201.17333311768985 L-115.78122514970298,-200.87651834269445 L-115.76954209385354,-200.5710874669115 L-115.76111574624014,-200.25998195664025 L-115.75602725719656,-199.9461979280122 L-115.75432563165398,-199.63275729275486 " />
			<path d="M2092.997670543959,-230.10483208347318 L2093.015010122061,-230.08387144018548 L2093.032307927601,-230.0552987936085 L2093.0495222886493,-230.01918297775052 L2093.0666117343035,-229.97561099877527 L2093.0835350945913,-229.9246878253966 L2093.100251599656,-229.8665361359995 L2093.132903553366,-229.7291246558361 L2093.164253139269,-229.56469990595582 L2093.1939984437163,-229.37484538658367 L2093.2218530031646,-229.1613895005263 L2093.2475485629807,-228.92638794465327 L2093.270837660876,-228.67210391241258 L2093.2914960101075,-228.40098629804046 L2093.3093246594785,-228.11564611237128 L2093.3241519093494,-227.81883133737588 L2093.335834965199,-227.51340046159294 L2093.3442613128123,-227.20229495132168 L2093.349349801856,-226.88851092269363 L2093.3510514273985,-226.5750702874363 " />
			<path d="M-115.75432563165398,-117.5318555176272 L-115.75558180548319,-117.26514884240181 L-115.75934139625174,-117.00282020175372 L-115.7655776752952,-116.7467346109595 L-115.77424630603005,-116.4987127005754 L-115.78528565916292,-116.26051777273511 L-115.79861725084173,-116.03384326502184 L-115.81414630063348,-115.8203007110396 L-115.83176240536216,-115.6214082832776 L-115.85134032401575,-115.43857999972207 L-115.87274086814239,-115.27311567095019 L-115.89581189140523,-115.12619165917741 L-115.92038937126094,-114.99885251495596 L-115.94629857507157,-114.89200355098325 L-115.97335530235944,-114.80640440581648 L-115.98725415684001,-114.77176971862195 L-116.00136719437334,-114.74266364325183 L-116.01566931978067,-114.71913793484126 L-116.03013510165555,-114.70123442576379 " />
			<path d="M2093.3510514273985,-144.4741685123086 L2093.3489769948605,-144.13208767050236 L2093.3427780521033,-143.79812159967855 " />
			<path d="M2089.16125647809,-148.0011851378008 L2089.156308070682,-148.31062958708077 L2089.1546534365543,-148.61969919309368 " />
			<path d="M-119.95072362249815,-160.93017235904398 L-119.95072362249815,-203.77828797353993 " />
			<path d="M2089.1546534365543,-148.61969919309374 L2089.1546534365543,-230.72060096822136 " />
			<path d="M-119.95072362249815,-203.77828797353993 L-119.94925313908749,-204.0666958763149 L-119.94485392676404,-204.3497982240984 L-119.93756259740493,-204.6252389341172 L-119.92743983215827,-204.8907256865901 L-119.91456987643213,-205.14404900226364 L-119.89905983877298,-205.3831006305183 L-119.8810387994687,-205.60589109501214 L-119.86065673629442,-205.81056625084122 L-119.8380832763419,-205.9954227154214 L-119.81350628431997,-206.15892204467002 L-119.78713029907462,-206.29970353650853 L-119.75917483134094,-206.41659555512987 L-119.74467703525848,-206.46577100682833 L-119.7298725368933,-206.50862528178655 L-119.71479215441576,-206.54506917128464 L-119.69946728029763,-206.57502681094894 L-119.68392981596304,-206.59843583867706 L-119.66821210538012,-206.61524752445547 L-119.65234686773128,-206.62542687179976 L-119.63636712930254,-206.62895269060587 " />
			<path d="M-119.63636712930253,-206.62895269060587 L-119.62663719277434,-206.62784684216615 L-119.61688483822661,-206.62429317416232 L-119.59734273905863,-206.6098551286025 " />
			<path d="M2089.1546534365543,-230.72060096822136 L2089.156123919965,-231.00900887099633 L2089.1605231322883,-231.29211121877984 L2089.1678144616476,-231.56755192879865 L2089.1779372268943,-231.83303868127152 L2089.1908071826206,-232.08636199694507 L2089.2063172202793,-232.32541362519973 L2089.224338259584,-232.54820408969357 L2089.244720322758,-232.75287924552265 L2089.2672937827106,-232.93773571010283 L2089.2918707747326,-233.10123503935145 L2089.3182467599777,-233.24201653118996 L2089.3462022277117,-233.3589085498113 L2089.360700023794,-233.40808400150976 L2089.375504522159,-233.45093827646798 L2089.390584904637,-233.48738216596607 L2089.405909778755,-233.51733980563037 L2089.4214472430895,-233.5407488333585 L2089.4371649536724,-233.5575605191369 L2089.453030191321,-233.5677398664812 L2089.46900992975,-233.5712656852873 " />
			<path d="M2089.46900992975,-233.5712656852873 L2089.478739866278,-233.57015983684758 L2089.4884922208257,-233.56660616884375 L2089.508034319994,-233.55216812328393 " />
			<path d="M-116.10770651509348,-203.16251908879175 L-119.59734273905865,-206.6098551286025 " />
			<path d="M2092.997670543959,-230.10483208347318 L2089.508034319994,-233.55216812328393 " />
			<path d="M-162.04721349284293,-163.26359388574764 L-162.04721349247322,-245.36449566051004 " />
			<path d="M2047.0582009195134,-190.32114320319016 L2047.0582009198827,-272.3067717546471 " />
			<path d="M-162.40059389190333,-248.89425746256452 L-162.38325433754972,-248.8732968189809 L-162.36595655570133,-248.8447241721087 L-162.34874221822977,-248.80860835595698 L-162.3316527959818,-248.76503637669015 L-162.31472945887248,-248.71411320302278 L-162.29801297670318,-248.65596151334054 L-162.26536106771448,-248.51855003262028 L-162.23401152474864,-248.3541252822055 L-162.20426626104185,-248.16427076232637 L-162.17641173974397,-247.95081487579438 L-162.15071621512195,-247.71581331948371 L-162.12742714912451,-247.4615292868465 L-162.1067688281883,-247.1904116721229 L-162.08894020323694,-246.9050714861506 L-162.0741129736748,-246.6082567109034 L-162.06242993382796,-246.30282583492232 L-162.05400359775675,-245.99172032450858 L-162.04891511568383,-245.67793629579506 L-162.04721349247322,-245.36449566051004 " />
			<path d="M2046.7048205204524,-275.8365335567016 L2046.722160074806,-275.815572913118 L2046.7394578566543,-275.7870002662458 L2046.756672194126,-275.7508844500941 L2046.7737616163738,-275.7073124708273 L2046.7906849534832,-275.6563892971599 L2046.8074014356525,-275.59823760747764 L2046.8400533446413,-275.4608261267574 L2046.871402887607,-275.2964013763426 L2046.901148151314,-275.10654685646347 L2046.9290026726117,-274.8930909699315 L2046.9546981972337,-274.6580894136208 L2046.9779872632312,-274.4038053809836 L2046.9986455841674,-274.13268776626 L2047.0164742091188,-273.8473475802877 L2047.0313014386809,-273.55053280504046 L2047.0429844785276,-273.2451019290594 L2047.051410814599,-272.9339964186457 L2047.0564992966717,-272.62021238993214 L2047.0582009198824,-272.3067717546472 " />
			<path d="M-162.04721349284293,-163.2635938857476 L-162.0484696649596,-162.99688720983238 L-162.05222925060036,-162.73455856856577 L-162.058465521137,-162.4784729772388 L-162.06713414004628,-162.23045106642124 L-162.07817347811857,-161.99225613825942 L-162.09150505160844,-161.76558163034792 L-162.1070340802117,-161.5520390763008 L-162.12465016090235,-161.3531466486159 L-162.14422805283866,-161.17031836528653 L-162.1656285677579,-161.00485403689524 L-162.18869955953008,-160.8579300256611 L-162.21327700583487,-160.7305908821381 L-162.2391861742719,-160.62374191902362 L-162.26624286461401,-160.53814277487277 L-162.28014170011352,-160.5035080882442 L-162.2942547183716,-160.47440201347783 L-162.30855682424368,-160.450876305708 L-162.32302258635787,-160.43297279730737 " />
			<path d="M-162.40059389190333,-248.89425746256455 L-165.89022533641707,-252.34159356193857 " />
			<path d="M2046.7048205204526,-275.8365335567016 L2044.0929794662532,-278.4167183398611 " />
			<path d="M-166.21186515466187,-250.79614203567746 L17.95226517903911,-68.86438669116517 " />
			<path d="M2224.0116101930143,-12.456122229508017 L2227.751265358715,-8.697201464926458 " />
			<path d="M2224.1070771198583,-100.56523279543292 L15.001742381766924,-73.62287810675528 " />
			<path d="M2179.2277543233854,-144.90054628154704 L-29.877622735667398,-117.9582332868656 " />
			<path d="M2134.348382126568,-189.23590598341718 L-74.75699493248499,-162.29359298873575 " />
			<path d="M2089.4690099297504,-233.57126568528727 L-119.63636712930256,-206.62895269060584 " />

       </g>

       <!-- solid lines -->
       <g  stroke="rgb(0,0,0)" fill="none">
			<path d="M18.88379095879876,66.16606366705719 L18.88379095879876,18.32104978181169 " />
			<path d="M-166.24361935307383,-116.7172951031572 L-166.24361935307383,-249.5100369573588 " />
			<path d="M-169.42404730402941,-252.65191284174333 L-169.2679911011101,-252.64998485804477 L-169.11231085125254,-252.64039901971293 L-168.9573816018146,-252.62317841987195 L-168.8035765909284,-252.5983645444552 L-168.65126634833686,-252.56601717226198 L-168.5008178027552,-252.52621423094521 L-168.35259339790747,-252.47905160927684 L-168.20695021936785,-252.42464292614343 L-168.06423913431033,-252.36311925682833 L-167.92480394623877,-252.29462881723967 L-167.78898056673432,-252.21933660684553 L-167.65709620621496,-252.13742401117557 L-167.52946858565687,-252.04908836484745 L-167.40640517117686,-251.95454247617045 L-167.28820243331944,-251.85401411447162 L-167.1751451328335,-251.74774546137957 " />
			<path d="M-167.17514513283348,-251.74774546137957 L-167.06750563465852,-251.63599252738763 L-166.9655432517737,-251.51902453510215 L-166.86950362049035,-251.39712327066178 L-166.7796181086922,-251.27058240488984 L-166.69610325845028,-251.13970678581563 L-166.6191602643538,-251.00481170426883 L-166.54897448881505,-250.86622213431633 L-166.48571501551476,-250.72427195037116 L-166.429534242065,-250.5793031228598 L-166.38056751286987,-250.4316648943855 L-166.338932793069,-250.28171293837224 L-166.30473038434917,-250.1298085022163 L-166.27804268330874,-249.97631753700958 L-166.25893398295707,-249.82160981593157 L-166.24745031782706,-249.66605804343308 L-166.24361935307383,-249.51003695735884 " />
			<path d="M18.883790958798762,66.16606366705719 L18.879959994045542,66.32217819824506 L18.868476328915524,66.47801008096685 L18.84936762856386,66.63318390256788 L18.82267992752342,66.78732583572024 L18.788477518803578,66.94006453900576 L18.746842799002714,67.09103205150987 L18.697876069807602,67.23986467927178 L18.641695296357852,67.386203871455 L18.578435823057557,67.52969708412776 L18.508250047518775,67.6699986295722 L18.431307053422323,67.80677050907642 L18.347792203180397,67.93968322720285 L18.25790669138226,68.06841658557175 L18.161867060098878,68.19266045424712 L18.059904677214085,68.31211551886683 L17.95226517903911,68.42649400171719 L17.839207878553154,68.53552035501464 L17.721005140695745,68.63893192472449 L17.597941726215716,68.73647958331755 L17.47031410565763,68.82792832994008 L17.33842974513827,68.91305785655152 L17.202606365633837,68.99166307866578 L17.063171177562275,69.06355462941781 L16.920460092504733,69.12855931576486 L16.77481691396513,69.1865205357238 L16.626592509117398,69.23729865563895 L16.47614396353574,69.28077134657178 L16.3238337209442,69.3168338790021 L16.170028710057988,69.34539937513055 L16.01509946062005,69.36639901817493 L15.859419210762487,69.3797822181558 L15.70336300784321,69.38551673377216 " />
			<path d="M-166.24361935307383,-116.7172951031572 L-166.24745031782706,-116.56118057196933 L-166.25893398295707,-116.40534868924753 L-166.27804268330874,-116.2501748676465 L-166.30473038434917,-116.09603293449415 L-166.338932793069,-115.94329423120863 L-166.38056751286987,-115.79232671870452 L-166.429534242065,-115.64349409094261 L-166.48571501551476,-115.49715489875939 L-166.54897448881505,-115.35366168608662 L-166.6191602643538,-115.21336014064218 L-166.69610325845028,-115.07658826113797 L-166.7796181086922,-114.94367554301154 L-166.86950362049035,-114.81494218464263 L-166.9655432517737,-114.69069831596727 L-167.06750563465852,-114.57124325134755 L-167.17514513283348,-114.4568647684972 L-167.28820243331944,-114.34783841519975 L-167.40640517117686,-114.2444268454899 L-167.52946858565687,-114.14687918689684 L-167.65709620621496,-114.0554304402743 L-167.78898056673432,-113.97030091366287 L-167.92480394623877,-113.8916956915486 L-168.06423913431033,-113.81980414079658 L-168.20695021936785,-113.75479945444953 L-168.35259339790747,-113.69683823449058 L-168.5008178027552,-113.64606011457543 L-168.65126634833686,-113.6025874236426 L-168.8035765909284,-113.56652489121228 L-168.9573816018146,-113.53795939508383 L-169.11231085125254,-113.51695975203945 L-169.2679911011101,-113.50357655205859 L-169.4240473040294,-113.49784203644222 " />
			<path d="M15.703363007843182,69.38551673377216 L-15.703363007843182,69.76855407152891 " />
			<path d="M-169.4240473040294,-113.49784203644222 L-200.83077331971577,-113.11480469868548 " />
			<path d="M-15.703363007843178,69.76855407152891 L-15.859419210762482,69.76662608783037 L-16.015099460620046,69.75704024949854 L-16.170028710057984,69.73981964965756 L-16.323833720944197,69.71500577424081 L-16.476143963535737,69.68265840204758 L-16.62659250911739,69.64285546073081 L-16.774816913965125,69.59569283906245 L-16.92046009250473,69.54128415592905 L-17.06317117756227,69.47976048661391 L-17.202606365633834,69.41127004702527 L-17.338429745138267,69.33597783663114 L-17.47031410565763,69.25406524096117 L-17.597941726215716,69.16572959463304 L-17.721005140695745,69.07118370595603 L-17.839207878553154,68.97065534425721 L-17.952265179039088,68.86438669116518 " />
			<path d="M-200.83077331971577,-113.11480469868548 L-200.98682952263508,-113.11673268238401 L-201.14250977249264,-113.12631852071584 L-201.2974390219306,-113.14353912055682 L-201.4512440328168,-113.16835299597358 L-201.60355427540833,-113.2007003681668 L-201.75400282099,-113.24050330948357 L-201.90222722583772,-113.28766593115193 L-202.04787040437733,-113.34207461428534 L-202.19058148943486,-113.40359828360047 L-202.33001667750642,-113.47208872318912 L-202.46584005701087,-113.54738093358324 L-202.59772441753023,-113.62929352925322 L-202.72535203808832,-113.71762917558135 L-202.84841545256833,-113.81217506425835 L-202.96661819042575,-113.91270342595718 L-203.07967549091168,-114.0189720790492 " />
			<path d="M-203.0796754909117,-114.01897207904922 L-203.18731498908667,-114.13072501304117 L-203.28927737197148,-114.24769300532662 L-203.38531700325484,-114.36959426976699 L-203.47520251505298,-114.49613513553895 L-203.5587173652949,-114.62701075461317 L-203.63566035939138,-114.76190583615995 L-203.70584613493014,-114.90049540611244 L-203.76910560823043,-115.04244559005761 L-203.8252863816802,-115.18741441756897 L-203.87425311087532,-115.33505264604328 L-203.91588783067618,-115.48500460205655 L-203.95009023939602,-115.63690903821251 L-203.97677794043645,-115.7904000034192 L-203.99588664078811,-115.94510772449722 L-204.00737030591813,-116.1006594969957 L-204.01120127067136,-116.25668058306996 " />
			<path d="M-204.01120127067136,-116.25668058306996 L-204.01120127067136,-249.04942243727157 " />
			<path d="M-204.01120127067136,-249.04942243727157 L-204.00737030591813,-249.20553696845943 L-203.99588664078811,-249.36136885118123 L-203.97677794043645,-249.51654267278224 L-203.95009023939602,-249.6706846059346 L-203.91588783067618,-249.82342330922012 L-203.87425311087532,-249.97439082172426 L-203.8252863816802,-250.12322344948615 L-203.76910560823043,-250.26956264166938 L-203.70584613493014,-250.41305585434213 L-203.63566035939138,-250.5533573997866 L-203.5587173652949,-250.6901292792908 L-203.47520251505298,-250.82304199741722 L-203.38531700325484,-250.95177535578614 L-203.28927737197148,-251.0760192244615 L-203.18731498908667,-251.1954742890812 L-203.0796754909117,-251.30985277193156 L-202.96661819042575,-251.418879125229 L-202.84841545256833,-251.52229069493887 L-202.72535203808832,-251.61983835353192 L-202.59772441753023,-251.71128710015444 L-202.46584005701087,-251.79641662676588 L-202.33001667750642,-251.87502184888015 L-202.19058148943486,-251.94691339963217 L-202.04787040437733,-252.01191808597923 L-201.90222722583772,-252.06987930593817 L-201.75400282099,-252.12065742585332 L-201.60355427540833,-252.16413011678617 L-201.4512440328168,-252.20019264921646 L-201.2974390219306,-252.22875814534493 L-201.14250977249264,-252.2497577883893 L-200.98682952263508,-252.26314098837017 L-200.83077331971577,-252.26887550398655 " />
			<path d="M-169.4240473040294,-252.65191284174333 L-200.83077331971577,-252.26887550398655 " />
			<path d="M2264.7384367015047,-11.097780727401926 L2265.092455035109,-93.19408376007037 " />
			<path d="M2081.2972378008094,-195.4840145042252 L2081.651256134414,-277.58031753689363 " />
			<path d="M2264.1802483910283,-95.4259711758522 L2264.286341624101,-95.31392651798065 L2264.3867772986555,-95.1967717141372 L2264.4813161276943,-95.07478588447931 L2264.569732873395,-94.94825965903549 L2264.651816883739,-94.8174944852821 L2264.727372594385,-94.68280190994784 L2264.796219994604,-94.54450283675666 L2264.8581950561475,-94.40292676187791 L2264.9131501240463,-94.25841098890486 L2264.960954268397,-94.11129982523236 L2265.0014935962995,-93.96194376174786 L2265.0346715232076,-93.8106986377903 L2265.06040900304,-93.65792479336646 L2265.0786447165065,-93.50398621064446 L2265.0893352172,-93.34924964676986 L2265.0924550351097,-93.1940837600704 " />
			<path d="M2078.4842167600927,-280.7357705315372 L2078.6411356964077,-280.7331320875163 L2078.797638997018,-280.7227529378748 L2078.9533454460734,-280.70465836448426 L2079.1078757687214,-280.6788924426975 L2079.260853554955,-280.6455179339881 L2079.4119061764873,-280.60461613307433 L2079.5606656944096,-280.5562866698985 L2079.706769755431,-280.50064726694524 L2079.8498624745084,-280.43783345248914 L2079.989595301724,-280.36799823047073 L2080.1256278712935,-280.2913117078043 L2080.2576288306427,-280.2079606800259 L2080.385276647524,-280.11814817629096 L2080.508260393216,-280.0220929648289 L2080.6262804998955,-279.92002902006055 L2080.7390494903325,-279.8122049526755 " />
			<path d="M2080.7390494903325,-279.8122049526755 L2080.8451427234054,-279.70016029480394 L2080.9455783979597,-279.5830054909605 L2081.0401172269985,-279.4610196613026 L2081.128533972699,-279.33449343585875 L2081.210617983043,-279.20372826210536 L2081.2861736936893,-279.0690356867711 L2081.3550210939084,-278.93073661357994 L2081.4169961554517,-278.7891605387012 L2081.4719512233505,-278.6446447657281 L2081.5197553677012,-278.4975336020556 L2081.5602946956037,-278.3481775385711 L2081.593472622512,-278.19693241461357 L2081.6192101023444,-278.0441585701897 L2081.6374458158107,-277.89021998746773 L2081.6481363165044,-277.7354834235931 L2081.651256134414,-277.5803175368937 " />
			<path d="M2264.7384367015056,-11.097780727401936 L2264.73393238061,-10.941691506911946 L2264.721776195139,-10.785918011562023 L2264.7019974304076,-10.630835513346614 L2264.674643735193,-10.476817619587543 L2264.6397810069425,-10.324235372881244 L2264.5974932330223,-10.173456357224666 L2264.5478822883833,-10.024843812473204 L2264.4910676901372,-9.878755759264083 L2264.4271863096274,-9.73554413651329 L2264.3563920426946,-9.59555395356389 L2264.2788554389285,-9.459122459028297 L2264.1947632907995,-9.326578328326836 L2264.104318183658,-9.19824087187986 L2264.0077380076887,-9.074419265860985 L2263.9052554329955,-8.955411807364602 L2263.797117349077,-8.841505195782048 L2263.683584270049,-8.73297384211767 L2263.564929707043,-8.630079207908668 L2263.441439509295,-8.533069175341357 L2263.313411175507,-8.442177450081267 L2263.1811531371495,-8.357622998255728 L2263.044984015421,-8.279609518945277 L2262.9052318536637,-8.208324953454749 L2262.7622333270747,-8.1439410325462 L2262.616332931631,-8.086612862724468 L2262.467882154164,-8.036478552572003 L2262.3172386255987,-7.993658880033214 L2262.1647652593915,-7.958257001449804 L2262.0108293772364,-7.930358203048121 L2261.855801824156,-7.910029695477158 L2261.700056075105,-7.897320451892225 L2261.5439673352344,-7.892261089974311 " />
			<path d="M2081.29723780081,-195.48401450422517 L2081.292733479914,-195.32792528373517 L2081.280577294443,-195.17215178838526 L2081.260798529712,-195.01706929016984 L2081.2334448344973,-194.86305139641078 L2081.1985821062467,-194.7104691497045 L2081.1562943323265,-194.5596901340479 L2081.1066833876876,-194.41107758929644 L2081.0498687894415,-194.2649895360873 L2080.9859874089316,-194.12177791333653 L2080.9151931419988,-193.9817877303871 L2080.8376565382327,-193.84535623585154 L2080.7535643901037,-193.71281210515008 L2080.6631192829623,-193.5844746487031 L2080.566539106993,-193.4606530426842 L2080.4640565322998,-193.34164558418783 L2080.355918448381,-193.2277389726053 L2080.242385369353,-193.1192076189409 L2080.1237308063473,-193.0163129847319 L2080.000240608599,-192.9193029521646 L2079.8722122748113,-192.8284112269045 L2079.7399542364537,-192.74385677507897 L2079.6037851147253,-192.66584329576852 L2079.464032952968,-192.59455873027798 L2079.321034426379,-192.53017480936944 L2079.175134030935,-192.4728466395477 L2079.026683253468,-192.42271232939524 L2078.876039724903,-192.37989265685644 L2078.7235663586957,-192.34449077827304 L2078.5696304765406,-192.31659197987136 L2078.4146029234603,-192.29626347230038 L2078.258857174409,-192.28355422871547 L2078.1027684345386,-192.27849486679756 " />
			<path d="M2261.5439673352344,-7.892261089974315 L2230.1340179285603,-7.645057041227891 " />
			<path d="M2078.1027684345386,-192.27849486679756 L2046.6928190278645,-192.03129081805113 " />
			<path d="M2230.1340179285594,-7.6450570412278855 L2229.9770989922445,-7.647695485248768 L2229.820595691634,-7.6580746348902915 L2229.6648892425787,-7.6761692082808235 L2229.5103589199307,-7.701935130067614 L2229.3573811336973,-7.735309638776977 L2229.206328512165,-7.776211439690739 L2229.0575689942425,-7.824540902866569 L2228.911464933221,-7.880180305819843 L2228.7683722141437,-7.942994120275921 L2228.628639386928,-8.012829342294335 L2228.4926068173586,-8.089515864960797 L2228.3606058580094,-8.172866892739163 L2228.2329580411283,-8.262679396474107 L2228.109974295436,-8.358734607936164 L2227.9919541887566,-8.460798552704535 L2227.8791851983196,-8.568622620089586 " />
			<path d="M2046.6928190278647,-192.03129081805116 L2046.53590009155,-192.03392926207204 L2046.3793967909396,-192.04430841171356 L2046.2236903418839,-192.0624029851041 L2046.069160019236,-192.08816890689087 L2045.9161822330025,-192.12154341560023 L2045.7651296114702,-192.16244521651402 L2045.6163700935476,-192.21077467968982 L2045.4702660325263,-192.2664140826431 L2045.327173313449,-192.32922789709917 L2045.1874404862338,-192.3990631191176 L2045.051407916664,-192.47574964178406 L2044.9194069573148,-192.55910066956244 L2044.791759140434,-192.64891317329736 L2044.6687753947417,-192.74496838475943 L2044.550755288062,-192.8470323295278 L2044.437986297625,-192.95485639691285 " />
			<path d="M2044.437986297625,-192.95485639691287 L2044.3318930645523,-193.06690105478444 L2044.2314573899978,-193.18405585862786 L2044.136918560959,-193.30604168828575 L2044.0485018152583,-193.4325679137296 L2043.9664178049147,-193.563333087483 L2043.890862094268,-193.69802566281723 L2043.8220146940491,-193.8363247360084 L2043.7600396325056,-193.97790081088718 L2043.7050845646068,-194.12241658386023 L2043.6572804202565,-194.26952774753272 L2043.6167410923538,-194.41888381101722 L2043.5835631654456,-194.57012893497478 L2043.5578256856131,-194.72290277939862 L2043.539589972147,-194.87684136212062 L2043.528899471453,-195.0315779259952 L2043.5257796535436,-195.1867438126947 " />
			<path d="M2043.5257796535436,-195.1867438126947 L2043.8797979871476,-277.2830468453631 " />
			<path d="M2043.8797979871476,-277.2830468453632 L2043.8843023080433,-277.4391360658531 L2043.8964584935145,-277.59490956120305 L2043.9162372582457,-277.74999205941845 L2043.9435909534604,-277.90400995317754 L2043.9784536817108,-278.0565921998838 L2044.0207414556312,-278.20737121554043 L2044.07035240027,-278.3559837602919 L2044.127166998516,-278.502071813501 L2044.191048379026,-278.6452834362518 L2044.261842645959,-278.7852736192012 L2044.3393792497247,-278.9217051137368 L2044.4234713978537,-279.05424924443827 L2044.5139165049954,-279.1825867008852 L2044.6104966809646,-279.3064083069041 L2044.712979255658,-279.4254157654005 L2044.8211173395766,-279.539322376983 L2044.9346504186046,-279.6478537306474 L2045.0533049816104,-279.7507483648564 L2045.1767951793586,-279.8477583974237 L2045.3048235131464,-279.93865012268384 L2045.4370815515038,-280.02320457450935 L2045.573250673232,-280.1012180538198 L2045.7130028349898,-280.1725026193103 L2045.8560013615784,-280.2368865402189 L2046.0019017570223,-280.2942147100406 L2046.1503525344895,-280.3443490201931 L2046.3009960630543,-280.38716869273185 L2046.4534694292615,-280.4225705713153 L2046.607405311417,-280.450469369717 L2046.7624328644974,-280.4707978772879 L2046.9181786135482,-280.48350712087284 L2047.0742673534187,-280.48856648279076 " />
			<path d="M2078.4842167600927,-280.7357705315372 L2047.0742673534187,-280.48856648279076 " />
			<path d="M18.6079800062886,18.304840080217268 L18.588795810970126,18.31975043361071 L18.579133010424503,18.323540889706962 L18.569432922694283,18.324883707507663 " />
			<path d="M18.569432922694283,18.324883707507663 L18.559702970917133,18.323777859401343 L18.549950601084642,18.32022419165485 L18.530408471287444,18.305786146381188 " />
			<path d="M2227.674767660785,-8.61747098116998 L2227.665037709008,-8.6185768292763 L2227.6552853391754,-8.622130497022791 L2227.6357432093782,-8.636568542296454 " />
			<path d="M18.53040847128744,18.305786146381195 L15.04076683225416,14.85845018425183 " />
			<path d="M2227.6357432093787,-8.636568542296452 L2224.1461015703458,-12.083904504425817 " />
			<path d="M15.04076683225416,14.858450184251831 L15.023427227245241,14.83748954134997 L15.006129394863637,14.808916895157578 L14.988915007102667,14.772801079681996 L14.97182553493025,14.729229101086077 L14.954902148381711,14.678305928082715 L14.938185617377558,14.620154239056015 L14.905533613001044,14.482742759615128 L14.874183978452251,14.318318010427184 L14.84443862784934,14.128463491710578 L14.81658402517908,13.915007606265585 L14.790888425492062,13.680006050955898 L14.767599291459911,13.425722019224068 L14.746940910174494,13.15460440530146 L14.729112233140611,12.869264220018115 L14.714284960264244,12.572449445341128 L14.702601886288605,12.267018569806092 L14.694175525602695,11.955913059709914 L14.689087028666238,11.64212903118239 L14.687385400486386,11.328688395950063 " />
			<path d="M14.687385400486388,11.328688395950032 L14.687385400879743,-26.510475934060135 " />
			<path d="M-26.271390708020398,-26.030515022023494 L-26.290574873281496,-26.015604669823972 L-26.300237658685454,-26.011814214212432 L-26.309937731214436,-26.01047139682096 " />
			<path d="M-26.309937731214436,-26.01047139682096 L-26.319667667742632,-26.011577245260682 L-26.32942002229036,-26.01513091326451 L-26.34896212145834,-26.029568958824342 " />
			<path d="M2183.008061142603,-53.670909453949484 L2182.9860278805913,-53.50796970310489 L2182.9623276726975,-53.36422907155613 L2182.9371325778798,-53.240731088691376 L2182.91062550769,-53.13837232615574 L2182.896939783869,-53.09535852291854 L2182.8829988983684,-53.05789588891327 L2182.868828164716,-53.02605244790153 L2182.8544533137942,-52.999886020447626 L2182.839900447116,-52.97944411892943 L2182.8251959894314,-52.96476386126649 L2182.8103666407455,-52.95587190352221 L2182.795439327838,-52.952784391502384 " />
			<path d="M2182.795439327838,-52.952784391502384 L2182.78570939131,-52.953890239942105 L2182.775957036762,-52.95744390794594 L2182.756414937594,-52.971881953505765 " />
			<path d="M-26.34896212145834,-26.02956895882434 L-29.838598345423488,-29.47690499863511 " />
			<path d="M2182.756414937594,-52.971881953505765 L2179.266778713629,-56.41921799331653 " />
			<path d="M-29.838598345423495,-29.476904998635113 L-29.85593792352564,-29.497865641922804 L-29.87323572906537,-29.526438288499783 L-29.89045009011403,-29.56255410435778 L-29.907539535768052,-29.606126083333017 L-29.924462896056003,-29.65704925671169 L-29.94117940112063,-29.71520094610879 L-29.973831354830335,-29.852612426272188 L-30.005180940733567,-30.01703717615248 L-30.034926245180657,-30.206891695524607 L-30.062780804629337,-30.42034758158198 L-30.088476364445267,-30.65534913745501 L-30.111765462340795,-30.909633169695717 L-30.132423811572075,-31.180750784067836 L-30.150252460943005,-31.466090969737 L-30.165079710814016,-31.7629057447324 L-30.176762766663444,-32.06833662051537 L-30.185189114276856,-32.379442130786614 L-30.19027760332042,-32.693226159414664 L-30.191979228863005,-33.00666679467199 " />
			<path d="M2179.266778713629,-56.41921799331654 L2179.2486192778383,-56.44135966854135 L2179.2305078273175,-56.471847559540876 L2179.2124922205385,-56.5106011038076 L2179.1946200627117,-56.55751789731822 L2179.1769385799907,-56.612473965130384 L2179.1594944946823,-56.67532408897937 L2179.1423339017842,-56.7459021910091 L2179.1255021471807,-56.82402177262331 L2179.093002074188,-57.00204028604896 L2179.0623375671053,-57.20749925732799 L2179.033832528639,-57.43822846677605 L2179.007788051485,-57.69179077052455 " />
			<path d="M-30.191979228863,-33.00666679467201 L-30.191979228863,-70.84583572821856 " />
			<path d="M-71.150762904838,-70.36587472389364 L-71.1699470700991,-70.35096437169412 L-71.17960985550306,-70.34717391608258 L-71.18930992803203,-70.34583109869112 " />
			<path d="M-71.18930992803203,-70.34583109869112 L-71.19903986456023,-70.34693694713084 L-71.20879221910796,-70.35049061513466 L-71.22833431827594,-70.36492866069449 " />
			<path d="M2138.1910579021114,-98.71879665812892 L2138.1688080988542,-98.40515469753805 L2138.142153030216,-98.12295948870455 L2138.1272968502926,-97.99500626603286 L2138.111495151964,-97.8764718005983 L2138.094807637732,-97.76780394326322 L2138.0772973569196,-97.6694132665428 L2138.059030467451,-97.58167151336647 L2138.040075985897,-97.50491019254623 L2138.02050552671,-97.43941932625916 L2138.000393031651,-97.38544635427589 L2137.9798144904175,-97.34319519907548 L2137.958847653539,-97.31282549537869 L2137.948243330577,-97.30213381186196 L2137.9375717386165,-97.29445198701077 L2137.9268429599806,-97.2897872784709 L2137.91606713102,-97.28814409337255 " />
			<path d="M2137.91606713102,-97.28814409337255 L2137.906337194492,-97.28924994181227 L2137.8965848399444,-97.29280360981609 L2137.8770427407762,-97.30724165537592 " />
			<path d="M-71.22833431827593,-70.36492866069447 L-74.71797054224109,-73.81226470050525 " />
			<path d="M2137.8770427407762,-97.3072416553759 L2134.387406516811,-100.75457769518668 " />
			<path d="M-74.71797054224108,-73.81226470050527 L-74.73531012034321,-73.83322534379295 L-74.75260792588296,-73.86179799036994 L-74.76982228693161,-73.89791380622793 L-74.78691173258564,-73.94148578520317 L-74.80383509287358,-73.99240895858183 L-74.8205515979382,-74.05056064797894 L-74.85320355164791,-74.18797212814233 L-74.88455313755115,-74.35239687802263 L-74.91429844199824,-74.54225139739475 L-74.94215300144691,-74.75570728345213 L-74.96784856126284,-74.99070883932515 L-74.99113765915837,-75.24499287156586 L-75.01179600838965,-75.51611048593799 L-75.02962465776059,-75.80145067160714 L-75.0444519076316,-76.09826544660254 L-75.05613496348103,-76.40369632238551 L-75.06456131109444,-76.71480183265676 L-75.06964980013801,-77.02858586128481 L-75.07135142568059,-77.34202649654213 " />
			<path d="M2134.387406516811,-100.7545776951867 L2134.3750482165465,-100.76873178577112 L2134.362705035279,-100.7867597472804 L2134.3381243947642,-100.83434435003846 L2134.3137848451242,-100.89709871694463 L2134.2898054567863,-100.97471585015495 L2134.266303538248,-101.06681604234831 L2134.243394062198,-101.17294873427558 L2134.221189103065,-101.29259471892063 L2134.1997972887402,-101.4251686814897 L2134.1793232691657,-101.57002206280391 L2134.1598672043815,-101.72644623208677 L2134.141524274535,-101.89367595362515 L2134.1243842142576,-102.07089313034493 L2134.108530873674,-102.2572308059872 L2134.0940418082064,-102.45177740630646 L2134.069433007001,-102.86165494734877 " />
			<path d="M-75.07135142568059,-77.34202649654216 L-75.07135142568059,-115.18119543008868 " />
			<path d="M-116.03013510165555,-114.70123442576379 L-116.04931926691665,-114.68632407356426 L-116.05898205232062,-114.68253361795271 L-116.06868212484959,-114.68119080056125 " />
			<path d="M-116.06868212484959,-114.68119080056125 L-116.07841206137779,-114.68229664900097 L-116.08816441592552,-114.68585031700479 L-116.1077065150935,-114.70028836256462 " />
			<path d="M2093.3427780521033,-143.79812159967855 L2093.3358352936407,-143.56591178584995 L2093.326851550462,-143.3412907002807 L2093.31588104372,-143.12561403779983 L2093.3029899856283,-142.9201835093991 L2093.288256179839,-142.72623898578954 L2093.271768551861,-142.54495101419343 L2093.253626612352,-142.3774137535364 L2093.233939856525,-142.2246383706791 L2093.212827103292,-142.08754693754557 L2093.1904157781364,-141.96696686598156 L2093.1668411440396,-141.86362591393146 L2093.1422454851036,-141.77814779307386 L2093.1167772478,-141.71104840442553 L2093.1037637669956,-141.6845216943467 L2093.0905901450255,-141.6627327246341 L2093.0772762666584,-141.64571438439145 L2093.0638422283705,-141.63349236175188 L2093.050308308013,-141.62608510510353 L2093.036694934203,-141.62350379524267 " />
			<path d="M2093.036694934203,-141.62350379524267 L2093.026964997675,-141.6246096436824 L2093.017212643127,-141.62816331168622 L2092.997670543959,-141.64260135724604 " />
			<path d="M-116.10770651509348,-114.70028836256462 L-119.59734273905865,-118.1476244023754 " />
			<path d="M2092.997670543959,-141.64260135724606 L2089.508034319994,-145.08993739705681 " />
			<path d="M-119.59734273905863,-118.14762440237538 L-119.61468231716077,-118.16858504566306 L-119.63198012270051,-118.19715769224005 L-119.64919448374917,-118.23327350809805 L-119.66628392940319,-118.27684548707329 L-119.68320728969114,-118.32776866045195 L-119.69992379475576,-118.38592034984906 L-119.73257574846546,-118.52333183001245 L-119.76392533436871,-118.68775657989275 L-119.7936706388158,-118.87761109926487 L-119.82152519826447,-119.09106698532224 L-119.8472207580804,-119.32606854119527 L-119.87050985597593,-119.58035257343597 L-119.89116820520721,-119.8514701878081 L-119.90899685457815,-120.13681037347726 L-119.92382410444915,-120.43362514847266 L-119.93550716029858,-120.73905602425563 L-119.94393350791199,-121.05016153452688 L-119.94902199695557,-121.36394556315493 L-119.95072362249815,-121.67738619841225 " />
			<path d="M2089.508034319994,-145.0899373970568 L2089.4928306156644,-145.1079019184758 L2089.4776550668357,-145.13172339413168 L2089.4625357768673,-145.16135770940892 L2089.4475007449346,-145.19674998498573 L2089.4177946201326,-145.28453570574786 L2089.3887566397716,-145.39443058150198 L2089.360601804181,-145.52562093877094 L2089.333538574791,-145.67713543004263 L2089.307767330662,-145.84785222573123 L2089.283478884857,-146.03650732032426 L2089.2608530716398,-146.24170389121525 L2089.240057414965,-146.4619226409284 L2089.221245888111,-146.6955330461607 L2089.204557773645,-146.94080543035162 L2089.190116632161,-147.1959237703944 L2089.1780293874235,-147.45899914266636 L2089.1683855346923,-147.72808370882268 L2089.16125647809,-148.00118513780077 " />
			<path d="M-119.95072362249815,-121.67738619841231 L-119.95072362249815,-160.93017235904398 " />
			<path d="M2047.058200919513,-190.2058699798847 L2047.0582009195134,-190.32114320319016 " />
			<path d="M-162.32302258635787,-160.43297279730737 L-162.3422067250416,-160.4180624462403 L-162.35186949705653,-160.41427199107665 L-162.3615695561436,-160.41292917405357 " />
			<path d="M-162.3615695561436,-160.41292917405357 L-162.37129947918746,-160.41403502278186 L-162.38105182021906,-160.41758869099422 L-162.40059389230169,-160.4320267367309 " />
			<path d="M2047.0582009195127,-190.2058699798847 L2047.0567304381111,-189.91746207678037 L2047.0523312318007,-189.6343597287336 L2047.0450399124086,-189.35891901852574 L2047.0349171610003,-189.0934322659452 L2047.0220472228687,-188.84010895025182 L2047.0065372064144,-188.6010573220706 L2046.9885161917487,-188.37826685774772 L2046.9681341564424,-188.17359170219032 L2046.9455607273555,-187.98873523798457 L2046.9209837689407,-187.8252359092138 L2046.8946078197646,-187.68445441795598 L2046.8666523902627,-187.5675624000162 L2046.8521546140087,-187.5183869486954 L2046.837350135892,-187.47553267413875 L2046.8222697740412,-187.4390887850655 L2046.8069449208851,-187.40913114584865 L2046.7914074778043,-187.38572211858977 L2046.775689788723,-187.36891043330158 L2046.7598245727786,-187.35873108646751 L2046.743844856212,-187.35520526819067 " />
			<path d="M2046.743844856212,-187.35520526819067 L2046.7341149331683,-187.35631111691896 L2046.7243625921367,-187.35986478513132 L2046.704820520054,-187.374302830868 " />
			<path d="M-162.40059389230163,-160.4320267367309 L-165.89022533681538,-163.87936283610492 " />
			<path d="M2046.7048205200542,-187.374302830868 L2043.2151890755406,-190.82163893024202 " />
			<path d="M-165.8902253368154,-163.87936283610495 L-165.90756489116902,-163.90032347968858 L-165.9248626730174,-163.92889612656077 L-165.94207701048896,-163.9650119427125 L-165.95916643273694,-164.00858392197932 L-165.97608976984625,-164.0595070956467 L-165.99280625201555,-164.11765878532893 L-166.02545816100425,-164.2550702660492 L-166.0568077039701,-164.41949501646397 L-166.08655296767688,-164.6093495363431 L-166.11440748897476,-164.8228054228751 L-166.14010301359679,-165.05780697918576 L-166.16339207959422,-165.31209101182296 L-166.18405040053042,-165.58320862654656 L-166.2018790254818,-165.86854881251887 L-166.21670625504393,-166.16536358776608 L-166.22838929489077,-166.47079446374715 L-166.23681563096198,-166.7818999741609 L-166.2419041130349,-167.0956840028744 L-166.2436057362455,-167.4091246381594 " />
			<path d="M2043.2151890755408,-190.82163893024205 L2043.1978495211872,-190.84259957382568 L2043.1805517393389,-190.87117222069787 L2043.1633374018672,-190.9072880368496 L2043.1462479796194,-190.95086001611642 L2043.12932464251,-191.0017831897838 L2043.1126081603406,-191.05993487946603 L2043.0799562513519,-191.1973463601863 L2043.0486067083862,-191.36177111060107 L2043.0188614446793,-191.5516256304802 L2042.9910069233815,-191.7650815170122 L2042.9653113987595,-192.00008307332286 L2042.942022332762,-192.25436710596006 L2042.9213640118257,-192.52548472068366 L2042.9035353868744,-192.81082490665597 L2042.8887081573123,-193.10763968190318 L2042.8770251174656,-193.41307055788425 L2042.8685987813942,-193.724176068298 L2042.8635102993214,-194.0379600970115 L2042.8618086761107,-194.3514007322965 " />
			<path d="M-166.2436057362455,-167.40912463815943 L-166.2436057358758,-249.51002641292183 " />
			<path d="M2042.8618086761105,-194.3514007322965 L2042.8618086764802,-276.45230250705896 " />
			<path d="M-166.24360573587583,-249.51002641292183 L-166.24213525447422,-249.79843431602617 L-166.23773604816378,-250.08153666407293 L-166.23044472877174,-250.3569773742808 L-166.22032197736337,-250.62246412686133 L-166.2074520392318,-250.87578744255472 L-166.19194202277737,-251.11483907073594 L-166.17392100811176,-251.33762953505882 L-166.15353897280542,-251.54230469061622 L-166.13096554371864,-251.72716115482197 L-166.10638858530382,-251.89066048359274 L-166.08001263612775,-252.03144197485057 L-166.05205720662593,-252.14833399279036 L-166.03755943037172,-252.19750944411115 L-166.02275495225507,-252.2403637186678 L-166.00767459040426,-252.27680760774103 L-165.99234973724822,-252.3067652469579 L-165.9768122941675,-252.33017427421674 L-165.96109460508606,-252.34698595950496 L-165.94522938914164,-252.35716530633903 L-165.9292496725752,-252.36069112461587 " />
			<path d="M-165.92924967257517,-252.36069112461587 L-165.9195197495313,-252.35958527588758 L-165.9097674084997,-252.35603160767522 L-165.89022533641707,-252.34159356193854 " />
			<path d="M2042.8618086764805,-276.4523025070589 L2042.863279157882,-276.7407104101633 L2042.8676783641924,-277.02381275821006 L2042.8749696835846,-277.29925346841793 L2042.8850924349929,-277.56474022099843 L2042.8979623731245,-277.8180635366918 L2042.9134723895788,-278.05711516487304 L2042.9314934042445,-278.2799056291959 L2042.9518754395508,-278.4845807847533 L2042.9744488686376,-278.66943724895907 L2042.9990258270525,-278.8329365777298 L2043.0254017762286,-278.97371806898764 L2043.0533572057304,-279.0906100869274 L2043.0678549819845,-279.13978553824825 L2043.0826594601012,-279.1826398128049 L2043.097739821952,-279.21908370187816 L2043.113064675108,-279.249041341095 L2043.1286021181888,-279.2724503683539 L2043.1443198072702,-279.28926205364206 L2043.1601850232146,-279.2994414004761 L2043.1761647397811,-279.302967218753 " />
			<path d="M2043.1761647397811,-279.302967218753 L2043.185894662825,-279.3018613700247 L2043.1956470038565,-279.2983077018123 L2043.2151890759392,-279.28386965607564 " />
			<path d="M2044.0929794662532,-278.4167183398611 L2043.215189075939,-279.2838696560757 " />
			<path d="M18.88379095879876,66.16606366705719 L-166.24361935307388,-116.71729510315723 " />
			<path d="M-166.24360573587586,-249.51002350522387 L-166.24361935307388,-249.51003695735884 " />
			<path d="M15.70336300784318,69.38551673377216 L-169.42404730402944,-113.49784203644225 " />
			<path d="M-15.70336300784318,69.76855407152891 L-200.83077331971583,-113.1148046986855 " />
			<path d="M2264.738436701505,-11.09778072740193 L2081.2972378008094,-195.48401450422517 " />
			<path d="M2265.092455035109,-93.19408376007038 L2081.6512561344134,-277.58031753689363 " />
			<path d="M2261.543967335234,-7.892261089974312 L2078.102768434538,-192.27849486679756 " />
			<path d="M2230.13401792856,-7.645057041227883 L2046.6928190278643,-192.03129081805113 " />
			<path d="M18.53040847128744,18.305786146381195 L2227.635743209379,-8.636568542296448 " />
			<path d="M15.04076683225416,14.858450184251833 L2224.1461015703458,-12.08390450442581 " />
			<path d="M14.687385400486386,11.32868839595003 L2220.9052843092313,-15.578450986770159 " />
			<path d="M-26.34896212145834,-26.029568958824342 L2182.7564149375944,-52.97188195350577 " />
			<path d="M-29.838598345423495,-29.476904998635113 L2179.2667787136293,-56.41921799331655 " />
			<path d="M-30.191979228863,-33.006666794672014 L2176.7879568863277,-59.923057850202916 " />
			<path d="M-71.22833431827594,-70.36492866069449 L2137.877042740777,-97.30724165537592 " />
			<path d="M-74.71797054224108,-73.81226470050525 L2134.387406516812,-100.75457769518668 " />
			<path d="M-75.07135142568059,-77.34202649654216 L2132.6705835022335,-104.26771091160546 " />
			<path d="M-116.1077065150935,-114.70028836256463 L2092.9976705439594,-141.64260135724606 " />
			<path d="M-119.59734273905863,-118.14762440237538 L2089.5080343199943,-145.08993739705681 " />
			<path d="M-119.95072362249815,-121.6773861984123 L2088.5532101181384,-148.61236397300797 " />
			<path d="M-162.40059389230169,-160.43202673673093 L2046.7048205200538,-187.374302830868 " />
			<path d="M-165.8902253368154,-163.87936283610492 L2043.2151890755401,-190.821638930242 " />
			<path d="M-166.2436057362455,-167.40912463815943 L2042.8618086761098,-194.3514007322965 " />
			<path d="M-166.2436057358758,-249.51002641292183 L2042.8618086764795,-276.4523025070589 " />
			<path d="M-165.89022533641707,-252.34159356193854 L2043.1376177699954,-279.2829235954992 " />
			<path d="M-167.17514513283353,-251.74774546137957 L-166.21186515466187,-250.79614203567746 " />
			<path d="M-203.07967549091174,-114.01897207904925 L-17.95226517903911,68.86438669116517 " />
			<path d="M2080.7390494903325,-279.81220495267553 L2264.1802483910283,-95.4259711758522 " />
			<path d="M2044.4379862976245,-192.9548563969129 L2224.0116101930143,-12.456122229508017 " />
			<path d="M2227.751265358715,-8.697201464926458 L2227.87918519832,-8.568622620089606 " />
			<path d="M2227.6747676607856,-8.61747098116997 L18.56943292269428,18.324883707507666 " />
			<path d="M2182.7954393278383,-52.9527843915024 L-26.309937731214436,-26.010471396820964 " />
			<path d="M2137.916067131021,-97.28814409337255 L-71.18930992803203,-70.34583109869112 " />
			<path d="M2093.0366949342033,-141.62350379524267 L-116.0686821248496,-114.68119080056124 " />
			<path d="M2046.7438448562123,-187.35520526819064 L-162.36156955614356,-160.41292917405357 " />
			<path d="M2043.1761647397807,-279.302967218753 L-165.92924967257517,-252.3606911246159 " />

       </g>
    </g>
    
</svg>
