<?xml version="1.0" encoding="UTF-8" standalone="no"?>
<svg
   xmlns:svg="http://www.w3.org/2000/svg"
   xmlns="http://www.w3.org/2000/svg"
   width="480.0"
   height="480.0"

>
    <g transform="scale(0.1274596702544226, -0.1274596702544226)   translate(95.06517740825333,-677.2339993173018)" stroke-width="1.0"  fill="none">
       <!-- hidden lines -->
       <g  stroke="rgb(0,0,0)" fill="none" stroke-dasharray="1.0,1.0" >
			<path d="M16.60898824630922,58.92421530048766 L16.60898824630922,-65.60735815333668 " />
			<path d="M15.559146470486025,-67.72530928971449 L15.619618366093198,-67.68439277511418 L15.678672759301618,-67.64140651662193 L15.736263348768619,-67.59638421742858 L15.792344980840552,-67.54936117707392 L15.846873684955318,-67.50037426377023 L15.89980670811729,-67.44946188549591 L15.951102548417623,-67.39666395988188 L16.000720987573644,-67.34202188291434 L16.048623122461823,-67.28557849647841 L16.0947713956196,-67.22737805476814 L16.13912962469215,-67.1674661895892 L16.181663030801,-67.10588987458148 L16.222338265812276,-67.04269738838957 L16.26112343848314,-66.9779382768101 L16.29798813946599,-66.91166331394562 L16.332903465150785,-66.84392446239534 L16.365842040326797,-66.7747748325141 L16.396778039646005,-66.70426864077139 L16.42568720787138,-66.63246116724319 L16.452546878894076,-66.5594087122699 L16.4773359935047,-66.4851685523142 L16.500035115904705,-66.4097988950538 L16.520626448944927,-66.33335883374386 L16.539093848079375,-66.25590830088525 L16.555422834023297,-66.17750802123473 L16.56960060410558,-66.0982194641939 L16.581616042306656,-66.01810479561443 L16.59145972797394,-65.93722682905721 L16.59912394320809,-65.85564897654358 L16.604602678914155,-65.7734351988375 L16.607891639512992,-65.6906499552973 L16.60898824630922,-65.60735815333668 " />
			<path d="M16.60898824630922,58.92421530048766 L16.60561877199672,59.0712518820696 L16.59551846641798,59.21929005240609 L16.57871166209381,59.36797317457816 L16.555238848087935,59.51694305792141 L16.52515657246527,59.66584082093864 L16.48853730606269,59.81430775587684 L16.445469267900425,59.961986192885576 L16.396056212654717,60.108520361674984 L16.340417180703735,60.25355724859758 L16.278686211348845,60.396747447089034 L16.21101201990222,60.5377459994192 L16.137557639418617,60.676213227725505 L16.058500027934457,60.81181555232665 L15.974029642160444,60.944226295345324 L15.884349978654633,61.07312646770377 L15.78967708358142,61.19820553759647 L15.690239032237407,61.319162178588414 L15.586275379598023,61.435704995536895 L15.478036583208619,61.54755322658795 L15.365783399810294,61.65443741955622 L15.249786257154073,61.7561000810589 L15.130324602516765,61.852296296839825 L15.007686229487994,61.94279432178939 L14.882166584650243,62.02737613823881 L14.754068055822147,62.105837981183754 L14.623699243579756,62.177990829172124 L14.491374217810725,62.24366085967328 L14.357411761092434,62.30268986783172 L14.222134600716842,62.354935647596456 L14.085868631212175,62.400272334307864 L13.948942129234458,62.43859070791662 L13.811684962720312,62.4697984561044 " />
			<path d="M13.811684962720298,62.46979845610441 L-13.811684962720298,68.02735935478937 " />
			<path d="M-13.811684962720296,68.02735935478935 L-13.929615941173505,68.04843401830108 L-14.04733721997993,68.0641673387321 L-14.16463947237142,68.07453133978832 L-14.281314116674048,68.07950759266171 L-14.39715368719882,68.07908724879967 L-14.511952203147976,68.07327105563903 L-14.625505534880924,68.06206935527706 L-14.737611766888548,68.04550206608161 L-14.848071556830414,68.02359864727316 L-14.956688489996507,67.99639804654166 L-15.063269428563178,67.96394863079156 L-15.167624855022265,67.92630810013789 L-15.269569209172746,67.88354338530644 L-15.368921218075679,67.83573052862054 L-15.46550421838571,67.782954548786 L-15.559146470486015,67.72530928971449 " />
			<path d="M1991.9314544561025,-385.2531004739205 L1992.199794390469,-462.3302874286308 " />
			<path d="M1991.145407197586,-464.4637830683916 L1991.2063682458584,-464.42272803268 L1991.2658969882964,-464.3795720207197 L1991.3239461163962,-464.3343493293274 L1991.380469497528,-464.2870958977451 L1991.4354222115999,-464.23784927907866 L1991.488760586755,-464.1866486104536 L1991.5404422340791,-464.1335345819121 L1991.5904260812886,-464.0785494040761 L1991.6386724053693,-464.02173677460166 L1991.6851428641473,-463.96314184345187 L1991.7298005267583,-463.902811177015 L1991.7726099029985,-463.8407927210979 L1991.8135369715283,-463.7771357628224 L1991.85254920691,-463.711890891456 L1991.8896156054568,-463.6451099582077 L1991.9247067098713,-463.57684603502105 L1991.957794632656,-463.5071533723969 L1991.988853078276,-463.4360873562797 L1992.0178573640558,-463.3637044640412 L1992.0447844397966,-463.290062219597 L1992.069612906093,-463.2152191476914 L1992.0923230313408,-463.1392347273867 L1992.112896767417,-463.06216934479403 L1992.1313177640236,-462.98408424508386 L1992.1475713816812,-462.9050414838131 L1992.1616447033637,-462.82510387760846 L1992.1735265447628,-462.7443349542454 L1992.183207463177,-462.662798902161 L1992.1906797650158,-462.5805605194428 L1992.1959375119138,-462.4976851623324 L1992.19897652545,-462.4142386932856 L1992.1997943904692,-462.3302874286308 " />
			<path d="M1991.9314544561028,-385.25310047392054 L1991.9275768060822,-385.1059183895269 L1991.9169733867918,-384.95776289935856 L1991.8996697427974,-384.80899092296835 L1991.875707560093,-384.6599608650782 L1991.8451445656756,-384.51103175215104 L1991.8080543884755,-384.36256236746465 L1991.7645263819786,-384.21491038677107 L1991.714665408965,-384.06843151662457 L1991.658591588886,-383.9234786374534 L1991.5964400084858,-383.78040095343977 L1991.5283603963653,-383.6395431512567 L1991.454516762273,-383.5012445696873 L1991.3750870019917,-383.3658383821281 L1991.2902624687708,-383.23365079394506 L1991.200247512341,-383.10500025661645 L1991.1052589866165,-382.9801967005551 L1991.0055257272757,-382.85954078845907 L1990.901288000476,-382.74332319098886 L1990.7927969240313,-382.63182388651614 L1990.6803138624477,-382.52531148663167 L1990.5641097972727,-382.4240425890361 L1990.4444646742777,-382.3282611593739 L1990.3216667290437,-382.23819794349845 L1990.1960117925764,-382.15406991158557 L1990.0678025786242,-382.07607973543276 L1989.9373479544129,-382.0044153002056 L1989.804962196559,-381.93924925180556 L1989.6709642339486,-381.88073858095106 L1989.5356768794104,-381.82902424497325 L1989.3994260520315,-381.784230828237 L1989.2625399919891,-381.7464662420068 L1989.1253484697916,-381.71582146447855 " />
			<path d="M1989.1253484697913,-381.7158214644785 L1961.5177097475357,-376.27234751462686 " />
			<path d="M1961.5177097475355,-376.27234751462686 L1961.4009160401463,-376.25192440781353 L1961.2843444400305,-376.2367514031961 L1961.168198512826,-376.22685499695683 L1961.0526810808308,-376.2222524709059 L1960.9379938688198,-376.22295186230235 L1960.8243371517785,-376.2289519498191 L1960.7119094051686,-376.2402422556755 L1960.600906958336,-376.25680306393474 L1960.4915236516667,-376.2786054549328 L1960.3839504980883,-376.3056113557802 L1960.2783753495105,-376.33777360684763 L1960.1749825687841,-376.3750360441196 L1960.0739527077533,-376.41733359727175 L1959.9754621919637,-376.46459240330137 L1959.8796830125755,-376.5167299355124 L1959.7867824260195,-376.57365514762927 " />
			<path d="M1959.7867824260195,-376.57365514762927 L1959.7258213777473,-376.61471018334083 L1959.6662926353092,-376.65786619530115 L1959.6082435072094,-376.7030888866935 L1959.5517201260775,-376.7503423182758 L1959.4967674120057,-376.7995889369422 L1959.4434290368506,-376.8507896055673 L1959.3917473895265,-376.90390363410876 L1959.341763542317,-376.95888881194475 L1959.2935172182363,-377.0157014414192 L1959.2470467594583,-377.074296372569 L1959.2023890968474,-377.13462703900586 L1959.159579720607,-377.19664549492296 L1959.1186526520773,-377.26030245319845 L1959.0796404166956,-377.32554732456487 L1959.0425740181488,-377.3923282578132 L1959.0074829137343,-377.4605921809998 L1958.9743949909496,-377.530284843624 L1958.9433365453297,-377.60135085974116 L1958.9143322595498,-377.6737337519797 L1958.887405183809,-377.74737599642384 L1958.8625767175126,-377.82221906832945 L1958.8398665922648,-377.8982034886342 L1958.8192928561887,-377.97526887122683 L1958.800871859582,-378.053353970937 L1958.7846182419244,-378.1323967322078 L1958.770544920242,-378.2123343384124 L1958.7586630788428,-378.29310326177546 L1958.7489821604286,-378.37463931385986 L1958.7415098585898,-378.45687769657803 L1958.7362521116918,-378.53975305368846 L1958.7332130981556,-378.6231995227352 L1958.7323952331365,-378.70715078739 " />
			<path d="M1958.7323952331371,-378.70715078739005 L1959.0007351675035,-455.7843377421004 " />
			<path d="M1959.000735167503,-455.7843377421003 L1959.00251670013,-455.8806862325129 L1959.0071905766195,-455.9775056356199 L1959.014751958459,-456.07469572158914 L1959.0251930179202,-456.1721558768485 L1959.0385029461606,-456.2697852082433 L1959.054667964415,-456.3674826474839 L1959.0736713382578,-456.46514705577334 L1959.095493394928,-456.5626773285095 L1959.120111543695,-456.65997249995036 L1959.1475002992443,-456.7569318477367 L1959.1776313080613,-456.85345499716226 L1959.210473377783,-456.949442025084 L1959.2459925094897,-457.04479356336515 L1959.2841519329006,-457.13941090174336 L1959.3249121444405,-457.2331960900182 L1959.3682309481337,-457.3260520394516 L1959.414063499287,-457.4178826232762 L1959.4623623509142,-457.5085927762087 L1959.5130775028538,-457.59808859286323 L1959.5661564535303,-457.6862774249648 L1959.6215442543064,-457.7730679772612 L1959.6791835663653,-457.85837040203376 L1959.7390147200708,-457.9420963921101 L1959.8009757767384,-458.024159272282 L1959.865002592755,-458.1044740890336 L1959.9310288859826,-458.1829576984872 L1959.9989863043759,-458.2595288524762 L1960.0688044967399,-458.3341082826549 L1960.1404111855618,-458.4066187825593 L1960.2137322418323,-458.47698528753295 L1960.2886917617873,-458.5451349524357 L1960.3652121454843,-458.61099722705507 " />
			<path d="M16.609010059783888,11.38597644448339 L16.609010078372304,-65.60734665500337 " />
			<path d="M1959.598573809157,-379.5249973664098 L1959.5985738277452,-456.51832046589664 " />
			<path d="M16.800272827119983,-66.9162719251721 L16.756169004226436,-66.77838691328984 L16.717589139672352,-66.63192652534879 L16.684684711083577,-66.47746581447838 L16.657584912400516,-66.31561124578775 L16.636396146618953,-66.14699831517822 L16.621201608015795,-65.97228905417087 L16.61206095550017,-65.79216943054647 L16.609010078372304,-65.60734665500337 " />
			<path d="M1959.9991040297616,-458.2560102148103 L1959.952539685273,-458.1826775580408 L1959.908502901009,-458.103705961084 L1959.86708642462,-458.01926174921107 L1959.828377485021,-457.9295227737882 L1959.7924576086727,-457.8346780376972 L1959.7594024478785,-457.7349272972685 L1959.7292816214479,-457.6304806415667 L1959.70215856807,-457.52155804991315 L1959.6780904127036,-457.4083889285788 L1959.6571278462634,-457.2912116276223 L1959.639315018857,-457.17027293889134 L1959.6246894468002,-457.04582757624433 L1959.613281933601,-456.9181376390874 L1959.6051165050837,-456.787472060356 L1959.6002103587878,-456.6541060401046 L1959.5985738277457,-456.51832046589664 " />
			<path d="M16.60901005978389,11.385976444483381 L16.61088198934121,11.533555351269923 L16.61649326844157,11.683219190745286 L16.62583037902213,11.834607409611165 L16.638870827165665,11.987355300388275 L16.655583197290394,12.141094880028596 L16.675927227832847,12.295455776418779 L16.69985390824153,12.450066120639 L16.727305597047604,12.60455344282777 L16.758216160728253,12.758545569494443 L16.79251113302812,12.911671520117759 L16.830107894355056,13.06356240087042 L16.87091587081793,13.213852293316624 L16.914836752427096,13.362179135941625 L16.961764729931737,13.508185596389644 L17.011586749723637,13.651519932308808 L17.06418278619323,13.79183683872928 L17.119426130881784,13.928798279933185 L17.177183697733202,14.062074303812256 L17.237316343709978,14.191343836751368 L17.29967920400095,14.316295457123 L17.36412204101334,14.436628145529202 L17.430489606308257,14.552052009983708 L17.498622014607793,14.66228898428711 L17.568355128972662,14.767073497912692 L17.63952095622246,14.866153115789091 L17.711948051645948,14.959289146438493 L17.785461932026394,15.046257217005312 L17.859885495986898,15.126847813790048 L17.935039450643146,15.200866786986143 L18.01074274353567,15.268135818403874 L18.086812998801054,15.328492851054481 L18.163066956531402,15.381792479559657 " />
			<path d="M1959.5985738091572,-379.5249973664099 L1959.6004457387146,-379.37741845962336 L1959.606057017815,-379.227754620148 L1959.6153941283956,-379.0763664012821 L1959.6284345765391,-378.923618510505 L1959.6451469466638,-378.7698789308647 L1959.6654909772062,-378.6155180344745 L1959.689417657615,-378.46090769025426 L1959.716869346421,-378.3064203680655 L1959.7477799101016,-378.1524282413988 L1959.7820748824015,-377.9993022907755 L1959.8196716437285,-377.84741141002286 L1959.8604796201912,-377.69712151757665 L1959.9044005018004,-377.54879467495164 L1959.9513284793052,-377.40278821450363 L1960.001150499097,-377.25945387858445 L1960.0537465355667,-377.119136972164 L1960.1089898802552,-376.9821755309601 L1960.1667474471067,-376.848899507081 L1960.2268800930833,-376.7196299741419 L1960.2892429533742,-376.5946783537703 L1960.3536857903866,-376.47434566536407 L1960.4200533556816,-376.35892180090957 L1960.4881857639812,-376.24868482660617 L1960.557918878346,-376.1439003129806 L1960.629084705596,-376.0448206951042 L1960.7015118010193,-375.9516846644548 L1960.7750256813997,-375.864716593888 L1960.8494492453603,-375.7841259971032 L1960.9246032000165,-375.71010702390714 L1961.000306492909,-375.6428379924894 L1961.0763767481744,-375.5824809598388 L1961.1526307059048,-375.52918133133363 " />
			<path d="M18.163066956531413,15.381792479559667 L33.50937881902446,25.385403066327985 " />
			<path d="M1961.1526307059048,-375.52918133133363 L1976.498942568398,-365.5255707445653 " />
			<path d="M33.50937881902445,25.38540306632798 L33.590584861639016,25.434262798321974 L33.671569019239946,25.474838933311105 L33.75211001308377,25.50702060225097 L33.8319877753147,25.530719872890657 L33.87160965254475,25.539367462222707 L33.91098405027161,25.545871990036265 L33.95008406753736,25.550229012376906 L33.9888829908434,25.552435552486095 L34.02735431240134,25.552490102834927 L34.065471748243375,25.55039262615409 L34.10320925617975,25.546144555459335 L34.140541053591,25.53974879307241 " />
			<path d="M34.140541053591,25.53974879307241 L34.19127017173932,25.52742555510102 L34.24111477646219,25.511048972682776 L34.290010211972536,25.49064028865493 L34.33789305369542,25.46622597608385 L34.384701190539054,25.437837703925567 L34.430373905462034,25.405512295946465 L34.47485195423226,25.36929168295746 L34.51807764227541,25.329222848423537 L34.55999489951334,25.28535776751932 L34.6005493530952,25.237753339709585 L34.639688397926996,25.186471314942303 L34.677361264908185,25.131578213549872 L34.71351908678665,25.073145239962447 L34.74811496154668,25.011248190345313 L34.781104013247884,24.94596735428013 L34.81244345023576,24.87738741061749 L34.842092620648884,24.805597317636032 L34.87001306515027,24.730690197650432 L34.89616856681484,24.65276321621807 L34.9205251981081,24.571917456100998 L34.94305136489513,24.488257786146733 L34.96371784742282,24.401892725257923 L34.982497838222216,24.31293430162736 L34.99936697688173,24.221497907420936 L35.01430338164619,24.127702149097015 L35.02728767780068,24.03166869355641 L35.038303022802424,23.933522110322503 L35.047335128128026,23.83338970995625 L35.05437227780778,23.731401378915645 L35.05940534362301,23.627689411073867 L35.062427796946736,23.522388336114666 L35.063435717212236,23.415634745027592 " />
			<path d="M1977.1301048029643,-365.3712250178208 L1977.1808339211125,-365.38354825579216 L1977.2306785258354,-365.39992483821044 L1977.2795739613457,-365.42033352223825 L1977.3274568030686,-365.44474783480933 L1977.3742649399123,-365.4731361069677 L1977.4199376548354,-365.5054615149467 L1977.4644157036055,-365.54168212793576 L1977.5076413916486,-365.5817509624697 L1977.5495586488867,-365.6256160433739 L1977.5901131024684,-365.67322047118364 L1977.6292521473003,-365.7245024959509 L1977.6669250142813,-365.77939559734335 L1977.7030828361599,-365.83782857093075 L1977.73767871092,-365.8997256205479 L1977.770667762621,-365.9650064566131 L1977.802007199609,-366.03358640027574 L1977.831656370022,-366.10537649325715 L1977.8595768145235,-366.18028361324275 L1977.885732316188,-366.2582105946751 L1977.9100889474814,-366.3390563547922 L1977.9326151142684,-366.4227160247465 L1977.9532815967962,-366.5090810856353 L1977.9720615875956,-366.59803950926585 L1977.988930726255,-366.68947590347227 L1978.0038671310194,-366.7832716617962 L1978.0168514271738,-366.8793051173368 L1978.0278667721757,-366.9774517005707 L1978.0368988775012,-367.077584100937 L1978.043936027181,-367.1795724319776 L1978.0489690929962,-367.28328439981937 L1978.05199154632,-367.38858547477855 L1978.0529994665856,-367.4953390658656 " />
			<path d="M35.063435717212236,23.415634745027567 L35.063435735800645,-53.57768835445919 " />
			<path d="M1978.0529994665858,-367.49533906586566 L1978.052999485174,-444.4886621653525 " />
			<path d="M35.063435735800645,-53.57768835445918 L35.06038483644944,-53.766489302078924 L35.05124411725825,-53.95852645190003 L35.0360494680516,-54.15304579546191 L35.01486054860921,-54.349283578298675 L34.98776055441978,-54.54646929871999 L34.95485589002494,-54.743828733084015 L34.91627575123585,-54.94058697568409 L34.872171617863,-55.135971481313454 " />
			<path d="M213.9742754773053,140.0399823160408 L213.9742754773053,63.04665920761349 " />
			<path d="M2156.963653112647,-250.87111292152466 L2156.963653112647,-327.864436029952 " />
			<path d="M214.16553905101713,61.73773174214576 L214.12143504083073,61.87561690297635 L214.08285501096353,62.02207748258342 L214.04995044030994,62.17653842473336 L214.02285052389647,62.338393260928825 L214.0016616656163,62.5070064916194 L213.98646706044974,62.681716081398434 L213.97732636781123,62.86183605838909 L213.9742754773053,63.04665920761348 " />
			<path d="M2157.3641833651654,-329.60212569630323 L2157.3176190143986,-329.5287930351129 L2157.273582224295,-329.44982143520656 L2157.2321657424986,-329.36537722182925 L2157.193456797919,-329.27563824631636 L2157.157536917013,-329.1807935115137 L2157.1244817520783,-329.0810427737107 L2157.0943609219194,-328.9765961219261 L2157.0672378652216,-328.86767353543087 L2157.0431697069394,-328.7545044204411 L2157.0222071379844,-328.63732712695634 L2157.0043943084606,-328.51638844676125 L2156.989768734681,-328.39194309364746 L2156.9783612201522,-328.2642531669507 L2156.970195790696,-328.1335875995329 L2156.96528964385,-328.000221591372 L2156.963653112647,-327.864436029952 " />
			<path d="M213.9742754773053,140.0399823160408 L213.97614740747892,140.18756122272612 L213.981758688356,140.33722506186407 L213.99109580186942,140.48861328015718 L214.0041362540949,140.64136117012754 L214.02084862944082,140.79510074872903 L214.04119266633114,140.94946164385087 L214.06511935419908,141.10407198657623 L214.0925710515578,141.25855930704725 L214.1234816248639,141.41255143177744 L214.15777660783883,141.56567738025018 L214.19537338086474,141.71756825864335 L214.2361813700223,141.86785814852686 L214.28010226529128,142.0161849883921 L214.32703025738795,142.16219144589 L214.37685229266896,142.3055257786757 L214.4294483454874,142.44584268178698 L214.48469170734518,142.58280411951395 L214.54244929214485,142.71608013975668 L214.60258195680564,142.8453496689088 L214.66494483647136,142.97030128535195 L214.7293876935026,143.09063396969762 L214.79575527941222,143.20605782996932 L214.86388770887265,143.31629479997773 L214.93362084489362,143.42107930920648 L215.00478669424257,143.52015892259482 L215.077213812155,143.6132949486757 L215.15072771536,143.7002630146046 L215.22515130242573,143.7808536066931 L215.30030528041218,143.85487257514606 L215.37600859680364,143.92214160178514 L215.45207887568017,143.98249862963308 L215.52833285707692,144.03579825332315 " />
			<path d="M2156.963653112647,-250.87111292152468 L2156.965525042821,-250.72353401483937 L2156.971136323698,-250.57387017570142 L2156.980473437211,-250.4224819574083 L2156.9935138894366,-250.26973406743795 L2157.0102262647824,-250.11599448883646 L2157.030570301673,-249.96163359371462 L2157.054496989541,-249.80702325098926 L2157.0819486868995,-249.65253593051824 L2157.112859260206,-249.49854380578805 L2157.1471542431805,-249.3454178573153 L2157.1847510162065,-249.19352697892214 L2157.225559005364,-249.04323708903863 L2157.269479900633,-248.8949102491734 L2157.31640789273,-248.7489037916755 L2157.366229928011,-248.6055694588898 L2157.4188259808293,-248.4652525557785 L2157.474069342687,-248.32829111805154 L2157.5318269274867,-248.1950150978088 L2157.5919595921473,-248.0657455686567 L2157.654322471813,-247.94079395221354 L2157.7187653288443,-247.82046126786787 L2157.785132914754,-247.70503740759617 L2157.8532653442144,-247.59480043758776 L2157.9229984802355,-247.490015928359 L2157.9941643295842,-247.39093631497067 L2158.0665914474966,-247.2978002888898 L2158.140105350702,-247.2108322229609 L2158.2145289377677,-247.13024163087238 L2158.289682915754,-247.05622266241943 L2158.3653862321453,-246.98895363578035 L2158.441456511022,-246.9285966079324 L2158.5177104924187,-246.87529698424234 " />
			<path d="M215.52833285707695,144.03579825332315 L230.8746494823217,154.0394078709561 " />
			<path d="M2158.5177104924187,-246.87529698424234 L2173.8640271176637,-236.8716873666094 " />
			<path d="M230.8746494823217,154.0394078709561 L230.95585555696687,154.08826760158715 L231.03683974647157,154.12884373382192 L231.1173807719679,154.16102539860486 L231.19725856547657,154.18472466368164 L231.2368804581667,154.19337224970602 L231.27625487121426,154.19987677386263 L231.31535490364632,154.20423379219878 L231.35415384194943,154.2064403279582 L231.39262517832046,154.20649487361467 L231.43074262877712,154.20439739190212 L231.46848015111524,154.20014931583995 L231.5058119627012,154.19375354775406 " />
			<path d="M231.5058119627012,154.19375354775406 L231.5565410942136,154.18143030304182 L231.6063857120175,154.16505371420342 L231.65528116031274,154.1446450240831 L231.70316401451169,154.12023070575353 L231.74997216351017,154.09184242817625 L231.79564489025472,154.05951701512245 L231.84012295050152,154.02329639740708 L231.8833486496649,153.98322755849833 L231.9252659176557,153.9393624735734 L231.96582038161247,153.89175804209873 L232.00495943643094,153.84047601402335 L232.04263231300072,153.78558290967982 L232.07879014406024,153.7271499334978 L232.11338602758477,153.66525288164132 L232.14637508762524,153.59997204369003 L232.177714532519,153.53139209849178 L232.2073637103968,153.45960200432182 L232.23528416191436,153.38469488349062 L232.26143967013974,153.30676790155076 L232.28579630753194,153.22592214125874 L232.30832247995008,153.14226247145595 L232.32898896763555,153.05589741103816 L232.34776896311433,152.96693898819075 L232.36463810597024,152.87550259507154 L232.37957451444404,152.78170683813022 L232.39255881381715,152.6856733842584 L232.40357416154365,152.58752680296965 L232.4126062690975,152.48739440481467 L232.4196434205068,152.38540607624066 L232.42467648755118,152.28169411110946 L232.4276989416025,152.17639303909314 L232.42870686209332,152.06963945116905 " />
			<path d="M2174.495189598043,-236.71734168981143 L2174.5459187295555,-236.72966493452367 L2174.5957633473595,-236.74604152336207 L2174.644658795655,-236.7664502134824 L2174.692541649854,-236.79086453181196 L2174.7393497988523,-236.81925280938924 L2174.7850225255966,-236.85157822244304 L2174.8295005858436,-236.88779884015844 L2174.872726285007,-236.92786767906716 L2174.914643552998,-236.9717327639921 L2174.9551980169545,-237.01933719546676 L2174.994337071773,-237.07061922354214 L2175.032009948343,-237.12551232788567 L2175.0681677794023,-237.1839453040677 L2175.102763662927,-237.24584235592417 L2175.135752722967,-237.31112319387546 L2175.167092167861,-237.3797031390737 L2175.1967413457387,-237.45149323324367 L2175.2246617972564,-237.52640035407487 L2175.2508173054816,-237.60432733601473 L2175.275173942874,-237.68517309630676 L2175.297700115292,-237.76883276610954 L2175.3183666029777,-237.85519782652733 L2175.3371465984565,-237.94415624937474 L2175.354015741312,-238.03559264249395 L2175.368952149786,-238.12938839943527 L2175.381936449159,-238.2254218533071 L2175.3929517968854,-238.32356843459584 L2175.4019839044395,-238.42370083275082 L2175.409021055849,-238.52568916132483 L2175.414054122893,-238.62940112645603 L2175.4170765769445,-238.73470219847235 L2175.4180844974353,-238.84145578639644 " />
			<path d="M232.42870686209332,152.06963945116902 L232.42870686209332,75.0763163427417 " />
			<path d="M2175.4180844974353,-238.84145578639644 L2175.4180844974353,-315.8347788948238 " />
			<path d="M232.42870686209332,75.0763163427417 L232.4256559715874,74.88751570258542 L232.41651527894888,74.69547886984058 L232.40132067378232,74.50095984929166 L232.38013181550215,74.30472239167364 L232.3530318990887,74.10753699491555 L232.3201273284351,73.91017787889203 L232.2815472985679,73.71341994556124 L232.23744328838148,73.51803573642468 " />
			<path d="M411.3395627083014,268.693999676991 L411.3395627083014,191.70067656856364 " />
			<path d="M2354.3289403436434,-122.21709556057453 L2354.3289403436434,-199.21041866900185 " />
			<path d="M411.5308262820133,190.39174910309592 L411.4867222718269,190.5296342639265 L411.4481422419597,190.6760948435336 L411.4152376713061,190.83055578568354 L411.3881377548926,190.992410621879 L411.3669488966125,191.1610238525696 L411.3517542914459,191.3357334423486 L411.34261359880736,191.5158534193393 L411.33956270830146,191.7006765685637 " />
			<path d="M2354.7294705961617,-200.948108335353 L2354.682906245395,-200.87477567416272 L2354.638869455291,-200.79580407425632 L2354.597452973495,-200.71135986087899 L2354.5587440289155,-200.62162088536616 L2354.5228241480095,-200.52677615056345 L2354.4897689830746,-200.42702541276049 L2354.4596481529156,-200.3225787609759 L2354.432525096218,-200.21365617448066 L2354.4084569379356,-200.10048705949086 L2354.3874943689807,-199.9833097660061 L2354.369681539457,-199.86237108581102 L2354.3550559656774,-199.73792573269722 L2354.3436484511485,-199.61023580600047 L2354.335483021692,-199.4795702385827 L2354.3305768748464,-199.34620423042176 L2354.3289403436434,-199.2104186690018 " />
			<path d="M411.33956270830146,268.693999676991 L411.34143463847505,268.8415785836763 L411.3470459193521,268.99124242281425 L411.35638303286555,269.14263064110736 L411.36942348509103,269.2953785310777 L411.386135860437,269.4491181096792 L411.4064798973273,269.60347900480104 L411.4304065851952,269.7580893475264 L411.45785828255396,269.9125766679974 L411.48876885586003,270.0665687927276 L411.523063838835,270.2196947412003 L411.5606606118609,270.37158561959353 L411.60146860101844,270.521875509477 L411.6453894962874,270.6702023493423 L411.6923174883841,270.81620880684017 L411.7421395236651,270.9595431396259 L411.79473557648356,271.0998600427372 L411.84997893834134,271.23682148046413 L411.907736523141,271.37009750070683 L411.9678691878018,271.499367029859 L412.0302320674675,271.62431864630213 L412.09467492449875,271.7446513306478 L412.1610425104084,271.8600751909195 L412.2291749398688,271.9703121609279 L412.29890807588976,272.07509667015665 L412.3700739252387,272.17417628354497 L412.44250104315114,272.2673123096259 L412.51601494635617,272.35428037555477 L412.5904385334219,272.4348709676433 L412.6655925114083,272.50888993609624 L412.74129582779983,272.5761589627353 L412.81736610667633,272.63651599058323 L412.8936200880731,272.68981561427336 " />
			<path d="M2354.3289403436434,-122.21709556057448 L2354.330812273817,-122.06951665388915 L2354.336423554694,-121.9198528147512 L2354.3457606682073,-121.7684645964581 L2354.358801120433,-121.61571670648776 L2354.3755134957787,-121.46197712788624 L2354.395857532669,-121.30761623276443 L2354.419784220537,-121.15300589003905 L2354.447235917896,-120.99851856956803 L2354.478146491202,-120.84452644483785 L2354.5124414741767,-120.6914004963651 L2354.550038247203,-120.53950961797193 L2354.5908462363604,-120.38921972808843 L2354.6347671316294,-120.24089288822317 L2354.681695123726,-120.09488643072531 L2354.731517159007,-119.95155209793958 L2354.7841132118256,-119.81123519482828 L2354.8393565736833,-119.67427375710133 L2354.897114158483,-119.54099773685861 L2354.9572468231436,-119.41172820770647 L2355.0196097028092,-119.28677659126333 L2355.0840525598405,-119.16644390691768 L2355.15042014575,-119.05102004664596 L2355.2185525752107,-118.94078307663756 L2355.2882857112318,-118.8359985674088 L2355.3594515605805,-118.73691895402048 L2355.431878678493,-118.64378292793958 L2355.5053925816983,-118.55681486201071 L2355.579816168764,-118.47622426992217 L2355.65497014675,-118.40220530146922 L2355.7306734631416,-118.33493627483016 L2355.806743742018,-118.27457924698221 L2355.882997723415,-118.22127962329213 " />
			<path d="M412.893620088073,272.6898156142733 L428.2399367133178,282.69342523190625 " />
			<path d="M2355.882997723415,-118.22127962329216 L2371.22931434866,-108.21767000565922 " />
			<path d="M428.2399367133178,282.69342523190625 L428.3211427879629,282.74228496253727 L428.4021269774676,282.78286109477204 L428.482668002964,282.81504275955496 L428.56254579647265,282.83874202463176 L428.6021676891628,282.84738961065614 L428.64154210221034,282.8538941348127 L428.68064213464237,282.8582511531489 L428.7194410729455,282.8604576889083 L428.75791240931653,282.8605122345648 L428.79602985977317,282.85841475285224 L428.8337673821113,282.85416667679004 L428.87109919369726,282.84777090870415 " />
			<path d="M428.87109919369726,282.84777090870415 L428.9218283252097,282.83544766399194 L428.9716729430136,282.81907107515354 L429.0205683913088,282.7986623850332 L429.06845124550773,282.77424806670365 L429.11525939450627,282.74585978912637 L429.1609321212508,282.7135343760726 L429.2054101814976,282.6773137583572 L429.24863588066097,282.63724491944845 L429.2905531486518,282.5933798345235 L429.33110761260855,282.5457754030489 L429.370246667427,282.49449337497344 L429.4079195439968,282.4396002706299 L429.4440773750563,282.3811672944479 L429.47867325858084,282.3192702425914 L429.5116623186213,282.25398940464015 L429.54300176351506,282.1854094594419 L429.5726509413929,282.1136193652719 L429.60057139291047,282.0387122444407 L429.6267269011358,281.96078526250085 L429.651083538528,281.87993950220886 L429.67360971094615,281.79627983240607 L429.6942761986316,281.7099147719883 L429.7130561941104,281.6209563491409 L429.72992533696635,281.52951995602166 L429.7448617454401,281.4357241990803 L429.7578460448132,281.3396907452085 L429.76886139253975,281.2415441639198 L429.77789350009357,281.1414117657648 L429.78493065150286,281.03942343719075 L429.78996371854726,280.93571147205955 L429.7929861725986,280.83041040004326 L429.7939940930894,280.7236568121192 " />
			<path d="M2372.7832677276137,-110.15299855375443 L2372.783371728431,-110.18743842544629 " />
			<path d="M429.79399409308945,280.7236568121192 L429.79399409308945,203.73033370369185 " />
			<path d="M429.7939940930894,203.73033370369185 L429.7909432025835,203.54153306353555 L429.78180250994495,203.34949623079072 L429.76660790477837,203.15497721024178 L429.7454190464982,202.95873975262376 L429.71831913008475,202.76155435586566 L429.68541455943114,202.56419523984212 L429.64683452956393,202.36743730651133 L429.60273051937753,202.17205309737474 " />
			<path d="M608.7048499392973,397.34801703794096 L608.7048499392973,320.3546939295137 " />
			<path d="M2551.694227574639,6.436921800375529 L2551.694227574639,-70.55640130805179 " />
			<path d="M608.8961135130093,319.04576646404615 L608.8520095028229,319.1836516248767 L608.8134294729557,319.3301122044838 L608.7805249023021,319.4845731466337 L608.7534249858886,319.64642798282915 L608.7322361276084,319.8150412135197 L608.7170415224418,319.98975080329876 L608.7079008298034,320.1698707802894 L608.7048499392974,320.35469392951376 " />
			<path d="M2552.094757827158,-72.29409097440303 L2552.048193476391,-72.22075831321277 L2552.0041566862874,-72.14178671330636 L2551.962740204491,-72.05734249992905 L2551.9240312599118,-71.96760352441619 L2551.8881113790057,-71.8727587896135 L2551.855056214071,-71.7730080518105 L2551.824935383912,-71.66856140002591 L2551.797812327214,-71.55963881353068 L2551.773744168932,-71.44646969854087 L2551.752781599977,-71.3292924050561 L2551.734968770453,-71.208353724861 L2551.7203431966736,-71.0839083717472 L2551.708935682145,-70.95621844505044 L2551.7007702526885,-70.82555287763265 L2551.6958641058427,-70.6921868694717 L2551.6942275746396,-70.55640130805172 " />
			<path d="M608.7048499392974,397.3480170379411 L608.706721869471,397.4955959446264 L608.7123331503482,397.64525978376435 L608.7216702638616,397.79664800205745 L608.7347107160871,397.9493958920278 L608.751423091433,398.1031354706293 L608.7717671283233,398.25749636575114 L608.7956938161913,398.4121067084765 L608.8231455135499,398.5665940289475 L608.8540560868561,398.7205861536777 L608.888351069831,398.8737121021504 L608.9259478428569,399.0256029805436 L608.9667558320144,399.1758928704271 L609.0106767272835,399.32421971029237 L609.0576047193802,399.47022616779026 L609.1074267546611,399.613560500576 L609.1600228074795,399.7538774036873 L609.2152661693374,399.8908388414142 L609.273023754137,400.0241148616569 L609.3331564187978,400.1533843908091 L609.3955192984636,400.2783360072522 L609.4599621554947,400.3986686915979 L609.5263297414043,400.51409255186957 L609.5944621708647,400.624329521878 L609.6641953068857,400.72911403110675 L609.7353611562347,400.82819364449506 L609.8077882741471,400.921329670576 L609.8813021773522,401.00829773650486 L609.9557257644179,401.0888883285934 L610.0308797424043,401.16290729704633 L610.1065830587958,401.2301763236854 L610.1826533376723,401.2905333515333 L610.2589073190691,401.34383297522345 " />
			<path d="M2551.6942275746396,6.436921800375611 L2551.6960995048134,6.5845007070609345 L2551.7017107856905,6.734164546198892 L2551.7110478992035,6.885552764491997 L2551.724088351429,7.038300654462339 L2551.740800726775,7.192040233063844 L2551.7611447636655,7.346401128185664 L2551.7850714515334,7.501011470911035 L2551.812523148892,7.655498791382063 L2551.8434337221984,7.809490916112243 L2551.877728705173,7.962616864584983 L2551.915325478199,8.114507742978162 L2551.9561334673567,8.264797632861661 L2552.0000543626256,8.413124472726913 L2552.0469823547223,8.559130930224786 L2552.0968043900034,8.70246526301051 L2552.149400442822,8.842782166121802 L2552.2046438046796,8.979743603848755 L2552.2624013894792,9.11301962409148 L2552.32253405414,9.242289153243615 L2552.3848969338055,9.367240769686756 L2552.449339790837,9.487573454032422 L2552.5157073767464,9.602997314304126 L2552.583839806207,9.71323428431254 L2552.653572942228,9.818018793541293 L2552.724738791577,9.917098406929616 L2552.797165909489,10.010234433010506 L2552.8706798126946,10.097202498939382 L2552.9451033997602,10.177793091027919 L2553.0202573777465,10.25181205948087 L2553.095960694138,10.31908108611994 L2553.1720309730144,10.379438113967886 L2553.2482849544112,10.43273773765796 " />
			<path d="M610.2589073190691,401.34383297522334 L625.6052239443138,411.3474425928563 " />
			<path d="M2553.248284954411,10.432737737657877 L2568.594601579656,20.436347355290817 " />
			<path d="M625.6052239443137,411.34744259285634 L625.6864300189588,411.39630232348736 L625.7674142084636,411.43687845572214 L625.84795523396,411.46906012050505 L625.9278330274686,411.49275938558185 L625.9674549201587,411.50140697160623 L626.0068293332063,411.5079114957628 L626.0459293656384,411.512268514099 L626.0847283039415,411.5144750498584 L626.1231996403125,411.5145295955149 L626.1613170907691,411.51243211380233 L626.1990546131073,411.50818403774014 L626.2363864246931,411.50178826965424 " />
			<path d="M626.2363864246931,411.50178826965424 L626.2871155562057,411.48946502494204 L626.3369601740095,411.47308843610364 L626.3858556223047,411.4526797459833 L626.4337384765037,411.42826542765374 L626.4805466255021,411.39987715007646 L626.5262193522467,411.36755173702267 L626.5706974124935,411.33133111930726 L626.613923111657,411.29126228039854 L626.6558403796478,411.2473971954736 L626.6963948436045,411.19979276399897 L626.7355338984229,411.14851073592354 L626.7732067749927,411.09361763158 L626.8093646060522,411.035184655398 L626.8439604895767,410.9732876035415 L626.8769495496173,410.90800676559024 L626.908288994511,410.839426820392 L626.9379381723888,410.767636726222 L626.9658586239063,410.6927296053908 L626.9920141321318,410.61480262345094 L627.016370769524,410.53395686315895 L627.0388969419421,410.45029719335616 L627.0595634296276,410.3639321329384 L627.0783434251064,410.274973710091 L627.0952125679622,410.18353731697175 L627.110148976436,410.0897415600304 L627.1231332758092,409.9937081061586 L627.1341486235357,409.8955615248699 L627.1431807310895,409.7954291267149 L627.1502178824989,409.69344079814084 L627.1552509495432,409.58972883300964 L627.1582734035945,409.48442776099336 L627.1592813240853,409.3776741730693 " />
			<path d="M627.1592813240854,409.3776741730692 L627.1592813240854,332.3843510646419 " />
			<path d="M627.1592813240853,332.3843510646419 L627.1562304335794,332.19555042448565 L627.1470897409409,332.00351359174084 L627.1318951357744,331.80899457119193 L627.1107062774942,331.61275711357393 L627.0836063610807,331.41557171681586 L627.0507017904271,331.21821260079236 L627.0121217605599,331.02145466746157 L626.9680177503735,330.82607045832503 " />
			<path d="M812.286316917036,530.0540991152998 L812.2863169154102,453.0607760058127 " />
			<path d="M2755.2755302842297,139.14289679834968 L2755.2755302826035,62.14957368886262 " />
			<path d="M812.4775811357716,451.75184683598087 L812.4334769787793,451.88973211263755 L812.394896819342,452.03619284118 L812.3619921373435,452.19065396296537 L812.3348921286574,452.3525090068666 L812.313703197877,452.52112247050155 L812.298508540531,452.6958323154482 L812.289367816428,452.8759525666514 L812.2863169154101,453.0607760058126 " />
			<path d="M2755.676060579527,60.41188409659539 L2755.629496223261,60.48521676166368 L2755.5854594280404,60.564188364140946 L2755.544042941506,60.64863257880491 L2755.505333992562,60.738371554347836 L2755.4694141076598,60.833216287956226 L2755.4363589390928,60.932967023377145 L2755.4062381056615,61.03741367163276 L2755.3791150460474,61.146336253497104 L2755.3550468852013,61.25950536280298 L2755.3340843140313,61.37668264960347 L2755.316271482639,61.4976213221701 L2755.3016459073347,61.62206666677078 L2755.290238391622,61.74975658413245 L2755.2820729613227,61.88042214145872 L2755.2771668139726,62.01378813883995 L2755.2755302826035,62.149573688862645 " />
			<path d="M812.286316917036,530.0540991152998 L812.2881888477255,530.2016780218838 L812.2938001301427,530.351341860714 L812.3031372462168,530.5027300784939 L812.3161777020174,530.6554779677465 L812.3328900819442,530.8092175454276 L812.3532341244103,530.9635784394286 L812.3771608188351,531.1181887808355 L812.4046125237164,531.2726760997933 L812.4355231054925,531.4266682228194 L812.4698180978644,531.5797941694013 L812.5074148811915,531.7316850457213 L812.5482228815299,531.8819749333544 L812.5921437888323,532.0303017707975 L812.6390717937861,532.176308225707 L812.6888938427169,532.3196425557446 L812.7414899099448,532.4599594559547 L812.7967332869371,532.5969208906342 L812.8544908875599,532.7301969076907 L812.9146235686943,532.8594664335254 L812.9769864654444,532.984418046528 L813.0414293401296,533.1047507273183 L813.1077969442204,533.2201745839283 L813.1759293923452,533.3304115501775 L813.2456625474689,533.4351960555585 L813.3168284163129,533.5342756650201 L813.3892555540657,533.6274116871044 L813.4627694774086,533.7143797489767 L813.5371930848613,533.7949703369584 L813.6123470834347,533.8689893012642 L813.6880504205634,533.9362583237255 L813.7641207202776,533.9966153473754 L813.840374722562,534.0499149668572 " />
			<path d="M2755.2755302842293,139.1428967983496 L2755.2774022149188,139.2904757049336 L2755.2830134973356,139.4401395437639 L2755.29235061341,139.59152776154372 L2755.3053910692106,139.74427565079637 L2755.3221034491376,139.8980152284775 L2755.3424474916033,140.0523761224785 L2755.366374186028,140.2069864638853 L2755.3938258909097,140.3614737828432 L2755.4247364726857,140.51546590586932 L2755.4590314650573,140.66859185245116 L2755.4966282483847,140.8204827287712 L2755.537436248723,140.97077261640428 L2755.5813571560257,141.11909945384724 L2755.6282851609794,141.26510590875682 L2755.6781072099097,141.40844023879447 L2755.7307032771378,141.54875713900452 L2755.7859466541304,141.68571857368408 L2755.843704254753,141.81899459074057 L2755.9038369358873,141.9482641165753 L2755.9661998326374,142.0732157295779 L2756.030642707323,142.19354841036815 L2756.097010311413,142.30897226697812 L2756.1651427595384,142.41920923322732 L2756.234875914662,142.52399373860843 L2756.306041783506,142.62307334806994 L2756.378468921259,142.71620937015433 L2756.451982844602,142.80317743202662 L2756.5264064520543,142.8837680200083 L2756.601560450628,142.95778698431394 L2756.6772637877566,143.02505600677532 L2756.7533340874706,143.0854130304252 L2756.829588089755,143.138712649907 " />
			<path d="M813.840374722562,534.0499149668572 L829.1866955515097,544.0535237375509 " />
			<path d="M2756.8295880897554,143.13871264990703 L2772.175908918703,153.14232142060072 " />
			<path d="M829.1866955515097,544.053523737551 L829.267901654478,544.1023834670525 L829.3488858721951,544.1429595969197 L829.4294269256827,544.1751412580867 L829.5093047468522,544.1988405182962 L829.5489266532148,544.2074881014183 L829.5883010798119,544.2139926223617 L829.627401125657,544.2183496371754 L829.6662000772236,544.2205561691046 L829.7046714266955,544.2206107106259 L829.7427888900776,544.2185132244758 L829.7805264251529,544.214265143677 L829.8178582492751,544.2078693705593 " />
			<path d="M829.8178582492751,544.2078693705593 L829.8685873925739,544.1955461199027 L829.9184320219148,544.1791695254049 L829.9673274814863,544.1587608299161 L830.0152103466897,544.1343465065147 L830.0620185064098,544.1059582241669 L830.1076912435826,544.0736328066482 L830.152169313954,544.0374121847772 L830.1953950229282,543.9973433420246 L830.2373123004065,543.9534782535699 L830.2778667735181,543.9058738188811 L830.3170058371495,543.854591787908 L830.3546787221819,543.7996986809833 L830.3908365613454,543.7412657025362 L830.4254324526071,543.6793686487293 L830.4584215200106,543.6140878091408 L830.4897609718857,543.5455078626158 L830.5194101563566,543.4737177674264 L830.5473306140724,543.3988106458795 L830.573486128095,543.3208836635232 L830.5978427708781,543.2400379031092 L830.6203689482752,543.1563782334731 L830.6410354405228,543.0700131735048 L830.6598154401427,542.9810547513828 L830.6766845867145,542.8896183592578 L830.6916209984753,542.7958226035719 L830.7046053007033,542.6997891512082 L830.7156206508499,542.6016425716717 L830.7246527603867,542.5015101755039 L830.7316899133398,542.3995218491423 L830.7367229814872,542.2958098864387 L830.7397454362,542.1905088170547 L830.7407533569099,542.083755231957 " />
			<path d="M2773.7271709786737,151.34956766695285 L2662.110825379753,78.95500202542178 " />
			<path d="M2570.085486691233,19.267199252253533 L2457.749594549144,-53.594065591549736 " />
			<path d="M2372.5771467384734,-108.83707082338475 L2259.628203166066,-182.09596194473406 " />
			<path d="M2174.952912489158,-237.01651015146942 L2061.506811782988,-310.59785829791844 " />
			<path d="M1977.0754085614992,-365.36022065556705 L1959.7867824260195,-376.57365514762927 " />
			<path d="M129.27311812429255,6.399981376058776 L34.14054105359101,25.539748793072413 " />
			<path d="M326.63837760923184,135.0539806505373 L231.5058119627012,154.19375354775403 " />
			<path d="M524.0036648402279,263.7079980114875 L428.8710991936973,282.8477709087042 " />
			<path d="M721.3689520712239,392.3620153724375 L626.2363864246933,411.50178826965424 " />
			<path d="M830.7407980741683,544.0221825359987 L829.8178582492751,544.2078693705591 " />

       </g>

       <!-- solid lines -->
       <g  stroke="rgb(0,0,0)" fill="none">
			<path d="M830.7407980741683,589.6220369144071 L830.7407980741683,465.0904634605827 " />
			<path d="M13.811684962720298,-68.02735935478935 L13.929615941173505,-68.04843401830108 L14.04733721997993,-68.0641673387321 L14.16463947237142,-68.07453133978832 L14.281314116674048,-68.07950759266171 L14.39715368719882,-68.07908724879967 L14.511952203147974,-68.07327105563903 L14.625505534880926,-68.06206935527706 L14.737611766888548,-68.04550206608161 L14.848071556830414,-68.02359864727316 L14.956688489996509,-67.99639804654166 L15.06326942856318,-67.96394863079156 L15.167624855022266,-67.92630810013789 L15.269569209172747,-67.88354338530644 L15.36892121807568,-67.83573052862054 L15.46550421838571,-67.782954548786 L15.559146470486006,-67.7253092897145 " />
			<path d="M827.9434947905794,462.6704622591301 L828.0614257690326,462.6493875956184 L828.179147047839,462.6336542751874 L828.2964493002305,462.62329027413114 L828.4131239445331,462.61831402125773 L828.528963515058,462.6187343651198 L828.6437620310071,462.6245505582805 L828.75731536274,462.6357522586424 L828.8694215947477,462.65231954783786 L828.9798813846895,462.6742229666463 L829.0884983178556,462.7014235673778 L829.1950792564222,462.7338729831279 L829.2994346828814,462.7715135137816 L829.4013790370318,462.81427822861303 L829.5007310459348,462.8620910852989 L829.5973140462448,462.9148670651335 L829.6909562983451,462.97251232420496 " />
			<path d="M829.6909562983451,462.972512324205 L829.7514281939523,463.0134288388053 L829.8104825871607,463.05641509729753 L829.8680731766277,463.1014373964909 L829.9241548086997,463.14846043684554 L829.9786835128144,463.1974473501492 L830.0316165359764,463.24835972842357 L830.0829123762767,463.3011576540376 L830.1325308154327,463.35579973100516 L830.1804329503209,463.41224311744105 L830.2265812234787,463.47044355915136 L830.2709394525513,463.53035542433025 L830.3134728586601,463.591931739338 L830.3541480936714,463.6551242255299 L830.3929332663422,463.71988333710937 L830.429797967325,463.78615829997386 L830.4647132930099,463.8538971515241 L830.4976518681859,463.9230467814054 L830.528587867505,463.9935529731481 L830.5574970357304,464.06536044667627 L830.5843567067532,464.1384129016496 L830.6091458213638,464.2126530616053 L830.6318449437638,464.2880227188657 L830.652436276804,464.36446278017564 L830.6709036759385,464.4419133130342 L830.6872326618824,464.5203135926847 L830.7014104319646,464.59960214972557 L830.7134258701658,464.67971681830505 L830.723269555833,464.7605947848623 L830.7309337710672,464.8421726373759 L830.7364125067733,464.924386415082 L830.7397014673721,465.00717165862216 L830.7407980741683,465.0904634605828 " />
			<path d="M830.7407980741683,589.6220369144071 L830.7374285998558,589.769073495989 L830.7273282942771,589.9171116663256 L830.710521489953,590.0657947884976 L830.687048675947,590.2147646718408 L830.6569664003243,590.363662434858 L830.6203471339218,590.5121293697963 L830.5772790957595,590.659807806805 L830.5278660405138,590.8063419755945 L830.4722270085629,590.951378862517 L830.4104960392079,591.0945690610085 L830.3428218477613,591.2355676133386 L830.2693674672777,591.374034841645 L830.1903098557935,591.5096371662461 L830.1058394700195,591.6420479092648 L830.0161598065138,591.7709480816233 L829.9214869114405,591.8960271515159 L829.8220488600965,592.0169837925079 L829.7180852074571,592.1335266094563 L829.6098464110677,592.2453748405075 L829.4975932276694,592.3522590334757 L829.3815960850131,592.4539216949784 L829.2621344303759,592.5501179107592 L829.1394960573471,592.6406159357089 L829.0139764125094,592.7251977521582 L828.8858778836812,592.8036595951032 L828.7555090714388,592.8758124430916 L828.6231840456699,592.9414824735927 L828.4892215889515,593.0005114817511 L828.3539444285759,593.0527572615159 L828.2176784590713,593.0980939482273 L828.0807519570935,593.136412321836 L827.9434947905794,593.1676200700239 " />
			<path d="M827.9434947905793,593.1676200700239 L800.3201248651387,598.7251809687087 " />
			<path d="M-15.559146470486024,67.72530928971449 L-15.619618366093196,67.68439277511418 L-15.678672759301618,67.64140651662193 L-15.736263348768619,67.59638421742858 L-15.792344980840552,67.54936117707392 L-15.846873684955316,67.50037426377023 L-15.89980670811729,67.44946188549591 L-15.951102548417621,67.39666395988188 L-16.000720987573644,67.34202188291434 L-16.048623122461823,67.28557849647841 L-16.0947713956196,67.22737805476814 L-16.13912962469215,67.1674661895892 L-16.181663030801,67.10588987458148 L-16.222338265812276,67.04269738838957 L-16.26112343848314,66.9779382768101 L-16.29798813946599,66.91166331394562 L-16.332903465150785,66.84392446239534 L-16.365842040326797,66.7747748325141 L-16.396778039646005,66.70426864077139 L-16.42568720787138,66.63246116724319 L-16.452546878894076,66.5594087122699 L-16.4773359935047,66.4851685523142 L-16.500035115904705,66.4097988950538 L-16.520626448944927,66.33335883374386 L-16.53909384807938,66.25590830088525 L-16.555422834023297,66.17750802123473 L-16.56960060410558,66.0982194641939 L-16.581616042306656,66.01810479561443 L-16.59145972797394,65.93722682905721 L-16.59912394320809,65.85564897654358 L-16.604602678914155,65.7734351988375 L-16.607891639512992,65.6906499552973 L-16.60898824630922,65.60735815333669 " />
			<path d="M800.3201248651387,598.7251809687089 L800.2021938866856,598.7462556322206 L800.0844726078791,598.7619889526516 L799.9671703554876,598.7723529537078 L799.850495711185,598.7773292065812 L799.7346561406601,598.7769088627191 L799.619857624711,598.7710926695585 L799.5063042929781,598.7598909691965 L799.3941980609704,598.7433236800011 L799.2837382710286,598.7214202611926 L799.1751213378625,598.6942196604612 L799.0685403992959,598.6617702447111 L798.9641849728367,598.6241297140574 L798.8622406186863,598.5813649992259 L798.7628886097833,598.53355214254 L798.6663056094733,598.4807761627054 L798.572663357373,598.4231309036339 " />
			<path d="M798.572663357373,598.4231309036339 L798.5121914617658,598.3822143890336 L798.4531370685575,598.3392281305414 L798.3955464790904,598.2942058313481 L798.3394648470185,598.2471827909934 L798.2849361429037,598.1981958776897 L798.2320031197418,598.1472834994154 L798.1807072794414,598.0944855738013 L798.1310888402854,598.0398434968338 L798.0831867053972,597.9834001103978 L798.0370384322395,597.9251996686876 L797.9926802031669,597.8652878035086 L797.950146797058,597.803711488501 L797.9094715620467,597.740519002309 L797.8706863893759,597.6757598907295 L797.8338216883931,597.6094849278651 L797.7989063627082,597.5417460763148 L797.7659677875322,597.4725964464336 L797.7350317882131,597.4020902546908 L797.7061226199877,597.3302827811626 L797.679262948965,597.2572303261894 L797.6544738343543,597.1829901662337 L797.6317747119543,597.1076205089732 L797.6111833789141,597.0311804476634 L797.5927159797797,596.9537299148047 L797.5763869938357,596.8753296351542 L797.5622092237535,596.7960410781134 L797.5501937855523,596.715926409534 L797.5403500998851,596.6350484429767 L797.532685884651,596.553470590463 L797.5272071489449,596.471256812757 L797.523918188346,596.3884715692168 L797.5228215815498,596.3051797672562 " />
			<path d="M-16.60898824630922,65.60735815333668 L-16.60898824630922,-58.92421530048766 " />
			<path d="M797.5228215815498,596.3051797672562 L797.5228215815498,471.7736063134318 " />
			<path d="M-16.60898824630922,-58.92421530048766 L-16.60561877199672,-59.0712518820696 L-16.59551846641798,-59.21929005240609 L-16.57871166209381,-59.36797317457816 L-16.555238848087935,-59.51694305792141 L-16.52515657246527,-59.66584082093865 L-16.48853730606269,-59.81430775587684 L-16.44546926790042,-59.961986192885576 L-16.396056212654717,-60.108520361674984 L-16.34041718070373,-60.25355724859758 L-16.278686211348845,-60.396747447089034 L-16.21101201990222,-60.5377459994192 L-16.137557639418617,-60.676213227725505 L-16.058500027934457,-60.81181555232665 L-15.974029642160444,-60.944226295345324 L-15.884349978654633,-61.07312646770377 L-15.78967708358142,-61.19820553759648 L-15.690239032237406,-61.31916217858842 L-15.586275379598023,-61.4357049955369 L-15.478036583208617,-61.54755322658795 L-15.365783399810294,-61.65443741955622 L-15.249786257154073,-61.7561000810589 L-15.130324602516763,-61.852296296839825 L-15.007686229487994,-61.94279432178939 L-14.882166584650244,-62.02737613823881 L-14.754068055822147,-62.105837981183754 L-14.623699243579757,-62.177990829172124 L-14.491374217810728,-62.24366085967327 L-14.357411761092434,-62.30268986783172 L-14.22213460071684,-62.354935647596456 L-14.085868631212174,-62.400272334307864 L-13.948942129234457,-62.43859070791662 L-13.811684962720323,-62.46979845610439 " />
			<path d="M797.5228215815498,471.7736063134318 L797.5261910558623,471.6265697318498 L797.536291361441,471.47853156151336 L797.5530981657652,471.3298484393413 L797.5765709797711,471.18087855599805 L797.6066532553938,471.0319807929808 L797.6432725217963,470.8835138580426 L797.6863405599586,470.73583542103387 L797.7357536152043,470.58930125224447 L797.7913926471552,470.4442643653218 L797.8531236165102,470.3010741668304 L797.9207978079568,470.1600756145002 L797.9942521884404,470.0216083861939 L798.0733097999246,469.8860060615928 L798.1577801856986,469.7535953185741 L798.2474598492043,469.6246951462157 L798.3421327442776,469.499616076323 L798.4415707956216,469.37865943533103 L798.545534448261,469.26211661838255 L798.6537732446504,469.1502683873315 L798.7660264280487,469.0433841943632 L798.882023570705,468.9417215328605 L799.0014852253422,468.8455253170796 L799.124123598371,468.75502729213 L799.2496432432088,468.67044547568065 L799.3777417720369,468.59198363273566 L799.5081105842793,468.51983078474734 L799.6404356100483,468.4541607542462 L799.7743980667666,468.3951317460877 L799.9096752271422,468.34288596632297 L800.0459411966468,468.2975492796116 L800.1828676986246,468.2592309060028 L800.3201248651387,468.228023157815 " />
			<path d="M13.811684962720298,-68.02735935478937 L-13.811684962720298,-62.46979845610441 " />
			<path d="M827.9434947905793,462.67046225913003 L800.3201248651387,468.228023157815 " />
			<path d="M2807.5454623213163,143.75563488393558 L2807.813802255683,66.67844792922531 " />
			<path d="M1989.4144798760701,-464.765090701394 L1989.5312735834593,-464.7855138082073 L1989.647845183575,-464.8006868128248 L1989.7639911107797,-464.81058321906403 L1989.8795085427748,-464.81518574511495 L1989.9941957547858,-464.8144863537185 L1990.107852471827,-464.8084862662018 L1990.220280218437,-464.79719596034533 L1990.3312826652696,-464.7806351520861 L1990.4406659719389,-464.75883276108806 L1990.5482391255173,-464.7318268602407 L1990.653814274095,-464.6996646091732 L1990.7572070548215,-464.66240217190125 L1990.8582369158523,-464.6201046187491 L1990.9567274316419,-464.5728458127195 L1991.0525066110301,-464.5207082805085 L1991.145407197586,-464.4637830683916 " />
			<path d="M2805.028487741284,64.24364465646211 L2805.1452814486734,64.22322154964876 L2805.2618530487894,64.20804854503129 L2805.3779989759937,64.19815213879207 L2805.493516407989,64.19354961274112 L2805.60820362,64.19424900413759 L2805.721860337041,64.20024909165431 L2805.8342880836512,64.21153939751078 L2805.9452905304834,64.22810020577 L2806.054673837153,64.24990259676801 L2806.162246990731,64.2769084976154 L2806.267822139309,64.30907074868288 L2806.3712149200355,64.34633318595485 L2806.4722447810664,64.38863073910697 L2806.5707352968557,64.43588954513659 L2806.666514476244,64.48802707734761 L2806.7594150628,64.54495228946448 " />
			<path d="M2806.7594150628,64.54495228946449 L2806.8203761110726,64.58600732517606 L2806.8799048535107,64.62916333713638 L2806.9379539816105,64.6743860285287 L2806.994477362742,64.721639460111 L2807.049430076814,64.77088607877744 L2807.102768451969,64.82208674740252 L2807.154450099293,64.87520077594401 L2807.2044339465024,64.93018595378 L2807.2526802705834,64.9869985832544 L2807.2991507293614,65.04559351440426 L2807.3438083919723,65.10592418084111 L2807.3866177682125,65.1679426367582 L2807.427544836742,65.23159959503369 L2807.466557072124,65.2968444664001 L2807.503623470671,65.36362539964841 L2807.5387145750856,65.43188932283508 L2807.57180249787,65.50158198545921 L2807.6028609434898,65.57264800157643 L2807.63186522927,65.64503089381493 L2807.6587923050106,65.7186731382591 L2807.683620771307,65.79351621016468 L2807.706330896555,65.86950063046942 L2807.726904632631,65.94656601306205 L2807.7453256292374,66.02465111277222 L2807.7615792468955,66.10369387404302 L2807.7756525685777,66.18363148024763 L2807.7875344099766,66.26440040361072 L2807.797215328391,66.34593645569507 L2807.8046876302296,66.42817483841326 L2807.809945377128,66.5110501955237 L2807.812984390664,66.59449666457047 L2807.813802255683,66.67844792922527 " />
			<path d="M2807.5454623213163,143.75563488393556 L2807.541584671296,143.90281696832923 L2807.5309812520054,144.05097245849754 L2807.513677608011,144.19974443488775 L2807.4897154253067,144.34877449277792 L2807.459152430889,144.49770360570503 L2807.422062253689,144.64617299039145 L2807.378534247192,144.79382497108503 L2807.3286732741785,144.94030384123153 L2807.2725994540997,145.08525672040273 L2807.210447873699,145.2283344044163 L2807.1423682615787,145.36919220659937 L2807.0685246274866,145.50749078816878 L2806.9890948672055,145.642896975728 L2806.9042703339846,145.775084563911 L2806.8142553775547,145.90373510123965 L2806.71926685183,146.028538657301 L2806.619533592489,146.149194569397 L2806.5152958656895,146.26541216686724 L2806.4068047892447,146.37691147133992 L2806.294321727661,146.4834238712244 L2806.1781176624863,146.58469276882 L2806.0584725394915,146.68047419848222 L2805.9356745942573,146.77053741435762 L2805.8100196577902,146.85466544627053 L2805.681810443838,146.9326556224233 L2805.5513558196267,147.0043200576505 L2805.4189700617726,147.06948610605056 L2805.284972099162,147.127996776905 L2805.1496847446238,147.17971111288284 L2805.013433917245,147.22450452961905 L2804.8765478572027,147.2622691158493 L2804.739356335005,147.29291389337754 " />
			<path d="M2804.7393563350056,147.29291389337757 L2777.13171761275,152.73638784322927 " />
			<path d="M2777.13171761275,152.73638784322912 L2777.014923905361,152.75681095004248 L2776.8983523052448,152.77198395465993 L2776.7822063780404,152.78188036089915 L2776.6666889460453,152.7864828869501 L2776.552001734034,152.78578349555363 L2776.438345016993,152.7797834080369 L2776.325917270383,152.76849310218043 L2776.2149148235508,152.75193229392121 L2776.105531516881,152.7301299029232 L2775.997958363303,152.7031240020758 L2775.892383214725,152.67096175100835 L2775.7889904339986,152.63369931373637 L2775.6879605729678,152.59140176058426 L2775.5894700571785,152.54414295455464 L2775.49369087779,152.4920054223436 L2775.400790291234,152.43508021022674 " />
			<path d="M2775.400790291234,152.43508021022672 L2775.3398292429615,152.39402517451518 L2775.2803005005235,152.35086916255486 L2775.2222513724237,152.3056464711625 L2775.165727991292,152.25839303958023 L2775.11077527722,152.20914642091378 L2775.057436902065,152.1579457522887 L2775.005755254741,152.10483172374722 L2774.9557714075318,152.04984654591124 L2774.9075250834508,151.99303391643681 L2774.8610546246728,151.93443898528696 L2774.816396962062,151.8741083188501 L2774.7735875858216,151.81208986293302 L2774.732660517292,151.74843290465753 L2774.69364828191,151.68318803329112 L2774.6565818833633,151.6164071000428 L2774.6214907789486,151.54814317685614 L2774.588402856164,151.478450514232 L2774.5573444105444,151.4073844981148 L2774.5283401247643,151.3350016058763 L2774.5014130490235,151.2613593614321 L2774.4765845827274,151.18651628952654 L2774.4538744574793,151.1105318692218 L2774.433300721403,151.03346648662918 L2774.4148797247967,150.955381386919 L2774.3986261071386,150.8763386256482 L2774.3845527854564,150.79640101944358 L2774.3726709440575,150.7156320960805 L2774.3629900256433,150.63409604399615 L2774.3555177238045,150.55185766127798 L2774.3502599769063,150.46898230416753 L2774.34722096337,150.38553583512075 L2774.346403098351,150.30158457046596 " />
			<path d="M2774.3464030983505,150.30158457046596 L2774.6147430327173,73.22439761575569 " />
			<path d="M1960.3652121454843,-458.61099722705507 L1960.4472425005697,-458.6776878834237 L1960.5308161155542,-458.7416995595565 L1960.6158373963597,-458.80295903692456 L1960.7022090930236,-458.86139624504875 L1960.7898324109362,-458.9169443416486 L1960.8786071238446,-458.9695397890984 L1960.9684316884948,-459.0191224271036 L1961.05920336078,-459.06563554151387 L1961.1508183132626,-459.1090259291949 L1961.243171753935,-459.1492439588833 L1961.3361580460844,-459.18624362795657 L1961.4296708291222,-459.21998261505234 L1961.5236031402437,-459.25042232847693 L1961.6178475367756,-459.2775279503474 L1961.7122962190708,-459.3012684764178 L1961.8068411538143,-459.3216167515423 " />
			<path d="M2774.6147430327173,73.22439761575573 L2774.618620682738,73.07721553136206 L2774.6292241020283,72.92906004119375 L2774.6465277460225,72.78028806480351 L2774.670489928727,72.63125800691336 L2774.7010529231447,72.48232889398624 L2774.7381431003446,72.33385950929984 L2774.7816711068417,72.18620752860625 L2774.831532079855,72.03972865845975 L2774.887605899934,71.89477577928857 L2774.9497574803345,71.75169809527497 L2775.017837092455,71.61084029309191 L2775.091680726547,71.4725417115225 L2775.171110486828,71.33713552396327 L2775.255935020049,71.20494793578025 L2775.345949976479,71.07629739845163 L2775.4409385022036,70.95149384239029 L2775.5406717615447,70.83083793029428 L2775.644909488344,70.71462033282404 L2775.753400564789,70.60312102835135 L2775.8658836263726,70.49660862846687 L2775.9820876915473,70.39533973087129 L2776.101732814542,70.29955830120905 L2776.2245307597764,70.20949508533364 L2776.3501856962434,70.12536705342075 L2776.4783949101957,70.04737687726796 L2776.608849534407,69.97571244204077 L2776.741235292261,69.91054639364073 L2776.8752332548715,69.85203572278627 L2777.01052060941,69.80032138680842 L2777.1467714367886,69.75552797007221 L2777.283657496831,69.71776338384198 L2777.4208490190285,69.68711860631375 " />
			<path d="M1989.41447987607,-464.76509070139394 L1961.8068411538143,-459.3216167515423 " />
			<path d="M2805.028487741284,64.24364465646212 L2777.4208490190285,69.68711860631382 " />
			<path d="M18.163066976560085,-67.57711497630378 L18.08186093394552,-67.62597470829776 L18.00087677634459,-67.6665508432869 L17.920335782500764,-67.69873251222677 L17.840458020269836,-67.72243178286645 L17.80083614303979,-67.73107937219851 L17.76146174531293,-67.73758390001205 L17.722361728047176,-67.7419409223527 L17.683562804741136,-67.74414746246188 L17.645091483183197,-67.74420201281072 L17.60697404734116,-67.74210453612989 L17.569236539404788,-67.73785646543513 L17.531904741993547,-67.7314607030482 " />
			<path d="M17.531904741993532,-67.7314607030482 L17.474644178116545,-67.71723725492512 L17.41852384311595,-67.69784134991372 L17.363636688629505,-67.67330511328797 L17.31007362378849,-67.64366918420974 L17.257923364645652,-67.60898264841853 L17.20727228723558,-67.56930295693118 L17.15820428451079,-67.52469583088616 L17.110800627390553,-67.47523515269033 L17.065139830152535,-67.42100284364801 L17.02129752039028,-67.36208872827548 L16.979346313751847,-67.29859038552539 L16.939355693667142,-67.23061298716753 L16.901391896263085,-67.15826912359374 L16.865517800657276,-67.08167861733541 L16.831792824811846,-67.00096832460237 L16.800272827119983,-66.9162719251721 " />
			<path d="M1961.1526307259335,-458.48808878719706 L1961.071424683319,-458.53694851919107 L1960.990440525718,-458.5775246541802 L1960.909899531874,-458.60970632312007 L1960.8300217696433,-458.63340559375973 L1960.7903998924132,-458.6420531830918 L1960.7510254946865,-458.6485577109054 L1960.7119254774207,-458.652914733246 L1960.6731265541146,-458.6551212733552 L1960.6346552325567,-458.65517582370404 L1960.5965377967145,-458.65307834702315 L1960.5588002887782,-458.6488302763284 L1960.521468491367,-458.6424345139415 " />
			<path d="M1960.521468491367,-458.6424345139415 L1960.484567909915,-458.6338954295073 L1960.448123755246,-458.62321885700834 L1960.412160926348,-458.61041209077916 L1960.376703993363,-458.59548388052264 L1960.3417771808006,-458.57844442533195 L1960.3074043509866,-458.55930536672287 L1960.273608987761,-458.5380797806797 L1960.240414180433,-458.51478216872204 L1960.175916523684,-458.46203594040395 L1960.1140876122508,-458.4012108040202 L1960.0550963856429,-458.3324729563942 L1959.9991040297616,-458.2560102148103 " />
			<path d="M1976.4989425683978,-365.52557074456524 L1976.5801486110122,-365.47671101257123 L1976.6611327686132,-365.4361348775821 L1976.7416737624571,-365.40395320864224 L1976.821551524688,-365.38025393800257 L1976.861173401918,-365.3716063486705 L1976.9005477996448,-365.3651018208569 L1976.9396478169106,-365.3607447985163 L1976.9784467402167,-365.3585382584071 L1977.0169180617745,-365.35848370805826 L1977.0550354976167,-365.36058118473915 L1977.092773005553,-365.3648292554339 L1977.1301048029643,-365.3712250178208 " />
			<path d="M34.872171617862996,-55.13597148131348 L34.81924222884715,-55.34197331900771 L34.76046321818202,-55.54462015550755 L34.69609708268657,-55.743007005353824 L34.626431270305694,-55.9362479074454 L34.55177689641773,-56.12347988158708 L34.472467354447424,-56.303866782408825 L34.38885682698897,-56.47660303344523 L34.3013187040883,-56.64091722469964 L34.21024391574815,-56.79607555762681 L34.11603918610285,-56.94138512214929 L34.067894067612635,-57.01014202778636 L34.01912521705917,-57.07619699107312 L33.96978709794531,-57.13947624392523 L33.91993480951493,-57.19990911808358 L33.86962402521987,-57.25742812403435 L33.81891093054559,-57.311969026379145 L33.76785216026501,-57.36347091557107 L33.71650473519055,-57.41187627593657 L33.66492599849516,-57.45713104990709 L33.61317355167325,-57.49918469838887 L33.56130519021319,-57.53799025720338 L33.50937883905314,-57.57350438953545 " />
			<path d="M1978.0529994851738,-444.4886621653525 L1978.0511275556164,-444.636241072139 L1978.045516276516,-444.78590491161435 L1978.0361791659354,-444.93729313048027 L1978.0231387177919,-445.0900410212574 L1978.0064263476672,-445.24378060089765 L1977.9860823171248,-445.39814149728784 L1977.962155636716,-445.5527518415081 L1977.93470394791,-445.70723916369684 L1977.9037933842294,-445.86123129036355 L1977.8694984119295,-446.01435724098684 L1977.8319016506025,-446.1662481217395 L1977.7910936741398,-446.3165380141857 L1977.7471727925306,-446.4648648568107 L1977.7002448150258,-446.6108713172587 L1977.650422795234,-446.7542056531779 L1977.5978267587643,-446.8945225595984 L1977.5425834140758,-447.03148400080227 L1977.4848258472243,-447.16476002468136 L1977.4246932012477,-447.29402955762043 L1977.3623303409568,-447.41898117799207 L1977.2978875039444,-447.5393138663983 L1977.2315199386494,-447.6547377308528 L1977.1633875303498,-447.7649747051562 L1977.093654415985,-447.8697592187818 L1977.022488588735,-447.96883883665816 L1976.9500614933118,-448.0619748673076 L1976.8765476129313,-448.1489429378744 L1976.8021240489707,-448.22953353465914 L1976.7269700943145,-448.3035525078552 L1976.651266801422,-448.370821539273 L1976.5751965461566,-448.43117857192357 L1976.4989425884262,-448.4844782004287 " />
			<path d="M18.163066976560085,-67.57711497630379 L33.50937883905313,-57.57350438953548 " />
			<path d="M1961.1526307259332,-458.488088787197 L1976.4989425884264,-448.48447820042867 " />
			<path d="M215.52833285707692,61.07689078782641 L215.44712678243175,61.02803105719536 L215.36614259292705,60.987454924960595 L215.28560156743072,60.95527326017765 L215.20572377392205,60.931573995100884 L215.16610188123192,60.9229264090765 L215.12672746818436,60.91642188491989 L215.0876274357523,60.91206486658373 L215.0488284974492,60.909858330824314 L215.01035716107816,60.909803785167824 L214.9722397106215,60.91190126688039 L214.93450218828337,60.91614934294257 L214.89717037669743,60.922545111028455 " />
			<path d="M214.89717037669743,60.92254511102846 L214.83990988837058,60.93676853987166 L214.7837896254894,60.95616440870546 L214.72890253926946,60.98070059242047 L214.67533953843287,61.0103364520748 L214.62318933863742,61.04502290220383 L214.572538315538,61.084702492119746 L214.52347036172398,61.12930950106634 L214.4760667477689,61.17877004707136 L214.43040598762317,61.23300220931627 L214.3865637085726,61.29191616382048 L214.34461252597785,61.35541433221564 L214.30462192300268,61.42339154336328 L214.26665813552992,61.495735207548364 L214.23078404245595,61.57232550296004 L214.19705906154513,61.65303557415087 L214.16553905101713,61.737731742145755 " />
			<path d="M2158.5177104924187,-329.8342044497391 L2158.4365044177734,-329.8830641803701 L2158.3555202282687,-329.9236403126049 L2158.2749792027726,-329.9558219773878 L2158.1951014092638,-329.9795212424646 L2158.155479516574,-329.988168828489 L2158.116105103526,-329.9946733526456 L2158.077005071094,-329.99903037098176 L2158.038206132791,-330.00123690674116 L2157.99973479642,-330.00129145239765 L2157.961617345963,-329.9991939706851 L2157.923879823625,-329.9949458946229 L2157.8865480120394,-329.988550126537 " />
			<path d="M2157.8865480120394,-329.988550126537 L2157.8496474166536,-329.9800110360769 L2157.8132032483054,-329.9693344572303 L2157.777240405997,-329.9565276843372 L2157.741783459883,-329.94159946710647 L2157.7068566344865,-329.9245600046379 L2157.6724837921456,-329.9054209384541 L2157.638688416713,-329.88419534454675 L2157.6054935975103,-329.8608977244433 L2157.540995918056,-329.80815147902223 L2157.4791669853857,-329.7473263245133 L2157.4201757390947,-329.6785884578177 L2157.3641833651654,-329.60212569630323 " />
			<path d="M2173.8640271176637,-236.8716873666094 L2173.945233192309,-236.82282763597834 L2174.0262173818137,-236.78225150374357 L2174.10675840731,-236.75006983896063 L2174.1866362008186,-236.72637057388386 L2174.2262580935085,-236.71772298785947 L2174.2656325065564,-236.71121846370286 L2174.3047325389884,-236.7068614453667 L2174.3435314772914,-236.70465490960729 L2174.3820028136624,-236.70460036395082 L2174.4201202641193,-236.70669784566337 L2174.457857786457,-236.71094592172554 L2174.495189598043,-236.71734168981143 " />
			<path d="M232.23744328838148,73.51803573642465 L232.18451391288352,73.31203371240704 L232.12573490224943,73.1093866846692 L232.06136875369486,72.91099964089237 L231.99170291565747,72.71775854438289 L231.91704850410048,72.53052637750866 L231.8377389131208,72.35013928776436 L231.75412832606688,72.17740285367677 L231.6665901338152,72.01308848722606 L231.57551526726908,71.85792998884905 L231.48131045152698,71.71262027040949 L231.43316528734616,71.64386329266492 L231.38439638951604,71.57780826076957 L231.3350582216746,71.51452894299594 L231.28520588320345,71.4540960077825 L231.23489504769452,71.39657694481328 L231.1841819007754,71.34203598964747 L231.13312307736294,71.29053405198307 L231.0817755984152,71.24212864763474 L231.03019680725194,71.19687383430185 L230.9784443055155,71.15482015119858 L230.92657588884293,71.1160145626131 L230.87464948232173,71.08050040545936 " />
			<path d="M2175.4180844974353,-315.8347788948238 L2175.4162125672615,-315.9823578015091 L2175.4106012863845,-316.13202164064705 L2175.4012641728714,-316.28340985894016 L2175.388223720646,-316.4361577489105 L2175.3715113453,-316.589897327512 L2175.3511673084095,-316.74425822263385 L2175.3272406205415,-316.8988685653592 L2175.299788923183,-317.05335588583023 L2175.2688783498766,-317.2073480105604 L2175.234583366902,-317.36047395903313 L2175.196986593876,-317.51236483742633 L2175.156178604718,-317.6626547273098 L2175.1122577094493,-317.8109815671751 L2175.0653297173526,-317.95698802467297 L2175.0155076820715,-318.1003223574587 L2174.962911629253,-318.24063926057 L2174.9076682673954,-318.37760069829693 L2174.8499106825957,-318.51087671853963 L2174.789778017935,-318.6401462476918 L2174.7274151382694,-318.76509786413493 L2174.662972281238,-318.8854305484806 L2174.5966046953286,-319.0008544087523 L2174.528472265868,-319.1110913787607 L2174.458739129847,-319.21587588798945 L2174.387573280498,-319.31495550137777 L2174.3151461625857,-319.4080915274587 L2174.2416322593804,-319.49505959338757 L2174.1672086723147,-319.5756501854761 L2174.0920546943285,-319.64966915392904 L2174.016351377937,-319.7169381805681 L2173.9402810990605,-319.77729520841604 L2173.8640271176637,-319.8305948321061 " />
			<path d="M215.52833285707695,61.07689078782639 L230.8746494823217,71.08050040545933 " />
			<path d="M2158.5177104924187,-329.8342044497391 L2173.8640271176637,-319.83059483210616 " />
			<path d="M412.8936200880731,189.73090814877662 L412.81241401342794,189.68204841814557 L412.73142982392324,189.6414722859108 L412.6508887984269,189.60929062112785 L412.5710110049182,189.58559135605108 L412.53138911222806,189.5769437700267 L412.4920146991805,189.5704392458701 L412.4529146667485,189.56608222753394 L412.4141157284454,189.5638756917745 L412.3756443920743,189.56382114611804 L412.3375269416177,189.5659186278306 L412.29978941927953,189.57016670389277 L412.2624576076936,189.57656247197866 " />
			<path d="M412.2624576076936,189.57656247197866 L412.20519711936674,189.59078590082186 L412.1490768564856,189.61018176965567 L412.09418977026564,189.63471795337068 L412.040626769429,189.664353813025 L411.9884765696336,189.69904026315405 L411.93782554653416,189.73871985306994 L411.88875759272014,189.78332686201654 L411.8413539787651,189.83278740802155 L411.79569321861936,189.88701957026646 L411.7518509395688,189.94593352477068 L411.70989975697404,190.00943169316582 L411.66990915399884,190.07740890431347 L411.6319453665261,190.14975256849854 L411.59607127345214,190.22634286391022 L411.5623462925413,190.30705293510104 L411.5308262820133,190.39174910309592 " />
			<path d="M2355.882997723415,-201.18018708878887 L2355.8017916487697,-201.22904681941992 L2355.720807459265,-201.2696229516547 L2355.640266433769,-201.30180461643764 L2355.56038864026,-201.3255038815144 L2355.52076674757,-201.3341514675388 L2355.4813923345223,-201.3406559916954 L2355.44229230209,-201.34501301003155 L2355.403493363787,-201.34721954579098 L2355.365022027416,-201.34727409144745 L2355.3269045769594,-201.3451766097349 L2355.2891670546214,-201.34092853367272 L2355.2518352430357,-201.33453276558683 " />
			<path d="M2355.2518352430357,-201.33453276558683 L2355.21493464765,-201.3259936751267 L2355.1784904793017,-201.31531709628007 L2355.1425276369932,-201.30251032338697 L2355.1070706908795,-201.28758210615624 L2355.0721438654828,-201.2705426436877 L2355.037771023142,-201.25140357750388 L2355.0039756477095,-201.23017798359658 L2354.9707808285066,-201.20688036349307 L2354.9062831490523,-201.15413411807202 L2354.844454216382,-201.09330896356312 L2354.7854629700905,-201.02457109686745 L2354.7294705961617,-200.948108335353 " />
			<path d="M2371.2293143486595,-108.21767000565924 L2371.3105204233048,-108.16881027502819 L2371.3915046128095,-108.12823414279343 L2371.4720456383056,-108.09605247801048 L2371.5519234318144,-108.0723532129337 L2371.5915453245043,-108.06370562690933 L2371.630919737552,-108.05720110275271 L2371.6700197699843,-108.05284408441656 L2371.7088187082873,-108.05063754865714 L2371.7472900446583,-108.05058300300065 L2371.785407495115,-108.05268048471322 L2371.823145017453,-108.0569285607754 L2371.860476829039,-108.06332432886128 " />
			<path d="M2371.860476829039,-108.06332432886128 L2371.9107010422877,-108.07550370649058 L2371.960059049675,-108.09165565560639 L2372.0084881053385,-108.11175964320869 L2372.0559266443374,-108.13579011230898 L2372.1023143609145,-108.1637165144193 L2372.1475922851596,-108.19550334838678 L2372.1917028579746,-108.23111020552398 L2372.2345900042455,-108.27049182097817 L2372.2761992041264,-108.31359813127366 L2372.316477562348,-108.36037433795465 L2372.355373875459,-108.41076097724704 L2372.39283869692,-108.46469399565125 L2372.42882439996,-108.52210483136953 L2372.4632852381214,-108.58292050146449 L2372.4961774034173,-108.64706369463784 L2372.527459082019,-108.71445286951166 L2372.557090507413,-108.78500235828697 L2372.585034010952,-108.85862247564816 L2372.6112540697436,-108.93521963277436 L2372.6357173518063,-109.01469645631342 L2372.658392758444,-109.09695191216672 L2372.6792514637764,-109.18188143392773 L2372.698266951389,-109.26937705581102 L2372.7154150480374,-109.35932754990263 L2372.730673954379,-109.45161856755742 L2372.744024272686,-109.54613278476363 L2372.7554490315024,-109.64275005128982 L2372.7649337072203,-109.74134754342461 L2372.7724662425426,-109.84179992011511 L2372.7780370618116,-109.94397948230537 L2372.7816390831795,-110.0477563352726 L2372.7832677276137,-110.1529985537544 " />
			<path d="M2372.7833717284316,-110.18743842544632 L2372.7833717284316,-187.18076153387364 " />
			<path d="M429.60273051937753,202.17205309737471 L429.54980114387956,201.9660510733571 L429.4910221332455,201.7634040456193 L429.4266559846909,201.56501700184245 L429.3569901466535,201.37177590533298 L429.2823357350965,201.18454373845879 L429.20302614411685,201.00415664871448 L429.11941555706295,200.8314202146269 L429.03187736481124,200.66710584817616 L428.94080249826516,200.5119473497992 L428.84659768252305,200.36663763135962 L428.79845251834223,200.29788065361507 L428.7496836205121,200.2318256217197 L428.70034545267066,200.16854630394607 L428.6504931141995,200.10811336873263 L428.60018227869057,200.0505943057634 L428.54946913177145,199.9960533505976 L428.49841030835904,199.9445514129332 L428.44706282941127,199.89614600858488 L428.395484038248,199.85089119525202 L428.34373153651154,199.80883751214873 L428.29186311983904,199.77003192356324 L428.2399367133178,199.7345177664095 " />
			<path d="M2372.783371728431,-187.18076153387364 L2372.7814997982573,-187.32834044055895 L2372.7758885173803,-187.4780042796969 L2372.766551403867,-187.62939249799 L2372.7535109516416,-187.78214038796037 L2372.7367985762958,-187.93587996656186 L2372.7164545394053,-188.0902408616837 L2372.6925278515373,-188.24485120440906 L2372.6650761541787,-188.39933852488008 L2372.6341655808724,-188.55333064961027 L2372.5998705978977,-188.706456598083 L2372.5622738248717,-188.85834747647618 L2372.521465835714,-189.0086373663597 L2372.477544940445,-189.15696420622493 L2372.4306169483484,-189.30297066372282 L2372.3807949130673,-189.44630499650853 L2372.328198860249,-189.58662189961981 L2372.272955498391,-189.72358333734678 L2372.2151979135915,-189.8568593575895 L2372.155065248931,-189.98612888674162 L2372.092702369265,-190.11108050318478 L2372.028259512234,-190.23141318753045 L2371.9618919263244,-190.34683704780215 L2371.893759496864,-190.45707401781056 L2371.8240263608427,-190.5618585270393 L2371.752860511494,-190.66093814042765 L2371.6804333935816,-190.75407416650853 L2371.606919490376,-190.84104223243742 L2371.5324959033105,-190.92163282452594 L2371.4573419253243,-190.9956517929789 L2371.381638608933,-191.06292081961797 L2371.3055683300563,-191.1232778474659 L2371.2293143486595,-191.17657747115598 " />
			<path d="M412.893620088073,189.73090814877654 L428.2399367133178,199.73451776640948 " />
			<path d="M2355.882997723415,-201.18018708878895 L2371.22931434866,-191.176577471156 " />
			<path d="M610.2589073190691,318.38492550972666 L610.1777012444239,318.33606577909563 L610.0967170549192,318.29548964686086 L610.0161760294228,318.26330798207795 L609.9362982359141,318.23960871700115 L609.896676343224,318.23096113097677 L609.8573019301765,318.2244566068202 L609.8182018977444,318.220099588484 L609.7794029594413,318.2178930527246 L609.7409316230703,318.2178385070681 L609.7028141726137,318.21993598878066 L609.6650766502755,318.22418406484286 L609.6277448386896,318.23057983292875 " />
			<path d="M609.6277448386895,318.23057983292875 L609.5704843503627,318.24480326177195 L609.5143640874816,318.26419913060573 L609.4594770012616,318.2887353143207 L609.405914000425,318.3183711739751 L609.3537638006295,318.3530576241041 L609.3031127775301,318.39273721402003 L609.2540448237161,318.4373442229666 L609.2066412097611,318.48680476897164 L609.1609804496153,318.5410369312166 L609.1171381705648,318.5999508857208 L609.07518698797,318.663449054116 L609.0351963849948,318.7314262652636 L608.997232597522,318.8037699294487 L608.9613585044481,318.8803602248604 L608.9276335235372,318.9610702960512 L608.8961135130093,319.0457664640461 " />
			<path d="M2553.2482849544112,-72.52616972783878 L2553.167078879766,-72.57502945846983 L2553.0860946902612,-72.61560559070459 L2553.005553664765,-72.64778725548754 L2552.9256758712563,-72.67148652056432 L2552.8860539785665,-72.6801341065887 L2552.8466795655186,-72.6866386307453 L2552.8075795330865,-72.69099564908146 L2552.7687805947835,-72.69320218484089 L2552.7303092584125,-72.69325673049737 L2552.6921918079556,-72.6911592487848 L2552.6544542856177,-72.68691117272262 L2552.617122474032,-72.68051540463674 " />
			<path d="M2552.617122474032,-72.68051540463674 L2552.580221878646,-72.67197631417662 L2552.543777710298,-72.66129973532999 L2552.5078148679895,-72.64849296243688 L2552.4723579218758,-72.63356474520617 L2552.437431096479,-72.61652528273761 L2552.403058254138,-72.5973862165538 L2552.3692628787057,-72.5761606226465 L2552.336068059503,-72.55286300254303 L2552.2715703800486,-72.50011675712199 L2552.2097414473783,-72.43929160261311 L2552.1507502010872,-72.37055373591745 L2552.094757827158,-72.29409097440303 " />
			<path d="M2568.594601579656,20.436347355290856 L2568.675807654301,20.4852070859219 L2568.756791843806,20.52578321815667 L2568.837332869302,20.55796488293961 L2568.9172106628107,20.58166414801638 L2568.9568325555006,20.59031173404076 L2568.9962069685484,20.59681625819737 L2569.0353070009805,20.601173276533537 L2569.0741059392835,20.603379812292953 L2569.1125772756545,20.603434357949435 L2569.1506947261114,20.601336876236875 L2569.1884322484493,20.597088800174696 L2569.225764060035,20.590693032088804 " />
			<path d="M2569.225764060035,20.5906930320888 L2569.2764931915476,20.578369787376584 L2569.3263378093516,20.561993198538175 L2569.375233257647,20.541584508417852 L2569.423116111846,20.517170190088276 L2569.4699242608444,20.488781912511 L2569.5155969875887,20.456456499457207 L2569.5600750478357,20.420235881741817 L2569.603300746999,20.380167042833094 L2569.64521801499,20.33630195790814 L2569.6857724789465,20.288697526433488 L2569.724911533765,20.23741549835809 L2569.762584410335,20.182522394014565 L2569.7987422413944,20.124089417832547 L2569.833338124919,20.062192365976067 L2569.866327184959,19.99691152802477 L2569.897666629853,19.92833158282654 L2569.927315807731,19.85654148865656 L2569.9552362592485,19.78163436782537 L2569.9813917674737,19.7037073858855 L2570.005748404866,19.622861625593497 L2570.0282745772843,19.5392019557907 L2570.0489410649698,19.452836895372922 L2570.0677210604485,19.36387847252551 L2570.0845902033043,19.27244207940629 L2570.099526611778,19.178646322464967 L2570.1125109111513,19.082612868593138 L2570.1235262588775,18.984466287304407 L2570.1325583664316,18.884333889149428 L2570.139595517841,18.782345560575394 L2570.144628584885,18.678633595444207 L2570.1476510389366,18.573332523427883 L2570.1486589594274,18.466578935503808 " />
			<path d="M2570.1486589594274,18.466578935503748 L2570.1486589594274,-58.52674417292357 " />
			<path d="M626.9680177503735,330.826070458325 L626.9150883748756,330.62006843430737 L626.8563093642415,330.41742140656953 L626.7919432156868,330.2190343627927 L626.7222773776496,330.0257932662832 L626.6476229660925,329.83856109940893 L626.5683133751128,329.65817400966466 L626.4847027880589,329.48543757557707 L626.3971645958072,329.3211232091263 L626.3060897292611,329.16596471074934 L626.211884913519,329.02065499230974 L626.1637397493382,328.9518980145652 L626.114970851508,328.8858429826698 L626.0656326836666,328.82256366489617 L626.0157803451955,328.7621307296827 L625.9654695096865,328.7046116667135 L625.9147563627674,328.6500707115477 L625.8636975393549,328.5985687738833 L625.8123500604072,328.55016336953497 L625.760771269244,328.50490855620205 L625.7090187675075,328.4628548730988 L625.657150350835,328.42404928451333 L625.6052239443137,328.3885351273596 " />
			<path d="M2570.1486589594274,-58.526744172923536 L2570.1467870292536,-58.67432307960887 L2570.1411757483766,-58.82398691874682 L2570.1318386348635,-58.975375137039926 L2570.118798182638,-59.12812302701027 L2570.102085807292,-59.28186260561177 L2570.0817417704015,-59.43622350073359 L2570.0578150825336,-59.59083384345896 L2570.030363385175,-59.74532116392999 L2569.9994528118687,-59.89931328866017 L2569.965157828894,-60.05243923713291 L2569.927561055868,-60.20433011552608 L2569.8867530667103,-60.354620005409586 L2569.8428321714414,-60.50294684527484 L2569.7959041793447,-60.64895330277272 L2569.7460821440636,-60.79228763555844 L2569.693486091245,-60.93260453866973 L2569.6382427293875,-61.06956597639668 L2569.580485144588,-61.20284199663941 L2569.520352479927,-61.33211152579154 L2569.4579896002615,-61.45706314223468 L2569.39354674323,-61.57739582658035 L2569.3271791573206,-61.692819686852054 L2569.25904672786,-61.80305665686047 L2569.189313591839,-61.90784116608922 L2569.1181477424902,-62.00692077947755 L2569.045720624578,-62.10005680555844 L2568.9722067213725,-62.18702487148731 L2568.897783134307,-62.267615463575844 L2568.8226291563205,-62.3416344320288 L2568.746925839929,-62.408903458667865 L2568.6708555610526,-62.469260486515815 L2568.594601579656,-62.52256011020589 " />
			<path d="M610.2589073190691,318.3849255097266 L625.6052239443138,328.38853512735955 " />
			<path d="M2553.248284954411,-72.52616972783886 L2568.594601579656,-62.52256011020592 " />
			<path d="M813.8403747208102,451.0910075002185 L813.759168617842,451.042147770717 L813.6781844001249,451.0015716408499 L813.5976433466373,450.9693899796828 L813.5177655254678,450.9456907194734 L813.4781436191051,450.9370431363512 L813.4387691925081,450.9305386154077 L813.399669146663,450.9261816005942 L813.3608701950964,450.9239750686649 L813.3223988456244,450.92392052714365 L813.2842813822424,450.9260180132937 L813.2465438471671,450.9302660940925 L813.2092120230449,450.93666186721026 " />
			<path d="M813.2092120230449,450.93666186721026 L813.1519515918889,450.9508852818538 L813.0958313835484,450.9702811233035 L813.0409443489127,450.99481726657683 L812.9873813963875,451.0244530729022 L812.9352312413251,451.0591394570278 L812.8845802590873,451.09881896852124 L812.8355123419825,451.14342588692296 L812.7881087603172,451.1928863305983 L812.7424480277888,451.2471183791063 L812.6986057714454,451.3060322088829 L812.6566546064255,451.3695302420141 L812.6166640156874,451.4375073078525 L812.5787002349256,451.5098508172097 L812.5428261428655,451.5864409488356 L812.509101157119,451.66715084787614 L812.4775811357716,451.75184683598087 " />
			<path d="M2756.829588088003,60.17980518326852 L2756.748381985035,60.130945453767026 L2756.667397767318,60.09036932389989 L2756.5868567138305,60.05818766273281 L2756.506978892661,60.03448840252343 L2756.4673569862985,60.02584081940121 L2756.4279825597014,60.01933629845775 L2756.388882513856,60.0149792836442 L2756.3500835622895,60.0127727517149 L2756.3116122128176,60.01271821019365 L2756.2734947494355,60.014815696343724 L2756.2357572143605,60.01906377714247 L2756.198425390238,60.025459550260294 " />
			<path d="M2756.198425390238,60.025459550260294 L2756.1615247825293,60.03399864604363 L2756.1250806020835,60.04467523050025 L2756.0891177479143,60.057482009285195 L2756.0536607901895,60.07241023268425 L2756.0187339534423,60.08944970159191 L2755.984361100023,60.10858877447946 L2755.950565713795,60.12981437534857 L2755.917370884091,60.15311200266502 L2755.8528731845577,60.20585826323583 L2755.7910442331076,60.26668343380647 L2755.7320529694125,60.3354213174071 L2755.676060579527,60.41188409659538 " />
			<path d="M2772.175908918704,153.1423214206008 L2772.2571150216722,153.1911811501023 L2772.338099239389,153.23175727996943 L2772.4186402928767,153.2639389411365 L2772.498518114046,153.28763820134589 L2772.5381400204087,153.29628578446813 L2772.577514447006,153.30279030541158 L2772.616614492851,153.3071473202251 L2772.6554134444177,153.30935385215443 L2772.6938847938895,153.30940839367568 L2772.7320022572717,153.3073109075256 L2772.7697397923466,153.30306282672686 L2772.8070716164693,153.296667053609 " />
			<path d="M2772.8070716164693,153.296667053609 L2772.857800759768,153.28434380295252 L2772.907645389109,153.26796720845465 L2772.95654084868,153.2475585129659 L2773.0044237138836,153.22314418956444 L2773.0512318736037,153.19475590721672 L2773.0969046107766,153.16243048969804 L2773.141382681148,153.1262098678269 L2773.1846083901223,153.08614102507437 L2773.2265256676005,153.04227593661972 L2773.267080140712,152.99467150193095 L2773.3062192043435,152.94338947095784 L2773.343892089376,152.88849636403313 L2773.3800499285394,152.83006338558596 L2773.414645819801,152.76816633177916 L2773.4476348872045,152.70288549219055 L2773.4789743390797,152.63430554566554 L2773.5086235235503,152.56251545047616 L2773.5365439812663,152.48760832892924 L2773.562699495289,152.40968134657297 L2773.587056138072,152.3288355861589 L2773.609582315469,152.24517591652287 L2773.6302488077167,152.15881085655454 L2773.649028807337,152.0698524344326 L2773.6658979539084,151.97841604230766 L2773.6808343656694,151.88462028662167 L2773.693818667897,151.788586834258 L2773.704834018044,151.69044025472152 L2773.713866127581,151.5903078585537 L2773.7209032805335,151.4883195321921 L2773.7259363486814,151.3846075694885 L2773.728958803394,151.27930650010452 L2773.7299667241036,151.1725529150067 " />
			<path d="M830.7407533569097,542.0837552319568 L830.740753355284,465.09043212246974 " />
			<path d="M2773.7299667241036,151.17255291500658 L2773.7299667224775,74.17922980551951 " />
			<path d="M830.7407533552841,465.0904321224697 L830.7388814245946,464.94285321588563 L830.7332701421774,464.79318937705534 L830.7239330261033,464.64180115927553 L830.7108925703027,464.4890532700229 L830.6941801903758,464.33531369234174 L830.6738361479098,464.18095279834074 L830.649909453485,464.02634245693395 L830.6224577486037,463.87185513797607 L830.5915471668276,463.71786301494996 L830.5572521744557,463.56473706836806 L830.5196553911286,463.41284619204805 L830.4788473907902,463.262556304415 L830.4349264834877,463.114229466972 L830.387998478534,462.9682230120624 L830.3381764296032,462.8248886820248 L830.2855803623753,462.6845717818147 L830.230336985383,462.54761034713516 L830.1725793847602,462.4143343300787 L830.1124467036258,462.2850648042439 L830.0500838068757,462.16011319124135 L829.9856409321904,462.0397805104511 L829.9192733280997,461.92435665384113 L829.8511408799749,461.8141196875919 L829.7814077248512,461.7093351822108 L829.7102418560072,461.6102555727493 L829.6378147182544,461.5171195506649 L829.5643007949114,461.4301514887926 L829.4898771874588,461.34956090081096 L829.4147231888854,461.2755419365053 L829.3390198517567,461.20827291404396 L829.2629495520425,461.147915890394 L829.186695549758,461.09461627091224 " />
			<path d="M2773.7299667224775,74.17922980551957 L2773.728094791788,74.03165089893554 L2773.722483509371,73.88198706010525 L2773.713146393297,73.73059884232545 L2773.700105937496,73.5778509530728 L2773.683393557569,73.42411137539165 L2773.6630495151035,73.26975048139064 L2773.6391228206785,73.11514013998384 L2773.611671115797,72.96065282102595 L2773.580760534021,72.80666069799983 L2773.5464655416495,72.65353475141798 L2773.508868758322,72.50164387509795 L2773.4680607579835,72.35135398746488 L2773.424139850681,72.20302715002191 L2773.3772118457277,72.05702069511233 L2773.327389796797,71.91368636507468 L2773.274793729569,71.77336946486463 L2773.2195503525763,71.63640803018507 L2773.1617927519537,71.50313201312858 L2773.1016600708194,71.37386248729383 L2773.0392971740694,71.24891087429124 L2772.974854299384,71.128578193501 L2772.9084866952935,71.01315433689103 L2772.8403542471683,70.90291737064183 L2772.7706210920446,70.79813286526073 L2772.699455223201,70.69905325579921 L2772.627028085448,70.60591723371482 L2772.553514162105,70.51894917184254 L2772.4790905546524,70.43835858386088 L2772.403936556079,70.36433961955521 L2772.32823321895,70.29707059709384 L2772.252162919236,70.23671357344395 L2772.175908916952,70.18341395396216 " />
			<path d="M813.8403747208104,451.0910075002185 L829.186695549758,461.09461627091224 " />
			<path d="M2756.8295880880037,60.179805183268414 L2772.1759089169514,70.18341395396213 " />
			<path d="M13.811684962720298,-68.02735935478937 L827.9434947905794,462.6704622591302 " />
			<path d="M-16.60898824630922,65.60735815333668 L797.5228215815499,596.3051797672563 " />
			<path d="M-16.60898824630922,-58.92421530048767 L797.5228215815499,471.7736063134319 " />
			<path d="M-13.811684962720298,-62.46979845610441 L800.3201248651388,468.2280231578152 " />
			<path d="M1989.4144798760701,-464.765090701394 L2805.028487741284,64.24364465646215 " />
			<path d="M1976.5001876917831,-367.1829281428437 L2063.2126616185074,-310.9410591590191 " />
			<path d="M2174.6213735714036,-238.6811650795775 L2261.3340530015857,-182.43916280583474 " />
			<path d="M2282.14025366377,-168.94422305030884 L2459.455444384664,-53.937266452650306 " />
			<path d="M2570.1486589594274,17.858554720357915 L2663.816675070501,78.61180107042173 " />
			<path d="M2773.729966724077,149.90176281208687 L2774.346403098351,150.30158457046616 " />
			<path d="M1976.8036849499858,-444.2373119930931 L2154.1186701232973,-329.23048871397174 " />
			<path d="M2174.924870785482,-315.7355489584458 L2352.2400615063752,-200.72859236078745 " />
			<path d="M2372.779007360835,-187.40699456173814 L2550.3614528894536,-72.22669600760304 " />
			<path d="M2570.0817643389505,-59.43606597898622 L2754.7226758602887,60.32236651150458 " />
			<path d="M2773.5105746939066,72.50823201425362 L2774.6147430327173,73.22439761575583 " />
			<path d="M1961.8068411538143,-459.3216167515423 L2777.4208490190285,69.68711860631385 " />
			<path d="M18.163066976560085,-67.57711497630379 L1961.1526307259337,-458.48808878719717 " />
			<path d="M127.00075266178737,4.918723198568834 L1978.052999466586,-367.49533906586583 " />
			<path d="M36.744005265819446,-53.91580291965985 L1978.0529994851743,-444.4886621653526 " />
			<path d="M33.50937883905313,-57.57350438953546 L1976.4989425884269,-448.48447820042884 " />
			<path d="M215.52833285707692,61.076890787826386 L2158.5177104924187,-329.8342044497391 " />
			<path d="M324.3660124517029,133.57272267184834 L2175.4180844974353,-238.84145578639644 " />
			<path d="M234.1092736921541,74.73820218333312 L2175.4180844974353,-315.8347788948238 " />
			<path d="M230.8746494823217,71.08050040545933 L2173.8640271176637,-319.83059483210616 " />
			<path d="M412.8936200880731,189.7309081487766 L2355.882997723415,-201.18018708878887 " />
			<path d="M521.731299682699,262.2267400327985 L2372.7427649544816,-110.17926872639316 " />
			<path d="M431.4745609231502,203.39221954428328 L2372.7833717284316,-187.1807615338736 " />
			<path d="M428.2399367133178,199.73451776640948 L2371.2293143486595,-191.17657747115598 " />
			<path d="M610.2589073190691,318.38492550972666 L2553.2482849544112,-72.5261697278388 " />
			<path d="M719.096586913695,390.8807573937486 L2570.1486589594274,18.466578935503776 " />
			<path d="M628.8398481541461,332.04623690523334 L2570.1486589594274,-58.52674417292354 " />
			<path d="M625.6052239443137,328.38853512735955 L2568.594601579656,-62.522560110205916 " />
			<path d="M813.8403747208104,451.09100750021855 L2756.8295880880037,60.17980518326851 " />
			<path d="M830.7407533569099,542.0837552319567 L2773.729966724103,151.1725529150067 " />
			<path d="M830.7407533552839,465.0904321224696 L2773.729966722477,74.17922980551958 " />
			<path d="M829.186695549758,461.0946162709122 L2772.1759089169514,70.18341395396214 " />
			<path d="M829.6909562983451,462.9725123242051 L15.559146470486025,-67.72530928971449 " />
			<path d="M798.5726633573731,598.423130903634 L-15.559146470486025,67.72530928971449 " />
			<path d="M2806.7594150628,64.54495228946467 L1991.145407197586,-464.4637830683916 " />
			<path d="M2775.4007902912335,152.4350802102269 L2773.7271709786737,151.34956766695285 " />
			<path d="M2662.110825379753,78.95500202542178 L2570.085486691233,19.267199252253533 " />
			<path d="M2457.749594549144,-53.594065591549736 L2372.5771467384734,-108.83707082338475 " />
			<path d="M2259.628203166066,-182.09596194473406 L2174.952912489158,-237.01651015146942 " />
			<path d="M2061.506811782988,-310.59785829791844 L1977.0754085614992,-365.36022065556705 " />
			<path d="M1960.5214684913665,-458.6424345139414 L17.531904741993532,-67.7314607030482 " />
			<path d="M1977.1301048029643,-365.37122501782085 L129.27311812429255,6.399981376058776 " />
			<path d="M2157.8865480120394,-329.988550126537 L214.89717037669743,60.92254511102847 " />
			<path d="M2174.495189598043,-236.71734168981143 L326.63837760923184,135.0539806505373 " />
			<path d="M2355.2518352430357,-201.33453276558683 L412.26245760769353,189.57656247197863 " />
			<path d="M2371.8604768290393,-108.06332432886126 L524.0036648402279,263.7079980114875 " />
			<path d="M2552.6171224740315,-72.68051540463676 L609.6277448386895,318.2305798329287 " />
			<path d="M2569.225764060035,20.59069303208878 L721.3689520712239,392.3620153724375 " />
			<path d="M2756.1984253902388,60.025459550260166 L813.2092120230449,450.93666186721026 " />
			<path d="M2772.807071616469,153.29666705360904 L830.7407980741683,544.0221825359987 " />

       </g>
    </g>
    
</svg>
